<?xml version="1.0" encoding="UTF-8" standalone="no"?>
<!DOCTYPE svg PUBLIC "-//W3C//DTD SVG 1.1//EN"
 "http://www.w3.org/Graphics/SVG/1.1/DTD/svg11.dtd">
<!-- Generated by graphviz version 12.2.1 (20241206.2353)
 -->
<!-- Title: src/nwb/misc/AnnotationSeries.cpp Pages: 1 -->
<svg width="2125pt" height="536pt"
 viewBox="0.00 0.00 2124.88 535.75" xmlns="http://www.w3.org/2000/svg" xmlns:xlink="http://www.w3.org/1999/xlink">
<g id="graph0" class="graph" transform="scale(1 1) rotate(0) translate(4 531.75)">
<title>src/nwb/misc/AnnotationSeries.cpp</title>
<!-- Node1 -->
<g id="Node000001" class="node">
<title>Node1</title>
<g id="a_Node000001"><a xlink:title=" ">
<polygon fill="#999999" stroke="#666666" points="193.13,-527.75 22.63,-527.75 22.63,-508.5 193.13,-508.5 193.13,-527.75"/>
<text text-anchor="middle" x="107.88" y="-514.25" font-family="Helvetica,sans-Serif" font-size="10.00">src/nwb/misc/AnnotationSeries.cpp</text>
</a>
</g>
</g>
<!-- Node2 -->
<g id="Node000002" class="node">
<title>Node2</title>
<g id="a_Node000002"><a xlink:href="_annotation_series_8hpp.html" target="_top" xlink:title=" ">
<polygon fill="white" stroke="#666666" points="930.88,-472.5 776.88,-472.5 776.88,-453.25 930.88,-453.25 930.88,-472.5"/>
<text text-anchor="middle" x="853.88" y="-459" font-family="Helvetica,sans-Serif" font-size="10.00">nwb/misc/AnnotationSeries.hpp</text>
</a>
</g>
</g>
<!-- Node1&#45;&gt;Node2 -->
<g id="edge1_Node000001_Node000002" class="edge">
<title>Node1&#45;&gt;Node2</title>
<g id="a_edge1_Node000001_Node000002"><a xlink:title=" ">
<path fill="none" stroke="#63b8ff" d="M193.45,-511.02C335.98,-500.84 620.58,-480.53 765.16,-470.21"/>
<polygon fill="#63b8ff" stroke="#63b8ff" points="765.36,-473.7 775.09,-469.5 764.86,-466.72 765.36,-473.7"/>
</a>
</g>
</g>
<!-- Node4 -->
<g id="Node000004" class="node">
<title>Node4</title>
<g id="a_Node000004"><a xlink:href="_utils_8hpp.html" target="_top" xlink:title=" ">
<polygon fill="white" stroke="#666666" points="1039.38,-251.5 984.38,-251.5 984.38,-232.25 1039.38,-232.25 1039.38,-251.5"/>
<text text-anchor="middle" x="1011.88" y="-238" font-family="Helvetica,sans-Serif" font-size="10.00">Utils.hpp</text>
</a>
</g>
</g>
<!-- Node1&#45;&gt;Node4 -->
<g id="edge70_Node000001_Node000004" class="edge">
<title>Node1&#45;&gt;Node4</title>
<g id="a_edge70_Node000001_Node000004"><a xlink:title=" ">
<path fill="none" stroke="#63b8ff" d="M100.21,-508.25C85.74,-490.56 55.88,-449.15 55.88,-408.62 55.88,-408.62 55.88,-408.62 55.88,-351.38 55.88,-257.49 793.21,-244.83 972.8,-243.13"/>
<polygon fill="#63b8ff" stroke="#63b8ff" points="972.56,-246.64 982.53,-243.05 972.5,-239.64 972.56,-246.64"/>
</a>
</g>
</g>
<!-- Node3 -->
<g id="Node000003" class="node">
<title>Node3</title>
<g id="a_Node000003"><a xlink:title=" ">
<polygon fill="#e0e0e0" stroke="#999999" points="2056.88,-74.5 2016.88,-74.5 2016.88,-55.25 2056.88,-55.25 2056.88,-74.5"/>
<text text-anchor="middle" x="2036.88" y="-61" font-family="Helvetica,sans-Serif" font-size="10.00">string</text>
</a>
</g>
</g>
<!-- Node2&#45;&gt;Node3 -->
<g id="edge2_Node000002_Node000003" class="edge">
<title>Node2&#45;&gt;Node3</title>
<g id="a_edge2_Node000002_Node000003"><a xlink:title=" ">
<path fill="none" stroke="#63b8ff" d="M930.98,-459.31C1205.2,-449.69 2116.88,-413.21 2116.88,-353.38 2116.88,-353.38 2116.88,-353.38 2116.88,-180 2116.88,-138.99 2081.81,-102.25 2058.11,-82.11"/>
<polygon fill="#63b8ff" stroke="#63b8ff" points="2060.51,-79.56 2050.55,-75.95 2056.09,-84.98 2060.51,-79.56"/>
</a>
</g>
</g>
<!-- Node2&#45;&gt;Node4 -->
<g id="edge3_Node000002_Node000004" class="edge">
<title>Node2&#45;&gt;Node4</title>
<g id="a_edge3_Node000002_Node000004"><a xlink:title=" ">
<path fill="none" stroke="#63b8ff" d="M860.27,-453.02C883.89,-420.27 966.59,-305.64 998.85,-260.93"/>
<polygon fill="#63b8ff" stroke="#63b8ff" points="1001.69,-262.99 1004.7,-252.83 996.01,-258.89 1001.69,-262.99"/>
</a>
</g>
</g>
<!-- Node19 -->
<g id="Node000019" class="node">
<title>Node19</title>
<g id="a_Node000019"><a xlink:href="_base_i_o_8hpp.html" target="_top" xlink:title=" ">
<polygon fill="white" stroke="#666666" points="1719,-129.75 1640.75,-129.75 1640.75,-110.5 1719,-110.5 1719,-129.75"/>
<text text-anchor="middle" x="1679.88" y="-116.25" font-family="Helvetica,sans-Serif" font-size="10.00">io/BaseIO.hpp</text>
</a>
</g>
</g>
<!-- Node2&#45;&gt;Node19 -->
<g id="edge49_Node000002_Node000019" class="edge">
<title>Node2&#45;&gt;Node19</title>
<g id="a_edge49_Node000002_Node000019"><a xlink:title=" ">
<path fill="none" stroke="#63b8ff" d="M931.12,-460.09C1113.03,-455.49 1557.86,-441.85 1620.88,-417.25 1662.62,-400.96 1698.88,-398.18 1698.88,-353.38 1698.88,-353.38 1698.88,-353.38 1698.88,-296.12 1698.88,-239.74 1689.01,-173.73 1683.5,-141.25"/>
<polygon fill="#63b8ff" stroke="#63b8ff" points="1686.99,-140.94 1681.83,-131.69 1680.1,-142.14 1686.99,-140.94"/>
</a>
</g>
</g>
<!-- Node31 -->
<g id="Node000031" class="node">
<title>Node31</title>
<g id="a_Node000031"><a xlink:href="_read_i_o_8hpp.html" target="_top" xlink:title=" ">
<polygon fill="white" stroke="#666666" points="1581.38,-129.75 1502.38,-129.75 1502.38,-110.5 1581.38,-110.5 1581.38,-129.75"/>
<text text-anchor="middle" x="1541.88" y="-116.25" font-family="Helvetica,sans-Serif" font-size="10.00">io/ReadIO.hpp</text>
</a>
</g>
</g>
<!-- Node2&#45;&gt;Node31 -->
<g id="edge50_Node000002_Node000031" class="edge">
<title>Node2&#45;&gt;Node31</title>
<g id="a_edge50_Node000002_Node000031"><a xlink:title=" ">
<path fill="none" stroke="#63b8ff" d="M776.72,-461.33C557.01,-457.99 -52.66,-435.43 3.88,-287.5 29.81,-219.66 46.96,-196.25 112.88,-165.75 180.31,-134.55 1340.58,-137.21 1490.79,-129.42"/>
<polygon fill="#63b8ff" stroke="#63b8ff" points="1490.86,-132.93 1500.59,-128.74 1490.37,-125.94 1490.86,-132.93"/>
</a>
</g>
</g>
<!-- Node33 -->
<g id="Node000033" class="node">
<title>Node33</title>
<g id="a_Node000033"><a xlink:href="_time_series_8hpp.html" target="_top" xlink:title=" ">
<polygon fill="white" stroke="#666666" points="1611.5,-417.25 1482.25,-417.25 1482.25,-398 1611.5,-398 1611.5,-417.25"/>
<text text-anchor="middle" x="1546.88" y="-403.75" font-family="Helvetica,sans-Serif" font-size="10.00">nwb/base/TimeSeries.hpp</text>
</a>
</g>
</g>
<!-- Node2&#45;&gt;Node33 -->
<g id="edge51_Node000002_Node000033" class="edge">
<title>Node2&#45;&gt;Node33</title>
<g id="a_edge51_Node000002_Node000033"><a xlink:title=" ">
<path fill="none" stroke="#63b8ff" d="M931.36,-455.92C1065.2,-445.64 1338.11,-424.67 1470.91,-414.46"/>
<polygon fill="#63b8ff" stroke="#63b8ff" points="1470.94,-417.97 1480.64,-413.71 1470.41,-410.99 1470.94,-417.97"/>
</a>
</g>
</g>
<!-- Node4&#45;&gt;Node3 -->
<g id="edge12_Node000004_Node000003" class="edge">
<title>Node4&#45;&gt;Node3</title>
<g id="a_edge12_Node000004_Node000003"><a xlink:title=" ">
<path fill="none" stroke="#63b8ff" d="M1039.85,-240.61C1122.78,-239.4 1374.26,-232.77 1578.88,-196.25 1686.16,-177.11 1710.05,-159.52 1814.88,-129.75 1897.27,-106.35 1920.4,-100 2005.61,-75.14"/>
<polygon fill="#63b8ff" stroke="#63b8ff" points="2006.53,-78.52 2015.15,-72.36 2004.57,-71.8 2006.53,-78.52"/>
</a>
</g>
</g>
<!-- Node5 -->
<g id="Node000005" class="node">
<title>Node5</title>
<g id="a_Node000005"><a xlink:title=" ">
<polygon fill="#e0e0e0" stroke="#999999" points="1145.75,-190.62 1090,-190.62 1090,-171.38 1145.75,-171.38 1145.75,-190.62"/>
<text text-anchor="middle" x="1117.88" y="-177.12" font-family="Helvetica,sans-Serif" font-size="10.00">algorithm</text>
</a>
</g>
</g>
<!-- Node4&#45;&gt;Node5 -->
<g id="edge4_Node000004_Node000005" class="edge">
<title>Node4&#45;&gt;Node5</title>
<g id="a_edge4_Node000004_Node000005"><a xlink:title=" ">
<path fill="none" stroke="#63b8ff" d="M1027.98,-231.93C1044.87,-222.55 1071.68,-207.66 1091.63,-196.58"/>
<polygon fill="#63b8ff" stroke="#63b8ff" points="1093.26,-199.68 1100.31,-191.76 1089.86,-193.56 1093.26,-199.68"/>
</a>
</g>
</g>
<!-- Node6 -->
<g id="Node000006" class="node">
<title>Node6</title>
<g id="a_Node000006"><a xlink:title=" ">
<polygon fill="#e0e0e0" stroke="#999999" points="1209.5,-190.62 1164.25,-190.62 1164.25,-171.38 1209.5,-171.38 1209.5,-190.62"/>
<text text-anchor="middle" x="1186.88" y="-177.12" font-family="Helvetica,sans-Serif" font-size="10.00">chrono</text>
</a>
</g>
</g>
<!-- Node4&#45;&gt;Node6 -->
<g id="edge5_Node000004_Node000006" class="edge">
<title>Node4&#45;&gt;Node6</title>
<g id="a_edge5_Node000004_Node000006"><a xlink:title=" ">
<path fill="none" stroke="#63b8ff" d="M1039.62,-233.26C1068.67,-225.04 1115.46,-211.12 1154.88,-196.25 1155.52,-196.01 1156.17,-195.76 1156.81,-195.51"/>
<polygon fill="#63b8ff" stroke="#63b8ff" points="1158.11,-198.76 1166,-191.69 1155.42,-192.3 1158.11,-198.76"/>
</a>
</g>
</g>
<!-- Node7 -->
<g id="Node000007" class="node">
<title>Node7</title>
<g id="a_Node000007"><a xlink:title=" ">
<polygon fill="#e0e0e0" stroke="#999999" points="1270.38,-190.62 1227.38,-190.62 1227.38,-171.38 1270.38,-171.38 1270.38,-190.62"/>
<text text-anchor="middle" x="1248.88" y="-177.12" font-family="Helvetica,sans-Serif" font-size="10.00">cmath</text>
</a>
</g>
</g>
<!-- Node4&#45;&gt;Node7 -->
<g id="edge6_Node000004_Node000007" class="edge">
<title>Node4&#45;&gt;Node7</title>
<g id="a_edge6_Node000004_Node000007"><a xlink:title=" ">
<path fill="none" stroke="#63b8ff" d="M1039.55,-237C1079.77,-230.89 1156.41,-217.5 1218.88,-196.25 1219.68,-195.98 1220.48,-195.69 1221.29,-195.39"/>
<polygon fill="#63b8ff" stroke="#63b8ff" points="1222.47,-198.69 1230.32,-191.58 1219.74,-192.25 1222.47,-198.69"/>
</a>
</g>
</g>
<!-- Node8 -->
<g id="Node000008" class="node">
<title>Node8</title>
<g id="a_Node000008"><a xlink:title=" ">
<polygon fill="#e0e0e0" stroke="#999999" points="668.5,-74.5 623.25,-74.5 623.25,-55.25 668.5,-55.25 668.5,-74.5"/>
<text text-anchor="middle" x="645.88" y="-61" font-family="Helvetica,sans-Serif" font-size="10.00">cstdint</text>
</a>
</g>
</g>
<!-- Node4&#45;&gt;Node8 -->
<g id="edge7_Node000004_Node000008" class="edge">
<title>Node4&#45;&gt;Node8</title>
<g id="a_edge7_Node000004_Node000008"><a xlink:title=" ">
<path fill="none" stroke="#63b8ff" d="M984.05,-240.56C835.72,-238.75 143.65,-228.58 112.88,-196.25 40.91,-120.62 482.88,-78.93 611.51,-68.5"/>
<polygon fill="#63b8ff" stroke="#63b8ff" points="611.75,-71.99 621.44,-67.71 611.19,-65.01 611.75,-71.99"/>
</a>
</g>
</g>
<!-- Node9 -->
<g id="Node000009" class="node">
<title>Node9</title>
<g id="a_Node000009"><a xlink:title=" ">
<polygon fill="#e0e0e0" stroke="#999999" points="1328.88,-190.62 1288.88,-190.62 1288.88,-171.38 1328.88,-171.38 1328.88,-190.62"/>
<text text-anchor="middle" x="1308.88" y="-177.12" font-family="Helvetica,sans-Serif" font-size="10.00">ctime</text>
</a>
</g>
</g>
<!-- Node4&#45;&gt;Node9 -->
<g id="edge8_Node000004_Node000009" class="edge">
<title>Node4&#45;&gt;Node9</title>
<g id="a_edge8_Node000004_Node000009"><a xlink:title=" ">
<path fill="none" stroke="#63b8ff" d="M1039.51,-238.94C1088.82,-234.91 1194.78,-223.59 1279.88,-196.25 1280.68,-195.99 1281.49,-195.72 1282.3,-195.42"/>
<polygon fill="#63b8ff" stroke="#63b8ff" points="1283.45,-198.74 1291.27,-191.59 1280.7,-192.3 1283.45,-198.74"/>
</a>
</g>
</g>
<!-- Node10 -->
<g id="Node000010" class="node">
<title>Node10</title>
<g id="a_Node000010"><a xlink:title=" ">
<polygon fill="#e0e0e0" stroke="#999999" points="1396.75,-190.62 1347,-190.62 1347,-171.38 1396.75,-171.38 1396.75,-190.62"/>
<text text-anchor="middle" x="1371.88" y="-177.12" font-family="Helvetica,sans-Serif" font-size="10.00">iomanip</text>
</a>
</g>
</g>
<!-- Node4&#45;&gt;Node10 -->
<g id="edge9_Node000004_Node000010" class="edge">
<title>Node4&#45;&gt;Node10</title>
<g id="a_edge9_Node000004_Node000010"><a xlink:title=" ">
<path fill="none" stroke="#63b8ff" d="M1039.84,-239.5C1096.83,-236.17 1230.14,-225.66 1337.88,-196.25 1339.27,-195.87 1340.68,-195.45 1342.09,-194.99"/>
<polygon fill="#63b8ff" stroke="#63b8ff" points="1343.19,-198.32 1351.35,-191.56 1340.76,-191.75 1343.19,-198.32"/>
</a>
</g>
</g>
<!-- Node11 -->
<g id="Node000011" class="node">
<title>Node11</title>
<g id="a_Node000011"><a xlink:title=" ">
<polygon fill="#e0e0e0" stroke="#999999" points="161.88,-190.62 121.88,-190.62 121.88,-171.38 161.88,-171.38 161.88,-190.62"/>
<text text-anchor="middle" x="141.88" y="-177.12" font-family="Helvetica,sans-Serif" font-size="10.00">regex</text>
</a>
</g>
</g>
<!-- Node4&#45;&gt;Node11 -->
<g id="edge10_Node000004_Node000011" class="edge">
<title>Node4&#45;&gt;Node11</title>
<g id="a_edge10_Node000004_Node000011"><a xlink:title=" ">
<path fill="none" stroke="#63b8ff" d="M984.03,-240.89C856.73,-240.75 329.7,-237.63 170.88,-196.25 169.88,-195.99 168.88,-195.69 167.87,-195.37"/>
<polygon fill="#63b8ff" stroke="#63b8ff" points="169.36,-192.2 158.79,-191.62 166.7,-198.67 169.36,-192.2"/>
</a>
</g>
</g>
<!-- Node12 -->
<g id="Node000012" class="node">
<title>Node12</title>
<g id="a_Node000012"><a xlink:title=" ">
<polygon fill="#e0e0e0" stroke="#999999" points="231.5,-190.62 180.25,-190.62 180.25,-171.38 231.5,-171.38 231.5,-190.62"/>
<text text-anchor="middle" x="205.88" y="-177.12" font-family="Helvetica,sans-Serif" font-size="10.00">sstream</text>
</a>
</g>
</g>
<!-- Node4&#45;&gt;Node12 -->
<g id="edge11_Node000004_Node000012" class="edge">
<title>Node4&#45;&gt;Node12</title>
<g id="a_edge11_Node000004_Node000012"><a xlink:title=" ">
<path fill="none" stroke="#63b8ff" d="M984.02,-240.48C863.51,-238.61 386.7,-229.2 240.88,-196.25 239.12,-195.85 237.33,-195.37 235.54,-194.84"/>
<polygon fill="#63b8ff" stroke="#63b8ff" points="236.79,-191.57 226.19,-191.52 234.44,-198.16 236.79,-191.57"/>
</a>
</g>
</g>
<!-- Node13 -->
<g id="Node000013" class="node">
<title>Node13</title>
<g id="a_Node000013"><a xlink:title=" ">
<polygon fill="#e0e0e0" stroke="#999999" points="354.13,-190.62 249.63,-190.62 249.63,-171.38 354.13,-171.38 354.13,-190.62"/>
<text text-anchor="middle" x="301.88" y="-177.12" font-family="Helvetica,sans-Serif" font-size="10.00">boost/date_time.hpp</text>
</a>
</g>
</g>
<!-- Node4&#45;&gt;Node13 -->
<g id="edge13_Node000004_Node000013" class="edge">
<title>Node4&#45;&gt;Node13</title>
<g id="a_edge13_Node000004_Node000013"><a xlink:title=" ">
<path fill="none" stroke="#63b8ff" d="M983.92,-240.52C893.66,-239.02 602.03,-231.59 363.88,-196.25 358.83,-195.5 353.58,-194.56 348.36,-193.51"/>
<polygon fill="#63b8ff" stroke="#63b8ff" points="349.1,-190.09 338.59,-191.42 347.63,-196.94 349.1,-190.09"/>
</a>
</g>
</g>
<!-- Node14 -->
<g id="Node000014" class="node">
<title>Node14</title>
<g id="a_Node000014"><a xlink:title=" ">
<polygon fill="#e0e0e0" stroke="#999999" points="513.13,-190.62 372.63,-190.62 372.63,-171.38 513.13,-171.38 513.13,-190.62"/>
<text text-anchor="middle" x="442.88" y="-177.12" font-family="Helvetica,sans-Serif" font-size="10.00">boost/endian/conversion.hpp</text>
</a>
</g>
</g>
<!-- Node4&#45;&gt;Node14 -->
<g id="edge14_Node000004_Node000014" class="edge">
<title>Node4&#45;&gt;Node14</title>
<g id="a_edge14_Node000004_Node000014"><a xlink:title=" ">
<path fill="none" stroke="#63b8ff" d="M983.94,-239.16C909.04,-234.39 697.56,-219.73 522.88,-196.25 515.91,-195.31 508.61,-194.2 501.39,-193.01"/>
<polygon fill="#63b8ff" stroke="#63b8ff" points="502.09,-189.58 491.65,-191.36 500.92,-196.48 502.09,-189.58"/>
</a>
</g>
</g>
<!-- Node15 -->
<g id="Node000015" class="node">
<title>Node15</title>
<g id="a_Node000015"><a xlink:title=" ">
<polygon fill="#e0e0e0" stroke="#999999" points="632.25,-190.62 531.5,-190.62 531.5,-171.38 632.25,-171.38 632.25,-190.62"/>
<text text-anchor="middle" x="581.88" y="-177.12" font-family="Helvetica,sans-Serif" font-size="10.00">boost/uuid/uuid.hpp</text>
</a>
</g>
</g>
<!-- Node4&#45;&gt;Node15 -->
<g id="edge15_Node000004_Node000015" class="edge">
<title>Node4&#45;&gt;Node15</title>
<g id="a_edge15_Node000004_Node000015"><a xlink:title=" ">
<path fill="none" stroke="#63b8ff" d="M984.25,-238.67C922.41,-233.49 768.25,-219.21 640.88,-196.25 636.57,-195.47 632.1,-194.57 627.65,-193.61"/>
<polygon fill="#63b8ff" stroke="#63b8ff" points="628.68,-190.26 618.15,-191.46 627.13,-197.08 628.68,-190.26"/>
</a>
</g>
</g>
<!-- Node16 -->
<g id="Node000016" class="node">
<title>Node16</title>
<g id="a_Node000016"><a xlink:title=" ">
<polygon fill="#e0e0e0" stroke="#999999" points="801.75,-190.62 650,-190.62 650,-171.38 801.75,-171.38 801.75,-190.62"/>
<text text-anchor="middle" x="725.88" y="-177.12" font-family="Helvetica,sans-Serif" font-size="10.00">boost/uuid/uuid_generators.hpp</text>
</a>
</g>
</g>
<!-- Node4&#45;&gt;Node16 -->
<g id="edge16_Node000004_Node000016" class="edge">
<title>Node4&#45;&gt;Node16</title>
<g id="a_edge16_Node000004_Node000016"><a xlink:title=" ">
<path fill="none" stroke="#63b8ff" d="M983.94,-235.12C937.03,-225.47 841.63,-205.83 780.89,-193.32"/>
<polygon fill="#63b8ff" stroke="#63b8ff" points="781.95,-189.97 771.45,-191.38 780.54,-196.83 781.95,-189.97"/>
</a>
</g>
</g>
<!-- Node17 -->
<g id="Node000017" class="node">
<title>Node17</title>
<g id="a_Node000017"><a xlink:title=" ">
<polygon fill="#e0e0e0" stroke="#999999" points="933.63,-190.62 820.13,-190.62 820.13,-171.38 933.63,-171.38 933.63,-190.62"/>
<text text-anchor="middle" x="876.88" y="-177.12" font-family="Helvetica,sans-Serif" font-size="10.00">boost/uuid/uuid_io.hpp</text>
</a>
</g>
</g>
<!-- Node4&#45;&gt;Node17 -->
<g id="edge17_Node000004_Node000017" class="edge">
<title>Node4&#45;&gt;Node17</title>
<g id="a_edge17_Node000004_Node000017"><a xlink:title=" ">
<path fill="none" stroke="#63b8ff" d="M991.08,-231.8C968.82,-222.1 933.26,-206.59 907.74,-195.46"/>
<polygon fill="#63b8ff" stroke="#63b8ff" points="909.43,-192.38 898.87,-191.59 906.63,-198.79 909.43,-192.38"/>
</a>
</g>
</g>
<!-- Node18 -->
<g id="Node000018" class="node">
<title>Node18</title>
<g id="a_Node000018"><a xlink:title=" ">
<polygon fill="#e0e0e0" stroke="#999999" points="1071.63,-196.25 952.13,-196.25 952.13,-165.75 1071.63,-165.75 1071.63,-196.25"/>
<text text-anchor="start" x="960.13" y="-182.75" font-family="Helvetica,sans-Serif" font-size="10.00">boost/date_time/c_local</text>
<text text-anchor="middle" x="1011.88" y="-171.5" font-family="Helvetica,sans-Serif" font-size="10.00">_time_adjustor.hpp</text>
</a>
</g>
</g>
<!-- Node4&#45;&gt;Node18 -->
<g id="edge18_Node000004_Node000018" class="edge">
<title>Node4&#45;&gt;Node18</title>
<g id="a_edge18_Node000004_Node000018"><a xlink:title=" ">
<path fill="none" stroke="#63b8ff" d="M1011.88,-231.93C1011.88,-225.48 1011.88,-216.41 1011.88,-207.76"/>
<polygon fill="#63b8ff" stroke="#63b8ff" points="1015.38,-208.05 1011.88,-198.05 1008.38,-208.05 1015.38,-208.05"/>
</a>
</g>
</g>
<!-- Node4&#45;&gt;Node19 -->
<g id="edge19_Node000004_Node000019" class="edge">
<title>Node4&#45;&gt;Node19</title>
<g id="a_edge19_Node000004_Node000019"><a xlink:title=" ">
<path fill="none" stroke="#63b8ff" d="M1039.86,-239.82C1133.41,-236.1 1434.68,-222.31 1527.88,-196.25 1576.36,-182.7 1627.89,-153.73 1656.77,-135.99"/>
<polygon fill="#63b8ff" stroke="#63b8ff" points="1658.43,-139.08 1665.05,-130.81 1654.72,-133.14 1658.43,-139.08"/>
</a>
</g>
</g>
<!-- Node29 -->
<g id="Node000029" class="node">
<title>Node29</title>
<g id="a_Node000029"><a xlink:href="_h_d_f5_i_o_8hpp.html" target="_top" xlink:title=" ">
<polygon fill="white" stroke="#666666" points="1518.75,-190.62 1415,-190.62 1415,-171.38 1518.75,-171.38 1518.75,-190.62"/>
<text text-anchor="middle" x="1466.88" y="-177.12" font-family="Helvetica,sans-Serif" font-size="10.00">io/hdf5/HDF5IO.hpp</text>
</a>
</g>
</g>
<!-- Node4&#45;&gt;Node29 -->
<g id="edge32_Node000004_Node000029" class="edge">
<title>Node4&#45;&gt;Node29</title>
<g id="a_edge32_Node000004_Node000029"><a xlink:title=" ">
<path fill="none" stroke="#63b8ff" d="M1039.74,-238.84C1104.4,-233.89 1269.53,-219.81 1405.88,-196.25 1410.52,-195.45 1415.34,-194.51 1420.14,-193.5"/>
<polygon fill="#63b8ff" stroke="#63b8ff" points="1420.73,-196.96 1429.74,-191.39 1419.22,-190.12 1420.73,-196.96"/>
</a>
</g>
</g>
<!-- Node19&#45;&gt;Node3 -->
<g id="edge24_Node000019_Node000003" class="edge">
<title>Node19&#45;&gt;Node3</title>
<g id="a_edge24_Node000019_Node000003"><a xlink:title=" ">
<path fill="none" stroke="#63b8ff" d="M1719.35,-115.73C1779.24,-110.16 1896.79,-97.55 2005.25,-74.78"/>
<polygon fill="#63b8ff" stroke="#63b8ff" points="2005.86,-78.23 2014.91,-72.71 2004.39,-71.38 2005.86,-78.23"/>
</a>
</g>
</g>
<!-- Node19&#45;&gt;Node8 -->
<g id="edge21_Node000019_Node000008" class="edge">
<title>Node19&#45;&gt;Node8</title>
<g id="a_edge21_Node000019_Node000008"><a xlink:title=" ">
<path fill="none" stroke="#63b8ff" d="M1640.48,-114.88C1625.03,-113.33 1607.14,-111.67 1590.88,-110.5 1235.35,-84.89 803.47,-70.63 680.2,-66.88"/>
<polygon fill="#63b8ff" stroke="#63b8ff" points="680.54,-63.39 670.44,-66.59 680.33,-70.39 680.54,-63.39"/>
</a>
</g>
</g>
<!-- Node20 -->
<g id="Node000020" class="node">
<title>Node20</title>
<g id="a_Node000020"><a xlink:title=" ">
<polygon fill="#e0e0e0" stroke="#999999" points="1695.75,-74.5 1664,-74.5 1664,-55.25 1695.75,-55.25 1695.75,-74.5"/>
<text text-anchor="middle" x="1679.88" y="-61" font-family="Helvetica,sans-Serif" font-size="10.00">any</text>
</a>
</g>
</g>
<!-- Node19&#45;&gt;Node20 -->
<g id="edge20_Node000019_Node000020" class="edge">
<title>Node19&#45;&gt;Node20</title>
<g id="a_edge20_Node000019_Node000020"><a xlink:title=" ">
<path fill="none" stroke="#63b8ff" d="M1679.88,-110.33C1679.88,-103.82 1679.88,-94.67 1679.88,-86.37"/>
<polygon fill="#63b8ff" stroke="#63b8ff" points="1683.38,-86.37 1679.88,-76.37 1676.38,-86.37 1683.38,-86.37"/>
</a>
</g>
</g>
<!-- Node21 -->
<g id="Node000021" class="node">
<title>Node21</title>
<g id="a_Node000021"><a xlink:title=" ">
<polygon fill="#e0e0e0" stroke="#999999" points="1405.63,-74.5 1352.13,-74.5 1352.13,-55.25 1405.63,-55.25 1405.63,-74.5"/>
<text text-anchor="middle" x="1378.88" y="-61" font-family="Helvetica,sans-Serif" font-size="10.00">iostream</text>
</a>
</g>
</g>
<!-- Node19&#45;&gt;Node21 -->
<g id="edge22_Node000019_Node000021" class="edge">
<title>Node19&#45;&gt;Node21</title>
<g id="a_edge22_Node000019_Node000021"><a xlink:title=" ">
<path fill="none" stroke="#63b8ff" d="M1640.66,-113.38C1590.98,-105.91 1502.49,-91.99 1417.16,-74.85"/>
<polygon fill="#63b8ff" stroke="#63b8ff" points="1417.94,-71.43 1407.45,-72.87 1416.55,-78.29 1417.94,-71.43"/>
</a>
</g>
</g>
<!-- Node22 -->
<g id="Node000022" class="node">
<title>Node22</title>
<g id="a_Node000022"><a xlink:title=" ">
<polygon fill="#e0e0e0" stroke="#999999" points="1803.5,-74.5 1752.25,-74.5 1752.25,-55.25 1803.5,-55.25 1803.5,-74.5"/>
<text text-anchor="middle" x="1777.88" y="-61" font-family="Helvetica,sans-Serif" font-size="10.00">memory</text>
</a>
</g>
</g>
<!-- Node19&#45;&gt;Node22 -->
<g id="edge23_Node000019_Node000022" class="edge">
<title>Node19&#45;&gt;Node22</title>
<g id="a_edge23_Node000019_Node000022"><a xlink:title=" ">
<path fill="none" stroke="#63b8ff" d="M1696.5,-110.09C1711.57,-101.91 1734.02,-89.71 1751.53,-80.19"/>
<polygon fill="#63b8ff" stroke="#63b8ff" points="1752.73,-83.52 1759.84,-75.68 1749.39,-77.37 1752.73,-83.52"/>
</a>
</g>
</g>
<!-- Node23 -->
<g id="Node000023" class="node">
<title>Node23</title>
<g id="a_Node000023"><a xlink:title=" ">
<polygon fill="#e0e0e0" stroke="#999999" points="1999.25,-74.5 1916.5,-74.5 1916.5,-55.25 1999.25,-55.25 1999.25,-74.5"/>
<text text-anchor="middle" x="1957.88" y="-61" font-family="Helvetica,sans-Serif" font-size="10.00">unordered_map</text>
</a>
</g>
</g>
<!-- Node19&#45;&gt;Node23 -->
<g id="edge25_Node000019_Node000023" class="edge">
<title>Node19&#45;&gt;Node23</title>
<g id="a_edge25_Node000019_Node000023"><a xlink:title=" ">
<path fill="none" stroke="#63b8ff" d="M1719.41,-111.55C1768.12,-102.22 1851.03,-86.34 1905.13,-75.98"/>
<polygon fill="#63b8ff" stroke="#63b8ff" points="1905.56,-79.46 1914.72,-74.14 1904.24,-72.59 1905.56,-79.46"/>
</a>
</g>
</g>
<!-- Node24 -->
<g id="Node000024" class="node">
<title>Node24</title>
<g id="a_Node000024"><a xlink:title=" ">
<polygon fill="#e0e0e0" stroke="#999999" points="1898.63,-74.5 1821.13,-74.5 1821.13,-55.25 1898.63,-55.25 1898.63,-74.5"/>
<text text-anchor="middle" x="1859.88" y="-61" font-family="Helvetica,sans-Serif" font-size="10.00">unordered_set</text>
</a>
</g>
</g>
<!-- Node19&#45;&gt;Node24 -->
<g id="edge26_Node000019_Node000024" class="edge">
<title>Node19&#45;&gt;Node24</title>
<g id="a_edge26_Node000019_Node000024"><a xlink:title=" ">
<path fill="none" stroke="#63b8ff" d="M1710.41,-110.09C1740.15,-101.29 1785.57,-87.86 1818.53,-78.11"/>
<polygon fill="#63b8ff" stroke="#63b8ff" points="1819.15,-81.57 1827.74,-75.38 1817.16,-74.86 1819.15,-81.57"/>
</a>
</g>
</g>
<!-- Node25 -->
<g id="Node000025" class="node">
<title>Node25</title>
<g id="a_Node000025"><a xlink:title=" ">
<polygon fill="#e0e0e0" stroke="#999999" points="1531.38,-19.25 1488.38,-19.25 1488.38,0 1531.38,0 1531.38,-19.25"/>
<text text-anchor="middle" x="1509.88" y="-5.75" font-family="Helvetica,sans-Serif" font-size="10.00">vector</text>
</a>
</g>
</g>
<!-- Node19&#45;&gt;Node25 -->
<g id="edge27_Node000019_Node000025" class="edge">
<title>Node19&#45;&gt;Node25</title>
<g id="a_edge27_Node000019_Node000025"><a xlink:title=" ">
<path fill="none" stroke="#63b8ff" d="M1688.71,-110.01C1700.45,-96.78 1718.24,-72.01 1704.88,-55.25 1684.99,-30.3 1593.17,-18.17 1542.94,-13.32"/>
<polygon fill="#63b8ff" stroke="#63b8ff" points="1543.51,-9.86 1533.23,-12.43 1542.87,-16.83 1543.51,-9.86"/>
</a>
</g>
</g>
<!-- Node26 -->
<g id="Node000026" class="node">
<title>Node26</title>
<g id="a_Node000026"><a xlink:title=" ">
<polygon fill="#e0e0e0" stroke="#999999" points="1646,-74.5 1537.75,-74.5 1537.75,-55.25 1646,-55.25 1646,-74.5"/>
<text text-anchor="middle" x="1591.88" y="-61" font-family="Helvetica,sans-Serif" font-size="10.00">boost/multi_array.hpp</text>
</a>
</g>
</g>
<!-- Node19&#45;&gt;Node26 -->
<g id="edge28_Node000019_Node000026" class="edge">
<title>Node19&#45;&gt;Node26</title>
<g id="a_edge28_Node000019_Node000026"><a xlink:title=" ">
<path fill="none" stroke="#63b8ff" d="M1664.95,-110.09C1651.68,-102.06 1632.01,-90.16 1616.43,-80.73"/>
<polygon fill="#63b8ff" stroke="#63b8ff" points="1618.54,-77.92 1608.18,-75.74 1614.92,-83.91 1618.54,-77.92"/>
</a>
</g>
</g>
<!-- Node27 -->
<g id="Node000027" class="node">
<title>Node27</title>
<g id="a_Node000027"><a xlink:href="_types_8hpp.html" target="_top" xlink:title=" ">
<polygon fill="white" stroke="#666666" points="1334.38,-74.5 1273.38,-74.5 1273.38,-55.25 1334.38,-55.25 1334.38,-74.5"/>
<text text-anchor="middle" x="1303.88" y="-61" font-family="Helvetica,sans-Serif" font-size="10.00">Types.hpp</text>
</a>
</g>
</g>
<!-- Node19&#45;&gt;Node27 -->
<g id="edge29_Node000019_Node000027" class="edge">
<title>Node19&#45;&gt;Node27</title>
<g id="a_edge29_Node000019_Node000027"><a xlink:title=" ">
<path fill="none" stroke="#63b8ff" d="M1640.28,-115C1579.16,-108.39 1457.96,-94.32 1345.67,-74.87"/>
<polygon fill="#63b8ff" stroke="#63b8ff" points="1346.43,-71.45 1335.98,-73.17 1345.22,-78.34 1346.43,-71.45"/>
</a>
</g>
</g>
<!-- Node27&#45;&gt;Node25 -->
<g id="edge31_Node000027_Node000025" class="edge">
<title>Node27&#45;&gt;Node25</title>
<g id="a_edge31_Node000027_Node000025"><a xlink:title=" ">
<path fill="none" stroke="#63b8ff" d="M1334.72,-55.9C1372.95,-46.02 1437.82,-29.25 1476.98,-19.13"/>
<polygon fill="#63b8ff" stroke="#63b8ff" points="1477.74,-22.55 1486.54,-16.66 1475.99,-15.77 1477.74,-22.55"/>
</a>
</g>
</g>
<!-- Node28 -->
<g id="Node000028" class="node">
<title>Node28</title>
<g id="a_Node000028"><a xlink:title=" ">
<polygon fill="#e0e0e0" stroke="#999999" points="1328,-19.25 1279.75,-19.25 1279.75,0 1328,0 1328,-19.25"/>
<text text-anchor="middle" x="1303.88" y="-5.75" font-family="Helvetica,sans-Serif" font-size="10.00">cstddef</text>
</a>
</g>
</g>
<!-- Node27&#45;&gt;Node28 -->
<g id="edge30_Node000027_Node000028" class="edge">
<title>Node27&#45;&gt;Node28</title>
<g id="a_edge30_Node000027_Node000028"><a xlink:title=" ">
<path fill="none" stroke="#63b8ff" d="M1303.88,-55.08C1303.88,-48.57 1303.88,-39.42 1303.88,-31.12"/>
<polygon fill="#63b8ff" stroke="#63b8ff" points="1307.38,-31.12 1303.88,-21.12 1300.38,-31.12 1307.38,-31.12"/>
</a>
</g>
</g>
<!-- Node29&#45;&gt;Node3 -->
<g id="edge35_Node000029_Node000003" class="edge">
<title>Node29&#45;&gt;Node3</title>
<g id="a_edge35_Node000029_Node000003"><a xlink:title=" ">
<path fill="none" stroke="#63b8ff" d="M1519.1,-171.58C1614.16,-155.88 1821.88,-119.79 2005.71,-74.85"/>
<polygon fill="#63b8ff" stroke="#63b8ff" points="2006.32,-78.3 2015.19,-72.51 2004.65,-71.5 2006.32,-78.3"/>
</a>
</g>
</g>
<!-- Node29&#45;&gt;Node19 -->
<g id="edge38_Node000029_Node000019" class="edge">
<title>Node29&#45;&gt;Node19</title>
<g id="a_edge38_Node000029_Node000019"><a xlink:title=" ">
<path fill="none" stroke="#63b8ff" d="M1499.69,-170.93C1536.28,-160.82 1595.62,-144.41 1636.14,-133.22"/>
<polygon fill="#63b8ff" stroke="#63b8ff" points="1636.86,-136.65 1645.57,-130.61 1635,-129.9 1636.86,-136.65"/>
</a>
</g>
</g>
<!-- Node29&#45;&gt;Node21 -->
<g id="edge33_Node000029_Node000021" class="edge">
<title>Node29&#45;&gt;Node21</title>
<g id="a_edge33_Node000029_Node000021"><a xlink:title=" ">
<path fill="none" stroke="#63b8ff" d="M1451.78,-170.93C1437.96,-161.97 1417.75,-147.11 1404.88,-129.75 1395.05,-116.5 1388.27,-99 1384.1,-85.67"/>
<polygon fill="#63b8ff" stroke="#63b8ff" points="1387.54,-84.95 1381.42,-76.3 1380.81,-86.88 1387.54,-84.95"/>
</a>
</g>
</g>
<!-- Node29&#45;&gt;Node22 -->
<g id="edge34_Node000029_Node000022" class="edge">
<title>Node29&#45;&gt;Node22</title>
<g id="a_edge34_Node000029_Node000022"><a xlink:title=" ">
<path fill="none" stroke="#63b8ff" d="M1490.35,-170.93C1515.4,-161.14 1556.19,-144.91 1590.88,-129.75 1609.33,-121.69 1613.09,-117.74 1631.88,-110.5 1668.39,-96.43 1711.35,-83.75 1741.17,-75.53"/>
<polygon fill="#63b8ff" stroke="#63b8ff" points="1741.73,-79.01 1750.46,-73 1739.89,-72.25 1741.73,-79.01"/>
</a>
</g>
</g>
<!-- Node29&#45;&gt;Node27 -->
<g id="edge37_Node000029_Node000027" class="edge">
<title>Node29&#45;&gt;Node27</title>
<g id="a_edge37_Node000029_Node000027"><a xlink:title=" ">
<path fill="none" stroke="#63b8ff" d="M1452.52,-170.99C1436.92,-161.13 1411.36,-144.72 1389.88,-129.75 1367.09,-113.87 1341.62,-94.78 1324.36,-81.63"/>
<polygon fill="#63b8ff" stroke="#63b8ff" points="1326.95,-79.21 1316.88,-75.91 1322.7,-84.77 1326.95,-79.21"/>
</a>
</g>
</g>
<!-- Node30 -->
<g id="Node000030" class="node">
<title>Node30</title>
<g id="a_Node000030"><a xlink:title=" ">
<polygon fill="#e0e0e0" stroke="#999999" points="1483.88,-129.75 1413.88,-129.75 1413.88,-110.5 1483.88,-110.5 1483.88,-129.75"/>
<text text-anchor="middle" x="1448.88" y="-116.25" font-family="Helvetica,sans-Serif" font-size="10.00">H5Opublic.h</text>
</a>
</g>
</g>
<!-- Node29&#45;&gt;Node30 -->
<g id="edge36_Node000029_Node000030" class="edge">
<title>Node29&#45;&gt;Node30</title>
<g id="a_edge36_Node000029_Node000030"><a xlink:title=" ">
<path fill="none" stroke="#63b8ff" d="M1464.15,-171.06C1461.71,-163.1 1458.07,-151.19 1454.95,-140.99"/>
<polygon fill="#63b8ff" stroke="#63b8ff" points="1458.35,-140.14 1452.08,-131.6 1451.66,-142.18 1458.35,-140.14"/>
</a>
</g>
</g>
<!-- Node29&#45;&gt;Node31 -->
<g id="edge39_Node000029_Node000031" class="edge">
<title>Node29&#45;&gt;Node31</title>
<g id="a_edge39_Node000029_Node000031"><a xlink:title=" ">
<path fill="none" stroke="#63b8ff" d="M1478.27,-171.06C1489.72,-162.07 1507.63,-148.01 1521.53,-137.1"/>
<polygon fill="#63b8ff" stroke="#63b8ff" points="1523.49,-140.01 1529.19,-131.09 1519.16,-134.51 1523.49,-140.01"/>
</a>
</g>
</g>
<!-- Node31&#45;&gt;Node3 -->
<g id="edge44_Node000031_Node000003" class="edge">
<title>Node31&#45;&gt;Node3</title>
<g id="a_edge44_Node000031_Node000003"><a xlink:title=" ">
<path fill="none" stroke="#63b8ff" d="M1581.75,-115.3C1597.38,-113.8 1615.47,-112.07 1631.88,-110.5 1795.4,-94.84 1841.15,-106.07 2005.41,-74.63"/>
<polygon fill="#63b8ff" stroke="#63b8ff" points="2005.77,-78.13 2014.92,-72.79 2004.44,-71.26 2005.77,-78.13"/>
</a>
</g>
</g>
<!-- Node31&#45;&gt;Node8 -->
<g id="edge41_Node000031_Node000008" class="edge">
<title>Node31&#45;&gt;Node8</title>
<g id="a_edge41_Node000031_Node000008"><a xlink:title=" ">
<path fill="none" stroke="#63b8ff" d="M1502.09,-111.7C1498.98,-111.25 1495.88,-110.84 1492.88,-110.5 1178.47,-74.68 795.08,-67.55 680.06,-66.19"/>
<polygon fill="#63b8ff" stroke="#63b8ff" points="680.42,-62.69 670.39,-66.08 680.35,-69.69 680.42,-62.69"/>
</a>
</g>
</g>
<!-- Node31&#45;&gt;Node20 -->
<g id="edge40_Node000031_Node000020" class="edge">
<title>Node31&#45;&gt;Node20</title>
<g id="a_edge40_Node000031_Node000020"><a xlink:title=" ">
<path fill="none" stroke="#63b8ff" d="M1565.29,-110.09C1589.67,-100.68 1627.8,-85.97 1653.3,-76.13"/>
<polygon fill="#63b8ff" stroke="#63b8ff" points="1654.23,-79.53 1662.29,-72.66 1651.71,-73 1654.23,-79.53"/>
</a>
</g>
</g>
<!-- Node31&#45;&gt;Node21 -->
<g id="edge42_Node000031_Node000021" class="edge">
<title>Node31&#45;&gt;Node21</title>
<g id="a_edge42_Node000031_Node000021"><a xlink:title=" ">
<path fill="none" stroke="#63b8ff" d="M1514.23,-110.09C1487.49,-101.36 1446.75,-88.05 1416.95,-78.31"/>
<polygon fill="#63b8ff" stroke="#63b8ff" points="1418.15,-75.02 1407.56,-75.24 1415.98,-81.68 1418.15,-75.02"/>
</a>
</g>
</g>
<!-- Node31&#45;&gt;Node22 -->
<g id="edge43_Node000031_Node000022" class="edge">
<title>Node31&#45;&gt;Node22</title>
<g id="a_edge43_Node000031_Node000022"><a xlink:title=" ">
<path fill="none" stroke="#63b8ff" d="M1581.65,-110.15C1626.05,-100.13 1697.35,-84.05 1740.68,-74.27"/>
<polygon fill="#63b8ff" stroke="#63b8ff" points="1741.39,-77.7 1750.37,-72.08 1739.85,-70.87 1741.39,-77.7"/>
</a>
</g>
</g>
<!-- Node31&#45;&gt;Node25 -->
<g id="edge46_Node000031_Node000025" class="edge">
<title>Node31&#45;&gt;Node25</title>
<g id="a_edge46_Node000031_Node000025"><a xlink:title=" ">
<path fill="none" stroke="#63b8ff" d="M1539.26,-110.25C1534.15,-92.92 1522.74,-54.23 1515.74,-30.49"/>
<polygon fill="#63b8ff" stroke="#63b8ff" points="1519.15,-29.68 1512.96,-21.08 1512.43,-31.66 1519.15,-29.68"/>
</a>
</g>
</g>
<!-- Node31&#45;&gt;Node26 -->
<g id="edge47_Node000031_Node000026" class="edge">
<title>Node31&#45;&gt;Node26</title>
<g id="a_edge47_Node000031_Node000026"><a xlink:title=" ">
<path fill="none" stroke="#63b8ff" d="M1550.14,-110.33C1557.04,-102.98 1567.1,-92.26 1575.62,-83.19"/>
<polygon fill="#63b8ff" stroke="#63b8ff" points="1578.11,-85.65 1582.41,-75.96 1573.01,-80.86 1578.11,-85.65"/>
</a>
</g>
</g>
<!-- Node31&#45;&gt;Node27 -->
<g id="edge48_Node000031_Node000027" class="edge">
<title>Node31&#45;&gt;Node27</title>
<g id="a_edge48_Node000031_Node000027"><a xlink:title=" ">
<path fill="none" stroke="#63b8ff" d="M1502.04,-110.21C1458.8,-100.54 1390.03,-85.15 1345.93,-75.28"/>
<polygon fill="#63b8ff" stroke="#63b8ff" points="1346.74,-71.88 1336.22,-73.11 1345.21,-78.71 1346.74,-71.88"/>
</a>
</g>
</g>
<!-- Node32 -->
<g id="Node000032" class="node">
<title>Node32</title>
<g id="a_Node000032"><a xlink:title=" ">
<polygon fill="#e0e0e0" stroke="#999999" points="1481.88,-74.5 1423.88,-74.5 1423.88,-55.25 1481.88,-55.25 1481.88,-74.5"/>
<text text-anchor="middle" x="1452.88" y="-61" font-family="Helvetica,sans-Serif" font-size="10.00">typeindex</text>
</a>
</g>
</g>
<!-- Node31&#45;&gt;Node32 -->
<g id="edge45_Node000031_Node000032" class="edge">
<title>Node31&#45;&gt;Node32</title>
<g id="a_edge45_Node000031_Node000032"><a xlink:title=" ">
<path fill="none" stroke="#63b8ff" d="M1526.78,-110.09C1513.36,-102.06 1493.47,-90.16 1477.71,-80.73"/>
<polygon fill="#63b8ff" stroke="#63b8ff" points="1479.73,-77.86 1469.35,-75.73 1476.13,-83.87 1479.73,-77.86"/>
</a>
</g>
</g>
<!-- Node33&#45;&gt;Node3 -->
<g id="edge53_Node000033_Node000003" class="edge">
<title>Node33&#45;&gt;Node3</title>
<g id="a_edge53_Node000033_Node000003"><a xlink:title=" ">
<path fill="none" stroke="#63b8ff" d="M1611.85,-406.85C1753.77,-405.6 2078.88,-392.45 2078.88,-298.12 2078.88,-298.12 2078.88,-298.12 2078.88,-180 2078.88,-144.6 2060.86,-106.61 2048.43,-84.62"/>
<polygon fill="#63b8ff" stroke="#63b8ff" points="2051.58,-83.07 2043.49,-76.23 2045.55,-86.62 2051.58,-83.07"/>
</a>
</g>
</g>
<!-- Node33&#45;&gt;Node4 -->
<g id="edge54_Node000033_Node000004" class="edge">
<title>Node33&#45;&gt;Node4</title>
<g id="a_edge54_Node000033_Node000004"><a xlink:title=" ">
<path fill="none" stroke="#63b8ff" d="M1517.35,-397.59C1426.76,-369.86 1152.73,-285.98 1050.7,-254.76"/>
<polygon fill="#63b8ff" stroke="#63b8ff" points="1051.73,-251.41 1041.14,-251.83 1049.68,-258.1 1051.73,-251.41"/>
</a>
</g>
</g>
<!-- Node33&#45;&gt;Node8 -->
<g id="edge52_Node000033_Node000008" class="edge">
<title>Node33&#45;&gt;Node8</title>
<g id="a_edge52_Node000033_Node000008"><a xlink:title=" ">
<path fill="none" stroke="#63b8ff" d="M1482.16,-406.6C1191.13,-405.65 17.88,-392.54 17.88,-242.88 17.88,-242.88 17.88,-242.88 17.88,-180 17.88,-98.79 108.06,-130.08 186.88,-110.5 342.13,-71.92 534.65,-66.38 611.69,-65.81"/>
<polygon fill="#63b8ff" stroke="#63b8ff" points="611.54,-69.31 621.52,-65.76 611.5,-62.31 611.54,-69.31"/>
</a>
</g>
</g>
<!-- Node33&#45;&gt;Node19 -->
<g id="edge55_Node000033_Node000019" class="edge">
<title>Node33&#45;&gt;Node19</title>
<g id="a_edge55_Node000033_Node000019"><a xlink:title=" ">
<path fill="none" stroke="#63b8ff" d="M1569.13,-397.51C1602.31,-382.27 1660.88,-348.26 1660.88,-298.12 1660.88,-298.12 1660.88,-298.12 1660.88,-240.88 1660.88,-205.37 1669.13,-164.66 1674.76,-141.02"/>
<polygon fill="#63b8ff" stroke="#63b8ff" points="1678.1,-142.08 1677.11,-131.53 1671.31,-140.39 1678.1,-142.08"/>
</a>
</g>
</g>
<!-- Node33&#45;&gt;Node31 -->
<g id="edge56_Node000033_Node000031" class="edge">
<title>Node33&#45;&gt;Node31</title>
<g id="a_edge56_Node000033_Node000031"><a xlink:title=" ">
<path fill="none" stroke="#63b8ff" d="M1546.88,-397.62C1546.88,-379.03 1546.88,-335.05 1546.88,-298.12 1546.88,-298.12 1546.88,-298.12 1546.88,-240.88 1546.88,-205.94 1544.73,-165.32 1543.25,-141.49"/>
<polygon fill="#63b8ff" stroke="#63b8ff" points="1546.75,-141.4 1542.61,-131.64 1539.76,-141.85 1546.75,-141.4"/>
</a>
</g>
</g>
<!-- Node34 -->
<g id="Node000034" class="node">
<title>Node34</title>
<g id="a_Node000034"><a xlink:href="_container_8hpp.html" target="_top" xlink:title=" ">
<polygon fill="white" stroke="#666666" points="1961.75,-362 1816,-362 1816,-342.75 1961.75,-342.75 1961.75,-362"/>
<text text-anchor="middle" x="1888.88" y="-348.5" font-family="Helvetica,sans-Serif" font-size="10.00">nwb/hdmf/base/Container.hpp</text>
</a>
</g>
</g>
<!-- Node33&#45;&gt;Node34 -->
<g id="edge57_Node000033_Node000034" class="edge">
<title>Node33&#45;&gt;Node34</title>
<g id="a_edge57_Node000033_Node000034"><a xlink:title=" ">
<path fill="none" stroke="#63b8ff" d="M1605.28,-397.53C1664.58,-388.3 1756.41,-374 1819.41,-364.19"/>
<polygon fill="#63b8ff" stroke="#63b8ff" points="1819.59,-367.71 1828.94,-362.71 1818.52,-360.79 1819.59,-367.71"/>
</a>
</g>
</g>
<!-- Node34&#45;&gt;Node3 -->
<g id="edge59_Node000034_Node000003" class="edge">
<title>Node34&#45;&gt;Node3</title>
<g id="a_edge59_Node000034_Node000003"><a xlink:title=" ">
<path fill="none" stroke="#63b8ff" d="M1926.06,-342.36C1971.06,-328.97 2040.88,-299.13 2040.88,-242.88 2040.88,-242.88 2040.88,-242.88 2040.88,-180 2040.88,-147.03 2039.19,-108.74 2038.01,-85.95"/>
<polygon fill="#63b8ff" stroke="#63b8ff" points="2041.52,-86.06 2037.48,-76.26 2034.53,-86.44 2041.52,-86.06"/>
</a>
</g>
</g>
<!-- Node34&#45;&gt;Node22 -->
<g id="edge58_Node000034_Node000022" class="edge">
<title>Node34&#45;&gt;Node22</title>
<g id="a_edge58_Node000034_Node000022"><a xlink:title=" ">
<path fill="none" stroke="#63b8ff" d="M1890.91,-342.59C1893.46,-330.17 1897,-306.84 1892.88,-287.5 1874.93,-203.24 1858.86,-183.97 1813.88,-110.5 1808.12,-101.08 1800.59,-91.45 1793.91,-83.56"/>
<polygon fill="#63b8ff" stroke="#63b8ff" points="1796.57,-81.28 1787.35,-76.06 1791.3,-85.89 1796.57,-81.28"/>
</a>
</g>
</g>
<!-- Node35 -->
<g id="Node000035" class="node">
<title>Node35</title>
<g id="a_Node000035"><a xlink:href="_registered_type_8hpp.html" target="_top" xlink:title=" ">
<polygon fill="white" stroke="#666666" points="1883.88,-306.75 1759.88,-306.75 1759.88,-287.5 1883.88,-287.5 1883.88,-306.75"/>
<text text-anchor="middle" x="1821.88" y="-293.25" font-family="Helvetica,sans-Serif" font-size="10.00">nwb/RegisteredType.hpp</text>
</a>
</g>
</g>
<!-- Node34&#45;&gt;Node35 -->
<g id="edge60_Node000034_Node000035" class="edge">
<title>Node34&#45;&gt;Node35</title>
<g id="a_edge60_Node000034_Node000035"><a xlink:title=" ">
<path fill="none" stroke="#63b8ff" d="M1877.51,-342.34C1867.83,-334.65 1853.68,-323.4 1842.07,-314.18"/>
<polygon fill="#63b8ff" stroke="#63b8ff" points="1844.27,-311.45 1834.26,-307.97 1839.91,-316.93 1844.27,-311.45"/>
</a>
</g>
</g>
<!-- Node35&#45;&gt;Node3 -->
<g id="edge63_Node000035_Node000003" class="edge">
<title>Node35&#45;&gt;Node3</title>
<g id="a_edge63_Node000035_Node000003"><a xlink:title=" ">
<path fill="none" stroke="#63b8ff" d="M1830.31,-287.1C1862.56,-252.56 1978.44,-128.46 2021.03,-82.85"/>
<polygon fill="#63b8ff" stroke="#63b8ff" points="2023.44,-85.4 2027.71,-75.7 2018.32,-80.62 2023.44,-85.4"/>
</a>
</g>
</g>
<!-- Node35&#45;&gt;Node4 -->
<g id="edge67_Node000035_Node000004" class="edge">
<title>Node35&#45;&gt;Node4</title>
<g id="a_edge67_Node000035_Node000004"><a xlink:title=" ">
<path fill="none" stroke="#63b8ff" d="M1759.66,-292.03C1600.34,-281.56 1181.06,-254 1050.95,-245.44"/>
<polygon fill="#63b8ff" stroke="#63b8ff" points="1051.35,-241.96 1041.14,-244.8 1050.89,-248.95 1051.35,-241.96"/>
</a>
</g>
</g>
<!-- Node35&#45;&gt;Node19 -->
<g id="edge68_Node000035_Node000019" class="edge">
<title>Node35&#45;&gt;Node19</title>
<g id="a_edge68_Node000035_Node000019"><a xlink:title=" ">
<path fill="none" stroke="#63b8ff" d="M1799.08,-287.15C1784.03,-279.93 1765.39,-268.21 1755.88,-251.5 1737,-218.32 1770.31,-198.61 1750.88,-165.75 1742.85,-152.17 1728.89,-142.09 1715.47,-134.98"/>
<polygon fill="#63b8ff" stroke="#63b8ff" points="1717.3,-131.98 1706.78,-130.77 1714.25,-138.28 1717.3,-131.98"/>
</a>
</g>
</g>
<!-- Node35&#45;&gt;Node22 -->
<g id="edge62_Node000035_Node000022" class="edge">
<title>Node35&#45;&gt;Node22</title>
<g id="a_edge62_Node000035_Node000022"><a xlink:title=" ">
<path fill="none" stroke="#63b8ff" d="M1825.1,-287.03C1829.08,-274.64 1834.97,-251.76 1831.88,-232.25 1823.16,-177.17 1799.17,-115.51 1786.3,-85.04"/>
<polygon fill="#63b8ff" stroke="#63b8ff" points="1789.59,-83.84 1782.42,-76.04 1783.16,-86.61 1789.59,-83.84"/>
</a>
</g>
</g>
<!-- Node35&#45;&gt;Node23 -->
<g id="edge64_Node000035_Node000023" class="edge">
<title>Node35&#45;&gt;Node23</title>
<g id="a_edge64_Node000035_Node000023"><a xlink:title=" ">
<path fill="none" stroke="#63b8ff" d="M1838.62,-287.1C1851.89,-279.22 1870.1,-266.68 1881.88,-251.5 1922.56,-199.08 1944.78,-121.86 1953.49,-85.8"/>
<polygon fill="#63b8ff" stroke="#63b8ff" points="1956.84,-86.87 1955.68,-76.34 1950.02,-85.3 1956.84,-86.87"/>
</a>
</g>
</g>
<!-- Node35&#45;&gt;Node24 -->
<g id="edge65_Node000035_Node000024" class="edge">
<title>Node35&#45;&gt;Node24</title>
<g id="a_edge65_Node000035_Node000024"><a xlink:title=" ">
<path fill="none" stroke="#63b8ff" d="M1834.79,-287.21C1845.12,-279.21 1858.84,-266.47 1864.88,-251.5 1887.65,-195.05 1874.11,-120.89 1865.44,-85.86"/>
<polygon fill="#63b8ff" stroke="#63b8ff" points="1868.85,-85.07 1862.92,-76.29 1862.08,-86.85 1868.85,-85.07"/>
</a>
</g>
</g>
<!-- Node35&#45;&gt;Node27 -->
<g id="edge66_Node000035_Node000027" class="edge">
<title>Node35&#45;&gt;Node27</title>
<g id="a_edge66_Node000035_Node000027"><a xlink:title=" ">
<path fill="none" stroke="#63b8ff" d="M1759.84,-294.87C1459.69,-288.47 170.35,-257.52 112.88,-196.25 103.61,-186.36 103.7,-175.73 112.88,-165.75 192.19,-79.51 1058.74,-67.7 1261.58,-66.12"/>
<polygon fill="#63b8ff" stroke="#63b8ff" points="1261.41,-69.62 1271.39,-66.04 1261.36,-62.62 1261.41,-69.62"/>
</a>
</g>
</g>
<!-- Node35&#45;&gt;Node31 -->
<g id="edge69_Node000035_Node000031" class="edge">
<title>Node35&#45;&gt;Node31</title>
<g id="a_edge69_Node000035_Node000031"><a xlink:title=" ">
<path fill="none" stroke="#63b8ff" d="M1806.06,-287.07C1790.61,-278.17 1766.49,-264.13 1745.88,-251.5 1679.71,-210.95 1602.87,-161.07 1565.17,-136.42"/>
<polygon fill="#63b8ff" stroke="#63b8ff" points="1567.17,-133.54 1556.88,-130.99 1563.33,-139.39 1567.17,-133.54"/>
</a>
</g>
</g>
<!-- Node36 -->
<g id="Node000036" class="node">
<title>Node36</title>
<g id="a_Node000036"><a xlink:title=" ">
<polygon fill="#e0e0e0" stroke="#999999" points="1822.88,-251.5 1764.88,-251.5 1764.88,-232.25 1822.88,-232.25 1822.88,-251.5"/>
<text text-anchor="middle" x="1793.88" y="-238" font-family="Helvetica,sans-Serif" font-size="10.00">functional</text>
</a>
</g>
</g>
<!-- Node35&#45;&gt;Node36 -->
<g id="edge61_Node000035_Node000036" class="edge">
<title>Node35&#45;&gt;Node36</title>
<g id="a_edge61_Node000035_Node000036"><a xlink:title=" ">
<path fill="none" stroke="#63b8ff" d="M1817.26,-287.33C1813.63,-280.44 1808.45,-270.59 1803.89,-261.91"/>
<polygon fill="#63b8ff" stroke="#63b8ff" points="1807.06,-260.42 1799.31,-253.2 1800.86,-263.68 1807.06,-260.42"/>
</a>
</g>
</g>
</g>
</svg>
