<?xml version="1.0" encoding="UTF-8" standalone="no"?>
<!DOCTYPE svg PUBLIC "-//W3C//DTD SVG 1.1//EN"
 "http://www.w3.org/Graphics/SVG/1.1/DTD/svg11.dtd">
<!-- Generated by graphviz version 12.1.0 (20240811.2233)
 -->
<!-- Title: src/BaseIO.hpp Pages: 1 -->
<svg width="1598pt" height="415pt"
 viewBox="0.00 0.00 1598.15 415.00" xmlns="http://www.w3.org/2000/svg" xmlns:xlink="http://www.w3.org/1999/xlink">
<g id="graph0" class="graph" transform="scale(1 1) rotate(0) translate(4 411)">
<title>src/BaseIO.hpp</title>
<!-- Node1 -->
<g id="Node000001" class="node">
<title>Node1</title>
<g id="a_Node000001"><a xlink:title=" ">
<polygon fill="#999999" stroke="#666666" points="760.25,-407 676,-407 676,-387.75 760.25,-387.75 760.25,-407"/>
<text text-anchor="middle" x="718.12" y="-393.5" font-family="Helvetica,sans-Serif" font-size="10.00">src/BaseIO.hpp</text>
</a>
</g>
</g>
<!-- Node2 -->
<g id="Node000002" class="node">
<title>Node2</title>
<g id="a_Node000002"><a xlink:href="_base_i_o_8cpp.html" target="_top" xlink:title=" ">
<polygon fill="white" stroke="#666666" points="84.25,-224.38 0,-224.38 0,-205.12 84.25,-205.12 84.25,-224.38"/>
<text text-anchor="middle" x="42.12" y="-210.88" font-family="Helvetica,sans-Serif" font-size="10.00">src/BaseIO.cpp</text>
</a>
</g>
</g>
<!-- Node1&#45;&gt;Node2 -->
<g id="edge1_Node000001_Node000002" class="edge">
<title>Node1&#45;&gt;Node2</title>
<g id="a_edge1_Node000001_Node000002"><a xlink:title=" ">
<path fill="none" stroke="#63b8ff" d="M664.43,-394.77C525.66,-390.28 162.51,-376.32 114.12,-351.75 63.86,-326.23 47.54,-250.39 43.36,-224.51"/>
<polygon fill="#63b8ff" stroke="#63b8ff" points="663.97,-398.25 674.08,-395.08 664.2,-391.26 663.97,-398.25"/>
</a>
</g>
</g>
<!-- Node3 -->
<g id="Node000003" class="node">
<title>Node3</title>
<g id="a_Node000003"><a xlink:href="_utils_8hpp.html" target="_top" xlink:title=" ">
<polygon fill="white" stroke="#666666" points="147.88,-290.88 76.38,-290.88 76.38,-271.62 147.88,-271.62 147.88,-290.88"/>
<text text-anchor="middle" x="112.12" y="-277.38" font-family="Helvetica,sans-Serif" font-size="10.00">src/Utils.hpp</text>
</a>
</g>
</g>
<!-- Node1&#45;&gt;Node3 -->
<g id="edge2_Node000001_Node000003" class="edge">
<title>Node1&#45;&gt;Node3</title>
<g id="a_edge2_Node000001_Node000003"><a xlink:title=" ">
<path fill="none" stroke="#63b8ff" d="M664.33,-395.77C527.07,-393.73 171.72,-385.25 131.12,-351.75 112.99,-336.78 111.24,-306.32 111.6,-291.19"/>
<polygon fill="#63b8ff" stroke="#63b8ff" points="664.2,-399.27 674.25,-395.91 664.3,-392.27 664.2,-399.27"/>
</a>
</g>
</g>
<!-- Node5 -->
<g id="Node000005" class="node">
<title>Node5</title>
<g id="a_Node000005"><a xlink:href="_n_w_b_file_8cpp.html" target="_top" xlink:title=" ">
<polygon fill="white" stroke="#666666" points="468.12,-24.88 356.12,-24.88 356.12,-5.63 468.12,-5.63 468.12,-24.88"/>
<text text-anchor="middle" x="412.12" y="-11.38" font-family="Helvetica,sans-Serif" font-size="10.00">src/nwb/NWBFile.cpp</text>
</a>
</g>
</g>
<!-- Node1&#45;&gt;Node5 -->
<g id="edge9_Node000001_Node000005" class="edge">
<title>Node1&#45;&gt;Node5</title>
<g id="a_edge9_Node000001_Node000005"><a xlink:title=" ">
<path fill="none" stroke="#63b8ff" d="M664.29,-394.19C578.07,-389.93 413.5,-378.49 362.12,-351.75 332.75,-336.46 326.3,-326.43 312.12,-296.5 268.18,-203.74 273.76,-150.24 333.12,-66.5 346.94,-47.01 370.94,-33.33 388.87,-25.22"/>
<polygon fill="#63b8ff" stroke="#63b8ff" points="664,-397.68 674.15,-394.66 664.33,-390.68 664,-397.68"/>
</a>
</g>
</g>
<!-- Node6 -->
<g id="Node000006" class="node">
<title>Node6</title>
<g id="a_Node000006"><a xlink:href="_h_d_f5_i_o_8hpp.html" target="_top" xlink:title=" ">
<polygon fill="white" stroke="#666666" points="250,-351.75 140.25,-351.75 140.25,-332.5 250,-332.5 250,-351.75"/>
<text text-anchor="middle" x="195.12" y="-338.25" font-family="Helvetica,sans-Serif" font-size="10.00">src/hdf5/HDF5IO.hpp</text>
</a>
</g>
</g>
<!-- Node1&#45;&gt;Node6 -->
<g id="edge6_Node000001_Node000006" class="edge">
<title>Node1&#45;&gt;Node6</title>
<g id="a_edge6_Node000001_Node000006"><a xlink:title=" ">
<path fill="none" stroke="#63b8ff" d="M664.09,-391.53C578.96,-383.79 408.46,-367.86 264.12,-351.75 259.69,-351.25 255.09,-350.72 250.47,-350.17"/>
<polygon fill="#63b8ff" stroke="#63b8ff" points="663.74,-395.01 674.02,-392.43 664.37,-388.04 663.74,-395.01"/>
</a>
</g>
</g>
<!-- Node7 -->
<g id="Node000007" class="node">
<title>Node7</title>
<g id="a_Node000007"><a xlink:href="_n_w_b_file_8hpp.html" target="_top" xlink:title=" ">
<polygon fill="white" stroke="#666666" points="1116.12,-91.38 1004.12,-91.38 1004.12,-72.12 1116.12,-72.12 1116.12,-91.38"/>
<text text-anchor="middle" x="1060.12" y="-77.88" font-family="Helvetica,sans-Serif" font-size="10.00">src/nwb/NWBFile.hpp</text>
</a>
</g>
</g>
<!-- Node1&#45;&gt;Node7 -->
<g id="edge10_Node000001_Node000007" class="edge">
<title>Node1&#45;&gt;Node7</title>
<g id="a_edge10_Node000001_Node000007"><a xlink:title=" ">
<path fill="none" stroke="#63b8ff" d="M748.67,-382.2C782.43,-364.16 832.12,-329.58 832.12,-282.25 832.12,-282.25 832.12,-282.25 832.12,-213.75 832.12,-176.88 825.12,-159.13 851.12,-133 854.14,-129.97 960.22,-105.46 1020.06,-91.83"/>
<polygon fill="#63b8ff" stroke="#63b8ff" points="747.43,-378.9 740.12,-386.57 750.61,-385.13 747.43,-378.9"/>
</a>
</g>
</g>
<!-- Node8 -->
<g id="Node000008" class="node">
<title>Node8</title>
<g id="a_Node000008"><a xlink:href="_time_series_8hpp.html" target="_top" xlink:title=" ">
<polygon fill="white" stroke="#666666" points="1006,-224.38 860.25,-224.38 860.25,-205.12 1006,-205.12 1006,-224.38"/>
<text text-anchor="middle" x="933.12" y="-210.88" font-family="Helvetica,sans-Serif" font-size="10.00">src/nwb/base/TimeSeries.hpp</text>
</a>
</g>
</g>
<!-- Node1&#45;&gt;Node8 -->
<g id="edge12_Node000001_Node000008" class="edge">
<title>Node1&#45;&gt;Node8</title>
<g id="a_edge12_Node000001_Node000008"><a xlink:title=" ">
<path fill="none" stroke="#63b8ff" d="M771.74,-387.35C796.68,-380.9 825.35,-370 846.12,-351.75 878.16,-323.61 865.33,-301.38 889.12,-266 899.61,-250.41 914.44,-234.43 923.92,-224.79"/>
<polygon fill="#63b8ff" stroke="#63b8ff" points="770.97,-383.93 762.05,-389.66 772.59,-390.74 770.97,-383.93"/>
</a>
</g>
</g>
<!-- Node12 -->
<g id="Node000012" class="node">
<title>Node12</title>
<g id="a_Node000012"><a xlink:href="_electrical_series_8hpp.html" target="_top" xlink:title=" ">
<polygon fill="white" stroke="#666666" points="804,-163.5 670.25,-163.5 670.25,-133 804,-133 804,-163.5"/>
<text text-anchor="start" x="678.25" y="-150" font-family="Helvetica,sans-Serif" font-size="10.00">src/nwb/ecephys/Electrical</text>
<text text-anchor="middle" x="737.12" y="-138.75" font-family="Helvetica,sans-Serif" font-size="10.00">Series.hpp</text>
</a>
</g>
</g>
<!-- Node1&#45;&gt;Node12 -->
<g id="edge32_Node000001_Node000012" class="edge">
<title>Node1&#45;&gt;Node12</title>
<g id="a_edge32_Node000001_Node000012"><a xlink:title=" ">
<path fill="none" stroke="#63b8ff" d="M719.7,-375.84C723.45,-327.14 732.8,-205.54 736.02,-163.68"/>
<polygon fill="#63b8ff" stroke="#63b8ff" points="716.22,-375.54 718.94,-385.78 723.2,-376.08 716.22,-375.54"/>
</a>
</g>
</g>
<!-- Node14 -->
<g id="Node000014" class="node">
<title>Node14</title>
<g id="a_Node000014"><a xlink:href="_spike_event_series_8hpp.html" target="_top" xlink:title=" ">
<polygon fill="white" stroke="#666666" points="795.88,-97 652.38,-97 652.38,-66.5 795.88,-66.5 795.88,-97"/>
<text text-anchor="start" x="660.38" y="-83.5" font-family="Helvetica,sans-Serif" font-size="10.00">src/nwb/ecephys/SpikeEvent</text>
<text text-anchor="middle" x="724.12" y="-72.25" font-family="Helvetica,sans-Serif" font-size="10.00">Series.hpp</text>
</a>
</g>
</g>
<!-- Node1&#45;&gt;Node14 -->
<g id="edge33_Node000001_Node000014" class="edge">
<title>Node1&#45;&gt;Node14</title>
<g id="a_edge33_Node000001_Node000014"><a xlink:title=" ">
<path fill="none" stroke="#63b8ff" d="M664.43,-392.42C554.93,-382.86 316.12,-353.82 316.12,-282.25 316.12,-282.25 316.12,-282.25 316.12,-213.75 316.12,-176.88 307.75,-157.7 335.12,-133 338.05,-130.36 540.44,-105.23 652.08,-91.54"/>
<polygon fill="#63b8ff" stroke="#63b8ff" points="664.1,-395.9 674.36,-393.26 664.69,-388.93 664.1,-395.9"/>
</a>
</g>
</g>
<!-- Node16 -->
<g id="Node000016" class="node">
<title>Node16</title>
<g id="a_Node000016"><a xlink:href="_device_8hpp.html" target="_top" xlink:title=" ">
<polygon fill="white" stroke="#666666" points="641.38,-224.38 506.88,-224.38 506.88,-205.12 641.38,-205.12 641.38,-224.38"/>
<text text-anchor="middle" x="574.12" y="-210.88" font-family="Helvetica,sans-Serif" font-size="10.00">src/nwb/device/Device.hpp</text>
</a>
</g>
</g>
<!-- Node1&#45;&gt;Node16 -->
<g id="edge26_Node000001_Node000016" class="edge">
<title>Node1&#45;&gt;Node16</title>
<g id="a_edge26_Node000001_Node000016"><a xlink:title=" ">
<path fill="none" stroke="#63b8ff" d="M698.79,-380.06C689.66,-371.96 678.89,-361.77 670.12,-351.75 631.33,-307.36 593.4,-247.35 579.6,-224.81"/>
<polygon fill="#63b8ff" stroke="#63b8ff" points="696.23,-382.48 706.08,-386.39 700.82,-377.19 696.23,-382.48"/>
</a>
</g>
</g>
<!-- Node18 -->
<g id="Node000018" class="node">
<title>Node18</title>
<g id="a_Node000018"><a xlink:href="_electrode_group_8hpp.html" target="_top" xlink:title=" ">
<polygon fill="white" stroke="#666666" points="651.88,-157.88 496.38,-157.88 496.38,-138.62 651.88,-138.62 651.88,-157.88"/>
<text text-anchor="middle" x="574.12" y="-144.38" font-family="Helvetica,sans-Serif" font-size="10.00">src/nwb/file/ElectrodeGroup.hpp</text>
</a>
</g>
</g>
<!-- Node1&#45;&gt;Node18 -->
<g id="edge34_Node000001_Node000018" class="edge">
<title>Node1&#45;&gt;Node18</title>
<g id="a_edge34_Node000001_Node000018"><a xlink:title=" ">
<path fill="none" stroke="#63b8ff" d="M715.58,-376.59C709.85,-338.69 692.93,-254.7 650.12,-199.5 635.59,-180.75 611.99,-166.72 594.95,-158.32"/>
<polygon fill="#63b8ff" stroke="#63b8ff" points="712.06,-376.65 716.91,-386.07 718.99,-375.68 712.06,-376.65"/>
</a>
</g>
</g>
<!-- Node20 -->
<g id="Node000020" class="node">
<title>Node20</title>
<g id="a_Node000020"><a xlink:href="_electrode_table_8hpp.html" target="_top" xlink:title=" ">
<polygon fill="white" stroke="#666666" points="1552.38,-157.88 1399.88,-157.88 1399.88,-138.62 1552.38,-138.62 1552.38,-157.88"/>
<text text-anchor="middle" x="1476.12" y="-144.38" font-family="Helvetica,sans-Serif" font-size="10.00">src/nwb/file/ElectrodeTable.hpp</text>
</a>
</g>
</g>
<!-- Node1&#45;&gt;Node20 -->
<g id="edge35_Node000001_Node000020" class="edge">
<title>Node1&#45;&gt;Node20</title>
<g id="a_edge35_Node000001_Node000020"><a xlink:title=" ">
<path fill="none" stroke="#63b8ff" d="M771.7,-395.78C912.06,-393.78 1287.89,-385.33 1407.12,-351.75 1499.38,-325.77 1546.39,-317.67 1585.12,-230 1590.6,-217.6 1592.43,-210.92 1585.12,-199.5 1571.31,-177.91 1545.6,-165.47 1522.63,-158.37"/>
<polygon fill="#63b8ff" stroke="#63b8ff" points="771.89,-392.28 761.94,-395.92 771.99,-399.28 771.89,-392.28"/>
</a>
</g>
</g>
<!-- Node22 -->
<g id="Node000022" class="node">
<title>Node22</title>
<g id="a_Node000022"><a xlink:href="_container_8hpp.html" target="_top" xlink:title=" ">
<polygon fill="white" stroke="#666666" points="1060.25,-290.88 898,-290.88 898,-271.62 1060.25,-271.62 1060.25,-290.88"/>
<text text-anchor="middle" x="979.12" y="-277.38" font-family="Helvetica,sans-Serif" font-size="10.00">src/nwb/hdmf/base/Container.hpp</text>
</a>
</g>
</g>
<!-- Node1&#45;&gt;Node22 -->
<g id="edge39_Node000001_Node000022" class="edge">
<title>Node1&#45;&gt;Node22</title>
<g id="a_edge39_Node000001_Node000022"><a xlink:title=" ">
<path fill="none" stroke="#63b8ff" d="M771.5,-387.25C804.95,-380.28 848.34,-368.91 884.12,-351.75 918.4,-335.32 953.02,-306.07 969.39,-291.31"/>
<polygon fill="#63b8ff" stroke="#63b8ff" points="771.16,-383.75 762.05,-389.15 772.54,-390.61 771.16,-383.75"/>
</a>
</g>
</g>
<!-- Node24 -->
<g id="Node000024" class="node">
<title>Node24</title>
<g id="a_Node000024"><a xlink:href="_dynamic_table_8hpp.html" target="_top" xlink:title=" ">
<polygon fill="white" stroke="#666666" points="1382.12,-230 1282.12,-230 1282.12,-199.5 1382.12,-199.5 1382.12,-230"/>
<text text-anchor="start" x="1290.12" y="-216.5" font-family="Helvetica,sans-Serif" font-size="10.00">src/nwb/hdmf/table</text>
<text text-anchor="middle" x="1332.12" y="-205.25" font-family="Helvetica,sans-Serif" font-size="10.00">/DynamicTable.hpp</text>
</a>
</g>
</g>
<!-- Node1&#45;&gt;Node24 -->
<g id="edge56_Node000001_Node000024" class="edge">
<title>Node1&#45;&gt;Node24</title>
<g id="a_edge56_Node000001_Node000024"><a xlink:title=" ">
<path fill="none" stroke="#63b8ff" d="M771.8,-385.43C811.15,-377.09 865.75,-364.83 913.12,-351.75 1053.19,-313.07 1216.15,-256.89 1290.87,-230.5"/>
<polygon fill="#63b8ff" stroke="#63b8ff" points="771.17,-381.99 762.1,-387.48 772.61,-388.84 771.17,-381.99"/>
</a>
</g>
</g>
<!-- Node26 -->
<g id="Node000026" class="node">
<title>Node26</title>
<g id="a_Node000026"><a xlink:href="_data_8hpp.html" target="_top" xlink:title=" ">
<polygon fill="white" stroke="#666666" points="1398.12,-351.75 1256.12,-351.75 1256.12,-332.5 1398.12,-332.5 1398.12,-351.75"/>
<text text-anchor="middle" x="1327.12" y="-338.25" font-family="Helvetica,sans-Serif" font-size="10.00">src/nwb/hdmf/base/Data.hpp</text>
</a>
</g>
</g>
<!-- Node1&#45;&gt;Node26 -->
<g id="edge48_Node000001_Node000026" class="edge">
<title>Node1&#45;&gt;Node26</title>
<g id="a_edge48_Node000001_Node000026"><a xlink:title=" ">
<path fill="none" stroke="#63b8ff" d="M771.91,-391.67C881.86,-382.06 1132.37,-360.15 1255.76,-349.37"/>
<polygon fill="#63b8ff" stroke="#63b8ff" points="771.63,-388.18 761.97,-392.54 772.24,-395.16 771.63,-388.18"/>
</a>
</g>
</g>
<!-- Node3&#45;&gt;Node2 -->
<g id="edge3_Node000003_Node000002" class="edge">
<title>Node3&#45;&gt;Node2</title>
<g id="a_edge3_Node000003_Node000002"><a xlink:title=" ">
<path fill="none" stroke="#63b8ff" d="M94.28,-263.81C80.77,-251.36 62.71,-234.72 51.78,-224.64"/>
<polygon fill="#63b8ff" stroke="#63b8ff" points="91.55,-266.05 101.28,-270.26 96.3,-260.91 91.55,-266.05"/>
</a>
</g>
</g>
<!-- Node4 -->
<g id="Node000004" class="node">
<title>Node4</title>
<g id="a_Node000004"><a xlink:href="_h_d_f5_i_o_8cpp.html" target="_top" xlink:title=" ">
<polygon fill="white" stroke="#666666" points="250,-224.38 140.25,-224.38 140.25,-205.12 250,-205.12 250,-224.38"/>
<text text-anchor="middle" x="195.12" y="-210.88" font-family="Helvetica,sans-Serif" font-size="10.00">src/hdf5/HDF5IO.cpp</text>
</a>
</g>
</g>
<!-- Node3&#45;&gt;Node4 -->
<g id="edge4_Node000003_Node000004" class="edge">
<title>Node3&#45;&gt;Node4</title>
<g id="a_edge4_Node000003_Node000004"><a xlink:title=" ">
<path fill="none" stroke="#63b8ff" d="M132.32,-264.56C148.33,-252.11 170.16,-235.15 183.41,-224.85"/>
<polygon fill="#63b8ff" stroke="#63b8ff" points="130.61,-261.45 124.86,-270.35 134.9,-266.98 130.61,-261.45"/>
</a>
</g>
</g>
<!-- Node3&#45;&gt;Node5 -->
<g id="edge5_Node000003_Node000005" class="edge">
<title>Node3&#45;&gt;Node5</title>
<g id="a_edge5_Node000003_Node000005"><a xlink:title=" ">
<path fill="none" stroke="#63b8ff" d="M114.62,-260.24C117.23,-243.46 122.22,-219.15 131.12,-199.5 161.12,-133.34 166.47,-107.95 226.12,-66.5 264.58,-39.78 316.61,-27.26 355.85,-21.39"/>
<polygon fill="#63b8ff" stroke="#63b8ff" points="111.19,-259.52 113.28,-269.9 118.12,-260.48 111.19,-259.52"/>
</a>
</g>
</g>
<!-- Node6&#45;&gt;Node3 -->
<g id="edge7_Node000006_Node000003" class="edge">
<title>Node6&#45;&gt;Node3</title>
<g id="a_edge7_Node000006_Node000003"><a xlink:title=" ">
<path fill="none" stroke="#63b8ff" d="M173.19,-325.56C157.77,-314.63 137.69,-300.39 124.85,-291.28"/>
<polygon fill="#63b8ff" stroke="#63b8ff" points="171.1,-328.38 181.28,-331.31 175.15,-322.67 171.1,-328.38"/>
</a>
</g>
</g>
<!-- Node6&#45;&gt;Node4 -->
<g id="edge8_Node000006_Node000004" class="edge">
<title>Node6&#45;&gt;Node4</title>
<g id="a_edge8_Node000006_Node000004"><a xlink:title=" ">
<path fill="none" stroke="#63b8ff" d="M195.12,-320.68C195.12,-292.94 195.12,-244.58 195.12,-224.68"/>
<polygon fill="#63b8ff" stroke="#63b8ff" points="191.63,-320.59 195.13,-330.59 198.63,-320.59 191.63,-320.59"/>
</a>
</g>
</g>
<!-- Node7&#45;&gt;Node5 -->
<g id="edge11_Node000007_Node000005" class="edge">
<title>Node7&#45;&gt;Node5</title>
<g id="a_edge11_Node000007_Node000005"><a xlink:title=" ">
<path fill="none" stroke="#63b8ff" d="M1011.38,-69.35C1005.92,-68.28 1000.41,-67.3 995.12,-66.5 894.44,-51.19 593.85,-29.04 468.25,-20.15"/>
<polygon fill="#63b8ff" stroke="#63b8ff" points="1010.49,-72.74 1020.99,-71.32 1011.9,-65.88 1010.49,-72.74"/>
</a>
</g>
</g>
<!-- Node8&#45;&gt;Node7 -->
<g id="edge13_Node000008_Node000007" class="edge">
<title>Node8&#45;&gt;Node7</title>
<g id="a_edge13_Node000008_Node000007"><a xlink:title=" ">
<path fill="none" stroke="#63b8ff" d="M963.87,-199.75C980.51,-191.07 1000.57,-178.67 1015.12,-163.5 1036.24,-141.5 1050.8,-107.67 1056.9,-91.7"/>
<polygon fill="#63b8ff" stroke="#63b8ff" points="962.76,-196.39 955.38,-204 965.89,-202.65 962.76,-196.39"/>
</a>
</g>
</g>
<!-- Node9 -->
<g id="Node000009" class="node">
<title>Node9</title>
<g id="a_Node000009"><a xlink:href="_recording_containers_8hpp.html" target="_top" xlink:title=" ">
<polygon fill="white" stroke="#666666" points="1226,-157.88 1062.25,-157.88 1062.25,-138.62 1226,-138.62 1226,-157.88"/>
<text text-anchor="middle" x="1144.12" y="-144.38" font-family="Helvetica,sans-Serif" font-size="10.00">src/nwb/RecordingContainers.hpp</text>
</a>
</g>
</g>
<!-- Node8&#45;&gt;Node9 -->
<g id="edge14_Node000008_Node000009" class="edge">
<title>Node8&#45;&gt;Node9</title>
<g id="a_edge14_Node000008_Node000009"><a xlink:title=" ">
<path fill="none" stroke="#63b8ff" d="M973.66,-201.36C1014.87,-188.76 1077.73,-169.55 1114.49,-158.31"/>
<polygon fill="#63b8ff" stroke="#63b8ff" points="972.9,-197.93 964.36,-204.2 974.94,-204.63 972.9,-197.93"/>
</a>
</g>
</g>
<!-- Node11 -->
<g id="Node000011" class="node">
<title>Node11</title>
<g id="a_Node000011"><a xlink:href="_time_series_8cpp.html" target="_top" xlink:title=" ">
<polygon fill="white" stroke="#666666" points="1006,-157.88 860.25,-157.88 860.25,-138.62 1006,-138.62 1006,-157.88"/>
<text text-anchor="middle" x="933.12" y="-144.38" font-family="Helvetica,sans-Serif" font-size="10.00">src/nwb/base/TimeSeries.cpp</text>
</a>
</g>
</g>
<!-- Node8&#45;&gt;Node11 -->
<g id="edge17_Node000008_Node000011" class="edge">
<title>Node8&#45;&gt;Node11</title>
<g id="a_edge17_Node000008_Node000011"><a xlink:title=" ">
<path fill="none" stroke="#63b8ff" d="M933.12,-193.27C933.12,-181.44 933.12,-167.16 933.12,-158.14"/>
<polygon fill="#63b8ff" stroke="#63b8ff" points="929.63,-193.27 933.13,-203.27 936.63,-193.27 929.63,-193.27"/>
</a>
</g>
</g>
<!-- Node8&#45;&gt;Node12 -->
<g id="edge18_Node000008_Node000012" class="edge">
<title>Node8&#45;&gt;Node12</title>
<g id="a_edge18_Node000008_Node000012"><a xlink:title=" ">
<path fill="none" stroke="#63b8ff" d="M894.6,-201.07C862.15,-190.39 815.69,-175.1 781.64,-163.9"/>
<polygon fill="#63b8ff" stroke="#63b8ff" points="893.43,-204.37 904.02,-204.17 895.62,-197.72 893.43,-204.37"/>
</a>
</g>
</g>
<!-- Node9&#45;&gt;Node7 -->
<g id="edge15_Node000009_Node000007" class="edge">
<title>Node9&#45;&gt;Node7</title>
<g id="a_edge15_Node000009_Node000007"><a xlink:title=" ">
<path fill="none" stroke="#63b8ff" d="M1123.69,-131.56C1107.48,-119.11 1085.39,-102.15 1071.98,-91.85"/>
<polygon fill="#63b8ff" stroke="#63b8ff" points="1121.18,-134.05 1131.24,-137.36 1125.44,-128.49 1121.18,-134.05"/>
</a>
</g>
</g>
<!-- Node10 -->
<g id="Node000010" class="node">
<title>Node10</title>
<g id="a_Node000010"><a xlink:href="_recording_containers_8cpp.html" target="_top" xlink:title=" ">
<polygon fill="white" stroke="#666666" points="1102,-24.88 938.25,-24.88 938.25,-5.63 1102,-5.63 1102,-24.88"/>
<text text-anchor="middle" x="1020.12" y="-11.38" font-family="Helvetica,sans-Serif" font-size="10.00">src/nwb/RecordingContainers.cpp</text>
</a>
</g>
</g>
<!-- Node9&#45;&gt;Node10 -->
<g id="edge16_Node000009_Node000010" class="edge">
<title>Node9&#45;&gt;Node10</title>
<g id="a_edge16_Node000009_Node000010"><a xlink:title=" ">
<path fill="none" stroke="#63b8ff" d="M1144.08,-126.85C1143.02,-109.12 1138.93,-83.65 1125.12,-66.5 1108.21,-45.48 1080.38,-32.72 1057.62,-25.32"/>
<polygon fill="#63b8ff" stroke="#63b8ff" points="1140.58,-126.76 1144.37,-136.65 1147.57,-126.56 1140.58,-126.76"/>
</a>
</g>
</g>
<!-- Node12&#45;&gt;Node5 -->
<g id="edge19_Node000012_Node000005" class="edge">
<title>Node12&#45;&gt;Node5</title>
<g id="a_edge19_Node000012_Node000005"><a xlink:title=" ">
<path fill="none" stroke="#63b8ff" d="M696.15,-127.44C679.31,-118.77 659.88,-108.06 643.12,-97 625.05,-85.07 624.48,-76.22 605.12,-66.5 561.81,-44.74 508.15,-31.75 468.41,-24.45"/>
<polygon fill="#63b8ff" stroke="#63b8ff" points="694.39,-130.48 704.9,-131.88 697.56,-124.24 694.39,-130.48"/>
</a>
</g>
</g>
<!-- Node12&#45;&gt;Node10 -->
<g id="edge20_Node000012_Node000010" class="edge">
<title>Node12&#45;&gt;Node10</title>
<g id="a_edge20_Node000012_Node000010"><a xlink:title=" ">
<path fill="none" stroke="#63b8ff" d="M766.67,-125.82C778.68,-117 792.65,-106.61 805.12,-97 822.28,-83.78 823.88,-76.43 843.12,-66.5 882.72,-46.06 931.72,-32.98 968.12,-25.3"/>
<polygon fill="#63b8ff" stroke="#63b8ff" points="764.74,-122.89 758.74,-131.61 768.88,-128.54 764.74,-122.89"/>
</a>
</g>
</g>
<!-- Node13 -->
<g id="Node000013" class="node">
<title>Node13</title>
<g id="a_Node000013"><a xlink:href="_electrical_series_8cpp.html" target="_top" xlink:title=" ">
<polygon fill="white" stroke="#666666" points="986,-97 852.25,-97 852.25,-66.5 986,-66.5 986,-97"/>
<text text-anchor="start" x="860.25" y="-83.5" font-family="Helvetica,sans-Serif" font-size="10.00">src/nwb/ecephys/Electrical</text>
<text text-anchor="middle" x="919.12" y="-72.25" font-family="Helvetica,sans-Serif" font-size="10.00">Series.cpp</text>
</a>
</g>
</g>
<!-- Node12&#45;&gt;Node13 -->
<g id="edge21_Node000012_Node000013" class="edge">
<title>Node12&#45;&gt;Node13</title>
<g id="a_edge21_Node000012_Node000013"><a xlink:title=" ">
<path fill="none" stroke="#63b8ff" d="M789.24,-128.78C817.31,-118.83 851.44,-106.74 877.68,-97.44"/>
<polygon fill="#63b8ff" stroke="#63b8ff" points="788.11,-125.47 779.85,-132.11 790.44,-132.07 788.11,-125.47"/>
</a>
</g>
</g>
<!-- Node12&#45;&gt;Node14 -->
<g id="edge22_Node000012_Node000014" class="edge">
<title>Node12&#45;&gt;Node14</title>
<g id="a_edge22_Node000012_Node000014"><a xlink:title=" ">
<path fill="none" stroke="#63b8ff" d="M731.95,-121.59C730.29,-113.34 728.51,-104.49 727.06,-97.33"/>
<polygon fill="#63b8ff" stroke="#63b8ff" points="728.47,-122.02 733.88,-131.13 735.33,-120.64 728.47,-122.02"/>
</a>
</g>
</g>
<!-- Node14&#45;&gt;Node5 -->
<g id="edge23_Node000014_Node000005" class="edge">
<title>Node14&#45;&gt;Node5</title>
<g id="a_edge23_Node000014_Node000005"><a xlink:title=" ">
<path fill="none" stroke="#63b8ff" d="M641.67,-63.7C582.14,-51.4 504.08,-35.26 456.05,-25.33"/>
<polygon fill="#63b8ff" stroke="#63b8ff" points="640.95,-67.13 651.45,-65.73 642.37,-60.27 640.95,-67.13"/>
</a>
</g>
</g>
<!-- Node14&#45;&gt;Node10 -->
<g id="edge24_Node000014_Node000010" class="edge">
<title>Node14&#45;&gt;Node10</title>
<g id="a_edge24_Node000014_Node000010"><a xlink:title=" ">
<path fill="none" stroke="#63b8ff" d="M802.7,-63.63C859.14,-51.33 932.98,-35.24 978.45,-25.33"/>
<polygon fill="#63b8ff" stroke="#63b8ff" points="802.17,-60.16 793.14,-65.71 803.66,-67 802.17,-60.16"/>
</a>
</g>
</g>
<!-- Node15 -->
<g id="Node000015" class="node">
<title>Node15</title>
<g id="a_Node000015"><a xlink:href="_spike_event_series_8cpp.html" target="_top" xlink:title=" ">
<polygon fill="white" stroke="#666666" points="795.88,-30.5 652.38,-30.5 652.38,0 795.88,0 795.88,-30.5"/>
<text text-anchor="start" x="660.38" y="-17" font-family="Helvetica,sans-Serif" font-size="10.00">src/nwb/ecephys/SpikeEvent</text>
<text text-anchor="middle" x="724.12" y="-5.75" font-family="Helvetica,sans-Serif" font-size="10.00">Series.cpp</text>
</a>
</g>
</g>
<!-- Node14&#45;&gt;Node15 -->
<g id="edge25_Node000014_Node000015" class="edge">
<title>Node14&#45;&gt;Node15</title>
<g id="a_edge25_Node000014_Node000015"><a xlink:title=" ">
<path fill="none" stroke="#63b8ff" d="M724.12,-54.81C724.12,-46.64 724.12,-37.91 724.12,-30.83"/>
<polygon fill="#63b8ff" stroke="#63b8ff" points="720.63,-54.6 724.13,-64.6 727.63,-54.6 720.63,-54.6"/>
</a>
</g>
</g>
<!-- Node16&#45;&gt;Node5 -->
<g id="edge27_Node000016_Node000005" class="edge">
<title>Node16&#45;&gt;Node5</title>
<g id="a_edge27_Node000016_Node000005"><a xlink:title=" ">
<path fill="none" stroke="#63b8ff" d="M495.34,-207.73C433.69,-201.19 355.15,-188.18 335.12,-163.5 297.49,-117.13 371.06,-49.47 400.61,-25.27"/>
<polygon fill="#63b8ff" stroke="#63b8ff" points="494.83,-211.19 505.13,-208.72 495.53,-204.23 494.83,-211.19"/>
</a>
</g>
</g>
<!-- Node17 -->
<g id="Node000017" class="node">
<title>Node17</title>
<g id="a_Node000017"><a xlink:href="_device_8cpp.html" target="_top" xlink:title=" ">
<polygon fill="white" stroke="#666666" points="478.38,-157.88 343.88,-157.88 343.88,-138.62 478.38,-138.62 478.38,-157.88"/>
<text text-anchor="middle" x="411.12" y="-144.38" font-family="Helvetica,sans-Serif" font-size="10.00">src/nwb/device/Device.cpp</text>
</a>
</g>
</g>
<!-- Node16&#45;&gt;Node17 -->
<g id="edge28_Node000016_Node000017" class="edge">
<title>Node16&#45;&gt;Node17</title>
<g id="a_edge28_Node000016_Node000017"><a xlink:title=" ">
<path fill="none" stroke="#63b8ff" d="M540.54,-200.46C508.71,-187.87 461.75,-169.28 434.02,-158.31"/>
<polygon fill="#63b8ff" stroke="#63b8ff" points="539.12,-203.66 549.71,-204.09 541.7,-197.15 539.12,-203.66"/>
</a>
</g>
</g>
<!-- Node16&#45;&gt;Node18 -->
<g id="edge29_Node000016_Node000018" class="edge">
<title>Node16&#45;&gt;Node18</title>
<g id="a_edge29_Node000016_Node000018"><a xlink:title=" ">
<path fill="none" stroke="#63b8ff" d="M574.12,-193.27C574.12,-181.44 574.12,-167.16 574.12,-158.14"/>
<polygon fill="#63b8ff" stroke="#63b8ff" points="570.63,-193.27 574.13,-203.27 577.63,-193.27 570.63,-193.27"/>
</a>
</g>
</g>
<!-- Node18&#45;&gt;Node5 -->
<g id="edge30_Node000018_Node000005" class="edge">
<title>Node18&#45;&gt;Node5</title>
<g id="a_edge30_Node000018_Node000005"><a xlink:title=" ">
<path fill="none" stroke="#63b8ff" d="M496.67,-135.08C472.69,-127.72 448.13,-115.93 431.12,-97 412.74,-76.54 411.21,-41.66 411.62,-25.27"/>
<polygon fill="#63b8ff" stroke="#63b8ff" points="495.59,-138.41 506.16,-137.75 497.48,-131.67 495.59,-138.41"/>
</a>
</g>
</g>
<!-- Node19 -->
<g id="Node000019" class="node">
<title>Node19</title>
<g id="a_Node000019"><a xlink:href="_electrode_group_8cpp.html" target="_top" xlink:title=" ">
<polygon fill="white" stroke="#666666" points="595.88,-91.38 440.38,-91.38 440.38,-72.12 595.88,-72.12 595.88,-91.38"/>
<text text-anchor="middle" x="518.12" y="-77.88" font-family="Helvetica,sans-Serif" font-size="10.00">src/nwb/file/ElectrodeGroup.cpp</text>
</a>
</g>
</g>
<!-- Node18&#45;&gt;Node19 -->
<g id="edge31_Node000018_Node000019" class="edge">
<title>Node18&#45;&gt;Node19</title>
<g id="a_edge31_Node000018_Node000019"><a xlink:title=" ">
<path fill="none" stroke="#63b8ff" d="M558.92,-129.73C548.22,-117.41 534.34,-101.43 525.85,-91.64"/>
<polygon fill="#63b8ff" stroke="#63b8ff" points="556.15,-131.88 565.35,-137.14 561.43,-127.29 556.15,-131.88"/>
</a>
</g>
</g>
<!-- Node20&#45;&gt;Node7 -->
<g id="edge36_Node000020_Node000007" class="edge">
<title>Node20&#45;&gt;Node7</title>
<g id="a_edge36_Node000020_Node000007"><a xlink:title=" ">
<path fill="none" stroke="#63b8ff" d="M1411.76,-136.35C1404.8,-135.21 1397.82,-134.07 1391.12,-133 1294.7,-117.6 1182.28,-100.77 1116.39,-91.02"/>
<polygon fill="#63b8ff" stroke="#63b8ff" points="1410.71,-139.73 1421.15,-137.91 1411.85,-132.82 1410.71,-139.73"/>
</a>
</g>
</g>
<!-- Node20&#45;&gt;Node13 -->
<g id="edge37_Node000020_Node000013" class="edge">
<title>Node20&#45;&gt;Node13</title>
<g id="a_edge37_Node000020_Node000013"><a xlink:title=" ">
<path fill="none" stroke="#63b8ff" d="M1414.76,-136.4C1406.82,-135.16 1398.79,-133.99 1391.12,-133 1215.85,-110.37 1170.17,-121.31 995.12,-97 992.2,-96.59 989.22,-96.15 986.21,-95.68"/>
<polygon fill="#63b8ff" stroke="#63b8ff" points="1413.96,-139.81 1424.38,-137.94 1415.07,-132.9 1413.96,-139.81"/>
</a>
</g>
</g>
<!-- Node21 -->
<g id="Node000021" class="node">
<title>Node21</title>
<g id="a_Node000021"><a xlink:href="_electrode_table_8cpp.html" target="_top" xlink:title=" ">
<polygon fill="white" stroke="#666666" points="1552.38,-91.38 1399.88,-91.38 1399.88,-72.12 1552.38,-72.12 1552.38,-91.38"/>
<text text-anchor="middle" x="1476.12" y="-77.88" font-family="Helvetica,sans-Serif" font-size="10.00">src/nwb/file/ElectrodeTable.cpp</text>
</a>
</g>
</g>
<!-- Node20&#45;&gt;Node21 -->
<g id="edge38_Node000020_Node000021" class="edge">
<title>Node20&#45;&gt;Node21</title>
<g id="a_edge38_Node000020_Node000021"><a xlink:title=" ">
<path fill="none" stroke="#63b8ff" d="M1476.12,-126.77C1476.12,-114.94 1476.12,-100.66 1476.12,-91.64"/>
<polygon fill="#63b8ff" stroke="#63b8ff" points="1472.63,-126.77 1476.13,-136.77 1479.63,-126.77 1472.63,-126.77"/>
</a>
</g>
</g>
<!-- Node22&#45;&gt;Node8 -->
<g id="edge41_Node000022_Node000008" class="edge">
<title>Node22&#45;&gt;Node8</title>
<g id="a_edge41_Node000022_Node000008"><a xlink:title=" ">
<path fill="none" stroke="#63b8ff" d="M966.11,-262C957.4,-249.79 946.31,-234.24 939.47,-224.64"/>
<polygon fill="#63b8ff" stroke="#63b8ff" points="963.19,-263.94 971.85,-270.05 968.89,-259.88 963.19,-263.94"/>
</a>
</g>
</g>
<!-- Node22&#45;&gt;Node10 -->
<g id="edge40_Node000022_Node000010" class="edge">
<title>Node22&#45;&gt;Node10</title>
<g id="a_edge40_Node000022_Node000010"><a xlink:title=" ">
<path fill="none" stroke="#63b8ff" d="M1053.33,-269.31C1106.52,-260.3 1172.6,-246.39 1195.12,-230 1223.02,-209.71 1225.9,-196.73 1235.12,-163.5 1257.51,-82.85 1135.26,-41.87 1065.73,-25.34"/>
<polygon fill="#63b8ff" stroke="#63b8ff" points="1052.98,-265.82 1043.69,-270.91 1054.12,-272.72 1052.98,-265.82"/>
</a>
</g>
</g>
<!-- Node22&#45;&gt;Node16 -->
<g id="edge42_Node000022_Node000016" class="edge">
<title>Node22&#45;&gt;Node16</title>
<g id="a_edge42_Node000022_Node000016"><a xlink:title=" ">
<path fill="none" stroke="#63b8ff" d="M910.74,-269.36C832.22,-256.85 704.81,-236.56 631.33,-224.86"/>
<polygon fill="#63b8ff" stroke="#63b8ff" points="910.04,-272.79 920.46,-270.91 911.14,-265.88 910.04,-272.79"/>
</a>
</g>
</g>
<!-- Node22&#45;&gt;Node18 -->
<g id="edge43_Node000022_Node000018" class="edge">
<title>Node22&#45;&gt;Node18</title>
<g id="a_edge43_Node000022_Node000018"><a xlink:title=" ">
<path fill="none" stroke="#63b8ff" d="M940.22,-267.67C858.94,-241.38 672.82,-181.17 602.1,-158.3"/>
<polygon fill="#63b8ff" stroke="#63b8ff" points="938.94,-270.93 949.53,-270.68 941.09,-264.27 938.94,-270.93"/>
</a>
</g>
</g>
<!-- Node23 -->
<g id="Node000023" class="node">
<title>Node23</title>
<g id="a_Node000023"><a xlink:href="_container_8cpp.html" target="_top" xlink:title=" ">
<polygon fill="white" stroke="#666666" points="1186.25,-224.38 1024,-224.38 1024,-205.12 1186.25,-205.12 1186.25,-224.38"/>
<text text-anchor="middle" x="1105.12" y="-210.88" font-family="Helvetica,sans-Serif" font-size="10.00">src/nwb/hdmf/base/Container.cpp</text>
</a>
</g>
</g>
<!-- Node22&#45;&gt;Node23 -->
<g id="edge44_Node000022_Node000023" class="edge">
<title>Node22&#45;&gt;Node23</title>
<g id="a_edge44_Node000022_Node000023"><a xlink:title=" ">
<path fill="none" stroke="#63b8ff" d="M1007.04,-265.96C1031.58,-253.4 1066.55,-235.5 1087.43,-224.81"/>
<polygon fill="#63b8ff" stroke="#63b8ff" points="1005.56,-262.78 998.26,-270.46 1008.75,-269.01 1005.56,-262.78"/>
</a>
</g>
</g>
<!-- Node22&#45;&gt;Node24 -->
<g id="edge45_Node000022_Node000024" class="edge">
<title>Node22&#45;&gt;Node24</title>
<g id="a_edge45_Node000022_Node000024"><a xlink:title=" ">
<path fill="none" stroke="#63b8ff" d="M1047.37,-269.31C1106.04,-259.69 1192.84,-244.92 1268.12,-230 1272.59,-229.11 1277.22,-228.16 1281.86,-227.17"/>
<polygon fill="#63b8ff" stroke="#63b8ff" points="1046.83,-265.85 1037.52,-270.92 1047.95,-272.76 1046.83,-265.85"/>
</a>
</g>
</g>
<!-- Node24&#45;&gt;Node20 -->
<g id="edge46_Node000024_Node000020" class="edge">
<title>Node24&#45;&gt;Node20</title>
<g id="a_edge46_Node000024_Node000020"><a xlink:title=" ">
<path fill="none" stroke="#63b8ff" d="M1375.09,-194.51C1401.9,-182.5 1435.15,-167.6 1456.01,-158.26"/>
<polygon fill="#63b8ff" stroke="#63b8ff" points="1373.88,-191.21 1366.18,-198.5 1376.74,-197.6 1373.88,-191.21"/>
</a>
</g>
</g>
<!-- Node25 -->
<g id="Node000025" class="node">
<title>Node25</title>
<g id="a_Node000025"><a xlink:href="_dynamic_table_8cpp.html" target="_top" xlink:title=" ">
<polygon fill="white" stroke="#666666" points="1382.12,-163.5 1282.12,-163.5 1282.12,-133 1382.12,-133 1382.12,-163.5"/>
<text text-anchor="start" x="1290.12" y="-150" font-family="Helvetica,sans-Serif" font-size="10.00">src/nwb/hdmf/table</text>
<text text-anchor="middle" x="1332.12" y="-138.75" font-family="Helvetica,sans-Serif" font-size="10.00">/DynamicTable.cpp</text>
</a>
</g>
</g>
<!-- Node24&#45;&gt;Node25 -->
<g id="edge47_Node000024_Node000025" class="edge">
<title>Node24&#45;&gt;Node25</title>
<g id="a_edge47_Node000024_Node000025"><a xlink:title=" ">
<path fill="none" stroke="#63b8ff" d="M1332.12,-187.81C1332.12,-179.64 1332.12,-170.91 1332.12,-163.83"/>
<polygon fill="#63b8ff" stroke="#63b8ff" points="1328.63,-187.6 1332.13,-197.6 1335.63,-187.6 1328.63,-187.6"/>
</a>
</g>
</g>
<!-- Node27 -->
<g id="Node000027" class="node">
<title>Node27</title>
<g id="a_Node000027"><a xlink:href="_element_identifiers_8hpp.html" target="_top" xlink:title=" ">
<polygon fill="white" stroke="#666666" points="1385.38,-296.5 1268.88,-296.5 1268.88,-266 1385.38,-266 1385.38,-296.5"/>
<text text-anchor="start" x="1276.88" y="-283" font-family="Helvetica,sans-Serif" font-size="10.00">src/nwb/hdmf/table</text>
<text text-anchor="middle" x="1327.12" y="-271.75" font-family="Helvetica,sans-Serif" font-size="10.00">/ElementIdentifiers.hpp</text>
</a>
</g>
</g>
<!-- Node26&#45;&gt;Node27 -->
<g id="edge49_Node000026_Node000027" class="edge">
<title>Node26&#45;&gt;Node27</title>
<g id="a_edge49_Node000026_Node000027"><a xlink:title=" ">
<path fill="none" stroke="#63b8ff" d="M1327.12,-320.92C1327.12,-312.99 1327.12,-304.06 1327.12,-296.78"/>
<polygon fill="#63b8ff" stroke="#63b8ff" points="1323.63,-320.67 1327.13,-330.67 1330.63,-320.67 1323.63,-320.67"/>
</a>
</g>
</g>
<!-- Node28 -->
<g id="Node000028" class="node">
<title>Node28</title>
<g id="a_Node000028"><a xlink:href="_vector_data_8hpp.html" target="_top" xlink:title=" ">
<polygon fill="white" stroke="#666666" points="1502.75,-296.5 1403.5,-296.5 1403.5,-266 1502.75,-266 1502.75,-296.5"/>
<text text-anchor="start" x="1411.5" y="-283" font-family="Helvetica,sans-Serif" font-size="10.00">src/nwb/hdmf/table</text>
<text text-anchor="middle" x="1453.12" y="-271.75" font-family="Helvetica,sans-Serif" font-size="10.00">/VectorData.hpp</text>
</a>
</g>
</g>
<!-- Node26&#45;&gt;Node28 -->
<g id="edge52_Node000026_Node000028" class="edge">
<title>Node26&#45;&gt;Node28</title>
<g id="a_edge52_Node000026_Node000028"><a xlink:title=" ">
<path fill="none" stroke="#63b8ff" d="M1356.96,-327.18C1376.45,-318.08 1401.87,-306.2 1421.68,-296.94"/>
<polygon fill="#63b8ff" stroke="#63b8ff" points="1355.49,-324.01 1347.91,-331.41 1358.45,-330.35 1355.49,-324.01"/>
</a>
</g>
</g>
<!-- Node27&#45;&gt;Node20 -->
<g id="edge50_Node000027_Node000020" class="edge">
<title>Node27&#45;&gt;Node20</title>
<g id="a_edge50_Node000027_Node000020"><a xlink:title=" ">
<path fill="none" stroke="#63b8ff" d="M1355.79,-258.66C1367,-249.99 1379.85,-239.74 1391.12,-230 1420.08,-204.98 1452.35,-173.16 1467.45,-158.02"/>
<polygon fill="#63b8ff" stroke="#63b8ff" points="1353.84,-255.76 1348.03,-264.62 1358.1,-261.31 1353.84,-255.76"/>
</a>
</g>
</g>
<!-- Node27&#45;&gt;Node24 -->
<g id="edge51_Node000027_Node000024" class="edge">
<title>Node27&#45;&gt;Node24</title>
<g id="a_edge51_Node000027_Node000024"><a xlink:title=" ">
<path fill="none" stroke="#63b8ff" d="M1329.14,-254.31C1329.77,-246.14 1330.45,-237.41 1330.99,-230.33"/>
<polygon fill="#63b8ff" stroke="#63b8ff" points="1325.66,-253.86 1328.38,-264.1 1332.64,-254.41 1325.66,-253.86"/>
</a>
</g>
</g>
<!-- Node28&#45;&gt;Node20 -->
<g id="edge53_Node000028_Node000020" class="edge">
<title>Node28&#45;&gt;Node20</title>
<g id="a_edge53_Node000028_Node000020"><a xlink:title=" ">
<path fill="none" stroke="#63b8ff" d="M1457.53,-254.6C1460.27,-238.72 1463.88,-217.92 1467.12,-199.5 1469.68,-185.01 1472.7,-168.18 1474.52,-158.14"/>
<polygon fill="#63b8ff" stroke="#63b8ff" points="1454.14,-253.72 1455.89,-264.17 1461.03,-254.91 1454.14,-253.72"/>
</a>
</g>
</g>
<!-- Node28&#45;&gt;Node24 -->
<g id="edge54_Node000028_Node000024" class="edge">
<title>Node28&#45;&gt;Node24</title>
<g id="a_edge54_Node000028_Node000024"><a xlink:title=" ">
<path fill="none" stroke="#63b8ff" d="M1415.69,-260.29C1397.52,-250.61 1376.08,-239.18 1359.47,-230.33"/>
<polygon fill="#63b8ff" stroke="#63b8ff" points="1413.86,-263.29 1424.33,-264.9 1417.15,-257.11 1413.86,-263.29"/>
</a>
</g>
</g>
<!-- Node29 -->
<g id="Node000029" class="node">
<title>Node29</title>
<g id="a_Node000029"><a xlink:href="_vector_data_8cpp.html" target="_top" xlink:title=" ">
<polygon fill="white" stroke="#666666" points="1575.75,-230 1476.5,-230 1476.5,-199.5 1575.75,-199.5 1575.75,-230"/>
<text text-anchor="start" x="1484.5" y="-216.5" font-family="Helvetica,sans-Serif" font-size="10.00">src/nwb/hdmf/table</text>
<text text-anchor="middle" x="1526.12" y="-205.25" font-family="Helvetica,sans-Serif" font-size="10.00">/VectorData.cpp</text>
</a>
</g>
</g>
<!-- Node28&#45;&gt;Node29 -->
<g id="edge55_Node000028_Node000029" class="edge">
<title>Node28&#45;&gt;Node29</title>
<g id="a_edge55_Node000028_Node000029"><a xlink:title=" ">
<path fill="none" stroke="#63b8ff" d="M1478.03,-258.24C1488.46,-249.03 1500.3,-238.56 1509.63,-230.33"/>
<polygon fill="#63b8ff" stroke="#63b8ff" points="1476,-255.37 1470.82,-264.61 1480.64,-260.61 1476,-255.37"/>
</a>
</g>
</g>
</g>
</svg>
