<?xml version="1.0" encoding="UTF-8" standalone="no"?>
<!DOCTYPE svg PUBLIC "-//W3C//DTD SVG 1.1//EN"
 "http://www.w3.org/Graphics/SVG/1.1/DTD/svg11.dtd">
<!-- Generated by graphviz version 14.1.2 (20260124.0452)
 -->
<!-- Title: src/Channel.cpp Pages: 1 -->
<svg width="258pt" height="193pt"
 viewBox="0.00 0.00 258.00 193.00" xmlns="http://www.w3.org/2000/svg" xmlns:xlink="http://www.w3.org/1999/xlink">

<svg id="main" version="1.1" xmlns="http://www.w3.org/2000/svg" xmlns:xlink="http://www.w3.org/1999/xlink" xml:space="preserve">

<style type="text/css"><![CDATA[
.node, .edge {opacity: 0.7;}
.node.selected, .edge.selected {opacity: 1;}
.edge:hover path { stroke: red; }
.edge:hover polygon { stroke: red; fill: red; }
]]></style>
<script type="application/ecmascript" xlink:href="svg.min.js"/>
<svg id="graph" class="graph">
<g id="graph0" class="graph" transform="scale(1 1) rotate(0) translate(4 189)">
<title>src/Channel.cpp</title>
<!-- Node1 -->
<g id="Node000001" class="node">
<title>Node1</title>
<g id="a_Node000001"><a xlink:title=" ">
<polygon fill="#999999" stroke="#666666" points="87.25,-185 0,-185 0,-165.75 87.25,-165.75 87.25,-185"/>
<text xml:space="preserve" text-anchor="middle" x="43.62" y="-171.5" font-family="Helvetica,sans-Serif" font-size="10.00">src/Channel.cpp</text>
</a>
</g>
</g>
<!-- Node2 -->
<g id="Node000002" class="node">
<title>Node2</title>
<g id="a_Node000002"><a xlink:title=" ">
<polygon fill="#e0e0e0" stroke="#999999" points="65.62,-19.25 25.62,-19.25 25.62,0 65.62,0 65.62,-19.25"/>
<text xml:space="preserve" text-anchor="middle" x="45.62" y="-5.75" font-family="Helvetica,sans-Serif" font-size="10.00">string</text>
</a>
</g>
</g>
<!-- Node1&#45;&gt;Node2 -->
<g id="edge1_Node000001_Node000002" class="edge">
<title>Node1&#45;&gt;Node2</title>
<g id="a_edge1_Node000001_Node000002"><a xlink:title=" ">
<path fill="none" stroke="#63b8ff" d="M43.37,-165.49C43.12,-156.48 42.76,-142.15 42.62,-129.75 42.24,-95.02 43.65,-54.6 44.67,-30.9"/>
<polygon fill="#63b8ff" stroke="#63b8ff" points="48.15,-31.25 45.11,-21.1 41.16,-30.93 48.15,-31.25"/>
</a>
</g>
</g>
<!-- Node3 -->
<g id="Node000003" class="node">
<title>Node3</title>
<g id="a_Node000003"><a xlink:href="_channel_8hpp.html" target="_top" xlink:title=" ">
<polygon fill="white" stroke="#666666" points="122,-129.75 51.25,-129.75 51.25,-110.5 122,-110.5 122,-129.75"/>
<text xml:space="preserve" text-anchor="middle" x="86.62" y="-116.25" font-family="Helvetica,sans-Serif" font-size="10.00">Channel.hpp</text>
</a>
</g>
</g>
<!-- Node1&#45;&gt;Node3 -->
<g id="edge2_Node000001_Node000003" class="edge">
<title>Node1&#45;&gt;Node3</title>
<g id="a_edge2_Node000001_Node000003"><a xlink:title=" ">
<path fill="none" stroke="#63b8ff" d="M50.73,-165.58C56.54,-158.38 64.96,-147.96 72.18,-139.01"/>
<polygon fill="#63b8ff" stroke="#63b8ff" points="74.86,-141.27 78.42,-131.29 69.41,-136.87 74.86,-141.27"/>
</a>
</g>
</g>
<!-- Node3&#45;&gt;Node2 -->
<g id="edge4_Node000003_Node000002" class="edge">
<title>Node3&#45;&gt;Node2</title>
<g id="a_edge4_Node000003_Node000002"><a xlink:title=" ">
<path fill="none" stroke="#63b8ff" d="M83.23,-110.24C79.79,-101.24 74.32,-86.91 69.62,-74.5 64.03,-59.72 57.75,-43 53.02,-30.38"/>
<polygon fill="#63b8ff" stroke="#63b8ff" points="56.35,-29.28 49.56,-21.14 49.79,-31.74 56.35,-29.28"/>
</a>
</g>
</g>
<!-- Node4 -->
<g id="Node000004" class="node">
<title>Node4</title>
<g id="a_Node000004"><a xlink:title=" ">
<polygon fill="#e0e0e0" stroke="#999999" points="116.5,-74.5 78.75,-74.5 78.75,-55.25 116.5,-55.25 116.5,-74.5"/>
<text xml:space="preserve" text-anchor="middle" x="97.62" y="-61" font-family="Helvetica,sans-Serif" font-size="10.00">array</text>
</a>
</g>
</g>
<!-- Node3&#45;&gt;Node4 -->
<g id="edge3_Node000003_Node000004" class="edge">
<title>Node3&#45;&gt;Node4</title>
<g id="a_edge3_Node000003_Node000004"><a xlink:title=" ">
<path fill="none" stroke="#63b8ff" d="M88.44,-110.33C89.8,-103.74 91.72,-94.46 93.45,-86.07"/>
<polygon fill="#63b8ff" stroke="#63b8ff" points="96.87,-86.84 95.46,-76.34 90.01,-85.43 96.87,-86.84"/>
</a>
</g>
</g>
<!-- Node5 -->
<g id="Node000005" class="node">
<title>Node5</title>
<g id="a_Node000005"><a xlink:href="_types_8hpp.html" target="_top" xlink:title=" ">
<polygon fill="white" stroke="#666666" points="195.12,-74.5 134.12,-74.5 134.12,-55.25 195.12,-55.25 195.12,-74.5"/>
<text xml:space="preserve" text-anchor="middle" x="164.62" y="-61" font-family="Helvetica,sans-Serif" font-size="10.00">Types.hpp</text>
</a>
</g>
</g>
<!-- Node3&#45;&gt;Node5 -->
<g id="edge5_Node000003_Node000005" class="edge">
<title>Node3&#45;&gt;Node5</title>
<g id="a_edge5_Node000003_Node000005"><a xlink:title=" ">
<path fill="none" stroke="#63b8ff" d="M99.86,-110.09C111.4,-102.21 128.39,-90.61 142.07,-81.27"/>
<polygon fill="#63b8ff" stroke="#63b8ff" points="143.79,-84.33 150.08,-75.81 139.85,-78.55 143.79,-84.33"/>
</a>
</g>
</g>
<!-- Node5&#45;&gt;Node2 -->
<g id="edge8_Node000005_Node000002" class="edge">
<title>Node5&#45;&gt;Node2</title>
<g id="a_edge8_Node000005_Node000002"><a xlink:title=" ">
<path fill="none" stroke="#63b8ff" d="M144.44,-54.84C125.72,-46.47 97.6,-33.88 76.14,-24.28"/>
<polygon fill="#63b8ff" stroke="#63b8ff" points="77.85,-21.21 67.29,-20.32 74.99,-27.6 77.85,-21.21"/>
</a>
</g>
</g>
<!-- Node6 -->
<g id="Node000006" class="node">
<title>Node6</title>
<g id="a_Node000006"><a xlink:title=" ">
<polygon fill="#e0e0e0" stroke="#999999" points="131.75,-19.25 83.5,-19.25 83.5,0 131.75,0 131.75,-19.25"/>
<text xml:space="preserve" text-anchor="middle" x="107.62" y="-5.75" font-family="Helvetica,sans-Serif" font-size="10.00">cstddef</text>
</a>
</g>
</g>
<!-- Node5&#45;&gt;Node6 -->
<g id="edge6_Node000005_Node000006" class="edge">
<title>Node5&#45;&gt;Node6</title>
<g id="a_edge6_Node000005_Node000006"><a xlink:title=" ">
<path fill="none" stroke="#63b8ff" d="M154.96,-54.84C146.88,-47.3 135.16,-36.35 125.4,-27.23"/>
<polygon fill="#63b8ff" stroke="#63b8ff" points="127.95,-24.83 118.26,-20.56 123.18,-29.94 127.95,-24.83"/>
</a>
</g>
</g>
<!-- Node7 -->
<g id="Node000007" class="node">
<title>Node7</title>
<g id="a_Node000007"><a xlink:title=" ">
<polygon fill="#e0e0e0" stroke="#999999" points="189.25,-19.25 150,-19.25 150,0 189.25,0 189.25,-19.25"/>
<text xml:space="preserve" text-anchor="middle" x="169.62" y="-5.75" font-family="Helvetica,sans-Serif" font-size="10.00">limits</text>
</a>
</g>
</g>
<!-- Node5&#45;&gt;Node7 -->
<g id="edge7_Node000005_Node000007" class="edge">
<title>Node5&#45;&gt;Node7</title>
<g id="a_edge7_Node000005_Node000007"><a xlink:title=" ">
<path fill="none" stroke="#63b8ff" d="M165.45,-55.08C166.07,-48.49 166.94,-39.21 167.73,-30.82"/>
<polygon fill="#63b8ff" stroke="#63b8ff" points="171.19,-31.4 168.64,-21.12 164.22,-30.75 171.19,-31.4"/>
</a>
</g>
</g>
<!-- Node8 -->
<g id="Node000008" class="node">
<title>Node8</title>
<g id="a_Node000008"><a xlink:title=" ">
<polygon fill="#e0e0e0" stroke="#999999" points="250.12,-19.25 207.12,-19.25 207.12,0 250.12,0 250.12,-19.25"/>
<text xml:space="preserve" text-anchor="middle" x="228.62" y="-5.75" font-family="Helvetica,sans-Serif" font-size="10.00">vector</text>
</a>
</g>
</g>
<!-- Node5&#45;&gt;Node8 -->
<g id="edge9_Node000005_Node000008" class="edge">
<title>Node5&#45;&gt;Node8</title>
<g id="a_edge9_Node000005_Node000008"><a xlink:title=" ">
<path fill="none" stroke="#63b8ff" d="M175.48,-54.84C184.73,-47.15 198.25,-35.9 209.33,-26.68"/>
<polygon fill="#63b8ff" stroke="#63b8ff" points="211.32,-29.58 216.77,-20.49 206.84,-24.2 211.32,-29.58"/>
</a>
</g>
</g>
</g>
</svg>
</svg>

<style type='text/css'>
<![CDATA[
[data-mouse-over-selected='false'] { opacity: 0.7; }
[data-mouse-over-selected='true']  { opacity: 1.0; }
]]>
</style>
<script type="application/ecmascript"><![CDATA[
document.addEventListener('DOMContentLoaded', (event) => {
  highlightEdges();
  highlightAdjacentNodes();
});
]]></script>
</svg>
