<?xml version="1.0" encoding="UTF-8" standalone="no"?>
<!DOCTYPE svg PUBLIC "-//W3C//DTD SVG 1.1//EN"
 "http://www.w3.org/Graphics/SVG/1.1/DTD/svg11.dtd">
<!-- Generated by graphviz version 12.2.1 (20241206.2353)
 -->
<!-- Title: src/nwb/hdmf/base/Container.hpp Pages: 1 -->
<svg width="1843pt" height="370pt"
 viewBox="0.00 0.00 1843.38 370.00" xmlns="http://www.w3.org/2000/svg" xmlns:xlink="http://www.w3.org/1999/xlink">
<g id="graph0" class="graph" transform="scale(1 1) rotate(0) translate(4 366)">
<title>src/nwb/hdmf/base/Container.hpp</title>
<!-- Node1 -->
<g id="Node000001" class="node">
<title>Node1</title>
<g id="a_Node000001"><a xlink:title=" ">
<polygon fill="#999999" stroke="#666666" points="1159.5,-362 997.25,-362 997.25,-342.75 1159.5,-342.75 1159.5,-362"/>
<text text-anchor="middle" x="1078.38" y="-348.5" font-family="Helvetica,sans-Serif" font-size="10.00">src/nwb/hdmf/base/Container.hpp</text>
</a>
</g>
</g>
<!-- Node2 -->
<g id="Node000002" class="node">
<title>Node2</title>
<g id="a_Node000002"><a xlink:title=" ">
<polygon fill="#e0e0e0" stroke="#999999" points="1816,-74.5 1764.75,-74.5 1764.75,-55.25 1816,-55.25 1816,-74.5"/>
<text text-anchor="middle" x="1790.38" y="-61" font-family="Helvetica,sans-Serif" font-size="10.00">memory</text>
</a>
</g>
</g>
<!-- Node1&#45;&gt;Node2 -->
<g id="edge1_Node000001_Node000002" class="edge">
<title>Node1&#45;&gt;Node2</title>
<g id="a_edge1_Node000001_Node000002"><a xlink:title=" ">
<path fill="none" stroke="#63b8ff" d="M1159.75,-348.13C1355.26,-339.25 1835.38,-310.54 1835.38,-242.88 1835.38,-242.88 1835.38,-242.88 1835.38,-180 1835.38,-144.29 1816.07,-106.4 1802.75,-84.5"/>
<polygon fill="#63b8ff" stroke="#63b8ff" points="1805.76,-82.71 1797.44,-76.14 1799.85,-86.46 1805.76,-82.71"/>
</a>
</g>
</g>
<!-- Node3 -->
<g id="Node000003" class="node">
<title>Node3</title>
<g id="a_Node000003"><a xlink:title=" ">
<polygon fill="#e0e0e0" stroke="#999999" points="176.38,-74.5 136.38,-74.5 136.38,-55.25 176.38,-55.25 176.38,-74.5"/>
<text text-anchor="middle" x="156.38" y="-61" font-family="Helvetica,sans-Serif" font-size="10.00">string</text>
</a>
</g>
</g>
<!-- Node1&#45;&gt;Node3 -->
<g id="edge2_Node000001_Node000003" class="edge">
<title>Node1&#45;&gt;Node3</title>
<g id="a_edge2_Node000001_Node000003"><a xlink:title=" ">
<path fill="none" stroke="#63b8ff" d="M996.86,-348.82C773.58,-341.03 164.45,-314.18 101.38,-251.5 56.74,-207.14 81.85,-164.38 114.38,-110.5 120.59,-100.2 129.51,-90.29 137.54,-82.44"/>
<polygon fill="#63b8ff" stroke="#63b8ff" points="139.69,-85.22 144.61,-75.84 134.91,-80.1 139.69,-85.22"/>
</a>
</g>
</g>
<!-- Node4 -->
<g id="Node000004" class="node">
<title>Node4</title>
<g id="a_Node000004"><a xlink:href="_registered_type_8hpp.html" target="_top" xlink:title=" ">
<polygon fill="white" stroke="#666666" points="1140.38,-306.75 1016.38,-306.75 1016.38,-287.5 1140.38,-287.5 1140.38,-306.75"/>
<text text-anchor="middle" x="1078.38" y="-293.25" font-family="Helvetica,sans-Serif" font-size="10.00">nwb/RegisteredType.hpp</text>
</a>
</g>
</g>
<!-- Node1&#45;&gt;Node4 -->
<g id="edge3_Node000001_Node000004" class="edge">
<title>Node1&#45;&gt;Node4</title>
<g id="a_edge3_Node000001_Node000004"><a xlink:title=" ">
<path fill="none" stroke="#63b8ff" d="M1078.38,-342.58C1078.38,-336.07 1078.38,-326.92 1078.38,-318.62"/>
<polygon fill="#63b8ff" stroke="#63b8ff" points="1081.88,-318.62 1078.38,-308.62 1074.88,-318.62 1081.88,-318.62"/>
</a>
</g>
</g>
<!-- Node4&#45;&gt;Node2 -->
<g id="edge5_Node000004_Node000002" class="edge">
<title>Node4&#45;&gt;Node2</title>
<g id="a_edge5_Node000004_Node000002"><a xlink:title=" ">
<path fill="none" stroke="#63b8ff" d="M1140.43,-295.07C1259.31,-292.34 1514.65,-282.91 1596.38,-251.5 1682.87,-218.26 1752.01,-124.73 1778.59,-84.57"/>
<polygon fill="#63b8ff" stroke="#63b8ff" points="1781.5,-86.53 1783.99,-76.23 1775.62,-82.72 1781.5,-86.53"/>
</a>
</g>
</g>
<!-- Node4&#45;&gt;Node3 -->
<g id="edge6_Node000004_Node000003" class="edge">
<title>Node4&#45;&gt;Node3</title>
<g id="a_edge6_Node000004_Node000003"><a xlink:title=" ">
<path fill="none" stroke="#63b8ff" d="M1016.16,-295.57C808.19,-293.42 148.44,-284.04 117.38,-251.5 72.88,-204.89 119.19,-121.08 143.49,-84.17"/>
<polygon fill="#63b8ff" stroke="#63b8ff" points="146.35,-86.18 149.08,-75.94 140.57,-82.25 146.35,-86.18"/>
</a>
</g>
</g>
<!-- Node5 -->
<g id="Node000005" class="node">
<title>Node5</title>
<g id="a_Node000005"><a xlink:title=" ">
<polygon fill="#e0e0e0" stroke="#999999" points="184.38,-251.5 126.38,-251.5 126.38,-232.25 184.38,-232.25 184.38,-251.5"/>
<text text-anchor="middle" x="155.38" y="-238" font-family="Helvetica,sans-Serif" font-size="10.00">functional</text>
</a>
</g>
</g>
<!-- Node4&#45;&gt;Node5 -->
<g id="edge4_Node000004_Node000005" class="edge">
<title>Node4&#45;&gt;Node5</title>
<g id="a_edge4_Node000004_Node000005"><a xlink:title=" ">
<path fill="none" stroke="#63b8ff" d="M1015.95,-296.11C871.51,-295.38 503.29,-289.6 198.38,-251.5 197.38,-251.38 196.38,-251.24 195.37,-251.1"/>
<polygon fill="#63b8ff" stroke="#63b8ff" points="196.35,-247.71 185.92,-249.55 195.22,-254.62 196.35,-247.71"/>
</a>
</g>
</g>
<!-- Node6 -->
<g id="Node000006" class="node">
<title>Node6</title>
<g id="a_Node000006"><a xlink:title=" ">
<polygon fill="#e0e0e0" stroke="#999999" points="82.75,-74.5 0,-74.5 0,-55.25 82.75,-55.25 82.75,-74.5"/>
<text text-anchor="middle" x="41.38" y="-61" font-family="Helvetica,sans-Serif" font-size="10.00">unordered_map</text>
</a>
</g>
</g>
<!-- Node4&#45;&gt;Node6 -->
<g id="edge7_Node000004_Node000006" class="edge">
<title>Node4&#45;&gt;Node6</title>
<g id="a_edge7_Node000004_Node000006"><a xlink:title=" ">
<path fill="none" stroke="#63b8ff" d="M1016.21,-295.22C806.75,-291.93 137.78,-279.28 101.38,-251.5 49.13,-211.62 41.61,-125.54 41.04,-86.21"/>
<polygon fill="#63b8ff" stroke="#63b8ff" points="44.54,-86.32 41.05,-76.32 37.54,-86.31 44.54,-86.32"/>
</a>
</g>
</g>
<!-- Node7 -->
<g id="Node000007" class="node">
<title>Node7</title>
<g id="a_Node000007"><a xlink:title=" ">
<polygon fill="#e0e0e0" stroke="#999999" points="749.12,-74.5 671.62,-74.5 671.62,-55.25 749.12,-55.25 749.12,-74.5"/>
<text text-anchor="middle" x="710.38" y="-61" font-family="Helvetica,sans-Serif" font-size="10.00">unordered_set</text>
</a>
</g>
</g>
<!-- Node4&#45;&gt;Node7 -->
<g id="edge8_Node000004_Node000007" class="edge">
<title>Node4&#45;&gt;Node7</title>
<g id="a_edge8_Node000004_Node000007"><a xlink:title=" ">
<path fill="none" stroke="#63b8ff" d="M1016.16,-293.8C823.79,-285.98 248.2,-257.61 193.38,-196.25 128.59,-123.74 518.35,-82.44 660.21,-69.95"/>
<polygon fill="#63b8ff" stroke="#63b8ff" points="660.41,-73.45 670.07,-69.1 659.8,-66.48 660.41,-73.45"/>
</a>
</g>
</g>
<!-- Node8 -->
<g id="Node000008" class="node">
<title>Node8</title>
<g id="a_Node000008"><a xlink:href="_types_8hpp.html" target="_top" xlink:title=" ">
<polygon fill="white" stroke="#666666" points="1746.88,-74.5 1685.88,-74.5 1685.88,-55.25 1746.88,-55.25 1746.88,-74.5"/>
<text text-anchor="middle" x="1716.38" y="-61" font-family="Helvetica,sans-Serif" font-size="10.00">Types.hpp</text>
</a>
</g>
</g>
<!-- Node4&#45;&gt;Node8 -->
<g id="edge9_Node000004_Node000008" class="edge">
<title>Node4&#45;&gt;Node8</title>
<g id="a_edge9_Node000004_Node000008"><a xlink:title=" ">
<path fill="none" stroke="#63b8ff" d="M1140.44,-294.21C1252.83,-290.12 1485.43,-278.58 1561.38,-251.5 1602.77,-236.74 1613.61,-228.58 1643.38,-196.25 1674.75,-162.17 1697.88,-112.2 1708.99,-85.09"/>
<polygon fill="#63b8ff" stroke="#63b8ff" points="1712.13,-86.67 1712.57,-76.08 1705.62,-84.09 1712.13,-86.67"/>
</a>
</g>
</g>
<!-- Node11 -->
<g id="Node000011" class="node">
<title>Node11</title>
<g id="a_Node000011"><a xlink:href="_utils_8hpp.html" target="_top" xlink:title=" ">
<polygon fill="white" stroke="#666666" points="1105.88,-251.5 1050.88,-251.5 1050.88,-232.25 1105.88,-232.25 1105.88,-251.5"/>
<text text-anchor="middle" x="1078.38" y="-238" font-family="Helvetica,sans-Serif" font-size="10.00">Utils.hpp</text>
</a>
</g>
</g>
<!-- Node4&#45;&gt;Node11 -->
<g id="edge12_Node000004_Node000011" class="edge">
<title>Node4&#45;&gt;Node11</title>
<g id="a_edge12_Node000004_Node000011"><a xlink:title=" ">
<path fill="none" stroke="#63b8ff" d="M1078.38,-287.33C1078.38,-280.82 1078.38,-271.67 1078.38,-263.37"/>
<polygon fill="#63b8ff" stroke="#63b8ff" points="1081.88,-263.37 1078.38,-253.37 1074.88,-263.37 1081.88,-263.37"/>
</a>
</g>
</g>
<!-- Node25 -->
<g id="Node000025" class="node">
<title>Node25</title>
<g id="a_Node000025"><a xlink:href="_base_i_o_8hpp.html" target="_top" xlink:title=" ">
<polygon fill="white" stroke="#666666" points="1393.5,-129.75 1315.25,-129.75 1315.25,-110.5 1393.5,-110.5 1393.5,-129.75"/>
<text text-anchor="middle" x="1354.38" y="-116.25" font-family="Helvetica,sans-Serif" font-size="10.00">io/BaseIO.hpp</text>
</a>
</g>
</g>
<!-- Node4&#45;&gt;Node25 -->
<g id="edge55_Node000004_Node000025" class="edge">
<title>Node4&#45;&gt;Node25</title>
<g id="a_edge55_Node000004_Node000025"><a xlink:title=" ">
<path fill="none" stroke="#63b8ff" d="M1140.65,-289.27C1239.88,-276.93 1426.74,-247.38 1466.38,-196.25 1474.68,-185.54 1473.98,-176.97 1466.38,-165.75 1452.5,-145.28 1427.57,-134.2 1404.75,-128.2"/>
<polygon fill="#63b8ff" stroke="#63b8ff" points="1405.78,-124.85 1395.24,-125.99 1404.19,-131.66 1405.78,-124.85"/>
</a>
</g>
</g>
<!-- Node31 -->
<g id="Node000031" class="node">
<title>Node31</title>
<g id="a_Node000031"><a xlink:href="_read_i_o_8hpp.html" target="_top" xlink:title=" ">
<polygon fill="white" stroke="#666666" points="1616.88,-129.75 1537.88,-129.75 1537.88,-110.5 1616.88,-110.5 1616.88,-129.75"/>
<text text-anchor="middle" x="1577.38" y="-116.25" font-family="Helvetica,sans-Serif" font-size="10.00">io/ReadIO.hpp</text>
</a>
</g>
</g>
<!-- Node4&#45;&gt;Node31 -->
<g id="edge56_Node000004_Node000031" class="edge">
<title>Node4&#45;&gt;Node31</title>
<g id="a_edge56_Node000004_Node000031"><a xlink:title=" ">
<path fill="none" stroke="#63b8ff" d="M1140.87,-294.63C1271.64,-290.01 1566.96,-271.32 1626.38,-196.25 1641.74,-176.84 1619.12,-152.56 1599.77,-136.95"/>
<polygon fill="#63b8ff" stroke="#63b8ff" points="1601.99,-134.24 1591.92,-130.96 1597.75,-139.81 1601.99,-134.24"/>
</a>
</g>
</g>
<!-- Node9 -->
<g id="Node000009" class="node">
<title>Node9</title>
<g id="a_Node000009"><a xlink:title=" ">
<polygon fill="#e0e0e0" stroke="#999999" points="1740.5,-19.25 1692.25,-19.25 1692.25,0 1740.5,0 1740.5,-19.25"/>
<text text-anchor="middle" x="1716.38" y="-5.75" font-family="Helvetica,sans-Serif" font-size="10.00">cstddef</text>
</a>
</g>
</g>
<!-- Node8&#45;&gt;Node9 -->
<g id="edge10_Node000008_Node000009" class="edge">
<title>Node8&#45;&gt;Node9</title>
<g id="a_edge10_Node000008_Node000009"><a xlink:title=" ">
<path fill="none" stroke="#63b8ff" d="M1716.38,-55.08C1716.38,-48.57 1716.38,-39.42 1716.38,-31.12"/>
<polygon fill="#63b8ff" stroke="#63b8ff" points="1719.88,-31.12 1716.38,-21.12 1712.88,-31.12 1719.88,-31.12"/>
</a>
</g>
</g>
<!-- Node10 -->
<g id="Node000010" class="node">
<title>Node10</title>
<g id="a_Node000010"><a xlink:title=" ">
<polygon fill="#e0e0e0" stroke="#999999" points="1602.88,-19.25 1559.88,-19.25 1559.88,0 1602.88,0 1602.88,-19.25"/>
<text text-anchor="middle" x="1581.38" y="-5.75" font-family="Helvetica,sans-Serif" font-size="10.00">vector</text>
</a>
</g>
</g>
<!-- Node8&#45;&gt;Node10 -->
<g id="edge11_Node000008_Node000010" class="edge">
<title>Node8&#45;&gt;Node10</title>
<g id="a_edge11_Node000008_Node000010"><a xlink:title=" ">
<path fill="none" stroke="#63b8ff" d="M1693.47,-54.84C1671.55,-46.2 1638.28,-33.07 1613.67,-23.36"/>
<polygon fill="#63b8ff" stroke="#63b8ff" points="1615.04,-20.14 1604.45,-19.73 1612.47,-26.65 1615.04,-20.14"/>
</a>
</g>
</g>
<!-- Node11&#45;&gt;Node3 -->
<g id="edge20_Node000011_Node000003" class="edge">
<title>Node11&#45;&gt;Node3</title>
<g id="a_edge20_Node000011_Node000003"><a xlink:title=" ">
<path fill="none" stroke="#63b8ff" d="M1050.64,-240.38C904.35,-237.65 227.72,-223.59 193.38,-196.25 160.02,-169.7 155.35,-115.42 155.46,-85.97"/>
<polygon fill="#63b8ff" stroke="#63b8ff" points="158.96,-86.29 155.71,-76.21 151.96,-86.11 158.96,-86.29"/>
</a>
</g>
</g>
<!-- Node12 -->
<g id="Node000012" class="node">
<title>Node12</title>
<g id="a_Node000012"><a xlink:title=" ">
<polygon fill="#e0e0e0" stroke="#999999" points="1206.25,-190.62 1150.5,-190.62 1150.5,-171.38 1206.25,-171.38 1206.25,-190.62"/>
<text text-anchor="middle" x="1178.38" y="-177.12" font-family="Helvetica,sans-Serif" font-size="10.00">algorithm</text>
</a>
</g>
</g>
<!-- Node11&#45;&gt;Node12 -->
<g id="edge13_Node000011_Node000012" class="edge">
<title>Node11&#45;&gt;Node12</title>
<g id="a_edge13_Node000011_Node000012"><a xlink:title=" ">
<path fill="none" stroke="#63b8ff" d="M1093.56,-231.93C1109.42,-222.6 1134.56,-207.8 1153.35,-196.73"/>
<polygon fill="#63b8ff" stroke="#63b8ff" points="1154.9,-199.88 1161.74,-191.79 1151.35,-193.85 1154.9,-199.88"/>
</a>
</g>
</g>
<!-- Node13 -->
<g id="Node000013" class="node">
<title>Node13</title>
<g id="a_Node000013"><a xlink:title=" ">
<polygon fill="#e0e0e0" stroke="#999999" points="1270,-190.62 1224.75,-190.62 1224.75,-171.38 1270,-171.38 1270,-190.62"/>
<text text-anchor="middle" x="1247.38" y="-177.12" font-family="Helvetica,sans-Serif" font-size="10.00">chrono</text>
</a>
</g>
</g>
<!-- Node11&#45;&gt;Node13 -->
<g id="edge14_Node000011_Node000013" class="edge">
<title>Node11&#45;&gt;Node13</title>
<g id="a_edge14_Node000011_Node000013"><a xlink:title=" ">
<path fill="none" stroke="#63b8ff" d="M1106.22,-232.73C1134.12,-224.36 1178.13,-210.56 1215.38,-196.25 1216.01,-196 1216.66,-195.75 1217.31,-195.5"/>
<polygon fill="#63b8ff" stroke="#63b8ff" points="1218.61,-198.74 1226.48,-191.65 1215.91,-192.29 1218.61,-198.74"/>
</a>
</g>
</g>
<!-- Node14 -->
<g id="Node000014" class="node">
<title>Node14</title>
<g id="a_Node000014"><a xlink:title=" ">
<polygon fill="#e0e0e0" stroke="#999999" points="1330.88,-190.62 1287.88,-190.62 1287.88,-171.38 1330.88,-171.38 1330.88,-190.62"/>
<text text-anchor="middle" x="1309.38" y="-177.12" font-family="Helvetica,sans-Serif" font-size="10.00">cmath</text>
</a>
</g>
</g>
<!-- Node11&#45;&gt;Node14 -->
<g id="edge15_Node000011_Node000014" class="edge">
<title>Node11&#45;&gt;Node14</title>
<g id="a_edge15_Node000011_Node000014"><a xlink:title=" ">
<path fill="none" stroke="#63b8ff" d="M1106.22,-236.73C1145.53,-230.42 1219.2,-216.93 1279.38,-196.25 1280.02,-196.03 1280.67,-195.79 1281.33,-195.55"/>
<polygon fill="#63b8ff" stroke="#63b8ff" points="1282.63,-198.81 1290.49,-191.7 1279.91,-192.35 1282.63,-198.81"/>
</a>
</g>
</g>
<!-- Node15 -->
<g id="Node000015" class="node">
<title>Node15</title>
<g id="a_Node000015"><a xlink:title=" ">
<polygon fill="#e0e0e0" stroke="#999999" points="1553,-74.5 1507.75,-74.5 1507.75,-55.25 1553,-55.25 1553,-74.5"/>
<text text-anchor="middle" x="1530.38" y="-61" font-family="Helvetica,sans-Serif" font-size="10.00">cstdint</text>
</a>
</g>
</g>
<!-- Node11&#45;&gt;Node15 -->
<g id="edge16_Node000011_Node000015" class="edge">
<title>Node11&#45;&gt;Node15</title>
<g id="a_edge16_Node000011_Node000015"><a xlink:title=" ">
<path fill="none" stroke="#63b8ff" d="M1106.09,-240.76C1212.52,-240.05 1590.83,-234.81 1626.38,-196.25 1652.21,-168.23 1646.87,-142.63 1626.38,-110.5 1612.8,-89.22 1586.17,-77.93 1564.39,-72.04"/>
<polygon fill="#63b8ff" stroke="#63b8ff" points="1565.24,-68.64 1554.69,-69.71 1563.6,-75.45 1565.24,-68.64"/>
</a>
</g>
</g>
<!-- Node16 -->
<g id="Node000016" class="node">
<title>Node16</title>
<g id="a_Node000016"><a xlink:title=" ">
<polygon fill="#e0e0e0" stroke="#999999" points="1389.38,-190.62 1349.38,-190.62 1349.38,-171.38 1389.38,-171.38 1389.38,-190.62"/>
<text text-anchor="middle" x="1369.38" y="-177.12" font-family="Helvetica,sans-Serif" font-size="10.00">ctime</text>
</a>
</g>
</g>
<!-- Node11&#45;&gt;Node16 -->
<g id="edge17_Node000011_Node000016" class="edge">
<title>Node11&#45;&gt;Node16</title>
<g id="a_edge17_Node000011_Node000016"><a xlink:title=" ">
<path fill="none" stroke="#63b8ff" d="M1106.15,-238.78C1154.68,-234.56 1257.62,-223.01 1340.38,-196.25 1341.18,-195.99 1341.98,-195.71 1342.79,-195.42"/>
<polygon fill="#63b8ff" stroke="#63b8ff" points="1343.95,-198.73 1351.76,-191.58 1341.19,-192.3 1343.95,-198.73"/>
</a>
</g>
</g>
<!-- Node17 -->
<g id="Node000017" class="node">
<title>Node17</title>
<g id="a_Node000017"><a xlink:title=" ">
<polygon fill="#e0e0e0" stroke="#999999" points="1457.25,-190.62 1407.5,-190.62 1407.5,-171.38 1457.25,-171.38 1457.25,-190.62"/>
<text text-anchor="middle" x="1432.38" y="-177.12" font-family="Helvetica,sans-Serif" font-size="10.00">iomanip</text>
</a>
</g>
</g>
<!-- Node11&#45;&gt;Node17 -->
<g id="edge18_Node000011_Node000017" class="edge">
<title>Node11&#45;&gt;Node17</title>
<g id="a_edge18_Node000011_Node000017"><a xlink:title=" ">
<path fill="none" stroke="#63b8ff" d="M1106.26,-239.41C1162.44,-235.93 1292.89,-225.18 1398.38,-196.25 1399.76,-195.87 1401.17,-195.45 1402.58,-194.99"/>
<polygon fill="#63b8ff" stroke="#63b8ff" points="1403.69,-198.31 1411.84,-191.55 1401.25,-191.75 1403.69,-198.31"/>
</a>
</g>
</g>
<!-- Node18 -->
<g id="Node000018" class="node">
<title>Node18</title>
<g id="a_Node000018"><a xlink:title=" ">
<polygon fill="#e0e0e0" stroke="#999999" points="254,-190.62 202.75,-190.62 202.75,-171.38 254,-171.38 254,-190.62"/>
<text text-anchor="middle" x="228.38" y="-177.12" font-family="Helvetica,sans-Serif" font-size="10.00">sstream</text>
</a>
</g>
</g>
<!-- Node11&#45;&gt;Node18 -->
<g id="edge19_Node000011_Node000018" class="edge">
<title>Node11&#45;&gt;Node18</title>
<g id="a_edge19_Node000011_Node000018"><a xlink:title=" ">
<path fill="none" stroke="#63b8ff" d="M1050.61,-240.59C926.07,-239.1 418.24,-230.99 263.38,-196.25 261.61,-195.85 259.82,-195.38 258.03,-194.84"/>
<polygon fill="#63b8ff" stroke="#63b8ff" points="259.28,-191.57 248.69,-191.53 256.94,-198.17 259.28,-191.57"/>
</a>
</g>
</g>
<!-- Node19 -->
<g id="Node000019" class="node">
<title>Node19</title>
<g id="a_Node000019"><a xlink:title=" ">
<polygon fill="#e0e0e0" stroke="#999999" points="376.62,-190.62 272.12,-190.62 272.12,-171.38 376.62,-171.38 376.62,-190.62"/>
<text text-anchor="middle" x="324.38" y="-177.12" font-family="Helvetica,sans-Serif" font-size="10.00">boost/date_time.hpp</text>
</a>
</g>
</g>
<!-- Node11&#45;&gt;Node19 -->
<g id="edge21_Node000011_Node000019" class="edge">
<title>Node11&#45;&gt;Node19</title>
<g id="a_edge21_Node000011_Node000019"><a xlink:title=" ">
<path fill="none" stroke="#63b8ff" d="M1050.52,-240.69C956.5,-239.72 642.49,-233.69 386.38,-196.25 381.12,-195.48 375.65,-194.5 370.23,-193.41"/>
<polygon fill="#63b8ff" stroke="#63b8ff" points="371.26,-190.05 360.75,-191.38 369.8,-196.9 371.26,-190.05"/>
</a>
</g>
</g>
<!-- Node20 -->
<g id="Node000020" class="node">
<title>Node20</title>
<g id="a_Node000020"><a xlink:title=" ">
<polygon fill="#e0e0e0" stroke="#999999" points="535.62,-190.62 395.12,-190.62 395.12,-171.38 535.62,-171.38 535.62,-190.62"/>
<text text-anchor="middle" x="465.38" y="-177.12" font-family="Helvetica,sans-Serif" font-size="10.00">boost/endian/conversion.hpp</text>
</a>
</g>
</g>
<!-- Node11&#45;&gt;Node20 -->
<g id="edge22_Node000011_Node000020" class="edge">
<title>Node11&#45;&gt;Node20</title>
<g id="a_edge22_Node000011_Node000020"><a xlink:title=" ">
<path fill="none" stroke="#63b8ff" d="M1050.53,-239.46C971.29,-235.22 737.81,-221.39 545.38,-196.25 538.22,-195.32 530.74,-194.19 523.33,-192.98"/>
<polygon fill="#63b8ff" stroke="#63b8ff" points="524.15,-189.57 513.71,-191.35 522.99,-196.47 524.15,-189.57"/>
</a>
</g>
</g>
<!-- Node21 -->
<g id="Node000021" class="node">
<title>Node21</title>
<g id="a_Node000021"><a xlink:title=" ">
<polygon fill="#e0e0e0" stroke="#999999" points="654.75,-190.62 554,-190.62 554,-171.38 654.75,-171.38 654.75,-190.62"/>
<text text-anchor="middle" x="604.38" y="-177.12" font-family="Helvetica,sans-Serif" font-size="10.00">boost/uuid/uuid.hpp</text>
</a>
</g>
</g>
<!-- Node11&#45;&gt;Node21 -->
<g id="edge23_Node000011_Node000021" class="edge">
<title>Node11&#45;&gt;Node21</title>
<g id="a_edge23_Node000011_Node000021"><a xlink:title=" ">
<path fill="none" stroke="#63b8ff" d="M1050.52,-239.13C983.47,-234.67 807.95,-221.37 663.38,-196.25 659,-195.49 654.47,-194.59 649.96,-193.63"/>
<polygon fill="#63b8ff" stroke="#63b8ff" points="650.85,-190.24 640.32,-191.45 649.31,-197.07 650.85,-190.24"/>
</a>
</g>
</g>
<!-- Node22 -->
<g id="Node000022" class="node">
<title>Node22</title>
<g id="a_Node000022"><a xlink:title=" ">
<polygon fill="#e0e0e0" stroke="#999999" points="824.25,-190.62 672.5,-190.62 672.5,-171.38 824.25,-171.38 824.25,-190.62"/>
<text text-anchor="middle" x="748.38" y="-177.12" font-family="Helvetica,sans-Serif" font-size="10.00">boost/uuid/uuid_generators.hpp</text>
</a>
</g>
</g>
<!-- Node11&#45;&gt;Node22 -->
<g id="edge24_Node000011_Node000022" class="edge">
<title>Node11&#45;&gt;Node22</title>
<g id="a_edge24_Node000011_Node000022"><a xlink:title=" ">
<path fill="none" stroke="#63b8ff" d="M1050.52,-235.91C997.87,-226.51 882.56,-205.94 810.59,-193.1"/>
<polygon fill="#63b8ff" stroke="#63b8ff" points="811.38,-189.69 800.92,-191.37 810.15,-196.58 811.38,-189.69"/>
</a>
</g>
</g>
<!-- Node23 -->
<g id="Node000023" class="node">
<title>Node23</title>
<g id="a_Node000023"><a xlink:title=" ">
<polygon fill="#e0e0e0" stroke="#999999" points="956.12,-190.62 842.62,-190.62 842.62,-171.38 956.12,-171.38 956.12,-190.62"/>
<text text-anchor="middle" x="899.38" y="-177.12" font-family="Helvetica,sans-Serif" font-size="10.00">boost/uuid/uuid_io.hpp</text>
</a>
</g>
</g>
<!-- Node11&#45;&gt;Node23 -->
<g id="edge25_Node000011_Node000023" class="edge">
<title>Node11&#45;&gt;Node23</title>
<g id="a_edge25_Node000011_Node000023"><a xlink:title=" ">
<path fill="none" stroke="#63b8ff" d="M1050.8,-231.8C1020.58,-221.86 971.88,-205.85 937.9,-194.67"/>
<polygon fill="#63b8ff" stroke="#63b8ff" points="939.01,-191.35 928.42,-191.55 936.83,-198 939.01,-191.35"/>
</a>
</g>
</g>
<!-- Node24 -->
<g id="Node000024" class="node">
<title>Node24</title>
<g id="a_Node000024"><a xlink:title=" ">
<polygon fill="#e0e0e0" stroke="#999999" points="1094.12,-196.25 974.62,-196.25 974.62,-165.75 1094.12,-165.75 1094.12,-196.25"/>
<text text-anchor="start" x="982.62" y="-182.75" font-family="Helvetica,sans-Serif" font-size="10.00">boost/date_time/c_local</text>
<text text-anchor="middle" x="1034.38" y="-171.5" font-family="Helvetica,sans-Serif" font-size="10.00">_time_adjustor.hpp</text>
</a>
</g>
</g>
<!-- Node11&#45;&gt;Node24 -->
<g id="edge26_Node000011_Node000024" class="edge">
<title>Node11&#45;&gt;Node24</title>
<g id="a_edge26_Node000011_Node000024"><a xlink:title=" ">
<path fill="none" stroke="#63b8ff" d="M1071.69,-231.93C1066.48,-224.96 1059,-214.95 1052.1,-205.71"/>
<polygon fill="#63b8ff" stroke="#63b8ff" points="1054.93,-203.66 1046.14,-197.74 1049.32,-207.85 1054.93,-203.66"/>
</a>
</g>
</g>
<!-- Node11&#45;&gt;Node25 -->
<g id="edge27_Node000011_Node000025" class="edge">
<title>Node11&#45;&gt;Node25</title>
<g id="a_edge27_Node000011_Node000025"><a xlink:title=" ">
<path fill="none" stroke="#63b8ff" d="M1083.25,-231.78C1092.37,-215.7 1113.63,-182.37 1141.38,-165.75 1191.32,-135.83 1258.3,-125.76 1303.73,-122.49"/>
<polygon fill="#63b8ff" stroke="#63b8ff" points="1303.8,-125.99 1313.56,-121.87 1303.36,-119 1303.8,-125.99"/>
</a>
</g>
</g>
<!-- Node29 -->
<g id="Node000029" class="node">
<title>Node29</title>
<g id="a_Node000029"><a xlink:href="_h_d_f5_i_o_8hpp.html" target="_top" xlink:title=" ">
<polygon fill="white" stroke="#666666" points="1617.25,-190.62 1513.5,-190.62 1513.5,-171.38 1617.25,-171.38 1617.25,-190.62"/>
<text text-anchor="middle" x="1565.38" y="-177.12" font-family="Helvetica,sans-Serif" font-size="10.00">io/hdf5/HDF5IO.hpp</text>
</a>
</g>
</g>
<!-- Node11&#45;&gt;Node29 -->
<g id="edge38_Node000011_Node000029" class="edge">
<title>Node11&#45;&gt;Node29</title>
<g id="a_edge38_Node000011_Node000029"><a xlink:title=" ">
<path fill="none" stroke="#63b8ff" d="M1106.17,-237.95C1169.91,-231.19 1331.55,-213.7 1466.38,-196.25 1477.86,-194.76 1490.08,-193.08 1501.87,-191.41"/>
<polygon fill="#63b8ff" stroke="#63b8ff" points="1502.1,-194.92 1511.51,-190.04 1501.11,-187.99 1502.1,-194.92"/>
</a>
</g>
</g>
<!-- Node25&#45;&gt;Node2 -->
<g id="edge31_Node000025_Node000002" class="edge">
<title>Node25&#45;&gt;Node2</title>
<g id="a_edge31_Node000025_Node000002"><a xlink:title=" ">
<path fill="none" stroke="#63b8ff" d="M1393.73,-115.07C1481.68,-105.96 1690.85,-84.06 1753.43,-74.65"/>
<polygon fill="#63b8ff" stroke="#63b8ff" points="1753.67,-78.16 1762.97,-73.08 1752.54,-71.25 1753.67,-78.16"/>
</a>
</g>
</g>
<!-- Node25&#45;&gt;Node3 -->
<g id="edge32_Node000025_Node000003" class="edge">
<title>Node25&#45;&gt;Node3</title>
<g id="a_edge32_Node000025_Node000003"><a xlink:title=" ">
<path fill="none" stroke="#63b8ff" d="M1314.86,-117.37C1130.31,-109.17 355.28,-74.72 188.2,-67.29"/>
<polygon fill="#63b8ff" stroke="#63b8ff" points="188.48,-63.8 178.33,-66.85 188.17,-70.79 188.48,-63.8"/>
</a>
</g>
</g>
<!-- Node25&#45;&gt;Node6 -->
<g id="edge33_Node000025_Node000006" class="edge">
<title>Node25&#45;&gt;Node6</title>
<g id="a_edge33_Node000025_Node000006"><a xlink:title=" ">
<path fill="none" stroke="#63b8ff" d="M1314.87,-118.6C1161.9,-116.38 593.91,-106.35 127.38,-74.5 116.6,-73.76 105.08,-72.76 94.09,-71.7"/>
<polygon fill="#63b8ff" stroke="#63b8ff" points="94.69,-68.24 84.39,-70.73 93.99,-75.2 94.69,-68.24"/>
</a>
</g>
</g>
<!-- Node25&#45;&gt;Node7 -->
<g id="edge34_Node000025_Node000007" class="edge">
<title>Node25&#45;&gt;Node7</title>
<g id="a_edge34_Node000025_Node000007"><a xlink:title=" ">
<path fill="none" stroke="#63b8ff" d="M1315.06,-115.87C1203.55,-106.65 885.3,-80.34 761,-70.06"/>
<polygon fill="#63b8ff" stroke="#63b8ff" points="761.35,-66.58 751.09,-69.24 760.77,-73.55 761.35,-66.58"/>
</a>
</g>
</g>
<!-- Node25&#45;&gt;Node8 -->
<g id="edge37_Node000025_Node000008" class="edge">
<title>Node25&#45;&gt;Node8</title>
<g id="a_edge37_Node000025_Node000008"><a xlink:title=" ">
<path fill="none" stroke="#63b8ff" d="M1393.68,-114.64C1452.47,-107.72 1567.02,-93.43 1674.38,-74.73"/>
<polygon fill="#63b8ff" stroke="#63b8ff" points="1674.68,-78.23 1683.92,-73.05 1673.47,-71.34 1674.68,-78.23"/>
</a>
</g>
</g>
<!-- Node25&#45;&gt;Node10 -->
<g id="edge35_Node000025_Node000010" class="edge">
<title>Node25&#45;&gt;Node10</title>
<g id="a_edge35_Node000025_Node000010"><a xlink:title=" ">
<path fill="none" stroke="#63b8ff" d="M1314.87,-110.44C1276.62,-100.27 1227.5,-81.41 1250.38,-55.25 1288.87,-11.22 1472.19,-8.87 1548.22,-9.85"/>
<polygon fill="#63b8ff" stroke="#63b8ff" points="1547.9,-13.35 1557.95,-10.01 1548.01,-6.35 1547.9,-13.35"/>
</a>
</g>
</g>
<!-- Node25&#45;&gt;Node15 -->
<g id="edge29_Node000025_Node000015" class="edge">
<title>Node25&#45;&gt;Node15</title>
<g id="a_edge29_Node000025_Node000015"><a xlink:title=" ">
<path fill="none" stroke="#63b8ff" d="M1384.23,-110.09C1415.38,-100.67 1464.11,-85.93 1496.63,-76.09"/>
<polygon fill="#63b8ff" stroke="#63b8ff" points="1497.39,-79.51 1505.95,-73.27 1495.36,-72.81 1497.39,-79.51"/>
</a>
</g>
</g>
<!-- Node26 -->
<g id="Node000026" class="node">
<title>Node26</title>
<g id="a_Node000026"><a xlink:title=" ">
<polygon fill="#e0e0e0" stroke="#999999" points="1489.25,-74.5 1457.5,-74.5 1457.5,-55.25 1489.25,-55.25 1489.25,-74.5"/>
<text text-anchor="middle" x="1473.38" y="-61" font-family="Helvetica,sans-Serif" font-size="10.00">any</text>
</a>
</g>
</g>
<!-- Node25&#45;&gt;Node26 -->
<g id="edge28_Node000025_Node000026" class="edge">
<title>Node25&#45;&gt;Node26</title>
<g id="a_edge28_Node000025_Node000026"><a xlink:title=" ">
<path fill="none" stroke="#63b8ff" d="M1374.56,-110.09C1394.53,-101.16 1425.19,-87.44 1447.06,-77.65"/>
<polygon fill="#63b8ff" stroke="#63b8ff" points="1448.22,-80.97 1455.91,-73.69 1445.36,-74.58 1448.22,-80.97"/>
</a>
</g>
</g>
<!-- Node27 -->
<g id="Node000027" class="node">
<title>Node27</title>
<g id="a_Node000027"><a xlink:title=" ">
<polygon fill="#e0e0e0" stroke="#999999" points="1439.12,-74.5 1385.62,-74.5 1385.62,-55.25 1439.12,-55.25 1439.12,-74.5"/>
<text text-anchor="middle" x="1412.38" y="-61" font-family="Helvetica,sans-Serif" font-size="10.00">iostream</text>
</a>
</g>
</g>
<!-- Node25&#45;&gt;Node27 -->
<g id="edge30_Node000025_Node000027" class="edge">
<title>Node25&#45;&gt;Node27</title>
<g id="a_edge30_Node000025_Node000027"><a xlink:title=" ">
<path fill="none" stroke="#63b8ff" d="M1364.21,-110.09C1372.43,-102.55 1384.36,-91.6 1394.29,-82.48"/>
<polygon fill="#63b8ff" stroke="#63b8ff" points="1396.57,-85.14 1401.57,-75.8 1391.83,-79.98 1396.57,-85.14"/>
</a>
</g>
</g>
<!-- Node28 -->
<g id="Node000028" class="node">
<title>Node28</title>
<g id="a_Node000028"><a xlink:title=" ">
<polygon fill="#e0e0e0" stroke="#999999" points="1367.5,-74.5 1259.25,-74.5 1259.25,-55.25 1367.5,-55.25 1367.5,-74.5"/>
<text text-anchor="middle" x="1313.38" y="-61" font-family="Helvetica,sans-Serif" font-size="10.00">boost/multi_array.hpp</text>
</a>
</g>
</g>
<!-- Node25&#45;&gt;Node28 -->
<g id="edge36_Node000025_Node000028" class="edge">
<title>Node25&#45;&gt;Node28</title>
<g id="a_edge36_Node000025_Node000028"><a xlink:title=" ">
<path fill="none" stroke="#63b8ff" d="M1347.6,-110.33C1342.06,-103.13 1334.03,-92.71 1327.15,-83.76"/>
<polygon fill="#63b8ff" stroke="#63b8ff" points="1330.09,-81.85 1321.22,-76.06 1324.54,-86.12 1330.09,-81.85"/>
</a>
</g>
</g>
<!-- Node29&#45;&gt;Node2 -->
<g id="edge40_Node000029_Node000002" class="edge">
<title>Node29&#45;&gt;Node2</title>
<g id="a_edge40_Node000029_Node000002"><a xlink:title=" ">
<path fill="none" stroke="#63b8ff" d="M1583.03,-171.04C1621.96,-151.3 1715.41,-103.9 1762.4,-80.06"/>
<polygon fill="#63b8ff" stroke="#63b8ff" points="1763.81,-83.28 1771.14,-75.63 1760.64,-77.03 1763.81,-83.28"/>
</a>
</g>
</g>
<!-- Node29&#45;&gt;Node3 -->
<g id="edge41_Node000029_Node000003" class="edge">
<title>Node29&#45;&gt;Node3</title>
<g id="a_edge41_Node000029_Node000003"><a xlink:title=" ">
<path fill="none" stroke="#63b8ff" d="M1513.05,-171.8C1498.01,-169.63 1481.56,-167.42 1466.38,-165.75 957.51,-109.79 333.99,-75.19 187.99,-67.5"/>
<polygon fill="#63b8ff" stroke="#63b8ff" points="188.51,-64.03 178.34,-67 188.14,-71.02 188.51,-64.03"/>
</a>
</g>
</g>
<!-- Node29&#45;&gt;Node8 -->
<g id="edge43_Node000029_Node000008" class="edge">
<title>Node29&#45;&gt;Node8</title>
<g id="a_edge43_Node000029_Node000008"><a xlink:title=" ">
<path fill="none" stroke="#63b8ff" d="M1577.22,-171.04C1602.8,-151.71 1663.48,-105.85 1695.6,-81.58"/>
<polygon fill="#63b8ff" stroke="#63b8ff" points="1697.51,-84.52 1703.37,-75.7 1693.29,-78.94 1697.51,-84.52"/>
</a>
</g>
</g>
<!-- Node29&#45;&gt;Node25 -->
<g id="edge44_Node000029_Node000025" class="edge">
<title>Node29&#45;&gt;Node25</title>
<g id="a_edge44_Node000029_Node000025"><a xlink:title=" ">
<path fill="none" stroke="#63b8ff" d="M1532.87,-170.93C1496.7,-160.84 1438.09,-144.48 1397.97,-133.29"/>
<polygon fill="#63b8ff" stroke="#63b8ff" points="1398.95,-129.93 1388.38,-130.61 1397.07,-136.67 1398.95,-129.93"/>
</a>
</g>
</g>
<!-- Node29&#45;&gt;Node27 -->
<g id="edge39_Node000029_Node000027" class="edge">
<title>Node29&#45;&gt;Node27</title>
<g id="a_edge39_Node000029_Node000027"><a xlink:title=" ">
<path fill="none" stroke="#63b8ff" d="M1520.51,-170.93C1494.34,-163.64 1462.29,-151 1440.38,-129.75 1428.14,-117.89 1420.89,-99.76 1416.85,-85.84"/>
<polygon fill="#63b8ff" stroke="#63b8ff" points="1420.31,-85.25 1414.45,-76.42 1413.53,-86.98 1420.31,-85.25"/>
</a>
</g>
</g>
<!-- Node30 -->
<g id="Node000030" class="node">
<title>Node30</title>
<g id="a_Node000030"><a xlink:title=" ">
<polygon fill="#e0e0e0" stroke="#999999" points="1519.38,-129.75 1449.38,-129.75 1449.38,-110.5 1519.38,-110.5 1519.38,-129.75"/>
<text text-anchor="middle" x="1484.38" y="-116.25" font-family="Helvetica,sans-Serif" font-size="10.00">H5Opublic.h</text>
</a>
</g>
</g>
<!-- Node29&#45;&gt;Node30 -->
<g id="edge42_Node000029_Node000030" class="edge">
<title>Node29&#45;&gt;Node30</title>
<g id="a_edge42_Node000029_Node000030"><a xlink:title=" ">
<path fill="none" stroke="#63b8ff" d="M1553.07,-171.06C1540.58,-161.98 1520.99,-147.74 1505.92,-136.79"/>
<polygon fill="#63b8ff" stroke="#63b8ff" points="1508.16,-134.09 1498.02,-131.04 1504.05,-139.75 1508.16,-134.09"/>
</a>
</g>
</g>
<!-- Node29&#45;&gt;Node31 -->
<g id="edge45_Node000029_Node000031" class="edge">
<title>Node29&#45;&gt;Node31</title>
<g id="a_edge45_Node000029_Node000031"><a xlink:title=" ">
<path fill="none" stroke="#63b8ff" d="M1567.2,-171.06C1568.8,-163.19 1571.19,-151.45 1573.26,-141.32"/>
<polygon fill="#63b8ff" stroke="#63b8ff" points="1576.67,-142.13 1575.23,-131.63 1569.81,-140.73 1576.67,-142.13"/>
</a>
</g>
</g>
<!-- Node31&#45;&gt;Node2 -->
<g id="edge49_Node000031_Node000002" class="edge">
<title>Node31&#45;&gt;Node2</title>
<g id="a_edge49_Node000031_Node000002"><a xlink:title=" ">
<path fill="none" stroke="#63b8ff" d="M1614.07,-110.02C1647.93,-101.62 1699.9,-88.68 1753.33,-75.26"/>
<polygon fill="#63b8ff" stroke="#63b8ff" points="1754.08,-78.68 1762.92,-72.85 1752.37,-71.89 1754.08,-78.68"/>
</a>
</g>
</g>
<!-- Node31&#45;&gt;Node3 -->
<g id="edge50_Node000031_Node000003" class="edge">
<title>Node31&#45;&gt;Node3</title>
<g id="a_edge50_Node000031_Node000003"><a xlink:title=" ">
<path fill="none" stroke="#63b8ff" d="M1537.6,-111.64C1534.48,-111.2 1531.38,-110.81 1528.38,-110.5 1255.95,-82.24 366.69,-68.75 187.87,-66.29"/>
<polygon fill="#63b8ff" stroke="#63b8ff" points="188.02,-62.79 177.97,-66.16 187.92,-69.79 188.02,-62.79"/>
</a>
</g>
</g>
<!-- Node31&#45;&gt;Node8 -->
<g id="edge54_Node000031_Node000008" class="edge">
<title>Node31&#45;&gt;Node8</title>
<g id="a_edge54_Node000031_Node000008"><a xlink:title=" ">
<path fill="none" stroke="#63b8ff" d="M1600.95,-110.09C1623.22,-101.56 1656.87,-88.67 1682.1,-79.01"/>
<polygon fill="#63b8ff" stroke="#63b8ff" points="1683.18,-82.34 1691.27,-75.49 1680.68,-75.8 1683.18,-82.34"/>
</a>
</g>
</g>
<!-- Node31&#45;&gt;Node10 -->
<g id="edge52_Node000031_Node000010" class="edge">
<title>Node31&#45;&gt;Node10</title>
<g id="a_edge52_Node000031_Node000010"><a xlink:title=" ">
<path fill="none" stroke="#63b8ff" d="M1577.7,-110.25C1578.34,-93 1579.75,-54.58 1580.63,-30.81"/>
<polygon fill="#63b8ff" stroke="#63b8ff" points="1584.12,-31.26 1580.99,-21.14 1577.12,-31 1584.12,-31.26"/>
</a>
</g>
</g>
<!-- Node31&#45;&gt;Node15 -->
<g id="edge47_Node000031_Node000015" class="edge">
<title>Node31&#45;&gt;Node15</title>
<g id="a_edge47_Node000031_Node000015"><a xlink:title=" ">
<path fill="none" stroke="#63b8ff" d="M1569.61,-110.33C1563.19,-103.05 1553.86,-92.48 1545.91,-83.48"/>
<polygon fill="#63b8ff" stroke="#63b8ff" points="1548.55,-81.18 1539.31,-75.99 1543.3,-85.81 1548.55,-81.18"/>
</a>
</g>
</g>
<!-- Node31&#45;&gt;Node26 -->
<g id="edge46_Node000031_Node000026" class="edge">
<title>Node31&#45;&gt;Node26</title>
<g id="a_edge46_Node000031_Node000026"><a xlink:title=" ">
<path fill="none" stroke="#63b8ff" d="M1559.73,-110.09C1543.28,-101.67 1518.53,-88.99 1499.73,-79.37"/>
<polygon fill="#63b8ff" stroke="#63b8ff" points="1501.57,-76.38 1491.08,-74.94 1498.38,-82.61 1501.57,-76.38"/>
</a>
</g>
</g>
<!-- Node31&#45;&gt;Node27 -->
<g id="edge48_Node000031_Node000027" class="edge">
<title>Node31&#45;&gt;Node27</title>
<g id="a_edge48_Node000031_Node000027"><a xlink:title=" ">
<path fill="none" stroke="#63b8ff" d="M1549.38,-110.09C1522.03,-101.27 1480.22,-87.77 1449.97,-78.01"/>
<polygon fill="#63b8ff" stroke="#63b8ff" points="1451.44,-74.8 1440.85,-75.06 1449.29,-81.47 1451.44,-74.8"/>
</a>
</g>
</g>
<!-- Node31&#45;&gt;Node28 -->
<g id="edge53_Node000031_Node000028" class="edge">
<title>Node31&#45;&gt;Node28</title>
<g id="a_edge53_Node000031_Node000028"><a xlink:title=" ">
<path fill="none" stroke="#63b8ff" d="M1537.57,-111.1C1492.84,-102.07 1419.9,-87.36 1369.43,-77.18"/>
<polygon fill="#63b8ff" stroke="#63b8ff" points="1370.36,-73.8 1359.86,-75.25 1368.97,-80.66 1370.36,-73.8"/>
</a>
</g>
</g>
<!-- Node32 -->
<g id="Node000032" class="node">
<title>Node32</title>
<g id="a_Node000032"><a xlink:title=" ">
<polygon fill="#e0e0e0" stroke="#999999" points="1667.38,-74.5 1609.38,-74.5 1609.38,-55.25 1667.38,-55.25 1667.38,-74.5"/>
<text text-anchor="middle" x="1638.38" y="-61" font-family="Helvetica,sans-Serif" font-size="10.00">typeindex</text>
</a>
</g>
</g>
<!-- Node31&#45;&gt;Node32 -->
<g id="edge51_Node000031_Node000032" class="edge">
<title>Node31&#45;&gt;Node32</title>
<g id="a_edge51_Node000031_Node000032"><a xlink:title=" ">
<path fill="none" stroke="#63b8ff" d="M1587.72,-110.09C1596.45,-102.47 1609.16,-91.37 1619.67,-82.2"/>
<polygon fill="#63b8ff" stroke="#63b8ff" points="1621.81,-84.98 1627.04,-75.77 1617.2,-79.71 1621.81,-84.98"/>
</a>
</g>
</g>
</g>
</svg>
