<?xml version="1.0" encoding="UTF-8" standalone="no"?>
<!DOCTYPE svg PUBLIC "-//W3C//DTD SVG 1.1//EN"
 "http://www.w3.org/Graphics/SVG/1.1/DTD/svg11.dtd">
<!-- Generated by graphviz version 13.1.0 (20250701.0955)
 -->
<!-- Title: src/nwb/hdmf/base/Container.hpp Pages: 1 -->
<svg width="2203pt" height="425pt"
 viewBox="0.00 0.00 2203.00 425.00" xmlns="http://www.w3.org/2000/svg" xmlns:xlink="http://www.w3.org/1999/xlink">
<g id="graph0" class="graph" transform="scale(1 1) rotate(0) translate(4 421.25)">
<title>src/nwb/hdmf/base/Container.hpp</title>
<!-- Node1 -->
<g id="Node000001" class="node">
<title>Node1</title>
<g id="a_Node000001"><a xlink:title=" ">
<polygon fill="#999999" stroke="#666666" points="534.75,-417.25 372.5,-417.25 372.5,-398 534.75,-398 534.75,-417.25"/>
<text xml:space="preserve" text-anchor="middle" x="453.62" y="-403.75" font-family="Helvetica,sans-Serif" font-size="10.00">src/nwb/hdmf/base/Container.hpp</text>
</a>
</g>
</g>
<!-- Node2 -->
<g id="Node000002" class="node">
<title>Node2</title>
<g id="a_Node000002"><a xlink:title=" ">
<polygon fill="#e0e0e0" stroke="#999999" points="1960.25,-74.5 1909,-74.5 1909,-55.25 1960.25,-55.25 1960.25,-74.5"/>
<text xml:space="preserve" text-anchor="middle" x="1934.62" y="-61" font-family="Helvetica,sans-Serif" font-size="10.00">memory</text>
</a>
</g>
</g>
<!-- Node1&#45;&gt;Node2 -->
<g id="edge1_Node000001_Node000002" class="edge">
<title>Node1&#45;&gt;Node2</title>
<g id="a_edge1_Node000001_Node000002"><a xlink:title=" ">
<path fill="none" stroke="#63b8ff" d="M535.05,-404.69C863.85,-396.51 2078.97,-362.61 2137.62,-306.75 2184.46,-262.15 2146.44,-212.38 2101.62,-165.75 2074.88,-137.92 2067.44,-130.83 2034.62,-110.5 2014.4,-97.97 1990.05,-87.03 1970.45,-79.11"/>
<polygon fill="#63b8ff" stroke="#63b8ff" points="1971.81,-75.89 1961.22,-75.48 1969.24,-82.4 1971.81,-75.89"/>
</a>
</g>
</g>
<!-- Node3 -->
<g id="Node000003" class="node">
<title>Node3</title>
<g id="a_Node000003"><a xlink:title=" ">
<polygon fill="#e0e0e0" stroke="#999999" points="513.62,-74.5 473.62,-74.5 473.62,-55.25 513.62,-55.25 513.62,-74.5"/>
<text xml:space="preserve" text-anchor="middle" x="493.62" y="-61" font-family="Helvetica,sans-Serif" font-size="10.00">string</text>
</a>
</g>
</g>
<!-- Node1&#45;&gt;Node3 -->
<g id="edge2_Node000001_Node000003" class="edge">
<title>Node1&#45;&gt;Node3</title>
<g id="a_edge2_Node000001_Node000003"><a xlink:title=" ">
<path fill="none" stroke="#63b8ff" d="M437.08,-397.69C409.86,-381.65 358.62,-345.19 358.62,-298.12 358.62,-298.12 358.62,-298.12 358.62,-174.38 358.62,-121.31 422.79,-89.84 462.65,-75.41"/>
<polygon fill="#63b8ff" stroke="#63b8ff" points="463.66,-78.77 471.98,-72.21 461.39,-72.15 463.66,-78.77"/>
</a>
</g>
</g>
<!-- Node4 -->
<g id="Node000004" class="node">
<title>Node4</title>
<g id="a_Node000004"><a xlink:href="_registered_type_8hpp.html" target="_top" xlink:title=" ">
<polygon fill="white" stroke="#666666" points="610.62,-362 486.62,-362 486.62,-342.75 610.62,-342.75 610.62,-362"/>
<text xml:space="preserve" text-anchor="middle" x="548.62" y="-348.5" font-family="Helvetica,sans-Serif" font-size="10.00">nwb/RegisteredType.hpp</text>
</a>
</g>
</g>
<!-- Node1&#45;&gt;Node4 -->
<g id="edge3_Node000001_Node000004" class="edge">
<title>Node1&#45;&gt;Node4</title>
<g id="a_edge3_Node000001_Node000004"><a xlink:title=" ">
<path fill="none" stroke="#63b8ff" d="M469.74,-397.59C484.21,-389.48 505.7,-377.43 522.61,-367.96"/>
<polygon fill="#63b8ff" stroke="#63b8ff" points="524.1,-371.14 531.11,-363.19 520.68,-365.03 524.1,-371.14"/>
</a>
</g>
</g>
<!-- Node36 -->
<g id="Node000036" class="node">
<title>Node36</title>
<g id="a_Node000036"><a xlink:href="hdmf__common_8hpp.html" target="_top" xlink:title=" ">
<polygon fill="white" stroke="#666666" points="123.25,-185 0,-185 0,-165.75 123.25,-165.75 123.25,-185"/>
<text xml:space="preserve" text-anchor="middle" x="61.62" y="-171.5" font-family="Helvetica,sans-Serif" font-size="10.00">spec/hdmf_common.hpp</text>
</a>
</g>
</g>
<!-- Node1&#45;&gt;Node36 -->
<g id="edge62_Node000001_Node000036" class="edge">
<title>Node1&#45;&gt;Node36</title>
<g id="a_edge62_Node000001_Node000036"><a xlink:title=" ">
<path fill="none" stroke="#63b8ff" d="M373.02,-397.56C304.2,-386.26 205.81,-361.28 137.62,-306.75 100.74,-277.26 78.12,-224.66 67.96,-196.12"/>
<polygon fill="#63b8ff" stroke="#63b8ff" points="71.37,-195.28 64.85,-186.93 64.74,-197.52 71.37,-195.28"/>
</a>
</g>
</g>
<!-- Node4&#45;&gt;Node2 -->
<g id="edge6_Node000004_Node000002" class="edge">
<title>Node4&#45;&gt;Node2</title>
<g id="a_edge6_Node000004_Node000002"><a xlink:title=" ">
<path fill="none" stroke="#63b8ff" d="M610.86,-350.78C898.92,-347.87 2089.93,-334.21 2116.62,-306.75 2192.22,-228.97 2026.69,-119.55 1960.45,-80.46"/>
<polygon fill="#63b8ff" stroke="#63b8ff" points="1962.44,-77.57 1952.04,-75.57 1958.92,-83.62 1962.44,-77.57"/>
</a>
</g>
</g>
<!-- Node4&#45;&gt;Node3 -->
<g id="edge7_Node000004_Node000003" class="edge">
<title>Node4&#45;&gt;Node3</title>
<g id="a_edge7_Node000004_Node000003"><a xlink:title=" ">
<path fill="none" stroke="#63b8ff" d="M516.44,-342.27C497.28,-335.36 473.83,-324.03 458.62,-306.75 437.04,-282.21 434.62,-269.93 434.62,-237.25 434.62,-237.25 434.62,-237.25 434.62,-174.38 434.62,-138.65 459.62,-103.47 477.07,-83.26"/>
<polygon fill="#63b8ff" stroke="#63b8ff" points="479.55,-85.73 483.65,-75.96 474.35,-81.04 479.55,-85.73"/>
</a>
</g>
</g>
<!-- Node5 -->
<g id="Node000005" class="node">
<title>Node5</title>
<g id="a_Node000005"><a xlink:title=" ">
<polygon fill="#e0e0e0" stroke="#999999" points="2087.12,-306.75 2026.12,-306.75 2026.12,-287.5 2087.12,-287.5 2087.12,-306.75"/>
<text xml:space="preserve" text-anchor="middle" x="2056.62" y="-293.25" font-family="Helvetica,sans-Serif" font-size="10.00">filesystem</text>
</a>
</g>
</g>
<!-- Node4&#45;&gt;Node5 -->
<g id="edge4_Node000004_Node000005" class="edge">
<title>Node4&#45;&gt;Node5</title>
<g id="a_edge4_Node000004_Node000005"><a xlink:title=" ">
<path fill="none" stroke="#63b8ff" d="M610.8,-350.8C853.02,-348.33 1733.79,-337.42 2011.62,-306.75 2012.63,-306.64 2013.64,-306.52 2014.66,-306.39"/>
<polygon fill="#63b8ff" stroke="#63b8ff" points="2014.88,-309.9 2024.24,-304.94 2013.83,-302.97 2014.88,-309.9"/>
</a>
</g>
</g>
<!-- Node6 -->
<g id="Node000006" class="node">
<title>Node6</title>
<g id="a_Node000006"><a xlink:title=" ">
<polygon fill="#e0e0e0" stroke="#999999" points="239.62,-74.5 181.62,-74.5 181.62,-55.25 239.62,-55.25 239.62,-74.5"/>
<text xml:space="preserve" text-anchor="middle" x="210.62" y="-61" font-family="Helvetica,sans-Serif" font-size="10.00">functional</text>
</a>
</g>
</g>
<!-- Node4&#45;&gt;Node6 -->
<g id="edge5_Node000004_Node000006" class="edge">
<title>Node4&#45;&gt;Node6</title>
<g id="a_edge5_Node000004_Node000006"><a xlink:title=" ">
<path fill="none" stroke="#63b8ff" d="M498.07,-342.27C405.69,-322.52 212.3,-266.08 137.62,-129.75 125.93,-108.39 150.74,-90.78 174.54,-79.5"/>
<polygon fill="#63b8ff" stroke="#63b8ff" points="175.8,-82.77 183.54,-75.53 172.98,-76.37 175.8,-82.77"/>
</a>
</g>
</g>
<!-- Node7 -->
<g id="Node000007" class="node">
<title>Node7</title>
<g id="a_Node000007"><a xlink:title=" ">
<polygon fill="#e0e0e0" stroke="#999999" points="438,-74.5 355.25,-74.5 355.25,-55.25 438,-55.25 438,-74.5"/>
<text xml:space="preserve" text-anchor="middle" x="396.62" y="-61" font-family="Helvetica,sans-Serif" font-size="10.00">unordered_map</text>
</a>
</g>
</g>
<!-- Node4&#45;&gt;Node7 -->
<g id="edge8_Node000004_Node000007" class="edge">
<title>Node4&#45;&gt;Node7</title>
<g id="a_edge8_Node000004_Node000007"><a xlink:title=" ">
<path fill="none" stroke="#63b8ff" d="M514.51,-342.29C469.7,-328.04 396.62,-295.82 396.62,-237.25 396.62,-237.25 396.62,-237.25 396.62,-174.38 396.62,-143.66 396.62,-108.05 396.62,-86.24"/>
<polygon fill="#63b8ff" stroke="#63b8ff" points="400.13,-86.39 396.63,-76.39 393.13,-86.39 400.13,-86.39"/>
</a>
</g>
</g>
<!-- Node8 -->
<g id="Node000008" class="node">
<title>Node8</title>
<g id="a_Node000008"><a xlink:title=" ">
<polygon fill="#e0e0e0" stroke="#999999" points="1114.38,-74.5 1036.88,-74.5 1036.88,-55.25 1114.38,-55.25 1114.38,-74.5"/>
<text xml:space="preserve" text-anchor="middle" x="1075.62" y="-61" font-family="Helvetica,sans-Serif" font-size="10.00">unordered_set</text>
</a>
</g>
</g>
<!-- Node4&#45;&gt;Node8 -->
<g id="edge9_Node000004_Node000008" class="edge">
<title>Node4&#45;&gt;Node8</title>
<g id="a_edge9_Node000004_Node000008"><a xlink:title=" ">
<path fill="none" stroke="#63b8ff" d="M547,-342.49C543.33,-319.38 536.93,-256.75 567.62,-221 628.31,-150.33 909.58,-94.59 1025.49,-74.23"/>
<polygon fill="#63b8ff" stroke="#63b8ff" points="1025.76,-77.74 1035.01,-72.57 1024.56,-70.84 1025.76,-77.74"/>
</a>
</g>
</g>
<!-- Node9 -->
<g id="Node000009" class="node">
<title>Node9</title>
<g id="a_Node000009"><a xlink:href="_types_8hpp.html" target="_top" xlink:title=" ">
<polygon fill="white" stroke="#666666" points="655.12,-74.5 594.12,-74.5 594.12,-55.25 655.12,-55.25 655.12,-74.5"/>
<text xml:space="preserve" text-anchor="middle" x="624.62" y="-61" font-family="Helvetica,sans-Serif" font-size="10.00">Types.hpp</text>
</a>
</g>
</g>
<!-- Node4&#45;&gt;Node9 -->
<g id="edge10_Node000004_Node000009" class="edge">
<title>Node4&#45;&gt;Node9</title>
<g id="a_edge10_Node000004_Node000009"><a xlink:title=" ">
<path fill="none" stroke="#63b8ff" d="M537.08,-342.39C515.82,-324.73 472.62,-283.19 472.62,-237.25 472.62,-237.25 472.62,-237.25 472.62,-174.38 472.62,-119.98 537.92,-90.28 582.91,-76.27"/>
<polygon fill="#63b8ff" stroke="#63b8ff" points="583.81,-79.65 592.41,-73.47 581.83,-72.94 583.81,-79.65"/>
</a>
</g>
</g>
<!-- Node12 -->
<g id="Node000012" class="node">
<title>Node12</title>
<g id="a_Node000012"><a xlink:href="_utils_8hpp.html" target="_top" xlink:title=" ">
<polygon fill="white" stroke="#666666" points="1351.12,-306.75 1296.12,-306.75 1296.12,-287.5 1351.12,-287.5 1351.12,-306.75"/>
<text xml:space="preserve" text-anchor="middle" x="1323.62" y="-293.25" font-family="Helvetica,sans-Serif" font-size="10.00">Utils.hpp</text>
</a>
</g>
</g>
<!-- Node4&#45;&gt;Node12 -->
<g id="edge13_Node000004_Node000012" class="edge">
<title>Node4&#45;&gt;Node12</title>
<g id="a_edge13_Node000004_Node000012"><a xlink:title=" ">
<path fill="none" stroke="#63b8ff" d="M611.06,-347.08C764.94,-336.51 1158.97,-309.44 1284.55,-300.81"/>
<polygon fill="#63b8ff" stroke="#63b8ff" points="1284.6,-304.31 1294.34,-300.14 1284.12,-297.33 1284.6,-304.31"/>
</a>
</g>
</g>
<!-- Node27 -->
<g id="Node000027" class="node">
<title>Node27</title>
<g id="a_Node000027"><a xlink:href="_base_i_o_8hpp.html" target="_top" xlink:title=" ">
<polygon fill="white" stroke="#666666" points="1654.75,-129.75 1576.5,-129.75 1576.5,-110.5 1654.75,-110.5 1654.75,-129.75"/>
<text xml:space="preserve" text-anchor="middle" x="1615.62" y="-116.25" font-family="Helvetica,sans-Serif" font-size="10.00">io/BaseIO.hpp</text>
</a>
</g>
</g>
<!-- Node4&#45;&gt;Node27 -->
<g id="edge60_Node000004_Node000027" class="edge">
<title>Node4&#45;&gt;Node27</title>
<g id="a_edge60_Node000004_Node000027"><a xlink:title=" ">
<path fill="none" stroke="#63b8ff" d="M610.97,-349.52C885.14,-341.04 1972.15,-304.2 2020.62,-251.5 2073.84,-193.64 2036.15,-243.73 1802.62,-185 1747.75,-171.2 1685.96,-148.67 1648.95,-134.38"/>
<polygon fill="#63b8ff" stroke="#63b8ff" points="1650.29,-131.15 1639.7,-130.78 1647.75,-137.67 1650.29,-131.15"/>
</a>
</g>
</g>
<!-- Node35 -->
<g id="Node000035" class="node">
<title>Node35</title>
<g id="a_Node000035"><a xlink:href="_read_i_o_8hpp.html" target="_top" xlink:title=" ">
<polygon fill="white" stroke="#666666" points="1890.12,-185 1811.12,-185 1811.12,-165.75 1890.12,-165.75 1890.12,-185"/>
<text xml:space="preserve" text-anchor="middle" x="1850.62" y="-171.5" font-family="Helvetica,sans-Serif" font-size="10.00">io/ReadIO.hpp</text>
</a>
</g>
</g>
<!-- Node4&#45;&gt;Node35 -->
<g id="edge61_Node000004_Node000035" class="edge">
<title>Node4&#45;&gt;Node35</title>
<g id="a_edge61_Node000004_Node000035"><a xlink:title=" ">
<path fill="none" stroke="#63b8ff" d="M611.02,-350.75C897.06,-347.76 2070.31,-333.84 2096.62,-306.75 2124.49,-278.07 2106.28,-257.54 2053.62,-221 2008.58,-189.75 1945.51,-179.87 1901.67,-177.01"/>
<polygon fill="#63b8ff" stroke="#63b8ff" points="1902.09,-173.53 1891.91,-176.48 1901.71,-180.52 1902.09,-173.53"/>
</a>
</g>
</g>
<!-- Node10 -->
<g id="Node000010" class="node">
<title>Node10</title>
<g id="a_Node000010"><a xlink:title=" ">
<polygon fill="#e0e0e0" stroke="#999999" points="616.75,-19.25 568.5,-19.25 568.5,0 616.75,0 616.75,-19.25"/>
<text xml:space="preserve" text-anchor="middle" x="592.62" y="-5.75" font-family="Helvetica,sans-Serif" font-size="10.00">cstddef</text>
</a>
</g>
</g>
<!-- Node9&#45;&gt;Node10 -->
<g id="edge11_Node000009_Node000010" class="edge">
<title>Node9&#45;&gt;Node10</title>
<g id="a_edge11_Node000009_Node000010"><a xlink:title=" ">
<path fill="none" stroke="#63b8ff" d="M619.34,-55.08C615.15,-48.11 609.15,-38.12 603.89,-29.37"/>
<polygon fill="#63b8ff" stroke="#63b8ff" points="606.95,-27.68 598.8,-20.91 600.95,-31.28 606.95,-27.68"/>
</a>
</g>
</g>
<!-- Node11 -->
<g id="Node000011" class="node">
<title>Node11</title>
<g id="a_Node000011"><a xlink:title=" ">
<polygon fill="#e0e0e0" stroke="#999999" points="678.12,-19.25 635.12,-19.25 635.12,0 678.12,0 678.12,-19.25"/>
<text xml:space="preserve" text-anchor="middle" x="656.62" y="-5.75" font-family="Helvetica,sans-Serif" font-size="10.00">vector</text>
</a>
</g>
</g>
<!-- Node9&#45;&gt;Node11 -->
<g id="edge12_Node000009_Node000011" class="edge">
<title>Node9&#45;&gt;Node11</title>
<g id="a_edge12_Node000009_Node000011"><a xlink:title=" ">
<path fill="none" stroke="#63b8ff" d="M629.91,-55.08C634.1,-48.11 640.1,-38.12 645.36,-29.37"/>
<polygon fill="#63b8ff" stroke="#63b8ff" points="648.3,-31.28 650.45,-20.91 642.3,-27.68 648.3,-31.28"/>
</a>
</g>
</g>
<!-- Node12&#45;&gt;Node3 -->
<g id="edge22_Node000012_Node000003" class="edge">
<title>Node12&#45;&gt;Node3</title>
<g id="a_edge22_Node000012_Node000003"><a xlink:title=" ">
<path fill="none" stroke="#63b8ff" d="M1295.69,-296.22C1166.14,-296.45 627.59,-294.78 567.62,-251.5 513.03,-212.1 498.69,-125.76 494.94,-86.3"/>
<polygon fill="#63b8ff" stroke="#63b8ff" points="498.43,-86.04 494.15,-76.35 491.45,-86.6 498.43,-86.04"/>
</a>
</g>
</g>
<!-- Node13 -->
<g id="Node000013" class="node">
<title>Node13</title>
<g id="a_Node000013"><a xlink:title=" ">
<polygon fill="#e0e0e0" stroke="#999999" points="1828.5,-245.88 1772.75,-245.88 1772.75,-226.62 1828.5,-226.62 1828.5,-245.88"/>
<text xml:space="preserve" text-anchor="middle" x="1800.62" y="-232.38" font-family="Helvetica,sans-Serif" font-size="10.00">algorithm</text>
</a>
</g>
</g>
<!-- Node12&#45;&gt;Node13 -->
<g id="edge14_Node000012_Node000013" class="edge">
<title>Node12&#45;&gt;Node13</title>
<g id="a_edge14_Node000012_Node000013"><a xlink:title=" ">
<path fill="none" stroke="#63b8ff" d="M1351.45,-295.43C1420.92,-293.24 1607.31,-284.49 1758.62,-251.5 1761.07,-250.97 1763.57,-250.34 1766.07,-249.65"/>
<polygon fill="#63b8ff" stroke="#63b8ff" points="1766.92,-253.05 1775.45,-246.78 1764.87,-246.36 1766.92,-253.05"/>
</a>
</g>
</g>
<!-- Node14 -->
<g id="Node000014" class="node">
<title>Node14</title>
<g id="a_Node000014"><a xlink:title=" ">
<polygon fill="#e0e0e0" stroke="#999999" points="1892.25,-245.88 1847,-245.88 1847,-226.62 1892.25,-226.62 1892.25,-245.88"/>
<text xml:space="preserve" text-anchor="middle" x="1869.62" y="-232.38" font-family="Helvetica,sans-Serif" font-size="10.00">chrono</text>
</a>
</g>
</g>
<!-- Node12&#45;&gt;Node14 -->
<g id="edge15_Node000012_Node000014" class="edge">
<title>Node12&#45;&gt;Node14</title>
<g id="a_edge15_Node000012_Node000014"><a xlink:title=" ">
<path fill="none" stroke="#63b8ff" d="M1351.46,-294.93C1444.52,-290.72 1744.29,-275.61 1837.62,-251.5 1838.98,-251.15 1840.36,-250.75 1841.73,-250.3"/>
<polygon fill="#63b8ff" stroke="#63b8ff" points="1842.58,-253.73 1850.65,-246.87 1840.06,-247.2 1842.58,-253.73"/>
</a>
</g>
</g>
<!-- Node15 -->
<g id="Node000015" class="node">
<title>Node15</title>
<g id="a_Node000015"><a xlink:title=" ">
<polygon fill="#e0e0e0" stroke="#999999" points="1953.12,-245.88 1910.12,-245.88 1910.12,-226.62 1953.12,-226.62 1953.12,-245.88"/>
<text xml:space="preserve" text-anchor="middle" x="1931.62" y="-232.38" font-family="Helvetica,sans-Serif" font-size="10.00">cmath</text>
</a>
</g>
</g>
<!-- Node12&#45;&gt;Node15 -->
<g id="edge16_Node000012_Node000015" class="edge">
<title>Node12&#45;&gt;Node15</title>
<g id="a_edge16_Node000012_Node000015"><a xlink:title=" ">
<path fill="none" stroke="#63b8ff" d="M1351.39,-295.32C1451.8,-292.21 1795.74,-279.7 1901.62,-251.5 1902.62,-251.23 1903.63,-250.94 1904.64,-250.61"/>
<polygon fill="#63b8ff" stroke="#63b8ff" points="1905.84,-253.9 1913.81,-246.93 1903.23,-247.4 1905.84,-253.9"/>
</a>
</g>
</g>
<!-- Node16 -->
<g id="Node000016" class="node">
<title>Node16</title>
<g id="a_Node000016"><a xlink:title=" ">
<polygon fill="#e0e0e0" stroke="#999999" points="2195.25,-74.5 2150,-74.5 2150,-55.25 2195.25,-55.25 2195.25,-74.5"/>
<text xml:space="preserve" text-anchor="middle" x="2172.62" y="-61" font-family="Helvetica,sans-Serif" font-size="10.00">cstdint</text>
</a>
</g>
</g>
<!-- Node12&#45;&gt;Node16 -->
<g id="edge17_Node000012_Node000016" class="edge">
<title>Node12&#45;&gt;Node16</title>
<g id="a_edge17_Node000012_Node000016"><a xlink:title=" ">
<path fill="none" stroke="#63b8ff" d="M1351.56,-295.65C1474.06,-293.37 1960.35,-282.44 2020.62,-251.5 2093.65,-214.01 2144.32,-124.23 2163.78,-84.89"/>
<polygon fill="#63b8ff" stroke="#63b8ff" points="2166.89,-86.51 2168.06,-75.98 2160.58,-83.48 2166.89,-86.51"/>
</a>
</g>
</g>
<!-- Node17 -->
<g id="Node000017" class="node">
<title>Node17</title>
<g id="a_Node000017"><a xlink:title=" ">
<polygon fill="#e0e0e0" stroke="#999999" points="2011.62,-245.88 1971.62,-245.88 1971.62,-226.62 2011.62,-226.62 2011.62,-245.88"/>
<text xml:space="preserve" text-anchor="middle" x="1991.62" y="-232.38" font-family="Helvetica,sans-Serif" font-size="10.00">ctime</text>
</a>
</g>
</g>
<!-- Node12&#45;&gt;Node17 -->
<g id="edge18_Node000012_Node000017" class="edge">
<title>Node12&#45;&gt;Node17</title>
<g id="a_edge18_Node000012_Node000017"><a xlink:title=" ">
<path fill="none" stroke="#63b8ff" d="M1351.34,-295.61C1458.37,-293.39 1844.64,-283.29 1962.62,-251.5 1963.62,-251.23 1964.62,-250.93 1965.62,-250.6"/>
<polygon fill="#63b8ff" stroke="#63b8ff" points="1966.81,-253.89 1974.71,-246.82 1964.13,-247.43 1966.81,-253.89"/>
</a>
</g>
</g>
<!-- Node18 -->
<g id="Node000018" class="node">
<title>Node18</title>
<g id="a_Node000018"><a xlink:title=" ">
<polygon fill="#e0e0e0" stroke="#999999" points="626.5,-245.88 576.75,-245.88 576.75,-226.62 626.5,-226.62 626.5,-245.88"/>
<text xml:space="preserve" text-anchor="middle" x="601.62" y="-232.38" font-family="Helvetica,sans-Serif" font-size="10.00">iomanip</text>
</a>
</g>
</g>
<!-- Node12&#45;&gt;Node18 -->
<g id="edge19_Node000012_Node000018" class="edge">
<title>Node12&#45;&gt;Node18</title>
<g id="a_edge19_Node000012_Node000018"><a xlink:title=" ">
<path fill="none" stroke="#63b8ff" d="M1295.78,-295.55C1183.57,-293.03 764.38,-281.76 635.62,-251.5 633.99,-251.12 632.33,-250.66 630.67,-250.15"/>
<polygon fill="#63b8ff" stroke="#63b8ff" points="631.97,-246.9 621.38,-246.76 629.57,-253.48 631.97,-246.9"/>
</a>
</g>
</g>
<!-- Node19 -->
<g id="Node000019" class="node">
<title>Node19</title>
<g id="a_Node000019"><a xlink:title=" ">
<polygon fill="#e0e0e0" stroke="#999999" points="684.62,-245.88 644.62,-245.88 644.62,-226.62 684.62,-226.62 684.62,-245.88"/>
<text xml:space="preserve" text-anchor="middle" x="664.62" y="-232.38" font-family="Helvetica,sans-Serif" font-size="10.00">regex</text>
</a>
</g>
</g>
<!-- Node12&#45;&gt;Node19 -->
<g id="edge20_Node000012_Node000019" class="edge">
<title>Node12&#45;&gt;Node19</title>
<g id="a_edge20_Node000012_Node000019"><a xlink:title=" ">
<path fill="none" stroke="#63b8ff" d="M1295.94,-295.58C1189.91,-293.25 809.8,-282.87 693.62,-251.5 692.63,-251.23 691.63,-250.93 690.63,-250.6"/>
<polygon fill="#63b8ff" stroke="#63b8ff" points="692.12,-247.43 681.54,-246.82 689.44,-253.89 692.12,-247.43"/>
</a>
</g>
</g>
<!-- Node20 -->
<g id="Node000020" class="node">
<title>Node20</title>
<g id="a_Node000020"><a xlink:title=" ">
<polygon fill="#e0e0e0" stroke="#999999" points="754.25,-245.88 703,-245.88 703,-226.62 754.25,-226.62 754.25,-245.88"/>
<text xml:space="preserve" text-anchor="middle" x="728.62" y="-232.38" font-family="Helvetica,sans-Serif" font-size="10.00">sstream</text>
</a>
</g>
</g>
<!-- Node12&#45;&gt;Node20 -->
<g id="edge21_Node000012_Node000020" class="edge">
<title>Node12&#45;&gt;Node20</title>
<g id="a_edge21_Node000012_Node000020"><a xlink:title=" ">
<path fill="none" stroke="#63b8ff" d="M1295.76,-295.04C1197.37,-291.01 866.58,-275.94 763.62,-251.5 761.99,-251.11 760.33,-250.66 758.67,-250.16"/>
<polygon fill="#63b8ff" stroke="#63b8ff" points="759.92,-246.89 749.32,-246.84 757.57,-253.48 759.92,-246.89"/>
</a>
</g>
</g>
<!-- Node21 -->
<g id="Node000021" class="node">
<title>Node21</title>
<g id="a_Node000021"><a xlink:title=" ">
<polygon fill="#e0e0e0" stroke="#999999" points="876.88,-245.88 772.38,-245.88 772.38,-226.62 876.88,-226.62 876.88,-245.88"/>
<text xml:space="preserve" text-anchor="middle" x="824.62" y="-232.38" font-family="Helvetica,sans-Serif" font-size="10.00">boost/date_time.hpp</text>
</a>
</g>
</g>
<!-- Node12&#45;&gt;Node21 -->
<g id="edge23_Node000012_Node000021" class="edge">
<title>Node12&#45;&gt;Node21</title>
<g id="a_edge23_Node000012_Node000021"><a xlink:title=" ">
<path fill="none" stroke="#63b8ff" d="M1295.86,-294.49C1226.48,-290.15 1040.12,-276.88 886.62,-251.5 881.77,-250.7 876.74,-249.74 871.72,-248.72"/>
<polygon fill="#63b8ff" stroke="#63b8ff" points="872.86,-245.38 862.35,-246.69 871.38,-252.22 872.86,-245.38"/>
</a>
</g>
</g>
<!-- Node22 -->
<g id="Node000022" class="node">
<title>Node22</title>
<g id="a_Node000022"><a xlink:title=" ">
<polygon fill="#e0e0e0" stroke="#999999" points="1035.88,-245.88 895.38,-245.88 895.38,-226.62 1035.88,-226.62 1035.88,-245.88"/>
<text xml:space="preserve" text-anchor="middle" x="965.62" y="-232.38" font-family="Helvetica,sans-Serif" font-size="10.00">boost/endian/conversion.hpp</text>
</a>
</g>
</g>
<!-- Node12&#45;&gt;Node22 -->
<g id="edge24_Node000012_Node000022" class="edge">
<title>Node12&#45;&gt;Node22</title>
<g id="a_edge24_Node000012_Node000022"><a xlink:title=" ">
<path fill="none" stroke="#63b8ff" d="M1295.98,-291.85C1245.98,-284.08 1137.2,-267 1045.62,-251.5 1039.63,-250.48 1033.38,-249.41 1027.14,-248.32"/>
<polygon fill="#63b8ff" stroke="#63b8ff" points="1027.9,-244.9 1017.45,-246.61 1026.69,-251.79 1027.9,-244.9"/>
</a>
</g>
</g>
<!-- Node23 -->
<g id="Node000023" class="node">
<title>Node23</title>
<g id="a_Node000023"><a xlink:title=" ">
<polygon fill="#e0e0e0" stroke="#999999" points="1155,-245.88 1054.25,-245.88 1054.25,-226.62 1155,-226.62 1155,-245.88"/>
<text xml:space="preserve" text-anchor="middle" x="1104.62" y="-232.38" font-family="Helvetica,sans-Serif" font-size="10.00">boost/uuid/uuid.hpp</text>
</a>
</g>
</g>
<!-- Node12&#45;&gt;Node23 -->
<g id="edge25_Node000012_Node000023" class="edge">
<title>Node12&#45;&gt;Node23</title>
<g id="a_edge25_Node000012_Node000023"><a xlink:title=" ">
<path fill="none" stroke="#63b8ff" d="M1295.89,-288.67C1258.94,-278.73 1193.12,-261.04 1149.17,-249.23"/>
<polygon fill="#63b8ff" stroke="#63b8ff" points="1150.25,-245.89 1139.69,-246.68 1148.43,-252.65 1150.25,-245.89"/>
</a>
</g>
</g>
<!-- Node24 -->
<g id="Node000024" class="node">
<title>Node24</title>
<g id="a_Node000024"><a xlink:title=" ">
<polygon fill="#e0e0e0" stroke="#999999" points="1324.5,-245.88 1172.75,-245.88 1172.75,-226.62 1324.5,-226.62 1324.5,-245.88"/>
<text xml:space="preserve" text-anchor="middle" x="1248.62" y="-232.38" font-family="Helvetica,sans-Serif" font-size="10.00">boost/uuid/uuid_generators.hpp</text>
</a>
</g>
</g>
<!-- Node12&#45;&gt;Node24 -->
<g id="edge26_Node000012_Node000024" class="edge">
<title>Node12&#45;&gt;Node24</title>
<g id="a_edge26_Node000012_Node000024"><a xlink:title=" ">
<path fill="none" stroke="#63b8ff" d="M1312.23,-287.18C1300.78,-278.19 1282.88,-264.14 1268.98,-253.23"/>
<polygon fill="#63b8ff" stroke="#63b8ff" points="1271.34,-250.63 1261.31,-247.21 1267.02,-256.14 1271.34,-250.63"/>
</a>
</g>
</g>
<!-- Node25 -->
<g id="Node000025" class="node">
<title>Node25</title>
<g id="a_Node000025"><a xlink:title=" ">
<polygon fill="#e0e0e0" stroke="#999999" points="1456.38,-245.88 1342.88,-245.88 1342.88,-226.62 1456.38,-226.62 1456.38,-245.88"/>
<text xml:space="preserve" text-anchor="middle" x="1399.62" y="-232.38" font-family="Helvetica,sans-Serif" font-size="10.00">boost/uuid/uuid_io.hpp</text>
</a>
</g>
</g>
<!-- Node12&#45;&gt;Node25 -->
<g id="edge27_Node000012_Node000025" class="edge">
<title>Node12&#45;&gt;Node25</title>
<g id="a_edge27_Node000012_Node000025"><a xlink:title=" ">
<path fill="none" stroke="#63b8ff" d="M1335.17,-287.18C1346.77,-278.19 1364.92,-264.14 1379,-253.23"/>
<polygon fill="#63b8ff" stroke="#63b8ff" points="1381.02,-256.09 1386.78,-247.2 1376.73,-250.56 1381.02,-256.09"/>
</a>
</g>
</g>
<!-- Node26 -->
<g id="Node000026" class="node">
<title>Node26</title>
<g id="a_Node000026"><a xlink:title=" ">
<polygon fill="#e0e0e0" stroke="#999999" points="1594.38,-251.5 1474.88,-251.5 1474.88,-221 1594.38,-221 1594.38,-251.5"/>
<text xml:space="preserve" text-anchor="start" x="1482.88" y="-238" font-family="Helvetica,sans-Serif" font-size="10.00">boost/date_time/c_local</text>
<text xml:space="preserve" text-anchor="middle" x="1534.62" y="-226.75" font-family="Helvetica,sans-Serif" font-size="10.00">_time_adjustor.hpp</text>
</a>
</g>
</g>
<!-- Node12&#45;&gt;Node26 -->
<g id="edge28_Node000012_Node000026" class="edge">
<title>Node12&#45;&gt;Node26</title>
<g id="a_edge28_Node000012_Node000026"><a xlink:title=" ">
<path fill="none" stroke="#63b8ff" d="M1351.21,-288.43C1381.43,-279.99 1430.93,-266.18 1470.9,-255.03"/>
<polygon fill="#63b8ff" stroke="#63b8ff" points="1471.74,-258.43 1480.43,-252.37 1469.86,-251.69 1471.74,-258.43"/>
</a>
</g>
</g>
<!-- Node12&#45;&gt;Node27 -->
<g id="edge29_Node000012_Node000027" class="edge">
<title>Node12&#45;&gt;Node27</title>
<g id="a_edge29_Node000012_Node000027"><a xlink:title=" ">
<path fill="none" stroke="#63b8ff" d="M1351.42,-295.14C1438.34,-291.78 1700.66,-279.39 1725.62,-251.5 1762.48,-210.32 1687.15,-159.9 1643.61,-135.59"/>
<polygon fill="#63b8ff" stroke="#63b8ff" points="1645.36,-132.56 1634.9,-130.85 1642.01,-138.71 1645.36,-132.56"/>
</a>
</g>
</g>
<!-- Node33 -->
<g id="Node000033" class="node">
<title>Node33</title>
<g id="a_Node000033"><a xlink:href="_h_d_f5_i_o_8hpp.html" target="_top" xlink:title=" ">
<polygon fill="white" stroke="#666666" points="1716.5,-245.88 1612.75,-245.88 1612.75,-226.62 1716.5,-226.62 1716.5,-245.88"/>
<text xml:space="preserve" text-anchor="middle" x="1664.62" y="-232.38" font-family="Helvetica,sans-Serif" font-size="10.00">io/hdf5/HDF5IO.hpp</text>
</a>
</g>
</g>
<!-- Node12&#45;&gt;Node33 -->
<g id="edge42_Node000012_Node000033" class="edge">
<title>Node12&#45;&gt;Node33</title>
<g id="a_edge42_Node000012_Node000033"><a xlink:title=" ">
<path fill="none" stroke="#63b8ff" d="M1351.56,-292.35C1402.07,-285.37 1511.85,-269.51 1603.62,-251.5 1607.89,-250.66 1612.3,-249.74 1616.72,-248.78"/>
<polygon fill="#63b8ff" stroke="#63b8ff" points="1617.15,-252.27 1626.14,-246.67 1615.62,-245.44 1617.15,-252.27"/>
</a>
</g>
</g>
<!-- Node27&#45;&gt;Node2 -->
<g id="edge33_Node000027_Node000002" class="edge">
<title>Node27&#45;&gt;Node2</title>
<g id="a_edge33_Node000027_Node000002"><a xlink:title=" ">
<path fill="none" stroke="#63b8ff" d="M1654.86,-114.04C1707.68,-106.97 1804.81,-93.13 1897.42,-74.79"/>
<polygon fill="#63b8ff" stroke="#63b8ff" points="1898.09,-78.22 1907.2,-72.83 1896.71,-71.36 1898.09,-78.22"/>
</a>
</g>
</g>
<!-- Node27&#45;&gt;Node3 -->
<g id="edge34_Node000027_Node000003" class="edge">
<title>Node27&#45;&gt;Node3</title>
<g id="a_edge34_Node000027_Node000003"><a xlink:title=" ">
<path fill="none" stroke="#63b8ff" d="M1576.25,-118.15C1439.26,-114.59 970.69,-101.13 584.62,-74.5 564.82,-73.13 542.63,-71.04 525.13,-69.26"/>
<polygon fill="#63b8ff" stroke="#63b8ff" points="525.65,-65.8 515.35,-68.25 524.93,-72.76 525.65,-65.8"/>
</a>
</g>
</g>
<!-- Node27&#45;&gt;Node7 -->
<g id="edge36_Node000027_Node000007" class="edge">
<title>Node27&#45;&gt;Node7</title>
<g id="a_edge36_Node000027_Node000007"><a xlink:title=" ">
<path fill="none" stroke="#63b8ff" d="M1576.04,-118.84C1428.87,-117.53 899.34,-110.43 464.62,-74.5 459.69,-74.09 454.56,-73.59 449.43,-73.03"/>
<polygon fill="#63b8ff" stroke="#63b8ff" points="450.12,-69.59 439.78,-71.92 449.32,-76.54 450.12,-69.59"/>
</a>
</g>
</g>
<!-- Node27&#45;&gt;Node8 -->
<g id="edge37_Node000027_Node000008" class="edge">
<title>Node27&#45;&gt;Node8</title>
<g id="a_edge37_Node000027_Node000008"><a xlink:title=" ">
<path fill="none" stroke="#63b8ff" d="M1576.35,-115.25C1480.21,-105.77 1233.08,-81.4 1126.17,-70.86"/>
<polygon fill="#63b8ff" stroke="#63b8ff" points="1126.55,-67.38 1116.25,-69.88 1125.86,-74.35 1126.55,-67.38"/>
</a>
</g>
</g>
<!-- Node27&#45;&gt;Node9 -->
<g id="edge41_Node000027_Node000009" class="edge">
<title>Node27&#45;&gt;Node9</title>
<g id="a_edge41_Node000027_Node000009"><a xlink:title=" ">
<path fill="none" stroke="#63b8ff" d="M1576.17,-117C1417.95,-108.5 830.21,-76.92 666.94,-68.15"/>
<polygon fill="#63b8ff" stroke="#63b8ff" points="667.18,-64.66 657.01,-67.61 666.8,-71.65 667.18,-64.66"/>
</a>
</g>
</g>
<!-- Node27&#45;&gt;Node11 -->
<g id="edge39_Node000027_Node000011" class="edge">
<title>Node27&#45;&gt;Node11</title>
<g id="a_edge39_Node000027_Node000011"><a xlink:title=" ">
<path fill="none" stroke="#63b8ff" d="M1609.12,-110.05C1598.02,-95.41 1573.87,-67.02 1545.62,-55.25 1465.51,-21.86 841.32,-12.71 689.72,-10.97"/>
<polygon fill="#63b8ff" stroke="#63b8ff" points="690.01,-7.47 679.98,-10.86 689.94,-14.47 690.01,-7.47"/>
</a>
</g>
</g>
<!-- Node27&#45;&gt;Node16 -->
<g id="edge31_Node000027_Node000016" class="edge">
<title>Node27&#45;&gt;Node16</title>
<g id="a_edge31_Node000027_Node000016"><a xlink:title=" ">
<path fill="none" stroke="#63b8ff" d="M1655.24,-115.34C1759.5,-105.37 2040.24,-78.53 2138.28,-69.16"/>
<polygon fill="#63b8ff" stroke="#63b8ff" points="2138.44,-72.66 2148.06,-68.22 2137.77,-65.69 2138.44,-72.66"/>
</a>
</g>
</g>
<!-- Node28 -->
<g id="Node000028" class="node">
<title>Node28</title>
<g id="a_Node000028"><a xlink:title=" ">
<polygon fill="#e0e0e0" stroke="#999999" points="1688.5,-74.5 1656.75,-74.5 1656.75,-55.25 1688.5,-55.25 1688.5,-74.5"/>
<text xml:space="preserve" text-anchor="middle" x="1672.62" y="-61" font-family="Helvetica,sans-Serif" font-size="10.00">any</text>
</a>
</g>
</g>
<!-- Node27&#45;&gt;Node28 -->
<g id="edge30_Node000027_Node000028" class="edge">
<title>Node27&#45;&gt;Node28</title>
<g id="a_edge30_Node000027_Node000028"><a xlink:title=" ">
<path fill="none" stroke="#63b8ff" d="M1625.29,-110.09C1633.37,-102.55 1645.09,-91.6 1654.85,-82.48"/>
<polygon fill="#63b8ff" stroke="#63b8ff" points="1657.07,-85.19 1661.99,-75.81 1652.3,-80.08 1657.07,-85.19"/>
</a>
</g>
</g>
<!-- Node29 -->
<g id="Node000029" class="node">
<title>Node29</title>
<g id="a_Node000029"><a xlink:title=" ">
<polygon fill="#e0e0e0" stroke="#999999" points="1536.38,-74.5 1482.88,-74.5 1482.88,-55.25 1536.38,-55.25 1536.38,-74.5"/>
<text xml:space="preserve" text-anchor="middle" x="1509.62" y="-61" font-family="Helvetica,sans-Serif" font-size="10.00">iostream</text>
</a>
</g>
</g>
<!-- Node27&#45;&gt;Node29 -->
<g id="edge32_Node000027_Node000029" class="edge">
<title>Node27&#45;&gt;Node29</title>
<g id="a_edge32_Node000027_Node000029"><a xlink:title=" ">
<path fill="none" stroke="#63b8ff" d="M1597.64,-110.09C1581.27,-101.87 1556.84,-89.59 1537.86,-80.06"/>
<polygon fill="#63b8ff" stroke="#63b8ff" points="1539.55,-76.99 1529.05,-75.63 1536.41,-83.25 1539.55,-76.99"/>
</a>
</g>
</g>
<!-- Node30 -->
<g id="Node000030" class="node">
<title>Node30</title>
<g id="a_Node000030"><a xlink:title=" ">
<polygon fill="#e0e0e0" stroke="#999999" points="1764.62,-74.5 1706.62,-74.5 1706.62,-55.25 1764.62,-55.25 1764.62,-74.5"/>
<text xml:space="preserve" text-anchor="middle" x="1735.62" y="-61" font-family="Helvetica,sans-Serif" font-size="10.00">typeindex</text>
</a>
</g>
</g>
<!-- Node27&#45;&gt;Node30 -->
<g id="edge35_Node000027_Node000030" class="edge">
<title>Node27&#45;&gt;Node30</title>
<g id="a_edge35_Node000027_Node000030"><a xlink:title=" ">
<path fill="none" stroke="#63b8ff" d="M1635.98,-110.09C1654.86,-101.72 1683.21,-89.13 1704.85,-79.53"/>
<polygon fill="#63b8ff" stroke="#63b8ff" points="1706.06,-82.82 1713.79,-75.57 1703.23,-76.42 1706.06,-82.82"/>
</a>
</g>
</g>
<!-- Node31 -->
<g id="Node000031" class="node">
<title>Node31</title>
<g id="a_Node000031"><a xlink:title=" ">
<polygon fill="#e0e0e0" stroke="#999999" points="1638.25,-74.5 1593,-74.5 1593,-55.25 1638.25,-55.25 1638.25,-74.5"/>
<text xml:space="preserve" text-anchor="middle" x="1615.62" y="-61" font-family="Helvetica,sans-Serif" font-size="10.00">variant</text>
</a>
</g>
</g>
<!-- Node27&#45;&gt;Node31 -->
<g id="edge38_Node000027_Node000031" class="edge">
<title>Node27&#45;&gt;Node31</title>
<g id="a_edge38_Node000027_Node000031"><a xlink:title=" ">
<path fill="none" stroke="#63b8ff" d="M1615.62,-110.33C1615.62,-103.82 1615.62,-94.67 1615.62,-86.37"/>
<polygon fill="#63b8ff" stroke="#63b8ff" points="1619.13,-86.37 1615.63,-76.37 1612.13,-86.37 1619.13,-86.37"/>
</a>
</g>
</g>
<!-- Node32 -->
<g id="Node000032" class="node">
<title>Node32</title>
<g id="a_Node000032"><a xlink:title=" ">
<polygon fill="#e0e0e0" stroke="#999999" points="1890.75,-74.5 1782.5,-74.5 1782.5,-55.25 1890.75,-55.25 1890.75,-74.5"/>
<text xml:space="preserve" text-anchor="middle" x="1836.62" y="-61" font-family="Helvetica,sans-Serif" font-size="10.00">boost/multi_array.hpp</text>
</a>
</g>
</g>
<!-- Node27&#45;&gt;Node32 -->
<g id="edge40_Node000027_Node000032" class="edge">
<title>Node27&#45;&gt;Node32</title>
<g id="a_edge40_Node000027_Node000032"><a xlink:title=" ">
<path fill="none" stroke="#63b8ff" d="M1653.37,-110.03C1690.55,-101.07 1747.53,-87.34 1788.07,-77.57"/>
<polygon fill="#63b8ff" stroke="#63b8ff" points="1788.67,-81.03 1797.57,-75.29 1787.03,-74.23 1788.67,-81.03"/>
</a>
</g>
</g>
<!-- Node33&#45;&gt;Node2 -->
<g id="edge44_Node000033_Node000002" class="edge">
<title>Node33&#45;&gt;Node2</title>
<g id="a_edge44_Node000033_Node000002"><a xlink:title=" ">
<path fill="none" stroke="#63b8ff" d="M1679.14,-226.14C1723.29,-198.45 1856.24,-115.05 1910.83,-80.8"/>
<polygon fill="#63b8ff" stroke="#63b8ff" points="1912.47,-83.9 1919.08,-75.63 1908.75,-77.97 1912.47,-83.9"/>
</a>
</g>
</g>
<!-- Node33&#45;&gt;Node3 -->
<g id="edge45_Node000033_Node000003" class="edge">
<title>Node33&#45;&gt;Node3</title>
<g id="a_edge45_Node000033_Node000003"><a xlink:title=" ">
<path fill="none" stroke="#63b8ff" d="M1628.64,-226.13C1620.45,-224.25 1611.77,-222.42 1603.62,-221 1466.98,-197.19 1431.13,-203.22 1293.62,-185 994.05,-145.31 632.8,-88.17 525.27,-70.96"/>
<polygon fill="#63b8ff" stroke="#63b8ff" points="525.91,-67.52 515.48,-69.39 524.8,-74.43 525.91,-67.52"/>
</a>
</g>
</g>
<!-- Node33&#45;&gt;Node9 -->
<g id="edge47_Node000033_Node000009" class="edge">
<title>Node33&#45;&gt;Node9</title>
<g id="a_edge47_Node000033_Node000009"><a xlink:title=" ">
<path fill="none" stroke="#63b8ff" d="M1627.62,-226.15C1619.72,-224.34 1611.42,-222.53 1603.62,-221 1242.61,-150.33 801.87,-89.52 666.29,-71.38"/>
<polygon fill="#63b8ff" stroke="#63b8ff" points="667.09,-67.95 656.72,-70.1 666.17,-74.89 667.09,-67.95"/>
</a>
</g>
</g>
<!-- Node33&#45;&gt;Node27 -->
<g id="edge48_Node000033_Node000027" class="edge">
<title>Node33&#45;&gt;Node27</title>
<g id="a_edge48_Node000033_Node000027"><a xlink:title=" ">
<path fill="none" stroke="#63b8ff" d="M1663.16,-226.37C1660.71,-212.84 1655.1,-186.45 1645.62,-165.75 1641.41,-156.54 1635.38,-147.13 1629.83,-139.33"/>
<polygon fill="#63b8ff" stroke="#63b8ff" points="1632.69,-137.31 1623.91,-131.39 1627.08,-141.5 1632.69,-137.31"/>
</a>
</g>
</g>
<!-- Node33&#45;&gt;Node29 -->
<g id="edge43_Node000033_Node000029" class="edge">
<title>Node33&#45;&gt;Node29</title>
<g id="a_edge43_Node000033_Node000029"><a xlink:title=" ">
<path fill="none" stroke="#63b8ff" d="M1629.78,-226.18C1606.66,-218.57 1577.08,-205.58 1557.62,-185 1530.9,-156.74 1518.31,-111.67 1513,-85.83"/>
<polygon fill="#63b8ff" stroke="#63b8ff" points="1516.5,-85.52 1511.22,-76.34 1509.62,-86.81 1516.5,-85.52"/>
</a>
</g>
</g>
<!-- Node34 -->
<g id="Node000034" class="node">
<title>Node34</title>
<g id="a_Node000034"><a xlink:title=" ">
<polygon fill="#e0e0e0" stroke="#999999" points="1636.62,-185 1566.62,-185 1566.62,-165.75 1636.62,-165.75 1636.62,-185"/>
<text xml:space="preserve" text-anchor="middle" x="1601.62" y="-171.5" font-family="Helvetica,sans-Serif" font-size="10.00">H5Opublic.h</text>
</a>
</g>
</g>
<!-- Node33&#45;&gt;Node34 -->
<g id="edge46_Node000033_Node000034" class="edge">
<title>Node33&#45;&gt;Node34</title>
<g id="a_edge46_Node000033_Node000034"><a xlink:title=" ">
<path fill="none" stroke="#63b8ff" d="M1655.06,-226.31C1645.62,-217.49 1630.97,-203.8 1619.4,-192.98"/>
<polygon fill="#63b8ff" stroke="#63b8ff" points="1622.09,-190.71 1612.39,-186.43 1617.31,-195.82 1622.09,-190.71"/>
</a>
</g>
</g>
<!-- Node33&#45;&gt;Node35 -->
<g id="edge49_Node000033_Node000035" class="edge">
<title>Node33&#45;&gt;Node35</title>
<g id="a_edge49_Node000033_Node000035"><a xlink:title=" ">
<path fill="none" stroke="#63b8ff" d="M1693.28,-226.18C1724.82,-216.2 1775.72,-200.08 1811.06,-188.9"/>
<polygon fill="#63b8ff" stroke="#63b8ff" points="1812.02,-192.27 1820.49,-185.91 1809.9,-185.59 1812.02,-192.27"/>
</a>
</g>
</g>
<!-- Node35&#45;&gt;Node2 -->
<g id="edge53_Node000035_Node000002" class="edge">
<title>Node35&#45;&gt;Node2</title>
<g id="a_edge53_Node000035_Node000002"><a xlink:title=" ">
<path fill="none" stroke="#63b8ff" d="M1857.5,-165.5C1871.28,-147.69 1902.53,-107.33 1920.74,-83.81"/>
<polygon fill="#63b8ff" stroke="#63b8ff" points="1923.38,-86.12 1926.73,-76.07 1917.84,-81.84 1923.38,-86.12"/>
</a>
</g>
</g>
<!-- Node35&#45;&gt;Node3 -->
<g id="edge54_Node000035_Node000003" class="edge">
<title>Node35&#45;&gt;Node3</title>
<g id="a_edge54_Node000035_Node000003"><a xlink:title=" ">
<path fill="none" stroke="#63b8ff" d="M1810.92,-172.24C1705.14,-166.45 1407.72,-149.57 1160.62,-129.75 915.71,-110.11 620.89,-79.4 525.23,-69.25"/>
<polygon fill="#63b8ff" stroke="#63b8ff" points="525.89,-65.8 515.58,-68.23 525.15,-72.76 525.89,-65.8"/>
</a>
</g>
</g>
<!-- Node35&#45;&gt;Node9 -->
<g id="edge59_Node000035_Node000009" class="edge">
<title>Node35&#45;&gt;Node9</title>
<g id="a_edge59_Node000035_Node000009"><a xlink:title=" ">
<path fill="none" stroke="#63b8ff" d="M1810.88,-170.86C1626.57,-154.55 856.11,-86.36 666.78,-69.61"/>
<polygon fill="#63b8ff" stroke="#63b8ff" points="667.19,-66.13 656.92,-68.73 666.58,-73.1 667.19,-66.13"/>
</a>
</g>
</g>
<!-- Node35&#45;&gt;Node11 -->
<g id="edge56_Node000035_Node000011" class="edge">
<title>Node35&#45;&gt;Node11</title>
<g id="a_edge56_Node000035_Node000011"><a xlink:title=" ">
<path fill="none" stroke="#63b8ff" d="M1872.04,-165.36C1916.19,-145.61 2009.95,-96.97 1969.62,-55.25 1923.82,-7.86 890.18,-9.67 690.02,-10.47"/>
<polygon fill="#63b8ff" stroke="#63b8ff" points="690.06,-6.97 680.07,-10.51 690.09,-13.97 690.06,-6.97"/>
</a>
</g>
</g>
<!-- Node35&#45;&gt;Node16 -->
<g id="edge51_Node000035_Node000016" class="edge">
<title>Node35&#45;&gt;Node16</title>
<g id="a_edge51_Node000035_Node000016"><a xlink:title=" ">
<path fill="none" stroke="#63b8ff" d="M1884.05,-165.33C1915,-156.77 1962.19,-143.26 2002.62,-129.75 2050.79,-113.66 2105.64,-92.53 2139.7,-79.07"/>
<polygon fill="#63b8ff" stroke="#63b8ff" points="2140.58,-82.49 2148.59,-75.55 2138,-75.98 2140.58,-82.49"/>
</a>
</g>
</g>
<!-- Node35&#45;&gt;Node27 -->
<g id="edge58_Node000035_Node000027" class="edge">
<title>Node35&#45;&gt;Node27</title>
<g id="a_edge58_Node000035_Node000027"><a xlink:title=" ">
<path fill="none" stroke="#63b8ff" d="M1810.76,-165.34C1770.85,-156.3 1709.31,-142.35 1666.04,-132.55"/>
<polygon fill="#63b8ff" stroke="#63b8ff" points="1666.9,-129.16 1656.38,-130.36 1665.36,-135.98 1666.9,-129.16"/>
</a>
</g>
</g>
<!-- Node35&#45;&gt;Node28 -->
<g id="edge50_Node000035_Node000028" class="edge">
<title>Node35&#45;&gt;Node28</title>
<g id="a_edge50_Node000035_Node000028"><a xlink:title=" ">
<path fill="none" stroke="#63b8ff" d="M1835.75,-165.31C1805.05,-146.6 1734.4,-103.53 1696.95,-80.7"/>
<polygon fill="#63b8ff" stroke="#63b8ff" points="1698.98,-77.84 1688.62,-75.62 1695.34,-83.82 1698.98,-77.84"/>
</a>
</g>
</g>
<!-- Node35&#45;&gt;Node29 -->
<g id="edge52_Node000035_Node000029" class="edge">
<title>Node35&#45;&gt;Node29</title>
<g id="a_edge52_Node000035_Node000029"><a xlink:title=" ">
<path fill="none" stroke="#63b8ff" d="M1810.85,-171.37C1743.17,-165.72 1608.93,-152.05 1567.62,-129.75 1547.71,-119 1531.09,-98.68 1520.82,-83.84"/>
<polygon fill="#63b8ff" stroke="#63b8ff" points="1524.01,-82.32 1515.6,-75.89 1518.16,-86.17 1524.01,-82.32"/>
</a>
</g>
</g>
<!-- Node35&#45;&gt;Node30 -->
<g id="edge55_Node000035_Node000030" class="edge">
<title>Node35&#45;&gt;Node30</title>
<g id="a_edge55_Node000035_Node000030"><a xlink:title=" ">
<path fill="none" stroke="#63b8ff" d="M1841.21,-165.5C1822.01,-147.38 1778.03,-105.88 1753.32,-82.57"/>
<polygon fill="#63b8ff" stroke="#63b8ff" points="1755.94,-80.23 1746.27,-75.92 1751.14,-85.32 1755.94,-80.23"/>
</a>
</g>
</g>
<!-- Node35&#45;&gt;Node32 -->
<g id="edge57_Node000035_Node000032" class="edge">
<title>Node35&#45;&gt;Node32</title>
<g id="a_edge57_Node000035_Node000032"><a xlink:title=" ">
<path fill="none" stroke="#63b8ff" d="M1849.48,-165.5C1847.25,-148.25 1842.3,-109.83 1839.23,-86.06"/>
<polygon fill="#63b8ff" stroke="#63b8ff" points="1842.73,-85.85 1837.98,-76.38 1835.79,-86.74 1842.73,-85.85"/>
</a>
</g>
</g>
<!-- Node36&#45;&gt;Node3 -->
<g id="edge63_Node000036_Node000003" class="edge">
<title>Node36&#45;&gt;Node3</title>
<g id="a_edge63_Node000036_Node000003"><a xlink:title=" ">
<path fill="none" stroke="#63b8ff" d="M123.51,-166.98C172.56,-160.14 242.46,-148.21 301.62,-129.75 321.61,-123.51 325,-117.8 344.62,-110.5 384.8,-95.56 432.43,-81.99 462.83,-73.84"/>
<polygon fill="#63b8ff" stroke="#63b8ff" points="463.36,-77.32 472.13,-71.37 461.56,-70.55 463.36,-77.32"/>
</a>
</g>
</g>
<!-- Node36&#45;&gt;Node11 -->
<g id="edge65_Node000036_Node000011" class="edge">
<title>Node36&#45;&gt;Node11</title>
<g id="a_edge65_Node000036_Node000011"><a xlink:title=" ">
<path fill="none" stroke="#63b8ff" d="M59.72,-165.53C55.5,-143.2 48.06,-84.27 79.62,-55.25 122.42,-15.91 527.67,-28.21 623.54,-18.76"/>
<polygon fill="#63b8ff" stroke="#63b8ff" points="623.77,-22.26 633.23,-17.51 622.87,-15.32 623.77,-22.26"/>
</a>
</g>
</g>
<!-- Node37 -->
<g id="Node000037" class="node">
<title>Node37</title>
<g id="a_Node000037"><a xlink:title=" ">
<polygon fill="#e0e0e0" stroke="#999999" points="154.38,-74.5 88.88,-74.5 88.88,-55.25 154.38,-55.25 154.38,-74.5"/>
<text xml:space="preserve" text-anchor="middle" x="121.62" y="-61" font-family="Helvetica,sans-Serif" font-size="10.00">string_view</text>
</a>
</g>
</g>
<!-- Node36&#45;&gt;Node37 -->
<g id="edge64_Node000036_Node000037" class="edge">
<title>Node36&#45;&gt;Node37</title>
<g id="a_edge64_Node000036_Node000037"><a xlink:title=" ">
<path fill="none" stroke="#63b8ff" d="M66.54,-165.5C76.25,-147.93 98.1,-108.41 111.18,-84.77"/>
<polygon fill="#63b8ff" stroke="#63b8ff" points="114.14,-86.65 115.91,-76.2 108.01,-83.26 114.14,-86.65"/>
</a>
</g>
</g>
<!-- Node38 -->
<g id="Node000038" class="node">
<title>Node38</title>
<g id="a_Node000038"><a xlink:href="_namespace_registry_8hpp.html" target="_top" xlink:title=" ">
<polygon fill="white" stroke="#666666" points="292.88,-129.75 146.38,-129.75 146.38,-110.5 292.88,-110.5 292.88,-129.75"/>
<text xml:space="preserve" text-anchor="middle" x="219.62" y="-116.25" font-family="Helvetica,sans-Serif" font-size="10.00">spec/NamespaceRegistry.hpp</text>
</a>
</g>
</g>
<!-- Node36&#45;&gt;Node38 -->
<g id="edge66_Node000036_Node000038" class="edge">
<title>Node36&#45;&gt;Node38</title>
<g id="a_edge66_Node000036_Node000038"><a xlink:title=" ">
<path fill="none" stroke="#63b8ff" d="M88.43,-165.34C114.08,-156.7 153.01,-143.57 181.81,-133.87"/>
<polygon fill="#63b8ff" stroke="#63b8ff" points="182.9,-137.2 191.26,-130.69 180.66,-130.56 182.9,-137.2"/>
</a>
</g>
</g>
<!-- Node38&#45;&gt;Node3 -->
<g id="edge68_Node000038_Node000003" class="edge">
<title>Node38&#45;&gt;Node3</title>
<g id="a_edge68_Node000038_Node000003"><a xlink:title=" ">
<path fill="none" stroke="#63b8ff" d="M266.42,-110.03C322.21,-99.19 413.95,-81.36 462.01,-72.02"/>
<polygon fill="#63b8ff" stroke="#63b8ff" points="462.61,-75.47 471.76,-70.13 461.27,-68.6 462.61,-75.47"/>
</a>
</g>
</g>
<!-- Node38&#45;&gt;Node6 -->
<g id="edge67_Node000038_Node000006" class="edge">
<title>Node38&#45;&gt;Node6</title>
<g id="a_edge67_Node000038_Node000006"><a xlink:title=" ">
<path fill="none" stroke="#63b8ff" d="M218.14,-110.33C217.03,-103.74 215.46,-94.46 214.04,-86.07"/>
<polygon fill="#63b8ff" stroke="#63b8ff" points="217.51,-85.63 212.4,-76.35 210.61,-86.8 217.51,-85.63"/>
</a>
</g>
</g>
<!-- Node38&#45;&gt;Node7 -->
<g id="edge70_Node000038_Node000007" class="edge">
<title>Node38&#45;&gt;Node7</title>
<g id="a_edge70_Node000038_Node000007"><a xlink:title=" ">
<path fill="none" stroke="#63b8ff" d="M249.65,-110.09C278.77,-101.33 323.16,-87.98 355.54,-78.23"/>
<polygon fill="#63b8ff" stroke="#63b8ff" points="356.44,-81.62 365,-75.39 354.42,-74.92 356.44,-81.62"/>
</a>
</g>
</g>
<!-- Node38&#45;&gt;Node9 -->
<g id="edge72_Node000038_Node000009" class="edge">
<title>Node38&#45;&gt;Node9</title>
<g id="a_edge72_Node000038_Node000009"><a xlink:title=" ">
<path fill="none" stroke="#63b8ff" d="M288.79,-110.03C373.15,-98.94 513.08,-80.54 582.66,-71.39"/>
<polygon fill="#63b8ff" stroke="#63b8ff" points="583.05,-74.87 592.51,-70.1 582.14,-67.93 583.05,-74.87"/>
</a>
</g>
</g>
<!-- Node38&#45;&gt;Node11 -->
<g id="edge71_Node000038_Node000011" class="edge">
<title>Node38&#45;&gt;Node11</title>
<g id="a_edge71_Node000038_Node000011"><a xlink:title=" ">
<path fill="none" stroke="#63b8ff" d="M233.44,-110.2C256.09,-96.02 302.97,-68.62 346.62,-55.25 462.79,-19.68 500.93,-42.68 623.75,-19.31"/>
<polygon fill="#63b8ff" stroke="#63b8ff" points="624.09,-22.81 633.22,-17.44 622.73,-15.94 624.09,-22.81"/>
</a>
</g>
</g>
<!-- Node38&#45;&gt;Node37 -->
<g id="edge69_Node000038_Node000037" class="edge">
<title>Node38&#45;&gt;Node37</title>
<g id="a_edge69_Node000038_Node000037"><a xlink:title=" ">
<path fill="none" stroke="#63b8ff" d="M203,-110.09C187.94,-101.91 165.48,-89.71 147.97,-80.19"/>
<polygon fill="#63b8ff" stroke="#63b8ff" points="150.12,-77.37 139.66,-75.68 146.78,-83.52 150.12,-77.37"/>
</a>
</g>
</g>
</g>
</svg>
