<?xml version="1.0" encoding="UTF-8" standalone="no"?>
<!DOCTYPE svg PUBLIC "-//W3C//DTD SVG 1.1//EN"
 "http://www.w3.org/Graphics/SVG/1.1/DTD/svg11.dtd">
<!-- Generated by graphviz version 12.1.1 (20240910.0053)
 -->
<!-- Title: src/nwb/hdmf/base/Container.hpp Pages: 1 -->
<!--zoomable 293 -->

<svg id="main" version="1.1" xmlns="http://www.w3.org/2000/svg" xmlns:xlink="http://www.w3.org/1999/xlink" xml:space="preserve" onload="init(evt)">

<style type="text/css"><![CDATA[
.node, .edge {opacity: 0.7;}
.node.selected, .edge.selected {opacity: 1;}
.edge:hover path { stroke: red; }
.edge:hover polygon { stroke: red; fill: red; }
]]></style>

<defs>
  <circle id="rim" cx="0" cy="0" r="7"/>
  <circle id="rim2" cx="0" cy="0" r="3.5"/>
  <g id="zoomPlus">
    <use xlink:href="#rim" fill="#404040"><set attributeName="fill" to="#808080" begin="zoomplus.mouseover" end="zoomplus.mouseout"/></use>
    <path d="M-4,0h8M0,-4v8" fill="none" stroke="white" stroke-width="1.5" pointer-events="none"/>
  </g>
  <g id="zoomMin">
    <use xlink:href="#rim" fill="#404040"><set attributeName="fill" to="#808080" begin="zoomminus.mouseover" end="zoomminus.mouseout"/></use>
    <path d="M-4,0h8" fill="none" stroke="white" stroke-width="1.5" pointer-events="none"/>
  </g>
  <g id="arrowUp" transform="translate(30 24)">
    <use xlink:href="#rim"/>
    <path pointer-events="none" fill="none" stroke="white" stroke-width="1.5" d="M0,-3.0v7 M-2.5,-0.5L0,-3.0L2.5,-0.5"/>
  </g>
  <g id="arrowRight" transform="rotate(90) translate(36 -43)">
    <use xlink:href="#rim"/>
    <path pointer-events="none" fill="none" stroke="white" stroke-width="1.5" d="M0,-3.0v7 M-2.5,-0.5L0,-3.0L2.5,-0.5"/>
  </g>
  <g id="arrowDown" transform="rotate(180) translate(-30 -48)">
    <use xlink:href="#rim"/>
    <path pointer-events="none" fill="none" stroke="white" stroke-width="1.5" d="M0,-3.0v7 M-2.5,-0.5L0,-3.0L2.5,-0.5"/>
  </g>
  <g id="arrowLeft" transform="rotate(270) translate(-36 17)">
    <use xlink:href="#rim"/>
    <path pointer-events="none" fill="none" stroke="white" stroke-width="1.5" d="M0,-3.0v7 M-2.5,-0.5L0,-3.0L2.5,-0.5"/>
  </g>
  <g id="resetDef">
    <use xlink:href="#rim2" fill="#404040"><set attributeName="fill" to="#808080" begin="reset.mouseover" end="reset.mouseout"/></use>
  </g>
</defs>
<script type="application/ecmascript">
var viewWidth = 1190;
var viewHeight = 293;
var sectionId = 'dynsection-1';
</script>
<script type="application/ecmascript" xlink:href="svg.min.js"/>
<svg id="graph" class="graph">
<g id="viewport">
<title>src/nwb/hdmf/base/Container.hpp</title>
<!-- Node1 -->
<g id="Node000001" class="node">
<title>Node1</title>
<g id="a_Node000001"><a xlink:title=" ">
<polygon fill="#999999" stroke="#666666" points="881.85,-285.25 719.6,-285.25 719.6,-266 881.85,-266 881.85,-285.25"/>
<text text-anchor="middle" x="800.73" y="-271.75" font-family="Helvetica,sans-Serif" font-size="10.00">src/nwb/hdmf/base/Container.hpp</text>
</a>
</g>
</g>
<!-- Node2 -->
<g id="Node000002" class="node">
<title>Node2</title>
<g id="a_Node000002"><a xlink:href="_recording_containers_8cpp.html" target="_top" xlink:title=" ">
<polygon fill="white" stroke="#666666" points="181.6,-24.88 17.85,-24.88 17.85,-5.63 181.6,-5.63 181.6,-24.88"/>
<text text-anchor="middle" x="99.73" y="-11.38" font-family="Helvetica,sans-Serif" font-size="10.00">src/nwb/RecordingContainers.cpp</text>
</a>
</g>
</g>
<!-- Node1&#45;&gt;Node2 -->
<g id="edge1_Node000001_Node000002" class="edge">
<title>Node1&#45;&gt;Node2</title>
<g id="a_edge1_Node000001_Node000002"><a xlink:title=" ">
<path fill="none" stroke="#63b8ff" d="M707.93,-268.54C508.67,-254.52 54.35,-216.95 10.73,-163.5 -28.37,-115.6 53.95,-48.89 86.9,-25.1"/>
<polygon fill="#63b8ff" stroke="#63b8ff" points="707.51,-272.02 717.73,-269.23 708,-265.04 707.51,-272.02"/>
</a>
</g>
</g>
<!-- Node3 -->
<g id="Node000003" class="node">
<title>Node3</title>
<g id="a_Node000003"><a xlink:href="_time_series_8hpp.html" target="_top" xlink:title=" ">
<polygon fill="white" stroke="#666666" points="490.6,-224.38 344.85,-224.38 344.85,-205.12 490.6,-205.12 490.6,-224.38"/>
<text text-anchor="middle" x="417.73" y="-210.88" font-family="Helvetica,sans-Serif" font-size="10.00">src/nwb/base/TimeSeries.hpp</text>
</a>
</g>
</g>
<!-- Node1&#45;&gt;Node3 -->
<g id="edge2_Node000001_Node000003" class="edge">
<title>Node1&#45;&gt;Node3</title>
<g id="a_edge2_Node000001_Node000003"><a xlink:title=" ">
<path fill="none" stroke="#63b8ff" d="M730.39,-263.81C657.59,-252.62 545.15,-235.34 476.8,-224.83"/>
<polygon fill="#63b8ff" stroke="#63b8ff" points="729.81,-267.26 740.23,-265.32 730.88,-260.35 729.81,-267.26"/>
</a>
</g>
</g>
<!-- Node12 -->
<g id="Node000012" class="node">
<title>Node12</title>
<g id="a_Node000012"><a xlink:href="_device_8hpp.html" target="_top" xlink:title=" ">
<polygon fill="white" stroke="#666666" points="1001.98,-224.38 867.48,-224.38 867.48,-205.12 1001.98,-205.12 1001.98,-224.38"/>
<text text-anchor="middle" x="934.73" y="-210.88" font-family="Helvetica,sans-Serif" font-size="10.00">src/nwb/device/Device.hpp</text>
</a>
</g>
</g>
<!-- Node1&#45;&gt;Node12 -->
<g id="edge17_Node000001_Node000012" class="edge">
<title>Node1&#45;&gt;Node12</title>
<g id="a_edge17_Node000001_Node000012"><a xlink:title=" ">
<path fill="none" stroke="#63b8ff" d="M831.58,-261.07C856.98,-249.91 892.26,-234.41 914.28,-224.73"/>
<polygon fill="#63b8ff" stroke="#63b8ff" points="830.51,-257.72 822.76,-264.95 833.32,-264.13 830.51,-257.72"/>
</a>
</g>
</g>
<!-- Node14 -->
<g id="Node000014" class="node">
<title>Node14</title>
<g id="a_Node000014"><a xlink:href="_electrode_group_8hpp.html" target="_top" xlink:title=" ">
<polygon fill="white" stroke="#666666" points="999.48,-157.88 843.98,-157.88 843.98,-138.62 999.48,-138.62 999.48,-157.88"/>
<text text-anchor="middle" x="921.73" y="-144.38" font-family="Helvetica,sans-Serif" font-size="10.00">src/nwb/file/ElectrodeGroup.hpp</text>
</a>
</g>
</g>
<!-- Node1&#45;&gt;Node14 -->
<g id="edge23_Node000001_Node000014" class="edge">
<title>Node1&#45;&gt;Node14</title>
<g id="a_edge23_Node000001_Node000014"><a xlink:title=" ">
<path fill="none" stroke="#63b8ff" d="M812.84,-256.52C823.88,-240.66 841.09,-217.42 858.73,-199.5 874.63,-183.35 895.63,-167.52 908.92,-158.07"/>
<polygon fill="#63b8ff" stroke="#63b8ff" points="810.15,-254.26 807.4,-264.5 815.93,-258.21 810.15,-254.26"/>
</a>
</g>
</g>
<!-- Node16 -->
<g id="Node000016" class="node">
<title>Node16</title>
<g id="a_Node000016"><a xlink:href="_container_8cpp.html" target="_top" xlink:title=" ">
<polygon fill="white" stroke="#666666" points="1181.85,-224.38 1019.6,-224.38 1019.6,-205.12 1181.85,-205.12 1181.85,-224.38"/>
<text text-anchor="middle" x="1100.73" y="-210.88" font-family="Helvetica,sans-Serif" font-size="10.00">src/nwb/hdmf/base/Container.cpp</text>
</a>
</g>
</g>
<!-- Node1&#45;&gt;Node16 -->
<g id="edge24_Node000001_Node000016" class="edge">
<title>Node1&#45;&gt;Node16</title>
<g id="a_edge24_Node000001_Node000016"><a xlink:title=" ">
<path fill="none" stroke="#63b8ff" d="M857.95,-263.4C915.01,-252.2 1001.58,-235.21 1054.46,-224.83"/>
<polygon fill="#63b8ff" stroke="#63b8ff" points="857.57,-259.9 848.43,-265.26 858.92,-266.77 857.57,-259.9"/>
</a>
</g>
</g>
<!-- Node17 -->
<g id="Node000017" class="node">
<title>Node17</title>
<g id="a_Node000017"><a xlink:href="_dynamic_table_8hpp.html" target="_top" xlink:title=" ">
<polygon fill="white" stroke="#666666" points="811.73,-230 711.73,-230 711.73,-199.5 811.73,-199.5 811.73,-230"/>
<text text-anchor="start" x="719.73" y="-216.5" font-family="Helvetica,sans-Serif" font-size="10.00">src/nwb/hdmf/table</text>
<text text-anchor="middle" x="761.73" y="-205.25" font-family="Helvetica,sans-Serif" font-size="10.00">/DynamicTable.hpp</text>
</a>
</g>
</g>
<!-- Node1&#45;&gt;Node17 -->
<g id="edge25_Node000001_Node000017" class="edge">
<title>Node1&#45;&gt;Node17</title>
<g id="a_edge25_Node000001_Node000017"><a xlink:title=" ">
<path fill="none" stroke="#63b8ff" d="M788.46,-256.1C782.94,-247.77 776.52,-238.08 771.36,-230.28"/>
<polygon fill="#63b8ff" stroke="#63b8ff" points="785.53,-258.02 793.97,-264.42 791.37,-254.15 785.53,-258.02"/>
</a>
</g>
</g>
<!-- Node4 -->
<g id="Node000004" class="node">
<title>Node4</title>
<g id="a_Node000004"><a xlink:href="_n_w_b_file_8hpp.html" target="_top" xlink:title=" ">
<polygon fill="white" stroke="#666666" points="629.73,-91.38 517.73,-91.38 517.73,-72.12 629.73,-72.12 629.73,-91.38"/>
<text text-anchor="middle" x="573.73" y="-77.88" font-family="Helvetica,sans-Serif" font-size="10.00">src/nwb/NWBFile.hpp</text>
</a>
</g>
</g>
<!-- Node3&#45;&gt;Node4 -->
<g id="edge3_Node000003_Node000004" class="edge">
<title>Node3&#45;&gt;Node4</title>
<g id="a_edge3_Node000003_Node000004"><a xlink:title=" ">
<path fill="none" stroke="#63b8ff" d="M449.65,-199.92C468.03,-191.07 490.94,-178.45 508.73,-163.5 534.91,-141.5 558.03,-107.68 568.22,-91.7"/>
<polygon fill="#63b8ff" stroke="#63b8ff" points="448.38,-196.65 440.79,-204.05 451.34,-203 448.38,-196.65"/>
</a>
</g>
</g>
<!-- Node6 -->
<g id="Node000006" class="node">
<title>Node6</title>
<g id="a_Node000006"><a xlink:href="_recording_containers_8hpp.html" target="_top" xlink:title=" ">
<polygon fill="white" stroke="#666666" points="499.6,-157.88 335.85,-157.88 335.85,-138.62 499.6,-138.62 499.6,-157.88"/>
<text text-anchor="middle" x="417.73" y="-144.38" font-family="Helvetica,sans-Serif" font-size="10.00">src/nwb/RecordingContainers.hpp</text>
</a>
</g>
</g>
<!-- Node3&#45;&gt;Node6 -->
<g id="edge5_Node000003_Node000006" class="edge">
<title>Node3&#45;&gt;Node6</title>
<g id="a_edge5_Node000003_Node000006"><a xlink:title=" ">
<path fill="none" stroke="#63b8ff" d="M417.73,-193.27C417.73,-181.44 417.73,-167.16 417.73,-158.14"/>
<polygon fill="#63b8ff" stroke="#63b8ff" points="414.23,-193.27 417.73,-203.27 421.23,-193.27 414.23,-193.27"/>
</a>
</g>
</g>
<!-- Node7 -->
<g id="Node000007" class="node">
<title>Node7</title>
<g id="a_Node000007"><a xlink:href="_time_series_8cpp.html" target="_top" xlink:title=" ">
<polygon fill="white" stroke="#666666" points="165.6,-157.88 19.85,-157.88 19.85,-138.62 165.6,-138.62 165.6,-157.88"/>
<text text-anchor="middle" x="92.73" y="-144.38" font-family="Helvetica,sans-Serif" font-size="10.00">src/nwb/base/TimeSeries.cpp</text>
</a>
</g>
</g>
<!-- Node3&#45;&gt;Node7 -->
<g id="edge8_Node000003_Node000007" class="edge">
<title>Node3&#45;&gt;Node7</title>
<g id="a_edge8_Node000003_Node000007"><a xlink:title=" ">
<path fill="none" stroke="#63b8ff" d="M360.9,-202.47C297.75,-189.94 197,-169.94 138.63,-158.36"/>
<polygon fill="#63b8ff" stroke="#63b8ff" points="359.88,-205.84 370.37,-204.35 361.24,-198.97 359.88,-205.84"/>
</a>
</g>
</g>
<!-- Node8 -->
<g id="Node000008" class="node">
<title>Node8</title>
<g id="a_Node000008"><a xlink:href="_electrical_series_8hpp.html" target="_top" xlink:title=" ">
<polygon fill="white" stroke="#666666" points="317.6,-163.5 183.85,-163.5 183.85,-133 317.6,-133 317.6,-163.5"/>
<text text-anchor="start" x="191.85" y="-150" font-family="Helvetica,sans-Serif" font-size="10.00">src/nwb/ecephys/Electrical</text>
<text text-anchor="middle" x="250.73" y="-138.75" font-family="Helvetica,sans-Serif" font-size="10.00">Series.hpp</text>
</a>
</g>
</g>
<!-- Node3&#45;&gt;Node8 -->
<g id="edge9_Node000003_Node000008" class="edge">
<title>Node3&#45;&gt;Node8</title>
<g id="a_edge9_Node000003_Node000008"><a xlink:title=" ">
<path fill="none" stroke="#63b8ff" d="M383.45,-200.51C355.87,-189.86 317.16,-174.91 288.66,-163.9"/>
<polygon fill="#63b8ff" stroke="#63b8ff" points="382.16,-203.76 392.74,-204.1 384.68,-197.23 382.16,-203.76"/>
</a>
</g>
</g>
<!-- Node5 -->
<g id="Node000005" class="node">
<title>Node5</title>
<g id="a_Node000005"><a xlink:href="_n_w_b_file_8cpp.html" target="_top" xlink:title=" ">
<polygon fill="white" stroke="#666666" points="629.73,-24.88 517.73,-24.88 517.73,-5.63 629.73,-5.63 629.73,-24.88"/>
<text text-anchor="middle" x="573.73" y="-11.38" font-family="Helvetica,sans-Serif" font-size="10.00">src/nwb/NWBFile.cpp</text>
</a>
</g>
</g>
<!-- Node4&#45;&gt;Node5 -->
<g id="edge4_Node000004_Node000005" class="edge">
<title>Node4&#45;&gt;Node5</title>
<g id="a_edge4_Node000004_Node000005"><a xlink:title=" ">
<path fill="none" stroke="#63b8ff" d="M573.73,-60.27C573.73,-48.44 573.73,-34.16 573.73,-25.14"/>
<polygon fill="#63b8ff" stroke="#63b8ff" points="570.23,-60.27 573.73,-70.27 577.23,-60.27 570.23,-60.27"/>
</a>
</g>
</g>
<!-- Node6&#45;&gt;Node2 -->
<g id="edge7_Node000006_Node000002" class="edge">
<title>Node6&#45;&gt;Node2</title>
<g id="a_edge7_Node000006_Node000002"><a xlink:title=" ">
<path fill="none" stroke="#63b8ff" d="M353.84,-136.18C279.28,-123.08 165.04,-102.36 156.73,-97 128.9,-79.04 110.64,-42.26 103.33,-25.25"/>
<polygon fill="#63b8ff" stroke="#63b8ff" points="353.05,-139.6 363.5,-137.87 354.25,-132.7 353.05,-139.6"/>
</a>
</g>
</g>
<!-- Node6&#45;&gt;Node4 -->
<g id="edge6_Node000006_Node000004" class="edge">
<title>Node6&#45;&gt;Node4</title>
<g id="a_edge6_Node000006_Node000004"><a xlink:title=" ">
<path fill="none" stroke="#63b8ff" d="M450.27,-133.8C480.73,-121.2 525.39,-102.74 551.82,-91.81"/>
<polygon fill="#63b8ff" stroke="#63b8ff" points="449.05,-130.51 441.15,-137.57 451.73,-136.98 449.05,-130.51"/>
</a>
</g>
</g>
<!-- Node8&#45;&gt;Node2 -->
<g id="edge11_Node000008_Node000002" class="edge">
<title>Node8&#45;&gt;Node2</title>
<g id="a_edge11_Node000008_Node000002"><a xlink:title=" ">
<path fill="none" stroke="#63b8ff" d="M172.9,-129.13C154.76,-121.73 136.92,-111.4 123.73,-97 104.86,-76.4 100.79,-41.59 99.94,-25.24"/>
<polygon fill="#63b8ff" stroke="#63b8ff" points="171.57,-132.37 182.16,-132.62 174.04,-125.82 171.57,-132.37"/>
</a>
</g>
</g>
<!-- Node8&#45;&gt;Node5 -->
<g id="edge10_Node000008_Node000005" class="edge">
<title>Node8&#45;&gt;Node5</title>
<g id="a_edge10_Node000008_Node000005"><a xlink:title=" ">
<path fill="none" stroke="#63b8ff" d="M280.27,-125.82C292.28,-117 306.25,-106.61 318.73,-97 335.89,-83.78 337.25,-75.96 356.73,-66.5 408.04,-41.59 472.26,-28.7 517.48,-22.25"/>
<polygon fill="#63b8ff" stroke="#63b8ff" points="278.35,-122.89 272.34,-131.61 282.48,-128.54 278.35,-122.89"/>
</a>
</g>
</g>
<!-- Node9 -->
<g id="Node000009" class="node">
<title>Node9</title>
<g id="a_Node000009"><a xlink:href="_electrical_series_8cpp.html" target="_top" xlink:title=" ">
<polygon fill="white" stroke="#666666" points="499.6,-97 365.85,-97 365.85,-66.5 499.6,-66.5 499.6,-97"/>
<text text-anchor="start" x="373.85" y="-83.5" font-family="Helvetica,sans-Serif" font-size="10.00">src/nwb/ecephys/Electrical</text>
<text text-anchor="middle" x="432.73" y="-72.25" font-family="Helvetica,sans-Serif" font-size="10.00">Series.cpp</text>
</a>
</g>
</g>
<!-- Node8&#45;&gt;Node9 -->
<g id="edge12_Node000008_Node000009" class="edge">
<title>Node8&#45;&gt;Node9</title>
<g id="a_edge12_Node000008_Node000009"><a xlink:title=" ">
<path fill="none" stroke="#63b8ff" d="M302.85,-128.78C330.91,-118.83 365.05,-106.74 391.28,-97.44"/>
<polygon fill="#63b8ff" stroke="#63b8ff" points="301.71,-125.47 293.45,-132.11 304.05,-132.07 301.71,-125.47"/>
</a>
</g>
</g>
<!-- Node10 -->
<g id="Node000010" class="node">
<title>Node10</title>
<g id="a_Node000010"><a xlink:href="_spike_event_series_8hpp.html" target="_top" xlink:title=" ">
<polygon fill="white" stroke="#666666" points="309.48,-97 165.98,-97 165.98,-66.5 309.48,-66.5 309.48,-97"/>
<text text-anchor="start" x="173.98" y="-83.5" font-family="Helvetica,sans-Serif" font-size="10.00">src/nwb/ecephys/SpikeEvent</text>
<text text-anchor="middle" x="237.73" y="-72.25" font-family="Helvetica,sans-Serif" font-size="10.00">Series.hpp</text>
</a>
</g>
</g>
<!-- Node8&#45;&gt;Node10 -->
<g id="edge13_Node000008_Node000010" class="edge">
<title>Node8&#45;&gt;Node10</title>
<g id="a_edge13_Node000008_Node000010"><a xlink:title=" ">
<path fill="none" stroke="#63b8ff" d="M245.56,-121.59C243.9,-113.34 242.11,-104.49 240.67,-97.33"/>
<polygon fill="#63b8ff" stroke="#63b8ff" points="242.07,-122.02 247.48,-131.13 248.94,-120.64 242.07,-122.02"/>
</a>
</g>
</g>
<!-- Node10&#45;&gt;Node2 -->
<g id="edge15_Node000010_Node000002" class="edge">
<title>Node10&#45;&gt;Node2</title>
<g id="a_edge15_Node000010_Node000002"><a xlink:title=" ">
<path fill="none" stroke="#63b8ff" d="M196.21,-61.35C170.58,-49.37 138.91,-34.56 119.01,-25.26"/>
<polygon fill="#63b8ff" stroke="#63b8ff" points="194.5,-64.41 205.04,-65.47 197.47,-58.07 194.5,-64.41"/>
</a>
</g>
</g>
<!-- Node10&#45;&gt;Node5 -->
<g id="edge14_Node000010_Node000005" class="edge">
<title>Node10&#45;&gt;Node5</title>
<g id="a_edge14_Node000010_Node000005"><a xlink:title=" ">
<path fill="none" stroke="#63b8ff" d="M320.8,-64.8C385.52,-52.38 473.05,-35.58 526.34,-25.35"/>
<polygon fill="#63b8ff" stroke="#63b8ff" points="320.46,-61.31 311.3,-66.63 321.78,-68.18 320.46,-61.31"/>
</a>
</g>
</g>
<!-- Node11 -->
<g id="Node000011" class="node">
<title>Node11</title>
<g id="a_Node000011"><a xlink:href="_spike_event_series_8cpp.html" target="_top" xlink:title=" ">
<polygon fill="white" stroke="#666666" points="343.48,-30.5 199.98,-30.5 199.98,0 343.48,0 343.48,-30.5"/>
<text text-anchor="start" x="207.98" y="-17" font-family="Helvetica,sans-Serif" font-size="10.00">src/nwb/ecephys/SpikeEvent</text>
<text text-anchor="middle" x="271.73" y="-5.75" font-family="Helvetica,sans-Serif" font-size="10.00">Series.cpp</text>
</a>
</g>
</g>
<!-- Node10&#45;&gt;Node11 -->
<g id="edge16_Node000010_Node000011" class="edge">
<title>Node10&#45;&gt;Node11</title>
<g id="a_edge16_Node000010_Node000011"><a xlink:title=" ">
<path fill="none" stroke="#63b8ff" d="M250.81,-55.94C255.28,-47.46 260.14,-38.24 264.04,-30.83"/>
<polygon fill="#63b8ff" stroke="#63b8ff" points="247.72,-54.3 246.15,-64.78 253.91,-57.56 247.72,-54.3"/>
</a>
</g>
</g>
<!-- Node12&#45;&gt;Node5 -->
<g id="edge18_Node000012_Node000005" class="edge">
<title>Node12&#45;&gt;Node5</title>
<g id="a_edge18_Node000012_Node000005"><a xlink:title=" ">
<path fill="none" stroke="#63b8ff" d="M993.76,-202.52C1058.93,-189.84 1155.42,-170.11 1160.73,-163.5 1169.21,-152.93 1167.97,-144.46 1160.73,-133 1104.17,-43.52 765.8,-22.52 630.04,-17.67"/>
<polygon fill="#63b8ff" stroke="#63b8ff" points="993.42,-199.02 984.27,-204.36 994.75,-205.89 993.42,-199.02"/>
</a>
</g>
</g>
<!-- Node13 -->
<g id="Node000013" class="node">
<title>Node13</title>
<g id="a_Node000013"><a xlink:href="_device_8cpp.html" target="_top" xlink:title=" ">
<polygon fill="white" stroke="#666666" points="1151.98,-157.88 1017.48,-157.88 1017.48,-138.62 1151.98,-138.62 1151.98,-157.88"/>
<text text-anchor="middle" x="1084.73" y="-144.38" font-family="Helvetica,sans-Serif" font-size="10.00">src/nwb/device/Device.cpp</text>
</a>
</g>
</g>
<!-- Node12&#45;&gt;Node13 -->
<g id="edge19_Node000012_Node000013" class="edge">
<title>Node12&#45;&gt;Node13</title>
<g id="a_edge19_Node000012_Node000013"><a xlink:title=" ">
<path fill="none" stroke="#63b8ff" d="M966.4,-200.13C995.68,-187.54 1038.36,-169.19 1063.66,-158.31"/>
<polygon fill="#63b8ff" stroke="#63b8ff" points="965.1,-196.88 957.29,-204.05 967.86,-203.31 965.1,-196.88"/>
</a>
</g>
</g>
<!-- Node12&#45;&gt;Node14 -->
<g id="edge20_Node000012_Node000014" class="edge">
<title>Node12&#45;&gt;Node14</title>
<g id="a_edge20_Node000012_Node000014"><a xlink:title=" ">
<path fill="none" stroke="#63b8ff" d="M930.68,-193.65C928.28,-181.75 925.36,-167.26 923.52,-158.14"/>
<polygon fill="#63b8ff" stroke="#63b8ff" points="927.22,-194.19 932.62,-203.3 934.08,-192.8 927.22,-194.19"/>
</a>
</g>
</g>
<!-- Node14&#45;&gt;Node5 -->
<g id="edge21_Node000014_Node000005" class="edge">
<title>Node14&#45;&gt;Node5</title>
<g id="a_edge21_Node000014_Node000005"><a xlink:title=" ">
<path fill="none" stroke="#63b8ff" d="M897.87,-132.02C882.95,-122.31 863.46,-109.28 846.73,-97 829.27,-84.18 828.29,-75.79 808.73,-66.5 751.45,-39.29 679.34,-26.68 630.21,-20.92"/>
<polygon fill="#63b8ff" stroke="#63b8ff" points="895.81,-134.85 906.11,-137.34 899.61,-128.97 895.81,-134.85"/>
</a>
</g>
</g>
<!-- Node15 -->
<g id="Node000015" class="node">
<title>Node15</title>
<g id="a_Node000015"><a xlink:href="_electrode_group_8cpp.html" target="_top" xlink:title=" ">
<polygon fill="white" stroke="#666666" points="1011.48,-91.38 855.98,-91.38 855.98,-72.12 1011.48,-72.12 1011.48,-91.38"/>
<text text-anchor="middle" x="933.73" y="-77.88" font-family="Helvetica,sans-Serif" font-size="10.00">src/nwb/file/ElectrodeGroup.cpp</text>
</a>
</g>
</g>
<!-- Node14&#45;&gt;Node15 -->
<g id="edge22_Node000014_Node000015" class="edge">
<title>Node14&#45;&gt;Node15</title>
<g id="a_edge22_Node000014_Node000015"><a xlink:title=" ">
<path fill="none" stroke="#63b8ff" d="M925.47,-127.15C927.68,-115.25 930.38,-100.76 932.07,-91.64"/>
<polygon fill="#63b8ff" stroke="#63b8ff" points="922.06,-126.32 923.67,-136.79 928.94,-127.6 922.06,-126.32"/>
</a>
</g>
</g>
<!-- Node18 -->
<g id="Node000018" class="node">
<title>Node18</title>
<g id="a_Node000018"><a xlink:href="_electrode_table_8hpp.html" target="_top" xlink:title=" ">
<polygon fill="white" stroke="#666666" points="707.98,-157.88 555.48,-157.88 555.48,-138.62 707.98,-138.62 707.98,-157.88"/>
<text text-anchor="middle" x="631.73" y="-144.38" font-family="Helvetica,sans-Serif" font-size="10.00">src/nwb/file/ElectrodeTable.hpp</text>
</a>
</g>
</g>
<!-- Node17&#45;&gt;Node18 -->
<g id="edge26_Node000017_Node000018" class="edge">
<title>Node17&#45;&gt;Node18</title>
<g id="a_edge26_Node000017_Node000018"><a xlink:title=" ">
<path fill="none" stroke="#63b8ff" d="M721.97,-194.03C697.95,-182.1 668.47,-167.48 649.89,-158.26"/>
<polygon fill="#63b8ff" stroke="#63b8ff" points="720.36,-197.13 730.87,-198.44 723.47,-190.86 720.36,-197.13"/>
</a>
</g>
</g>
<!-- Node20 -->
<g id="Node000020" class="node">
<title>Node20</title>
<g id="a_Node000020"><a xlink:href="_dynamic_table_8cpp.html" target="_top" xlink:title=" ">
<polygon fill="white" stroke="#666666" points="825.73,-163.5 725.73,-163.5 725.73,-133 825.73,-133 825.73,-163.5"/>
<text text-anchor="start" x="733.73" y="-150" font-family="Helvetica,sans-Serif" font-size="10.00">src/nwb/hdmf/table</text>
<text text-anchor="middle" x="775.73" y="-138.75" font-family="Helvetica,sans-Serif" font-size="10.00">/DynamicTable.cpp</text>
</a>
</g>
</g>
<!-- Node17&#45;&gt;Node20 -->
<g id="edge30_Node000017_Node000020" class="edge">
<title>Node17&#45;&gt;Node20</title>
<g id="a_edge30_Node000017_Node000020"><a xlink:title=" ">
<path fill="none" stroke="#63b8ff" d="M767.3,-188.09C769.09,-179.84 771.01,-170.99 772.57,-163.83"/>
<polygon fill="#63b8ff" stroke="#63b8ff" points="763.93,-187.12 765.23,-197.63 770.77,-188.6 763.93,-187.12"/>
</a>
</g>
</g>
<!-- Node18&#45;&gt;Node4 -->
<g id="edge27_Node000018_Node000004" class="edge">
<title>Node18&#45;&gt;Node4</title>
<g id="a_edge27_Node000018_Node000004"><a xlink:title=" ">
<path fill="none" stroke="#63b8ff" d="M615.98,-129.73C604.9,-117.41 590.53,-101.43 581.73,-91.64"/>
<polygon fill="#63b8ff" stroke="#63b8ff" points="613.36,-132.06 622.65,-137.16 618.57,-127.38 613.36,-132.06"/>
</a>
</g>
</g>
<!-- Node18&#45;&gt;Node9 -->
<g id="edge28_Node000018_Node000009" class="edge">
<title>Node18&#45;&gt;Node9</title>
<g id="a_edge28_Node000018_Node000009"><a xlink:title=" ">
<path fill="none" stroke="#63b8ff" d="M593.05,-134.71C560.08,-124.03 512.64,-108.65 477.93,-97.4"/>
<polygon fill="#63b8ff" stroke="#63b8ff" points="591.61,-137.92 602.2,-137.68 593.77,-131.27 591.61,-137.92"/>
</a>
</g>
</g>
<!-- Node19 -->
<g id="Node000019" class="node">
<title>Node19</title>
<g id="a_Node000019"><a xlink:href="_electrode_table_8cpp.html" target="_top" xlink:title=" ">
<polygon fill="white" stroke="#666666" points="799.98,-91.38 647.48,-91.38 647.48,-72.12 799.98,-72.12 799.98,-91.38"/>
<text text-anchor="middle" x="723.73" y="-77.88" font-family="Helvetica,sans-Serif" font-size="10.00">src/nwb/file/ElectrodeTable.cpp</text>
</a>
</g>
</g>
<!-- Node18&#45;&gt;Node19 -->
<g id="edge29_Node000018_Node000019" class="edge">
<title>Node18&#45;&gt;Node19</title>
<g id="a_edge29_Node000018_Node000019"><a xlink:title=" ">
<path fill="none" stroke="#63b8ff" d="M653.61,-131.91C671.41,-119.43 695.92,-102.25 710.75,-91.85"/>
<polygon fill="#63b8ff" stroke="#63b8ff" points="651.94,-128.81 645.76,-137.41 655.96,-134.54 651.94,-128.81"/>
</a>
</g>
</g>
</g>
</svg>

<g id="navigator" transform="translate(0 0)" fill="#404254">
  <rect fill="#f2f5e9" fill-opacity="0.5" stroke="#606060" stroke-width=".5" x="0" y="0" width="60" height="60"/>
  <use id="zoomplus" xlink:href="#zoomPlus" x="17" y="9" onmousedown="handleZoom(evt,'in')"/>
  <use id="zoomminus" xlink:href="#zoomMin" x="42" y="9" onmousedown="handleZoom(evt,'out')"/>
  <use id="reset" xlink:href="#resetDef" x="30" y="36" onmousedown="handleReset()"/>
   <use id="arrowup" xlink:href="#arrowUp" x="0" y="0" onmousedown="handlePan(0,-1)"/>
  <use id="arrowright" xlink:href="#arrowRight" x="0" y="0" onmousedown="handlePan(1,0)"/>
  <use id="arrowdown" xlink:href="#arrowDown" x="0" y="0" onmousedown="handlePan(0,1)"/>
  <use id="arrowleft" xlink:href="#arrowLeft" x="0" y="0" onmousedown="handlePan(-1,0)"/>
</g>
<svg viewBox="0 0 15 15" width="100%" height="30px" preserveAspectRatio="xMaxYMin meet">
 <g id="arrow_out" transform="scale(0.3 0.3)">
  <a xlink:href="_container_8hpp__dep__incl_org.svg" target="_base">
   <rect id="button" ry="5" rx="5" y="6" x="6" height="38" width="38"
        fill="#f2f5e9" fill-opacity="0.5" stroke="#606060" stroke-width="1.0"/>
   <path id="arrow"
     d="M 11.500037,31.436501 C 11.940474,20.09759 22.043105,11.32322 32.158766,21.979434 L 37.068811,17.246167 C 37.068811,17.246167 37.088388,32 37.088388,32 L 22.160133,31.978069 C 22.160133,31.978069 26.997745,27.140456 26.997745,27.140456 C 18.528582,18.264221 13.291696,25.230495 11.500037,31.436501 z"
     style="fill:#404040;"/>
  </a>
 </g>
</svg>

<style type='text/css'>
<![CDATA[
[data-mouse-over-selected='false'] { opacity: 0.7; }
[data-mouse-over-selected='true']  { opacity: 1.0; }
]]>
</style>
<script type="application/ecmascript"><![CDATA[
document.addEventListener('DOMContentLoaded', (event) => {
  highlightEdges();
  highlightAdjacentNodes();
});
]]></script>
</svg>
