<?xml version="1.0" encoding="UTF-8" standalone="no"?>
<!DOCTYPE svg PUBLIC "-//W3C//DTD SVG 1.1//EN"
 "http://www.w3.org/Graphics/SVG/1.1/DTD/svg11.dtd">
<!-- Generated by graphviz version 14.1.0 (20251206.1807)
 -->
<!-- Title: src/nwb/hdmf/base/Container.hpp Pages: 1 -->
<!--zoomable 581 -->

<svg id="main" version="1.1" xmlns="http://www.w3.org/2000/svg" xmlns:xlink="http://www.w3.org/1999/xlink" xml:space="preserve" onload="init(evt)">

<style type="text/css"><![CDATA[
.node, .edge {opacity: 0.7;}
.node.selected, .edge.selected {opacity: 1;}
.edge:hover path { stroke: red; }
.edge:hover polygon { stroke: red; fill: red; }
]]></style>

<defs>
  <circle id="rim" cx="0" cy="0" r="7"/>
  <circle id="rim2" cx="0" cy="0" r="3.5"/>
  <g id="zoomPlus">
    <use xlink:href="#rim" fill="#404040"><set attributeName="fill" to="#808080" begin="zoomplus.mouseover" end="zoomplus.mouseout"/></use>
    <path d="M-4,0h8M0,-4v8" fill="none" stroke="white" stroke-width="1.5" pointer-events="none"/>
  </g>
  <g id="zoomMin">
    <use xlink:href="#rim" fill="#404040"><set attributeName="fill" to="#808080" begin="zoomminus.mouseover" end="zoomminus.mouseout"/></use>
    <path d="M-4,0h8" fill="none" stroke="white" stroke-width="1.5" pointer-events="none"/>
  </g>
  <g id="arrowUp" transform="translate(30 24)">
    <use xlink:href="#rim"/>
    <path pointer-events="none" fill="none" stroke="white" stroke-width="1.5" d="M0,-3.0v7 M-2.5,-0.5L0,-3.0L2.5,-0.5"/>
  </g>
  <g id="arrowRight" transform="rotate(90) translate(36 -43)">
    <use xlink:href="#rim"/>
    <path pointer-events="none" fill="none" stroke="white" stroke-width="1.5" d="M0,-3.0v7 M-2.5,-0.5L0,-3.0L2.5,-0.5"/>
  </g>
  <g id="arrowDown" transform="rotate(180) translate(-30 -48)">
    <use xlink:href="#rim"/>
    <path pointer-events="none" fill="none" stroke="white" stroke-width="1.5" d="M0,-3.0v7 M-2.5,-0.5L0,-3.0L2.5,-0.5"/>
  </g>
  <g id="arrowLeft" transform="rotate(270) translate(-36 17)">
    <use xlink:href="#rim"/>
    <path pointer-events="none" fill="none" stroke="white" stroke-width="1.5" d="M0,-3.0v7 M-2.5,-0.5L0,-3.0L2.5,-0.5"/>
  </g>
  <g id="resetDef">
    <use xlink:href="#rim2" fill="#404040"><set attributeName="fill" to="#808080" begin="reset.mouseover" end="reset.mouseout"/></use>
  </g>
</defs>
<script type="application/ecmascript">
var viewWidth = 1277;
var viewHeight = 581;
var sectionId = 'dynsection-1';
</script>
<script type="application/ecmascript" xlink:href="svg.min.js"/>
<svg id="graph" class="graph">
<g id="viewport">
<title>src/nwb/hdmf/base/Container.hpp</title>
<!-- Node1 -->
<g id="Node000001" class="node">
<title>Node1</title>
<g id="a_Node000001"><a xlink:title=" ">
<polygon fill="#999999" stroke="#666666" points="919,-572.75 756.75,-572.75 756.75,-553.5 919,-553.5 919,-572.75"/>
<text xml:space="preserve" text-anchor="middle" x="837.88" y="-559.25" font-family="Helvetica,sans-Serif" font-size="10.00">src/nwb/hdmf/base/Container.hpp</text>
</a>
</g>
</g>
<!-- Node2 -->
<g id="Node000002" class="node">
<title>Node2</title>
<g id="a_Node000002"><a xlink:href="_recording_objects_8cpp.html" target="_top" xlink:title=" ">
<polygon fill="white" stroke="#666666" points="139.75,-24.88 0,-24.88 0,-5.63 139.75,-5.63 139.75,-24.88"/>
<text xml:space="preserve" text-anchor="middle" x="69.88" y="-11.38" font-family="Helvetica,sans-Serif" font-size="10.00">src/io/RecordingObjects.cpp</text>
</a>
</g>
</g>
<!-- Node1&#45;&gt;Node2 -->
<g id="edge1_Node000001_Node000002" class="edge">
<title>Node1&#45;&gt;Node2</title>
<g id="a_edge1_Node000001_Node000002"><a xlink:title=" ">
<path fill="none" stroke="#63b8ff" d="M745.03,-558.35C542.88,-548.89 80.88,-520.01 80.88,-453.62 80.88,-453.62 80.88,-453.62 80.88,-147.25 80.88,-101.15 74.03,-46.24 71.14,-25.12"/>
<polygon fill="#63b8ff" stroke="#63b8ff" points="744.84,-561.84 754.99,-558.81 745.16,-554.85 744.84,-561.84"/>
</a>
</g>
</g>
<!-- Node3 -->
<g id="Node000003" class="node">
<title>Node3</title>
<g id="a_Node000003"><a xlink:href="_n_w_b_container_8hpp.html" target="_top" xlink:title=" ">
<polygon fill="white" stroke="#666666" points="973.62,-517.5 812.12,-517.5 812.12,-498.25 973.62,-498.25 973.62,-517.5"/>
<text xml:space="preserve" text-anchor="middle" x="892.88" y="-504" font-family="Helvetica,sans-Serif" font-size="10.00">src/nwb/base/NWBContainer.hpp</text>
</a>
</g>
</g>
<!-- Node1&#45;&gt;Node3 -->
<g id="edge2_Node000001_Node000003" class="edge">
<title>Node1&#45;&gt;Node3</title>
<g id="a_edge2_Node000001_Node000003"><a xlink:title=" ">
<path fill="none" stroke="#63b8ff" d="M855.23,-545.32C864.62,-536.23 875.86,-525.35 883.6,-517.86"/>
<polygon fill="#63b8ff" stroke="#63b8ff" points="852.79,-542.81 848.04,-552.28 857.66,-547.84 852.79,-542.81"/>
</a>
</g>
</g>
<!-- Node14 -->
<g id="Node000014" class="node">
<title>Node14</title>
<g id="a_Node000014"><a xlink:href="_dynamic_table_8hpp.html" target="_top" xlink:title=" ">
<polygon fill="white" stroke="#666666" points="748.88,-296.5 648.88,-296.5 648.88,-266 748.88,-266 748.88,-296.5"/>
<text xml:space="preserve" text-anchor="start" x="656.88" y="-283" font-family="Helvetica,sans-Serif" font-size="10.00">src/nwb/hdmf/table</text>
<text xml:space="preserve" text-anchor="middle" x="698.88" y="-271.75" font-family="Helvetica,sans-Serif" font-size="10.00">/DynamicTable.hpp</text>
</a>
</g>
</g>
<!-- Node1&#45;&gt;Node14 -->
<g id="edge47_Node000001_Node000014" class="edge">
<title>Node1&#45;&gt;Node14</title>
<g id="a_edge47_Node000001_Node000014"><a xlink:title=" ">
<path fill="none" stroke="#63b8ff" d="M821.72,-544.72C815.13,-536.87 807.89,-527.2 802.88,-517.5 789.27,-491.19 783.88,-483.24 783.88,-453.62 783.88,-453.62 783.88,-453.62 783.88,-396.38 783.88,-366.35 779.19,-357.03 761.88,-332.5 751.71,-318.1 736.29,-305.7 723.25,-296.82"/>
<polygon fill="#63b8ff" stroke="#63b8ff" points="819.02,-546.94 828.25,-552.13 824.27,-542.31 819.02,-546.94"/>
</a>
</g>
</g>
<!-- Node29 -->
<g id="Node000029" class="node">
<title>Node29</title>
<g id="a_Node000029"><a xlink:href="_container_8cpp.html" target="_top" xlink:title=" ">
<polygon fill="white" stroke="#666666" points="1154,-517.5 991.75,-517.5 991.75,-498.25 1154,-498.25 1154,-517.5"/>
<text xml:space="preserve" text-anchor="middle" x="1072.88" y="-504" font-family="Helvetica,sans-Serif" font-size="10.00">src/nwb/hdmf/base/Container.cpp</text>
</a>
</g>
</g>
<!-- Node1&#45;&gt;Node29 -->
<g id="edge46_Node000001_Node000029" class="edge">
<title>Node1&#45;&gt;Node29</title>
<g id="a_edge46_Node000001_Node000029"><a xlink:title=" ">
<path fill="none" stroke="#63b8ff" d="M889.13,-550.51C932.33,-540.72 993.26,-526.92 1032.91,-517.93"/>
<polygon fill="#63b8ff" stroke="#63b8ff" points="888.46,-547.07 879.48,-552.7 890.01,-553.9 888.46,-547.07"/>
</a>
</g>
</g>
<!-- Node4 -->
<g id="Node000004" class="node">
<title>Node4</title>
<g id="a_Node000004"><a xlink:href="_n_w_b_file_8hpp.html" target="_top" xlink:title=" ">
<polygon fill="white" stroke="#666666" points="888.88,-157.88 776.88,-157.88 776.88,-138.62 888.88,-138.62 888.88,-157.88"/>
<text xml:space="preserve" text-anchor="middle" x="832.88" y="-144.38" font-family="Helvetica,sans-Serif" font-size="10.00">src/nwb/NWBFile.hpp</text>
</a>
</g>
</g>
<!-- Node3&#45;&gt;Node4 -->
<g id="edge3_Node000003_Node000004" class="edge">
<title>Node3&#45;&gt;Node4</title>
<g id="a_edge3_Node000003_Node000004"><a xlink:title=" ">
<path fill="none" stroke="#63b8ff" d="M885.18,-487.13C877.52,-465.64 866.88,-430.1 866.88,-398.38 866.88,-398.38 866.88,-398.38 866.88,-280.25 866.88,-233.02 845.92,-179.2 836.91,-158.25"/>
<polygon fill="#63b8ff" stroke="#63b8ff" points="881.85,-488.2 888.62,-496.35 888.41,-485.75 881.85,-488.2"/>
</a>
</g>
</g>
<!-- Node6 -->
<g id="Node000006" class="node">
<title>Node6</title>
<g id="a_Node000006"><a xlink:href="_n_w_b_container_8cpp.html" target="_top" xlink:title=" ">
<polygon fill="white" stroke="#666666" points="1094.62,-462.25 933.12,-462.25 933.12,-443 1094.62,-443 1094.62,-462.25"/>
<text xml:space="preserve" text-anchor="middle" x="1013.88" y="-448.75" font-family="Helvetica,sans-Serif" font-size="10.00">src/nwb/base/NWBContainer.cpp</text>
</a>
</g>
</g>
<!-- Node3&#45;&gt;Node6 -->
<g id="edge5_Node000003_Node000006" class="edge">
<title>Node3&#45;&gt;Node6</title>
<g id="a_edge5_Node000003_Node000006"><a xlink:title=" ">
<path fill="none" stroke="#63b8ff" d="M923.79,-493.27C945.59,-483.68 974.18,-471.09 993.25,-462.7"/>
<polygon fill="#63b8ff" stroke="#63b8ff" points="922.53,-490 914.79,-497.23 925.35,-496.41 922.53,-490"/>
</a>
</g>
</g>
<!-- Node7 -->
<g id="Node000007" class="node">
<title>Node7</title>
<g id="a_Node000007"><a xlink:href="_n_w_b_data_interface_8hpp.html" target="_top" xlink:title=" ">
<polygon fill="white" stroke="#666666" points="755.62,-462.25 576.12,-462.25 576.12,-443 755.62,-443 755.62,-462.25"/>
<text xml:space="preserve" text-anchor="middle" x="665.88" y="-448.75" font-family="Helvetica,sans-Serif" font-size="10.00">src/nwb/base/NWBDataInterface.hpp</text>
</a>
</g>
</g>
<!-- Node3&#45;&gt;Node7 -->
<g id="edge6_Node000003_Node000007" class="edge">
<title>Node3&#45;&gt;Node7</title>
<g id="a_edge6_Node000003_Node000007"><a xlink:title=" ">
<path fill="none" stroke="#63b8ff" d="M843.1,-495.2C801.39,-485.41 742.7,-471.65 704.48,-462.68"/>
<polygon fill="#63b8ff" stroke="#63b8ff" points="842.1,-498.56 852.64,-497.44 843.7,-491.74 842.1,-498.56"/>
</a>
</g>
</g>
<!-- Node25 -->
<g id="Node000025" class="node">
<title>Node25</title>
<g id="a_Node000025"><a xlink:href="_device_8hpp.html" target="_top" xlink:title=" ">
<polygon fill="white" stroke="#666666" points="1247.12,-462.25 1112.62,-462.25 1112.62,-443 1247.12,-443 1247.12,-462.25"/>
<text xml:space="preserve" text-anchor="middle" x="1179.88" y="-448.75" font-family="Helvetica,sans-Serif" font-size="10.00">src/nwb/device/Device.hpp</text>
</a>
</g>
</g>
<!-- Node3&#45;&gt;Node25 -->
<g id="edge39_Node000003_Node000025" class="edge">
<title>Node3&#45;&gt;Node25</title>
<g id="a_edge39_Node000003_Node000025"><a xlink:title=" ">
<path fill="none" stroke="#63b8ff" d="M953.13,-495.69C1006,-485.89 1081.92,-471.8 1131.07,-462.68"/>
<polygon fill="#63b8ff" stroke="#63b8ff" points="952.57,-492.24 943.37,-497.51 953.84,-499.12 952.57,-492.24"/>
</a>
</g>
</g>
<!-- Node27 -->
<g id="Node000027" class="node">
<title>Node27</title>
<g id="a_Node000027"><a xlink:href="_electrode_group_8hpp.html" target="_top" xlink:title=" ">
<polygon fill="white" stroke="#666666" points="1050.62,-407 895.12,-407 895.12,-387.75 1050.62,-387.75 1050.62,-407"/>
<text xml:space="preserve" text-anchor="middle" x="972.88" y="-393.5" font-family="Helvetica,sans-Serif" font-size="10.00">src/nwb/file/ElectrodeGroup.hpp</text>
</a>
</g>
</g>
<!-- Node3&#45;&gt;Node27 -->
<g id="edge45_Node000003_Node000027" class="edge">
<title>Node3&#45;&gt;Node27</title>
<g id="a_edge45_Node000003_Node000027"><a xlink:title=" ">
<path fill="none" stroke="#63b8ff" d="M900.09,-487.3C905.5,-474.07 913.7,-456.61 923.88,-443 934.48,-428.81 950.06,-415.54 960.79,-407.22"/>
<polygon fill="#63b8ff" stroke="#63b8ff" points="896.83,-486.03 896.48,-496.62 903.36,-488.56 896.83,-486.03"/>
</a>
</g>
</g>
<!-- Node5 -->
<g id="Node000005" class="node">
<title>Node5</title>
<g id="a_Node000005"><a xlink:href="_n_w_b_file_8cpp.html" target="_top" xlink:title=" ">
<polygon fill="white" stroke="#666666" points="822.88,-24.88 710.88,-24.88 710.88,-5.63 822.88,-5.63 822.88,-24.88"/>
<text xml:space="preserve" text-anchor="middle" x="766.88" y="-11.38" font-family="Helvetica,sans-Serif" font-size="10.00">src/nwb/NWBFile.cpp</text>
</a>
</g>
</g>
<!-- Node4&#45;&gt;Node5 -->
<g id="edge4_Node000004_Node000005" class="edge">
<title>Node4&#45;&gt;Node5</title>
<g id="a_edge4_Node000004_Node000005"><a xlink:title=" ">
<path fill="none" stroke="#63b8ff" d="M828.9,-127.1C825.06,-110.23 818.27,-85.87 807.88,-66.5 799.25,-50.43 785.13,-34.57 775.91,-25.1"/>
<polygon fill="#63b8ff" stroke="#63b8ff" points="825.47,-127.79 830.97,-136.85 832.32,-126.34 825.47,-127.79"/>
</a>
</g>
</g>
<!-- Node8 -->
<g id="Node000008" class="node">
<title>Node8</title>
<g id="a_Node000008"><a xlink:href="_n_w_b_data_interface_8cpp.html" target="_top" xlink:title=" ">
<polygon fill="white" stroke="#666666" points="755.62,-407 576.12,-407 576.12,-387.75 755.62,-387.75 755.62,-407"/>
<text xml:space="preserve" text-anchor="middle" x="665.88" y="-393.5" font-family="Helvetica,sans-Serif" font-size="10.00">src/nwb/base/NWBDataInterface.cpp</text>
</a>
</g>
</g>
<!-- Node7&#45;&gt;Node8 -->
<g id="edge7_Node000007_Node000008" class="edge">
<title>Node7&#45;&gt;Node8</title>
<g id="a_edge7_Node000007_Node000008"><a xlink:title=" ">
<path fill="none" stroke="#63b8ff" d="M665.88,-431.38C665.88,-423.09 665.88,-413.92 665.88,-407.36"/>
<polygon fill="#63b8ff" stroke="#63b8ff" points="662.38,-431.32 665.88,-441.32 669.38,-431.32 662.38,-431.32"/>
</a>
</g>
</g>
<!-- Node9 -->
<g id="Node000009" class="node">
<title>Node9</title>
<g id="a_Node000009"><a xlink:href="_time_series_8hpp.html" target="_top" xlink:title=" ">
<polygon fill="white" stroke="#666666" points="557.75,-407 412,-407 412,-387.75 557.75,-387.75 557.75,-407"/>
<text xml:space="preserve" text-anchor="middle" x="484.88" y="-393.5" font-family="Helvetica,sans-Serif" font-size="10.00">src/nwb/base/TimeSeries.hpp</text>
</a>
</g>
</g>
<!-- Node7&#45;&gt;Node9 -->
<g id="edge8_Node000007_Node000009" class="edge">
<title>Node7&#45;&gt;Node9</title>
<g id="a_edge8_Node000007_Node000009"><a xlink:title=" ">
<path fill="none" stroke="#63b8ff" d="M624.47,-439.44C591.36,-429.7 545.69,-416.27 515.73,-407.45"/>
<polygon fill="#63b8ff" stroke="#63b8ff" points="623.14,-442.7 633.72,-442.16 625.11,-435.98 623.14,-442.7"/>
</a>
</g>
</g>
<!-- Node9&#45;&gt;Node4 -->
<g id="edge31_Node000009_Node000004" class="edge">
<title>Node9&#45;&gt;Node4</title>
<g id="a_edge31_Node000009_Node000004"><a xlink:title=" ">
<path fill="none" stroke="#63b8ff" d="M569.01,-387.06C644.91,-377.98 746.89,-363.81 761.88,-351.75 825.15,-300.84 832.15,-189.79 832.83,-157.95"/>
<polygon fill="#63b8ff" stroke="#63b8ff" points="569.04,-383.53 559.52,-388.19 569.86,-390.49 569.04,-383.53"/>
</a>
</g>
</g>
<!-- Node10 -->
<g id="Node000010" class="node">
<title>Node10</title>
<g id="a_Node000010"><a xlink:href="_recording_objects_8hpp.html" target="_top" xlink:title=" ">
<polygon fill="white" stroke="#666666" points="501.75,-351.75 362,-351.75 362,-332.5 501.75,-332.5 501.75,-351.75"/>
<text xml:space="preserve" text-anchor="middle" x="431.88" y="-338.25" font-family="Helvetica,sans-Serif" font-size="10.00">src/io/RecordingObjects.hpp</text>
</a>
</g>
</g>
<!-- Node9&#45;&gt;Node10 -->
<g id="edge9_Node000009_Node000010" class="edge">
<title>Node9&#45;&gt;Node10</title>
<g id="a_edge9_Node000009_Node000010"><a xlink:title=" ">
<path fill="none" stroke="#63b8ff" d="M468.15,-379.57C459.1,-370.48 448.27,-359.6 440.82,-352.11"/>
<polygon fill="#63b8ff" stroke="#63b8ff" points="465.52,-381.89 475.06,-386.51 470.48,-376.95 465.52,-381.89"/>
</a>
</g>
</g>
<!-- Node12 -->
<g id="Node000012" class="node">
<title>Node12</title>
<g id="a_Node000012"><a xlink:href="nwbio__utils_8hpp.html" target="_top" xlink:title=" ">
<polygon fill="white" stroke="#666666" points="457.12,-24.88 346.62,-24.88 346.62,-5.63 457.12,-5.63 457.12,-24.88"/>
<text xml:space="preserve" text-anchor="middle" x="401.88" y="-11.38" font-family="Helvetica,sans-Serif" font-size="10.00">src/io/nwbio_utils.hpp</text>
</a>
</g>
</g>
<!-- Node9&#45;&gt;Node12 -->
<g id="edge30_Node000009_Node000012" class="edge">
<title>Node9&#45;&gt;Node12</title>
<g id="a_edge30_Node000009_Node000012"><a xlink:title=" ">
<path fill="none" stroke="#63b8ff" d="M400.31,-385.26C346.97,-373.24 282.57,-348.28 251.88,-296.5 220.22,-243.1 360.08,-67.08 394.42,-25.23"/>
<polygon fill="#63b8ff" stroke="#63b8ff" points="399.51,-388.67 410.02,-387.32 400.96,-381.82 399.51,-388.67"/>
</a>
</g>
</g>
<!-- Node17 -->
<g id="Node000017" class="node">
<title>Node17</title>
<g id="a_Node000017"><a xlink:href="_electrical_series_8hpp.html" target="_top" xlink:title=" ">
<polygon fill="white" stroke="#666666" points="544.75,-163.5 411,-163.5 411,-133 544.75,-133 544.75,-163.5"/>
<text xml:space="preserve" text-anchor="start" x="419" y="-150" font-family="Helvetica,sans-Serif" font-size="10.00">src/nwb/ecephys/Electrical</text>
<text xml:space="preserve" text-anchor="middle" x="477.88" y="-138.75" font-family="Helvetica,sans-Serif" font-size="10.00">Series.hpp</text>
</a>
</g>
</g>
<!-- Node9&#45;&gt;Node17 -->
<g id="edge33_Node000009_Node000017" class="edge">
<title>Node9&#45;&gt;Node17</title>
<g id="a_edge33_Node000009_Node000017"><a xlink:title=" ">
<path fill="none" stroke="#63b8ff" d="M505.45,-380.51C534.05,-356.39 580.16,-308.8 559.88,-266 549.05,-243.17 531.42,-249.92 515.88,-230 499.77,-209.35 488.37,-180.78 482.48,-163.74"/>
<polygon fill="#63b8ff" stroke="#63b8ff" points="503.61,-377.49 498.06,-386.52 508.03,-382.92 503.61,-377.49"/>
</a>
</g>
</g>
<!-- Node22 -->
<g id="Node000022" class="node">
<title>Node22</title>
<g id="a_Node000022"><a xlink:href="_time_series_8cpp.html" target="_top" xlink:title=" ">
<polygon fill="white" stroke="#666666" points="752.75,-351.75 607,-351.75 607,-332.5 752.75,-332.5 752.75,-351.75"/>
<text xml:space="preserve" text-anchor="middle" x="679.88" y="-338.25" font-family="Helvetica,sans-Serif" font-size="10.00">src/nwb/base/TimeSeries.cpp</text>
</a>
</g>
</g>
<!-- Node9&#45;&gt;Node22 -->
<g id="edge32_Node000009_Node000022" class="edge">
<title>Node9&#45;&gt;Node22</title>
<g id="a_edge32_Node000009_Node000022"><a xlink:title=" ">
<path fill="none" stroke="#63b8ff" d="M529.02,-384.32C564.73,-374.57 614.22,-361.05 646.63,-352.2"/>
<polygon fill="#63b8ff" stroke="#63b8ff" points="528.14,-380.93 519.41,-386.94 529.98,-387.69 528.14,-380.93"/>
</a>
</g>
</g>
<!-- Node23 -->
<g id="Node000023" class="node">
<title>Node23</title>
<g id="a_Node000023"><a xlink:href="_annotation_series_8hpp.html" target="_top" xlink:title=" ">
<polygon fill="white" stroke="#666666" points="317.12,-91.38 146.62,-91.38 146.62,-72.12 317.12,-72.12 317.12,-91.38"/>
<text xml:space="preserve" text-anchor="middle" x="231.88" y="-77.88" font-family="Helvetica,sans-Serif" font-size="10.00">src/nwb/misc/AnnotationSeries.hpp</text>
</a>
</g>
</g>
<!-- Node9&#45;&gt;Node23 -->
<g id="edge34_Node000009_Node000023" class="edge">
<title>Node9&#45;&gt;Node23</title>
<g id="a_edge34_Node000009_Node000023"><a xlink:title=" ">
<path fill="none" stroke="#63b8ff" d="M400.34,-391.49C333.03,-385.94 245.78,-374.52 218.88,-351.75 193.93,-330.64 194.88,-314.93 194.88,-282.25 194.88,-282.25 194.88,-282.25 194.88,-213.75 194.88,-166.25 217.68,-112.58 227.49,-91.71"/>
<polygon fill="#63b8ff" stroke="#63b8ff" points="400.06,-394.97 410.3,-392.27 400.61,-388 400.06,-394.97"/>
</a>
</g>
</g>
<!-- Node10&#45;&gt;Node2 -->
<g id="edge11_Node000010_Node000002" class="edge">
<title>Node10&#45;&gt;Node2</title>
<g id="a_edge11_Node000010_Node000002"><a xlink:title=" ">
<path fill="none" stroke="#63b8ff" d="M350.77,-331.61C236.76,-315.94 42.88,-279.87 42.88,-215.75 42.88,-215.75 42.88,-215.75 42.88,-147.25 42.88,-100.58 59.52,-46.44 66.67,-25.33"/>
<polygon fill="#63b8ff" stroke="#63b8ff" points="350,-335.04 360.38,-332.91 350.94,-328.1 350,-335.04"/>
</a>
</g>
</g>
<!-- Node11 -->
<g id="Node000011" class="node">
<title>Node11</title>
<g id="a_Node000011"><a xlink:href="_base_i_o_8cpp.html" target="_top" xlink:title=" ">
<polygon fill="white" stroke="#666666" points="355.25,-290.88 260.5,-290.88 260.5,-271.62 355.25,-271.62 355.25,-290.88"/>
<text xml:space="preserve" text-anchor="middle" x="307.88" y="-277.38" font-family="Helvetica,sans-Serif" font-size="10.00">src/io/BaseIO.cpp</text>
</a>
</g>
</g>
<!-- Node10&#45;&gt;Node11 -->
<g id="edge10_Node000010_Node000011" class="edge">
<title>Node10&#45;&gt;Node11</title>
<g id="a_edge10_Node000010_Node000011"><a xlink:title=" ">
<path fill="none" stroke="#63b8ff" d="M402.37,-327.12C378.95,-316 346.9,-300.78 326.8,-291.23"/>
<polygon fill="#63b8ff" stroke="#63b8ff" points="400.87,-330.28 411.4,-331.41 403.87,-323.95 400.87,-330.28"/>
</a>
</g>
</g>
<!-- Node10&#45;&gt;Node12 -->
<g id="edge12_Node000010_Node000012" class="edge">
<title>Node10&#45;&gt;Node12</title>
<g id="a_edge12_Node000010_Node000012"><a xlink:title=" ">
<path fill="none" stroke="#63b8ff" d="M417.5,-322.99C411.93,-315.21 405.93,-305.78 401.88,-296.5 387.13,-262.71 382.88,-252.62 382.88,-215.75 382.88,-215.75 382.88,-215.75 382.88,-147.25 382.88,-100.83 394.7,-46.1 399.7,-25.08"/>
<polygon fill="#63b8ff" stroke="#63b8ff" points="414.66,-325.04 423.47,-330.92 420.25,-320.82 414.66,-325.04"/>
</a>
</g>
</g>
<!-- Node13 -->
<g id="Node000013" class="node">
<title>Node13</title>
<g id="a_Node000013"><a xlink:href="_registered_type_8cpp.html" target="_top" xlink:title=" ">
<polygon fill="white" stroke="#666666" points="551.12,-290.88 410.62,-290.88 410.62,-271.62 551.12,-271.62 551.12,-290.88"/>
<text xml:space="preserve" text-anchor="middle" x="480.88" y="-277.38" font-family="Helvetica,sans-Serif" font-size="10.00">src/nwb/RegisteredType.cpp</text>
</a>
</g>
</g>
<!-- Node10&#45;&gt;Node13 -->
<g id="edge13_Node000010_Node000013" class="edge">
<title>Node10&#45;&gt;Node13</title>
<g id="a_edge13_Node000010_Node000013"><a xlink:title=" ">
<path fill="none" stroke="#63b8ff" d="M446.68,-323.34C455.49,-312.75 466.29,-299.78 473.36,-291.28"/>
<polygon fill="#63b8ff" stroke="#63b8ff" points="443.99,-321.09 440.29,-331.02 449.37,-325.57 443.99,-321.09"/>
</a>
</g>
</g>
<!-- Node10&#45;&gt;Node14 -->
<g id="edge14_Node000010_Node000014" class="edge">
<title>Node10&#45;&gt;Node14</title>
<g id="a_edge14_Node000010_Node000014"><a xlink:title=" ">
<path fill="none" stroke="#63b8ff" d="M484.01,-329.63C531.62,-319.13 601.55,-303.71 648.58,-293.34"/>
<polygon fill="#63b8ff" stroke="#63b8ff" points="483.5,-326.16 474.49,-331.73 485.01,-332.99 483.5,-326.16"/>
</a>
</g>
</g>
<!-- Node15 -->
<g id="Node000015" class="node">
<title>Node15</title>
<g id="a_Node000015"><a xlink:href="_electrodes_table_8hpp.html" target="_top" xlink:title=" ">
<polygon fill="white" stroke="#666666" points="682.75,-224.38 525,-224.38 525,-205.12 682.75,-205.12 682.75,-224.38"/>
<text xml:space="preserve" text-anchor="middle" x="603.88" y="-210.88" font-family="Helvetica,sans-Serif" font-size="10.00">src/nwb/file/ElectrodesTable.hpp</text>
</a>
</g>
</g>
<!-- Node14&#45;&gt;Node15 -->
<g id="edge15_Node000014_Node000015" class="edge">
<title>Node14&#45;&gt;Node15</title>
<g id="a_edge15_Node000014_Node000015"><a xlink:title=" ">
<path fill="none" stroke="#63b8ff" d="M668.16,-259.4C650.92,-247.69 630.3,-233.69 617.15,-224.76"/>
<polygon fill="#63b8ff" stroke="#63b8ff" points="665.83,-262.04 676.07,-264.76 669.76,-256.25 665.83,-262.04"/>
</a>
</g>
</g>
<!-- Node21 -->
<g id="Node000021" class="node">
<title>Node21</title>
<g id="a_Node000021"><a xlink:href="_dynamic_table_8cpp.html" target="_top" xlink:title=" ">
<polygon fill="white" stroke="#666666" points="800.88,-230 700.88,-230 700.88,-199.5 800.88,-199.5 800.88,-230"/>
<text xml:space="preserve" text-anchor="start" x="708.88" y="-216.5" font-family="Helvetica,sans-Serif" font-size="10.00">src/nwb/hdmf/table</text>
<text xml:space="preserve" text-anchor="middle" x="750.88" y="-205.25" font-family="Helvetica,sans-Serif" font-size="10.00">/DynamicTable.cpp</text>
</a>
</g>
</g>
<!-- Node14&#45;&gt;Node21 -->
<g id="edge29_Node000014_Node000021" class="edge">
<title>Node14&#45;&gt;Node21</title>
<g id="a_edge29_Node000014_Node000021"><a xlink:title=" ">
<path fill="none" stroke="#63b8ff" d="M717.74,-256.85C724.89,-247.98 732.81,-238.15 739.12,-230.33"/>
<polygon fill="#63b8ff" stroke="#63b8ff" points="715.18,-254.45 711.62,-264.44 720.63,-258.85 715.18,-254.45"/>
</a>
</g>
</g>
<!-- Node15&#45;&gt;Node4 -->
<g id="edge16_Node000015_Node000004" class="edge">
<title>Node15&#45;&gt;Node4</title>
<g id="a_edge16_Node000015_Node000004"><a xlink:title=" ">
<path fill="none" stroke="#63b8ff" d="M647.01,-201.6C691.72,-189.01 760.56,-169.62 800.72,-158.31"/>
<polygon fill="#63b8ff" stroke="#63b8ff" points="646.33,-198.16 637.66,-204.24 648.23,-204.89 646.33,-198.16"/>
</a>
</g>
</g>
<!-- Node16 -->
<g id="Node000016" class="node">
<title>Node16</title>
<g id="a_Node000016"><a xlink:href="_electrical_series_8cpp.html" target="_top" xlink:title=" ">
<polygon fill="white" stroke="#666666" points="798.75,-97 665,-97 665,-66.5 798.75,-66.5 798.75,-97"/>
<text xml:space="preserve" text-anchor="start" x="673" y="-83.5" font-family="Helvetica,sans-Serif" font-size="10.00">src/nwb/ecephys/Electrical</text>
<text xml:space="preserve" text-anchor="middle" x="731.88" y="-72.25" font-family="Helvetica,sans-Serif" font-size="10.00">Series.cpp</text>
</a>
</g>
</g>
<!-- Node15&#45;&gt;Node16 -->
<g id="edge17_Node000015_Node000016" class="edge">
<title>Node15&#45;&gt;Node16</title>
<g id="a_edge17_Node000015_Node000016"><a xlink:title=" ">
<path fill="none" stroke="#63b8ff" d="M674.43,-201.3C695.72,-193.92 716.87,-182.19 729.88,-163.5 743.49,-143.93 739.91,-114.74 735.96,-97.34"/>
<polygon fill="#63b8ff" stroke="#63b8ff" points="673.61,-197.89 665.11,-204.22 675.7,-204.57 673.61,-197.89"/>
</a>
</g>
</g>
<!-- Node15&#45;&gt;Node17 -->
<g id="edge18_Node000015_Node000017" class="edge">
<title>Node15&#45;&gt;Node17</title>
<g id="a_edge18_Node000015_Node000017"><a xlink:title=" ">
<path fill="none" stroke="#63b8ff" d="M576.01,-199.49C555.28,-188.88 527.1,-174.45 506.25,-163.78"/>
<polygon fill="#63b8ff" stroke="#63b8ff" points="574.25,-202.51 584.74,-203.96 577.44,-196.28 574.25,-202.51"/>
</a>
</g>
</g>
<!-- Node20 -->
<g id="Node000020" class="node">
<title>Node20</title>
<g id="a_Node000020"><a xlink:href="_electrodes_table_8cpp.html" target="_top" xlink:title=" ">
<polygon fill="white" stroke="#666666" points="720.75,-157.88 563,-157.88 563,-138.62 720.75,-138.62 720.75,-157.88"/>
<text xml:space="preserve" text-anchor="middle" x="641.88" y="-144.38" font-family="Helvetica,sans-Serif" font-size="10.00">src/nwb/file/ElectrodesTable.cpp</text>
</a>
</g>
</g>
<!-- Node15&#45;&gt;Node20 -->
<g id="edge28_Node000015_Node000020" class="edge">
<title>Node15&#45;&gt;Node20</title>
<g id="a_edge28_Node000015_Node000020"><a xlink:title=" ">
<path fill="none" stroke="#63b8ff" d="M614.84,-195.14C622.01,-182.98 631.04,-167.64 636.64,-158.14"/>
<polygon fill="#63b8ff" stroke="#63b8ff" points="611.99,-193.08 609.93,-203.48 618.02,-196.64 611.99,-193.08"/>
</a>
</g>
</g>
<!-- Node17&#45;&gt;Node2 -->
<g id="edge19_Node000017_Node000002" class="edge">
<title>Node17&#45;&gt;Node2</title>
<g id="a_edge19_Node000017_Node000002"><a xlink:title=" ">
<path fill="none" stroke="#63b8ff" d="M399.32,-142.08C313.2,-135.3 181.45,-121.31 137.88,-97 106.82,-79.68 83.78,-42.24 74.44,-25.12"/>
<polygon fill="#63b8ff" stroke="#63b8ff" points="398.88,-145.56 409.12,-142.84 399.42,-138.58 398.88,-145.56"/>
</a>
</g>
</g>
<!-- Node17&#45;&gt;Node5 -->
<g id="edge21_Node000017_Node000005" class="edge">
<title>Node17&#45;&gt;Node5</title>
<g id="a_edge21_Node000017_Node000005"><a xlink:title=" ">
<path fill="none" stroke="#63b8ff" d="M528.28,-128.53C551.06,-119.64 578.13,-108.46 601.88,-97 626.7,-85.02 631.3,-78.97 655.88,-66.5 686.43,-50.99 722.77,-34.99 745.33,-25.33"/>
<polygon fill="#63b8ff" stroke="#63b8ff" points="527.29,-125.16 519.22,-132.03 529.81,-131.69 527.29,-125.16"/>
</a>
</g>
</g>
<!-- Node17&#45;&gt;Node12 -->
<g id="edge20_Node000017_Node000012" class="edge">
<title>Node17&#45;&gt;Node12</title>
<g id="a_edge20_Node000017_Node000012"><a xlink:title=" ">
<path fill="none" stroke="#63b8ff" d="M458.6,-123.87C452.25,-115.64 445.41,-106.15 439.88,-97 424.81,-72.07 411.38,-40.21 405.3,-25.04"/>
<polygon fill="#63b8ff" stroke="#63b8ff" points="455.84,-126.01 464.79,-131.68 461.32,-121.67 455.84,-126.01"/>
</a>
</g>
</g>
<!-- Node17&#45;&gt;Node16 -->
<g id="edge22_Node000017_Node000016" class="edge">
<title>Node17&#45;&gt;Node16</title>
<g id="a_edge22_Node000017_Node000016"><a xlink:title=" ">
<path fill="none" stroke="#63b8ff" d="M546.81,-129.75C586.7,-119.61 636.35,-107.01 674.17,-97.4"/>
<polygon fill="#63b8ff" stroke="#63b8ff" points="546.13,-126.31 537.3,-132.16 547.85,-133.09 546.13,-126.31"/>
</a>
</g>
</g>
<!-- Node18 -->
<g id="Node000018" class="node">
<title>Node18</title>
<g id="a_Node000018"><a xlink:href="_spike_event_series_8hpp.html" target="_top" xlink:title=" ">
<polygon fill="white" stroke="#666666" points="592.62,-97 449.12,-97 449.12,-66.5 592.62,-66.5 592.62,-97"/>
<text xml:space="preserve" text-anchor="start" x="457.12" y="-83.5" font-family="Helvetica,sans-Serif" font-size="10.00">src/nwb/ecephys/SpikeEvent</text>
<text xml:space="preserve" text-anchor="middle" x="520.88" y="-72.25" font-family="Helvetica,sans-Serif" font-size="10.00">Series.hpp</text>
</a>
</g>
</g>
<!-- Node17&#45;&gt;Node18 -->
<g id="edge23_Node000017_Node000018" class="edge">
<title>Node17&#45;&gt;Node18</title>
<g id="a_edge23_Node000017_Node000018"><a xlink:title=" ">
<path fill="none" stroke="#63b8ff" d="M493.85,-123.29C499.66,-114.57 506.05,-104.99 511.16,-97.33"/>
<polygon fill="#63b8ff" stroke="#63b8ff" points="491.11,-121.09 488.47,-131.35 496.93,-124.98 491.11,-121.09"/>
</a>
</g>
</g>
<!-- Node18&#45;&gt;Node2 -->
<g id="edge24_Node000018_Node000002" class="edge">
<title>Node18&#45;&gt;Node2</title>
<g id="a_edge24_Node000018_Node000002"><a xlink:title=" ">
<path fill="none" stroke="#63b8ff" d="M437.41,-70.55C361.92,-61.06 247.76,-46.09 148.88,-30.5 138.96,-28.94 128.38,-27.13 118.28,-25.33"/>
<polygon fill="#63b8ff" stroke="#63b8ff" points="436.87,-74.01 447.23,-71.78 437.74,-67.06 436.87,-74.01"/>
</a>
</g>
</g>
<!-- Node18&#45;&gt;Node5 -->
<g id="edge26_Node000018_Node000005" class="edge">
<title>Node18&#45;&gt;Node5</title>
<g id="a_edge26_Node000018_Node000005"><a xlink:title=" ">
<path fill="none" stroke="#63b8ff" d="M587.95,-63.16C634.61,-50.93 694.92,-35.12 732.24,-25.33"/>
<polygon fill="#63b8ff" stroke="#63b8ff" points="587.25,-59.73 578.47,-65.65 589.03,-66.5 587.25,-59.73"/>
</a>
</g>
</g>
<!-- Node18&#45;&gt;Node12 -->
<g id="edge25_Node000018_Node000012" class="edge">
<title>Node18&#45;&gt;Node12</title>
<g id="a_edge25_Node000018_Node000012"><a xlink:title=" ">
<path fill="none" stroke="#63b8ff" d="M483.89,-60.7C462.01,-48.84 435.36,-34.4 418.5,-25.26"/>
<polygon fill="#63b8ff" stroke="#63b8ff" points="482.08,-63.7 492.54,-65.39 485.42,-57.55 482.08,-63.7"/>
</a>
</g>
</g>
<!-- Node19 -->
<g id="Node000019" class="node">
<title>Node19</title>
<g id="a_Node000019"><a xlink:href="_spike_event_series_8cpp.html" target="_top" xlink:title=" ">
<polygon fill="white" stroke="#666666" points="618.62,-30.5 475.12,-30.5 475.12,0 618.62,0 618.62,-30.5"/>
<text xml:space="preserve" text-anchor="start" x="483.12" y="-17" font-family="Helvetica,sans-Serif" font-size="10.00">src/nwb/ecephys/SpikeEvent</text>
<text xml:space="preserve" text-anchor="middle" x="546.88" y="-5.75" font-family="Helvetica,sans-Serif" font-size="10.00">Series.cpp</text>
</a>
</g>
</g>
<!-- Node18&#45;&gt;Node19 -->
<g id="edge27_Node000018_Node000019" class="edge">
<title>Node18&#45;&gt;Node19</title>
<g id="a_edge27_Node000018_Node000019"><a xlink:title=" ">
<path fill="none" stroke="#63b8ff" d="M530.99,-55.66C534.38,-47.25 538.04,-38.16 541,-30.83"/>
<polygon fill="#63b8ff" stroke="#63b8ff" points="527.83,-54.13 527.34,-64.71 534.33,-56.74 527.83,-54.13"/>
</a>
</g>
</g>
<!-- Node23&#45;&gt;Node2 -->
<g id="edge35_Node000023_Node000002" class="edge">
<title>Node23&#45;&gt;Node2</title>
<g id="a_edge35_Node000023_Node000002"><a xlink:title=" ">
<path fill="none" stroke="#63b8ff" d="M198.5,-67.46C166.86,-54.87 120.19,-36.28 92.63,-25.31"/>
<polygon fill="#63b8ff" stroke="#63b8ff" points="197.02,-70.64 207.6,-71.09 199.61,-64.13 197.02,-70.64"/>
</a>
</g>
</g>
<!-- Node23&#45;&gt;Node5 -->
<g id="edge37_Node000023_Node000005" class="edge">
<title>Node23&#45;&gt;Node5</title>
<g id="a_edge37_Node000023_Node000005"><a xlink:title=" ">
<path fill="none" stroke="#63b8ff" d="M318.5,-70.31C429,-56.98 616.99,-34.32 710.54,-23.04"/>
<polygon fill="#63b8ff" stroke="#63b8ff" points="318.4,-66.79 308.9,-71.46 319.24,-73.74 318.4,-66.79"/>
</a>
</g>
</g>
<!-- Node23&#45;&gt;Node12 -->
<g id="edge36_Node000023_Node000012" class="edge">
<title>Node23&#45;&gt;Node12</title>
<g id="a_edge36_Node000023_Node000012"><a xlink:title=" ">
<path fill="none" stroke="#63b8ff" d="M266.46,-67.63C299.67,-55.03 348.95,-36.33 378,-25.31"/>
<polygon fill="#63b8ff" stroke="#63b8ff" points="265.39,-64.29 257.29,-71.11 267.88,-70.83 265.39,-64.29"/>
</a>
</g>
</g>
<!-- Node24 -->
<g id="Node000024" class="node">
<title>Node24</title>
<g id="a_Node000024"><a xlink:href="_annotation_series_8cpp.html" target="_top" xlink:title=" ">
<polygon fill="white" stroke="#666666" points="328.12,-24.88 157.62,-24.88 157.62,-5.63 328.12,-5.63 328.12,-24.88"/>
<text xml:space="preserve" text-anchor="middle" x="242.88" y="-11.38" font-family="Helvetica,sans-Serif" font-size="10.00">src/nwb/misc/AnnotationSeries.cpp</text>
</a>
</g>
</g>
<!-- Node23&#45;&gt;Node24 -->
<g id="edge38_Node000023_Node000024" class="edge">
<title>Node23&#45;&gt;Node24</title>
<g id="a_edge38_Node000023_Node000024"><a xlink:title=" ">
<path fill="none" stroke="#63b8ff" d="M235.3,-60.65C237.33,-48.75 239.8,-34.26 241.36,-25.14"/>
<polygon fill="#63b8ff" stroke="#63b8ff" points="231.89,-59.84 233.66,-70.29 238.79,-61.02 231.89,-59.84"/>
</a>
</g>
</g>
<!-- Node25&#45;&gt;Node5 -->
<g id="edge40_Node000025_Node000005" class="edge">
<title>Node25&#45;&gt;Node5</title>
<g id="a_edge40_Node000025_Node000005"><a xlink:title=" ">
<path fill="none" stroke="#63b8ff" d="M1194.78,-433.76C1200.74,-425.93 1207.27,-416.39 1211.88,-407 1224.91,-380.4 1230.88,-372.74 1230.88,-343.12 1230.88,-343.12 1230.88,-343.12 1230.88,-147.25 1230.88,-63.44 946.96,-30.59 823.31,-20.26"/>
<polygon fill="#63b8ff" stroke="#63b8ff" points="1192.15,-431.44 1188.66,-441.45 1197.62,-435.8 1192.15,-431.44"/>
</a>
</g>
</g>
<!-- Node26 -->
<g id="Node000026" class="node">
<title>Node26</title>
<g id="a_Node000026"><a xlink:href="_device_8cpp.html" target="_top" xlink:title=" ">
<polygon fill="white" stroke="#666666" points="1203.12,-407 1068.62,-407 1068.62,-387.75 1203.12,-387.75 1203.12,-407"/>
<text xml:space="preserve" text-anchor="middle" x="1135.88" y="-393.5" font-family="Helvetica,sans-Serif" font-size="10.00">src/nwb/device/Device.cpp</text>
</a>
</g>
</g>
<!-- Node25&#45;&gt;Node26 -->
<g id="edge41_Node000025_Node000026" class="edge">
<title>Node25&#45;&gt;Node26</title>
<g id="a_edge41_Node000025_Node000026"><a xlink:title=" ">
<path fill="none" stroke="#63b8ff" d="M1165.29,-433.97C1157.92,-425.06 1149.3,-414.62 1143.3,-407.36"/>
<polygon fill="#63b8ff" stroke="#63b8ff" points="1162.58,-436.19 1171.65,-441.67 1167.97,-431.73 1162.58,-436.19"/>
</a>
</g>
</g>
<!-- Node25&#45;&gt;Node27 -->
<g id="edge42_Node000025_Node000027" class="edge">
<title>Node25&#45;&gt;Node27</title>
<g id="a_edge42_Node000025_Node000027"><a xlink:title=" ">
<path fill="none" stroke="#63b8ff" d="M1133.99,-439.82C1096.02,-430.05 1042.87,-416.38 1008.16,-407.45"/>
<polygon fill="#63b8ff" stroke="#63b8ff" points="1132.74,-443.11 1143.29,-442.21 1134.48,-436.33 1132.74,-443.11"/>
</a>
</g>
</g>
<!-- Node27&#45;&gt;Node5 -->
<g id="edge43_Node000027_Node000005" class="edge">
<title>Node27&#45;&gt;Node5</title>
<g id="a_edge43_Node000027_Node000005"><a xlink:title=" ">
<path fill="none" stroke="#63b8ff" d="M1036.54,-385.1C1123.53,-367.86 1268.88,-331.65 1268.88,-282.25 1268.88,-282.25 1268.88,-282.25 1268.88,-147.25 1268.88,-109.81 1273.67,-90.43 1244.88,-66.5 1212.99,-40 942.5,-24.36 823.12,-18.69"/>
<polygon fill="#63b8ff" stroke="#63b8ff" points="1036.09,-381.62 1026.94,-386.97 1037.42,-388.5 1036.09,-381.62"/>
</a>
</g>
</g>
<!-- Node28 -->
<g id="Node000028" class="node">
<title>Node28</title>
<g id="a_Node000028"><a xlink:href="_electrode_group_8cpp.html" target="_top" xlink:title=" ">
<polygon fill="white" stroke="#666666" points="1050.62,-351.75 895.12,-351.75 895.12,-332.5 1050.62,-332.5 1050.62,-351.75"/>
<text xml:space="preserve" text-anchor="middle" x="972.88" y="-338.25" font-family="Helvetica,sans-Serif" font-size="10.00">src/nwb/file/ElectrodeGroup.cpp</text>
</a>
</g>
</g>
<!-- Node27&#45;&gt;Node28 -->
<g id="edge44_Node000027_Node000028" class="edge">
<title>Node27&#45;&gt;Node28</title>
<g id="a_edge44_Node000027_Node000028"><a xlink:title=" ">
<path fill="none" stroke="#63b8ff" d="M972.88,-376.13C972.88,-367.84 972.88,-358.67 972.88,-352.11"/>
<polygon fill="#63b8ff" stroke="#63b8ff" points="969.38,-376.07 972.88,-386.07 976.38,-376.07 969.38,-376.07"/>
</a>
</g>
</g>
</g>
</svg>

<g id="navigator" transform="translate(0 0)" fill="#404254">
  <rect fill="#f2f5e9" fill-opacity="0.5" stroke="#606060" stroke-width=".5" x="0" y="0" width="60" height="60"/>
  <use id="zoomplus" xlink:href="#zoomPlus" x="17" y="9" onmousedown="handleZoom(evt,'in')"/>
  <use id="zoomminus" xlink:href="#zoomMin" x="42" y="9" onmousedown="handleZoom(evt,'out')"/>
  <use id="reset" xlink:href="#resetDef" x="30" y="36" onmousedown="handleReset()"/>
   <use id="arrowup" xlink:href="#arrowUp" x="0" y="0" onmousedown="handlePan(0,-1)"/>
  <use id="arrowright" xlink:href="#arrowRight" x="0" y="0" onmousedown="handlePan(1,0)"/>
  <use id="arrowdown" xlink:href="#arrowDown" x="0" y="0" onmousedown="handlePan(0,1)"/>
  <use id="arrowleft" xlink:href="#arrowLeft" x="0" y="0" onmousedown="handlePan(-1,0)"/>
</g>
<svg viewBox="0 0 15 15" width="100%" height="30px" preserveAspectRatio="xMaxYMin meet">
 <g id="arrow_out" transform="scale(0.3 0.3)">
  <a xlink:href="_container_8hpp__dep__incl_org.svg" target="_base">
   <rect id="button" ry="5" rx="5" y="6" x="6" height="38" width="38"
        fill="#f2f5e9" fill-opacity="0.5" stroke="#606060" stroke-width="1.0"/>
   <path id="arrow"
     d="M 11.500037,31.436501 C 11.940474,20.09759 22.043105,11.32322 32.158766,21.979434 L 37.068811,17.246167 C 37.068811,17.246167 37.088388,32 37.088388,32 L 22.160133,31.978069 C 22.160133,31.978069 26.997745,27.140456 26.997745,27.140456 C 18.528582,18.264221 13.291696,25.230495 11.500037,31.436501 z"
     style="fill:#404040;"/>
  </a>
 </g>
</svg>

<style type='text/css'>
<![CDATA[
[data-mouse-over-selected='false'] { opacity: 0.7; }
[data-mouse-over-selected='true']  { opacity: 1.0; }
]]>
</style>
<script type="application/ecmascript"><![CDATA[
document.addEventListener('DOMContentLoaded', (event) => {
  highlightEdges();
  highlightAdjacentNodes();
});
]]></script>
</svg>
