<?xml version="1.0" encoding="UTF-8" standalone="no"?>
<!DOCTYPE svg PUBLIC "-//W3C//DTD SVG 1.1//EN"
 "http://www.w3.org/Graphics/SVG/1.1/DTD/svg11.dtd">
<!-- Generated by graphviz version 14.1.2 (20260124.0452)
 -->
<!-- Title: src/nwb/hdmf/base/Data.cpp Pages: 1 -->
<svg width="1564pt" height="469pt"
 viewBox="0.00 0.00 1564.00 469.00" xmlns="http://www.w3.org/2000/svg" xmlns:xlink="http://www.w3.org/1999/xlink">
<g id="graph0" class="graph" transform="scale(1 1) rotate(0) translate(4 465.25)">
<title>src/nwb/hdmf/base/Data.cpp</title>
<!-- Node1 -->
<g id="Node000001" class="node">
<title>Node1</title>
<g id="a_Node000001"><a xlink:title=" ">
<polygon fill="#999999" stroke="#666666" points="364,-461.25 222,-461.25 222,-442 364,-442 364,-461.25"/>
<text xml:space="preserve" text-anchor="middle" x="293" y="-447.75" font-family="Helvetica,sans-Serif" font-size="10.00">src/nwb/hdmf/base/Data.cpp</text>
</a>
</g>
</g>
<!-- Node2 -->
<g id="Node000002" class="node">
<title>Node2</title>
<g id="a_Node000002"><a xlink:href="_data_8hpp.html" target="_top" xlink:title=" ">
<polygon fill="white" stroke="#666666" points="355.75,-406 230.25,-406 230.25,-386.75 355.75,-386.75 355.75,-406"/>
<text xml:space="preserve" text-anchor="middle" x="293" y="-392.5" font-family="Helvetica,sans-Serif" font-size="10.00">nwb/hdmf/base/Data.hpp</text>
</a>
</g>
</g>
<!-- Node1&#45;&gt;Node2 -->
<g id="edge1_Node000001_Node000002" class="edge">
<title>Node1&#45;&gt;Node2</title>
<g id="a_edge1_Node000001_Node000002"><a xlink:title=" ">
<path fill="none" stroke="#63b8ff" d="M293,-441.83C293,-435.32 293,-426.17 293,-417.87"/>
<polygon fill="#63b8ff" stroke="#63b8ff" points="296.5,-417.87 293,-407.87 289.5,-417.87 296.5,-417.87"/>
</a>
</g>
</g>
<!-- Node3 -->
<g id="Node000003" class="node">
<title>Node3</title>
<g id="a_Node000003"><a xlink:title=" ">
<polygon fill="#e0e0e0" stroke="#999999" points="311.88,-74.5 280.12,-74.5 280.12,-55.25 311.88,-55.25 311.88,-74.5"/>
<text xml:space="preserve" text-anchor="middle" x="296" y="-61" font-family="Helvetica,sans-Serif" font-size="10.00">any</text>
</a>
</g>
</g>
<!-- Node2&#45;&gt;Node3 -->
<g id="edge2_Node000002_Node000003" class="edge">
<title>Node2&#45;&gt;Node3</title>
<g id="a_edge2_Node000002_Node000003"><a xlink:title=" ">
<path fill="none" stroke="#63b8ff" d="M293.08,-386.56C293.48,-342.9 295.24,-149.36 295.82,-86.02"/>
<polygon fill="#63b8ff" stroke="#63b8ff" points="299.31,-86.41 295.9,-76.38 292.31,-86.35 299.31,-86.41"/>
</a>
</g>
</g>
<!-- Node4 -->
<g id="Node000004" class="node">
<title>Node4</title>
<g id="a_Node000004"><a xlink:title=" ">
<polygon fill="#e0e0e0" stroke="#999999" points="92.62,-74.5 41.38,-74.5 41.38,-55.25 92.62,-55.25 92.62,-74.5"/>
<text xml:space="preserve" text-anchor="middle" x="67" y="-61" font-family="Helvetica,sans-Serif" font-size="10.00">memory</text>
</a>
</g>
</g>
<!-- Node2&#45;&gt;Node4 -->
<g id="edge3_Node000002_Node000004" class="edge">
<title>Node2&#45;&gt;Node4</title>
<g id="a_edge3_Node000002_Node000004"><a xlink:title=" ">
<path fill="none" stroke="#63b8ff" d="M236.51,-386.3C151.36,-371 0,-336.78 0,-286.88 0,-286.88 0,-286.88 0,-174.38 0,-137.35 28.6,-102.39 48.43,-82.6"/>
<polygon fill="#63b8ff" stroke="#63b8ff" points="50.63,-85.34 55.44,-75.9 45.79,-80.28 50.63,-85.34"/>
</a>
</g>
</g>
<!-- Node5 -->
<g id="Node000005" class="node">
<title>Node5</title>
<g id="a_Node000005"><a xlink:href="_base_i_o_8hpp.html" target="_top" xlink:title=" ">
<polygon fill="white" stroke="#666666" points="489.12,-129.75 410.88,-129.75 410.88,-110.5 489.12,-110.5 489.12,-129.75"/>
<text xml:space="preserve" text-anchor="middle" x="450" y="-116.25" font-family="Helvetica,sans-Serif" font-size="10.00">io/BaseIO.hpp</text>
</a>
</g>
</g>
<!-- Node2&#45;&gt;Node5 -->
<g id="edge4_Node000002_Node000005" class="edge">
<title>Node2&#45;&gt;Node5</title>
<g id="a_edge4_Node000002_Node000005"><a xlink:title=" ">
<path fill="none" stroke="#63b8ff" d="M295.51,-386.36C301.37,-366 317.06,-315.19 338,-276.25 366.84,-222.6 411.83,-166.21 435.04,-138.54"/>
<polygon fill="#63b8ff" stroke="#63b8ff" points="437.5,-141.05 441.3,-131.16 432.16,-136.52 437.5,-141.05"/>
</a>
</g>
</g>
<!-- Node19 -->
<g id="Node000019" class="node">
<title>Node19</title>
<g id="a_Node000019"><a xlink:href="_registered_type_8hpp.html" target="_top" xlink:title=" ">
<polygon fill="white" stroke="#666666" points="511,-350.75 387,-350.75 387,-331.5 511,-331.5 511,-350.75"/>
<text xml:space="preserve" text-anchor="middle" x="449" y="-337.25" font-family="Helvetica,sans-Serif" font-size="10.00">nwb/RegisteredType.hpp</text>
</a>
</g>
</g>
<!-- Node2&#45;&gt;Node19 -->
<g id="edge22_Node000002_Node000019" class="edge">
<title>Node2&#45;&gt;Node19</title>
<g id="a_edge22_Node000002_Node000019"><a xlink:title=" ">
<path fill="none" stroke="#63b8ff" d="M319.46,-386.34C344.79,-377.7 383.23,-364.57 411.67,-354.87"/>
<polygon fill="#63b8ff" stroke="#63b8ff" points="412.64,-358.23 420.97,-351.69 410.38,-351.61 412.64,-358.23"/>
</a>
</g>
</g>
<!-- Node37 -->
<g id="Node000037" class="node">
<title>Node37</title>
<g id="a_Node000037"><a xlink:href="hdmf__common_8hpp.html" target="_top" xlink:title=" ">
<polygon fill="white" stroke="#666666" points="1427.62,-185 1304.38,-185 1304.38,-165.75 1427.62,-165.75 1427.62,-185"/>
<text xml:space="preserve" text-anchor="middle" x="1366" y="-171.5" font-family="Helvetica,sans-Serif" font-size="10.00">spec/hdmf_common.hpp</text>
</a>
</g>
</g>
<!-- Node2&#45;&gt;Node37 -->
<g id="edge67_Node000002_Node000037" class="edge">
<title>Node2&#45;&gt;Node37</title>
<g id="a_edge67_Node000002_Node000037"><a xlink:title=" ">
<path fill="none" stroke="#63b8ff" d="M356.2,-393.1C538.02,-385.83 1059.34,-359.8 1216,-295.5 1272.69,-272.23 1325.49,-220.74 1350.62,-193.71"/>
<polygon fill="#63b8ff" stroke="#63b8ff" points="1353.16,-196.13 1357.3,-186.37 1347.98,-191.41 1353.16,-196.13"/>
</a>
</g>
</g>
<!-- Node5&#45;&gt;Node3 -->
<g id="edge6_Node000005_Node000003" class="edge">
<title>Node5&#45;&gt;Node3</title>
<g id="a_edge6_Node000005_Node000003"><a xlink:title=" ">
<path fill="none" stroke="#63b8ff" d="M423.88,-110.09C395.82,-100.39 351.45,-85.05 323.04,-75.23"/>
<polygon fill="#63b8ff" stroke="#63b8ff" points="324.32,-71.96 313.72,-72 322.03,-78.58 324.32,-71.96"/>
</a>
</g>
</g>
<!-- Node5&#45;&gt;Node4 -->
<g id="edge9_Node000005_Node000004" class="edge">
<title>Node5&#45;&gt;Node4</title>
<g id="a_edge9_Node000005_Node000004"><a xlink:title=" ">
<path fill="none" stroke="#63b8ff" d="M410.5,-115.65C347.59,-109.77 220.58,-96.52 104.15,-74.91"/>
<polygon fill="#63b8ff" stroke="#63b8ff" points="104.88,-71.49 94.4,-73.07 103.58,-78.37 104.88,-71.49"/>
</a>
</g>
</g>
<!-- Node6 -->
<g id="Node000006" class="node">
<title>Node6</title>
<g id="a_Node000006"><a xlink:title=" ">
<polygon fill="#e0e0e0" stroke="#999999" points="261.88,-74.5 206.12,-74.5 206.12,-55.25 261.88,-55.25 261.88,-74.5"/>
<text xml:space="preserve" text-anchor="middle" x="234" y="-61" font-family="Helvetica,sans-Serif" font-size="10.00">algorithm</text>
</a>
</g>
</g>
<!-- Node5&#45;&gt;Node6 -->
<g id="edge5_Node000005_Node000006" class="edge">
<title>Node5&#45;&gt;Node6</title>
<g id="a_edge5_Node000005_Node000006"><a xlink:title=" ">
<path fill="none" stroke="#63b8ff" d="M413.36,-110.09C374.47,-100.5 313.23,-85.41 273.35,-75.57"/>
<polygon fill="#63b8ff" stroke="#63b8ff" points="274.22,-72.18 263.67,-73.19 272.54,-78.98 274.22,-72.18"/>
</a>
</g>
</g>
<!-- Node7 -->
<g id="Node000007" class="node">
<title>Node7</title>
<g id="a_Node000007"><a xlink:title=" ">
<polygon fill="#e0e0e0" stroke="#999999" points="818.62,-74.5 773.38,-74.5 773.38,-55.25 818.62,-55.25 818.62,-74.5"/>
<text xml:space="preserve" text-anchor="middle" x="796" y="-61" font-family="Helvetica,sans-Serif" font-size="10.00">cstdint</text>
</a>
</g>
</g>
<!-- Node5&#45;&gt;Node7 -->
<g id="edge7_Node000005_Node000007" class="edge">
<title>Node5&#45;&gt;Node7</title>
<g id="a_edge7_Node000005_Node000007"><a xlink:title=" ">
<path fill="none" stroke="#63b8ff" d="M489.43,-115.09C547.14,-108.84 658.17,-95.52 762.01,-74.67"/>
<polygon fill="#63b8ff" stroke="#63b8ff" points="762.43,-78.16 771.53,-72.73 761.03,-71.3 762.43,-78.16"/>
</a>
</g>
</g>
<!-- Node8 -->
<g id="Node000008" class="node">
<title>Node8</title>
<g id="a_Node000008"><a xlink:title=" ">
<polygon fill="#e0e0e0" stroke="#999999" points="602.75,-74.5 549.25,-74.5 549.25,-55.25 602.75,-55.25 602.75,-74.5"/>
<text xml:space="preserve" text-anchor="middle" x="576" y="-61" font-family="Helvetica,sans-Serif" font-size="10.00">iostream</text>
</a>
</g>
</g>
<!-- Node5&#45;&gt;Node8 -->
<g id="edge8_Node000005_Node000008" class="edge">
<title>Node5&#45;&gt;Node8</title>
<g id="a_edge8_Node000005_Node000008"><a xlink:title=" ">
<path fill="none" stroke="#63b8ff" d="M471.37,-110.09C491.29,-101.68 521.24,-89.02 544,-79.4"/>
<polygon fill="#63b8ff" stroke="#63b8ff" points="545.28,-82.66 553.13,-75.54 542.55,-76.21 545.28,-82.66"/>
</a>
</g>
</g>
<!-- Node9 -->
<g id="Node000009" class="node">
<title>Node9</title>
<g id="a_Node000009"><a xlink:title=" ">
<polygon fill="#e0e0e0" stroke="#999999" points="1230,-19.25 1190,-19.25 1190,0 1230,0 1230,-19.25"/>
<text xml:space="preserve" text-anchor="middle" x="1210" y="-5.75" font-family="Helvetica,sans-Serif" font-size="10.00">string</text>
</a>
</g>
</g>
<!-- Node5&#45;&gt;Node9 -->
<g id="edge10_Node000005_Node000009" class="edge">
<title>Node5&#45;&gt;Node9</title>
<g id="a_edge10_Node000005_Node000009"><a xlink:title=" ">
<path fill="none" stroke="#63b8ff" d="M461.13,-110.05C481.15,-93.92 522.76,-61.38 540,-55.25 659.87,-12.6 1062.41,-10.24 1178.45,-10.47"/>
<polygon fill="#63b8ff" stroke="#63b8ff" points="1178.14,-13.97 1188.15,-10.5 1178.16,-6.97 1178.14,-13.97"/>
</a>
</g>
</g>
<!-- Node10 -->
<g id="Node000010" class="node">
<title>Node10</title>
<g id="a_Node000010"><a xlink:title=" ">
<polygon fill="#e0e0e0" stroke="#999999" points="755,-74.5 697,-74.5 697,-55.25 755,-55.25 755,-74.5"/>
<text xml:space="preserve" text-anchor="middle" x="726" y="-61" font-family="Helvetica,sans-Serif" font-size="10.00">typeindex</text>
</a>
</g>
</g>
<!-- Node5&#45;&gt;Node10 -->
<g id="edge11_Node000005_Node000010" class="edge">
<title>Node5&#45;&gt;Node10</title>
<g id="a_edge11_Node000005_Node000010"><a xlink:title=" ">
<path fill="none" stroke="#63b8ff" d="M489.54,-111.5C541.65,-101.44 632.83,-83.85 685.43,-73.7"/>
<polygon fill="#63b8ff" stroke="#63b8ff" points="686.03,-77.15 695.19,-71.82 684.71,-70.28 686.03,-77.15"/>
</a>
</g>
</g>
<!-- Node11 -->
<g id="Node000011" class="node">
<title>Node11</title>
<g id="a_Node000011"><a xlink:title=" ">
<polygon fill="#e0e0e0" stroke="#999999" points="1199.38,-74.5 1116.62,-74.5 1116.62,-55.25 1199.38,-55.25 1199.38,-74.5"/>
<text xml:space="preserve" text-anchor="middle" x="1158" y="-61" font-family="Helvetica,sans-Serif" font-size="10.00">unordered_map</text>
</a>
</g>
</g>
<!-- Node5&#45;&gt;Node11 -->
<g id="edge12_Node000005_Node000011" class="edge">
<title>Node5&#45;&gt;Node11</title>
<g id="a_edge12_Node000005_Node000011"><a xlink:title=" ">
<path fill="none" stroke="#63b8ff" d="M489.58,-116.15C609.56,-107.12 969.25,-80.07 1105.19,-69.85"/>
<polygon fill="#63b8ff" stroke="#63b8ff" points="1105.27,-73.35 1114.98,-69.11 1104.75,-66.37 1105.27,-73.35"/>
</a>
</g>
</g>
<!-- Node12 -->
<g id="Node000012" class="node">
<title>Node12</title>
<g id="a_Node000012"><a xlink:title=" ">
<polygon fill="#e0e0e0" stroke="#999999" points="187.75,-74.5 110.25,-74.5 110.25,-55.25 187.75,-55.25 187.75,-74.5"/>
<text xml:space="preserve" text-anchor="middle" x="149" y="-61" font-family="Helvetica,sans-Serif" font-size="10.00">unordered_set</text>
</a>
</g>
</g>
<!-- Node5&#45;&gt;Node12 -->
<g id="edge13_Node000005_Node000012" class="edge">
<title>Node5&#45;&gt;Node12</title>
<g id="a_edge13_Node000005_Node000012"><a xlink:title=" ">
<path fill="none" stroke="#63b8ff" d="M410.55,-112.21C362.91,-103.84 280.04,-89.27 198.94,-74.84"/>
<polygon fill="#63b8ff" stroke="#63b8ff" points="199.98,-71.47 189.52,-73.16 198.75,-78.36 199.98,-71.47"/>
</a>
</g>
</g>
<!-- Node13 -->
<g id="Node000013" class="node">
<title>Node13</title>
<g id="a_Node000013"><a xlink:title=" ">
<polygon fill="#e0e0e0" stroke="#999999" points="375.62,-74.5 330.38,-74.5 330.38,-55.25 375.62,-55.25 375.62,-74.5"/>
<text xml:space="preserve" text-anchor="middle" x="353" y="-61" font-family="Helvetica,sans-Serif" font-size="10.00">variant</text>
</a>
</g>
</g>
<!-- Node5&#45;&gt;Node13 -->
<g id="edge14_Node000005_Node000013" class="edge">
<title>Node5&#45;&gt;Node13</title>
<g id="a_edge14_Node000005_Node000013"><a xlink:title=" ">
<path fill="none" stroke="#63b8ff" d="M433.55,-110.09C418.77,-101.98 396.82,-89.93 379.57,-80.46"/>
<polygon fill="#63b8ff" stroke="#63b8ff" points="381.31,-77.43 370.86,-75.68 377.94,-83.56 381.31,-77.43"/>
</a>
</g>
</g>
<!-- Node14 -->
<g id="Node000014" class="node">
<title>Node14</title>
<g id="a_Node000014"><a xlink:title=" ">
<polygon fill="#e0e0e0" stroke="#999999" points="690.5,-19.25 647.5,-19.25 647.5,0 690.5,0 690.5,-19.25"/>
<text xml:space="preserve" text-anchor="middle" x="669" y="-5.75" font-family="Helvetica,sans-Serif" font-size="10.00">vector</text>
</a>
</g>
</g>
<!-- Node5&#45;&gt;Node14 -->
<g id="edge15_Node000005_Node000014" class="edge">
<title>Node5&#45;&gt;Node14</title>
<g id="a_edge15_Node000005_Node000014"><a xlink:title=" ">
<path fill="none" stroke="#63b8ff" d="M455.48,-110.23C464.48,-96.36 483.76,-69.67 507,-55.25 547.24,-30.27 601.6,-19.03 635.98,-14.14"/>
<polygon fill="#63b8ff" stroke="#63b8ff" points="636.29,-17.63 645.75,-12.87 635.39,-10.69 636.29,-17.63"/>
</a>
</g>
</g>
<!-- Node15 -->
<g id="Node000015" class="node">
<title>Node15</title>
<g id="a_Node000015"><a xlink:href="_types_8hpp.html" target="_top" xlink:title=" ">
<polygon fill="white" stroke="#666666" points="454.5,-74.5 393.5,-74.5 393.5,-55.25 454.5,-55.25 454.5,-74.5"/>
<text xml:space="preserve" text-anchor="middle" x="424" y="-61" font-family="Helvetica,sans-Serif" font-size="10.00">Types.hpp</text>
</a>
</g>
</g>
<!-- Node5&#45;&gt;Node15 -->
<g id="edge16_Node000005_Node000015" class="edge">
<title>Node5&#45;&gt;Node15</title>
<g id="a_edge16_Node000005_Node000015"><a xlink:title=" ">
<path fill="none" stroke="#63b8ff" d="M445.71,-110.33C442.38,-103.51 437.64,-93.81 433.44,-85.2"/>
<polygon fill="#63b8ff" stroke="#63b8ff" points="436.58,-83.67 429.05,-76.22 430.29,-86.74 436.58,-83.67"/>
</a>
</g>
</g>
<!-- Node15&#45;&gt;Node9 -->
<g id="edge19_Node000015_Node000009" class="edge">
<title>Node15&#45;&gt;Node9</title>
<g id="a_edge19_Node000015_Node000009"><a xlink:title=" ">
<path fill="none" stroke="#63b8ff" d="M454.72,-60.39C470.36,-58.69 489.68,-56.7 507,-55.25 765.84,-33.59 1079.08,-17.16 1178.28,-12.18"/>
<polygon fill="#63b8ff" stroke="#63b8ff" points="1178.24,-15.69 1188.05,-11.7 1177.89,-8.7 1178.24,-15.69"/>
</a>
</g>
</g>
<!-- Node15&#45;&gt;Node14 -->
<g id="edge21_Node000015_Node000014" class="edge">
<title>Node15&#45;&gt;Node14</title>
<g id="a_edge21_Node000015_Node000014"><a xlink:title=" ">
<path fill="none" stroke="#63b8ff" d="M454.53,-57.24C500.77,-47.19 588.2,-28.19 635.91,-17.82"/>
<polygon fill="#63b8ff" stroke="#63b8ff" points="636.62,-21.24 645.65,-15.7 635.14,-14.4 636.62,-21.24"/>
</a>
</g>
</g>
<!-- Node16 -->
<g id="Node000016" class="node">
<title>Node16</title>
<g id="a_Node000016"><a xlink:title=" ">
<polygon fill="#e0e0e0" stroke="#999999" points="473.12,-19.25 424.88,-19.25 424.88,0 473.12,0 473.12,-19.25"/>
<text xml:space="preserve" text-anchor="middle" x="449" y="-5.75" font-family="Helvetica,sans-Serif" font-size="10.00">cstddef</text>
</a>
</g>
</g>
<!-- Node15&#45;&gt;Node16 -->
<g id="edge17_Node000015_Node000016" class="edge">
<title>Node15&#45;&gt;Node16</title>
<g id="a_edge17_Node000015_Node000016"><a xlink:title=" ">
<path fill="none" stroke="#63b8ff" d="M428.13,-55.08C431.33,-48.26 435.89,-38.56 439.93,-29.95"/>
<polygon fill="#63b8ff" stroke="#63b8ff" points="443.06,-31.52 444.14,-20.98 436.72,-28.54 443.06,-31.52"/>
</a>
</g>
</g>
<!-- Node17 -->
<g id="Node000017" class="node">
<title>Node17</title>
<g id="a_Node000017"><a xlink:title=" ">
<polygon fill="#e0e0e0" stroke="#999999" points="406.62,-19.25 367.38,-19.25 367.38,0 406.62,0 406.62,-19.25"/>
<text xml:space="preserve" text-anchor="middle" x="387" y="-5.75" font-family="Helvetica,sans-Serif" font-size="10.00">limits</text>
</a>
</g>
</g>
<!-- Node15&#45;&gt;Node17 -->
<g id="edge18_Node000015_Node000017" class="edge">
<title>Node15&#45;&gt;Node17</title>
<g id="a_edge18_Node000015_Node000017"><a xlink:title=" ">
<path fill="none" stroke="#63b8ff" d="M417.89,-55.08C412.94,-47.96 405.8,-37.68 399.63,-28.8"/>
<polygon fill="#63b8ff" stroke="#63b8ff" points="402.69,-27.07 394.11,-20.85 396.94,-31.06 402.69,-27.07"/>
</a>
</g>
</g>
<!-- Node18 -->
<g id="Node000018" class="node">
<title>Node18</title>
<g id="a_Node000018"><a xlink:title=" ">
<polygon fill="#e0e0e0" stroke="#999999" points="578.88,-19.25 517.12,-19.25 517.12,0 578.88,0 578.88,-19.25"/>
<text xml:space="preserve" text-anchor="middle" x="548" y="-5.75" font-family="Helvetica,sans-Serif" font-size="10.00">type_traits</text>
</a>
</g>
</g>
<!-- Node15&#45;&gt;Node18 -->
<g id="edge20_Node000015_Node000018" class="edge">
<title>Node15&#45;&gt;Node18</title>
<g id="a_edge20_Node000015_Node000018"><a xlink:title=" ">
<path fill="none" stroke="#63b8ff" d="M445.03,-54.84C464.63,-46.43 494.11,-33.77 516.51,-24.15"/>
<polygon fill="#63b8ff" stroke="#63b8ff" points="517.66,-27.46 525.47,-20.3 514.9,-21.03 517.66,-27.46"/>
</a>
</g>
</g>
<!-- Node19&#45;&gt;Node4 -->
<g id="edge25_Node000019_Node000004" class="edge">
<title>Node19&#45;&gt;Node4</title>
<g id="a_edge25_Node000019_Node000004"><a xlink:title=" ">
<path fill="none" stroke="#63b8ff" d="M386.57,-334.53C321.04,-327.75 223.16,-314.79 191,-295.5 112.52,-248.42 80.68,-132.66 70.75,-85.93"/>
<polygon fill="#63b8ff" stroke="#63b8ff" points="74.19,-85.3 68.8,-76.17 67.33,-86.67 74.19,-85.3"/>
</a>
</g>
</g>
<!-- Node19&#45;&gt;Node5 -->
<g id="edge65_Node000019_Node000005" class="edge">
<title>Node19&#45;&gt;Node5</title>
<g id="a_edge65_Node000019_Node000005"><a xlink:title=" ">
<path fill="none" stroke="#63b8ff" d="M446.21,-331.16C440.98,-313.81 429.88,-274.37 426,-240.25 425.03,-231.75 424.99,-229.5 426,-221 429.35,-192.7 437.87,-160.8 443.8,-140.84"/>
<polygon fill="#63b8ff" stroke="#63b8ff" points="447.07,-142.12 446.65,-131.53 440.38,-140.07 447.07,-142.12"/>
</a>
</g>
</g>
<!-- Node19&#45;&gt;Node9 -->
<g id="edge26_Node000019_Node000009" class="edge">
<title>Node19&#45;&gt;Node9</title>
<g id="a_edge26_Node000019_Node000009"><a xlink:title=" ">
<path fill="none" stroke="#63b8ff" d="M511.25,-340.52C633.36,-340.33 912.45,-335.11 1143,-295.5 1231.78,-280.25 1251.44,-265.19 1338,-240.25 1435.01,-212.29 1556,-277.34 1556,-176.38 1556,-176.38 1556,-176.38 1556,-119.12 1556,-78.94 1527.82,-73.47 1492,-55.25 1448.63,-33.18 1305.9,-18.71 1241.74,-13.17"/>
<polygon fill="#63b8ff" stroke="#63b8ff" points="1242.12,-9.69 1231.87,-12.34 1241.54,-16.67 1242.12,-9.69"/>
</a>
</g>
</g>
<!-- Node19&#45;&gt;Node11 -->
<g id="edge27_Node000019_Node000011" class="edge">
<title>Node19&#45;&gt;Node11</title>
<g id="a_edge27_Node000019_Node000011"><a xlink:title=" ">
<path fill="none" stroke="#63b8ff" d="M511.28,-341.02C614.64,-341.21 827.48,-336 1002,-295.5 1077.39,-278 1164,-309.02 1164,-231.62 1164,-231.62 1164,-231.62 1164,-174.38 1164,-143.61 1161.57,-108.01 1159.8,-86.22"/>
<polygon fill="#63b8ff" stroke="#63b8ff" points="1163.3,-86.04 1158.96,-76.38 1156.32,-86.64 1163.3,-86.04"/>
</a>
</g>
</g>
<!-- Node19&#45;&gt;Node12 -->
<g id="edge28_Node000019_Node000012" class="edge">
<title>Node19&#45;&gt;Node12</title>
<g id="a_edge28_Node000019_Node000012"><a xlink:title=" ">
<path fill="none" stroke="#63b8ff" d="M390.68,-331C304.18,-315.81 152,-281.92 152,-231.62 152,-231.62 152,-231.62 152,-174.38 152,-143.64 150.78,-108.04 149.9,-86.24"/>
<polygon fill="#63b8ff" stroke="#63b8ff" points="153.4,-86.23 149.48,-76.39 146.41,-86.53 153.4,-86.23"/>
</a>
</g>
</g>
<!-- Node19&#45;&gt;Node15 -->
<g id="edge29_Node000019_Node000015" class="edge">
<title>Node19&#45;&gt;Node15</title>
<g id="a_edge29_Node000019_Node000015"><a xlink:title=" ">
<path fill="none" stroke="#63b8ff" d="M403.66,-331.05C383.96,-324.61 362.73,-313.74 351,-295.5 305.62,-224.98 376.08,-124.09 408.78,-83.65"/>
<polygon fill="#63b8ff" stroke="#63b8ff" points="411.36,-86.02 415.05,-76.09 405.97,-81.55 411.36,-86.02"/>
</a>
</g>
</g>
<!-- Node20 -->
<g id="Node000020" class="node">
<title>Node20</title>
<g id="a_Node000020"><a xlink:title=" ">
<polygon fill="#e0e0e0" stroke="#999999" points="420.5,-295.5 359.5,-295.5 359.5,-276.25 420.5,-276.25 420.5,-295.5"/>
<text xml:space="preserve" text-anchor="middle" x="390" y="-282" font-family="Helvetica,sans-Serif" font-size="10.00">filesystem</text>
</a>
</g>
</g>
<!-- Node19&#45;&gt;Node20 -->
<g id="edge23_Node000019_Node000020" class="edge">
<title>Node19&#45;&gt;Node20</title>
<g id="a_edge23_Node000019_Node000020"><a xlink:title=" ">
<path fill="none" stroke="#63b8ff" d="M438.99,-331.09C430.63,-323.55 418.5,-312.6 408.4,-303.48"/>
<polygon fill="#63b8ff" stroke="#63b8ff" points="410.75,-300.89 400.98,-296.79 406.06,-306.09 410.75,-300.89"/>
</a>
</g>
</g>
<!-- Node21 -->
<g id="Node000021" class="node">
<title>Node21</title>
<g id="a_Node000021"><a xlink:title=" ">
<polygon fill="#e0e0e0" stroke="#999999" points="1275,-74.5 1217,-74.5 1217,-55.25 1275,-55.25 1275,-74.5"/>
<text xml:space="preserve" text-anchor="middle" x="1246" y="-61" font-family="Helvetica,sans-Serif" font-size="10.00">functional</text>
</a>
</g>
</g>
<!-- Node19&#45;&gt;Node21 -->
<g id="edge24_Node000019_Node000021" class="edge">
<title>Node19&#45;&gt;Node21</title>
<g id="a_edge24_Node000019_Node000021"><a xlink:title=" ">
<path fill="none" stroke="#63b8ff" d="M511.48,-339.12C649.93,-336.36 978.71,-326.63 1085,-295.5 1141.86,-278.85 1202,-290.87 1202,-231.62 1202,-231.62 1202,-231.62 1202,-174.38 1202,-140.79 1220.32,-105.37 1233.32,-84.47"/>
<polygon fill="#63b8ff" stroke="#63b8ff" points="1236.17,-86.51 1238.68,-76.21 1230.3,-82.69 1236.17,-86.51"/>
</a>
</g>
</g>
<!-- Node22 -->
<g id="Node000022" class="node">
<title>Node22</title>
<g id="a_Node000022"><a xlink:href="_utils_8hpp.html" target="_top" xlink:title=" ">
<polygon fill="white" stroke="#666666" points="774.5,-295.5 719.5,-295.5 719.5,-276.25 774.5,-276.25 774.5,-295.5"/>
<text xml:space="preserve" text-anchor="middle" x="747" y="-282" font-family="Helvetica,sans-Serif" font-size="10.00">Utils.hpp</text>
</a>
</g>
</g>
<!-- Node19&#45;&gt;Node22 -->
<g id="edge30_Node000019_Node000022" class="edge">
<title>Node19&#45;&gt;Node22</title>
<g id="a_edge30_Node000019_Node000022"><a xlink:title=" ">
<path fill="none" stroke="#63b8ff" d="M499.89,-331.03C558.9,-320.49 654.85,-303.34 708.17,-293.81"/>
<polygon fill="#63b8ff" stroke="#63b8ff" points="708.47,-297.32 717.7,-292.11 707.24,-290.43 708.47,-297.32"/>
</a>
</g>
</g>
<!-- Node33 -->
<g id="Node000033" class="node">
<title>Node33</title>
<g id="a_Node000033"><a xlink:href="_read_i_o_8hpp.html" target="_top" xlink:title=" ">
<polygon fill="white" stroke="#666666" points="798.5,-185 719.5,-185 719.5,-165.75 798.5,-165.75 798.5,-185"/>
<text xml:space="preserve" text-anchor="middle" x="759" y="-171.5" font-family="Helvetica,sans-Serif" font-size="10.00">io/ReadIO.hpp</text>
</a>
</g>
</g>
<!-- Node19&#45;&gt;Node33 -->
<g id="edge66_Node000019_Node000033" class="edge">
<title>Node19&#45;&gt;Node33</title>
<g id="a_edge66_Node000019_Node000033"><a xlink:title=" ">
<path fill="none" stroke="#63b8ff" d="M511.3,-340C654.27,-338.24 999.02,-325.1 1069,-240.25 1074.44,-233.65 1074.6,-227.47 1069,-221 1036.13,-183.05 889.37,-176.63 810.14,-176"/>
<polygon fill="#63b8ff" stroke="#63b8ff" points="810.49,-172.5 800.47,-175.95 810.45,-179.5 810.49,-172.5"/>
</a>
</g>
</g>
<!-- Node22&#45;&gt;Node5 -->
<g id="edge42_Node000022_Node000005" class="edge">
<title>Node22&#45;&gt;Node5</title>
<g id="a_edge42_Node000022_Node000005"><a xlink:title=" ">
<path fill="none" stroke="#63b8ff" d="M741.29,-275.93C731.91,-261.99 711.87,-235.2 688,-221 632.05,-187.71 605.51,-211.41 546,-185 517.62,-172.4 488.38,-151.62 469.75,-137.2"/>
<polygon fill="#63b8ff" stroke="#63b8ff" points="472,-134.51 461.99,-131.06 467.66,-140 472,-134.51"/>
</a>
</g>
</g>
<!-- Node22&#45;&gt;Node6 -->
<g id="edge31_Node000022_Node000006" class="edge">
<title>Node22&#45;&gt;Node6</title>
<g id="a_edge31_Node000022_Node000006"><a xlink:title=" ">
<path fill="none" stroke="#63b8ff" d="M719.08,-283.11C650.95,-278.47 477.98,-264.58 426,-240.25 345.85,-202.74 275.61,-120.06 247.3,-83.66"/>
<polygon fill="#63b8ff" stroke="#63b8ff" points="250.22,-81.73 241.37,-75.91 244.66,-85.98 250.22,-81.73"/>
</a>
</g>
</g>
<!-- Node22&#45;&gt;Node7 -->
<g id="edge35_Node000022_Node000007" class="edge">
<title>Node22&#45;&gt;Node7</title>
<g id="a_edge35_Node000022_Node000007"><a xlink:title=" ">
<path fill="none" stroke="#63b8ff" d="M774.64,-275.95C795.82,-268.35 825.2,-256.15 848,-240.25 904.08,-201.16 929.35,-193.12 955,-129.75 958.21,-121.82 960.17,-117.32 955,-110.5 939.96,-90.66 872.15,-77.2 830.09,-70.6"/>
<polygon fill="#63b8ff" stroke="#63b8ff" points="830.88,-67.18 820.47,-69.14 829.84,-74.1 830.88,-67.18"/>
</a>
</g>
</g>
<!-- Node22&#45;&gt;Node9 -->
<g id="edge41_Node000022_Node000009" class="edge">
<title>Node22&#45;&gt;Node9</title>
<g id="a_edge41_Node000022_Node000009"><a xlink:title=" ">
<path fill="none" stroke="#63b8ff" d="M774.7,-284.46C890.08,-282.19 1331.47,-268.15 1437,-185 1483.91,-148.03 1510.53,-100.89 1472,-55.25 1442.78,-20.63 1304.26,-12.87 1241.29,-11.13"/>
<polygon fill="#63b8ff" stroke="#63b8ff" points="1241.7,-7.64 1231.62,-10.9 1241.53,-14.63 1241.7,-7.64"/>
</a>
</g>
</g>
<!-- Node23 -->
<g id="Node000023" class="node">
<title>Node23</title>
<g id="a_Node000023"><a xlink:title=" ">
<polygon fill="#e0e0e0" stroke="#999999" points="1135.88,-129.75 1098.12,-129.75 1098.12,-110.5 1135.88,-110.5 1135.88,-129.75"/>
<text xml:space="preserve" text-anchor="middle" x="1117" y="-116.25" font-family="Helvetica,sans-Serif" font-size="10.00">array</text>
</a>
</g>
</g>
<!-- Node22&#45;&gt;Node23 -->
<g id="edge32_Node000022_Node000023" class="edge">
<title>Node22&#45;&gt;Node23</title>
<g id="a_edge32_Node000022_Node000023"><a xlink:title=" ">
<path fill="none" stroke="#63b8ff" d="M774.82,-284.51C844.35,-283.05 1023.4,-275.84 1069,-240.25 1100.11,-215.97 1111.14,-168.33 1114.99,-141.23"/>
<polygon fill="#63b8ff" stroke="#63b8ff" points="1118.44,-141.93 1116.15,-131.58 1111.49,-141.09 1118.44,-141.93"/>
</a>
</g>
</g>
<!-- Node24 -->
<g id="Node000024" class="node">
<title>Node24</title>
<g id="a_Node000024"><a xlink:title=" ">
<polygon fill="#e0e0e0" stroke="#999999" points="940.62,-240.25 895.38,-240.25 895.38,-221 940.62,-221 940.62,-240.25"/>
<text xml:space="preserve" text-anchor="middle" x="918" y="-226.75" font-family="Helvetica,sans-Serif" font-size="10.00">chrono</text>
</a>
</g>
</g>
<!-- Node22&#45;&gt;Node24 -->
<g id="edge33_Node000022_Node000024" class="edge">
<title>Node22&#45;&gt;Node24</title>
<g id="a_edge33_Node000022_Node000024"><a xlink:title=" ">
<path fill="none" stroke="#63b8ff" d="M774.85,-276.2C804.82,-266.87 852.48,-252.03 884.48,-242.06"/>
<polygon fill="#63b8ff" stroke="#63b8ff" points="885.14,-245.52 893.64,-239.21 883.06,-238.84 885.14,-245.52"/>
</a>
</g>
</g>
<!-- Node25 -->
<g id="Node000025" class="node">
<title>Node25</title>
<g id="a_Node000025"><a xlink:title=" ">
<polygon fill="#e0e0e0" stroke="#999999" points="1001.5,-240.25 958.5,-240.25 958.5,-221 1001.5,-221 1001.5,-240.25"/>
<text xml:space="preserve" text-anchor="middle" x="980" y="-226.75" font-family="Helvetica,sans-Serif" font-size="10.00">cmath</text>
</a>
</g>
</g>
<!-- Node22&#45;&gt;Node25 -->
<g id="edge34_Node000022_Node000025" class="edge">
<title>Node22&#45;&gt;Node25</title>
<g id="a_edge34_Node000022_Node000025"><a xlink:title=" ">
<path fill="none" stroke="#63b8ff" d="M774.71,-279.37C811.85,-271.86 880.05,-257.63 946.94,-240.91"/>
<polygon fill="#63b8ff" stroke="#63b8ff" points="947.78,-244.31 956.62,-238.47 946.07,-237.52 947.78,-244.31"/>
</a>
</g>
</g>
<!-- Node26 -->
<g id="Node000026" class="node">
<title>Node26</title>
<g id="a_Node000026"><a xlink:title=" ">
<polygon fill="#e0e0e0" stroke="#999999" points="1060,-240.25 1020,-240.25 1020,-221 1060,-221 1060,-240.25"/>
<text xml:space="preserve" text-anchor="middle" x="1040" y="-226.75" font-family="Helvetica,sans-Serif" font-size="10.00">ctime</text>
</a>
</g>
</g>
<!-- Node22&#45;&gt;Node26 -->
<g id="edge36_Node000022_Node000026" class="edge">
<title>Node22&#45;&gt;Node26</title>
<g id="a_edge36_Node000022_Node000026"><a xlink:title=" ">
<path fill="none" stroke="#63b8ff" d="M774.97,-281.29C821.51,-275.07 917.95,-261.17 1008.76,-240.52"/>
<polygon fill="#63b8ff" stroke="#63b8ff" points="1009.37,-243.98 1018.33,-238.31 1007.8,-237.16 1009.37,-243.98"/>
</a>
</g>
</g>
<!-- Node27 -->
<g id="Node000027" class="node">
<title>Node27</title>
<g id="a_Node000027"><a xlink:title=" ">
<polygon fill="#e0e0e0" stroke="#999999" points="484.88,-240.25 435.12,-240.25 435.12,-221 484.88,-221 484.88,-240.25"/>
<text xml:space="preserve" text-anchor="middle" x="460" y="-226.75" font-family="Helvetica,sans-Serif" font-size="10.00">iomanip</text>
</a>
</g>
</g>
<!-- Node22&#45;&gt;Node27 -->
<g id="edge37_Node000022_Node000027" class="edge">
<title>Node22&#45;&gt;Node27</title>
<g id="a_edge37_Node000022_Node000027"><a xlink:title=" ">
<path fill="none" stroke="#63b8ff" d="M719.17,-280.66C674.35,-273.71 583.21,-258.99 496.32,-240.62"/>
<polygon fill="#63b8ff" stroke="#63b8ff" points="497.19,-237.22 486.68,-238.56 495.73,-244.07 497.19,-237.22"/>
</a>
</g>
</g>
<!-- Node28 -->
<g id="Node000028" class="node">
<title>Node28</title>
<g id="a_Node000028"><a xlink:title=" ">
<polygon fill="#e0e0e0" stroke="#999999" points="551.12,-240.25 502.88,-240.25 502.88,-221 551.12,-221 551.12,-240.25"/>
<text xml:space="preserve" text-anchor="middle" x="527" y="-226.75" font-family="Helvetica,sans-Serif" font-size="10.00">random</text>
</a>
</g>
</g>
<!-- Node22&#45;&gt;Node28 -->
<g id="edge38_Node000022_Node000028" class="edge">
<title>Node22&#45;&gt;Node28</title>
<g id="a_edge38_Node000022_Node000028"><a xlink:title=" ">
<path fill="none" stroke="#63b8ff" d="M719.07,-278.41C684.56,-270.37 623.74,-256.07 562.52,-240.84"/>
<polygon fill="#63b8ff" stroke="#63b8ff" points="563.51,-237.48 552.96,-238.46 561.82,-244.27 563.51,-237.48"/>
</a>
</g>
</g>
<!-- Node29 -->
<g id="Node000029" class="node">
<title>Node29</title>
<g id="a_Node000029"><a xlink:title=" ">
<polygon fill="#e0e0e0" stroke="#999999" points="609,-240.25 569,-240.25 569,-221 609,-221 609,-240.25"/>
<text xml:space="preserve" text-anchor="middle" x="589" y="-226.75" font-family="Helvetica,sans-Serif" font-size="10.00">regex</text>
</a>
</g>
</g>
<!-- Node22&#45;&gt;Node29 -->
<g id="edge39_Node000022_Node000029" class="edge">
<title>Node22&#45;&gt;Node29</title>
<g id="a_edge39_Node000022_Node000029"><a xlink:title=" ">
<path fill="none" stroke="#63b8ff" d="M720.2,-275.84C692.53,-266.52 649.39,-251.98 620.21,-242.14"/>
<polygon fill="#63b8ff" stroke="#63b8ff" points="621.42,-238.86 610.82,-238.98 619.18,-245.49 621.42,-238.86"/>
</a>
</g>
</g>
<!-- Node30 -->
<g id="Node000030" class="node">
<title>Node30</title>
<g id="a_Node000030"><a xlink:title=" ">
<polygon fill="#e0e0e0" stroke="#999999" points="678.62,-240.25 627.38,-240.25 627.38,-221 678.62,-221 678.62,-240.25"/>
<text xml:space="preserve" text-anchor="middle" x="653" y="-226.75" font-family="Helvetica,sans-Serif" font-size="10.00">sstream</text>
</a>
</g>
</g>
<!-- Node22&#45;&gt;Node30 -->
<g id="edge40_Node000022_Node000030" class="edge">
<title>Node22&#45;&gt;Node30</title>
<g id="a_edge40_Node000022_Node000030"><a xlink:title=" ">
<path fill="none" stroke="#63b8ff" d="M731.05,-275.84C716.74,-267.73 695.47,-255.68 678.75,-246.21"/>
<polygon fill="#63b8ff" stroke="#63b8ff" points="680.77,-243.33 670.34,-241.45 677.32,-249.42 680.77,-243.33"/>
</a>
</g>
</g>
<!-- Node31 -->
<g id="Node000031" class="node">
<title>Node31</title>
<g id="a_Node000031"><a xlink:href="_h_d_f5_i_o_8hpp.html" target="_top" xlink:title=" ">
<polygon fill="white" stroke="#666666" points="838.88,-240.25 735.12,-240.25 735.12,-221 838.88,-221 838.88,-240.25"/>
<text xml:space="preserve" text-anchor="middle" x="787" y="-226.75" font-family="Helvetica,sans-Serif" font-size="10.00">io/hdf5/HDF5IO.hpp</text>
</a>
</g>
</g>
<!-- Node22&#45;&gt;Node31 -->
<g id="edge43_Node000022_Node000031" class="edge">
<title>Node22&#45;&gt;Node31</title>
<g id="a_edge43_Node000022_Node000031"><a xlink:title=" ">
<path fill="none" stroke="#63b8ff" d="M753.61,-276.08C758.96,-268.96 766.68,-258.68 773.35,-249.8"/>
<polygon fill="#63b8ff" stroke="#63b8ff" points="776.13,-251.92 779.34,-241.82 770.54,-247.71 776.13,-251.92"/>
</a>
</g>
</g>
<!-- Node31&#45;&gt;Node4 -->
<g id="edge45_Node000031_Node000004" class="edge">
<title>Node31&#45;&gt;Node4</title>
<g id="a_edge45_Node000031_Node000004"><a xlink:title=" ">
<path fill="none" stroke="#63b8ff" d="M734.91,-224.78C669.56,-218.2 554.28,-204.92 457,-185 366.66,-166.5 345.18,-156.73 257,-129.75 202.94,-113.21 140.97,-91.94 102.91,-78.6"/>
<polygon fill="#63b8ff" stroke="#63b8ff" points="104.39,-75.41 93.79,-75.4 102.07,-82.02 104.39,-75.41"/>
</a>
</g>
</g>
<!-- Node31&#45;&gt;Node5 -->
<g id="edge49_Node000031_Node000005" class="edge">
<title>Node31&#45;&gt;Node5</title>
<g id="a_edge49_Node000031_Node000005"><a xlink:title=" ">
<path fill="none" stroke="#63b8ff" d="M764.15,-220.63C741.83,-211.78 706.95,-197.77 677,-185 657.74,-176.79 653.81,-172.52 634,-165.75 589.75,-150.62 537.85,-138.52 500.47,-130.76"/>
<polygon fill="#63b8ff" stroke="#63b8ff" points="501.34,-127.37 490.84,-128.8 499.94,-134.23 501.34,-127.37"/>
</a>
</g>
</g>
<!-- Node31&#45;&gt;Node8 -->
<g id="edge44_Node000031_Node000008" class="edge">
<title>Node31&#45;&gt;Node8</title>
<g id="a_edge44_Node000031_Node000008"><a xlink:title=" ">
<path fill="none" stroke="#63b8ff" d="M771.23,-220.71C748.87,-208.14 706.61,-184.64 670,-165.75 637.5,-148.98 619.86,-157.47 596,-129.75 585.44,-117.48 580.45,-99.64 578.09,-85.93"/>
<polygon fill="#63b8ff" stroke="#63b8ff" points="581.6,-85.73 576.79,-76.28 574.66,-86.66 581.6,-85.73"/>
</a>
</g>
</g>
<!-- Node31&#45;&gt;Node9 -->
<g id="edge46_Node000031_Node000009" class="edge">
<title>Node31&#45;&gt;Node9</title>
<g id="a_edge46_Node000031_Node000009"><a xlink:title=" ">
<path fill="none" stroke="#63b8ff" d="M806.49,-220.51C842.44,-203.54 921.44,-165.58 986,-129.75 1041.55,-98.92 1051.66,-84.61 1108,-55.25 1131.29,-43.12 1158.58,-31.3 1179.07,-22.87"/>
<polygon fill="#63b8ff" stroke="#63b8ff" points="1180.34,-26.13 1188.29,-19.13 1177.7,-19.65 1180.34,-26.13"/>
</a>
</g>
</g>
<!-- Node31&#45;&gt;Node15 -->
<g id="edge48_Node000031_Node000015" class="edge">
<title>Node31&#45;&gt;Node15</title>
<g id="a_edge48_Node000031_Node000015"><a xlink:title=" ">
<path fill="none" stroke="#63b8ff" d="M734.64,-224.35C638.37,-213.39 439.65,-184.52 402,-129.75 392.47,-115.89 400.53,-97.51 409.45,-84.02"/>
<polygon fill="#63b8ff" stroke="#63b8ff" points="412.21,-86.18 415.28,-76.04 406.56,-82.05 412.21,-86.18"/>
</a>
</g>
</g>
<!-- Node32 -->
<g id="Node000032" class="node">
<title>Node32</title>
<g id="a_Node000032"><a xlink:title=" ">
<polygon fill="#e0e0e0" stroke="#999999" points="625,-185 555,-185 555,-165.75 625,-165.75 625,-185"/>
<text xml:space="preserve" text-anchor="middle" x="590" y="-171.5" font-family="Helvetica,sans-Serif" font-size="10.00">H5Opublic.h</text>
</a>
</g>
</g>
<!-- Node31&#45;&gt;Node32 -->
<g id="edge47_Node000031_Node000032" class="edge">
<title>Node31&#45;&gt;Node32</title>
<g id="a_edge47_Node000031_Node000032"><a xlink:title=" ">
<path fill="none" stroke="#63b8ff" d="M753.58,-220.59C720.75,-211.72 670.46,-198.12 634.31,-188.35"/>
<polygon fill="#63b8ff" stroke="#63b8ff" points="635.61,-185.08 625.04,-185.85 633.78,-191.84 635.61,-185.08"/>
</a>
</g>
</g>
<!-- Node31&#45;&gt;Node33 -->
<g id="edge50_Node000031_Node000033" class="edge">
<title>Node31&#45;&gt;Node33</title>
<g id="a_edge50_Node000031_Node000033"><a xlink:title=" ">
<path fill="none" stroke="#63b8ff" d="M782.38,-220.83C778.75,-213.94 773.57,-204.09 769.01,-195.41"/>
<polygon fill="#63b8ff" stroke="#63b8ff" points="772.18,-193.92 764.43,-186.7 765.98,-197.18 772.18,-193.92"/>
</a>
</g>
</g>
<!-- Node33&#45;&gt;Node3 -->
<g id="edge51_Node000033_Node000003" class="edge">
<title>Node33&#45;&gt;Node3</title>
<g id="a_edge51_Node000033_Node000003"><a xlink:title=" ">
<path fill="none" stroke="#63b8ff" d="M719.2,-171.49C638.84,-165.34 459.92,-149.8 402,-129.75 369.72,-118.57 336.65,-96.64 316.22,-81.63"/>
<polygon fill="#63b8ff" stroke="#63b8ff" points="318.57,-79.02 308.48,-75.8 314.37,-84.61 318.57,-79.02"/>
</a>
</g>
</g>
<!-- Node33&#45;&gt;Node4 -->
<g id="edge56_Node000033_Node000004" class="edge">
<title>Node33&#45;&gt;Node4</title>
<g id="a_edge56_Node000033_Node000004"><a xlink:title=" ">
<path fill="none" stroke="#63b8ff" d="M719.26,-171.29C647.04,-165.39 489.54,-151.15 358,-129.75 265.77,-114.74 158.8,-89.11 103.82,-75.32"/>
<polygon fill="#63b8ff" stroke="#63b8ff" points="104.92,-71.99 94.37,-72.93 103.21,-78.77 104.92,-71.99"/>
</a>
</g>
</g>
<!-- Node33&#45;&gt;Node5 -->
<g id="edge63_Node000033_Node000005" class="edge">
<title>Node33&#45;&gt;Node5</title>
<g id="a_edge63_Node000033_Node000005"><a xlink:title=" ">
<path fill="none" stroke="#63b8ff" d="M719.24,-167.52C663.5,-157.92 562.11,-140.45 500.92,-129.9"/>
<polygon fill="#63b8ff" stroke="#63b8ff" points="501.55,-126.46 491.1,-128.21 500.36,-133.36 501.55,-126.46"/>
</a>
</g>
</g>
<!-- Node33&#45;&gt;Node7 -->
<g id="edge54_Node000033_Node000007" class="edge">
<title>Node33&#45;&gt;Node7</title>
<g id="a_edge54_Node000033_Node000007"><a xlink:title=" ">
<path fill="none" stroke="#63b8ff" d="M748.7,-165.62C735.44,-153.25 715.32,-129.98 726,-110.5 733.9,-96.1 748.63,-85.68 762.56,-78.55"/>
<polygon fill="#63b8ff" stroke="#63b8ff" points="763.96,-81.75 771.54,-74.36 761,-75.41 763.96,-81.75"/>
</a>
</g>
</g>
<!-- Node33&#45;&gt;Node8 -->
<g id="edge55_Node000033_Node000008" class="edge">
<title>Node33&#45;&gt;Node8</title>
<g id="a_edge55_Node000033_Node000008"><a xlink:title=" ">
<path fill="none" stroke="#63b8ff" d="M719.98,-165.3C683.83,-156.33 633.27,-142.18 617,-129.75 601.8,-118.14 590.65,-99.15 583.85,-84.89"/>
<polygon fill="#63b8ff" stroke="#63b8ff" points="587.2,-83.81 579.95,-76.08 580.8,-86.64 587.2,-83.81"/>
</a>
</g>
</g>
<!-- Node33&#45;&gt;Node9 -->
<g id="edge59_Node000033_Node000009" class="edge">
<title>Node33&#45;&gt;Node9</title>
<g id="a_edge59_Node000033_Node000009"><a xlink:title=" ">
<path fill="none" stroke="#63b8ff" d="M798.65,-169.74C839.23,-164.01 903.46,-152.13 955,-129.75 1009.16,-106.24 1011.75,-80.77 1065,-55.25 1102.32,-37.36 1148.46,-24.62 1178.53,-17.45"/>
<polygon fill="#63b8ff" stroke="#63b8ff" points="1179.17,-20.89 1188.12,-15.23 1177.59,-14.07 1179.17,-20.89"/>
</a>
</g>
</g>
<!-- Node33&#45;&gt;Node10 -->
<g id="edge61_Node000033_Node000010" class="edge">
<title>Node33&#45;&gt;Node10</title>
<g id="a_edge61_Node000033_Node000010"><a xlink:title=" ">
<path fill="none" stroke="#63b8ff" d="M798.76,-173.36C862.3,-170.32 975.84,-158.26 937,-110.5 889.67,-52.31 844.94,-87.66 766.71,-74.77"/>
<polygon fill="#63b8ff" stroke="#63b8ff" points="767.41,-71.34 756.93,-72.9 766.1,-78.21 767.41,-71.34"/>
</a>
</g>
</g>
<!-- Node33&#45;&gt;Node14 -->
<g id="edge62_Node000033_Node000014" class="edge">
<title>Node33&#45;&gt;Node14</title>
<g id="a_edge62_Node000033_Node000014"><a xlink:title=" ">
<path fill="none" stroke="#63b8ff" d="M749.78,-165.31C741.23,-156.63 728.44,-142.95 719,-129.75 702.62,-106.85 698.97,-100.43 688,-74.5 681.92,-60.13 676.97,-43.17 673.65,-30.34"/>
<polygon fill="#63b8ff" stroke="#63b8ff" points="677.14,-29.86 671.34,-20.99 670.34,-31.54 677.14,-29.86"/>
</a>
</g>
</g>
<!-- Node33&#45;&gt;Node15 -->
<g id="edge64_Node000033_Node000015" class="edge">
<title>Node33&#45;&gt;Node15</title>
<g id="a_edge64_Node000033_Node000015"><a xlink:title=" ">
<path fill="none" stroke="#63b8ff" d="M722.15,-165.28C688.93,-156.84 638.87,-143.55 596,-129.75 547.02,-113.99 491.38,-92.69 456.98,-79.11"/>
<polygon fill="#63b8ff" stroke="#63b8ff" points="458.58,-75.98 448,-75.55 456,-82.49 458.58,-75.98"/>
</a>
</g>
</g>
<!-- Node33&#45;&gt;Node18 -->
<g id="edge60_Node000033_Node000018" class="edge">
<title>Node33&#45;&gt;Node18</title>
<g id="a_edge60_Node000033_Node000018"><a xlink:title=" ">
<path fill="none" stroke="#63b8ff" d="M747.57,-165.58C736.01,-156.64 717.66,-142.36 702,-129.75 661.55,-97.19 653.33,-86.68 612,-55.25 598.78,-45.19 583.53,-34.53 571.24,-26.15"/>
<polygon fill="#63b8ff" stroke="#63b8ff" points="573.21,-23.26 562.97,-20.56 569.29,-29.06 573.21,-23.26"/>
</a>
</g>
</g>
<!-- Node33&#45;&gt;Node23 -->
<g id="edge52_Node000033_Node000023" class="edge">
<title>Node33&#45;&gt;Node23</title>
<g id="a_edge52_Node000033_Node000023"><a xlink:title=" ">
<path fill="none" stroke="#63b8ff" d="M798.68,-168.47C870.83,-157.74 1022.02,-135.25 1086.65,-125.64"/>
<polygon fill="#63b8ff" stroke="#63b8ff" points="1086.8,-129.16 1096.17,-124.22 1085.77,-122.23 1086.8,-129.16"/>
</a>
</g>
</g>
<!-- Node34 -->
<g id="Node000034" class="node">
<title>Node34</title>
<g id="a_Node000034"><a xlink:title=" ">
<polygon fill="#e0e0e0" stroke="#999999" points="783.12,-129.75 734.88,-129.75 734.88,-110.5 783.12,-110.5 783.12,-129.75"/>
<text xml:space="preserve" text-anchor="middle" x="759" y="-116.25" font-family="Helvetica,sans-Serif" font-size="10.00">cassert</text>
</a>
</g>
</g>
<!-- Node33&#45;&gt;Node34 -->
<g id="edge53_Node000033_Node000034" class="edge">
<title>Node33&#45;&gt;Node34</title>
<g id="a_edge53_Node000033_Node000034"><a xlink:title=" ">
<path fill="none" stroke="#63b8ff" d="M759,-165.58C759,-159.07 759,-149.92 759,-141.62"/>
<polygon fill="#63b8ff" stroke="#63b8ff" points="762.5,-141.62 759,-131.62 755.5,-141.62 762.5,-141.62"/>
</a>
</g>
</g>
<!-- Node35 -->
<g id="Node000035" class="node">
<title>Node35</title>
<g id="a_Node000035"><a xlink:title=" ">
<polygon fill="#e0e0e0" stroke="#999999" points="851.25,-129.75 800.75,-129.75 800.75,-110.5 851.25,-110.5 851.25,-129.75"/>
<text xml:space="preserve" text-anchor="middle" x="826" y="-116.25" font-family="Helvetica,sans-Serif" font-size="10.00">numeric</text>
</a>
</g>
</g>
<!-- Node33&#45;&gt;Node35 -->
<g id="edge57_Node000033_Node000035" class="edge">
<title>Node33&#45;&gt;Node35</title>
<g id="a_edge57_Node000033_Node000035"><a xlink:title=" ">
<path fill="none" stroke="#63b8ff" d="M770.37,-165.34C780.05,-157.65 794.2,-146.4 805.81,-137.18"/>
<polygon fill="#63b8ff" stroke="#63b8ff" points="807.97,-139.93 813.62,-130.97 803.61,-134.45 807.97,-139.93"/>
</a>
</g>
</g>
<!-- Node36 -->
<g id="Node000036" class="node">
<title>Node36</title>
<g id="a_Node000036"><a xlink:title=" ">
<polygon fill="#e0e0e0" stroke="#999999" points="928.38,-129.75 869.62,-129.75 869.62,-110.5 928.38,-110.5 928.38,-129.75"/>
<text xml:space="preserve" text-anchor="middle" x="899" y="-116.25" font-family="Helvetica,sans-Serif" font-size="10.00">stdexcept</text>
</a>
</g>
</g>
<!-- Node33&#45;&gt;Node36 -->
<g id="edge58_Node000033_Node000036" class="edge">
<title>Node33&#45;&gt;Node36</title>
<g id="a_edge58_Node000033_Node000036"><a xlink:title=" ">
<path fill="none" stroke="#63b8ff" d="M782.75,-165.34C805.17,-156.81 839.06,-143.92 864.47,-134.26"/>
<polygon fill="#63b8ff" stroke="#63b8ff" points="865.62,-137.57 873.72,-130.74 863.13,-131.02 865.62,-137.57"/>
</a>
</g>
</g>
<!-- Node37&#45;&gt;Node9 -->
<g id="edge69_Node000037_Node000009" class="edge">
<title>Node37&#45;&gt;Node9</title>
<g id="a_edge69_Node000037_Node000009"><a xlink:title=" ">
<path fill="none" stroke="#63b8ff" d="M1390.13,-165.35C1406.28,-158.1 1426.75,-146.37 1439,-129.75 1458.99,-102.63 1474.56,-81.14 1453,-55.25 1426.42,-23.34 1300.99,-14.17 1241.48,-11.6"/>
<polygon fill="#63b8ff" stroke="#63b8ff" points="1241.82,-8.11 1231.69,-11.21 1241.54,-15.1 1241.82,-8.11"/>
</a>
</g>
</g>
<!-- Node37&#45;&gt;Node14 -->
<g id="edge71_Node000037_Node000014" class="edge">
<title>Node37&#45;&gt;Node14</title>
<g id="a_edge71_Node000037_Node000014"><a xlink:title=" ">
<path fill="none" stroke="#63b8ff" d="M1337.23,-165.31C1295.23,-152.26 1214.56,-127.83 1145,-110.5 979.78,-69.35 779.51,-31.06 701.92,-16.65"/>
<polygon fill="#63b8ff" stroke="#63b8ff" points="702.91,-13.28 692.45,-14.9 701.64,-20.16 702.91,-13.28"/>
</a>
</g>
</g>
<!-- Node37&#45;&gt;Node23 -->
<g id="edge68_Node000037_Node000023" class="edge">
<title>Node37&#45;&gt;Node23</title>
<g id="a_edge68_Node000037_Node000023"><a xlink:title=" ">
<path fill="none" stroke="#63b8ff" d="M1323.48,-165.28C1273.35,-154.56 1191.29,-137.01 1147.23,-127.59"/>
<polygon fill="#63b8ff" stroke="#63b8ff" points="1148.12,-124.2 1137.61,-125.53 1146.65,-131.05 1148.12,-124.2"/>
</a>
</g>
</g>
<!-- Node38 -->
<g id="Node000038" class="node">
<title>Node38</title>
<g id="a_Node000038"><a xlink:title=" ">
<polygon fill="#e0e0e0" stroke="#999999" points="1443.75,-74.5 1378.25,-74.5 1378.25,-55.25 1443.75,-55.25 1443.75,-74.5"/>
<text xml:space="preserve" text-anchor="middle" x="1411" y="-61" font-family="Helvetica,sans-Serif" font-size="10.00">string_view</text>
</a>
</g>
</g>
<!-- Node37&#45;&gt;Node38 -->
<g id="edge70_Node000037_Node000038" class="edge">
<title>Node37&#45;&gt;Node38</title>
<g id="a_edge70_Node000037_Node000038"><a xlink:title=" ">
<path fill="none" stroke="#63b8ff" d="M1385.19,-165.25C1398.5,-157.77 1415.18,-145.79 1423,-129.75 1429.88,-115.63 1425.73,-97.97 1420.51,-84.81"/>
<polygon fill="#63b8ff" stroke="#63b8ff" points="1423.82,-83.65 1416.52,-75.97 1417.44,-86.53 1423.82,-83.65"/>
</a>
</g>
</g>
<!-- Node39 -->
<g id="Node000039" class="node">
<title>Node39</title>
<g id="a_Node000039"><a xlink:href="_namespace_registry_8hpp.html" target="_top" xlink:title=" ">
<polygon fill="white" stroke="#666666" points="1414.25,-129.75 1267.75,-129.75 1267.75,-110.5 1414.25,-110.5 1414.25,-129.75"/>
<text xml:space="preserve" text-anchor="middle" x="1341" y="-116.25" font-family="Helvetica,sans-Serif" font-size="10.00">spec/NamespaceRegistry.hpp</text>
</a>
</g>
</g>
<!-- Node37&#45;&gt;Node39 -->
<g id="edge72_Node000037_Node000039" class="edge">
<title>Node37&#45;&gt;Node39</title>
<g id="a_edge72_Node000037_Node000039"><a xlink:title=" ">
<path fill="none" stroke="#63b8ff" d="M1361.87,-165.58C1358.67,-158.76 1354.11,-149.06 1350.07,-140.45"/>
<polygon fill="#63b8ff" stroke="#63b8ff" points="1353.28,-139.04 1345.86,-131.48 1346.94,-142.02 1353.28,-139.04"/>
</a>
</g>
</g>
<!-- Node39&#45;&gt;Node9 -->
<g id="edge74_Node000039_Node000009" class="edge">
<title>Node39&#45;&gt;Node9</title>
<g id="a_edge74_Node000039_Node000009"><a xlink:title=" ">
<path fill="none" stroke="#63b8ff" d="M1339.9,-110.09C1337.79,-96.5 1331.97,-70.77 1317,-55.25 1296.79,-34.31 1265.29,-22.79 1241.68,-16.73"/>
<polygon fill="#63b8ff" stroke="#63b8ff" points="1242.5,-13.32 1231.96,-14.45 1240.9,-20.14 1242.5,-13.32"/>
</a>
</g>
</g>
<!-- Node39&#45;&gt;Node11 -->
<g id="edge76_Node000039_Node000011" class="edge">
<title>Node39&#45;&gt;Node11</title>
<g id="a_edge76_Node000039_Node000011"><a xlink:title=" ">
<path fill="none" stroke="#63b8ff" d="M1309.96,-110.09C1279.72,-101.29 1233.55,-87.86 1200.03,-78.11"/>
<polygon fill="#63b8ff" stroke="#63b8ff" points="1201.23,-74.81 1190.65,-75.38 1199.27,-81.53 1201.23,-74.81"/>
</a>
</g>
</g>
<!-- Node39&#45;&gt;Node14 -->
<g id="edge77_Node000039_Node000014" class="edge">
<title>Node39&#45;&gt;Node14</title>
<g id="a_edge77_Node000039_Node000014"><a xlink:title=" ">
<path fill="none" stroke="#63b8ff" d="M1336.11,-110.15C1327.65,-95.64 1308.8,-67.46 1284,-55.25 1231.65,-29.49 822.44,-15.24 702.15,-11.58"/>
<polygon fill="#63b8ff" stroke="#63b8ff" points="702.42,-8.09 692.32,-11.28 702.21,-15.08 702.42,-8.09"/>
</a>
</g>
</g>
<!-- Node39&#45;&gt;Node15 -->
<g id="edge78_Node000039_Node000015" class="edge">
<title>Node39&#45;&gt;Node15</title>
<g id="a_edge78_Node000039_Node000015"><a xlink:title=" ">
<path fill="none" stroke="#63b8ff" d="M1267.26,-115.48C1126.05,-108.38 807.72,-91.91 540,-74.5 515.4,-72.9 487.89,-70.87 465.83,-69.17"/>
<polygon fill="#63b8ff" stroke="#63b8ff" points="466.27,-65.7 456.03,-68.42 465.73,-72.68 466.27,-65.7"/>
</a>
</g>
</g>
<!-- Node39&#45;&gt;Node21 -->
<g id="edge73_Node000039_Node000021" class="edge">
<title>Node39&#45;&gt;Node21</title>
<g id="a_edge73_Node000039_Node000021"><a xlink:title=" ">
<path fill="none" stroke="#63b8ff" d="M1324.88,-110.09C1310.42,-101.98 1288.92,-89.93 1272.02,-80.46"/>
<polygon fill="#63b8ff" stroke="#63b8ff" points="1273.95,-77.53 1263.51,-75.69 1270.53,-83.64 1273.95,-77.53"/>
</a>
</g>
</g>
<!-- Node39&#45;&gt;Node38 -->
<g id="edge75_Node000039_Node000038" class="edge">
<title>Node39&#45;&gt;Node38</title>
<g id="a_edge75_Node000039_Node000038"><a xlink:title=" ">
<path fill="none" stroke="#63b8ff" d="M1352.87,-110.09C1363.09,-102.32 1378.07,-90.92 1390.26,-81.65"/>
<polygon fill="#63b8ff" stroke="#63b8ff" points="1392.26,-84.53 1398.1,-75.69 1388.02,-78.96 1392.26,-84.53"/>
</a>
</g>
</g>
</g>
</svg>
