<?xml version="1.0" encoding="UTF-8" standalone="no"?>
<!DOCTYPE svg PUBLIC "-//W3C//DTD SVG 1.1//EN"
 "http://www.w3.org/Graphics/SVG/1.1/DTD/svg11.dtd">
<!-- Generated by graphviz version 14.1.0 (20251206.1807)
 -->
<!-- Title: src/nwb/hdmf/base/Data.hpp Pages: 1 -->
<svg width="2223pt" height="425pt"
 viewBox="0.00 0.00 2223.00 425.00" xmlns="http://www.w3.org/2000/svg" xmlns:xlink="http://www.w3.org/1999/xlink">
<g id="graph0" class="graph" transform="scale(1 1) rotate(0) translate(4 421.25)">
<title>src/nwb/hdmf/base/Data.hpp</title>
<!-- Node1 -->
<g id="Node000001" class="node">
<title>Node1</title>
<g id="a_Node000001"><a xlink:title=" ">
<polygon fill="#999999" stroke="#666666" points="1783.88,-417.25 1641.88,-417.25 1641.88,-398 1783.88,-398 1783.88,-417.25"/>
<text xml:space="preserve" text-anchor="middle" x="1712.88" y="-403.75" font-family="Helvetica,sans-Serif" font-size="10.00">src/nwb/hdmf/base/Data.hpp</text>
</a>
</g>
</g>
<!-- Node2 -->
<g id="Node000002" class="node">
<title>Node2</title>
<g id="a_Node000002"><a xlink:title=" ">
<polygon fill="#e0e0e0" stroke="#999999" points="1506.75,-74.5 1475,-74.5 1475,-55.25 1506.75,-55.25 1506.75,-74.5"/>
<text xml:space="preserve" text-anchor="middle" x="1490.88" y="-61" font-family="Helvetica,sans-Serif" font-size="10.00">any</text>
</a>
</g>
</g>
<!-- Node1&#45;&gt;Node2 -->
<g id="edge1_Node000001_Node000002" class="edge">
<title>Node1&#45;&gt;Node2</title>
<g id="a_edge1_Node000001_Node000002"><a xlink:title=" ">
<path fill="none" stroke="#63b8ff" d="M1641.51,-404.29C1428.74,-396.7 801.56,-369.45 607.88,-306.75 562.14,-291.94 538.65,-293.29 514.88,-251.5 411.15,-69.23 1235.02,-109.05 1441.88,-74.5 1448.86,-73.33 1456.4,-72.03 1463.42,-70.8"/>
<polygon fill="#63b8ff" stroke="#63b8ff" points="1463.83,-74.28 1473.06,-69.09 1462.61,-67.38 1463.83,-74.28"/>
</a>
</g>
</g>
<!-- Node3 -->
<g id="Node000003" class="node">
<title>Node3</title>
<g id="a_Node000003"><a xlink:title=" ">
<polygon fill="#e0e0e0" stroke="#999999" points="2148.5,-74.5 2097.25,-74.5 2097.25,-55.25 2148.5,-55.25 2148.5,-74.5"/>
<text xml:space="preserve" text-anchor="middle" x="2122.88" y="-61" font-family="Helvetica,sans-Serif" font-size="10.00">memory</text>
</a>
</g>
</g>
<!-- Node1&#45;&gt;Node3 -->
<g id="edge2_Node000001_Node000003" class="edge">
<title>Node1&#45;&gt;Node3</title>
<g id="a_edge2_Node000001_Node000003"><a xlink:title=" ">
<path fill="none" stroke="#63b8ff" d="M1784.27,-405.9C1922.86,-402.55 2214.88,-385.17 2214.88,-298.12 2214.88,-298.12 2214.88,-298.12 2214.88,-174.38 2214.88,-133.02 2175.52,-99.35 2148.29,-81"/>
<polygon fill="#63b8ff" stroke="#63b8ff" points="2150.47,-78.24 2140.17,-75.77 2146.68,-84.13 2150.47,-78.24"/>
</a>
</g>
</g>
<!-- Node4 -->
<g id="Node000004" class="node">
<title>Node4</title>
<g id="a_Node000004"><a xlink:href="_base_i_o_8hpp.html" target="_top" xlink:title=" ">
<polygon fill="white" stroke="#666666" points="1787,-129.75 1708.75,-129.75 1708.75,-110.5 1787,-110.5 1787,-129.75"/>
<text xml:space="preserve" text-anchor="middle" x="1747.88" y="-116.25" font-family="Helvetica,sans-Serif" font-size="10.00">io/BaseIO.hpp</text>
</a>
</g>
</g>
<!-- Node1&#45;&gt;Node4 -->
<g id="edge3_Node000001_Node000004" class="edge">
<title>Node1&#45;&gt;Node4</title>
<g id="a_edge3_Node000001_Node000004"><a xlink:title=" ">
<path fill="none" stroke="#63b8ff" d="M1777.85,-397.54C1869.5,-383.23 2029.47,-352.32 2063.88,-306.75 2074.41,-292.79 2095.37,-266.45 2061.88,-221 2000.95,-138.34 1871.08,-122.49 1798.91,-120.41"/>
<polygon fill="#63b8ff" stroke="#63b8ff" points="1798.99,-116.91 1788.93,-120.21 1798.85,-123.91 1798.99,-116.91"/>
</a>
</g>
</g>
<!-- Node17 -->
<g id="Node000017" class="node">
<title>Node17</title>
<g id="a_Node000017"><a xlink:href="_registered_type_8hpp.html" target="_top" xlink:title=" ">
<polygon fill="white" stroke="#666666" points="1774.88,-362 1650.88,-362 1650.88,-342.75 1774.88,-342.75 1774.88,-362"/>
<text xml:space="preserve" text-anchor="middle" x="1712.88" y="-348.5" font-family="Helvetica,sans-Serif" font-size="10.00">nwb/RegisteredType.hpp</text>
</a>
</g>
</g>
<!-- Node1&#45;&gt;Node17 -->
<g id="edge19_Node000001_Node000017" class="edge">
<title>Node1&#45;&gt;Node17</title>
<g id="a_edge19_Node000001_Node000017"><a xlink:title=" ">
<path fill="none" stroke="#63b8ff" d="M1712.88,-397.83C1712.88,-391.32 1712.88,-382.17 1712.88,-373.87"/>
<polygon fill="#63b8ff" stroke="#63b8ff" points="1716.38,-373.87 1712.88,-363.87 1709.38,-373.87 1716.38,-373.87"/>
</a>
</g>
</g>
<!-- Node37 -->
<g id="Node000037" class="node">
<title>Node37</title>
<g id="a_Node000037"><a xlink:href="hdmf__common_8hpp.html" target="_top" xlink:title=" ">
<polygon fill="white" stroke="#666666" points="127.5,-185 4.25,-185 4.25,-165.75 127.5,-165.75 127.5,-185"/>
<text xml:space="preserve" text-anchor="middle" x="65.88" y="-171.5" font-family="Helvetica,sans-Serif" font-size="10.00">spec/hdmf_common.hpp</text>
</a>
</g>
</g>
<!-- Node1&#45;&gt;Node37 -->
<g id="edge64_Node000001_Node000037" class="edge">
<title>Node1&#45;&gt;Node37</title>
<g id="a_edge64_Node000001_Node000037"><a xlink:title=" ">
<path fill="none" stroke="#63b8ff" d="M1641.75,-406.71C1396.38,-406.62 586.34,-403.14 329.88,-362 243.89,-348.21 210.44,-360.45 141.88,-306.75 104.52,-277.49 81.98,-224.37 71.99,-195.8"/>
<polygon fill="#63b8ff" stroke="#63b8ff" points="75.42,-195.02 68.95,-186.64 68.78,-197.23 75.42,-195.02"/>
</a>
</g>
</g>
<!-- Node4&#45;&gt;Node2 -->
<g id="edge4_Node000004_Node000002" class="edge">
<title>Node4&#45;&gt;Node2</title>
<g id="a_edge4_Node000004_Node000002"><a xlink:title=" ">
<path fill="none" stroke="#63b8ff" d="M1708.49,-113.3C1664.3,-106.38 1590.32,-93.66 1518.26,-74.82"/>
<polygon fill="#63b8ff" stroke="#63b8ff" points="1519.2,-71.45 1508.64,-72.26 1517.4,-78.22 1519.2,-71.45"/>
</a>
</g>
</g>
<!-- Node4&#45;&gt;Node3 -->
<g id="edge7_Node000004_Node000003" class="edge">
<title>Node4&#45;&gt;Node3</title>
<g id="a_edge7_Node000004_Node000003"><a xlink:title=" ">
<path fill="none" stroke="#63b8ff" d="M1787.5,-115.48C1849.26,-109.46 1972.41,-96.12 2085.68,-74.93"/>
<polygon fill="#63b8ff" stroke="#63b8ff" points="2086.3,-78.37 2095.47,-73.07 2084.99,-71.5 2086.3,-78.37"/>
</a>
</g>
</g>
<!-- Node5 -->
<g id="Node000005" class="node">
<title>Node5</title>
<g id="a_Node000005"><a xlink:title=" ">
<polygon fill="#e0e0e0" stroke="#999999" points="1984.5,-74.5 1939.25,-74.5 1939.25,-55.25 1984.5,-55.25 1984.5,-74.5"/>
<text xml:space="preserve" text-anchor="middle" x="1961.88" y="-61" font-family="Helvetica,sans-Serif" font-size="10.00">cstdint</text>
</a>
</g>
</g>
<!-- Node4&#45;&gt;Node5 -->
<g id="edge5_Node000004_Node000005" class="edge">
<title>Node4&#45;&gt;Node5</title>
<g id="a_edge5_Node000004_Node000005"><a xlink:title=" ">
<path fill="none" stroke="#63b8ff" d="M1784.18,-110.09C1824.36,-100.09 1888.61,-84.11 1927.85,-74.34"/>
<polygon fill="#63b8ff" stroke="#63b8ff" points="1928.61,-77.76 1937.46,-71.95 1926.92,-70.97 1928.61,-77.76"/>
</a>
</g>
</g>
<!-- Node6 -->
<g id="Node000006" class="node">
<title>Node6</title>
<g id="a_Node000006"><a xlink:title=" ">
<polygon fill="#e0e0e0" stroke="#999999" points="1578.62,-74.5 1525.12,-74.5 1525.12,-55.25 1578.62,-55.25 1578.62,-74.5"/>
<text xml:space="preserve" text-anchor="middle" x="1551.88" y="-61" font-family="Helvetica,sans-Serif" font-size="10.00">iostream</text>
</a>
</g>
</g>
<!-- Node4&#45;&gt;Node6 -->
<g id="edge6_Node000004_Node000006" class="edge">
<title>Node4&#45;&gt;Node6</title>
<g id="a_edge6_Node000004_Node000006"><a xlink:title=" ">
<path fill="none" stroke="#63b8ff" d="M1714.63,-110.09C1680.13,-100.72 1626.27,-86.09 1590.05,-76.25"/>
<polygon fill="#63b8ff" stroke="#63b8ff" points="1590.99,-72.88 1580.42,-73.63 1589.16,-79.63 1590.99,-72.88"/>
</a>
</g>
</g>
<!-- Node7 -->
<g id="Node000007" class="node">
<title>Node7</title>
<g id="a_Node000007"><a xlink:title=" ">
<polygon fill="#e0e0e0" stroke="#999999" points="479.88,-74.5 439.88,-74.5 439.88,-55.25 479.88,-55.25 479.88,-74.5"/>
<text xml:space="preserve" text-anchor="middle" x="459.88" y="-61" font-family="Helvetica,sans-Serif" font-size="10.00">string</text>
</a>
</g>
</g>
<!-- Node4&#45;&gt;Node7 -->
<g id="edge8_Node000004_Node000007" class="edge">
<title>Node4&#45;&gt;Node7</title>
<g id="a_edge8_Node000004_Node000007"><a xlink:title=" ">
<path fill="none" stroke="#63b8ff" d="M1708.4,-116.95C1674.57,-115.13 1624.52,-112.5 1580.88,-110.5 1149.27,-90.76 623.96,-71.73 491.4,-66.99"/>
<polygon fill="#63b8ff" stroke="#63b8ff" points="491.78,-63.5 481.66,-66.65 491.53,-70.5 491.78,-63.5"/>
</a>
</g>
</g>
<!-- Node8 -->
<g id="Node000008" class="node">
<title>Node8</title>
<g id="a_Node000008"><a xlink:title=" ">
<polygon fill="#e0e0e0" stroke="#999999" points="1756.88,-74.5 1698.88,-74.5 1698.88,-55.25 1756.88,-55.25 1756.88,-74.5"/>
<text xml:space="preserve" text-anchor="middle" x="1727.88" y="-61" font-family="Helvetica,sans-Serif" font-size="10.00">typeindex</text>
</a>
</g>
</g>
<!-- Node4&#45;&gt;Node8 -->
<g id="edge9_Node000004_Node000008" class="edge">
<title>Node4&#45;&gt;Node8</title>
<g id="a_edge9_Node000004_Node000008"><a xlink:title=" ">
<path fill="none" stroke="#63b8ff" d="M1744.57,-110.33C1742.04,-103.59 1738.45,-94.02 1735.24,-85.49"/>
<polygon fill="#63b8ff" stroke="#63b8ff" points="1738.57,-84.41 1731.78,-76.28 1732.02,-86.87 1738.57,-84.41"/>
</a>
</g>
</g>
<!-- Node9 -->
<g id="Node000009" class="node">
<title>Node9</title>
<g id="a_Node000009"><a xlink:title=" ">
<polygon fill="#e0e0e0" stroke="#999999" points="422.25,-74.5 339.5,-74.5 339.5,-55.25 422.25,-55.25 422.25,-74.5"/>
<text xml:space="preserve" text-anchor="middle" x="380.88" y="-61" font-family="Helvetica,sans-Serif" font-size="10.00">unordered_map</text>
</a>
</g>
</g>
<!-- Node4&#45;&gt;Node9 -->
<g id="edge10_Node000004_Node000009" class="edge">
<title>Node4&#45;&gt;Node9</title>
<g id="a_edge10_Node000004_Node000009"><a xlink:title=" ">
<path fill="none" stroke="#63b8ff" d="M1708.45,-118.52C1520.17,-115.51 710.6,-101.31 433.76,-74.62"/>
<polygon fill="#63b8ff" stroke="#63b8ff" points="434.36,-71.16 424.06,-73.65 433.67,-78.13 434.36,-71.16"/>
</a>
</g>
</g>
<!-- Node10 -->
<g id="Node000010" class="node">
<title>Node10</title>
<g id="a_Node000010"><a xlink:title=" ">
<polygon fill="#e0e0e0" stroke="#999999" points="2079.62,-74.5 2002.12,-74.5 2002.12,-55.25 2079.62,-55.25 2079.62,-74.5"/>
<text xml:space="preserve" text-anchor="middle" x="2040.88" y="-61" font-family="Helvetica,sans-Serif" font-size="10.00">unordered_set</text>
</a>
</g>
</g>
<!-- Node4&#45;&gt;Node10 -->
<g id="edge11_Node000004_Node000010" class="edge">
<title>Node4&#45;&gt;Node10</title>
<g id="a_edge11_Node000004_Node000010"><a xlink:title=" ">
<path fill="none" stroke="#63b8ff" d="M1787.08,-112.04C1833.44,-103.65 1913.27,-89.2 1990.73,-75.07"/>
<polygon fill="#63b8ff" stroke="#63b8ff" points="1990.94,-78.59 2000.15,-73.35 1989.68,-71.7 1990.94,-78.59"/>
</a>
</g>
</g>
<!-- Node11 -->
<g id="Node000011" class="node">
<title>Node11</title>
<g id="a_Node000011"><a xlink:title=" ">
<polygon fill="#e0e0e0" stroke="#999999" points="1680.5,-74.5 1635.25,-74.5 1635.25,-55.25 1680.5,-55.25 1680.5,-74.5"/>
<text xml:space="preserve" text-anchor="middle" x="1657.88" y="-61" font-family="Helvetica,sans-Serif" font-size="10.00">variant</text>
</a>
</g>
</g>
<!-- Node4&#45;&gt;Node11 -->
<g id="edge12_Node000004_Node000011" class="edge">
<title>Node4&#45;&gt;Node11</title>
<g id="a_edge12_Node000004_Node000011"><a xlink:title=" ">
<path fill="none" stroke="#63b8ff" d="M1732.61,-110.09C1719.03,-102.06 1698.92,-90.16 1682.98,-80.73"/>
<polygon fill="#63b8ff" stroke="#63b8ff" points="1684.91,-77.8 1674.52,-75.72 1681.34,-83.83 1684.91,-77.8"/>
</a>
</g>
</g>
<!-- Node12 -->
<g id="Node000012" class="node">
<title>Node12</title>
<g id="a_Node000012"><a xlink:title=" ">
<polygon fill="#e0e0e0" stroke="#999999" points="1424.38,-19.25 1381.38,-19.25 1381.38,0 1424.38,0 1424.38,-19.25"/>
<text xml:space="preserve" text-anchor="middle" x="1402.88" y="-5.75" font-family="Helvetica,sans-Serif" font-size="10.00">vector</text>
</a>
</g>
</g>
<!-- Node4&#45;&gt;Node12 -->
<g id="edge13_Node000004_Node000012" class="edge">
<title>Node4&#45;&gt;Node12</title>
<g id="a_edge13_Node000004_Node000012"><a xlink:title=" ">
<path fill="none" stroke="#63b8ff" d="M1720.38,-110.11C1695.41,-101.68 1657.73,-88.34 1625.88,-74.5 1608.51,-66.96 1605.67,-61.72 1587.88,-55.25 1524.65,-32.27 1503.4,-36.52 1435.61,-19.81"/>
<polygon fill="#63b8ff" stroke="#63b8ff" points="1436.81,-16.51 1426.26,-17.44 1435.09,-23.29 1436.81,-16.51"/>
</a>
</g>
</g>
<!-- Node13 -->
<g id="Node000013" class="node">
<title>Node13</title>
<g id="a_Node000013"><a xlink:title=" ">
<polygon fill="#e0e0e0" stroke="#999999" points="1883,-74.5 1774.75,-74.5 1774.75,-55.25 1883,-55.25 1883,-74.5"/>
<text xml:space="preserve" text-anchor="middle" x="1828.88" y="-61" font-family="Helvetica,sans-Serif" font-size="10.00">boost/multi_array.hpp</text>
</a>
</g>
</g>
<!-- Node4&#45;&gt;Node13 -->
<g id="edge14_Node000004_Node000013" class="edge">
<title>Node4&#45;&gt;Node13</title>
<g id="a_edge14_Node000004_Node000013"><a xlink:title=" ">
<path fill="none" stroke="#63b8ff" d="M1761.62,-110.09C1773.6,-102.21 1791.25,-90.61 1805.46,-81.27"/>
<polygon fill="#63b8ff" stroke="#63b8ff" points="1807.37,-84.2 1813.8,-75.78 1803.52,-78.35 1807.37,-84.2"/>
</a>
</g>
</g>
<!-- Node14 -->
<g id="Node000014" class="node">
<title>Node14</title>
<g id="a_Node000014"><a xlink:href="_types_8hpp.html" target="_top" xlink:title=" ">
<polygon fill="white" stroke="#666666" points="1433.38,-74.5 1372.38,-74.5 1372.38,-55.25 1433.38,-55.25 1433.38,-74.5"/>
<text xml:space="preserve" text-anchor="middle" x="1402.88" y="-61" font-family="Helvetica,sans-Serif" font-size="10.00">Types.hpp</text>
</a>
</g>
</g>
<!-- Node4&#45;&gt;Node14 -->
<g id="edge15_Node000004_Node000014" class="edge">
<title>Node4&#45;&gt;Node14</title>
<g id="a_edge15_Node000004_Node000014"><a xlink:title=" ">
<path fill="none" stroke="#63b8ff" d="M1708.3,-113.02C1642.68,-102.89 1511.95,-82.71 1444.81,-72.35"/>
<polygon fill="#63b8ff" stroke="#63b8ff" points="1445.34,-68.89 1434.93,-70.82 1444.27,-75.81 1445.34,-68.89"/>
</a>
</g>
</g>
<!-- Node14&#45;&gt;Node12 -->
<g id="edge18_Node000014_Node000012" class="edge">
<title>Node14&#45;&gt;Node12</title>
<g id="a_edge18_Node000014_Node000012"><a xlink:title=" ">
<path fill="none" stroke="#63b8ff" d="M1402.88,-55.08C1402.88,-48.57 1402.88,-39.42 1402.88,-31.12"/>
<polygon fill="#63b8ff" stroke="#63b8ff" points="1406.38,-31.12 1402.88,-21.12 1399.38,-31.12 1406.38,-31.12"/>
</a>
</g>
</g>
<!-- Node15 -->
<g id="Node000015" class="node">
<title>Node15</title>
<g id="a_Node000015"><a xlink:title=" ">
<polygon fill="#e0e0e0" stroke="#999999" points="1363,-19.25 1314.75,-19.25 1314.75,0 1363,0 1363,-19.25"/>
<text xml:space="preserve" text-anchor="middle" x="1338.88" y="-5.75" font-family="Helvetica,sans-Serif" font-size="10.00">cstddef</text>
</a>
</g>
</g>
<!-- Node14&#45;&gt;Node15 -->
<g id="edge16_Node000014_Node000015" class="edge">
<title>Node14&#45;&gt;Node15</title>
<g id="a_edge16_Node000014_Node000015"><a xlink:title=" ">
<path fill="none" stroke="#63b8ff" d="M1392.02,-54.84C1382.77,-47.15 1369.25,-35.9 1358.17,-26.68"/>
<polygon fill="#63b8ff" stroke="#63b8ff" points="1360.66,-24.2 1350.73,-20.49 1356.18,-29.58 1360.66,-24.2"/>
</a>
</g>
</g>
<!-- Node16 -->
<g id="Node000016" class="node">
<title>Node16</title>
<g id="a_Node000016"><a xlink:title=" ">
<polygon fill="#e0e0e0" stroke="#999999" points="1481.5,-19.25 1442.25,-19.25 1442.25,0 1481.5,0 1481.5,-19.25"/>
<text xml:space="preserve" text-anchor="middle" x="1461.88" y="-5.75" font-family="Helvetica,sans-Serif" font-size="10.00">limits</text>
</a>
</g>
</g>
<!-- Node14&#45;&gt;Node16 -->
<g id="edge17_Node000014_Node000016" class="edge">
<title>Node14&#45;&gt;Node16</title>
<g id="a_edge17_Node000014_Node000016"><a xlink:title=" ">
<path fill="none" stroke="#63b8ff" d="M1412.88,-54.84C1421.24,-47.3 1433.37,-36.35 1443.48,-27.23"/>
<polygon fill="#63b8ff" stroke="#63b8ff" points="1445.81,-29.84 1450.89,-20.54 1441.12,-24.64 1445.81,-29.84"/>
</a>
</g>
</g>
<!-- Node17&#45;&gt;Node3 -->
<g id="edge22_Node000017_Node000003" class="edge">
<title>Node17&#45;&gt;Node3</title>
<g id="a_edge22_Node000017_Node000003"><a xlink:title=" ">
<path fill="none" stroke="#63b8ff" d="M1775.22,-351.56C1868.25,-350.6 2037.47,-343.64 2083.88,-306.75 2151.01,-253.39 2136.36,-133.79 2127.28,-86.09"/>
<polygon fill="#63b8ff" stroke="#63b8ff" points="2130.73,-85.47 2125.3,-76.37 2123.87,-86.87 2130.73,-85.47"/>
</a>
</g>
</g>
<!-- Node17&#45;&gt;Node4 -->
<g id="edge62_Node000017_Node000004" class="edge">
<title>Node17&#45;&gt;Node4</title>
<g id="a_edge62_Node000017_Node000004"><a xlink:title=" ">
<path fill="none" stroke="#63b8ff" d="M1775.19,-346.32C1835.83,-337.72 1924.93,-314.44 1967.88,-251.5 2031.55,-158.18 1922.48,-255.06 1803.88,-185 1785.07,-173.89 1769.29,-154.27 1759.32,-139.69"/>
<polygon fill="#63b8ff" stroke="#63b8ff" points="1762.34,-137.91 1753.95,-131.43 1756.47,-141.73 1762.34,-137.91"/>
</a>
</g>
</g>
<!-- Node17&#45;&gt;Node7 -->
<g id="edge23_Node000017_Node000007" class="edge">
<title>Node17&#45;&gt;Node7</title>
<g id="a_edge23_Node000017_Node000007"><a xlink:title=" ">
<path fill="none" stroke="#63b8ff" d="M1650.38,-351.42C1447.63,-351.15 809.56,-347.05 607.88,-306.75 520.52,-289.29 419.88,-326.33 419.88,-237.25 419.88,-237.25 419.88,-237.25 419.88,-174.38 419.88,-141.19 436.55,-105.63 448.37,-84.59"/>
<polygon fill="#63b8ff" stroke="#63b8ff" points="451.33,-86.45 453.38,-76.06 445.3,-82.91 451.33,-86.45"/>
</a>
</g>
</g>
<!-- Node17&#45;&gt;Node9 -->
<g id="edge24_Node000017_Node000009" class="edge">
<title>Node17&#45;&gt;Node9</title>
<g id="a_edge24_Node000017_Node000009"><a xlink:title=" ">
<path fill="none" stroke="#63b8ff" d="M1650.41,-351.03C1401.36,-349.4 490.33,-341.13 439.88,-306.75 367.68,-257.57 372.86,-135.04 378.12,-86.32"/>
<polygon fill="#63b8ff" stroke="#63b8ff" points="381.59,-86.75 379.32,-76.4 374.64,-85.9 381.59,-86.75"/>
</a>
</g>
</g>
<!-- Node17&#45;&gt;Node10 -->
<g id="edge25_Node000017_Node000010" class="edge">
<title>Node17&#45;&gt;Node10</title>
<g id="a_edge25_Node000017_Node000010"><a xlink:title=" ">
<path fill="none" stroke="#63b8ff" d="M1775.34,-347.85C1871.1,-341.8 2045.15,-328.01 2063.88,-306.75 2120.07,-242.95 2073.04,-129.48 2050.87,-84.75"/>
<polygon fill="#63b8ff" stroke="#63b8ff" points="2054.1,-83.37 2046.43,-76.06 2047.87,-86.56 2054.1,-83.37"/>
</a>
</g>
</g>
<!-- Node17&#45;&gt;Node14 -->
<g id="edge26_Node000017_Node000014" class="edge">
<title>Node17&#45;&gt;Node14</title>
<g id="a_edge26_Node000017_Node000014"><a xlink:title=" ">
<path fill="none" stroke="#63b8ff" d="M1650.69,-351C1415.85,-348.93 592.33,-335.68 514.88,-251.5 395.08,-121.3 1169.51,-76.66 1360.85,-67.68"/>
<polygon fill="#63b8ff" stroke="#63b8ff" points="1360.75,-71.19 1370.58,-67.24 1360.43,-64.2 1360.75,-71.19"/>
</a>
</g>
</g>
<!-- Node18 -->
<g id="Node000018" class="node">
<title>Node18</title>
<g id="a_Node000018"><a xlink:title=" ">
<polygon fill="#e0e0e0" stroke="#999999" points="2034.38,-306.75 1973.38,-306.75 1973.38,-287.5 2034.38,-287.5 2034.38,-306.75"/>
<text xml:space="preserve" text-anchor="middle" x="2003.88" y="-293.25" font-family="Helvetica,sans-Serif" font-size="10.00">filesystem</text>
</a>
</g>
</g>
<!-- Node17&#45;&gt;Node18 -->
<g id="edge20_Node000017_Node000018" class="edge">
<title>Node17&#45;&gt;Node18</title>
<g id="a_edge20_Node000017_Node000018"><a xlink:title=" ">
<path fill="none" stroke="#63b8ff" d="M1763.79,-342.29C1813.55,-333.38 1891.46,-319.33 1958.88,-306.75 1959.87,-306.56 1960.87,-306.38 1961.88,-306.19"/>
<polygon fill="#63b8ff" stroke="#63b8ff" points="1962.23,-309.68 1971.41,-304.39 1960.93,-302.8 1962.23,-309.68"/>
</a>
</g>
</g>
<!-- Node19 -->
<g id="Node000019" class="node">
<title>Node19</title>
<g id="a_Node000019"><a xlink:title=" ">
<polygon fill="#e0e0e0" stroke="#999999" points="253.88,-74.5 195.88,-74.5 195.88,-55.25 253.88,-55.25 253.88,-74.5"/>
<text xml:space="preserve" text-anchor="middle" x="224.88" y="-61" font-family="Helvetica,sans-Serif" font-size="10.00">functional</text>
</a>
</g>
</g>
<!-- Node17&#45;&gt;Node19 -->
<g id="edge21_Node000017_Node000019" class="edge">
<title>Node17&#45;&gt;Node19</title>
<g id="a_edge21_Node000017_Node000019"><a xlink:title=" ">
<path fill="none" stroke="#63b8ff" d="M1650.53,-351.29C1407.81,-350.69 533.55,-345.82 415.88,-306.75 284.94,-263.28 224.83,-251.99 160.88,-129.75 150.31,-109.55 172.33,-91.71 193.36,-80.06"/>
<polygon fill="#63b8ff" stroke="#63b8ff" points="194.83,-83.24 202.12,-75.54 191.63,-77.01 194.83,-83.24"/>
</a>
</g>
</g>
<!-- Node20 -->
<g id="Node000020" class="node">
<title>Node20</title>
<g id="a_Node000020"><a xlink:href="_utils_8hpp.html" target="_top" xlink:title=" ">
<polygon fill="white" stroke="#666666" points="1441.38,-306.75 1386.38,-306.75 1386.38,-287.5 1441.38,-287.5 1441.38,-306.75"/>
<text xml:space="preserve" text-anchor="middle" x="1413.88" y="-293.25" font-family="Helvetica,sans-Serif" font-size="10.00">Utils.hpp</text>
</a>
</g>
</g>
<!-- Node17&#45;&gt;Node20 -->
<g id="edge27_Node000017_Node000020" class="edge">
<title>Node17&#45;&gt;Node20</title>
<g id="a_edge27_Node000017_Node000020"><a xlink:title=" ">
<path fill="none" stroke="#63b8ff" d="M1661.81,-342.28C1602.61,-331.74 1506.33,-314.59 1452.84,-305.06"/>
<polygon fill="#63b8ff" stroke="#63b8ff" points="1453.73,-301.67 1443.27,-303.36 1452.5,-308.56 1453.73,-301.67"/>
</a>
</g>
</g>
<!-- Node36 -->
<g id="Node000036" class="node">
<title>Node36</title>
<g id="a_Node000036"><a xlink:href="_read_i_o_8hpp.html" target="_top" xlink:title=" ">
<polygon fill="white" stroke="#666666" points="1892.38,-185 1813.38,-185 1813.38,-165.75 1892.38,-165.75 1892.38,-185"/>
<text xml:space="preserve" text-anchor="middle" x="1852.88" y="-171.5" font-family="Helvetica,sans-Serif" font-size="10.00">io/ReadIO.hpp</text>
</a>
</g>
</g>
<!-- Node17&#45;&gt;Node36 -->
<g id="edge63_Node000017_Node000036" class="edge">
<title>Node17&#45;&gt;Node36</title>
<g id="a_edge63_Node000017_Node000036"><a xlink:title=" ">
<path fill="none" stroke="#63b8ff" d="M1775.07,-352.3C1861.08,-352.09 2009.67,-345.88 2043.88,-306.75 2056.7,-292.08 2075.98,-264.59 2038.88,-221 2021.59,-200.69 1952.77,-188.3 1903.89,-181.89"/>
<polygon fill="#63b8ff" stroke="#63b8ff" points="1904.42,-178.42 1894.06,-180.65 1903.54,-185.37 1904.42,-178.42"/>
</a>
</g>
</g>
<!-- Node20&#45;&gt;Node4 -->
<g id="edge43_Node000020_Node000004" class="edge">
<title>Node20&#45;&gt;Node4</title>
<g id="a_edge43_Node000020_Node000004"><a xlink:title=" ">
<path fill="none" stroke="#63b8ff" d="M1441.59,-294.31C1500.48,-289.98 1635.75,-277.43 1672.88,-251.5 1711.65,-224.42 1733.1,-170.39 1742.33,-141.11"/>
<polygon fill="#63b8ff" stroke="#63b8ff" points="1745.64,-142.26 1745.12,-131.68 1738.93,-140.27 1745.64,-142.26"/>
</a>
</g>
</g>
<!-- Node20&#45;&gt;Node5 -->
<g id="edge31_Node000020_Node000005" class="edge">
<title>Node20&#45;&gt;Node5</title>
<g id="a_edge31_Node000020_Node000005"><a xlink:title=" ">
<path fill="none" stroke="#63b8ff" d="M1441.53,-296.04C1548.61,-295.43 1931.89,-290.5 1967.88,-251.5 2010.29,-205.53 1984.97,-122.63 1970.22,-85.17"/>
<polygon fill="#63b8ff" stroke="#63b8ff" points="1973.53,-84.02 1966.48,-76.11 1967.06,-86.69 1973.53,-84.02"/>
</a>
</g>
</g>
<!-- Node20&#45;&gt;Node7 -->
<g id="edge36_Node000020_Node000007" class="edge">
<title>Node20&#45;&gt;Node7</title>
<g id="a_edge36_Node000020_Node000007"><a xlink:title=" ">
<path fill="none" stroke="#63b8ff" d="M1386.2,-295.65C1238.64,-292.98 549.97,-279.08 514.88,-251.5 463.59,-211.19 458.45,-125.33 458.97,-86.14"/>
<polygon fill="#63b8ff" stroke="#63b8ff" points="462.46,-86.38 459.26,-76.28 455.47,-86.17 462.46,-86.38"/>
</a>
</g>
</g>
<!-- Node21 -->
<g id="Node000021" class="node">
<title>Node21</title>
<g id="a_Node000021"><a xlink:title=" ">
<polygon fill="#e0e0e0" stroke="#999999" points="1775.75,-245.88 1720,-245.88 1720,-226.62 1775.75,-226.62 1775.75,-245.88"/>
<text xml:space="preserve" text-anchor="middle" x="1747.88" y="-232.38" font-family="Helvetica,sans-Serif" font-size="10.00">algorithm</text>
</a>
</g>
</g>
<!-- Node20&#45;&gt;Node21 -->
<g id="edge28_Node000020_Node000021" class="edge">
<title>Node20&#45;&gt;Node21</title>
<g id="a_edge28_Node000020_Node000021"><a xlink:title=" ">
<path fill="none" stroke="#63b8ff" d="M1441.56,-293.53C1493.8,-288.27 1610.22,-274.85 1705.88,-251.5 1708.15,-250.94 1710.49,-250.32 1712.83,-249.65"/>
<polygon fill="#63b8ff" stroke="#63b8ff" points="1713.71,-253.04 1722.21,-246.72 1711.63,-246.36 1713.71,-253.04"/>
</a>
</g>
</g>
<!-- Node22 -->
<g id="Node000022" class="node">
<title>Node22</title>
<g id="a_Node000022"><a xlink:title=" ">
<polygon fill="#e0e0e0" stroke="#999999" points="1839.5,-245.88 1794.25,-245.88 1794.25,-226.62 1839.5,-226.62 1839.5,-245.88"/>
<text xml:space="preserve" text-anchor="middle" x="1816.88" y="-232.38" font-family="Helvetica,sans-Serif" font-size="10.00">chrono</text>
</a>
</g>
</g>
<!-- Node20&#45;&gt;Node22 -->
<g id="edge29_Node000020_Node000022" class="edge">
<title>Node20&#45;&gt;Node22</title>
<g id="a_edge29_Node000020_Node000022"><a xlink:title=" ">
<path fill="none" stroke="#63b8ff" d="M1441.41,-295.61C1503.72,-293.84 1659.8,-286.02 1784.88,-251.5 1786.05,-251.18 1787.23,-250.82 1788.42,-250.43"/>
<polygon fill="#63b8ff" stroke="#63b8ff" points="1789.47,-253.77 1797.54,-246.9 1786.95,-247.24 1789.47,-253.77"/>
</a>
</g>
</g>
<!-- Node23 -->
<g id="Node000023" class="node">
<title>Node23</title>
<g id="a_Node000023"><a xlink:title=" ">
<polygon fill="#e0e0e0" stroke="#999999" points="1900.38,-245.88 1857.38,-245.88 1857.38,-226.62 1900.38,-226.62 1900.38,-245.88"/>
<text xml:space="preserve" text-anchor="middle" x="1878.88" y="-232.38" font-family="Helvetica,sans-Serif" font-size="10.00">cmath</text>
</a>
</g>
</g>
<!-- Node20&#45;&gt;Node23 -->
<g id="edge30_Node000020_Node000023" class="edge">
<title>Node20&#45;&gt;Node23</title>
<g id="a_edge30_Node000020_Node000023"><a xlink:title=" ">
<path fill="none" stroke="#63b8ff" d="M1441.71,-296.51C1511.6,-296.8 1699.55,-293.28 1848.88,-251.5 1849.87,-251.22 1850.87,-250.91 1851.88,-250.58"/>
<polygon fill="#63b8ff" stroke="#63b8ff" points="1853.1,-253.86 1861.05,-246.85 1850.46,-247.37 1853.1,-253.86"/>
</a>
</g>
</g>
<!-- Node24 -->
<g id="Node000024" class="node">
<title>Node24</title>
<g id="a_Node000024"><a xlink:title=" ">
<polygon fill="#e0e0e0" stroke="#999999" points="1958.88,-245.88 1918.88,-245.88 1918.88,-226.62 1958.88,-226.62 1958.88,-245.88"/>
<text xml:space="preserve" text-anchor="middle" x="1938.88" y="-232.38" font-family="Helvetica,sans-Serif" font-size="10.00">ctime</text>
</a>
</g>
</g>
<!-- Node20&#45;&gt;Node24 -->
<g id="edge32_Node000020_Node000024" class="edge">
<title>Node20&#45;&gt;Node24</title>
<g id="a_edge32_Node000020_Node000024"><a xlink:title=" ">
<path fill="none" stroke="#63b8ff" d="M1441.64,-294.91C1532.41,-290.74 1819.6,-275.89 1908.88,-251.5 1909.87,-251.23 1910.88,-250.92 1911.88,-250.59"/>
<polygon fill="#63b8ff" stroke="#63b8ff" points="1913.09,-253.88 1921.05,-246.89 1910.47,-247.39 1913.09,-253.88"/>
</a>
</g>
</g>
<!-- Node25 -->
<g id="Node000025" class="node">
<title>Node25</title>
<g id="a_Node000025"><a xlink:title=" ">
<polygon fill="#e0e0e0" stroke="#999999" points="573.75,-245.88 524,-245.88 524,-226.62 573.75,-226.62 573.75,-245.88"/>
<text xml:space="preserve" text-anchor="middle" x="548.88" y="-232.38" font-family="Helvetica,sans-Serif" font-size="10.00">iomanip</text>
</a>
</g>
</g>
<!-- Node20&#45;&gt;Node25 -->
<g id="edge33_Node000020_Node000025" class="edge">
<title>Node20&#45;&gt;Node25</title>
<g id="a_edge33_Node000020_Node000025"><a xlink:title=" ">
<path fill="none" stroke="#63b8ff" d="M1385.99,-295.91C1259.7,-294.72 740.78,-287.68 582.88,-251.5 581.24,-251.12 579.58,-250.68 577.92,-250.17"/>
<polygon fill="#63b8ff" stroke="#63b8ff" points="579.22,-246.92 568.62,-246.79 576.82,-253.5 579.22,-246.92"/>
</a>
</g>
</g>
<!-- Node26 -->
<g id="Node000026" class="node">
<title>Node26</title>
<g id="a_Node000026"><a xlink:title=" ">
<polygon fill="#e0e0e0" stroke="#999999" points="631.88,-245.88 591.88,-245.88 591.88,-226.62 631.88,-226.62 631.88,-245.88"/>
<text xml:space="preserve" text-anchor="middle" x="611.88" y="-232.38" font-family="Helvetica,sans-Serif" font-size="10.00">regex</text>
</a>
</g>
</g>
<!-- Node20&#45;&gt;Node26 -->
<g id="edge34_Node000020_Node000026" class="edge">
<title>Node20&#45;&gt;Node26</title>
<g id="a_edge34_Node000020_Node000026"><a xlink:title=" ">
<path fill="none" stroke="#63b8ff" d="M1385.88,-295.99C1264.8,-295.19 785.83,-289.63 640.88,-251.5 639.88,-251.24 638.87,-250.94 637.87,-250.61"/>
<polygon fill="#63b8ff" stroke="#63b8ff" points="639.36,-247.44 628.78,-246.86 636.69,-253.91 639.36,-247.44"/>
</a>
</g>
</g>
<!-- Node27 -->
<g id="Node000027" class="node">
<title>Node27</title>
<g id="a_Node000027"><a xlink:title=" ">
<polygon fill="#e0e0e0" stroke="#999999" points="701.5,-245.88 650.25,-245.88 650.25,-226.62 701.5,-226.62 701.5,-245.88"/>
<text xml:space="preserve" text-anchor="middle" x="675.88" y="-232.38" font-family="Helvetica,sans-Serif" font-size="10.00">sstream</text>
</a>
</g>
</g>
<!-- Node20&#45;&gt;Node27 -->
<g id="edge35_Node000020_Node000027" class="edge">
<title>Node20&#45;&gt;Node27</title>
<g id="a_edge35_Node000020_Node000027"><a xlink:title=" ">
<path fill="none" stroke="#63b8ff" d="M1386.21,-295.56C1272.75,-293.05 842.9,-281.72 710.88,-251.5 709.11,-251.1 707.32,-250.61 705.53,-250.08"/>
<polygon fill="#63b8ff" stroke="#63b8ff" points="706.79,-246.81 696.19,-246.75 704.44,-253.4 706.79,-246.81"/>
</a>
</g>
</g>
<!-- Node28 -->
<g id="Node000028" class="node">
<title>Node28</title>
<g id="a_Node000028"><a xlink:title=" ">
<polygon fill="#e0e0e0" stroke="#999999" points="824.12,-245.88 719.62,-245.88 719.62,-226.62 824.12,-226.62 824.12,-245.88"/>
<text xml:space="preserve" text-anchor="middle" x="771.88" y="-232.38" font-family="Helvetica,sans-Serif" font-size="10.00">boost/date_time.hpp</text>
</a>
</g>
</g>
<!-- Node20&#45;&gt;Node28 -->
<g id="edge37_Node000020_Node000028" class="edge">
<title>Node20&#45;&gt;Node28</title>
<g id="a_edge37_Node000020_Node000028"><a xlink:title=" ">
<path fill="none" stroke="#63b8ff" d="M1385.94,-295.45C1301.95,-293.11 1044.53,-283.63 833.88,-251.5 828.83,-250.73 823.58,-249.77 818.37,-248.72"/>
<polygon fill="#63b8ff" stroke="#63b8ff" points="819.1,-245.3 808.59,-246.62 817.63,-252.14 819.1,-245.3"/>
</a>
</g>
</g>
<!-- Node29 -->
<g id="Node000029" class="node">
<title>Node29</title>
<g id="a_Node000029"><a xlink:title=" ">
<polygon fill="#e0e0e0" stroke="#999999" points="983.12,-245.88 842.62,-245.88 842.62,-226.62 983.12,-226.62 983.12,-245.88"/>
<text xml:space="preserve" text-anchor="middle" x="912.88" y="-232.38" font-family="Helvetica,sans-Serif" font-size="10.00">boost/endian/conversion.hpp</text>
</a>
</g>
</g>
<!-- Node20&#45;&gt;Node29 -->
<g id="edge38_Node000020_Node000029" class="edge">
<title>Node20&#45;&gt;Node29</title>
<g id="a_edge38_Node000020_Node000029"><a xlink:title=" ">
<path fill="none" stroke="#63b8ff" d="M1385.96,-293.85C1318.33,-288.2 1140.42,-272.43 992.88,-251.5 986,-250.52 978.81,-249.4 971.68,-248.21"/>
<polygon fill="#63b8ff" stroke="#63b8ff" points="972.53,-244.81 962.08,-246.57 971.35,-251.71 972.53,-244.81"/>
</a>
</g>
</g>
<!-- Node30 -->
<g id="Node000030" class="node">
<title>Node30</title>
<g id="a_Node000030"><a xlink:title=" ">
<polygon fill="#e0e0e0" stroke="#999999" points="1102.25,-245.88 1001.5,-245.88 1001.5,-226.62 1102.25,-226.62 1102.25,-245.88"/>
<text xml:space="preserve" text-anchor="middle" x="1051.88" y="-232.38" font-family="Helvetica,sans-Serif" font-size="10.00">boost/uuid/uuid.hpp</text>
</a>
</g>
</g>
<!-- Node20&#45;&gt;Node30 -->
<g id="edge39_Node000020_Node000030" class="edge">
<title>Node20&#45;&gt;Node30</title>
<g id="a_edge39_Node000020_Node000030"><a xlink:title=" ">
<path fill="none" stroke="#63b8ff" d="M1386.16,-292.9C1332.68,-286.48 1211.62,-271.04 1110.88,-251.5 1106.81,-250.71 1102.6,-249.83 1098.39,-248.9"/>
<polygon fill="#63b8ff" stroke="#63b8ff" points="1099.33,-245.53 1088.8,-246.7 1097.77,-252.35 1099.33,-245.53"/>
</a>
</g>
</g>
<!-- Node31 -->
<g id="Node000031" class="node">
<title>Node31</title>
<g id="a_Node000031"><a xlink:title=" ">
<polygon fill="#e0e0e0" stroke="#999999" points="1271.75,-245.88 1120,-245.88 1120,-226.62 1271.75,-226.62 1271.75,-245.88"/>
<text xml:space="preserve" text-anchor="middle" x="1195.88" y="-232.38" font-family="Helvetica,sans-Serif" font-size="10.00">boost/uuid/uuid_generators.hpp</text>
</a>
</g>
</g>
<!-- Node20&#45;&gt;Node31 -->
<g id="edge40_Node000020_Node000031" class="edge">
<title>Node20&#45;&gt;Node31</title>
<g id="a_edge40_Node000020_Node000031"><a xlink:title=" ">
<path fill="none" stroke="#63b8ff" d="M1386.27,-288.67C1349.48,-278.73 1283.97,-261.04 1240.22,-249.23"/>
<polygon fill="#63b8ff" stroke="#63b8ff" points="1241.35,-245.91 1230.78,-246.68 1239.52,-252.66 1241.35,-245.91"/>
</a>
</g>
</g>
<!-- Node32 -->
<g id="Node000032" class="node">
<title>Node32</title>
<g id="a_Node000032"><a xlink:title=" ">
<polygon fill="#e0e0e0" stroke="#999999" points="1403.62,-245.88 1290.12,-245.88 1290.12,-226.62 1403.62,-226.62 1403.62,-245.88"/>
<text xml:space="preserve" text-anchor="middle" x="1346.88" y="-232.38" font-family="Helvetica,sans-Serif" font-size="10.00">boost/uuid/uuid_io.hpp</text>
</a>
</g>
</g>
<!-- Node20&#45;&gt;Node32 -->
<g id="edge41_Node000020_Node000032" class="edge">
<title>Node20&#45;&gt;Node32</title>
<g id="a_edge41_Node000020_Node000032"><a xlink:title=" ">
<path fill="none" stroke="#63b8ff" d="M1403.7,-287.18C1393.66,-278.37 1378.09,-264.68 1365.78,-253.86"/>
<polygon fill="#63b8ff" stroke="#63b8ff" points="1368.11,-251.25 1358.28,-247.28 1363.49,-256.51 1368.11,-251.25"/>
</a>
</g>
</g>
<!-- Node33 -->
<g id="Node000033" class="node">
<title>Node33</title>
<g id="a_Node000033"><a xlink:title=" ">
<polygon fill="#e0e0e0" stroke="#999999" points="1541.62,-251.5 1422.12,-251.5 1422.12,-221 1541.62,-221 1541.62,-251.5"/>
<text xml:space="preserve" text-anchor="start" x="1430.12" y="-238" font-family="Helvetica,sans-Serif" font-size="10.00">boost/date_time/c_local</text>
<text xml:space="preserve" text-anchor="middle" x="1481.88" y="-226.75" font-family="Helvetica,sans-Serif" font-size="10.00">_time_adjustor.hpp</text>
</a>
</g>
</g>
<!-- Node20&#45;&gt;Node33 -->
<g id="edge42_Node000020_Node000033" class="edge">
<title>Node20&#45;&gt;Node33</title>
<g id="a_edge42_Node000020_Node000033"><a xlink:title=" ">
<path fill="none" stroke="#63b8ff" d="M1424.2,-287.18C1432.76,-279.77 1445.3,-268.92 1456.5,-259.22"/>
<polygon fill="#63b8ff" stroke="#63b8ff" points="1458.68,-261.96 1463.95,-252.77 1454.1,-256.67 1458.68,-261.96"/>
</a>
</g>
</g>
<!-- Node34 -->
<g id="Node000034" class="node">
<title>Node34</title>
<g id="a_Node000034"><a xlink:href="_h_d_f5_i_o_8hpp.html" target="_top" xlink:title=" ">
<polygon fill="white" stroke="#666666" points="1663.75,-245.88 1560,-245.88 1560,-226.62 1663.75,-226.62 1663.75,-245.88"/>
<text xml:space="preserve" text-anchor="middle" x="1611.88" y="-232.38" font-family="Helvetica,sans-Serif" font-size="10.00">io/hdf5/HDF5IO.hpp</text>
</a>
</g>
</g>
<!-- Node20&#45;&gt;Node34 -->
<g id="edge44_Node000020_Node000034" class="edge">
<title>Node20&#45;&gt;Node34</title>
<g id="a_edge44_Node000020_Node000034"><a xlink:title=" ">
<path fill="none" stroke="#63b8ff" d="M1441.82,-287.81C1475.39,-277.83 1532,-261 1570.6,-249.52"/>
<polygon fill="#63b8ff" stroke="#63b8ff" points="1571.43,-252.93 1580.02,-246.72 1569.44,-246.22 1571.43,-252.93"/>
</a>
</g>
</g>
<!-- Node34&#45;&gt;Node3 -->
<g id="edge46_Node000034_Node000003" class="edge">
<title>Node34&#45;&gt;Node3</title>
<g id="a_edge46_Node000034_Node000003"><a xlink:title=" ">
<path fill="none" stroke="#63b8ff" d="M1664.23,-227.08C1741.39,-214.89 1878.91,-192.58 1900.88,-185 1978.68,-158.15 2062.06,-106.4 2100.77,-80.87"/>
<polygon fill="#63b8ff" stroke="#63b8ff" points="2102.41,-83.99 2108.79,-75.53 2098.52,-78.16 2102.41,-83.99"/>
</a>
</g>
</g>
<!-- Node34&#45;&gt;Node4 -->
<g id="edge50_Node000034_Node000004" class="edge">
<title>Node34&#45;&gt;Node4</title>
<g id="a_edge50_Node000034_Node000004"><a xlink:title=" ">
<path fill="none" stroke="#63b8ff" d="M1618.99,-226.47C1630.49,-212.61 1654.25,-185.22 1677.88,-165.75 1691.43,-154.57 1707.96,-143.92 1721.54,-135.83"/>
<polygon fill="#63b8ff" stroke="#63b8ff" points="1723.07,-138.99 1729.95,-130.93 1719.55,-132.94 1723.07,-138.99"/>
</a>
</g>
</g>
<!-- Node34&#45;&gt;Node6 -->
<g id="edge45_Node000034_Node000006" class="edge">
<title>Node34&#45;&gt;Node6</title>
<g id="a_edge45_Node000034_Node000006"><a xlink:title=" ">
<path fill="none" stroke="#63b8ff" d="M1608.65,-226.14C1599.25,-199.6 1571.71,-121.86 1558.76,-85.3"/>
<polygon fill="#63b8ff" stroke="#63b8ff" points="1562.12,-84.3 1555.48,-76.04 1555.52,-86.64 1562.12,-84.3"/>
</a>
</g>
</g>
<!-- Node34&#45;&gt;Node7 -->
<g id="edge47_Node000034_Node000007" class="edge">
<title>Node34&#45;&gt;Node7</title>
<g id="a_edge47_Node000034_Node000007"><a xlink:title=" ">
<path fill="none" stroke="#63b8ff" d="M1575.21,-226.13C1567.22,-224.3 1558.78,-222.48 1550.88,-221 1134.22,-142.87 621.48,-83.77 491.14,-69.3"/>
<polygon fill="#63b8ff" stroke="#63b8ff" points="491.89,-65.86 481.57,-68.24 491.12,-72.82 491.89,-65.86"/>
</a>
</g>
</g>
<!-- Node34&#45;&gt;Node14 -->
<g id="edge49_Node000034_Node000014" class="edge">
<title>Node34&#45;&gt;Node14</title>
<g id="a_edge49_Node000034_Node000014"><a xlink:title=" ">
<path fill="none" stroke="#63b8ff" d="M1573.39,-226.21C1519.38,-213.35 1427.04,-190.71 1421.88,-185 1397.25,-157.77 1397.44,-111.97 1400.01,-85.8"/>
<polygon fill="#63b8ff" stroke="#63b8ff" points="1403.44,-86.55 1401.18,-76.2 1396.49,-85.71 1403.44,-86.55"/>
</a>
</g>
</g>
<!-- Node35 -->
<g id="Node000035" class="node">
<title>Node35</title>
<g id="a_Node000035"><a xlink:title=" ">
<polygon fill="#e0e0e0" stroke="#999999" points="1500.88,-185 1430.88,-185 1430.88,-165.75 1500.88,-165.75 1500.88,-185"/>
<text xml:space="preserve" text-anchor="middle" x="1465.88" y="-171.5" font-family="Helvetica,sans-Serif" font-size="10.00">H5Opublic.h</text>
</a>
</g>
</g>
<!-- Node34&#45;&gt;Node35 -->
<g id="edge48_Node000034_Node000035" class="edge">
<title>Node34&#45;&gt;Node35</title>
<g id="a_edge48_Node000034_Node000035"><a xlink:title=" ">
<path fill="none" stroke="#63b8ff" d="M1589.38,-226.18C1565.09,-216.38 1526.16,-200.69 1498.51,-189.54"/>
<polygon fill="#63b8ff" stroke="#63b8ff" points="1500.14,-186.42 1489.56,-185.92 1497.52,-192.91 1500.14,-186.42"/>
</a>
</g>
</g>
<!-- Node34&#45;&gt;Node36 -->
<g id="edge51_Node000034_Node000036" class="edge">
<title>Node34&#45;&gt;Node36</title>
<g id="a_edge51_Node000034_Node000036"><a xlink:title=" ">
<path fill="none" stroke="#63b8ff" d="M1649,-226.18C1690.75,-215.98 1758.69,-199.38 1804.55,-188.18"/>
<polygon fill="#63b8ff" stroke="#63b8ff" points="1805.35,-191.59 1814.23,-185.81 1803.69,-184.79 1805.35,-191.59"/>
</a>
</g>
</g>
<!-- Node36&#45;&gt;Node2 -->
<g id="edge52_Node000036_Node000002" class="edge">
<title>Node36&#45;&gt;Node2</title>
<g id="a_edge52_Node000036_Node000002"><a xlink:title=" ">
<path fill="none" stroke="#63b8ff" d="M1813.02,-168.25C1772.83,-161.4 1709.4,-148.71 1656.88,-129.75 1639.07,-123.32 1636.3,-117.91 1618.88,-110.5 1614.05,-108.45 1553.91,-87.63 1517.81,-75.16"/>
<polygon fill="#63b8ff" stroke="#63b8ff" points="1519.06,-71.89 1508.47,-71.94 1516.78,-78.51 1519.06,-71.89"/>
</a>
</g>
</g>
<!-- Node36&#45;&gt;Node3 -->
<g id="edge55_Node000036_Node000003" class="edge">
<title>Node36&#45;&gt;Node3</title>
<g id="a_edge55_Node000036_Node000003"><a xlink:title=" ">
<path fill="none" stroke="#63b8ff" d="M1875.43,-165.31C1923.08,-146.16 2034.16,-101.53 2089.83,-79.15"/>
<polygon fill="#63b8ff" stroke="#63b8ff" points="2090.82,-82.53 2098.79,-75.55 2088.21,-76.04 2090.82,-82.53"/>
</a>
</g>
</g>
<!-- Node36&#45;&gt;Node4 -->
<g id="edge60_Node000036_Node000004" class="edge">
<title>Node36&#45;&gt;Node4</title>
<g id="a_edge60_Node000036_Node000004"><a xlink:title=" ">
<path fill="none" stroke="#63b8ff" d="M1835.06,-165.34C1818.85,-157.12 1794.64,-144.84 1775.84,-135.31"/>
<polygon fill="#63b8ff" stroke="#63b8ff" points="1777.63,-132.29 1767.12,-130.89 1774.46,-138.53 1777.63,-132.29"/>
</a>
</g>
</g>
<!-- Node36&#45;&gt;Node5 -->
<g id="edge53_Node000036_Node000005" class="edge">
<title>Node36&#45;&gt;Node5</title>
<g id="a_edge53_Node000036_Node000005"><a xlink:title=" ">
<path fill="none" stroke="#63b8ff" d="M1873.05,-165.27C1888.61,-157.5 1909.92,-145.16 1924.88,-129.75 1937.57,-116.67 1947.57,-98.42 1953.96,-84.77"/>
<polygon fill="#63b8ff" stroke="#63b8ff" points="1957,-86.55 1957.85,-75.99 1950.6,-83.72 1957,-86.55"/>
</a>
</g>
</g>
<!-- Node36&#45;&gt;Node6 -->
<g id="edge54_Node000036_Node000006" class="edge">
<title>Node36&#45;&gt;Node6</title>
<g id="a_edge54_Node000036_Node000006"><a xlink:title=" ">
<path fill="none" stroke="#63b8ff" d="M1816.56,-165.29C1785.27,-157.1 1739.09,-144.17 1699.88,-129.75 1680.22,-122.52 1676.07,-118.87 1656.88,-110.5 1632.56,-99.89 1604.95,-88.17 1584.14,-79.4"/>
<polygon fill="#63b8ff" stroke="#63b8ff" points="1585.62,-76.22 1575.04,-75.57 1582.9,-82.68 1585.62,-76.22"/>
</a>
</g>
</g>
<!-- Node36&#45;&gt;Node7 -->
<g id="edge56_Node000036_Node000007" class="edge">
<title>Node36&#45;&gt;Node7</title>
<g id="a_edge56_Node000036_Node000007"><a xlink:title=" ">
<path fill="none" stroke="#63b8ff" d="M1813.06,-171.27C1608.12,-155.31 674.65,-82.6 491.21,-68.32"/>
<polygon fill="#63b8ff" stroke="#63b8ff" points="491.75,-64.85 481.51,-67.56 491.21,-71.83 491.75,-64.85"/>
</a>
</g>
</g>
<!-- Node36&#45;&gt;Node8 -->
<g id="edge57_Node000036_Node000008" class="edge">
<title>Node36&#45;&gt;Node8</title>
<g id="a_edge57_Node000036_Node000008"><a xlink:title=" ">
<path fill="none" stroke="#63b8ff" d="M1846.14,-165.45C1836.09,-152.45 1816.14,-127.97 1795.88,-110.5 1782.96,-99.37 1767.11,-88.81 1753.95,-80.76"/>
<polygon fill="#63b8ff" stroke="#63b8ff" points="1755.78,-77.77 1745.39,-75.66 1752.19,-83.79 1755.78,-77.77"/>
</a>
</g>
</g>
<!-- Node36&#45;&gt;Node12 -->
<g id="edge58_Node000036_Node000012" class="edge">
<title>Node36&#45;&gt;Node12</title>
<g id="a_edge58_Node000036_Node000012"><a xlink:title=" ">
<path fill="none" stroke="#63b8ff" d="M1861.05,-165.34C1879.77,-143.59 1921.87,-87.69 1891.88,-55.25 1858.91,-19.6 1520.32,-27.4 1435.98,-18.96"/>
<polygon fill="#63b8ff" stroke="#63b8ff" points="1436.58,-15.51 1426.21,-17.65 1435.66,-22.45 1436.58,-15.51"/>
</a>
</g>
</g>
<!-- Node36&#45;&gt;Node13 -->
<g id="edge59_Node000036_Node000013" class="edge">
<title>Node36&#45;&gt;Node13</title>
<g id="a_edge59_Node000036_Node000013"><a xlink:title=" ">
<path fill="none" stroke="#63b8ff" d="M1850.91,-165.5C1847.1,-148.25 1838.6,-109.83 1833.34,-86.06"/>
<polygon fill="#63b8ff" stroke="#63b8ff" points="1836.77,-85.36 1831.19,-76.35 1829.94,-86.87 1836.77,-85.36"/>
</a>
</g>
</g>
<!-- Node36&#45;&gt;Node14 -->
<g id="edge61_Node000036_Node000014" class="edge">
<title>Node36&#45;&gt;Node14</title>
<g id="a_edge61_Node000036_Node000014"><a xlink:title=" ">
<path fill="none" stroke="#63b8ff" d="M1813.09,-170.23C1765.82,-164.53 1685.03,-152.31 1618.88,-129.75 1600.96,-123.64 1598.61,-117.12 1580.88,-110.5 1535.63,-93.61 1481.55,-81.08 1444.97,-73.66"/>
<polygon fill="#63b8ff" stroke="#63b8ff" points="1445.71,-70.24 1435.22,-71.73 1444.35,-77.11 1445.71,-70.24"/>
</a>
</g>
</g>
<!-- Node37&#45;&gt;Node7 -->
<g id="edge66_Node000037_Node000007" class="edge">
<title>Node37&#45;&gt;Node7</title>
<g id="a_edge66_Node000037_Node000007"><a xlink:title=" ">
<path fill="none" stroke="#63b8ff" d="M127.96,-168.47C181.14,-162.28 259.29,-150.49 324.88,-129.75 364.85,-117.11 408.2,-94.95 434.7,-80.34"/>
<polygon fill="#63b8ff" stroke="#63b8ff" points="436.3,-83.45 443.32,-75.52 432.88,-77.34 436.3,-83.45"/>
</a>
</g>
</g>
<!-- Node37&#45;&gt;Node12 -->
<g id="edge68_Node000037_Node000012" class="edge">
<title>Node37&#45;&gt;Node12</title>
<g id="a_edge68_Node000037_Node000012"><a xlink:title=" ">
<path fill="none" stroke="#63b8ff" d="M64.75,-165.35C62.47,-142.6 60.12,-82.77 93.88,-55.25 147.1,-11.85 1226.3,-28.62 1369.63,-18.56"/>
<polygon fill="#63b8ff" stroke="#63b8ff" points="1369.89,-22.05 1379.5,-17.57 1369.2,-15.08 1369.89,-22.05"/>
</a>
</g>
</g>
<!-- Node38 -->
<g id="Node000038" class="node">
<title>Node38</title>
<g id="a_Node000038"><a xlink:title=" ">
<polygon fill="#e0e0e0" stroke="#999999" points="37.75,-129.75 0,-129.75 0,-110.5 37.75,-110.5 37.75,-129.75"/>
<text xml:space="preserve" text-anchor="middle" x="18.88" y="-116.25" font-family="Helvetica,sans-Serif" font-size="10.00">array</text>
</a>
</g>
</g>
<!-- Node37&#45;&gt;Node38 -->
<g id="edge65_Node000037_Node000038" class="edge">
<title>Node37&#45;&gt;Node38</title>
<g id="a_edge65_Node000037_Node000038"><a xlink:title=" ">
<path fill="none" stroke="#63b8ff" d="M58.11,-165.58C51.69,-158.3 42.36,-147.73 34.41,-138.73"/>
<polygon fill="#63b8ff" stroke="#63b8ff" points="37.05,-136.43 27.81,-131.24 31.8,-141.06 37.05,-136.43"/>
</a>
</g>
</g>
<!-- Node39 -->
<g id="Node000039" class="node">
<title>Node39</title>
<g id="a_Node000039"><a xlink:title=" ">
<polygon fill="#e0e0e0" stroke="#999999" points="168.62,-74.5 103.12,-74.5 103.12,-55.25 168.62,-55.25 168.62,-74.5"/>
<text xml:space="preserve" text-anchor="middle" x="135.88" y="-61" font-family="Helvetica,sans-Serif" font-size="10.00">string_view</text>
</a>
</g>
</g>
<!-- Node37&#45;&gt;Node39 -->
<g id="edge67_Node000037_Node000039" class="edge">
<title>Node37&#45;&gt;Node39</title>
<g id="a_edge67_Node000037_Node000039"><a xlink:title=" ">
<path fill="none" stroke="#63b8ff" d="M71.6,-165.5C82.99,-147.85 108.66,-108.05 123.89,-84.45"/>
<polygon fill="#63b8ff" stroke="#63b8ff" points="126.77,-86.45 129.25,-76.15 120.88,-82.65 126.77,-86.45"/>
</a>
</g>
</g>
<!-- Node40 -->
<g id="Node000040" class="node">
<title>Node40</title>
<g id="a_Node000040"><a xlink:href="_namespace_registry_8hpp.html" target="_top" xlink:title=" ">
<polygon fill="white" stroke="#666666" points="316.12,-129.75 169.62,-129.75 169.62,-110.5 316.12,-110.5 316.12,-129.75"/>
<text xml:space="preserve" text-anchor="middle" x="242.88" y="-116.25" font-family="Helvetica,sans-Serif" font-size="10.00">spec/NamespaceRegistry.hpp</text>
</a>
</g>
</g>
<!-- Node37&#45;&gt;Node40 -->
<g id="edge69_Node000037_Node000040" class="edge">
<title>Node37&#45;&gt;Node40</title>
<g id="a_edge69_Node000037_Node000040"><a xlink:title=" ">
<path fill="none" stroke="#63b8ff" d="M95.9,-165.34C125.02,-156.58 169.41,-143.23 201.79,-133.48"/>
<polygon fill="#63b8ff" stroke="#63b8ff" points="202.69,-136.87 211.25,-130.64 200.67,-130.17 202.69,-136.87"/>
</a>
</g>
</g>
<!-- Node40&#45;&gt;Node7 -->
<g id="edge71_Node000040_Node000007" class="edge">
<title>Node40&#45;&gt;Node7</title>
<g id="a_edge71_Node000040_Node000007"><a xlink:title=" ">
<path fill="none" stroke="#63b8ff" d="M284.12,-110.03C319.93,-101.99 373.43,-89.59 428.59,-75"/>
<polygon fill="#63b8ff" stroke="#63b8ff" points="429.41,-78.4 438.17,-72.44 427.61,-71.64 429.41,-78.4"/>
</a>
</g>
</g>
<!-- Node40&#45;&gt;Node9 -->
<g id="edge73_Node000040_Node000009" class="edge">
<title>Node40&#45;&gt;Node9</title>
<g id="a_edge73_Node000040_Node000009"><a xlink:title=" ">
<path fill="none" stroke="#63b8ff" d="M266.28,-110.09C288.39,-101.56 321.79,-88.67 346.84,-79.01"/>
<polygon fill="#63b8ff" stroke="#63b8ff" points="347.87,-82.36 355.94,-75.5 345.35,-75.83 347.87,-82.36"/>
</a>
</g>
</g>
<!-- Node40&#45;&gt;Node12 -->
<g id="edge74_Node000040_Node000012" class="edge">
<title>Node40&#45;&gt;Node12</title>
<g id="a_edge74_Node000040_Node000012"><a xlink:title=" ">
<path fill="none" stroke="#63b8ff" d="M251.1,-110.44C265.59,-95.83 297.31,-66.79 330.88,-55.25 546.45,18.88 1125.23,-52.3 1369.96,-19.01"/>
<polygon fill="#63b8ff" stroke="#63b8ff" points="1370.11,-22.53 1379.5,-17.62 1369.1,-15.6 1370.11,-22.53"/>
</a>
</g>
</g>
<!-- Node40&#45;&gt;Node14 -->
<g id="edge75_Node000040_Node000014" class="edge">
<title>Node40&#45;&gt;Node14</title>
<g id="a_edge75_Node000040_Node000014"><a xlink:title=" ">
<path fill="none" stroke="#63b8ff" d="M316.32,-115.75C536.75,-105.63 1188.05,-75.74 1360.55,-67.82"/>
<polygon fill="#63b8ff" stroke="#63b8ff" points="1360.56,-71.32 1370.39,-67.37 1360.24,-64.33 1360.56,-71.32"/>
</a>
</g>
</g>
<!-- Node40&#45;&gt;Node19 -->
<g id="edge70_Node000040_Node000019" class="edge">
<title>Node40&#45;&gt;Node19</title>
<g id="a_edge70_Node000040_Node000019"><a xlink:title=" ">
<path fill="none" stroke="#63b8ff" d="M239.9,-110.33C237.62,-103.59 234.39,-94.02 231.51,-85.49"/>
<polygon fill="#63b8ff" stroke="#63b8ff" points="234.91,-84.65 228.4,-76.29 228.28,-86.89 234.91,-84.65"/>
</a>
</g>
</g>
<!-- Node40&#45;&gt;Node39 -->
<g id="edge72_Node000040_Node000039" class="edge">
<title>Node40&#45;&gt;Node39</title>
<g id="a_edge72_Node000040_Node000039"><a xlink:title=" ">
<path fill="none" stroke="#63b8ff" d="M224.72,-110.09C208.2,-101.87 183.53,-89.59 164.38,-80.06"/>
<polygon fill="#63b8ff" stroke="#63b8ff" points="165.98,-76.95 155.47,-75.63 162.86,-83.22 165.98,-76.95"/>
</a>
</g>
</g>
</g>
</svg>
