<?xml version="1.0" encoding="UTF-8" standalone="no"?>
<!DOCTYPE svg PUBLIC "-//W3C//DTD SVG 1.1//EN"
 "http://www.w3.org/Graphics/SVG/1.1/DTD/svg11.dtd">
<!-- Generated by graphviz version 12.1.0 (20240811.2233)
 -->
<!-- Title: src/nwb/hdmf/base/Data.hpp Pages: 1 -->
<svg width="442pt" height="293pt"
 viewBox="0.00 0.00 442.25 293.25" xmlns="http://www.w3.org/2000/svg" xmlns:xlink="http://www.w3.org/1999/xlink">

<svg id="main" version="1.1" xmlns="http://www.w3.org/2000/svg" xmlns:xlink="http://www.w3.org/1999/xlink" xml:space="preserve">

<style type="text/css"><![CDATA[
.node, .edge {opacity: 0.7;}
.node.selected, .edge.selected {opacity: 1;}
.edge:hover path { stroke: red; }
.edge:hover polygon { stroke: red; fill: red; }
]]></style>
<script type="application/ecmascript" xlink:href="svg.min.js"/>
<svg id="graph" class="graph">
<g id="graph0" class="graph" transform="scale(1 1) rotate(0) translate(4 289.25)">
<title>src/nwb/hdmf/base/Data.hpp</title>
<!-- Node1 -->
<g id="Node000001" class="node">
<title>Node1</title>
<g id="a_Node000001"><a xlink:title=" ">
<polygon fill="#999999" stroke="#666666" points="244,-285.25 102,-285.25 102,-266 244,-266 244,-285.25"/>
<text text-anchor="middle" x="173" y="-271.75" font-family="Helvetica,sans-Serif" font-size="10.00">src/nwb/hdmf/base/Data.hpp</text>
</a>
</g>
</g>
<!-- Node2 -->
<g id="Node000002" class="node">
<title>Node2</title>
<g id="a_Node000002"><a xlink:href="_element_identifiers_8hpp.html" target="_top" xlink:title=" ">
<polygon fill="white" stroke="#666666" points="168.25,-230 51.75,-230 51.75,-199.5 168.25,-199.5 168.25,-230"/>
<text text-anchor="start" x="59.75" y="-216.5" font-family="Helvetica,sans-Serif" font-size="10.00">src/nwb/hdmf/table</text>
<text text-anchor="middle" x="110" y="-205.25" font-family="Helvetica,sans-Serif" font-size="10.00">/ElementIdentifiers.hpp</text>
</a>
</g>
</g>
<!-- Node1&#45;&gt;Node2 -->
<g id="edge1_Node000001_Node000002" class="edge">
<title>Node1&#45;&gt;Node2</title>
<g id="a_edge1_Node000001_Node000002"><a xlink:title=" ">
<path fill="none" stroke="#63b8ff" d="M155.23,-258.02C145.89,-249.29 134.54,-238.68 125.55,-230.28"/>
<polygon fill="#63b8ff" stroke="#63b8ff" points="152.63,-260.38 162.33,-264.65 157.41,-255.26 152.63,-260.38"/>
</a>
</g>
</g>
<!-- Node9 -->
<g id="Node000009" class="node">
<title>Node9</title>
<g id="a_Node000009"><a xlink:href="_vector_data_8hpp.html" target="_top" xlink:title=" ">
<polygon fill="white" stroke="#666666" points="285.62,-230 186.38,-230 186.38,-199.5 285.62,-199.5 285.62,-230"/>
<text text-anchor="start" x="194.38" y="-216.5" font-family="Helvetica,sans-Serif" font-size="10.00">src/nwb/hdmf/table</text>
<text text-anchor="middle" x="236" y="-205.25" font-family="Helvetica,sans-Serif" font-size="10.00">/VectorData.hpp</text>
</a>
</g>
</g>
<!-- Node1&#45;&gt;Node9 -->
<g id="edge9_Node000001_Node000009" class="edge">
<title>Node1&#45;&gt;Node9</title>
<g id="a_edge9_Node000001_Node000009"><a xlink:title=" ">
<path fill="none" stroke="#63b8ff" d="M190.77,-258.02C200.11,-249.29 211.46,-238.68 220.45,-230.28"/>
<polygon fill="#63b8ff" stroke="#63b8ff" points="188.59,-255.26 183.67,-264.65 193.37,-260.38 188.59,-255.26"/>
</a>
</g>
</g>
<!-- Node3 -->
<g id="Node000003" class="node">
<title>Node3</title>
<g id="a_Node000003"><a xlink:href="_electrode_table_8hpp.html" target="_top" xlink:title=" ">
<polygon fill="white" stroke="#666666" points="273.25,-91.38 120.75,-91.38 120.75,-72.12 273.25,-72.12 273.25,-91.38"/>
<text text-anchor="middle" x="197" y="-77.88" font-family="Helvetica,sans-Serif" font-size="10.00">src/nwb/file/ElectrodeTable.hpp</text>
</a>
</g>
</g>
<!-- Node2&#45;&gt;Node3 -->
<g id="edge2_Node000002_Node000003" class="edge">
<title>Node2&#45;&gt;Node3</title>
<g id="a_edge2_Node000002_Node000003"><a xlink:title=" ">
<path fill="none" stroke="#63b8ff" d="M98.57,-188.46C92.77,-171.6 88.87,-149.58 99,-133 111.96,-111.79 137.03,-99.16 158.57,-91.87"/>
<polygon fill="#63b8ff" stroke="#63b8ff" points="95.3,-189.72 102.18,-197.77 101.82,-187.18 95.3,-189.72"/>
</a>
</g>
</g>
<!-- Node7 -->
<g id="Node000007" class="node">
<title>Node7</title>
<g id="a_Node000007"><a xlink:href="_dynamic_table_8hpp.html" target="_top" xlink:title=" ">
<polygon fill="white" stroke="#666666" points="208,-163.5 108,-163.5 108,-133 208,-133 208,-163.5"/>
<text text-anchor="start" x="116" y="-150" font-family="Helvetica,sans-Serif" font-size="10.00">src/nwb/hdmf/table</text>
<text text-anchor="middle" x="158" y="-138.75" font-family="Helvetica,sans-Serif" font-size="10.00">/DynamicTable.hpp</text>
</a>
</g>
</g>
<!-- Node2&#45;&gt;Node7 -->
<g id="edge6_Node000002_Node000007" class="edge">
<title>Node2&#45;&gt;Node7</title>
<g id="a_edge6_Node000002_Node000007"><a xlink:title=" ">
<path fill="none" stroke="#63b8ff" d="M127.62,-190.07C134.17,-181.28 141.39,-171.57 147.15,-163.83"/>
<polygon fill="#63b8ff" stroke="#63b8ff" points="124.96,-187.79 121.8,-197.9 130.57,-191.97 124.96,-187.79"/>
</a>
</g>
</g>
<!-- Node4 -->
<g id="Node000004" class="node">
<title>Node4</title>
<g id="a_Node000004"><a xlink:href="_n_w_b_file_8cpp.html" target="_top" xlink:title=" ">
<polygon fill="white" stroke="#666666" points="112,-24.88 0,-24.88 0,-5.63 112,-5.63 112,-24.88"/>
<text text-anchor="middle" x="56" y="-11.38" font-family="Helvetica,sans-Serif" font-size="10.00">src/nwb/NWBFile.cpp</text>
</a>
</g>
</g>
<!-- Node3&#45;&gt;Node4 -->
<g id="edge3_Node000003_Node000004" class="edge">
<title>Node3&#45;&gt;Node4</title>
<g id="a_edge3_Node000003_Node000004"><a xlink:title=" ">
<path fill="none" stroke="#63b8ff" d="M166.86,-66.96C139.35,-54.38 99.48,-36.14 75.8,-25.31"/>
<polygon fill="#63b8ff" stroke="#63b8ff" points="165.17,-70.04 175.72,-71.02 168.08,-63.67 165.17,-70.04"/>
</a>
</g>
</g>
<!-- Node5 -->
<g id="Node000005" class="node">
<title>Node5</title>
<g id="a_Node000005"><a xlink:href="_electrical_series_8cpp.html" target="_top" xlink:title=" ">
<polygon fill="white" stroke="#666666" points="263.88,-30.5 130.12,-30.5 130.12,0 263.88,0 263.88,-30.5"/>
<text text-anchor="start" x="138.12" y="-17" font-family="Helvetica,sans-Serif" font-size="10.00">src/nwb/ecephys/Electrical</text>
<text text-anchor="middle" x="197" y="-5.75" font-family="Helvetica,sans-Serif" font-size="10.00">Series.cpp</text>
</a>
</g>
</g>
<!-- Node3&#45;&gt;Node5 -->
<g id="edge4_Node000003_Node000005" class="edge">
<title>Node3&#45;&gt;Node5</title>
<g id="a_edge4_Node000003_Node000005"><a xlink:title=" ">
<path fill="none" stroke="#63b8ff" d="M197,-60.37C197,-50.69 197,-39.35 197,-30.59"/>
<polygon fill="#63b8ff" stroke="#63b8ff" points="193.5,-60.27 197,-70.27 200.5,-60.27 193.5,-60.27"/>
</a>
</g>
</g>
<!-- Node6 -->
<g id="Node000006" class="node">
<title>Node6</title>
<g id="a_Node000006"><a xlink:href="_electrode_table_8cpp.html" target="_top" xlink:title=" ">
<polygon fill="white" stroke="#666666" points="434.25,-24.88 281.75,-24.88 281.75,-5.63 434.25,-5.63 434.25,-24.88"/>
<text text-anchor="middle" x="358" y="-11.38" font-family="Helvetica,sans-Serif" font-size="10.00">src/nwb/file/ElectrodeTable.cpp</text>
</a>
</g>
</g>
<!-- Node3&#45;&gt;Node6 -->
<g id="edge5_Node000003_Node000006" class="edge">
<title>Node3&#45;&gt;Node6</title>
<g id="a_edge5_Node000003_Node000006"><a xlink:title=" ">
<path fill="none" stroke="#63b8ff" d="M230.17,-67.46C261.61,-54.87 307.99,-36.28 335.39,-25.31"/>
<polygon fill="#63b8ff" stroke="#63b8ff" points="229.11,-64.11 221.13,-71.08 231.72,-70.61 229.11,-64.11"/>
</a>
</g>
</g>
<!-- Node7&#45;&gt;Node3 -->
<g id="edge7_Node000007_Node000003" class="edge">
<title>Node7&#45;&gt;Node3</title>
<g id="a_edge7_Node000007_Node000003"><a xlink:title=" ">
<path fill="none" stroke="#63b8ff" d="M172.64,-123.03C179.31,-112.01 186.78,-99.66 191.67,-91.57"/>
<polygon fill="#63b8ff" stroke="#63b8ff" points="169.81,-120.95 167.63,-131.32 175.8,-124.57 169.81,-120.95"/>
</a>
</g>
</g>
<!-- Node8 -->
<g id="Node000008" class="node">
<title>Node8</title>
<g id="a_Node000008"><a xlink:href="_dynamic_table_8cpp.html" target="_top" xlink:title=" ">
<polygon fill="white" stroke="#666666" points="103,-97 3,-97 3,-66.5 103,-66.5 103,-97"/>
<text text-anchor="start" x="11" y="-83.5" font-family="Helvetica,sans-Serif" font-size="10.00">src/nwb/hdmf/table</text>
<text text-anchor="middle" x="53" y="-72.25" font-family="Helvetica,sans-Serif" font-size="10.00">/DynamicTable.cpp</text>
</a>
</g>
</g>
<!-- Node7&#45;&gt;Node8 -->
<g id="edge8_Node000007_Node000008" class="edge">
<title>Node7&#45;&gt;Node8</title>
<g id="a_edge8_Node000007_Node000008"><a xlink:title=" ">
<path fill="none" stroke="#63b8ff" d="M124.41,-126.61C108.88,-117.08 90.81,-105.98 76.73,-97.33"/>
<polygon fill="#63b8ff" stroke="#63b8ff" points="122.53,-129.57 132.88,-131.82 126.2,-123.61 122.53,-129.57"/>
</a>
</g>
</g>
<!-- Node9&#45;&gt;Node3 -->
<g id="edge10_Node000009_Node000003" class="edge">
<title>Node9&#45;&gt;Node3</title>
<g id="a_edge10_Node000009_Node000003"><a xlink:title=" ">
<path fill="none" stroke="#63b8ff" d="M230.98,-188.13C227.6,-172.12 222.72,-151.17 217,-133 212.38,-118.31 205.47,-101.82 201.1,-91.86"/>
<polygon fill="#63b8ff" stroke="#63b8ff" points="227.53,-188.7 232.96,-197.8 234.39,-187.3 227.53,-188.7"/>
</a>
</g>
</g>
<!-- Node9&#45;&gt;Node7 -->
<g id="edge11_Node000009_Node000007" class="edge">
<title>Node9&#45;&gt;Node7</title>
<g id="a_edge11_Node000009_Node000007"><a xlink:title=" ">
<path fill="none" stroke="#63b8ff" d="M209.72,-192.02C198.49,-182.73 185.69,-172.15 175.63,-163.83"/>
<polygon fill="#63b8ff" stroke="#63b8ff" points="207.2,-194.47 217.13,-198.15 211.66,-189.08 207.2,-194.47"/>
</a>
</g>
</g>
<!-- Node10 -->
<g id="Node000010" class="node">
<title>Node10</title>
<g id="a_Node000010"><a xlink:href="_vector_data_8cpp.html" target="_top" xlink:title=" ">
<polygon fill="white" stroke="#666666" points="363.62,-163.5 264.38,-163.5 264.38,-133 363.62,-133 363.62,-163.5"/>
<text text-anchor="start" x="272.38" y="-150" font-family="Helvetica,sans-Serif" font-size="10.00">src/nwb/hdmf/table</text>
<text text-anchor="middle" x="314" y="-138.75" font-family="Helvetica,sans-Serif" font-size="10.00">/VectorData.cpp</text>
</a>
</g>
</g>
<!-- Node9&#45;&gt;Node10 -->
<g id="edge12_Node000009_Node000010" class="edge">
<title>Node9&#45;&gt;Node10</title>
<g id="a_edge12_Node000009_Node000010"><a xlink:title=" ">
<path fill="none" stroke="#63b8ff" d="M262.28,-192.02C273.51,-182.73 286.31,-172.15 296.37,-163.83"/>
<polygon fill="#63b8ff" stroke="#63b8ff" points="260.34,-189.08 254.87,-198.15 264.8,-194.47 260.34,-189.08"/>
</a>
</g>
</g>
</g>
</svg>
</svg>

<style type='text/css'>
<![CDATA[
[data-mouse-over-selected='false'] { opacity: 0.7; }
[data-mouse-over-selected='true']  { opacity: 1.0; }
]]>
</style>
<script type="application/ecmascript"><![CDATA[
document.addEventListener('DOMContentLoaded', (event) => {
  highlightEdges();
  highlightAdjacentNodes();
});
]]></script>
</svg>
