<?xml version="1.0" encoding="UTF-8" standalone="no"?>
<!DOCTYPE svg PUBLIC "-//W3C//DTD SVG 1.1//EN"
 "http://www.w3.org/Graphics/SVG/1.1/DTD/svg11.dtd">
<!-- Generated by graphviz version 12.2.1 (20241206.2353)
 -->
<!-- Title: src/nwb/hdmf/base/Data.hpp Pages: 1 -->
<svg width="608pt" height="349pt"
 viewBox="0.00 0.00 608.25 348.50" xmlns="http://www.w3.org/2000/svg" xmlns:xlink="http://www.w3.org/1999/xlink">
<g id="graph0" class="graph" transform="scale(1 1) rotate(0) translate(4 344.5)">
<title>src/nwb/hdmf/base/Data.hpp</title>
<!-- Node1 -->
<g id="Node000001" class="node">
<title>Node1</title>
<g id="a_Node000001"><a xlink:title=" ">
<polygon fill="#999999" stroke="#666666" points="289,-340.5 147,-340.5 147,-321.25 289,-321.25 289,-340.5"/>
<text text-anchor="middle" x="218" y="-327" font-family="Helvetica,sans-Serif" font-size="10.00">src/nwb/hdmf/base/Data.hpp</text>
</a>
</g>
</g>
<!-- Node2 -->
<g id="Node000002" class="node">
<title>Node2</title>
<g id="a_Node000002"><a xlink:href="_data_8cpp.html" target="_top" xlink:title=" ">
<polygon fill="white" stroke="#666666" points="142,-279.62 0,-279.62 0,-260.38 142,-260.38 142,-279.62"/>
<text text-anchor="middle" x="71" y="-266.12" font-family="Helvetica,sans-Serif" font-size="10.00">src/nwb/hdmf/base/Data.cpp</text>
</a>
</g>
</g>
<!-- Node1&#45;&gt;Node2 -->
<g id="edge1_Node000001_Node000002" class="edge">
<title>Node1&#45;&gt;Node2</title>
<g id="a_edge1_Node000001_Node000002"><a xlink:title=" ">
<path fill="none" stroke="#63b8ff" d="M184.9,-316.62C156.99,-305.44 117.8,-289.74 93.43,-279.98"/>
<polygon fill="#63b8ff" stroke="#63b8ff" points="183.36,-319.77 193.95,-320.24 185.97,-313.27 183.36,-319.77"/>
</a>
</g>
</g>
<!-- Node3 -->
<g id="Node000003" class="node">
<title>Node3</title>
<g id="a_Node000003"><a xlink:href="_element_identifiers_8hpp.html" target="_top" xlink:title=" ">
<polygon fill="white" stroke="#666666" points="276.25,-285.25 159.75,-285.25 159.75,-254.75 276.25,-254.75 276.25,-285.25"/>
<text text-anchor="start" x="167.75" y="-271.75" font-family="Helvetica,sans-Serif" font-size="10.00">src/nwb/hdmf/table</text>
<text text-anchor="middle" x="218" y="-260.5" font-family="Helvetica,sans-Serif" font-size="10.00">/ElementIdentifiers.hpp</text>
</a>
</g>
</g>
<!-- Node1&#45;&gt;Node3 -->
<g id="edge2_Node000001_Node000003" class="edge">
<title>Node1&#45;&gt;Node3</title>
<g id="a_edge2_Node000001_Node000003"><a xlink:title=" ">
<path fill="none" stroke="#63b8ff" d="M218,-309.67C218,-301.74 218,-292.81 218,-285.53"/>
<polygon fill="#63b8ff" stroke="#63b8ff" points="214.5,-309.42 218,-319.42 221.5,-309.42 214.5,-309.42"/>
</a>
</g>
</g>
<!-- Node12 -->
<g id="Node000012" class="node">
<title>Node12</title>
<g id="a_Node000012"><a xlink:href="_vector_data_8hpp.html" target="_top" xlink:title=" ">
<polygon fill="white" stroke="#666666" points="432.62,-285.25 333.38,-285.25 333.38,-254.75 432.62,-254.75 432.62,-285.25"/>
<text text-anchor="start" x="341.38" y="-271.75" font-family="Helvetica,sans-Serif" font-size="10.00">src/nwb/hdmf/table</text>
<text text-anchor="middle" x="383" y="-260.5" font-family="Helvetica,sans-Serif" font-size="10.00">/VectorData.hpp</text>
</a>
</g>
</g>
<!-- Node1&#45;&gt;Node12 -->
<g id="edge12_Node000001_Node000012" class="edge">
<title>Node1&#45;&gt;Node12</title>
<g id="a_edge12_Node000001_Node000012"><a xlink:title=" ">
<path fill="none" stroke="#63b8ff" d="M254.25,-316.94C280.11,-307.71 314.91,-295.29 341.82,-285.69"/>
<polygon fill="#63b8ff" stroke="#63b8ff" points="253.09,-313.64 244.85,-320.3 255.44,-320.23 253.09,-313.64"/>
</a>
</g>
</g>
<!-- Node4 -->
<g id="Node000004" class="node">
<title>Node4</title>
<g id="a_Node000004"><a xlink:href="_electrode_table_8hpp.html" target="_top" xlink:title=" ">
<polygon fill="white" stroke="#666666" points="439.25,-146.62 286.75,-146.62 286.75,-127.38 439.25,-127.38 439.25,-146.62"/>
<text text-anchor="middle" x="363" y="-133.12" font-family="Helvetica,sans-Serif" font-size="10.00">src/nwb/file/ElectrodeTable.hpp</text>
</a>
</g>
</g>
<!-- Node3&#45;&gt;Node4 -->
<g id="edge3_Node000003_Node000004" class="edge">
<title>Node3&#45;&gt;Node4</title>
<g id="a_edge3_Node000003_Node000004"><a xlink:title=" ">
<path fill="none" stroke="#63b8ff" d="M171.76,-249.34C142.12,-233.93 112.4,-211.31 131,-188.25 136.76,-181.1 246.98,-159.55 313.39,-147.11"/>
<polygon fill="#63b8ff" stroke="#63b8ff" points="169.87,-252.31 180.38,-253.61 172.97,-246.03 169.87,-252.31"/>
</a>
</g>
</g>
<!-- Node9 -->
<g id="Node000009" class="node">
<title>Node9</title>
<g id="a_Node000009"><a xlink:href="_dynamic_table_8hpp.html" target="_top" xlink:title=" ">
<polygon fill="white" stroke="#666666" points="374,-218.75 274,-218.75 274,-188.25 374,-188.25 374,-218.75"/>
<text text-anchor="start" x="282" y="-205.25" font-family="Helvetica,sans-Serif" font-size="10.00">src/nwb/hdmf/table</text>
<text text-anchor="middle" x="324" y="-194" font-family="Helvetica,sans-Serif" font-size="10.00">/DynamicTable.hpp</text>
</a>
</g>
</g>
<!-- Node3&#45;&gt;Node9 -->
<g id="edge8_Node000003_Node000009" class="edge">
<title>Node3&#45;&gt;Node9</title>
<g id="a_edge8_Node000003_Node000009"><a xlink:title=" ">
<path fill="none" stroke="#63b8ff" d="M251.47,-248.64C267.24,-239.04 285.69,-227.81 300.04,-219.08"/>
<polygon fill="#63b8ff" stroke="#63b8ff" points="250.07,-245.39 243.35,-253.58 253.71,-251.37 250.07,-245.39"/>
</a>
</g>
</g>
<!-- Node11 -->
<g id="Node000011" class="node">
<title>Node11</title>
<g id="a_Node000011"><a xlink:href="_element_identifiers_8cpp.html" target="_top" xlink:title=" ">
<polygon fill="white" stroke="#666666" points="256.25,-218.75 139.75,-218.75 139.75,-188.25 256.25,-188.25 256.25,-218.75"/>
<text text-anchor="start" x="147.75" y="-205.25" font-family="Helvetica,sans-Serif" font-size="10.00">src/nwb/hdmf/table</text>
<text text-anchor="middle" x="198" y="-194" font-family="Helvetica,sans-Serif" font-size="10.00">/ElementIdentifiers.cpp</text>
</a>
</g>
</g>
<!-- Node3&#45;&gt;Node11 -->
<g id="edge11_Node000003_Node000011" class="edge">
<title>Node3&#45;&gt;Node11</title>
<g id="a_edge11_Node000003_Node000011"><a xlink:title=" ">
<path fill="none" stroke="#63b8ff" d="M210.13,-243.63C207.55,-235.3 204.77,-226.33 202.52,-219.08"/>
<polygon fill="#63b8ff" stroke="#63b8ff" points="206.71,-244.4 213.01,-252.92 213.39,-242.33 206.71,-244.4"/>
</a>
</g>
</g>
<!-- Node5 -->
<g id="Node000005" class="node">
<title>Node5</title>
<g id="a_Node000005"><a xlink:href="_n_w_b_file_8hpp.html" target="_top" xlink:title=" ">
<polygon fill="white" stroke="#666666" points="278,-80.12 166,-80.12 166,-60.88 278,-60.88 278,-80.12"/>
<text text-anchor="middle" x="222" y="-66.62" font-family="Helvetica,sans-Serif" font-size="10.00">src/nwb/NWBFile.hpp</text>
</a>
</g>
</g>
<!-- Node4&#45;&gt;Node5 -->
<g id="edge4_Node000004_Node000005" class="edge">
<title>Node4&#45;&gt;Node5</title>
<g id="a_edge4_Node000004_Node000005"><a xlink:title=" ">
<path fill="none" stroke="#63b8ff" d="M332.86,-122.21C305.35,-109.63 265.48,-91.39 241.8,-80.56"/>
<polygon fill="#63b8ff" stroke="#63b8ff" points="331.17,-125.29 341.72,-126.27 334.08,-118.92 331.17,-125.29"/>
</a>
</g>
</g>
<!-- Node7 -->
<g id="Node000007" class="node">
<title>Node7</title>
<g id="a_Node000007"><a xlink:href="_electrical_series_8cpp.html" target="_top" xlink:title=" ">
<polygon fill="white" stroke="#666666" points="429.88,-85.75 296.12,-85.75 296.12,-55.25 429.88,-55.25 429.88,-85.75"/>
<text text-anchor="start" x="304.12" y="-72.25" font-family="Helvetica,sans-Serif" font-size="10.00">src/nwb/ecephys/Electrical</text>
<text text-anchor="middle" x="363" y="-61" font-family="Helvetica,sans-Serif" font-size="10.00">Series.cpp</text>
</a>
</g>
</g>
<!-- Node4&#45;&gt;Node7 -->
<g id="edge6_Node000004_Node000007" class="edge">
<title>Node4&#45;&gt;Node7</title>
<g id="a_edge6_Node000004_Node000007"><a xlink:title=" ">
<path fill="none" stroke="#63b8ff" d="M363,-115.62C363,-105.94 363,-94.6 363,-85.84"/>
<polygon fill="#63b8ff" stroke="#63b8ff" points="359.5,-115.52 363,-125.52 366.5,-115.52 359.5,-115.52"/>
</a>
</g>
</g>
<!-- Node8 -->
<g id="Node000008" class="node">
<title>Node8</title>
<g id="a_Node000008"><a xlink:href="_electrode_table_8cpp.html" target="_top" xlink:title=" ">
<polygon fill="white" stroke="#666666" points="600.25,-80.12 447.75,-80.12 447.75,-60.88 600.25,-60.88 600.25,-80.12"/>
<text text-anchor="middle" x="524" y="-66.62" font-family="Helvetica,sans-Serif" font-size="10.00">src/nwb/file/ElectrodeTable.cpp</text>
</a>
</g>
</g>
<!-- Node4&#45;&gt;Node8 -->
<g id="edge7_Node000004_Node000008" class="edge">
<title>Node4&#45;&gt;Node8</title>
<g id="a_edge7_Node000004_Node000008"><a xlink:title=" ">
<path fill="none" stroke="#63b8ff" d="M396.17,-122.71C427.61,-110.12 473.99,-91.53 501.39,-80.56"/>
<polygon fill="#63b8ff" stroke="#63b8ff" points="395.11,-119.36 387.13,-126.33 397.72,-125.86 395.11,-119.36"/>
</a>
</g>
</g>
<!-- Node6 -->
<g id="Node000006" class="node">
<title>Node6</title>
<g id="a_Node000006"><a xlink:href="_n_w_b_file_8cpp.html" target="_top" xlink:title=" ">
<polygon fill="white" stroke="#666666" points="278,-19.25 166,-19.25 166,0 278,0 278,-19.25"/>
<text text-anchor="middle" x="222" y="-5.75" font-family="Helvetica,sans-Serif" font-size="10.00">src/nwb/NWBFile.cpp</text>
</a>
</g>
</g>
<!-- Node5&#45;&gt;Node6 -->
<g id="edge5_Node000005_Node000006" class="edge">
<title>Node5&#45;&gt;Node6</title>
<g id="a_edge5_Node000005_Node000006"><a xlink:title=" ">
<path fill="none" stroke="#63b8ff" d="M222,-49.07C222,-39.04 222,-27.46 222,-19.65"/>
<polygon fill="#63b8ff" stroke="#63b8ff" points="218.5,-49.04 222,-59.04 225.5,-49.04 218.5,-49.04"/>
</a>
</g>
</g>
<!-- Node9&#45;&gt;Node4 -->
<g id="edge9_Node000009_Node000004" class="edge">
<title>Node9&#45;&gt;Node4</title>
<g id="a_edge9_Node000009_Node000004"><a xlink:title=" ">
<path fill="none" stroke="#63b8ff" d="M338.64,-178.28C345.31,-167.26 352.78,-154.91 357.67,-146.82"/>
<polygon fill="#63b8ff" stroke="#63b8ff" points="335.81,-176.2 333.63,-186.57 341.8,-179.82 335.81,-176.2"/>
</a>
</g>
</g>
<!-- Node10 -->
<g id="Node000010" class="node">
<title>Node10</title>
<g id="a_Node000010"><a xlink:href="_dynamic_table_8cpp.html" target="_top" xlink:title=" ">
<polygon fill="white" stroke="#666666" points="269,-152.25 169,-152.25 169,-121.75 269,-121.75 269,-152.25"/>
<text text-anchor="start" x="177" y="-138.75" font-family="Helvetica,sans-Serif" font-size="10.00">src/nwb/hdmf/table</text>
<text text-anchor="middle" x="219" y="-127.5" font-family="Helvetica,sans-Serif" font-size="10.00">/DynamicTable.cpp</text>
</a>
</g>
</g>
<!-- Node9&#45;&gt;Node10 -->
<g id="edge10_Node000009_Node000010" class="edge">
<title>Node9&#45;&gt;Node10</title>
<g id="a_edge10_Node000009_Node000010"><a xlink:title=" ">
<path fill="none" stroke="#63b8ff" d="M290.41,-181.86C274.88,-172.33 256.81,-161.23 242.73,-152.58"/>
<polygon fill="#63b8ff" stroke="#63b8ff" points="288.53,-184.82 298.88,-187.07 292.2,-178.86 288.53,-184.82"/>
</a>
</g>
</g>
<!-- Node12&#45;&gt;Node4 -->
<g id="edge13_Node000012_Node000004" class="edge">
<title>Node12&#45;&gt;Node4</title>
<g id="a_edge13_Node000012_Node000004"><a xlink:title=" ">
<path fill="none" stroke="#63b8ff" d="M385.46,-243.12C386.38,-227.16 386.47,-206.35 383,-188.25 380.1,-173.13 372.71,-156.76 367.77,-146.95"/>
<polygon fill="#63b8ff" stroke="#63b8ff" points="382,-242.52 384.76,-252.75 388.98,-243.03 382,-242.52"/>
</a>
</g>
</g>
<!-- Node12&#45;&gt;Node9 -->
<g id="edge14_Node000012_Node000009" class="edge">
<title>Node12&#45;&gt;Node9</title>
<g id="a_edge14_Node000012_Node000009"><a xlink:title=" ">
<path fill="none" stroke="#63b8ff" d="M361.85,-245.88C353.68,-236.94 344.57,-226.99 337.34,-219.08"/>
<polygon fill="#63b8ff" stroke="#63b8ff" points="359.26,-248.23 368.59,-253.25 364.42,-243.51 359.26,-248.23"/>
</a>
</g>
</g>
<!-- Node13 -->
<g id="Node000013" class="node">
<title>Node13</title>
<g id="a_Node000013"><a xlink:href="_vector_data_8cpp.html" target="_top" xlink:title=" ">
<polygon fill="white" stroke="#666666" points="529.62,-218.75 430.38,-218.75 430.38,-188.25 529.62,-188.25 529.62,-218.75"/>
<text text-anchor="start" x="438.38" y="-205.25" font-family="Helvetica,sans-Serif" font-size="10.00">src/nwb/hdmf/table</text>
<text text-anchor="middle" x="480" y="-194" font-family="Helvetica,sans-Serif" font-size="10.00">/VectorData.cpp</text>
</a>
</g>
</g>
<!-- Node12&#45;&gt;Node13 -->
<g id="edge15_Node000012_Node000013" class="edge">
<title>Node12&#45;&gt;Node13</title>
<g id="a_edge15_Node000012_Node000013"><a xlink:title=" ">
<path fill="none" stroke="#63b8ff" d="M414.44,-248.09C428.69,-238.62 445.19,-227.64 458.08,-219.08"/>
<polygon fill="#63b8ff" stroke="#63b8ff" points="412.66,-245.07 406.27,-253.53 416.54,-250.9 412.66,-245.07"/>
</a>
</g>
</g>
</g>
</svg>
