<?xml version="1.0" encoding="UTF-8" standalone="no"?>
<!DOCTYPE svg PUBLIC "-//W3C//DTD SVG 1.1//EN"
 "http://www.w3.org/Graphics/SVG/1.1/DTD/svg11.dtd">
<!-- Generated by graphviz version 12.2.1 (20241206.2353)
 -->
<!-- Title: src/nwb/device/Device.hpp Pages: 1 -->
<svg width="2080pt" height="425pt"
 viewBox="0.00 0.00 2080.38 425.25" xmlns="http://www.w3.org/2000/svg" xmlns:xlink="http://www.w3.org/1999/xlink">
<g id="graph0" class="graph" transform="scale(1 1) rotate(0) translate(4 421.25)">
<title>src/nwb/device/Device.hpp</title>
<!-- Node1 -->
<g id="Node000001" class="node">
<title>Node1</title>
<g id="a_Node000001"><a xlink:title=" ">
<polygon fill="#999999" stroke="#666666" points="1416.25,-417.25 1281.75,-417.25 1281.75,-398 1416.25,-398 1416.25,-417.25"/>
<text text-anchor="middle" x="1349" y="-403.75" font-family="Helvetica,sans-Serif" font-size="10.00">src/nwb/device/Device.hpp</text>
</a>
</g>
</g>
<!-- Node2 -->
<g id="Node000002" class="node">
<title>Node2</title>
<g id="a_Node000002"><a xlink:title=" ">
<polygon fill="#e0e0e0" stroke="#999999" points="1264,-74.5 1224,-74.5 1224,-55.25 1264,-55.25 1264,-74.5"/>
<text text-anchor="middle" x="1244" y="-61" font-family="Helvetica,sans-Serif" font-size="10.00">string</text>
</a>
</g>
</g>
<!-- Node1&#45;&gt;Node2 -->
<g id="edge1_Node000001_Node000002" class="edge">
<title>Node1&#45;&gt;Node2</title>
<g id="a_edge1_Node000001_Node000002"><a xlink:title=" ">
<path fill="none" stroke="#63b8ff" d="M1281.64,-404.78C1008.76,-396.85 0,-363.14 0,-298.12 0,-298.12 0,-298.12 0,-180 0,-126.24 48.06,-127.69 99,-110.5 207.03,-74.04 1039.78,-67.09 1212.64,-66.04"/>
<polygon fill="#63b8ff" stroke="#63b8ff" points="1212.44,-69.54 1222.41,-65.98 1212.39,-62.54 1212.44,-69.54"/>
</a>
</g>
</g>
<!-- Node3 -->
<g id="Node000003" class="node">
<title>Node3</title>
<g id="a_Node000003"><a xlink:href="_utils_8hpp.html" target="_top" xlink:title=" ">
<polygon fill="white" stroke="#666666" points="869.5,-251.5 814.5,-251.5 814.5,-232.25 869.5,-232.25 869.5,-251.5"/>
<text text-anchor="middle" x="842" y="-238" font-family="Helvetica,sans-Serif" font-size="10.00">Utils.hpp</text>
</a>
</g>
</g>
<!-- Node1&#45;&gt;Node3 -->
<g id="edge2_Node000001_Node000003" class="edge">
<title>Node1&#45;&gt;Node3</title>
<g id="a_edge2_Node000001_Node000003"><a xlink:title=" ">
<path fill="none" stroke="#63b8ff" d="M1321.02,-397.59C1235.75,-370.05 979.01,-287.13 880.79,-255.4"/>
<polygon fill="#63b8ff" stroke="#63b8ff" points="881.93,-252.09 871.33,-252.35 879.77,-258.75 881.93,-252.09"/>
</a>
</g>
</g>
<!-- Node17 -->
<g id="Node000017" class="node">
<title>Node17</title>
<g id="a_Node000017"><a xlink:href="_base_i_o_8hpp.html" target="_top" xlink:title=" ">
<polygon fill="white" stroke="#666666" points="1747.12,-129.75 1668.88,-129.75 1668.88,-110.5 1747.12,-110.5 1747.12,-129.75"/>
<text text-anchor="middle" x="1708" y="-116.25" font-family="Helvetica,sans-Serif" font-size="10.00">io/BaseIO.hpp</text>
</a>
</g>
</g>
<!-- Node1&#45;&gt;Node17 -->
<g id="edge47_Node000001_Node000017" class="edge">
<title>Node1&#45;&gt;Node17</title>
<g id="a_edge47_Node000001_Node000017"><a xlink:title=" ">
<path fill="none" stroke="#63b8ff" d="M1362.93,-397.55C1376.26,-388.76 1396.81,-374.9 1414,-362 1520.9,-281.74 1642.73,-177.66 1688.91,-137.72"/>
<polygon fill="#63b8ff" stroke="#63b8ff" points="1691.17,-140.39 1696.44,-131.2 1686.59,-135.1 1691.17,-140.39"/>
</a>
</g>
</g>
<!-- Node29 -->
<g id="Node000029" class="node">
<title>Node29</title>
<g id="a_Node000029"><a xlink:href="_read_i_o_8hpp.html" target="_top" xlink:title=" ">
<polygon fill="white" stroke="#666666" points="1612.5,-129.75 1533.5,-129.75 1533.5,-110.5 1612.5,-110.5 1612.5,-129.75"/>
<text text-anchor="middle" x="1573" y="-116.25" font-family="Helvetica,sans-Serif" font-size="10.00">io/ReadIO.hpp</text>
</a>
</g>
</g>
<!-- Node1&#45;&gt;Node29 -->
<g id="edge48_Node000001_Node000029" class="edge">
<title>Node1&#45;&gt;Node29</title>
<g id="a_edge48_Node000001_Node000029"><a xlink:title=" ">
<path fill="none" stroke="#63b8ff" d="M1357.41,-397.84C1384.08,-369.77 1468.46,-279.24 1528,-196.25 1541.12,-177.96 1554.12,-155.7 1562.74,-140.17"/>
<polygon fill="#63b8ff" stroke="#63b8ff" points="1565.74,-142 1567.47,-131.54 1559.6,-138.64 1565.74,-142"/>
</a>
</g>
</g>
<!-- Node31 -->
<g id="Node000031" class="node">
<title>Node31</title>
<g id="a_Node000031"><a xlink:href="_container_8hpp.html" target="_top" xlink:title=" ">
<polygon fill="white" stroke="#666666" points="1799.88,-362 1654.12,-362 1654.12,-342.75 1799.88,-342.75 1799.88,-362"/>
<text text-anchor="middle" x="1727" y="-348.5" font-family="Helvetica,sans-Serif" font-size="10.00">nwb/hdmf/base/Container.hpp</text>
</a>
</g>
</g>
<!-- Node1&#45;&gt;Node31 -->
<g id="edge49_Node000001_Node000031" class="edge">
<title>Node1&#45;&gt;Node31</title>
<g id="a_edge49_Node000001_Node000031"><a xlink:title=" ">
<path fill="none" stroke="#63b8ff" d="M1413.55,-397.53C1479.37,-388.26 1581.43,-373.88 1651.08,-364.07"/>
<polygon fill="#63b8ff" stroke="#63b8ff" points="1651.49,-367.55 1660.9,-362.69 1650.51,-360.62 1651.49,-367.55"/>
</a>
</g>
</g>
<!-- Node3&#45;&gt;Node2 -->
<g id="edge10_Node000003_Node000002" class="edge">
<title>Node3&#45;&gt;Node2</title>
<g id="a_edge10_Node000003_Node000002"><a xlink:title=" ">
<path fill="none" stroke="#63b8ff" d="M814.23,-240.27C681.83,-237.26 120.14,-222.94 95,-196.25 85.7,-186.38 85.84,-175.74 95,-165.75 172.67,-81.03 1035.31,-67.94 1212.36,-66.14"/>
<polygon fill="#63b8ff" stroke="#63b8ff" points="1212.2,-69.64 1222.16,-66.05 1212.13,-62.64 1212.2,-69.64"/>
</a>
</g>
</g>
<!-- Node4 -->
<g id="Node000004" class="node">
<title>Node4</title>
<g id="a_Node000004"><a xlink:title=" ">
<polygon fill="#e0e0e0" stroke="#999999" points="159.88,-190.62 104.12,-190.62 104.12,-171.38 159.88,-171.38 159.88,-190.62"/>
<text text-anchor="middle" x="132" y="-177.12" font-family="Helvetica,sans-Serif" font-size="10.00">algorithm</text>
</a>
</g>
</g>
<!-- Node3&#45;&gt;Node4 -->
<g id="edge3_Node000003_Node000004" class="edge">
<title>Node3&#45;&gt;Node4</title>
<g id="a_edge3_Node000003_Node000004"><a xlink:title=" ">
<path fill="none" stroke="#63b8ff" d="M814.04,-240.14C703.26,-237.06 295.07,-224.03 169,-196.25 167.11,-195.83 165.18,-195.33 163.25,-194.78"/>
<polygon fill="#63b8ff" stroke="#63b8ff" points="164.43,-191.48 153.84,-191.6 162.19,-198.11 164.43,-191.48"/>
</a>
</g>
</g>
<!-- Node5 -->
<g id="Node000005" class="node">
<title>Node5</title>
<g id="a_Node000005"><a xlink:title=" ">
<polygon fill="#e0e0e0" stroke="#999999" points="223.62,-190.62 178.38,-190.62 178.38,-171.38 223.62,-171.38 223.62,-190.62"/>
<text text-anchor="middle" x="201" y="-177.12" font-family="Helvetica,sans-Serif" font-size="10.00">chrono</text>
</a>
</g>
</g>
<!-- Node3&#45;&gt;Node5 -->
<g id="edge4_Node000003_Node000005" class="edge">
<title>Node3&#45;&gt;Node5</title>
<g id="a_edge4_Node000003_Node000005"><a xlink:title=" ">
<path fill="none" stroke="#63b8ff" d="M814.21,-240.11C710.39,-237.05 345.46,-224.49 233,-196.25 231.64,-195.91 230.26,-195.51 228.89,-195.08"/>
<polygon fill="#63b8ff" stroke="#63b8ff" points="230.55,-191.97 219.96,-191.66 228.05,-198.5 230.55,-191.97"/>
</a>
</g>
</g>
<!-- Node6 -->
<g id="Node000006" class="node">
<title>Node6</title>
<g id="a_Node000006"><a xlink:title=" ">
<polygon fill="#e0e0e0" stroke="#999999" points="1320.5,-190.62 1277.5,-190.62 1277.5,-171.38 1320.5,-171.38 1320.5,-190.62"/>
<text text-anchor="middle" x="1299" y="-177.12" font-family="Helvetica,sans-Serif" font-size="10.00">cmath</text>
</a>
</g>
</g>
<!-- Node3&#45;&gt;Node6 -->
<g id="edge5_Node000003_Node000006" class="edge">
<title>Node3&#45;&gt;Node6</title>
<g id="a_edge5_Node000003_Node000006"><a xlink:title=" ">
<path fill="none" stroke="#63b8ff" d="M869.83,-241.19C938.83,-241.28 1122.79,-237.31 1269,-196.25 1270,-195.97 1271,-195.66 1272,-195.32"/>
<polygon fill="#63b8ff" stroke="#63b8ff" points="1273.22,-198.61 1281.17,-191.6 1270.59,-192.12 1273.22,-198.61"/>
</a>
</g>
</g>
<!-- Node7 -->
<g id="Node000007" class="node">
<title>Node7</title>
<g id="a_Node000007"><a xlink:title=" ">
<polygon fill="#e0e0e0" stroke="#999999" points="1441.62,-74.5 1396.38,-74.5 1396.38,-55.25 1441.62,-55.25 1441.62,-74.5"/>
<text text-anchor="middle" x="1419" y="-61" font-family="Helvetica,sans-Serif" font-size="10.00">cstdint</text>
</a>
</g>
</g>
<!-- Node3&#45;&gt;Node7 -->
<g id="edge6_Node000003_Node000007" class="edge">
<title>Node3&#45;&gt;Node7</title>
<g id="a_edge6_Node000003_Node000007"><a xlink:title=" ">
<path fill="none" stroke="#63b8ff" d="M869.79,-241.38C961.22,-242.57 1251.25,-242.55 1330,-196.25 1352.5,-183.02 1390.79,-117.31 1408.91,-84.53"/>
<polygon fill="#63b8ff" stroke="#63b8ff" points="1411.78,-86.58 1413.51,-76.13 1405.64,-83.22 1411.78,-86.58"/>
</a>
</g>
</g>
<!-- Node8 -->
<g id="Node000008" class="node">
<title>Node8</title>
<g id="a_Node000008"><a xlink:title=" ">
<polygon fill="#e0e0e0" stroke="#999999" points="282,-190.62 242,-190.62 242,-171.38 282,-171.38 282,-190.62"/>
<text text-anchor="middle" x="262" y="-177.12" font-family="Helvetica,sans-Serif" font-size="10.00">ctime</text>
</a>
</g>
</g>
<!-- Node3&#45;&gt;Node8 -->
<g id="edge7_Node000003_Node000008" class="edge">
<title>Node3&#45;&gt;Node8</title>
<g id="a_edge7_Node000003_Node000008"><a xlink:title=" ">
<path fill="none" stroke="#63b8ff" d="M814.19,-240C716.74,-236.71 391.28,-223.87 291,-196.25 290.03,-195.98 289.05,-195.68 288.08,-195.36"/>
<polygon fill="#63b8ff" stroke="#63b8ff" points="289.81,-192.29 279.23,-191.69 287.13,-198.75 289.81,-192.29"/>
</a>
</g>
</g>
<!-- Node9 -->
<g id="Node000009" class="node">
<title>Node9</title>
<g id="a_Node000009"><a xlink:title=" ">
<polygon fill="#e0e0e0" stroke="#999999" points="349.88,-190.62 300.12,-190.62 300.12,-171.38 349.88,-171.38 349.88,-190.62"/>
<text text-anchor="middle" x="325" y="-177.12" font-family="Helvetica,sans-Serif" font-size="10.00">iomanip</text>
</a>
</g>
</g>
<!-- Node3&#45;&gt;Node9 -->
<g id="edge8_Node000003_Node000009" class="edge">
<title>Node3&#45;&gt;Node9</title>
<g id="a_edge8_Node000003_Node000009"><a xlink:title=" ">
<path fill="none" stroke="#63b8ff" d="M814.01,-241.24C739.03,-241.57 527.93,-238.4 359,-196.25 357.41,-195.85 355.8,-195.39 354.18,-194.89"/>
<polygon fill="#63b8ff" stroke="#63b8ff" points="355.73,-191.73 345.13,-191.56 353.31,-198.3 355.73,-191.73"/>
</a>
</g>
</g>
<!-- Node10 -->
<g id="Node000010" class="node">
<title>Node10</title>
<g id="a_Node000010"><a xlink:title=" ">
<polygon fill="#e0e0e0" stroke="#999999" points="419.62,-190.62 368.38,-190.62 368.38,-171.38 419.62,-171.38 419.62,-190.62"/>
<text text-anchor="middle" x="394" y="-177.12" font-family="Helvetica,sans-Serif" font-size="10.00">sstream</text>
</a>
</g>
</g>
<!-- Node3&#45;&gt;Node10 -->
<g id="edge9_Node000003_Node000010" class="edge">
<title>Node3&#45;&gt;Node10</title>
<g id="a_edge9_Node000003_Node000010"><a xlink:title=" ">
<path fill="none" stroke="#63b8ff" d="M814.48,-240.53C747.47,-239.14 570.95,-232.06 429,-196.25 427.41,-195.85 425.8,-195.39 424.18,-194.89"/>
<polygon fill="#63b8ff" stroke="#63b8ff" points="425.69,-191.71 415.09,-191.63 423.33,-198.3 425.69,-191.71"/>
</a>
</g>
</g>
<!-- Node11 -->
<g id="Node000011" class="node">
<title>Node11</title>
<g id="a_Node000011"><a xlink:title=" ">
<polygon fill="#e0e0e0" stroke="#999999" points="542.25,-190.62 437.75,-190.62 437.75,-171.38 542.25,-171.38 542.25,-190.62"/>
<text text-anchor="middle" x="490" y="-177.12" font-family="Helvetica,sans-Serif" font-size="10.00">boost/date_time.hpp</text>
</a>
</g>
</g>
<!-- Node3&#45;&gt;Node11 -->
<g id="edge11_Node000003_Node000011" class="edge">
<title>Node3&#45;&gt;Node11</title>
<g id="a_edge11_Node000003_Node000011"><a xlink:title=" ">
<path fill="none" stroke="#63b8ff" d="M814.29,-237.3C762.55,-230.47 647.81,-214.61 552,-196.25 547.67,-195.42 543.18,-194.5 538.69,-193.55"/>
<polygon fill="#63b8ff" stroke="#63b8ff" points="539.61,-190.16 529.09,-191.43 538.1,-197 539.61,-190.16"/>
</a>
</g>
</g>
<!-- Node12 -->
<g id="Node000012" class="node">
<title>Node12</title>
<g id="a_Node000012"><a xlink:title=" ">
<polygon fill="#e0e0e0" stroke="#999999" points="701.25,-190.62 560.75,-190.62 560.75,-171.38 701.25,-171.38 701.25,-190.62"/>
<text text-anchor="middle" x="631" y="-177.12" font-family="Helvetica,sans-Serif" font-size="10.00">boost/endian/conversion.hpp</text>
</a>
</g>
</g>
<!-- Node3&#45;&gt;Node12 -->
<g id="edge12_Node000003_Node000012" class="edge">
<title>Node3&#45;&gt;Node12</title>
<g id="a_edge12_Node000003_Node000012"><a xlink:title=" ">
<path fill="none" stroke="#63b8ff" d="M814.42,-233.18C778.81,-223.24 716.44,-205.84 674.44,-194.12"/>
<polygon fill="#63b8ff" stroke="#63b8ff" points="675.46,-190.77 664.89,-191.46 673.58,-197.52 675.46,-190.77"/>
</a>
</g>
</g>
<!-- Node13 -->
<g id="Node000013" class="node">
<title>Node13</title>
<g id="a_Node000013"><a xlink:title=" ">
<polygon fill="#e0e0e0" stroke="#999999" points="820.38,-190.62 719.62,-190.62 719.62,-171.38 820.38,-171.38 820.38,-190.62"/>
<text text-anchor="middle" x="770" y="-177.12" font-family="Helvetica,sans-Serif" font-size="10.00">boost/uuid/uuid.hpp</text>
</a>
</g>
</g>
<!-- Node3&#45;&gt;Node13 -->
<g id="edge13_Node000003_Node000013" class="edge">
<title>Node3&#45;&gt;Node13</title>
<g id="a_edge13_Node000003_Node000013"><a xlink:title=" ">
<path fill="none" stroke="#63b8ff" d="M831.06,-231.93C820.18,-223.03 803.21,-209.16 789.92,-198.29"/>
<polygon fill="#63b8ff" stroke="#63b8ff" points="792.17,-195.6 782.21,-191.98 787.74,-201.02 792.17,-195.6"/>
</a>
</g>
</g>
<!-- Node14 -->
<g id="Node000014" class="node">
<title>Node14</title>
<g id="a_Node000014"><a xlink:title=" ">
<polygon fill="#e0e0e0" stroke="#999999" points="989.88,-190.62 838.12,-190.62 838.12,-171.38 989.88,-171.38 989.88,-190.62"/>
<text text-anchor="middle" x="914" y="-177.12" font-family="Helvetica,sans-Serif" font-size="10.00">boost/uuid/uuid_generators.hpp</text>
</a>
</g>
</g>
<!-- Node3&#45;&gt;Node14 -->
<g id="edge14_Node000003_Node000014" class="edge">
<title>Node3&#45;&gt;Node14</title>
<g id="a_edge14_Node000003_Node000014"><a xlink:title=" ">
<path fill="none" stroke="#63b8ff" d="M852.94,-231.93C863.82,-223.03 880.79,-209.16 894.08,-198.29"/>
<polygon fill="#63b8ff" stroke="#63b8ff" points="896.26,-201.02 901.79,-191.98 891.83,-195.6 896.26,-201.02"/>
</a>
</g>
</g>
<!-- Node15 -->
<g id="Node000015" class="node">
<title>Node15</title>
<g id="a_Node000015"><a xlink:title=" ">
<polygon fill="#e0e0e0" stroke="#999999" points="1121.75,-190.62 1008.25,-190.62 1008.25,-171.38 1121.75,-171.38 1121.75,-190.62"/>
<text text-anchor="middle" x="1065" y="-177.12" font-family="Helvetica,sans-Serif" font-size="10.00">boost/uuid/uuid_io.hpp</text>
</a>
</g>
</g>
<!-- Node3&#45;&gt;Node15 -->
<g id="edge15_Node000003_Node000015" class="edge">
<title>Node3&#45;&gt;Node15</title>
<g id="a_edge15_Node000003_Node000015"><a xlink:title=" ">
<path fill="none" stroke="#63b8ff" d="M869.79,-233.54C907.36,-223.62 974.79,-205.82 1019.73,-193.95"/>
<polygon fill="#63b8ff" stroke="#63b8ff" points="1020.39,-197.4 1029.17,-191.46 1018.61,-190.63 1020.39,-197.4"/>
</a>
</g>
</g>
<!-- Node16 -->
<g id="Node000016" class="node">
<title>Node16</title>
<g id="a_Node000016"><a xlink:title=" ">
<polygon fill="#e0e0e0" stroke="#999999" points="1259.75,-196.25 1140.25,-196.25 1140.25,-165.75 1259.75,-165.75 1259.75,-196.25"/>
<text text-anchor="start" x="1148.25" y="-182.75" font-family="Helvetica,sans-Serif" font-size="10.00">boost/date_time/c_local</text>
<text text-anchor="middle" x="1200" y="-171.5" font-family="Helvetica,sans-Serif" font-size="10.00">_time_adjustor.hpp</text>
</a>
</g>
</g>
<!-- Node3&#45;&gt;Node16 -->
<g id="edge16_Node000003_Node000016" class="edge">
<title>Node3&#45;&gt;Node16</title>
<g id="a_edge16_Node000003_Node000016"><a xlink:title=" ">
<path fill="none" stroke="#63b8ff" d="M869.98,-237.03C919.85,-230.08 1027.64,-214.6 1128.8,-196.59"/>
<polygon fill="#63b8ff" stroke="#63b8ff" points="1129.11,-200.09 1138.33,-194.88 1127.87,-193.2 1129.11,-200.09"/>
</a>
</g>
</g>
<!-- Node3&#45;&gt;Node17 -->
<g id="edge17_Node000003_Node000017" class="edge">
<title>Node3&#45;&gt;Node17</title>
<g id="a_edge17_Node000003_Node000017"><a xlink:title=" ">
<path fill="none" stroke="#63b8ff" d="M869.76,-240.29C981.65,-237.73 1399.6,-226.34 1528,-196.25 1585.12,-182.87 1647.37,-153.19 1681.64,-135.4"/>
<polygon fill="#63b8ff" stroke="#63b8ff" points="1683.19,-138.54 1690.4,-130.79 1679.93,-132.35 1683.19,-138.54"/>
</a>
</g>
</g>
<!-- Node27 -->
<g id="Node000027" class="node">
<title>Node27</title>
<g id="a_Node000027"><a xlink:href="_h_d_f5_i_o_8hpp.html" target="_top" xlink:title=" ">
<polygon fill="white" stroke="#666666" points="1518.88,-190.62 1415.12,-190.62 1415.12,-171.38 1518.88,-171.38 1518.88,-190.62"/>
<text text-anchor="middle" x="1467" y="-177.12" font-family="Helvetica,sans-Serif" font-size="10.00">io/hdf5/HDF5IO.hpp</text>
</a>
</g>
</g>
<!-- Node3&#45;&gt;Node27 -->
<g id="edge30_Node000003_Node000027" class="edge">
<title>Node3&#45;&gt;Node27</title>
<g id="a_edge30_Node000003_Node000027"><a xlink:title=" ">
<path fill="none" stroke="#63b8ff" d="M869.72,-239C947.59,-233.62 1174.88,-217.18 1363,-196.25 1376.16,-194.79 1390.23,-193 1403.63,-191.2"/>
<polygon fill="#63b8ff" stroke="#63b8ff" points="1403.76,-194.72 1413.19,-189.9 1402.81,-187.78 1403.76,-194.72"/>
</a>
</g>
</g>
<!-- Node17&#45;&gt;Node2 -->
<g id="edge22_Node000017_Node000002" class="edge">
<title>Node17&#45;&gt;Node2</title>
<g id="a_edge22_Node000017_Node000002"><a xlink:title=" ">
<path fill="none" stroke="#63b8ff" d="M1668.53,-114.9C1597.14,-107.21 1441.83,-90.27 1311,-74.5 1299.46,-73.11 1286.81,-71.5 1275.64,-70.05"/>
<polygon fill="#63b8ff" stroke="#63b8ff" points="1276.09,-66.58 1265.72,-68.76 1275.18,-73.52 1276.09,-66.58"/>
</a>
</g>
</g>
<!-- Node17&#45;&gt;Node7 -->
<g id="edge19_Node000017_Node000007" class="edge">
<title>Node17&#45;&gt;Node7</title>
<g id="a_edge19_Node000017_Node000007"><a xlink:title=" ">
<path fill="none" stroke="#63b8ff" d="M1668.42,-113.54C1619.76,-106.39 1534.46,-92.98 1452.91,-74.99"/>
<polygon fill="#63b8ff" stroke="#63b8ff" points="1453.96,-71.64 1443.44,-72.87 1452.43,-78.47 1453.96,-71.64"/>
</a>
</g>
</g>
<!-- Node18 -->
<g id="Node000018" class="node">
<title>Node18</title>
<g id="a_Node000018"><a xlink:title=" ">
<polygon fill="#e0e0e0" stroke="#999999" points="1562.88,-74.5 1531.12,-74.5 1531.12,-55.25 1562.88,-55.25 1562.88,-74.5"/>
<text text-anchor="middle" x="1547" y="-61" font-family="Helvetica,sans-Serif" font-size="10.00">any</text>
</a>
</g>
</g>
<!-- Node17&#45;&gt;Node18 -->
<g id="edge18_Node000017_Node000018" class="edge">
<title>Node17&#45;&gt;Node18</title>
<g id="a_edge18_Node000017_Node000018"><a xlink:title=" ">
<path fill="none" stroke="#63b8ff" d="M1679.83,-110.02C1654.45,-101.78 1615.85,-89.19 1573.87,-75.09"/>
<polygon fill="#63b8ff" stroke="#63b8ff" points="1575.15,-71.83 1564.56,-71.96 1572.92,-78.47 1575.15,-71.83"/>
</a>
</g>
</g>
<!-- Node19 -->
<g id="Node000019" class="node">
<title>Node19</title>
<g id="a_Node000019"><a xlink:title=" ">
<polygon fill="#e0e0e0" stroke="#999999" points="1512.75,-74.5 1459.25,-74.5 1459.25,-55.25 1512.75,-55.25 1512.75,-74.5"/>
<text text-anchor="middle" x="1486" y="-61" font-family="Helvetica,sans-Serif" font-size="10.00">iostream</text>
</a>
</g>
</g>
<!-- Node17&#45;&gt;Node19 -->
<g id="edge20_Node000017_Node000019" class="edge">
<title>Node17&#45;&gt;Node19</title>
<g id="a_edge20_Node000017_Node000019"><a xlink:title=" ">
<path fill="none" stroke="#63b8ff" d="M1670.09,-110.03C1629.31,-100.25 1564.85,-84.79 1524.03,-75"/>
<polygon fill="#63b8ff" stroke="#63b8ff" points="1524.94,-71.62 1514.4,-72.69 1523.31,-78.42 1524.94,-71.62"/>
</a>
</g>
</g>
<!-- Node20 -->
<g id="Node000020" class="node">
<title>Node20</title>
<g id="a_Node000020"><a xlink:title=" ">
<polygon fill="#e0e0e0" stroke="#999999" points="1876.62,-74.5 1825.38,-74.5 1825.38,-55.25 1876.62,-55.25 1876.62,-74.5"/>
<text text-anchor="middle" x="1851" y="-61" font-family="Helvetica,sans-Serif" font-size="10.00">memory</text>
</a>
</g>
</g>
<!-- Node17&#45;&gt;Node20 -->
<g id="edge21_Node000017_Node000020" class="edge">
<title>Node17&#45;&gt;Node20</title>
<g id="a_edge21_Node000017_Node000020"><a xlink:title=" ">
<path fill="none" stroke="#63b8ff" d="M1732.26,-110.09C1755.27,-101.52 1790.09,-88.56 1816.08,-78.88"/>
<polygon fill="#63b8ff" stroke="#63b8ff" points="1817.05,-82.25 1825.2,-75.48 1814.61,-75.69 1817.05,-82.25"/>
</a>
</g>
</g>
<!-- Node21 -->
<g id="Node000021" class="node">
<title>Node21</title>
<g id="a_Node000021"><a xlink:title=" ">
<polygon fill="#e0e0e0" stroke="#999999" points="2072.38,-74.5 1989.62,-74.5 1989.62,-55.25 2072.38,-55.25 2072.38,-74.5"/>
<text text-anchor="middle" x="2031" y="-61" font-family="Helvetica,sans-Serif" font-size="10.00">unordered_map</text>
</a>
</g>
</g>
<!-- Node17&#45;&gt;Node21 -->
<g id="edge23_Node000017_Node000021" class="edge">
<title>Node17&#45;&gt;Node21</title>
<g id="a_edge23_Node000017_Node000021"><a xlink:title=" ">
<path fill="none" stroke="#63b8ff" d="M1747.35,-112.8C1798.25,-104.6 1889.96,-89.75 1977.99,-74.99"/>
<polygon fill="#63b8ff" stroke="#63b8ff" points="1978.49,-78.46 1987.77,-73.35 1977.33,-71.56 1978.49,-78.46"/>
</a>
</g>
</g>
<!-- Node22 -->
<g id="Node000022" class="node">
<title>Node22</title>
<g id="a_Node000022"><a xlink:title=" ">
<polygon fill="#e0e0e0" stroke="#999999" points="1971.75,-74.5 1894.25,-74.5 1894.25,-55.25 1971.75,-55.25 1971.75,-74.5"/>
<text text-anchor="middle" x="1933" y="-61" font-family="Helvetica,sans-Serif" font-size="10.00">unordered_set</text>
</a>
</g>
</g>
<!-- Node17&#45;&gt;Node22 -->
<g id="edge24_Node000017_Node000022" class="edge">
<title>Node17&#45;&gt;Node22</title>
<g id="a_edge24_Node000017_Node000022"><a xlink:title=" ">
<path fill="none" stroke="#63b8ff" d="M1746.42,-110.03C1784.28,-101.07 1842.29,-87.34 1883.57,-77.57"/>
<polygon fill="#63b8ff" stroke="#63b8ff" points="1884.34,-80.99 1893.26,-75.28 1882.73,-74.18 1884.34,-80.99"/>
</a>
</g>
</g>
<!-- Node23 -->
<g id="Node000023" class="node">
<title>Node23</title>
<g id="a_Node000023"><a xlink:title=" ">
<polygon fill="#e0e0e0" stroke="#999999" points="1727.5,-19.25 1684.5,-19.25 1684.5,0 1727.5,0 1727.5,-19.25"/>
<text text-anchor="middle" x="1706" y="-5.75" font-family="Helvetica,sans-Serif" font-size="10.00">vector</text>
</a>
</g>
</g>
<!-- Node17&#45;&gt;Node23 -->
<g id="edge25_Node000017_Node000023" class="edge">
<title>Node17&#45;&gt;Node23</title>
<g id="a_edge25_Node000017_Node000023"><a xlink:title=" ">
<path fill="none" stroke="#63b8ff" d="M1732.34,-110.04C1757.5,-99.12 1791.36,-79.26 1778,-55.25 1769.48,-39.95 1753.31,-29.22 1738.44,-22.13"/>
<polygon fill="#63b8ff" stroke="#63b8ff" points="1739.93,-18.97 1729.37,-18.2 1737.15,-25.39 1739.93,-18.97"/>
</a>
</g>
</g>
<!-- Node24 -->
<g id="Node000024" class="node">
<title>Node24</title>
<g id="a_Node000024"><a xlink:title=" ">
<polygon fill="#e0e0e0" stroke="#999999" points="1689.12,-74.5 1580.88,-74.5 1580.88,-55.25 1689.12,-55.25 1689.12,-74.5"/>
<text text-anchor="middle" x="1635" y="-61" font-family="Helvetica,sans-Serif" font-size="10.00">boost/multi_array.hpp</text>
</a>
</g>
</g>
<!-- Node17&#45;&gt;Node24 -->
<g id="edge26_Node000017_Node000024" class="edge">
<title>Node17&#45;&gt;Node24</title>
<g id="a_edge26_Node000017_Node000024"><a xlink:title=" ">
<path fill="none" stroke="#63b8ff" d="M1695.62,-110.09C1684.85,-102.24 1669.03,-90.7 1656.25,-81.37"/>
<polygon fill="#63b8ff" stroke="#63b8ff" points="1658.56,-78.73 1648.42,-75.67 1654.44,-84.39 1658.56,-78.73"/>
</a>
</g>
</g>
<!-- Node25 -->
<g id="Node000025" class="node">
<title>Node25</title>
<g id="a_Node000025"><a xlink:href="_types_8hpp.html" target="_top" xlink:title=" ">
<polygon fill="white" stroke="#666666" points="1768.5,-74.5 1707.5,-74.5 1707.5,-55.25 1768.5,-55.25 1768.5,-74.5"/>
<text text-anchor="middle" x="1738" y="-61" font-family="Helvetica,sans-Serif" font-size="10.00">Types.hpp</text>
</a>
</g>
</g>
<!-- Node17&#45;&gt;Node25 -->
<g id="edge27_Node000017_Node000025" class="edge">
<title>Node17&#45;&gt;Node25</title>
<g id="a_edge27_Node000017_Node000025"><a xlink:title=" ">
<path fill="none" stroke="#63b8ff" d="M1712.95,-110.33C1716.88,-103.36 1722.51,-93.37 1727.44,-84.62"/>
<polygon fill="#63b8ff" stroke="#63b8ff" points="1730.34,-86.61 1732.2,-76.18 1724.24,-83.17 1730.34,-86.61"/>
</a>
</g>
</g>
<!-- Node25&#45;&gt;Node23 -->
<g id="edge29_Node000025_Node000023" class="edge">
<title>Node25&#45;&gt;Node23</title>
<g id="a_edge29_Node000025_Node000023"><a xlink:title=" ">
<path fill="none" stroke="#63b8ff" d="M1732.72,-55.08C1728.53,-48.11 1722.52,-38.12 1717.27,-29.37"/>
<polygon fill="#63b8ff" stroke="#63b8ff" points="1720.33,-27.68 1712.18,-20.91 1714.33,-31.28 1720.33,-27.68"/>
</a>
</g>
</g>
<!-- Node26 -->
<g id="Node000026" class="node">
<title>Node26</title>
<g id="a_Node000026"><a xlink:title=" ">
<polygon fill="#e0e0e0" stroke="#999999" points="1794.12,-19.25 1745.88,-19.25 1745.88,0 1794.12,0 1794.12,-19.25"/>
<text text-anchor="middle" x="1770" y="-5.75" font-family="Helvetica,sans-Serif" font-size="10.00">cstddef</text>
</a>
</g>
</g>
<!-- Node25&#45;&gt;Node26 -->
<g id="edge28_Node000025_Node000026" class="edge">
<title>Node25&#45;&gt;Node26</title>
<g id="a_edge28_Node000025_Node000026"><a xlink:title=" ">
<path fill="none" stroke="#63b8ff" d="M1743.28,-55.08C1747.47,-48.11 1753.48,-38.12 1758.73,-29.37"/>
<polygon fill="#63b8ff" stroke="#63b8ff" points="1761.67,-31.28 1763.82,-20.91 1755.67,-27.68 1761.67,-31.28"/>
</a>
</g>
</g>
<!-- Node27&#45;&gt;Node2 -->
<g id="edge33_Node000027_Node000002" class="edge">
<title>Node27&#45;&gt;Node2</title>
<g id="a_edge33_Node000027_Node000002"><a xlink:title=" ">
<path fill="none" stroke="#63b8ff" d="M1453.99,-170.88C1433.54,-156.81 1392.36,-129.42 1355,-110.5 1328.69,-97.17 1297.41,-84.9 1274.77,-76.61"/>
<polygon fill="#63b8ff" stroke="#63b8ff" points="1276.12,-73.38 1265.53,-73.28 1273.75,-79.96 1276.12,-73.38"/>
</a>
</g>
</g>
<!-- Node27&#45;&gt;Node17 -->
<g id="edge36_Node000027_Node000017" class="edge">
<title>Node27&#45;&gt;Node17</title>
<g id="a_edge36_Node000027_Node000017"><a xlink:title=" ">
<path fill="none" stroke="#63b8ff" d="M1504.13,-170.93C1545.88,-160.73 1613.82,-144.13 1659.68,-132.93"/>
<polygon fill="#63b8ff" stroke="#63b8ff" points="1660.48,-136.34 1669.36,-130.56 1658.81,-129.54 1660.48,-136.34"/>
</a>
</g>
</g>
<!-- Node27&#45;&gt;Node19 -->
<g id="edge31_Node000027_Node000019" class="edge">
<title>Node27&#45;&gt;Node19</title>
<g id="a_edge31_Node000027_Node000019"><a xlink:title=" ">
<path fill="none" stroke="#63b8ff" d="M1471.53,-171.02C1476.23,-161.19 1483.25,-144.8 1486,-129.75 1488.66,-115.19 1488.55,-98.44 1487.83,-85.75"/>
<polygon fill="#63b8ff" stroke="#63b8ff" points="1491.35,-85.86 1487.1,-76.15 1484.37,-86.39 1491.35,-85.86"/>
</a>
</g>
</g>
<!-- Node27&#45;&gt;Node20 -->
<g id="edge32_Node000027_Node000020" class="edge">
<title>Node27&#45;&gt;Node20</title>
<g id="a_edge32_Node000027_Node000020"><a xlink:title=" ">
<path fill="none" stroke="#63b8ff" d="M1519.15,-177.48C1578.44,-173.15 1677.2,-161.41 1756,-129.75 1784.9,-118.14 1814.01,-96.81 1832.25,-82.01"/>
<polygon fill="#63b8ff" stroke="#63b8ff" points="1834.12,-85.01 1839.57,-75.92 1829.64,-79.63 1834.12,-85.01"/>
</a>
</g>
</g>
<!-- Node27&#45;&gt;Node25 -->
<g id="edge35_Node000027_Node000025" class="edge">
<title>Node27&#45;&gt;Node25</title>
<g id="a_edge35_Node000027_Node000025"><a xlink:title=" ">
<path fill="none" stroke="#63b8ff" d="M1501.24,-170.92C1533.11,-162.01 1581.63,-147.22 1622,-129.75 1639.76,-122.07 1684.32,-96.87 1712.75,-80.51"/>
<polygon fill="#63b8ff" stroke="#63b8ff" points="1714.2,-83.72 1721.11,-75.69 1710.7,-77.66 1714.2,-83.72"/>
</a>
</g>
</g>
<!-- Node28 -->
<g id="Node000028" class="node">
<title>Node28</title>
<g id="a_Node000028"><a xlink:title=" ">
<polygon fill="#e0e0e0" stroke="#999999" points="1477,-129.75 1407,-129.75 1407,-110.5 1477,-110.5 1477,-129.75"/>
<text text-anchor="middle" x="1442" y="-116.25" font-family="Helvetica,sans-Serif" font-size="10.00">H5Opublic.h</text>
</a>
</g>
</g>
<!-- Node27&#45;&gt;Node28 -->
<g id="edge34_Node000027_Node000028" class="edge">
<title>Node27&#45;&gt;Node28</title>
<g id="a_edge34_Node000027_Node000028"><a xlink:title=" ">
<path fill="none" stroke="#63b8ff" d="M1463.2,-171.06C1459.79,-163.02 1454.66,-150.93 1450.29,-140.66"/>
<polygon fill="#63b8ff" stroke="#63b8ff" points="1453.55,-139.38 1446.42,-131.54 1447.11,-142.12 1453.55,-139.38"/>
</a>
</g>
</g>
<!-- Node27&#45;&gt;Node29 -->
<g id="edge37_Node000027_Node000029" class="edge">
<title>Node27&#45;&gt;Node29</title>
<g id="a_edge37_Node000027_Node000029"><a xlink:title=" ">
<path fill="none" stroke="#63b8ff" d="M1483.1,-171.06C1499.99,-161.68 1526.8,-146.79 1546.75,-135.7"/>
<polygon fill="#63b8ff" stroke="#63b8ff" points="1548.38,-138.8 1555.43,-130.89 1544.98,-132.68 1548.38,-138.8"/>
</a>
</g>
</g>
<!-- Node29&#45;&gt;Node2 -->
<g id="edge42_Node000029_Node000002" class="edge">
<title>Node29&#45;&gt;Node2</title>
<g id="a_edge42_Node000029_Node000002"><a xlink:title=" ">
<path fill="none" stroke="#63b8ff" d="M1533.18,-114.36C1476.3,-107.28 1368.63,-92.8 1278,-74.5 1277.17,-74.33 1276.33,-74.16 1275.49,-73.98"/>
<polygon fill="#63b8ff" stroke="#63b8ff" points="1276.43,-70.6 1265.9,-71.75 1274.84,-77.42 1276.43,-70.6"/>
</a>
</g>
</g>
<!-- Node29&#45;&gt;Node7 -->
<g id="edge39_Node000029_Node000007" class="edge">
<title>Node29&#45;&gt;Node7</title>
<g id="a_edge39_Node000029_Node000007"><a xlink:title=" ">
<path fill="none" stroke="#63b8ff" d="M1546.88,-110.09C1520.82,-101.08 1480.68,-87.2 1452.34,-77.4"/>
<polygon fill="#63b8ff" stroke="#63b8ff" points="1453.76,-74.19 1443.16,-74.23 1451.47,-80.81 1453.76,-74.19"/>
</a>
</g>
</g>
<!-- Node29&#45;&gt;Node18 -->
<g id="edge38_Node000029_Node000018" class="edge">
<title>Node29&#45;&gt;Node18</title>
<g id="a_edge38_Node000029_Node000018"><a xlink:title=" ">
<path fill="none" stroke="#63b8ff" d="M1568.71,-110.33C1565.38,-103.51 1560.64,-93.81 1556.44,-85.2"/>
<polygon fill="#63b8ff" stroke="#63b8ff" points="1559.58,-83.67 1552.05,-76.22 1553.29,-86.74 1559.58,-83.67"/>
</a>
</g>
</g>
<!-- Node29&#45;&gt;Node19 -->
<g id="edge40_Node000029_Node000019" class="edge">
<title>Node29&#45;&gt;Node19</title>
<g id="a_edge40_Node000029_Node000019"><a xlink:title=" ">
<path fill="none" stroke="#63b8ff" d="M1558.24,-110.09C1545.12,-102.06 1525.68,-90.16 1510.27,-80.73"/>
<polygon fill="#63b8ff" stroke="#63b8ff" points="1512.48,-77.98 1502.12,-75.74 1508.82,-83.95 1512.48,-77.98"/>
</a>
</g>
</g>
<!-- Node29&#45;&gt;Node20 -->
<g id="edge41_Node000029_Node000020" class="edge">
<title>Node29&#45;&gt;Node20</title>
<g id="a_edge41_Node000029_Node000020"><a xlink:title=" ">
<path fill="none" stroke="#63b8ff" d="M1612.83,-111.5C1666.57,-101.2 1761.57,-83.01 1813.88,-72.99"/>
<polygon fill="#63b8ff" stroke="#63b8ff" points="1814.33,-76.46 1823.49,-71.14 1813.01,-69.59 1814.33,-76.46"/>
</a>
</g>
</g>
<!-- Node29&#45;&gt;Node23 -->
<g id="edge44_Node000029_Node000023" class="edge">
<title>Node29&#45;&gt;Node23</title>
<g id="a_edge44_Node000029_Node000023"><a xlink:title=" ">
<path fill="none" stroke="#63b8ff" d="M1533.11,-115.15C1463.33,-107.8 1325.17,-91.29 1311,-74.5 1305.48,-67.96 1305.3,-61.63 1311,-55.25 1334.98,-28.41 1582.23,-15.68 1672.9,-11.89"/>
<polygon fill="#63b8ff" stroke="#63b8ff" points="1672.77,-15.39 1682.62,-11.49 1672.48,-8.4 1672.77,-15.39"/>
</a>
</g>
</g>
<!-- Node29&#45;&gt;Node24 -->
<g id="edge45_Node000029_Node000024" class="edge">
<title>Node29&#45;&gt;Node24</title>
<g id="a_edge45_Node000029_Node000024"><a xlink:title=" ">
<path fill="none" stroke="#63b8ff" d="M1583.52,-110.09C1592.39,-102.47 1605.31,-91.37 1615.99,-82.2"/>
<polygon fill="#63b8ff" stroke="#63b8ff" points="1618.18,-84.93 1623.49,-75.76 1613.62,-79.62 1618.18,-84.93"/>
</a>
</g>
</g>
<!-- Node29&#45;&gt;Node25 -->
<g id="edge46_Node000029_Node000025" class="edge">
<title>Node29&#45;&gt;Node25</title>
<g id="a_edge46_Node000029_Node000025"><a xlink:title=" ">
<path fill="none" stroke="#63b8ff" d="M1600.99,-110.09C1628.01,-101.37 1669.16,-88.09 1699.31,-78.36"/>
<polygon fill="#63b8ff" stroke="#63b8ff" points="1699.99,-81.82 1708.43,-75.42 1697.84,-75.16 1699.99,-81.82"/>
</a>
</g>
</g>
<!-- Node30 -->
<g id="Node000030" class="node">
<title>Node30</title>
<g id="a_Node000030"><a xlink:title=" ">
<polygon fill="#e0e0e0" stroke="#999999" points="1378,-74.5 1320,-74.5 1320,-55.25 1378,-55.25 1378,-74.5"/>
<text text-anchor="middle" x="1349" y="-61" font-family="Helvetica,sans-Serif" font-size="10.00">typeindex</text>
</a>
</g>
</g>
<!-- Node29&#45;&gt;Node30 -->
<g id="edge43_Node000029_Node000030" class="edge">
<title>Node29&#45;&gt;Node30</title>
<g id="a_edge43_Node000029_Node000030"><a xlink:title=" ">
<path fill="none" stroke="#63b8ff" d="M1534.75,-110.03C1494.2,-100.39 1430.44,-85.24 1389.18,-75.43"/>
<polygon fill="#63b8ff" stroke="#63b8ff" points="1390.18,-72.07 1379.64,-73.16 1388.56,-78.88 1390.18,-72.07"/>
</a>
</g>
</g>
<!-- Node31&#45;&gt;Node2 -->
<g id="edge51_Node000031_Node000002" class="edge">
<title>Node31&#45;&gt;Node2</title>
<g id="a_edge51_Node000031_Node000002"><a xlink:title=" ">
<path fill="none" stroke="#63b8ff" d="M1653.68,-350.12C1348.64,-344.16 191.06,-313.89 84,-196.25 19.92,-125.84 95.11,-136.31 196,-110.5 296.48,-84.8 1047.96,-69.5 1212.31,-66.44"/>
<polygon fill="#63b8ff" stroke="#63b8ff" points="1212.08,-69.95 1222.01,-66.27 1211.95,-62.95 1212.08,-69.95"/>
</a>
</g>
</g>
<!-- Node31&#45;&gt;Node20 -->
<g id="edge50_Node000031_Node000020" class="edge">
<title>Node31&#45;&gt;Node20</title>
<g id="a_edge50_Node000031_Node000020"><a xlink:title=" ">
<path fill="none" stroke="#63b8ff" d="M1800.35,-347.92C1870.28,-340.2 1965,-316.21 1965,-242.88 1965,-242.88 1965,-242.88 1965,-180 1965,-132.67 1915.31,-98.09 1881.54,-80.05"/>
<polygon fill="#63b8ff" stroke="#63b8ff" points="1883.49,-77.12 1872.99,-75.68 1880.3,-83.35 1883.49,-77.12"/>
</a>
</g>
</g>
<!-- Node32 -->
<g id="Node000032" class="node">
<title>Node32</title>
<g id="a_Node000032"><a xlink:href="_registered_type_8hpp.html" target="_top" xlink:title=" ">
<polygon fill="white" stroke="#666666" points="1793,-306.75 1669,-306.75 1669,-287.5 1793,-287.5 1793,-306.75"/>
<text text-anchor="middle" x="1731" y="-293.25" font-family="Helvetica,sans-Serif" font-size="10.00">nwb/RegisteredType.hpp</text>
</a>
</g>
</g>
<!-- Node31&#45;&gt;Node32 -->
<g id="edge52_Node000031_Node000032" class="edge">
<title>Node31&#45;&gt;Node32</title>
<g id="a_edge52_Node000031_Node000032"><a xlink:title=" ">
<path fill="none" stroke="#63b8ff" d="M1727.66,-342.58C1728.16,-335.99 1728.85,-326.71 1729.48,-318.32"/>
<polygon fill="#63b8ff" stroke="#63b8ff" points="1732.95,-318.85 1730.21,-308.62 1725.97,-318.33 1732.95,-318.85"/>
</a>
</g>
</g>
<!-- Node32&#45;&gt;Node2 -->
<g id="edge55_Node000032_Node000002" class="edge">
<title>Node32&#45;&gt;Node2</title>
<g id="a_edge55_Node000032_Node000002"><a xlink:title=" ">
<path fill="none" stroke="#63b8ff" d="M1681.67,-287.06C1615.95,-273.65 1497.38,-244.74 1406,-196.25 1346.72,-164.79 1288.12,-110.28 1260.46,-82.78"/>
<polygon fill="#63b8ff" stroke="#63b8ff" points="1263.2,-80.57 1253.67,-75.94 1258.23,-85.5 1263.2,-80.57"/>
</a>
</g>
</g>
<!-- Node32&#45;&gt;Node3 -->
<g id="edge59_Node000032_Node000003" class="edge">
<title>Node32&#45;&gt;Node3</title>
<g id="a_edge59_Node000032_Node000003"><a xlink:title=" ">
<path fill="none" stroke="#63b8ff" d="M1668.84,-292.4C1497.3,-282.13 1020.76,-253.58 881,-245.21"/>
<polygon fill="#63b8ff" stroke="#63b8ff" points="881.36,-241.73 871.17,-244.62 880.94,-248.71 881.36,-241.73"/>
</a>
</g>
</g>
<!-- Node32&#45;&gt;Node17 -->
<g id="edge60_Node000032_Node000017" class="edge">
<title>Node32&#45;&gt;Node17</title>
<g id="a_edge60_Node000032_Node000017"><a xlink:title=" ">
<path fill="none" stroke="#63b8ff" d="M1729.83,-287.21C1726.29,-260.3 1715.66,-179.44 1710.66,-141.37"/>
<polygon fill="#63b8ff" stroke="#63b8ff" points="1714.17,-141.2 1709.39,-131.74 1707.23,-142.11 1714.17,-141.2"/>
</a>
</g>
</g>
<!-- Node32&#45;&gt;Node20 -->
<g id="edge54_Node000032_Node000020" class="edge">
<title>Node32&#45;&gt;Node20</title>
<g id="a_edge54_Node000032_Node000020"><a xlink:title=" ">
<path fill="none" stroke="#63b8ff" d="M1737.59,-287.14C1743.94,-278.29 1753.65,-264.29 1761,-251.5 1794.69,-192.89 1827.62,-119.8 1842.6,-85.44"/>
<polygon fill="#63b8ff" stroke="#63b8ff" points="1845.77,-86.95 1846.52,-76.38 1839.34,-84.17 1845.77,-86.95"/>
</a>
</g>
</g>
<!-- Node32&#45;&gt;Node21 -->
<g id="edge56_Node000032_Node000021" class="edge">
<title>Node32&#45;&gt;Node21</title>
<g id="a_edge56_Node000032_Node000021"><a xlink:title=" ">
<path fill="none" stroke="#63b8ff" d="M1746.82,-287.11C1761.67,-278.47 1784.32,-264.81 1803,-251.5 1884.24,-193.61 1974.32,-115.92 2012.4,-82.41"/>
<polygon fill="#63b8ff" stroke="#63b8ff" points="2014.61,-85.12 2019.79,-75.88 2009.97,-79.88 2014.61,-85.12"/>
</a>
</g>
</g>
<!-- Node32&#45;&gt;Node22 -->
<g id="edge57_Node000032_Node000022" class="edge">
<title>Node32&#45;&gt;Node22</title>
<g id="a_edge57_Node000032_Node000022"><a xlink:title=" ">
<path fill="none" stroke="#63b8ff" d="M1741.53,-287.3C1751.74,-278.58 1767.47,-264.67 1780,-251.5 1835.32,-193.38 1893.78,-117.95 1919.51,-83.92"/>
<polygon fill="#63b8ff" stroke="#63b8ff" points="1922.28,-86.06 1925.49,-75.97 1916.69,-81.85 1922.28,-86.06"/>
</a>
</g>
</g>
<!-- Node32&#45;&gt;Node25 -->
<g id="edge58_Node000032_Node000025" class="edge">
<title>Node32&#45;&gt;Node25</title>
<g id="a_edge58_Node000032_Node000025"><a xlink:title=" ">
<path fill="none" stroke="#63b8ff" d="M1734.26,-287.18C1743.61,-260.28 1769.07,-177.86 1756,-110.5 1754.33,-101.9 1751.01,-92.85 1747.66,-85.17"/>
<polygon fill="#63b8ff" stroke="#63b8ff" points="1750.85,-83.72 1743.43,-76.16 1744.52,-86.7 1750.85,-83.72"/>
</a>
</g>
</g>
<!-- Node32&#45;&gt;Node29 -->
<g id="edge61_Node000032_Node000029" class="edge">
<title>Node32&#45;&gt;Node29</title>
<g id="a_edge61_Node000032_Node000029"><a xlink:title=" ">
<path fill="none" stroke="#63b8ff" d="M1702.57,-287.05C1683.58,-279.84 1659.05,-268.18 1642,-251.5 1609.31,-219.52 1588.65,-168.72 1579.15,-140.91"/>
<polygon fill="#63b8ff" stroke="#63b8ff" points="1582.55,-140.08 1576.13,-131.65 1575.9,-142.25 1582.55,-140.08"/>
</a>
</g>
</g>
<!-- Node33 -->
<g id="Node000033" class="node">
<title>Node33</title>
<g id="a_Node000033"><a xlink:title=" ">
<polygon fill="#e0e0e0" stroke="#999999" points="1709,-251.5 1651,-251.5 1651,-232.25 1709,-232.25 1709,-251.5"/>
<text text-anchor="middle" x="1680" y="-238" font-family="Helvetica,sans-Serif" font-size="10.00">functional</text>
</a>
</g>
</g>
<!-- Node32&#45;&gt;Node33 -->
<g id="edge53_Node000032_Node000033" class="edge">
<title>Node32&#45;&gt;Node33</title>
<g id="a_edge53_Node000032_Node000033"><a xlink:title=" ">
<path fill="none" stroke="#63b8ff" d="M1722.58,-287.33C1715.46,-279.9 1705.06,-269.04 1696.31,-259.91"/>
<polygon fill="#63b8ff" stroke="#63b8ff" points="1699.1,-257.75 1689.65,-252.95 1694.04,-262.6 1699.1,-257.75"/>
</a>
</g>
</g>
</g>
</svg>
