<?xml version="1.0" encoding="UTF-8" standalone="no"?>
<!DOCTYPE svg PUBLIC "-//W3C//DTD SVG 1.1//EN"
 "http://www.w3.org/Graphics/SVG/1.1/DTD/svg11.dtd">
<!-- Generated by graphviz version 12.2.1 (20241206.2353)
 -->
<!-- Title: src/nwb/device/Device.hpp Pages: 1 -->
<!--zoomable 425 -->

<svg id="main" version="1.1" xmlns="http://www.w3.org/2000/svg" xmlns:xlink="http://www.w3.org/1999/xlink" xml:space="preserve" onload="init(evt)">

<style type="text/css"><![CDATA[
.node, .edge {opacity: 0.7;}
.node.selected, .edge.selected {opacity: 1;}
.edge:hover path { stroke: red; }
.edge:hover polygon { stroke: red; fill: red; }
]]></style>

<defs>
  <circle id="rim" cx="0" cy="0" r="7"/>
  <circle id="rim2" cx="0" cy="0" r="3.5"/>
  <g id="zoomPlus">
    <use xlink:href="#rim" fill="#404040"><set attributeName="fill" to="#808080" begin="zoomplus.mouseover" end="zoomplus.mouseout"/></use>
    <path d="M-4,0h8M0,-4v8" fill="none" stroke="white" stroke-width="1.5" pointer-events="none"/>
  </g>
  <g id="zoomMin">
    <use xlink:href="#rim" fill="#404040"><set attributeName="fill" to="#808080" begin="zoomminus.mouseover" end="zoomminus.mouseout"/></use>
    <path d="M-4,0h8" fill="none" stroke="white" stroke-width="1.5" pointer-events="none"/>
  </g>
  <g id="arrowUp" transform="translate(30 24)">
    <use xlink:href="#rim"/>
    <path pointer-events="none" fill="none" stroke="white" stroke-width="1.5" d="M0,-3.0v7 M-2.5,-0.5L0,-3.0L2.5,-0.5"/>
  </g>
  <g id="arrowRight" transform="rotate(90) translate(36 -43)">
    <use xlink:href="#rim"/>
    <path pointer-events="none" fill="none" stroke="white" stroke-width="1.5" d="M0,-3.0v7 M-2.5,-0.5L0,-3.0L2.5,-0.5"/>
  </g>
  <g id="arrowDown" transform="rotate(180) translate(-30 -48)">
    <use xlink:href="#rim"/>
    <path pointer-events="none" fill="none" stroke="white" stroke-width="1.5" d="M0,-3.0v7 M-2.5,-0.5L0,-3.0L2.5,-0.5"/>
  </g>
  <g id="arrowLeft" transform="rotate(270) translate(-36 17)">
    <use xlink:href="#rim"/>
    <path pointer-events="none" fill="none" stroke="white" stroke-width="1.5" d="M0,-3.0v7 M-2.5,-0.5L0,-3.0L2.5,-0.5"/>
  </g>
  <g id="resetDef">
    <use xlink:href="#rim2" fill="#404040"><set attributeName="fill" to="#808080" begin="reset.mouseover" end="reset.mouseout"/></use>
  </g>
</defs>
<script type="application/ecmascript">
var viewWidth = 2018;
var viewHeight = 425;
var sectionId = 'dynsection-0';
</script>
<script type="application/ecmascript" xlink:href="svg.min.js"/>
<svg id="graph" class="graph">
<g id="viewport">
<title>src/nwb/device/Device.hpp</title>
<!-- Node1 -->
<g id="Node000001" class="node">
<title>Node1</title>
<g id="a_Node000001"><a xlink:title=" ">
<polygon fill="#999999" stroke="#666666" points="1639.25,-417.25 1504.75,-417.25 1504.75,-398 1639.25,-398 1639.25,-417.25"/>
<text text-anchor="middle" x="1572" y="-403.75" font-family="Helvetica,sans-Serif" font-size="10.00">src/nwb/device/Device.hpp</text>
</a>
</g>
</g>
<!-- Node2 -->
<g id="Node000002" class="node">
<title>Node2</title>
<g id="a_Node000002"><a xlink:title=" ">
<polygon fill="#e0e0e0" stroke="#999999" points="172,-74.5 132,-74.5 132,-55.25 172,-55.25 172,-74.5"/>
<text text-anchor="middle" x="152" y="-61" font-family="Helvetica,sans-Serif" font-size="10.00">string</text>
</a>
</g>
</g>
<!-- Node1&#45;&gt;Node2 -->
<g id="edge1_Node000001_Node000002" class="edge">
<title>Node1&#45;&gt;Node2</title>
<g id="a_edge1_Node000001_Node000002"><a xlink:title=" ">
<path fill="none" stroke="#63b8ff" d="M1504.45,-405.55C1203.56,-400.34 0,-374.72 0,-298.12 0,-298.12 0,-298.12 0,-180 0,-120.2 76.17,-87.87 120.67,-74.09"/>
<polygon fill="#63b8ff" stroke="#63b8ff" points="121.44,-77.51 130.05,-71.33 119.47,-70.8 121.44,-77.51"/>
</a>
</g>
</g>
<!-- Node3 -->
<g id="Node000003" class="node">
<title>Node3</title>
<g id="a_Node000003"><a xlink:href="_utils_8hpp.html" target="_top" xlink:title=" ">
<polygon fill="white" stroke="#666666" points="992.5,-251.5 937.5,-251.5 937.5,-232.25 992.5,-232.25 992.5,-251.5"/>
<text text-anchor="middle" x="965" y="-238" font-family="Helvetica,sans-Serif" font-size="10.00">Utils.hpp</text>
</a>
</g>
</g>
<!-- Node1&#45;&gt;Node3 -->
<g id="edge2_Node000001_Node000003" class="edge">
<title>Node1&#45;&gt;Node3</title>
<g id="a_edge2_Node000001_Node000003"><a xlink:title=" ">
<path fill="none" stroke="#63b8ff" d="M1538.5,-397.59C1434.08,-369.42 1114.87,-283.31 1003.68,-253.31"/>
<polygon fill="#63b8ff" stroke="#63b8ff" points="1004.7,-249.96 994.14,-250.74 1002.88,-256.72 1004.7,-249.96"/>
</a>
</g>
</g>
<!-- Node18 -->
<g id="Node000018" class="node">
<title>Node18</title>
<g id="a_Node000018"><a xlink:href="_base_i_o_8hpp.html" target="_top" xlink:title=" ">
<polygon fill="white" stroke="#666666" points="1723.12,-129.75 1644.88,-129.75 1644.88,-110.5 1723.12,-110.5 1723.12,-129.75"/>
<text text-anchor="middle" x="1684" y="-116.25" font-family="Helvetica,sans-Serif" font-size="10.00">io/BaseIO.hpp</text>
</a>
</g>
</g>
<!-- Node1&#45;&gt;Node18 -->
<g id="edge48_Node000001_Node000018" class="edge">
<title>Node1&#45;&gt;Node18</title>
<g id="a_edge48_Node000001_Node000018"><a xlink:title=" ">
<path fill="none" stroke="#63b8ff" d="M1639.48,-400.99C1747.44,-390.1 1947,-361.41 1947,-298.12 1947,-298.12 1947,-298.12 1947,-240.88 1947,-148.54 1811.06,-127.07 1734.64,-122.3"/>
<polygon fill="#63b8ff" stroke="#63b8ff" points="1735.06,-118.82 1724.89,-121.78 1734.68,-125.81 1735.06,-118.82"/>
</a>
</g>
</g>
<!-- Node30 -->
<g id="Node000030" class="node">
<title>Node30</title>
<g id="a_Node000030"><a xlink:href="_read_i_o_8hpp.html" target="_top" xlink:title=" ">
<polygon fill="white" stroke="#666666" points="1576.5,-129.75 1497.5,-129.75 1497.5,-110.5 1576.5,-110.5 1576.5,-129.75"/>
<text text-anchor="middle" x="1537" y="-116.25" font-family="Helvetica,sans-Serif" font-size="10.00">io/ReadIO.hpp</text>
</a>
</g>
</g>
<!-- Node1&#45;&gt;Node30 -->
<g id="edge49_Node000001_Node000030" class="edge">
<title>Node1&#45;&gt;Node30</title>
<g id="a_edge49_Node000001_Node000030"><a xlink:title=" ">
<path fill="none" stroke="#63b8ff" d="M1575.27,-397.8C1586.8,-365.22 1622.91,-249.28 1586,-165.75 1580.84,-154.07 1570.94,-144.13 1561.38,-136.61"/>
<polygon fill="#63b8ff" stroke="#63b8ff" points="1563.51,-133.83 1553.36,-130.82 1559.42,-139.51 1563.51,-133.83"/>
</a>
</g>
</g>
<!-- Node32 -->
<g id="Node000032" class="node">
<title>Node32</title>
<g id="a_Node000032"><a xlink:href="_container_8hpp.html" target="_top" xlink:title=" ">
<polygon fill="white" stroke="#666666" points="1759.88,-362 1614.12,-362 1614.12,-342.75 1759.88,-342.75 1759.88,-362"/>
<text text-anchor="middle" x="1687" y="-348.5" font-family="Helvetica,sans-Serif" font-size="10.00">nwb/hdmf/base/Container.hpp</text>
</a>
</g>
</g>
<!-- Node1&#45;&gt;Node32 -->
<g id="edge50_Node000001_Node000032" class="edge">
<title>Node1&#45;&gt;Node32</title>
<g id="a_edge50_Node000001_Node000032"><a xlink:title=" ">
<path fill="none" stroke="#63b8ff" d="M1591.51,-397.59C1609.52,-389.25 1636.52,-376.75 1657.23,-367.16"/>
<polygon fill="#63b8ff" stroke="#63b8ff" points="1658.42,-370.47 1666.02,-363.09 1655.48,-364.11 1658.42,-370.47"/>
</a>
</g>
</g>
<!-- Node3&#45;&gt;Node2 -->
<g id="edge11_Node000003_Node000002" class="edge">
<title>Node3&#45;&gt;Node2</title>
<g id="a_edge11_Node000003_Node000002"><a xlink:title=" ">
<path fill="none" stroke="#63b8ff" d="M937.4,-240.3C800.52,-237.3 199.87,-222.67 171,-196.25 140.57,-168.41 143.58,-115.1 148.02,-86.02"/>
<polygon fill="#63b8ff" stroke="#63b8ff" points="151.44,-86.81 149.72,-76.35 144.54,-85.6 151.44,-86.81"/>
</a>
</g>
</g>
<!-- Node4 -->
<g id="Node000004" class="node">
<title>Node4</title>
<g id="a_Node000004"><a xlink:title=" ">
<polygon fill="#e0e0e0" stroke="#999999" points="675.88,-190.62 620.12,-190.62 620.12,-171.38 675.88,-171.38 675.88,-190.62"/>
<text text-anchor="middle" x="648" y="-177.12" font-family="Helvetica,sans-Serif" font-size="10.00">algorithm</text>
</a>
</g>
</g>
<!-- Node3&#45;&gt;Node4 -->
<g id="edge3_Node000003_Node000004" class="edge">
<title>Node3&#45;&gt;Node4</title>
<g id="a_edge3_Node000003_Node000004"><a xlink:title=" ">
<path fill="none" stroke="#63b8ff" d="M937.17,-238.39C886.39,-233.43 775.55,-220.61 685,-196.25 683.38,-195.81 681.73,-195.33 680.08,-194.82"/>
<polygon fill="#63b8ff" stroke="#63b8ff" points="681.29,-191.53 670.7,-191.56 679,-198.15 681.29,-191.53"/>
</a>
</g>
</g>
<!-- Node5 -->
<g id="Node000005" class="node">
<title>Node5</title>
<g id="a_Node000005"><a xlink:title=" ">
<polygon fill="#e0e0e0" stroke="#999999" points="739.62,-190.62 694.38,-190.62 694.38,-171.38 739.62,-171.38 739.62,-190.62"/>
<text text-anchor="middle" x="717" y="-177.12" font-family="Helvetica,sans-Serif" font-size="10.00">chrono</text>
</a>
</g>
</g>
<!-- Node3&#45;&gt;Node5 -->
<g id="edge4_Node000003_Node000005" class="edge">
<title>Node3&#45;&gt;Node5</title>
<g id="a_edge4_Node000003_Node000005"><a xlink:title=" ">
<path fill="none" stroke="#63b8ff" d="M937.07,-237.21C895.24,-231.27 814.15,-217.94 748,-196.25 747.04,-195.94 746.07,-195.6 745.1,-195.25"/>
<polygon fill="#63b8ff" stroke="#63b8ff" points="746.73,-192.13 736.15,-191.57 744.07,-198.61 746.73,-192.13"/>
</a>
</g>
</g>
<!-- Node6 -->
<g id="Node000006" class="node">
<title>Node6</title>
<g id="a_Node000006"><a xlink:title=" ">
<polygon fill="#e0e0e0" stroke="#999999" points="800.5,-190.62 757.5,-190.62 757.5,-171.38 800.5,-171.38 800.5,-190.62"/>
<text text-anchor="middle" x="779" y="-177.12" font-family="Helvetica,sans-Serif" font-size="10.00">cmath</text>
</a>
</g>
</g>
<!-- Node3&#45;&gt;Node6 -->
<g id="edge5_Node000003_Node000006" class="edge">
<title>Node3&#45;&gt;Node6</title>
<g id="a_edge5_Node000003_Node000006"><a xlink:title=" ">
<path fill="none" stroke="#63b8ff" d="M937.16,-234.21C905.81,-226.39 853.58,-212.43 810,-196.25 809.36,-196.01 808.71,-195.77 808.06,-195.51"/>
<polygon fill="#63b8ff" stroke="#63b8ff" points="809.46,-192.31 798.89,-191.64 806.74,-198.76 809.46,-192.31"/>
</a>
</g>
</g>
<!-- Node7 -->
<g id="Node000007" class="node">
<title>Node7</title>
<g id="a_Node000007"><a xlink:title=" ">
<polygon fill="#e0e0e0" stroke="#999999" points="1705.62,-74.5 1660.38,-74.5 1660.38,-55.25 1705.62,-55.25 1705.62,-74.5"/>
<text text-anchor="middle" x="1683" y="-61" font-family="Helvetica,sans-Serif" font-size="10.00">cstdint</text>
</a>
</g>
</g>
<!-- Node3&#45;&gt;Node7 -->
<g id="edge6_Node000003_Node000007" class="edge">
<title>Node3&#45;&gt;Node7</title>
<g id="a_edge6_Node000003_Node000007"><a xlink:title=" ">
<path fill="none" stroke="#63b8ff" d="M992.64,-240.39C1106.44,-238.21 1535.15,-227.94 1586,-196.25 1623.44,-172.92 1608.62,-145.09 1636,-110.5 1644.09,-100.29 1654.47,-90.18 1663.42,-82.18"/>
<polygon fill="#63b8ff" stroke="#63b8ff" points="1665.67,-84.87 1670.93,-75.67 1661.08,-79.58 1665.67,-84.87"/>
</a>
</g>
</g>
<!-- Node8 -->
<g id="Node000008" class="node">
<title>Node8</title>
<g id="a_Node000008"><a xlink:title=" ">
<polygon fill="#e0e0e0" stroke="#999999" points="859,-190.62 819,-190.62 819,-171.38 859,-171.38 859,-190.62"/>
<text text-anchor="middle" x="839" y="-177.12" font-family="Helvetica,sans-Serif" font-size="10.00">ctime</text>
</a>
</g>
</g>
<!-- Node3&#45;&gt;Node8 -->
<g id="edge7_Node000003_Node000008" class="edge">
<title>Node3&#45;&gt;Node8</title>
<g id="a_edge7_Node000003_Node000008"><a xlink:title=" ">
<path fill="none" stroke="#63b8ff" d="M944.87,-231.79C925.2,-222.88 894.45,-208.83 868,-196.25 867.89,-196.2 867.78,-196.15 867.68,-196.1"/>
<polygon fill="#63b8ff" stroke="#63b8ff" points="869.26,-192.98 858.74,-191.78 866.22,-199.28 869.26,-192.98"/>
</a>
</g>
</g>
<!-- Node9 -->
<g id="Node000009" class="node">
<title>Node9</title>
<g id="a_Node000009"><a xlink:title=" ">
<polygon fill="#e0e0e0" stroke="#999999" points="926.88,-190.62 877.12,-190.62 877.12,-171.38 926.88,-171.38 926.88,-190.62"/>
<text text-anchor="middle" x="902" y="-177.12" font-family="Helvetica,sans-Serif" font-size="10.00">iomanip</text>
</a>
</g>
</g>
<!-- Node3&#45;&gt;Node9 -->
<g id="edge8_Node000003_Node000009" class="edge">
<title>Node3&#45;&gt;Node9</title>
<g id="a_edge8_Node000003_Node000009"><a xlink:title=" ">
<path fill="none" stroke="#63b8ff" d="M955.43,-231.93C946,-223.12 931.35,-209.43 919.77,-198.61"/>
<polygon fill="#63b8ff" stroke="#63b8ff" points="922.46,-196.33 912.76,-192.06 917.68,-201.44 922.46,-196.33"/>
</a>
</g>
</g>
<!-- Node10 -->
<g id="Node000010" class="node">
<title>Node10</title>
<g id="a_Node000010"><a xlink:title=" ">
<polygon fill="#e0e0e0" stroke="#999999" points="985,-190.62 945,-190.62 945,-171.38 985,-171.38 985,-190.62"/>
<text text-anchor="middle" x="965" y="-177.12" font-family="Helvetica,sans-Serif" font-size="10.00">regex</text>
</a>
</g>
</g>
<!-- Node3&#45;&gt;Node10 -->
<g id="edge9_Node000003_Node000010" class="edge">
<title>Node3&#45;&gt;Node10</title>
<g id="a_edge9_Node000003_Node000010"><a xlink:title=" ">
<path fill="none" stroke="#63b8ff" d="M965,-231.93C965,-224.15 965,-212.58 965,-202.53"/>
<polygon fill="#63b8ff" stroke="#63b8ff" points="968.5,-202.54 965,-192.54 961.5,-202.54 968.5,-202.54"/>
</a>
</g>
</g>
<!-- Node11 -->
<g id="Node000011" class="node">
<title>Node11</title>
<g id="a_Node000011"><a xlink:title=" ">
<polygon fill="#e0e0e0" stroke="#999999" points="1054.62,-190.62 1003.38,-190.62 1003.38,-171.38 1054.62,-171.38 1054.62,-190.62"/>
<text text-anchor="middle" x="1029" y="-177.12" font-family="Helvetica,sans-Serif" font-size="10.00">sstream</text>
</a>
</g>
</g>
<!-- Node3&#45;&gt;Node11 -->
<g id="edge10_Node000003_Node000011" class="edge">
<title>Node3&#45;&gt;Node11</title>
<g id="a_edge10_Node000003_Node000011"><a xlink:title=" ">
<path fill="none" stroke="#63b8ff" d="M974.72,-231.93C984.31,-223.12 999.19,-209.43 1010.94,-198.61"/>
<polygon fill="#63b8ff" stroke="#63b8ff" points="1013.08,-201.4 1018.07,-192.05 1008.35,-196.25 1013.08,-201.4"/>
</a>
</g>
</g>
<!-- Node12 -->
<g id="Node000012" class="node">
<title>Node12</title>
<g id="a_Node000012"><a xlink:title=" ">
<polygon fill="#e0e0e0" stroke="#999999" points="1177.25,-190.62 1072.75,-190.62 1072.75,-171.38 1177.25,-171.38 1177.25,-190.62"/>
<text text-anchor="middle" x="1125" y="-177.12" font-family="Helvetica,sans-Serif" font-size="10.00">boost/date_time.hpp</text>
</a>
</g>
</g>
<!-- Node3&#45;&gt;Node12 -->
<g id="edge12_Node000003_Node000012" class="edge">
<title>Node3&#45;&gt;Node12</title>
<g id="a_edge12_Node000003_Node000012"><a xlink:title=" ">
<path fill="none" stroke="#63b8ff" d="M989.65,-231.8C1016.43,-221.95 1059.44,-206.13 1089.77,-194.96"/>
<polygon fill="#63b8ff" stroke="#63b8ff" points="1090.73,-198.34 1098.9,-191.6 1088.31,-191.77 1090.73,-198.34"/>
</a>
</g>
</g>
<!-- Node13 -->
<g id="Node000013" class="node">
<title>Node13</title>
<g id="a_Node000013"><a xlink:title=" ">
<polygon fill="#e0e0e0" stroke="#999999" points="1336.25,-190.62 1195.75,-190.62 1195.75,-171.38 1336.25,-171.38 1336.25,-190.62"/>
<text text-anchor="middle" x="1266" y="-177.12" font-family="Helvetica,sans-Serif" font-size="10.00">boost/endian/conversion.hpp</text>
</a>
</g>
</g>
<!-- Node3&#45;&gt;Node13 -->
<g id="edge13_Node000003_Node000013" class="edge">
<title>Node3&#45;&gt;Node13</title>
<g id="a_edge13_Node000003_Node000013"><a xlink:title=" ">
<path fill="none" stroke="#63b8ff" d="M992.78,-235.44C1041.59,-225.89 1143.68,-205.93 1208.31,-193.28"/>
<polygon fill="#63b8ff" stroke="#63b8ff" points="1208.9,-196.74 1218.04,-191.38 1207.55,-189.87 1208.9,-196.74"/>
</a>
</g>
</g>
<!-- Node14 -->
<g id="Node000014" class="node">
<title>Node14</title>
<g id="a_Node000014"><a xlink:title=" ">
<polygon fill="#e0e0e0" stroke="#999999" points="1455.38,-190.62 1354.62,-190.62 1354.62,-171.38 1455.38,-171.38 1455.38,-190.62"/>
<text text-anchor="middle" x="1405" y="-177.12" font-family="Helvetica,sans-Serif" font-size="10.00">boost/uuid/uuid.hpp</text>
</a>
</g>
</g>
<!-- Node3&#45;&gt;Node14 -->
<g id="edge14_Node000003_Node000014" class="edge">
<title>Node3&#45;&gt;Node14</title>
<g id="a_edge14_Node000003_Node000014"><a xlink:title=" ">
<path fill="none" stroke="#63b8ff" d="M992.82,-238.72C1055.83,-233.61 1214.18,-219.39 1345,-196.25 1349.57,-195.44 1354.31,-194.5 1359.03,-193.49"/>
<polygon fill="#63b8ff" stroke="#63b8ff" points="1359.46,-196.98 1368.45,-191.38 1357.93,-190.15 1359.46,-196.98"/>
</a>
</g>
</g>
<!-- Node15 -->
<g id="Node000015" class="node">
<title>Node15</title>
<g id="a_Node000015"><a xlink:title=" ">
<polygon fill="#e0e0e0" stroke="#999999" points="331.88,-190.62 180.12,-190.62 180.12,-171.38 331.88,-171.38 331.88,-190.62"/>
<text text-anchor="middle" x="256" y="-177.12" font-family="Helvetica,sans-Serif" font-size="10.00">boost/uuid/uuid_generators.hpp</text>
</a>
</g>
</g>
<!-- Node3&#45;&gt;Node15 -->
<g id="edge15_Node000003_Node000015" class="edge">
<title>Node3&#45;&gt;Node15</title>
<g id="a_edge15_Node000003_Node000015"><a xlink:title=" ">
<path fill="none" stroke="#63b8ff" d="M937.23,-239.83C849.49,-236.32 570.44,-223.62 341,-196.25 333.03,-195.3 324.67,-194.12 316.44,-192.85"/>
<polygon fill="#63b8ff" stroke="#63b8ff" points="317.25,-189.44 306.82,-191.32 316.15,-196.35 317.25,-189.44"/>
</a>
</g>
</g>
<!-- Node16 -->
<g id="Node000016" class="node">
<title>Node16</title>
<g id="a_Node000016"><a xlink:title=" ">
<polygon fill="#e0e0e0" stroke="#999999" points="463.75,-190.62 350.25,-190.62 350.25,-171.38 463.75,-171.38 463.75,-190.62"/>
<text text-anchor="middle" x="407" y="-177.12" font-family="Helvetica,sans-Serif" font-size="10.00">boost/uuid/uuid_io.hpp</text>
</a>
</g>
</g>
<!-- Node3&#45;&gt;Node16 -->
<g id="edge16_Node000003_Node000016" class="edge">
<title>Node3&#45;&gt;Node16</title>
<g id="a_edge16_Node000003_Node000016"><a xlink:title=" ">
<path fill="none" stroke="#63b8ff" d="M937.11,-239.54C861.87,-235.69 648.5,-223.05 473,-196.25 467.63,-195.43 462.05,-194.44 456.5,-193.37"/>
<polygon fill="#63b8ff" stroke="#63b8ff" points="457.22,-189.95 446.73,-191.39 455.83,-196.81 457.22,-189.95"/>
</a>
</g>
</g>
<!-- Node17 -->
<g id="Node000017" class="node">
<title>Node17</title>
<g id="a_Node000017"><a xlink:title=" ">
<polygon fill="#e0e0e0" stroke="#999999" points="601.75,-196.25 482.25,-196.25 482.25,-165.75 601.75,-165.75 601.75,-196.25"/>
<text text-anchor="start" x="490.25" y="-182.75" font-family="Helvetica,sans-Serif" font-size="10.00">boost/date_time/c_local</text>
<text text-anchor="middle" x="542" y="-171.5" font-family="Helvetica,sans-Serif" font-size="10.00">_time_adjustor.hpp</text>
</a>
</g>
</g>
<!-- Node3&#45;&gt;Node17 -->
<g id="edge17_Node000003_Node000017" class="edge">
<title>Node3&#45;&gt;Node17</title>
<g id="a_edge17_Node000003_Node000017"><a xlink:title=" ">
<path fill="none" stroke="#63b8ff" d="M937.35,-238.13C879.28,-232.22 740.17,-217.22 613.23,-196.54"/>
<polygon fill="#63b8ff" stroke="#63b8ff" points="614.09,-193.13 603.65,-194.96 612.95,-200.04 614.09,-193.13"/>
</a>
</g>
</g>
<!-- Node3&#45;&gt;Node18 -->
<g id="edge18_Node000003_Node000018" class="edge">
<title>Node3&#45;&gt;Node18</title>
<g id="a_edge18_Node000003_Node000018"><a xlink:title=" ">
<path fill="none" stroke="#63b8ff" d="M992.76,-240.23C1110.14,-237.36 1562.36,-224.51 1619,-196.25 1643.54,-184.01 1662.67,-157.99 1673.64,-140.04"/>
<polygon fill="#63b8ff" stroke="#63b8ff" points="1676.66,-141.81 1678.64,-131.4 1670.6,-138.3 1676.66,-141.81"/>
</a>
</g>
</g>
<!-- Node28 -->
<g id="Node000028" class="node">
<title>Node28</title>
<g id="a_Node000028"><a xlink:href="_h_d_f5_i_o_8hpp.html" target="_top" xlink:title=" ">
<polygon fill="white" stroke="#666666" points="1576.88,-190.62 1473.12,-190.62 1473.12,-171.38 1576.88,-171.38 1576.88,-190.62"/>
<text text-anchor="middle" x="1525" y="-177.12" font-family="Helvetica,sans-Serif" font-size="10.00">io/hdf5/HDF5IO.hpp</text>
</a>
</g>
</g>
<!-- Node3&#45;&gt;Node28 -->
<g id="edge31_Node000003_Node000028" class="edge">
<title>Node3&#45;&gt;Node28</title>
<g id="a_edge31_Node000003_Node000028"><a xlink:title=" ">
<path fill="none" stroke="#63b8ff" d="M992.76,-239.76C1068.65,-236.42 1285.81,-224.89 1464,-196.25 1468.9,-195.46 1474,-194.5 1479.06,-193.46"/>
<polygon fill="#63b8ff" stroke="#63b8ff" points="1479.51,-196.94 1488.53,-191.38 1478.01,-190.1 1479.51,-196.94"/>
</a>
</g>
</g>
<!-- Node18&#45;&gt;Node2 -->
<g id="edge23_Node000018_Node000002" class="edge">
<title>Node18&#45;&gt;Node2</title>
<g id="a_edge23_Node000018_Node000002"><a xlink:title=" ">
<path fill="none" stroke="#63b8ff" d="M1644.46,-115.13C1626.62,-113.46 1605.27,-111.65 1586,-110.5 1024.37,-77.07 337.41,-67.89 183.55,-66.19"/>
<polygon fill="#63b8ff" stroke="#63b8ff" points="183.79,-62.7 173.75,-66.09 183.71,-69.7 183.79,-62.7"/>
</a>
</g>
</g>
<!-- Node18&#45;&gt;Node7 -->
<g id="edge20_Node000018_Node000007" class="edge">
<title>Node18&#45;&gt;Node7</title>
<g id="a_edge20_Node000018_Node000007"><a xlink:title=" ">
<path fill="none" stroke="#63b8ff" d="M1683.83,-110.33C1683.71,-103.82 1683.54,-94.67 1683.38,-86.37"/>
<polygon fill="#63b8ff" stroke="#63b8ff" points="1686.88,-86.3 1683.2,-76.37 1679.89,-86.44 1686.88,-86.3"/>
</a>
</g>
</g>
<!-- Node19 -->
<g id="Node000019" class="node">
<title>Node19</title>
<g id="a_Node000019"><a xlink:title=" ">
<polygon fill="#e0e0e0" stroke="#999999" points="1641.88,-74.5 1610.12,-74.5 1610.12,-55.25 1641.88,-55.25 1641.88,-74.5"/>
<text text-anchor="middle" x="1626" y="-61" font-family="Helvetica,sans-Serif" font-size="10.00">any</text>
</a>
</g>
</g>
<!-- Node18&#45;&gt;Node19 -->
<g id="edge19_Node000018_Node000019" class="edge">
<title>Node18&#45;&gt;Node19</title>
<g id="a_edge19_Node000018_Node000019"><a xlink:title=" ">
<path fill="none" stroke="#63b8ff" d="M1674.16,-110.09C1665.95,-102.55 1654.02,-91.6 1644.09,-82.48"/>
<polygon fill="#63b8ff" stroke="#63b8ff" points="1646.54,-79.98 1636.81,-75.8 1641.81,-85.14 1646.54,-79.98"/>
</a>
</g>
</g>
<!-- Node20 -->
<g id="Node000020" class="node">
<title>Node20</title>
<g id="a_Node000020"><a xlink:title=" ">
<polygon fill="#e0e0e0" stroke="#999999" points="1351.75,-74.5 1298.25,-74.5 1298.25,-55.25 1351.75,-55.25 1351.75,-74.5"/>
<text text-anchor="middle" x="1325" y="-61" font-family="Helvetica,sans-Serif" font-size="10.00">iostream</text>
</a>
</g>
</g>
<!-- Node18&#45;&gt;Node20 -->
<g id="edge21_Node000018_Node000020" class="edge">
<title>Node18&#45;&gt;Node20</title>
<g id="a_edge21_Node000018_Node000020"><a xlink:title=" ">
<path fill="none" stroke="#63b8ff" d="M1644.52,-114.93C1585.48,-108.39 1470.49,-94.58 1363.1,-74.73"/>
<polygon fill="#63b8ff" stroke="#63b8ff" points="1364.03,-71.34 1353.55,-72.94 1362.74,-78.22 1364.03,-71.34"/>
</a>
</g>
</g>
<!-- Node21 -->
<g id="Node000021" class="node">
<title>Node21</title>
<g id="a_Node000021"><a xlink:title=" ">
<polygon fill="#e0e0e0" stroke="#999999" points="1813.62,-74.5 1762.38,-74.5 1762.38,-55.25 1813.62,-55.25 1813.62,-74.5"/>
<text text-anchor="middle" x="1788" y="-61" font-family="Helvetica,sans-Serif" font-size="10.00">memory</text>
</a>
</g>
</g>
<!-- Node18&#45;&gt;Node21 -->
<g id="edge22_Node000018_Node000021" class="edge">
<title>Node18&#45;&gt;Node21</title>
<g id="a_edge22_Node000018_Node000021"><a xlink:title=" ">
<path fill="none" stroke="#63b8ff" d="M1701.64,-110.09C1717.63,-101.91 1741.46,-89.71 1760.04,-80.19"/>
<polygon fill="#63b8ff" stroke="#63b8ff" points="1761.62,-83.32 1768.92,-75.64 1758.43,-77.08 1761.62,-83.32"/>
</a>
</g>
</g>
<!-- Node22 -->
<g id="Node000022" class="node">
<title>Node22</title>
<g id="a_Node000022"><a xlink:title=" ">
<polygon fill="#e0e0e0" stroke="#999999" points="1914.38,-74.5 1831.62,-74.5 1831.62,-55.25 1914.38,-55.25 1914.38,-74.5"/>
<text text-anchor="middle" x="1873" y="-61" font-family="Helvetica,sans-Serif" font-size="10.00">unordered_map</text>
</a>
</g>
</g>
<!-- Node18&#45;&gt;Node22 -->
<g id="edge24_Node000018_Node000022" class="edge">
<title>Node18&#45;&gt;Node22</title>
<g id="a_edge24_Node000018_Node000022"><a xlink:title=" ">
<path fill="none" stroke="#63b8ff" d="M1716.06,-110.09C1747.42,-101.26 1795.39,-87.74 1830.04,-77.98"/>
<polygon fill="#63b8ff" stroke="#63b8ff" points="1830.65,-81.44 1839.32,-75.36 1828.75,-74.71 1830.65,-81.44"/>
</a>
</g>
</g>
<!-- Node23 -->
<g id="Node000023" class="node">
<title>Node23</title>
<g id="a_Node000023"><a xlink:title=" ">
<polygon fill="#e0e0e0" stroke="#999999" points="2009.75,-74.5 1932.25,-74.5 1932.25,-55.25 2009.75,-55.25 2009.75,-74.5"/>
<text text-anchor="middle" x="1971" y="-61" font-family="Helvetica,sans-Serif" font-size="10.00">unordered_set</text>
</a>
</g>
</g>
<!-- Node18&#45;&gt;Node23 -->
<g id="edge25_Node000018_Node000023" class="edge">
<title>Node18&#45;&gt;Node23</title>
<g id="a_edge25_Node000018_Node000023"><a xlink:title=" ">
<path fill="none" stroke="#63b8ff" d="M1723.6,-111.78C1774.96,-102.25 1864.59,-85.62 1920.7,-75.21"/>
<polygon fill="#63b8ff" stroke="#63b8ff" points="1921.12,-78.69 1930.31,-73.42 1919.84,-71.81 1921.12,-78.69"/>
</a>
</g>
</g>
<!-- Node24 -->
<g id="Node000024" class="node">
<title>Node24</title>
<g id="a_Node000024"><a xlink:title=" ">
<polygon fill="#e0e0e0" stroke="#999999" points="1477.5,-19.25 1434.5,-19.25 1434.5,0 1477.5,0 1477.5,-19.25"/>
<text text-anchor="middle" x="1456" y="-5.75" font-family="Helvetica,sans-Serif" font-size="10.00">vector</text>
</a>
</g>
</g>
<!-- Node18&#45;&gt;Node24 -->
<g id="edge26_Node000018_Node000024" class="edge">
<title>Node18&#45;&gt;Node24</title>
<g id="a_edge26_Node000018_Node000024"><a xlink:title=" ">
<path fill="none" stroke="#63b8ff" d="M1694.35,-110.07C1708.16,-96.9 1729.3,-72.22 1715,-55.25 1686.49,-21.4 1552.45,-13.23 1489.2,-11.25"/>
<polygon fill="#63b8ff" stroke="#63b8ff" points="1489.51,-7.76 1479.41,-10.99 1489.31,-14.76 1489.51,-7.76"/>
</a>
</g>
</g>
<!-- Node25 -->
<g id="Node000025" class="node">
<title>Node25</title>
<g id="a_Node000025"><a xlink:title=" ">
<polygon fill="#e0e0e0" stroke="#999999" points="1592.12,-74.5 1483.88,-74.5 1483.88,-55.25 1592.12,-55.25 1592.12,-74.5"/>
<text text-anchor="middle" x="1538" y="-61" font-family="Helvetica,sans-Serif" font-size="10.00">boost/multi_array.hpp</text>
</a>
</g>
</g>
<!-- Node18&#45;&gt;Node25 -->
<g id="edge27_Node000018_Node000025" class="edge">
<title>Node18&#45;&gt;Node25</title>
<g id="a_edge27_Node000018_Node000025"><a xlink:title=" ">
<path fill="none" stroke="#63b8ff" d="M1659.23,-110.09C1635.74,-101.52 1600.19,-88.56 1573.65,-78.88"/>
<polygon fill="#63b8ff" stroke="#63b8ff" points="1574.9,-75.61 1564.31,-75.47 1572.51,-82.19 1574.9,-75.61"/>
</a>
</g>
</g>
<!-- Node26 -->
<g id="Node000026" class="node">
<title>Node26</title>
<g id="a_Node000026"><a xlink:href="_types_8hpp.html" target="_top" xlink:title=" ">
<polygon fill="white" stroke="#666666" points="1280.5,-74.5 1219.5,-74.5 1219.5,-55.25 1280.5,-55.25 1280.5,-74.5"/>
<text text-anchor="middle" x="1250" y="-61" font-family="Helvetica,sans-Serif" font-size="10.00">Types.hpp</text>
</a>
</g>
</g>
<!-- Node18&#45;&gt;Node26 -->
<g id="edge28_Node000018_Node000026" class="edge">
<title>Node18&#45;&gt;Node26</title>
<g id="a_edge28_Node000018_Node000026"><a xlink:title=" ">
<path fill="none" stroke="#63b8ff" d="M1644.69,-115.22C1562.8,-106.99 1375.2,-87.69 1291.88,-74.78"/>
<polygon fill="#63b8ff" stroke="#63b8ff" points="1292.52,-71.34 1282.09,-73.2 1291.41,-78.25 1292.52,-71.34"/>
</a>
</g>
</g>
<!-- Node26&#45;&gt;Node24 -->
<g id="edge30_Node000026_Node000024" class="edge">
<title>Node26&#45;&gt;Node24</title>
<g id="a_edge30_Node000026_Node000024"><a xlink:title=" ">
<path fill="none" stroke="#63b8ff" d="M1280.84,-55.9C1319.07,-46.02 1383.94,-29.25 1423.1,-19.13"/>
<polygon fill="#63b8ff" stroke="#63b8ff" points="1423.86,-22.55 1432.66,-16.66 1422.11,-15.77 1423.86,-22.55"/>
</a>
</g>
</g>
<!-- Node27 -->
<g id="Node000027" class="node">
<title>Node27</title>
<g id="a_Node000027"><a xlink:title=" ">
<polygon fill="#e0e0e0" stroke="#999999" points="1274.12,-19.25 1225.88,-19.25 1225.88,0 1274.12,0 1274.12,-19.25"/>
<text text-anchor="middle" x="1250" y="-5.75" font-family="Helvetica,sans-Serif" font-size="10.00">cstddef</text>
</a>
</g>
</g>
<!-- Node26&#45;&gt;Node27 -->
<g id="edge29_Node000026_Node000027" class="edge">
<title>Node26&#45;&gt;Node27</title>
<g id="a_edge29_Node000026_Node000027"><a xlink:title=" ">
<path fill="none" stroke="#63b8ff" d="M1250,-55.08C1250,-48.57 1250,-39.42 1250,-31.12"/>
<polygon fill="#63b8ff" stroke="#63b8ff" points="1253.5,-31.12 1250,-21.12 1246.5,-31.12 1253.5,-31.12"/>
</a>
</g>
</g>
<!-- Node28&#45;&gt;Node2 -->
<g id="edge34_Node000028_Node000002" class="edge">
<title>Node28&#45;&gt;Node2</title>
<g id="a_edge34_Node000028_Node000002"><a xlink:title=" ">
<path fill="none" stroke="#63b8ff" d="M1490.34,-170.93C1481.78,-168.96 1472.6,-167.07 1464,-165.75 956.71,-87.66 329.25,-69.71 183.32,-66.49"/>
<polygon fill="#63b8ff" stroke="#63b8ff" points="183.76,-63 173.68,-66.28 183.61,-69.99 183.76,-63"/>
</a>
</g>
</g>
<!-- Node28&#45;&gt;Node18 -->
<g id="edge37_Node000028_Node000018" class="edge">
<title>Node28&#45;&gt;Node18</title>
<g id="a_edge37_Node000028_Node000018"><a xlink:title=" ">
<path fill="none" stroke="#63b8ff" d="M1549.5,-170.93C1576.11,-161.08 1618.84,-145.25 1648.99,-134.09"/>
<polygon fill="#63b8ff" stroke="#63b8ff" points="1649.9,-137.49 1658.06,-130.73 1647.46,-130.92 1649.9,-137.49"/>
</a>
</g>
</g>
<!-- Node28&#45;&gt;Node20 -->
<g id="edge32_Node000028_Node000020" class="edge">
<title>Node28&#45;&gt;Node20</title>
<g id="a_edge32_Node000028_Node000020"><a xlink:title=" ">
<path fill="none" stroke="#63b8ff" d="M1516.93,-171.17C1503.32,-156.74 1474.43,-127.97 1445,-110.5 1419.26,-95.22 1387.39,-83.67 1362.97,-76.15"/>
<polygon fill="#63b8ff" stroke="#63b8ff" points="1364.01,-72.81 1353.43,-73.31 1362.02,-79.52 1364.01,-72.81"/>
</a>
</g>
</g>
<!-- Node28&#45;&gt;Node21 -->
<g id="edge33_Node000028_Node000021" class="edge">
<title>Node28&#45;&gt;Node21</title>
<g id="a_edge33_Node000028_Node000021"><a xlink:title=" ">
<path fill="none" stroke="#63b8ff" d="M1577.24,-176.12C1621.22,-170.88 1684.39,-158.58 1732,-129.75 1750.68,-118.44 1766.48,-98.84 1776.49,-84.33"/>
<polygon fill="#63b8ff" stroke="#63b8ff" points="1779.32,-86.4 1781.88,-76.12 1773.47,-82.56 1779.32,-86.4"/>
</a>
</g>
</g>
<!-- Node28&#45;&gt;Node26 -->
<g id="edge36_Node000028_Node000026" class="edge">
<title>Node28&#45;&gt;Node26</title>
<g id="a_edge36_Node000028_Node000026"><a xlink:title=" ">
<path fill="none" stroke="#63b8ff" d="M1510.59,-170.99C1481.31,-152.7 1417.2,-112.76 1412,-110.5 1390.53,-101.16 1332.28,-85.99 1291.83,-75.97"/>
<polygon fill="#63b8ff" stroke="#63b8ff" points="1292.69,-72.58 1282.15,-73.59 1291.02,-79.38 1292.69,-72.58"/>
</a>
</g>
</g>
<!-- Node29 -->
<g id="Node000029" class="node">
<title>Node29</title>
<g id="a_Node000029"><a xlink:title=" ">
<polygon fill="#e0e0e0" stroke="#999999" points="1403,-129.75 1333,-129.75 1333,-110.5 1403,-110.5 1403,-129.75"/>
<text text-anchor="middle" x="1368" y="-116.25" font-family="Helvetica,sans-Serif" font-size="10.00">H5Opublic.h</text>
</a>
</g>
</g>
<!-- Node28&#45;&gt;Node29 -->
<g id="edge35_Node000028_Node000029" class="edge">
<title>Node28&#45;&gt;Node29</title>
<g id="a_edge35_Node000028_Node000029"><a xlink:title=" ">
<path fill="none" stroke="#63b8ff" d="M1500.81,-170.93C1474.65,-161.12 1432.71,-145.39 1402.96,-134.23"/>
<polygon fill="#63b8ff" stroke="#63b8ff" points="1404.22,-130.97 1393.63,-130.74 1401.77,-137.53 1404.22,-130.97"/>
</a>
</g>
</g>
<!-- Node28&#45;&gt;Node30 -->
<g id="edge38_Node000028_Node000030" class="edge">
<title>Node28&#45;&gt;Node30</title>
<g id="a_edge38_Node000028_Node000030"><a xlink:title=" ">
<path fill="none" stroke="#63b8ff" d="M1526.82,-171.06C1528.43,-163.19 1530.82,-151.45 1532.88,-141.32"/>
<polygon fill="#63b8ff" stroke="#63b8ff" points="1536.29,-142.13 1534.86,-131.63 1529.43,-140.73 1536.29,-142.13"/>
</a>
</g>
</g>
<!-- Node30&#45;&gt;Node2 -->
<g id="edge43_Node000030_Node000002" class="edge">
<title>Node30&#45;&gt;Node2</title>
<g id="a_edge43_Node000030_Node000002"><a xlink:title=" ">
<path fill="none" stroke="#63b8ff" d="M1497.05,-116.03C1472.52,-114.21 1440.46,-111.99 1412,-110.5 922.95,-84.97 326.35,-69.98 183.7,-66.61"/>
<polygon fill="#63b8ff" stroke="#63b8ff" points="184,-63.11 173.92,-66.38 183.83,-70.11 184,-63.11"/>
</a>
</g>
</g>
<!-- Node30&#45;&gt;Node7 -->
<g id="edge40_Node000030_Node000007" class="edge">
<title>Node30&#45;&gt;Node7</title>
<g id="a_edge40_Node000030_Node000007"><a xlink:title=" ">
<path fill="none" stroke="#63b8ff" d="M1561.77,-110.09C1585.83,-101.32 1622.54,-87.93 1649.27,-78.18"/>
<polygon fill="#63b8ff" stroke="#63b8ff" points="1650.42,-81.48 1658.62,-74.77 1648.02,-74.91 1650.42,-81.48"/>
</a>
</g>
</g>
<!-- Node30&#45;&gt;Node19 -->
<g id="edge39_Node000030_Node000019" class="edge">
<title>Node30&#45;&gt;Node19</title>
<g id="a_edge39_Node000030_Node000019"><a xlink:title=" ">
<path fill="none" stroke="#63b8ff" d="M1552.1,-110.09C1565.52,-102.06 1585.41,-90.16 1601.17,-80.73"/>
<polygon fill="#63b8ff" stroke="#63b8ff" points="1602.75,-83.87 1609.53,-75.73 1599.15,-77.86 1602.75,-83.87"/>
</a>
</g>
</g>
<!-- Node30&#45;&gt;Node20 -->
<g id="edge41_Node000030_Node000020" class="edge">
<title>Node30&#45;&gt;Node20</title>
<g id="a_edge41_Node000030_Node000020"><a xlink:title=" ">
<path fill="none" stroke="#63b8ff" d="M1501.04,-110.09C1462.65,-100.45 1402.09,-85.24 1362.96,-75.41"/>
<polygon fill="#63b8ff" stroke="#63b8ff" points="1364.06,-72.08 1353.5,-73.03 1362.35,-78.87 1364.06,-72.08"/>
</a>
</g>
</g>
<!-- Node30&#45;&gt;Node21 -->
<g id="edge42_Node000030_Node000021" class="edge">
<title>Node30&#45;&gt;Node21</title>
<g id="a_edge42_Node000030_Node000021"><a xlink:title=" ">
<path fill="none" stroke="#63b8ff" d="M1576.77,-110.69C1624.69,-100.52 1704.54,-83.58 1751.12,-73.7"/>
<polygon fill="#63b8ff" stroke="#63b8ff" points="1751.67,-77.16 1760.73,-71.66 1750.22,-70.31 1751.67,-77.16"/>
</a>
</g>
</g>
<!-- Node30&#45;&gt;Node24 -->
<g id="edge45_Node000030_Node000024" class="edge">
<title>Node30&#45;&gt;Node24</title>
<g id="a_edge45_Node000030_Node000024"><a xlink:title=" ">
<path fill="none" stroke="#63b8ff" d="M1518.42,-110.07C1504.55,-102.41 1486.14,-90.17 1475,-74.5 1465.86,-61.64 1461.06,-44.35 1458.58,-31"/>
<polygon fill="#63b8ff" stroke="#63b8ff" points="1462.05,-30.53 1457.07,-21.18 1455.13,-31.6 1462.05,-30.53"/>
</a>
</g>
</g>
<!-- Node30&#45;&gt;Node25 -->
<g id="edge46_Node000030_Node000025" class="edge">
<title>Node30&#45;&gt;Node25</title>
<g id="a_edge46_Node000030_Node000025"><a xlink:title=" ">
<path fill="none" stroke="#63b8ff" d="M1537.17,-110.33C1537.29,-103.82 1537.46,-94.67 1537.62,-86.37"/>
<polygon fill="#63b8ff" stroke="#63b8ff" points="1541.11,-86.44 1537.8,-76.37 1534.12,-86.3 1541.11,-86.44"/>
</a>
</g>
</g>
<!-- Node30&#45;&gt;Node26 -->
<g id="edge47_Node000030_Node000026" class="edge">
<title>Node30&#45;&gt;Node26</title>
<g id="a_edge47_Node000030_Node000026"><a xlink:title=" ">
<path fill="none" stroke="#63b8ff" d="M1497.39,-112.5C1450.56,-104.55 1370,-90.54 1291.67,-74.98"/>
<polygon fill="#63b8ff" stroke="#63b8ff" points="1292.61,-71.59 1282.12,-73.07 1291.24,-78.46 1292.61,-71.59"/>
</a>
</g>
</g>
<!-- Node31 -->
<g id="Node000031" class="node">
<title>Node31</title>
<g id="a_Node000031"><a xlink:title=" ">
<polygon fill="#e0e0e0" stroke="#999999" points="1428,-74.5 1370,-74.5 1370,-55.25 1428,-55.25 1428,-74.5"/>
<text text-anchor="middle" x="1399" y="-61" font-family="Helvetica,sans-Serif" font-size="10.00">typeindex</text>
</a>
</g>
</g>
<!-- Node30&#45;&gt;Node31 -->
<g id="edge44_Node000030_Node000031" class="edge">
<title>Node30&#45;&gt;Node31</title>
<g id="a_edge44_Node000030_Node000031"><a xlink:title=" ">
<path fill="none" stroke="#63b8ff" d="M1513.59,-110.09C1491.48,-101.56 1458.08,-88.67 1433.03,-79.01"/>
<polygon fill="#63b8ff" stroke="#63b8ff" points="1434.53,-75.83 1423.94,-75.5 1432.01,-82.36 1434.53,-75.83"/>
</a>
</g>
</g>
<!-- Node32&#45;&gt;Node2 -->
<g id="edge52_Node000032_Node000002" class="edge">
<title>Node32&#45;&gt;Node2</title>
<g id="a_edge52_Node000032_Node000002"><a xlink:title=" ">
<path fill="none" stroke="#63b8ff" d="M1614.03,-349.47C1332.36,-341.7 325.14,-310.05 195,-251.5 163.11,-237.16 153.45,-228.09 139,-196.25 123.23,-161.51 128.09,-148.02 135,-110.5 136.57,-101.95 139.71,-92.91 142.87,-85.22"/>
<polygon fill="#63b8ff" stroke="#63b8ff" points="146.01,-86.77 146.86,-76.21 139.61,-83.93 146.01,-86.77"/>
</a>
</g>
</g>
<!-- Node32&#45;&gt;Node21 -->
<g id="edge51_Node000032_Node000021" class="edge">
<title>Node32&#45;&gt;Node21</title>
<g id="a_edge51_Node000032_Node000021"><a xlink:title=" ">
<path fill="none" stroke="#63b8ff" d="M1721.6,-342.26C1764.77,-328.55 1833,-298.14 1833,-242.88 1833,-242.88 1833,-242.88 1833,-180 1833,-144.29 1813.7,-106.4 1800.37,-84.5"/>
<polygon fill="#63b8ff" stroke="#63b8ff" points="1803.38,-82.71 1795.07,-76.14 1797.47,-86.46 1803.38,-82.71"/>
</a>
</g>
</g>
<!-- Node33 -->
<g id="Node000033" class="node">
<title>Node33</title>
<g id="a_Node000033"><a xlink:href="_registered_type_8hpp.html" target="_top" xlink:title=" ">
<polygon fill="white" stroke="#666666" points="1762,-306.75 1638,-306.75 1638,-287.5 1762,-287.5 1762,-306.75"/>
<text text-anchor="middle" x="1700" y="-293.25" font-family="Helvetica,sans-Serif" font-size="10.00">nwb/RegisteredType.hpp</text>
</a>
</g>
</g>
<!-- Node32&#45;&gt;Node33 -->
<g id="edge53_Node000032_Node000033" class="edge">
<title>Node32&#45;&gt;Node33</title>
<g id="a_edge53_Node000032_Node000033"><a xlink:title=" ">
<path fill="none" stroke="#63b8ff" d="M1689.15,-342.58C1690.77,-335.92 1693.08,-326.49 1695.14,-318.03"/>
<polygon fill="#63b8ff" stroke="#63b8ff" points="1698.48,-319.12 1697.45,-308.58 1691.68,-317.46 1698.48,-319.12"/>
</a>
</g>
</g>
<!-- Node33&#45;&gt;Node2 -->
<g id="edge56_Node000033_Node000002" class="edge">
<title>Node33&#45;&gt;Node2</title>
<g id="a_edge56_Node000033_Node000002"><a xlink:title=" ">
<path fill="none" stroke="#63b8ff" d="M1637.83,-288.62C1633.15,-288.2 1628.5,-287.81 1624,-287.5 1471.87,-276.89 398.41,-294.16 252,-251.5 206.21,-238.16 189.02,-234.1 160,-196.25 136.25,-165.27 136.29,-149.25 141,-110.5 141.99,-102.38 143.94,-93.62 145.94,-86.02"/>
<polygon fill="#63b8ff" stroke="#63b8ff" points="149.29,-87.02 148.65,-76.44 142.56,-85.11 149.29,-87.02"/>
</a>
</g>
</g>
<!-- Node33&#45;&gt;Node3 -->
<g id="edge60_Node000033_Node000003" class="edge">
<title>Node33&#45;&gt;Node3</title>
<g id="a_edge60_Node000033_Node000003"><a xlink:title=" ">
<path fill="none" stroke="#63b8ff" d="M1637.81,-288.83C1633.14,-288.36 1628.5,-287.91 1624,-287.5 1389.19,-266.24 1106.46,-250.34 1004.25,-244.91"/>
<polygon fill="#63b8ff" stroke="#63b8ff" points="1004.66,-241.43 994.49,-244.39 1004.29,-248.42 1004.66,-241.43"/>
</a>
</g>
</g>
<!-- Node33&#45;&gt;Node18 -->
<g id="edge61_Node000033_Node000018" class="edge">
<title>Node33&#45;&gt;Node18</title>
<g id="a_edge61_Node000033_Node000018"><a xlink:title=" ">
<path fill="none" stroke="#63b8ff" d="M1711.07,-287.2C1720.26,-279.03 1732.66,-266.02 1738,-251.5 1740.96,-243.47 1739.92,-240.59 1738,-232.25 1730.01,-197.54 1709.67,-161.1 1696.36,-139.78"/>
<polygon fill="#63b8ff" stroke="#63b8ff" points="1699.31,-137.9 1690.96,-131.38 1693.42,-141.68 1699.31,-137.9"/>
</a>
</g>
</g>
<!-- Node33&#45;&gt;Node21 -->
<g id="edge55_Node000033_Node000021" class="edge">
<title>Node33&#45;&gt;Node21</title>
<g id="a_edge55_Node000033_Node000021"><a xlink:title=" ">
<path fill="none" stroke="#63b8ff" d="M1715.55,-287.21C1727.71,-279.39 1744.02,-266.87 1753,-251.5 1784.38,-197.78 1788.47,-121.75 1788.49,-85.97"/>
<polygon fill="#63b8ff" stroke="#63b8ff" points="1791.99,-86.19 1788.37,-76.24 1784.99,-86.28 1791.99,-86.19"/>
</a>
</g>
</g>
<!-- Node33&#45;&gt;Node22 -->
<g id="edge57_Node000033_Node000022" class="edge">
<title>Node33&#45;&gt;Node22</title>
<g id="a_edge57_Node000033_Node000022"><a xlink:title=" ">
<path fill="none" stroke="#63b8ff" d="M1719.74,-287.07C1735.26,-279.25 1756.73,-266.81 1772,-251.5 1821.81,-201.55 1853.77,-121.93 1866.6,-85.38"/>
<polygon fill="#63b8ff" stroke="#63b8ff" points="1869.82,-86.76 1869.73,-76.17 1863.2,-84.51 1869.82,-86.76"/>
</a>
</g>
</g>
<!-- Node33&#45;&gt;Node23 -->
<g id="edge58_Node000033_Node000023" class="edge">
<title>Node33&#45;&gt;Node23</title>
<g id="a_edge58_Node000033_Node000023"><a xlink:title=" ">
<path fill="none" stroke="#63b8ff" d="M1725.31,-287.05C1745.06,-279.3 1772.63,-266.96 1794,-251.5 1864.58,-200.45 1930.64,-119.04 1957.88,-83.47"/>
<polygon fill="#63b8ff" stroke="#63b8ff" points="1960.35,-86.01 1963.59,-75.92 1954.77,-81.78 1960.35,-86.01"/>
</a>
</g>
</g>
<!-- Node33&#45;&gt;Node26 -->
<g id="edge59_Node000033_Node000026" class="edge">
<title>Node33&#45;&gt;Node26</title>
<g id="a_edge59_Node000033_Node000026"><a xlink:title=" ">
<path fill="none" stroke="#63b8ff" d="M1637.82,-288.75C1633.14,-288.3 1628.5,-287.87 1624,-287.5 1462.79,-274.2 281.14,-314.72 171,-196.25 161.77,-186.32 161.87,-175.77 171,-165.75 242.08,-87.79 1017.02,-69.77 1207.77,-66.5"/>
<polygon fill="#63b8ff" stroke="#63b8ff" points="1207.77,-70 1217.71,-66.34 1207.65,-63 1207.77,-70"/>
</a>
</g>
</g>
<!-- Node33&#45;&gt;Node30 -->
<g id="edge62_Node000033_Node000030" class="edge">
<title>Node33&#45;&gt;Node30</title>
<g id="a_edge62_Node000033_Node000030"><a xlink:title=" ">
<path fill="none" stroke="#63b8ff" d="M1689.13,-287.12C1680.08,-278.89 1667.76,-265.85 1662,-251.5 1647.78,-216.07 1679.69,-196.45 1657,-165.75 1640.9,-143.97 1612.95,-132.82 1588.07,-127.1"/>
<polygon fill="#63b8ff" stroke="#63b8ff" points="1588.88,-123.7 1578.39,-125.14 1587.49,-130.56 1588.88,-123.7"/>
</a>
</g>
</g>
<!-- Node34 -->
<g id="Node000034" class="node">
<title>Node34</title>
<g id="a_Node000034"><a xlink:title=" ">
<polygon fill="#e0e0e0" stroke="#999999" points="1729,-251.5 1671,-251.5 1671,-232.25 1729,-232.25 1729,-251.5"/>
<text text-anchor="middle" x="1700" y="-238" font-family="Helvetica,sans-Serif" font-size="10.00">functional</text>
</a>
</g>
</g>
<!-- Node33&#45;&gt;Node34 -->
<g id="edge54_Node000033_Node000034" class="edge">
<title>Node33&#45;&gt;Node34</title>
<g id="a_edge54_Node000033_Node000034"><a xlink:title=" ">
<path fill="none" stroke="#63b8ff" d="M1700,-287.33C1700,-280.82 1700,-271.67 1700,-263.37"/>
<polygon fill="#63b8ff" stroke="#63b8ff" points="1703.5,-263.37 1700,-253.37 1696.5,-263.37 1703.5,-263.37"/>
</a>
</g>
</g>
</g>
</svg>

<g id="navigator" transform="translate(0 0)" fill="#404254">
  <rect fill="#f2f5e9" fill-opacity="0.5" stroke="#606060" stroke-width=".5" x="0" y="0" width="60" height="60"/>
  <use id="zoomplus" xlink:href="#zoomPlus" x="17" y="9" onmousedown="handleZoom(evt,'in')"/>
  <use id="zoomminus" xlink:href="#zoomMin" x="42" y="9" onmousedown="handleZoom(evt,'out')"/>
  <use id="reset" xlink:href="#resetDef" x="30" y="36" onmousedown="handleReset()"/>
   <use id="arrowup" xlink:href="#arrowUp" x="0" y="0" onmousedown="handlePan(0,-1)"/>
  <use id="arrowright" xlink:href="#arrowRight" x="0" y="0" onmousedown="handlePan(1,0)"/>
  <use id="arrowdown" xlink:href="#arrowDown" x="0" y="0" onmousedown="handlePan(0,1)"/>
  <use id="arrowleft" xlink:href="#arrowLeft" x="0" y="0" onmousedown="handlePan(-1,0)"/>
</g>
<svg viewBox="0 0 15 15" width="100%" height="30px" preserveAspectRatio="xMaxYMin meet">
 <g id="arrow_out" transform="scale(0.3 0.3)">
  <a xlink:href="_device_8hpp__incl_org.svg" target="_base">
   <rect id="button" ry="5" rx="5" y="6" x="6" height="38" width="38"
        fill="#f2f5e9" fill-opacity="0.5" stroke="#606060" stroke-width="1.0"/>
   <path id="arrow"
     d="M 11.500037,31.436501 C 11.940474,20.09759 22.043105,11.32322 32.158766,21.979434 L 37.068811,17.246167 C 37.068811,17.246167 37.088388,32 37.088388,32 L 22.160133,31.978069 C 22.160133,31.978069 26.997745,27.140456 26.997745,27.140456 C 18.528582,18.264221 13.291696,25.230495 11.500037,31.436501 z"
     style="fill:#404040;"/>
  </a>
 </g>
</svg>

<style type='text/css'>
<![CDATA[
[data-mouse-over-selected='false'] { opacity: 0.7; }
[data-mouse-over-selected='true']  { opacity: 1.0; }
]]>
</style>
<script type="application/ecmascript"><![CDATA[
document.addEventListener('DOMContentLoaded', (event) => {
  highlightEdges();
  highlightAdjacentNodes();
});
]]></script>
</svg>
