<?xml version="1.0" encoding="UTF-8" standalone="no"?>
<!DOCTYPE svg PUBLIC "-//W3C//DTD SVG 1.1//EN"
 "http://www.w3.org/Graphics/SVG/1.1/DTD/svg11.dtd">
<!-- Generated by graphviz version 13.1.0 (20250701.0955)
 -->
<!-- Title: src/nwb/device/Device.cpp Pages: 1 -->
<svg width="1991pt" height="536pt"
 viewBox="0.00 0.00 1991.00 536.00" xmlns="http://www.w3.org/2000/svg" xmlns:xlink="http://www.w3.org/1999/xlink">
<g id="graph0" class="graph" transform="scale(1 1) rotate(0) translate(4 531.75)">
<title>src/nwb/device/Device.cpp</title>
<!-- Node1 -->
<g id="Node000001" class="node">
<title>Node1</title>
<g id="a_Node000001"><a xlink:title=" ">
<polygon fill="#999999" stroke="#666666" points="937.25,-527.75 802.75,-527.75 802.75,-508.5 937.25,-508.5 937.25,-527.75"/>
<text xml:space="preserve" text-anchor="middle" x="870" y="-514.25" font-family="Helvetica,sans-Serif" font-size="10.00">src/nwb/device/Device.cpp</text>
</a>
</g>
</g>
<!-- Node2 -->
<g id="Node000002" class="node">
<title>Node2</title>
<g id="a_Node000002"><a xlink:href="_device_8hpp.html" target="_top" xlink:title=" ">
<polygon fill="white" stroke="#666666" points="929,-472.5 811,-472.5 811,-453.25 929,-453.25 929,-472.5"/>
<text xml:space="preserve" text-anchor="middle" x="870" y="-459" font-family="Helvetica,sans-Serif" font-size="10.00">nwb/device/Device.hpp</text>
</a>
</g>
</g>
<!-- Node1&#45;&gt;Node2 -->
<g id="edge1_Node000001_Node000002" class="edge">
<title>Node1&#45;&gt;Node2</title>
<g id="a_edge1_Node000001_Node000002"><a xlink:title=" ">
<path fill="none" stroke="#63b8ff" d="M870,-508.33C870,-501.82 870,-492.67 870,-484.37"/>
<polygon fill="#63b8ff" stroke="#63b8ff" points="873.5,-484.37 870,-474.37 866.5,-484.37 873.5,-484.37"/>
</a>
</g>
</g>
<!-- Node3 -->
<g id="Node000003" class="node">
<title>Node3</title>
<g id="a_Node000003"><a xlink:title=" ">
<polygon fill="#e0e0e0" stroke="#999999" points="1889,-74.5 1849,-74.5 1849,-55.25 1889,-55.25 1889,-74.5"/>
<text xml:space="preserve" text-anchor="middle" x="1869" y="-61" font-family="Helvetica,sans-Serif" font-size="10.00">string</text>
</a>
</g>
</g>
<!-- Node2&#45;&gt;Node3 -->
<g id="edge2_Node000002_Node000003" class="edge">
<title>Node2&#45;&gt;Node3</title>
<g id="a_edge2_Node000002_Node000003"><a xlink:title=" ">
<path fill="none" stroke="#63b8ff" d="M929.23,-462.32C1113.68,-463.22 1675.98,-462.11 1852,-417.25 1914.77,-401.25 1983,-418.15 1983,-353.38 1983,-353.38 1983,-353.38 1983,-174.38 1983,-128.27 1933.47,-95.81 1899.71,-79.03"/>
<polygon fill="#63b8ff" stroke="#63b8ff" points="1901.28,-75.9 1890.75,-74.79 1898.29,-82.23 1901.28,-75.9"/>
</a>
</g>
</g>
<!-- Node4 -->
<g id="Node000004" class="node">
<title>Node4</title>
<g id="a_Node000004"><a xlink:href="_utils_8hpp.html" target="_top" xlink:title=" ">
<polygon fill="white" stroke="#666666" points="897.5,-306.75 842.5,-306.75 842.5,-287.5 897.5,-287.5 897.5,-306.75"/>
<text xml:space="preserve" text-anchor="middle" x="870" y="-293.25" font-family="Helvetica,sans-Serif" font-size="10.00">Utils.hpp</text>
</a>
</g>
</g>
<!-- Node2&#45;&gt;Node4 -->
<g id="edge3_Node000002_Node000004" class="edge">
<title>Node2&#45;&gt;Node4</title>
<g id="a_edge3_Node000002_Node000004"><a xlink:title=" ">
<path fill="none" stroke="#63b8ff" d="M870,-453.07C870,-427.75 870,-354.25 870,-318.34"/>
<polygon fill="#63b8ff" stroke="#63b8ff" points="873.5,-318.49 870,-308.49 866.5,-318.49 873.5,-318.49"/>
</a>
</g>
</g>
<!-- Node19 -->
<g id="Node000019" class="node">
<title>Node19</title>
<g id="a_Node000019"><a xlink:href="_base_i_o_8hpp.html" target="_top" xlink:title=" ">
<polygon fill="white" stroke="#666666" points="861.12,-129.75 782.88,-129.75 782.88,-110.5 861.12,-110.5 861.12,-129.75"/>
<text xml:space="preserve" text-anchor="middle" x="822" y="-116.25" font-family="Helvetica,sans-Serif" font-size="10.00">io/BaseIO.hpp</text>
</a>
</g>
</g>
<!-- Node2&#45;&gt;Node19 -->
<g id="edge52_Node000002_Node000019" class="edge">
<title>Node2&#45;&gt;Node19</title>
<g id="a_edge52_Node000002_Node000019"><a xlink:title=" ">
<path fill="none" stroke="#63b8ff" d="M810.65,-460C626.31,-453.41 76,-427.5 76,-353.38 76,-353.38 76,-353.38 76,-296.12 76,-254.21 96.24,-241.14 133,-221 220.21,-173.23 480.98,-201.7 579,-185 652.25,-172.52 735.61,-148.37 783.19,-133.6"/>
<polygon fill="#63b8ff" stroke="#63b8ff" points="783.98,-137.02 792.48,-130.69 781.89,-130.34 783.98,-137.02"/>
</a>
</g>
</g>
<!-- Node33 -->
<g id="Node000033" class="node">
<title>Node33</title>
<g id="a_Node000033"><a xlink:href="_read_i_o_8hpp.html" target="_top" xlink:title=" ">
<polygon fill="white" stroke="#666666" points="570.5,-185 491.5,-185 491.5,-165.75 570.5,-165.75 570.5,-185"/>
<text xml:space="preserve" text-anchor="middle" x="531" y="-171.5" font-family="Helvetica,sans-Serif" font-size="10.00">io/ReadIO.hpp</text>
</a>
</g>
</g>
<!-- Node2&#45;&gt;Node33 -->
<g id="edge53_Node000002_Node000033" class="edge">
<title>Node2&#45;&gt;Node33</title>
<g id="a_edge53_Node000002_Node000033"><a xlink:title=" ">
<path fill="none" stroke="#63b8ff" d="M810.75,-461.08C635.81,-458.4 129.51,-448.03 62,-417.25 26,-400.84 0,-392.94 0,-353.38 0,-353.38 0,-353.38 0,-296.12 0,-198.43 346.38,-180.43 479.62,-177.12"/>
<polygon fill="#63b8ff" stroke="#63b8ff" points="479.66,-180.62 489.58,-176.89 479.5,-173.62 479.66,-180.62"/>
</a>
</g>
</g>
<!-- Node34 -->
<g id="Node000034" class="node">
<title>Node34</title>
<g id="a_Node000034"><a xlink:href="_container_8hpp.html" target="_top" xlink:title=" ">
<polygon fill="white" stroke="#666666" points="1842.88,-417.25 1697.12,-417.25 1697.12,-398 1842.88,-398 1842.88,-417.25"/>
<text xml:space="preserve" text-anchor="middle" x="1770" y="-403.75" font-family="Helvetica,sans-Serif" font-size="10.00">nwb/hdmf/base/Container.hpp</text>
</a>
</g>
</g>
<!-- Node2&#45;&gt;Node34 -->
<g id="edge54_Node000002_Node000034" class="edge">
<title>Node2&#45;&gt;Node34</title>
<g id="a_edge54_Node000002_Node000034"><a xlink:title=" ">
<path fill="none" stroke="#63b8ff" d="M929.4,-458.36C1084.95,-449.16 1504.64,-424.33 1685.35,-413.63"/>
<polygon fill="#63b8ff" stroke="#63b8ff" points="1685.36,-417.14 1695.13,-413.05 1684.94,-410.15 1685.36,-417.14"/>
</a>
</g>
</g>
<!-- Node4&#45;&gt;Node3 -->
<g id="edge12_Node000004_Node000003" class="edge">
<title>Node4&#45;&gt;Node3</title>
<g id="a_edge12_Node000004_Node000003"><a xlink:title=" ">
<path fill="none" stroke="#63b8ff" d="M897.98,-296.28C1013.71,-296.64 1454.96,-295.06 1586,-251.5 1698.49,-214.11 1809.43,-120.37 1851.41,-82.32"/>
<polygon fill="#63b8ff" stroke="#63b8ff" points="1853.61,-85.05 1858.61,-75.71 1848.87,-79.89 1853.61,-85.05"/>
</a>
</g>
</g>
<!-- Node5 -->
<g id="Node000005" class="node">
<title>Node5</title>
<g id="a_Node000005"><a xlink:title=" ">
<polygon fill="#e0e0e0" stroke="#999999" points="637.88,-245.88 582.12,-245.88 582.12,-226.62 637.88,-226.62 637.88,-245.88"/>
<text xml:space="preserve" text-anchor="middle" x="610" y="-232.38" font-family="Helvetica,sans-Serif" font-size="10.00">algorithm</text>
</a>
</g>
</g>
<!-- Node4&#45;&gt;Node5 -->
<g id="edge4_Node000004_Node000005" class="edge">
<title>Node4&#45;&gt;Node5</title>
<g id="a_edge4_Node000004_Node000005"><a xlink:title=" ">
<path fill="none" stroke="#63b8ff" d="M842.17,-292.12C799.61,-285.64 716.01,-271.54 647,-251.5 645.43,-251.04 643.83,-250.55 642.23,-250.03"/>
<polygon fill="#63b8ff" stroke="#63b8ff" points="643.72,-246.85 633.13,-246.82 641.39,-253.45 643.72,-246.85"/>
</a>
</g>
</g>
<!-- Node6 -->
<g id="Node000006" class="node">
<title>Node6</title>
<g id="a_Node000006"><a xlink:title=" ">
<polygon fill="#e0e0e0" stroke="#999999" points="701.62,-245.88 656.38,-245.88 656.38,-226.62 701.62,-226.62 701.62,-245.88"/>
<text xml:space="preserve" text-anchor="middle" x="679" y="-232.38" font-family="Helvetica,sans-Serif" font-size="10.00">chrono</text>
</a>
</g>
</g>
<!-- Node4&#45;&gt;Node6 -->
<g id="edge5_Node000004_Node000006" class="edge">
<title>Node4&#45;&gt;Node6</title>
<g id="a_edge5_Node000004_Node000006"><a xlink:title=" ">
<path fill="none" stroke="#63b8ff" d="M842.12,-289.77C809.85,-282.1 755.35,-268.13 710,-251.5 709.36,-251.26 708.71,-251.02 708.06,-250.77"/>
<polygon fill="#63b8ff" stroke="#63b8ff" points="709.46,-247.56 698.88,-246.91 706.74,-254.02 709.46,-247.56"/>
</a>
</g>
</g>
<!-- Node7 -->
<g id="Node000007" class="node">
<title>Node7</title>
<g id="a_Node000007"><a xlink:title=" ">
<polygon fill="#e0e0e0" stroke="#999999" points="762.5,-245.88 719.5,-245.88 719.5,-226.62 762.5,-226.62 762.5,-245.88"/>
<text xml:space="preserve" text-anchor="middle" x="741" y="-232.38" font-family="Helvetica,sans-Serif" font-size="10.00">cmath</text>
</a>
</g>
</g>
<!-- Node4&#45;&gt;Node7 -->
<g id="edge6_Node000004_Node000007" class="edge">
<title>Node4&#45;&gt;Node7</title>
<g id="a_edge6_Node000004_Node000007"><a xlink:title=" ">
<path fill="none" stroke="#63b8ff" d="M850.13,-287.05C829.04,-277.43 795.48,-262.12 771.14,-251.01"/>
<polygon fill="#63b8ff" stroke="#63b8ff" points="772.61,-247.83 762.06,-246.86 769.71,-254.2 772.61,-247.83"/>
</a>
</g>
</g>
<!-- Node8 -->
<g id="Node000008" class="node">
<title>Node8</title>
<g id="a_Node000008"><a xlink:title=" ">
<polygon fill="#e0e0e0" stroke="#999999" points="469.62,-74.5 424.38,-74.5 424.38,-55.25 469.62,-55.25 469.62,-74.5"/>
<text xml:space="preserve" text-anchor="middle" x="447" y="-61" font-family="Helvetica,sans-Serif" font-size="10.00">cstdint</text>
</a>
</g>
</g>
<!-- Node4&#45;&gt;Node8 -->
<g id="edge7_Node000004_Node000008" class="edge">
<title>Node4&#45;&gt;Node8</title>
<g id="a_edge7_Node000004_Node000008"><a xlink:title=" ">
<path fill="none" stroke="#63b8ff" d="M842.16,-295.5C710.75,-292.39 157.77,-277.81 133,-251.5 41.34,-154.13 314.54,-91.09 413.05,-72"/>
<polygon fill="#63b8ff" stroke="#63b8ff" points="413.5,-75.48 422.67,-70.17 412.19,-68.6 413.5,-75.48"/>
</a>
</g>
</g>
<!-- Node9 -->
<g id="Node000009" class="node">
<title>Node9</title>
<g id="a_Node000009"><a xlink:title=" ">
<polygon fill="#e0e0e0" stroke="#999999" points="859,-245.88 819,-245.88 819,-226.62 859,-226.62 859,-245.88"/>
<text xml:space="preserve" text-anchor="middle" x="839" y="-232.38" font-family="Helvetica,sans-Serif" font-size="10.00">ctime</text>
</a>
</g>
</g>
<!-- Node4&#45;&gt;Node9 -->
<g id="edge8_Node000004_Node000009" class="edge">
<title>Node4&#45;&gt;Node9</title>
<g id="a_edge8_Node000004_Node000009"><a xlink:title=" ">
<path fill="none" stroke="#63b8ff" d="M865.29,-287.18C861.01,-279.06 854.56,-266.79 849.11,-256.45"/>
<polygon fill="#63b8ff" stroke="#63b8ff" points="852.21,-254.83 844.46,-247.62 846.02,-258.09 852.21,-254.83"/>
</a>
</g>
</g>
<!-- Node10 -->
<g id="Node000010" class="node">
<title>Node10</title>
<g id="a_Node000010"><a xlink:title=" ">
<polygon fill="#e0e0e0" stroke="#999999" points="926.88,-245.88 877.12,-245.88 877.12,-226.62 926.88,-226.62 926.88,-245.88"/>
<text xml:space="preserve" text-anchor="middle" x="902" y="-232.38" font-family="Helvetica,sans-Serif" font-size="10.00">iomanip</text>
</a>
</g>
</g>
<!-- Node4&#45;&gt;Node10 -->
<g id="edge9_Node000004_Node000010" class="edge">
<title>Node4&#45;&gt;Node10</title>
<g id="a_edge9_Node000004_Node000010"><a xlink:title=" ">
<path fill="none" stroke="#63b8ff" d="M874.86,-287.18C879.32,-278.97 886.08,-266.53 891.74,-256.12"/>
<polygon fill="#63b8ff" stroke="#63b8ff" points="894.67,-258.06 896.37,-247.61 888.52,-254.72 894.67,-258.06"/>
</a>
</g>
</g>
<!-- Node11 -->
<g id="Node000011" class="node">
<title>Node11</title>
<g id="a_Node000011"><a xlink:title=" ">
<polygon fill="#e0e0e0" stroke="#999999" points="985,-245.88 945,-245.88 945,-226.62 985,-226.62 985,-245.88"/>
<text xml:space="preserve" text-anchor="middle" x="965" y="-232.38" font-family="Helvetica,sans-Serif" font-size="10.00">regex</text>
</a>
</g>
</g>
<!-- Node4&#45;&gt;Node11 -->
<g id="edge10_Node000004_Node000011" class="edge">
<title>Node4&#45;&gt;Node11</title>
<g id="a_edge10_Node000004_Node000011"><a xlink:title=" ">
<path fill="none" stroke="#63b8ff" d="M884.43,-287.18C899.35,-277.93 922.93,-263.32 940.73,-252.29"/>
<polygon fill="#63b8ff" stroke="#63b8ff" points="942.49,-255.32 949.15,-247.07 938.81,-249.37 942.49,-255.32"/>
</a>
</g>
</g>
<!-- Node12 -->
<g id="Node000012" class="node">
<title>Node12</title>
<g id="a_Node000012"><a xlink:title=" ">
<polygon fill="#e0e0e0" stroke="#999999" points="1054.62,-245.88 1003.38,-245.88 1003.38,-226.62 1054.62,-226.62 1054.62,-245.88"/>
<text xml:space="preserve" text-anchor="middle" x="1029" y="-232.38" font-family="Helvetica,sans-Serif" font-size="10.00">sstream</text>
</a>
</g>
</g>
<!-- Node4&#45;&gt;Node12 -->
<g id="edge11_Node000004_Node000012" class="edge">
<title>Node4&#45;&gt;Node12</title>
<g id="a_edge11_Node000004_Node000012"><a xlink:title=" ">
<path fill="none" stroke="#63b8ff" d="M896.24,-287.03C921.42,-278.23 960.46,-264.36 994,-251.5 994.94,-251.14 995.89,-250.77 996.85,-250.4"/>
<polygon fill="#63b8ff" stroke="#63b8ff" points="997.8,-253.79 1005.8,-246.84 995.22,-247.28 997.8,-253.79"/>
</a>
</g>
</g>
<!-- Node13 -->
<g id="Node000013" class="node">
<title>Node13</title>
<g id="a_Node000013"><a xlink:title=" ">
<polygon fill="#e0e0e0" stroke="#999999" points="1177.25,-245.88 1072.75,-245.88 1072.75,-226.62 1177.25,-226.62 1177.25,-245.88"/>
<text xml:space="preserve" text-anchor="middle" x="1125" y="-232.38" font-family="Helvetica,sans-Serif" font-size="10.00">boost/date_time.hpp</text>
</a>
</g>
</g>
<!-- Node4&#45;&gt;Node13 -->
<g id="edge13_Node000004_Node000013" class="edge">
<title>Node4&#45;&gt;Node13</title>
<g id="a_edge13_Node000004_Node000013"><a xlink:title=" ">
<path fill="none" stroke="#63b8ff" d="M897.96,-289.73C935.67,-281.09 1004.91,-265.2 1064,-251.5 1067.6,-250.66 1071.32,-249.8 1075.07,-248.93"/>
<polygon fill="#63b8ff" stroke="#63b8ff" points="1075.86,-252.34 1084.81,-246.66 1074.27,-245.52 1075.86,-252.34"/>
</a>
</g>
</g>
<!-- Node14 -->
<g id="Node000014" class="node">
<title>Node14</title>
<g id="a_Node000014"><a xlink:title=" ">
<polygon fill="#e0e0e0" stroke="#999999" points="1336.25,-245.88 1195.75,-245.88 1195.75,-226.62 1336.25,-226.62 1336.25,-245.88"/>
<text xml:space="preserve" text-anchor="middle" x="1266" y="-232.38" font-family="Helvetica,sans-Serif" font-size="10.00">boost/endian/conversion.hpp</text>
</a>
</g>
</g>
<!-- Node4&#45;&gt;Node14 -->
<g id="edge14_Node000004_Node000014" class="edge">
<title>Node4&#45;&gt;Node14</title>
<g id="a_edge14_Node000004_Node000014"><a xlink:title=" ">
<path fill="none" stroke="#63b8ff" d="M897.95,-292.52C953.11,-285.33 1079.86,-268.44 1186,-251.5 1192.34,-250.49 1198.95,-249.39 1205.53,-248.26"/>
<polygon fill="#63b8ff" stroke="#63b8ff" points="1205.8,-251.76 1215.05,-246.61 1204.6,-244.87 1205.8,-251.76"/>
</a>
</g>
</g>
<!-- Node15 -->
<g id="Node000015" class="node">
<title>Node15</title>
<g id="a_Node000015"><a xlink:title=" ">
<polygon fill="#e0e0e0" stroke="#999999" points="1455.38,-245.88 1354.62,-245.88 1354.62,-226.62 1455.38,-226.62 1455.38,-245.88"/>
<text xml:space="preserve" text-anchor="middle" x="1405" y="-232.38" font-family="Helvetica,sans-Serif" font-size="10.00">boost/uuid/uuid.hpp</text>
</a>
</g>
</g>
<!-- Node4&#45;&gt;Node15 -->
<g id="edge15_Node000004_Node000015" class="edge">
<title>Node4&#45;&gt;Node15</title>
<g id="a_edge15_Node000004_Node000015"><a xlink:title=" ">
<path fill="none" stroke="#63b8ff" d="M897.75,-294.87C971.17,-291.27 1176.44,-279.29 1345,-251.5 1349.63,-250.74 1354.44,-249.81 1359.23,-248.81"/>
<polygon fill="#63b8ff" stroke="#63b8ff" points="1359.78,-252.28 1368.79,-246.69 1358.27,-245.44 1359.78,-252.28"/>
</a>
</g>
</g>
<!-- Node16 -->
<g id="Node000016" class="node">
<title>Node16</title>
<g id="a_Node000016"><a xlink:title=" ">
<polygon fill="#e0e0e0" stroke="#999999" points="293.88,-245.88 142.12,-245.88 142.12,-226.62 293.88,-226.62 293.88,-245.88"/>
<text xml:space="preserve" text-anchor="middle" x="218" y="-232.38" font-family="Helvetica,sans-Serif" font-size="10.00">boost/uuid/uuid_generators.hpp</text>
</a>
</g>
</g>
<!-- Node4&#45;&gt;Node16 -->
<g id="edge16_Node000004_Node000016" class="edge">
<title>Node4&#45;&gt;Node16</title>
<g id="a_edge16_Node000004_Node000016"><a xlink:title=" ">
<path fill="none" stroke="#63b8ff" d="M842.18,-294.8C759.69,-290.69 509.3,-276.86 303,-251.5 295.23,-250.54 287.08,-249.38 279.04,-248.14"/>
<polygon fill="#63b8ff" stroke="#63b8ff" points="279.71,-244.7 269.28,-246.58 278.6,-251.62 279.71,-244.7"/>
</a>
</g>
</g>
<!-- Node17 -->
<g id="Node000017" class="node">
<title>Node17</title>
<g id="a_Node000017"><a xlink:title=" ">
<polygon fill="#e0e0e0" stroke="#999999" points="425.75,-245.88 312.25,-245.88 312.25,-226.62 425.75,-226.62 425.75,-245.88"/>
<text xml:space="preserve" text-anchor="middle" x="369" y="-232.38" font-family="Helvetica,sans-Serif" font-size="10.00">boost/uuid/uuid_io.hpp</text>
</a>
</g>
</g>
<!-- Node4&#45;&gt;Node17 -->
<g id="edge17_Node000004_Node000017" class="edge">
<title>Node4&#45;&gt;Node17</title>
<g id="a_edge17_Node000004_Node000017"><a xlink:title=" ">
<path fill="none" stroke="#63b8ff" d="M842.13,-294.34C772.91,-289.67 587.77,-275.75 435,-251.5 429.71,-250.66 424.2,-249.67 418.72,-248.6"/>
<polygon fill="#63b8ff" stroke="#63b8ff" points="419.58,-245.2 409.09,-246.63 418.19,-252.06 419.58,-245.2"/>
</a>
</g>
</g>
<!-- Node18 -->
<g id="Node000018" class="node">
<title>Node18</title>
<g id="a_Node000018"><a xlink:title=" ">
<polygon fill="#e0e0e0" stroke="#999999" points="563.75,-251.5 444.25,-251.5 444.25,-221 563.75,-221 563.75,-251.5"/>
<text xml:space="preserve" text-anchor="start" x="452.25" y="-238" font-family="Helvetica,sans-Serif" font-size="10.00">boost/date_time/c_local</text>
<text xml:space="preserve" text-anchor="middle" x="504" y="-226.75" font-family="Helvetica,sans-Serif" font-size="10.00">_time_adjustor.hpp</text>
</a>
</g>
</g>
<!-- Node4&#45;&gt;Node18 -->
<g id="edge18_Node000004_Node000018" class="edge">
<title>Node4&#45;&gt;Node18</title>
<g id="a_edge18_Node000004_Node000018"><a xlink:title=" ">
<path fill="none" stroke="#63b8ff" d="M842.07,-292.45C791.14,-285.63 679.53,-270.17 575.22,-251.84"/>
<polygon fill="#63b8ff" stroke="#63b8ff" points="576.12,-248.44 565.66,-250.14 574.9,-255.33 576.12,-248.44"/>
</a>
</g>
</g>
<!-- Node4&#45;&gt;Node19 -->
<g id="edge19_Node000004_Node000019" class="edge">
<title>Node4&#45;&gt;Node19</title>
<g id="a_edge19_Node000004_Node000019"><a xlink:title=" ">
<path fill="none" stroke="#63b8ff" d="M849.53,-287.1C835.59,-279.73 818.22,-267.86 810,-251.5 791.94,-215.57 804.57,-167.04 814.1,-140.48"/>
<polygon fill="#63b8ff" stroke="#63b8ff" points="817.29,-141.95 817.6,-131.36 810.75,-139.45 817.29,-141.95"/>
</a>
</g>
</g>
<!-- Node31 -->
<g id="Node000031" class="node">
<title>Node31</title>
<g id="a_Node000031"><a xlink:href="_h_d_f5_i_o_8hpp.html" target="_top" xlink:title=" ">
<polygon fill="white" stroke="#666666" points="1576.88,-245.88 1473.12,-245.88 1473.12,-226.62 1576.88,-226.62 1576.88,-245.88"/>
<text xml:space="preserve" text-anchor="middle" x="1525" y="-232.38" font-family="Helvetica,sans-Serif" font-size="10.00">io/hdf5/HDF5IO.hpp</text>
</a>
</g>
</g>
<!-- Node4&#45;&gt;Node31 -->
<g id="edge34_Node000004_Node000031" class="edge">
<title>Node4&#45;&gt;Node31</title>
<g id="a_edge34_Node000004_Node000031"><a xlink:title=" ">
<path fill="none" stroke="#63b8ff" d="M897.71,-295.56C982.77,-293.51 1247.55,-284.71 1464,-251.5 1468.97,-250.74 1474.14,-249.78 1479.27,-248.74"/>
<polygon fill="#63b8ff" stroke="#63b8ff" points="1479.84,-252.19 1488.86,-246.65 1478.35,-245.35 1479.84,-252.19"/>
</a>
</g>
</g>
<!-- Node19&#45;&gt;Node3 -->
<g id="edge24_Node000019_Node000003" class="edge">
<title>Node19&#45;&gt;Node3</title>
<g id="a_edge24_Node000019_Node000003"><a xlink:title=" ">
<path fill="none" stroke="#63b8ff" d="M861.57,-117.22C986.63,-111.2 1384.58,-91.91 1714,-74.5 1756.77,-72.24 1806.16,-69.46 1837.48,-67.68"/>
<polygon fill="#63b8ff" stroke="#63b8ff" points="1837.64,-71.18 1847.43,-67.11 1837.24,-64.19 1837.64,-71.18"/>
</a>
</g>
</g>
<!-- Node19&#45;&gt;Node8 -->
<g id="edge21_Node000019_Node000008" class="edge">
<title>Node19&#45;&gt;Node8</title>
<g id="a_edge21_Node000019_Node000008"><a xlink:title=" ">
<path fill="none" stroke="#63b8ff" d="M782.63,-115.73C720.57,-110.01 596.06,-97.02 481.08,-74.66"/>
<polygon fill="#63b8ff" stroke="#63b8ff" points="481.96,-71.26 471.47,-72.76 480.6,-78.13 481.96,-71.26"/>
</a>
</g>
</g>
<!-- Node20 -->
<g id="Node000020" class="node">
<title>Node20</title>
<g id="a_Node000020"><a xlink:title=" ">
<polygon fill="#e0e0e0" stroke="#999999" points="519.88,-74.5 488.12,-74.5 488.12,-55.25 519.88,-55.25 519.88,-74.5"/>
<text xml:space="preserve" text-anchor="middle" x="504" y="-61" font-family="Helvetica,sans-Serif" font-size="10.00">any</text>
</a>
</g>
</g>
<!-- Node19&#45;&gt;Node20 -->
<g id="edge20_Node000019_Node000020" class="edge">
<title>Node19&#45;&gt;Node20</title>
<g id="a_edge20_Node000019_Node000020"><a xlink:title=" ">
<path fill="none" stroke="#63b8ff" d="M782.69,-115.42C728.15,-109.79 626.34,-97.5 531.24,-74.65"/>
<polygon fill="#63b8ff" stroke="#63b8ff" points="532.3,-71.31 521.75,-72.33 530.63,-78.11 532.3,-71.31"/>
</a>
</g>
</g>
<!-- Node21 -->
<g id="Node000021" class="node">
<title>Node21</title>
<g id="a_Node000021"><a xlink:title=" ">
<polygon fill="#e0e0e0" stroke="#999999" points="793.75,-74.5 740.25,-74.5 740.25,-55.25 793.75,-55.25 793.75,-74.5"/>
<text xml:space="preserve" text-anchor="middle" x="767" y="-61" font-family="Helvetica,sans-Serif" font-size="10.00">iostream</text>
</a>
</g>
</g>
<!-- Node19&#45;&gt;Node21 -->
<g id="edge22_Node000019_Node000021" class="edge">
<title>Node19&#45;&gt;Node21</title>
<g id="a_edge22_Node000019_Node000021"><a xlink:title=" ">
<path fill="none" stroke="#63b8ff" d="M812.92,-110.33C805.16,-102.82 793.79,-91.81 784.3,-82.63"/>
<polygon fill="#63b8ff" stroke="#63b8ff" points="786.99,-80.35 777.37,-75.91 782.12,-85.38 786.99,-80.35"/>
</a>
</g>
</g>
<!-- Node22 -->
<g id="Node000022" class="node">
<title>Node22</title>
<g id="a_Node000022"><a xlink:title=" ">
<polygon fill="#e0e0e0" stroke="#999999" points="1704.62,-74.5 1653.38,-74.5 1653.38,-55.25 1704.62,-55.25 1704.62,-74.5"/>
<text xml:space="preserve" text-anchor="middle" x="1679" y="-61" font-family="Helvetica,sans-Serif" font-size="10.00">memory</text>
</a>
</g>
</g>
<!-- Node19&#45;&gt;Node22 -->
<g id="edge23_Node000019_Node000022" class="edge">
<title>Node19&#45;&gt;Node22</title>
<g id="a_edge23_Node000019_Node000022"><a xlink:title=" ">
<path fill="none" stroke="#63b8ff" d="M861.62,-116.66C1005.88,-107.7 1501.99,-76.87 1641.97,-68.18"/>
<polygon fill="#63b8ff" stroke="#63b8ff" points="1642.01,-71.68 1651.77,-67.57 1641.57,-64.69 1642.01,-71.68"/>
</a>
</g>
</g>
<!-- Node23 -->
<g id="Node000023" class="node">
<title>Node23</title>
<g id="a_Node000023"><a xlink:title=" ">
<polygon fill="#e0e0e0" stroke="#999999" points="596,-74.5 538,-74.5 538,-55.25 596,-55.25 596,-74.5"/>
<text xml:space="preserve" text-anchor="middle" x="567" y="-61" font-family="Helvetica,sans-Serif" font-size="10.00">typeindex</text>
</a>
</g>
</g>
<!-- Node19&#45;&gt;Node23 -->
<g id="edge25_Node000019_Node000023" class="edge">
<title>Node19&#45;&gt;Node23</title>
<g id="a_edge25_Node000019_Node000023"><a xlink:title=" ">
<path fill="none" stroke="#63b8ff" d="M782.75,-111.3C741.54,-103.04 674.56,-89.45 607.62,-75.03"/>
<polygon fill="#63b8ff" stroke="#63b8ff" points="608.44,-71.63 597.92,-72.94 606.96,-78.47 608.44,-71.63"/>
</a>
</g>
</g>
<!-- Node24 -->
<g id="Node000024" class="node">
<title>Node24</title>
<g id="a_Node000024"><a xlink:title=" ">
<polygon fill="#e0e0e0" stroke="#999999" points="1193.38,-74.5 1110.62,-74.5 1110.62,-55.25 1193.38,-55.25 1193.38,-74.5"/>
<text xml:space="preserve" text-anchor="middle" x="1152" y="-61" font-family="Helvetica,sans-Serif" font-size="10.00">unordered_map</text>
</a>
</g>
</g>
<!-- Node19&#45;&gt;Node24 -->
<g id="edge26_Node000019_Node000024" class="edge">
<title>Node19&#45;&gt;Node24</title>
<g id="a_edge26_Node000019_Node000024"><a xlink:title=" ">
<path fill="none" stroke="#63b8ff" d="M861.48,-112.75C920.75,-103.19 1032.83,-85.1 1099.11,-74.41"/>
<polygon fill="#63b8ff" stroke="#63b8ff" points="1099.33,-77.92 1108.65,-72.87 1098.22,-71.01 1099.33,-77.92"/>
</a>
</g>
</g>
<!-- Node25 -->
<g id="Node000025" class="node">
<title>Node25</title>
<g id="a_Node000025"><a xlink:title=" ">
<polygon fill="#e0e0e0" stroke="#999999" points="1519.75,-74.5 1442.25,-74.5 1442.25,-55.25 1519.75,-55.25 1519.75,-74.5"/>
<text xml:space="preserve" text-anchor="middle" x="1481" y="-61" font-family="Helvetica,sans-Serif" font-size="10.00">unordered_set</text>
</a>
</g>
</g>
<!-- Node19&#45;&gt;Node25 -->
<g id="edge27_Node000019_Node000025" class="edge">
<title>Node19&#45;&gt;Node25</title>
<g id="a_edge27_Node000019_Node000025"><a xlink:title=" ">
<path fill="none" stroke="#63b8ff" d="M861.25,-115.95C974.91,-106.77 1304.24,-80.16 1430.72,-69.94"/>
<polygon fill="#63b8ff" stroke="#63b8ff" points="1430.76,-73.45 1440.45,-69.15 1430.2,-66.47 1430.76,-73.45"/>
</a>
</g>
</g>
<!-- Node26 -->
<g id="Node000026" class="node">
<title>Node26</title>
<g id="a_Node000026"><a xlink:title=" ">
<polygon fill="#e0e0e0" stroke="#999999" points="895.62,-74.5 850.38,-74.5 850.38,-55.25 895.62,-55.25 895.62,-74.5"/>
<text xml:space="preserve" text-anchor="middle" x="873" y="-61" font-family="Helvetica,sans-Serif" font-size="10.00">variant</text>
</a>
</g>
</g>
<!-- Node19&#45;&gt;Node26 -->
<g id="edge28_Node000019_Node000026" class="edge">
<title>Node19&#45;&gt;Node26</title>
<g id="a_edge28_Node000019_Node000026"><a xlink:title=" ">
<path fill="none" stroke="#63b8ff" d="M830.42,-110.33C837.54,-102.9 847.94,-92.04 856.69,-82.91"/>
<polygon fill="#63b8ff" stroke="#63b8ff" points="858.96,-85.6 863.35,-75.95 853.9,-80.75 858.96,-85.6"/>
</a>
</g>
</g>
<!-- Node27 -->
<g id="Node000027" class="node">
<title>Node27</title>
<g id="a_Node000027"><a xlink:title=" ">
<polygon fill="#e0e0e0" stroke="#999999" points="843.5,-19.25 800.5,-19.25 800.5,0 843.5,0 843.5,-19.25"/>
<text xml:space="preserve" text-anchor="middle" x="822" y="-5.75" font-family="Helvetica,sans-Serif" font-size="10.00">vector</text>
</a>
</g>
</g>
<!-- Node19&#45;&gt;Node27 -->
<g id="edge29_Node000019_Node000027" class="edge">
<title>Node19&#45;&gt;Node27</title>
<g id="a_edge29_Node000019_Node000027"><a xlink:title=" ">
<path fill="none" stroke="#63b8ff" d="M822,-110.25C822,-93 822,-54.58 822,-30.81"/>
<polygon fill="#63b8ff" stroke="#63b8ff" points="825.5,-31.14 822,-21.14 818.5,-31.14 825.5,-31.14"/>
</a>
</g>
</g>
<!-- Node28 -->
<g id="Node000028" class="node">
<title>Node28</title>
<g id="a_Node000028"><a xlink:title=" ">
<polygon fill="#e0e0e0" stroke="#999999" points="722.12,-74.5 613.88,-74.5 613.88,-55.25 722.12,-55.25 722.12,-74.5"/>
<text xml:space="preserve" text-anchor="middle" x="668" y="-61" font-family="Helvetica,sans-Serif" font-size="10.00">boost/multi_array.hpp</text>
</a>
</g>
</g>
<!-- Node19&#45;&gt;Node28 -->
<g id="edge30_Node000019_Node000028" class="edge">
<title>Node19&#45;&gt;Node28</title>
<g id="a_edge30_Node000019_Node000028"><a xlink:title=" ">
<path fill="none" stroke="#63b8ff" d="M795.88,-110.09C770.88,-101.45 732.92,-88.32 704.85,-78.62"/>
<polygon fill="#63b8ff" stroke="#63b8ff" points="706.28,-75.41 695.68,-75.45 703.99,-82.02 706.28,-75.41"/>
</a>
</g>
</g>
<!-- Node29 -->
<g id="Node000029" class="node">
<title>Node29</title>
<g id="a_Node000029"><a xlink:href="_types_8hpp.html" target="_top" xlink:title=" ">
<polygon fill="white" stroke="#666666" points="974.5,-74.5 913.5,-74.5 913.5,-55.25 974.5,-55.25 974.5,-74.5"/>
<text xml:space="preserve" text-anchor="middle" x="944" y="-61" font-family="Helvetica,sans-Serif" font-size="10.00">Types.hpp</text>
</a>
</g>
</g>
<!-- Node19&#45;&gt;Node29 -->
<g id="edge31_Node000019_Node000029" class="edge">
<title>Node19&#45;&gt;Node29</title>
<g id="a_edge31_Node000019_Node000029"><a xlink:title=" ">
<path fill="none" stroke="#63b8ff" d="M842.7,-110.09C861.89,-101.72 890.71,-89.13 912.72,-79.53"/>
<polygon fill="#63b8ff" stroke="#63b8ff" points="914.05,-82.77 921.82,-75.56 911.25,-76.35 914.05,-82.77"/>
</a>
</g>
</g>
<!-- Node29&#45;&gt;Node27 -->
<g id="edge33_Node000029_Node000027" class="edge">
<title>Node29&#45;&gt;Node27</title>
<g id="a_edge33_Node000029_Node000027"><a xlink:title=" ">
<path fill="none" stroke="#63b8ff" d="M923.3,-54.84C904.11,-46.47 875.29,-33.88 853.28,-24.28"/>
<polygon fill="#63b8ff" stroke="#63b8ff" points="854.75,-21.1 844.18,-20.31 851.95,-27.52 854.75,-21.1"/>
</a>
</g>
</g>
<!-- Node30 -->
<g id="Node000030" class="node">
<title>Node30</title>
<g id="a_Node000030"><a xlink:title=" ">
<polygon fill="#e0e0e0" stroke="#999999" points="968.12,-19.25 919.88,-19.25 919.88,0 968.12,0 968.12,-19.25"/>
<text xml:space="preserve" text-anchor="middle" x="944" y="-5.75" font-family="Helvetica,sans-Serif" font-size="10.00">cstddef</text>
</a>
</g>
</g>
<!-- Node29&#45;&gt;Node30 -->
<g id="edge32_Node000029_Node000030" class="edge">
<title>Node29&#45;&gt;Node30</title>
<g id="a_edge32_Node000029_Node000030"><a xlink:title=" ">
<path fill="none" stroke="#63b8ff" d="M944,-55.08C944,-48.57 944,-39.42 944,-31.12"/>
<polygon fill="#63b8ff" stroke="#63b8ff" points="947.5,-31.12 944,-21.12 940.5,-31.12 947.5,-31.12"/>
</a>
</g>
</g>
<!-- Node31&#45;&gt;Node3 -->
<g id="edge37_Node000031_Node000003" class="edge">
<title>Node31&#45;&gt;Node3</title>
<g id="a_edge37_Node000031_Node000003"><a xlink:title=" ">
<path fill="none" stroke="#63b8ff" d="M1543.49,-226.14C1600.32,-198.16 1772.66,-113.31 1840.82,-79.75"/>
<polygon fill="#63b8ff" stroke="#63b8ff" points="1842.05,-83.05 1849.47,-75.49 1838.96,-76.77 1842.05,-83.05"/>
</a>
</g>
</g>
<!-- Node31&#45;&gt;Node19 -->
<g id="edge40_Node000031_Node000019" class="edge">
<title>Node31&#45;&gt;Node19</title>
<g id="a_edge40_Node000031_Node000019"><a xlink:title=" ">
<path fill="none" stroke="#63b8ff" d="M1516.8,-226.45C1501.73,-210.94 1467.88,-179.15 1432,-165.75 1329.99,-127.66 999.9,-121.96 872.66,-121.2"/>
<polygon fill="#63b8ff" stroke="#63b8ff" points="872.88,-117.7 862.87,-121.15 872.85,-124.7 872.88,-117.7"/>
</a>
</g>
</g>
<!-- Node31&#45;&gt;Node21 -->
<g id="edge35_Node000031_Node000021" class="edge">
<title>Node31&#45;&gt;Node21</title>
<g id="a_edge35_Node000031_Node000021"><a xlink:title=" ">
<path fill="none" stroke="#63b8ff" d="M1488.67,-226.15C1480.58,-224.29 1472.02,-222.46 1464,-221 1311.84,-193.24 882.14,-240.33 774,-129.75 762.9,-118.4 761.98,-99.93 763.35,-85.76"/>
<polygon fill="#63b8ff" stroke="#63b8ff" points="766.76,-86.6 764.73,-76.21 759.83,-85.6 766.76,-86.6"/>
</a>
</g>
</g>
<!-- Node31&#45;&gt;Node22 -->
<g id="edge36_Node000031_Node000022" class="edge">
<title>Node31&#45;&gt;Node22</title>
<g id="a_edge36_Node000031_Node000022"><a xlink:title=" ">
<path fill="none" stroke="#63b8ff" d="M1533.28,-226.14C1557.94,-199.02 1631.19,-118.46 1663.45,-82.98"/>
<polygon fill="#63b8ff" stroke="#63b8ff" points="1665.9,-85.49 1670.03,-75.74 1660.72,-80.78 1665.9,-85.49"/>
</a>
</g>
</g>
<!-- Node31&#45;&gt;Node29 -->
<g id="edge39_Node000031_Node000029" class="edge">
<title>Node31&#45;&gt;Node29</title>
<g id="a_edge39_Node000031_Node000029"><a xlink:title=" ">
<path fill="none" stroke="#63b8ff" d="M1519.8,-226.32C1510.48,-211.2 1489.44,-180.76 1463,-165.75 1380.8,-119.09 1094.76,-82.85 986.21,-70.47"/>
<polygon fill="#63b8ff" stroke="#63b8ff" points="986.61,-67 976.28,-69.35 985.82,-73.95 986.61,-67"/>
</a>
</g>
</g>
<!-- Node32 -->
<g id="Node000032" class="node">
<title>Node32</title>
<g id="a_Node000032"><a xlink:title=" ">
<polygon fill="#e0e0e0" stroke="#999999" points="1423,-185 1353,-185 1353,-165.75 1423,-165.75 1423,-185"/>
<text xml:space="preserve" text-anchor="middle" x="1388" y="-171.5" font-family="Helvetica,sans-Serif" font-size="10.00">H5Opublic.h</text>
</a>
</g>
</g>
<!-- Node31&#45;&gt;Node32 -->
<g id="edge38_Node000031_Node000032" class="edge">
<title>Node31&#45;&gt;Node32</title>
<g id="a_edge38_Node000031_Node000032"><a xlink:title=" ">
<path fill="none" stroke="#63b8ff" d="M1503.89,-226.18C1481.3,-216.47 1445.22,-200.96 1419.31,-189.83"/>
<polygon fill="#63b8ff" stroke="#63b8ff" points="1420.87,-186.69 1410.3,-185.96 1418.1,-193.12 1420.87,-186.69"/>
</a>
</g>
</g>
<!-- Node31&#45;&gt;Node33 -->
<g id="edge41_Node000031_Node000033" class="edge">
<title>Node31&#45;&gt;Node33</title>
<g id="a_edge41_Node000031_Node000033"><a xlink:title=" ">
<path fill="none" stroke="#63b8ff" d="M1491.01,-226.16C1482.26,-224.14 1472.83,-222.23 1464,-221 1420.12,-214.88 771.18,-186.69 582.24,-178.57"/>
<polygon fill="#63b8ff" stroke="#63b8ff" points="582.64,-175.08 572.5,-178.15 582.34,-182.08 582.64,-175.08"/>
</a>
</g>
</g>
<!-- Node33&#45;&gt;Node3 -->
<g id="edge46_Node000033_Node000003" class="edge">
<title>Node33&#45;&gt;Node3</title>
<g id="a_edge46_Node000033_Node000003"><a xlink:title=" ">
<path fill="none" stroke="#63b8ff" d="M570.94,-171.47C665.94,-164.54 912.87,-146.35 1119,-129.75 1397.5,-107.32 1733.96,-77.8 1837.29,-68.68"/>
<polygon fill="#63b8ff" stroke="#63b8ff" points="1837.56,-72.17 1847.21,-67.8 1836.94,-65.2 1837.56,-72.17"/>
</a>
</g>
</g>
<!-- Node33&#45;&gt;Node8 -->
<g id="edge43_Node000033_Node000008" class="edge">
<title>Node33&#45;&gt;Node8</title>
<g id="a_edge43_Node000033_Node000008"><a xlink:title=" ">
<path fill="none" stroke="#63b8ff" d="M524.13,-165.5C510.34,-147.69 479.1,-107.33 460.89,-83.81"/>
<polygon fill="#63b8ff" stroke="#63b8ff" points="463.78,-81.84 454.9,-76.07 458.25,-86.12 463.78,-81.84"/>
</a>
</g>
</g>
<!-- Node33&#45;&gt;Node19 -->
<g id="edge50_Node000033_Node000019" class="edge">
<title>Node33&#45;&gt;Node19</title>
<g id="a_edge50_Node000033_Node000019"><a xlink:title=" ">
<path fill="none" stroke="#63b8ff" d="M570.85,-167.08C622.99,-157.54 714.38,-140.82 771.37,-130.39"/>
<polygon fill="#63b8ff" stroke="#63b8ff" points="771.93,-133.84 781.14,-128.6 770.67,-126.96 771.93,-133.84"/>
</a>
</g>
</g>
<!-- Node33&#45;&gt;Node20 -->
<g id="edge42_Node000033_Node000020" class="edge">
<title>Node33&#45;&gt;Node20</title>
<g id="a_edge42_Node000033_Node000020"><a xlink:title=" ">
<path fill="none" stroke="#63b8ff" d="M528.79,-165.5C524.48,-148.17 514.85,-109.48 508.94,-85.74"/>
<polygon fill="#63b8ff" stroke="#63b8ff" points="512.42,-85.2 506.61,-76.35 505.62,-86.89 512.42,-85.2"/>
</a>
</g>
</g>
<!-- Node33&#45;&gt;Node21 -->
<g id="edge44_Node000033_Node000021" class="edge">
<title>Node33&#45;&gt;Node21</title>
<g id="a_edge44_Node000033_Node000021"><a xlink:title=" ">
<path fill="none" stroke="#63b8ff" d="M550.72,-165.31C592.02,-146.32 687.84,-102.27 736.89,-79.72"/>
<polygon fill="#63b8ff" stroke="#63b8ff" points="738.18,-82.98 745.8,-75.62 735.25,-76.62 738.18,-82.98"/>
</a>
</g>
</g>
<!-- Node33&#45;&gt;Node22 -->
<g id="edge45_Node000033_Node000022" class="edge">
<title>Node33&#45;&gt;Node22</title>
<g id="a_edge45_Node000033_Node000022"><a xlink:title=" ">
<path fill="none" stroke="#63b8ff" d="M570.85,-170.61C748.83,-153.79 1469.76,-85.65 1641.94,-69.38"/>
<polygon fill="#63b8ff" stroke="#63b8ff" points="1642.02,-72.89 1651.64,-68.46 1641.36,-65.92 1642.02,-72.89"/>
</a>
</g>
</g>
<!-- Node33&#45;&gt;Node23 -->
<g id="edge47_Node000033_Node000023" class="edge">
<title>Node33&#45;&gt;Node23</title>
<g id="a_edge47_Node000033_Node000023"><a xlink:title=" ">
<path fill="none" stroke="#63b8ff" d="M533.95,-165.5C539.69,-148.17 552.53,-109.48 560.41,-85.74"/>
<polygon fill="#63b8ff" stroke="#63b8ff" points="563.71,-86.91 563.54,-76.31 557.07,-84.7 563.71,-86.91"/>
</a>
</g>
</g>
<!-- Node33&#45;&gt;Node27 -->
<g id="edge48_Node000033_Node000027" class="edge">
<title>Node33&#45;&gt;Node27</title>
<g id="a_edge48_Node000033_Node000027"><a xlink:title=" ">
<path fill="none" stroke="#63b8ff" d="M509.96,-165.36C467.11,-145.8 376.85,-97.81 415,-55.25 439.8,-27.58 695.65,-15.34 788.54,-11.78"/>
<polygon fill="#63b8ff" stroke="#63b8ff" points="788.65,-15.28 798.51,-11.41 788.39,-8.29 788.65,-15.28"/>
</a>
</g>
</g>
<!-- Node33&#45;&gt;Node28 -->
<g id="edge49_Node000033_Node000028" class="edge">
<title>Node33&#45;&gt;Node28</title>
<g id="a_edge49_Node000033_Node000028"><a xlink:title=" ">
<path fill="none" stroke="#63b8ff" d="M542.21,-165.5C565.29,-147.22 618.4,-105.15 647.69,-81.96"/>
<polygon fill="#63b8ff" stroke="#63b8ff" points="649.78,-84.77 655.45,-75.82 645.43,-79.28 649.78,-84.77"/>
</a>
</g>
</g>
<!-- Node33&#45;&gt;Node29 -->
<g id="edge51_Node000033_Node000029" class="edge">
<title>Node33&#45;&gt;Node29</title>
<g id="a_edge51_Node000033_Node000029"><a xlink:title=" ">
<path fill="none" stroke="#63b8ff" d="M565.61,-165.27C612.74,-152.88 699.75,-130 774,-110.5 817.75,-99.01 867.84,-85.86 902.25,-76.83"/>
<polygon fill="#63b8ff" stroke="#63b8ff" points="903.04,-80.24 911.82,-74.32 901.26,-73.47 903.04,-80.24"/>
</a>
</g>
</g>
<!-- Node34&#45;&gt;Node3 -->
<g id="edge56_Node000034_Node000003" class="edge">
<title>Node34&#45;&gt;Node3</title>
<g id="a_edge56_Node000034_Node000003"><a xlink:title=" ">
<path fill="none" stroke="#63b8ff" d="M1820.62,-397.6C1872.3,-385.13 1945,-357.11 1945,-298.12 1945,-298.12 1945,-298.12 1945,-174.38 1945,-135.77 1912.32,-101.14 1889.82,-81.87"/>
<polygon fill="#63b8ff" stroke="#63b8ff" points="1892.33,-79.41 1882.38,-75.77 1887.89,-84.82 1892.33,-79.41"/>
</a>
</g>
</g>
<!-- Node34&#45;&gt;Node22 -->
<g id="edge55_Node000034_Node000022" class="edge">
<title>Node34&#45;&gt;Node22</title>
<g id="a_edge55_Node000034_Node000022"><a xlink:title=" ">
<path fill="none" stroke="#63b8ff" d="M1775.62,-397.76C1786.37,-380.6 1810.28,-341.47 1827,-306.75 1854.24,-250.17 1863.42,-222.24 1836,-165.75 1822.29,-137.51 1817.23,-129.18 1792,-110.5 1769.13,-93.57 1738.98,-82.09 1715.57,-75.02"/>
<polygon fill="#63b8ff" stroke="#63b8ff" points="1716.72,-71.71 1706.14,-72.31 1714.79,-78.43 1716.72,-71.71"/>
</a>
</g>
</g>
<!-- Node35 -->
<g id="Node000035" class="node">
<title>Node35</title>
<g id="a_Node000035"><a xlink:href="_registered_type_8hpp.html" target="_top" xlink:title=" ">
<polygon fill="white" stroke="#666666" points="1720,-362 1596,-362 1596,-342.75 1720,-342.75 1720,-362"/>
<text xml:space="preserve" text-anchor="middle" x="1658" y="-348.5" font-family="Helvetica,sans-Serif" font-size="10.00">nwb/RegisteredType.hpp</text>
</a>
</g>
</g>
<!-- Node34&#45;&gt;Node35 -->
<g id="edge57_Node000034_Node000035" class="edge">
<title>Node34&#45;&gt;Node35</title>
<g id="a_edge57_Node000034_Node000035"><a xlink:title=" ">
<path fill="none" stroke="#63b8ff" d="M1751,-397.59C1733.54,-389.29 1707.4,-376.86 1687.28,-367.29"/>
<polygon fill="#63b8ff" stroke="#63b8ff" points="1688.99,-364.24 1678.46,-363.1 1685.99,-370.56 1688.99,-364.24"/>
</a>
</g>
</g>
<!-- Node35&#45;&gt;Node3 -->
<g id="edge61_Node000035_Node000003" class="edge">
<title>Node35&#45;&gt;Node3</title>
<g id="a_edge61_Node000035_Node000003"><a xlink:title=" ">
<path fill="none" stroke="#63b8ff" d="M1720.29,-348.44C1755.35,-343.75 1797.81,-332.61 1827,-306.75 1891.18,-249.88 1880.23,-132.78 1872.75,-85.91"/>
<polygon fill="#63b8ff" stroke="#63b8ff" points="1876.21,-85.41 1871.06,-76.15 1869.32,-86.6 1876.21,-85.41"/>
</a>
</g>
</g>
<!-- Node35&#45;&gt;Node4 -->
<g id="edge65_Node000035_Node000004" class="edge">
<title>Node35&#45;&gt;Node4</title>
<g id="a_edge65_Node000035_Node000004"><a xlink:title=" ">
<path fill="none" stroke="#63b8ff" d="M1595.51,-347.15C1439.64,-336.62 1037.05,-309.41 909.43,-300.79"/>
<polygon fill="#63b8ff" stroke="#63b8ff" points="909.68,-297.3 899.46,-300.12 909.2,-304.28 909.68,-297.3"/>
</a>
</g>
</g>
<!-- Node35&#45;&gt;Node19 -->
<g id="edge66_Node000035_Node000019" class="edge">
<title>Node35&#45;&gt;Node19</title>
<g id="a_edge66_Node000035_Node000019"><a xlink:title=" ">
<path fill="none" stroke="#63b8ff" d="M1601.61,-342.33C1580.88,-335.98 1559.44,-325.16 1547,-306.75 1530.17,-281.85 1573.94,-279.03 1586,-251.5 1591.44,-239.08 1593.36,-232.38 1586,-221 1553.44,-170.69 1521.13,-180.33 1463,-165.75 1351.41,-137.75 1003.48,-125.9 872.53,-122.35"/>
<polygon fill="#63b8ff" stroke="#63b8ff" points="872.88,-118.86 862.79,-122.09 872.69,-125.86 872.88,-118.86"/>
</a>
</g>
</g>
<!-- Node35&#45;&gt;Node22 -->
<g id="edge60_Node000035_Node000022" class="edge">
<title>Node35&#45;&gt;Node22</title>
<g id="a_edge60_Node000035_Node000022"><a xlink:title=" ">
<path fill="none" stroke="#63b8ff" d="M1720.42,-349.39C1751.71,-344.83 1787.09,-333.5 1807,-306.75 1860.05,-235.48 1836.12,-168.7 1769,-110.5 1753.4,-96.97 1732.97,-86.41 1715.52,-78.96"/>
<polygon fill="#63b8ff" stroke="#63b8ff" points="1717.1,-75.83 1706.51,-75.3 1714.46,-82.31 1717.1,-75.83"/>
</a>
</g>
</g>
<!-- Node35&#45;&gt;Node24 -->
<g id="edge62_Node000035_Node000024" class="edge">
<title>Node35&#45;&gt;Node24</title>
<g id="a_edge62_Node000035_Node000024"><a xlink:title=" ">
<path fill="none" stroke="#63b8ff" d="M1645.81,-342.31C1631.29,-330.31 1610.07,-308.27 1619,-287.5 1628.19,-266.13 1647.81,-272.87 1657,-251.5 1661.85,-240.22 1660.64,-176.34 1655,-165.75 1635.38,-128.89 1617.99,-125.46 1579,-110.5 1511.96,-84.78 1303.97,-72.5 1205.16,-67.99"/>
<polygon fill="#63b8ff" stroke="#63b8ff" points="1205.33,-64.5 1195.18,-67.55 1205.02,-71.49 1205.33,-64.5"/>
</a>
</g>
</g>
<!-- Node35&#45;&gt;Node25 -->
<g id="edge63_Node000035_Node000025" class="edge">
<title>Node35&#45;&gt;Node25</title>
<g id="a_edge63_Node000035_Node000025"><a xlink:title=" ">
<path fill="none" stroke="#63b8ff" d="M1718.99,-342.33C1739.98,-335.98 1761.36,-325.16 1774,-306.75 1783.62,-292.73 1826.42,-244.23 1769,-165.75 1713.95,-90.5 1598.28,-71.52 1531.49,-67"/>
<polygon fill="#63b8ff" stroke="#63b8ff" points="1531.71,-63.51 1521.52,-66.42 1531.3,-70.5 1531.71,-63.51"/>
</a>
</g>
</g>
<!-- Node35&#45;&gt;Node29 -->
<g id="edge64_Node000035_Node000029" class="edge">
<title>Node35&#45;&gt;Node29</title>
<g id="a_edge64_Node000035_Node000029"><a xlink:title=" ">
<path fill="none" stroke="#63b8ff" d="M1645,-342.37C1634.5,-334.33 1620.31,-321.55 1613,-306.75 1595.99,-272.3 1624.38,-252.23 1602,-221 1569.44,-175.56 1540.75,-186.9 1489,-165.75 1417.02,-136.33 1398.9,-127.41 1323,-110.5 1202.57,-83.66 1056.8,-72.26 986.28,-68.03"/>
<polygon fill="#63b8ff" stroke="#63b8ff" points="986.51,-64.54 976.32,-67.46 986.11,-71.53 986.51,-64.54"/>
</a>
</g>
</g>
<!-- Node35&#45;&gt;Node33 -->
<g id="edge67_Node000035_Node000033" class="edge">
<title>Node35&#45;&gt;Node33</title>
<g id="a_edge67_Node000035_Node000033"><a xlink:title=" ">
<path fill="none" stroke="#63b8ff" d="M1595.78,-349.67C1315.71,-341.69 183.48,-306.12 133,-251.5 123.8,-241.55 123.96,-231.11 133,-221 155.76,-195.55 377.92,-182.88 480.07,-178.36"/>
<polygon fill="#63b8ff" stroke="#63b8ff" points="479.98,-181.87 489.82,-177.94 479.68,-174.88 479.98,-181.87"/>
</a>
</g>
</g>
<!-- Node36 -->
<g id="Node000036" class="node">
<title>Node36</title>
<g id="a_Node000036"><a xlink:title=" ">
<polygon fill="#e0e0e0" stroke="#999999" points="1688.5,-306.75 1627.5,-306.75 1627.5,-287.5 1688.5,-287.5 1688.5,-306.75"/>
<text xml:space="preserve" text-anchor="middle" x="1658" y="-293.25" font-family="Helvetica,sans-Serif" font-size="10.00">filesystem</text>
</a>
</g>
</g>
<!-- Node35&#45;&gt;Node36 -->
<g id="edge58_Node000035_Node000036" class="edge">
<title>Node35&#45;&gt;Node36</title>
<g id="a_edge58_Node000035_Node000036"><a xlink:title=" ">
<path fill="none" stroke="#63b8ff" d="M1658,-342.58C1658,-336.07 1658,-326.92 1658,-318.62"/>
<polygon fill="#63b8ff" stroke="#63b8ff" points="1661.5,-318.62 1658,-308.62 1654.5,-318.62 1661.5,-318.62"/>
</a>
</g>
</g>
<!-- Node37 -->
<g id="Node000037" class="node">
<title>Node37</title>
<g id="a_Node000037"><a xlink:title=" ">
<polygon fill="#e0e0e0" stroke="#999999" points="1765,-306.75 1707,-306.75 1707,-287.5 1765,-287.5 1765,-306.75"/>
<text xml:space="preserve" text-anchor="middle" x="1736" y="-293.25" font-family="Helvetica,sans-Serif" font-size="10.00">functional</text>
</a>
</g>
</g>
<!-- Node35&#45;&gt;Node37 -->
<g id="edge59_Node000035_Node000037" class="edge">
<title>Node35&#45;&gt;Node37</title>
<g id="a_edge59_Node000035_Node000037"><a xlink:title=" ">
<path fill="none" stroke="#63b8ff" d="M1671.23,-342.34C1682.77,-334.46 1699.77,-322.86 1713.45,-313.52"/>
<polygon fill="#63b8ff" stroke="#63b8ff" points="1715.17,-316.58 1721.45,-308.06 1711.22,-310.8 1715.17,-316.58"/>
</a>
</g>
</g>
</g>
</svg>
