<?xml version="1.0" encoding="UTF-8" standalone="no"?>
<!DOCTYPE svg PUBLIC "-//W3C//DTD SVG 1.1//EN"
 "http://www.w3.org/Graphics/SVG/1.1/DTD/svg11.dtd">
<!-- Generated by graphviz version 12.1.0 (20240811.2233)
 -->
<!-- Title: src/nwb/device/Device.hpp Pages: 1 -->
<svg width="379pt" height="248pt"
 viewBox="0.00 0.00 378.88 248.25" xmlns="http://www.w3.org/2000/svg" xmlns:xlink="http://www.w3.org/1999/xlink">
<g id="graph0" class="graph" transform="scale(1 1) rotate(0) translate(4 244.25)">
<title>src/nwb/device/Device.hpp</title>
<!-- Node1 -->
<g id="Node000001" class="node">
<title>Node1</title>
<g id="a_Node000001"><a xlink:title=" ">
<polygon fill="#999999" stroke="#666666" points="134.5,-240.25 0,-240.25 0,-221 134.5,-221 134.5,-240.25"/>
<text text-anchor="middle" x="67.25" y="-226.75" font-family="Helvetica,sans-Serif" font-size="10.00">src/nwb/device/Device.hpp</text>
</a>
</g>
</g>
<!-- Node2 -->
<g id="Node000002" class="node">
<title>Node2</title>
<g id="a_Node000002"><a xlink:title=" ">
<polygon fill="#e0e0e0" stroke="#999999" points="49.25,-74.5 9.25,-74.5 9.25,-55.25 49.25,-55.25 49.25,-74.5"/>
<text text-anchor="middle" x="29.25" y="-61" font-family="Helvetica,sans-Serif" font-size="10.00">string</text>
</a>
</g>
</g>
<!-- Node1&#45;&gt;Node2 -->
<g id="edge1_Node000001_Node000002" class="edge">
<title>Node1&#45;&gt;Node2</title>
<g id="a_edge1_Node000001_Node000002"><a xlink:title=" ">
<path fill="none" stroke="#63b8ff" d="M65.21,-220.82C59.3,-195.39 42.12,-121.35 33.83,-85.62"/>
<polygon fill="#63b8ff" stroke="#63b8ff" points="37.32,-85.15 31.65,-76.2 30.5,-86.73 37.32,-85.15"/>
</a>
</g>
</g>
<!-- Node3 -->
<g id="Node000003" class="node">
<title>Node3</title>
<g id="a_Node000003"><a xlink:href="_base_i_o_8hpp.html" target="_top" xlink:title=" ">
<polygon fill="white" stroke="#666666" points="196.12,-129.75 128.38,-129.75 128.38,-110.5 196.12,-110.5 196.12,-129.75"/>
<text text-anchor="middle" x="162.25" y="-116.25" font-family="Helvetica,sans-Serif" font-size="10.00">BaseIO.hpp</text>
</a>
</g>
</g>
<!-- Node1&#45;&gt;Node3 -->
<g id="edge2_Node000001_Node000003" class="edge">
<title>Node1&#45;&gt;Node3</title>
<g id="a_edge2_Node000001_Node000003"><a xlink:title=" ">
<path fill="none" stroke="#63b8ff" d="M67.84,-220.85C69.14,-207.62 73.27,-182.33 86.25,-165.75 96.73,-152.37 112.42,-142.21 126.82,-134.98"/>
<polygon fill="#63b8ff" stroke="#63b8ff" points="128.04,-138.27 135.62,-130.87 125.08,-131.93 128.04,-138.27"/>
</a>
</g>
</g>
<!-- Node10 -->
<g id="Node000010" class="node">
<title>Node10</title>
<g id="a_Node000010"><a xlink:href="_container_8hpp.html" target="_top" xlink:title=" ">
<polygon fill="white" stroke="#666666" points="241.12,-185 95.38,-185 95.38,-165.75 241.12,-165.75 241.12,-185"/>
<text text-anchor="middle" x="168.25" y="-171.5" font-family="Helvetica,sans-Serif" font-size="10.00">nwb/hdmf/base/Container.hpp</text>
</a>
</g>
</g>
<!-- Node1&#45;&gt;Node10 -->
<g id="edge11_Node000001_Node000010" class="edge">
<title>Node1&#45;&gt;Node10</title>
<g id="a_edge11_Node000001_Node000010"><a xlink:title=" ">
<path fill="none" stroke="#63b8ff" d="M84.38,-220.59C99.91,-212.41 123.05,-200.21 141.09,-190.69"/>
<polygon fill="#63b8ff" stroke="#63b8ff" points="142.48,-193.92 149.69,-186.16 139.22,-187.73 142.48,-193.92"/>
</a>
</g>
</g>
<!-- Node3&#45;&gt;Node2 -->
<g id="edge6_Node000003_Node000002" class="edge">
<title>Node3&#45;&gt;Node2</title>
<g id="a_edge6_Node000003_Node000002"><a xlink:title=" ">
<path fill="none" stroke="#63b8ff" d="M139.69,-110.09C117.84,-101.34 84.53,-88.01 60.21,-78.27"/>
<polygon fill="#63b8ff" stroke="#63b8ff" points="61.72,-75.11 51.14,-74.64 59.12,-81.61 61.72,-75.11"/>
</a>
</g>
</g>
<!-- Node4 -->
<g id="Node000004" class="node">
<title>Node4</title>
<g id="a_Node000004"><a xlink:title=" ">
<polygon fill="#e0e0e0" stroke="#999999" points="112.88,-74.5 67.62,-74.5 67.62,-55.25 112.88,-55.25 112.88,-74.5"/>
<text text-anchor="middle" x="90.25" y="-61" font-family="Helvetica,sans-Serif" font-size="10.00">cstdint</text>
</a>
</g>
</g>
<!-- Node3&#45;&gt;Node4 -->
<g id="edge3_Node000003_Node000004" class="edge">
<title>Node3&#45;&gt;Node4</title>
<g id="a_edge3_Node000003_Node000004"><a xlink:title=" ">
<path fill="none" stroke="#63b8ff" d="M150.04,-110.09C139.42,-102.24 123.81,-90.7 111.21,-81.37"/>
<polygon fill="#63b8ff" stroke="#63b8ff" points="113.62,-78.81 103.5,-75.67 109.46,-84.44 113.62,-78.81"/>
</a>
</g>
</g>
<!-- Node5 -->
<g id="Node000005" class="node">
<title>Node5</title>
<g id="a_Node000005"><a xlink:title=" ">
<polygon fill="#e0e0e0" stroke="#999999" points="184,-74.5 130.5,-74.5 130.5,-55.25 184,-55.25 184,-74.5"/>
<text text-anchor="middle" x="157.25" y="-61" font-family="Helvetica,sans-Serif" font-size="10.00">iostream</text>
</a>
</g>
</g>
<!-- Node3&#45;&gt;Node5 -->
<g id="edge4_Node000003_Node000005" class="edge">
<title>Node3&#45;&gt;Node5</title>
<g id="a_edge4_Node000003_Node000005"><a xlink:title=" ">
<path fill="none" stroke="#63b8ff" d="M161.42,-110.33C160.81,-103.74 159.93,-94.46 159.15,-86.07"/>
<polygon fill="#63b8ff" stroke="#63b8ff" points="162.65,-86 158.24,-76.37 155.69,-86.65 162.65,-86"/>
</a>
</g>
</g>
<!-- Node6 -->
<g id="Node000006" class="node">
<title>Node6</title>
<g id="a_Node000006"><a xlink:title=" ">
<polygon fill="#e0e0e0" stroke="#999999" points="370.88,-74.5 319.62,-74.5 319.62,-55.25 370.88,-55.25 370.88,-74.5"/>
<text text-anchor="middle" x="345.25" y="-61" font-family="Helvetica,sans-Serif" font-size="10.00">memory</text>
</a>
</g>
</g>
<!-- Node3&#45;&gt;Node6 -->
<g id="edge5_Node000003_Node000006" class="edge">
<title>Node3&#45;&gt;Node6</title>
<g id="a_edge5_Node000003_Node000006"><a xlink:title=" ">
<path fill="none" stroke="#63b8ff" d="M193.29,-110.09C225.18,-100.81 274.79,-86.38 308.58,-76.54"/>
<polygon fill="#63b8ff" stroke="#63b8ff" points="309.31,-79.98 317.94,-73.82 307.36,-73.26 309.31,-79.98"/>
</a>
</g>
</g>
<!-- Node7 -->
<g id="Node000007" class="node">
<title>Node7</title>
<g id="a_Node000007"><a xlink:title=" ">
<polygon fill="#e0e0e0" stroke="#999999" points="233.75,-19.25 190.75,-19.25 190.75,0 233.75,0 233.75,-19.25"/>
<text text-anchor="middle" x="212.25" y="-5.75" font-family="Helvetica,sans-Serif" font-size="10.00">vector</text>
</a>
</g>
</g>
<!-- Node3&#45;&gt;Node7 -->
<g id="edge7_Node000003_Node000007" class="edge">
<title>Node3&#45;&gt;Node7</title>
<g id="a_edge7_Node000003_Node000007"><a xlink:title=" ">
<path fill="none" stroke="#63b8ff" d="M169.83,-110.09C176.76,-101.43 186.87,-87.76 193.25,-74.5 200.01,-60.43 204.92,-43.46 208.06,-30.54"/>
<polygon fill="#63b8ff" stroke="#63b8ff" points="211.4,-31.63 210.19,-21.11 204.57,-30.09 211.4,-31.63"/>
</a>
</g>
</g>
<!-- Node8 -->
<g id="Node000008" class="node">
<title>Node8</title>
<g id="a_Node000008"><a xlink:href="_types_8hpp.html" target="_top" xlink:title=" ">
<polygon fill="white" stroke="#666666" points="301.75,-74.5 240.75,-74.5 240.75,-55.25 301.75,-55.25 301.75,-74.5"/>
<text text-anchor="middle" x="271.25" y="-61" font-family="Helvetica,sans-Serif" font-size="10.00">Types.hpp</text>
</a>
</g>
</g>
<!-- Node3&#45;&gt;Node8 -->
<g id="edge8_Node000003_Node000008" class="edge">
<title>Node3&#45;&gt;Node8</title>
<g id="a_edge8_Node000003_Node000008"><a xlink:title=" ">
<path fill="none" stroke="#63b8ff" d="M180.74,-110.09C197.65,-101.83 222.94,-89.48 242.49,-79.93"/>
<polygon fill="#63b8ff" stroke="#63b8ff" points="243.86,-83.15 251.31,-75.62 240.79,-76.86 243.86,-83.15"/>
</a>
</g>
</g>
<!-- Node8&#45;&gt;Node7 -->
<g id="edge10_Node000008_Node000007" class="edge">
<title>Node8&#45;&gt;Node7</title>
<g id="a_edge10_Node000008_Node000007"><a xlink:title=" ">
<path fill="none" stroke="#63b8ff" d="M261.24,-54.84C252.88,-47.3 240.75,-36.35 230.65,-27.23"/>
<polygon fill="#63b8ff" stroke="#63b8ff" points="233,-24.64 223.23,-20.54 228.31,-29.84 233,-24.64"/>
</a>
</g>
</g>
<!-- Node9 -->
<g id="Node000009" class="node">
<title>Node9</title>
<g id="a_Node000009"><a xlink:title=" ">
<polygon fill="#e0e0e0" stroke="#999999" points="300.38,-19.25 252.12,-19.25 252.12,0 300.38,0 300.38,-19.25"/>
<text text-anchor="middle" x="276.25" y="-5.75" font-family="Helvetica,sans-Serif" font-size="10.00">cstddef</text>
</a>
</g>
</g>
<!-- Node8&#45;&gt;Node9 -->
<g id="edge9_Node000008_Node000009" class="edge">
<title>Node8&#45;&gt;Node9</title>
<g id="a_edge9_Node000008_Node000009"><a xlink:title=" ">
<path fill="none" stroke="#63b8ff" d="M272.08,-55.08C272.69,-48.49 273.57,-39.21 274.35,-30.82"/>
<polygon fill="#63b8ff" stroke="#63b8ff" points="277.81,-31.4 275.26,-21.12 270.85,-30.75 277.81,-31.4"/>
</a>
</g>
</g>
<!-- Node10&#45;&gt;Node2 -->
<g id="edge13_Node000010_Node000002" class="edge">
<title>Node10&#45;&gt;Node2</title>
<g id="a_edge13_Node000010_Node000002"><a xlink:title=" ">
<path fill="none" stroke="#63b8ff" d="M156.88,-165.5C133.46,-147.22 79.57,-105.15 49.85,-81.96"/>
<polygon fill="#63b8ff" stroke="#63b8ff" points="52.01,-79.2 41.98,-75.81 47.7,-84.72 52.01,-79.2"/>
</a>
</g>
</g>
<!-- Node10&#45;&gt;Node3 -->
<g id="edge14_Node000010_Node000003" class="edge">
<title>Node10&#45;&gt;Node3</title>
<g id="a_edge14_Node000010_Node000003"><a xlink:title=" ">
<path fill="none" stroke="#63b8ff" d="M167.26,-165.58C166.52,-158.99 165.47,-149.71 164.53,-141.32"/>
<polygon fill="#63b8ff" stroke="#63b8ff" points="168.03,-141.16 163.43,-131.61 161.07,-141.94 168.03,-141.16"/>
</a>
</g>
</g>
<!-- Node10&#45;&gt;Node6 -->
<g id="edge12_Node000010_Node000006" class="edge">
<title>Node10&#45;&gt;Node6</title>
<g id="a_edge12_Node000010_Node000006"><a xlink:title=" ">
<path fill="none" stroke="#63b8ff" d="M183.04,-165.31C213.57,-146.6 283.83,-103.53 321.06,-80.7"/>
<polygon fill="#63b8ff" stroke="#63b8ff" points="322.64,-83.84 329.34,-75.63 318.98,-77.87 322.64,-83.84"/>
</a>
</g>
</g>
</g>
</svg>
