<?xml version="1.0" encoding="UTF-8" standalone="no"?>
<!DOCTYPE svg PUBLIC "-//W3C//DTD SVG 1.1//EN"
 "http://www.w3.org/Graphics/SVG/1.1/DTD/svg11.dtd">
<!-- Generated by graphviz version 12.2.1 (20241206.2353)
 -->
<!-- Title: src/nwb/hdmf/table/DynamicTable.hpp Pages: 1 -->
<svg width="2225pt" height="492pt"
 viewBox="0.00 0.00 2225.00 491.75" xmlns="http://www.w3.org/2000/svg" xmlns:xlink="http://www.w3.org/1999/xlink">
<g id="graph0" class="graph" transform="scale(1 1) rotate(0) translate(4 487.75)">
<title>src/nwb/hdmf/table/DynamicTable.hpp</title>
<!-- Node1 -->
<g id="Node000001" class="node">
<title>Node1</title>
<g id="a_Node000001"><a xlink:title=" ">
<polygon fill="#999999" stroke="#666666" points="1693,-483.75 1593,-483.75 1593,-453.25 1693,-453.25 1693,-483.75"/>
<text text-anchor="start" x="1601" y="-470.25" font-family="Helvetica,sans-Serif" font-size="10.00">src/nwb/hdmf/table</text>
<text text-anchor="middle" x="1643" y="-459" font-family="Helvetica,sans-Serif" font-size="10.00">/DynamicTable.hpp</text>
</a>
</g>
</g>
<!-- Node2 -->
<g id="Node000002" class="node">
<title>Node2</title>
<g id="a_Node000002"><a xlink:title=" ">
<polygon fill="#e0e0e0" stroke="#999999" points="153,-74.5 113,-74.5 113,-55.25 153,-55.25 153,-74.5"/>
<text text-anchor="middle" x="133" y="-61" font-family="Helvetica,sans-Serif" font-size="10.00">string</text>
</a>
</g>
</g>
<!-- Node1&#45;&gt;Node2 -->
<g id="edge1_Node000001_Node000002" class="edge">
<title>Node1&#45;&gt;Node2</title>
<g id="a_edge1_Node000001_Node000002"><a xlink:title=" ">
<path fill="none" stroke="#63b8ff" d="M1592.93,-466.71C1317.58,-462.02 0,-435.31 0,-353.38 0,-353.38 0,-353.38 0,-180 0,-126.58 62.56,-92.75 101.87,-76.77"/>
<polygon fill="#63b8ff" stroke="#63b8ff" points="103.04,-80.07 111.1,-73.19 100.51,-73.54 103.04,-80.07"/>
</a>
</g>
</g>
<!-- Node3 -->
<g id="Node000003" class="node">
<title>Node3</title>
<g id="a_Node000003"><a xlink:href="_utils_8hpp.html" target="_top" xlink:title=" ">
<polygon fill="white" stroke="#666666" points="782.5,-251.5 727.5,-251.5 727.5,-232.25 782.5,-232.25 782.5,-251.5"/>
<text text-anchor="middle" x="755" y="-238" font-family="Helvetica,sans-Serif" font-size="10.00">Utils.hpp</text>
</a>
</g>
</g>
<!-- Node1&#45;&gt;Node3 -->
<g id="edge2_Node000001_Node000003" class="edge">
<title>Node1&#45;&gt;Node3</title>
<g id="a_edge2_Node000001_Node000003"><a xlink:title=" ">
<path fill="none" stroke="#63b8ff" d="M1592.85,-456.09C1481.87,-430.67 1207.24,-366.89 979,-306.75 913.71,-289.55 838.3,-267.61 793.74,-254.44"/>
<polygon fill="#63b8ff" stroke="#63b8ff" points="794.87,-251.12 784.29,-251.63 792.88,-257.83 794.87,-251.12"/>
</a>
</g>
</g>
<!-- Node18 -->
<g id="Node000018" class="node">
<title>Node18</title>
<g id="a_Node000018"><a xlink:href="_base_i_o_8hpp.html" target="_top" xlink:title=" ">
<polygon fill="white" stroke="#666666" points="1855.12,-129.75 1776.88,-129.75 1776.88,-110.5 1855.12,-110.5 1855.12,-129.75"/>
<text text-anchor="middle" x="1816" y="-116.25" font-family="Helvetica,sans-Serif" font-size="10.00">io/BaseIO.hpp</text>
</a>
</g>
</g>
<!-- Node1&#45;&gt;Node18 -->
<g id="edge48_Node000001_Node000018" class="edge">
<title>Node1&#45;&gt;Node18</title>
<g id="a_edge48_Node000001_Node000018"><a xlink:title=" ">
<path fill="none" stroke="#63b8ff" d="M1649.42,-452.78C1659.71,-429.33 1680.73,-382.1 1700,-342.75 1737.38,-266.43 1785.39,-177.29 1805.94,-139.53"/>
<polygon fill="#63b8ff" stroke="#63b8ff" points="1808.75,-141.69 1810.46,-131.23 1802.6,-138.34 1808.75,-141.69"/>
</a>
</g>
</g>
<!-- Node30 -->
<g id="Node000030" class="node">
<title>Node30</title>
<g id="a_Node000030"><a xlink:href="_read_i_o_8hpp.html" target="_top" xlink:title=" ">
<polygon fill="white" stroke="#666666" points="1720.5,-129.75 1641.5,-129.75 1641.5,-110.5 1720.5,-110.5 1720.5,-129.75"/>
<text text-anchor="middle" x="1681" y="-116.25" font-family="Helvetica,sans-Serif" font-size="10.00">io/ReadIO.hpp</text>
</a>
</g>
</g>
<!-- Node1&#45;&gt;Node30 -->
<g id="edge49_Node000001_Node000030" class="edge">
<title>Node1&#45;&gt;Node30</title>
<g id="a_edge49_Node000001_Node000030"><a xlink:title=" ">
<path fill="none" stroke="#63b8ff" d="M1643,-453.09C1643,-431.44 1643,-389.24 1643,-353.38 1643,-353.38 1643,-353.38 1643,-296.12 1643,-250.67 1655.38,-240.67 1665,-196.25 1669.06,-177.52 1673.6,-156.13 1676.81,-140.98"/>
<polygon fill="#63b8ff" stroke="#63b8ff" points="1680.19,-141.91 1678.83,-131.4 1673.34,-140.46 1680.19,-141.91"/>
</a>
</g>
</g>
<!-- Node32 -->
<g id="Node000032" class="node">
<title>Node32</title>
<g id="a_Node000032"><a xlink:href="_container_8hpp.html" target="_top" xlink:title=" ">
<polygon fill="white" stroke="#666666" points="1998.88,-362 1853.12,-362 1853.12,-342.75 1998.88,-342.75 1998.88,-362"/>
<text text-anchor="middle" x="1926" y="-348.5" font-family="Helvetica,sans-Serif" font-size="10.00">nwb/hdmf/base/Container.hpp</text>
</a>
</g>
</g>
<!-- Node1&#45;&gt;Node32 -->
<g id="edge50_Node000001_Node000032" class="edge">
<title>Node1&#45;&gt;Node32</title>
<g id="a_edge50_Node000001_Node000032"><a xlink:title=" ">
<path fill="none" stroke="#63b8ff" d="M1693.49,-463.52C1759.71,-457.34 1871.12,-443.34 1902,-417.25 1914.88,-406.37 1920.85,-387.85 1923.62,-373.54"/>
<polygon fill="#63b8ff" stroke="#63b8ff" points="1927.05,-374.26 1925.1,-363.85 1920.13,-373.21 1927.05,-374.26"/>
</a>
</g>
</g>
<!-- Node36 -->
<g id="Node000036" class="node">
<title>Node36</title>
<g id="a_Node000036"><a xlink:href="_element_identifiers_8hpp.html" target="_top" xlink:title=" ">
<polygon fill="white" stroke="#666666" points="1892.62,-417.25 1709.38,-417.25 1709.38,-398 1892.62,-398 1892.62,-417.25"/>
<text text-anchor="middle" x="1801" y="-403.75" font-family="Helvetica,sans-Serif" font-size="10.00">nwb/hdmf/table/ElementIdentifiers.hpp</text>
</a>
</g>
</g>
<!-- Node1&#45;&gt;Node36 -->
<g id="edge64_Node000001_Node000036" class="edge">
<title>Node1&#45;&gt;Node36</title>
<g id="a_edge64_Node000001_Node000036"><a xlink:title=" ">
<path fill="none" stroke="#63b8ff" d="M1682.46,-452.8C1708.14,-443.23 1741.34,-430.86 1766.06,-421.64"/>
<polygon fill="#63b8ff" stroke="#63b8ff" points="1767.2,-424.95 1775.35,-418.18 1764.76,-418.39 1767.2,-424.95"/>
</a>
</g>
</g>
<!-- Node38 -->
<g id="Node000038" class="node">
<title>Node38</title>
<g id="a_Node000038"><a xlink:href="_vector_data_8hpp.html" target="_top" xlink:title=" ">
<polygon fill="white" stroke="#666666" points="1615,-417.25 1461,-417.25 1461,-398 1615,-398 1615,-417.25"/>
<text text-anchor="middle" x="1538" y="-403.75" font-family="Helvetica,sans-Serif" font-size="10.00">nwb/hdmf/table/VectorData.hpp</text>
</a>
</g>
</g>
<!-- Node1&#45;&gt;Node38 -->
<g id="edge69_Node000001_Node000038" class="edge">
<title>Node1&#45;&gt;Node38</title>
<g id="a_edge69_Node000001_Node000038"><a xlink:title=" ">
<path fill="none" stroke="#63b8ff" d="M1616.77,-452.8C1600.63,-443.74 1580.02,-432.19 1563.93,-423.16"/>
<polygon fill="#63b8ff" stroke="#63b8ff" points="1565.86,-420.23 1555.42,-418.39 1562.43,-426.34 1565.86,-420.23"/>
</a>
</g>
</g>
<!-- Node3&#45;&gt;Node2 -->
<g id="edge11_Node000003_Node000002" class="edge">
<title>Node3&#45;&gt;Node2</title>
<g id="a_edge11_Node000003_Node000002"><a xlink:title=" ">
<path fill="none" stroke="#63b8ff" d="M727.23,-239.63C614.09,-234.44 192.86,-213.99 171,-196.25 137.99,-169.46 132.63,-115.73 132.34,-86.3"/>
<polygon fill="#63b8ff" stroke="#63b8ff" points="135.84,-86.55 132.46,-76.51 128.84,-86.47 135.84,-86.55"/>
</a>
</g>
</g>
<!-- Node4 -->
<g id="Node000004" class="node">
<title>Node4</title>
<g id="a_Node000004"><a xlink:title=" ">
<polygon fill="#e0e0e0" stroke="#999999" points="235.88,-190.62 180.12,-190.62 180.12,-171.38 235.88,-171.38 235.88,-190.62"/>
<text text-anchor="middle" x="208" y="-177.12" font-family="Helvetica,sans-Serif" font-size="10.00">algorithm</text>
</a>
</g>
</g>
<!-- Node3&#45;&gt;Node4 -->
<g id="edge3_Node000003_Node000004" class="edge">
<title>Node3&#45;&gt;Node4</title>
<g id="a_edge3_Node000003_Node000004"><a xlink:title=" ">
<path fill="none" stroke="#63b8ff" d="M727.21,-241.15C649.76,-241.35 425.33,-237.99 245,-196.25 243.11,-195.81 241.19,-195.3 239.26,-194.73"/>
<polygon fill="#63b8ff" stroke="#63b8ff" points="240.45,-191.44 229.85,-191.52 238.19,-198.06 240.45,-191.44"/>
</a>
</g>
</g>
<!-- Node5 -->
<g id="Node000005" class="node">
<title>Node5</title>
<g id="a_Node000005"><a xlink:title=" ">
<polygon fill="#e0e0e0" stroke="#999999" points="299.62,-190.62 254.38,-190.62 254.38,-171.38 299.62,-171.38 299.62,-190.62"/>
<text text-anchor="middle" x="277" y="-177.12" font-family="Helvetica,sans-Serif" font-size="10.00">chrono</text>
</a>
</g>
</g>
<!-- Node3&#45;&gt;Node5 -->
<g id="edge4_Node000003_Node000005" class="edge">
<title>Node3&#45;&gt;Node5</title>
<g id="a_edge4_Node000003_Node000005"><a xlink:title=" ">
<path fill="none" stroke="#63b8ff" d="M727.05,-241.14C655.96,-241.16 463,-237.11 309,-196.25 307.64,-195.89 306.27,-195.48 304.9,-195.03"/>
<polygon fill="#63b8ff" stroke="#63b8ff" points="306.57,-191.93 295.98,-191.58 304.04,-198.45 306.57,-191.93"/>
</a>
</g>
</g>
<!-- Node6 -->
<g id="Node000006" class="node">
<title>Node6</title>
<g id="a_Node000006"><a xlink:title=" ">
<polygon fill="#e0e0e0" stroke="#999999" points="360.5,-190.62 317.5,-190.62 317.5,-171.38 360.5,-171.38 360.5,-190.62"/>
<text text-anchor="middle" x="339" y="-177.12" font-family="Helvetica,sans-Serif" font-size="10.00">cmath</text>
</a>
</g>
</g>
<!-- Node3&#45;&gt;Node6 -->
<g id="edge5_Node000003_Node000006" class="edge">
<title>Node3&#45;&gt;Node6</title>
<g id="a_edge5_Node000003_Node000006"><a xlink:title=" ">
<path fill="none" stroke="#63b8ff" d="M727.36,-240.63C663.3,-239.44 500.23,-232.73 370,-196.25 368.83,-195.92 367.65,-195.56 366.47,-195.16"/>
<polygon fill="#63b8ff" stroke="#63b8ff" points="368,-192 357.42,-191.55 365.41,-198.5 368,-192"/>
</a>
</g>
</g>
<!-- Node7 -->
<g id="Node000007" class="node">
<title>Node7</title>
<g id="a_Node000007"><a xlink:title=" ">
<polygon fill="#e0e0e0" stroke="#999999" points="1536.62,-74.5 1491.38,-74.5 1491.38,-55.25 1536.62,-55.25 1536.62,-74.5"/>
<text text-anchor="middle" x="1514" y="-61" font-family="Helvetica,sans-Serif" font-size="10.00">cstdint</text>
</a>
</g>
</g>
<!-- Node3&#45;&gt;Node7 -->
<g id="edge6_Node000003_Node000007" class="edge">
<title>Node3&#45;&gt;Node7</title>
<g id="a_edge6_Node000003_Node000007"><a xlink:title=" ">
<path fill="none" stroke="#63b8ff" d="M782.86,-240.87C907.26,-240.64 1408.34,-237.15 1464,-196.25 1482.36,-182.76 1500.72,-118.78 1509.18,-85.74"/>
<polygon fill="#63b8ff" stroke="#63b8ff" points="1512.52,-86.78 1511.55,-76.23 1505.73,-85.08 1512.52,-86.78"/>
</a>
</g>
</g>
<!-- Node8 -->
<g id="Node000008" class="node">
<title>Node8</title>
<g id="a_Node000008"><a xlink:title=" ">
<polygon fill="#e0e0e0" stroke="#999999" points="419,-190.62 379,-190.62 379,-171.38 419,-171.38 419,-190.62"/>
<text text-anchor="middle" x="399" y="-177.12" font-family="Helvetica,sans-Serif" font-size="10.00">ctime</text>
</a>
</g>
</g>
<!-- Node3&#45;&gt;Node8 -->
<g id="edge7_Node000003_Node000008" class="edge">
<title>Node3&#45;&gt;Node8</title>
<g id="a_edge7_Node000003_Node000008"><a xlink:title=" ">
<path fill="none" stroke="#63b8ff" d="M727.23,-240.07C670.03,-237.77 535.41,-229.03 428,-196.25 427.2,-196 426.39,-195.74 425.57,-195.46"/>
<polygon fill="#63b8ff" stroke="#63b8ff" points="427.16,-192.33 416.58,-191.67 424.44,-198.78 427.16,-192.33"/>
</a>
</g>
</g>
<!-- Node9 -->
<g id="Node000009" class="node">
<title>Node9</title>
<g id="a_Node000009"><a xlink:title=" ">
<polygon fill="#e0e0e0" stroke="#999999" points="486.88,-190.62 437.12,-190.62 437.12,-171.38 486.88,-171.38 486.88,-190.62"/>
<text text-anchor="middle" x="462" y="-177.12" font-family="Helvetica,sans-Serif" font-size="10.00">iomanip</text>
</a>
</g>
</g>
<!-- Node3&#45;&gt;Node9 -->
<g id="edge8_Node000003_Node000009" class="edge">
<title>Node3&#45;&gt;Node9</title>
<g id="a_edge8_Node000003_Node000009"><a xlink:title=" ">
<path fill="none" stroke="#63b8ff" d="M727.32,-238.19C679.43,-233.07 578.35,-220.26 496,-196.25 494.65,-195.86 493.29,-195.43 491.91,-194.97"/>
<polygon fill="#63b8ff" stroke="#63b8ff" points="493.51,-191.83 482.92,-191.59 491.05,-198.38 493.51,-191.83"/>
</a>
</g>
</g>
<!-- Node10 -->
<g id="Node000010" class="node">
<title>Node10</title>
<g id="a_Node000010"><a xlink:title=" ">
<polygon fill="#e0e0e0" stroke="#999999" points="545,-190.62 505,-190.62 505,-171.38 545,-171.38 545,-190.62"/>
<text text-anchor="middle" x="525" y="-177.12" font-family="Helvetica,sans-Serif" font-size="10.00">regex</text>
</a>
</g>
</g>
<!-- Node3&#45;&gt;Node10 -->
<g id="edge9_Node000003_Node000010" class="edge">
<title>Node3&#45;&gt;Node10</title>
<g id="a_edge9_Node000003_Node000010"><a xlink:title=" ">
<path fill="none" stroke="#63b8ff" d="M727.11,-236.84C687.76,-230.67 614.04,-217.32 554,-196.25 553.35,-196.02 552.71,-195.79 552.05,-195.54"/>
<polygon fill="#63b8ff" stroke="#63b8ff" points="553.53,-192.37 542.96,-191.59 550.74,-198.79 553.53,-192.37"/>
</a>
</g>
</g>
<!-- Node11 -->
<g id="Node000011" class="node">
<title>Node11</title>
<g id="a_Node000011"><a xlink:title=" ">
<polygon fill="#e0e0e0" stroke="#999999" points="614.62,-190.62 563.38,-190.62 563.38,-171.38 614.62,-171.38 614.62,-190.62"/>
<text text-anchor="middle" x="589" y="-177.12" font-family="Helvetica,sans-Serif" font-size="10.00">sstream</text>
</a>
</g>
</g>
<!-- Node3&#45;&gt;Node11 -->
<g id="edge10_Node000003_Node000011" class="edge">
<title>Node3&#45;&gt;Node11</title>
<g id="a_edge10_Node000003_Node000011"><a xlink:title=" ">
<path fill="none" stroke="#63b8ff" d="M727.23,-231.94C700.6,-223.24 659.34,-209.45 624,-196.25 623.06,-195.9 622.11,-195.54 621.14,-195.17"/>
<polygon fill="#63b8ff" stroke="#63b8ff" points="622.76,-192.05 612.18,-191.65 620.2,-198.56 622.76,-192.05"/>
</a>
</g>
</g>
<!-- Node12 -->
<g id="Node000012" class="node">
<title>Node12</title>
<g id="a_Node000012"><a xlink:title=" ">
<polygon fill="#e0e0e0" stroke="#999999" points="737.25,-190.62 632.75,-190.62 632.75,-171.38 737.25,-171.38 737.25,-190.62"/>
<text text-anchor="middle" x="685" y="-177.12" font-family="Helvetica,sans-Serif" font-size="10.00">boost/date_time.hpp</text>
</a>
</g>
</g>
<!-- Node3&#45;&gt;Node12 -->
<g id="edge12_Node000003_Node000012" class="edge">
<title>Node3&#45;&gt;Node12</title>
<g id="a_edge12_Node000003_Node000012"><a xlink:title=" ">
<path fill="none" stroke="#63b8ff" d="M744.37,-231.93C733.78,-223.03 717.29,-209.16 704.37,-198.29"/>
<polygon fill="#63b8ff" stroke="#63b8ff" points="706.8,-195.76 696.89,-192 702.29,-201.12 706.8,-195.76"/>
</a>
</g>
</g>
<!-- Node13 -->
<g id="Node000013" class="node">
<title>Node13</title>
<g id="a_Node000013"><a xlink:title=" ">
<polygon fill="#e0e0e0" stroke="#999999" points="896.25,-190.62 755.75,-190.62 755.75,-171.38 896.25,-171.38 896.25,-190.62"/>
<text text-anchor="middle" x="826" y="-177.12" font-family="Helvetica,sans-Serif" font-size="10.00">boost/endian/conversion.hpp</text>
</a>
</g>
</g>
<!-- Node3&#45;&gt;Node13 -->
<g id="edge13_Node000003_Node000013" class="edge">
<title>Node3&#45;&gt;Node13</title>
<g id="a_edge13_Node000003_Node000013"><a xlink:title=" ">
<path fill="none" stroke="#63b8ff" d="M765.78,-231.93C776.52,-223.03 793.25,-209.16 806.35,-198.29"/>
<polygon fill="#63b8ff" stroke="#63b8ff" points="808.49,-201.07 813.95,-191.99 804.02,-195.68 808.49,-201.07"/>
</a>
</g>
</g>
<!-- Node14 -->
<g id="Node000014" class="node">
<title>Node14</title>
<g id="a_Node000014"><a xlink:title=" ">
<polygon fill="#e0e0e0" stroke="#999999" points="1015.38,-190.62 914.62,-190.62 914.62,-171.38 1015.38,-171.38 1015.38,-190.62"/>
<text text-anchor="middle" x="965" y="-177.12" font-family="Helvetica,sans-Serif" font-size="10.00">boost/uuid/uuid.hpp</text>
</a>
</g>
</g>
<!-- Node3&#45;&gt;Node14 -->
<g id="edge14_Node000003_Node000014" class="edge">
<title>Node3&#45;&gt;Node14</title>
<g id="a_edge14_Node000003_Node000014"><a xlink:title=" ">
<path fill="none" stroke="#63b8ff" d="M782.89,-233.06C818.35,-223.11 879.97,-205.84 921.6,-194.17"/>
<polygon fill="#63b8ff" stroke="#63b8ff" points="922.37,-197.59 931.05,-191.52 920.48,-190.85 922.37,-197.59"/>
</a>
</g>
</g>
<!-- Node15 -->
<g id="Node000015" class="node">
<title>Node15</title>
<g id="a_Node000015"><a xlink:title=" ">
<polygon fill="#e0e0e0" stroke="#999999" points="1184.88,-190.62 1033.12,-190.62 1033.12,-171.38 1184.88,-171.38 1184.88,-190.62"/>
<text text-anchor="middle" x="1109" y="-177.12" font-family="Helvetica,sans-Serif" font-size="10.00">boost/uuid/uuid_generators.hpp</text>
</a>
</g>
</g>
<!-- Node3&#45;&gt;Node15 -->
<g id="edge15_Node000003_Node000015" class="edge">
<title>Node3&#45;&gt;Node15</title>
<g id="a_edge15_Node000003_Node000015"><a xlink:title=" ">
<path fill="none" stroke="#63b8ff" d="M782.88,-236.27C831.74,-228.19 935.98,-210.93 1024,-196.25 1030.43,-195.18 1037.13,-194.06 1043.83,-192.94"/>
<polygon fill="#63b8ff" stroke="#63b8ff" points="1044.27,-196.41 1053.55,-191.31 1043.11,-189.51 1044.27,-196.41"/>
</a>
</g>
</g>
<!-- Node16 -->
<g id="Node000016" class="node">
<title>Node16</title>
<g id="a_Node000016"><a xlink:title=" ">
<polygon fill="#e0e0e0" stroke="#999999" points="1316.75,-190.62 1203.25,-190.62 1203.25,-171.38 1316.75,-171.38 1316.75,-190.62"/>
<text text-anchor="middle" x="1260" y="-177.12" font-family="Helvetica,sans-Serif" font-size="10.00">boost/uuid/uuid_io.hpp</text>
</a>
</g>
</g>
<!-- Node3&#45;&gt;Node16 -->
<g id="edge16_Node000003_Node000016" class="edge">
<title>Node3&#45;&gt;Node16</title>
<g id="a_edge16_Node000003_Node000016"><a xlink:title=" ">
<path fill="none" stroke="#63b8ff" d="M782.87,-239.12C852.52,-234.51 1039.64,-220.68 1194,-196.25 1199.29,-195.41 1204.8,-194.42 1210.28,-193.35"/>
<polygon fill="#63b8ff" stroke="#63b8ff" points="1210.81,-196.82 1219.91,-191.39 1209.42,-189.96 1210.81,-196.82"/>
</a>
</g>
</g>
<!-- Node17 -->
<g id="Node000017" class="node">
<title>Node17</title>
<g id="a_Node000017"><a xlink:title=" ">
<polygon fill="#e0e0e0" stroke="#999999" points="1454.75,-196.25 1335.25,-196.25 1335.25,-165.75 1454.75,-165.75 1454.75,-196.25"/>
<text text-anchor="start" x="1343.25" y="-182.75" font-family="Helvetica,sans-Serif" font-size="10.00">boost/date_time/c_local</text>
<text text-anchor="middle" x="1395" y="-171.5" font-family="Helvetica,sans-Serif" font-size="10.00">_time_adjustor.hpp</text>
</a>
</g>
</g>
<!-- Node3&#45;&gt;Node17 -->
<g id="edge17_Node000003_Node000017" class="edge">
<title>Node3&#45;&gt;Node17</title>
<g id="a_edge17_Node000003_Node000017"><a xlink:title=" ">
<path fill="none" stroke="#63b8ff" d="M782.77,-239.94C864.25,-236.94 1109.92,-226.05 1323.74,-196.44"/>
<polygon fill="#63b8ff" stroke="#63b8ff" points="1323.95,-199.95 1333.37,-195.09 1322.98,-193.02 1323.95,-199.95"/>
</a>
</g>
</g>
<!-- Node3&#45;&gt;Node18 -->
<g id="edge18_Node000003_Node000018" class="edge">
<title>Node3&#45;&gt;Node18</title>
<g id="a_edge18_Node000003_Node000018"><a xlink:title=" ">
<path fill="none" stroke="#63b8ff" d="M782.83,-240.64C912.48,-239.39 1457.86,-232.03 1624,-196.25 1685.15,-183.08 1752.28,-152.88 1788.73,-135.04"/>
<polygon fill="#63b8ff" stroke="#63b8ff" points="1789.84,-138.4 1797.24,-130.82 1786.73,-132.13 1789.84,-138.4"/>
</a>
</g>
</g>
<!-- Node28 -->
<g id="Node000028" class="node">
<title>Node28</title>
<g id="a_Node000028"><a xlink:href="_h_d_f5_i_o_8hpp.html" target="_top" xlink:title=" ">
<polygon fill="white" stroke="#666666" points="1614.88,-190.62 1511.12,-190.62 1511.12,-171.38 1614.88,-171.38 1614.88,-190.62"/>
<text text-anchor="middle" x="1563" y="-177.12" font-family="Helvetica,sans-Serif" font-size="10.00">io/hdf5/HDF5IO.hpp</text>
</a>
</g>
</g>
<!-- Node3&#45;&gt;Node28 -->
<g id="edge31_Node000003_Node000028" class="edge">
<title>Node3&#45;&gt;Node28</title>
<g id="a_edge31_Node000003_Node000028"><a xlink:title=" ">
<path fill="none" stroke="#63b8ff" d="M782.77,-240.73C880.89,-239.89 1220.2,-234.23 1497,-196.25 1502.73,-195.46 1508.71,-194.45 1514.62,-193.33"/>
<polygon fill="#63b8ff" stroke="#63b8ff" points="1515.24,-196.77 1524.35,-191.36 1513.85,-189.91 1515.24,-196.77"/>
</a>
</g>
</g>
<!-- Node18&#45;&gt;Node2 -->
<g id="edge23_Node000018_Node000002" class="edge">
<title>Node18&#45;&gt;Node2</title>
<g id="a_edge23_Node000018_Node000002"><a xlink:title=" ">
<path fill="none" stroke="#63b8ff" d="M1776.66,-114.58C1762.03,-113.05 1745.27,-111.48 1730,-110.5 1100.13,-70.17 328.2,-66.28 164.44,-65.91"/>
<polygon fill="#63b8ff" stroke="#63b8ff" points="164.82,-62.41 154.81,-65.89 164.81,-69.41 164.82,-62.41"/>
</a>
</g>
</g>
<!-- Node18&#45;&gt;Node7 -->
<g id="edge20_Node000018_Node000007" class="edge">
<title>Node18&#45;&gt;Node7</title>
<g id="a_edge20_Node000018_Node000007"><a xlink:title=" ">
<path fill="none" stroke="#63b8ff" d="M1776.7,-114.01C1725.93,-107.11 1634.6,-93.7 1548.03,-74.99"/>
<polygon fill="#63b8ff" stroke="#63b8ff" points="1548.95,-71.61 1538.43,-72.88 1547.45,-78.44 1548.95,-71.61"/>
</a>
</g>
</g>
<!-- Node19 -->
<g id="Node000019" class="node">
<title>Node19</title>
<g id="a_Node000019"><a xlink:title=" ">
<polygon fill="#e0e0e0" stroke="#999999" points="1695.88,-74.5 1664.12,-74.5 1664.12,-55.25 1695.88,-55.25 1695.88,-74.5"/>
<text text-anchor="middle" x="1680" y="-61" font-family="Helvetica,sans-Serif" font-size="10.00">any</text>
</a>
</g>
</g>
<!-- Node18&#45;&gt;Node19 -->
<g id="edge19_Node000018_Node000019" class="edge">
<title>Node18&#45;&gt;Node19</title>
<g id="a_edge19_Node000018_Node000019"><a xlink:title=" ">
<path fill="none" stroke="#63b8ff" d="M1792.93,-110.09C1769.14,-100.78 1732.07,-86.26 1706.95,-76.43"/>
<polygon fill="#63b8ff" stroke="#63b8ff" points="1708.33,-73.21 1697.74,-72.82 1705.78,-79.73 1708.33,-73.21"/>
</a>
</g>
</g>
<!-- Node20 -->
<g id="Node000020" class="node">
<title>Node20</title>
<g id="a_Node000020"><a xlink:title=" ">
<polygon fill="#e0e0e0" stroke="#999999" points="1607.75,-74.5 1554.25,-74.5 1554.25,-55.25 1607.75,-55.25 1607.75,-74.5"/>
<text text-anchor="middle" x="1581" y="-61" font-family="Helvetica,sans-Serif" font-size="10.00">iostream</text>
</a>
</g>
</g>
<!-- Node18&#45;&gt;Node20 -->
<g id="edge21_Node000018_Node000020" class="edge">
<title>Node18&#45;&gt;Node20</title>
<g id="a_edge21_Node000018_Node000020"><a xlink:title=" ">
<path fill="none" stroke="#63b8ff" d="M1776.4,-110.15C1732.55,-100.21 1662.34,-84.31 1619.1,-74.51"/>
<polygon fill="#63b8ff" stroke="#63b8ff" points="1619.93,-71.11 1609.4,-72.31 1618.38,-77.93 1619.93,-71.11"/>
</a>
</g>
</g>
<!-- Node21 -->
<g id="Node000021" class="node">
<title>Node21</title>
<g id="a_Node000021"><a xlink:title=" ">
<polygon fill="#e0e0e0" stroke="#999999" points="2204.62,-74.5 2153.38,-74.5 2153.38,-55.25 2204.62,-55.25 2204.62,-74.5"/>
<text text-anchor="middle" x="2179" y="-61" font-family="Helvetica,sans-Serif" font-size="10.00">memory</text>
</a>
</g>
</g>
<!-- Node18&#45;&gt;Node21 -->
<g id="edge22_Node000018_Node000021" class="edge">
<title>Node18&#45;&gt;Node21</title>
<g id="a_edge22_Node000018_Node000021"><a xlink:title=" ">
<path fill="none" stroke="#63b8ff" d="M1855.48,-115.24C1915.43,-109.01 2033.15,-95.55 2141.91,-74.92"/>
<polygon fill="#63b8ff" stroke="#63b8ff" points="2142.44,-78.39 2151.59,-73.06 2141.11,-71.51 2142.44,-78.39"/>
</a>
</g>
</g>
<!-- Node22 -->
<g id="Node000022" class="node">
<title>Node22</title>
<g id="a_Node000022"><a xlink:title=" ">
<polygon fill="#e0e0e0" stroke="#999999" points="2040.38,-74.5 1957.62,-74.5 1957.62,-55.25 2040.38,-55.25 2040.38,-74.5"/>
<text text-anchor="middle" x="1999" y="-61" font-family="Helvetica,sans-Serif" font-size="10.00">unordered_map</text>
</a>
</g>
</g>
<!-- Node18&#45;&gt;Node22 -->
<g id="edge24_Node000018_Node000022" class="edge">
<title>Node18&#45;&gt;Node22</title>
<g id="a_edge24_Node000018_Node000022"><a xlink:title=" ">
<path fill="none" stroke="#63b8ff" d="M1847.04,-110.09C1877.28,-101.29 1923.45,-87.86 1956.97,-78.11"/>
<polygon fill="#63b8ff" stroke="#63b8ff" points="1957.73,-81.53 1966.35,-75.38 1955.77,-74.81 1957.73,-81.53"/>
</a>
</g>
</g>
<!-- Node23 -->
<g id="Node000023" class="node">
<title>Node23</title>
<g id="a_Node000023"><a xlink:title=" ">
<polygon fill="#e0e0e0" stroke="#999999" points="2135.75,-74.5 2058.25,-74.5 2058.25,-55.25 2135.75,-55.25 2135.75,-74.5"/>
<text text-anchor="middle" x="2097" y="-61" font-family="Helvetica,sans-Serif" font-size="10.00">unordered_set</text>
</a>
</g>
</g>
<!-- Node18&#45;&gt;Node23 -->
<g id="edge25_Node000018_Node000023" class="edge">
<title>Node18&#45;&gt;Node23</title>
<g id="a_edge25_Node000018_Node000023"><a xlink:title=" ">
<path fill="none" stroke="#63b8ff" d="M1855.37,-111.66C1905.43,-102.18 1991.93,-85.79 2046.71,-75.4"/>
<polygon fill="#63b8ff" stroke="#63b8ff" points="2047.24,-78.87 2056.41,-73.57 2045.93,-71.99 2047.24,-78.87"/>
</a>
</g>
</g>
<!-- Node24 -->
<g id="Node000024" class="node">
<title>Node24</title>
<g id="a_Node000024"><a xlink:title=" ">
<polygon fill="#e0e0e0" stroke="#999999" points="1921.5,-19.25 1878.5,-19.25 1878.5,0 1921.5,0 1921.5,-19.25"/>
<text text-anchor="middle" x="1900" y="-5.75" font-family="Helvetica,sans-Serif" font-size="10.00">vector</text>
</a>
</g>
</g>
<!-- Node18&#45;&gt;Node24 -->
<g id="edge26_Node000018_Node000024" class="edge">
<title>Node18&#45;&gt;Node24</title>
<g id="a_edge26_Node000018_Node000024"><a xlink:title=" ">
<path fill="none" stroke="#63b8ff" d="M1855.58,-111.13C1875.85,-104.82 1898.79,-93.73 1911,-74.5 1919.48,-61.14 1915.33,-43.19 1909.86,-29.71"/>
<polygon fill="#63b8ff" stroke="#63b8ff" points="1913.21,-28.63 1905.84,-21.02 1906.86,-31.57 1913.21,-28.63"/>
</a>
</g>
</g>
<!-- Node25 -->
<g id="Node000025" class="node">
<title>Node25</title>
<g id="a_Node000025"><a xlink:title=" ">
<polygon fill="#e0e0e0" stroke="#999999" points="1822.12,-74.5 1713.88,-74.5 1713.88,-55.25 1822.12,-55.25 1822.12,-74.5"/>
<text text-anchor="middle" x="1768" y="-61" font-family="Helvetica,sans-Serif" font-size="10.00">boost/multi_array.hpp</text>
</a>
</g>
</g>
<!-- Node18&#45;&gt;Node25 -->
<g id="edge27_Node000018_Node000025" class="edge">
<title>Node18&#45;&gt;Node25</title>
<g id="a_edge27_Node000018_Node000025"><a xlink:title=" ">
<path fill="none" stroke="#63b8ff" d="M1808.07,-110.33C1801.44,-102.98 1791.78,-92.26 1783.61,-83.19"/>
<polygon fill="#63b8ff" stroke="#63b8ff" points="1786.41,-81.07 1777.11,-75.98 1781.21,-85.75 1786.41,-81.07"/>
</a>
</g>
</g>
<!-- Node26 -->
<g id="Node000026" class="node">
<title>Node26</title>
<g id="a_Node000026"><a xlink:href="_types_8hpp.html" target="_top" xlink:title=" ">
<polygon fill="white" stroke="#666666" points="1901.5,-74.5 1840.5,-74.5 1840.5,-55.25 1901.5,-55.25 1901.5,-74.5"/>
<text text-anchor="middle" x="1871" y="-61" font-family="Helvetica,sans-Serif" font-size="10.00">Types.hpp</text>
</a>
</g>
</g>
<!-- Node18&#45;&gt;Node26 -->
<g id="edge28_Node000018_Node000026" class="edge">
<title>Node18&#45;&gt;Node26</title>
<g id="a_edge28_Node000018_Node000026"><a xlink:title=" ">
<path fill="none" stroke="#63b8ff" d="M1825.08,-110.33C1832.84,-102.82 1844.21,-91.81 1853.7,-82.63"/>
<polygon fill="#63b8ff" stroke="#63b8ff" points="1855.88,-85.38 1860.63,-75.91 1851.01,-80.35 1855.88,-85.38"/>
</a>
</g>
</g>
<!-- Node26&#45;&gt;Node24 -->
<g id="edge30_Node000026_Node000024" class="edge">
<title>Node26&#45;&gt;Node24</title>
<g id="a_edge30_Node000026_Node000024"><a xlink:title=" ">
<path fill="none" stroke="#63b8ff" d="M1875.79,-55.08C1879.54,-48.19 1884.91,-38.34 1889.63,-29.66"/>
<polygon fill="#63b8ff" stroke="#63b8ff" points="1892.67,-31.39 1894.38,-20.94 1886.53,-28.05 1892.67,-31.39"/>
</a>
</g>
</g>
<!-- Node27 -->
<g id="Node000027" class="node">
<title>Node27</title>
<g id="a_Node000027"><a xlink:title=" ">
<polygon fill="#e0e0e0" stroke="#999999" points="1860.12,-19.25 1811.88,-19.25 1811.88,0 1860.12,0 1860.12,-19.25"/>
<text text-anchor="middle" x="1836" y="-5.75" font-family="Helvetica,sans-Serif" font-size="10.00">cstddef</text>
</a>
</g>
</g>
<!-- Node26&#45;&gt;Node27 -->
<g id="edge29_Node000026_Node000027" class="edge">
<title>Node26&#45;&gt;Node27</title>
<g id="a_edge29_Node000026_Node000027"><a xlink:title=" ">
<path fill="none" stroke="#63b8ff" d="M1865.22,-55.08C1860.59,-48.03 1853.93,-37.9 1848.13,-29.08"/>
<polygon fill="#63b8ff" stroke="#63b8ff" points="1851.15,-27.31 1842.74,-20.87 1845.3,-31.15 1851.15,-27.31"/>
</a>
</g>
</g>
<!-- Node28&#45;&gt;Node2 -->
<g id="edge34_Node000028_Node000002" class="edge">
<title>Node28&#45;&gt;Node2</title>
<g id="a_edge34_Node000028_Node000002"><a xlink:title=" ">
<path fill="none" stroke="#63b8ff" d="M1510.68,-171.79C1495.64,-169.61 1479.19,-167.41 1464,-165.75 946.44,-109.15 312.1,-74.97 164.65,-67.45"/>
<polygon fill="#63b8ff" stroke="#63b8ff" points="165.05,-63.97 154.89,-66.96 164.7,-70.96 165.05,-63.97"/>
</a>
</g>
</g>
<!-- Node28&#45;&gt;Node18 -->
<g id="edge37_Node000028_Node000018" class="edge">
<title>Node28&#45;&gt;Node18</title>
<g id="a_edge37_Node000028_Node000018"><a xlink:title=" ">
<path fill="none" stroke="#63b8ff" d="M1601.98,-170.93C1645.99,-160.69 1717.73,-143.99 1765.88,-132.79"/>
<polygon fill="#63b8ff" stroke="#63b8ff" points="1766.56,-136.22 1775.5,-130.55 1764.97,-129.41 1766.56,-136.22"/>
</a>
</g>
</g>
<!-- Node28&#45;&gt;Node20 -->
<g id="edge32_Node000028_Node000020" class="edge">
<title>Node28&#45;&gt;Node20</title>
<g id="a_edge32_Node000028_Node000020"><a xlink:title=" ">
<path fill="none" stroke="#63b8ff" d="M1570.64,-171.11C1578.26,-161.6 1589.47,-145.73 1594,-129.75 1598.21,-114.91 1594.25,-97.77 1589.63,-84.98"/>
<polygon fill="#63b8ff" stroke="#63b8ff" points="1593.01,-83.99 1585.99,-76.06 1586.53,-86.64 1593.01,-83.99"/>
</a>
</g>
</g>
<!-- Node28&#45;&gt;Node21 -->
<g id="edge33_Node000028_Node000021" class="edge">
<title>Node28&#45;&gt;Node21</title>
<g id="a_edge33_Node000028_Node000021"><a xlink:title=" ">
<path fill="none" stroke="#63b8ff" d="M1615.07,-172.07C1715.38,-156.46 1942.49,-119.53 2142.06,-75.07"/>
<polygon fill="#63b8ff" stroke="#63b8ff" points="2142.58,-78.55 2151.57,-72.94 2141.05,-71.72 2142.58,-78.55"/>
</a>
</g>
</g>
<!-- Node28&#45;&gt;Node26 -->
<g id="edge36_Node000028_Node000026" class="edge">
<title>Node28&#45;&gt;Node26</title>
<g id="a_edge36_Node000028_Node000026"><a xlink:title=" ">
<path fill="none" stroke="#63b8ff" d="M1599.79,-170.93C1634.06,-162.02 1686.29,-147.24 1730,-129.75 1747.58,-122.72 1750.86,-118.54 1768,-110.5 1791.37,-99.53 1818.13,-87.96 1838.52,-79.36"/>
<polygon fill="#63b8ff" stroke="#63b8ff" points="1839.87,-82.59 1847.73,-75.49 1837.16,-76.13 1839.87,-82.59"/>
</a>
</g>
</g>
<!-- Node29 -->
<g id="Node000029" class="node">
<title>Node29</title>
<g id="a_Node000029"><a xlink:title=" ">
<polygon fill="#e0e0e0" stroke="#999999" points="1585,-129.75 1515,-129.75 1515,-110.5 1585,-110.5 1585,-129.75"/>
<text text-anchor="middle" x="1550" y="-116.25" font-family="Helvetica,sans-Serif" font-size="10.00">H5Opublic.h</text>
</a>
</g>
</g>
<!-- Node28&#45;&gt;Node29 -->
<g id="edge35_Node000028_Node000029" class="edge">
<title>Node28&#45;&gt;Node29</title>
<g id="a_edge35_Node000028_Node000029"><a xlink:title=" ">
<path fill="none" stroke="#63b8ff" d="M1561.03,-171.06C1559.29,-163.19 1556.7,-151.45 1554.46,-141.32"/>
<polygon fill="#63b8ff" stroke="#63b8ff" points="1557.89,-140.64 1552.32,-131.63 1551.06,-142.15 1557.89,-140.64"/>
</a>
</g>
</g>
<!-- Node28&#45;&gt;Node30 -->
<g id="edge38_Node000028_Node000030" class="edge">
<title>Node28&#45;&gt;Node30</title>
<g id="a_edge38_Node000028_Node000030"><a xlink:title=" ">
<path fill="none" stroke="#63b8ff" d="M1581.18,-170.93C1600.29,-161.39 1630.61,-146.27 1652.82,-135.18"/>
<polygon fill="#63b8ff" stroke="#63b8ff" points="1654.25,-138.38 1661.64,-130.78 1651.13,-132.12 1654.25,-138.38"/>
</a>
</g>
</g>
<!-- Node30&#45;&gt;Node2 -->
<g id="edge43_Node000030_Node000002" class="edge">
<title>Node30&#45;&gt;Node2</title>
<g id="a_edge43_Node000030_Node000002"><a xlink:title=" ">
<path fill="none" stroke="#63b8ff" d="M1641.2,-114.6C1626.4,-113.07 1609.45,-111.5 1594,-110.5 1021.37,-73.41 320.44,-67.03 164.65,-66.04"/>
<polygon fill="#63b8ff" stroke="#63b8ff" points="164.74,-62.54 154.72,-65.98 164.7,-69.54 164.74,-62.54"/>
</a>
</g>
</g>
<!-- Node30&#45;&gt;Node7 -->
<g id="edge40_Node000030_Node000007" class="edge">
<title>Node30&#45;&gt;Node7</title>
<g id="a_edge40_Node000030_Node000007"><a xlink:title=" ">
<path fill="none" stroke="#63b8ff" d="M1652.67,-110.09C1623.66,-100.84 1578.58,-86.47 1547.74,-76.63"/>
<polygon fill="#63b8ff" stroke="#63b8ff" points="1549.11,-73.4 1538.52,-73.69 1546.99,-80.07 1549.11,-73.4"/>
</a>
</g>
</g>
<!-- Node30&#45;&gt;Node19 -->
<g id="edge39_Node000030_Node000019" class="edge">
<title>Node30&#45;&gt;Node19</title>
<g id="a_edge39_Node000030_Node000019"><a xlink:title=" ">
<path fill="none" stroke="#63b8ff" d="M1680.83,-110.33C1680.71,-103.82 1680.54,-94.67 1680.38,-86.37"/>
<polygon fill="#63b8ff" stroke="#63b8ff" points="1683.88,-86.3 1680.2,-76.37 1676.89,-86.44 1683.88,-86.3"/>
</a>
</g>
</g>
<!-- Node30&#45;&gt;Node20 -->
<g id="edge41_Node000030_Node000020" class="edge">
<title>Node30&#45;&gt;Node20</title>
<g id="a_edge41_Node000030_Node000020"><a xlink:title=" ">
<path fill="none" stroke="#63b8ff" d="M1664.04,-110.09C1648.74,-101.94 1625.97,-89.82 1608.14,-80.33"/>
<polygon fill="#63b8ff" stroke="#63b8ff" points="1609.85,-77.27 1599.38,-75.66 1606.56,-83.45 1609.85,-77.27"/>
</a>
</g>
</g>
<!-- Node30&#45;&gt;Node21 -->
<g id="edge42_Node000030_Node000021" class="edge">
<title>Node30&#45;&gt;Node21</title>
<g id="a_edge42_Node000030_Node000021"><a xlink:title=" ">
<path fill="none" stroke="#63b8ff" d="M1720.84,-115.14C1735.65,-113.67 1752.59,-112 1768,-110.5 1931.93,-94.55 1977.23,-102.9 2142.07,-74.79"/>
<polygon fill="#63b8ff" stroke="#63b8ff" points="2142.35,-78.29 2151.61,-73.14 2141.16,-71.39 2142.35,-78.29"/>
</a>
</g>
</g>
<!-- Node30&#45;&gt;Node24 -->
<g id="edge45_Node000030_Node000024" class="edge">
<title>Node30&#45;&gt;Node24</title>
<g id="a_edge45_Node000030_Node000024"><a xlink:title=" ">
<path fill="none" stroke="#63b8ff" d="M1672.21,-110.37C1660.01,-97.15 1640.93,-71.89 1655,-55.25 1684.26,-20.66 1805.87,-28.54 1867.03,-19.09"/>
<polygon fill="#63b8ff" stroke="#63b8ff" points="1867.38,-22.59 1876.57,-17.31 1866.1,-15.71 1867.38,-22.59"/>
</a>
</g>
</g>
<!-- Node30&#45;&gt;Node25 -->
<g id="edge46_Node000030_Node000025" class="edge">
<title>Node30&#45;&gt;Node25</title>
<g id="a_edge46_Node000030_Node000025"><a xlink:title=" ">
<path fill="none" stroke="#63b8ff" d="M1695.76,-110.09C1708.88,-102.06 1728.32,-90.16 1743.73,-80.73"/>
<polygon fill="#63b8ff" stroke="#63b8ff" points="1745.18,-83.95 1751.88,-75.74 1741.52,-77.98 1745.18,-83.95"/>
</a>
</g>
</g>
<!-- Node30&#45;&gt;Node26 -->
<g id="edge47_Node000030_Node000026" class="edge">
<title>Node30&#45;&gt;Node26</title>
<g id="a_edge47_Node000030_Node000026"><a xlink:title=" ">
<path fill="none" stroke="#63b8ff" d="M1713.23,-110.09C1745.24,-101.12 1794.44,-87.33 1829.38,-77.54"/>
<polygon fill="#63b8ff" stroke="#63b8ff" points="1830.05,-80.99 1838.73,-74.92 1828.16,-74.25 1830.05,-80.99"/>
</a>
</g>
</g>
<!-- Node31 -->
<g id="Node000031" class="node">
<title>Node31</title>
<g id="a_Node000031"><a xlink:title=" ">
<polygon fill="#e0e0e0" stroke="#999999" points="1473,-74.5 1415,-74.5 1415,-55.25 1473,-55.25 1473,-74.5"/>
<text text-anchor="middle" x="1444" y="-61" font-family="Helvetica,sans-Serif" font-size="10.00">typeindex</text>
</a>
</g>
</g>
<!-- Node30&#45;&gt;Node31 -->
<g id="edge44_Node000030_Node000031" class="edge">
<title>Node30&#45;&gt;Node31</title>
<g id="a_edge44_Node000030_Node000031"><a xlink:title=" ">
<path fill="none" stroke="#63b8ff" d="M1641.35,-110.27C1603.53,-101.81 1544.67,-88.63 1484.67,-75.1"/>
<polygon fill="#63b8ff" stroke="#63b8ff" points="1485.46,-71.69 1474.93,-72.9 1483.92,-78.52 1485.46,-71.69"/>
</a>
</g>
</g>
<!-- Node32&#45;&gt;Node2 -->
<g id="edge52_Node000032_Node000002" class="edge">
<title>Node32&#45;&gt;Node2</title>
<g id="a_edge52_Node000032_Node000002"><a xlink:title=" ">
<path fill="none" stroke="#63b8ff" d="M1852.69,-343.58C1849.76,-343.29 1846.85,-343.02 1844,-342.75 1344.52,-296.23 1218.68,-295.77 719,-251.5 463.27,-228.84 335.39,-367.37 144,-196.25 113.33,-168.83 120.55,-114.95 127.4,-85.77"/>
<polygon fill="#63b8ff" stroke="#63b8ff" points="130.71,-86.95 129.82,-76.4 123.93,-85.2 130.71,-86.95"/>
</a>
</g>
</g>
<!-- Node32&#45;&gt;Node21 -->
<g id="edge51_Node000032_Node000021" class="edge">
<title>Node32&#45;&gt;Node21</title>
<g id="a_edge51_Node000032_Node000021"><a xlink:title=" ">
<path fill="none" stroke="#63b8ff" d="M1999.2,-347.26C2067.84,-341.99 2164.1,-330.53 2193,-306.75 2216.42,-287.48 2217,-273.2 2217,-242.88 2217,-242.88 2217,-242.88 2217,-180 2217,-145.15 2200.85,-107.23 2189.6,-85.06"/>
<polygon fill="#63b8ff" stroke="#63b8ff" points="2192.76,-83.54 2184.99,-76.34 2186.57,-86.81 2192.76,-83.54"/>
</a>
</g>
</g>
<!-- Node33 -->
<g id="Node000033" class="node">
<title>Node33</title>
<g id="a_Node000033"><a xlink:href="_registered_type_8hpp.html" target="_top" xlink:title=" ">
<polygon fill="white" stroke="#666666" points="1961,-306.75 1837,-306.75 1837,-287.5 1961,-287.5 1961,-306.75"/>
<text text-anchor="middle" x="1899" y="-293.25" font-family="Helvetica,sans-Serif" font-size="10.00">nwb/RegisteredType.hpp</text>
</a>
</g>
</g>
<!-- Node32&#45;&gt;Node33 -->
<g id="edge53_Node000032_Node000033" class="edge">
<title>Node32&#45;&gt;Node33</title>
<g id="a_edge53_Node000032_Node000033"><a xlink:title=" ">
<path fill="none" stroke="#63b8ff" d="M1921.54,-342.58C1918.05,-335.69 1913.05,-325.84 1908.65,-317.16"/>
<polygon fill="#63b8ff" stroke="#63b8ff" points="1911.88,-315.8 1904.24,-308.46 1905.64,-318.96 1911.88,-315.8"/>
</a>
</g>
</g>
<!-- Node33&#45;&gt;Node2 -->
<g id="edge57_Node000033_Node000002" class="edge">
<title>Node33&#45;&gt;Node2</title>
<g id="a_edge57_Node000033_Node000002"><a xlink:title=" ">
<path fill="none" stroke="#63b8ff" d="M1836.97,-295.98C1542.25,-294.87 291.56,-284.91 144,-196.25 107.28,-174.19 86.59,-151.18 100,-110.5 103.3,-100.48 109.82,-90.87 116.19,-83.15"/>
<polygon fill="#63b8ff" stroke="#63b8ff" points="118.61,-85.69 122.66,-75.9 113.39,-81.03 118.61,-85.69"/>
</a>
</g>
</g>
<!-- Node33&#45;&gt;Node3 -->
<g id="edge61_Node000033_Node000003" class="edge">
<title>Node33&#45;&gt;Node3</title>
<g id="a_edge61_Node000033_Node000003"><a xlink:title=" ">
<path fill="none" stroke="#63b8ff" d="M1836.68,-293.22C1628.82,-283.55 962.88,-252.55 794.15,-244.7"/>
<polygon fill="#63b8ff" stroke="#63b8ff" points="794.54,-241.21 784.38,-244.24 794.21,-248.2 794.54,-241.21"/>
</a>
</g>
</g>
<!-- Node33&#45;&gt;Node18 -->
<g id="edge62_Node000033_Node000018" class="edge">
<title>Node33&#45;&gt;Node18</title>
<g id="a_edge62_Node000033_Node000018"><a xlink:title=" ">
<path fill="none" stroke="#63b8ff" d="M1896.25,-287.28C1889.4,-265.77 1870.43,-209.32 1847,-165.75 1842.04,-156.52 1835.54,-146.9 1829.78,-138.96"/>
<polygon fill="#63b8ff" stroke="#63b8ff" points="1832.75,-137.08 1823.95,-131.18 1827.15,-141.28 1832.75,-137.08"/>
</a>
</g>
</g>
<!-- Node33&#45;&gt;Node21 -->
<g id="edge56_Node000033_Node000021" class="edge">
<title>Node33&#45;&gt;Node21</title>
<g id="a_edge56_Node000033_Node000021"><a xlink:title=" ">
<path fill="none" stroke="#63b8ff" d="M1942.61,-287.06C1968.48,-280.22 2001,-268.96 2026,-251.5 2092.71,-204.91 2146.5,-121.71 2168.4,-84.62"/>
<polygon fill="#63b8ff" stroke="#63b8ff" points="2171.41,-86.4 2173.39,-75.99 2165.35,-82.89 2171.41,-86.4"/>
</a>
</g>
</g>
<!-- Node33&#45;&gt;Node22 -->
<g id="edge58_Node000033_Node000022" class="edge">
<title>Node33&#45;&gt;Node22</title>
<g id="a_edge58_Node000033_Node000022"><a xlink:title=" ">
<path fill="none" stroke="#63b8ff" d="M1933.54,-287.13C1951.97,-280.45 1973.23,-269.33 1985,-251.5 2018.94,-200.12 2010.11,-122.39 2003.38,-86"/>
<polygon fill="#63b8ff" stroke="#63b8ff" points="2006.86,-85.56 2001.46,-76.45 2000,-86.94 2006.86,-85.56"/>
</a>
</g>
</g>
<!-- Node33&#45;&gt;Node23 -->
<g id="edge59_Node000033_Node000023" class="edge">
<title>Node33&#45;&gt;Node23</title>
<g id="a_edge59_Node000033_Node000023"><a xlink:title=" ">
<path fill="none" stroke="#63b8ff" d="M1936.88,-287.07C1958.65,-280.27 1985.3,-269.06 2004,-251.5 2054.51,-204.05 2081.61,-123.17 2091.97,-85.84"/>
<polygon fill="#63b8ff" stroke="#63b8ff" points="2095.29,-86.99 2094.46,-76.42 2088.52,-85.19 2095.29,-86.99"/>
</a>
</g>
</g>
<!-- Node33&#45;&gt;Node26 -->
<g id="edge60_Node000033_Node000026" class="edge">
<title>Node33&#45;&gt;Node26</title>
<g id="a_edge60_Node000033_Node000026"><a xlink:title=" ">
<path fill="none" stroke="#63b8ff" d="M1925.58,-287.01C1941.55,-280 1960.56,-268.58 1970,-251.5 1974.14,-244.01 1972.27,-240.5 1970,-232.25 1953.5,-172.27 1909.12,-112.06 1885.79,-83.3"/>
<polygon fill="#63b8ff" stroke="#63b8ff" points="1888.79,-81.44 1879.72,-75.96 1883.4,-85.9 1888.79,-81.44"/>
</a>
</g>
</g>
<!-- Node33&#45;&gt;Node30 -->
<g id="edge63_Node000033_Node000030" class="edge">
<title>Node33&#45;&gt;Node30</title>
<g id="a_edge63_Node000033_Node000030"><a xlink:title=" ">
<path fill="none" stroke="#63b8ff" d="M1855.52,-287.07C1830.47,-280.3 1799.42,-269.11 1776,-251.5 1735.47,-221.03 1704.75,-168.45 1690.24,-140.27"/>
<polygon fill="#63b8ff" stroke="#63b8ff" points="1693.45,-138.87 1685.85,-131.49 1687.19,-142 1693.45,-138.87"/>
</a>
</g>
</g>
<!-- Node34 -->
<g id="Node000034" class="node">
<title>Node34</title>
<g id="a_Node000034"><a xlink:title=" ">
<polygon fill="#e0e0e0" stroke="#999999" points="1960.5,-251.5 1899.5,-251.5 1899.5,-232.25 1960.5,-232.25 1960.5,-251.5"/>
<text text-anchor="middle" x="1930" y="-238" font-family="Helvetica,sans-Serif" font-size="10.00">filesystem</text>
</a>
</g>
</g>
<!-- Node33&#45;&gt;Node34 -->
<g id="edge54_Node000033_Node000034" class="edge">
<title>Node33&#45;&gt;Node34</title>
<g id="a_edge54_Node000033_Node000034"><a xlink:title=" ">
<path fill="none" stroke="#63b8ff" d="M1904.12,-287.33C1908.18,-280.36 1913.99,-270.37 1919.09,-261.62"/>
<polygon fill="#63b8ff" stroke="#63b8ff" points="1922,-263.57 1924.01,-253.17 1915.95,-260.05 1922,-263.57"/>
</a>
</g>
</g>
<!-- Node35 -->
<g id="Node000035" class="node">
<title>Node35</title>
<g id="a_Node000035"><a xlink:title=" ">
<polygon fill="#e0e0e0" stroke="#999999" points="1843,-251.5 1785,-251.5 1785,-232.25 1843,-232.25 1843,-251.5"/>
<text text-anchor="middle" x="1814" y="-238" font-family="Helvetica,sans-Serif" font-size="10.00">functional</text>
</a>
</g>
</g>
<!-- Node33&#45;&gt;Node35 -->
<g id="edge55_Node000033_Node000035" class="edge">
<title>Node33&#45;&gt;Node35</title>
<g id="a_edge55_Node000033_Node000035"><a xlink:title=" ">
<path fill="none" stroke="#63b8ff" d="M1884.58,-287.09C1871.88,-279.14 1853.13,-267.39 1838.14,-258"/>
<polygon fill="#63b8ff" stroke="#63b8ff" points="1840.1,-255.1 1829.77,-252.76 1836.39,-261.03 1840.1,-255.1"/>
</a>
</g>
</g>
<!-- Node37 -->
<g id="Node000037" class="node">
<title>Node37</title>
<g id="a_Node000037"><a xlink:href="_data_8hpp.html" target="_top" xlink:title=" ">
<polygon fill="white" stroke="#666666" points="1834.75,-362 1709.25,-362 1709.25,-342.75 1834.75,-342.75 1834.75,-362"/>
<text text-anchor="middle" x="1772" y="-348.5" font-family="Helvetica,sans-Serif" font-size="10.00">nwb/hdmf/base/Data.hpp</text>
</a>
</g>
</g>
<!-- Node36&#45;&gt;Node37 -->
<g id="edge65_Node000036_Node000037" class="edge">
<title>Node36&#45;&gt;Node37</title>
<g id="a_edge65_Node000036_Node000037"><a xlink:title=" ">
<path fill="none" stroke="#63b8ff" d="M1796.21,-397.83C1792.46,-390.94 1787.09,-381.09 1782.37,-372.41"/>
<polygon fill="#63b8ff" stroke="#63b8ff" points="1785.47,-370.8 1777.62,-363.69 1779.33,-374.14 1785.47,-370.8"/>
</a>
</g>
</g>
<!-- Node37&#45;&gt;Node18 -->
<g id="edge67_Node000037_Node000018" class="edge">
<title>Node37&#45;&gt;Node18</title>
<g id="a_edge67_Node000037_Node000018"><a xlink:title=" ">
<path fill="none" stroke="#63b8ff" d="M1771.35,-342.3C1770.13,-322.24 1768.24,-272.69 1776,-232.25 1782.39,-198.95 1797.22,-162.3 1806.91,-140.52"/>
<polygon fill="#63b8ff" stroke="#63b8ff" points="1810.09,-142 1811.06,-131.45 1803.72,-139.09 1810.09,-142"/>
</a>
</g>
</g>
<!-- Node37&#45;&gt;Node21 -->
<g id="edge66_Node000037_Node000021" class="edge">
<title>Node37&#45;&gt;Node21</title>
<g id="a_edge66_Node000037_Node000021"><a xlink:title=" ">
<path fill="none" stroke="#63b8ff" d="M1828.16,-342.27C1939.82,-323.39 2179,-278.75 2179,-242.88 2179,-242.88 2179,-242.88 2179,-180 2179,-147.05 2179,-108.75 2179,-85.96"/>
<polygon fill="#63b8ff" stroke="#63b8ff" points="2182.5,-86.27 2179,-76.27 2175.5,-86.27 2182.5,-86.27"/>
</a>
</g>
</g>
<!-- Node37&#45;&gt;Node33 -->
<g id="edge68_Node000037_Node000033" class="edge">
<title>Node37&#45;&gt;Node33</title>
<g id="a_edge68_Node000037_Node000033"><a xlink:title=" ">
<path fill="none" stroke="#63b8ff" d="M1793.54,-342.34C1813.61,-333.93 1843.8,-321.27 1866.75,-311.65"/>
<polygon fill="#63b8ff" stroke="#63b8ff" points="1868.09,-314.88 1875.95,-307.79 1865.38,-308.43 1868.09,-314.88"/>
</a>
</g>
</g>
<!-- Node38&#45;&gt;Node2 -->
<g id="edge70_Node000038_Node000002" class="edge">
<title>Node38&#45;&gt;Node2</title>
<g id="a_edge70_Node000038_Node000002"><a xlink:title=" ">
<path fill="none" stroke="#63b8ff" d="M1460.73,-401.34C1264.05,-386.96 729.07,-341.98 292,-251.5 206.3,-233.76 161.05,-261.75 103,-196.25 77.52,-167.49 78.05,-146.3 92,-110.5 96.16,-99.82 104.21,-90.14 112.08,-82.55"/>
<polygon fill="#63b8ff" stroke="#63b8ff" points="114.39,-85.19 119.55,-75.93 109.74,-79.95 114.39,-85.19"/>
</a>
</g>
</g>
<!-- Node38&#45;&gt;Node3 -->
<g id="edge71_Node000038_Node000003" class="edge">
<title>Node38&#45;&gt;Node3</title>
<g id="a_edge71_Node000038_Node000003"><a xlink:title=" ">
<path fill="none" stroke="#63b8ff" d="M1494.51,-397.53C1355.86,-368.53 925.7,-278.57 793.83,-251"/>
<polygon fill="#63b8ff" stroke="#63b8ff" points="794.71,-247.6 784.2,-248.98 793.28,-254.46 794.71,-247.6"/>
</a>
</g>
</g>
<!-- Node38&#45;&gt;Node30 -->
<g id="edge72_Node000038_Node000030" class="edge">
<title>Node38&#45;&gt;Node30</title>
<g id="a_edge72_Node000038_Node000030"><a xlink:title=" ">
<path fill="none" stroke="#63b8ff" d="M1542.44,-397.77C1562.33,-358.06 1643.54,-195.92 1671.49,-140.11"/>
<polygon fill="#63b8ff" stroke="#63b8ff" points="1674.45,-142.02 1675.8,-131.52 1668.19,-138.89 1674.45,-142.02"/>
</a>
</g>
</g>
<!-- Node38&#45;&gt;Node37 -->
<g id="edge73_Node000038_Node000037" class="edge">
<title>Node38&#45;&gt;Node37</title>
<g id="a_edge73_Node000038_Node000037"><a xlink:title=" ">
<path fill="none" stroke="#63b8ff" d="M1577.96,-397.53C1617.5,-388.53 1678.18,-374.73 1721.14,-364.95"/>
<polygon fill="#63b8ff" stroke="#63b8ff" points="1721.75,-368.4 1730.73,-362.77 1720.2,-361.57 1721.75,-368.4"/>
</a>
</g>
</g>
</g>
</svg>
