<?xml version="1.0" encoding="UTF-8" standalone="no"?>
<!DOCTYPE svg PUBLIC "-//W3C//DTD SVG 1.1//EN"
 "http://www.w3.org/Graphics/SVG/1.1/DTD/svg11.dtd">
<!-- Generated by graphviz version 14.1.2 (20260124.0452)
 -->
<!-- Title: src/nwb/hdmf/table/DynamicTable.hpp Pages: 1 -->
<!--zoomable 305 -->

<svg id="main" version="1.1" xmlns="http://www.w3.org/2000/svg" xmlns:xlink="http://www.w3.org/1999/xlink" xml:space="preserve" onload="init(evt)">

<style type="text/css"><![CDATA[
.node, .edge {opacity: 0.7;}
.node.selected, .edge.selected {opacity: 1;}
.edge:hover path { stroke: red; }
.edge:hover polygon { stroke: red; fill: red; }
]]></style>

<defs>
  <circle id="rim" cx="0" cy="0" r="7"/>
  <circle id="rim2" cx="0" cy="0" r="3.5"/>
  <g id="zoomPlus">
    <use xlink:href="#rim" fill="#404040"><set attributeName="fill" to="#808080" begin="zoomplus.mouseover" end="zoomplus.mouseout"/></use>
    <path d="M-4,0h8M0,-4v8" fill="none" stroke="white" stroke-width="1.5" pointer-events="none"/>
  </g>
  <g id="zoomMin">
    <use xlink:href="#rim" fill="#404040"><set attributeName="fill" to="#808080" begin="zoomminus.mouseover" end="zoomminus.mouseout"/></use>
    <path d="M-4,0h8" fill="none" stroke="white" stroke-width="1.5" pointer-events="none"/>
  </g>
  <g id="arrowUp" transform="translate(30 24)">
    <use xlink:href="#rim"/>
    <path pointer-events="none" fill="none" stroke="white" stroke-width="1.5" d="M0,-3.0v7 M-2.5,-0.5L0,-3.0L2.5,-0.5"/>
  </g>
  <g id="arrowRight" transform="rotate(90) translate(36 -43)">
    <use xlink:href="#rim"/>
    <path pointer-events="none" fill="none" stroke="white" stroke-width="1.5" d="M0,-3.0v7 M-2.5,-0.5L0,-3.0L2.5,-0.5"/>
  </g>
  <g id="arrowDown" transform="rotate(180) translate(-30 -48)">
    <use xlink:href="#rim"/>
    <path pointer-events="none" fill="none" stroke="white" stroke-width="1.5" d="M0,-3.0v7 M-2.5,-0.5L0,-3.0L2.5,-0.5"/>
  </g>
  <g id="arrowLeft" transform="rotate(270) translate(-36 17)">
    <use xlink:href="#rim"/>
    <path pointer-events="none" fill="none" stroke="white" stroke-width="1.5" d="M0,-3.0v7 M-2.5,-0.5L0,-3.0L2.5,-0.5"/>
  </g>
  <g id="resetDef">
    <use xlink:href="#rim2" fill="#404040"><set attributeName="fill" to="#808080" begin="reset.mouseover" end="reset.mouseout"/></use>
  </g>
</defs>
<script type="application/ecmascript">
var viewWidth = 804;
var viewHeight = 305;
var sectionId = 'dynsection-1';
</script>
<script type="application/ecmascript" xlink:href="svg.min.js"/>
<svg id="graph" class="graph">
<g id="viewport">
<title>src/nwb/hdmf/table/DynamicTable.hpp</title>
<!-- Node1 -->
<g id="Node000001" class="node">
<title>Node1</title>
<g id="a_Node000001"><a xlink:title=" ">
<polygon fill="#999999" stroke="#666666" points="599.88,-296.5 499.88,-296.5 499.88,-266 599.88,-266 599.88,-296.5"/>
<text xml:space="preserve" text-anchor="start" x="507.88" y="-283" font-family="Helvetica,sans-Serif" font-size="10.00">src/nwb/hdmf/table</text>
<text xml:space="preserve" text-anchor="middle" x="549.88" y="-271.75" font-family="Helvetica,sans-Serif" font-size="10.00">/DynamicTable.hpp</text>
</a>
</g>
</g>
<!-- Node2 -->
<g id="Node000002" class="node">
<title>Node2</title>
<g id="a_Node000002"><a xlink:href="_processing_module_8hpp.html" target="_top" xlink:title=" ">
<polygon fill="white" stroke="#666666" points="638.12,-224.38 461.62,-224.38 461.62,-205.12 638.12,-205.12 638.12,-224.38"/>
<text xml:space="preserve" text-anchor="middle" x="549.88" y="-210.88" font-family="Helvetica,sans-Serif" font-size="10.00">src/nwb/base/ProcessingModule.hpp</text>
</a>
</g>
</g>
<!-- Node1&#45;&gt;Node2 -->
<g id="edge1_Node000001_Node000002" class="edge">
<title>Node1&#45;&gt;Node2</title>
<g id="a_edge1_Node000001_Node000002"><a xlink:title=" ">
<path fill="none" stroke="#63b8ff" d="M549.88,-254.34C549.88,-243.76 549.88,-232.25 549.88,-224.57"/>
<polygon fill="#63b8ff" stroke="#63b8ff" points="546.38,-254.1 549.88,-264.1 553.38,-254.1 546.38,-254.1"/>
</a>
</g>
</g>
<!-- Node6 -->
<g id="Node000006" class="node">
<title>Node6</title>
<g id="a_Node000006"><a xlink:href="_electrodes_table_8hpp.html" target="_top" xlink:title=" ">
<polygon fill="white" stroke="#666666" points="443.75,-224.38 286,-224.38 286,-205.12 443.75,-205.12 443.75,-224.38"/>
<text xml:space="preserve" text-anchor="middle" x="364.88" y="-210.88" font-family="Helvetica,sans-Serif" font-size="10.00">src/nwb/file/ElectrodesTable.hpp</text>
</a>
</g>
</g>
<!-- Node1&#45;&gt;Node6 -->
<g id="edge5_Node000001_Node000006" class="edge">
<title>Node1&#45;&gt;Node6</title>
<g id="a_edge5_Node000001_Node000006"><a xlink:title=" ">
<path fill="none" stroke="#63b8ff" d="M497.43,-261.97C462.66,-249.84 418.53,-234.46 390.99,-224.85"/>
<polygon fill="#63b8ff" stroke="#63b8ff" points="495.87,-265.13 506.47,-265.12 498.18,-258.52 495.87,-265.13"/>
</a>
</g>
</g>
<!-- Node14 -->
<g id="Node000014" class="node">
<title>Node14</title>
<g id="a_Node000014"><a xlink:href="_dynamic_table_8cpp.html" target="_top" xlink:title=" ">
<polygon fill="white" stroke="#666666" points="755.88,-230 655.88,-230 655.88,-199.5 755.88,-199.5 755.88,-230"/>
<text xml:space="preserve" text-anchor="start" x="663.88" y="-216.5" font-family="Helvetica,sans-Serif" font-size="10.00">src/nwb/hdmf/table</text>
<text xml:space="preserve" text-anchor="middle" x="705.88" y="-205.25" font-family="Helvetica,sans-Serif" font-size="10.00">/DynamicTable.cpp</text>
</a>
</g>
</g>
<!-- Node1&#45;&gt;Node14 -->
<g id="edge19_Node000001_Node000014" class="edge">
<title>Node1&#45;&gt;Node14</title>
<g id="a_edge19_Node000001_Node000014"><a xlink:title=" ">
<path fill="none" stroke="#63b8ff" d="M595.83,-261.25C619.64,-251.41 648.26,-239.57 670.35,-230.44"/>
<polygon fill="#63b8ff" stroke="#63b8ff" points="594.58,-257.98 586.67,-265.04 597.25,-264.45 594.58,-257.98"/>
</a>
</g>
</g>
<!-- Node3 -->
<g id="Node000003" class="node">
<title>Node3</title>
<g id="a_Node000003"><a xlink:href="_n_w_b_file_8hpp.html" target="_top" xlink:title=" ">
<polygon fill="white" stroke="#666666" points="601.88,-157.88 489.88,-157.88 489.88,-138.62 601.88,-138.62 601.88,-157.88"/>
<text xml:space="preserve" text-anchor="middle" x="545.88" y="-144.38" font-family="Helvetica,sans-Serif" font-size="10.00">src/nwb/NWBFile.hpp</text>
</a>
</g>
</g>
<!-- Node2&#45;&gt;Node3 -->
<g id="edge2_Node000002_Node000003" class="edge">
<title>Node2&#45;&gt;Node3</title>
<g id="a_edge2_Node000002_Node000003"><a xlink:title=" ">
<path fill="none" stroke="#63b8ff" d="M548.63,-193.65C547.89,-181.75 546.99,-167.26 546.43,-158.14"/>
<polygon fill="#63b8ff" stroke="#63b8ff" points="545.11,-193.51 549.23,-203.27 552.1,-193.07 545.11,-193.51"/>
</a>
</g>
</g>
<!-- Node5 -->
<g id="Node000005" class="node">
<title>Node5</title>
<g id="a_Node000005"><a xlink:href="_processing_module_8cpp.html" target="_top" xlink:title=" ">
<polygon fill="white" stroke="#666666" points="796.12,-157.88 619.62,-157.88 619.62,-138.62 796.12,-138.62 796.12,-157.88"/>
<text xml:space="preserve" text-anchor="middle" x="707.88" y="-144.38" font-family="Helvetica,sans-Serif" font-size="10.00">src/nwb/base/ProcessingModule.cpp</text>
</a>
</g>
</g>
<!-- Node2&#45;&gt;Node5 -->
<g id="edge4_Node000002_Node000005" class="edge">
<title>Node2&#45;&gt;Node5</title>
<g id="a_edge4_Node000002_Node000005"><a xlink:title=" ">
<path fill="none" stroke="#63b8ff" d="M582.83,-200.3C613.68,-187.7 658.92,-169.24 685.69,-158.31"/>
<polygon fill="#63b8ff" stroke="#63b8ff" points="581.51,-197.05 573.58,-204.07 584.16,-203.53 581.51,-197.05"/>
</a>
</g>
</g>
<!-- Node4 -->
<g id="Node000004" class="node">
<title>Node4</title>
<g id="a_Node000004"><a xlink:href="_n_w_b_file_8cpp.html" target="_top" xlink:title=" ">
<polygon fill="white" stroke="#666666" points="559.88,-24.88 447.88,-24.88 447.88,-5.63 559.88,-5.63 559.88,-24.88"/>
<text xml:space="preserve" text-anchor="middle" x="503.88" y="-11.38" font-family="Helvetica,sans-Serif" font-size="10.00">src/nwb/NWBFile.cpp</text>
</a>
</g>
</g>
<!-- Node3&#45;&gt;Node4 -->
<g id="edge3_Node000003_Node000004" class="edge">
<title>Node3&#45;&gt;Node4</title>
<g id="a_edge3_Node000003_Node000004"><a xlink:title=" ">
<path fill="none" stroke="#63b8ff" d="M545.08,-127.42C543.91,-110.74 541.01,-86.5 533.88,-66.5 528.34,-51 517.8,-34.99 510.8,-25.33"/>
<polygon fill="#63b8ff" stroke="#63b8ff" points="541.56,-127.19 545.6,-136.98 548.55,-126.81 541.56,-127.19"/>
</a>
</g>
</g>
<!-- Node6&#45;&gt;Node3 -->
<g id="edge6_Node000006_Node000003" class="edge">
<title>Node6&#45;&gt;Node3</title>
<g id="a_edge6_Node000006_Node000003"><a xlink:title=" ">
<path fill="none" stroke="#63b8ff" d="M401.24,-200.79C436.6,-188.19 489.39,-169.38 520.46,-158.31"/>
<polygon fill="#63b8ff" stroke="#63b8ff" points="400.09,-197.48 391.85,-204.14 402.44,-204.08 400.09,-197.48"/>
</a>
</g>
</g>
<!-- Node7 -->
<g id="Node000007" class="node">
<title>Node7</title>
<g id="a_Node000007"><a xlink:href="_electrical_series_8cpp.html" target="_top" xlink:title=" ">
<polygon fill="white" stroke="#666666" points="524.75,-97 391,-97 391,-66.5 524.75,-66.5 524.75,-97"/>
<text xml:space="preserve" text-anchor="start" x="399" y="-83.5" font-family="Helvetica,sans-Serif" font-size="10.00">src/nwb/ecephys/Electrical</text>
<text xml:space="preserve" text-anchor="middle" x="457.88" y="-72.25" font-family="Helvetica,sans-Serif" font-size="10.00">Series.cpp</text>
</a>
</g>
</g>
<!-- Node6&#45;&gt;Node7 -->
<g id="edge7_Node000006_Node000007" class="edge">
<title>Node6&#45;&gt;Node7</title>
<g id="a_edge7_Node000006_Node000007"><a xlink:title=" ">
<path fill="none" stroke="#63b8ff" d="M396,-199.49C411.09,-191.07 428.22,-178.99 438.88,-163.5 452.67,-143.45 456.53,-114.68 457.56,-97.44"/>
<polygon fill="#63b8ff" stroke="#63b8ff" points="394.55,-196.3 387.32,-204.04 397.8,-202.5 394.55,-196.3"/>
</a>
</g>
</g>
<!-- Node8 -->
<g id="Node000008" class="node">
<title>Node8</title>
<g id="a_Node000008"><a xlink:href="_electrical_series_8hpp.html" target="_top" xlink:title=" ">
<polygon fill="white" stroke="#666666" points="429.75,-163.5 296,-163.5 296,-133 429.75,-133 429.75,-163.5"/>
<text xml:space="preserve" text-anchor="start" x="304" y="-150" font-family="Helvetica,sans-Serif" font-size="10.00">src/nwb/ecephys/Electrical</text>
<text xml:space="preserve" text-anchor="middle" x="362.88" y="-138.75" font-family="Helvetica,sans-Serif" font-size="10.00">Series.hpp</text>
</a>
</g>
</g>
<!-- Node6&#45;&gt;Node8 -->
<g id="edge8_Node000006_Node000008" class="edge">
<title>Node6&#45;&gt;Node8</title>
<g id="a_edge8_Node000006_Node000008"><a xlink:title=" ">
<path fill="none" stroke="#63b8ff" d="M364.24,-193.37C363.94,-183.69 363.59,-172.35 363.32,-163.59"/>
<polygon fill="#63b8ff" stroke="#63b8ff" points="360.74,-193.38 364.55,-203.27 367.74,-193.17 360.74,-193.38"/>
</a>
</g>
</g>
<!-- Node13 -->
<g id="Node000013" class="node">
<title>Node13</title>
<g id="a_Node000013"><a xlink:href="_electrodes_table_8cpp.html" target="_top" xlink:title=" ">
<polygon fill="white" stroke="#666666" points="277.75,-157.88 120,-157.88 120,-138.62 277.75,-138.62 277.75,-157.88"/>
<text xml:space="preserve" text-anchor="middle" x="198.88" y="-144.38" font-family="Helvetica,sans-Serif" font-size="10.00">src/nwb/file/ElectrodesTable.cpp</text>
</a>
</g>
</g>
<!-- Node6&#45;&gt;Node13 -->
<g id="edge18_Node000006_Node000013" class="edge">
<title>Node6&#45;&gt;Node13</title>
<g id="a_edge18_Node000006_Node000013"><a xlink:title=" ">
<path fill="none" stroke="#63b8ff" d="M331.1,-200.63C298.67,-188.03 250.56,-169.33 222.19,-158.31"/>
<polygon fill="#63b8ff" stroke="#63b8ff" points="329.44,-203.74 340.03,-204.1 331.98,-197.21 329.44,-203.74"/>
</a>
</g>
</g>
<!-- Node8&#45;&gt;Node4 -->
<g id="edge11_Node000008_Node000004" class="edge">
<title>Node8&#45;&gt;Node4</title>
<g id="a_edge11_Node000008_Node000004"><a xlink:title=" ">
<path fill="none" stroke="#63b8ff" d="M363.04,-121.34C364.45,-104 368.96,-81.66 381.88,-66.5 394.13,-52.11 441.27,-35.4 473.23,-25.33"/>
<polygon fill="#63b8ff" stroke="#63b8ff" points="359.55,-120.98 362.56,-131.14 366.55,-121.33 359.55,-120.98"/>
</a>
</g>
</g>
<!-- Node8&#45;&gt;Node7 -->
<g id="edge12_Node000008_Node000007" class="edge">
<title>Node8&#45;&gt;Node7</title>
<g id="a_edge12_Node000008_Node000007"><a xlink:title=" ">
<path fill="none" stroke="#63b8ff" d="M393.67,-126.34C407.63,-116.87 423.79,-105.89 436.4,-97.33"/>
<polygon fill="#63b8ff" stroke="#63b8ff" points="391.99,-123.25 385.68,-131.76 395.92,-129.04 391.99,-123.25"/>
</a>
</g>
</g>
<!-- Node9 -->
<g id="Node000009" class="node">
<title>Node9</title>
<g id="a_Node000009"><a xlink:href="_recording_objects_8cpp.html" target="_top" xlink:title=" ">
<polygon fill="white" stroke="#666666" points="139.75,-24.88 0,-24.88 0,-5.63 139.75,-5.63 139.75,-24.88"/>
<text xml:space="preserve" text-anchor="middle" x="69.88" y="-11.38" font-family="Helvetica,sans-Serif" font-size="10.00">src/io/RecordingObjects.cpp</text>
</a>
</g>
</g>
<!-- Node8&#45;&gt;Node9 -->
<g id="edge9_Node000008_Node000009" class="edge">
<title>Node8&#45;&gt;Node9</title>
<g id="a_edge9_Node000008_Node000009"><a xlink:title=" ">
<path fill="none" stroke="#63b8ff" d="M284.73,-130.1C241.23,-119.89 191.91,-107.01 171.88,-97 133.08,-77.61 95.1,-41.89 78.54,-25.23"/>
<polygon fill="#63b8ff" stroke="#63b8ff" points="283.93,-133.51 294.46,-132.36 285.51,-126.69 283.93,-133.51"/>
</a>
</g>
</g>
<!-- Node10 -->
<g id="Node000010" class="node">
<title>Node10</title>
<g id="a_Node000010"><a xlink:href="nwbio__utils_8hpp.html" target="_top" xlink:title=" ">
<polygon fill="white" stroke="#666666" points="268.12,-24.88 157.62,-24.88 157.62,-5.63 268.12,-5.63 268.12,-24.88"/>
<text xml:space="preserve" text-anchor="middle" x="212.88" y="-11.38" font-family="Helvetica,sans-Serif" font-size="10.00">src/io/nwbio_utils.hpp</text>
</a>
</g>
</g>
<!-- Node8&#45;&gt;Node10 -->
<g id="edge10_Node000008_Node000010" class="edge">
<title>Node8&#45;&gt;Node10</title>
<g id="a_edge10_Node000008_Node000010"><a xlink:title=" ">
<path fill="none" stroke="#63b8ff" d="M284.89,-130.21C238.97,-119.38 188.57,-105.8 181.88,-97 164.7,-74.41 189.78,-41.16 204.09,-25.31"/>
<polygon fill="#63b8ff" stroke="#63b8ff" points="283.82,-133.55 294.35,-132.41 285.41,-126.73 283.82,-133.55"/>
</a>
</g>
</g>
<!-- Node11 -->
<g id="Node000011" class="node">
<title>Node11</title>
<g id="a_Node000011"><a xlink:href="_spike_event_series_8hpp.html" target="_top" xlink:title=" ">
<polygon fill="white" stroke="#666666" points="334.62,-97 191.12,-97 191.12,-66.5 334.62,-66.5 334.62,-97"/>
<text xml:space="preserve" text-anchor="start" x="199.12" y="-83.5" font-family="Helvetica,sans-Serif" font-size="10.00">src/nwb/ecephys/SpikeEvent</text>
<text xml:space="preserve" text-anchor="middle" x="262.88" y="-72.25" font-family="Helvetica,sans-Serif" font-size="10.00">Series.hpp</text>
</a>
</g>
</g>
<!-- Node8&#45;&gt;Node11 -->
<g id="edge13_Node000008_Node000011" class="edge">
<title>Node8&#45;&gt;Node11</title>
<g id="a_edge13_Node000008_Node000011"><a xlink:title=" ">
<path fill="none" stroke="#63b8ff" d="M330.88,-126.61C316.1,-117.08 298.88,-105.98 285.48,-97.33"/>
<polygon fill="#63b8ff" stroke="#63b8ff" points="328.61,-129.31 338.91,-131.79 332.41,-123.43 328.61,-129.31"/>
</a>
</g>
</g>
<!-- Node11&#45;&gt;Node4 -->
<g id="edge16_Node000011_Node000004" class="edge">
<title>Node11&#45;&gt;Node4</title>
<g id="a_edge16_Node000011_Node000004"><a xlink:title=" ">
<path fill="none" stroke="#63b8ff" d="M328.87,-63.09C374.55,-50.86 433.46,-35.1 469.95,-25.33"/>
<polygon fill="#63b8ff" stroke="#63b8ff" points="328.08,-59.68 319.33,-65.64 329.89,-66.44 328.08,-59.68"/>
</a>
</g>
</g>
<!-- Node11&#45;&gt;Node9 -->
<g id="edge14_Node000011_Node000009" class="edge">
<title>Node11&#45;&gt;Node9</title>
<g id="a_edge14_Node000011_Node000009"><a xlink:title=" ">
<path fill="none" stroke="#63b8ff" d="M208.17,-62.47C171.89,-50.34 125.85,-34.96 97.12,-25.35"/>
<polygon fill="#63b8ff" stroke="#63b8ff" points="207.05,-65.78 217.64,-65.63 209.27,-59.14 207.05,-65.78"/>
</a>
</g>
</g>
<!-- Node11&#45;&gt;Node10 -->
<g id="edge15_Node000011_Node000010" class="edge">
<title>Node11&#45;&gt;Node10</title>
<g id="a_edge15_Node000011_Node000010"><a xlink:title=" ">
<path fill="none" stroke="#63b8ff" d="M244.62,-57.2C235.95,-46.02 226.11,-33.32 219.71,-25.07"/>
<polygon fill="#63b8ff" stroke="#63b8ff" points="241.71,-59.16 250.6,-64.92 247.24,-54.87 241.71,-59.16"/>
</a>
</g>
</g>
<!-- Node12 -->
<g id="Node000012" class="node">
<title>Node12</title>
<g id="a_Node000012"><a xlink:href="_spike_event_series_8cpp.html" target="_top" xlink:title=" ">
<polygon fill="white" stroke="#666666" points="429.62,-30.5 286.12,-30.5 286.12,0 429.62,0 429.62,-30.5"/>
<text xml:space="preserve" text-anchor="start" x="294.12" y="-17" font-family="Helvetica,sans-Serif" font-size="10.00">src/nwb/ecephys/SpikeEvent</text>
<text xml:space="preserve" text-anchor="middle" x="357.88" y="-5.75" font-family="Helvetica,sans-Serif" font-size="10.00">Series.cpp</text>
</a>
</g>
</g>
<!-- Node11&#45;&gt;Node12 -->
<g id="edge17_Node000011_Node000012" class="edge">
<title>Node11&#45;&gt;Node12</title>
<g id="a_edge17_Node000011_Node000012"><a xlink:title=" ">
<path fill="none" stroke="#63b8ff" d="M293.67,-59.84C307.63,-50.37 323.79,-39.39 336.4,-30.83"/>
<polygon fill="#63b8ff" stroke="#63b8ff" points="291.99,-56.75 285.68,-65.26 295.92,-62.54 291.99,-56.75"/>
</a>
</g>
</g>
</g>
</svg>

<g id="navigator" transform="translate(0 0)" fill="#404254">
  <rect fill="#f2f5e9" fill-opacity="0.5" stroke="#606060" stroke-width=".5" x="0" y="0" width="60" height="60"/>
  <use id="zoomplus" xlink:href="#zoomPlus" x="17" y="9" onmousedown="handleZoom(evt,'in')"/>
  <use id="zoomminus" xlink:href="#zoomMin" x="42" y="9" onmousedown="handleZoom(evt,'out')"/>
  <use id="reset" xlink:href="#resetDef" x="30" y="36" onmousedown="handleReset()"/>
   <use id="arrowup" xlink:href="#arrowUp" x="0" y="0" onmousedown="handlePan(0,-1)"/>
  <use id="arrowright" xlink:href="#arrowRight" x="0" y="0" onmousedown="handlePan(1,0)"/>
  <use id="arrowdown" xlink:href="#arrowDown" x="0" y="0" onmousedown="handlePan(0,1)"/>
  <use id="arrowleft" xlink:href="#arrowLeft" x="0" y="0" onmousedown="handlePan(-1,0)"/>
</g>
<svg viewBox="0 0 15 15" width="100%" height="30px" preserveAspectRatio="xMaxYMin meet">
 <g id="arrow_out" transform="scale(0.3 0.3)">
  <a xlink:href="_dynamic_table_8hpp__dep__incl_org.svg" target="_base">
   <rect id="button" ry="5" rx="5" y="6" x="6" height="38" width="38"
        fill="#f2f5e9" fill-opacity="0.5" stroke="#606060" stroke-width="1.0"/>
   <path id="arrow"
     d="M 11.500037,31.436501 C 11.940474,20.09759 22.043105,11.32322 32.158766,21.979434 L 37.068811,17.246167 C 37.068811,17.246167 37.088388,32 37.088388,32 L 22.160133,31.978069 C 22.160133,31.978069 26.997745,27.140456 26.997745,27.140456 C 18.528582,18.264221 13.291696,25.230495 11.500037,31.436501 z"
     style="fill:#404040;"/>
  </a>
 </g>
</svg>

<style type='text/css'>
<![CDATA[
[data-mouse-over-selected='false'] { opacity: 0.7; }
[data-mouse-over-selected='true']  { opacity: 1.0; }
]]>
</style>
<script type="application/ecmascript"><![CDATA[
document.addEventListener('DOMContentLoaded', (event) => {
  highlightEdges();
  highlightAdjacentNodes();
});
]]></script>
</svg>
