<?xml version="1.0" encoding="UTF-8" standalone="no"?>
<!DOCTYPE svg PUBLIC "-//W3C//DTD SVG 1.1//EN"
 "http://www.w3.org/Graphics/SVG/1.1/DTD/svg11.dtd">
<!-- Generated by graphviz version 12.0.0 (20240704.0754)
 -->
<!-- Title: src/nwb/hdmf/table/DynamicTable.cpp Pages: 1 -->
<svg width="499pt" height="370pt"
 viewBox="0.00 0.00 499.31 370.00" xmlns="http://www.w3.org/2000/svg" xmlns:xlink="http://www.w3.org/1999/xlink">
<g id="graph0" class="graph" transform="scale(1 1) rotate(0) translate(4 366)">
<title>src/nwb/hdmf/table/DynamicTable.cpp</title>
<!-- Node1 -->
<g id="Node000001" class="node">
<title>Node1</title>
<g id="a_Node000001"><a xlink:title=" ">
<polygon fill="#999999" stroke="#666666" points="253.69,-362 153.69,-362 153.69,-331.5 253.69,-331.5 253.69,-362"/>
<text text-anchor="start" x="161.69" y="-348.5" font-family="Helvetica,sans-Serif" font-size="10.00">src/nwb/hdmf/table</text>
<text text-anchor="middle" x="203.69" y="-337.25" font-family="Helvetica,sans-Serif" font-size="10.00">/DynamicTable.cpp</text>
</a>
</g>
</g>
<!-- Node2 -->
<g id="Node000002" class="node">
<title>Node2</title>
<g id="a_Node000002"><a xlink:href="_dynamic_table_8hpp.html" target="_top" xlink:title=" ">
<polygon fill="white" stroke="#666666" points="287.06,-295.5 120.31,-295.5 120.31,-276.25 287.06,-276.25 287.06,-295.5"/>
<text text-anchor="middle" x="203.69" y="-282" font-family="Helvetica,sans-Serif" font-size="10.00">nwb/hdmf/table/DynamicTable.hpp</text>
</a>
</g>
</g>
<!-- Node1&#45;&gt;Node2 -->
<g id="edge1_Node000001_Node000002" class="edge">
<title>Node1&#45;&gt;Node2</title>
<g id="a_edge1_Node000001_Node000002"><a xlink:title=" ">
<path fill="none" stroke="#63b8ff" d="M203.69,-331.2C203.69,-323.96 203.69,-315.09 203.69,-307.19"/>
<polygon fill="#63b8ff" stroke="#63b8ff" points="207.19,-307.46 203.69,-297.46 200.19,-307.46 207.19,-307.46"/>
</a>
</g>
</g>
<!-- Node3 -->
<g id="Node000003" class="node">
<title>Node3</title>
<g id="a_Node000003"><a xlink:title=" ">
<polygon fill="#e0e0e0" stroke="#999999" points="118.69,-74.5 78.69,-74.5 78.69,-55.25 118.69,-55.25 118.69,-74.5"/>
<text text-anchor="middle" x="98.69" y="-61" font-family="Helvetica,sans-Serif" font-size="10.00">string</text>
</a>
</g>
</g>
<!-- Node2&#45;&gt;Node3 -->
<g id="edge2_Node000002_Node000003" class="edge">
<title>Node2&#45;&gt;Node3</title>
<g id="a_edge2_Node000002_Node000003"><a xlink:title=" ">
<path fill="none" stroke="#63b8ff" d="M120.94,-275.77C75.86,-268.91 26.5,-257.66 12.69,-240.25 -28.12,-188.81 42.74,-114.87 79.13,-82.32"/>
<polygon fill="#63b8ff" stroke="#63b8ff" points="81.17,-85.18 86.41,-75.97 76.57,-79.9 81.17,-85.18"/>
</a>
</g>
</g>
<!-- Node4 -->
<g id="Node000004" class="node">
<title>Node4</title>
<g id="a_Node000004"><a xlink:href="_base_i_o_8hpp.html" target="_top" xlink:title=" ">
<polygon fill="white" stroke="#666666" points="303.56,-129.75 235.81,-129.75 235.81,-110.5 303.56,-110.5 303.56,-129.75"/>
<text text-anchor="middle" x="269.69" y="-116.25" font-family="Helvetica,sans-Serif" font-size="10.00">BaseIO.hpp</text>
</a>
</g>
</g>
<!-- Node2&#45;&gt;Node4 -->
<g id="edge3_Node000002_Node000004" class="edge">
<title>Node2&#45;&gt;Node4</title>
<g id="a_edge3_Node000002_Node000004"><a xlink:title=" ">
<path fill="none" stroke="#63b8ff" d="M201.04,-275.85C194.09,-251.39 176.6,-184.41 187.69,-165.75 196.15,-151.51 210.92,-141.53 225.62,-134.67"/>
<polygon fill="#63b8ff" stroke="#63b8ff" points="226.96,-137.91 234.82,-130.81 224.25,-131.45 226.96,-137.91"/>
</a>
</g>
</g>
<!-- Node11 -->
<g id="Node000011" class="node">
<title>Node11</title>
<g id="a_Node000011"><a xlink:href="_container_8hpp.html" target="_top" xlink:title=" ">
<polygon fill="white" stroke="#666666" points="342.56,-185 196.81,-185 196.81,-165.75 342.56,-165.75 342.56,-185"/>
<text text-anchor="middle" x="269.69" y="-171.5" font-family="Helvetica,sans-Serif" font-size="10.00">nwb/hdmf/base/Container.hpp</text>
</a>
</g>
</g>
<!-- Node2&#45;&gt;Node11 -->
<g id="edge12_Node000002_Node000011" class="edge">
<title>Node2&#45;&gt;Node11</title>
<g id="a_edge12_Node000002_Node000011"><a xlink:title=" ">
<path fill="none" stroke="#63b8ff" d="M209.09,-276C219.82,-258.35 244.03,-218.55 258.39,-194.95"/>
<polygon fill="#63b8ff" stroke="#63b8ff" points="261.22,-197.03 263.43,-186.67 255.24,-193.39 261.22,-197.03"/>
</a>
</g>
</g>
<!-- Node12 -->
<g id="Node000012" class="node">
<title>Node12</title>
<g id="a_Node000012"><a xlink:href="_element_identifiers_8hpp.html" target="_top" xlink:title=" ">
<polygon fill="white" stroke="#666666" points="491.31,-240.25 308.06,-240.25 308.06,-221 491.31,-221 491.31,-240.25"/>
<text text-anchor="middle" x="399.69" y="-226.75" font-family="Helvetica,sans-Serif" font-size="10.00">nwb/hdmf/table/ElementIdentifiers.hpp</text>
</a>
</g>
</g>
<!-- Node2&#45;&gt;Node12 -->
<g id="edge16_Node000002_Node000012" class="edge">
<title>Node2&#45;&gt;Node12</title>
<g id="a_edge16_Node000002_Node000012"><a xlink:title=" ">
<path fill="none" stroke="#63b8ff" d="M236.94,-275.84C269.6,-266.97 319.63,-253.37 355.6,-243.6"/>
<polygon fill="#63b8ff" stroke="#63b8ff" points="356.08,-247.1 364.82,-241.1 354.25,-240.34 356.08,-247.1"/>
</a>
</g>
</g>
<!-- Node14 -->
<g id="Node000014" class="node">
<title>Node14</title>
<g id="a_Node000014"><a xlink:href="_vector_data_8hpp.html" target="_top" xlink:title=" ">
<polygon fill="white" stroke="#666666" points="175.69,-240.25 21.69,-240.25 21.69,-221 175.69,-221 175.69,-240.25"/>
<text text-anchor="middle" x="98.69" y="-226.75" font-family="Helvetica,sans-Serif" font-size="10.00">nwb/hdmf/table/VectorData.hpp</text>
</a>
</g>
</g>
<!-- Node2&#45;&gt;Node14 -->
<g id="edge20_Node000002_Node000014" class="edge">
<title>Node2&#45;&gt;Node14</title>
<g id="a_edge20_Node000002_Node000014"><a xlink:title=" ">
<path fill="none" stroke="#63b8ff" d="M185.88,-275.84C169.66,-267.62 145.45,-255.34 126.66,-245.81"/>
<polygon fill="#63b8ff" stroke="#63b8ff" points="128.44,-242.79 117.94,-241.39 125.27,-249.03 128.44,-242.79"/>
</a>
</g>
</g>
<!-- Node4&#45;&gt;Node3 -->
<g id="edge7_Node000004_Node000003" class="edge">
<title>Node4&#45;&gt;Node3</title>
<g id="a_edge7_Node000004_Node000003"><a xlink:title=" ">
<path fill="none" stroke="#63b8ff" d="M240.68,-110.09C209.79,-100.47 161.09,-85.31 129.52,-75.48"/>
<polygon fill="#63b8ff" stroke="#63b8ff" points="130.76,-72.2 120.17,-72.57 128.68,-78.88 130.76,-72.2"/>
</a>
</g>
</g>
<!-- Node5 -->
<g id="Node000005" class="node">
<title>Node5</title>
<g id="a_Node000005"><a xlink:title=" ">
<polygon fill="#e0e0e0" stroke="#999999" points="371.31,-74.5 326.06,-74.5 326.06,-55.25 371.31,-55.25 371.31,-74.5"/>
<text text-anchor="middle" x="348.69" y="-61" font-family="Helvetica,sans-Serif" font-size="10.00">cstdint</text>
</a>
</g>
</g>
<!-- Node4&#45;&gt;Node5 -->
<g id="edge4_Node000004_Node000005" class="edge">
<title>Node4&#45;&gt;Node5</title>
<g id="a_edge4_Node000004_Node000005"><a xlink:title=" ">
<path fill="none" stroke="#63b8ff" d="M283.09,-110.09C294.78,-102.21 311.99,-90.61 325.85,-81.27"/>
<polygon fill="#63b8ff" stroke="#63b8ff" points="327.63,-84.29 333.97,-75.8 323.72,-78.49 327.63,-84.29"/>
</a>
</g>
</g>
<!-- Node6 -->
<g id="Node000006" class="node">
<title>Node6</title>
<g id="a_Node000006"><a xlink:title=" ">
<polygon fill="#e0e0e0" stroke="#999999" points="190.44,-74.5 136.94,-74.5 136.94,-55.25 190.44,-55.25 190.44,-74.5"/>
<text text-anchor="middle" x="163.69" y="-61" font-family="Helvetica,sans-Serif" font-size="10.00">iostream</text>
</a>
</g>
</g>
<!-- Node4&#45;&gt;Node6 -->
<g id="edge5_Node000004_Node000006" class="edge">
<title>Node4&#45;&gt;Node6</title>
<g id="a_edge5_Node000004_Node000006"><a xlink:title=" ">
<path fill="none" stroke="#63b8ff" d="M251.71,-110.09C235.34,-101.87 210.9,-89.59 191.92,-80.06"/>
<polygon fill="#63b8ff" stroke="#63b8ff" points="193.62,-76.99 183.11,-75.63 190.47,-83.25 193.62,-76.99"/>
</a>
</g>
</g>
<!-- Node7 -->
<g id="Node000007" class="node">
<title>Node7</title>
<g id="a_Node000007"><a xlink:title=" ">
<polygon fill="#e0e0e0" stroke="#999999" points="440.31,-74.5 389.06,-74.5 389.06,-55.25 440.31,-55.25 440.31,-74.5"/>
<text text-anchor="middle" x="414.69" y="-61" font-family="Helvetica,sans-Serif" font-size="10.00">memory</text>
</a>
</g>
</g>
<!-- Node4&#45;&gt;Node7 -->
<g id="edge6_Node000004_Node000007" class="edge">
<title>Node4&#45;&gt;Node7</title>
<g id="a_edge6_Node000004_Node000007"><a xlink:title=" ">
<path fill="none" stroke="#63b8ff" d="M294.28,-110.09C317.62,-101.52 352.93,-88.56 379.28,-78.88"/>
<polygon fill="#63b8ff" stroke="#63b8ff" points="380.37,-82.21 388.55,-75.47 377.96,-75.64 380.37,-82.21"/>
</a>
</g>
</g>
<!-- Node8 -->
<g id="Node000008" class="node">
<title>Node8</title>
<g id="a_Node000008"><a xlink:title=" ">
<polygon fill="#e0e0e0" stroke="#999999" points="240.19,-19.25 197.19,-19.25 197.19,0 240.19,0 240.19,-19.25"/>
<text text-anchor="middle" x="218.69" y="-5.75" font-family="Helvetica,sans-Serif" font-size="10.00">vector</text>
</a>
</g>
</g>
<!-- Node4&#45;&gt;Node8 -->
<g id="edge8_Node000004_Node000008" class="edge">
<title>Node4&#45;&gt;Node8</title>
<g id="a_edge8_Node000004_Node000008"><a xlink:title=" ">
<path fill="none" stroke="#63b8ff" d="M262.15,-110.07C255.25,-101.4 245.16,-87.72 238.69,-74.5 231.8,-60.42 226.61,-43.45 223.25,-30.53"/>
<polygon fill="#63b8ff" stroke="#63b8ff" points="226.72,-29.98 220.95,-21.1 219.92,-31.64 226.72,-29.98"/>
</a>
</g>
</g>
<!-- Node9 -->
<g id="Node000009" class="node">
<title>Node9</title>
<g id="a_Node000009"><a xlink:href="_types_8hpp.html" target="_top" xlink:title=" ">
<polygon fill="white" stroke="#666666" points="308.19,-74.5 247.19,-74.5 247.19,-55.25 308.19,-55.25 308.19,-74.5"/>
<text text-anchor="middle" x="277.69" y="-61" font-family="Helvetica,sans-Serif" font-size="10.00">Types.hpp</text>
</a>
</g>
</g>
<!-- Node4&#45;&gt;Node9 -->
<g id="edge9_Node000004_Node000009" class="edge">
<title>Node4&#45;&gt;Node9</title>
<g id="a_edge9_Node000004_Node000009"><a xlink:title=" ">
<path fill="none" stroke="#63b8ff" d="M271.01,-110.33C272,-103.74 273.39,-94.46 274.65,-86.07"/>
<polygon fill="#63b8ff" stroke="#63b8ff" points="278.09,-86.76 276.11,-76.36 271.17,-85.72 278.09,-86.76"/>
</a>
</g>
</g>
<!-- Node9&#45;&gt;Node8 -->
<g id="edge11_Node000009_Node000008" class="edge">
<title>Node9&#45;&gt;Node8</title>
<g id="a_edge11_Node000009_Node000008"><a xlink:title=" ">
<path fill="none" stroke="#63b8ff" d="M267.68,-54.84C259.32,-47.3 247.19,-36.35 237.09,-27.23"/>
<polygon fill="#63b8ff" stroke="#63b8ff" points="239.44,-24.64 229.67,-20.54 234.75,-29.84 239.44,-24.64"/>
</a>
</g>
</g>
<!-- Node10 -->
<g id="Node000010" class="node">
<title>Node10</title>
<g id="a_Node000010"><a xlink:title=" ">
<polygon fill="#e0e0e0" stroke="#999999" points="306.81,-19.25 258.56,-19.25 258.56,0 306.81,0 306.81,-19.25"/>
<text text-anchor="middle" x="282.69" y="-5.75" font-family="Helvetica,sans-Serif" font-size="10.00">cstddef</text>
</a>
</g>
</g>
<!-- Node9&#45;&gt;Node10 -->
<g id="edge10_Node000009_Node000010" class="edge">
<title>Node9&#45;&gt;Node10</title>
<g id="a_edge10_Node000009_Node000010"><a xlink:title=" ">
<path fill="none" stroke="#63b8ff" d="M278.51,-55.08C279.13,-48.49 280,-39.21 280.79,-30.82"/>
<polygon fill="#63b8ff" stroke="#63b8ff" points="284.25,-31.4 281.7,-21.12 277.28,-30.75 284.25,-31.4"/>
</a>
</g>
</g>
<!-- Node11&#45;&gt;Node3 -->
<g id="edge14_Node000011_Node000003" class="edge">
<title>Node11&#45;&gt;Node3</title>
<g id="a_edge14_Node000011_Node000003"><a xlink:title=" ">
<path fill="none" stroke="#63b8ff" d="M255.4,-165.31C226.03,-146.68 158.61,-103.9 122.52,-81"/>
<polygon fill="#63b8ff" stroke="#63b8ff" points="124.41,-78.05 114.09,-75.65 120.66,-83.96 124.41,-78.05"/>
</a>
</g>
</g>
<!-- Node11&#45;&gt;Node4 -->
<g id="edge15_Node000011_Node000004" class="edge">
<title>Node11&#45;&gt;Node4</title>
<g id="a_edge15_Node000011_Node000004"><a xlink:title=" ">
<path fill="none" stroke="#63b8ff" d="M269.69,-165.58C269.69,-159.07 269.69,-149.92 269.69,-141.62"/>
<polygon fill="#63b8ff" stroke="#63b8ff" points="273.19,-141.62 269.69,-131.62 266.19,-141.62 273.19,-141.62"/>
</a>
</g>
</g>
<!-- Node11&#45;&gt;Node7 -->
<g id="edge13_Node000011_Node000007" class="edge">
<title>Node11&#45;&gt;Node7</title>
<g id="a_edge13_Node000011_Node000007"><a xlink:title=" ">
<path fill="none" stroke="#63b8ff" d="M281.55,-165.5C306.09,-147.14 362.68,-104.79 393.6,-81.66"/>
<polygon fill="#63b8ff" stroke="#63b8ff" points="395.54,-84.58 401.45,-75.78 391.34,-78.97 395.54,-84.58"/>
</a>
</g>
</g>
<!-- Node13 -->
<g id="Node000013" class="node">
<title>Node13</title>
<g id="a_Node000013"><a xlink:href="_data_8hpp.html" target="_top" xlink:title=" ">
<polygon fill="white" stroke="#666666" points="486.44,-185 360.94,-185 360.94,-165.75 486.44,-165.75 486.44,-185"/>
<text text-anchor="middle" x="423.69" y="-171.5" font-family="Helvetica,sans-Serif" font-size="10.00">nwb/hdmf/base/Data.hpp</text>
</a>
</g>
</g>
<!-- Node12&#45;&gt;Node13 -->
<g id="edge17_Node000012_Node000013" class="edge">
<title>Node12&#45;&gt;Node13</title>
<g id="a_edge17_Node000012_Node000013"><a xlink:title=" ">
<path fill="none" stroke="#63b8ff" d="M403.65,-220.83C406.72,-214.01 411.1,-204.31 414.98,-195.7"/>
<polygon fill="#63b8ff" stroke="#63b8ff" points="418.1,-197.29 419.02,-186.74 411.72,-194.42 418.1,-197.29"/>
</a>
</g>
</g>
<!-- Node13&#45;&gt;Node4 -->
<g id="edge19_Node000013_Node000004" class="edge">
<title>Node13&#45;&gt;Node4</title>
<g id="a_edge19_Node000013_Node000004"><a xlink:title=" ">
<path fill="none" stroke="#63b8ff" d="M397.56,-165.34C372.56,-156.7 334.61,-143.57 306.54,-133.87"/>
<polygon fill="#63b8ff" stroke="#63b8ff" points="307.96,-130.66 297.37,-130.7 305.68,-137.27 307.96,-130.66"/>
</a>
</g>
</g>
<!-- Node13&#45;&gt;Node7 -->
<g id="edge18_Node000013_Node000007" class="edge">
<title>Node13&#45;&gt;Node7</title>
<g id="a_edge18_Node000013_Node000007"><a xlink:title=" ">
<path fill="none" stroke="#63b8ff" d="M422.95,-165.5C421.52,-148.25 418.33,-109.83 416.36,-86.06"/>
<polygon fill="#63b8ff" stroke="#63b8ff" points="419.87,-86.06 415.56,-76.39 412.9,-86.64 419.87,-86.06"/>
</a>
</g>
</g>
<!-- Node14&#45;&gt;Node3 -->
<g id="edge21_Node000014_Node000003" class="edge">
<title>Node14&#45;&gt;Node3</title>
<g id="a_edge21_Node000014_Node000003"><a xlink:title=" ">
<path fill="none" stroke="#63b8ff" d="M98.69,-220.82C98.69,-195.5 98.69,-122 98.69,-86.09"/>
<polygon fill="#63b8ff" stroke="#63b8ff" points="102.19,-86.24 98.69,-76.24 95.19,-86.24 102.19,-86.24"/>
</a>
</g>
</g>
<!-- Node14&#45;&gt;Node13 -->
<g id="edge22_Node000014_Node000013" class="edge">
<title>Node14&#45;&gt;Node13</title>
<g id="a_edge22_Node000014_Node000013"><a xlink:title=" ">
<path fill="none" stroke="#63b8ff" d="M154.19,-220.53C210.31,-211.34 297.08,-197.12 356.92,-187.31"/>
<polygon fill="#63b8ff" stroke="#63b8ff" points="357.35,-190.79 366.65,-185.72 356.22,-183.88 357.35,-190.79"/>
</a>
</g>
</g>
</g>
</svg>
