<?xml version="1.0" encoding="UTF-8" standalone="no"?>
<!DOCTYPE svg PUBLIC "-//W3C//DTD SVG 1.1//EN"
 "http://www.w3.org/Graphics/SVG/1.1/DTD/svg11.dtd">
<!-- Generated by graphviz version 12.2.1 (20241206.2353)
 -->
<!-- Title: src/nwb/file/ElectrodeGroup.cpp Pages: 1 -->
<!--zoomable 536 -->

<svg id="main" version="1.1" xmlns="http://www.w3.org/2000/svg" xmlns:xlink="http://www.w3.org/1999/xlink" xml:space="preserve" onload="init(evt)">

<style type="text/css"><![CDATA[
.node, .edge {opacity: 0.7;}
.node.selected, .edge.selected {opacity: 1;}
.edge:hover path { stroke: red; }
.edge:hover polygon { stroke: red; fill: red; }
]]></style>

<defs>
  <circle id="rim" cx="0" cy="0" r="7"/>
  <circle id="rim2" cx="0" cy="0" r="3.5"/>
  <g id="zoomPlus">
    <use xlink:href="#rim" fill="#404040"><set attributeName="fill" to="#808080" begin="zoomplus.mouseover" end="zoomplus.mouseout"/></use>
    <path d="M-4,0h8M0,-4v8" fill="none" stroke="white" stroke-width="1.5" pointer-events="none"/>
  </g>
  <g id="zoomMin">
    <use xlink:href="#rim" fill="#404040"><set attributeName="fill" to="#808080" begin="zoomminus.mouseover" end="zoomminus.mouseout"/></use>
    <path d="M-4,0h8" fill="none" stroke="white" stroke-width="1.5" pointer-events="none"/>
  </g>
  <g id="arrowUp" transform="translate(30 24)">
    <use xlink:href="#rim"/>
    <path pointer-events="none" fill="none" stroke="white" stroke-width="1.5" d="M0,-3.0v7 M-2.5,-0.5L0,-3.0L2.5,-0.5"/>
  </g>
  <g id="arrowRight" transform="rotate(90) translate(36 -43)">
    <use xlink:href="#rim"/>
    <path pointer-events="none" fill="none" stroke="white" stroke-width="1.5" d="M0,-3.0v7 M-2.5,-0.5L0,-3.0L2.5,-0.5"/>
  </g>
  <g id="arrowDown" transform="rotate(180) translate(-30 -48)">
    <use xlink:href="#rim"/>
    <path pointer-events="none" fill="none" stroke="white" stroke-width="1.5" d="M0,-3.0v7 M-2.5,-0.5L0,-3.0L2.5,-0.5"/>
  </g>
  <g id="arrowLeft" transform="rotate(270) translate(-36 17)">
    <use xlink:href="#rim"/>
    <path pointer-events="none" fill="none" stroke="white" stroke-width="1.5" d="M0,-3.0v7 M-2.5,-0.5L0,-3.0L2.5,-0.5"/>
  </g>
  <g id="resetDef">
    <use xlink:href="#rim2" fill="#404040"><set attributeName="fill" to="#808080" begin="reset.mouseover" end="reset.mouseout"/></use>
  </g>
</defs>
<script type="application/ecmascript">
var viewWidth = 2202;
var viewHeight = 536;
var sectionId = 'dynsection-0';
</script>
<script type="application/ecmascript" xlink:href="svg.min.js"/>
<svg id="graph" class="graph">
<g id="viewport">
<title>src/nwb/file/ElectrodeGroup.cpp</title>
<!-- Node1 -->
<g id="Node000001" class="node">
<title>Node1</title>
<g id="a_Node000001"><a xlink:title=" ">
<polygon fill="#999999" stroke="#666666" points="1041.12,-527.75 885.62,-527.75 885.62,-508.5 1041.12,-508.5 1041.12,-527.75"/>
<text text-anchor="middle" x="963.38" y="-514.25" font-family="Helvetica,sans-Serif" font-size="10.00">src/nwb/file/ElectrodeGroup.cpp</text>
</a>
</g>
</g>
<!-- Node2 -->
<g id="Node000002" class="node">
<title>Node2</title>
<g id="a_Node000002"><a xlink:href="_electrode_group_8hpp.html" target="_top" xlink:title=" ">
<polygon fill="white" stroke="#666666" points="651.88,-472.5 512.88,-472.5 512.88,-453.25 651.88,-453.25 651.88,-472.5"/>
<text text-anchor="middle" x="582.38" y="-459" font-family="Helvetica,sans-Serif" font-size="10.00">nwb/file/ElectrodeGroup.hpp</text>
</a>
</g>
</g>
<!-- Node1&#45;&gt;Node2 -->
<g id="edge1_Node000001_Node000002" class="edge">
<title>Node1&#45;&gt;Node2</title>
<g id="a_edge1_Node000001_Node000002"><a xlink:title=" ">
<path fill="none" stroke="#63b8ff" d="M898.31,-508.03C831.84,-498.74 728.68,-484.32 658.46,-474.51"/>
<polygon fill="#63b8ff" stroke="#63b8ff" points="659.38,-471.1 648.99,-473.19 658.41,-478.04 659.38,-471.1"/>
</a>
</g>
</g>
<!-- Node16 -->
<g id="Node000016" class="node">
<title>Node16</title>
<g id="a_Node000016"><a xlink:href="_utils_8hpp.html" target="_top" xlink:title=" ">
<polygon fill="white" stroke="#666666" points="1338.88,-251.5 1283.88,-251.5 1283.88,-232.25 1338.88,-232.25 1338.88,-251.5"/>
<text text-anchor="middle" x="1311.38" y="-238" font-family="Helvetica,sans-Serif" font-size="10.00">Utils.hpp</text>
</a>
</g>
</g>
<!-- Node1&#45;&gt;Node16 -->
<g id="edge69_Node000001_Node000016" class="edge">
<title>Node1&#45;&gt;Node16</title>
<g id="a_edge69_Node000001_Node000016"><a xlink:title=" ">
<path fill="none" stroke="#63b8ff" d="M1003.4,-508.04C1049.91,-494.83 1120.38,-465.45 1120.38,-408.62 1120.38,-408.62 1120.38,-408.62 1120.38,-351.38 1120.38,-282.13 1216.47,-256.53 1272.34,-247.49"/>
<polygon fill="#63b8ff" stroke="#63b8ff" points="1272.73,-250.97 1282.11,-246.03 1271.7,-244.05 1272.73,-250.97"/>
</a>
</g>
</g>
<!-- Node3 -->
<g id="Node000003" class="node">
<title>Node3</title>
<g id="a_Node000003"><a xlink:title=" ">
<polygon fill="#e0e0e0" stroke="#999999" points="852.38,-74.5 812.38,-74.5 812.38,-55.25 852.38,-55.25 852.38,-74.5"/>
<text text-anchor="middle" x="832.38" y="-61" font-family="Helvetica,sans-Serif" font-size="10.00">string</text>
</a>
</g>
</g>
<!-- Node2&#45;&gt;Node3 -->
<g id="edge2_Node000002_Node000003" class="edge">
<title>Node2&#45;&gt;Node3</title>
<g id="a_edge2_Node000002_Node000003"><a xlink:title=" ">
<path fill="none" stroke="#63b8ff" d="M652.37,-460.86C961.29,-455.94 2187.38,-431.49 2187.38,-353.38 2187.38,-353.38 2187.38,-353.38 2187.38,-180 2187.38,-163.91 2236.17,-157.87 2058.38,-110.5 1940.05,-78.98 1044.99,-68.08 864.16,-66.19"/>
<polygon fill="#63b8ff" stroke="#63b8ff" points="864.4,-62.69 854.36,-66.09 864.32,-69.69 864.4,-62.69"/>
</a>
</g>
</g>
<!-- Node4 -->
<g id="Node000004" class="node">
<title>Node4</title>
<g id="a_Node000004"><a xlink:href="_base_i_o_8hpp.html" target="_top" xlink:title=" ">
<polygon fill="white" stroke="#666666" points="431.5,-129.75 353.25,-129.75 353.25,-110.5 431.5,-110.5 431.5,-129.75"/>
<text text-anchor="middle" x="392.38" y="-116.25" font-family="Helvetica,sans-Serif" font-size="10.00">io/BaseIO.hpp</text>
</a>
</g>
</g>
<!-- Node2&#45;&gt;Node4 -->
<g id="edge3_Node000002_Node000004" class="edge">
<title>Node2&#45;&gt;Node4</title>
<g id="a_edge3_Node000002_Node000004"><a xlink:title=" ">
<path fill="none" stroke="#63b8ff" d="M512.61,-461.07C375.55,-457.58 84.38,-439.98 84.38,-353.38 84.38,-353.38 84.38,-353.38 84.38,-240.88 84.38,-186.31 254.41,-146.72 341.8,-129.98"/>
<polygon fill="#63b8ff" stroke="#63b8ff" points="342.39,-133.43 351.57,-128.14 341.09,-126.55 342.39,-133.43"/>
</a>
</g>
</g>
<!-- Node15 -->
<g id="Node000015" class="node">
<title>Node15</title>
<g id="a_Node000015"><a xlink:href="_device_8hpp.html" target="_top" xlink:title=" ">
<polygon fill="white" stroke="#666666" points="641.38,-417.25 523.38,-417.25 523.38,-398 641.38,-398 641.38,-417.25"/>
<text text-anchor="middle" x="582.38" y="-403.75" font-family="Helvetica,sans-Serif" font-size="10.00">nwb/device/Device.hpp</text>
</a>
</g>
</g>
<!-- Node2&#45;&gt;Node15 -->
<g id="edge16_Node000002_Node000015" class="edge">
<title>Node2&#45;&gt;Node15</title>
<g id="a_edge16_Node000002_Node000015"><a xlink:title=" ">
<path fill="none" stroke="#63b8ff" d="M582.38,-453.08C582.38,-446.57 582.38,-437.42 582.38,-429.12"/>
<polygon fill="#63b8ff" stroke="#63b8ff" points="585.88,-429.12 582.38,-419.12 578.88,-429.12 585.88,-429.12"/>
</a>
</g>
</g>
<!-- Node34 -->
<g id="Node000034" class="node">
<title>Node34</title>
<g id="a_Node000034"><a xlink:href="_container_8hpp.html" target="_top" xlink:title=" ">
<polygon fill="white" stroke="#666666" points="478.25,-362 332.5,-362 332.5,-342.75 478.25,-342.75 478.25,-362"/>
<text text-anchor="middle" x="405.38" y="-348.5" font-family="Helvetica,sans-Serif" font-size="10.00">nwb/hdmf/base/Container.hpp</text>
</a>
</g>
</g>
<!-- Node2&#45;&gt;Node34 -->
<g id="edge68_Node000002_Node000034" class="edge">
<title>Node2&#45;&gt;Node34</title>
<g id="a_edge68_Node000002_Node000034"><a xlink:title=" ">
<path fill="none" stroke="#63b8ff" d="M567.59,-452.81C537.06,-434.1 466.8,-391.03 429.56,-368.2"/>
<polygon fill="#63b8ff" stroke="#63b8ff" points="431.64,-365.37 421.29,-363.13 427.98,-371.34 431.64,-365.37"/>
</a>
</g>
</g>
<!-- Node4&#45;&gt;Node3 -->
<g id="edge8_Node000004_Node000003" class="edge">
<title>Node4&#45;&gt;Node3</title>
<g id="a_edge8_Node000004_Node000003"><a xlink:title=" ">
<path fill="none" stroke="#63b8ff" d="M431.87,-115.13C527.02,-105.45 763.77,-81.07 799.38,-74.5 799.88,-74.41 800.4,-74.31 800.91,-74.21"/>
<polygon fill="#63b8ff" stroke="#63b8ff" points="801.43,-77.68 810.41,-72.06 799.88,-70.85 801.43,-77.68"/>
</a>
</g>
</g>
<!-- Node5 -->
<g id="Node000005" class="node">
<title>Node5</title>
<g id="a_Node000005"><a xlink:title=" ">
<polygon fill="#e0e0e0" stroke="#999999" points="414.25,-74.5 382.5,-74.5 382.5,-55.25 414.25,-55.25 414.25,-74.5"/>
<text text-anchor="middle" x="398.38" y="-61" font-family="Helvetica,sans-Serif" font-size="10.00">any</text>
</a>
</g>
</g>
<!-- Node4&#45;&gt;Node5 -->
<g id="edge4_Node000004_Node000005" class="edge">
<title>Node4&#45;&gt;Node5</title>
<g id="a_edge4_Node000004_Node000005"><a xlink:title=" ">
<path fill="none" stroke="#63b8ff" d="M393.37,-110.33C394.11,-103.74 395.15,-94.46 396.1,-86.07"/>
<polygon fill="#63b8ff" stroke="#63b8ff" points="399.55,-86.69 397.19,-76.36 392.6,-85.91 399.55,-86.69"/>
</a>
</g>
</g>
<!-- Node6 -->
<g id="Node000006" class="node">
<title>Node6</title>
<g id="a_Node000006"><a xlink:title=" ">
<polygon fill="#e0e0e0" stroke="#999999" points="790,-74.5 744.75,-74.5 744.75,-55.25 790,-55.25 790,-74.5"/>
<text text-anchor="middle" x="767.38" y="-61" font-family="Helvetica,sans-Serif" font-size="10.00">cstdint</text>
</a>
</g>
</g>
<!-- Node4&#45;&gt;Node6 -->
<g id="edge5_Node000004_Node000006" class="edge">
<title>Node4&#45;&gt;Node6</title>
<g id="a_edge5_Node000004_Node000006"><a xlink:title=" ">
<path fill="none" stroke="#63b8ff" d="M431.8,-113.53C505.75,-103.03 664.07,-80.54 733.53,-70.68"/>
<polygon fill="#63b8ff" stroke="#63b8ff" points="733.75,-74.19 743.16,-69.31 732.77,-67.25 733.75,-74.19"/>
</a>
</g>
</g>
<!-- Node7 -->
<g id="Node000007" class="node">
<title>Node7</title>
<g id="a_Node000007"><a xlink:title=" ">
<polygon fill="#e0e0e0" stroke="#999999" points="612.12,-74.5 558.62,-74.5 558.62,-55.25 612.12,-55.25 612.12,-74.5"/>
<text text-anchor="middle" x="585.38" y="-61" font-family="Helvetica,sans-Serif" font-size="10.00">iostream</text>
</a>
</g>
</g>
<!-- Node4&#45;&gt;Node7 -->
<g id="edge6_Node000004_Node000007" class="edge">
<title>Node4&#45;&gt;Node7</title>
<g id="a_edge6_Node000004_Node000007"><a xlink:title=" ">
<path fill="none" stroke="#63b8ff" d="M425.11,-110.09C458.98,-100.75 511.82,-86.17 547.47,-76.33"/>
<polygon fill="#63b8ff" stroke="#63b8ff" points="548.23,-79.75 556.94,-73.72 546.37,-73.01 548.23,-79.75"/>
</a>
</g>
</g>
<!-- Node8 -->
<g id="Node000008" class="node">
<title>Node8</title>
<g id="a_Node000008"><a xlink:title=" ">
<polygon fill="#e0e0e0" stroke="#999999" points="247,-74.5 195.75,-74.5 195.75,-55.25 247,-55.25 247,-74.5"/>
<text text-anchor="middle" x="221.38" y="-61" font-family="Helvetica,sans-Serif" font-size="10.00">memory</text>
</a>
</g>
</g>
<!-- Node4&#45;&gt;Node8 -->
<g id="edge7_Node000004_Node000008" class="edge">
<title>Node4&#45;&gt;Node8</title>
<g id="a_edge7_Node000004_Node000008"><a xlink:title=" ">
<path fill="none" stroke="#63b8ff" d="M363.37,-110.09C334.43,-101.08 289.86,-87.2 258.39,-77.4"/>
<polygon fill="#63b8ff" stroke="#63b8ff" points="259.47,-74.07 248.88,-74.44 257.39,-80.76 259.47,-74.07"/>
</a>
</g>
</g>
<!-- Node9 -->
<g id="Node000009" class="node">
<title>Node9</title>
<g id="a_Node000009"><a xlink:title=" ">
<polygon fill="#e0e0e0" stroke="#999999" points="82.75,-74.5 0,-74.5 0,-55.25 82.75,-55.25 82.75,-74.5"/>
<text text-anchor="middle" x="41.38" y="-61" font-family="Helvetica,sans-Serif" font-size="10.00">unordered_map</text>
</a>
</g>
</g>
<!-- Node4&#45;&gt;Node9 -->
<g id="edge9_Node000004_Node000009" class="edge">
<title>Node4&#45;&gt;Node9</title>
<g id="a_edge9_Node000004_Node000009"><a xlink:title=" ">
<path fill="none" stroke="#63b8ff" d="M352.89,-113.57C297.4,-105.71 192.91,-90.65 94.18,-74.92"/>
<polygon fill="#63b8ff" stroke="#63b8ff" points="95.03,-71.51 84.6,-73.39 93.92,-78.42 95.03,-71.51"/>
</a>
</g>
</g>
<!-- Node10 -->
<g id="Node000010" class="node">
<title>Node10</title>
<g id="a_Node000010"><a xlink:title=" ">
<polygon fill="#e0e0e0" stroke="#999999" points="178.12,-74.5 100.62,-74.5 100.62,-55.25 178.12,-55.25 178.12,-74.5"/>
<text text-anchor="middle" x="139.38" y="-61" font-family="Helvetica,sans-Serif" font-size="10.00">unordered_set</text>
</a>
</g>
</g>
<!-- Node4&#45;&gt;Node10 -->
<g id="edge10_Node000004_Node000010" class="edge">
<title>Node4&#45;&gt;Node10</title>
<g id="a_edge10_Node000004_Node000010"><a xlink:title=" ">
<path fill="none" stroke="#63b8ff" d="M352.84,-110.8C308.71,-101.52 237.21,-86.47 189.26,-76.38"/>
<polygon fill="#63b8ff" stroke="#63b8ff" points="190.2,-73 179.69,-74.36 188.76,-79.85 190.2,-73"/>
</a>
</g>
</g>
<!-- Node11 -->
<g id="Node000011" class="node">
<title>Node11</title>
<g id="a_Node000011"><a xlink:title=" ">
<polygon fill="#e0e0e0" stroke="#999999" points="387.88,-19.25 344.88,-19.25 344.88,0 387.88,0 387.88,-19.25"/>
<text text-anchor="middle" x="366.38" y="-5.75" font-family="Helvetica,sans-Serif" font-size="10.00">vector</text>
</a>
</g>
</g>
<!-- Node4&#45;&gt;Node11 -->
<g id="edge11_Node000004_Node000011" class="edge">
<title>Node4&#45;&gt;Node11</title>
<g id="a_edge11_Node000004_Node000011"><a xlink:title=" ">
<path fill="none" stroke="#63b8ff" d="M352.98,-111.65C332.05,-105.46 308.08,-94.32 295.38,-74.5 281.76,-53.24 309.45,-34.68 334.13,-23.12"/>
<polygon fill="#63b8ff" stroke="#63b8ff" points="335.27,-26.45 343.01,-19.22 332.45,-20.04 335.27,-26.45"/>
</a>
</g>
</g>
<!-- Node12 -->
<g id="Node000012" class="node">
<title>Node12</title>
<g id="a_Node000012"><a xlink:title=" ">
<polygon fill="#e0e0e0" stroke="#999999" points="540.5,-74.5 432.25,-74.5 432.25,-55.25 540.5,-55.25 540.5,-74.5"/>
<text text-anchor="middle" x="486.38" y="-61" font-family="Helvetica,sans-Serif" font-size="10.00">boost/multi_array.hpp</text>
</a>
</g>
</g>
<!-- Node4&#45;&gt;Node12 -->
<g id="edge12_Node000004_Node000012" class="edge">
<title>Node4&#45;&gt;Node12</title>
<g id="a_edge12_Node000004_Node000012"><a xlink:title=" ">
<path fill="none" stroke="#63b8ff" d="M408.32,-110.09C422.64,-101.98 443.91,-89.93 460.63,-80.46"/>
<polygon fill="#63b8ff" stroke="#63b8ff" points="462.06,-83.67 469.03,-75.7 458.61,-77.58 462.06,-83.67"/>
</a>
</g>
</g>
<!-- Node13 -->
<g id="Node000013" class="node">
<title>Node13</title>
<g id="a_Node000013"><a xlink:href="_types_8hpp.html" target="_top" xlink:title=" ">
<polygon fill="white" stroke="#666666" points="364.88,-74.5 303.88,-74.5 303.88,-55.25 364.88,-55.25 364.88,-74.5"/>
<text text-anchor="middle" x="334.38" y="-61" font-family="Helvetica,sans-Serif" font-size="10.00">Types.hpp</text>
</a>
</g>
</g>
<!-- Node4&#45;&gt;Node13 -->
<g id="edge13_Node000004_Node000013" class="edge">
<title>Node4&#45;&gt;Node13</title>
<g id="a_edge13_Node000004_Node000013"><a xlink:title=" ">
<path fill="none" stroke="#63b8ff" d="M382.54,-110.09C374.32,-102.55 362.39,-91.6 352.46,-82.48"/>
<polygon fill="#63b8ff" stroke="#63b8ff" points="354.92,-79.98 345.18,-75.8 350.18,-85.14 354.92,-79.98"/>
</a>
</g>
</g>
<!-- Node13&#45;&gt;Node11 -->
<g id="edge15_Node000013_Node000011" class="edge">
<title>Node13&#45;&gt;Node11</title>
<g id="a_edge15_Node000013_Node000011"><a xlink:title=" ">
<path fill="none" stroke="#63b8ff" d="M339.66,-55.08C343.85,-48.11 349.85,-38.12 355.11,-29.37"/>
<polygon fill="#63b8ff" stroke="#63b8ff" points="358.05,-31.28 360.2,-20.91 352.05,-27.68 358.05,-31.28"/>
</a>
</g>
</g>
<!-- Node14 -->
<g id="Node000014" class="node">
<title>Node14</title>
<g id="a_Node000014"><a xlink:title=" ">
<polygon fill="#e0e0e0" stroke="#999999" points="326.5,-19.25 278.25,-19.25 278.25,0 326.5,0 326.5,-19.25"/>
<text text-anchor="middle" x="302.38" y="-5.75" font-family="Helvetica,sans-Serif" font-size="10.00">cstddef</text>
</a>
</g>
</g>
<!-- Node13&#45;&gt;Node14 -->
<g id="edge14_Node000013_Node000014" class="edge">
<title>Node13&#45;&gt;Node14</title>
<g id="a_edge14_Node000013_Node000014"><a xlink:title=" ">
<path fill="none" stroke="#63b8ff" d="M329.09,-55.08C324.9,-48.11 318.9,-38.12 313.64,-29.37"/>
<polygon fill="#63b8ff" stroke="#63b8ff" points="316.7,-27.68 308.55,-20.91 310.7,-31.28 316.7,-27.68"/>
</a>
</g>
</g>
<!-- Node15&#45;&gt;Node3 -->
<g id="edge17_Node000015_Node000003" class="edge">
<title>Node15&#45;&gt;Node3</title>
<g id="a_edge17_Node000015_Node000003"><a xlink:title=" ">
<path fill="none" stroke="#63b8ff" d="M641.42,-405.69C926.77,-400.77 2149.38,-375.21 2149.38,-298.12 2149.38,-298.12 2149.38,-298.12 2149.38,-180 2149.38,-91.75 2049.89,-127.9 1963.38,-110.5 1744.64,-66.5 1024.03,-65.45 864.03,-65.77"/>
<polygon fill="#63b8ff" stroke="#63b8ff" points="864.19,-62.27 854.2,-65.79 864.21,-69.27 864.19,-62.27"/>
</a>
</g>
</g>
<!-- Node15&#45;&gt;Node4 -->
<g id="edge52_Node000015_Node000004" class="edge">
<title>Node15&#45;&gt;Node4</title>
<g id="a_edge52_Node000015_Node000004"><a xlink:title=" ">
<path fill="none" stroke="#63b8ff" d="M576.48,-397.77C549.94,-357.89 441.25,-194.57 404.55,-139.42"/>
<polygon fill="#63b8ff" stroke="#63b8ff" points="407.68,-137.81 399.23,-131.42 401.85,-141.69 407.68,-137.81"/>
</a>
</g>
</g>
<!-- Node15&#45;&gt;Node16 -->
<g id="edge18_Node000015_Node000016" class="edge">
<title>Node15&#45;&gt;Node16</title>
<g id="a_edge18_Node000015_Node000016"><a xlink:title=" ">
<path fill="none" stroke="#63b8ff" d="M621.79,-397.53C709.04,-377.44 925.15,-327.82 1106.38,-287.5 1164.1,-274.66 1231.06,-260.15 1272.32,-251.26"/>
<polygon fill="#63b8ff" stroke="#63b8ff" points="1272.99,-254.7 1282.02,-249.18 1271.51,-247.86 1272.99,-254.7"/>
</a>
</g>
</g>
<!-- Node32 -->
<g id="Node000032" class="node">
<title>Node32</title>
<g id="a_Node000032"><a xlink:href="_read_i_o_8hpp.html" target="_top" xlink:title=" ">
<polygon fill="white" stroke="#666666" points="566.88,-129.75 487.88,-129.75 487.88,-110.5 566.88,-110.5 566.88,-129.75"/>
<text text-anchor="middle" x="527.38" y="-116.25" font-family="Helvetica,sans-Serif" font-size="10.00">io/ReadIO.hpp</text>
</a>
</g>
</g>
<!-- Node15&#45;&gt;Node32 -->
<g id="edge53_Node000015_Node000032" class="edge">
<title>Node15&#45;&gt;Node32</title>
<g id="a_edge53_Node000015_Node000032"><a xlink:title=" ">
<path fill="none" stroke="#63b8ff" d="M580.67,-397.77C573.07,-358.3 542.17,-197.95 531.24,-141.17"/>
<polygon fill="#63b8ff" stroke="#63b8ff" points="534.73,-140.81 529.4,-131.65 527.86,-142.13 534.73,-140.81"/>
</a>
</g>
</g>
<!-- Node15&#45;&gt;Node34 -->
<g id="edge54_Node000015_Node000034" class="edge">
<title>Node15&#45;&gt;Node34</title>
<g id="a_edge54_Node000015_Node000034"><a xlink:title=" ">
<path fill="none" stroke="#63b8ff" d="M552.35,-397.59C523.23,-388.83 478.84,-375.48 446.46,-365.73"/>
<polygon fill="#63b8ff" stroke="#63b8ff" points="447.58,-362.42 437,-362.89 445.56,-369.12 447.58,-362.42"/>
</a>
</g>
</g>
<!-- Node16&#45;&gt;Node3 -->
<g id="edge27_Node000016_Node000003" class="edge">
<title>Node16&#45;&gt;Node3</title>
<g id="a_edge27_Node000016_Node000003"><a xlink:title=" ">
<path fill="none" stroke="#63b8ff" d="M1339.05,-240.35C1474.92,-237.63 2065.97,-224.2 2092.38,-196.25 2101.68,-186.4 2101.57,-175.71 2092.38,-165.75 2006.45,-72.74 1051.19,-66.26 864.07,-65.88"/>
<polygon fill="#63b8ff" stroke="#63b8ff" points="864.15,-62.38 854.15,-65.87 864.14,-69.38 864.15,-62.38"/>
</a>
</g>
</g>
<!-- Node16&#45;&gt;Node4 -->
<g id="edge34_Node000016_Node000004" class="edge">
<title>Node16&#45;&gt;Node4</title>
<g id="a_edge34_Node000016_Node000004"><a xlink:title=" ">
<path fill="none" stroke="#63b8ff" d="M1283.53,-240.53C1165.24,-238.84 704.06,-230.2 563.38,-196.25 509,-183.13 450.26,-153.58 417.73,-135.7"/>
<polygon fill="#63b8ff" stroke="#63b8ff" points="419.5,-132.68 409.07,-130.86 416.09,-138.79 419.5,-132.68"/>
</a>
</g>
</g>
<!-- Node16&#45;&gt;Node6 -->
<g id="edge22_Node000016_Node000006" class="edge">
<title>Node16&#45;&gt;Node6</title>
<g id="a_edge22_Node000016_Node000006"><a xlink:title=" ">
<path fill="none" stroke="#63b8ff" d="M1283.67,-240.32C1182.41,-238.03 836.34,-227.93 799.38,-196.25 767.46,-168.9 764.63,-115.4 765.74,-86.15"/>
<polygon fill="#63b8ff" stroke="#63b8ff" points="769.22,-86.63 766.33,-76.44 762.23,-86.21 769.22,-86.63"/>
</a>
</g>
</g>
<!-- Node17 -->
<g id="Node000017" class="node">
<title>Node17</title>
<g id="a_Node000017"><a xlink:title=" ">
<polygon fill="#e0e0e0" stroke="#999999" points="1304.25,-190.62 1248.5,-190.62 1248.5,-171.38 1304.25,-171.38 1304.25,-190.62"/>
<text text-anchor="middle" x="1276.38" y="-177.12" font-family="Helvetica,sans-Serif" font-size="10.00">algorithm</text>
</a>
</g>
</g>
<!-- Node16&#45;&gt;Node17 -->
<g id="edge19_Node000016_Node000017" class="edge">
<title>Node16&#45;&gt;Node17</title>
<g id="a_edge19_Node000016_Node000017"><a xlink:title=" ">
<path fill="none" stroke="#63b8ff" d="M1306.06,-231.93C1301.18,-223.72 1293.78,-211.28 1287.6,-200.87"/>
<polygon fill="#63b8ff" stroke="#63b8ff" points="1290.63,-199.13 1282.51,-192.33 1284.62,-202.71 1290.63,-199.13"/>
</a>
</g>
</g>
<!-- Node18 -->
<g id="Node000018" class="node">
<title>Node18</title>
<g id="a_Node000018"><a xlink:title=" ">
<polygon fill="#e0e0e0" stroke="#999999" points="1368,-190.62 1322.75,-190.62 1322.75,-171.38 1368,-171.38 1368,-190.62"/>
<text text-anchor="middle" x="1345.38" y="-177.12" font-family="Helvetica,sans-Serif" font-size="10.00">chrono</text>
</a>
</g>
</g>
<!-- Node16&#45;&gt;Node18 -->
<g id="edge20_Node000016_Node000018" class="edge">
<title>Node16&#45;&gt;Node18</title>
<g id="a_edge20_Node000016_Node000018"><a xlink:title=" ">
<path fill="none" stroke="#63b8ff" d="M1316.54,-231.93C1321.28,-223.72 1328.46,-211.28 1334.48,-200.87"/>
<polygon fill="#63b8ff" stroke="#63b8ff" points="1337.44,-202.75 1339.41,-192.34 1331.37,-199.25 1337.44,-202.75"/>
</a>
</g>
</g>
<!-- Node19 -->
<g id="Node000019" class="node">
<title>Node19</title>
<g id="a_Node000019"><a xlink:title=" ">
<polygon fill="#e0e0e0" stroke="#999999" points="1428.88,-190.62 1385.88,-190.62 1385.88,-171.38 1428.88,-171.38 1428.88,-190.62"/>
<text text-anchor="middle" x="1407.38" y="-177.12" font-family="Helvetica,sans-Serif" font-size="10.00">cmath</text>
</a>
</g>
</g>
<!-- Node16&#45;&gt;Node19 -->
<g id="edge21_Node000016_Node000019" class="edge">
<title>Node16&#45;&gt;Node19</title>
<g id="a_edge21_Node000016_Node000019"><a xlink:title=" ">
<path fill="none" stroke="#63b8ff" d="M1325.96,-231.93C1341.04,-222.68 1364.86,-208.07 1382.85,-197.04"/>
<polygon fill="#63b8ff" stroke="#63b8ff" points="1384.67,-200.03 1391.37,-191.82 1381.01,-194.06 1384.67,-200.03"/>
</a>
</g>
</g>
<!-- Node20 -->
<g id="Node000020" class="node">
<title>Node20</title>
<g id="a_Node000020"><a xlink:title=" ">
<polygon fill="#e0e0e0" stroke="#999999" points="1487.38,-190.62 1447.38,-190.62 1447.38,-171.38 1487.38,-171.38 1487.38,-190.62"/>
<text text-anchor="middle" x="1467.38" y="-177.12" font-family="Helvetica,sans-Serif" font-size="10.00">ctime</text>
</a>
</g>
</g>
<!-- Node16&#45;&gt;Node20 -->
<g id="edge23_Node000016_Node000020" class="edge">
<title>Node16&#45;&gt;Node20</title>
<g id="a_edge23_Node000016_Node000020"><a xlink:title=" ">
<path fill="none" stroke="#63b8ff" d="M1339.23,-232.14C1365.21,-223.76 1404.87,-210.31 1438.38,-196.25 1438.72,-196.1 1439.08,-195.95 1439.43,-195.8"/>
<polygon fill="#63b8ff" stroke="#63b8ff" points="1440.73,-199.06 1448.36,-191.71 1437.81,-192.69 1440.73,-199.06"/>
</a>
</g>
</g>
<!-- Node21 -->
<g id="Node000021" class="node">
<title>Node21</title>
<g id="a_Node000021"><a xlink:title=" ">
<polygon fill="#e0e0e0" stroke="#999999" points="1555.25,-190.62 1505.5,-190.62 1505.5,-171.38 1555.25,-171.38 1555.25,-190.62"/>
<text text-anchor="middle" x="1530.38" y="-177.12" font-family="Helvetica,sans-Serif" font-size="10.00">iomanip</text>
</a>
</g>
</g>
<!-- Node16&#45;&gt;Node21 -->
<g id="edge24_Node000016_Node000021" class="edge">
<title>Node16&#45;&gt;Node21</title>
<g id="a_edge24_Node000016_Node000021"><a xlink:title=" ">
<path fill="none" stroke="#63b8ff" d="M1339.34,-235.58C1375.91,-228.34 1441.75,-214.16 1496.38,-196.25 1497.53,-195.87 1498.7,-195.47 1499.88,-195.05"/>
<polygon fill="#63b8ff" stroke="#63b8ff" points="1500.96,-198.39 1509.03,-191.53 1498.44,-191.86 1500.96,-198.39"/>
</a>
</g>
</g>
<!-- Node22 -->
<g id="Node000022" class="node">
<title>Node22</title>
<g id="a_Node000022"><a xlink:title=" ">
<polygon fill="#e0e0e0" stroke="#999999" points="1613.38,-190.62 1573.38,-190.62 1573.38,-171.38 1613.38,-171.38 1613.38,-190.62"/>
<text text-anchor="middle" x="1593.38" y="-177.12" font-family="Helvetica,sans-Serif" font-size="10.00">regex</text>
</a>
</g>
</g>
<!-- Node16&#45;&gt;Node22 -->
<g id="edge25_Node000016_Node000022" class="edge">
<title>Node16&#45;&gt;Node22</title>
<g id="a_edge25_Node000016_Node000022"><a xlink:title=" ">
<path fill="none" stroke="#63b8ff" d="M1339.33,-238.54C1386.64,-234.02 1485.09,-222.14 1564.38,-196.25 1565.02,-196.04 1565.68,-195.81 1566.33,-195.58"/>
<polygon fill="#63b8ff" stroke="#63b8ff" points="1567.61,-198.84 1575.45,-191.71 1564.88,-192.39 1567.61,-198.84"/>
</a>
</g>
</g>
<!-- Node23 -->
<g id="Node000023" class="node">
<title>Node23</title>
<g id="a_Node000023"><a xlink:title=" ">
<polygon fill="#e0e0e0" stroke="#999999" points="1683,-190.62 1631.75,-190.62 1631.75,-171.38 1683,-171.38 1683,-190.62"/>
<text text-anchor="middle" x="1657.38" y="-177.12" font-family="Helvetica,sans-Serif" font-size="10.00">sstream</text>
</a>
</g>
</g>
<!-- Node16&#45;&gt;Node23 -->
<g id="edge26_Node000016_Node000023" class="edge">
<title>Node16&#45;&gt;Node23</title>
<g id="a_edge26_Node000016_Node000023"><a xlink:title=" ">
<path fill="none" stroke="#63b8ff" d="M1339.29,-239.16C1394.3,-235.28 1520.24,-223.92 1622.38,-196.25 1623.96,-195.82 1625.57,-195.34 1627.18,-194.82"/>
<polygon fill="#63b8ff" stroke="#63b8ff" points="1628.05,-198.23 1636.25,-191.52 1625.66,-191.65 1628.05,-198.23"/>
</a>
</g>
</g>
<!-- Node24 -->
<g id="Node000024" class="node">
<title>Node24</title>
<g id="a_Node000024"><a xlink:title=" ">
<polygon fill="#e0e0e0" stroke="#999999" points="1805.62,-190.62 1701.12,-190.62 1701.12,-171.38 1805.62,-171.38 1805.62,-190.62"/>
<text text-anchor="middle" x="1753.38" y="-177.12" font-family="Helvetica,sans-Serif" font-size="10.00">boost/date_time.hpp</text>
</a>
</g>
</g>
<!-- Node16&#45;&gt;Node24 -->
<g id="edge28_Node000016_Node000024" class="edge">
<title>Node16&#45;&gt;Node24</title>
<g id="a_edge28_Node000016_Node000024"><a xlink:title=" ">
<path fill="none" stroke="#63b8ff" d="M1339.26,-238.7C1402.43,-233.52 1561.17,-219.18 1692.38,-196.25 1696.95,-195.45 1701.71,-194.52 1706.44,-193.52"/>
<polygon fill="#63b8ff" stroke="#63b8ff" points="1706.89,-197.01 1715.91,-191.44 1705.39,-190.17 1706.89,-197.01"/>
</a>
</g>
</g>
<!-- Node25 -->
<g id="Node000025" class="node">
<title>Node25</title>
<g id="a_Node000025"><a xlink:title=" ">
<polygon fill="#e0e0e0" stroke="#999999" points="1964.62,-190.62 1824.12,-190.62 1824.12,-171.38 1964.62,-171.38 1964.62,-190.62"/>
<text text-anchor="middle" x="1894.38" y="-177.12" font-family="Helvetica,sans-Serif" font-size="10.00">boost/endian/conversion.hpp</text>
</a>
</g>
</g>
<!-- Node16&#45;&gt;Node25 -->
<g id="edge29_Node000016_Node000025" class="edge">
<title>Node16&#45;&gt;Node25</title>
<g id="a_edge29_Node000016_Node000025"><a xlink:title=" ">
<path fill="none" stroke="#63b8ff" d="M1339.28,-239.26C1415.59,-234.67 1634.05,-220.26 1814.38,-196.25 1821.53,-195.3 1829.01,-194.16 1836.41,-192.94"/>
<polygon fill="#63b8ff" stroke="#63b8ff" points="1836.76,-196.43 1846.03,-191.31 1835.59,-189.53 1836.76,-196.43"/>
</a>
</g>
</g>
<!-- Node26 -->
<g id="Node000026" class="node">
<title>Node26</title>
<g id="a_Node000026"><a xlink:title=" ">
<polygon fill="#e0e0e0" stroke="#999999" points="2083.75,-190.62 1983,-190.62 1983,-171.38 2083.75,-171.38 2083.75,-190.62"/>
<text text-anchor="middle" x="2033.38" y="-177.12" font-family="Helvetica,sans-Serif" font-size="10.00">boost/uuid/uuid.hpp</text>
</a>
</g>
</g>
<!-- Node16&#45;&gt;Node26 -->
<g id="edge30_Node000016_Node000026" class="edge">
<title>Node16&#45;&gt;Node26</title>
<g id="a_edge30_Node000016_Node000026"><a xlink:title=" ">
<path fill="none" stroke="#63b8ff" d="M1339.3,-240.65C1430.8,-239.54 1729.64,-233.15 1973.38,-196.25 1978.33,-195.5 1983.48,-194.55 1988.59,-193.49"/>
<polygon fill="#63b8ff" stroke="#63b8ff" points="1989.13,-196.96 1998.14,-191.38 1987.62,-190.12 1989.13,-196.96"/>
</a>
</g>
</g>
<!-- Node27 -->
<g id="Node000027" class="node">
<title>Node27</title>
<g id="a_Node000027"><a xlink:title=" ">
<polygon fill="#e0e0e0" stroke="#999999" points="960.25,-190.62 808.5,-190.62 808.5,-171.38 960.25,-171.38 960.25,-190.62"/>
<text text-anchor="middle" x="884.38" y="-177.12" font-family="Helvetica,sans-Serif" font-size="10.00">boost/uuid/uuid_generators.hpp</text>
</a>
</g>
</g>
<!-- Node16&#45;&gt;Node27 -->
<g id="edge31_Node000016_Node000027" class="edge">
<title>Node16&#45;&gt;Node27</title>
<g id="a_edge31_Node000016_Node000027"><a xlink:title=" ">
<path fill="none" stroke="#63b8ff" d="M1283.4,-237.57C1224.97,-230.6 1085.75,-213.59 969.38,-196.25 962.48,-195.22 955.28,-194.1 948.11,-192.94"/>
<polygon fill="#63b8ff" stroke="#63b8ff" points="948.85,-189.52 938.42,-191.36 947.72,-196.43 948.85,-189.52"/>
</a>
</g>
</g>
<!-- Node28 -->
<g id="Node000028" class="node">
<title>Node28</title>
<g id="a_Node000028"><a xlink:title=" ">
<polygon fill="#e0e0e0" stroke="#999999" points="1092.12,-190.62 978.62,-190.62 978.62,-171.38 1092.12,-171.38 1092.12,-190.62"/>
<text text-anchor="middle" x="1035.38" y="-177.12" font-family="Helvetica,sans-Serif" font-size="10.00">boost/uuid/uuid_io.hpp</text>
</a>
</g>
</g>
<!-- Node16&#45;&gt;Node28 -->
<g id="edge32_Node000016_Node000028" class="edge">
<title>Node16&#45;&gt;Node28</title>
<g id="a_edge32_Node000016_Node000028"><a xlink:title=" ">
<path fill="none" stroke="#63b8ff" d="M1283.51,-234.98C1243.29,-226.47 1166.61,-210.22 1101.38,-196.25 1097.11,-195.34 1092.7,-194.39 1088.26,-193.43"/>
<polygon fill="#63b8ff" stroke="#63b8ff" points="1089.26,-190.07 1078.75,-191.39 1087.79,-196.91 1089.26,-190.07"/>
</a>
</g>
</g>
<!-- Node29 -->
<g id="Node000029" class="node">
<title>Node29</title>
<g id="a_Node000029"><a xlink:title=" ">
<polygon fill="#e0e0e0" stroke="#999999" points="1230.12,-196.25 1110.62,-196.25 1110.62,-165.75 1230.12,-165.75 1230.12,-196.25"/>
<text text-anchor="start" x="1118.62" y="-182.75" font-family="Helvetica,sans-Serif" font-size="10.00">boost/date_time/c_local</text>
<text text-anchor="middle" x="1170.38" y="-171.5" font-family="Helvetica,sans-Serif" font-size="10.00">_time_adjustor.hpp</text>
</a>
</g>
</g>
<!-- Node16&#45;&gt;Node29 -->
<g id="edge33_Node000016_Node000029" class="edge">
<title>Node16&#45;&gt;Node29</title>
<g id="a_edge33_Node000016_Node000029"><a xlink:title=" ">
<path fill="none" stroke="#63b8ff" d="M1289.65,-231.8C1270.14,-223.66 1240.84,-211.42 1216.17,-201.12"/>
<polygon fill="#63b8ff" stroke="#63b8ff" points="1217.54,-197.9 1206.96,-197.28 1214.84,-204.36 1217.54,-197.9"/>
</a>
</g>
</g>
<!-- Node30 -->
<g id="Node000030" class="node">
<title>Node30</title>
<g id="a_Node000030"><a xlink:href="_h_d_f5_i_o_8hpp.html" target="_top" xlink:title=" ">
<polygon fill="white" stroke="#666666" points="676.25,-190.62 572.5,-190.62 572.5,-171.38 676.25,-171.38 676.25,-190.62"/>
<text text-anchor="middle" x="624.38" y="-177.12" font-family="Helvetica,sans-Serif" font-size="10.00">io/hdf5/HDF5IO.hpp</text>
</a>
</g>
</g>
<!-- Node16&#45;&gt;Node30 -->
<g id="edge35_Node000016_Node000030" class="edge">
<title>Node16&#45;&gt;Node30</title>
<g id="a_edge35_Node000016_Node000030"><a xlink:title=" ">
<path fill="none" stroke="#63b8ff" d="M1283.57,-238.78C1203.32,-232.69 964.44,-214.3 766.38,-196.25 740.71,-193.91 712.45,-191.12 687.95,-188.63"/>
<polygon fill="#63b8ff" stroke="#63b8ff" points="688.43,-185.16 678.12,-187.63 687.72,-192.13 688.43,-185.16"/>
</a>
</g>
</g>
<!-- Node30&#45;&gt;Node3 -->
<g id="edge38_Node000030_Node000003" class="edge">
<title>Node30&#45;&gt;Node3</title>
<g id="a_edge38_Node000030_Node000003"><a xlink:title=" ">
<path fill="none" stroke="#63b8ff" d="M640.7,-171.04C676.53,-151.38 762.35,-104.3 805.97,-80.37"/>
<polygon fill="#63b8ff" stroke="#63b8ff" points="807.43,-83.55 814.51,-75.67 804.06,-77.42 807.43,-83.55"/>
</a>
</g>
</g>
<!-- Node30&#45;&gt;Node4 -->
<g id="edge41_Node000030_Node000004" class="edge">
<title>Node30&#45;&gt;Node4</title>
<g id="a_edge41_Node000030_Node000004"><a xlink:title=" ">
<path fill="none" stroke="#63b8ff" d="M588.63,-170.93C548.53,-160.75 483.32,-144.2 439.18,-133"/>
<polygon fill="#63b8ff" stroke="#63b8ff" points="440.18,-129.65 429.62,-130.58 438.46,-136.43 440.18,-129.65"/>
</a>
</g>
</g>
<!-- Node30&#45;&gt;Node7 -->
<g id="edge36_Node000030_Node000007" class="edge">
<title>Node30&#45;&gt;Node7</title>
<g id="a_edge36_Node000030_Node000007"><a xlink:title=" ">
<path fill="none" stroke="#63b8ff" d="M621.31,-171.04C615.05,-152.71 600.63,-110.53 592.08,-85.51"/>
<polygon fill="#63b8ff" stroke="#63b8ff" points="595.46,-84.55 588.91,-76.22 588.83,-86.82 595.46,-84.55"/>
</a>
</g>
</g>
<!-- Node30&#45;&gt;Node8 -->
<g id="edge37_Node000030_Node000008" class="edge">
<title>Node30&#45;&gt;Node8</title>
<g id="a_edge37_Node000030_Node000008"><a xlink:title=" ">
<path fill="none" stroke="#63b8ff" d="M572.11,-175.37C514.96,-169.22 421.28,-155.94 344.38,-129.75 307.87,-117.32 268.86,-95.41 244.79,-80.77"/>
<polygon fill="#63b8ff" stroke="#63b8ff" points="246.78,-77.88 236.43,-75.6 243.09,-83.84 246.78,-77.88"/>
</a>
</g>
</g>
<!-- Node30&#45;&gt;Node13 -->
<g id="edge40_Node000030_Node000013" class="edge">
<title>Node30&#45;&gt;Node13</title>
<g id="a_edge40_Node000030_Node000013"><a xlink:title=" ">
<path fill="none" stroke="#63b8ff" d="M594.81,-170.95C565.22,-161.62 518.58,-146.14 479.38,-129.75 461.54,-122.29 457.96,-118.53 440.38,-110.5 416.2,-99.46 388.52,-87.84 367.5,-79.22"/>
<polygon fill="#63b8ff" stroke="#63b8ff" points="368.86,-76 358.28,-75.46 366.22,-82.48 368.86,-76"/>
</a>
</g>
</g>
<!-- Node31 -->
<g id="Node000031" class="node">
<title>Node31</title>
<g id="a_Node000031"><a xlink:title=" ">
<polygon fill="#e0e0e0" stroke="#999999" points="693.38,-129.75 623.38,-129.75 623.38,-110.5 693.38,-110.5 693.38,-129.75"/>
<text text-anchor="middle" x="658.38" y="-116.25" font-family="Helvetica,sans-Serif" font-size="10.00">H5Opublic.h</text>
</a>
</g>
</g>
<!-- Node30&#45;&gt;Node31 -->
<g id="edge39_Node000030_Node000031" class="edge">
<title>Node30&#45;&gt;Node31</title>
<g id="a_edge39_Node000030_Node000031"><a xlink:title=" ">
<path fill="none" stroke="#63b8ff" d="M629.54,-171.06C634.28,-162.85 641.46,-150.41 647.48,-140"/>
<polygon fill="#63b8ff" stroke="#63b8ff" points="650.44,-141.87 652.41,-131.46 644.37,-138.37 650.44,-141.87"/>
</a>
</g>
</g>
<!-- Node30&#45;&gt;Node32 -->
<g id="edge42_Node000030_Node000032" class="edge">
<title>Node30&#45;&gt;Node32</title>
<g id="a_edge42_Node000030_Node000032"><a xlink:title=" ">
<path fill="none" stroke="#63b8ff" d="M609.64,-171.06C594.33,-161.76 570.11,-147.06 551.9,-136.01"/>
<polygon fill="#63b8ff" stroke="#63b8ff" points="553.9,-133.13 543.54,-130.94 550.27,-139.12 553.9,-133.13"/>
</a>
</g>
</g>
<!-- Node32&#45;&gt;Node3 -->
<g id="edge47_Node000032_Node000003" class="edge">
<title>Node32&#45;&gt;Node3</title>
<g id="a_edge47_Node000032_Node000003"><a xlink:title=" ">
<path fill="none" stroke="#63b8ff" d="M567.23,-113.77C620.43,-106.36 717.46,-91.89 799.38,-74.5 800.03,-74.36 800.68,-74.22 801.35,-74.07"/>
<polygon fill="#63b8ff" stroke="#63b8ff" points="801.82,-77.56 810.73,-71.82 800.19,-70.75 801.82,-77.56"/>
</a>
</g>
</g>
<!-- Node32&#45;&gt;Node5 -->
<g id="edge43_Node000032_Node000005" class="edge">
<title>Node32&#45;&gt;Node5</title>
<g id="a_edge43_Node000032_Node000005"><a xlink:title=" ">
<path fill="none" stroke="#63b8ff" d="M505.49,-110.09C483.28,-100.92 448.85,-86.71 425.05,-76.89"/>
<polygon fill="#63b8ff" stroke="#63b8ff" points="426.61,-73.74 416.03,-73.16 423.94,-80.21 426.61,-73.74"/>
</a>
</g>
</g>
<!-- Node32&#45;&gt;Node6 -->
<g id="edge44_Node000032_Node000006" class="edge">
<title>Node32&#45;&gt;Node6</title>
<g id="a_edge44_Node000032_Node000006"><a xlink:title=" ">
<path fill="none" stroke="#63b8ff" d="M567.08,-110.55C608.03,-101.67 673.71,-87.33 730.38,-74.5 731.36,-74.28 732.36,-74.05 733.37,-73.82"/>
<polygon fill="#63b8ff" stroke="#63b8ff" points="733.86,-77.3 742.82,-71.64 732.29,-70.48 733.86,-77.3"/>
</a>
</g>
</g>
<!-- Node32&#45;&gt;Node7 -->
<g id="edge45_Node000032_Node000007" class="edge">
<title>Node32&#45;&gt;Node7</title>
<g id="a_edge45_Node000032_Node000007"><a xlink:title=" ">
<path fill="none" stroke="#63b8ff" d="M537.21,-110.09C545.43,-102.55 557.36,-91.6 567.29,-82.48"/>
<polygon fill="#63b8ff" stroke="#63b8ff" points="569.57,-85.14 574.57,-75.8 564.83,-79.98 569.57,-85.14"/>
</a>
</g>
</g>
<!-- Node32&#45;&gt;Node8 -->
<g id="edge46_Node000032_Node000008" class="edge">
<title>Node32&#45;&gt;Node8</title>
<g id="a_edge46_Node000032_Node000008"><a xlink:title=" ">
<path fill="none" stroke="#63b8ff" d="M487.68,-112.22C428.08,-101.85 316.27,-82.39 258.31,-72.3"/>
<polygon fill="#63b8ff" stroke="#63b8ff" points="259.08,-68.88 248.63,-70.62 257.88,-75.78 259.08,-68.88"/>
</a>
</g>
</g>
<!-- Node32&#45;&gt;Node11 -->
<g id="edge49_Node000032_Node000011" class="edge">
<title>Node32&#45;&gt;Node11</title>
<g id="a_edge49_Node000032_Node000011"><a xlink:title=" ">
<path fill="none" stroke="#63b8ff" d="M567.08,-114.3C612.17,-107.9 681.58,-94.98 697.38,-74.5 702.6,-67.73 703.01,-61.69 697.38,-55.25 658.88,-11.22 475.56,-8.87 399.53,-9.85"/>
<polygon fill="#63b8ff" stroke="#63b8ff" points="399.74,-6.35 389.8,-10.01 399.85,-13.35 399.74,-6.35"/>
</a>
</g>
</g>
<!-- Node32&#45;&gt;Node12 -->
<g id="edge50_Node000032_Node000012" class="edge">
<title>Node32&#45;&gt;Node12</title>
<g id="a_edge50_Node000032_Node000012"><a xlink:title=" ">
<path fill="none" stroke="#63b8ff" d="M520.6,-110.33C515.06,-103.13 507.03,-92.71 500.15,-83.76"/>
<polygon fill="#63b8ff" stroke="#63b8ff" points="503.09,-81.85 494.22,-76.06 497.54,-86.12 503.09,-81.85"/>
</a>
</g>
</g>
<!-- Node32&#45;&gt;Node13 -->
<g id="edge51_Node000032_Node000013" class="edge">
<title>Node32&#45;&gt;Node13</title>
<g id="a_edge51_Node000032_Node000013"><a xlink:title=" ">
<path fill="none" stroke="#63b8ff" d="M494.64,-110.09C462.03,-101.1 411.84,-87.25 376.33,-77.45"/>
<polygon fill="#63b8ff" stroke="#63b8ff" points="377.39,-74.11 366.82,-74.83 375.52,-80.86 377.39,-74.11"/>
</a>
</g>
</g>
<!-- Node33 -->
<g id="Node000033" class="node">
<title>Node33</title>
<g id="a_Node000033"><a xlink:title=" ">
<polygon fill="#e0e0e0" stroke="#999999" points="688.38,-74.5 630.38,-74.5 630.38,-55.25 688.38,-55.25 688.38,-74.5"/>
<text text-anchor="middle" x="659.38" y="-61" font-family="Helvetica,sans-Serif" font-size="10.00">typeindex</text>
</a>
</g>
</g>
<!-- Node32&#45;&gt;Node33 -->
<g id="edge48_Node000032_Node000033" class="edge">
<title>Node32&#45;&gt;Node33</title>
<g id="a_edge48_Node000032_Node000033"><a xlink:title=" ">
<path fill="none" stroke="#63b8ff" d="M549.77,-110.09C570.82,-101.6 602.58,-88.79 626.5,-79.14"/>
<polygon fill="#63b8ff" stroke="#63b8ff" points="627.51,-82.51 635.47,-75.52 624.89,-76.01 627.51,-82.51"/>
</a>
</g>
</g>
<!-- Node34&#45;&gt;Node3 -->
<g id="edge56_Node000034_Node000003" class="edge">
<title>Node34&#45;&gt;Node3</title>
<g id="a_edge56_Node000034_Node000003"><a xlink:title=" ">
<path fill="none" stroke="#63b8ff" d="M429.53,-342.29C483.99,-321.22 619.41,-265.49 719.38,-196.25 754.92,-171.63 762.53,-162.82 790.38,-129.75 802.4,-115.47 813.88,-97.61 821.8,-84.4"/>
<polygon fill="#63b8ff" stroke="#63b8ff" points="824.75,-86.3 826.77,-75.9 818.7,-82.76 824.75,-86.3"/>
</a>
</g>
</g>
<!-- Node34&#45;&gt;Node8 -->
<g id="edge55_Node000034_Node000008" class="edge">
<title>Node34&#45;&gt;Node8</title>
<g id="a_edge55_Node000034_Node000008"><a xlink:title=" ">
<path fill="none" stroke="#63b8ff" d="M339.5,-342.27C259.84,-327.34 129.14,-289.33 70.38,-196.25 36.21,-142.14 130.03,-98.22 184.88,-77.97"/>
<polygon fill="#63b8ff" stroke="#63b8ff" points="185.94,-81.31 194.18,-74.64 183.58,-74.72 185.94,-81.31"/>
</a>
</g>
</g>
<!-- Node35 -->
<g id="Node000035" class="node">
<title>Node35</title>
<g id="a_Node000035"><a xlink:href="_registered_type_8hpp.html" target="_top" xlink:title=" ">
<polygon fill="white" stroke="#666666" points="435.38,-306.75 311.38,-306.75 311.38,-287.5 435.38,-287.5 435.38,-306.75"/>
<text text-anchor="middle" x="373.38" y="-293.25" font-family="Helvetica,sans-Serif" font-size="10.00">nwb/RegisteredType.hpp</text>
</a>
</g>
</g>
<!-- Node34&#45;&gt;Node35 -->
<g id="edge57_Node000034_Node000035" class="edge">
<title>Node34&#45;&gt;Node35</title>
<g id="a_edge57_Node000034_Node000035"><a xlink:title=" ">
<path fill="none" stroke="#63b8ff" d="M400.09,-342.58C395.9,-335.61 389.9,-325.62 384.64,-316.87"/>
<polygon fill="#63b8ff" stroke="#63b8ff" points="387.7,-315.18 379.55,-308.41 381.7,-318.78 387.7,-315.18"/>
</a>
</g>
</g>
<!-- Node35&#45;&gt;Node3 -->
<g id="edge61_Node000035_Node000003" class="edge">
<title>Node35&#45;&gt;Node3</title>
<g id="a_edge61_Node000035_Node000003"><a xlink:title=" ">
<path fill="none" stroke="#63b8ff" d="M422.43,-287.02C486.15,-273.76 599.38,-245.22 685.38,-196.25 713.96,-179.97 782.91,-114.22 815.18,-82.78"/>
<polygon fill="#63b8ff" stroke="#63b8ff" points="817.46,-85.45 822.16,-75.95 812.57,-80.44 817.46,-85.45"/>
</a>
</g>
</g>
<!-- Node35&#45;&gt;Node4 -->
<g id="edge66_Node000035_Node000004" class="edge">
<title>Node35&#45;&gt;Node4</title>
<g id="a_edge66_Node000035_Node000004"><a xlink:title=" ">
<path fill="none" stroke="#63b8ff" d="M384.45,-287.2C393.64,-279.03 406.03,-266.02 411.38,-251.5 425.28,-213.71 411.08,-166.24 400.85,-140.28"/>
<polygon fill="#63b8ff" stroke="#63b8ff" points="404.21,-139.25 397.13,-131.37 397.75,-141.95 404.21,-139.25"/>
</a>
</g>
</g>
<!-- Node35&#45;&gt;Node8 -->
<g id="edge60_Node000035_Node000008" class="edge">
<title>Node35&#45;&gt;Node8</title>
<g id="a_edge60_Node000035_Node000008"><a xlink:title=" ">
<path fill="none" stroke="#63b8ff" d="M311.18,-289.15C286.42,-283.14 259.94,-272.02 243.38,-251.5 204.36,-203.16 211.39,-123.32 217.42,-86.12"/>
<polygon fill="#63b8ff" stroke="#63b8ff" points="220.85,-86.81 219.17,-76.35 213.96,-85.58 220.85,-86.81"/>
</a>
</g>
</g>
<!-- Node35&#45;&gt;Node9 -->
<g id="edge62_Node000035_Node000009" class="edge">
<title>Node35&#45;&gt;Node9</title>
<g id="a_edge62_Node000035_Node000009"><a xlink:title=" ">
<path fill="none" stroke="#63b8ff" d="M311.23,-288.35C278.22,-282.11 238.05,-271.03 206.38,-251.5 134.56,-207.21 76.13,-122.17 52.58,-84.56"/>
<polygon fill="#63b8ff" stroke="#63b8ff" points="55.65,-82.87 47.44,-76.18 49.68,-86.53 55.65,-82.87"/>
</a>
</g>
</g>
<!-- Node35&#45;&gt;Node10 -->
<g id="edge63_Node000035_Node000010" class="edge">
<title>Node35&#45;&gt;Node10</title>
<g id="a_edge63_Node000035_Node000010"><a xlink:title=" ">
<path fill="none" stroke="#63b8ff" d="M311.02,-288.71C282.8,-282.64 250.64,-271.6 227.38,-251.5 175.24,-206.47 151.68,-123.71 143.25,-85.8"/>
<polygon fill="#63b8ff" stroke="#63b8ff" points="146.73,-85.33 141.27,-76.26 139.88,-86.76 146.73,-85.33"/>
</a>
</g>
</g>
<!-- Node35&#45;&gt;Node13 -->
<g id="edge64_Node000035_Node000013" class="edge">
<title>Node35&#45;&gt;Node13</title>
<g id="a_edge64_Node000035_Node000013"><a xlink:title=" ">
<path fill="none" stroke="#63b8ff" d="M311.26,-287.03C290.29,-280.66 269.02,-269.85 256.38,-251.5 217.6,-195.21 283.56,-116.62 316.88,-82.63"/>
<polygon fill="#63b8ff" stroke="#63b8ff" points="319.23,-85.23 323.86,-75.7 314.3,-80.27 319.23,-85.23"/>
</a>
</g>
</g>
<!-- Node35&#45;&gt;Node16 -->
<g id="edge65_Node000035_Node000016" class="edge">
<title>Node35&#45;&gt;Node16</title>
<g id="a_edge65_Node000035_Node000016"><a xlink:title=" ">
<path fill="none" stroke="#63b8ff" d="M435.65,-292.59C614.54,-282.43 1126.48,-253.37 1272.23,-245.1"/>
<polygon fill="#63b8ff" stroke="#63b8ff" points="1272.34,-248.6 1282.12,-244.54 1271.94,-241.61 1272.34,-248.6"/>
</a>
</g>
</g>
<!-- Node35&#45;&gt;Node32 -->
<g id="edge67_Node000035_Node000032" class="edge">
<title>Node35&#45;&gt;Node32</title>
<g id="a_edge67_Node000035_Node000032"><a xlink:title=" ">
<path fill="none" stroke="#63b8ff" d="M385.63,-287.27C397.03,-278.74 414.21,-265.16 427.38,-251.5 462.7,-214.86 497.36,-165.97 515.12,-139.7"/>
<polygon fill="#63b8ff" stroke="#63b8ff" points="517.97,-141.73 520.62,-131.47 512.15,-137.84 517.97,-141.73"/>
</a>
</g>
</g>
<!-- Node36 -->
<g id="Node000036" class="node">
<title>Node36</title>
<g id="a_Node000036"><a xlink:title=" ">
<polygon fill="#e0e0e0" stroke="#999999" points="325.88,-251.5 264.88,-251.5 264.88,-232.25 325.88,-232.25 325.88,-251.5"/>
<text text-anchor="middle" x="295.38" y="-238" font-family="Helvetica,sans-Serif" font-size="10.00">filesystem</text>
</a>
</g>
</g>
<!-- Node35&#45;&gt;Node36 -->
<g id="edge58_Node000035_Node000036" class="edge">
<title>Node35&#45;&gt;Node36</title>
<g id="a_edge58_Node000035_Node000036"><a xlink:title=" ">
<path fill="none" stroke="#63b8ff" d="M360.14,-287.09C348.6,-279.21 331.61,-267.61 317.93,-258.27"/>
<polygon fill="#63b8ff" stroke="#63b8ff" points="320.15,-255.55 309.92,-252.81 316.21,-261.33 320.15,-255.55"/>
</a>
</g>
</g>
<!-- Node37 -->
<g id="Node000037" class="node">
<title>Node37</title>
<g id="a_Node000037"><a xlink:title=" ">
<polygon fill="#e0e0e0" stroke="#999999" points="402.38,-251.5 344.38,-251.5 344.38,-232.25 402.38,-232.25 402.38,-251.5"/>
<text text-anchor="middle" x="373.38" y="-238" font-family="Helvetica,sans-Serif" font-size="10.00">functional</text>
</a>
</g>
</g>
<!-- Node35&#45;&gt;Node37 -->
<g id="edge59_Node000035_Node000037" class="edge">
<title>Node35&#45;&gt;Node37</title>
<g id="a_edge59_Node000035_Node000037"><a xlink:title=" ">
<path fill="none" stroke="#63b8ff" d="M373.38,-287.33C373.38,-280.82 373.38,-271.67 373.38,-263.37"/>
<polygon fill="#63b8ff" stroke="#63b8ff" points="376.88,-263.37 373.38,-253.37 369.88,-263.37 376.88,-263.37"/>
</a>
</g>
</g>
</g>
</svg>

<g id="navigator" transform="translate(0 0)" fill="#404254">
  <rect fill="#f2f5e9" fill-opacity="0.5" stroke="#606060" stroke-width=".5" x="0" y="0" width="60" height="60"/>
  <use id="zoomplus" xlink:href="#zoomPlus" x="17" y="9" onmousedown="handleZoom(evt,'in')"/>
  <use id="zoomminus" xlink:href="#zoomMin" x="42" y="9" onmousedown="handleZoom(evt,'out')"/>
  <use id="reset" xlink:href="#resetDef" x="30" y="36" onmousedown="handleReset()"/>
   <use id="arrowup" xlink:href="#arrowUp" x="0" y="0" onmousedown="handlePan(0,-1)"/>
  <use id="arrowright" xlink:href="#arrowRight" x="0" y="0" onmousedown="handlePan(1,0)"/>
  <use id="arrowdown" xlink:href="#arrowDown" x="0" y="0" onmousedown="handlePan(0,1)"/>
  <use id="arrowleft" xlink:href="#arrowLeft" x="0" y="0" onmousedown="handlePan(-1,0)"/>
</g>
<svg viewBox="0 0 15 15" width="100%" height="30px" preserveAspectRatio="xMaxYMin meet">
 <g id="arrow_out" transform="scale(0.3 0.3)">
  <a xlink:href="_electrode_group_8cpp__incl_org.svg" target="_base">
   <rect id="button" ry="5" rx="5" y="6" x="6" height="38" width="38"
        fill="#f2f5e9" fill-opacity="0.5" stroke="#606060" stroke-width="1.0"/>
   <path id="arrow"
     d="M 11.500037,31.436501 C 11.940474,20.09759 22.043105,11.32322 32.158766,21.979434 L 37.068811,17.246167 C 37.068811,17.246167 37.088388,32 37.088388,32 L 22.160133,31.978069 C 22.160133,31.978069 26.997745,27.140456 26.997745,27.140456 C 18.528582,18.264221 13.291696,25.230495 11.500037,31.436501 z"
     style="fill:#404040;"/>
  </a>
 </g>
</svg>

<style type='text/css'>
<![CDATA[
[data-mouse-over-selected='false'] { opacity: 0.7; }
[data-mouse-over-selected='true']  { opacity: 1.0; }
]]>
</style>
<script type="application/ecmascript"><![CDATA[
document.addEventListener('DOMContentLoaded', (event) => {
  highlightEdges();
  highlightAdjacentNodes();
});
]]></script>
</svg>
