<?xml version="1.0" encoding="UTF-8" standalone="no"?>
<!DOCTYPE svg PUBLIC "-//W3C//DTD SVG 1.1//EN"
 "http://www.w3.org/Graphics/SVG/1.1/DTD/svg11.dtd">
<!-- Generated by graphviz version 12.1.1 (20240910.0053)
 -->
<!-- Title: src/nwb/file/ElectrodeTable.hpp Pages: 1 -->
<!--zoomable 359 -->

<svg id="main" version="1.1" xmlns="http://www.w3.org/2000/svg" xmlns:xlink="http://www.w3.org/1999/xlink" xml:space="preserve" onload="init(evt)">

<style type="text/css"><![CDATA[
.node, .edge {opacity: 0.7;}
.node.selected, .edge.selected {opacity: 1;}
.edge:hover path { stroke: red; }
.edge:hover polygon { stroke: red; fill: red; }
]]></style>

<defs>
  <circle id="rim" cx="0" cy="0" r="7"/>
  <circle id="rim2" cx="0" cy="0" r="3.5"/>
  <g id="zoomPlus">
    <use xlink:href="#rim" fill="#404040"><set attributeName="fill" to="#808080" begin="zoomplus.mouseover" end="zoomplus.mouseout"/></use>
    <path d="M-4,0h8M0,-4v8" fill="none" stroke="white" stroke-width="1.5" pointer-events="none"/>
  </g>
  <g id="zoomMin">
    <use xlink:href="#rim" fill="#404040"><set attributeName="fill" to="#808080" begin="zoomminus.mouseover" end="zoomminus.mouseout"/></use>
    <path d="M-4,0h8" fill="none" stroke="white" stroke-width="1.5" pointer-events="none"/>
  </g>
  <g id="arrowUp" transform="translate(30 24)">
    <use xlink:href="#rim"/>
    <path pointer-events="none" fill="none" stroke="white" stroke-width="1.5" d="M0,-3.0v7 M-2.5,-0.5L0,-3.0L2.5,-0.5"/>
  </g>
  <g id="arrowRight" transform="rotate(90) translate(36 -43)">
    <use xlink:href="#rim"/>
    <path pointer-events="none" fill="none" stroke="white" stroke-width="1.5" d="M0,-3.0v7 M-2.5,-0.5L0,-3.0L2.5,-0.5"/>
  </g>
  <g id="arrowDown" transform="rotate(180) translate(-30 -48)">
    <use xlink:href="#rim"/>
    <path pointer-events="none" fill="none" stroke="white" stroke-width="1.5" d="M0,-3.0v7 M-2.5,-0.5L0,-3.0L2.5,-0.5"/>
  </g>
  <g id="arrowLeft" transform="rotate(270) translate(-36 17)">
    <use xlink:href="#rim"/>
    <path pointer-events="none" fill="none" stroke="white" stroke-width="1.5" d="M0,-3.0v7 M-2.5,-0.5L0,-3.0L2.5,-0.5"/>
  </g>
  <g id="resetDef">
    <use xlink:href="#rim2" fill="#404040"><set attributeName="fill" to="#808080" begin="reset.mouseover" end="reset.mouseout"/></use>
  </g>
</defs>
<script type="application/ecmascript">
var viewWidth = 545;
var viewHeight = 359;
var sectionId = 'dynsection-0';
</script>
<script type="application/ecmascript" xlink:href="svg.min.js"/>
<svg id="graph" class="graph">
<g id="viewport">
<title>src/nwb/file/ElectrodeTable.hpp</title>
<!-- Node1 -->
<g id="Node000001" class="node">
<title>Node1</title>
<g id="a_Node000001"><a xlink:title=" ">
<polygon fill="#999999" stroke="#666666" points="219.25,-350.75 66.75,-350.75 66.75,-331.5 219.25,-331.5 219.25,-350.75"/>
<text text-anchor="middle" x="143" y="-337.25" font-family="Helvetica,sans-Serif" font-size="10.00">src/nwb/file/ElectrodeTable.hpp</text>
</a>
</g>
</g>
<!-- Node2 -->
<g id="Node000002" class="node">
<title>Node2</title>
<g id="a_Node000002"><a xlink:title=" ">
<polygon fill="#e0e0e0" stroke="#999999" points="179,-74.5 139,-74.5 139,-55.25 179,-55.25 179,-74.5"/>
<text text-anchor="middle" x="159" y="-61" font-family="Helvetica,sans-Serif" font-size="10.00">string</text>
</a>
</g>
</g>
<!-- Node1&#45;&gt;Node2 -->
<g id="edge1_Node000001_Node000002" class="edge">
<title>Node1&#45;&gt;Node2</title>
<g id="a_edge1_Node000001_Node000002"><a xlink:title=" ">
<path fill="none" stroke="#63b8ff" d="M109.83,-331.03C67.59,-317.19 0,-286.47 0,-231.62 0,-231.62 0,-231.62 0,-174.38 0,-113.22 81.24,-84.06 127.58,-72.39"/>
<polygon fill="#63b8ff" stroke="#63b8ff" points="128.14,-75.86 137.07,-70.15 126.53,-69.05 128.14,-75.86"/>
</a>
</g>
</g>
<!-- Node3 -->
<g id="Node000003" class="node">
<title>Node3</title>
<g id="a_Node000003"><a xlink:href="_base_i_o_8hpp.html" target="_top" xlink:title=" ">
<polygon fill="white" stroke="#666666" points="348.88,-129.75 281.12,-129.75 281.12,-110.5 348.88,-110.5 348.88,-129.75"/>
<text text-anchor="middle" x="315" y="-116.25" font-family="Helvetica,sans-Serif" font-size="10.00">BaseIO.hpp</text>
</a>
</g>
</g>
<!-- Node1&#45;&gt;Node3 -->
<g id="edge2_Node000001_Node000003" class="edge">
<title>Node1&#45;&gt;Node3</title>
<g id="a_edge2_Node000001_Node000003"><a xlink:title=" ">
<path fill="none" stroke="#63b8ff" d="M127.84,-331.27C96.19,-311.63 28.31,-262.87 57,-221 104.85,-151.17 209.1,-130.15 269.42,-123.83"/>
<polygon fill="#63b8ff" stroke="#63b8ff" points="269.73,-127.32 279.36,-122.9 269.07,-120.35 269.73,-127.32"/>
</a>
</g>
</g>
<!-- Node10 -->
<g id="Node000010" class="node">
<title>Node10</title>
<g id="a_Node000010"><a xlink:href="_dynamic_table_8hpp.html" target="_top" xlink:title=" ">
<polygon fill="white" stroke="#666666" points="353.38,-295.5 186.62,-295.5 186.62,-276.25 353.38,-276.25 353.38,-295.5"/>
<text text-anchor="middle" x="270" y="-282" font-family="Helvetica,sans-Serif" font-size="10.00">nwb/hdmf/table/DynamicTable.hpp</text>
</a>
</g>
</g>
<!-- Node1&#45;&gt;Node10 -->
<g id="edge11_Node000001_Node000010" class="edge">
<title>Node1&#45;&gt;Node10</title>
<g id="a_edge11_Node000001_Node000010"><a xlink:title=" ">
<path fill="none" stroke="#63b8ff" d="M164.54,-331.09C184.61,-322.68 214.8,-310.02 237.75,-300.4"/>
<polygon fill="#63b8ff" stroke="#63b8ff" points="239.09,-303.63 246.95,-296.54 236.38,-297.18 239.09,-303.63"/>
</a>
</g>
</g>
<!-- Node12 -->
<g id="Node000012" class="node">
<title>Node12</title>
<g id="a_Node000012"><a xlink:href="_element_identifiers_8hpp.html" target="_top" xlink:title=" ">
<polygon fill="white" stroke="#666666" points="535.62,-240.25 352.38,-240.25 352.38,-221 535.62,-221 535.62,-240.25"/>
<text text-anchor="middle" x="444" y="-226.75" font-family="Helvetica,sans-Serif" font-size="10.00">nwb/hdmf/table/ElementIdentifiers.hpp</text>
</a>
</g>
</g>
<!-- Node1&#45;&gt;Node12 -->
<g id="edge25_Node000001_Node000012" class="edge">
<title>Node1&#45;&gt;Node12</title>
<g id="a_edge25_Node000001_Node000012"><a xlink:title=" ">
<path fill="none" stroke="#63b8ff" d="M219.68,-333.25C262.99,-327.25 317.24,-316.11 362,-295.5 387.21,-283.89 411.73,-263.18 427.29,-248.48"/>
<polygon fill="#63b8ff" stroke="#63b8ff" points="429.53,-251.18 434.26,-241.7 424.65,-246.16 429.53,-251.18"/>
</a>
</g>
</g>
<!-- Node14 -->
<g id="Node000014" class="node">
<title>Node14</title>
<g id="a_Node000014"><a xlink:href="_vector_data_8hpp.html" target="_top" xlink:title=" ">
<polygon fill="white" stroke="#666666" points="220,-240.25 66,-240.25 66,-221 220,-221 220,-240.25"/>
<text text-anchor="middle" x="143" y="-226.75" font-family="Helvetica,sans-Serif" font-size="10.00">nwb/hdmf/table/VectorData.hpp</text>
</a>
</g>
</g>
<!-- Node1&#45;&gt;Node14 -->
<g id="edge26_Node000001_Node000014" class="edge">
<title>Node1&#45;&gt;Node14</title>
<g id="a_edge26_Node000001_Node000014"><a xlink:title=" ">
<path fill="none" stroke="#63b8ff" d="M143,-331.25C143,-314 143,-275.58 143,-251.81"/>
<polygon fill="#63b8ff" stroke="#63b8ff" points="146.5,-252.14 143,-242.14 139.5,-252.14 146.5,-252.14"/>
</a>
</g>
</g>
<!-- Node3&#45;&gt;Node2 -->
<g id="edge6_Node000003_Node000002" class="edge">
<title>Node3&#45;&gt;Node2</title>
<g id="a_edge6_Node000003_Node000002"><a xlink:title=" ">
<path fill="none" stroke="#63b8ff" d="M288.54,-110.09C261.22,-100.77 218.63,-86.23 189.81,-76.39"/>
<polygon fill="#63b8ff" stroke="#63b8ff" points="191.16,-73.15 180.56,-73.24 188.9,-79.78 191.16,-73.15"/>
</a>
</g>
</g>
<!-- Node4 -->
<g id="Node000004" class="node">
<title>Node4</title>
<g id="a_Node000004"><a xlink:title=" ">
<polygon fill="#e0e0e0" stroke="#999999" points="431.62,-74.5 386.38,-74.5 386.38,-55.25 431.62,-55.25 431.62,-74.5"/>
<text text-anchor="middle" x="409" y="-61" font-family="Helvetica,sans-Serif" font-size="10.00">cstdint</text>
</a>
</g>
</g>
<!-- Node3&#45;&gt;Node4 -->
<g id="edge3_Node000003_Node000004" class="edge">
<title>Node3&#45;&gt;Node4</title>
<g id="a_edge3_Node000003_Node000004"><a xlink:title=" ">
<path fill="none" stroke="#63b8ff" d="M330.95,-110.09C345.26,-101.98 366.53,-89.93 383.25,-80.46"/>
<polygon fill="#63b8ff" stroke="#63b8ff" points="384.68,-83.67 391.66,-75.7 381.23,-77.58 384.68,-83.67"/>
</a>
</g>
</g>
<!-- Node5 -->
<g id="Node000005" class="node">
<title>Node5</title>
<g id="a_Node000005"><a xlink:title=" ">
<polygon fill="#e0e0e0" stroke="#999999" points="250.75,-74.5 197.25,-74.5 197.25,-55.25 250.75,-55.25 250.75,-74.5"/>
<text text-anchor="middle" x="224" y="-61" font-family="Helvetica,sans-Serif" font-size="10.00">iostream</text>
</a>
</g>
</g>
<!-- Node3&#45;&gt;Node5 -->
<g id="edge4_Node000003_Node000005" class="edge">
<title>Node3&#45;&gt;Node5</title>
<g id="a_edge4_Node000003_Node000005"><a xlink:title=" ">
<path fill="none" stroke="#63b8ff" d="M299.56,-110.09C285.84,-102.06 265.5,-90.16 249.38,-80.73"/>
<polygon fill="#63b8ff" stroke="#63b8ff" points="251.22,-77.75 240.82,-75.72 247.68,-83.79 251.22,-77.75"/>
</a>
</g>
</g>
<!-- Node6 -->
<g id="Node000006" class="node">
<title>Node6</title>
<g id="a_Node000006"><a xlink:title=" ">
<polygon fill="#e0e0e0" stroke="#999999" points="500.62,-74.5 449.38,-74.5 449.38,-55.25 500.62,-55.25 500.62,-74.5"/>
<text text-anchor="middle" x="475" y="-61" font-family="Helvetica,sans-Serif" font-size="10.00">memory</text>
</a>
</g>
</g>
<!-- Node3&#45;&gt;Node6 -->
<g id="edge5_Node000003_Node000006" class="edge">
<title>Node3&#45;&gt;Node6</title>
<g id="a_edge5_Node000003_Node000006"><a xlink:title=" ">
<path fill="none" stroke="#63b8ff" d="M342.14,-110.09C368.63,-101.28 409.1,-87.81 438.42,-78.05"/>
<polygon fill="#63b8ff" stroke="#63b8ff" points="439.23,-81.47 447.62,-74.99 437.02,-74.83 439.23,-81.47"/>
</a>
</g>
</g>
<!-- Node7 -->
<g id="Node000007" class="node">
<title>Node7</title>
<g id="a_Node000007"><a xlink:title=" ">
<polygon fill="#e0e0e0" stroke="#999999" points="300.5,-19.25 257.5,-19.25 257.5,0 300.5,0 300.5,-19.25"/>
<text text-anchor="middle" x="279" y="-5.75" font-family="Helvetica,sans-Serif" font-size="10.00">vector</text>
</a>
</g>
</g>
<!-- Node3&#45;&gt;Node7 -->
<g id="edge7_Node000003_Node000007" class="edge">
<title>Node3&#45;&gt;Node7</title>
<g id="a_edge7_Node000003_Node000007"><a xlink:title=" ">
<path fill="none" stroke="#63b8ff" d="M311.71,-110.27C308.39,-101.29 303.19,-86.98 299,-74.5 294.01,-59.64 288.73,-42.71 284.84,-30.01"/>
<polygon fill="#63b8ff" stroke="#63b8ff" points="288.3,-29.34 282.05,-20.79 281.6,-31.37 288.3,-29.34"/>
</a>
</g>
</g>
<!-- Node8 -->
<g id="Node000008" class="node">
<title>Node8</title>
<g id="a_Node000008"><a xlink:href="_types_8hpp.html" target="_top" xlink:title=" ">
<polygon fill="white" stroke="#666666" points="368.5,-74.5 307.5,-74.5 307.5,-55.25 368.5,-55.25 368.5,-74.5"/>
<text text-anchor="middle" x="338" y="-61" font-family="Helvetica,sans-Serif" font-size="10.00">Types.hpp</text>
</a>
</g>
</g>
<!-- Node3&#45;&gt;Node8 -->
<g id="edge8_Node000003_Node000008" class="edge">
<title>Node3&#45;&gt;Node8</title>
<g id="a_edge8_Node000003_Node000008"><a xlink:title=" ">
<path fill="none" stroke="#63b8ff" d="M318.8,-110.33C321.74,-103.51 325.94,-93.81 329.65,-85.2"/>
<polygon fill="#63b8ff" stroke="#63b8ff" points="332.77,-86.82 333.52,-76.25 326.34,-84.04 332.77,-86.82"/>
</a>
</g>
</g>
<!-- Node8&#45;&gt;Node7 -->
<g id="edge10_Node000008_Node000007" class="edge">
<title>Node8&#45;&gt;Node7</title>
<g id="a_edge10_Node000008_Node000007"><a xlink:title=" ">
<path fill="none" stroke="#63b8ff" d="M327.99,-54.84C319.63,-47.3 307.5,-36.35 297.4,-27.23"/>
<polygon fill="#63b8ff" stroke="#63b8ff" points="299.75,-24.64 289.98,-20.54 295.06,-29.84 299.75,-24.64"/>
</a>
</g>
</g>
<!-- Node9 -->
<g id="Node000009" class="node">
<title>Node9</title>
<g id="a_Node000009"><a xlink:title=" ">
<polygon fill="#e0e0e0" stroke="#999999" points="367.12,-19.25 318.88,-19.25 318.88,0 367.12,0 367.12,-19.25"/>
<text text-anchor="middle" x="343" y="-5.75" font-family="Helvetica,sans-Serif" font-size="10.00">cstddef</text>
</a>
</g>
</g>
<!-- Node8&#45;&gt;Node9 -->
<g id="edge9_Node000008_Node000009" class="edge">
<title>Node8&#45;&gt;Node9</title>
<g id="a_edge9_Node000008_Node000009"><a xlink:title=" ">
<path fill="none" stroke="#63b8ff" d="M338.83,-55.08C339.44,-48.49 340.32,-39.21 341.1,-30.82"/>
<polygon fill="#63b8ff" stroke="#63b8ff" points="344.56,-31.4 342.01,-21.12 337.6,-30.75 344.56,-31.4"/>
</a>
</g>
</g>
<!-- Node10&#45;&gt;Node2 -->
<g id="edge12_Node000010_Node000002" class="edge">
<title>Node10&#45;&gt;Node2</title>
<g id="a_edge12_Node000010_Node000002"><a xlink:title=" ">
<path fill="none" stroke="#63b8ff" d="M265.51,-276.02C249.02,-243.48 191.55,-130.09 168.59,-84.79"/>
<polygon fill="#63b8ff" stroke="#63b8ff" points="171.75,-83.29 164.11,-75.95 165.51,-86.45 171.75,-83.29"/>
</a>
</g>
</g>
<!-- Node10&#45;&gt;Node3 -->
<g id="edge13_Node000010_Node000003" class="edge">
<title>Node10&#45;&gt;Node3</title>
<g id="a_edge13_Node000010_Node000003"><a xlink:title=" ">
<path fill="none" stroke="#63b8ff" d="M268.51,-275.78C265.55,-255.26 260.47,-204.14 276,-165.75 280.31,-155.1 288.27,-145.26 295.89,-137.54"/>
<polygon fill="#63b8ff" stroke="#63b8ff" points="297.84,-140.5 302.72,-131.1 293.04,-135.41 297.84,-140.5"/>
</a>
</g>
</g>
<!-- Node11 -->
<g id="Node000011" class="node">
<title>Node11</title>
<g id="a_Node000011"><a xlink:href="_container_8hpp.html" target="_top" xlink:title=" ">
<polygon fill="white" stroke="#666666" points="430.88,-185 285.12,-185 285.12,-165.75 430.88,-165.75 430.88,-185"/>
<text text-anchor="middle" x="358" y="-171.5" font-family="Helvetica,sans-Serif" font-size="10.00">nwb/hdmf/base/Container.hpp</text>
</a>
</g>
</g>
<!-- Node10&#45;&gt;Node11 -->
<g id="edge14_Node000010_Node000011" class="edge">
<title>Node10&#45;&gt;Node11</title>
<g id="a_edge14_Node000010_Node000011"><a xlink:title=" ">
<path fill="none" stroke="#63b8ff" d="M277.2,-276C291.64,-258.19 324.38,-217.83 343.45,-194.31"/>
<polygon fill="#63b8ff" stroke="#63b8ff" points="346.16,-196.52 349.75,-186.55 340.73,-192.11 346.16,-196.52"/>
</a>
</g>
</g>
<!-- Node10&#45;&gt;Node12 -->
<g id="edge18_Node000010_Node000012" class="edge">
<title>Node10&#45;&gt;Node12</title>
<g id="a_edge18_Node000010_Node000012"><a xlink:title=" ">
<path fill="none" stroke="#63b8ff" d="M299.52,-275.84C328.14,-267.08 371.78,-253.73 403.62,-243.98"/>
<polygon fill="#63b8ff" stroke="#63b8ff" points="404.35,-247.42 412.89,-241.15 402.3,-240.73 404.35,-247.42"/>
</a>
</g>
</g>
<!-- Node10&#45;&gt;Node14 -->
<g id="edge22_Node000010_Node000014" class="edge">
<title>Node10&#45;&gt;Node14</title>
<g id="a_edge22_Node000010_Node000014"><a xlink:title=" ">
<path fill="none" stroke="#63b8ff" d="M248.46,-275.84C228.39,-267.43 198.2,-254.77 175.25,-245.15"/>
<polygon fill="#63b8ff" stroke="#63b8ff" points="176.62,-241.93 166.05,-241.29 173.91,-248.38 176.62,-241.93"/>
</a>
</g>
</g>
<!-- Node11&#45;&gt;Node2 -->
<g id="edge16_Node000011_Node000002" class="edge">
<title>Node11&#45;&gt;Node2</title>
<g id="a_edge16_Node000011_Node000002"><a xlink:title=" ">
<path fill="none" stroke="#63b8ff" d="M340.11,-165.33C322.65,-156.44 295.37,-142.41 272,-129.75 241.72,-113.35 207.33,-93.77 184.52,-80.65"/>
<polygon fill="#63b8ff" stroke="#63b8ff" points="186.35,-77.66 175.93,-75.7 182.85,-83.72 186.35,-77.66"/>
</a>
</g>
</g>
<!-- Node11&#45;&gt;Node3 -->
<g id="edge17_Node000011_Node000003" class="edge">
<title>Node11&#45;&gt;Node3</title>
<g id="a_edge17_Node000011_Node000003"><a xlink:title=" ">
<path fill="none" stroke="#63b8ff" d="M350.9,-165.58C345.08,-158.38 336.67,-147.96 329.44,-139.01"/>
<polygon fill="#63b8ff" stroke="#63b8ff" points="332.21,-136.87 323.21,-131.29 326.77,-141.27 332.21,-136.87"/>
</a>
</g>
</g>
<!-- Node11&#45;&gt;Node6 -->
<g id="edge15_Node000011_Node000006" class="edge">
<title>Node11&#45;&gt;Node6</title>
<g id="a_edge15_Node000011_Node000006"><a xlink:title=" ">
<path fill="none" stroke="#63b8ff" d="M367.57,-165.5C387.11,-147.38 431.86,-105.88 457,-82.57"/>
<polygon fill="#63b8ff" stroke="#63b8ff" points="459.23,-85.27 464.18,-75.91 454.47,-80.14 459.23,-85.27"/>
</a>
</g>
</g>
<!-- Node13 -->
<g id="Node000013" class="node">
<title>Node13</title>
<g id="a_Node000013"><a xlink:href="_data_8hpp.html" target="_top" xlink:title=" ">
<polygon fill="white" stroke="#666666" points="537.38,-185 448.62,-185 448.62,-165.75 537.38,-165.75 537.38,-185"/>
<text text-anchor="middle" x="493" y="-171.5" font-family="Helvetica,sans-Serif" font-size="10.00">../base/Data.hpp</text>
</a>
</g>
</g>
<!-- Node12&#45;&gt;Node13 -->
<g id="edge19_Node000012_Node000013" class="edge">
<title>Node12&#45;&gt;Node13</title>
<g id="a_edge19_Node000012_Node000013"><a xlink:title=" ">
<path fill="none" stroke="#63b8ff" d="M452.09,-220.83C458.86,-213.48 468.72,-202.76 477.06,-193.69"/>
<polygon fill="#63b8ff" stroke="#63b8ff" points="479.51,-196.2 483.71,-186.47 474.36,-191.46 479.51,-196.2"/>
</a>
</g>
</g>
<!-- Node13&#45;&gt;Node3 -->
<g id="edge21_Node000013_Node000003" class="edge">
<title>Node13&#45;&gt;Node3</title>
<g id="a_edge21_Node000013_Node000003"><a xlink:title=" ">
<path fill="none" stroke="#63b8ff" d="M462.8,-165.34C433.52,-156.58 388.88,-143.23 356.31,-133.48"/>
<polygon fill="#63b8ff" stroke="#63b8ff" points="357.38,-130.15 346.79,-130.64 355.37,-136.86 357.38,-130.15"/>
</a>
</g>
</g>
<!-- Node13&#45;&gt;Node6 -->
<g id="edge20_Node000013_Node000006" class="edge">
<title>Node13&#45;&gt;Node6</title>
<g id="a_edge20_Node000013_Node000006"><a xlink:title=" ">
<path fill="none" stroke="#63b8ff" d="M491.53,-165.5C488.67,-148.25 482.29,-109.83 478.35,-86.06"/>
<polygon fill="#63b8ff" stroke="#63b8ff" points="481.83,-85.66 476.74,-76.37 474.92,-86.81 481.83,-85.66"/>
</a>
</g>
</g>
<!-- Node14&#45;&gt;Node2 -->
<g id="edge23_Node000014_Node000002" class="edge">
<title>Node14&#45;&gt;Node2</title>
<g id="a_edge23_Node000014_Node000002"><a xlink:title=" ">
<path fill="none" stroke="#63b8ff" d="M143.86,-220.82C146.33,-195.5 153.52,-122 157.02,-86.09"/>
<polygon fill="#63b8ff" stroke="#63b8ff" points="160.5,-86.52 157.99,-76.23 153.53,-85.84 160.5,-86.52"/>
</a>
</g>
</g>
<!-- Node14&#45;&gt;Node13 -->
<g id="edge24_Node000014_Node000013" class="edge">
<title>Node14&#45;&gt;Node13</title>
<g id="a_edge24_Node000014_Node000013"><a xlink:title=" ">
<path fill="none" stroke="#63b8ff" d="M205.04,-220.53C262.62,-212.03 351.05,-198.86 436.91,-185.47"/>
<polygon fill="#63b8ff" stroke="#63b8ff" points="437.35,-188.94 446.69,-183.94 436.27,-182.03 437.35,-188.94"/>
</a>
</g>
</g>
</g>
</svg>

<g id="navigator" transform="translate(0 0)" fill="#404254">
  <rect fill="#f2f5e9" fill-opacity="0.5" stroke="#606060" stroke-width=".5" x="0" y="0" width="60" height="60"/>
  <use id="zoomplus" xlink:href="#zoomPlus" x="17" y="9" onmousedown="handleZoom(evt,'in')"/>
  <use id="zoomminus" xlink:href="#zoomMin" x="42" y="9" onmousedown="handleZoom(evt,'out')"/>
  <use id="reset" xlink:href="#resetDef" x="30" y="36" onmousedown="handleReset()"/>
   <use id="arrowup" xlink:href="#arrowUp" x="0" y="0" onmousedown="handlePan(0,-1)"/>
  <use id="arrowright" xlink:href="#arrowRight" x="0" y="0" onmousedown="handlePan(1,0)"/>
  <use id="arrowdown" xlink:href="#arrowDown" x="0" y="0" onmousedown="handlePan(0,1)"/>
  <use id="arrowleft" xlink:href="#arrowLeft" x="0" y="0" onmousedown="handlePan(-1,0)"/>
</g>
<svg viewBox="0 0 15 15" width="100%" height="30px" preserveAspectRatio="xMaxYMin meet">
 <g id="arrow_out" transform="scale(0.3 0.3)">
  <a xlink:href="_electrode_table_8hpp__incl_org.svg" target="_base">
   <rect id="button" ry="5" rx="5" y="6" x="6" height="38" width="38"
        fill="#f2f5e9" fill-opacity="0.5" stroke="#606060" stroke-width="1.0"/>
   <path id="arrow"
     d="M 11.500037,31.436501 C 11.940474,20.09759 22.043105,11.32322 32.158766,21.979434 L 37.068811,17.246167 C 37.068811,17.246167 37.088388,32 37.088388,32 L 22.160133,31.978069 C 22.160133,31.978069 26.997745,27.140456 26.997745,27.140456 C 18.528582,18.264221 13.291696,25.230495 11.500037,31.436501 z"
     style="fill:#404040;"/>
  </a>
 </g>
</svg>

<style type='text/css'>
<![CDATA[
[data-mouse-over-selected='false'] { opacity: 0.7; }
[data-mouse-over-selected='true']  { opacity: 1.0; }
]]>
</style>
<script type="application/ecmascript"><![CDATA[
document.addEventListener('DOMContentLoaded', (event) => {
  highlightEdges();
  highlightAdjacentNodes();
});
]]></script>
</svg>
