<?xml version="1.0" encoding="UTF-8" standalone="no"?>
<!DOCTYPE svg PUBLIC "-//W3C//DTD SVG 1.1//EN"
 "http://www.w3.org/Graphics/SVG/1.1/DTD/svg11.dtd">
<!-- Generated by graphviz version 14.1.2 (20260124.0452)
 -->
<!-- Title: src/nwb/hdmf/table/ElementIdentifiers.hpp Pages: 1 -->
<svg width="1513pt" height="481pt"
 viewBox="0.00 0.00 1513.00 481.00" xmlns="http://www.w3.org/2000/svg" xmlns:xlink="http://www.w3.org/1999/xlink">
<g id="graph0" class="graph" transform="scale(1 1) rotate(0) translate(4 476.5)">
<title>src/nwb/hdmf/table/ElementIdentifiers.hpp</title>
<!-- Node1 -->
<g id="Node000001" class="node">
<title>Node1</title>
<g id="a_Node000001"><a xlink:title=" ">
<polygon fill="#999999" stroke="#666666" points="1034.25,-472.5 917.75,-472.5 917.75,-442 1034.25,-442 1034.25,-472.5"/>
<text xml:space="preserve" text-anchor="start" x="925.75" y="-459" font-family="Helvetica,sans-Serif" font-size="10.00">src/nwb/hdmf/table</text>
<text xml:space="preserve" text-anchor="middle" x="976" y="-447.75" font-family="Helvetica,sans-Serif" font-size="10.00">/ElementIdentifiers.hpp</text>
</a>
</g>
</g>
<!-- Node2 -->
<g id="Node000002" class="node">
<title>Node2</title>
<g id="a_Node000002"><a xlink:href="_data_8hpp.html" target="_top" xlink:title=" ">
<polygon fill="white" stroke="#666666" points="993.75,-406 868.25,-406 868.25,-386.75 993.75,-386.75 993.75,-406"/>
<text xml:space="preserve" text-anchor="middle" x="931" y="-392.5" font-family="Helvetica,sans-Serif" font-size="10.00">nwb/hdmf/base/Data.hpp</text>
</a>
</g>
</g>
<!-- Node1&#45;&gt;Node2 -->
<g id="edge1_Node000001_Node000002" class="edge">
<title>Node1&#45;&gt;Node2</title>
<g id="a_edge1_Node000001_Node000002"><a xlink:title=" ">
<path fill="none" stroke="#63b8ff" d="M964.88,-441.7C958.82,-433.77 951.26,-423.88 944.82,-415.46"/>
<polygon fill="#63b8ff" stroke="#63b8ff" points="947.71,-413.47 938.86,-407.65 942.15,-417.72 947.71,-413.47"/>
</a>
</g>
</g>
<!-- Node36 -->
<g id="Node000036" class="node">
<title>Node36</title>
<g id="a_Node000036"><a xlink:href="hdmf__common_8hpp.html" target="_top" xlink:title=" ">
<polygon fill="white" stroke="#666666" points="1328.62,-185 1205.38,-185 1205.38,-165.75 1328.62,-165.75 1328.62,-185"/>
<text xml:space="preserve" text-anchor="middle" x="1267" y="-171.5" font-family="Helvetica,sans-Serif" font-size="10.00">spec/hdmf_common.hpp</text>
</a>
</g>
</g>
<!-- Node1&#45;&gt;Node36 -->
<g id="edge75_Node000001_Node000036" class="edge">
<title>Node1&#45;&gt;Node36</title>
<g id="a_edge75_Node000001_Node000036"><a xlink:title=" ">
<path fill="none" stroke="#63b8ff" d="M1034.54,-445.6C1119.51,-428.46 1267,-391.58 1267,-342.12 1267,-342.12 1267,-342.12 1267,-284.88 1267,-254.16 1267,-218.55 1267,-196.74"/>
<polygon fill="#63b8ff" stroke="#63b8ff" points="1270.5,-196.89 1267,-186.89 1263.5,-196.89 1270.5,-196.89"/>
</a>
</g>
</g>
<!-- Node3 -->
<g id="Node000003" class="node">
<title>Node3</title>
<g id="a_Node000003"><a xlink:title=" ">
<polygon fill="#e0e0e0" stroke="#999999" points="872.88,-74.5 841.12,-74.5 841.12,-55.25 872.88,-55.25 872.88,-74.5"/>
<text xml:space="preserve" text-anchor="middle" x="857" y="-61" font-family="Helvetica,sans-Serif" font-size="10.00">any</text>
</a>
</g>
</g>
<!-- Node2&#45;&gt;Node3 -->
<g id="edge2_Node000002_Node000003" class="edge">
<title>Node2&#45;&gt;Node3</title>
<g id="a_edge2_Node000002_Node000003"><a xlink:title=" ">
<path fill="none" stroke="#63b8ff" d="M938.32,-386.46C968.18,-348.93 1076.08,-201.61 1008,-110.5 979.46,-72.3 919.71,-65.44 884.53,-64.95"/>
<polygon fill="#63b8ff" stroke="#63b8ff" points="884.7,-61.44 874.71,-64.99 884.73,-68.44 884.7,-61.44"/>
</a>
</g>
</g>
<!-- Node4 -->
<g id="Node000004" class="node">
<title>Node4</title>
<g id="a_Node000004"><a xlink:title=" ">
<polygon fill="#e0e0e0" stroke="#999999" points="82.62,-74.5 31.38,-74.5 31.38,-55.25 82.62,-55.25 82.62,-74.5"/>
<text xml:space="preserve" text-anchor="middle" x="57" y="-61" font-family="Helvetica,sans-Serif" font-size="10.00">memory</text>
</a>
</g>
</g>
<!-- Node2&#45;&gt;Node4 -->
<g id="edge3_Node000002_Node000004" class="edge">
<title>Node2&#45;&gt;Node4</title>
<g id="a_edge3_Node000002_Node000004"><a xlink:title=" ">
<path fill="none" stroke="#63b8ff" d="M868.11,-394.66C658.96,-391.48 0,-374.49 0,-286.88 0,-286.88 0,-286.88 0,-174.38 0,-138.92 24.14,-103.66 41.01,-83.35"/>
<polygon fill="#63b8ff" stroke="#63b8ff" points="43.44,-85.88 47.35,-76.04 38.16,-81.3 43.44,-85.88"/>
</a>
</g>
</g>
<!-- Node5 -->
<g id="Node000005" class="node">
<title>Node5</title>
<g id="a_Node000005"><a xlink:href="_base_i_o_8hpp.html" target="_top" xlink:title=" ">
<polygon fill="white" stroke="#666666" points="378.12,-129.75 299.88,-129.75 299.88,-110.5 378.12,-110.5 378.12,-129.75"/>
<text xml:space="preserve" text-anchor="middle" x="339" y="-116.25" font-family="Helvetica,sans-Serif" font-size="10.00">io/BaseIO.hpp</text>
</a>
</g>
</g>
<!-- Node2&#45;&gt;Node5 -->
<g id="edge4_Node000002_Node000005" class="edge">
<title>Node2&#45;&gt;Node5</title>
<g id="a_edge4_Node000002_Node000005"><a xlink:title=" ">
<path fill="none" stroke="#63b8ff" d="M868,-391.55C697.25,-380.56 235.39,-346.34 191,-295.5 152.43,-251.32 174.17,-207.85 215,-165.75 234.34,-145.81 263.22,-134.75 288.25,-128.63"/>
<polygon fill="#63b8ff" stroke="#63b8ff" points="288.95,-132.06 297.95,-126.47 287.43,-125.22 288.95,-132.06"/>
</a>
</g>
</g>
<!-- Node17 -->
<g id="Node000017" class="node">
<title>Node17</title>
<g id="a_Node000017"><a xlink:href="_registered_type_8hpp.html" target="_top" xlink:title=" ">
<polygon fill="white" stroke="#666666" points="730,-350.75 606,-350.75 606,-331.5 730,-331.5 730,-350.75"/>
<text xml:space="preserve" text-anchor="middle" x="668" y="-337.25" font-family="Helvetica,sans-Serif" font-size="10.00">nwb/RegisteredType.hpp</text>
</a>
</g>
</g>
<!-- Node2&#45;&gt;Node17 -->
<g id="edge19_Node000002_Node000017" class="edge">
<title>Node2&#45;&gt;Node17</title>
<g id="a_edge19_Node000002_Node000017"><a xlink:title=" ">
<path fill="none" stroke="#63b8ff" d="M886.09,-386.28C841.27,-377.21 772.29,-363.24 723.93,-353.45"/>
<polygon fill="#63b8ff" stroke="#63b8ff" points="724.71,-350.04 714.21,-351.48 723.32,-356.9 724.71,-350.04"/>
</a>
</g>
</g>
<!-- Node2&#45;&gt;Node36 -->
<g id="edge63_Node000002_Node000036" class="edge">
<title>Node2&#45;&gt;Node36</title>
<g id="a_edge63_Node000002_Node000036"><a xlink:title=" ">
<path fill="none" stroke="#63b8ff" d="M994.22,-392.42C1064.98,-387.87 1173.82,-376.76 1205,-350.75 1211.2,-345.58 1245.92,-240.93 1260.52,-196.28"/>
<polygon fill="#63b8ff" stroke="#63b8ff" points="1263.83,-197.45 1263.6,-186.85 1257.17,-195.27 1263.83,-197.45"/>
</a>
</g>
</g>
<!-- Node5&#45;&gt;Node3 -->
<g id="edge5_Node000005_Node000003" class="edge">
<title>Node5&#45;&gt;Node3</title>
<g id="a_edge5_Node000005_Node000003"><a xlink:title=" ">
<path fill="none" stroke="#63b8ff" d="M378.36,-115.08C478.95,-104.74 743.56,-77.54 829.57,-68.7"/>
<polygon fill="#63b8ff" stroke="#63b8ff" points="829.82,-72.19 839.41,-67.68 829.11,-65.22 829.82,-72.19"/>
</a>
</g>
</g>
<!-- Node5&#45;&gt;Node4 -->
<g id="edge8_Node000005_Node000004" class="edge">
<title>Node5&#45;&gt;Node4</title>
<g id="a_edge8_Node000005_Node000004"><a xlink:title=" ">
<path fill="none" stroke="#63b8ff" d="M299.74,-112.94C252.91,-105.37 172.01,-91.68 93.94,-75.03"/>
<polygon fill="#63b8ff" stroke="#63b8ff" points="94.94,-71.66 84.42,-72.98 93.46,-78.5 94.94,-71.66"/>
</a>
</g>
</g>
<!-- Node6 -->
<g id="Node000006" class="node">
<title>Node6</title>
<g id="a_Node000006"><a xlink:title=" ">
<polygon fill="#e0e0e0" stroke="#999999" points="569.62,-74.5 524.38,-74.5 524.38,-55.25 569.62,-55.25 569.62,-74.5"/>
<text xml:space="preserve" text-anchor="middle" x="547" y="-61" font-family="Helvetica,sans-Serif" font-size="10.00">cstdint</text>
</a>
</g>
</g>
<!-- Node5&#45;&gt;Node6 -->
<g id="edge6_Node000005_Node000006" class="edge">
<title>Node5&#45;&gt;Node6</title>
<g id="a_edge6_Node000005_Node000006"><a xlink:title=" ">
<path fill="none" stroke="#63b8ff" d="M375.45,-110.05C408.77,-101.72 459.71,-88.89 512.92,-75.02"/>
<polygon fill="#63b8ff" stroke="#63b8ff" points="513.68,-78.43 522.47,-72.52 511.91,-71.66 513.68,-78.43"/>
</a>
</g>
</g>
<!-- Node7 -->
<g id="Node000007" class="node">
<title>Node7</title>
<g id="a_Node000007"><a xlink:title=" ">
<polygon fill="#e0e0e0" stroke="#999999" points="429.75,-74.5 376.25,-74.5 376.25,-55.25 429.75,-55.25 429.75,-74.5"/>
<text xml:space="preserve" text-anchor="middle" x="403" y="-61" font-family="Helvetica,sans-Serif" font-size="10.00">iostream</text>
</a>
</g>
</g>
<!-- Node5&#45;&gt;Node7 -->
<g id="edge7_Node000005_Node000007" class="edge">
<title>Node5&#45;&gt;Node7</title>
<g id="a_edge7_Node000005_Node000007"><a xlink:title=" ">
<path fill="none" stroke="#63b8ff" d="M349.86,-110.09C359.11,-102.4 372.62,-91.15 383.71,-81.93"/>
<polygon fill="#63b8ff" stroke="#63b8ff" points="385.69,-84.83 391.14,-75.74 381.21,-79.45 385.69,-84.83"/>
</a>
</g>
</g>
<!-- Node8 -->
<g id="Node000008" class="node">
<title>Node8</title>
<g id="a_Node000008"><a xlink:title=" ">
<polygon fill="#e0e0e0" stroke="#999999" points="1083,-74.5 1043,-74.5 1043,-55.25 1083,-55.25 1083,-74.5"/>
<text xml:space="preserve" text-anchor="middle" x="1063" y="-61" font-family="Helvetica,sans-Serif" font-size="10.00">string</text>
</a>
</g>
</g>
<!-- Node5&#45;&gt;Node8 -->
<g id="edge9_Node000005_Node000008" class="edge">
<title>Node5&#45;&gt;Node8</title>
<g id="a_edge9_Node000005_Node000008"><a xlink:title=" ">
<path fill="none" stroke="#63b8ff" d="M378.44,-116.22C507.4,-106.74 914.98,-76.76 1031.56,-68.19"/>
<polygon fill="#63b8ff" stroke="#63b8ff" points="1031.6,-71.69 1041.31,-67.47 1031.08,-64.71 1031.6,-71.69"/>
</a>
</g>
</g>
<!-- Node9 -->
<g id="Node000009" class="node">
<title>Node9</title>
<g id="a_Node000009"><a xlink:title=" ">
<polygon fill="#e0e0e0" stroke="#999999" points="506,-74.5 448,-74.5 448,-55.25 506,-55.25 506,-74.5"/>
<text xml:space="preserve" text-anchor="middle" x="477" y="-61" font-family="Helvetica,sans-Serif" font-size="10.00">typeindex</text>
</a>
</g>
</g>
<!-- Node5&#45;&gt;Node9 -->
<g id="edge10_Node000005_Node000009" class="edge">
<title>Node5&#45;&gt;Node9</title>
<g id="a_edge10_Node000005_Node000009"><a xlink:title=" ">
<path fill="none" stroke="#63b8ff" d="M362.41,-110.09C384.52,-101.56 417.92,-88.67 442.97,-79.01"/>
<polygon fill="#63b8ff" stroke="#63b8ff" points="443.99,-82.36 452.06,-75.5 441.47,-75.83 443.99,-82.36"/>
</a>
</g>
</g>
<!-- Node10 -->
<g id="Node000010" class="node">
<title>Node10</title>
<g id="a_Node000010"><a xlink:title=" ">
<polygon fill="#e0e0e0" stroke="#999999" points="1183.38,-74.5 1100.62,-74.5 1100.62,-55.25 1183.38,-55.25 1183.38,-74.5"/>
<text xml:space="preserve" text-anchor="middle" x="1142" y="-61" font-family="Helvetica,sans-Serif" font-size="10.00">unordered_map</text>
</a>
</g>
</g>
<!-- Node5&#45;&gt;Node10 -->
<g id="edge11_Node000005_Node000010" class="edge">
<title>Node5&#45;&gt;Node10</title>
<g id="a_edge11_Node000005_Node000010"><a xlink:title=" ">
<path fill="none" stroke="#63b8ff" d="M378.33,-118.34C488.8,-115.81 811.45,-106.17 1089.2,-74.7"/>
<polygon fill="#63b8ff" stroke="#63b8ff" points="1089.27,-78.21 1098.8,-73.6 1088.47,-71.26 1089.27,-78.21"/>
</a>
</g>
</g>
<!-- Node11 -->
<g id="Node000011" class="node">
<title>Node11</title>
<g id="a_Node000011"><a xlink:title=" ">
<polygon fill="#e0e0e0" stroke="#999999" points="177.75,-74.5 100.25,-74.5 100.25,-55.25 177.75,-55.25 177.75,-74.5"/>
<text xml:space="preserve" text-anchor="middle" x="139" y="-61" font-family="Helvetica,sans-Serif" font-size="10.00">unordered_set</text>
</a>
</g>
</g>
<!-- Node5&#45;&gt;Node11 -->
<g id="edge12_Node000005_Node000011" class="edge">
<title>Node5&#45;&gt;Node11</title>
<g id="a_edge12_Node000005_Node000011"><a xlink:title=" ">
<path fill="none" stroke="#63b8ff" d="M305.07,-110.09C271.74,-101.22 220.69,-87.62 183.99,-77.85"/>
<polygon fill="#63b8ff" stroke="#63b8ff" points="185.12,-74.53 174.56,-75.34 183.32,-81.3 185.12,-74.53"/>
</a>
</g>
</g>
<!-- Node12 -->
<g id="Node000012" class="node">
<title>Node12</title>
<g id="a_Node000012"><a xlink:title=" ">
<polygon fill="#e0e0e0" stroke="#999999" points="319.62,-74.5 274.38,-74.5 274.38,-55.25 319.62,-55.25 319.62,-74.5"/>
<text xml:space="preserve" text-anchor="middle" x="297" y="-61" font-family="Helvetica,sans-Serif" font-size="10.00">variant</text>
</a>
</g>
</g>
<!-- Node5&#45;&gt;Node12 -->
<g id="edge13_Node000005_Node000012" class="edge">
<title>Node5&#45;&gt;Node12</title>
<g id="a_edge13_Node000005_Node000012"><a xlink:title=" ">
<path fill="none" stroke="#63b8ff" d="M332.06,-110.33C326.38,-103.13 318.16,-92.71 311.11,-83.76"/>
<polygon fill="#63b8ff" stroke="#63b8ff" points="313.96,-81.73 305.02,-76.05 308.47,-86.07 313.96,-81.73"/>
</a>
</g>
</g>
<!-- Node13 -->
<g id="Node000013" class="node">
<title>Node13</title>
<g id="a_Node000013"><a xlink:title=" ">
<polygon fill="#e0e0e0" stroke="#999999" points="619.5,-19.25 576.5,-19.25 576.5,0 619.5,0 619.5,-19.25"/>
<text xml:space="preserve" text-anchor="middle" x="598" y="-5.75" font-family="Helvetica,sans-Serif" font-size="10.00">vector</text>
</a>
</g>
</g>
<!-- Node5&#45;&gt;Node13 -->
<g id="edge14_Node000005_Node000013" class="edge">
<title>Node5&#45;&gt;Node13</title>
<g id="a_edge14_Node000005_Node000013"><a xlink:title=" ">
<path fill="none" stroke="#63b8ff" d="M340.27,-110.11C342.75,-96.07 349.6,-69.16 367,-55.25 397.16,-31.15 508.75,-18.31 565.06,-13.24"/>
<polygon fill="#63b8ff" stroke="#63b8ff" points="565.02,-16.76 574.68,-12.41 564.41,-9.78 565.02,-16.76"/>
</a>
</g>
</g>
<!-- Node14 -->
<g id="Node000014" class="node">
<title>Node14</title>
<g id="a_Node000014"><a xlink:href="_types_8hpp.html" target="_top" xlink:title=" ">
<polygon fill="white" stroke="#666666" points="256.5,-74.5 195.5,-74.5 195.5,-55.25 256.5,-55.25 256.5,-74.5"/>
<text xml:space="preserve" text-anchor="middle" x="226" y="-61" font-family="Helvetica,sans-Serif" font-size="10.00">Types.hpp</text>
</a>
</g>
</g>
<!-- Node5&#45;&gt;Node14 -->
<g id="edge15_Node000005_Node000014" class="edge">
<title>Node5&#45;&gt;Node14</title>
<g id="a_edge15_Node000005_Node000014"><a xlink:title=" ">
<path fill="none" stroke="#63b8ff" d="M319.83,-110.09C302.22,-101.79 275.84,-89.36 255.54,-79.79"/>
<polygon fill="#63b8ff" stroke="#63b8ff" points="257.17,-76.69 246.63,-75.6 254.19,-83.03 257.17,-76.69"/>
</a>
</g>
</g>
<!-- Node14&#45;&gt;Node13 -->
<g id="edge18_Node000014_Node000013" class="edge">
<title>Node14&#45;&gt;Node13</title>
<g id="a_edge18_Node000014_Node000013"><a xlink:title=" ">
<path fill="none" stroke="#63b8ff" d="M256.61,-56.85C259.44,-56.28 262.27,-55.73 265,-55.25 374.08,-35.92 504.58,-20.71 564.69,-14.15"/>
<polygon fill="#63b8ff" stroke="#63b8ff" points="565.01,-17.63 574.58,-13.08 564.26,-10.67 565.01,-17.63"/>
</a>
</g>
</g>
<!-- Node15 -->
<g id="Node000015" class="node">
<title>Node15</title>
<g id="a_Node000015"><a xlink:title=" ">
<polygon fill="#e0e0e0" stroke="#999999" points="281.12,-19.25 232.88,-19.25 232.88,0 281.12,0 281.12,-19.25"/>
<text xml:space="preserve" text-anchor="middle" x="257" y="-5.75" font-family="Helvetica,sans-Serif" font-size="10.00">cstddef</text>
</a>
</g>
</g>
<!-- Node14&#45;&gt;Node15 -->
<g id="edge16_Node000014_Node000015" class="edge">
<title>Node14&#45;&gt;Node15</title>
<g id="a_edge16_Node000014_Node000015"><a xlink:title=" ">
<path fill="none" stroke="#63b8ff" d="M231.12,-55.08C235.18,-48.11 240.99,-38.12 246.09,-29.37"/>
<polygon fill="#63b8ff" stroke="#63b8ff" points="249,-31.32 251.01,-20.92 242.95,-27.8 249,-31.32"/>
</a>
</g>
</g>
<!-- Node16 -->
<g id="Node000016" class="node">
<title>Node16</title>
<g id="a_Node000016"><a xlink:title=" ">
<polygon fill="#e0e0e0" stroke="#999999" points="214.62,-19.25 175.38,-19.25 175.38,0 214.62,0 214.62,-19.25"/>
<text xml:space="preserve" text-anchor="middle" x="195" y="-5.75" font-family="Helvetica,sans-Serif" font-size="10.00">limits</text>
</a>
</g>
</g>
<!-- Node14&#45;&gt;Node16 -->
<g id="edge17_Node000014_Node000016" class="edge">
<title>Node14&#45;&gt;Node16</title>
<g id="a_edge17_Node000014_Node000016"><a xlink:title=" ">
<path fill="none" stroke="#63b8ff" d="M220.88,-55.08C216.82,-48.11 211.01,-38.12 205.91,-29.37"/>
<polygon fill="#63b8ff" stroke="#63b8ff" points="209.05,-27.8 200.99,-20.92 203,-31.32 209.05,-27.8"/>
</a>
</g>
</g>
<!-- Node17&#45;&gt;Node4 -->
<g id="edge22_Node000017_Node000004" class="edge">
<title>Node17&#45;&gt;Node4</title>
<g id="a_edge22_Node000017_Node000004"><a xlink:title=" ">
<path fill="none" stroke="#63b8ff" d="M605.85,-340.51C478.23,-340.46 191.19,-335.7 103,-295.5 66.15,-278.7 38,-272.13 38,-231.62 38,-231.62 38,-231.62 38,-174.38 38,-143.04 45.78,-107.37 51.39,-85.75"/>
<polygon fill="#63b8ff" stroke="#63b8ff" points="54.72,-86.81 53.96,-76.25 47.97,-84.98 54.72,-86.81"/>
</a>
</g>
</g>
<!-- Node17&#45;&gt;Node5 -->
<g id="edge61_Node000017_Node000005" class="edge">
<title>Node17&#45;&gt;Node5</title>
<g id="a_edge61_Node000017_Node000005"><a xlink:title=" ">
<path fill="none" stroke="#63b8ff" d="M606.03,-331.02C486.56,-312.84 233.91,-271.17 209,-240.25 174.09,-196.93 254.28,-155.07 303.73,-134.44"/>
<polygon fill="#63b8ff" stroke="#63b8ff" points="305,-137.7 312.96,-130.7 302.37,-131.21 305,-137.7"/>
</a>
</g>
</g>
<!-- Node17&#45;&gt;Node8 -->
<g id="edge23_Node000017_Node000008" class="edge">
<title>Node17&#45;&gt;Node8</title>
<g id="a_edge23_Node000017_Node000008"><a xlink:title=" ">
<path fill="none" stroke="#63b8ff" d="M730.33,-339.54C782.92,-336.65 858.74,-326.71 917,-295.5 1001.25,-250.37 1022.81,-220.09 1054,-129.75 1058.88,-115.62 1061.12,-98.85 1062.14,-86.05"/>
<polygon fill="#63b8ff" stroke="#63b8ff" points="1065.62,-86.51 1062.72,-76.31 1058.63,-86.09 1065.62,-86.51"/>
</a>
</g>
</g>
<!-- Node17&#45;&gt;Node10 -->
<g id="edge24_Node000017_Node000010" class="edge">
<title>Node17&#45;&gt;Node10</title>
<g id="a_edge24_Node000017_Node000010"><a xlink:title=" ">
<path fill="none" stroke="#63b8ff" d="M730.32,-339.14C788.8,-336.19 877.56,-326.38 948,-295.5 1045.38,-252.81 1110.63,-132.64 1133.22,-85.34"/>
<polygon fill="#63b8ff" stroke="#63b8ff" points="1136.36,-86.9 1137.4,-76.35 1130.01,-83.95 1136.36,-86.9"/>
</a>
</g>
</g>
<!-- Node17&#45;&gt;Node11 -->
<g id="edge25_Node000017_Node000011" class="edge">
<title>Node17&#45;&gt;Node11</title>
<g id="a_edge25_Node000017_Node000011"><a xlink:title=" ">
<path fill="none" stroke="#63b8ff" d="M605.9,-338.25C491.55,-334.18 252.21,-322.63 174,-295.5 124.88,-278.46 76,-283.62 76,-231.62 76,-231.62 76,-231.62 76,-174.38 76,-138.11 102.65,-103.12 121.28,-83.09"/>
<polygon fill="#63b8ff" stroke="#63b8ff" points="123.64,-85.68 128.1,-76.07 118.62,-80.8 123.64,-85.68"/>
</a>
</g>
</g>
<!-- Node17&#45;&gt;Node14 -->
<g id="edge26_Node000017_Node000014" class="edge">
<title>Node17&#45;&gt;Node14</title>
<g id="a_edge26_Node000017_Node000014"><a xlink:title=" ">
<path fill="none" stroke="#63b8ff" d="M605.73,-338.87C482.8,-335.76 218.41,-325.59 191,-295.5 136.29,-235.44 189.37,-127.7 214.46,-84.52"/>
<polygon fill="#63b8ff" stroke="#63b8ff" points="217.38,-86.46 219.51,-76.09 211.37,-82.87 217.38,-86.46"/>
</a>
</g>
</g>
<!-- Node18 -->
<g id="Node000018" class="node">
<title>Node18</title>
<g id="a_Node000018"><a xlink:title=" ">
<polygon fill="#e0e0e0" stroke="#999999" points="260.5,-295.5 199.5,-295.5 199.5,-276.25 260.5,-276.25 260.5,-295.5"/>
<text xml:space="preserve" text-anchor="middle" x="230" y="-282" font-family="Helvetica,sans-Serif" font-size="10.00">filesystem</text>
</a>
</g>
</g>
<!-- Node17&#45;&gt;Node18 -->
<g id="edge20_Node000017_Node000018" class="edge">
<title>Node17&#45;&gt;Node18</title>
<g id="a_edge20_Node000017_Node000018"><a xlink:title=" ">
<path fill="none" stroke="#63b8ff" d="M605.53,-334.52C527.83,-327.2 391.25,-313.21 275,-295.5 274,-295.35 272.99,-295.19 271.98,-295.03"/>
<polygon fill="#63b8ff" stroke="#63b8ff" points="272.87,-291.63 262.42,-293.38 271.68,-298.53 272.87,-291.63"/>
</a>
</g>
</g>
<!-- Node19 -->
<g id="Node000019" class="node">
<title>Node19</title>
<g id="a_Node000019"><a xlink:title=" ">
<polygon fill="#e0e0e0" stroke="#999999" points="1505,-74.5 1447,-74.5 1447,-55.25 1505,-55.25 1505,-74.5"/>
<text xml:space="preserve" text-anchor="middle" x="1476" y="-61" font-family="Helvetica,sans-Serif" font-size="10.00">functional</text>
</a>
</g>
</g>
<!-- Node17&#45;&gt;Node19 -->
<g id="edge21_Node000017_Node000019" class="edge">
<title>Node17&#45;&gt;Node19</title>
<g id="a_edge21_Node000017_Node000019"><a xlink:title=" ">
<path fill="none" stroke="#63b8ff" d="M730.23,-337.02C853.6,-328.52 1134.76,-297.35 1338,-185 1388.33,-157.18 1436.73,-108.85 1460.59,-83.13"/>
<polygon fill="#63b8ff" stroke="#63b8ff" points="1463.05,-85.62 1467.21,-75.88 1457.88,-80.9 1463.05,-85.62"/>
</a>
</g>
</g>
<!-- Node20 -->
<g id="Node000020" class="node">
<title>Node20</title>
<g id="a_Node000020"><a xlink:href="_utils_8hpp.html" target="_top" xlink:title=" ">
<polygon fill="white" stroke="#666666" points="695.5,-295.5 640.5,-295.5 640.5,-276.25 695.5,-276.25 695.5,-295.5"/>
<text xml:space="preserve" text-anchor="middle" x="668" y="-282" font-family="Helvetica,sans-Serif" font-size="10.00">Utils.hpp</text>
</a>
</g>
</g>
<!-- Node17&#45;&gt;Node20 -->
<g id="edge27_Node000017_Node000020" class="edge">
<title>Node17&#45;&gt;Node20</title>
<g id="a_edge27_Node000017_Node000020"><a xlink:title=" ">
<path fill="none" stroke="#63b8ff" d="M668,-331.33C668,-324.82 668,-315.67 668,-307.37"/>
<polygon fill="#63b8ff" stroke="#63b8ff" points="671.5,-307.37 668,-297.37 664.5,-307.37 671.5,-307.37"/>
</a>
</g>
</g>
<!-- Node32 -->
<g id="Node000032" class="node">
<title>Node32</title>
<g id="a_Node000032"><a xlink:href="_read_i_o_8hpp.html" target="_top" xlink:title=" ">
<polygon fill="white" stroke="#666666" points="635.5,-185 556.5,-185 556.5,-165.75 635.5,-165.75 635.5,-185"/>
<text xml:space="preserve" text-anchor="middle" x="596" y="-171.5" font-family="Helvetica,sans-Serif" font-size="10.00">io/ReadIO.hpp</text>
</a>
</g>
</g>
<!-- Node17&#45;&gt;Node32 -->
<g id="edge62_Node000017_Node000032" class="edge">
<title>Node17&#45;&gt;Node32</title>
<g id="a_edge62_Node000017_Node000032"><a xlink:title=" ">
<path fill="none" stroke="#63b8ff" d="M730.34,-333.18C822.9,-320.5 979.79,-288.42 921,-221 886.09,-180.97 729.51,-175.58 647.1,-175.61"/>
<polygon fill="#63b8ff" stroke="#63b8ff" points="647.25,-172.11 637.26,-175.64 647.27,-179.11 647.25,-172.11"/>
</a>
</g>
</g>
<!-- Node20&#45;&gt;Node5 -->
<g id="edge39_Node000020_Node000005" class="edge">
<title>Node20&#45;&gt;Node5</title>
<g id="a_edge39_Node000020_Node000005"><a xlink:title=" ">
<path fill="none" stroke="#63b8ff" d="M640.18,-278.81C608.01,-271.4 553.75,-257.67 509,-240.25 491.36,-233.38 488.58,-228.03 471,-221 419.29,-200.34 388.24,-226.4 351,-185 340.49,-173.31 337.86,-155.42 337.65,-141.55"/>
<polygon fill="#63b8ff" stroke="#63b8ff" points="341.15,-141.83 337.94,-131.74 334.15,-141.63 341.15,-141.83"/>
</a>
</g>
</g>
<!-- Node20&#45;&gt;Node6 -->
<g id="edge32_Node000020_Node000006" class="edge">
<title>Node20&#45;&gt;Node6</title>
<g id="a_edge32_Node000020_Node000006"><a xlink:title=" ">
<path fill="none" stroke="#63b8ff" d="M695.91,-285.48C766.52,-286.16 942.86,-281.98 888,-221 837.18,-164.52 599.05,-241.27 548,-185 523.53,-158.03 532.25,-111.79 540.08,-85.56"/>
<polygon fill="#63b8ff" stroke="#63b8ff" points="543.36,-86.79 543.13,-76.19 536.7,-84.62 543.36,-86.79"/>
</a>
</g>
</g>
<!-- Node20&#45;&gt;Node8 -->
<g id="edge38_Node000020_Node000008" class="edge">
<title>Node20&#45;&gt;Node8</title>
<g id="a_edge38_Node000020_Node000008"><a xlink:title=" ">
<path fill="none" stroke="#63b8ff" d="M695.96,-283.14C757.62,-278.88 903.03,-266.28 944,-240.25 1004.01,-202.11 1041.41,-121.63 1056,-84.89"/>
<polygon fill="#63b8ff" stroke="#63b8ff" points="1059.09,-86.61 1059.4,-76.02 1052.55,-84.11 1059.09,-86.61"/>
</a>
</g>
</g>
<!-- Node21 -->
<g id="Node000021" class="node">
<title>Node21</title>
<g id="a_Node000021"><a xlink:title=" ">
<polygon fill="#e0e0e0" stroke="#999999" points="695.88,-240.25 640.12,-240.25 640.12,-221 695.88,-221 695.88,-240.25"/>
<text xml:space="preserve" text-anchor="middle" x="668" y="-226.75" font-family="Helvetica,sans-Serif" font-size="10.00">algorithm</text>
</a>
</g>
</g>
<!-- Node20&#45;&gt;Node21 -->
<g id="edge28_Node000020_Node000021" class="edge">
<title>Node20&#45;&gt;Node21</title>
<g id="a_edge28_Node000020_Node000021"><a xlink:title=" ">
<path fill="none" stroke="#63b8ff" d="M668,-276.08C668,-269.57 668,-260.42 668,-252.12"/>
<polygon fill="#63b8ff" stroke="#63b8ff" points="671.5,-252.12 668,-242.12 664.5,-252.12 671.5,-252.12"/>
</a>
</g>
</g>
<!-- Node22 -->
<g id="Node000022" class="node">
<title>Node22</title>
<g id="a_Node000022"><a xlink:title=" ">
<polygon fill="#e0e0e0" stroke="#999999" points="998.88,-129.75 961.12,-129.75 961.12,-110.5 998.88,-110.5 998.88,-129.75"/>
<text xml:space="preserve" text-anchor="middle" x="980" y="-116.25" font-family="Helvetica,sans-Serif" font-size="10.00">array</text>
</a>
</g>
</g>
<!-- Node20&#45;&gt;Node22 -->
<g id="edge29_Node000020_Node000022" class="edge">
<title>Node20&#45;&gt;Node22</title>
<g id="a_edge29_Node000020_Node000022"><a xlink:title=" ">
<path fill="none" stroke="#63b8ff" d="M695.63,-283.12C753.64,-278.94 885.66,-266.72 921,-240.25 953.69,-215.77 969.38,-168.21 975.95,-141.17"/>
<polygon fill="#63b8ff" stroke="#63b8ff" points="979.34,-142.05 978.09,-131.53 972.51,-140.53 979.34,-142.05"/>
</a>
</g>
</g>
<!-- Node23 -->
<g id="Node000023" class="node">
<title>Node23</title>
<g id="a_Node000023"><a xlink:title=" ">
<polygon fill="#e0e0e0" stroke="#999999" points="759.62,-240.25 714.38,-240.25 714.38,-221 759.62,-221 759.62,-240.25"/>
<text xml:space="preserve" text-anchor="middle" x="737" y="-226.75" font-family="Helvetica,sans-Serif" font-size="10.00">chrono</text>
</a>
</g>
</g>
<!-- Node20&#45;&gt;Node23 -->
<g id="edge30_Node000020_Node000023" class="edge">
<title>Node20&#45;&gt;Node23</title>
<g id="a_edge30_Node000020_Node000023"><a xlink:title=" ">
<path fill="none" stroke="#63b8ff" d="M679.7,-275.84C689.78,-268.07 704.54,-256.67 716.56,-247.4"/>
<polygon fill="#63b8ff" stroke="#63b8ff" points="718.49,-250.33 724.27,-241.45 714.21,-244.79 718.49,-250.33"/>
</a>
</g>
</g>
<!-- Node24 -->
<g id="Node000024" class="node">
<title>Node24</title>
<g id="a_Node000024"><a xlink:title=" ">
<polygon fill="#e0e0e0" stroke="#999999" points="820.5,-240.25 777.5,-240.25 777.5,-221 820.5,-221 820.5,-240.25"/>
<text xml:space="preserve" text-anchor="middle" x="799" y="-226.75" font-family="Helvetica,sans-Serif" font-size="10.00">cmath</text>
</a>
</g>
</g>
<!-- Node20&#45;&gt;Node24 -->
<g id="edge31_Node000020_Node000024" class="edge">
<title>Node20&#45;&gt;Node24</title>
<g id="a_edge31_Node000020_Node000024"><a xlink:title=" ">
<path fill="none" stroke="#63b8ff" d="M690.22,-275.84C711.14,-267.34 742.73,-254.5 766.48,-244.84"/>
<polygon fill="#63b8ff" stroke="#63b8ff" points="767.76,-248.1 775.7,-241.09 765.12,-241.62 767.76,-248.1"/>
</a>
</g>
</g>
<!-- Node25 -->
<g id="Node000025" class="node">
<title>Node25</title>
<g id="a_Node000025"><a xlink:title=" ">
<polygon fill="#e0e0e0" stroke="#999999" points="879,-240.25 839,-240.25 839,-221 879,-221 879,-240.25"/>
<text xml:space="preserve" text-anchor="middle" x="859" y="-226.75" font-family="Helvetica,sans-Serif" font-size="10.00">ctime</text>
</a>
</g>
</g>
<!-- Node20&#45;&gt;Node25 -->
<g id="edge33_Node000020_Node000025" class="edge">
<title>Node20&#45;&gt;Node25</title>
<g id="a_edge33_Node000020_Node000025"><a xlink:title=" ">
<path fill="none" stroke="#63b8ff" d="M695.85,-277.39C726.09,-269.22 776.05,-255.61 827.98,-240.79"/>
<polygon fill="#63b8ff" stroke="#63b8ff" points="828.63,-244.24 837.28,-238.13 826.7,-237.51 828.63,-244.24"/>
</a>
</g>
</g>
<!-- Node26 -->
<g id="Node000026" class="node">
<title>Node26</title>
<g id="a_Node000026"><a xlink:title=" ">
<polygon fill="#e0e0e0" stroke="#999999" points="267.88,-240.25 218.12,-240.25 218.12,-221 267.88,-221 267.88,-240.25"/>
<text xml:space="preserve" text-anchor="middle" x="243" y="-226.75" font-family="Helvetica,sans-Serif" font-size="10.00">iomanip</text>
</a>
</g>
</g>
<!-- Node20&#45;&gt;Node26 -->
<g id="edge34_Node000020_Node000026" class="edge">
<title>Node20&#45;&gt;Node26</title>
<g id="a_edge34_Node000020_Node000026"><a xlink:title=" ">
<path fill="none" stroke="#63b8ff" d="M640.32,-283C577.71,-278.5 420.35,-265.65 279.17,-240.41"/>
<polygon fill="#63b8ff" stroke="#63b8ff" points="280.12,-237.03 269.66,-238.68 278.87,-243.91 280.12,-237.03"/>
</a>
</g>
</g>
<!-- Node27 -->
<g id="Node000027" class="node">
<title>Node27</title>
<g id="a_Node000027"><a xlink:title=" ">
<polygon fill="#e0e0e0" stroke="#999999" points="334.12,-240.25 285.88,-240.25 285.88,-221 334.12,-221 334.12,-240.25"/>
<text xml:space="preserve" text-anchor="middle" x="310" y="-226.75" font-family="Helvetica,sans-Serif" font-size="10.00">random</text>
</a>
</g>
</g>
<!-- Node20&#45;&gt;Node27 -->
<g id="edge35_Node000020_Node000027" class="edge">
<title>Node20&#45;&gt;Node27</title>
<g id="a_edge35_Node000020_Node000027"><a xlink:title=" ">
<path fill="none" stroke="#63b8ff" d="M640.42,-282.21C585.92,-276.7 460.38,-262.84 345.51,-240.54"/>
<polygon fill="#63b8ff" stroke="#63b8ff" points="346.41,-237.15 335.92,-238.65 345.05,-244.02 346.41,-237.15"/>
</a>
</g>
</g>
<!-- Node28 -->
<g id="Node000028" class="node">
<title>Node28</title>
<g id="a_Node000028"><a xlink:title=" ">
<polygon fill="#e0e0e0" stroke="#999999" points="392,-240.25 352,-240.25 352,-221 392,-221 392,-240.25"/>
<text xml:space="preserve" text-anchor="middle" x="372" y="-226.75" font-family="Helvetica,sans-Serif" font-size="10.00">regex</text>
</a>
</g>
</g>
<!-- Node20&#45;&gt;Node28 -->
<g id="edge36_Node000020_Node000028" class="edge">
<title>Node20&#45;&gt;Node28</title>
<g id="a_edge36_Node000020_Node000028"><a xlink:title=" ">
<path fill="none" stroke="#63b8ff" d="M640.1,-281.37C593.18,-275.22 495.35,-261.36 403.38,-240.55"/>
<polygon fill="#63b8ff" stroke="#63b8ff" points="404.2,-237.15 393.67,-238.32 402.63,-243.97 404.2,-237.15"/>
</a>
</g>
</g>
<!-- Node29 -->
<g id="Node000029" class="node">
<title>Node29</title>
<g id="a_Node000029"><a xlink:title=" ">
<polygon fill="#e0e0e0" stroke="#999999" points="461.62,-240.25 410.38,-240.25 410.38,-221 461.62,-221 461.62,-240.25"/>
<text xml:space="preserve" text-anchor="middle" x="436" y="-226.75" font-family="Helvetica,sans-Serif" font-size="10.00">sstream</text>
</a>
</g>
</g>
<!-- Node20&#45;&gt;Node29 -->
<g id="edge37_Node000020_Node000029" class="edge">
<title>Node20&#45;&gt;Node29</title>
<g id="a_edge37_Node000020_Node000029"><a xlink:title=" ">
<path fill="none" stroke="#63b8ff" d="M640.02,-278.45C598.24,-268.86 519.52,-250.8 473.03,-240.12"/>
<polygon fill="#63b8ff" stroke="#63b8ff" points="473.95,-236.74 463.42,-237.92 472.38,-243.57 473.95,-236.74"/>
</a>
</g>
</g>
<!-- Node30 -->
<g id="Node000030" class="node">
<title>Node30</title>
<g id="a_Node000030"><a xlink:href="_h_d_f5_i_o_8hpp.html" target="_top" xlink:title=" ">
<polygon fill="white" stroke="#666666" points="621.88,-240.25 518.12,-240.25 518.12,-221 621.88,-221 621.88,-240.25"/>
<text xml:space="preserve" text-anchor="middle" x="570" y="-226.75" font-family="Helvetica,sans-Serif" font-size="10.00">io/hdf5/HDF5IO.hpp</text>
</a>
</g>
</g>
<!-- Node20&#45;&gt;Node30 -->
<g id="edge40_Node000020_Node000030" class="edge">
<title>Node20&#45;&gt;Node30</title>
<g id="a_edge40_Node000020_Node000030"><a xlink:title=" ">
<path fill="none" stroke="#63b8ff" d="M651.38,-275.84C636.31,-267.66 613.86,-255.46 596.35,-245.94"/>
<polygon fill="#63b8ff" stroke="#63b8ff" points="598.49,-243.12 588.04,-241.43 595.15,-249.27 598.49,-243.12"/>
</a>
</g>
</g>
<!-- Node30&#45;&gt;Node4 -->
<g id="edge42_Node000030_Node000004" class="edge">
<title>Node30&#45;&gt;Node4</title>
<g id="a_edge42_Node000030_Node000004"><a xlink:title=" ">
<path fill="none" stroke="#63b8ff" d="M517.83,-225.41C463.05,-219.96 374.91,-208.26 302,-185 217.26,-157.97 124.81,-106.37 81.7,-80.88"/>
<polygon fill="#63b8ff" stroke="#63b8ff" points="83.52,-77.89 73.14,-75.77 79.93,-83.9 83.52,-77.89"/>
</a>
</g>
</g>
<!-- Node30&#45;&gt;Node5 -->
<g id="edge46_Node000030_Node000005" class="edge">
<title>Node30&#45;&gt;Node5</title>
<g id="a_edge46_Node000030_Node000005"><a xlink:title=" ">
<path fill="none" stroke="#63b8ff" d="M519.28,-220.59C464.27,-210.42 382.68,-194.13 371,-185 356.95,-174.02 348.59,-155.23 343.96,-140.86"/>
<polygon fill="#63b8ff" stroke="#63b8ff" points="347.42,-140.22 341.32,-131.56 340.68,-142.14 347.42,-140.22"/>
</a>
</g>
</g>
<!-- Node30&#45;&gt;Node7 -->
<g id="edge41_Node000030_Node000007" class="edge">
<title>Node30&#45;&gt;Node7</title>
<g id="a_edge41_Node000030_Node000007"><a xlink:title=" ">
<path fill="none" stroke="#63b8ff" d="M556.54,-220.76C543.97,-212.23 524.97,-198.64 510,-185 473.71,-151.91 436.55,-107.76 417,-83.57"/>
<polygon fill="#63b8ff" stroke="#63b8ff" points="419.9,-81.6 410.92,-75.98 414.44,-85.97 419.9,-81.6"/>
</a>
</g>
</g>
<!-- Node30&#45;&gt;Node8 -->
<g id="edge43_Node000030_Node000008" class="edge">
<title>Node30&#45;&gt;Node8</title>
<g id="a_edge43_Node000030_Node000008"><a xlink:title=" ">
<path fill="none" stroke="#63b8ff" d="M603.87,-220.53C664.43,-204.05 795.01,-167.42 903,-129.75 909.41,-127.51 987.25,-96.3 1031.94,-78.35"/>
<polygon fill="#63b8ff" stroke="#63b8ff" points="1033.15,-81.64 1041.13,-74.67 1030.54,-75.15 1033.15,-81.64"/>
</a>
</g>
</g>
<!-- Node30&#45;&gt;Node14 -->
<g id="edge45_Node000030_Node000014" class="edge">
<title>Node30&#45;&gt;Node14</title>
<g id="a_edge45_Node000030_Node000014"><a xlink:title=" ">
<path fill="none" stroke="#63b8ff" d="M517.65,-224.17C472.34,-218.24 405.68,-206.57 351,-185 307.34,-167.77 293.36,-163.75 261,-129.75 248.73,-116.86 239.37,-98.83 233.43,-85.21"/>
<polygon fill="#63b8ff" stroke="#63b8ff" points="236.7,-83.96 229.68,-76.02 230.22,-86.6 236.7,-83.96"/>
</a>
</g>
</g>
<!-- Node31 -->
<g id="Node000031" class="node">
<title>Node31</title>
<g id="a_Node000031"><a xlink:title=" ">
<polygon fill="#e0e0e0" stroke="#999999" points="450,-185 380,-185 380,-165.75 450,-165.75 450,-185"/>
<text xml:space="preserve" text-anchor="middle" x="415" y="-171.5" font-family="Helvetica,sans-Serif" font-size="10.00">H5Opublic.h</text>
</a>
</g>
</g>
<!-- Node30&#45;&gt;Node31 -->
<g id="edge44_Node000030_Node000031" class="edge">
<title>Node30&#45;&gt;Node31</title>
<g id="a_edge44_Node000030_Node000031"><a xlink:title=" ">
<path fill="none" stroke="#63b8ff" d="M543.71,-220.59C518.54,-211.95 480.35,-198.82 452.09,-189.12"/>
<polygon fill="#63b8ff" stroke="#63b8ff" points="453.45,-185.88 442.85,-185.94 451.17,-192.5 453.45,-185.88"/>
</a>
</g>
</g>
<!-- Node30&#45;&gt;Node32 -->
<g id="edge47_Node000030_Node000032" class="edge">
<title>Node30&#45;&gt;Node32</title>
<g id="a_edge47_Node000030_Node000032"><a xlink:title=" ">
<path fill="none" stroke="#63b8ff" d="M574.29,-220.83C577.62,-214.01 582.36,-204.31 586.56,-195.7"/>
<polygon fill="#63b8ff" stroke="#63b8ff" points="589.71,-197.24 590.95,-186.72 583.42,-194.17 589.71,-197.24"/>
</a>
</g>
</g>
<!-- Node32&#45;&gt;Node3 -->
<g id="edge48_Node000032_Node000003" class="edge">
<title>Node32&#45;&gt;Node3</title>
<g id="a_edge48_Node000032_Node000003"><a xlink:title=" ">
<path fill="none" stroke="#63b8ff" d="M635.72,-172C696.54,-167.58 808.76,-156.02 838,-129.75 850.25,-118.75 854.75,-100.24 856.33,-85.97"/>
<polygon fill="#63b8ff" stroke="#63b8ff" points="859.8,-86.54 856.99,-76.32 852.82,-86.06 859.8,-86.54"/>
</a>
</g>
</g>
<!-- Node32&#45;&gt;Node4 -->
<g id="edge53_Node000032_Node000004" class="edge">
<title>Node32&#45;&gt;Node4</title>
<g id="a_edge53_Node000032_Node000004"><a xlink:title=" ">
<path fill="none" stroke="#63b8ff" d="M556.16,-171.29C493.01,-165.9 366.26,-153.06 261,-129.75 200.52,-116.36 132.18,-93.27 91.95,-78.83"/>
<polygon fill="#63b8ff" stroke="#63b8ff" points="93.15,-75.54 82.55,-75.43 90.76,-82.12 93.15,-75.54"/>
</a>
</g>
</g>
<!-- Node32&#45;&gt;Node5 -->
<g id="edge59_Node000032_Node000005" class="edge">
<title>Node32&#45;&gt;Node5</title>
<g id="a_edge59_Node000032_Node000005"><a xlink:title=" ">
<path fill="none" stroke="#63b8ff" d="M556.13,-166.11C511.36,-156.84 438.6,-141.76 389.79,-131.65"/>
<polygon fill="#63b8ff" stroke="#63b8ff" points="390.53,-128.23 380.03,-129.63 389.11,-135.08 390.53,-128.23"/>
</a>
</g>
</g>
<!-- Node32&#45;&gt;Node6 -->
<g id="edge51_Node000032_Node000006" class="edge">
<title>Node32&#45;&gt;Node6</title>
<g id="a_edge51_Node000032_Node000006"><a xlink:title=" ">
<path fill="none" stroke="#63b8ff" d="M591.99,-165.5C584.09,-148.01 566.37,-108.77 555.68,-85.09"/>
<polygon fill="#63b8ff" stroke="#63b8ff" points="558.99,-83.93 551.69,-76.26 552.61,-86.81 558.99,-83.93"/>
</a>
</g>
</g>
<!-- Node32&#45;&gt;Node7 -->
<g id="edge52_Node000032_Node000007" class="edge">
<title>Node32&#45;&gt;Node7</title>
<g id="a_edge52_Node000032_Node000007"><a xlink:title=" ">
<path fill="none" stroke="#63b8ff" d="M579.88,-165.31C546.53,-146.56 469.7,-103.37 429.16,-80.58"/>
<polygon fill="#63b8ff" stroke="#63b8ff" points="430.96,-77.58 420.53,-75.73 427.53,-83.68 430.96,-77.58"/>
</a>
</g>
</g>
<!-- Node32&#45;&gt;Node8 -->
<g id="edge55_Node000032_Node000008" class="edge">
<title>Node32&#45;&gt;Node8</title>
<g id="a_edge55_Node000032_Node000008"><a xlink:title=" ">
<path fill="none" stroke="#63b8ff" d="M635.85,-169.32C687.5,-162.37 780.19,-148.56 858,-129.75 885.63,-123.07 891.87,-118.99 919,-110.5 958.03,-98.29 1003.07,-84.36 1032.23,-75.36"/>
<polygon fill="#63b8ff" stroke="#63b8ff" points="1032.99,-78.79 1041.51,-72.5 1030.92,-72.1 1032.99,-78.79"/>
</a>
</g>
</g>
<!-- Node32&#45;&gt;Node9 -->
<g id="edge57_Node000032_Node000009" class="edge">
<title>Node32&#45;&gt;Node9</title>
<g id="a_edge57_Node000032_Node000009"><a xlink:title=" ">
<path fill="none" stroke="#63b8ff" d="M586.26,-165.5C566.39,-147.38 520.88,-105.88 495.31,-82.57"/>
<polygon fill="#63b8ff" stroke="#63b8ff" points="497.74,-80.05 487.99,-75.9 493.02,-85.22 497.74,-80.05"/>
</a>
</g>
</g>
<!-- Node32&#45;&gt;Node13 -->
<g id="edge58_Node000032_Node000013" class="edge">
<title>Node32&#45;&gt;Node13</title>
<g id="a_edge58_Node000032_Node000013"><a xlink:title=" ">
<path fill="none" stroke="#63b8ff" d="M596.11,-165.57C596.42,-140.25 597.31,-66.75 597.75,-30.84"/>
<polygon fill="#63b8ff" stroke="#63b8ff" points="601.25,-31.03 597.87,-20.99 594.25,-30.94 601.25,-31.03"/>
</a>
</g>
</g>
<!-- Node32&#45;&gt;Node14 -->
<g id="edge60_Node000032_Node000014" class="edge">
<title>Node32&#45;&gt;Node14</title>
<g id="a_edge60_Node000032_Node000014"><a xlink:title=" ">
<path fill="none" stroke="#63b8ff" d="M556.13,-171.62C484.41,-166.17 336.83,-152.51 291,-129.75 269.38,-119.01 250.44,-98.38 238.67,-83.47"/>
<polygon fill="#63b8ff" stroke="#63b8ff" points="241.74,-81.73 232.92,-75.86 236.16,-85.95 241.74,-81.73"/>
</a>
</g>
</g>
<!-- Node32&#45;&gt;Node22 -->
<g id="edge49_Node000032_Node000022" class="edge">
<title>Node32&#45;&gt;Node22</title>
<g id="a_edge49_Node000032_Node000022"><a xlink:title=" ">
<path fill="none" stroke="#63b8ff" d="M635.65,-168.88C712.66,-158.2 880.92,-134.86 949.75,-125.32"/>
<polygon fill="#63b8ff" stroke="#63b8ff" points="950.1,-128.8 959.53,-123.96 949.14,-121.87 950.1,-128.8"/>
</a>
</g>
</g>
<!-- Node33 -->
<g id="Node000033" class="node">
<title>Node33</title>
<g id="a_Node000033"><a xlink:title=" ">
<polygon fill="#e0e0e0" stroke="#999999" points="672.12,-129.75 623.88,-129.75 623.88,-110.5 672.12,-110.5 672.12,-129.75"/>
<text xml:space="preserve" text-anchor="middle" x="648" y="-116.25" font-family="Helvetica,sans-Serif" font-size="10.00">cassert</text>
</a>
</g>
</g>
<!-- Node32&#45;&gt;Node33 -->
<g id="edge50_Node000032_Node000033" class="edge">
<title>Node32&#45;&gt;Node33</title>
<g id="a_edge50_Node000032_Node000033"><a xlink:title=" ">
<path fill="none" stroke="#63b8ff" d="M604.59,-165.58C611.84,-158.15 622.45,-147.29 631.37,-138.16"/>
<polygon fill="#63b8ff" stroke="#63b8ff" points="633.69,-140.79 638.17,-131.19 628.68,-135.9 633.69,-140.79"/>
</a>
</g>
</g>
<!-- Node34 -->
<g id="Node000034" class="node">
<title>Node34</title>
<g id="a_Node000034"><a xlink:title=" ">
<polygon fill="#e0e0e0" stroke="#999999" points="749.38,-129.75 690.62,-129.75 690.62,-110.5 749.38,-110.5 749.38,-129.75"/>
<text xml:space="preserve" text-anchor="middle" x="720" y="-116.25" font-family="Helvetica,sans-Serif" font-size="10.00">stdexcept</text>
</a>
</g>
</g>
<!-- Node32&#45;&gt;Node34 -->
<g id="edge54_Node000032_Node000034" class="edge">
<title>Node32&#45;&gt;Node34</title>
<g id="a_edge54_Node000032_Node000034"><a xlink:title=" ">
<path fill="none" stroke="#63b8ff" d="M617.03,-165.34C636.63,-156.93 666.11,-144.27 688.51,-134.65"/>
<polygon fill="#63b8ff" stroke="#63b8ff" points="689.66,-137.96 697.47,-130.8 686.9,-131.53 689.66,-137.96"/>
</a>
</g>
</g>
<!-- Node35 -->
<g id="Node000035" class="node">
<title>Node35</title>
<g id="a_Node000035"><a xlink:title=" ">
<polygon fill="#e0e0e0" stroke="#999999" points="828.88,-129.75 767.12,-129.75 767.12,-110.5 828.88,-110.5 828.88,-129.75"/>
<text xml:space="preserve" text-anchor="middle" x="798" y="-116.25" font-family="Helvetica,sans-Serif" font-size="10.00">type_traits</text>
</a>
</g>
</g>
<!-- Node32&#45;&gt;Node35 -->
<g id="edge56_Node000032_Node000035" class="edge">
<title>Node32&#45;&gt;Node35</title>
<g id="a_edge56_Node000032_Node000035"><a xlink:title=" ">
<path fill="none" stroke="#63b8ff" d="M630.27,-165.34C664.95,-156.2 718.64,-142.05 755.89,-132.23"/>
<polygon fill="#63b8ff" stroke="#63b8ff" points="756.65,-135.65 765.42,-129.71 754.86,-128.88 756.65,-135.65"/>
</a>
</g>
</g>
<!-- Node36&#45;&gt;Node8 -->
<g id="edge65_Node000036_Node000008" class="edge">
<title>Node36&#45;&gt;Node8</title>
<g id="a_edge65_Node000036_Node000008"><a xlink:title=" ">
<path fill="none" stroke="#63b8ff" d="M1249.96,-165.31C1214.56,-146.48 1132.81,-103.01 1090.1,-80.29"/>
<polygon fill="#63b8ff" stroke="#63b8ff" points="1091.95,-77.31 1081.47,-75.7 1088.66,-83.49 1091.95,-77.31"/>
</a>
</g>
</g>
<!-- Node36&#45;&gt;Node13 -->
<g id="edge67_Node000036_Node000013" class="edge">
<title>Node36&#45;&gt;Node13</title>
<g id="a_edge67_Node000036_Node000013"><a xlink:title=" ">
<path fill="none" stroke="#63b8ff" d="M1323.39,-165.33C1344.12,-158.98 1365.56,-148.16 1378,-129.75 1393.74,-106.45 1367.85,-64.93 1354,-55.25 1294.18,-13.44 769.36,-10.59 631.21,-10.57"/>
<polygon fill="#63b8ff" stroke="#63b8ff" points="631.29,-7.07 621.29,-10.57 631.29,-14.07 631.29,-7.07"/>
</a>
</g>
</g>
<!-- Node36&#45;&gt;Node22 -->
<g id="edge64_Node000036_Node000022" class="edge">
<title>Node36&#45;&gt;Node22</title>
<g id="a_edge64_Node000036_Node000022"><a xlink:title=" ">
<path fill="none" stroke="#63b8ff" d="M1217.99,-165.28C1158.53,-154.25 1060.12,-135.99 1010.54,-126.79"/>
<polygon fill="#63b8ff" stroke="#63b8ff" points="1011.28,-123.37 1000.81,-124.99 1010,-130.25 1011.28,-123.37"/>
</a>
</g>
</g>
<!-- Node37 -->
<g id="Node000037" class="node">
<title>Node37</title>
<g id="a_Node000037"><a xlink:title=" ">
<polygon fill="#e0e0e0" stroke="#999999" points="1344.75,-74.5 1279.25,-74.5 1279.25,-55.25 1344.75,-55.25 1344.75,-74.5"/>
<text xml:space="preserve" text-anchor="middle" x="1312" y="-61" font-family="Helvetica,sans-Serif" font-size="10.00">string_view</text>
</a>
</g>
</g>
<!-- Node36&#45;&gt;Node37 -->
<g id="edge66_Node000036_Node000037" class="edge">
<title>Node36&#45;&gt;Node37</title>
<g id="a_edge66_Node000036_Node000037"><a xlink:title=" ">
<path fill="none" stroke="#63b8ff" d="M1310.01,-165.28C1329.39,-158.8 1350.47,-147.9 1362,-129.75 1373.08,-112.3 1355.01,-93.85 1337.58,-81.3"/>
<polygon fill="#63b8ff" stroke="#63b8ff" points="1339.66,-78.48 1329.4,-75.81 1335.76,-84.29 1339.66,-78.48"/>
</a>
</g>
</g>
<!-- Node38 -->
<g id="Node000038" class="node">
<title>Node38</title>
<g id="a_Node000038"><a xlink:href="_namespace_registry_8hpp.html" target="_top" xlink:title=" ">
<polygon fill="white" stroke="#666666" points="1353.25,-129.75 1206.75,-129.75 1206.75,-110.5 1353.25,-110.5 1353.25,-129.75"/>
<text xml:space="preserve" text-anchor="middle" x="1280" y="-116.25" font-family="Helvetica,sans-Serif" font-size="10.00">spec/NamespaceRegistry.hpp</text>
</a>
</g>
</g>
<!-- Node36&#45;&gt;Node38 -->
<g id="edge68_Node000036_Node000038" class="edge">
<title>Node36&#45;&gt;Node38</title>
<g id="a_edge68_Node000036_Node000038"><a xlink:title=" ">
<path fill="none" stroke="#63b8ff" d="M1269.15,-165.58C1270.77,-158.92 1273.08,-149.49 1275.14,-141.03"/>
<polygon fill="#63b8ff" stroke="#63b8ff" points="1278.48,-142.12 1277.45,-131.58 1271.68,-140.46 1278.48,-142.12"/>
</a>
</g>
</g>
<!-- Node38&#45;&gt;Node8 -->
<g id="edge70_Node000038_Node000008" class="edge">
<title>Node38&#45;&gt;Node8</title>
<g id="a_edge70_Node000038_Node000008"><a xlink:title=" ">
<path fill="none" stroke="#63b8ff" d="M1238.76,-110.03C1202.94,-101.99 1149.45,-89.59 1094.29,-75"/>
<polygon fill="#63b8ff" stroke="#63b8ff" points="1095.27,-71.64 1084.7,-72.44 1093.46,-78.4 1095.27,-71.64"/>
</a>
</g>
</g>
<!-- Node38&#45;&gt;Node10 -->
<g id="edge72_Node000038_Node000010" class="edge">
<title>Node38&#45;&gt;Node10</title>
<g id="a_edge72_Node000038_Node000010"><a xlink:title=" ">
<path fill="none" stroke="#63b8ff" d="M1256.59,-110.09C1234.48,-101.56 1201.08,-88.67 1176.03,-79.01"/>
<polygon fill="#63b8ff" stroke="#63b8ff" points="1177.53,-75.83 1166.94,-75.5 1175.01,-82.36 1177.53,-75.83"/>
</a>
</g>
</g>
<!-- Node38&#45;&gt;Node13 -->
<g id="edge73_Node000038_Node000013" class="edge">
<title>Node38&#45;&gt;Node13</title>
<g id="a_edge73_Node000038_Node000013"><a xlink:title=" ">
<path fill="none" stroke="#63b8ff" d="M1271.25,-110.12C1256.48,-95.58 1224.97,-67.34 1192,-55.25 1087.77,-17.03 740.56,-11.53 631.25,-10.75"/>
<polygon fill="#63b8ff" stroke="#63b8ff" points="631.52,-7.25 621.5,-10.69 631.48,-14.25 631.52,-7.25"/>
</a>
</g>
</g>
<!-- Node38&#45;&gt;Node14 -->
<g id="edge74_Node000038_Node000014" class="edge">
<title>Node38&#45;&gt;Node14</title>
<g id="a_edge74_Node000038_Node000014"><a xlink:title=" ">
<path fill="none" stroke="#63b8ff" d="M1206.26,-116.62C995.47,-109.38 397.6,-88.08 268.32,-74.56"/>
<polygon fill="#63b8ff" stroke="#63b8ff" points="268.84,-71.1 258.5,-73.41 268.02,-78.05 268.84,-71.1"/>
</a>
</g>
</g>
<!-- Node38&#45;&gt;Node19 -->
<g id="edge69_Node000038_Node000019" class="edge">
<title>Node38&#45;&gt;Node19</title>
<g id="a_edge69_Node000038_Node000019"><a xlink:title=" ">
<path fill="none" stroke="#63b8ff" d="M1313.25,-110.09C1347.2,-100.87 1399.91,-86.55 1436.1,-76.72"/>
<polygon fill="#63b8ff" stroke="#63b8ff" points="1436.56,-80.22 1445.29,-74.22 1434.73,-73.46 1436.56,-80.22"/>
</a>
</g>
</g>
<!-- Node38&#45;&gt;Node37 -->
<g id="edge71_Node000038_Node000037" class="edge">
<title>Node38&#45;&gt;Node37</title>
<g id="a_edge71_Node000038_Node000037"><a xlink:title=" ">
<path fill="none" stroke="#63b8ff" d="M1285.28,-110.33C1289.47,-103.36 1295.48,-93.37 1300.73,-84.62"/>
<polygon fill="#63b8ff" stroke="#63b8ff" points="1303.67,-86.53 1305.82,-76.16 1297.67,-82.93 1303.67,-86.53"/>
</a>
</g>
</g>
</g>
</svg>
