<?xml version="1.0" encoding="UTF-8" standalone="no"?>
<!DOCTYPE svg PUBLIC "-//W3C//DTD SVG 1.1//EN"
 "http://www.w3.org/Graphics/SVG/1.1/DTD/svg11.dtd">
<!-- Generated by graphviz version 12.1.0 (20240811.2233)
 -->
<!-- Title: src/nwb/file/ElectrodeTable.cpp Pages: 1 -->
<svg width="740pt" height="414pt"
 viewBox="0.00 0.00 740.00 414.00" xmlns="http://www.w3.org/2000/svg" xmlns:xlink="http://www.w3.org/1999/xlink">
<g id="graph0" class="graph" transform="scale(1 1) rotate(0) translate(4 410)">
<title>src/nwb/file/ElectrodeTable.cpp</title>
<!-- Node1 -->
<g id="Node000001" class="node">
<title>Node1</title>
<g id="a_Node000001"><a xlink:title=" ">
<polygon fill="#999999" stroke="#666666" points="613.88,-406 461.38,-406 461.38,-386.75 613.88,-386.75 613.88,-406"/>
<text text-anchor="middle" x="537.62" y="-392.5" font-family="Helvetica,sans-Serif" font-size="10.00">src/nwb/file/ElectrodeTable.cpp</text>
</a>
</g>
</g>
<!-- Node2 -->
<g id="Node000002" class="node">
<title>Node2</title>
<g id="a_Node000002"><a xlink:href="_electrode_table_8hpp.html" target="_top" xlink:title=" ">
<polygon fill="white" stroke="#666666" points="529.62,-350.75 393.62,-350.75 393.62,-331.5 529.62,-331.5 529.62,-350.75"/>
<text text-anchor="middle" x="461.62" y="-337.25" font-family="Helvetica,sans-Serif" font-size="10.00">nwb/file/ElectrodeTable.hpp</text>
</a>
</g>
</g>
<!-- Node1&#45;&gt;Node2 -->
<g id="edge1_Node000001_Node000002" class="edge">
<title>Node1&#45;&gt;Node2</title>
<g id="a_edge1_Node000001_Node000002"><a xlink:title=" ">
<path fill="none" stroke="#63b8ff" d="M524.73,-386.34C513.6,-378.54 497.25,-367.09 483.99,-357.79"/>
<polygon fill="#63b8ff" stroke="#63b8ff" points="486.02,-354.94 475.82,-352.07 482,-360.68 486.02,-354.94"/>
</a>
</g>
</g>
<!-- Node16 -->
<g id="Node000016" class="node">
<title>Node16</title>
<g id="a_Node000016"><a xlink:href="_channel_8hpp.html" target="_top" xlink:title=" ">
<polygon fill="white" stroke="#666666" points="732,-129.75 661.25,-129.75 661.25,-110.5 732,-110.5 732,-129.75"/>
<text text-anchor="middle" x="696.62" y="-116.25" font-family="Helvetica,sans-Serif" font-size="10.00">Channel.hpp</text>
</a>
</g>
</g>
<!-- Node1&#45;&gt;Node16 -->
<g id="edge28_Node000001_Node000016" class="edge">
<title>Node1&#45;&gt;Node16</title>
<g id="a_edge28_Node000001_Node000016"><a xlink:title=" ">
<path fill="none" stroke="#63b8ff" d="M572.22,-386.26C615.4,-372.55 683.62,-342.14 683.62,-286.88 683.62,-286.88 683.62,-286.88 683.62,-229.62 683.62,-198.69 688.9,-163.14 692.73,-141.4"/>
<polygon fill="#63b8ff" stroke="#63b8ff" points="696.17,-142.04 694.54,-131.57 689.29,-140.77 696.17,-142.04"/>
</a>
</g>
</g>
<!-- Node3 -->
<g id="Node000003" class="node">
<title>Node3</title>
<g id="a_Node000003"><a xlink:title=" ">
<polygon fill="#e0e0e0" stroke="#999999" points="622.62,-74.5 582.62,-74.5 582.62,-55.25 622.62,-55.25 622.62,-74.5"/>
<text text-anchor="middle" x="602.62" y="-61" font-family="Helvetica,sans-Serif" font-size="10.00">string</text>
</a>
</g>
</g>
<!-- Node2&#45;&gt;Node3 -->
<g id="edge2_Node000002_Node000003" class="edge">
<title>Node2&#45;&gt;Node3</title>
<g id="a_edge2_Node000002_Node000003"><a xlink:title=" ">
<path fill="none" stroke="#63b8ff" d="M510.45,-331.05C561.3,-318.45 633.62,-290.23 633.62,-231.62 633.62,-231.62 633.62,-231.62 633.62,-174.38 633.62,-142.14 620.82,-106.52 611.67,-85.19"/>
<polygon fill="#63b8ff" stroke="#63b8ff" points="614.97,-83.99 607.69,-76.29 608.58,-86.85 614.97,-83.99"/>
</a>
</g>
</g>
<!-- Node4 -->
<g id="Node000004" class="node">
<title>Node4</title>
<g id="a_Node000004"><a xlink:href="_base_i_o_8hpp.html" target="_top" xlink:title=" ">
<polygon fill="white" stroke="#666666" points="448.5,-129.75 380.75,-129.75 380.75,-110.5 448.5,-110.5 448.5,-129.75"/>
<text text-anchor="middle" x="414.62" y="-116.25" font-family="Helvetica,sans-Serif" font-size="10.00">BaseIO.hpp</text>
</a>
</g>
</g>
<!-- Node2&#45;&gt;Node4 -->
<g id="edge3_Node000002_Node000004" class="edge">
<title>Node2&#45;&gt;Node4</title>
<g id="a_edge3_Node000002_Node000004"><a xlink:title=" ">
<path fill="none" stroke="#63b8ff" d="M471.08,-331.23C479.24,-322.88 490.51,-309.6 495.62,-295.5 515.31,-241.25 530.6,-215.07 500.62,-165.75 491.38,-150.54 475.08,-140.28 459.15,-133.47"/>
<polygon fill="#63b8ff" stroke="#63b8ff" points="460.8,-130.36 450.21,-130.03 458.28,-136.89 460.8,-130.36"/>
</a>
</g>
</g>
<!-- Node11 -->
<g id="Node000011" class="node">
<title>Node11</title>
<g id="a_Node000011"><a xlink:href="_dynamic_table_8hpp.html" target="_top" xlink:title=" ">
<polygon fill="white" stroke="#666666" points="487,-295.5 320.25,-295.5 320.25,-276.25 487,-276.25 487,-295.5"/>
<text text-anchor="middle" x="403.62" y="-282" font-family="Helvetica,sans-Serif" font-size="10.00">nwb/hdmf/table/DynamicTable.hpp</text>
</a>
</g>
</g>
<!-- Node2&#45;&gt;Node11 -->
<g id="edge12_Node000002_Node000011" class="edge">
<title>Node2&#45;&gt;Node11</title>
<g id="a_edge12_Node000002_Node000011"><a xlink:title=" ">
<path fill="none" stroke="#63b8ff" d="M451.79,-331.09C443.57,-323.55 431.64,-312.6 421.71,-303.48"/>
<polygon fill="#63b8ff" stroke="#63b8ff" points="424.17,-300.98 414.43,-296.8 419.43,-306.14 424.17,-300.98"/>
</a>
</g>
</g>
<!-- Node13 -->
<g id="Node000013" class="node">
<title>Node13</title>
<g id="a_Node000013"><a xlink:href="_element_identifiers_8hpp.html" target="_top" xlink:title=" ">
<polygon fill="white" stroke="#666666" points="183.25,-240.25 0,-240.25 0,-221 183.25,-221 183.25,-240.25"/>
<text text-anchor="middle" x="91.62" y="-226.75" font-family="Helvetica,sans-Serif" font-size="10.00">nwb/hdmf/table/ElementIdentifiers.hpp</text>
</a>
</g>
</g>
<!-- Node2&#45;&gt;Node13 -->
<g id="edge26_Node000002_Node000013" class="edge">
<title>Node2&#45;&gt;Node13</title>
<g id="a_edge26_Node000002_Node000013"><a xlink:title=" ">
<path fill="none" stroke="#63b8ff" d="M425.22,-331.07C390.89,-322.4 338.08,-308.72 292.62,-295.5 235.54,-278.9 170.02,-257.67 129.72,-244.35"/>
<polygon fill="#63b8ff" stroke="#63b8ff" points="130.83,-241.03 120.24,-241.21 128.63,-247.68 130.83,-241.03"/>
</a>
</g>
</g>
<!-- Node15 -->
<g id="Node000015" class="node">
<title>Node15</title>
<g id="a_Node000015"><a xlink:href="_vector_data_8hpp.html" target="_top" xlink:title=" ">
<polygon fill="white" stroke="#666666" points="355.62,-240.25 201.62,-240.25 201.62,-221 355.62,-221 355.62,-240.25"/>
<text text-anchor="middle" x="278.62" y="-226.75" font-family="Helvetica,sans-Serif" font-size="10.00">nwb/hdmf/table/VectorData.hpp</text>
</a>
</g>
</g>
<!-- Node2&#45;&gt;Node15 -->
<g id="edge27_Node000002_Node000015" class="edge">
<title>Node2&#45;&gt;Node15</title>
<g id="a_edge27_Node000002_Node000015"><a xlink:title=" ">
<path fill="none" stroke="#63b8ff" d="M393.37,-331.73C365.58,-325.48 334.65,-314.56 311.62,-295.5 297.8,-284.06 289.1,-265.33 284.12,-251.1"/>
<polygon fill="#63b8ff" stroke="#63b8ff" points="287.57,-250.4 281.24,-241.91 280.89,-252.5 287.57,-250.4"/>
</a>
</g>
</g>
<!-- Node4&#45;&gt;Node3 -->
<g id="edge7_Node000004_Node000003" class="edge">
<title>Node4&#45;&gt;Node3</title>
<g id="a_edge7_Node000004_Node000003"><a xlink:title=" ">
<path fill="none" stroke="#63b8ff" d="M447.56,-110.04C477.48,-101.76 523.11,-89.03 571.37,-75.12"/>
<polygon fill="#63b8ff" stroke="#63b8ff" points="572.27,-78.5 580.9,-72.37 570.32,-71.78 572.27,-78.5"/>
</a>
</g>
</g>
<!-- Node5 -->
<g id="Node000005" class="node">
<title>Node5</title>
<g id="a_Node000005"><a xlink:title=" ">
<polygon fill="#e0e0e0" stroke="#999999" points="485.25,-74.5 440,-74.5 440,-55.25 485.25,-55.25 485.25,-74.5"/>
<text text-anchor="middle" x="462.62" y="-61" font-family="Helvetica,sans-Serif" font-size="10.00">cstdint</text>
</a>
</g>
</g>
<!-- Node4&#45;&gt;Node5 -->
<g id="edge4_Node000004_Node000005" class="edge">
<title>Node4&#45;&gt;Node5</title>
<g id="a_edge4_Node000004_Node000005"><a xlink:title=" ">
<path fill="none" stroke="#63b8ff" d="M422.55,-110.33C429.18,-102.98 438.84,-92.26 447.01,-83.19"/>
<polygon fill="#63b8ff" stroke="#63b8ff" points="449.42,-85.75 453.51,-75.98 444.22,-81.07 449.42,-85.75"/>
</a>
</g>
</g>
<!-- Node6 -->
<g id="Node000006" class="node">
<title>Node6</title>
<g id="a_Node000006"><a xlink:title=" ">
<polygon fill="#e0e0e0" stroke="#999999" points="383.38,-74.5 329.88,-74.5 329.88,-55.25 383.38,-55.25 383.38,-74.5"/>
<text text-anchor="middle" x="356.62" y="-61" font-family="Helvetica,sans-Serif" font-size="10.00">iostream</text>
</a>
</g>
</g>
<!-- Node4&#45;&gt;Node6 -->
<g id="edge5_Node000004_Node000006" class="edge">
<title>Node4&#45;&gt;Node6</title>
<g id="a_edge5_Node000004_Node000006"><a xlink:title=" ">
<path fill="none" stroke="#63b8ff" d="M404.79,-110.09C396.57,-102.55 384.64,-91.6 374.71,-82.48"/>
<polygon fill="#63b8ff" stroke="#63b8ff" points="377.17,-79.98 367.43,-75.8 372.43,-85.14 377.17,-79.98"/>
</a>
</g>
</g>
<!-- Node7 -->
<g id="Node000007" class="node">
<title>Node7</title>
<g id="a_Node000007"><a xlink:title=" ">
<polygon fill="#e0e0e0" stroke="#999999" points="312.25,-74.5 261,-74.5 261,-55.25 312.25,-55.25 312.25,-74.5"/>
<text text-anchor="middle" x="286.62" y="-61" font-family="Helvetica,sans-Serif" font-size="10.00">memory</text>
</a>
</g>
</g>
<!-- Node4&#45;&gt;Node7 -->
<g id="edge6_Node000004_Node000007" class="edge">
<title>Node4&#45;&gt;Node7</title>
<g id="a_edge6_Node000004_Node000007"><a xlink:title=" ">
<path fill="none" stroke="#63b8ff" d="M392.91,-110.09C372.59,-101.64 341.98,-88.9 318.82,-79.27"/>
<polygon fill="#63b8ff" stroke="#63b8ff" points="320.42,-76.14 309.84,-75.53 317.73,-82.61 320.42,-76.14"/>
</a>
</g>
</g>
<!-- Node8 -->
<g id="Node000008" class="node">
<title>Node8</title>
<g id="a_Node000008"><a xlink:title=" ">
<polygon fill="#e0e0e0" stroke="#999999" points="462.12,-19.25 419.12,-19.25 419.12,0 462.12,0 462.12,-19.25"/>
<text text-anchor="middle" x="440.62" y="-5.75" font-family="Helvetica,sans-Serif" font-size="10.00">vector</text>
</a>
</g>
</g>
<!-- Node4&#45;&gt;Node8 -->
<g id="edge8_Node000004_Node000008" class="edge">
<title>Node4&#45;&gt;Node8</title>
<g id="a_edge8_Node000004_Node000008"><a xlink:title=" ">
<path fill="none" stroke="#63b8ff" d="M416.75,-110.25C420.89,-93 430.09,-54.58 435.79,-30.81"/>
<polygon fill="#63b8ff" stroke="#63b8ff" points="439.19,-31.64 438.12,-21.1 432.38,-30.01 439.19,-31.64"/>
</a>
</g>
</g>
<!-- Node9 -->
<g id="Node000009" class="node">
<title>Node9</title>
<g id="a_Node000009"><a xlink:href="_types_8hpp.html" target="_top" xlink:title=" ">
<polygon fill="white" stroke="#666666" points="564.12,-74.5 503.12,-74.5 503.12,-55.25 564.12,-55.25 564.12,-74.5"/>
<text text-anchor="middle" x="533.62" y="-61" font-family="Helvetica,sans-Serif" font-size="10.00">Types.hpp</text>
</a>
</g>
</g>
<!-- Node4&#45;&gt;Node9 -->
<g id="edge9_Node000004_Node000009" class="edge">
<title>Node4&#45;&gt;Node9</title>
<g id="a_edge9_Node000004_Node000009"><a xlink:title=" ">
<path fill="none" stroke="#63b8ff" d="M434.81,-110.09C453.53,-101.72 481.65,-89.13 503.11,-79.53"/>
<polygon fill="#63b8ff" stroke="#63b8ff" points="504.26,-82.85 511.96,-75.57 501.4,-76.46 504.26,-82.85"/>
</a>
</g>
</g>
<!-- Node9&#45;&gt;Node8 -->
<g id="edge11_Node000009_Node000008" class="edge">
<title>Node9&#45;&gt;Node8</title>
<g id="a_edge11_Node000009_Node000008"><a xlink:title=" ">
<path fill="none" stroke="#63b8ff" d="M517.85,-54.84C503.69,-46.73 482.64,-34.68 466.1,-25.21"/>
<polygon fill="#63b8ff" stroke="#63b8ff" points="468.21,-22.39 457.79,-20.45 464.73,-28.46 468.21,-22.39"/>
</a>
</g>
</g>
<!-- Node10 -->
<g id="Node000010" class="node">
<title>Node10</title>
<g id="a_Node000010"><a xlink:title=" ">
<polygon fill="#e0e0e0" stroke="#999999" points="557.75,-19.25 509.5,-19.25 509.5,0 557.75,0 557.75,-19.25"/>
<text text-anchor="middle" x="533.62" y="-5.75" font-family="Helvetica,sans-Serif" font-size="10.00">cstddef</text>
</a>
</g>
</g>
<!-- Node9&#45;&gt;Node10 -->
<g id="edge10_Node000009_Node000010" class="edge">
<title>Node9&#45;&gt;Node10</title>
<g id="a_edge10_Node000009_Node000010"><a xlink:title=" ">
<path fill="none" stroke="#63b8ff" d="M533.62,-55.08C533.62,-48.57 533.62,-39.42 533.62,-31.12"/>
<polygon fill="#63b8ff" stroke="#63b8ff" points="537.13,-31.12 533.63,-21.12 530.13,-31.12 537.13,-31.12"/>
</a>
</g>
</g>
<!-- Node11&#45;&gt;Node3 -->
<g id="edge13_Node000011_Node000003" class="edge">
<title>Node11&#45;&gt;Node3</title>
<g id="a_edge13_Node000011_Node000003"><a xlink:title=" ">
<path fill="none" stroke="#63b8ff" d="M419.3,-275.88C454.22,-255 538.75,-199.63 581.62,-129.75 589.95,-116.18 595.37,-98.93 598.61,-85.79"/>
<polygon fill="#63b8ff" stroke="#63b8ff" points="602,-86.68 600.75,-76.16 595.16,-85.17 602,-86.68"/>
</a>
</g>
</g>
<!-- Node11&#45;&gt;Node4 -->
<g id="edge14_Node000011_Node000004" class="edge">
<title>Node11&#45;&gt;Node4</title>
<g id="a_edge14_Node000011_Node000004"><a xlink:title=" ">
<path fill="none" stroke="#63b8ff" d="M398.63,-276C391.49,-263.48 377.77,-240.03 364.62,-221 353.1,-204.32 343.2,-204.17 336.62,-185 333.85,-176.91 332.33,-173.15 336.62,-165.75 344.81,-151.63 359.33,-141.6 373.64,-134.67"/>
<polygon fill="#63b8ff" stroke="#63b8ff" points="374.79,-137.99 382.55,-130.77 371.98,-131.58 374.79,-137.99"/>
</a>
</g>
</g>
<!-- Node12 -->
<g id="Node000012" class="node">
<title>Node12</title>
<g id="a_Node000012"><a xlink:href="_container_8hpp.html" target="_top" xlink:title=" ">
<polygon fill="white" stroke="#666666" points="491.5,-185 345.75,-185 345.75,-165.75 491.5,-165.75 491.5,-185"/>
<text text-anchor="middle" x="418.62" y="-171.5" font-family="Helvetica,sans-Serif" font-size="10.00">nwb/hdmf/base/Container.hpp</text>
</a>
</g>
</g>
<!-- Node11&#45;&gt;Node12 -->
<g id="edge15_Node000011_Node000012" class="edge">
<title>Node11&#45;&gt;Node12</title>
<g id="a_edge15_Node000011_Node000012"><a xlink:title=" ">
<path fill="none" stroke="#63b8ff" d="M404.85,-276C407.24,-258.75 412.55,-220.33 415.83,-196.56"/>
<polygon fill="#63b8ff" stroke="#63b8ff" points="419.27,-197.26 417.17,-186.88 412.34,-196.3 419.27,-197.26"/>
</a>
</g>
</g>
<!-- Node11&#45;&gt;Node13 -->
<g id="edge19_Node000011_Node000013" class="edge">
<title>Node11&#45;&gt;Node13</title>
<g id="a_edge19_Node000011_Node000013"><a xlink:title=" ">
<path fill="none" stroke="#63b8ff" d="M350.34,-275.78C296.58,-266.61 213.52,-252.43 156.08,-242.63"/>
<polygon fill="#63b8ff" stroke="#63b8ff" points="156.88,-239.21 146.44,-240.98 155.71,-246.11 156.88,-239.21"/>
</a>
</g>
</g>
<!-- Node11&#45;&gt;Node15 -->
<g id="edge23_Node000011_Node000015" class="edge">
<title>Node11&#45;&gt;Node15</title>
<g id="a_edge23_Node000011_Node000015"><a xlink:title=" ">
<path fill="none" stroke="#63b8ff" d="M382.42,-275.84C362.67,-267.43 332.95,-254.77 310.37,-245.15"/>
<polygon fill="#63b8ff" stroke="#63b8ff" points="311.9,-241.99 301.33,-241.3 309.15,-248.43 311.9,-241.99"/>
</a>
</g>
</g>
<!-- Node12&#45;&gt;Node3 -->
<g id="edge17_Node000012_Node000003" class="edge">
<title>Node12&#45;&gt;Node3</title>
<g id="a_edge17_Node000012_Node000003"><a xlink:title=" ">
<path fill="none" stroke="#63b8ff" d="M434,-165.31C465.79,-146.56 539.03,-103.37 577.69,-80.58"/>
<polygon fill="#63b8ff" stroke="#63b8ff" points="579.03,-83.85 585.86,-75.76 575.47,-77.82 579.03,-83.85"/>
</a>
</g>
</g>
<!-- Node12&#45;&gt;Node4 -->
<g id="edge18_Node000012_Node000004" class="edge">
<title>Node12&#45;&gt;Node4</title>
<g id="a_edge18_Node000012_Node000004"><a xlink:title=" ">
<path fill="none" stroke="#63b8ff" d="M417.96,-165.58C417.47,-158.99 416.77,-149.71 416.14,-141.32"/>
<polygon fill="#63b8ff" stroke="#63b8ff" points="419.65,-141.33 415.41,-131.62 412.67,-141.85 419.65,-141.33"/>
</a>
</g>
</g>
<!-- Node12&#45;&gt;Node7 -->
<g id="edge16_Node000012_Node000007" class="edge">
<title>Node12&#45;&gt;Node7</title>
<g id="a_edge16_Node000012_Node000007"><a xlink:title=" ">
<path fill="none" stroke="#63b8ff" d="M407.82,-165.5C385.58,-147.22 334.41,-105.15 306.19,-81.96"/>
<polygon fill="#63b8ff" stroke="#63b8ff" points="308.69,-79.48 298.75,-75.84 304.25,-84.89 308.69,-79.48"/>
</a>
</g>
</g>
<!-- Node14 -->
<g id="Node000014" class="node">
<title>Node14</title>
<g id="a_Node000014"><a xlink:href="_data_8hpp.html" target="_top" xlink:title=" ">
<polygon fill="white" stroke="#666666" points="289.38,-185 163.88,-185 163.88,-165.75 289.38,-165.75 289.38,-185"/>
<text text-anchor="middle" x="226.62" y="-171.5" font-family="Helvetica,sans-Serif" font-size="10.00">nwb/hdmf/base/Data.hpp</text>
</a>
</g>
</g>
<!-- Node13&#45;&gt;Node14 -->
<g id="edge20_Node000013_Node000014" class="edge">
<title>Node13&#45;&gt;Node14</title>
<g id="a_edge20_Node000013_Node000014"><a xlink:title=" ">
<path fill="none" stroke="#63b8ff" d="M114.53,-220.59C136.05,-212.1 168.54,-199.29 193,-189.64"/>
<polygon fill="#63b8ff" stroke="#63b8ff" points="194.19,-192.93 202.2,-186.01 191.62,-186.42 194.19,-192.93"/>
</a>
</g>
</g>
<!-- Node14&#45;&gt;Node4 -->
<g id="edge22_Node000014_Node000004" class="edge">
<title>Node14&#45;&gt;Node4</title>
<g id="a_edge22_Node000014_Node000004"><a xlink:title=" ">
<path fill="none" stroke="#63b8ff" d="M258.52,-165.34C289.71,-156.51 337.42,-142.99 371.89,-133.23"/>
<polygon fill="#63b8ff" stroke="#63b8ff" points="372.45,-136.71 381.12,-130.61 370.55,-129.97 372.45,-136.71"/>
</a>
</g>
</g>
<!-- Node14&#45;&gt;Node7 -->
<g id="edge21_Node000014_Node000007" class="edge">
<title>Node14&#45;&gt;Node7</title>
<g id="a_edge21_Node000014_Node000007"><a xlink:title=" ">
<path fill="none" stroke="#63b8ff" d="M231.54,-165.5C241.25,-147.93 263.1,-108.41 276.18,-84.77"/>
<polygon fill="#63b8ff" stroke="#63b8ff" points="279.14,-86.65 280.91,-76.2 273.01,-83.26 279.14,-86.65"/>
</a>
</g>
</g>
<!-- Node15&#45;&gt;Node3 -->
<g id="edge24_Node000015_Node000003" class="edge">
<title>Node15&#45;&gt;Node3</title>
<g id="a_edge24_Node000015_Node000003"><a xlink:title=" ">
<path fill="none" stroke="#63b8ff" d="M356.03,-226.52C400.85,-221.79 456.88,-210.66 500.62,-185 542.94,-160.18 576.22,-111.29 592.22,-84.5"/>
<polygon fill="#63b8ff" stroke="#63b8ff" points="595.09,-86.53 597.07,-76.12 589.03,-83.02 595.09,-86.53"/>
</a>
</g>
</g>
<!-- Node15&#45;&gt;Node14 -->
<g id="edge25_Node000015_Node000014" class="edge">
<title>Node15&#45;&gt;Node14</title>
<g id="a_edge25_Node000015_Node000014"><a xlink:title=" ">
<path fill="none" stroke="#63b8ff" d="M270.04,-220.83C262.78,-213.4 252.17,-202.54 243.26,-193.41"/>
<polygon fill="#63b8ff" stroke="#63b8ff" points="245.95,-191.15 236.46,-186.44 240.94,-196.04 245.95,-191.15"/>
</a>
</g>
</g>
<!-- Node16&#45;&gt;Node3 -->
<g id="edge30_Node000016_Node000003" class="edge">
<title>Node16&#45;&gt;Node3</title>
<g id="a_edge30_Node000016_Node000003"><a xlink:title=" ">
<path fill="none" stroke="#63b8ff" d="M680.68,-110.09C666.36,-101.98 645.09,-89.93 628.37,-80.46"/>
<polygon fill="#63b8ff" stroke="#63b8ff" points="630.39,-77.58 619.97,-75.7 626.94,-83.67 630.39,-77.58"/>
</a>
</g>
</g>
<!-- Node16&#45;&gt;Node9 -->
<g id="edge31_Node000016_Node000009" class="edge">
<title>Node16&#45;&gt;Node9</title>
<g id="a_edge31_Node000016_Node000009"><a xlink:title=" ">
<path fill="none" stroke="#63b8ff" d="M668.97,-110.09C642.4,-101.41 601.99,-88.21 572.24,-78.49"/>
<polygon fill="#63b8ff" stroke="#63b8ff" points="573.44,-75.2 562.85,-75.42 571.27,-81.85 573.44,-75.2"/>
</a>
</g>
</g>
<!-- Node17 -->
<g id="Node000017" class="node">
<title>Node17</title>
<g id="a_Node000017"><a xlink:title=" ">
<polygon fill="#e0e0e0" stroke="#999999" points="715.5,-74.5 677.75,-74.5 677.75,-55.25 715.5,-55.25 715.5,-74.5"/>
<text text-anchor="middle" x="696.62" y="-61" font-family="Helvetica,sans-Serif" font-size="10.00">array</text>
</a>
</g>
</g>
<!-- Node16&#45;&gt;Node17 -->
<g id="edge29_Node000016_Node000017" class="edge">
<title>Node16&#45;&gt;Node17</title>
<g id="a_edge29_Node000016_Node000017"><a xlink:title=" ">
<path fill="none" stroke="#63b8ff" d="M696.62,-110.33C696.62,-103.82 696.62,-94.67 696.62,-86.37"/>
<polygon fill="#63b8ff" stroke="#63b8ff" points="700.13,-86.37 696.63,-76.37 693.13,-86.37 700.13,-86.37"/>
</a>
</g>
</g>
</g>
</svg>
