<?xml version="1.0" encoding="UTF-8" standalone="no"?>
<!DOCTYPE svg PUBLIC "-//W3C//DTD SVG 1.1//EN"
 "http://www.w3.org/Graphics/SVG/1.1/DTD/svg11.dtd">
<!-- Generated by graphviz version 14.1.0 (20251206.1807)
 -->
<!-- Title: src/nwb/file/ElectrodesTable.hpp Pages: 1 -->
<svg width="636pt" height="227pt"
 viewBox="0.00 0.00 636.00 227.00" xmlns="http://www.w3.org/2000/svg" xmlns:xlink="http://www.w3.org/1999/xlink">
<g id="graph0" class="graph" transform="scale(1 1) rotate(0) translate(4 222.75)">
<title>src/nwb/file/ElectrodesTable.hpp</title>
<!-- Node1 -->
<g id="Node000001" class="node">
<title>Node1</title>
<g id="a_Node000001"><a xlink:title=" ">
<polygon fill="#999999" stroke="#666666" points="322.88,-218.75 165.12,-218.75 165.12,-199.5 322.88,-199.5 322.88,-218.75"/>
<text xml:space="preserve" text-anchor="middle" x="244" y="-205.25" font-family="Helvetica,sans-Serif" font-size="10.00">src/nwb/file/ElectrodesTable.hpp</text>
</a>
</g>
</g>
<!-- Node2 -->
<g id="Node000002" class="node">
<title>Node2</title>
<g id="a_Node000002"><a xlink:href="_n_w_b_file_8hpp.html" target="_top" xlink:title=" ">
<polygon fill="white" stroke="#666666" points="112,-91.38 0,-91.38 0,-72.12 112,-72.12 112,-91.38"/>
<text xml:space="preserve" text-anchor="middle" x="56" y="-77.88" font-family="Helvetica,sans-Serif" font-size="10.00">src/nwb/NWBFile.hpp</text>
</a>
</g>
</g>
<!-- Node1&#45;&gt;Node2 -->
<g id="edge1_Node000001_Node000002" class="edge">
<title>Node1&#45;&gt;Node2</title>
<g id="a_edge1_Node000001_Node000002"><a xlink:title=" ">
<path fill="none" stroke="#63b8ff" d="M221.13,-192.87C181.59,-166.5 101.61,-113.17 69.65,-91.85"/>
<polygon fill="#63b8ff" stroke="#63b8ff" points="218.96,-195.63 229.22,-198.27 222.84,-189.81 218.96,-195.63"/>
</a>
</g>
</g>
<!-- Node4 -->
<g id="Node000004" class="node">
<title>Node4</title>
<g id="a_Node000004"><a xlink:href="_electrical_series_8cpp.html" target="_top" xlink:title=" ">
<polygon fill="white" stroke="#666666" points="263.88,-97 130.12,-97 130.12,-66.5 263.88,-66.5 263.88,-97"/>
<text xml:space="preserve" text-anchor="start" x="138.12" y="-83.5" font-family="Helvetica,sans-Serif" font-size="10.00">src/nwb/ecephys/Electrical</text>
<text xml:space="preserve" text-anchor="middle" x="197" y="-72.25" font-family="Helvetica,sans-Serif" font-size="10.00">Series.cpp</text>
</a>
</g>
</g>
<!-- Node1&#45;&gt;Node4 -->
<g id="edge3_Node000001_Node000004" class="edge">
<title>Node1&#45;&gt;Node4</title>
<g id="a_edge3_Node000001_Node000004"><a xlink:title=" ">
<path fill="none" stroke="#63b8ff" d="M230.46,-189.6C225.31,-181.85 219.78,-172.55 216,-163.5 206.78,-141.44 201.53,-114.04 198.98,-97.49"/>
<polygon fill="#63b8ff" stroke="#63b8ff" points="227.58,-191.6 236.17,-197.8 233.32,-187.6 227.58,-191.6"/>
</a>
</g>
</g>
<!-- Node5 -->
<g id="Node000005" class="node">
<title>Node5</title>
<g id="a_Node000005"><a xlink:href="_electrical_series_8hpp.html" target="_top" xlink:title=" ">
<polygon fill="white" stroke="#666666" points="358.88,-163.5 225.12,-163.5 225.12,-133 358.88,-133 358.88,-163.5"/>
<text xml:space="preserve" text-anchor="start" x="233.12" y="-150" font-family="Helvetica,sans-Serif" font-size="10.00">src/nwb/ecephys/Electrical</text>
<text xml:space="preserve" text-anchor="middle" x="292" y="-138.75" font-family="Helvetica,sans-Serif" font-size="10.00">Series.hpp</text>
</a>
</g>
</g>
<!-- Node1&#45;&gt;Node5 -->
<g id="edge4_Node000001_Node000005" class="edge">
<title>Node1&#45;&gt;Node5</title>
<g id="a_edge4_Node000001_Node000005"><a xlink:title=" ">
<path fill="none" stroke="#63b8ff" d="M258.43,-190.43C265.37,-181.92 273.58,-171.84 280.15,-163.78"/>
<polygon fill="#63b8ff" stroke="#63b8ff" points="255.85,-188.05 252.25,-198.01 261.28,-192.47 255.85,-188.05"/>
</a>
</g>
</g>
<!-- Node9 -->
<g id="Node000009" class="node">
<title>Node9</title>
<g id="a_Node000009"><a xlink:href="_electrodes_table_8cpp.html" target="_top" xlink:title=" ">
<polygon fill="white" stroke="#666666" points="534.88,-157.88 377.12,-157.88 377.12,-138.62 534.88,-138.62 534.88,-157.88"/>
<text xml:space="preserve" text-anchor="middle" x="456" y="-144.38" font-family="Helvetica,sans-Serif" font-size="10.00">src/nwb/file/ElectrodesTable.cpp</text>
</a>
</g>
</g>
<!-- Node1&#45;&gt;Node9 -->
<g id="edge12_Node000001_Node000009" class="edge">
<title>Node1&#45;&gt;Node9</title>
<g id="a_edge12_Node000001_Node000009"><a xlink:title=" ">
<path fill="none" stroke="#63b8ff" d="M287.5,-196.05C327.81,-184.85 386.87,-168.45 423.3,-158.33"/>
<polygon fill="#63b8ff" stroke="#63b8ff" points="286.82,-192.6 278.12,-198.65 288.69,-199.35 286.82,-192.6"/>
</a>
</g>
</g>
<!-- Node3 -->
<g id="Node000003" class="node">
<title>Node3</title>
<g id="a_Node000003"><a xlink:href="_n_w_b_file_8cpp.html" target="_top" xlink:title=" ">
<polygon fill="white" stroke="#666666" points="284,-24.88 172,-24.88 172,-5.63 284,-5.63 284,-24.88"/>
<text xml:space="preserve" text-anchor="middle" x="228" y="-11.38" font-family="Helvetica,sans-Serif" font-size="10.00">src/nwb/NWBFile.cpp</text>
</a>
</g>
</g>
<!-- Node2&#45;&gt;Node3 -->
<g id="edge2_Node000002_Node000003" class="edge">
<title>Node2&#45;&gt;Node3</title>
<g id="a_edge2_Node000002_Node000003"><a xlink:title=" ">
<path fill="none" stroke="#63b8ff" d="M91,-67.63C124.59,-55.03 174.45,-36.33 203.84,-25.31"/>
<polygon fill="#63b8ff" stroke="#63b8ff" points="89.83,-64.33 81.7,-71.11 92.29,-70.88 89.83,-64.33"/>
</a>
</g>
</g>
<!-- Node5&#45;&gt;Node3 -->
<g id="edge5_Node000005_Node000003" class="edge">
<title>Node5&#45;&gt;Node3</title>
<g id="a_edge5_Node000005_Node000003"><a xlink:title=" ">
<path fill="none" stroke="#63b8ff" d="M289.31,-121.81C286.8,-105.31 282,-83.76 273,-66.5 264.34,-49.89 248.92,-34.41 238.58,-25.14"/>
<polygon fill="#63b8ff" stroke="#63b8ff" points="285.79,-121.84 290.57,-131.29 292.73,-120.92 285.79,-121.84"/>
</a>
</g>
</g>
<!-- Node5&#45;&gt;Node4 -->
<g id="edge7_Node000005_Node000004" class="edge">
<title>Node5&#45;&gt;Node4</title>
<g id="a_edge7_Node000005_Node000004"><a xlink:title=" ">
<path fill="none" stroke="#63b8ff" d="M261.2,-126.34C247.25,-116.87 231.09,-105.89 218.47,-97.33"/>
<polygon fill="#63b8ff" stroke="#63b8ff" points="258.95,-129.04 269.19,-131.76 262.88,-123.25 258.95,-129.04"/>
</a>
</g>
</g>
<!-- Node6 -->
<g id="Node000006" class="node">
<title>Node6</title>
<g id="a_Node000006"><a xlink:href="_recording_containers_8cpp.html" target="_top" xlink:title=" ">
<polygon fill="white" stroke="#666666" points="627.88,-24.88 464.12,-24.88 464.12,-5.63 627.88,-5.63 627.88,-24.88"/>
<text xml:space="preserve" text-anchor="middle" x="546" y="-11.38" font-family="Helvetica,sans-Serif" font-size="10.00">src/nwb/RecordingContainers.cpp</text>
</a>
</g>
</g>
<!-- Node5&#45;&gt;Node6 -->
<g id="edge6_Node000005_Node000006" class="edge">
<title>Node5&#45;&gt;Node6</title>
<g id="a_edge6_Node000005_Node000006"><a xlink:title=" ">
<path fill="none" stroke="#63b8ff" d="M370.27,-130.09C410.79,-120.31 455.4,-107.87 473,-97 503.87,-77.93 529.5,-42.04 540.38,-25.29"/>
<polygon fill="#63b8ff" stroke="#63b8ff" points="369.64,-126.64 360.72,-132.36 371.26,-133.45 369.64,-126.64"/>
</a>
</g>
</g>
<!-- Node7 -->
<g id="Node000007" class="node">
<title>Node7</title>
<g id="a_Node000007"><a xlink:href="_spike_event_series_8hpp.html" target="_top" xlink:title=" ">
<polygon fill="white" stroke="#666666" points="463.75,-97 320.25,-97 320.25,-66.5 463.75,-66.5 463.75,-97"/>
<text xml:space="preserve" text-anchor="start" x="328.25" y="-83.5" font-family="Helvetica,sans-Serif" font-size="10.00">src/nwb/ecephys/SpikeEvent</text>
<text xml:space="preserve" text-anchor="middle" x="392" y="-72.25" font-family="Helvetica,sans-Serif" font-size="10.00">Series.hpp</text>
</a>
</g>
</g>
<!-- Node5&#45;&gt;Node7 -->
<g id="edge8_Node000005_Node000007" class="edge">
<title>Node5&#45;&gt;Node7</title>
<g id="a_edge8_Node000005_Node000007"><a xlink:title=" ">
<path fill="none" stroke="#63b8ff" d="M323.99,-126.61C338.78,-117.08 355.99,-105.98 369.4,-97.33"/>
<polygon fill="#63b8ff" stroke="#63b8ff" points="322.47,-123.43 315.96,-131.79 326.26,-129.31 322.47,-123.43"/>
</a>
</g>
</g>
<!-- Node7&#45;&gt;Node3 -->
<g id="edge9_Node000007_Node000003" class="edge">
<title>Node7&#45;&gt;Node3</title>
<g id="a_edge9_Node000007_Node000003"><a xlink:title=" ">
<path fill="none" stroke="#63b8ff" d="M344.28,-61.98C313.55,-49.9 274.98,-34.73 250.91,-25.26"/>
<polygon fill="#63b8ff" stroke="#63b8ff" points="342.79,-65.16 353.38,-65.56 345.35,-58.64 342.79,-65.16"/>
</a>
</g>
</g>
<!-- Node7&#45;&gt;Node6 -->
<g id="edge10_Node000007_Node000006" class="edge">
<title>Node7&#45;&gt;Node6</title>
<g id="a_edge10_Node000007_Node000006"><a xlink:title=" ">
<path fill="none" stroke="#63b8ff" d="M437.19,-61.82C465.98,-49.76 501.98,-34.69 524.49,-25.26"/>
<polygon fill="#63b8ff" stroke="#63b8ff" points="436.21,-58.44 428.34,-65.53 438.92,-64.89 436.21,-58.44"/>
</a>
</g>
</g>
<!-- Node8 -->
<g id="Node000008" class="node">
<title>Node8</title>
<g id="a_Node000008"><a xlink:href="_spike_event_series_8cpp.html" target="_top" xlink:title=" ">
<polygon fill="white" stroke="#666666" points="445.75,-30.5 302.25,-30.5 302.25,0 445.75,0 445.75,-30.5"/>
<text xml:space="preserve" text-anchor="start" x="310.25" y="-17" font-family="Helvetica,sans-Serif" font-size="10.00">src/nwb/ecephys/SpikeEvent</text>
<text xml:space="preserve" text-anchor="middle" x="374" y="-5.75" font-family="Helvetica,sans-Serif" font-size="10.00">Series.cpp</text>
</a>
</g>
</g>
<!-- Node7&#45;&gt;Node8 -->
<g id="edge11_Node000007_Node000008" class="edge">
<title>Node7&#45;&gt;Node8</title>
<g id="a_edge11_Node000007_Node000008"><a xlink:title=" ">
<path fill="none" stroke="#63b8ff" d="M384.84,-55.09C382.54,-46.84 380.07,-37.99 378.07,-30.83"/>
<polygon fill="#63b8ff" stroke="#63b8ff" points="381.45,-55.96 387.51,-64.66 388.19,-54.08 381.45,-55.96"/>
</a>
</g>
</g>
</g>
</svg>
