<?xml version="1.0" encoding="UTF-8" standalone="no"?>
<!DOCTYPE svg PUBLIC "-//W3C//DTD SVG 1.1//EN"
 "http://www.w3.org/Graphics/SVG/1.1/DTD/svg11.dtd">
<!-- Generated by graphviz version 12.2.1 (20241206.2353)
 -->
<!-- Title: src/nwb/file/ElectrodeGroup.cpp Pages: 1 -->
<!--zoomable 536 -->

<svg id="main" version="1.1" xmlns="http://www.w3.org/2000/svg" xmlns:xlink="http://www.w3.org/1999/xlink" xml:space="preserve" onload="init(evt)">

<style type="text/css"><![CDATA[
.node, .edge {opacity: 0.7;}
.node.selected, .edge.selected {opacity: 1;}
.edge:hover path { stroke: red; }
.edge:hover polygon { stroke: red; fill: red; }
]]></style>

<defs>
  <circle id="rim" cx="0" cy="0" r="7"/>
  <circle id="rim2" cx="0" cy="0" r="3.5"/>
  <g id="zoomPlus">
    <use xlink:href="#rim" fill="#404040"><set attributeName="fill" to="#808080" begin="zoomplus.mouseover" end="zoomplus.mouseout"/></use>
    <path d="M-4,0h8M0,-4v8" fill="none" stroke="white" stroke-width="1.5" pointer-events="none"/>
  </g>
  <g id="zoomMin">
    <use xlink:href="#rim" fill="#404040"><set attributeName="fill" to="#808080" begin="zoomminus.mouseover" end="zoomminus.mouseout"/></use>
    <path d="M-4,0h8" fill="none" stroke="white" stroke-width="1.5" pointer-events="none"/>
  </g>
  <g id="arrowUp" transform="translate(30 24)">
    <use xlink:href="#rim"/>
    <path pointer-events="none" fill="none" stroke="white" stroke-width="1.5" d="M0,-3.0v7 M-2.5,-0.5L0,-3.0L2.5,-0.5"/>
  </g>
  <g id="arrowRight" transform="rotate(90) translate(36 -43)">
    <use xlink:href="#rim"/>
    <path pointer-events="none" fill="none" stroke="white" stroke-width="1.5" d="M0,-3.0v7 M-2.5,-0.5L0,-3.0L2.5,-0.5"/>
  </g>
  <g id="arrowDown" transform="rotate(180) translate(-30 -48)">
    <use xlink:href="#rim"/>
    <path pointer-events="none" fill="none" stroke="white" stroke-width="1.5" d="M0,-3.0v7 M-2.5,-0.5L0,-3.0L2.5,-0.5"/>
  </g>
  <g id="arrowLeft" transform="rotate(270) translate(-36 17)">
    <use xlink:href="#rim"/>
    <path pointer-events="none" fill="none" stroke="white" stroke-width="1.5" d="M0,-3.0v7 M-2.5,-0.5L0,-3.0L2.5,-0.5"/>
  </g>
  <g id="resetDef">
    <use xlink:href="#rim2" fill="#404040"><set attributeName="fill" to="#808080" begin="reset.mouseover" end="reset.mouseout"/></use>
  </g>
</defs>
<script type="application/ecmascript">
var viewWidth = 2151;
var viewHeight = 536;
var sectionId = 'dynsection-0';
</script>
<script type="application/ecmascript" xlink:href="svg.min.js"/>
<svg id="graph" class="graph">
<g id="viewport">
<title>src/nwb/file/ElectrodeGroup.cpp</title>
<!-- Node1 -->
<g id="Node000001" class="node">
<title>Node1</title>
<g id="a_Node000001"><a xlink:title=" ">
<polygon fill="#999999" stroke="#666666" points="1398.5,-527.75 1243,-527.75 1243,-508.5 1398.5,-508.5 1398.5,-527.75"/>
<text text-anchor="middle" x="1320.75" y="-514.25" font-family="Helvetica,sans-Serif" font-size="10.00">src/nwb/file/ElectrodeGroup.cpp</text>
</a>
</g>
</g>
<!-- Node2 -->
<g id="Node000002" class="node">
<title>Node2</title>
<g id="a_Node000002"><a xlink:href="_electrode_group_8hpp.html" target="_top" xlink:title=" ">
<polygon fill="white" stroke="#666666" points="606.25,-472.5 467.25,-472.5 467.25,-453.25 606.25,-453.25 606.25,-472.5"/>
<text text-anchor="middle" x="536.75" y="-459" font-family="Helvetica,sans-Serif" font-size="10.00">nwb/file/ElectrodeGroup.hpp</text>
</a>
</g>
</g>
<!-- Node1&#45;&gt;Node2 -->
<g id="edge1_Node000001_Node000002" class="edge">
<title>Node1&#45;&gt;Node2</title>
<g id="a_edge1_Node000001_Node000002"><a xlink:title=" ">
<path fill="none" stroke="#63b8ff" d="M1242.71,-511.82C1093.46,-501.69 768.96,-479.65 617.56,-469.36"/>
<polygon fill="#63b8ff" stroke="#63b8ff" points="618.25,-465.9 608.04,-468.72 617.78,-472.89 618.25,-465.9"/>
</a>
</g>
</g>
<!-- Node16 -->
<g id="Node000016" class="node">
<title>Node16</title>
<g id="a_Node000016"><a xlink:href="_utils_8hpp.html" target="_top" xlink:title=" ">
<polygon fill="white" stroke="#666666" points="1072.25,-251.5 1017.25,-251.5 1017.25,-232.25 1072.25,-232.25 1072.25,-251.5"/>
<text text-anchor="middle" x="1044.75" y="-238" font-family="Helvetica,sans-Serif" font-size="10.00">Utils.hpp</text>
</a>
</g>
</g>
<!-- Node1&#45;&gt;Node16 -->
<g id="edge68_Node000001_Node000016" class="edge">
<title>Node1&#45;&gt;Node16</title>
<g id="a_edge68_Node000001_Node000016"><a xlink:title=" ">
<path fill="none" stroke="#63b8ff" d="M1311.57,-508C1271.78,-468.46 1113.92,-311.61 1061.66,-259.67"/>
<polygon fill="#63b8ff" stroke="#63b8ff" points="1064.32,-257.39 1054.76,-252.82 1059.39,-262.35 1064.32,-257.39"/>
</a>
</g>
</g>
<!-- Node3 -->
<g id="Node000003" class="node">
<title>Node3</title>
<g id="a_Node000003"><a xlink:title=" ">
<polygon fill="#e0e0e0" stroke="#999999" points="1447.75,-74.5 1407.75,-74.5 1407.75,-55.25 1447.75,-55.25 1447.75,-74.5"/>
<text text-anchor="middle" x="1427.75" y="-61" font-family="Helvetica,sans-Serif" font-size="10.00">string</text>
</a>
</g>
</g>
<!-- Node2&#45;&gt;Node3 -->
<g id="edge2_Node000002_Node000003" class="edge">
<title>Node2&#45;&gt;Node3</title>
<g id="a_edge2_Node000002_Node000003"><a xlink:title=" ">
<path fill="none" stroke="#63b8ff" d="M606.53,-462.2C915.21,-462.72 2142.75,-454.94 2142.75,-298.12 2142.75,-298.12 2142.75,-298.12 2142.75,-180 2142.75,-120.28 2084.64,-128.66 2027.75,-110.5 1920.32,-76.21 1567.25,-68.02 1459.35,-66.29"/>
<polygon fill="#63b8ff" stroke="#63b8ff" points="1459.56,-62.8 1449.51,-66.14 1459.46,-69.79 1459.56,-62.8"/>
</a>
</g>
</g>
<!-- Node4 -->
<g id="Node000004" class="node">
<title>Node4</title>
<g id="a_Node000004"><a xlink:href="_base_i_o_8hpp.html" target="_top" xlink:title=" ">
<polygon fill="white" stroke="#666666" points="406.88,-129.75 328.62,-129.75 328.62,-110.5 406.88,-110.5 406.88,-129.75"/>
<text text-anchor="middle" x="367.75" y="-116.25" font-family="Helvetica,sans-Serif" font-size="10.00">io/BaseIO.hpp</text>
</a>
</g>
</g>
<!-- Node2&#45;&gt;Node4 -->
<g id="edge3_Node000002_Node000004" class="edge">
<title>Node2&#45;&gt;Node4</title>
<g id="a_edge3_Node000002_Node000004"><a xlink:title=" ">
<path fill="none" stroke="#63b8ff" d="M534.67,-453.02C531.61,-440.53 525.41,-417.11 517.75,-398 474.59,-290.35 458.41,-265.21 398.75,-165.75 393.36,-156.76 386.81,-147.17 381.12,-139.19"/>
<polygon fill="#63b8ff" stroke="#63b8ff" points="384.13,-137.38 375.42,-131.34 378.46,-141.49 384.13,-137.38"/>
</a>
</g>
</g>
<!-- Node15 -->
<g id="Node000015" class="node">
<title>Node15</title>
<g id="a_Node000015"><a xlink:href="_device_8hpp.html" target="_top" xlink:title=" ">
<polygon fill="white" stroke="#666666" points="508.75,-417.25 390.75,-417.25 390.75,-398 508.75,-398 508.75,-417.25"/>
<text text-anchor="middle" x="449.75" y="-403.75" font-family="Helvetica,sans-Serif" font-size="10.00">nwb/device/Device.hpp</text>
</a>
</g>
</g>
<!-- Node2&#45;&gt;Node15 -->
<g id="edge16_Node000002_Node000015" class="edge">
<title>Node2&#45;&gt;Node15</title>
<g id="a_edge16_Node000002_Node000015"><a xlink:title=" ">
<path fill="none" stroke="#63b8ff" d="M521.99,-452.84C508.87,-444.81 489.43,-432.91 474.02,-423.48"/>
<polygon fill="#63b8ff" stroke="#63b8ff" points="476.23,-420.73 465.87,-418.49 472.57,-426.7 476.23,-420.73"/>
</a>
</g>
</g>
<!-- Node34 -->
<g id="Node000034" class="node">
<title>Node34</title>
<g id="a_Node000034"><a xlink:href="_container_8hpp.html" target="_top" xlink:title=" ">
<polygon fill="white" stroke="#666666" points="320.62,-362 174.88,-362 174.88,-342.75 320.62,-342.75 320.62,-362"/>
<text text-anchor="middle" x="247.75" y="-348.5" font-family="Helvetica,sans-Serif" font-size="10.00">nwb/hdmf/base/Container.hpp</text>
</a>
</g>
</g>
<!-- Node2&#45;&gt;Node34 -->
<g id="edge67_Node000002_Node000034" class="edge">
<title>Node2&#45;&gt;Node34</title>
<g id="a_edge67_Node000002_Node000034"><a xlink:title=" ">
<path fill="none" stroke="#63b8ff" d="M498.6,-452.76C466.87,-444.74 420.76,-432.05 381.75,-417.25 343.42,-402.71 300.98,-381.57 274.34,-367.66"/>
<polygon fill="#63b8ff" stroke="#63b8ff" points="276.1,-364.63 265.62,-363.06 272.84,-370.82 276.1,-364.63"/>
</a>
</g>
</g>
<!-- Node4&#45;&gt;Node3 -->
<g id="edge8_Node000004_Node000003" class="edge">
<title>Node4&#45;&gt;Node3</title>
<g id="a_edge8_Node000004_Node000003"><a xlink:title=" ">
<path fill="none" stroke="#63b8ff" d="M407.12,-114.78C422.03,-113.25 439.16,-111.63 454.75,-110.5 824.49,-83.71 1274.49,-70.08 1396.17,-66.71"/>
<polygon fill="#63b8ff" stroke="#63b8ff" points="1396.11,-70.22 1406.01,-66.45 1395.92,-63.22 1396.11,-70.22"/>
</a>
</g>
</g>
<!-- Node5 -->
<g id="Node000005" class="node">
<title>Node5</title>
<g id="a_Node000005"><a xlink:title=" ">
<polygon fill="#e0e0e0" stroke="#999999" points="413.62,-74.5 381.88,-74.5 381.88,-55.25 413.62,-55.25 413.62,-74.5"/>
<text text-anchor="middle" x="397.75" y="-61" font-family="Helvetica,sans-Serif" font-size="10.00">any</text>
</a>
</g>
</g>
<!-- Node4&#45;&gt;Node5 -->
<g id="edge4_Node000004_Node000005" class="edge">
<title>Node4&#45;&gt;Node5</title>
<g id="a_edge4_Node000004_Node000005"><a xlink:title=" ">
<path fill="none" stroke="#63b8ff" d="M372.7,-110.33C376.63,-103.36 382.26,-93.37 387.19,-84.62"/>
<polygon fill="#63b8ff" stroke="#63b8ff" points="390.09,-86.61 391.95,-76.18 383.99,-83.17 390.09,-86.61"/>
</a>
</g>
</g>
<!-- Node6 -->
<g id="Node000006" class="node">
<title>Node6</title>
<g id="a_Node000006"><a xlink:title=" ">
<polygon fill="#e0e0e0" stroke="#999999" points="674.38,-74.5 629.12,-74.5 629.12,-55.25 674.38,-55.25 674.38,-74.5"/>
<text text-anchor="middle" x="651.75" y="-61" font-family="Helvetica,sans-Serif" font-size="10.00">cstdint</text>
</a>
</g>
</g>
<!-- Node4&#45;&gt;Node6 -->
<g id="edge5_Node000004_Node000006" class="edge">
<title>Node4&#45;&gt;Node6</title>
<g id="a_edge5_Node000004_Node000006"><a xlink:title=" ">
<path fill="none" stroke="#63b8ff" d="M406.99,-113.41C454.69,-106.2 537.82,-92.79 617.56,-75.06"/>
<polygon fill="#63b8ff" stroke="#63b8ff" points="618.33,-78.48 627.31,-72.86 616.79,-71.65 618.33,-78.48"/>
</a>
</g>
</g>
<!-- Node7 -->
<g id="Node000007" class="node">
<title>Node7</title>
<g id="a_Node000007"><a xlink:title=" ">
<polygon fill="#e0e0e0" stroke="#999999" points="611.5,-74.5 558,-74.5 558,-55.25 611.5,-55.25 611.5,-74.5"/>
<text text-anchor="middle" x="584.75" y="-61" font-family="Helvetica,sans-Serif" font-size="10.00">iostream</text>
</a>
</g>
</g>
<!-- Node4&#45;&gt;Node7 -->
<g id="edge6_Node000004_Node000007" class="edge">
<title>Node4&#45;&gt;Node7</title>
<g id="a_edge6_Node000004_Node000007"><a xlink:title=" ">
<path fill="none" stroke="#63b8ff" d="M404.56,-110.09C444.07,-100.4 506.54,-85.07 546.57,-75.24"/>
<polygon fill="#63b8ff" stroke="#63b8ff" points="547.38,-78.65 556.25,-72.87 545.71,-71.85 547.38,-78.65"/>
</a>
</g>
</g>
<!-- Node8 -->
<g id="Node000008" class="node">
<title>Node8</title>
<g id="a_Node000008"><a xlink:title=" ">
<polygon fill="#e0e0e0" stroke="#999999" points="146.38,-74.5 95.12,-74.5 95.12,-55.25 146.38,-55.25 146.38,-74.5"/>
<text text-anchor="middle" x="120.75" y="-61" font-family="Helvetica,sans-Serif" font-size="10.00">memory</text>
</a>
</g>
</g>
<!-- Node4&#45;&gt;Node8 -->
<g id="edge7_Node000004_Node000008" class="edge">
<title>Node4&#45;&gt;Node8</title>
<g id="a_edge7_Node000004_Node000008"><a xlink:title=" ">
<path fill="none" stroke="#63b8ff" d="M328.2,-111.22C287.8,-103.05 222.99,-89.7 157.64,-74.87"/>
<polygon fill="#63b8ff" stroke="#63b8ff" points="158.72,-71.53 148.2,-72.72 157.17,-78.35 158.72,-71.53"/>
</a>
</g>
</g>
<!-- Node9 -->
<g id="Node000009" class="node">
<title>Node9</title>
<g id="a_Node000009"><a xlink:title=" ">
<polygon fill="#e0e0e0" stroke="#999999" points="247.12,-74.5 164.38,-74.5 164.38,-55.25 247.12,-55.25 247.12,-74.5"/>
<text text-anchor="middle" x="205.75" y="-61" font-family="Helvetica,sans-Serif" font-size="10.00">unordered_map</text>
</a>
</g>
</g>
<!-- Node4&#45;&gt;Node9 -->
<g id="edge9_Node000004_Node000009" class="edge">
<title>Node4&#45;&gt;Node9</title>
<g id="a_edge9_Node000004_Node000009"><a xlink:title=" ">
<path fill="none" stroke="#63b8ff" d="M340.27,-110.09C313.85,-101.41 273.69,-88.21 244.13,-78.49"/>
<polygon fill="#63b8ff" stroke="#63b8ff" points="245.4,-75.22 234.8,-75.43 243.21,-81.87 245.4,-75.22"/>
</a>
</g>
</g>
<!-- Node10 -->
<g id="Node000010" class="node">
<title>Node10</title>
<g id="a_Node000010"><a xlink:title=" ">
<polygon fill="#e0e0e0" stroke="#999999" points="77.5,-74.5 0,-74.5 0,-55.25 77.5,-55.25 77.5,-74.5"/>
<text text-anchor="middle" x="38.75" y="-61" font-family="Helvetica,sans-Serif" font-size="10.00">unordered_set</text>
</a>
</g>
</g>
<!-- Node4&#45;&gt;Node10 -->
<g id="edge10_Node000004_Node000010" class="edge">
<title>Node4&#45;&gt;Node10</title>
<g id="a_edge10_Node000004_Node000010"><a xlink:title=" ">
<path fill="none" stroke="#63b8ff" d="M328.47,-113.22C276.06,-105.27 180.1,-90.49 89.05,-75.04"/>
<polygon fill="#63b8ff" stroke="#63b8ff" points="89.91,-71.63 79.47,-73.4 88.74,-78.53 89.91,-71.63"/>
</a>
</g>
</g>
<!-- Node11 -->
<g id="Node000011" class="node">
<title>Node11</title>
<g id="a_Node000011"><a xlink:title=" ">
<polygon fill="#e0e0e0" stroke="#999999" points="387.25,-19.25 344.25,-19.25 344.25,0 387.25,0 387.25,-19.25"/>
<text text-anchor="middle" x="365.75" y="-5.75" font-family="Helvetica,sans-Serif" font-size="10.00">vector</text>
</a>
</g>
</g>
<!-- Node4&#45;&gt;Node11 -->
<g id="edge11_Node000004_Node000011" class="edge">
<title>Node4&#45;&gt;Node11</title>
<g id="a_edge11_Node000004_Node000011"><a xlink:title=" ">
<path fill="none" stroke="#63b8ff" d="M339.71,-110.15C323.15,-103.24 303.56,-91.87 293.75,-74.5 281.3,-52.45 308.83,-34.12 333.36,-22.83"/>
<polygon fill="#63b8ff" stroke="#63b8ff" points="334.72,-26.06 342.53,-18.89 331.96,-19.62 334.72,-26.06"/>
</a>
</g>
</g>
<!-- Node12 -->
<g id="Node000012" class="node">
<title>Node12</title>
<g id="a_Node000012"><a xlink:title=" ">
<polygon fill="#e0e0e0" stroke="#999999" points="539.88,-74.5 431.62,-74.5 431.62,-55.25 539.88,-55.25 539.88,-74.5"/>
<text text-anchor="middle" x="485.75" y="-61" font-family="Helvetica,sans-Serif" font-size="10.00">boost/multi_array.hpp</text>
</a>
</g>
</g>
<!-- Node4&#45;&gt;Node12 -->
<g id="edge12_Node000004_Node000012" class="edge">
<title>Node4&#45;&gt;Node12</title>
<g id="a_edge12_Node000004_Node000012"><a xlink:title=" ">
<path fill="none" stroke="#63b8ff" d="M387.77,-110.09C406.24,-101.75 433.96,-89.25 455.2,-79.66"/>
<polygon fill="#63b8ff" stroke="#63b8ff" points="456.58,-82.88 464.26,-75.58 453.7,-76.5 456.58,-82.88"/>
</a>
</g>
</g>
<!-- Node13 -->
<g id="Node000013" class="node">
<title>Node13</title>
<g id="a_Node000013"><a xlink:href="_types_8hpp.html" target="_top" xlink:title=" ">
<polygon fill="white" stroke="#666666" points="364.25,-74.5 303.25,-74.5 303.25,-55.25 364.25,-55.25 364.25,-74.5"/>
<text text-anchor="middle" x="333.75" y="-61" font-family="Helvetica,sans-Serif" font-size="10.00">Types.hpp</text>
</a>
</g>
</g>
<!-- Node4&#45;&gt;Node13 -->
<g id="edge13_Node000004_Node000013" class="edge">
<title>Node4&#45;&gt;Node13</title>
<g id="a_edge13_Node000004_Node000013"><a xlink:title=" ">
<path fill="none" stroke="#63b8ff" d="M362.14,-110.33C357.63,-103.28 351.16,-93.15 345.54,-84.33"/>
<polygon fill="#63b8ff" stroke="#63b8ff" points="348.63,-82.68 340.3,-76.13 342.73,-86.45 348.63,-82.68"/>
</a>
</g>
</g>
<!-- Node13&#45;&gt;Node11 -->
<g id="edge15_Node000013_Node000011" class="edge">
<title>Node13&#45;&gt;Node11</title>
<g id="a_edge15_Node000013_Node000011"><a xlink:title=" ">
<path fill="none" stroke="#63b8ff" d="M339.03,-55.08C343.22,-48.11 349.23,-38.12 354.48,-29.37"/>
<polygon fill="#63b8ff" stroke="#63b8ff" points="357.42,-31.28 359.57,-20.91 351.42,-27.68 357.42,-31.28"/>
</a>
</g>
</g>
<!-- Node14 -->
<g id="Node000014" class="node">
<title>Node14</title>
<g id="a_Node000014"><a xlink:title=" ">
<polygon fill="#e0e0e0" stroke="#999999" points="325.88,-19.25 277.62,-19.25 277.62,0 325.88,0 325.88,-19.25"/>
<text text-anchor="middle" x="301.75" y="-5.75" font-family="Helvetica,sans-Serif" font-size="10.00">cstddef</text>
</a>
</g>
</g>
<!-- Node13&#45;&gt;Node14 -->
<g id="edge14_Node000013_Node000014" class="edge">
<title>Node13&#45;&gt;Node14</title>
<g id="a_edge14_Node000013_Node000014"><a xlink:title=" ">
<path fill="none" stroke="#63b8ff" d="M328.47,-55.08C324.28,-48.11 318.27,-38.12 313.02,-29.37"/>
<polygon fill="#63b8ff" stroke="#63b8ff" points="316.08,-27.68 307.93,-20.91 310.08,-31.28 316.08,-27.68"/>
</a>
</g>
</g>
<!-- Node15&#45;&gt;Node3 -->
<g id="edge17_Node000015_Node000003" class="edge">
<title>Node15&#45;&gt;Node3</title>
<g id="a_edge17_Node000015_Node000003"><a xlink:title=" ">
<path fill="none" stroke="#63b8ff" d="M509.14,-407.11C804.91,-408.75 2104.75,-406.64 2104.75,-242.88 2104.75,-242.88 2104.75,-242.88 2104.75,-180 2104.75,-168.98 2138.5,-158.36 1986.75,-110.5 1887.27,-79.12 1562.65,-69.01 1459.51,-66.54"/>
<polygon fill="#63b8ff" stroke="#63b8ff" points="1459.65,-63.05 1449.57,-66.32 1459.49,-70.04 1459.65,-63.05"/>
</a>
</g>
</g>
<!-- Node15&#45;&gt;Node4 -->
<g id="edge52_Node000015_Node000004" class="edge">
<title>Node15&#45;&gt;Node4</title>
<g id="a_edge52_Node000015_Node000004"><a xlink:title=" ">
<path fill="none" stroke="#63b8ff" d="M447.21,-397.77C435.87,-358.3 389.82,-197.95 373.51,-141.17"/>
<polygon fill="#63b8ff" stroke="#63b8ff" points="376.89,-140.26 370.76,-131.62 370.16,-142.19 376.89,-140.26"/>
</a>
</g>
</g>
<!-- Node15&#45;&gt;Node16 -->
<g id="edge18_Node000015_Node000016" class="edge">
<title>Node15&#45;&gt;Node16</title>
<g id="a_edge18_Node000015_Node000016"><a xlink:title=" ">
<path fill="none" stroke="#63b8ff" d="M482.59,-397.59C584.71,-369.48 896.4,-283.7 1006.08,-253.52"/>
<polygon fill="#63b8ff" stroke="#63b8ff" points="1006.77,-256.96 1015.49,-250.93 1004.92,-250.21 1006.77,-256.96"/>
</a>
</g>
</g>
<!-- Node32 -->
<g id="Node000032" class="node">
<title>Node32</title>
<g id="a_Node000032"><a xlink:href="_read_i_o_8hpp.html" target="_top" xlink:title=" ">
<polygon fill="white" stroke="#666666" points="542.25,-129.75 463.25,-129.75 463.25,-110.5 542.25,-110.5 542.25,-129.75"/>
<text text-anchor="middle" x="502.75" y="-116.25" font-family="Helvetica,sans-Serif" font-size="10.00">io/ReadIO.hpp</text>
</a>
</g>
</g>
<!-- Node15&#45;&gt;Node32 -->
<g id="edge53_Node000015_Node000032" class="edge">
<title>Node15&#45;&gt;Node32</title>
<g id="a_edge53_Node000015_Node000032"><a xlink:title=" ">
<path fill="none" stroke="#63b8ff" d="M451.39,-397.77C458.72,-358.3 488.49,-197.95 499.03,-141.17"/>
<polygon fill="#63b8ff" stroke="#63b8ff" points="502.41,-142.12 500.8,-131.65 495.53,-140.84 502.41,-142.12"/>
</a>
</g>
</g>
<!-- Node15&#45;&gt;Node34 -->
<g id="edge54_Node000015_Node000034" class="edge">
<title>Node15&#45;&gt;Node34</title>
<g id="a_edge54_Node000015_Node000034"><a xlink:title=" ">
<path fill="none" stroke="#63b8ff" d="M415.48,-397.59C381.82,-388.72 330.26,-375.12 293.19,-365.35"/>
<polygon fill="#63b8ff" stroke="#63b8ff" points="294.21,-362 283.65,-362.84 292.43,-368.77 294.21,-362"/>
</a>
</g>
</g>
<!-- Node16&#45;&gt;Node3 -->
<g id="edge27_Node000016_Node000003" class="edge">
<title>Node16&#45;&gt;Node3</title>
<g id="a_edge27_Node000016_Node000003"><a xlink:title=" ">
<path fill="none" stroke="#63b8ff" d="M1072.56,-240.66C1227.32,-239.32 1976.52,-231.05 2009.75,-196.25 2089.23,-113.01 1591.78,-76.02 1459.47,-67.73"/>
<polygon fill="#63b8ff" stroke="#63b8ff" points="1459.88,-64.25 1449.68,-67.13 1459.45,-71.24 1459.88,-64.25"/>
</a>
</g>
</g>
<!-- Node16&#45;&gt;Node4 -->
<g id="edge34_Node000016_Node000004" class="edge">
<title>Node16&#45;&gt;Node4</title>
<g id="a_edge34_Node000016_Node000004"><a xlink:title=" ">
<path fill="none" stroke="#63b8ff" d="M1016.83,-239.9C922.04,-236.39 613.1,-223.09 517.75,-196.25 469.81,-182.75 418.99,-153.77 390.52,-136.01"/>
<polygon fill="#63b8ff" stroke="#63b8ff" points="392.69,-133.24 382.37,-130.83 388.94,-139.15 392.69,-133.24"/>
</a>
</g>
</g>
<!-- Node16&#45;&gt;Node6 -->
<g id="edge22_Node000016_Node000006" class="edge">
<title>Node16&#45;&gt;Node6</title>
<g id="a_edge22_Node000016_Node000006"><a xlink:title=" ">
<path fill="none" stroke="#63b8ff" d="M1016.77,-240.46C946.36,-238.89 764.07,-231.45 716.75,-196.25 683.16,-171.26 696.98,-147.69 677.75,-110.5 673.28,-101.85 667.92,-92.5 663.23,-84.61"/>
<polygon fill="#63b8ff" stroke="#63b8ff" points="666.35,-83 658.18,-76.25 660.35,-86.62 666.35,-83"/>
</a>
</g>
</g>
<!-- Node17 -->
<g id="Node000017" class="node">
<title>Node17</title>
<g id="a_Node000017"><a xlink:title=" ">
<polygon fill="#e0e0e0" stroke="#999999" points="1936.62,-190.62 1880.88,-190.62 1880.88,-171.38 1936.62,-171.38 1936.62,-190.62"/>
<text text-anchor="middle" x="1908.75" y="-177.12" font-family="Helvetica,sans-Serif" font-size="10.00">algorithm</text>
</a>
</g>
</g>
<!-- Node16&#45;&gt;Node17 -->
<g id="edge19_Node000016_Node000017" class="edge">
<title>Node16&#45;&gt;Node17</title>
<g id="a_edge19_Node000016_Node000017"><a xlink:title=" ">
<path fill="none" stroke="#63b8ff" d="M1072.48,-240.54C1198.06,-238.86 1714.1,-229.98 1871.75,-196.25 1873.78,-195.82 1875.85,-195.28 1877.92,-194.69"/>
<polygon fill="#63b8ff" stroke="#63b8ff" points="1878.96,-198.03 1887.31,-191.5 1876.72,-191.4 1878.96,-198.03"/>
</a>
</g>
</g>
<!-- Node18 -->
<g id="Node000018" class="node">
<title>Node18</title>
<g id="a_Node000018"><a xlink:title=" ">
<polygon fill="#e0e0e0" stroke="#999999" points="2000.38,-190.62 1955.12,-190.62 1955.12,-171.38 2000.38,-171.38 2000.38,-190.62"/>
<text text-anchor="middle" x="1977.75" y="-177.12" font-family="Helvetica,sans-Serif" font-size="10.00">chrono</text>
</a>
</g>
</g>
<!-- Node16&#45;&gt;Node18 -->
<g id="edge20_Node000016_Node000018" class="edge">
<title>Node16&#45;&gt;Node18</title>
<g id="a_edge20_Node000016_Node000018"><a xlink:title=" ">
<path fill="none" stroke="#63b8ff" d="M1072.32,-240.87C1204.46,-240.65 1773.8,-237.28 1945.75,-196.25 1947.15,-195.92 1948.56,-195.52 1949.97,-195.08"/>
<polygon fill="#63b8ff" stroke="#63b8ff" points="1951.04,-198.42 1959.14,-191.59 1948.55,-191.88 1951.04,-198.42"/>
</a>
</g>
</g>
<!-- Node19 -->
<g id="Node000019" class="node">
<title>Node19</title>
<g id="a_Node000019"><a xlink:title=" ">
<polygon fill="#e0e0e0" stroke="#999999" points="768.25,-190.62 725.25,-190.62 725.25,-171.38 768.25,-171.38 768.25,-190.62"/>
<text text-anchor="middle" x="746.75" y="-177.12" font-family="Helvetica,sans-Serif" font-size="10.00">cmath</text>
</a>
</g>
</g>
<!-- Node16&#45;&gt;Node19 -->
<g id="edge21_Node000016_Node000019" class="edge">
<title>Node16&#45;&gt;Node19</title>
<g id="a_edge21_Node000016_Node000019"><a xlink:title=" ">
<path fill="none" stroke="#63b8ff" d="M1016.9,-238.67C967.72,-234.23 862.65,-222.35 777.75,-196.25 776.78,-195.95 775.81,-195.63 774.83,-195.29"/>
<polygon fill="#63b8ff" stroke="#63b8ff" points="776.45,-192.17 765.87,-191.68 773.84,-198.67 776.45,-192.17"/>
</a>
</g>
</g>
<!-- Node20 -->
<g id="Node000020" class="node">
<title>Node20</title>
<g id="a_Node000020"><a xlink:title=" ">
<polygon fill="#e0e0e0" stroke="#999999" points="826.75,-190.62 786.75,-190.62 786.75,-171.38 826.75,-171.38 826.75,-190.62"/>
<text text-anchor="middle" x="806.75" y="-177.12" font-family="Helvetica,sans-Serif" font-size="10.00">ctime</text>
</a>
</g>
</g>
<!-- Node16&#45;&gt;Node20 -->
<g id="edge23_Node000016_Node000020" class="edge">
<title>Node16&#45;&gt;Node20</title>
<g id="a_edge23_Node000016_Node000020"><a xlink:title=" ">
<path fill="none" stroke="#63b8ff" d="M1016.77,-237.14C976.11,-231.22 898.68,-218.05 835.75,-196.25 835.1,-196.03 834.45,-195.79 833.8,-195.55"/>
<polygon fill="#63b8ff" stroke="#63b8ff" points="835.27,-192.37 824.71,-191.61 832.49,-198.8 835.27,-192.37"/>
</a>
</g>
</g>
<!-- Node21 -->
<g id="Node000021" class="node">
<title>Node21</title>
<g id="a_Node000021"><a xlink:title=" ">
<polygon fill="#e0e0e0" stroke="#999999" points="894.62,-190.62 844.88,-190.62 844.88,-171.38 894.62,-171.38 894.62,-190.62"/>
<text text-anchor="middle" x="869.75" y="-177.12" font-family="Helvetica,sans-Serif" font-size="10.00">iomanip</text>
</a>
</g>
</g>
<!-- Node16&#45;&gt;Node21 -->
<g id="edge24_Node000016_Node000021" class="edge">
<title>Node16&#45;&gt;Node21</title>
<g id="a_edge24_Node000016_Node000021"><a xlink:title=" ">
<path fill="none" stroke="#63b8ff" d="M1016.94,-232.88C988.32,-224.47 942.56,-210.49 903.75,-196.25 902.8,-195.9 901.85,-195.54 900.88,-195.18"/>
<polygon fill="#63b8ff" stroke="#63b8ff" points="902.48,-192.05 891.9,-191.6 899.89,-198.55 902.48,-192.05"/>
</a>
</g>
</g>
<!-- Node22 -->
<g id="Node000022" class="node">
<title>Node22</title>
<g id="a_Node000022"><a xlink:title=" ">
<polygon fill="#e0e0e0" stroke="#999999" points="952.75,-190.62 912.75,-190.62 912.75,-171.38 952.75,-171.38 952.75,-190.62"/>
<text text-anchor="middle" x="932.75" y="-177.12" font-family="Helvetica,sans-Serif" font-size="10.00">regex</text>
</a>
</g>
</g>
<!-- Node16&#45;&gt;Node22 -->
<g id="edge25_Node000016_Node000022" class="edge">
<title>Node16&#45;&gt;Node22</title>
<g id="a_edge25_Node000016_Node000022"><a xlink:title=" ">
<path fill="none" stroke="#63b8ff" d="M1027.74,-231.93C1009.73,-222.47 981.04,-207.39 959.9,-196.27"/>
<polygon fill="#63b8ff" stroke="#63b8ff" points="961.74,-193.29 951.26,-191.73 958.48,-199.48 961.74,-193.29"/>
</a>
</g>
</g>
<!-- Node23 -->
<g id="Node000023" class="node">
<title>Node23</title>
<g id="a_Node000023"><a xlink:title=" ">
<polygon fill="#e0e0e0" stroke="#999999" points="1022.38,-190.62 971.12,-190.62 971.12,-171.38 1022.38,-171.38 1022.38,-190.62"/>
<text text-anchor="middle" x="996.75" y="-177.12" font-family="Helvetica,sans-Serif" font-size="10.00">sstream</text>
</a>
</g>
</g>
<!-- Node16&#45;&gt;Node23 -->
<g id="edge26_Node000016_Node000023" class="edge">
<title>Node16&#45;&gt;Node23</title>
<g id="a_edge26_Node000016_Node000023"><a xlink:title=" ">
<path fill="none" stroke="#63b8ff" d="M1037.46,-231.93C1030.55,-223.46 1019.98,-210.49 1011.34,-199.89"/>
<polygon fill="#63b8ff" stroke="#63b8ff" points="1014.1,-197.74 1005.07,-192.2 1008.67,-202.16 1014.1,-197.74"/>
</a>
</g>
</g>
<!-- Node24 -->
<g id="Node000024" class="node">
<title>Node24</title>
<g id="a_Node000024"><a xlink:title=" ">
<polygon fill="#e0e0e0" stroke="#999999" points="1145,-190.62 1040.5,-190.62 1040.5,-171.38 1145,-171.38 1145,-190.62"/>
<text text-anchor="middle" x="1092.75" y="-177.12" font-family="Helvetica,sans-Serif" font-size="10.00">boost/date_time.hpp</text>
</a>
</g>
</g>
<!-- Node16&#45;&gt;Node24 -->
<g id="edge28_Node000016_Node000024" class="edge">
<title>Node16&#45;&gt;Node24</title>
<g id="a_edge28_Node000016_Node000024"><a xlink:title=" ">
<path fill="none" stroke="#63b8ff" d="M1052.04,-231.93C1058.95,-223.46 1069.52,-210.49 1078.16,-199.89"/>
<polygon fill="#63b8ff" stroke="#63b8ff" points="1080.83,-202.16 1084.43,-192.2 1075.4,-197.74 1080.83,-202.16"/>
</a>
</g>
</g>
<!-- Node25 -->
<g id="Node000025" class="node">
<title>Node25</title>
<g id="a_Node000025"><a xlink:title=" ">
<polygon fill="#e0e0e0" stroke="#999999" points="1304,-190.62 1163.5,-190.62 1163.5,-171.38 1304,-171.38 1304,-190.62"/>
<text text-anchor="middle" x="1233.75" y="-177.12" font-family="Helvetica,sans-Serif" font-size="10.00">boost/endian/conversion.hpp</text>
</a>
</g>
</g>
<!-- Node16&#45;&gt;Node25 -->
<g id="edge29_Node000016_Node000025" class="edge">
<title>Node16&#45;&gt;Node25</title>
<g id="a_edge29_Node000016_Node000025"><a xlink:title=" ">
<path fill="none" stroke="#63b8ff" d="M1072.64,-232.19C1104.65,-222.22 1157.41,-205.78 1193.78,-194.45"/>
<polygon fill="#63b8ff" stroke="#63b8ff" points="1194.55,-197.88 1203.06,-191.56 1192.47,-191.19 1194.55,-197.88"/>
</a>
</g>
</g>
<!-- Node26 -->
<g id="Node000026" class="node">
<title>Node26</title>
<g id="a_Node000026"><a xlink:title=" ">
<polygon fill="#e0e0e0" stroke="#999999" points="1423.12,-190.62 1322.38,-190.62 1322.38,-171.38 1423.12,-171.38 1423.12,-190.62"/>
<text text-anchor="middle" x="1372.75" y="-177.12" font-family="Helvetica,sans-Serif" font-size="10.00">boost/uuid/uuid.hpp</text>
</a>
</g>
</g>
<!-- Node16&#45;&gt;Node26 -->
<g id="edge30_Node000016_Node000026" class="edge">
<title>Node16&#45;&gt;Node26</title>
<g id="a_edge30_Node000016_Node000026"><a xlink:title=" ">
<path fill="none" stroke="#63b8ff" d="M1072.64,-236.87C1121.48,-229.72 1225.59,-213.83 1312.75,-196.25 1316.82,-195.43 1321.03,-194.53 1325.25,-193.59"/>
<polygon fill="#63b8ff" stroke="#63b8ff" points="1325.9,-197.04 1334.87,-191.4 1324.35,-190.21 1325.9,-197.04"/>
</a>
</g>
</g>
<!-- Node27 -->
<g id="Node000027" class="node">
<title>Node27</title>
<g id="a_Node000027"><a xlink:title=" ">
<polygon fill="#e0e0e0" stroke="#999999" points="1592.62,-190.62 1440.88,-190.62 1440.88,-171.38 1592.62,-171.38 1592.62,-190.62"/>
<text text-anchor="middle" x="1516.75" y="-177.12" font-family="Helvetica,sans-Serif" font-size="10.00">boost/uuid/uuid_generators.hpp</text>
</a>
</g>
</g>
<!-- Node16&#45;&gt;Node27 -->
<g id="edge31_Node000016_Node000027" class="edge">
<title>Node16&#45;&gt;Node27</title>
<g id="a_edge31_Node000016_Node000027"><a xlink:title=" ">
<path fill="none" stroke="#63b8ff" d="M1072.5,-238.17C1136.14,-231.85 1297.48,-215.23 1431.75,-196.25 1438.93,-195.23 1446.44,-194.09 1453.9,-192.91"/>
<polygon fill="#63b8ff" stroke="#63b8ff" points="1454.32,-196.39 1463.63,-191.33 1453.2,-189.48 1454.32,-196.39"/>
</a>
</g>
</g>
<!-- Node28 -->
<g id="Node000028" class="node">
<title>Node28</title>
<g id="a_Node000028"><a xlink:title=" ">
<polygon fill="#e0e0e0" stroke="#999999" points="1724.5,-190.62 1611,-190.62 1611,-171.38 1724.5,-171.38 1724.5,-190.62"/>
<text text-anchor="middle" x="1667.75" y="-177.12" font-family="Helvetica,sans-Serif" font-size="10.00">boost/uuid/uuid_io.hpp</text>
</a>
</g>
</g>
<!-- Node16&#45;&gt;Node28 -->
<g id="edge32_Node000016_Node000028" class="edge">
<title>Node16&#45;&gt;Node28</title>
<g id="a_edge32_Node000016_Node000028"><a xlink:title=" ">
<path fill="none" stroke="#63b8ff" d="M1072.72,-239.95C1154.51,-236.95 1400.2,-225.95 1601.75,-196.25 1607.33,-195.43 1613.15,-194.41 1618.92,-193.3"/>
<polygon fill="#63b8ff" stroke="#63b8ff" points="1619.28,-196.8 1628.38,-191.38 1617.89,-189.94 1619.28,-196.8"/>
</a>
</g>
</g>
<!-- Node29 -->
<g id="Node000029" class="node">
<title>Node29</title>
<g id="a_Node000029"><a xlink:title=" ">
<polygon fill="#e0e0e0" stroke="#999999" points="1862.5,-196.25 1743,-196.25 1743,-165.75 1862.5,-165.75 1862.5,-196.25"/>
<text text-anchor="start" x="1751" y="-182.75" font-family="Helvetica,sans-Serif" font-size="10.00">boost/date_time/c_local</text>
<text text-anchor="middle" x="1802.75" y="-171.5" font-family="Helvetica,sans-Serif" font-size="10.00">_time_adjustor.hpp</text>
</a>
</g>
</g>
<!-- Node16&#45;&gt;Node29 -->
<g id="edge33_Node000016_Node000029" class="edge">
<title>Node16&#45;&gt;Node29</title>
<g id="a_edge33_Node000016_Node000029"><a xlink:title=" ">
<path fill="none" stroke="#63b8ff" d="M1072.45,-240.46C1164.64,-238.79 1469.55,-230.95 1731.37,-196.43"/>
<polygon fill="#63b8ff" stroke="#63b8ff" points="1731.68,-199.92 1741.12,-195.13 1730.75,-192.99 1731.68,-199.92"/>
</a>
</g>
</g>
<!-- Node30 -->
<g id="Node000030" class="node">
<title>Node30</title>
<g id="a_Node000030"><a xlink:href="_h_d_f5_i_o_8hpp.html" target="_top" xlink:title=" ">
<polygon fill="white" stroke="#666666" points="630.62,-190.62 526.88,-190.62 526.88,-171.38 630.62,-171.38 630.62,-190.62"/>
<text text-anchor="middle" x="578.75" y="-177.12" font-family="Helvetica,sans-Serif" font-size="10.00">io/hdf5/HDF5IO.hpp</text>
</a>
</g>
</g>
<!-- Node16&#45;&gt;Node30 -->
<g id="edge35_Node000016_Node000030" class="edge">
<title>Node16&#45;&gt;Node30</title>
<g id="a_edge35_Node000016_Node000030"><a xlink:title=" ">
<path fill="none" stroke="#63b8ff" d="M1017.03,-237.59C956.39,-230.37 807.39,-212.47 682.75,-196.25 669.62,-194.54 655.57,-192.65 642.17,-190.83"/>
<polygon fill="#63b8ff" stroke="#63b8ff" points="642.99,-187.41 632.61,-189.52 642.04,-194.34 642.99,-187.41"/>
</a>
</g>
</g>
<!-- Node30&#45;&gt;Node3 -->
<g id="edge38_Node000030_Node000003" class="edge">
<title>Node30&#45;&gt;Node3</title>
<g id="a_edge38_Node000030_Node000003"><a xlink:title=" ">
<path fill="none" stroke="#63b8ff" d="M596.83,-170.89C628.64,-155.37 697.09,-124.13 758.75,-110.5 882.66,-83.11 1280.78,-70.01 1396.15,-66.72"/>
<polygon fill="#63b8ff" stroke="#63b8ff" points="1395.9,-70.23 1405.8,-66.45 1395.7,-63.23 1395.9,-70.23"/>
</a>
</g>
</g>
<!-- Node30&#45;&gt;Node4 -->
<g id="edge41_Node000030_Node000004" class="edge">
<title>Node30&#45;&gt;Node4</title>
<g id="a_edge41_Node000030_Node000004"><a xlink:title=" ">
<path fill="none" stroke="#63b8ff" d="M546.24,-170.93C510.08,-160.84 451.47,-144.48 411.34,-133.29"/>
<polygon fill="#63b8ff" stroke="#63b8ff" points="412.32,-129.93 401.75,-130.61 410.44,-136.67 412.32,-129.93"/>
</a>
</g>
</g>
<!-- Node30&#45;&gt;Node7 -->
<g id="edge36_Node000030_Node000007" class="edge">
<title>Node30&#45;&gt;Node7</title>
<g id="a_edge36_Node000030_Node000007"><a xlink:title=" ">
<path fill="none" stroke="#63b8ff" d="M579.22,-171.04C580.18,-152.88 582.36,-111.29 583.68,-86.2"/>
<polygon fill="#63b8ff" stroke="#63b8ff" points="587.17,-86.47 584.2,-76.3 580.18,-86.1 587.17,-86.47"/>
</a>
</g>
</g>
<!-- Node30&#45;&gt;Node8 -->
<g id="edge37_Node000030_Node000008" class="edge">
<title>Node30&#45;&gt;Node8</title>
<g id="a_edge37_Node000030_Node000008"><a xlink:title=" ">
<path fill="none" stroke="#63b8ff" d="M526.75,-171.78C474.16,-163.04 390.74,-147.96 319.75,-129.75 261.73,-114.87 195.78,-92.61 156.26,-78.69"/>
<polygon fill="#63b8ff" stroke="#63b8ff" points="157.62,-75.46 147.03,-75.41 155.28,-82.06 157.62,-75.46"/>
</a>
</g>
</g>
<!-- Node30&#45;&gt;Node13 -->
<g id="edge40_Node000030_Node000013" class="edge">
<title>Node30&#45;&gt;Node13</title>
<g id="a_edge40_Node000030_Node000013"><a xlink:title=" ">
<path fill="none" stroke="#63b8ff" d="M554.2,-170.89C528.96,-161.33 488.66,-145.52 454.75,-129.75 436.54,-121.28 389.61,-96.14 359.83,-80.04"/>
<polygon fill="#63b8ff" stroke="#63b8ff" points="361.88,-77.17 351.42,-75.49 358.55,-83.33 361.88,-77.17"/>
</a>
</g>
</g>
<!-- Node31 -->
<g id="Node000031" class="node">
<title>Node31</title>
<g id="a_Node000031"><a xlink:title=" ">
<polygon fill="#e0e0e0" stroke="#999999" points="668.75,-129.75 598.75,-129.75 598.75,-110.5 668.75,-110.5 668.75,-129.75"/>
<text text-anchor="middle" x="633.75" y="-116.25" font-family="Helvetica,sans-Serif" font-size="10.00">H5Opublic.h</text>
</a>
</g>
</g>
<!-- Node30&#45;&gt;Node31 -->
<g id="edge39_Node000030_Node000031" class="edge">
<title>Node30&#45;&gt;Node31</title>
<g id="a_edge39_Node000030_Node000031"><a xlink:title=" ">
<path fill="none" stroke="#63b8ff" d="M587.1,-171.06C595.18,-162.41 607.63,-149.09 617.64,-138.37"/>
<polygon fill="#63b8ff" stroke="#63b8ff" points="620.02,-140.95 624.28,-131.26 614.9,-136.18 620.02,-140.95"/>
</a>
</g>
</g>
<!-- Node30&#45;&gt;Node32 -->
<g id="edge42_Node000030_Node000032" class="edge">
<title>Node30&#45;&gt;Node32</title>
<g id="a_edge42_Node000030_Node000032"><a xlink:title=" ">
<path fill="none" stroke="#63b8ff" d="M567.21,-171.06C555.6,-162.07 537.46,-148.01 523.37,-137.1"/>
<polygon fill="#63b8ff" stroke="#63b8ff" points="525.65,-134.44 515.6,-131.08 521.36,-139.97 525.65,-134.44"/>
</a>
</g>
</g>
<!-- Node32&#45;&gt;Node3 -->
<g id="edge47_Node000032_Node000003" class="edge">
<title>Node32&#45;&gt;Node3</title>
<g id="a_edge47_Node000032_Node000003"><a xlink:title=" ">
<path fill="none" stroke="#63b8ff" d="M542.56,-114.79C557.37,-113.28 574.31,-111.68 589.75,-110.5 903.75,-86.59 1284.91,-71.24 1395.98,-67.04"/>
<polygon fill="#63b8ff" stroke="#63b8ff" points="1395.94,-70.55 1405.8,-66.68 1395.67,-63.55 1395.94,-70.55"/>
</a>
</g>
</g>
<!-- Node32&#45;&gt;Node5 -->
<g id="edge43_Node000032_Node000005" class="edge">
<title>Node32&#45;&gt;Node5</title>
<g id="a_edge43_Node000032_Node000005"><a xlink:title=" ">
<path fill="none" stroke="#63b8ff" d="M484.94,-110.09C468.23,-101.62 443.04,-88.84 424.03,-79.2"/>
<polygon fill="#63b8ff" stroke="#63b8ff" points="425.77,-76.16 415.27,-74.76 422.61,-82.41 425.77,-76.16"/>
</a>
</g>
</g>
<!-- Node32&#45;&gt;Node6 -->
<g id="edge44_Node000032_Node000006" class="edge">
<title>Node32&#45;&gt;Node6</title>
<g id="a_edge44_Node000032_Node000006"><a xlink:title=" ">
<path fill="none" stroke="#63b8ff" d="M528.03,-110.09C552.84,-101.22 590.83,-87.65 618.17,-77.88"/>
<polygon fill="#63b8ff" stroke="#63b8ff" points="619.14,-81.25 627.38,-74.59 616.78,-74.66 619.14,-81.25"/>
</a>
</g>
</g>
<!-- Node32&#45;&gt;Node7 -->
<g id="edge45_Node000032_Node000007" class="edge">
<title>Node32&#45;&gt;Node7</title>
<g id="a_edge45_Node000032_Node000007"><a xlink:title=" ">
<path fill="none" stroke="#63b8ff" d="M516.66,-110.09C528.91,-102.14 547,-90.39 561.46,-81"/>
<polygon fill="#63b8ff" stroke="#63b8ff" points="563.02,-84.16 569.5,-75.78 559.21,-78.29 563.02,-84.16"/>
</a>
</g>
</g>
<!-- Node32&#45;&gt;Node8 -->
<g id="edge46_Node000032_Node000008" class="edge">
<title>Node32&#45;&gt;Node8</title>
<g id="a_edge46_Node000032_Node000008"><a xlink:title=" ">
<path fill="none" stroke="#63b8ff" d="M462.95,-114.58C388.79,-106.03 231.08,-87.4 157.7,-74.61"/>
<polygon fill="#63b8ff" stroke="#63b8ff" points="158.63,-71.22 148.16,-72.88 157.38,-78.11 158.63,-71.22"/>
</a>
</g>
</g>
<!-- Node32&#45;&gt;Node11 -->
<g id="edge49_Node000032_Node000011" class="edge">
<title>Node32&#45;&gt;Node11</title>
<g id="a_edge49_Node000032_Node000011"><a xlink:title=" ">
<path fill="none" stroke="#63b8ff" d="M542.46,-114.99C590.34,-109.1 666.54,-96.47 683.75,-74.5 689.03,-67.77 689.36,-61.71 683.75,-55.25 647.11,-13.11 473.05,-9.59 399.11,-10.06"/>
<polygon fill="#63b8ff" stroke="#63b8ff" points="399.21,-6.56 389.24,-10.15 399.28,-13.56 399.21,-6.56"/>
</a>
</g>
</g>
<!-- Node32&#45;&gt;Node12 -->
<g id="edge50_Node000032_Node000012" class="edge">
<title>Node32&#45;&gt;Node12</title>
<g id="a_edge50_Node000032_Node000012"><a xlink:title=" ">
<path fill="none" stroke="#63b8ff" d="M499.94,-110.33C497.81,-103.67 494.81,-94.24 492.11,-85.78"/>
<polygon fill="#63b8ff" stroke="#63b8ff" points="495.45,-84.76 489.08,-76.3 488.79,-86.89 495.45,-84.76"/>
</a>
</g>
</g>
<!-- Node32&#45;&gt;Node13 -->
<g id="edge51_Node000032_Node000013" class="edge">
<title>Node32&#45;&gt;Node13</title>
<g id="a_edge51_Node000032_Node000013"><a xlink:title=" ">
<path fill="none" stroke="#63b8ff" d="M474.08,-110.09C446.4,-101.37 404.26,-88.09 373.38,-78.36"/>
<polygon fill="#63b8ff" stroke="#63b8ff" points="374.59,-75.07 364,-75.41 372.49,-81.75 374.59,-75.07"/>
</a>
</g>
</g>
<!-- Node33 -->
<g id="Node000033" class="node">
<title>Node33</title>
<g id="a_Node000033"><a xlink:title=" ">
<polygon fill="#e0e0e0" stroke="#999999" points="788.75,-74.5 730.75,-74.5 730.75,-55.25 788.75,-55.25 788.75,-74.5"/>
<text text-anchor="middle" x="759.75" y="-61" font-family="Helvetica,sans-Serif" font-size="10.00">typeindex</text>
</a>
</g>
</g>
<!-- Node32&#45;&gt;Node33 -->
<g id="edge48_Node000032_Node000033" class="edge">
<title>Node32&#45;&gt;Node33</title>
<g id="a_edge48_Node000032_Node000033"><a xlink:title=" ">
<path fill="none" stroke="#63b8ff" d="M542.62,-110.86C590.69,-100.9 671,-84.26 719.31,-74.25"/>
<polygon fill="#63b8ff" stroke="#63b8ff" points="720.01,-77.68 729.09,-72.23 718.59,-70.83 720.01,-77.68"/>
</a>
</g>
</g>
<!-- Node34&#45;&gt;Node3 -->
<g id="edge56_Node000034_Node000003" class="edge">
<title>Node34&#45;&gt;Node3</title>
<g id="a_edge56_Node000034_Node000003"><a xlink:title=" ">
<path fill="none" stroke="#63b8ff" d="M321.03,-350.9C660.84,-348.25 2066.75,-331.88 2066.75,-242.88 2066.75,-242.88 2066.75,-242.88 2066.75,-180 2066.75,-103.69 1983.6,-129.71 1909.75,-110.5 1744.15,-67.42 1537.07,-64.64 1459.24,-65.3"/>
<polygon fill="#63b8ff" stroke="#63b8ff" points="1459.36,-61.8 1449.4,-65.42 1459.44,-68.8 1459.36,-61.8"/>
</a>
</g>
</g>
<!-- Node34&#45;&gt;Node8 -->
<g id="edge55_Node000034_Node000008" class="edge">
<title>Node34&#45;&gt;Node8</title>
<g id="a_edge55_Node000034_Node000008"><a xlink:title=" ">
<path fill="none" stroke="#63b8ff" d="M227.53,-342.27C212.28,-334.58 191.67,-322.34 177.75,-306.75 122.52,-244.9 123.71,-212.52 118.75,-129.75 117.88,-115.28 118.42,-98.95 119.16,-86.42"/>
<polygon fill="#63b8ff" stroke="#63b8ff" points="122.65,-86.71 119.84,-76.49 115.66,-86.23 122.65,-86.71"/>
</a>
</g>
</g>
<!-- Node35 -->
<g id="Node000035" class="node">
<title>Node35</title>
<g id="a_Node000035"><a xlink:href="_registered_type_8hpp.html" target="_top" xlink:title=" ">
<polygon fill="white" stroke="#666666" points="310.75,-306.75 186.75,-306.75 186.75,-287.5 310.75,-287.5 310.75,-306.75"/>
<text text-anchor="middle" x="248.75" y="-293.25" font-family="Helvetica,sans-Serif" font-size="10.00">nwb/RegisteredType.hpp</text>
</a>
</g>
</g>
<!-- Node34&#45;&gt;Node35 -->
<g id="edge57_Node000034_Node000035" class="edge">
<title>Node34&#45;&gt;Node35</title>
<g id="a_edge57_Node000034_Node000035"><a xlink:title=" ">
<path fill="none" stroke="#63b8ff" d="M247.92,-342.58C248.04,-336.07 248.21,-326.92 248.37,-318.62"/>
<polygon fill="#63b8ff" stroke="#63b8ff" points="251.86,-318.69 248.55,-308.62 244.87,-318.55 251.86,-318.69"/>
</a>
</g>
</g>
<!-- Node35&#45;&gt;Node3 -->
<g id="edge60_Node000035_Node000003" class="edge">
<title>Node35&#45;&gt;Node3</title>
<g id="a_edge60_Node000035_Node000003"><a xlink:title=" ">
<path fill="none" stroke="#63b8ff" d="M291.78,-287.01C364.34,-271.24 515.29,-236.61 639.75,-196.25 674.76,-184.89 681.16,-175.15 716.75,-165.75 973.29,-97.96 1294.8,-73.85 1395.85,-67.65"/>
<polygon fill="#63b8ff" stroke="#63b8ff" points="1396.04,-71.15 1405.82,-67.06 1395.62,-64.16 1396.04,-71.15"/>
</a>
</g>
</g>
<!-- Node35&#45;&gt;Node4 -->
<g id="edge65_Node000035_Node000004" class="edge">
<title>Node35&#45;&gt;Node4</title>
<g id="a_edge65_Node000035_Node000004"><a xlink:title=" ">
<path fill="none" stroke="#63b8ff" d="M258.36,-287.2C267.24,-278.62 280.43,-265.01 289.75,-251.5 313.96,-216.41 309.92,-201.76 332.75,-165.75 338.67,-156.41 346.13,-146.67 352.65,-138.69"/>
<polygon fill="#63b8ff" stroke="#63b8ff" points="355.25,-141.04 358.98,-131.12 349.88,-136.54 355.25,-141.04"/>
</a>
</g>
</g>
<!-- Node35&#45;&gt;Node8 -->
<g id="edge59_Node000035_Node000008" class="edge">
<title>Node35&#45;&gt;Node8</title>
<g id="a_edge59_Node000035_Node000008"><a xlink:title=" ">
<path fill="none" stroke="#63b8ff" d="M220.45,-287.14C202.8,-280.13 181,-268.65 167.75,-251.5 128.85,-201.13 121.85,-122.3 120.79,-85.73"/>
<polygon fill="#63b8ff" stroke="#63b8ff" points="124.29,-86.14 120.64,-76.19 117.3,-86.24 124.29,-86.14"/>
</a>
</g>
</g>
<!-- Node35&#45;&gt;Node9 -->
<g id="edge61_Node000035_Node000009" class="edge">
<title>Node35&#45;&gt;Node9</title>
<g id="a_edge61_Node000035_Node000009"><a xlink:title=" ">
<path fill="none" stroke="#63b8ff" d="M223.95,-287.04C208.49,-279.94 189.87,-268.4 180.75,-251.5 150.98,-196.36 164.92,-171.14 180.75,-110.5 183.16,-101.28 187.93,-91.96 192.67,-84.23"/>
<polygon fill="#63b8ff" stroke="#63b8ff" points="195.45,-86.38 198.05,-76.11 189.61,-82.51 195.45,-86.38"/>
</a>
</g>
</g>
<!-- Node35&#45;&gt;Node10 -->
<g id="edge62_Node000035_Node000010" class="edge">
<title>Node35&#45;&gt;Node10</title>
<g id="a_edge62_Node000035_Node000010"><a xlink:title=" ">
<path fill="none" stroke="#63b8ff" d="M216.85,-287.05C196.21,-279.95 169.74,-268.41 150.75,-251.5 96.47,-203.16 60.35,-122.13 45.88,-85.23"/>
<polygon fill="#63b8ff" stroke="#63b8ff" points="49.32,-84.41 42.49,-76.31 42.77,-86.9 49.32,-84.41"/>
</a>
</g>
</g>
<!-- Node35&#45;&gt;Node13 -->
<g id="edge63_Node000035_Node000013" class="edge">
<title>Node35&#45;&gt;Node13</title>
<g id="a_edge63_Node000035_Node000013"><a xlink:title=" ">
<path fill="none" stroke="#63b8ff" d="M238.53,-287.02C230.06,-278.73 218.64,-265.65 213.75,-251.5 210.96,-243.41 211.12,-240.39 213.75,-232.25 234,-169.56 287.64,-110.6 315.84,-82.71"/>
<polygon fill="#63b8ff" stroke="#63b8ff" points="318.19,-85.3 322.94,-75.83 313.33,-80.28 318.19,-85.3"/>
</a>
</g>
</g>
<!-- Node35&#45;&gt;Node16 -->
<g id="edge64_Node000035_Node000016" class="edge">
<title>Node35&#45;&gt;Node16</title>
<g id="a_edge64_Node000035_Node000016"><a xlink:title=" ">
<path fill="none" stroke="#63b8ff" d="M311.21,-291.95C468.48,-281.43 877.37,-254.07 1005.66,-245.49"/>
<polygon fill="#63b8ff" stroke="#63b8ff" points="1005.58,-249 1015.33,-244.84 1005.11,-242.02 1005.58,-249"/>
</a>
</g>
</g>
<!-- Node35&#45;&gt;Node32 -->
<g id="edge66_Node000035_Node000032" class="edge">
<title>Node35&#45;&gt;Node32</title>
<g id="a_edge66_Node000035_Node000032"><a xlink:title=" ">
<path fill="none" stroke="#63b8ff" d="M261.7,-287.21C302.45,-259.13 428.46,-172.31 480.21,-136.65"/>
<polygon fill="#63b8ff" stroke="#63b8ff" points="482.03,-139.65 488.28,-131.09 478.06,-133.89 482.03,-139.65"/>
</a>
</g>
</g>
<!-- Node36 -->
<g id="Node000036" class="node">
<title>Node36</title>
<g id="a_Node000036"><a xlink:title=" ">
<polygon fill="#e0e0e0" stroke="#999999" points="280.75,-251.5 222.75,-251.5 222.75,-232.25 280.75,-232.25 280.75,-251.5"/>
<text text-anchor="middle" x="251.75" y="-238" font-family="Helvetica,sans-Serif" font-size="10.00">functional</text>
</a>
</g>
</g>
<!-- Node35&#45;&gt;Node36 -->
<g id="edge58_Node000035_Node000036" class="edge">
<title>Node35&#45;&gt;Node36</title>
<g id="a_edge58_Node000035_Node000036"><a xlink:title=" ">
<path fill="none" stroke="#63b8ff" d="M249.25,-287.33C249.62,-280.74 250.14,-271.46 250.61,-263.07"/>
<polygon fill="#63b8ff" stroke="#63b8ff" points="254.09,-263.55 251.16,-253.37 247.1,-263.16 254.09,-263.55"/>
</a>
</g>
</g>
</g>
</svg>

<g id="navigator" transform="translate(0 0)" fill="#404254">
  <rect fill="#f2f5e9" fill-opacity="0.5" stroke="#606060" stroke-width=".5" x="0" y="0" width="60" height="60"/>
  <use id="zoomplus" xlink:href="#zoomPlus" x="17" y="9" onmousedown="handleZoom(evt,'in')"/>
  <use id="zoomminus" xlink:href="#zoomMin" x="42" y="9" onmousedown="handleZoom(evt,'out')"/>
  <use id="reset" xlink:href="#resetDef" x="30" y="36" onmousedown="handleReset()"/>
   <use id="arrowup" xlink:href="#arrowUp" x="0" y="0" onmousedown="handlePan(0,-1)"/>
  <use id="arrowright" xlink:href="#arrowRight" x="0" y="0" onmousedown="handlePan(1,0)"/>
  <use id="arrowdown" xlink:href="#arrowDown" x="0" y="0" onmousedown="handlePan(0,1)"/>
  <use id="arrowleft" xlink:href="#arrowLeft" x="0" y="0" onmousedown="handlePan(-1,0)"/>
</g>
<svg viewBox="0 0 15 15" width="100%" height="30px" preserveAspectRatio="xMaxYMin meet">
 <g id="arrow_out" transform="scale(0.3 0.3)">
  <a xlink:href="_electrode_group_8cpp__incl_org.svg" target="_base">
   <rect id="button" ry="5" rx="5" y="6" x="6" height="38" width="38"
        fill="#f2f5e9" fill-opacity="0.5" stroke="#606060" stroke-width="1.0"/>
   <path id="arrow"
     d="M 11.500037,31.436501 C 11.940474,20.09759 22.043105,11.32322 32.158766,21.979434 L 37.068811,17.246167 C 37.068811,17.246167 37.088388,32 37.088388,32 L 22.160133,31.978069 C 22.160133,31.978069 26.997745,27.140456 26.997745,27.140456 C 18.528582,18.264221 13.291696,25.230495 11.500037,31.436501 z"
     style="fill:#404040;"/>
  </a>
 </g>
</svg>

<style type='text/css'>
<![CDATA[
[data-mouse-over-selected='false'] { opacity: 0.7; }
[data-mouse-over-selected='true']  { opacity: 1.0; }
]]>
</style>
<script type="application/ecmascript"><![CDATA[
document.addEventListener('DOMContentLoaded', (event) => {
  highlightEdges();
  highlightAdjacentNodes();
});
]]></script>
</svg>
