<?xml version="1.0" encoding="UTF-8" standalone="no"?>
<!DOCTYPE svg PUBLIC "-//W3C//DTD SVG 1.1//EN"
 "http://www.w3.org/Graphics/SVG/1.1/DTD/svg11.dtd">
<!-- Generated by graphviz version 12.2.1 (20241206.2353)
 -->
<!-- Title: src/nwb/ecephys/ElectricalSeries.hpp Pages: 1 -->
<!--zoomable 492 -->

<svg id="main" version="1.1" xmlns="http://www.w3.org/2000/svg" xmlns:xlink="http://www.w3.org/1999/xlink" xml:space="preserve" onload="init(evt)">

<style type="text/css"><![CDATA[
.node, .edge {opacity: 0.7;}
.node.selected, .edge.selected {opacity: 1;}
.edge:hover path { stroke: red; }
.edge:hover polygon { stroke: red; fill: red; }
]]></style>

<defs>
  <circle id="rim" cx="0" cy="0" r="7"/>
  <circle id="rim2" cx="0" cy="0" r="3.5"/>
  <g id="zoomPlus">
    <use xlink:href="#rim" fill="#404040"><set attributeName="fill" to="#808080" begin="zoomplus.mouseover" end="zoomplus.mouseout"/></use>
    <path d="M-4,0h8M0,-4v8" fill="none" stroke="white" stroke-width="1.5" pointer-events="none"/>
  </g>
  <g id="zoomMin">
    <use xlink:href="#rim" fill="#404040"><set attributeName="fill" to="#808080" begin="zoomminus.mouseover" end="zoomminus.mouseout"/></use>
    <path d="M-4,0h8" fill="none" stroke="white" stroke-width="1.5" pointer-events="none"/>
  </g>
  <g id="arrowUp" transform="translate(30 24)">
    <use xlink:href="#rim"/>
    <path pointer-events="none" fill="none" stroke="white" stroke-width="1.5" d="M0,-3.0v7 M-2.5,-0.5L0,-3.0L2.5,-0.5"/>
  </g>
  <g id="arrowRight" transform="rotate(90) translate(36 -43)">
    <use xlink:href="#rim"/>
    <path pointer-events="none" fill="none" stroke="white" stroke-width="1.5" d="M0,-3.0v7 M-2.5,-0.5L0,-3.0L2.5,-0.5"/>
  </g>
  <g id="arrowDown" transform="rotate(180) translate(-30 -48)">
    <use xlink:href="#rim"/>
    <path pointer-events="none" fill="none" stroke="white" stroke-width="1.5" d="M0,-3.0v7 M-2.5,-0.5L0,-3.0L2.5,-0.5"/>
  </g>
  <g id="arrowLeft" transform="rotate(270) translate(-36 17)">
    <use xlink:href="#rim"/>
    <path pointer-events="none" fill="none" stroke="white" stroke-width="1.5" d="M0,-3.0v7 M-2.5,-0.5L0,-3.0L2.5,-0.5"/>
  </g>
  <g id="resetDef">
    <use xlink:href="#rim2" fill="#404040"><set attributeName="fill" to="#808080" begin="reset.mouseover" end="reset.mouseout"/></use>
  </g>
</defs>
<script type="application/ecmascript">
var viewWidth = 2205;
var viewHeight = 492;
var sectionId = 'dynsection-0';
</script>
<script type="application/ecmascript" xlink:href="svg.min.js"/>
<svg id="graph" class="graph">
<g id="viewport">
<title>src/nwb/ecephys/ElectricalSeries.hpp</title>
<!-- Node1 -->
<g id="Node000001" class="node">
<title>Node1</title>
<g id="a_Node000001"><a xlink:title=" ">
<polygon fill="#999999" stroke="#666666" points="934.25,-483.75 800.5,-483.75 800.5,-453.25 934.25,-453.25 934.25,-483.75"/>
<text text-anchor="start" x="808.5" y="-470.25" font-family="Helvetica,sans-Serif" font-size="10.00">src/nwb/ecephys/Electrical</text>
<text text-anchor="middle" x="867.38" y="-459" font-family="Helvetica,sans-Serif" font-size="10.00">Series.hpp</text>
</a>
</g>
</g>
<!-- Node2 -->
<g id="Node000002" class="node">
<title>Node2</title>
<g id="a_Node000002"><a xlink:title=" ">
<polygon fill="#e0e0e0" stroke="#999999" points="232.38,-74.5 192.38,-74.5 192.38,-55.25 232.38,-55.25 232.38,-74.5"/>
<text text-anchor="middle" x="212.38" y="-61" font-family="Helvetica,sans-Serif" font-size="10.00">string</text>
</a>
</g>
</g>
<!-- Node1&#45;&gt;Node2 -->
<g id="edge1_Node000001_Node000002" class="edge">
<title>Node1&#45;&gt;Node2</title>
<g id="a_edge1_Node000001_Node000002"><a xlink:title=" ">
<path fill="none" stroke="#63b8ff" d="M800.14,-464.55C612.77,-455.45 98.38,-424.02 98.38,-353.38 98.38,-353.38 98.38,-353.38 98.38,-180 98.38,-132.54 148.33,-97.9 182.11,-79.91"/>
<polygon fill="#63b8ff" stroke="#63b8ff" points="183.33,-83.22 190.65,-75.55 180.15,-76.98 183.33,-83.22"/>
</a>
</g>
</g>
<!-- Node3 -->
<g id="Node000003" class="node">
<title>Node3</title>
<g id="a_Node000003"><a xlink:href="_channel_8hpp.html" target="_top" xlink:title=" ">
<polygon fill="white" stroke="#666666" points="70.75,-129.75 0,-129.75 0,-110.5 70.75,-110.5 70.75,-129.75"/>
<text text-anchor="middle" x="35.38" y="-116.25" font-family="Helvetica,sans-Serif" font-size="10.00">Channel.hpp</text>
</a>
</g>
</g>
<!-- Node1&#45;&gt;Node3 -->
<g id="edge2_Node000001_Node000003" class="edge">
<title>Node1&#45;&gt;Node3</title>
<g id="a_edge2_Node000001_Node000003"><a xlink:title=" ">
<path fill="none" stroke="#63b8ff" d="M800.16,-466.82C621.47,-464.5 144.21,-454.83 84.38,-417.25 56.78,-399.92 48.38,-385.96 48.38,-353.38 48.38,-353.38 48.38,-353.38 48.38,-240.88 48.38,-205.76 42.78,-165.19 38.93,-141.43"/>
<polygon fill="#63b8ff" stroke="#63b8ff" points="42.39,-140.87 37.27,-131.59 35.49,-142.04 42.39,-140.87"/>
</a>
</g>
</g>
<!-- Node8 -->
<g id="Node000008" class="node">
<title>Node8</title>
<g id="a_Node000008"><a xlink:href="_utils_8hpp.html" target="_top" xlink:title=" ">
<polygon fill="white" stroke="#666666" points="1243.88,-251.5 1188.88,-251.5 1188.88,-232.25 1243.88,-232.25 1243.88,-251.5"/>
<text text-anchor="middle" x="1216.38" y="-238" font-family="Helvetica,sans-Serif" font-size="10.00">Utils.hpp</text>
</a>
</g>
</g>
<!-- Node1&#45;&gt;Node8 -->
<g id="edge8_Node000001_Node000008" class="edge">
<title>Node1&#45;&gt;Node8</title>
<g id="a_edge8_Node000001_Node000008"><a xlink:title=" ">
<path fill="none" stroke="#63b8ff" d="M890.27,-452.76C953.34,-412.17 1129.08,-299.06 1192.87,-258.01"/>
<polygon fill="#63b8ff" stroke="#63b8ff" points="1194.65,-261.02 1201.17,-252.66 1190.86,-255.13 1194.65,-261.02"/>
</a>
</g>
</g>
<!-- Node22 -->
<g id="Node000022" class="node">
<title>Node22</title>
<g id="a_Node000022"><a xlink:href="_base_i_o_8hpp.html" target="_top" xlink:title=" ">
<polygon fill="white" stroke="#666666" points="1891.5,-129.75 1813.25,-129.75 1813.25,-110.5 1891.5,-110.5 1891.5,-129.75"/>
<text text-anchor="middle" x="1852.38" y="-116.25" font-family="Helvetica,sans-Serif" font-size="10.00">io/BaseIO.hpp</text>
</a>
</g>
</g>
<!-- Node1&#45;&gt;Node22 -->
<g id="edge51_Node000001_Node000022" class="edge">
<title>Node1&#45;&gt;Node22</title>
<g id="a_edge51_Node000001_Node000022"><a xlink:title=" ">
<path fill="none" stroke="#63b8ff" d="M934.6,-464.84C1192.1,-454.2 2101.38,-412.47 2101.38,-353.38 2101.38,-353.38 2101.38,-353.38 2101.38,-296.12 2101.38,-199.88 1975.32,-152 1902.58,-132.38"/>
<polygon fill="#63b8ff" stroke="#63b8ff" points="1903.85,-129.1 1893.29,-129.97 1902.09,-135.87 1903.85,-129.1"/>
</a>
</g>
</g>
<!-- Node31 -->
<g id="Node000031" class="node">
<title>Node31</title>
<g id="a_Node000031"><a xlink:href="_read_i_o_8hpp.html" target="_top" xlink:title=" ">
<polygon fill="white" stroke="#666666" points="1794.88,-129.75 1715.88,-129.75 1715.88,-110.5 1794.88,-110.5 1794.88,-129.75"/>
<text text-anchor="middle" x="1755.38" y="-116.25" font-family="Helvetica,sans-Serif" font-size="10.00">io/ReadIO.hpp</text>
</a>
</g>
</g>
<!-- Node1&#45;&gt;Node31 -->
<g id="edge52_Node000001_Node000031" class="edge">
<title>Node1&#45;&gt;Node31</title>
<g id="a_edge52_Node000001_Node000031"><a xlink:title=" ">
<path fill="none" stroke="#63b8ff" d="M934.46,-465.75C1148.93,-459.45 1807.41,-434.31 1866.38,-362 1900.2,-320.52 1826.82,-357.89 1787.38,-306.75 1777.31,-293.7 1763.26,-186.11 1757.73,-140.96"/>
<polygon fill="#63b8ff" stroke="#63b8ff" points="1761.24,-140.79 1756.57,-131.29 1754.29,-141.63 1761.24,-140.79"/>
</a>
</g>
</g>
<!-- Node33 -->
<g id="Node000033" class="node">
<title>Node33</title>
<g id="a_Node000033"><a xlink:href="_time_series_8hpp.html" target="_top" xlink:title=" ">
<polygon fill="white" stroke="#666666" points="1588,-417.25 1458.75,-417.25 1458.75,-398 1588,-398 1588,-417.25"/>
<text text-anchor="middle" x="1523.38" y="-403.75" font-family="Helvetica,sans-Serif" font-size="10.00">nwb/base/TimeSeries.hpp</text>
</a>
</g>
</g>
<!-- Node1&#45;&gt;Node33 -->
<g id="edge53_Node000001_Node000033" class="edge">
<title>Node1&#45;&gt;Node33</title>
<g id="a_edge53_Node000001_Node000033"><a xlink:title=" ">
<path fill="none" stroke="#63b8ff" d="M934.5,-461.48C1057.33,-450.45 1317.51,-427.1 1446.94,-415.48"/>
<polygon fill="#63b8ff" stroke="#63b8ff" points="1447.14,-418.98 1456.79,-414.6 1446.52,-412.01 1447.14,-418.98"/>
</a>
</g>
</g>
<!-- Node3&#45;&gt;Node2 -->
<g id="edge4_Node000003_Node000002" class="edge">
<title>Node3&#45;&gt;Node2</title>
<g id="a_edge4_Node000003_Node000002"><a xlink:title=" ">
<path fill="none" stroke="#63b8ff" d="M65.4,-110.09C97.6,-100.4 148.5,-85.09 181.16,-75.27"/>
<polygon fill="#63b8ff" stroke="#63b8ff" points="181.87,-78.71 190.44,-72.47 179.85,-72 181.87,-78.71"/>
</a>
</g>
</g>
<!-- Node4 -->
<g id="Node000004" class="node">
<title>Node4</title>
<g id="a_Node000004"><a xlink:title=" ">
<polygon fill="#e0e0e0" stroke="#999999" points="54.25,-74.5 16.5,-74.5 16.5,-55.25 54.25,-55.25 54.25,-74.5"/>
<text text-anchor="middle" x="35.38" y="-61" font-family="Helvetica,sans-Serif" font-size="10.00">array</text>
</a>
</g>
</g>
<!-- Node3&#45;&gt;Node4 -->
<g id="edge3_Node000003_Node000004" class="edge">
<title>Node3&#45;&gt;Node4</title>
<g id="a_edge3_Node000003_Node000004"><a xlink:title=" ">
<path fill="none" stroke="#63b8ff" d="M35.38,-110.33C35.38,-103.82 35.38,-94.67 35.38,-86.37"/>
<polygon fill="#63b8ff" stroke="#63b8ff" points="38.88,-86.37 35.38,-76.37 31.88,-86.37 38.88,-86.37"/>
</a>
</g>
</g>
<!-- Node5 -->
<g id="Node000005" class="node">
<title>Node5</title>
<g id="a_Node000005"><a xlink:href="_types_8hpp.html" target="_top" xlink:title=" ">
<polygon fill="white" stroke="#666666" points="1467.88,-74.5 1406.88,-74.5 1406.88,-55.25 1467.88,-55.25 1467.88,-74.5"/>
<text text-anchor="middle" x="1437.38" y="-61" font-family="Helvetica,sans-Serif" font-size="10.00">Types.hpp</text>
</a>
</g>
</g>
<!-- Node3&#45;&gt;Node5 -->
<g id="edge5_Node000003_Node000005" class="edge">
<title>Node3&#45;&gt;Node5</title>
<g id="a_edge5_Node000003_Node000005"><a xlink:title=" ">
<path fill="none" stroke="#63b8ff" d="M71.09,-117.77C264.55,-110.42 1186.02,-75.42 1395.11,-67.48"/>
<polygon fill="#63b8ff" stroke="#63b8ff" points="1395.1,-70.98 1404.96,-67.11 1394.83,-63.99 1395.1,-70.98"/>
</a>
</g>
</g>
<!-- Node6 -->
<g id="Node000006" class="node">
<title>Node6</title>
<g id="a_Node000006"><a xlink:title=" ">
<polygon fill="#e0e0e0" stroke="#999999" points="1461.5,-19.25 1413.25,-19.25 1413.25,0 1461.5,0 1461.5,-19.25"/>
<text text-anchor="middle" x="1437.38" y="-5.75" font-family="Helvetica,sans-Serif" font-size="10.00">cstddef</text>
</a>
</g>
</g>
<!-- Node5&#45;&gt;Node6 -->
<g id="edge6_Node000005_Node000006" class="edge">
<title>Node5&#45;&gt;Node6</title>
<g id="a_edge6_Node000005_Node000006"><a xlink:title=" ">
<path fill="none" stroke="#63b8ff" d="M1437.38,-55.08C1437.38,-48.57 1437.38,-39.42 1437.38,-31.12"/>
<polygon fill="#63b8ff" stroke="#63b8ff" points="1440.88,-31.12 1437.38,-21.12 1433.88,-31.12 1440.88,-31.12"/>
</a>
</g>
</g>
<!-- Node7 -->
<g id="Node000007" class="node">
<title>Node7</title>
<g id="a_Node000007"><a xlink:title=" ">
<polygon fill="#e0e0e0" stroke="#999999" points="1656.88,-19.25 1613.88,-19.25 1613.88,0 1656.88,0 1656.88,-19.25"/>
<text text-anchor="middle" x="1635.38" y="-5.75" font-family="Helvetica,sans-Serif" font-size="10.00">vector</text>
</a>
</g>
</g>
<!-- Node5&#45;&gt;Node7 -->
<g id="edge7_Node000005_Node000007" class="edge">
<title>Node5&#45;&gt;Node7</title>
<g id="a_edge7_Node000005_Node000007"><a xlink:title=" ">
<path fill="none" stroke="#63b8ff" d="M1468.31,-55.55C1504.88,-45.72 1565.46,-29.43 1602.75,-19.4"/>
<polygon fill="#63b8ff" stroke="#63b8ff" points="1603.31,-22.87 1612.06,-16.89 1601.5,-16.11 1603.31,-22.87"/>
</a>
</g>
</g>
<!-- Node8&#45;&gt;Node2 -->
<g id="edge16_Node000008_Node000002" class="edge">
<title>Node8&#45;&gt;Node2</title>
<g id="a_edge16_Node000008_Node000002"><a xlink:title=" ">
<path fill="none" stroke="#63b8ff" d="M1188.79,-240.39C1036.93,-237.63 308.23,-222.99 269.38,-196.25 259.64,-189.55 232.59,-119.97 219.57,-85.29"/>
<polygon fill="#63b8ff" stroke="#63b8ff" points="222.9,-84.21 216.12,-76.06 216.34,-86.66 222.9,-84.21"/>
</a>
</g>
</g>
<!-- Node9 -->
<g id="Node000009" class="node">
<title>Node9</title>
<g id="a_Node000009"><a xlink:title=" ">
<polygon fill="#e0e0e0" stroke="#999999" points="1244.25,-190.62 1188.5,-190.62 1188.5,-171.38 1244.25,-171.38 1244.25,-190.62"/>
<text text-anchor="middle" x="1216.38" y="-177.12" font-family="Helvetica,sans-Serif" font-size="10.00">algorithm</text>
</a>
</g>
</g>
<!-- Node8&#45;&gt;Node9 -->
<g id="edge9_Node000008_Node000009" class="edge">
<title>Node8&#45;&gt;Node9</title>
<g id="a_edge9_Node000008_Node000009"><a xlink:title=" ">
<path fill="none" stroke="#63b8ff" d="M1216.38,-231.93C1216.38,-224.15 1216.38,-212.58 1216.38,-202.53"/>
<polygon fill="#63b8ff" stroke="#63b8ff" points="1219.88,-202.54 1216.38,-192.54 1212.88,-202.54 1219.88,-202.54"/>
</a>
</g>
</g>
<!-- Node10 -->
<g id="Node000010" class="node">
<title>Node10</title>
<g id="a_Node000010"><a xlink:title=" ">
<polygon fill="#e0e0e0" stroke="#999999" points="1308,-190.62 1262.75,-190.62 1262.75,-171.38 1308,-171.38 1308,-190.62"/>
<text text-anchor="middle" x="1285.38" y="-177.12" font-family="Helvetica,sans-Serif" font-size="10.00">chrono</text>
</a>
</g>
</g>
<!-- Node8&#45;&gt;Node10 -->
<g id="edge10_Node000008_Node000010" class="edge">
<title>Node8&#45;&gt;Node10</title>
<g id="a_edge10_Node000008_Node000010"><a xlink:title=" ">
<path fill="none" stroke="#63b8ff" d="M1226.85,-231.93C1237.29,-223.03 1253.55,-209.16 1266.28,-198.29"/>
<polygon fill="#63b8ff" stroke="#63b8ff" points="1268.31,-201.16 1273.65,-192.01 1263.77,-195.84 1268.31,-201.16"/>
</a>
</g>
</g>
<!-- Node11 -->
<g id="Node000011" class="node">
<title>Node11</title>
<g id="a_Node000011"><a xlink:title=" ">
<polygon fill="#e0e0e0" stroke="#999999" points="1368.88,-190.62 1325.88,-190.62 1325.88,-171.38 1368.88,-171.38 1368.88,-190.62"/>
<text text-anchor="middle" x="1347.38" y="-177.12" font-family="Helvetica,sans-Serif" font-size="10.00">cmath</text>
</a>
</g>
</g>
<!-- Node8&#45;&gt;Node11 -->
<g id="edge11_Node000008_Node000011" class="edge">
<title>Node8&#45;&gt;Node11</title>
<g id="a_edge11_Node000008_Node000011"><a xlink:title=" ">
<path fill="none" stroke="#63b8ff" d="M1237.34,-231.81C1257.82,-222.91 1289.84,-208.87 1317.38,-196.25 1317.6,-196.15 1317.82,-196.05 1318.05,-195.94"/>
<polygon fill="#63b8ff" stroke="#63b8ff" points="1319.41,-199.17 1327,-191.76 1316.45,-192.82 1319.41,-199.17"/>
</a>
</g>
</g>
<!-- Node12 -->
<g id="Node000012" class="node">
<title>Node12</title>
<g id="a_Node000012"><a xlink:title=" ">
<polygon fill="#e0e0e0" stroke="#999999" points="1531,-74.5 1485.75,-74.5 1485.75,-55.25 1531,-55.25 1531,-74.5"/>
<text text-anchor="middle" x="1508.38" y="-61" font-family="Helvetica,sans-Serif" font-size="10.00">cstdint</text>
</a>
</g>
</g>
<!-- Node8&#45;&gt;Node12 -->
<g id="edge12_Node000008_Node000012" class="edge">
<title>Node8&#45;&gt;Node12</title>
<g id="a_edge12_Node000008_Node000012"><a xlink:title=" ">
<path fill="none" stroke="#63b8ff" d="M1243.92,-240.88C1309.2,-240.24 1470.36,-234.73 1504.38,-196.25 1531.29,-165.8 1522.44,-113.98 1514.74,-85.71"/>
<polygon fill="#63b8ff" stroke="#63b8ff" points="1518.14,-84.89 1511.94,-76.3 1511.43,-86.89 1518.14,-84.89"/>
</a>
</g>
</g>
<!-- Node13 -->
<g id="Node000013" class="node">
<title>Node13</title>
<g id="a_Node000013"><a xlink:title=" ">
<polygon fill="#e0e0e0" stroke="#999999" points="1427.38,-190.62 1387.38,-190.62 1387.38,-171.38 1427.38,-171.38 1427.38,-190.62"/>
<text text-anchor="middle" x="1407.38" y="-177.12" font-family="Helvetica,sans-Serif" font-size="10.00">ctime</text>
</a>
</g>
</g>
<!-- Node8&#45;&gt;Node13 -->
<g id="edge13_Node000008_Node000013" class="edge">
<title>Node8&#45;&gt;Node13</title>
<g id="a_edge13_Node000008_Node000013"><a xlink:title=" ">
<path fill="none" stroke="#63b8ff" d="M1244.11,-234.91C1276.78,-227.51 1332.42,-213.69 1378.38,-196.25 1379,-196.01 1379.63,-195.77 1380.26,-195.52"/>
<polygon fill="#63b8ff" stroke="#63b8ff" points="1381.34,-198.86 1389.05,-191.6 1378.5,-192.47 1381.34,-198.86"/>
</a>
</g>
</g>
<!-- Node14 -->
<g id="Node000014" class="node">
<title>Node14</title>
<g id="a_Node000014"><a xlink:title=" ">
<polygon fill="#e0e0e0" stroke="#999999" points="1495.25,-190.62 1445.5,-190.62 1445.5,-171.38 1495.25,-171.38 1495.25,-190.62"/>
<text text-anchor="middle" x="1470.38" y="-177.12" font-family="Helvetica,sans-Serif" font-size="10.00">iomanip</text>
</a>
</g>
</g>
<!-- Node8&#45;&gt;Node14 -->
<g id="edge14_Node000008_Node000014" class="edge">
<title>Node8&#45;&gt;Node14</title>
<g id="a_edge14_Node000008_Node000014"><a xlink:title=" ">
<path fill="none" stroke="#63b8ff" d="M1244.25,-237.02C1286.44,-230.79 1368.77,-217.05 1436.38,-196.25 1437.54,-195.89 1438.71,-195.51 1439.9,-195.11"/>
<polygon fill="#63b8ff" stroke="#63b8ff" points="1440.95,-198.45 1449.07,-191.64 1438.47,-191.9 1440.95,-198.45"/>
</a>
</g>
</g>
<!-- Node15 -->
<g id="Node000015" class="node">
<title>Node15</title>
<g id="a_Node000015"><a xlink:title=" ">
<polygon fill="#e0e0e0" stroke="#999999" points="330,-190.62 278.75,-190.62 278.75,-171.38 330,-171.38 330,-190.62"/>
<text text-anchor="middle" x="304.38" y="-177.12" font-family="Helvetica,sans-Serif" font-size="10.00">sstream</text>
</a>
</g>
</g>
<!-- Node8&#45;&gt;Node15 -->
<g id="edge15_Node000008_Node000015" class="edge">
<title>Node8&#45;&gt;Node15</title>
<g id="a_edge15_Node000008_Node000015"><a xlink:title=" ">
<path fill="none" stroke="#63b8ff" d="M1188.71,-240.71C1058.61,-239.75 506.98,-233.51 339.38,-196.25 337.61,-195.86 335.82,-195.38 334.03,-194.85"/>
<polygon fill="#63b8ff" stroke="#63b8ff" points="335.28,-191.58 324.68,-191.54 332.94,-198.18 335.28,-191.58"/>
</a>
</g>
</g>
<!-- Node16 -->
<g id="Node000016" class="node">
<title>Node16</title>
<g id="a_Node000016"><a xlink:title=" ">
<polygon fill="#e0e0e0" stroke="#999999" points="452.62,-190.62 348.12,-190.62 348.12,-171.38 452.62,-171.38 452.62,-190.62"/>
<text text-anchor="middle" x="400.38" y="-177.12" font-family="Helvetica,sans-Serif" font-size="10.00">boost/date_time.hpp</text>
</a>
</g>
</g>
<!-- Node8&#45;&gt;Node16 -->
<g id="edge17_Node000008_Node000016" class="edge">
<title>Node8&#45;&gt;Node16</title>
<g id="a_edge17_Node000008_Node000016"><a xlink:title=" ">
<path fill="none" stroke="#63b8ff" d="M1188.48,-240.9C1089.16,-240.62 743.72,-236.62 462.38,-196.25 457.12,-195.5 451.65,-194.52 446.23,-193.44"/>
<polygon fill="#63b8ff" stroke="#63b8ff" points="447.26,-190.08 436.75,-191.41 445.79,-196.92 447.26,-190.08"/>
</a>
</g>
</g>
<!-- Node17 -->
<g id="Node000017" class="node">
<title>Node17</title>
<g id="a_Node000017"><a xlink:title=" ">
<polygon fill="#e0e0e0" stroke="#999999" points="611.62,-190.62 471.12,-190.62 471.12,-171.38 611.62,-171.38 611.62,-190.62"/>
<text text-anchor="middle" x="541.38" y="-177.12" font-family="Helvetica,sans-Serif" font-size="10.00">boost/endian/conversion.hpp</text>
</a>
</g>
</g>
<!-- Node8&#45;&gt;Node17 -->
<g id="edge18_Node000008_Node000017" class="edge">
<title>Node8&#45;&gt;Node17</title>
<g id="a_edge18_Node000008_Node000017"><a xlink:title=" ">
<path fill="none" stroke="#63b8ff" d="M1188.39,-239.79C1103.07,-236.25 838.74,-223.69 621.38,-196.25 614.13,-195.33 606.53,-194.21 599.04,-192.99"/>
<polygon fill="#63b8ff" stroke="#63b8ff" points="599.72,-189.56 589.28,-191.34 598.56,-196.46 599.72,-189.56"/>
</a>
</g>
</g>
<!-- Node18 -->
<g id="Node000018" class="node">
<title>Node18</title>
<g id="a_Node000018"><a xlink:title=" ">
<polygon fill="#e0e0e0" stroke="#999999" points="730.75,-190.62 630,-190.62 630,-171.38 730.75,-171.38 730.75,-190.62"/>
<text text-anchor="middle" x="680.38" y="-177.12" font-family="Helvetica,sans-Serif" font-size="10.00">boost/uuid/uuid.hpp</text>
</a>
</g>
</g>
<!-- Node8&#45;&gt;Node18 -->
<g id="edge19_Node000008_Node000018" class="edge">
<title>Node8&#45;&gt;Node18</title>
<g id="a_edge19_Node000008_Node000018"><a xlink:title=" ">
<path fill="none" stroke="#63b8ff" d="M1188.5,-239.67C1114.76,-236.18 908.59,-224.45 739.38,-196.25 734.76,-195.48 729.96,-194.55 725.2,-193.53"/>
<polygon fill="#63b8ff" stroke="#63b8ff" points="726.21,-190.18 715.69,-191.39 724.67,-197 726.21,-190.18"/>
</a>
</g>
</g>
<!-- Node19 -->
<g id="Node000019" class="node">
<title>Node19</title>
<g id="a_Node000019"><a xlink:title=" ">
<polygon fill="#e0e0e0" stroke="#999999" points="900.25,-190.62 748.5,-190.62 748.5,-171.38 900.25,-171.38 900.25,-190.62"/>
<text text-anchor="middle" x="824.38" y="-177.12" font-family="Helvetica,sans-Serif" font-size="10.00">boost/uuid/uuid_generators.hpp</text>
</a>
</g>
</g>
<!-- Node8&#45;&gt;Node19 -->
<g id="edge20_Node000008_Node000019" class="edge">
<title>Node8&#45;&gt;Node19</title>
<g id="a_edge20_Node000008_Node000019"><a xlink:title=" ">
<path fill="none" stroke="#63b8ff" d="M1188.41,-237.02C1134.41,-229.52 1012.07,-212.32 909.38,-196.25 902.66,-195.2 895.66,-194.07 888.68,-192.93"/>
<polygon fill="#63b8ff" stroke="#63b8ff" points="889.33,-189.49 878.89,-191.32 888.19,-196.4 889.33,-189.49"/>
</a>
</g>
</g>
<!-- Node20 -->
<g id="Node000020" class="node">
<title>Node20</title>
<g id="a_Node000020"><a xlink:title=" ">
<polygon fill="#e0e0e0" stroke="#999999" points="1032.12,-190.62 918.62,-190.62 918.62,-171.38 1032.12,-171.38 1032.12,-190.62"/>
<text text-anchor="middle" x="975.38" y="-177.12" font-family="Helvetica,sans-Serif" font-size="10.00">boost/uuid/uuid_io.hpp</text>
</a>
</g>
</g>
<!-- Node8&#45;&gt;Node20 -->
<g id="edge21_Node000008_Node000020" class="edge">
<title>Node8&#45;&gt;Node20</title>
<g id="a_edge21_Node000008_Node000020"><a xlink:title=" ">
<path fill="none" stroke="#63b8ff" d="M1188.73,-234.12C1148.47,-224.29 1073.12,-205.88 1023.6,-193.78"/>
<polygon fill="#63b8ff" stroke="#63b8ff" points="1024.54,-190.41 1013.99,-191.43 1022.88,-197.21 1024.54,-190.41"/>
</a>
</g>
</g>
<!-- Node21 -->
<g id="Node000021" class="node">
<title>Node21</title>
<g id="a_Node000021"><a xlink:title=" ">
<polygon fill="#e0e0e0" stroke="#999999" points="1170.12,-196.25 1050.62,-196.25 1050.62,-165.75 1170.12,-165.75 1170.12,-196.25"/>
<text text-anchor="start" x="1058.62" y="-182.75" font-family="Helvetica,sans-Serif" font-size="10.00">boost/date_time/c_local</text>
<text text-anchor="middle" x="1110.38" y="-171.5" font-family="Helvetica,sans-Serif" font-size="10.00">_time_adjustor.hpp</text>
</a>
</g>
</g>
<!-- Node8&#45;&gt;Node21 -->
<g id="edge22_Node000008_Node000021" class="edge">
<title>Node8&#45;&gt;Node21</title>
<g id="a_edge22_Node000008_Node000021"><a xlink:title=" ">
<path fill="none" stroke="#63b8ff" d="M1200.28,-231.93C1186.07,-224.04 1164.85,-212.26 1146.59,-202.12"/>
<polygon fill="#63b8ff" stroke="#63b8ff" points="1148.3,-199.06 1137.86,-197.27 1144.9,-205.18 1148.3,-199.06"/>
</a>
</g>
</g>
<!-- Node8&#45;&gt;Node22 -->
<g id="edge23_Node000008_Node000022" class="edge">
<title>Node8&#45;&gt;Node22</title>
<g id="a_edge23_Node000008_Node000022"><a xlink:title=" ">
<path fill="none" stroke="#63b8ff" d="M1244.27,-240.33C1338.98,-238.21 1647.45,-228.9 1740.38,-196.25 1777.15,-183.33 1813.47,-155.44 1834.36,-137.51"/>
<polygon fill="#63b8ff" stroke="#63b8ff" points="1836.49,-140.3 1841.69,-131.07 1831.87,-135.05 1836.49,-140.3"/>
</a>
</g>
</g>
<!-- Node29 -->
<g id="Node000029" class="node">
<title>Node29</title>
<g id="a_Node000029"><a xlink:href="_h_d_f5_i_o_8hpp.html" target="_top" xlink:title=" ">
<polygon fill="white" stroke="#666666" points="1731.25,-190.62 1627.5,-190.62 1627.5,-171.38 1731.25,-171.38 1731.25,-190.62"/>
<text text-anchor="middle" x="1679.38" y="-177.12" font-family="Helvetica,sans-Serif" font-size="10.00">io/hdf5/HDF5IO.hpp</text>
</a>
</g>
</g>
<!-- Node8&#45;&gt;Node29 -->
<g id="edge34_Node000008_Node000029" class="edge">
<title>Node8&#45;&gt;Node29</title>
<g id="a_edge34_Node000008_Node000029"><a xlink:title=" ">
<path fill="none" stroke="#63b8ff" d="M1244.32,-237.52C1304.75,-230.25 1452.07,-212.36 1575.38,-196.25 1588.5,-194.53 1602.56,-192.65 1615.95,-190.82"/>
<polygon fill="#63b8ff" stroke="#63b8ff" points="1616.09,-194.33 1625.52,-189.51 1615.14,-187.4 1616.09,-194.33"/>
</a>
</g>
</g>
<!-- Node22&#45;&gt;Node2 -->
<g id="edge28_Node000022_Node000002" class="edge">
<title>Node22&#45;&gt;Node2</title>
<g id="a_edge28_Node000022_Node000002"><a xlink:title=" ">
<path fill="none" stroke="#63b8ff" d="M1812.89,-111.55C1810.01,-111.14 1807.15,-110.79 1804.38,-110.5 1485.81,-77.6 440.16,-67.7 244.18,-66.12"/>
<polygon fill="#63b8ff" stroke="#63b8ff" points="244.3,-62.62 234.27,-66.04 244.25,-69.62 244.3,-62.62"/>
</a>
</g>
</g>
<!-- Node22&#45;&gt;Node5 -->
<g id="edge33_Node000022_Node000005" class="edge">
<title>Node22&#45;&gt;Node5</title>
<g id="a_edge33_Node000022_Node000005"><a xlink:title=" ">
<path fill="none" stroke="#63b8ff" d="M1812.86,-111.8C1809.99,-111.34 1807.14,-110.9 1804.38,-110.5 1662.77,-90.03 1623,-97.95 1478.98,-74.77"/>
<polygon fill="#63b8ff" stroke="#63b8ff" points="1479.9,-71.37 1469.46,-73.21 1478.77,-78.28 1479.9,-71.37"/>
</a>
</g>
</g>
<!-- Node22&#45;&gt;Node7 -->
<g id="edge31_Node000022_Node000007" class="edge">
<title>Node22&#45;&gt;Node7</title>
<g id="a_edge31_Node000022_Node000007"><a xlink:title=" ">
<path fill="none" stroke="#63b8ff" d="M1868.32,-110.07C1888.41,-97.53 1918.48,-74.27 1902.38,-55.25 1872.71,-20.22 1732.86,-12.67 1668.25,-11.05"/>
<polygon fill="#63b8ff" stroke="#63b8ff" points="1668.69,-7.56 1658.61,-10.85 1668.54,-14.56 1668.69,-7.56"/>
</a>
</g>
</g>
<!-- Node22&#45;&gt;Node12 -->
<g id="edge25_Node000022_Node000012" class="edge">
<title>Node22&#45;&gt;Node12</title>
<g id="a_edge25_Node000022_Node000012"><a xlink:title=" ">
<path fill="none" stroke="#63b8ff" d="M1812.84,-111.89C1809.98,-111.4 1807.13,-110.94 1804.38,-110.5 1690.95,-92.58 1658.4,-97.62 1542.47,-74.68"/>
<polygon fill="#63b8ff" stroke="#63b8ff" points="1543.34,-71.28 1532.85,-72.75 1541.96,-78.15 1543.34,-71.28"/>
</a>
</g>
</g>
<!-- Node23 -->
<g id="Node000023" class="node">
<title>Node23</title>
<g id="a_Node000023"><a xlink:title=" ">
<polygon fill="#e0e0e0" stroke="#999999" points="1767.25,-74.5 1735.5,-74.5 1735.5,-55.25 1767.25,-55.25 1767.25,-74.5"/>
<text text-anchor="middle" x="1751.38" y="-61" font-family="Helvetica,sans-Serif" font-size="10.00">any</text>
</a>
</g>
</g>
<!-- Node22&#45;&gt;Node23 -->
<g id="edge24_Node000022_Node000023" class="edge">
<title>Node22&#45;&gt;Node23</title>
<g id="a_edge24_Node000022_Node000023"><a xlink:title=" ">
<path fill="none" stroke="#63b8ff" d="M1835.24,-110.09C1819.43,-101.76 1795.73,-89.26 1777.55,-79.68"/>
<polygon fill="#63b8ff" stroke="#63b8ff" points="1779.41,-76.7 1768.93,-75.13 1776.14,-82.89 1779.41,-76.7"/>
</a>
</g>
</g>
<!-- Node24 -->
<g id="Node000024" class="node">
<title>Node24</title>
<g id="a_Node000024"><a xlink:title=" ">
<polygon fill="#e0e0e0" stroke="#999999" points="1717.12,-74.5 1663.62,-74.5 1663.62,-55.25 1717.12,-55.25 1717.12,-74.5"/>
<text text-anchor="middle" x="1690.38" y="-61" font-family="Helvetica,sans-Serif" font-size="10.00">iostream</text>
</a>
</g>
</g>
<!-- Node22&#45;&gt;Node24 -->
<g id="edge26_Node000022_Node000024" class="edge">
<title>Node22&#45;&gt;Node24</title>
<g id="a_edge26_Node000022_Node000024"><a xlink:title=" ">
<path fill="none" stroke="#63b8ff" d="M1824.89,-110.09C1798.32,-101.36 1757.83,-88.05 1728.22,-78.31"/>
<polygon fill="#63b8ff" stroke="#63b8ff" points="1729.48,-75.05 1718.89,-75.25 1727.3,-81.7 1729.48,-75.05"/>
</a>
</g>
</g>
<!-- Node25 -->
<g id="Node000025" class="node">
<title>Node25</title>
<g id="a_Node000025"><a xlink:title=" ">
<polygon fill="#e0e0e0" stroke="#999999" points="2001,-74.5 1949.75,-74.5 1949.75,-55.25 2001,-55.25 2001,-74.5"/>
<text text-anchor="middle" x="1975.38" y="-61" font-family="Helvetica,sans-Serif" font-size="10.00">memory</text>
</a>
</g>
</g>
<!-- Node22&#45;&gt;Node25 -->
<g id="edge27_Node000022_Node000025" class="edge">
<title>Node22&#45;&gt;Node25</title>
<g id="a_edge27_Node000022_Node000025"><a xlink:title=" ">
<path fill="none" stroke="#63b8ff" d="M1873.24,-110.09C1892.68,-101.68 1921.92,-89.02 1944.14,-79.4"/>
<polygon fill="#63b8ff" stroke="#63b8ff" points="1945.23,-82.74 1953.02,-75.55 1942.45,-76.31 1945.23,-82.74"/>
</a>
</g>
</g>
<!-- Node26 -->
<g id="Node000026" class="node">
<title>Node26</title>
<g id="a_Node000026"><a xlink:title=" ">
<polygon fill="#e0e0e0" stroke="#999999" points="2101.75,-74.5 2019,-74.5 2019,-55.25 2101.75,-55.25 2101.75,-74.5"/>
<text text-anchor="middle" x="2060.38" y="-61" font-family="Helvetica,sans-Serif" font-size="10.00">unordered_map</text>
</a>
</g>
</g>
<!-- Node22&#45;&gt;Node26 -->
<g id="edge29_Node000022_Node000026" class="edge">
<title>Node22&#45;&gt;Node26</title>
<g id="a_edge29_Node000022_Node000026"><a xlink:title=" ">
<path fill="none" stroke="#63b8ff" d="M1887.66,-110.09C1922.47,-101.18 1975.88,-87.51 2014.08,-77.73"/>
<polygon fill="#63b8ff" stroke="#63b8ff" points="2014.63,-81.2 2023.45,-75.33 2012.9,-74.42 2014.63,-81.2"/>
</a>
</g>
</g>
<!-- Node27 -->
<g id="Node000027" class="node">
<title>Node27</title>
<g id="a_Node000027"><a xlink:title=" ">
<polygon fill="#e0e0e0" stroke="#999999" points="2197.12,-74.5 2119.62,-74.5 2119.62,-55.25 2197.12,-55.25 2197.12,-74.5"/>
<text text-anchor="middle" x="2158.38" y="-61" font-family="Helvetica,sans-Serif" font-size="10.00">unordered_set</text>
</a>
</g>
</g>
<!-- Node22&#45;&gt;Node27 -->
<g id="edge30_Node000022_Node000027" class="edge">
<title>Node22&#45;&gt;Node27</title>
<g id="a_edge30_Node000022_Node000027"><a xlink:title=" ">
<path fill="none" stroke="#63b8ff" d="M1891.73,-112.4C1940.16,-104.11 2025.22,-89.48 2108.19,-74.88"/>
<polygon fill="#63b8ff" stroke="#63b8ff" points="2108.61,-78.36 2117.86,-73.17 2107.4,-71.46 2108.61,-78.36"/>
</a>
</g>
</g>
<!-- Node28 -->
<g id="Node000028" class="node">
<title>Node28</title>
<g id="a_Node000028"><a xlink:title=" ">
<polygon fill="#e0e0e0" stroke="#999999" points="1893.5,-74.5 1785.25,-74.5 1785.25,-55.25 1893.5,-55.25 1893.5,-74.5"/>
<text text-anchor="middle" x="1839.38" y="-61" font-family="Helvetica,sans-Serif" font-size="10.00">boost/multi_array.hpp</text>
</a>
</g>
</g>
<!-- Node22&#45;&gt;Node28 -->
<g id="edge32_Node000022_Node000028" class="edge">
<title>Node22&#45;&gt;Node28</title>
<g id="a_edge32_Node000022_Node000028"><a xlink:title=" ">
<path fill="none" stroke="#63b8ff" d="M1850.23,-110.33C1848.6,-103.67 1846.3,-94.24 1844.23,-85.78"/>
<polygon fill="#63b8ff" stroke="#63b8ff" points="1847.7,-85.21 1841.93,-76.33 1840.9,-86.87 1847.7,-85.21"/>
</a>
</g>
</g>
<!-- Node29&#45;&gt;Node2 -->
<g id="edge37_Node000029_Node000002" class="edge">
<title>Node29&#45;&gt;Node2</title>
<g id="a_edge37_Node000029_Node000002"><a xlink:title=" ">
<path fill="none" stroke="#63b8ff" d="M1627.31,-175.7C1592.51,-172.85 1545.7,-169.03 1504.38,-165.75 1001.53,-125.84 388.42,-79.23 243.93,-68.27"/>
<polygon fill="#63b8ff" stroke="#63b8ff" points="244.24,-64.78 234.01,-67.51 243.72,-71.76 244.24,-64.78"/>
</a>
</g>
</g>
<!-- Node29&#45;&gt;Node5 -->
<g id="edge39_Node000029_Node000005" class="edge">
<title>Node29&#45;&gt;Node5</title>
<g id="a_edge39_Node000029_Node000005"><a xlink:title=" ">
<path fill="none" stroke="#63b8ff" d="M1660.39,-171.04C1618.34,-151.22 1517.15,-103.5 1466.82,-79.76"/>
<polygon fill="#63b8ff" stroke="#63b8ff" points="1468.52,-76.69 1457.98,-75.59 1465.53,-83.02 1468.52,-76.69"/>
</a>
</g>
</g>
<!-- Node29&#45;&gt;Node22 -->
<g id="edge40_Node000029_Node000022" class="edge">
<title>Node29&#45;&gt;Node22</title>
<g id="a_edge40_Node000029_Node000022"><a xlink:title=" ">
<path fill="none" stroke="#63b8ff" d="M1706.03,-170.93C1735.24,-160.99 1782.3,-144.97 1815.15,-133.79"/>
<polygon fill="#63b8ff" stroke="#63b8ff" points="1815.92,-137.23 1824.26,-130.69 1813.67,-130.6 1815.92,-137.23"/>
</a>
</g>
</g>
<!-- Node29&#45;&gt;Node24 -->
<g id="edge35_Node000029_Node000024" class="edge">
<title>Node29&#45;&gt;Node24</title>
<g id="a_edge35_Node000029_Node000024"><a xlink:title=" ">
<path fill="none" stroke="#63b8ff" d="M1680.24,-171.04C1681.99,-152.88 1686,-111.29 1688.42,-86.2"/>
<polygon fill="#63b8ff" stroke="#63b8ff" points="1691.9,-86.58 1689.37,-76.3 1684.93,-85.91 1691.9,-86.58"/>
</a>
</g>
</g>
<!-- Node29&#45;&gt;Node25 -->
<g id="edge36_Node000029_Node000025" class="edge">
<title>Node29&#45;&gt;Node25</title>
<g id="a_edge36_Node000029_Node000025"><a xlink:title=" ">
<path fill="none" stroke="#63b8ff" d="M1731.32,-175.3C1777.68,-169.48 1846.38,-156.81 1900.38,-129.75 1923.67,-118.07 1945.81,-97.67 1959.91,-83.06"/>
<polygon fill="#63b8ff" stroke="#63b8ff" points="1962.28,-85.65 1966.56,-75.95 1957.17,-80.87 1962.28,-85.65"/>
</a>
</g>
</g>
<!-- Node30 -->
<g id="Node000030" class="node">
<title>Node30</title>
<g id="a_Node000030"><a xlink:title=" ">
<polygon fill="#e0e0e0" stroke="#999999" points="1659.38,-129.75 1589.38,-129.75 1589.38,-110.5 1659.38,-110.5 1659.38,-129.75"/>
<text text-anchor="middle" x="1624.38" y="-116.25" font-family="Helvetica,sans-Serif" font-size="10.00">H5Opublic.h</text>
</a>
</g>
</g>
<!-- Node29&#45;&gt;Node30 -->
<g id="edge38_Node000029_Node000030" class="edge">
<title>Node29&#45;&gt;Node30</title>
<g id="a_edge38_Node000029_Node000030"><a xlink:title=" ">
<path fill="none" stroke="#63b8ff" d="M1671.02,-171.06C1662.95,-162.41 1650.5,-149.09 1640.49,-138.37"/>
<polygon fill="#63b8ff" stroke="#63b8ff" points="1643.22,-136.18 1633.84,-131.26 1638.11,-140.95 1643.22,-136.18"/>
</a>
</g>
</g>
<!-- Node29&#45;&gt;Node31 -->
<g id="edge41_Node000029_Node000031" class="edge">
<title>Node29&#45;&gt;Node31</title>
<g id="a_edge41_Node000029_Node000031"><a xlink:title=" ">
<path fill="none" stroke="#63b8ff" d="M1690.92,-171.06C1702.52,-162.07 1720.67,-148.01 1734.75,-137.1"/>
<polygon fill="#63b8ff" stroke="#63b8ff" points="1736.77,-139.97 1742.53,-131.08 1732.48,-134.44 1736.77,-139.97"/>
</a>
</g>
</g>
<!-- Node31&#45;&gt;Node2 -->
<g id="edge46_Node000031_Node000002" class="edge">
<title>Node31&#45;&gt;Node2</title>
<g id="a_edge46_Node000031_Node000002"><a xlink:title=" ">
<path fill="none" stroke="#63b8ff" d="M1715.58,-114.6C1700.77,-113.07 1683.82,-111.5 1668.38,-110.5 1097.71,-73.51 399.17,-67.05 243.92,-66.05"/>
<polygon fill="#63b8ff" stroke="#63b8ff" points="244.05,-62.55 234.02,-65.98 244,-69.55 244.05,-62.55"/>
</a>
</g>
</g>
<!-- Node31&#45;&gt;Node5 -->
<g id="edge50_Node000031_Node000005" class="edge">
<title>Node31&#45;&gt;Node5</title>
<g id="a_edge50_Node000031_Node000005"><a xlink:title=" ">
<path fill="none" stroke="#63b8ff" d="M1715.51,-113.51C1663.43,-106 1569.13,-91.84 1479.22,-74.95"/>
<polygon fill="#63b8ff" stroke="#63b8ff" points="1479.96,-71.53 1469.48,-73.11 1478.66,-78.41 1479.96,-71.53"/>
</a>
</g>
</g>
<!-- Node31&#45;&gt;Node7 -->
<g id="edge48_Node000031_Node000007" class="edge">
<title>Node31&#45;&gt;Node7</title>
<g id="a_edge48_Node000031_Node000007"><a xlink:title=" ">
<path fill="none" stroke="#63b8ff" d="M1715.54,-110.16C1694.66,-103.55 1670.21,-92.48 1654.38,-74.5 1643.72,-62.4 1639.04,-44.55 1636.98,-30.79"/>
<polygon fill="#63b8ff" stroke="#63b8ff" points="1640.48,-30.65 1635.9,-21.09 1633.53,-31.42 1640.48,-30.65"/>
</a>
</g>
</g>
<!-- Node31&#45;&gt;Node12 -->
<g id="edge43_Node000031_Node000012" class="edge">
<title>Node31&#45;&gt;Node12</title>
<g id="a_edge43_Node000031_Node000012"><a xlink:title=" ">
<path fill="none" stroke="#63b8ff" d="M1715.59,-111.59C1674.6,-103.67 1608.62,-90.48 1542.45,-74.88"/>
<polygon fill="#63b8ff" stroke="#63b8ff" points="1543.42,-71.51 1532.88,-72.61 1541.8,-78.32 1543.42,-71.51"/>
</a>
</g>
</g>
<!-- Node31&#45;&gt;Node23 -->
<g id="edge42_Node000031_Node000023" class="edge">
<title>Node31&#45;&gt;Node23</title>
<g id="a_edge42_Node000031_Node000023"><a xlink:title=" ">
<path fill="none" stroke="#63b8ff" d="M1754.71,-110.33C1754.22,-103.74 1753.52,-94.46 1752.89,-86.07"/>
<polygon fill="#63b8ff" stroke="#63b8ff" points="1756.4,-86.08 1752.16,-76.37 1749.42,-86.6 1756.4,-86.08"/>
</a>
</g>
</g>
<!-- Node31&#45;&gt;Node24 -->
<g id="edge44_Node000031_Node000024" class="edge">
<title>Node31&#45;&gt;Node24</title>
<g id="a_edge44_Node000031_Node000024"><a xlink:title=" ">
<path fill="none" stroke="#63b8ff" d="M1744.35,-110.09C1734.95,-102.4 1721.23,-91.15 1709.97,-81.93"/>
<polygon fill="#63b8ff" stroke="#63b8ff" points="1712.36,-79.36 1702.41,-75.73 1707.93,-84.78 1712.36,-79.36"/>
</a>
</g>
</g>
<!-- Node31&#45;&gt;Node25 -->
<g id="edge45_Node000031_Node000025" class="edge">
<title>Node31&#45;&gt;Node25</title>
<g id="a_edge45_Node000031_Node000025"><a xlink:title=" ">
<path fill="none" stroke="#63b8ff" d="M1792.7,-110.09C1833.28,-100.27 1897.77,-84.66 1938.27,-74.85"/>
<polygon fill="#63b8ff" stroke="#63b8ff" points="1938.91,-78.3 1947.8,-72.55 1937.26,-71.5 1938.91,-78.3"/>
</a>
</g>
</g>
<!-- Node31&#45;&gt;Node28 -->
<g id="edge49_Node000031_Node000028" class="edge">
<title>Node31&#45;&gt;Node28</title>
<g id="a_edge49_Node000031_Node000028"><a xlink:title=" ">
<path fill="none" stroke="#63b8ff" d="M1769.62,-110.09C1782.17,-102.14 1800.71,-90.39 1815.52,-81"/>
<polygon fill="#63b8ff" stroke="#63b8ff" points="1817.21,-84.07 1823.78,-75.76 1813.46,-78.16 1817.21,-84.07"/>
</a>
</g>
</g>
<!-- Node32 -->
<g id="Node000032" class="node">
<title>Node32</title>
<g id="a_Node000032"><a xlink:title=" ">
<polygon fill="#e0e0e0" stroke="#999999" points="1607.38,-74.5 1549.38,-74.5 1549.38,-55.25 1607.38,-55.25 1607.38,-74.5"/>
<text text-anchor="middle" x="1578.38" y="-61" font-family="Helvetica,sans-Serif" font-size="10.00">typeindex</text>
</a>
</g>
</g>
<!-- Node31&#45;&gt;Node32 -->
<g id="edge47_Node000031_Node000032" class="edge">
<title>Node31&#45;&gt;Node32</title>
<g id="a_edge47_Node000031_Node000032"><a xlink:title=" ">
<path fill="none" stroke="#63b8ff" d="M1725.35,-110.09C1695.97,-101.25 1651.03,-87.73 1618.58,-77.97"/>
<polygon fill="#63b8ff" stroke="#63b8ff" points="1619.7,-74.65 1609.11,-75.12 1617.68,-81.35 1619.7,-74.65"/>
</a>
</g>
</g>
<!-- Node33&#45;&gt;Node2 -->
<g id="edge55_Node000033_Node000002" class="edge">
<title>Node33&#45;&gt;Node2</title>
<g id="a_edge55_Node000033_Node000002"><a xlink:title=" ">
<path fill="none" stroke="#63b8ff" d="M1458.34,-405.88C1184.12,-401.87 136.38,-377.75 136.38,-242.88 136.38,-242.88 136.38,-242.88 136.38,-180 136.38,-139.62 169.74,-102.65 192.26,-82.29"/>
<polygon fill="#63b8ff" stroke="#63b8ff" points="194.42,-85.05 199.69,-75.85 189.84,-79.76 194.42,-85.05"/>
</a>
</g>
</g>
<!-- Node33&#45;&gt;Node8 -->
<g id="edge56_Node000033_Node000008" class="edge">
<title>Node33&#45;&gt;Node8</title>
<g id="a_edge56_Node000033_Node000008"><a xlink:title=" ">
<path fill="none" stroke="#63b8ff" d="M1506.43,-397.59C1455.8,-370.58 1305.3,-290.31 1243.41,-257.3"/>
<polygon fill="#63b8ff" stroke="#63b8ff" points="1245.07,-254.21 1234.6,-252.6 1241.78,-260.39 1245.07,-254.21"/>
</a>
</g>
</g>
<!-- Node33&#45;&gt;Node12 -->
<g id="edge54_Node000033_Node000012" class="edge">
<title>Node33&#45;&gt;Node12</title>
<g id="a_edge54_Node000033_Node000012"><a xlink:title=" ">
<path fill="none" stroke="#63b8ff" d="M1523.38,-397.62C1523.38,-379.03 1523.38,-335.05 1523.38,-298.12 1523.38,-298.12 1523.38,-298.12 1523.38,-240.88 1523.38,-184.61 1515.58,-118.55 1511.23,-86.03"/>
<polygon fill="#63b8ff" stroke="#63b8ff" points="1514.74,-85.89 1509.91,-76.46 1507.81,-86.84 1514.74,-85.89"/>
</a>
</g>
</g>
<!-- Node33&#45;&gt;Node22 -->
<g id="edge57_Node000033_Node000022" class="edge">
<title>Node33&#45;&gt;Node22</title>
<g id="a_edge57_Node000033_Node000022"><a xlink:title=" ">
<path fill="none" stroke="#63b8ff" d="M1588.46,-402.68C1673.75,-396.74 1818.16,-383.8 1866.38,-362 1900.31,-346.66 1914,-340.67 1929.38,-306.75 1946.6,-268.74 1962.98,-281.67 1896.38,-165.75 1890.32,-155.22 1881.18,-145.39 1872.8,-137.65"/>
<polygon fill="#63b8ff" stroke="#63b8ff" points="1875.16,-135.06 1865.32,-131.13 1870.56,-140.34 1875.16,-135.06"/>
</a>
</g>
</g>
<!-- Node33&#45;&gt;Node31 -->
<g id="edge58_Node000033_Node000031" class="edge">
<title>Node33&#45;&gt;Node31</title>
<g id="a_edge58_Node000033_Node000031"><a xlink:title=" ">
<path fill="none" stroke="#63b8ff" d="M1532.91,-397.68C1573.91,-359.19 1733.38,-209.09 1740.38,-196.25 1749.72,-179.11 1753.28,-156.93 1754.61,-141.12"/>
<polygon fill="#63b8ff" stroke="#63b8ff" points="1758.08,-141.73 1755.19,-131.54 1751.1,-141.32 1758.08,-141.73"/>
</a>
</g>
</g>
<!-- Node34 -->
<g id="Node000034" class="node">
<title>Node34</title>
<g id="a_Node000034"><a xlink:href="_container_8hpp.html" target="_top" xlink:title=" ">
<polygon fill="white" stroke="#666666" points="1857.25,-362 1711.5,-362 1711.5,-342.75 1857.25,-342.75 1857.25,-362"/>
<text text-anchor="middle" x="1784.38" y="-348.5" font-family="Helvetica,sans-Serif" font-size="10.00">nwb/hdmf/base/Container.hpp</text>
</a>
</g>
</g>
<!-- Node33&#45;&gt;Node34 -->
<g id="edge59_Node000033_Node000034" class="edge">
<title>Node33&#45;&gt;Node34</title>
<g id="a_edge59_Node000033_Node000034"><a xlink:title=" ">
<path fill="none" stroke="#63b8ff" d="M1567.95,-397.53C1612.43,-388.46 1680.88,-374.49 1728.87,-364.7"/>
<polygon fill="#63b8ff" stroke="#63b8ff" points="1729.41,-368.16 1738.5,-362.73 1728.01,-361.3 1729.41,-368.16"/>
</a>
</g>
</g>
<!-- Node34&#45;&gt;Node2 -->
<g id="edge61_Node000034_Node000002" class="edge">
<title>Node34&#45;&gt;Node2</title>
<g id="a_edge61_Node000034_Node000002"><a xlink:title=" ">
<path fill="none" stroke="#63b8ff" d="M1711.01,-350.32C1396.05,-345.34 174.38,-320.97 174.38,-242.88 174.38,-242.88 174.38,-242.88 174.38,-180 174.38,-145.15 190.53,-107.23 201.77,-85.06"/>
<polygon fill="#63b8ff" stroke="#63b8ff" points="204.8,-86.81 206.38,-76.34 198.61,-83.54 204.8,-86.81"/>
</a>
</g>
</g>
<!-- Node34&#45;&gt;Node25 -->
<g id="edge60_Node000034_Node000025" class="edge">
<title>Node34&#45;&gt;Node25</title>
<g id="a_edge60_Node000034_Node000025"><a xlink:title=" ">
<path fill="none" stroke="#63b8ff" d="M1857.46,-343.34C1883.16,-337.09 1910.35,-326.09 1929.38,-306.75 1989.28,-245.84 1983.53,-132.42 1978.25,-86.24"/>
<polygon fill="#63b8ff" stroke="#63b8ff" points="1981.73,-85.84 1976.99,-76.36 1974.79,-86.73 1981.73,-85.84"/>
</a>
</g>
</g>
<!-- Node35 -->
<g id="Node000035" class="node">
<title>Node35</title>
<g id="a_Node000035"><a xlink:href="_registered_type_8hpp.html" target="_top" xlink:title=" ">
<polygon fill="white" stroke="#666666" points="1920.38,-306.75 1796.38,-306.75 1796.38,-287.5 1920.38,-287.5 1920.38,-306.75"/>
<text text-anchor="middle" x="1858.38" y="-293.25" font-family="Helvetica,sans-Serif" font-size="10.00">nwb/RegisteredType.hpp</text>
</a>
</g>
</g>
<!-- Node34&#45;&gt;Node35 -->
<g id="edge62_Node000034_Node000035" class="edge">
<title>Node34&#45;&gt;Node35</title>
<g id="a_edge62_Node000034_Node000035"><a xlink:title=" ">
<path fill="none" stroke="#63b8ff" d="M1796.93,-342.34C1807.84,-334.49 1823.88,-322.95 1836.84,-313.62"/>
<polygon fill="#63b8ff" stroke="#63b8ff" points="1838.71,-316.59 1844.78,-307.91 1834.62,-310.91 1838.71,-316.59"/>
</a>
</g>
</g>
<!-- Node35&#45;&gt;Node2 -->
<g id="edge65_Node000035_Node000002" class="edge">
<title>Node35&#45;&gt;Node2</title>
<g id="a_edge65_Node000035_Node000002"><a xlink:title=" ">
<path fill="none" stroke="#63b8ff" d="M1795.96,-296.32C1514.63,-296.66 372.73,-292.09 248.38,-196.25 214.68,-170.28 210.65,-115.76 211.17,-86.12"/>
<polygon fill="#63b8ff" stroke="#63b8ff" points="214.66,-86.41 211.56,-76.27 207.66,-86.13 214.66,-86.41"/>
</a>
</g>
</g>
<!-- Node35&#45;&gt;Node5 -->
<g id="edge68_Node000035_Node000005" class="edge">
<title>Node35&#45;&gt;Node5</title>
<g id="a_edge68_Node000035_Node000005"><a xlink:title=" ">
<path fill="none" stroke="#63b8ff" d="M1831.16,-287.11C1785.65,-271.54 1691.86,-237.29 1618.38,-196.25 1555.56,-161.17 1488.59,-108.34 1456.58,-82"/>
<polygon fill="#63b8ff" stroke="#63b8ff" points="1458.91,-79.39 1448.98,-75.69 1454.44,-84.77 1458.91,-79.39"/>
</a>
</g>
</g>
<!-- Node35&#45;&gt;Node8 -->
<g id="edge69_Node000035_Node000008" class="edge">
<title>Node35&#45;&gt;Node8</title>
<g id="a_edge69_Node000035_Node000008"><a xlink:title=" ">
<path fill="none" stroke="#63b8ff" d="M1795.94,-290.95C1664.59,-280.05 1362.92,-255.03 1255.36,-246.11"/>
<polygon fill="#63b8ff" stroke="#63b8ff" points="1255.86,-242.64 1245.61,-245.3 1255.28,-249.61 1255.86,-242.64"/>
</a>
</g>
</g>
<!-- Node35&#45;&gt;Node22 -->
<g id="edge70_Node000035_Node000022" class="edge">
<title>Node35&#45;&gt;Node22</title>
<g id="a_edge70_Node000035_Node000022"><a xlink:title=" ">
<path fill="none" stroke="#63b8ff" d="M1866.59,-287.01C1873.66,-278.52 1883.33,-265.14 1887.38,-251.5 1899.09,-211.96 1878.17,-165.18 1863.94,-139.79"/>
<polygon fill="#63b8ff" stroke="#63b8ff" points="1867.04,-138.17 1858.95,-131.33 1861.01,-141.72 1867.04,-138.17"/>
</a>
</g>
</g>
<!-- Node35&#45;&gt;Node25 -->
<g id="edge64_Node000035_Node000025" class="edge">
<title>Node35&#45;&gt;Node25</title>
<g id="a_edge64_Node000035_Node000025"><a xlink:title=" ">
<path fill="none" stroke="#63b8ff" d="M1869.69,-287.27C1879.69,-278.94 1894.09,-265.67 1903.38,-251.5 1939.3,-196.64 1961.52,-121.16 1970.62,-85.74"/>
<polygon fill="#63b8ff" stroke="#63b8ff" points="1974,-86.63 1973.01,-76.08 1967.21,-84.95 1974,-86.63"/>
</a>
</g>
</g>
<!-- Node35&#45;&gt;Node26 -->
<g id="edge66_Node000035_Node000026" class="edge">
<title>Node35&#45;&gt;Node26</title>
<g id="a_edge66_Node000035_Node000026"><a xlink:title=" ">
<path fill="none" stroke="#63b8ff" d="M1874.16,-287.11C1887.81,-278.88 1907.6,-265.84 1922.38,-251.5 1978.01,-197.53 2028.21,-119.41 2049.53,-84.25"/>
<polygon fill="#63b8ff" stroke="#63b8ff" points="2052.29,-86.46 2054.42,-76.08 2046.28,-82.87 2052.29,-86.46"/>
</a>
</g>
</g>
<!-- Node35&#45;&gt;Node27 -->
<g id="edge67_Node000035_Node000027" class="edge">
<title>Node35&#45;&gt;Node27</title>
<g id="a_edge67_Node000035_Node000027"><a xlink:title=" ">
<path fill="none" stroke="#63b8ff" d="M1879.57,-287.02C1897.7,-278.82 1924.15,-265.88 1945.38,-251.5 2024.78,-197.71 2107.14,-117.8 2141.63,-83.05"/>
<polygon fill="#63b8ff" stroke="#63b8ff" points="2144.1,-85.53 2148.62,-75.95 2139.11,-80.61 2144.1,-85.53"/>
</a>
</g>
</g>
<!-- Node35&#45;&gt;Node31 -->
<g id="edge71_Node000035_Node000031" class="edge">
<title>Node35&#45;&gt;Node31</title>
<g id="a_edge71_Node000035_Node000031"><a xlink:title=" ">
<path fill="none" stroke="#63b8ff" d="M1859.21,-287.18C1860.08,-274.58 1860.56,-251.03 1854.38,-232.25 1843.36,-198.82 1835,-191.84 1811.38,-165.75 1801.54,-154.89 1788.88,-144.56 1778.09,-136.59"/>
<polygon fill="#63b8ff" stroke="#63b8ff" points="1780.24,-133.82 1770.07,-130.86 1776.17,-139.52 1780.24,-133.82"/>
</a>
</g>
</g>
<!-- Node36 -->
<g id="Node000036" class="node">
<title>Node36</title>
<g id="a_Node000036"><a xlink:title=" ">
<polygon fill="#e0e0e0" stroke="#999999" points="1845.38,-251.5 1787.38,-251.5 1787.38,-232.25 1845.38,-232.25 1845.38,-251.5"/>
<text text-anchor="middle" x="1816.38" y="-238" font-family="Helvetica,sans-Serif" font-size="10.00">functional</text>
</a>
</g>
</g>
<!-- Node35&#45;&gt;Node36 -->
<g id="edge63_Node000035_Node000036" class="edge">
<title>Node35&#45;&gt;Node36</title>
<g id="a_edge63_Node000035_Node000036"><a xlink:title=" ">
<path fill="none" stroke="#63b8ff" d="M1851.44,-287.33C1845.76,-280.13 1837.54,-269.71 1830.48,-260.76"/>
<polygon fill="#63b8ff" stroke="#63b8ff" points="1833.34,-258.73 1824.4,-253.05 1827.84,-263.07 1833.34,-258.73"/>
</a>
</g>
</g>
</g>
</svg>

<g id="navigator" transform="translate(0 0)" fill="#404254">
  <rect fill="#f2f5e9" fill-opacity="0.5" stroke="#606060" stroke-width=".5" x="0" y="0" width="60" height="60"/>
  <use id="zoomplus" xlink:href="#zoomPlus" x="17" y="9" onmousedown="handleZoom(evt,'in')"/>
  <use id="zoomminus" xlink:href="#zoomMin" x="42" y="9" onmousedown="handleZoom(evt,'out')"/>
  <use id="reset" xlink:href="#resetDef" x="30" y="36" onmousedown="handleReset()"/>
   <use id="arrowup" xlink:href="#arrowUp" x="0" y="0" onmousedown="handlePan(0,-1)"/>
  <use id="arrowright" xlink:href="#arrowRight" x="0" y="0" onmousedown="handlePan(1,0)"/>
  <use id="arrowdown" xlink:href="#arrowDown" x="0" y="0" onmousedown="handlePan(0,1)"/>
  <use id="arrowleft" xlink:href="#arrowLeft" x="0" y="0" onmousedown="handlePan(-1,0)"/>
</g>
<svg viewBox="0 0 15 15" width="100%" height="30px" preserveAspectRatio="xMaxYMin meet">
 <g id="arrow_out" transform="scale(0.3 0.3)">
  <a xlink:href="_electrical_series_8hpp__incl_org.svg" target="_base">
   <rect id="button" ry="5" rx="5" y="6" x="6" height="38" width="38"
        fill="#f2f5e9" fill-opacity="0.5" stroke="#606060" stroke-width="1.0"/>
   <path id="arrow"
     d="M 11.500037,31.436501 C 11.940474,20.09759 22.043105,11.32322 32.158766,21.979434 L 37.068811,17.246167 C 37.068811,17.246167 37.088388,32 37.088388,32 L 22.160133,31.978069 C 22.160133,31.978069 26.997745,27.140456 26.997745,27.140456 C 18.528582,18.264221 13.291696,25.230495 11.500037,31.436501 z"
     style="fill:#404040;"/>
  </a>
 </g>
</svg>

<style type='text/css'>
<![CDATA[
[data-mouse-over-selected='false'] { opacity: 0.7; }
[data-mouse-over-selected='true']  { opacity: 1.0; }
]]>
</style>
<script type="application/ecmascript"><![CDATA[
document.addEventListener('DOMContentLoaded', (event) => {
  highlightEdges();
  highlightAdjacentNodes();
});
]]></script>
</svg>
