<?xml version="1.0" encoding="UTF-8" standalone="no"?>
<!DOCTYPE svg PUBLIC "-//W3C//DTD SVG 1.1//EN"
 "http://www.w3.org/Graphics/SVG/1.1/DTD/svg11.dtd">
<!-- Generated by graphviz version 12.1.1 (20240910.0053)
 -->
<!-- Title: src/nwb/file/ElectrodeGroup.hpp Pages: 1 -->
<svg width="388pt" height="304pt"
 viewBox="0.00 0.00 387.84 303.50" xmlns="http://www.w3.org/2000/svg" xmlns:xlink="http://www.w3.org/1999/xlink">
<g id="graph0" class="graph" transform="scale(1 1) rotate(0) translate(4 299.5)">
<title>src/nwb/file/ElectrodeGroup.hpp</title>
<!-- Node1 -->
<g id="Node000001" class="node">
<title>Node1</title>
<g id="a_Node000001"><a xlink:title=" ">
<polygon fill="#999999" stroke="#666666" points="319.5,-295.5 164,-295.5 164,-276.25 319.5,-276.25 319.5,-295.5"/>
<text text-anchor="middle" x="241.75" y="-282" font-family="Helvetica,sans-Serif" font-size="10.00">src/nwb/file/ElectrodeGroup.hpp</text>
</a>
</g>
</g>
<!-- Node2 -->
<g id="Node000002" class="node">
<title>Node2</title>
<g id="a_Node000002"><a xlink:title=" ">
<polygon fill="#e0e0e0" stroke="#999999" points="371.75,-74.5 331.75,-74.5 331.75,-55.25 371.75,-55.25 371.75,-74.5"/>
<text text-anchor="middle" x="351.75" y="-61" font-family="Helvetica,sans-Serif" font-size="10.00">string</text>
</a>
</g>
</g>
<!-- Node1&#45;&gt;Node2 -->
<g id="edge1_Node000001_Node000002" class="edge">
<title>Node1&#45;&gt;Node2</title>
<g id="a_edge1_Node000001_Node000002"><a xlink:title=" ">
<path fill="none" stroke="#63b8ff" d="M294.71,-275.79C316.19,-269.4 339.3,-258.58 353.75,-240.25 389.73,-194.63 380.82,-167.54 369.75,-110.5 368.08,-101.9 364.76,-92.85 361.41,-85.17"/>
<polygon fill="#63b8ff" stroke="#63b8ff" points="364.6,-83.72 357.18,-76.16 358.27,-86.7 364.6,-83.72"/>
</a>
</g>
</g>
<!-- Node3 -->
<g id="Node000003" class="node">
<title>Node3</title>
<g id="a_Node000003"><a xlink:href="_base_i_o_8hpp.html" target="_top" xlink:title=" ">
<polygon fill="white" stroke="#666666" points="192.62,-129.75 124.88,-129.75 124.88,-110.5 192.62,-110.5 192.62,-129.75"/>
<text text-anchor="middle" x="158.75" y="-116.25" font-family="Helvetica,sans-Serif" font-size="10.00">BaseIO.hpp</text>
</a>
</g>
</g>
<!-- Node1&#45;&gt;Node3 -->
<g id="edge2_Node000001_Node000003" class="edge">
<title>Node1&#45;&gt;Node3</title>
<g id="a_edge2_Node000001_Node000003"><a xlink:title=" ">
<path fill="none" stroke="#63b8ff" d="M231.42,-275.95C213.63,-259.86 177.7,-224.02 162.75,-185 157.44,-171.15 156.58,-154.37 156.98,-141.49"/>
<polygon fill="#63b8ff" stroke="#63b8ff" points="160.46,-141.86 157.57,-131.67 153.47,-141.44 160.46,-141.86"/>
</a>
</g>
</g>
<!-- Node10 -->
<g id="Node000010" class="node">
<title>Node10</title>
<g id="a_Node000010"><a xlink:href="_device_8hpp.html" target="_top" xlink:title=" ">
<polygon fill="white" stroke="#666666" points="344.75,-240.25 226.75,-240.25 226.75,-221 344.75,-221 344.75,-240.25"/>
<text text-anchor="middle" x="285.75" y="-226.75" font-family="Helvetica,sans-Serif" font-size="10.00">nwb/device/Device.hpp</text>
</a>
</g>
</g>
<!-- Node1&#45;&gt;Node10 -->
<g id="edge11_Node000001_Node000010" class="edge">
<title>Node1&#45;&gt;Node10</title>
<g id="a_edge11_Node000001_Node000010"><a xlink:title=" ">
<path fill="none" stroke="#63b8ff" d="M249.02,-276.08C255.03,-268.8 263.76,-258.23 271.21,-249.23"/>
<polygon fill="#63b8ff" stroke="#63b8ff" points="273.69,-251.71 277.36,-241.78 268.29,-247.26 273.69,-251.71"/>
</a>
</g>
</g>
<!-- Node11 -->
<g id="Node000011" class="node">
<title>Node11</title>
<g id="a_Node000011"><a xlink:href="_container_8hpp.html" target="_top" xlink:title=" ">
<polygon fill="white" stroke="#666666" points="332.62,-185 186.88,-185 186.88,-165.75 332.62,-165.75 332.62,-185"/>
<text text-anchor="middle" x="259.75" y="-171.5" font-family="Helvetica,sans-Serif" font-size="10.00">nwb/hdmf/base/Container.hpp</text>
</a>
</g>
</g>
<!-- Node1&#45;&gt;Node11 -->
<g id="edge18_Node000001_Node000011" class="edge">
<title>Node1&#45;&gt;Node11</title>
<g id="a_edge18_Node000001_Node000011"><a xlink:title=" ">
<path fill="none" stroke="#63b8ff" d="M234.26,-276.16C224.62,-263.83 209.98,-240.6 217.75,-221 222.07,-210.11 230.45,-200.32 238.59,-192.72"/>
<polygon fill="#63b8ff" stroke="#63b8ff" points="240.69,-195.53 245.99,-186.35 236.13,-190.22 240.69,-195.53"/>
</a>
</g>
</g>
<!-- Node3&#45;&gt;Node2 -->
<g id="edge6_Node000003_Node000002" class="edge">
<title>Node3&#45;&gt;Node2</title>
<g id="a_edge6_Node000003_Node000002"><a xlink:title=" ">
<path fill="none" stroke="#63b8ff" d="M191.49,-110.09C227.59,-100.13 285.24,-84.23 320.66,-74.45"/>
<polygon fill="#63b8ff" stroke="#63b8ff" points="321.16,-77.95 329.87,-71.91 319.3,-71.2 321.16,-77.95"/>
</a>
</g>
</g>
<!-- Node4 -->
<g id="Node000004" class="node">
<title>Node4</title>
<g id="a_Node000004"><a xlink:title=" ">
<polygon fill="#e0e0e0" stroke="#999999" points="234.38,-74.5 189.12,-74.5 189.12,-55.25 234.38,-55.25 234.38,-74.5"/>
<text text-anchor="middle" x="211.75" y="-61" font-family="Helvetica,sans-Serif" font-size="10.00">cstdint</text>
</a>
</g>
</g>
<!-- Node3&#45;&gt;Node4 -->
<g id="edge3_Node000003_Node000004" class="edge">
<title>Node3&#45;&gt;Node4</title>
<g id="a_edge3_Node000003_Node000004"><a xlink:title=" ">
<path fill="none" stroke="#63b8ff" d="M167.5,-110.33C174.9,-102.9 185.71,-92.04 194.8,-82.91"/>
<polygon fill="#63b8ff" stroke="#63b8ff" points="197.17,-85.49 201.74,-75.93 192.21,-80.55 197.17,-85.49"/>
</a>
</g>
</g>
<!-- Node5 -->
<g id="Node000005" class="node">
<title>Node5</title>
<g id="a_Node000005"><a xlink:title=" ">
<polygon fill="#e0e0e0" stroke="#999999" points="53.5,-74.5 0,-74.5 0,-55.25 53.5,-55.25 53.5,-74.5"/>
<text text-anchor="middle" x="26.75" y="-61" font-family="Helvetica,sans-Serif" font-size="10.00">iostream</text>
</a>
</g>
</g>
<!-- Node3&#45;&gt;Node5 -->
<g id="edge4_Node000003_Node000005" class="edge">
<title>Node3&#45;&gt;Node5</title>
<g id="a_edge4_Node000003_Node000005"><a xlink:title=" ">
<path fill="none" stroke="#63b8ff" d="M136.36,-110.09C115.31,-101.6 83.55,-88.79 59.63,-79.14"/>
<polygon fill="#63b8ff" stroke="#63b8ff" points="61.24,-76.01 50.66,-75.52 58.62,-82.51 61.24,-76.01"/>
</a>
</g>
</g>
<!-- Node6 -->
<g id="Node000006" class="node">
<title>Node6</title>
<g id="a_Node000006"><a xlink:title=" ">
<polygon fill="#e0e0e0" stroke="#999999" points="303.38,-74.5 252.12,-74.5 252.12,-55.25 303.38,-55.25 303.38,-74.5"/>
<text text-anchor="middle" x="277.75" y="-61" font-family="Helvetica,sans-Serif" font-size="10.00">memory</text>
</a>
</g>
</g>
<!-- Node3&#45;&gt;Node6 -->
<g id="edge5_Node000003_Node000006" class="edge">
<title>Node3&#45;&gt;Node6</title>
<g id="a_edge5_Node000003_Node000006"><a xlink:title=" ">
<path fill="none" stroke="#63b8ff" d="M178.94,-110.09C197.66,-101.72 225.77,-89.13 247.23,-79.53"/>
<polygon fill="#63b8ff" stroke="#63b8ff" points="248.38,-82.85 256.08,-75.57 245.53,-76.46 248.38,-82.85"/>
</a>
</g>
</g>
<!-- Node7 -->
<g id="Node000007" class="node">
<title>Node7</title>
<g id="a_Node000007"><a xlink:title=" ">
<polygon fill="#e0e0e0" stroke="#999999" points="103.25,-19.25 60.25,-19.25 60.25,0 103.25,0 103.25,-19.25"/>
<text text-anchor="middle" x="81.75" y="-5.75" font-family="Helvetica,sans-Serif" font-size="10.00">vector</text>
</a>
</g>
</g>
<!-- Node3&#45;&gt;Node7 -->
<g id="edge7_Node000003_Node000007" class="edge">
<title>Node3&#45;&gt;Node7</title>
<g id="a_edge7_Node000003_Node000007"><a xlink:title=" ">
<path fill="none" stroke="#63b8ff" d="M141.91,-110.12C128.88,-102.32 111.33,-89.89 100.75,-74.5 91.81,-61.49 87,-44.21 84.46,-30.9"/>
<polygon fill="#63b8ff" stroke="#63b8ff" points="87.94,-30.45 82.9,-21.13 81.02,-31.55 87.94,-30.45"/>
</a>
</g>
</g>
<!-- Node8 -->
<g id="Node000008" class="node">
<title>Node8</title>
<g id="a_Node000008"><a xlink:href="_types_8hpp.html" target="_top" xlink:title=" ">
<polygon fill="white" stroke="#666666" points="171.25,-74.5 110.25,-74.5 110.25,-55.25 171.25,-55.25 171.25,-74.5"/>
<text text-anchor="middle" x="140.75" y="-61" font-family="Helvetica,sans-Serif" font-size="10.00">Types.hpp</text>
</a>
</g>
</g>
<!-- Node3&#45;&gt;Node8 -->
<g id="edge8_Node000003_Node000008" class="edge">
<title>Node3&#45;&gt;Node8</title>
<g id="a_edge8_Node000003_Node000008"><a xlink:title=" ">
<path fill="none" stroke="#63b8ff" d="M155.78,-110.33C153.5,-103.59 150.26,-94.02 147.38,-85.49"/>
<polygon fill="#63b8ff" stroke="#63b8ff" points="150.79,-84.65 144.27,-76.29 144.16,-86.89 150.79,-84.65"/>
</a>
</g>
</g>
<!-- Node8&#45;&gt;Node7 -->
<g id="edge10_Node000008_Node000007" class="edge">
<title>Node8&#45;&gt;Node7</title>
<g id="a_edge10_Node000008_Node000007"><a xlink:title=" ">
<path fill="none" stroke="#63b8ff" d="M130.74,-54.84C122.38,-47.3 110.25,-36.35 100.15,-27.23"/>
<polygon fill="#63b8ff" stroke="#63b8ff" points="102.5,-24.64 92.73,-20.54 97.81,-29.84 102.5,-24.64"/>
</a>
</g>
</g>
<!-- Node9 -->
<g id="Node000009" class="node">
<title>Node9</title>
<g id="a_Node000009"><a xlink:title=" ">
<polygon fill="#e0e0e0" stroke="#999999" points="169.88,-19.25 121.62,-19.25 121.62,0 169.88,0 169.88,-19.25"/>
<text text-anchor="middle" x="145.75" y="-5.75" font-family="Helvetica,sans-Serif" font-size="10.00">cstddef</text>
</a>
</g>
</g>
<!-- Node8&#45;&gt;Node9 -->
<g id="edge9_Node000008_Node000009" class="edge">
<title>Node8&#45;&gt;Node9</title>
<g id="a_edge9_Node000008_Node000009"><a xlink:title=" ">
<path fill="none" stroke="#63b8ff" d="M141.58,-55.08C142.19,-48.49 143.07,-39.21 143.85,-30.82"/>
<polygon fill="#63b8ff" stroke="#63b8ff" points="147.31,-31.4 144.76,-21.12 140.35,-30.75 147.31,-31.4"/>
</a>
</g>
</g>
<!-- Node10&#45;&gt;Node2 -->
<g id="edge12_Node000010_Node000002" class="edge">
<title>Node10&#45;&gt;Node2</title>
<g id="a_edge12_Node000010_Node000002"><a xlink:title=" ">
<path fill="none" stroke="#63b8ff" d="M303.68,-220.54C316.65,-212.93 333.31,-200.79 341.75,-185 358.5,-153.67 357.32,-110.98 354.7,-86.13"/>
<polygon fill="#63b8ff" stroke="#63b8ff" points="358.2,-85.9 353.48,-76.42 351.25,-86.77 358.2,-85.9"/>
</a>
</g>
</g>
<!-- Node10&#45;&gt;Node3 -->
<g id="edge13_Node000010_Node000003" class="edge">
<title>Node10&#45;&gt;Node3</title>
<g id="a_edge13_Node000010_Node000003"><a xlink:title=" ">
<path fill="none" stroke="#63b8ff" d="M240.5,-220.53C218.81,-214.01 194.06,-203.08 177.75,-185 166.95,-173.03 162.28,-155.17 160.26,-141.37"/>
<polygon fill="#63b8ff" stroke="#63b8ff" points="163.77,-141.21 159.22,-131.64 156.81,-141.95 163.77,-141.21"/>
</a>
</g>
</g>
<!-- Node10&#45;&gt;Node11 -->
<g id="edge14_Node000010_Node000011" class="edge">
<title>Node10&#45;&gt;Node11</title>
<g id="a_edge14_Node000010_Node000011"><a xlink:title=" ">
<path fill="none" stroke="#63b8ff" d="M281.46,-220.83C278.13,-214.01 273.39,-204.31 269.19,-195.7"/>
<polygon fill="#63b8ff" stroke="#63b8ff" points="272.33,-194.17 264.8,-186.72 266.04,-197.24 272.33,-194.17"/>
</a>
</g>
</g>
<!-- Node11&#45;&gt;Node2 -->
<g id="edge16_Node000011_Node000002" class="edge">
<title>Node11&#45;&gt;Node2</title>
<g id="a_edge16_Node000011_Node000002"><a xlink:title=" ">
<path fill="none" stroke="#63b8ff" d="M267.28,-165.5C282.44,-147.61 316.9,-106.97 336.81,-83.5"/>
<polygon fill="#63b8ff" stroke="#63b8ff" points="339.34,-85.92 343.14,-76.03 334,-81.39 339.34,-85.92"/>
</a>
</g>
</g>
<!-- Node11&#45;&gt;Node3 -->
<g id="edge17_Node000011_Node000003" class="edge">
<title>Node11&#45;&gt;Node3</title>
<g id="a_edge17_Node000011_Node000003"><a xlink:title=" ">
<path fill="none" stroke="#63b8ff" d="M242.62,-165.34C227.09,-157.16 203.95,-144.96 185.91,-135.44"/>
<polygon fill="#63b8ff" stroke="#63b8ff" points="187.78,-132.48 177.31,-130.91 184.52,-138.67 187.78,-132.48"/>
</a>
</g>
</g>
<!-- Node11&#45;&gt;Node6 -->
<g id="edge15_Node000011_Node000006" class="edge">
<title>Node11&#45;&gt;Node6</title>
<g id="a_edge15_Node000011_Node000006"><a xlink:title=" ">
<path fill="none" stroke="#63b8ff" d="M261.22,-165.5C264.08,-148.25 270.46,-109.83 274.4,-86.06"/>
<polygon fill="#63b8ff" stroke="#63b8ff" points="277.83,-86.81 276.01,-76.37 270.92,-85.66 277.83,-86.81"/>
</a>
</g>
</g>
</g>
</svg>
