<?xml version="1.0" encoding="UTF-8" standalone="no"?>
<!DOCTYPE svg PUBLIC "-//W3C//DTD SVG 1.1//EN"
 "http://www.w3.org/Graphics/SVG/1.1/DTD/svg11.dtd">
<!-- Generated by graphviz version 14.1.0 (20251206.1807)
 -->
<!-- Title: src/nwb/file/ElectrodesTable.hpp Pages: 1 -->
<svg width="635pt" height="227pt"
 viewBox="0.00 0.00 635.00 227.00" xmlns="http://www.w3.org/2000/svg" xmlns:xlink="http://www.w3.org/1999/xlink">
<g id="graph0" class="graph" transform="scale(1 1) rotate(0) translate(4 222.75)">
<title>src/nwb/file/ElectrodesTable.hpp</title>
<!-- Node1 -->
<g id="Node000001" class="node">
<title>Node1</title>
<g id="a_Node000001"><a xlink:title=" ">
<polygon fill="#999999" stroke="#666666" points="471.88,-218.75 314.12,-218.75 314.12,-199.5 471.88,-199.5 471.88,-218.75"/>
<text xml:space="preserve" text-anchor="middle" x="393" y="-205.25" font-family="Helvetica,sans-Serif" font-size="10.00">src/nwb/file/ElectrodesTable.hpp</text>
</a>
</g>
</g>
<!-- Node2 -->
<g id="Node000002" class="node">
<title>Node2</title>
<g id="a_Node000002"><a xlink:href="_n_w_b_file_8hpp.html" target="_top" xlink:title=" ">
<polygon fill="white" stroke="#666666" points="115,-91.38 3,-91.38 3,-72.12 115,-72.12 115,-91.38"/>
<text xml:space="preserve" text-anchor="middle" x="59" y="-77.88" font-family="Helvetica,sans-Serif" font-size="10.00">src/nwb/NWBFile.hpp</text>
</a>
</g>
</g>
<!-- Node1&#45;&gt;Node2 -->
<g id="edge1_Node000001_Node000002" class="edge">
<title>Node1&#45;&gt;Node2</title>
<g id="a_edge1_Node000001_Node000002"><a xlink:title=" ">
<path fill="none" stroke="#63b8ff" d="M356.89,-195.21C332.34,-186.39 299.16,-174.37 270,-163.5 201.64,-138.02 121.23,-106.94 82.37,-91.85"/>
<polygon fill="#63b8ff" stroke="#63b8ff" points="355.49,-198.43 366.09,-198.51 357.86,-191.84 355.49,-198.43"/>
</a>
</g>
</g>
<!-- Node4 -->
<g id="Node000004" class="node">
<title>Node4</title>
<g id="a_Node000004"><a xlink:href="_electrical_series_8cpp.html" target="_top" xlink:title=" ">
<polygon fill="white" stroke="#666666" points="545.88,-97 412.12,-97 412.12,-66.5 545.88,-66.5 545.88,-97"/>
<text xml:space="preserve" text-anchor="start" x="420.12" y="-83.5" font-family="Helvetica,sans-Serif" font-size="10.00">src/nwb/ecephys/Electrical</text>
<text xml:space="preserve" text-anchor="middle" x="479" y="-72.25" font-family="Helvetica,sans-Serif" font-size="10.00">Series.cpp</text>
</a>
</g>
</g>
<!-- Node1&#45;&gt;Node4 -->
<g id="edge3_Node000001_Node000004" class="edge">
<title>Node1&#45;&gt;Node4</title>
<g id="a_edge3_Node000001_Node000004"><a xlink:title=" ">
<path fill="none" stroke="#63b8ff" d="M405.67,-189.65C422.89,-164.54 453.33,-120.18 469.02,-97.3"/>
<polygon fill="#63b8ff" stroke="#63b8ff" points="402.81,-187.63 400.04,-197.86 408.58,-191.59 402.81,-187.63"/>
</a>
</g>
</g>
<!-- Node5 -->
<g id="Node000005" class="node">
<title>Node5</title>
<g id="a_Node000005"><a xlink:href="_electrical_series_8hpp.html" target="_top" xlink:title=" ">
<polygon fill="white" stroke="#666666" points="412.88,-163.5 279.12,-163.5 279.12,-133 412.88,-133 412.88,-163.5"/>
<text xml:space="preserve" text-anchor="start" x="287.12" y="-150" font-family="Helvetica,sans-Serif" font-size="10.00">src/nwb/ecephys/Electrical</text>
<text xml:space="preserve" text-anchor="middle" x="346" y="-138.75" font-family="Helvetica,sans-Serif" font-size="10.00">Series.hpp</text>
</a>
</g>
</g>
<!-- Node1&#45;&gt;Node5 -->
<g id="edge4_Node000001_Node000005" class="edge">
<title>Node1&#45;&gt;Node5</title>
<g id="a_edge4_Node000001_Node000005"><a xlink:title=" ">
<path fill="none" stroke="#63b8ff" d="M378.87,-190.43C372.08,-181.92 364.03,-171.84 357.6,-163.78"/>
<polygon fill="#63b8ff" stroke="#63b8ff" points="375.94,-192.37 384.92,-198 381.41,-188 375.94,-192.37"/>
</a>
</g>
</g>
<!-- Node10 -->
<g id="Node000010" class="node">
<title>Node10</title>
<g id="a_Node000010"><a xlink:href="_electrodes_table_8cpp.html" target="_top" xlink:title=" ">
<polygon fill="white" stroke="#666666" points="626.88,-157.88 469.12,-157.88 469.12,-138.62 626.88,-138.62 626.88,-157.88"/>
<text xml:space="preserve" text-anchor="middle" x="548" y="-144.38" font-family="Helvetica,sans-Serif" font-size="10.00">src/nwb/file/ElectrodesTable.cpp</text>
</a>
</g>
</g>
<!-- Node1&#45;&gt;Node10 -->
<g id="edge14_Node000001_Node000010" class="edge">
<title>Node1&#45;&gt;Node10</title>
<g id="a_edge14_Node000001_Node000010"><a xlink:title=" ">
<path fill="none" stroke="#63b8ff" d="M427.48,-195.03C456.84,-183.88 498.26,-168.15 524.09,-158.33"/>
<polygon fill="#63b8ff" stroke="#63b8ff" points="426.4,-191.69 418.29,-198.52 428.89,-198.24 426.4,-191.69"/>
</a>
</g>
</g>
<!-- Node3 -->
<g id="Node000003" class="node">
<title>Node3</title>
<g id="a_Node000003"><a xlink:href="_n_w_b_file_8cpp.html" target="_top" xlink:title=" ">
<polygon fill="white" stroke="#666666" points="112,-24.88 0,-24.88 0,-5.63 112,-5.63 112,-24.88"/>
<text xml:space="preserve" text-anchor="middle" x="56" y="-11.38" font-family="Helvetica,sans-Serif" font-size="10.00">src/nwb/NWBFile.cpp</text>
</a>
</g>
</g>
<!-- Node2&#45;&gt;Node3 -->
<g id="edge2_Node000002_Node000003" class="edge">
<title>Node2&#45;&gt;Node3</title>
<g id="a_edge2_Node000002_Node000003"><a xlink:title=" ">
<path fill="none" stroke="#63b8ff" d="M58.07,-60.65C57.51,-48.75 56.84,-34.26 56.41,-25.14"/>
<polygon fill="#63b8ff" stroke="#63b8ff" points="54.55,-60.44 58.51,-70.27 61.54,-60.12 54.55,-60.44"/>
</a>
</g>
</g>
<!-- Node5&#45;&gt;Node3 -->
<g id="edge7_Node000005_Node000003" class="edge">
<title>Node5&#45;&gt;Node3</title>
<g id="a_edge7_Node000005_Node000003"><a xlink:title=" ">
<path fill="none" stroke="#63b8ff" d="M268.03,-132.26C235.21,-124.28 197.24,-112.78 165,-97 144.6,-87.02 142.24,-80.03 124,-66.5 104.43,-51.99 81.64,-35.17 68.05,-25.13"/>
<polygon fill="#63b8ff" stroke="#63b8ff" points="266.93,-135.6 277.47,-134.49 268.54,-128.79 266.93,-135.6"/>
</a>
</g>
</g>
<!-- Node5&#45;&gt;Node4 -->
<g id="edge8_Node000005_Node000004" class="edge">
<title>Node5&#45;&gt;Node4</title>
<g id="a_edge8_Node000005_Node000004"><a xlink:title=" ">
<path fill="none" stroke="#63b8ff" d="M386.32,-127.7C406.47,-117.93 430.43,-106.31 448.94,-97.33"/>
<polygon fill="#63b8ff" stroke="#63b8ff" points="385.01,-124.44 377.54,-131.95 388.07,-130.74 385.01,-124.44"/>
</a>
</g>
</g>
<!-- Node6 -->
<g id="Node000006" class="node">
<title>Node6</title>
<g id="a_Node000006"><a xlink:href="_recording_objects_8cpp.html" target="_top" xlink:title=" ">
<polygon fill="white" stroke="#666666" points="559.88,-24.88 420.12,-24.88 420.12,-5.63 559.88,-5.63 559.88,-24.88"/>
<text xml:space="preserve" text-anchor="middle" x="490" y="-11.38" font-family="Helvetica,sans-Serif" font-size="10.00">src/io/RecordingObjects.cpp</text>
</a>
</g>
</g>
<!-- Node5&#45;&gt;Node6 -->
<g id="edge5_Node000005_Node000006" class="edge">
<title>Node5&#45;&gt;Node6</title>
<g id="a_edge5_Node000005_Node000006"><a xlink:title=" ">
<path fill="none" stroke="#63b8ff" d="M359.4,-122.8C369.7,-105.58 385.16,-82.79 403,-66.5 422.71,-48.51 449.93,-34.07 468.65,-25.37"/>
<polygon fill="#63b8ff" stroke="#63b8ff" points="356.42,-120.97 354.44,-131.38 362.48,-124.48 356.42,-120.97"/>
</a>
</g>
</g>
<!-- Node7 -->
<g id="Node000007" class="node">
<title>Node7</title>
<g id="a_Node000007"><a xlink:href="nwbio__utils_8hpp.html" target="_top" xlink:title=" ">
<polygon fill="white" stroke="#666666" points="402.25,-24.88 291.75,-24.88 291.75,-5.63 402.25,-5.63 402.25,-24.88"/>
<text xml:space="preserve" text-anchor="middle" x="347" y="-11.38" font-family="Helvetica,sans-Serif" font-size="10.00">src/io/nwbio_utils.hpp</text>
</a>
</g>
</g>
<!-- Node5&#45;&gt;Node7 -->
<g id="edge6_Node000005_Node000007" class="edge">
<title>Node5&#45;&gt;Node7</title>
<g id="a_edge6_Node000005_Node000007"><a xlink:title=" ">
<path fill="none" stroke="#63b8ff" d="M346.2,-121.23C346.42,-91.65 346.78,-44.93 346.93,-25.35"/>
<polygon fill="#63b8ff" stroke="#63b8ff" points="342.7,-121.19 346.12,-131.22 349.7,-121.24 342.7,-121.19"/>
</a>
</g>
</g>
<!-- Node8 -->
<g id="Node000008" class="node">
<title>Node8</title>
<g id="a_Node000008"><a xlink:href="_spike_event_series_8hpp.html" target="_top" xlink:title=" ">
<polygon fill="white" stroke="#666666" points="317.75,-97 174.25,-97 174.25,-66.5 317.75,-66.5 317.75,-97"/>
<text xml:space="preserve" text-anchor="start" x="182.25" y="-83.5" font-family="Helvetica,sans-Serif" font-size="10.00">src/nwb/ecephys/SpikeEvent</text>
<text xml:space="preserve" text-anchor="middle" x="246" y="-72.25" font-family="Helvetica,sans-Serif" font-size="10.00">Series.hpp</text>
</a>
</g>
</g>
<!-- Node5&#45;&gt;Node8 -->
<g id="edge9_Node000005_Node000008" class="edge">
<title>Node5&#45;&gt;Node8</title>
<g id="a_edge9_Node000005_Node000008"><a xlink:title=" ">
<path fill="none" stroke="#63b8ff" d="M314.01,-126.61C299.22,-117.08 282.01,-105.98 268.6,-97.33"/>
<polygon fill="#63b8ff" stroke="#63b8ff" points="311.74,-129.31 322.04,-131.79 315.53,-123.43 311.74,-129.31"/>
</a>
</g>
</g>
<!-- Node8&#45;&gt;Node3 -->
<g id="edge12_Node000008_Node000003" class="edge">
<title>Node8&#45;&gt;Node3</title>
<g id="a_edge12_Node000008_Node000003"><a xlink:title=" ">
<path fill="none" stroke="#63b8ff" d="M192.14,-62.47C156.43,-50.34 111.1,-34.96 82.82,-25.35"/>
<polygon fill="#63b8ff" stroke="#63b8ff" points="190.86,-65.73 201.45,-65.63 193.11,-59.1 190.86,-65.73"/>
</a>
</g>
</g>
<!-- Node8&#45;&gt;Node6 -->
<g id="edge10_Node000008_Node000006" class="edge">
<title>Node8&#45;&gt;Node6</title>
<g id="a_edge10_Node000008_Node000006"><a xlink:title=" ">
<path fill="none" stroke="#63b8ff" d="M312.53,-63.16C358.81,-50.93 418.63,-35.12 455.65,-25.33"/>
<polygon fill="#63b8ff" stroke="#63b8ff" points="311.91,-59.71 303.14,-65.65 313.7,-66.47 311.91,-59.71"/>
</a>
</g>
</g>
<!-- Node8&#45;&gt;Node7 -->
<g id="edge11_Node000008_Node000007" class="edge">
<title>Node8&#45;&gt;Node7</title>
<g id="a_edge11_Node000008_Node000007"><a xlink:title=" ">
<path fill="none" stroke="#63b8ff" d="M278.4,-60.06C296.78,-48.32 318.84,-34.23 332.89,-25.26"/>
<polygon fill="#63b8ff" stroke="#63b8ff" points="276.74,-56.97 270.19,-65.3 280.51,-62.87 276.74,-56.97"/>
</a>
</g>
</g>
<!-- Node9 -->
<g id="Node000009" class="node">
<title>Node9</title>
<g id="a_Node000009"><a xlink:href="_spike_event_series_8cpp.html" target="_top" xlink:title=" ">
<polygon fill="white" stroke="#666666" points="273.75,-30.5 130.25,-30.5 130.25,0 273.75,0 273.75,-30.5"/>
<text xml:space="preserve" text-anchor="start" x="138.25" y="-17" font-family="Helvetica,sans-Serif" font-size="10.00">src/nwb/ecephys/SpikeEvent</text>
<text xml:space="preserve" text-anchor="middle" x="202" y="-5.75" font-family="Helvetica,sans-Serif" font-size="10.00">Series.cpp</text>
</a>
</g>
</g>
<!-- Node8&#45;&gt;Node9 -->
<g id="edge13_Node000008_Node000009" class="edge">
<title>Node8&#45;&gt;Node9</title>
<g id="a_edge13_Node000008_Node000009"><a xlink:title=" ">
<path fill="none" stroke="#63b8ff" d="M229.65,-56.79C223.71,-48.07 217.17,-38.49 211.94,-30.83"/>
<polygon fill="#63b8ff" stroke="#63b8ff" points="226.64,-58.58 235.16,-64.86 232.42,-54.63 226.64,-58.58"/>
</a>
</g>
</g>
</g>
</svg>
