<?xml version="1.0" encoding="UTF-8" standalone="no"?>
<!DOCTYPE svg PUBLIC "-//W3C//DTD SVG 1.1//EN"
 "http://www.w3.org/Graphics/SVG/1.1/DTD/svg11.dtd">
<!-- Generated by graphviz version 12.2.1 (20241206.2353)
 -->
<!-- Title: src/io/hdf5/HDF5RecordingData.hpp Pages: 1 -->
<svg width="741pt" height="204pt"
 viewBox="0.00 0.00 741.38 204.25" xmlns="http://www.w3.org/2000/svg" xmlns:xlink="http://www.w3.org/1999/xlink">
<g id="graph0" class="graph" transform="scale(1 1) rotate(0) translate(4 200.25)">
<title>src/io/hdf5/HDF5RecordingData.hpp</title>
<!-- Node1 -->
<g id="Node000001" class="node">
<title>Node1</title>
<g id="a_Node000001"><a xlink:title=" ">
<polygon fill="#999999" stroke="#666666" points="380.5,-196.25 245.25,-196.25 245.25,-165.75 380.5,-165.75 380.5,-196.25"/>
<text text-anchor="start" x="253.25" y="-182.75" font-family="Helvetica,sans-Serif" font-size="10.00">src/io/hdf5/HDF5Recording</text>
<text text-anchor="middle" x="312.88" y="-171.5" font-family="Helvetica,sans-Serif" font-size="10.00">Data.hpp</text>
</a>
</g>
</g>
<!-- Node2 -->
<g id="Node000002" class="node">
<title>Node2</title>
<g id="a_Node000002"><a xlink:href="_base_i_o_8hpp.html" target="_top" xlink:title=" ">
<polygon fill="white" stroke="#666666" points="352,-129.75 273.75,-129.75 273.75,-110.5 352,-110.5 352,-129.75"/>
<text text-anchor="middle" x="312.88" y="-116.25" font-family="Helvetica,sans-Serif" font-size="10.00">io/BaseIO.hpp</text>
</a>
</g>
</g>
<!-- Node1&#45;&gt;Node2 -->
<g id="edge1_Node000001_Node000002" class="edge">
<title>Node1&#45;&gt;Node2</title>
<g id="a_edge1_Node000001_Node000002"><a xlink:title=" ">
<path fill="none" stroke="#63b8ff" d="M312.88,-165.45C312.88,-158.21 312.88,-149.34 312.88,-141.44"/>
<polygon fill="#63b8ff" stroke="#63b8ff" points="316.38,-141.71 312.88,-131.71 309.38,-141.71 316.38,-141.71"/>
</a>
</g>
</g>
<!-- Node3 -->
<g id="Node000003" class="node">
<title>Node3</title>
<g id="a_Node000003"><a xlink:title=" ">
<polygon fill="#e0e0e0" stroke="#999999" points="31.75,-74.5 0,-74.5 0,-55.25 31.75,-55.25 31.75,-74.5"/>
<text text-anchor="middle" x="15.88" y="-61" font-family="Helvetica,sans-Serif" font-size="10.00">any</text>
</a>
</g>
</g>
<!-- Node2&#45;&gt;Node3 -->
<g id="edge2_Node000002_Node000003" class="edge">
<title>Node2&#45;&gt;Node3</title>
<g id="a_edge2_Node000002_Node000003"><a xlink:title=" ">
<path fill="none" stroke="#63b8ff" d="M273.26,-114.76C222.1,-108.67 130.23,-96.15 43.29,-74.73"/>
<polygon fill="#63b8ff" stroke="#63b8ff" points="44.18,-71.35 33.63,-72.31 42.47,-78.14 44.18,-71.35"/>
</a>
</g>
</g>
<!-- Node4 -->
<g id="Node000004" class="node">
<title>Node4</title>
<g id="a_Node000004"><a xlink:title=" ">
<polygon fill="#e0e0e0" stroke="#999999" points="95.5,-74.5 50.25,-74.5 50.25,-55.25 95.5,-55.25 95.5,-74.5"/>
<text text-anchor="middle" x="72.88" y="-61" font-family="Helvetica,sans-Serif" font-size="10.00">cstdint</text>
</a>
</g>
</g>
<!-- Node2&#45;&gt;Node4 -->
<g id="edge3_Node000002_Node000004" class="edge">
<title>Node2&#45;&gt;Node4</title>
<g id="a_edge3_Node000002_Node000004"><a xlink:title=" ">
<path fill="none" stroke="#63b8ff" d="M273.42,-111.45C233.58,-103.53 170.04,-90.46 106.82,-75.12"/>
<polygon fill="#63b8ff" stroke="#63b8ff" points="107.87,-71.78 97.33,-72.8 106.21,-78.57 107.87,-71.78"/>
</a>
</g>
</g>
<!-- Node5 -->
<g id="Node000005" class="node">
<title>Node5</title>
<g id="a_Node000005"><a xlink:title=" ">
<polygon fill="#e0e0e0" stroke="#999999" points="166.62,-74.5 113.12,-74.5 113.12,-55.25 166.62,-55.25 166.62,-74.5"/>
<text text-anchor="middle" x="139.88" y="-61" font-family="Helvetica,sans-Serif" font-size="10.00">iostream</text>
</a>
</g>
</g>
<!-- Node2&#45;&gt;Node5 -->
<g id="edge4_Node000002_Node000005" class="edge">
<title>Node2&#45;&gt;Node5</title>
<g id="a_edge4_Node000002_Node000005"><a xlink:title=" ">
<path fill="none" stroke="#63b8ff" d="M283.53,-110.09C254.38,-101.12 209.56,-87.33 177.75,-77.53"/>
<polygon fill="#63b8ff" stroke="#63b8ff" points="179.12,-74.29 168.53,-74.69 177.06,-80.98 179.12,-74.29"/>
</a>
</g>
</g>
<!-- Node6 -->
<g id="Node000006" class="node">
<title>Node6</title>
<g id="a_Node000006"><a xlink:title=" ">
<polygon fill="#e0e0e0" stroke="#999999" points="235.5,-74.5 184.25,-74.5 184.25,-55.25 235.5,-55.25 235.5,-74.5"/>
<text text-anchor="middle" x="209.88" y="-61" font-family="Helvetica,sans-Serif" font-size="10.00">memory</text>
</a>
</g>
</g>
<!-- Node2&#45;&gt;Node6 -->
<g id="edge5_Node000002_Node000006" class="edge">
<title>Node2&#45;&gt;Node6</title>
<g id="a_edge5_Node000002_Node000006"><a xlink:title=" ">
<path fill="none" stroke="#63b8ff" d="M295.4,-110.09C279.57,-101.91 255.97,-89.71 237.57,-80.19"/>
<polygon fill="#63b8ff" stroke="#63b8ff" points="239.27,-77.13 228.78,-75.65 236.05,-83.35 239.27,-77.13"/>
</a>
</g>
</g>
<!-- Node7 -->
<g id="Node000007" class="node">
<title>Node7</title>
<g id="a_Node000007"><a xlink:title=" ">
<polygon fill="#e0e0e0" stroke="#999999" points="293.88,-74.5 253.88,-74.5 253.88,-55.25 293.88,-55.25 293.88,-74.5"/>
<text text-anchor="middle" x="273.88" y="-61" font-family="Helvetica,sans-Serif" font-size="10.00">string</text>
</a>
</g>
</g>
<!-- Node2&#45;&gt;Node7 -->
<g id="edge6_Node000002_Node000007" class="edge">
<title>Node2&#45;&gt;Node7</title>
<g id="a_edge6_Node000002_Node000007"><a xlink:title=" ">
<path fill="none" stroke="#63b8ff" d="M306.43,-110.33C301.22,-103.21 293.69,-92.93 287.18,-84.05"/>
<polygon fill="#63b8ff" stroke="#63b8ff" points="290.08,-82.08 281.35,-76.08 284.43,-86.22 290.08,-82.08"/>
</a>
</g>
</g>
<!-- Node8 -->
<g id="Node000008" class="node">
<title>Node8</title>
<g id="a_Node000008"><a xlink:title=" ">
<polygon fill="#e0e0e0" stroke="#999999" points="394.25,-74.5 311.5,-74.5 311.5,-55.25 394.25,-55.25 394.25,-74.5"/>
<text text-anchor="middle" x="352.88" y="-61" font-family="Helvetica,sans-Serif" font-size="10.00">unordered_map</text>
</a>
</g>
</g>
<!-- Node2&#45;&gt;Node8 -->
<g id="edge7_Node000002_Node000008" class="edge">
<title>Node2&#45;&gt;Node8</title>
<g id="a_edge7_Node000002_Node000008"><a xlink:title=" ">
<path fill="none" stroke="#63b8ff" d="M319.48,-110.33C324.83,-103.21 332.55,-92.93 339.22,-84.05"/>
<polygon fill="#63b8ff" stroke="#63b8ff" points="342.01,-86.17 345.22,-76.07 336.41,-81.96 342.01,-86.17"/>
</a>
</g>
</g>
<!-- Node9 -->
<g id="Node000009" class="node">
<title>Node9</title>
<g id="a_Node000009"><a xlink:title=" ">
<polygon fill="#e0e0e0" stroke="#999999" points="489.62,-74.5 412.12,-74.5 412.12,-55.25 489.62,-55.25 489.62,-74.5"/>
<text text-anchor="middle" x="450.88" y="-61" font-family="Helvetica,sans-Serif" font-size="10.00">unordered_set</text>
</a>
</g>
</g>
<!-- Node2&#45;&gt;Node9 -->
<g id="edge8_Node000002_Node000009" class="edge">
<title>Node2&#45;&gt;Node9</title>
<g id="a_edge8_Node000002_Node000009"><a xlink:title=" ">
<path fill="none" stroke="#63b8ff" d="M336.28,-110.09C358.39,-101.56 391.79,-88.67 416.84,-79.01"/>
<polygon fill="#63b8ff" stroke="#63b8ff" points="417.87,-82.36 425.94,-75.5 415.35,-75.83 417.87,-82.36"/>
</a>
</g>
</g>
<!-- Node10 -->
<g id="Node000010" class="node">
<title>Node10</title>
<g id="a_Node000010"><a xlink:title=" ">
<polygon fill="#e0e0e0" stroke="#999999" points="600.38,-19.25 557.38,-19.25 557.38,0 600.38,0 600.38,-19.25"/>
<text text-anchor="middle" x="578.88" y="-5.75" font-family="Helvetica,sans-Serif" font-size="10.00">vector</text>
</a>
</g>
</g>
<!-- Node2&#45;&gt;Node10 -->
<g id="edge9_Node000002_Node000010" class="edge">
<title>Node2&#45;&gt;Node10</title>
<g id="a_edge9_Node000002_Node000010"><a xlink:title=" ">
<path fill="none" stroke="#63b8ff" d="M352.32,-114.75C391.18,-109.29 451.44,-97.69 498.88,-74.5 523.44,-62.5 547.36,-41.86 562.55,-27.29"/>
<polygon fill="#63b8ff" stroke="#63b8ff" points="564.68,-30.11 569.34,-20.6 559.77,-25.12 564.68,-30.11"/>
</a>
</g>
</g>
<!-- Node11 -->
<g id="Node000011" class="node">
<title>Node11</title>
<g id="a_Node000011"><a xlink:title=" ">
<polygon fill="#e0e0e0" stroke="#999999" points="654,-74.5 545.75,-74.5 545.75,-55.25 654,-55.25 654,-74.5"/>
<text text-anchor="middle" x="599.88" y="-61" font-family="Helvetica,sans-Serif" font-size="10.00">boost/multi_array.hpp</text>
</a>
</g>
</g>
<!-- Node2&#45;&gt;Node11 -->
<g id="edge10_Node000002_Node000011" class="edge">
<title>Node2&#45;&gt;Node11</title>
<g id="a_edge10_Node000002_Node000011"><a xlink:title=" ">
<path fill="none" stroke="#63b8ff" d="M352.48,-111.78C400.96,-102.78 483.54,-87.46 539.85,-77.01"/>
<polygon fill="#63b8ff" stroke="#63b8ff" points="540.41,-80.47 549.6,-75.2 539.13,-73.59 540.41,-80.47"/>
</a>
</g>
</g>
<!-- Node12 -->
<g id="Node000012" class="node">
<title>Node12</title>
<g id="a_Node000012"><a xlink:href="_types_8hpp.html" target="_top" xlink:title=" ">
<polygon fill="white" stroke="#666666" points="733.38,-74.5 672.38,-74.5 672.38,-55.25 733.38,-55.25 733.38,-74.5"/>
<text text-anchor="middle" x="702.88" y="-61" font-family="Helvetica,sans-Serif" font-size="10.00">Types.hpp</text>
</a>
</g>
</g>
<!-- Node2&#45;&gt;Node12 -->
<g id="edge11_Node000002_Node000012" class="edge">
<title>Node2&#45;&gt;Node12</title>
<g id="a_edge11_Node000002_Node000012"><a xlink:title=" ">
<path fill="none" stroke="#63b8ff" d="M352.4,-115.2C415.45,-108.7 542.86,-94.57 660.89,-74.7"/>
<polygon fill="#63b8ff" stroke="#63b8ff" points="661.15,-78.21 670.42,-73.08 659.98,-71.31 661.15,-78.21"/>
</a>
</g>
</g>
<!-- Node12&#45;&gt;Node10 -->
<g id="edge13_Node000012_Node000010" class="edge">
<title>Node12&#45;&gt;Node10</title>
<g id="a_edge13_Node000012_Node000010"><a xlink:title=" ">
<path fill="none" stroke="#63b8ff" d="M681.84,-54.84C662.24,-46.43 632.77,-33.77 610.37,-24.15"/>
<polygon fill="#63b8ff" stroke="#63b8ff" points="611.97,-21.03 601.4,-20.3 609.21,-27.46 611.97,-21.03"/>
</a>
</g>
</g>
<!-- Node13 -->
<g id="Node000013" class="node">
<title>Node13</title>
<g id="a_Node000013"><a xlink:title=" ">
<polygon fill="#e0e0e0" stroke="#999999" points="727,-19.25 678.75,-19.25 678.75,0 727,0 727,-19.25"/>
<text text-anchor="middle" x="702.88" y="-5.75" font-family="Helvetica,sans-Serif" font-size="10.00">cstddef</text>
</a>
</g>
</g>
<!-- Node12&#45;&gt;Node13 -->
<g id="edge12_Node000012_Node000013" class="edge">
<title>Node12&#45;&gt;Node13</title>
<g id="a_edge12_Node000012_Node000013"><a xlink:title=" ">
<path fill="none" stroke="#63b8ff" d="M702.88,-55.08C702.88,-48.57 702.88,-39.42 702.88,-31.12"/>
<polygon fill="#63b8ff" stroke="#63b8ff" points="706.38,-31.12 702.88,-21.12 699.38,-31.12 706.38,-31.12"/>
</a>
</g>
</g>
</g>
</svg>
