<?xml version="1.0" encoding="UTF-8" standalone="no"?>
<!DOCTYPE svg PUBLIC "-//W3C//DTD SVG 1.1//EN"
 "http://www.w3.org/Graphics/SVG/1.1/DTD/svg11.dtd">
<!-- Generated by graphviz version 12.2.1 (20241206.2353)
 -->
<!-- Title: src/io/hdf5/HDF5IO.cpp Pages: 1 -->
<svg width="2031pt" height="315pt"
 viewBox="0.00 0.00 2030.50 314.75" xmlns="http://www.w3.org/2000/svg" xmlns:xlink="http://www.w3.org/1999/xlink">
<g id="graph0" class="graph" transform="scale(1 1) rotate(0) translate(4 310.75)">
<title>src/io/hdf5/HDF5IO.cpp</title>
<!-- Node1 -->
<g id="Node000001" class="node">
<title>Node1</title>
<g id="a_Node000001"><a xlink:title=" ">
<polygon fill="#999999" stroke="#666666" points="479.38,-306.75 359.12,-306.75 359.12,-287.5 479.38,-287.5 479.38,-306.75"/>
<text text-anchor="middle" x="419.25" y="-293.25" font-family="Helvetica,sans-Serif" font-size="10.00">src/io/hdf5/HDF5IO.cpp</text>
</a>
</g>
</g>
<!-- Node2 -->
<g id="Node000002" class="node">
<title>Node2</title>
<g id="a_Node000002"><a xlink:title=" ">
<polygon fill="#e0e0e0" stroke="#999999" points="50.5,-251.5 0,-251.5 0,-232.25 50.5,-232.25 50.5,-251.5"/>
<text text-anchor="middle" x="25.25" y="-238" font-family="Helvetica,sans-Serif" font-size="10.00">codecvt</text>
</a>
</g>
</g>
<!-- Node1&#45;&gt;Node2 -->
<g id="edge1_Node000001_Node000002" class="edge">
<title>Node1&#45;&gt;Node2</title>
<g id="a_edge1_Node000001_Node000002"><a xlink:title=" ">
<path fill="none" stroke="#63b8ff" d="M358.7,-290.95C289.26,-284.5 171.82,-272.01 62.07,-251.83"/>
<polygon fill="#63b8ff" stroke="#63b8ff" points="62.75,-248.39 52.28,-250 61.47,-255.27 62.75,-248.39"/>
</a>
</g>
</g>
<!-- Node3 -->
<g id="Node000003" class="node">
<title>Node3</title>
<g id="a_Node000003"><a xlink:title=" ">
<polygon fill="#e0e0e0" stroke="#999999" points="129.75,-251.5 68.75,-251.5 68.75,-232.25 129.75,-232.25 129.75,-251.5"/>
<text text-anchor="middle" x="99.25" y="-238" font-family="Helvetica,sans-Serif" font-size="10.00">filesystem</text>
</a>
</g>
</g>
<!-- Node1&#45;&gt;Node3 -->
<g id="edge2_Node000001_Node000003" class="edge">
<title>Node1&#45;&gt;Node3</title>
<g id="a_edge2_Node000001_Node000003"><a xlink:title=" ">
<path fill="none" stroke="#63b8ff" d="M360.16,-287.03C304.41,-278.34 218.55,-264.65 144.25,-251.5 143.26,-251.32 142.25,-251.14 141.24,-250.96"/>
<polygon fill="#63b8ff" stroke="#63b8ff" points="142.17,-247.58 131.7,-249.2 140.9,-254.46 142.17,-247.58"/>
</a>
</g>
</g>
<!-- Node4 -->
<g id="Node000004" class="node">
<title>Node4</title>
<g id="a_Node000004"><a xlink:title=" ">
<polygon fill="#e0e0e0" stroke="#999999" points="192,-74.5 138.5,-74.5 138.5,-55.25 192,-55.25 192,-74.5"/>
<text text-anchor="middle" x="165.25" y="-61" font-family="Helvetica,sans-Serif" font-size="10.00">iostream</text>
</a>
</g>
</g>
<!-- Node1&#45;&gt;Node4 -->
<g id="edge3_Node000001_Node000004" class="edge">
<title>Node1&#45;&gt;Node4</title>
<g id="a_edge3_Node000001_Node000004"><a xlink:title=" ">
<path fill="none" stroke="#63b8ff" d="M400.41,-287.15C384.04,-278.95 360.08,-265.92 341.25,-251.5 272.61,-198.92 206.58,-118.95 178.89,-83.67"/>
<polygon fill="#63b8ff" stroke="#63b8ff" points="181.95,-81.9 173.05,-76.15 176.42,-86.2 181.95,-81.9"/>
</a>
</g>
</g>
<!-- Node5 -->
<g id="Node000005" class="node">
<title>Node5</title>
<g id="a_Node000005"><a xlink:title=" ">
<polygon fill="#e0e0e0" stroke="#999999" points="260.88,-74.5 209.62,-74.5 209.62,-55.25 260.88,-55.25 260.88,-74.5"/>
<text text-anchor="middle" x="235.25" y="-61" font-family="Helvetica,sans-Serif" font-size="10.00">memory</text>
</a>
</g>
</g>
<!-- Node1&#45;&gt;Node5 -->
<g id="edge4_Node000001_Node000005" class="edge">
<title>Node1&#45;&gt;Node5</title>
<g id="a_edge4_Node000001_Node000005"><a xlink:title=" ">
<path fill="none" stroke="#63b8ff" d="M407.61,-287.14C386.78,-270.68 342.48,-233.89 312.25,-196.25 283.14,-160.01 257.51,-111.63 244.44,-85.17"/>
<polygon fill="#63b8ff" stroke="#63b8ff" points="247.66,-83.81 240.15,-76.34 241.37,-86.86 247.66,-83.81"/>
</a>
</g>
</g>
<!-- Node6 -->
<g id="Node000006" class="node">
<title>Node6</title>
<g id="a_Node000006"><a xlink:title=" ">
<polygon fill="#e0e0e0" stroke="#999999" points="572.75,-19.25 529.75,-19.25 529.75,0 572.75,0 572.75,-19.25"/>
<text text-anchor="middle" x="551.25" y="-5.75" font-family="Helvetica,sans-Serif" font-size="10.00">vector</text>
</a>
</g>
</g>
<!-- Node1&#45;&gt;Node6 -->
<g id="edge5_Node000001_Node000006" class="edge">
<title>Node1&#45;&gt;Node6</title>
<g id="a_edge5_Node000001_Node000006"><a xlink:title=" ">
<path fill="none" stroke="#63b8ff" d="M479.45,-294.54C751.43,-286.96 1852.25,-252 1852.25,-182 1852.25,-182 1852.25,-182 1852.25,-119.12 1852.25,-53.5 787.04,-17.8 584.34,-11.6"/>
<polygon fill="#63b8ff" stroke="#63b8ff" points="584.63,-8.11 574.53,-11.31 584.42,-15.11 584.63,-8.11"/>
</a>
</g>
</g>
<!-- Node7 -->
<g id="Node000007" class="node">
<title>Node7</title>
<g id="a_Node000007"><a xlink:href="_h_d_f5_i_o_8hpp.html" target="_top" xlink:title=" ">
<polygon fill="white" stroke="#666666" points="425.12,-190.62 321.38,-190.62 321.38,-171.38 425.12,-171.38 425.12,-190.62"/>
<text text-anchor="middle" x="373.25" y="-177.12" font-family="Helvetica,sans-Serif" font-size="10.00">io/hdf5/HDF5IO.hpp</text>
</a>
</g>
</g>
<!-- Node1&#45;&gt;Node7 -->
<g id="edge6_Node000001_Node000007" class="edge">
<title>Node1&#45;&gt;Node7</title>
<g id="a_edge6_Node000001_Node000007"><a xlink:title=" ">
<path fill="none" stroke="#63b8ff" d="M410.21,-287.07C402.33,-278.61 391.24,-265.25 385.25,-251.5 378.43,-235.86 375.48,-216.65 374.21,-202.4"/>
<polygon fill="#63b8ff" stroke="#63b8ff" points="377.7,-202.2 373.55,-192.45 370.72,-202.66 377.7,-202.2"/>
</a>
</g>
</g>
<!-- Node20 -->
<g id="Node000020" class="node">
<title>Node20</title>
<g id="a_Node000020"><a xlink:title=" ">
<polygon fill="#e0e0e0" stroke="#999999" points="1935.75,-251.5 1880.75,-251.5 1880.75,-232.25 1935.75,-232.25 1935.75,-251.5"/>
<text text-anchor="middle" x="1908.25" y="-238" font-family="Helvetica,sans-Serif" font-size="10.00">H5Cpp.h</text>
</a>
</g>
</g>
<!-- Node1&#45;&gt;Node20 -->
<g id="edge35_Node000001_Node000020" class="edge">
<title>Node1&#45;&gt;Node20</title>
<g id="a_edge35_Node000001_Node000020"><a xlink:title=" ">
<path fill="none" stroke="#63b8ff" d="M479.54,-295.65C717.4,-293.54 1591.19,-283.74 1866.25,-251.5 1867.25,-251.38 1868.27,-251.25 1869.29,-251.11"/>
<polygon fill="#63b8ff" stroke="#63b8ff" points="1869.55,-254.62 1878.85,-249.55 1868.42,-247.71 1869.55,-254.62"/>
</a>
</g>
</g>
<!-- Node21 -->
<g id="Node000021" class="node">
<title>Node21</title>
<g id="a_Node000021"><a xlink:title=" ">
<polygon fill="#e0e0e0" stroke="#999999" points="2022.5,-251.5 1954,-251.5 1954,-232.25 2022.5,-232.25 2022.5,-251.5"/>
<text text-anchor="middle" x="1988.25" y="-238" font-family="Helvetica,sans-Serif" font-size="10.00">H5Fpublic.h</text>
</a>
</g>
</g>
<!-- Node1&#45;&gt;Node21 -->
<g id="edge36_Node000001_Node000021" class="edge">
<title>Node1&#45;&gt;Node21</title>
<g id="a_edge36_Node000001_Node000021"><a xlink:title=" ">
<path fill="none" stroke="#63b8ff" d="M479.87,-295.72C723.32,-293.88 1631.39,-284.96 1942.34,-251.6"/>
<polygon fill="#63b8ff" stroke="#63b8ff" points="1942.54,-255.1 1952.09,-250.51 1941.77,-248.14 1942.54,-255.1"/>
</a>
</g>
</g>
<!-- Node22 -->
<g id="Node000022" class="node">
<title>Node22</title>
<g id="a_Node000022"><a xlink:href="_utils_8hpp.html" target="_top" xlink:title=" ">
<polygon fill="white" stroke="#666666" points="1236.75,-251.5 1181.75,-251.5 1181.75,-232.25 1236.75,-232.25 1236.75,-251.5"/>
<text text-anchor="middle" x="1209.25" y="-238" font-family="Helvetica,sans-Serif" font-size="10.00">Utils.hpp</text>
</a>
</g>
</g>
<!-- Node1&#45;&gt;Node22 -->
<g id="edge37_Node000001_Node000022" class="edge">
<title>Node1&#45;&gt;Node22</title>
<g id="a_edge37_Node000001_Node000022"><a xlink:title=" ">
<path fill="none" stroke="#63b8ff" d="M479.6,-292.06C634.38,-281.62 1042.23,-254.13 1170.23,-245.5"/>
<polygon fill="#63b8ff" stroke="#63b8ff" points="1170.14,-249.02 1179.88,-244.85 1169.67,-242.04 1170.14,-249.02"/>
</a>
</g>
</g>
<!-- Node35 -->
<g id="Node000035" class="node">
<title>Node35</title>
<g id="a_Node000035"><a xlink:href="_h_d_f5_recording_data_8hpp.html" target="_top" xlink:title=" ">
<polygon fill="white" stroke="#666666" points="552.5,-251.5 394,-251.5 394,-232.25 552.5,-232.25 552.5,-251.5"/>
<text text-anchor="middle" x="473.25" y="-238" font-family="Helvetica,sans-Serif" font-size="10.00">io/hdf5/HDF5RecordingData.hpp</text>
</a>
</g>
</g>
<!-- Node1&#45;&gt;Node35 -->
<g id="edge54_Node000001_Node000035" class="edge">
<title>Node1&#45;&gt;Node35</title>
<g id="a_edge54_Node000001_Node000035"><a xlink:title=" ">
<path fill="none" stroke="#63b8ff" d="M428.17,-287.33C435.7,-279.9 446.72,-269.04 455.98,-259.91"/>
<polygon fill="#63b8ff" stroke="#63b8ff" points="458.4,-262.44 463.06,-252.92 453.48,-257.45 458.4,-262.44"/>
</a>
</g>
</g>
<!-- Node7&#45;&gt;Node4 -->
<g id="edge7_Node000007_Node000004" class="edge">
<title>Node7&#45;&gt;Node4</title>
<g id="a_edge7_Node000007_Node000004"><a xlink:title=" ">
<path fill="none" stroke="#63b8ff" d="M356.93,-171.04C321.1,-151.38 235.27,-104.3 191.66,-80.37"/>
<polygon fill="#63b8ff" stroke="#63b8ff" points="193.56,-77.42 183.11,-75.67 190.19,-83.55 193.56,-77.42"/>
</a>
</g>
</g>
<!-- Node7&#45;&gt;Node5 -->
<g id="edge8_Node000007_Node000005" class="edge">
<title>Node7&#45;&gt;Node5</title>
<g id="a_edge8_Node000007_Node000005"><a xlink:title=" ">
<path fill="none" stroke="#63b8ff" d="M362.42,-171.04C339.14,-151.79 284.07,-106.25 254.62,-81.89"/>
<polygon fill="#63b8ff" stroke="#63b8ff" points="257.13,-79.43 247.19,-75.75 252.67,-84.82 257.13,-79.43"/>
</a>
</g>
</g>
<!-- Node8 -->
<g id="Node000008" class="node">
<title>Node8</title>
<g id="a_Node000008"><a xlink:title=" ">
<polygon fill="#e0e0e0" stroke="#999999" points="986.25,-74.5 946.25,-74.5 946.25,-55.25 986.25,-55.25 986.25,-74.5"/>
<text text-anchor="middle" x="966.25" y="-61" font-family="Helvetica,sans-Serif" font-size="10.00">string</text>
</a>
</g>
</g>
<!-- Node7&#45;&gt;Node8 -->
<g id="edge9_Node000007_Node000008" class="edge">
<title>Node7&#45;&gt;Node8</title>
<g id="a_edge9_Node000007_Node000008"><a xlink:title=" ">
<path fill="none" stroke="#63b8ff" d="M425.34,-172.12C523.44,-156.87 742.29,-120.95 935.13,-74.81"/>
<polygon fill="#63b8ff" stroke="#63b8ff" points="935.67,-78.28 944.57,-72.53 934.03,-71.47 935.67,-78.28"/>
</a>
</g>
</g>
<!-- Node9 -->
<g id="Node000009" class="node">
<title>Node9</title>
<g id="a_Node000009"><a xlink:title=" ">
<polygon fill="#e0e0e0" stroke="#999999" points="408.25,-129.75 338.25,-129.75 338.25,-110.5 408.25,-110.5 408.25,-129.75"/>
<text text-anchor="middle" x="373.25" y="-116.25" font-family="Helvetica,sans-Serif" font-size="10.00">H5Opublic.h</text>
</a>
</g>
</g>
<!-- Node7&#45;&gt;Node9 -->
<g id="edge10_Node000007_Node000009" class="edge">
<title>Node7&#45;&gt;Node9</title>
<g id="a_edge10_Node000007_Node000009"><a xlink:title=" ">
<path fill="none" stroke="#63b8ff" d="M373.25,-171.06C373.25,-163.28 373.25,-151.7 373.25,-141.66"/>
<polygon fill="#63b8ff" stroke="#63b8ff" points="376.75,-141.66 373.25,-131.66 369.75,-141.66 376.75,-141.66"/>
</a>
</g>
</g>
<!-- Node10 -->
<g id="Node000010" class="node">
<title>Node10</title>
<g id="a_Node000010"><a xlink:href="_types_8hpp.html" target="_top" xlink:title=" ">
<polygon fill="white" stroke="#666666" points="339.75,-74.5 278.75,-74.5 278.75,-55.25 339.75,-55.25 339.75,-74.5"/>
<text text-anchor="middle" x="309.25" y="-61" font-family="Helvetica,sans-Serif" font-size="10.00">Types.hpp</text>
</a>
</g>
</g>
<!-- Node7&#45;&gt;Node10 -->
<g id="edge11_Node000007_Node000010" class="edge">
<title>Node7&#45;&gt;Node10</title>
<g id="a_edge11_Node000007_Node000010"><a xlink:title=" ">
<path fill="none" stroke="#63b8ff" d="M363.16,-170.93C353.25,-161.51 338.33,-145.93 329.25,-129.75 321.49,-115.93 316.32,-98.7 313.19,-85.62"/>
<polygon fill="#63b8ff" stroke="#63b8ff" points="316.66,-85.1 311.11,-76.08 309.82,-86.59 316.66,-85.1"/>
</a>
</g>
</g>
<!-- Node12 -->
<g id="Node000012" class="node">
<title>Node12</title>
<g id="a_Node000012"><a xlink:href="_base_i_o_8hpp.html" target="_top" xlink:title=" ">
<polygon fill="white" stroke="#666666" points="602.38,-129.75 524.12,-129.75 524.12,-110.5 602.38,-110.5 602.38,-129.75"/>
<text text-anchor="middle" x="563.25" y="-116.25" font-family="Helvetica,sans-Serif" font-size="10.00">io/BaseIO.hpp</text>
</a>
</g>
</g>
<!-- Node7&#45;&gt;Node12 -->
<g id="edge14_Node000007_Node000012" class="edge">
<title>Node7&#45;&gt;Node12</title>
<g id="a_edge14_Node000007_Node000012"><a xlink:title=" ">
<path fill="none" stroke="#63b8ff" d="M402.52,-170.93C434.88,-160.9 487.19,-144.69 523.3,-133.5"/>
<polygon fill="#63b8ff" stroke="#63b8ff" points="523.98,-136.96 532.5,-130.65 521.91,-130.27 523.98,-136.96"/>
</a>
</g>
</g>
<!-- Node18 -->
<g id="Node000018" class="node">
<title>Node18</title>
<g id="a_Node000018"><a xlink:href="_read_i_o_8hpp.html" target="_top" xlink:title=" ">
<polygon fill="white" stroke="#666666" points="505.75,-129.75 426.75,-129.75 426.75,-110.5 505.75,-110.5 505.75,-129.75"/>
<text text-anchor="middle" x="466.25" y="-116.25" font-family="Helvetica,sans-Serif" font-size="10.00">io/ReadIO.hpp</text>
</a>
</g>
</g>
<!-- Node7&#45;&gt;Node18 -->
<g id="edge25_Node000007_Node000018" class="edge">
<title>Node7&#45;&gt;Node18</title>
<g id="a_edge25_Node000007_Node000018"><a xlink:title=" ">
<path fill="none" stroke="#63b8ff" d="M387.37,-171.06C401.99,-161.81 425.07,-147.2 442.49,-136.17"/>
<polygon fill="#63b8ff" stroke="#63b8ff" points="444.14,-139.27 450.71,-130.96 440.39,-133.35 444.14,-139.27"/>
</a>
</g>
</g>
<!-- Node10&#45;&gt;Node6 -->
<g id="edge13_Node000010_Node000006" class="edge">
<title>Node10&#45;&gt;Node6</title>
<g id="a_edge13_Node000010_Node000006"><a xlink:title=" ">
<path fill="none" stroke="#63b8ff" d="M339.9,-57.13C385.63,-47.07 471.35,-28.21 518.35,-17.86"/>
<polygon fill="#63b8ff" stroke="#63b8ff" points="518.93,-21.32 527.94,-15.75 517.42,-14.49 518.93,-21.32"/>
</a>
</g>
</g>
<!-- Node11 -->
<g id="Node000011" class="node">
<title>Node11</title>
<g id="a_Node000011"><a xlink:title=" ">
<polygon fill="#e0e0e0" stroke="#999999" points="333.38,-19.25 285.12,-19.25 285.12,0 333.38,0 333.38,-19.25"/>
<text text-anchor="middle" x="309.25" y="-5.75" font-family="Helvetica,sans-Serif" font-size="10.00">cstddef</text>
</a>
</g>
</g>
<!-- Node10&#45;&gt;Node11 -->
<g id="edge12_Node000010_Node000011" class="edge">
<title>Node10&#45;&gt;Node11</title>
<g id="a_edge12_Node000010_Node000011"><a xlink:title=" ">
<path fill="none" stroke="#63b8ff" d="M309.25,-55.08C309.25,-48.57 309.25,-39.42 309.25,-31.12"/>
<polygon fill="#63b8ff" stroke="#63b8ff" points="312.75,-31.12 309.25,-21.12 305.75,-31.12 312.75,-31.12"/>
</a>
</g>
</g>
<!-- Node12&#45;&gt;Node4 -->
<g id="edge17_Node000012_Node000004" class="edge">
<title>Node12&#45;&gt;Node4</title>
<g id="a_edge17_Node000012_Node000004"><a xlink:title=" ">
<path fill="none" stroke="#63b8ff" d="M523.73,-111.82C520.86,-111.35 518.01,-110.91 515.25,-110.5 379.37,-90.55 340.88,-98.95 203.27,-74.86"/>
<polygon fill="#63b8ff" stroke="#63b8ff" points="204.26,-71.48 193.8,-73.17 203.03,-78.37 204.26,-71.48"/>
</a>
</g>
</g>
<!-- Node12&#45;&gt;Node5 -->
<g id="edge18_Node000012_Node000005" class="edge">
<title>Node12&#45;&gt;Node5</title>
<g id="a_edge18_Node000012_Node000005"><a xlink:title=" ">
<path fill="none" stroke="#63b8ff" d="M523.71,-111.92C520.85,-111.43 518.01,-110.95 515.25,-110.5 410.13,-93.34 380.16,-95.52 272.23,-74.72"/>
<polygon fill="#63b8ff" stroke="#63b8ff" points="273.15,-71.33 262.67,-72.85 271.81,-78.2 273.15,-71.33"/>
</a>
</g>
</g>
<!-- Node12&#45;&gt;Node6 -->
<g id="edge22_Node000012_Node000006" class="edge">
<title>Node12&#45;&gt;Node6</title>
<g id="a_edge22_Node000012_Node000006"><a xlink:title=" ">
<path fill="none" stroke="#63b8ff" d="M590.38,-110.03C617.82,-99.25 654.22,-79.63 639.25,-55.25 627.26,-35.73 603.78,-24.42 584.08,-18.08"/>
<polygon fill="#63b8ff" stroke="#63b8ff" points="585.08,-14.72 574.5,-15.31 583.13,-21.45 585.08,-14.72"/>
</a>
</g>
</g>
<!-- Node12&#45;&gt;Node8 -->
<g id="edge19_Node000012_Node000008" class="edge">
<title>Node12&#45;&gt;Node8</title>
<g id="a_edge19_Node000012_Node000008"><a xlink:title=" ">
<path fill="none" stroke="#63b8ff" d="M602.64,-116.64C669.26,-111.96 808.52,-100.12 934.76,-74.7"/>
<polygon fill="#63b8ff" stroke="#63b8ff" points="935.19,-78.18 944.28,-72.74 933.78,-71.32 935.19,-78.18"/>
</a>
</g>
</g>
<!-- Node12&#45;&gt;Node10 -->
<g id="edge24_Node000012_Node000010" class="edge">
<title>Node12&#45;&gt;Node10</title>
<g id="a_edge24_Node000012_Node000010"><a xlink:title=" ">
<path fill="none" stroke="#63b8ff" d="M523.79,-110.98C483.1,-102.56 417.52,-88.94 350.94,-74.85"/>
<polygon fill="#63b8ff" stroke="#63b8ff" points="351.81,-71.45 341.3,-72.8 350.36,-78.3 351.81,-71.45"/>
</a>
</g>
</g>
<!-- Node13 -->
<g id="Node000013" class="node">
<title>Node13</title>
<g id="a_Node000013"><a xlink:title=" ">
<polygon fill="#e0e0e0" stroke="#999999" points="630.12,-74.5 598.38,-74.5 598.38,-55.25 630.12,-55.25 630.12,-74.5"/>
<text text-anchor="middle" x="614.25" y="-61" font-family="Helvetica,sans-Serif" font-size="10.00">any</text>
</a>
</g>
</g>
<!-- Node12&#45;&gt;Node13 -->
<g id="edge15_Node000012_Node000013" class="edge">
<title>Node12&#45;&gt;Node13</title>
<g id="a_edge15_Node000012_Node000013"><a xlink:title=" ">
<path fill="none" stroke="#63b8ff" d="M571.67,-110.33C578.79,-102.9 589.19,-92.04 597.94,-82.91"/>
<polygon fill="#63b8ff" stroke="#63b8ff" points="600.21,-85.6 604.6,-75.95 595.15,-80.75 600.21,-85.6"/>
</a>
</g>
</g>
<!-- Node14 -->
<g id="Node000014" class="node">
<title>Node14</title>
<g id="a_Node000014"><a xlink:title=" ">
<polygon fill="#e0e0e0" stroke="#999999" points="731.88,-74.5 686.62,-74.5 686.62,-55.25 731.88,-55.25 731.88,-74.5"/>
<text text-anchor="middle" x="709.25" y="-61" font-family="Helvetica,sans-Serif" font-size="10.00">cstdint</text>
</a>
</g>
</g>
<!-- Node12&#45;&gt;Node14 -->
<g id="edge16_Node000012_Node000014" class="edge">
<title>Node12&#45;&gt;Node14</title>
<g id="a_edge16_Node000012_Node000014"><a xlink:title=" ">
<path fill="none" stroke="#63b8ff" d="M588.02,-110.09C612.08,-101.32 648.79,-87.93 675.52,-78.18"/>
<polygon fill="#63b8ff" stroke="#63b8ff" points="676.67,-81.48 684.87,-74.77 674.27,-74.91 676.67,-81.48"/>
</a>
</g>
</g>
<!-- Node15 -->
<g id="Node000015" class="node">
<title>Node15</title>
<g id="a_Node000015"><a xlink:title=" ">
<polygon fill="#e0e0e0" stroke="#999999" points="832.62,-74.5 749.88,-74.5 749.88,-55.25 832.62,-55.25 832.62,-74.5"/>
<text text-anchor="middle" x="791.25" y="-61" font-family="Helvetica,sans-Serif" font-size="10.00">unordered_map</text>
</a>
</g>
</g>
<!-- Node12&#45;&gt;Node15 -->
<g id="edge20_Node000012_Node000015" class="edge">
<title>Node12&#45;&gt;Node15</title>
<g id="a_edge20_Node000012_Node000015"><a xlink:title=" ">
<path fill="none" stroke="#63b8ff" d="M602.19,-110.03C640.63,-101.05 699.58,-87.28 741.43,-77.51"/>
<polygon fill="#63b8ff" stroke="#63b8ff" points="742.06,-80.96 751,-75.28 740.47,-74.14 742.06,-80.96"/>
</a>
</g>
</g>
<!-- Node16 -->
<g id="Node000016" class="node">
<title>Node16</title>
<g id="a_Node000016"><a xlink:title=" ">
<polygon fill="#e0e0e0" stroke="#999999" points="928,-74.5 850.5,-74.5 850.5,-55.25 928,-55.25 928,-74.5"/>
<text text-anchor="middle" x="889.25" y="-61" font-family="Helvetica,sans-Serif" font-size="10.00">unordered_set</text>
</a>
</g>
</g>
<!-- Node12&#45;&gt;Node16 -->
<g id="edge21_Node000012_Node000016" class="edge">
<title>Node12&#45;&gt;Node16</title>
<g id="a_edge21_Node000012_Node000016"><a xlink:title=" ">
<path fill="none" stroke="#63b8ff" d="M602.42,-113.07C654.12,-105.03 748.27,-90.21 838.91,-74.87"/>
<polygon fill="#63b8ff" stroke="#63b8ff" points="839.46,-78.33 848.74,-73.2 838.29,-71.43 839.46,-78.33"/>
</a>
</g>
</g>
<!-- Node17 -->
<g id="Node000017" class="node">
<title>Node17</title>
<g id="a_Node000017"><a xlink:title=" ">
<polygon fill="#e0e0e0" stroke="#999999" points="580.38,-74.5 472.12,-74.5 472.12,-55.25 580.38,-55.25 580.38,-74.5"/>
<text text-anchor="middle" x="526.25" y="-61" font-family="Helvetica,sans-Serif" font-size="10.00">boost/multi_array.hpp</text>
</a>
</g>
</g>
<!-- Node12&#45;&gt;Node17 -->
<g id="edge23_Node000012_Node000017" class="edge">
<title>Node12&#45;&gt;Node17</title>
<g id="a_edge23_Node000012_Node000017"><a xlink:title=" ">
<path fill="none" stroke="#63b8ff" d="M557.14,-110.33C552.19,-103.21 545.05,-92.93 538.88,-84.05"/>
<polygon fill="#63b8ff" stroke="#63b8ff" points="541.94,-82.32 533.36,-76.1 536.19,-86.31 541.94,-82.32"/>
</a>
</g>
</g>
<!-- Node18&#45;&gt;Node4 -->
<g id="edge28_Node000018_Node000004" class="edge">
<title>Node18&#45;&gt;Node4</title>
<g id="a_edge28_Node000018_Node000004"><a xlink:title=" ">
<path fill="none" stroke="#63b8ff" d="M426.41,-112.08C423.31,-111.54 420.23,-111.01 417.25,-110.5 324.46,-94.64 297.95,-94.22 203.56,-75.07"/>
<polygon fill="#63b8ff" stroke="#63b8ff" points="204.32,-71.65 193.82,-73.07 202.91,-78.51 204.32,-71.65"/>
</a>
</g>
</g>
<!-- Node18&#45;&gt;Node5 -->
<g id="edge29_Node000018_Node000005" class="edge">
<title>Node18&#45;&gt;Node5</title>
<g id="a_edge29_Node000018_Node000005"><a xlink:title=" ">
<path fill="none" stroke="#63b8ff" d="M426.41,-110.27C389.1,-101.93 331.49,-88.93 272.3,-74.95"/>
<polygon fill="#63b8ff" stroke="#63b8ff" points="273.24,-71.58 262.7,-72.68 271.63,-78.39 273.24,-71.58"/>
</a>
</g>
</g>
<!-- Node18&#45;&gt;Node6 -->
<g id="edge32_Node000018_Node000006" class="edge">
<title>Node18&#45;&gt;Node6</title>
<g id="a_edge32_Node000018_Node000006"><a xlink:title=" ">
<path fill="none" stroke="#63b8ff" d="M462.85,-110.08C458.52,-96.94 452.79,-72.28 463.25,-55.25 475.24,-35.73 498.72,-24.42 518.42,-18.08"/>
<polygon fill="#63b8ff" stroke="#63b8ff" points="519.37,-21.45 528,-15.31 517.42,-14.72 519.37,-21.45"/>
</a>
</g>
</g>
<!-- Node18&#45;&gt;Node8 -->
<g id="edge30_Node000018_Node000008" class="edge">
<title>Node18&#45;&gt;Node8</title>
<g id="a_edge30_Node000018_Node000008"><a xlink:title=" ">
<path fill="none" stroke="#63b8ff" d="M506.05,-111.81C509.16,-111.34 512.25,-110.89 515.25,-110.5 698.26,-86.64 750.28,-108.62 934.61,-74.62"/>
<polygon fill="#63b8ff" stroke="#63b8ff" points="935.11,-78.09 944.29,-72.8 933.82,-71.21 935.11,-78.09"/>
</a>
</g>
</g>
<!-- Node18&#45;&gt;Node10 -->
<g id="edge34_Node000018_Node000010" class="edge">
<title>Node18&#45;&gt;Node10</title>
<g id="a_edge34_Node000018_Node000010"><a xlink:title=" ">
<path fill="none" stroke="#63b8ff" d="M439.62,-110.09C414.13,-101.45 375.44,-88.32 346.82,-78.62"/>
<polygon fill="#63b8ff" stroke="#63b8ff" points="348.04,-75.34 337.45,-75.44 345.79,-81.97 348.04,-75.34"/>
</a>
</g>
</g>
<!-- Node18&#45;&gt;Node13 -->
<g id="edge26_Node000018_Node000013" class="edge">
<title>Node18&#45;&gt;Node13</title>
<g id="a_edge26_Node000018_Node000013"><a xlink:title=" ">
<path fill="none" stroke="#63b8ff" d="M491.36,-110.09C518.06,-100.49 560.13,-85.35 587.45,-75.52"/>
<polygon fill="#63b8ff" stroke="#63b8ff" points="588.53,-78.85 596.75,-72.17 586.16,-72.26 588.53,-78.85"/>
</a>
</g>
</g>
<!-- Node18&#45;&gt;Node14 -->
<g id="edge27_Node000018_Node000014" class="edge">
<title>Node18&#45;&gt;Node14</title>
<g id="a_edge27_Node000018_Node000014"><a xlink:title=" ">
<path fill="none" stroke="#63b8ff" d="M506.1,-110.39C553.2,-100.07 630.74,-83.08 675.16,-73.34"/>
<polygon fill="#63b8ff" stroke="#63b8ff" points="675.74,-76.8 684.76,-71.24 674.24,-69.96 675.74,-76.8"/>
</a>
</g>
</g>
<!-- Node18&#45;&gt;Node17 -->
<g id="edge33_Node000018_Node000017" class="edge">
<title>Node18&#45;&gt;Node17</title>
<g id="a_edge33_Node000018_Node000017"><a xlink:title=" ">
<path fill="none" stroke="#63b8ff" d="M476.43,-110.09C485.01,-102.47 497.52,-91.37 507.85,-82.2"/>
<polygon fill="#63b8ff" stroke="#63b8ff" points="509.93,-85.04 515.09,-75.78 505.29,-79.8 509.93,-85.04"/>
</a>
</g>
</g>
<!-- Node19 -->
<g id="Node000019" class="node">
<title>Node19</title>
<g id="a_Node000019"><a xlink:title=" ">
<polygon fill="#e0e0e0" stroke="#999999" points="416.25,-74.5 358.25,-74.5 358.25,-55.25 416.25,-55.25 416.25,-74.5"/>
<text text-anchor="middle" x="387.25" y="-61" font-family="Helvetica,sans-Serif" font-size="10.00">typeindex</text>
</a>
</g>
</g>
<!-- Node18&#45;&gt;Node19 -->
<g id="edge31_Node000018_Node000019" class="edge">
<title>Node18&#45;&gt;Node19</title>
<g id="a_edge31_Node000018_Node000019"><a xlink:title=" ">
<path fill="none" stroke="#63b8ff" d="M452.85,-110.09C441.16,-102.21 423.95,-90.61 410.09,-81.27"/>
<polygon fill="#63b8ff" stroke="#63b8ff" points="412.22,-78.49 401.97,-75.8 408.31,-84.29 412.22,-78.49"/>
</a>
</g>
</g>
<!-- Node22&#45;&gt;Node7 -->
<g id="edge53_Node000022_Node000007" class="edge">
<title>Node22&#45;&gt;Node7</title>
<g id="a_edge53_Node000022_Node000007"><a xlink:title=" ">
<path fill="none" stroke="#63b8ff" d="M1181.44,-239.74C1085.43,-235.71 758.95,-220.93 490.25,-196.25 472.87,-194.65 454.07,-192.54 436.75,-190.43"/>
<polygon fill="#63b8ff" stroke="#63b8ff" points="437.45,-186.99 427.1,-189.23 436.59,-193.94 437.45,-186.99"/>
</a>
</g>
</g>
<!-- Node22&#45;&gt;Node8 -->
<g id="edge45_Node000022_Node000008" class="edge">
<title>Node22&#45;&gt;Node8</title>
<g id="a_edge45_Node000022_Node000008"><a xlink:title=" ">
<path fill="none" stroke="#63b8ff" d="M1234.41,-231.89C1250.08,-224.82 1268.98,-213.29 1278.25,-196.25 1284.73,-184.34 1286.24,-176.7 1278.25,-165.75 1212.12,-75.15 1062.7,-64.87 997.58,-64.92"/>
<polygon fill="#63b8ff" stroke="#63b8ff" points="997.92,-61.42 987.95,-65.02 997.99,-68.42 997.92,-61.42"/>
</a>
</g>
</g>
<!-- Node22&#45;&gt;Node12 -->
<g id="edge52_Node000022_Node000012" class="edge">
<title>Node22&#45;&gt;Node12</title>
<g id="a_edge52_Node000022_Node000012"><a xlink:title=" ">
<path fill="none" stroke="#63b8ff" d="M1181.3,-241.24C1058.81,-242.53 573.51,-244.57 528.25,-196.25 512.5,-179.44 530.14,-154.27 545.56,-137.78"/>
<polygon fill="#63b8ff" stroke="#63b8ff" points="547.62,-140.67 552.17,-131.11 542.65,-135.75 547.62,-140.67"/>
</a>
</g>
</g>
<!-- Node22&#45;&gt;Node14 -->
<g id="edge41_Node000022_Node000014" class="edge">
<title>Node22&#45;&gt;Node14</title>
<g id="a_edge41_Node000022_Node000014"><a xlink:title=" ">
<path fill="none" stroke="#63b8ff" d="M1181.46,-241.14C1062.98,-241.96 604.1,-242.15 561.25,-196.25 552,-186.34 554.89,-177.72 561.25,-165.75 562.99,-162.48 644.76,-108.33 685.99,-81.17"/>
<polygon fill="#63b8ff" stroke="#63b8ff" points="687.84,-84.14 694.27,-75.72 683.99,-78.3 687.84,-84.14"/>
</a>
</g>
</g>
<!-- Node23 -->
<g id="Node000023" class="node">
<title>Node23</title>
<g id="a_Node000023"><a xlink:title=" ">
<polygon fill="#e0e0e0" stroke="#999999" points="1381.12,-190.62 1325.38,-190.62 1325.38,-171.38 1381.12,-171.38 1381.12,-190.62"/>
<text text-anchor="middle" x="1353.25" y="-177.12" font-family="Helvetica,sans-Serif" font-size="10.00">algorithm</text>
</a>
</g>
</g>
<!-- Node22&#45;&gt;Node23 -->
<g id="edge38_Node000022_Node000023" class="edge">
<title>Node22&#45;&gt;Node23</title>
<g id="a_edge38_Node000022_Node000023"><a xlink:title=" ">
<path fill="none" stroke="#63b8ff" d="M1231.43,-231.8C1255.29,-222.05 1293.45,-206.45 1320.7,-195.31"/>
<polygon fill="#63b8ff" stroke="#63b8ff" points="1321.94,-198.58 1329.88,-191.56 1319.29,-192.1 1321.94,-198.58"/>
</a>
</g>
</g>
<!-- Node24 -->
<g id="Node000024" class="node">
<title>Node24</title>
<g id="a_Node000024"><a xlink:title=" ">
<polygon fill="#e0e0e0" stroke="#999999" points="1444.88,-190.62 1399.62,-190.62 1399.62,-171.38 1444.88,-171.38 1444.88,-190.62"/>
<text text-anchor="middle" x="1422.25" y="-177.12" font-family="Helvetica,sans-Serif" font-size="10.00">chrono</text>
</a>
</g>
</g>
<!-- Node22&#45;&gt;Node24 -->
<g id="edge39_Node000022_Node000024" class="edge">
<title>Node22&#45;&gt;Node24</title>
<g id="a_edge39_Node000022_Node000024"><a xlink:title=" ">
<path fill="none" stroke="#63b8ff" d="M1236.98,-235.63C1272.88,-228.49 1337.13,-214.46 1390.25,-196.25 1391.21,-195.92 1392.17,-195.58 1393.15,-195.22"/>
<polygon fill="#63b8ff" stroke="#63b8ff" points="1394.17,-198.58 1402.12,-191.57 1391.54,-192.09 1394.17,-198.58"/>
</a>
</g>
</g>
<!-- Node25 -->
<g id="Node000025" class="node">
<title>Node25</title>
<g id="a_Node000025"><a xlink:title=" ">
<polygon fill="#e0e0e0" stroke="#999999" points="1505.75,-190.62 1462.75,-190.62 1462.75,-171.38 1505.75,-171.38 1505.75,-190.62"/>
<text text-anchor="middle" x="1484.25" y="-177.12" font-family="Helvetica,sans-Serif" font-size="10.00">cmath</text>
</a>
</g>
</g>
<!-- Node22&#45;&gt;Node25 -->
<g id="edge40_Node000022_Node000025" class="edge">
<title>Node22&#45;&gt;Node25</title>
<g id="a_edge40_Node000022_Node000025"><a xlink:title=" ">
<path fill="none" stroke="#63b8ff" d="M1237.02,-238.22C1283.06,-233.3 1377.71,-220.92 1454.25,-196.25 1455.05,-195.99 1455.86,-195.72 1456.67,-195.43"/>
<polygon fill="#63b8ff" stroke="#63b8ff" points="1457.83,-198.74 1465.72,-191.67 1455.14,-192.27 1457.83,-198.74"/>
</a>
</g>
</g>
<!-- Node26 -->
<g id="Node000026" class="node">
<title>Node26</title>
<g id="a_Node000026"><a xlink:title=" ">
<polygon fill="#e0e0e0" stroke="#999999" points="1564.25,-190.62 1524.25,-190.62 1524.25,-171.38 1564.25,-171.38 1564.25,-190.62"/>
<text text-anchor="middle" x="1544.25" y="-177.12" font-family="Helvetica,sans-Serif" font-size="10.00">ctime</text>
</a>
</g>
</g>
<!-- Node22&#45;&gt;Node26 -->
<g id="edge42_Node000022_Node000026" class="edge">
<title>Node22&#45;&gt;Node26</title>
<g id="a_edge42_Node000022_Node000026"><a xlink:title=" ">
<path fill="none" stroke="#63b8ff" d="M1236.9,-239.72C1291.34,-236.82 1415.77,-227.11 1515.25,-196.25 1516.05,-196 1516.86,-195.73 1517.67,-195.45"/>
<polygon fill="#63b8ff" stroke="#63b8ff" points="1518.81,-198.77 1526.66,-191.65 1516.09,-192.32 1518.81,-198.77"/>
</a>
</g>
</g>
<!-- Node27 -->
<g id="Node000027" class="node">
<title>Node27</title>
<g id="a_Node000027"><a xlink:title=" ">
<polygon fill="#e0e0e0" stroke="#999999" points="1632.12,-190.62 1582.38,-190.62 1582.38,-171.38 1632.12,-171.38 1632.12,-190.62"/>
<text text-anchor="middle" x="1607.25" y="-177.12" font-family="Helvetica,sans-Serif" font-size="10.00">iomanip</text>
</a>
</g>
</g>
<!-- Node22&#45;&gt;Node27 -->
<g id="edge43_Node000022_Node000027" class="edge">
<title>Node22&#45;&gt;Node27</title>
<g id="a_edge43_Node000022_Node000027"><a xlink:title=" ">
<path fill="none" stroke="#63b8ff" d="M1237.14,-240.06C1298.77,-237.69 1450.79,-228.75 1573.25,-196.25 1574.64,-195.88 1576.05,-195.47 1577.47,-195.02"/>
<polygon fill="#63b8ff" stroke="#63b8ff" points="1578.56,-198.34 1586.73,-191.61 1576.14,-191.78 1578.56,-198.34"/>
</a>
</g>
</g>
<!-- Node28 -->
<g id="Node000028" class="node">
<title>Node28</title>
<g id="a_Node000028"><a xlink:title=" ">
<polygon fill="#e0e0e0" stroke="#999999" points="1701.88,-190.62 1650.62,-190.62 1650.62,-171.38 1701.88,-171.38 1701.88,-190.62"/>
<text text-anchor="middle" x="1676.25" y="-177.12" font-family="Helvetica,sans-Serif" font-size="10.00">sstream</text>
</a>
</g>
</g>
<!-- Node22&#45;&gt;Node28 -->
<g id="edge44_Node000022_Node000028" class="edge">
<title>Node22&#45;&gt;Node28</title>
<g id="a_edge44_Node000022_Node000028"><a xlink:title=" ">
<path fill="none" stroke="#63b8ff" d="M1237.01,-240.71C1306.3,-239.73 1492.02,-233.53 1641.25,-196.25 1642.88,-195.84 1644.54,-195.37 1646.19,-194.86"/>
<polygon fill="#63b8ff" stroke="#63b8ff" points="1647.3,-198.18 1655.53,-191.51 1644.94,-191.59 1647.3,-198.18"/>
</a>
</g>
</g>
<!-- Node29 -->
<g id="Node000029" class="node">
<title>Node29</title>
<g id="a_Node000029"><a xlink:title=" ">
<polygon fill="#e0e0e0" stroke="#999999" points="1824.5,-190.62 1720,-190.62 1720,-171.38 1824.5,-171.38 1824.5,-190.62"/>
<text text-anchor="middle" x="1772.25" y="-177.12" font-family="Helvetica,sans-Serif" font-size="10.00">boost/date_time.hpp</text>
</a>
</g>
</g>
<!-- Node22&#45;&gt;Node29 -->
<g id="edge46_Node000022_Node000029" class="edge">
<title>Node22&#45;&gt;Node29</title>
<g id="a_edge46_Node000022_Node000029"><a xlink:title=" ">
<path fill="none" stroke="#63b8ff" d="M1237.17,-239.77C1313.52,-236.47 1531.99,-225.01 1711.25,-196.25 1716.15,-195.46 1721.25,-194.5 1726.31,-193.46"/>
<polygon fill="#63b8ff" stroke="#63b8ff" points="1726.76,-196.94 1735.78,-191.39 1725.26,-190.11 1726.76,-196.94"/>
</a>
</g>
</g>
<!-- Node30 -->
<g id="Node000030" class="node">
<title>Node30</title>
<g id="a_Node000030"><a xlink:title=" ">
<polygon fill="#e0e0e0" stroke="#999999" points="710.5,-190.62 570,-190.62 570,-171.38 710.5,-171.38 710.5,-190.62"/>
<text text-anchor="middle" x="640.25" y="-177.12" font-family="Helvetica,sans-Serif" font-size="10.00">boost/endian/conversion.hpp</text>
</a>
</g>
</g>
<!-- Node22&#45;&gt;Node30 -->
<g id="edge47_Node000022_Node000030" class="edge">
<title>Node22&#45;&gt;Node30</title>
<g id="a_edge47_Node000022_Node000030"><a xlink:title=" ">
<path fill="none" stroke="#63b8ff" d="M1181.31,-239.16C1106.41,-234.39 894.93,-219.73 720.25,-196.25 713.28,-195.31 705.98,-194.2 698.76,-193.01"/>
<polygon fill="#63b8ff" stroke="#63b8ff" points="699.46,-189.58 689.02,-191.36 698.29,-196.48 699.46,-189.58"/>
</a>
</g>
</g>
<!-- Node31 -->
<g id="Node000031" class="node">
<title>Node31</title>
<g id="a_Node000031"><a xlink:title=" ">
<polygon fill="#e0e0e0" stroke="#999999" points="829.62,-190.62 728.88,-190.62 728.88,-171.38 829.62,-171.38 829.62,-190.62"/>
<text text-anchor="middle" x="779.25" y="-177.12" font-family="Helvetica,sans-Serif" font-size="10.00">boost/uuid/uuid.hpp</text>
</a>
</g>
</g>
<!-- Node22&#45;&gt;Node31 -->
<g id="edge48_Node000022_Node000031" class="edge">
<title>Node22&#45;&gt;Node31</title>
<g id="a_edge48_Node000022_Node000031"><a xlink:title=" ">
<path fill="none" stroke="#63b8ff" d="M1181.63,-238.67C1119.78,-233.49 965.62,-219.21 838.25,-196.25 833.94,-195.47 829.47,-194.57 825.02,-193.61"/>
<polygon fill="#63b8ff" stroke="#63b8ff" points="826.05,-190.26 815.52,-191.46 824.5,-197.08 826.05,-190.26"/>
</a>
</g>
</g>
<!-- Node32 -->
<g id="Node000032" class="node">
<title>Node32</title>
<g id="a_Node000032"><a xlink:title=" ">
<polygon fill="#e0e0e0" stroke="#999999" points="999.12,-190.62 847.38,-190.62 847.38,-171.38 999.12,-171.38 999.12,-190.62"/>
<text text-anchor="middle" x="923.25" y="-177.12" font-family="Helvetica,sans-Serif" font-size="10.00">boost/uuid/uuid_generators.hpp</text>
</a>
</g>
</g>
<!-- Node22&#45;&gt;Node32 -->
<g id="edge49_Node000022_Node000032" class="edge">
<title>Node22&#45;&gt;Node32</title>
<g id="a_edge49_Node000022_Node000032"><a xlink:title=" ">
<path fill="none" stroke="#63b8ff" d="M1181.31,-235.12C1134.4,-225.47 1039,-205.83 978.26,-193.32"/>
<polygon fill="#63b8ff" stroke="#63b8ff" points="979.32,-189.97 968.82,-191.38 977.91,-196.83 979.32,-189.97"/>
</a>
</g>
</g>
<!-- Node33 -->
<g id="Node000033" class="node">
<title>Node33</title>
<g id="a_Node000033"><a xlink:title=" ">
<polygon fill="#e0e0e0" stroke="#999999" points="1131,-190.62 1017.5,-190.62 1017.5,-171.38 1131,-171.38 1131,-190.62"/>
<text text-anchor="middle" x="1074.25" y="-177.12" font-family="Helvetica,sans-Serif" font-size="10.00">boost/uuid/uuid_io.hpp</text>
</a>
</g>
</g>
<!-- Node22&#45;&gt;Node33 -->
<g id="edge50_Node000022_Node000033" class="edge">
<title>Node22&#45;&gt;Node33</title>
<g id="a_edge50_Node000022_Node000033"><a xlink:title=" ">
<path fill="none" stroke="#63b8ff" d="M1188.45,-231.8C1166.19,-222.1 1130.63,-206.59 1105.11,-195.46"/>
<polygon fill="#63b8ff" stroke="#63b8ff" points="1106.8,-192.38 1096.24,-191.59 1104,-198.79 1106.8,-192.38"/>
</a>
</g>
</g>
<!-- Node34 -->
<g id="Node000034" class="node">
<title>Node34</title>
<g id="a_Node000034"><a xlink:title=" ">
<polygon fill="#e0e0e0" stroke="#999999" points="1269,-196.25 1149.5,-196.25 1149.5,-165.75 1269,-165.75 1269,-196.25"/>
<text text-anchor="start" x="1157.5" y="-182.75" font-family="Helvetica,sans-Serif" font-size="10.00">boost/date_time/c_local</text>
<text text-anchor="middle" x="1209.25" y="-171.5" font-family="Helvetica,sans-Serif" font-size="10.00">_time_adjustor.hpp</text>
</a>
</g>
</g>
<!-- Node22&#45;&gt;Node34 -->
<g id="edge51_Node000022_Node000034" class="edge">
<title>Node22&#45;&gt;Node34</title>
<g id="a_edge51_Node000022_Node000034"><a xlink:title=" ">
<path fill="none" stroke="#63b8ff" d="M1209.25,-231.93C1209.25,-225.48 1209.25,-216.41 1209.25,-207.76"/>
<polygon fill="#63b8ff" stroke="#63b8ff" points="1212.75,-208.05 1209.25,-198.05 1205.75,-208.05 1212.75,-208.05"/>
</a>
</g>
</g>
<!-- Node35&#45;&gt;Node12 -->
<g id="edge55_Node000035_Node000012" class="edge">
<title>Node35&#45;&gt;Node12</title>
<g id="a_edge55_Node000035_Node000012"><a xlink:title=" ">
<path fill="none" stroke="#63b8ff" d="M473.11,-232.11C473.3,-217.12 475.6,-186.18 490.25,-165.75 499.77,-152.48 514.58,-142.37 528.38,-135.16"/>
<polygon fill="#63b8ff" stroke="#63b8ff" points="529.79,-138.37 537.27,-130.87 526.75,-132.07 529.79,-138.37"/>
</a>
</g>
</g>
</g>
</svg>
