<?xml version="1.0" encoding="UTF-8" standalone="no"?>
<!DOCTYPE svg PUBLIC "-//W3C//DTD SVG 1.1//EN"
 "http://www.w3.org/Graphics/SVG/1.1/DTD/svg11.dtd">
<!-- Generated by graphviz version 14.1.2 (20260124.0452)
 -->
<!-- Title: src/io/hdf5/HDF5IO.hpp Pages: 1 -->
<svg width="901pt" height="248pt"
 viewBox="0.00 0.00 901.00 248.00" xmlns="http://www.w3.org/2000/svg" xmlns:xlink="http://www.w3.org/1999/xlink">
<g id="graph0" class="graph" transform="scale(1 1) rotate(0) translate(4 244.25)">
<title>src/io/hdf5/HDF5IO.hpp</title>
<!-- Node1 -->
<g id="Node000001" class="node">
<title>Node1</title>
<g id="a_Node000001"><a xlink:title=" ">
<polygon fill="#999999" stroke="#666666" points="318.65,-240.25 198.4,-240.25 198.4,-221 318.65,-221 318.65,-240.25"/>
<text xml:space="preserve" text-anchor="middle" x="258.52" y="-226.75" font-family="Helvetica,sans-Serif" font-size="10.00">src/io/hdf5/HDF5IO.hpp</text>
</a>
</g>
</g>
<!-- Node2 -->
<g id="Node000002" class="node">
<title>Node2</title>
<g id="a_Node000002"><a xlink:title=" ">
<polygon fill="#e0e0e0" stroke="#999999" points="143.27,-74.5 89.77,-74.5 89.77,-55.25 143.27,-55.25 143.27,-74.5"/>
<text xml:space="preserve" text-anchor="middle" x="116.52" y="-61" font-family="Helvetica,sans-Serif" font-size="10.00">iostream</text>
</a>
</g>
</g>
<!-- Node1&#45;&gt;Node2 -->
<g id="edge1_Node000001_Node000002" class="edge">
<title>Node1&#45;&gt;Node2</title>
<g id="a_edge1_Node000001_Node000002"><a xlink:title=" ">
<path fill="none" stroke="#63b8ff" d="M250.89,-220.82C228.35,-194.83 161.81,-118.09 131.66,-83.34"/>
<polygon fill="#63b8ff" stroke="#63b8ff" points="134.38,-81.13 125.19,-75.87 129.09,-85.71 134.38,-81.13"/>
</a>
</g>
</g>
<!-- Node3 -->
<g id="Node000003" class="node">
<title>Node3</title>
<g id="a_Node000003"><a xlink:title=" ">
<polygon fill="#e0e0e0" stroke="#999999" points="72.15,-74.5 20.9,-74.5 20.9,-55.25 72.15,-55.25 72.15,-74.5"/>
<text xml:space="preserve" text-anchor="middle" x="46.52" y="-61" font-family="Helvetica,sans-Serif" font-size="10.00">memory</text>
</a>
</g>
</g>
<!-- Node1&#45;&gt;Node3 -->
<g id="edge2_Node000001_Node000003" class="edge">
<title>Node1&#45;&gt;Node3</title>
<g id="a_edge2_Node000001_Node000003"><a xlink:title=" ">
<path fill="none" stroke="#63b8ff" d="M246.82,-220.59C212.36,-193.97 110.93,-115.62 67.09,-81.76"/>
<polygon fill="#63b8ff" stroke="#63b8ff" points="69.44,-79.15 59.38,-75.81 65.16,-84.69 69.44,-79.15"/>
</a>
</g>
</g>
<!-- Node4 -->
<g id="Node000004" class="node">
<title>Node4</title>
<g id="a_Node000004"><a xlink:title=" ">
<polygon fill="#e0e0e0" stroke="#999999" points="231.52,-19.25 191.52,-19.25 191.52,0 231.52,0 231.52,-19.25"/>
<text xml:space="preserve" text-anchor="middle" x="211.52" y="-5.75" font-family="Helvetica,sans-Serif" font-size="10.00">string</text>
</a>
</g>
</g>
<!-- Node1&#45;&gt;Node4 -->
<g id="edge3_Node000001_Node000004" class="edge">
<title>Node1&#45;&gt;Node4</title>
<g id="a_edge3_Node000001_Node000004"><a xlink:title=" ">
<path fill="none" stroke="#63b8ff" d="M218.18,-220.55C156.17,-204.03 40.7,-162.3 3.52,-74.5 0.19,-66.62 -1.86,-61.9 3.52,-55.25 25.33,-28.27 127.15,-16.86 179.8,-12.69"/>
<polygon fill="#63b8ff" stroke="#63b8ff" points="179.92,-16.19 189.64,-11.96 179.4,-9.21 179.92,-16.19"/>
</a>
</g>
</g>
<!-- Node5 -->
<g id="Node000005" class="node">
<title>Node5</title>
<g id="a_Node000005"><a xlink:title=" ">
<polygon fill="#e0e0e0" stroke="#999999" points="892.52,-185 822.52,-185 822.52,-165.75 892.52,-165.75 892.52,-185"/>
<text xml:space="preserve" text-anchor="middle" x="857.52" y="-171.5" font-family="Helvetica,sans-Serif" font-size="10.00">H5Opublic.h</text>
</a>
</g>
</g>
<!-- Node1&#45;&gt;Node5 -->
<g id="edge4_Node000001_Node000005" class="edge">
<title>Node1&#45;&gt;Node5</title>
<g id="a_edge4_Node000001_Node000005"><a xlink:title=" ">
<path fill="none" stroke="#63b8ff" d="M318.94,-226.57C420.4,-221.03 631.31,-207.74 808.52,-185 809.36,-184.89 810.2,-184.78 811.05,-184.67"/>
<polygon fill="#63b8ff" stroke="#63b8ff" points="811.39,-188.15 820.76,-183.21 810.35,-181.23 811.39,-188.15"/>
</a>
</g>
</g>
<!-- Node6 -->
<g id="Node000006" class="node">
<title>Node6</title>
<g id="a_Node000006"><a xlink:href="_types_8hpp.html" target="_top" xlink:title=" ">
<polygon fill="white" stroke="#666666" points="787.02,-74.5 726.02,-74.5 726.02,-55.25 787.02,-55.25 787.02,-74.5"/>
<text xml:space="preserve" text-anchor="middle" x="756.52" y="-61" font-family="Helvetica,sans-Serif" font-size="10.00">Types.hpp</text>
</a>
</g>
</g>
<!-- Node1&#45;&gt;Node6 -->
<g id="edge5_Node000001_Node000006" class="edge">
<title>Node1&#45;&gt;Node6</title>
<g id="a_edge5_Node000001_Node000006"><a xlink:title=" ">
<path fill="none" stroke="#63b8ff" d="M319.03,-228.02C408.92,-223.13 580.24,-203.9 702.52,-129.75 720.91,-118.6 736.09,-98.98 745.62,-84.42"/>
<polygon fill="#63b8ff" stroke="#63b8ff" points="748.43,-86.53 750.73,-76.19 742.49,-82.84 748.43,-86.53"/>
</a>
</g>
</g>
<!-- Node10 -->
<g id="Node000010" class="node">
<title>Node10</title>
<g id="a_Node000010"><a xlink:href="_base_i_o_8hpp.html" target="_top" xlink:title=" ">
<polygon fill="white" stroke="#666666" points="297.65,-129.75 219.4,-129.75 219.4,-110.5 297.65,-110.5 297.65,-129.75"/>
<text xml:space="preserve" text-anchor="middle" x="258.52" y="-116.25" font-family="Helvetica,sans-Serif" font-size="10.00">io/BaseIO.hpp</text>
</a>
</g>
</g>
<!-- Node1&#45;&gt;Node10 -->
<g id="edge10_Node000001_Node000010" class="edge">
<title>Node1&#45;&gt;Node10</title>
<g id="a_edge10_Node000001_Node000010"><a xlink:title=" ">
<path fill="none" stroke="#63b8ff" d="M258.52,-220.75C258.52,-203.5 258.52,-165.08 258.52,-141.31"/>
<polygon fill="#63b8ff" stroke="#63b8ff" points="262.02,-141.64 258.52,-131.64 255.02,-141.64 262.02,-141.64"/>
</a>
</g>
</g>
<!-- Node17 -->
<g id="Node000017" class="node">
<title>Node17</title>
<g id="a_Node000017"><a xlink:href="_read_i_o_8hpp.html" target="_top" xlink:title=" ">
<polygon fill="white" stroke="#666666" points="442.02,-185 363.02,-185 363.02,-165.75 442.02,-165.75 442.02,-185"/>
<text xml:space="preserve" text-anchor="middle" x="402.52" y="-171.5" font-family="Helvetica,sans-Serif" font-size="10.00">io/ReadIO.hpp</text>
</a>
</g>
</g>
<!-- Node1&#45;&gt;Node17 -->
<g id="edge22_Node000001_Node000017" class="edge">
<title>Node1&#45;&gt;Node17</title>
<g id="a_edge22_Node000001_Node000017"><a xlink:title=" ">
<path fill="none" stroke="#63b8ff" d="M282.95,-220.59C306.12,-212.02 341.19,-199.06 367.36,-189.38"/>
<polygon fill="#63b8ff" stroke="#63b8ff" points="368.39,-192.73 376.56,-185.98 365.96,-186.16 368.39,-192.73"/>
</a>
</g>
</g>
<!-- Node6&#45;&gt;Node4 -->
<g id="edge8_Node000006_Node000004" class="edge">
<title>Node6&#45;&gt;Node4</title>
<g id="a_edge8_Node000006_Node000004"><a xlink:title=" ">
<path fill="none" stroke="#63b8ff" d="M725.77,-60.42C711.16,-58.81 693.44,-56.88 677.52,-55.25 514.06,-38.5 318.13,-20.37 242.97,-13.49"/>
<polygon fill="#63b8ff" stroke="#63b8ff" points="243.76,-10.05 233.48,-12.62 243.12,-17.02 243.76,-10.05"/>
</a>
</g>
</g>
<!-- Node7 -->
<g id="Node000007" class="node">
<title>Node7</title>
<g id="a_Node000007"><a xlink:title=" ">
<polygon fill="#e0e0e0" stroke="#999999" points="780.65,-19.25 732.4,-19.25 732.4,0 780.65,0 780.65,-19.25"/>
<text xml:space="preserve" text-anchor="middle" x="756.52" y="-5.75" font-family="Helvetica,sans-Serif" font-size="10.00">cstddef</text>
</a>
</g>
</g>
<!-- Node6&#45;&gt;Node7 -->
<g id="edge6_Node000006_Node000007" class="edge">
<title>Node6&#45;&gt;Node7</title>
<g id="a_edge6_Node000006_Node000007"><a xlink:title=" ">
<path fill="none" stroke="#63b8ff" d="M756.52,-55.08C756.52,-48.57 756.52,-39.42 756.52,-31.12"/>
<polygon fill="#63b8ff" stroke="#63b8ff" points="760.02,-31.12 756.52,-21.12 753.02,-31.12 760.02,-31.12"/>
</a>
</g>
</g>
<!-- Node8 -->
<g id="Node000008" class="node">
<title>Node8</title>
<g id="a_Node000008"><a xlink:title=" ">
<polygon fill="#e0e0e0" stroke="#999999" points="838.15,-19.25 798.9,-19.25 798.9,0 838.15,0 838.15,-19.25"/>
<text xml:space="preserve" text-anchor="middle" x="818.52" y="-5.75" font-family="Helvetica,sans-Serif" font-size="10.00">limits</text>
</a>
</g>
</g>
<!-- Node6&#45;&gt;Node8 -->
<g id="edge7_Node000006_Node000008" class="edge">
<title>Node6&#45;&gt;Node8</title>
<g id="a_edge7_Node000006_Node000008"><a xlink:title=" ">
<path fill="none" stroke="#63b8ff" d="M767.04,-54.84C775.91,-47.22 788.83,-36.12 799.51,-26.95"/>
<polygon fill="#63b8ff" stroke="#63b8ff" points="801.71,-29.68 807.01,-20.51 797.15,-24.37 801.71,-29.68"/>
</a>
</g>
</g>
<!-- Node9 -->
<g id="Node000009" class="node">
<title>Node9</title>
<g id="a_Node000009"><a xlink:title=" ">
<polygon fill="#e0e0e0" stroke="#999999" points="714.02,-19.25 671.02,-19.25 671.02,0 714.02,0 714.02,-19.25"/>
<text xml:space="preserve" text-anchor="middle" x="692.52" y="-5.75" font-family="Helvetica,sans-Serif" font-size="10.00">vector</text>
</a>
</g>
</g>
<!-- Node6&#45;&gt;Node9 -->
<g id="edge9_Node000006_Node000009" class="edge">
<title>Node6&#45;&gt;Node9</title>
<g id="a_edge9_Node000006_Node000009"><a xlink:title=" ">
<path fill="none" stroke="#63b8ff" d="M745.67,-54.84C736.42,-47.15 722.9,-35.9 711.81,-26.68"/>
<polygon fill="#63b8ff" stroke="#63b8ff" points="714.31,-24.2 704.38,-20.49 709.83,-29.58 714.31,-24.2"/>
</a>
</g>
</g>
<!-- Node10&#45;&gt;Node2 -->
<g id="edge13_Node000010_Node000002" class="edge">
<title>Node10&#45;&gt;Node2</title>
<g id="a_edge13_Node000010_Node000002"><a xlink:title=" ">
<path fill="none" stroke="#63b8ff" d="M234.43,-110.09C211.59,-101.52 177.01,-88.56 151.2,-78.88"/>
<polygon fill="#63b8ff" stroke="#63b8ff" points="152.74,-75.72 142.15,-75.48 150.28,-82.27 152.74,-75.72"/>
</a>
</g>
</g>
<!-- Node10&#45;&gt;Node3 -->
<g id="edge14_Node000010_Node000003" class="edge">
<title>Node10&#45;&gt;Node3</title>
<g id="a_edge14_Node000010_Node000003"><a xlink:title=" ">
<path fill="none" stroke="#63b8ff" d="M222.04,-110.01C188.37,-101.59 136.69,-88.65 83.52,-75.25"/>
<polygon fill="#63b8ff" stroke="#63b8ff" points="84.53,-71.9 73.98,-72.85 82.82,-78.68 84.53,-71.9"/>
</a>
</g>
</g>
<!-- Node10&#45;&gt;Node4 -->
<g id="edge15_Node000010_Node000004" class="edge">
<title>Node10&#45;&gt;Node4</title>
<g id="a_edge15_Node000010_Node000004"><a xlink:title=" ">
<path fill="none" stroke="#63b8ff" d="M297.86,-110.23C340.84,-100.11 404.55,-83.8 411.52,-74.5 416.66,-67.66 416.87,-61.93 411.52,-55.25 390.77,-29.36 294.06,-17.5 243.12,-12.98"/>
<polygon fill="#63b8ff" stroke="#63b8ff" points="243.58,-9.51 233.32,-12.16 242.99,-16.48 243.58,-9.51"/>
</a>
</g>
</g>
<!-- Node10&#45;&gt;Node6 -->
<g id="edge21_Node000010_Node000006" class="edge">
<title>Node10&#45;&gt;Node6</title>
<g id="a_edge21_Node000010_Node000006"><a xlink:title=" ">
<path fill="none" stroke="#63b8ff" d="M298.1,-114.95C372.44,-107.09 538.06,-89.54 677.52,-74.5 689.58,-73.2 702.67,-71.78 714.67,-70.47"/>
<polygon fill="#63b8ff" stroke="#63b8ff" points="714.7,-73.98 724.26,-69.42 713.94,-67.02 714.7,-73.98"/>
</a>
</g>
</g>
<!-- Node10&#45;&gt;Node9 -->
<g id="edge20_Node000010_Node000009" class="edge">
<title>Node10&#45;&gt;Node9</title>
<g id="a_edge20_Node000010_Node000009"><a xlink:title=" ">
<path fill="none" stroke="#63b8ff" d="M295.27,-110.01C329.61,-101.36 382.23,-87.74 427.52,-74.5 454.4,-66.64 460.48,-62.51 487.52,-55.25 547.71,-39.08 619.03,-24.59 659.7,-16.76"/>
<polygon fill="#63b8ff" stroke="#63b8ff" points="660.16,-20.23 669.33,-14.92 658.85,-13.36 660.16,-20.23"/>
</a>
</g>
</g>
<!-- Node11 -->
<g id="Node000011" class="node">
<title>Node11</title>
<g id="a_Node000011"><a xlink:title=" ">
<polygon fill="#e0e0e0" stroke="#999999" points="528.4,-74.5 496.65,-74.5 496.65,-55.25 528.4,-55.25 528.4,-74.5"/>
<text xml:space="preserve" text-anchor="middle" x="512.52" y="-61" font-family="Helvetica,sans-Serif" font-size="10.00">any</text>
</a>
</g>
</g>
<!-- Node10&#45;&gt;Node11 -->
<g id="edge11_Node000010_Node000011" class="edge">
<title>Node10&#45;&gt;Node11</title>
<g id="a_edge11_Node000010_Node000011"><a xlink:title=" ">
<path fill="none" stroke="#63b8ff" d="M297.99,-112.29C342.91,-104.27 418.37,-90.08 482.52,-74.5 483.51,-74.26 484.52,-74.01 485.54,-73.75"/>
<polygon fill="#63b8ff" stroke="#63b8ff" points="486.21,-77.19 494.94,-71.18 484.37,-70.44 486.21,-77.19"/>
</a>
</g>
</g>
<!-- Node12 -->
<g id="Node000012" class="node">
<title>Node12</title>
<g id="a_Node000012"><a xlink:title=" ">
<polygon fill="#e0e0e0" stroke="#999999" points="592.15,-74.5 546.9,-74.5 546.9,-55.25 592.15,-55.25 592.15,-74.5"/>
<text xml:space="preserve" text-anchor="middle" x="569.52" y="-61" font-family="Helvetica,sans-Serif" font-size="10.00">cstdint</text>
</a>
</g>
</g>
<!-- Node10&#45;&gt;Node12 -->
<g id="edge12_Node000010_Node000012" class="edge">
<title>Node10&#45;&gt;Node12</title>
<g id="a_edge12_Node000010_Node000012"><a xlink:title=" ">
<path fill="none" stroke="#63b8ff" d="M297.88,-112.7C302.48,-111.96 307.1,-111.21 311.52,-110.5 408.41,-94.9 436.13,-95.69 535.38,-74.76"/>
<polygon fill="#63b8ff" stroke="#63b8ff" points="535.99,-78.21 545.04,-72.7 534.53,-71.36 535.99,-78.21"/>
</a>
</g>
</g>
<!-- Node13 -->
<g id="Node000013" class="node">
<title>Node13</title>
<g id="a_Node000013"><a xlink:title=" ">
<polygon fill="#e0e0e0" stroke="#999999" points="668.52,-74.5 610.52,-74.5 610.52,-55.25 668.52,-55.25 668.52,-74.5"/>
<text xml:space="preserve" text-anchor="middle" x="639.52" y="-61" font-family="Helvetica,sans-Serif" font-size="10.00">typeindex</text>
</a>
</g>
</g>
<!-- Node10&#45;&gt;Node13 -->
<g id="edge16_Node000010_Node000013" class="edge">
<title>Node10&#45;&gt;Node13</title>
<g id="a_edge16_Node000010_Node000013"><a xlink:title=" ">
<path fill="none" stroke="#63b8ff" d="M298.15,-112.51C302.65,-111.81 307.19,-111.12 311.52,-110.5 436.57,-92.57 471.69,-96.65 599.15,-74.76"/>
<polygon fill="#63b8ff" stroke="#63b8ff" points="599.38,-78.27 608.63,-73.11 598.18,-71.38 599.38,-78.27"/>
</a>
</g>
</g>
<!-- Node14 -->
<g id="Node000014" class="node">
<title>Node14</title>
<g id="a_Node000014"><a xlink:title=" ">
<polygon fill="#e0e0e0" stroke="#999999" points="243.9,-74.5 161.15,-74.5 161.15,-55.25 243.9,-55.25 243.9,-74.5"/>
<text xml:space="preserve" text-anchor="middle" x="202.52" y="-61" font-family="Helvetica,sans-Serif" font-size="10.00">unordered_map</text>
</a>
</g>
</g>
<!-- Node10&#45;&gt;Node14 -->
<g id="edge17_Node000010_Node000014" class="edge">
<title>Node10&#45;&gt;Node14</title>
<g id="a_edge17_Node000010_Node000014"><a xlink:title=" ">
<path fill="none" stroke="#63b8ff" d="M249.02,-110.09C241.09,-102.55 229.57,-91.6 219.99,-82.48"/>
<polygon fill="#63b8ff" stroke="#63b8ff" points="222.64,-80.17 212.98,-75.82 217.81,-85.24 222.64,-80.17"/>
</a>
</g>
</g>
<!-- Node15 -->
<g id="Node000015" class="node">
<title>Node15</title>
<g id="a_Node000015"><a xlink:title=" ">
<polygon fill="#e0e0e0" stroke="#999999" points="339.27,-74.5 261.77,-74.5 261.77,-55.25 339.27,-55.25 339.27,-74.5"/>
<text xml:space="preserve" text-anchor="middle" x="300.52" y="-61" font-family="Helvetica,sans-Serif" font-size="10.00">unordered_set</text>
</a>
</g>
</g>
<!-- Node10&#45;&gt;Node15 -->
<g id="edge18_Node000010_Node000015" class="edge">
<title>Node10&#45;&gt;Node15</title>
<g id="a_edge18_Node000010_Node000015"><a xlink:title=" ">
<path fill="none" stroke="#63b8ff" d="M265.46,-110.33C271.14,-103.13 279.36,-92.71 286.42,-83.76"/>
<polygon fill="#63b8ff" stroke="#63b8ff" points="289.05,-86.07 292.5,-76.05 283.56,-81.73 289.05,-86.07"/>
</a>
</g>
</g>
<!-- Node16 -->
<g id="Node000016" class="node">
<title>Node16</title>
<g id="a_Node000016"><a xlink:title=" ">
<polygon fill="#e0e0e0" stroke="#999999" points="402.15,-74.5 356.9,-74.5 356.9,-55.25 402.15,-55.25 402.15,-74.5"/>
<text xml:space="preserve" text-anchor="middle" x="379.52" y="-61" font-family="Helvetica,sans-Serif" font-size="10.00">variant</text>
</a>
</g>
</g>
<!-- Node10&#45;&gt;Node16 -->
<g id="edge19_Node000010_Node000016" class="edge">
<title>Node10&#45;&gt;Node16</title>
<g id="a_edge19_Node000010_Node000016"><a xlink:title=" ">
<path fill="none" stroke="#63b8ff" d="M279.05,-110.09C298.08,-101.72 326.67,-89.13 348.49,-79.53"/>
<polygon fill="#63b8ff" stroke="#63b8ff" points="349.77,-82.79 357.51,-75.56 346.95,-76.39 349.77,-82.79"/>
</a>
</g>
</g>
<!-- Node17&#45;&gt;Node2 -->
<g id="edge27_Node000017_Node000002" class="edge">
<title>Node17&#45;&gt;Node2</title>
<g id="a_edge27_Node000017_Node000002"><a xlink:title=" ">
<path fill="none" stroke="#63b8ff" d="M362.56,-169.46C322.75,-163.57 260.53,-151.64 210.52,-129.75 182.36,-117.42 153.65,-96.43 135.5,-81.9"/>
<polygon fill="#63b8ff" stroke="#63b8ff" points="138.15,-79.55 128.2,-75.92 133.72,-84.96 138.15,-79.55"/>
</a>
</g>
</g>
<!-- Node17&#45;&gt;Node3 -->
<g id="edge28_Node000017_Node000003" class="edge">
<title>Node17&#45;&gt;Node3</title>
<g id="a_edge28_Node000017_Node000003"><a xlink:title=" ">
<path fill="none" stroke="#63b8ff" d="M362.77,-169.98C316.42,-164.09 237.92,-151.75 173.52,-129.75 136.13,-116.97 95.82,-95.19 70.88,-80.67"/>
<polygon fill="#63b8ff" stroke="#63b8ff" points="72.88,-77.78 62.49,-75.7 69.32,-83.81 72.88,-77.78"/>
</a>
</g>
</g>
<!-- Node17&#45;&gt;Node4 -->
<g id="edge30_Node000017_Node000004" class="edge">
<title>Node17&#45;&gt;Node4</title>
<g id="a_edge30_Node000017_Node000004"><a xlink:title=" ">
<path fill="none" stroke="#63b8ff" d="M362.7,-170.91C270.86,-161.95 49.2,-134.4 11.52,-74.5 6.97,-67.26 6.17,-61.93 11.52,-55.25 32.27,-29.36 128.98,-17.5 179.93,-12.98"/>
<polygon fill="#63b8ff" stroke="#63b8ff" points="180.06,-16.48 189.73,-12.16 179.47,-9.51 180.06,-16.48"/>
</a>
</g>
</g>
<!-- Node17&#45;&gt;Node6 -->
<g id="edge35_Node000017_Node000006" class="edge">
<title>Node17&#45;&gt;Node6</title>
<g id="a_edge35_Node000017_Node000006"><a xlink:title=" ">
<path fill="none" stroke="#63b8ff" d="M442.19,-173.74C496.35,-171.58 595.51,-162.94 672.52,-129.75 698.68,-118.47 724.05,-97.33 739.94,-82.47"/>
<polygon fill="#63b8ff" stroke="#63b8ff" points="742.28,-85.08 747.05,-75.62 737.42,-80.04 742.28,-85.08"/>
</a>
</g>
</g>
<!-- Node17&#45;&gt;Node9 -->
<g id="edge33_Node000017_Node000009" class="edge">
<title>Node17&#45;&gt;Node9</title>
<g id="a_edge33_Node000017_Node000009"><a xlink:title=" ">
<path fill="none" stroke="#63b8ff" d="M383.91,-165.31C360.93,-152.95 326.91,-130.12 344.52,-110.5 394.24,-55.11 621.76,-123.8 677.52,-74.5 689.67,-63.76 692.95,-45.22 693.46,-30.88"/>
<polygon fill="#63b8ff" stroke="#63b8ff" points="696.96,-31.13 693.37,-21.16 689.96,-31.19 696.96,-31.13"/>
</a>
</g>
</g>
<!-- Node17&#45;&gt;Node10 -->
<g id="edge34_Node000017_Node000010" class="edge">
<title>Node17&#45;&gt;Node10</title>
<g id="a_edge34_Node000017_Node000010"><a xlink:title=" ">
<path fill="none" stroke="#63b8ff" d="M378.1,-165.34C354.93,-156.77 319.86,-143.81 293.68,-134.13"/>
<polygon fill="#63b8ff" stroke="#63b8ff" points="295.08,-130.91 284.49,-130.73 292.66,-137.48 295.08,-130.91"/>
</a>
</g>
</g>
<!-- Node17&#45;&gt;Node11 -->
<g id="edge23_Node000017_Node000011" class="edge">
<title>Node17&#45;&gt;Node11</title>
<g id="a_edge23_Node000017_Node000011"><a xlink:title=" ">
<path fill="none" stroke="#63b8ff" d="M442.06,-172.22C499.34,-168.18 601.03,-157.24 623.52,-129.75 628.94,-123.13 628.31,-117.59 623.52,-110.5 621.01,-106.79 571.41,-87.79 539.37,-75.81"/>
<polygon fill="#63b8ff" stroke="#63b8ff" points="540.88,-72.64 530.29,-72.43 538.44,-79.2 540.88,-72.64"/>
</a>
</g>
</g>
<!-- Node17&#45;&gt;Node12 -->
<g id="edge26_Node000017_Node000012" class="edge">
<title>Node17&#45;&gt;Node12</title>
<g id="a_edge26_Node000017_Node000012"><a xlink:title=" ">
<path fill="none" stroke="#63b8ff" d="M442.38,-172.81C503.26,-169.48 614.93,-159.4 639.52,-129.75 655.42,-110.58 628.04,-91.75 603.01,-79.56"/>
<polygon fill="#63b8ff" stroke="#63b8ff" points="604.48,-76.38 593.93,-75.39 601.56,-82.74 604.48,-76.38"/>
</a>
</g>
</g>
<!-- Node17&#45;&gt;Node13 -->
<g id="edge32_Node000017_Node000013" class="edge">
<title>Node17&#45;&gt;Node13</title>
<g id="a_edge32_Node000017_Node000013"><a xlink:title=" ">
<path fill="none" stroke="#63b8ff" d="M442.43,-173.34C506.73,-170.73 628.79,-161.61 655.52,-129.75 666.18,-117.05 659.63,-98.24 651.94,-84.32"/>
<polygon fill="#63b8ff" stroke="#63b8ff" points="655.11,-82.79 646.9,-76.1 649.15,-86.45 655.11,-82.79"/>
</a>
</g>
</g>
<!-- Node18 -->
<g id="Node000018" class="node">
<title>Node18</title>
<g id="a_Node000018"><a xlink:title=" ">
<polygon fill="#e0e0e0" stroke="#999999" points="391.4,-129.75 353.65,-129.75 353.65,-110.5 391.4,-110.5 391.4,-129.75"/>
<text xml:space="preserve" text-anchor="middle" x="372.52" y="-116.25" font-family="Helvetica,sans-Serif" font-size="10.00">array</text>
</a>
</g>
</g>
<!-- Node17&#45;&gt;Node18 -->
<g id="edge24_Node000017_Node000018" class="edge">
<title>Node17&#45;&gt;Node18</title>
<g id="a_edge24_Node000017_Node000018"><a xlink:title=" ">
<path fill="none" stroke="#63b8ff" d="M397.57,-165.58C393.64,-158.61 388.01,-148.62 383.08,-139.87"/>
<polygon fill="#63b8ff" stroke="#63b8ff" points="386.29,-138.42 378.33,-131.43 380.19,-141.86 386.29,-138.42"/>
</a>
</g>
</g>
<!-- Node19 -->
<g id="Node000019" class="node">
<title>Node19</title>
<g id="a_Node000019"><a xlink:title=" ">
<polygon fill="#e0e0e0" stroke="#999999" points="457.65,-129.75 409.4,-129.75 409.4,-110.5 457.65,-110.5 457.65,-129.75"/>
<text xml:space="preserve" text-anchor="middle" x="433.52" y="-116.25" font-family="Helvetica,sans-Serif" font-size="10.00">cassert</text>
</a>
</g>
</g>
<!-- Node17&#45;&gt;Node19 -->
<g id="edge25_Node000017_Node000019" class="edge">
<title>Node17&#45;&gt;Node19</title>
<g id="a_edge25_Node000017_Node000019"><a xlink:title=" ">
<path fill="none" stroke="#63b8ff" d="M407.64,-165.58C411.7,-158.61 417.52,-148.62 422.61,-139.87"/>
<polygon fill="#63b8ff" stroke="#63b8ff" points="425.52,-141.82 427.53,-131.42 419.48,-138.3 425.52,-141.82"/>
</a>
</g>
</g>
<!-- Node20 -->
<g id="Node000020" class="node">
<title>Node20</title>
<g id="a_Node000020"><a xlink:title=" ">
<polygon fill="#e0e0e0" stroke="#999999" points="534.9,-129.75 476.15,-129.75 476.15,-110.5 534.9,-110.5 534.9,-129.75"/>
<text xml:space="preserve" text-anchor="middle" x="505.52" y="-116.25" font-family="Helvetica,sans-Serif" font-size="10.00">stdexcept</text>
</a>
</g>
</g>
<!-- Node17&#45;&gt;Node20 -->
<g id="edge29_Node000017_Node000020" class="edge">
<title>Node17&#45;&gt;Node20</title>
<g id="a_edge29_Node000017_Node000020"><a xlink:title=" ">
<path fill="none" stroke="#63b8ff" d="M420,-165.34C435.83,-157.16 459.43,-144.96 477.83,-135.44"/>
<polygon fill="#63b8ff" stroke="#63b8ff" points="479.34,-138.6 486.62,-130.9 476.13,-132.38 479.34,-138.6"/>
</a>
</g>
</g>
<!-- Node21 -->
<g id="Node000021" class="node">
<title>Node21</title>
<g id="a_Node000021"><a xlink:title=" ">
<polygon fill="#e0e0e0" stroke="#999999" points="614.4,-129.75 552.65,-129.75 552.65,-110.5 614.4,-110.5 614.4,-129.75"/>
<text xml:space="preserve" text-anchor="middle" x="583.52" y="-116.25" font-family="Helvetica,sans-Serif" font-size="10.00">type_traits</text>
</a>
</g>
</g>
<!-- Node17&#45;&gt;Node21 -->
<g id="edge31_Node000017_Node000021" class="edge">
<title>Node17&#45;&gt;Node21</title>
<g id="a_edge31_Node000017_Node000021"><a xlink:title=" ">
<path fill="none" stroke="#63b8ff" d="M433.23,-165.34C463.13,-156.54 508.8,-143.11 541.95,-133.36"/>
<polygon fill="#63b8ff" stroke="#63b8ff" points="542.61,-136.81 551.22,-130.63 540.63,-130.09 542.61,-136.81"/>
</a>
</g>
</g>
</g>
</svg>
