<?xml version="1.0" encoding="UTF-8" standalone="no"?>
<!DOCTYPE svg PUBLIC "-//W3C//DTD SVG 1.1//EN"
 "http://www.w3.org/Graphics/SVG/1.1/DTD/svg11.dtd">
<!-- Generated by graphviz version 12.2.1 (20241206.2353)
 -->
<!-- Title: src/io/hdf5/HDF5IO.cpp Pages: 1 -->
<!--zoomable 315 -->

<svg id="main" version="1.1" xmlns="http://www.w3.org/2000/svg" xmlns:xlink="http://www.w3.org/1999/xlink" xml:space="preserve" onload="init(evt)">

<style type="text/css"><![CDATA[
.node, .edge {opacity: 0.7;}
.node.selected, .edge.selected {opacity: 1;}
.edge:hover path { stroke: red; }
.edge:hover polygon { stroke: red; fill: red; }
]]></style>

<defs>
  <circle id="rim" cx="0" cy="0" r="7"/>
  <circle id="rim2" cx="0" cy="0" r="3.5"/>
  <g id="zoomPlus">
    <use xlink:href="#rim" fill="#404040"><set attributeName="fill" to="#808080" begin="zoomplus.mouseover" end="zoomplus.mouseout"/></use>
    <path d="M-4,0h8M0,-4v8" fill="none" stroke="white" stroke-width="1.5" pointer-events="none"/>
  </g>
  <g id="zoomMin">
    <use xlink:href="#rim" fill="#404040"><set attributeName="fill" to="#808080" begin="zoomminus.mouseover" end="zoomminus.mouseout"/></use>
    <path d="M-4,0h8" fill="none" stroke="white" stroke-width="1.5" pointer-events="none"/>
  </g>
  <g id="arrowUp" transform="translate(30 24)">
    <use xlink:href="#rim"/>
    <path pointer-events="none" fill="none" stroke="white" stroke-width="1.5" d="M0,-3.0v7 M-2.5,-0.5L0,-3.0L2.5,-0.5"/>
  </g>
  <g id="arrowRight" transform="rotate(90) translate(36 -43)">
    <use xlink:href="#rim"/>
    <path pointer-events="none" fill="none" stroke="white" stroke-width="1.5" d="M0,-3.0v7 M-2.5,-0.5L0,-3.0L2.5,-0.5"/>
  </g>
  <g id="arrowDown" transform="rotate(180) translate(-30 -48)">
    <use xlink:href="#rim"/>
    <path pointer-events="none" fill="none" stroke="white" stroke-width="1.5" d="M0,-3.0v7 M-2.5,-0.5L0,-3.0L2.5,-0.5"/>
  </g>
  <g id="arrowLeft" transform="rotate(270) translate(-36 17)">
    <use xlink:href="#rim"/>
    <path pointer-events="none" fill="none" stroke="white" stroke-width="1.5" d="M0,-3.0v7 M-2.5,-0.5L0,-3.0L2.5,-0.5"/>
  </g>
  <g id="resetDef">
    <use xlink:href="#rim2" fill="#404040"><set attributeName="fill" to="#808080" begin="reset.mouseover" end="reset.mouseout"/></use>
  </g>
</defs>
<script type="application/ecmascript">
var viewWidth = 1933;
var viewHeight = 315;
var sectionId = 'dynsection-0';
</script>
<script type="application/ecmascript" xlink:href="svg.min.js"/>
<svg id="graph" class="graph">
<g id="viewport">
<title>src/io/hdf5/HDF5IO.cpp</title>
<!-- Node1 -->
<g id="Node000001" class="node">
<title>Node1</title>
<g id="a_Node000001"><a xlink:title=" ">
<polygon fill="#999999" stroke="#666666" points="314.38,-306.75 194.12,-306.75 194.12,-287.5 314.38,-287.5 314.38,-306.75"/>
<text text-anchor="middle" x="254.25" y="-293.25" font-family="Helvetica,sans-Serif" font-size="10.00">src/io/hdf5/HDF5IO.cpp</text>
</a>
</g>
</g>
<!-- Node2 -->
<g id="Node000002" class="node">
<title>Node2</title>
<g id="a_Node000002"><a xlink:title=" ">
<polygon fill="#e0e0e0" stroke="#999999" points="50.5,-251.5 0,-251.5 0,-232.25 50.5,-232.25 50.5,-251.5"/>
<text text-anchor="middle" x="25.25" y="-238" font-family="Helvetica,sans-Serif" font-size="10.00">codecvt</text>
</a>
</g>
</g>
<!-- Node1&#45;&gt;Node2 -->
<g id="edge1_Node000001_Node000002" class="edge">
<title>Node1&#45;&gt;Node2</title>
<g id="a_edge1_Node000001_Node000002"><a xlink:title=" ">
<path fill="none" stroke="#63b8ff" d="M213.1,-287C175.98,-278.71 119.6,-265.95 62,-252.12"/>
<polygon fill="#63b8ff" stroke="#63b8ff" points="62.87,-248.73 52.33,-249.79 61.23,-255.54 62.87,-248.73"/>
</a>
</g>
</g>
<!-- Node3 -->
<g id="Node000003" class="node">
<title>Node3</title>
<g id="a_Node000003"><a xlink:title=" ">
<polygon fill="#e0e0e0" stroke="#999999" points="129.75,-251.5 68.75,-251.5 68.75,-232.25 129.75,-232.25 129.75,-251.5"/>
<text text-anchor="middle" x="99.25" y="-238" font-family="Helvetica,sans-Serif" font-size="10.00">filesystem</text>
</a>
</g>
</g>
<!-- Node1&#45;&gt;Node3 -->
<g id="edge2_Node000001_Node000003" class="edge">
<title>Node1&#45;&gt;Node3</title>
<g id="a_edge2_Node000001_Node000003"><a xlink:title=" ">
<path fill="none" stroke="#63b8ff" d="M227.96,-287.09C202.79,-278.45 164.6,-265.32 136.34,-255.62"/>
<polygon fill="#63b8ff" stroke="#63b8ff" points="137.7,-252.38 127.1,-252.44 135.42,-259 137.7,-252.38"/>
</a>
</g>
</g>
<!-- Node4 -->
<g id="Node000004" class="node">
<title>Node4</title>
<g id="a_Node000004"><a xlink:title=" ">
<polygon fill="#e0e0e0" stroke="#999999" points="240,-74.5 186.5,-74.5 186.5,-55.25 240,-55.25 240,-74.5"/>
<text text-anchor="middle" x="213.25" y="-61" font-family="Helvetica,sans-Serif" font-size="10.00">iostream</text>
</a>
</g>
</g>
<!-- Node1&#45;&gt;Node4 -->
<g id="edge3_Node000001_Node000004" class="edge">
<title>Node1&#45;&gt;Node4</title>
<g id="a_edge3_Node000001_Node000004"><a xlink:title=" ">
<path fill="none" stroke="#63b8ff" d="M252.64,-287.1C246.62,-253.28 225.31,-133.6 216.8,-85.8"/>
<polygon fill="#63b8ff" stroke="#63b8ff" points="220.27,-85.31 215.07,-76.08 213.37,-86.54 220.27,-85.31"/>
</a>
</g>
</g>
<!-- Node5 -->
<g id="Node000005" class="node">
<title>Node5</title>
<g id="a_Node000005"><a xlink:title=" ">
<polygon fill="#e0e0e0" stroke="#999999" points="308.88,-74.5 257.62,-74.5 257.62,-55.25 308.88,-55.25 308.88,-74.5"/>
<text text-anchor="middle" x="283.25" y="-61" font-family="Helvetica,sans-Serif" font-size="10.00">memory</text>
</a>
</g>
</g>
<!-- Node1&#45;&gt;Node5 -->
<g id="edge4_Node000001_Node000005" class="edge">
<title>Node1&#45;&gt;Node5</title>
<g id="a_edge4_Node000001_Node000005"><a xlink:title=" ">
<path fill="none" stroke="#63b8ff" d="M255.39,-287.1C259.65,-253.28 274.72,-133.6 280.74,-85.8"/>
<polygon fill="#63b8ff" stroke="#63b8ff" points="284.19,-86.45 281.96,-76.09 277.24,-85.58 284.19,-86.45"/>
</a>
</g>
</g>
<!-- Node6 -->
<g id="Node000006" class="node">
<title>Node6</title>
<g id="a_Node000006"><a xlink:title=" ">
<polygon fill="#e0e0e0" stroke="#999999" points="394.75,-19.25 351.75,-19.25 351.75,0 394.75,0 394.75,-19.25"/>
<text text-anchor="middle" x="373.25" y="-5.75" font-family="Helvetica,sans-Serif" font-size="10.00">vector</text>
</a>
</g>
</g>
<!-- Node1&#45;&gt;Node6 -->
<g id="edge5_Node000001_Node000006" class="edge">
<title>Node1&#45;&gt;Node6</title>
<g id="a_edge5_Node000001_Node000006"><a xlink:title=" ">
<path fill="none" stroke="#63b8ff" d="M238.4,-287.09C211.13,-270.23 158.25,-231.19 158.25,-182 158.25,-182 158.25,-182 158.25,-119.12 158.25,-89.51 155.63,-75.5 177.25,-55.25 200.54,-33.43 290.62,-20.01 340.14,-14.12"/>
<polygon fill="#63b8ff" stroke="#63b8ff" points="340.47,-17.61 350.01,-12.99 339.67,-10.66 340.47,-17.61"/>
</a>
</g>
</g>
<!-- Node7 -->
<g id="Node000007" class="node">
<title>Node7</title>
<g id="a_Node000007"><a xlink:href="_h_d_f5_i_o_8hpp.html" target="_top" xlink:title=" ">
<polygon fill="white" stroke="#666666" points="479.12,-190.62 375.38,-190.62 375.38,-171.38 479.12,-171.38 479.12,-190.62"/>
<text text-anchor="middle" x="427.25" y="-177.12" font-family="Helvetica,sans-Serif" font-size="10.00">io/hdf5/HDF5IO.hpp</text>
</a>
</g>
</g>
<!-- Node1&#45;&gt;Node7 -->
<g id="edge6_Node000001_Node000007" class="edge">
<title>Node1&#45;&gt;Node7</title>
<g id="a_edge6_Node000001_Node000007"><a xlink:title=" ">
<path fill="none" stroke="#63b8ff" d="M257.4,-287.42C262.74,-273.82 274.82,-247.48 293.25,-232.25 315.54,-213.83 345.25,-201.77 371.04,-194.1"/>
<polygon fill="#63b8ff" stroke="#63b8ff" points="371.67,-197.56 380.36,-191.48 369.78,-190.82 371.67,-197.56"/>
</a>
</g>
</g>
<!-- Node20 -->
<g id="Node000020" class="node">
<title>Node20</title>
<g id="a_Node000020"><a xlink:title=" ">
<polygon fill="#e0e0e0" stroke="#999999" points="356.75,-251.5 301.75,-251.5 301.75,-232.25 356.75,-232.25 356.75,-251.5"/>
<text text-anchor="middle" x="329.25" y="-238" font-family="Helvetica,sans-Serif" font-size="10.00">H5Cpp.h</text>
</a>
</g>
</g>
<!-- Node1&#45;&gt;Node20 -->
<g id="edge35_Node000001_Node000020" class="edge">
<title>Node1&#45;&gt;Node20</title>
<g id="a_edge35_Node000001_Node000020"><a xlink:title=" ">
<path fill="none" stroke="#63b8ff" d="M266.97,-287.09C277.96,-279.29 294.09,-267.84 307.18,-258.54"/>
<polygon fill="#63b8ff" stroke="#63b8ff" points="309.1,-261.47 315.23,-252.83 305.05,-255.76 309.1,-261.47"/>
</a>
</g>
</g>
<!-- Node21 -->
<g id="Node000021" class="node">
<title>Node21</title>
<g id="a_Node000021"><a xlink:title=" ">
<polygon fill="#e0e0e0" stroke="#999999" points="443.5,-251.5 375,-251.5 375,-232.25 443.5,-232.25 443.5,-251.5"/>
<text text-anchor="middle" x="409.25" y="-238" font-family="Helvetica,sans-Serif" font-size="10.00">H5Fpublic.h</text>
</a>
</g>
</g>
<!-- Node1&#45;&gt;Node21 -->
<g id="edge36_Node000001_Node000021" class="edge">
<title>Node1&#45;&gt;Node21</title>
<g id="a_edge36_Node000001_Node000021"><a xlink:title=" ">
<path fill="none" stroke="#63b8ff" d="M280.54,-287.09C305.71,-278.45 343.9,-265.32 372.16,-255.62"/>
<polygon fill="#63b8ff" stroke="#63b8ff" points="373.08,-259 381.4,-252.44 370.8,-252.38 373.08,-259"/>
</a>
</g>
</g>
<!-- Node22 -->
<g id="Node000022" class="node">
<title>Node22</title>
<g id="a_Node000022"><a xlink:href="_utils_8hpp.html" target="_top" xlink:title=" ">
<polygon fill="white" stroke="#666666" points="1027.75,-251.5 972.75,-251.5 972.75,-232.25 1027.75,-232.25 1027.75,-251.5"/>
<text text-anchor="middle" x="1000.25" y="-238" font-family="Helvetica,sans-Serif" font-size="10.00">Utils.hpp</text>
</a>
</g>
</g>
<!-- Node1&#45;&gt;Node22 -->
<g id="edge37_Node000001_Node000022" class="edge">
<title>Node1&#45;&gt;Node22</title>
<g id="a_edge37_Node000001_Node000022"><a xlink:title=" ">
<path fill="none" stroke="#63b8ff" d="M314.67,-291.81C462.37,-281.27 838.6,-254.41 961.07,-245.67"/>
<polygon fill="#63b8ff" stroke="#63b8ff" points="961.21,-249.17 970.93,-244.97 960.71,-242.19 961.21,-249.17"/>
</a>
</g>
</g>
<!-- Node36 -->
<g id="Node000036" class="node">
<title>Node36</title>
<g id="a_Node000036"><a xlink:href="_h_d_f5_recording_data_8hpp.html" target="_top" xlink:title=" ">
<polygon fill="white" stroke="#666666" points="620.5,-251.5 462,-251.5 462,-232.25 620.5,-232.25 620.5,-251.5"/>
<text text-anchor="middle" x="541.25" y="-238" font-family="Helvetica,sans-Serif" font-size="10.00">io/hdf5/HDF5RecordingData.hpp</text>
</a>
</g>
</g>
<!-- Node1&#45;&gt;Node36 -->
<g id="edge55_Node000001_Node000036" class="edge">
<title>Node1&#45;&gt;Node36</title>
<g id="a_edge55_Node000001_Node000036"><a xlink:title=" ">
<path fill="none" stroke="#63b8ff" d="M303.26,-287.03C352.48,-277.9 428.4,-263.81 481.21,-254.01"/>
<polygon fill="#63b8ff" stroke="#63b8ff" points="481.76,-257.47 490.95,-252.21 480.48,-250.59 481.76,-257.47"/>
</a>
</g>
</g>
<!-- Node7&#45;&gt;Node4 -->
<g id="edge7_Node000007_Node000004" class="edge">
<title>Node7&#45;&gt;Node4</title>
<g id="a_edge7_Node000007_Node000004"><a xlink:title=" ">
<path fill="none" stroke="#63b8ff" d="M406.66,-170.91C385.09,-161.24 350.39,-145.23 321.25,-129.75 291.82,-114.11 259,-94.36 237.35,-80.99"/>
<polygon fill="#63b8ff" stroke="#63b8ff" points="239.31,-78.09 228.97,-75.78 235.62,-84.03 239.31,-78.09"/>
</a>
</g>
</g>
<!-- Node7&#45;&gt;Node5 -->
<g id="edge8_Node000007_Node000005" class="edge">
<title>Node7&#45;&gt;Node5</title>
<g id="a_edge8_Node000007_Node000005"><a xlink:title=" ">
<path fill="none" stroke="#63b8ff" d="M409.78,-170.97C392.59,-161.71 365.98,-146.34 345.25,-129.75 327.61,-115.63 309.89,-96.79 297.94,-83.24"/>
<polygon fill="#63b8ff" stroke="#63b8ff" points="300.84,-81.24 291.65,-75.97 295.54,-85.82 300.84,-81.24"/>
</a>
</g>
</g>
<!-- Node8 -->
<g id="Node000008" class="node">
<title>Node8</title>
<g id="a_Node000008"><a xlink:title=" ">
<polygon fill="#e0e0e0" stroke="#999999" points="737.25,-74.5 697.25,-74.5 697.25,-55.25 737.25,-55.25 737.25,-74.5"/>
<text text-anchor="middle" x="717.25" y="-61" font-family="Helvetica,sans-Serif" font-size="10.00">string</text>
</a>
</g>
</g>
<!-- Node7&#45;&gt;Node8 -->
<g id="edge9_Node000007_Node000008" class="edge">
<title>Node7&#45;&gt;Node8</title>
<g id="a_edge9_Node000007_Node000008"><a xlink:title=" ">
<path fill="none" stroke="#63b8ff" d="M450.01,-171.04C501.69,-150.71 627.96,-101.02 686.51,-77.97"/>
<polygon fill="#63b8ff" stroke="#63b8ff" points="687.51,-81.34 695.54,-74.42 684.95,-74.83 687.51,-81.34"/>
</a>
</g>
</g>
<!-- Node9 -->
<g id="Node000009" class="node">
<title>Node9</title>
<g id="a_Node000009"><a xlink:title=" ">
<polygon fill="#e0e0e0" stroke="#999999" points="521.25,-129.75 451.25,-129.75 451.25,-110.5 521.25,-110.5 521.25,-129.75"/>
<text text-anchor="middle" x="486.25" y="-116.25" font-family="Helvetica,sans-Serif" font-size="10.00">H5Opublic.h</text>
</a>
</g>
</g>
<!-- Node7&#45;&gt;Node9 -->
<g id="edge10_Node000007_Node000009" class="edge">
<title>Node7&#45;&gt;Node9</title>
<g id="a_edge10_Node000007_Node000009"><a xlink:title=" ">
<path fill="none" stroke="#63b8ff" d="M436.21,-171.06C444.96,-162.33 458.5,-148.82 469.29,-138.05"/>
<polygon fill="#63b8ff" stroke="#63b8ff" points="471.53,-140.76 476.13,-131.22 466.58,-135.81 471.53,-140.76"/>
</a>
</g>
</g>
<!-- Node10 -->
<g id="Node000010" class="node">
<title>Node10</title>
<g id="a_Node000010"><a xlink:href="_types_8hpp.html" target="_top" xlink:title=" ">
<polygon fill="white" stroke="#666666" points="502.75,-74.5 441.75,-74.5 441.75,-55.25 502.75,-55.25 502.75,-74.5"/>
<text text-anchor="middle" x="472.25" y="-61" font-family="Helvetica,sans-Serif" font-size="10.00">Types.hpp</text>
</a>
</g>
</g>
<!-- Node7&#45;&gt;Node10 -->
<g id="edge11_Node000007_Node000010" class="edge">
<title>Node7&#45;&gt;Node10</title>
<g id="a_edge11_Node000007_Node000010"><a xlink:title=" ">
<path fill="none" stroke="#63b8ff" d="M469.15,-170.9C491.41,-163.71 516.86,-151.18 530.25,-129.75 541.93,-111.06 521.02,-92.75 501.13,-80.56"/>
<polygon fill="#63b8ff" stroke="#63b8ff" points="503.03,-77.62 492.61,-75.69 499.55,-83.69 503.03,-77.62"/>
</a>
</g>
</g>
<!-- Node12 -->
<g id="Node000012" class="node">
<title>Node12</title>
<g id="a_Node000012"><a xlink:href="_base_i_o_8hpp.html" target="_top" xlink:title=" ">
<polygon fill="white" stroke="#666666" points="693.38,-129.75 615.12,-129.75 615.12,-110.5 693.38,-110.5 693.38,-129.75"/>
<text text-anchor="middle" x="654.25" y="-116.25" font-family="Helvetica,sans-Serif" font-size="10.00">io/BaseIO.hpp</text>
</a>
</g>
</g>
<!-- Node7&#45;&gt;Node12 -->
<g id="edge14_Node000007_Node000012" class="edge">
<title>Node7&#45;&gt;Node12</title>
<g id="a_edge14_Node000007_Node000012"><a xlink:title=" ">
<path fill="none" stroke="#63b8ff" d="M462.22,-170.93C501.38,-160.77 565,-144.27 608.18,-133.07"/>
<polygon fill="#63b8ff" stroke="#63b8ff" points="608.97,-136.48 617.77,-130.59 607.22,-129.71 608.97,-136.48"/>
</a>
</g>
</g>
<!-- Node18 -->
<g id="Node000018" class="node">
<title>Node18</title>
<g id="a_Node000018"><a xlink:href="_read_i_o_8hpp.html" target="_top" xlink:title=" ">
<polygon fill="white" stroke="#666666" points="432.75,-129.75 353.75,-129.75 353.75,-110.5 432.75,-110.5 432.75,-129.75"/>
<text text-anchor="middle" x="393.25" y="-116.25" font-family="Helvetica,sans-Serif" font-size="10.00">io/ReadIO.hpp</text>
</a>
</g>
</g>
<!-- Node7&#45;&gt;Node18 -->
<g id="edge25_Node000007_Node000018" class="edge">
<title>Node7&#45;&gt;Node18</title>
<g id="a_edge25_Node000007_Node000018"><a xlink:title=" ">
<path fill="none" stroke="#63b8ff" d="M422.09,-171.06C417.34,-162.85 410.16,-150.41 404.15,-140"/>
<polygon fill="#63b8ff" stroke="#63b8ff" points="407.25,-138.37 399.22,-131.46 401.19,-141.87 407.25,-138.37"/>
</a>
</g>
</g>
<!-- Node10&#45;&gt;Node6 -->
<g id="edge13_Node000010_Node000006" class="edge">
<title>Node10&#45;&gt;Node6</title>
<g id="a_edge13_Node000010_Node000006"><a xlink:title=" ">
<path fill="none" stroke="#63b8ff" d="M455.46,-54.84C440.24,-46.66 417.55,-34.46 399.87,-24.94"/>
<polygon fill="#63b8ff" stroke="#63b8ff" points="401.92,-22.07 391.46,-20.42 398.61,-28.24 401.92,-22.07"/>
</a>
</g>
</g>
<!-- Node11 -->
<g id="Node000011" class="node">
<title>Node11</title>
<g id="a_Node000011"><a xlink:title=" ">
<polygon fill="#e0e0e0" stroke="#999999" points="496.38,-19.25 448.12,-19.25 448.12,0 496.38,0 496.38,-19.25"/>
<text text-anchor="middle" x="472.25" y="-5.75" font-family="Helvetica,sans-Serif" font-size="10.00">cstddef</text>
</a>
</g>
</g>
<!-- Node10&#45;&gt;Node11 -->
<g id="edge12_Node000010_Node000011" class="edge">
<title>Node10&#45;&gt;Node11</title>
<g id="a_edge12_Node000010_Node000011"><a xlink:title=" ">
<path fill="none" stroke="#63b8ff" d="M472.25,-55.08C472.25,-48.57 472.25,-39.42 472.25,-31.12"/>
<polygon fill="#63b8ff" stroke="#63b8ff" points="475.75,-31.12 472.25,-21.12 468.75,-31.12 475.75,-31.12"/>
</a>
</g>
</g>
<!-- Node12&#45;&gt;Node4 -->
<g id="edge17_Node000012_Node000004" class="edge">
<title>Node12&#45;&gt;Node4</title>
<g id="a_edge17_Node000012_Node000004"><a xlink:title=" ">
<path fill="none" stroke="#63b8ff" d="M614.81,-116.53C543.89,-111.49 390,-98.84 251.52,-74.89"/>
<polygon fill="#63b8ff" stroke="#63b8ff" points="252.25,-71.46 241.8,-73.18 251.04,-78.36 252.25,-71.46"/>
</a>
</g>
</g>
<!-- Node12&#45;&gt;Node5 -->
<g id="edge18_Node000012_Node000005" class="edge">
<title>Node12&#45;&gt;Node5</title>
<g id="a_edge18_Node000012_Node000005"><a xlink:title=" ">
<path fill="none" stroke="#63b8ff" d="M614.9,-113.48C542.97,-103.15 391.21,-81.37 320.71,-71.25"/>
<polygon fill="#63b8ff" stroke="#63b8ff" points="321.22,-67.79 310.82,-69.83 320.22,-74.72 321.22,-67.79"/>
</a>
</g>
</g>
<!-- Node12&#45;&gt;Node6 -->
<g id="edge22_Node000012_Node000006" class="edge">
<title>Node12&#45;&gt;Node6</title>
<g id="a_edge22_Node000012_Node000006"><a xlink:title=" ">
<path fill="none" stroke="#63b8ff" d="M688.01,-110.03C722.38,-99.18 767.77,-79.44 746.25,-55.25 700.6,-3.93 507.42,-27.7 439.25,-19.25 428.58,-17.93 416.96,-16.43 406.48,-15.05"/>
<polygon fill="#63b8ff" stroke="#63b8ff" points="407.11,-11.61 396.74,-13.77 406.2,-18.55 407.11,-11.61"/>
</a>
</g>
</g>
<!-- Node12&#45;&gt;Node8 -->
<g id="edge19_Node000012_Node000008" class="edge">
<title>Node12&#45;&gt;Node8</title>
<g id="a_edge19_Node000012_Node000008"><a xlink:title=" ">
<path fill="none" stroke="#63b8ff" d="M664.94,-110.09C673.95,-102.47 687.08,-91.37 697.93,-82.2"/>
<polygon fill="#63b8ff" stroke="#63b8ff" points="700.19,-84.88 705.56,-75.75 695.67,-79.53 700.19,-84.88"/>
</a>
</g>
</g>
<!-- Node12&#45;&gt;Node10 -->
<g id="edge24_Node000012_Node000010" class="edge">
<title>Node12&#45;&gt;Node10</title>
<g id="a_edge24_Node000012_Node000010"><a xlink:title=" ">
<path fill="none" stroke="#63b8ff" d="M623.38,-110.09C593.22,-101.27 547.11,-87.78 513.75,-78.02"/>
<polygon fill="#63b8ff" stroke="#63b8ff" points="515,-74.74 504.42,-75.29 513.04,-81.46 515,-74.74"/>
</a>
</g>
</g>
<!-- Node13 -->
<g id="Node000013" class="node">
<title>Node13</title>
<g id="a_Node000013"><a xlink:title=" ">
<polygon fill="#e0e0e0" stroke="#999999" points="679.12,-74.5 647.38,-74.5 647.38,-55.25 679.12,-55.25 679.12,-74.5"/>
<text text-anchor="middle" x="663.25" y="-61" font-family="Helvetica,sans-Serif" font-size="10.00">any</text>
</a>
</g>
</g>
<!-- Node12&#45;&gt;Node13 -->
<g id="edge15_Node000012_Node000013" class="edge">
<title>Node12&#45;&gt;Node13</title>
<g id="a_edge15_Node000012_Node000013"><a xlink:title=" ">
<path fill="none" stroke="#63b8ff" d="M655.74,-110.33C656.85,-103.74 658.42,-94.46 659.84,-86.07"/>
<polygon fill="#63b8ff" stroke="#63b8ff" points="663.26,-86.8 661.48,-76.35 656.36,-85.63 663.26,-86.8"/>
</a>
</g>
</g>
<!-- Node14 -->
<g id="Node000014" class="node">
<title>Node14</title>
<g id="a_Node000014"><a xlink:title=" ">
<polygon fill="#e0e0e0" stroke="#999999" points="838.88,-74.5 793.62,-74.5 793.62,-55.25 838.88,-55.25 838.88,-74.5"/>
<text text-anchor="middle" x="816.25" y="-61" font-family="Helvetica,sans-Serif" font-size="10.00">cstdint</text>
</a>
</g>
</g>
<!-- Node12&#45;&gt;Node14 -->
<g id="edge16_Node000012_Node000014" class="edge">
<title>Node12&#45;&gt;Node14</title>
<g id="a_edge16_Node000012_Node000014"><a xlink:title=" ">
<path fill="none" stroke="#63b8ff" d="M681.73,-110.09C709.59,-100.94 752.73,-86.75 782.61,-76.93"/>
<polygon fill="#63b8ff" stroke="#63b8ff" points="783.51,-80.32 791.92,-73.87 781.33,-73.67 783.51,-80.32"/>
</a>
</g>
</g>
<!-- Node15 -->
<g id="Node000015" class="node">
<title>Node15</title>
<g id="a_Node000015"><a xlink:title=" ">
<polygon fill="#e0e0e0" stroke="#999999" points="939.62,-74.5 856.88,-74.5 856.88,-55.25 939.62,-55.25 939.62,-74.5"/>
<text text-anchor="middle" x="898.25" y="-61" font-family="Helvetica,sans-Serif" font-size="10.00">unordered_map</text>
</a>
</g>
</g>
<!-- Node12&#45;&gt;Node15 -->
<g id="edge20_Node000012_Node000015" class="edge">
<title>Node12&#45;&gt;Node15</title>
<g id="a_edge20_Node000012_Node000015"><a xlink:title=" ">
<path fill="none" stroke="#63b8ff" d="M693.72,-110.51C735,-101.5 800.02,-87.31 845.64,-77.36"/>
<polygon fill="#63b8ff" stroke="#63b8ff" points="846.29,-80.8 855.31,-75.25 844.8,-73.96 846.29,-80.8"/>
</a>
</g>
</g>
<!-- Node16 -->
<g id="Node000016" class="node">
<title>Node16</title>
<g id="a_Node000016"><a xlink:title=" ">
<polygon fill="#e0e0e0" stroke="#999999" points="1035,-74.5 957.5,-74.5 957.5,-55.25 1035,-55.25 1035,-74.5"/>
<text text-anchor="middle" x="996.25" y="-61" font-family="Helvetica,sans-Serif" font-size="10.00">unordered_set</text>
</a>
</g>
</g>
<!-- Node12&#45;&gt;Node16 -->
<g id="edge21_Node000012_Node000016" class="edge">
<title>Node12&#45;&gt;Node16</title>
<g id="a_edge21_Node000012_Node000016"><a xlink:title=" ">
<path fill="none" stroke="#63b8ff" d="M693.77,-113.47C748.17,-105.62 849.46,-90.72 946.08,-74.82"/>
<polygon fill="#63b8ff" stroke="#63b8ff" points="946.44,-78.31 955.74,-73.22 945.3,-71.4 946.44,-78.31"/>
</a>
</g>
</g>
<!-- Node17 -->
<g id="Node000017" class="node">
<title>Node17</title>
<g id="a_Node000017"><a xlink:title=" ">
<polygon fill="#e0e0e0" stroke="#999999" points="629.38,-74.5 521.12,-74.5 521.12,-55.25 629.38,-55.25 629.38,-74.5"/>
<text text-anchor="middle" x="575.25" y="-61" font-family="Helvetica,sans-Serif" font-size="10.00">boost/multi_array.hpp</text>
</a>
</g>
</g>
<!-- Node12&#45;&gt;Node17 -->
<g id="edge23_Node000012_Node000017" class="edge">
<title>Node12&#45;&gt;Node17</title>
<g id="a_edge23_Node000012_Node000017"><a xlink:title=" ">
<path fill="none" stroke="#63b8ff" d="M640.85,-110.09C629.16,-102.21 611.95,-90.61 598.09,-81.27"/>
<polygon fill="#63b8ff" stroke="#63b8ff" points="600.22,-78.49 589.97,-75.8 596.31,-84.29 600.22,-78.49"/>
</a>
</g>
</g>
<!-- Node18&#45;&gt;Node4 -->
<g id="edge28_Node000018_Node000004" class="edge">
<title>Node18&#45;&gt;Node4</title>
<g id="a_edge28_Node000018_Node000004"><a xlink:title=" ">
<path fill="none" stroke="#63b8ff" d="M362.72,-110.09C331.9,-100.97 284.24,-86.88 251.05,-77.06"/>
<polygon fill="#63b8ff" stroke="#63b8ff" points="252.43,-73.82 241.85,-74.33 250.44,-80.53 252.43,-73.82"/>
</a>
</g>
</g>
<!-- Node18&#45;&gt;Node5 -->
<g id="edge29_Node000018_Node000005" class="edge">
<title>Node18&#45;&gt;Node5</title>
<g id="a_edge29_Node000018_Node000005"><a xlink:title=" ">
<path fill="none" stroke="#63b8ff" d="M374.59,-110.09C357.52,-101.83 332.01,-89.48 312.28,-79.93"/>
<polygon fill="#63b8ff" stroke="#63b8ff" points="313.89,-76.82 303.36,-75.61 310.84,-83.12 313.89,-76.82"/>
</a>
</g>
</g>
<!-- Node18&#45;&gt;Node6 -->
<g id="edge32_Node000018_Node000006" class="edge">
<title>Node18&#45;&gt;Node6</title>
<g id="a_edge32_Node000018_Node000006"><a xlink:title=" ">
<path fill="none" stroke="#63b8ff" d="M382.46,-110.14C373.51,-101.92 361.44,-88.89 356.25,-74.5 350.89,-59.64 356.21,-42.29 362.28,-29.42"/>
<polygon fill="#63b8ff" stroke="#63b8ff" points="365.26,-31.26 366.84,-20.79 359.07,-27.99 365.26,-31.26"/>
</a>
</g>
</g>
<!-- Node18&#45;&gt;Node8 -->
<g id="edge30_Node000018_Node000008" class="edge">
<title>Node18&#45;&gt;Node8</title>
<g id="a_edge30_Node000018_Node000008"><a xlink:title=" ">
<path fill="none" stroke="#63b8ff" d="M433.08,-112.01C436.18,-111.49 439.27,-110.98 442.25,-110.5 547.82,-93.49 578.4,-97.99 685.76,-74.78"/>
<polygon fill="#63b8ff" stroke="#63b8ff" points="686.26,-78.26 695.27,-72.69 684.75,-71.42 686.26,-78.26"/>
</a>
</g>
</g>
<!-- Node18&#45;&gt;Node10 -->
<g id="edge34_Node000018_Node000010" class="edge">
<title>Node18&#45;&gt;Node10</title>
<g id="a_edge34_Node000018_Node000010"><a xlink:title=" ">
<path fill="none" stroke="#63b8ff" d="M406.65,-110.09C418.34,-102.21 435.55,-90.61 449.41,-81.27"/>
<polygon fill="#63b8ff" stroke="#63b8ff" points="451.19,-84.29 457.53,-75.8 447.28,-78.49 451.19,-84.29"/>
</a>
</g>
</g>
<!-- Node18&#45;&gt;Node13 -->
<g id="edge26_Node000018_Node000013" class="edge">
<title>Node18&#45;&gt;Node13</title>
<g id="a_edge26_Node000018_Node000013"><a xlink:title=" ">
<path fill="none" stroke="#63b8ff" d="M433.05,-112.04C492.05,-101.51 599.11,-82.33 636.17,-74.41"/>
<polygon fill="#63b8ff" stroke="#63b8ff" points="636.53,-77.92 645.48,-72.24 634.95,-71.1 636.53,-77.92"/>
</a>
</g>
</g>
<!-- Node18&#45;&gt;Node14 -->
<g id="edge27_Node000018_Node000014" class="edge">
<title>Node18&#45;&gt;Node14</title>
<g id="a_edge27_Node000018_Node000014"><a xlink:title=" ">
<path fill="none" stroke="#63b8ff" d="M433.07,-111.92C436.17,-111.42 439.26,-110.94 442.25,-110.5 576.86,-90.7 611.18,-90.82 746.25,-74.5 757.89,-73.09 770.61,-71.53 781.98,-70.13"/>
<polygon fill="#63b8ff" stroke="#63b8ff" points="782.24,-73.62 791.74,-68.92 781.38,-66.68 782.24,-73.62"/>
</a>
</g>
</g>
<!-- Node18&#45;&gt;Node17 -->
<g id="edge33_Node000018_Node000017" class="edge">
<title>Node18&#45;&gt;Node17</title>
<g id="a_edge33_Node000018_Node000017"><a xlink:title=" ">
<path fill="none" stroke="#63b8ff" d="M424.12,-110.09C454.19,-101.29 500.11,-87.86 533.44,-78.11"/>
<polygon fill="#63b8ff" stroke="#63b8ff" points="534.16,-81.54 542.77,-75.38 532.19,-74.83 534.16,-81.54"/>
</a>
</g>
</g>
<!-- Node19 -->
<g id="Node000019" class="node">
<title>Node19</title>
<g id="a_Node000019"><a xlink:title=" ">
<polygon fill="#e0e0e0" stroke="#999999" points="423.25,-74.5 365.25,-74.5 365.25,-55.25 423.25,-55.25 423.25,-74.5"/>
<text text-anchor="middle" x="394.25" y="-61" font-family="Helvetica,sans-Serif" font-size="10.00">typeindex</text>
</a>
</g>
</g>
<!-- Node18&#45;&gt;Node19 -->
<g id="edge31_Node000018_Node000019" class="edge">
<title>Node18&#45;&gt;Node19</title>
<g id="a_edge31_Node000018_Node000019"><a xlink:title=" ">
<path fill="none" stroke="#63b8ff" d="M393.42,-110.33C393.54,-103.82 393.71,-94.67 393.87,-86.37"/>
<polygon fill="#63b8ff" stroke="#63b8ff" points="397.36,-86.44 394.05,-76.37 390.37,-86.3 397.36,-86.44"/>
</a>
</g>
</g>
<!-- Node22&#45;&gt;Node7 -->
<g id="edge54_Node000022_Node000007" class="edge">
<title>Node22&#45;&gt;Node7</title>
<g id="a_edge54_Node000022_Node000007"><a xlink:title=" ">
<path fill="none" stroke="#63b8ff" d="M972.46,-238.63C899.83,-232.69 698.41,-215.65 531.25,-196.25 518.1,-194.72 504.03,-192.92 490.63,-191.11"/>
<polygon fill="#63b8ff" stroke="#63b8ff" points="491.45,-187.69 481.07,-189.8 490.5,-194.62 491.45,-187.69"/>
</a>
</g>
</g>
<!-- Node22&#45;&gt;Node8 -->
<g id="edge46_Node000022_Node000008" class="edge">
<title>Node22&#45;&gt;Node8</title>
<g id="a_edge46_Node000022_Node000008"><a xlink:title=" ">
<path fill="none" stroke="#63b8ff" d="M972.71,-233.51C947.43,-226.11 909.44,-213.36 879.25,-196.25 875.34,-194.04 779.62,-116.48 737.19,-82.06"/>
<polygon fill="#63b8ff" stroke="#63b8ff" points="739.46,-79.39 729.48,-75.81 735.04,-84.83 739.46,-79.39"/>
</a>
</g>
</g>
<!-- Node22&#45;&gt;Node12 -->
<g id="edge53_Node000022_Node000012" class="edge">
<title>Node22&#45;&gt;Node12</title>
<g id="a_edge53_Node000022_Node000012"><a xlink:title=" ">
<path fill="none" stroke="#63b8ff" d="M972.39,-240.14C880.56,-237.45 591.66,-226.61 564.25,-196.25 555.17,-186.19 557.1,-177.27 564.25,-165.75 573.45,-150.92 589.21,-140.86 605,-134.12"/>
<polygon fill="#63b8ff" stroke="#63b8ff" points="605.82,-137.55 613.9,-130.69 603.31,-131.02 605.82,-137.55"/>
</a>
</g>
</g>
<!-- Node22&#45;&gt;Node14 -->
<g id="edge41_Node000022_Node000014" class="edge">
<title>Node22&#45;&gt;Node14</title>
<g id="a_edge41_Node000022_Node000014"><a xlink:title=" ">
<path fill="none" stroke="#63b8ff" d="M1027.98,-239.99C1091.52,-236.97 1238.89,-223.69 1194.25,-165.75 1099.37,-42.6 1006.2,-112.17 850.17,-74.85"/>
<polygon fill="#63b8ff" stroke="#63b8ff" points="851.34,-71.54 840.79,-72.48 849.62,-78.32 851.34,-71.54"/>
</a>
</g>
</g>
<!-- Node23 -->
<g id="Node000023" class="node">
<title>Node23</title>
<g id="a_Node000023"><a xlink:title=" ">
<polygon fill="#e0e0e0" stroke="#999999" points="767.12,-190.62 711.38,-190.62 711.38,-171.38 767.12,-171.38 767.12,-190.62"/>
<text text-anchor="middle" x="739.25" y="-177.12" font-family="Helvetica,sans-Serif" font-size="10.00">algorithm</text>
</a>
</g>
</g>
<!-- Node22&#45;&gt;Node23 -->
<g id="edge38_Node000022_Node000023" class="edge">
<title>Node22&#45;&gt;Node23</title>
<g id="a_edge38_Node000022_Node000023"><a xlink:title=" ">
<path fill="none" stroke="#63b8ff" d="M972.3,-236.88C929.54,-230.42 845.57,-216.34 776.25,-196.25 774.68,-195.79 773.08,-195.3 771.48,-194.78"/>
<polygon fill="#63b8ff" stroke="#63b8ff" points="772.97,-191.6 762.38,-191.57 770.64,-198.2 772.97,-191.6"/>
</a>
</g>
</g>
<!-- Node24 -->
<g id="Node000024" class="node">
<title>Node24</title>
<g id="a_Node000024"><a xlink:title=" ">
<polygon fill="#e0e0e0" stroke="#999999" points="830.88,-190.62 785.62,-190.62 785.62,-171.38 830.88,-171.38 830.88,-190.62"/>
<text text-anchor="middle" x="808.25" y="-177.12" font-family="Helvetica,sans-Serif" font-size="10.00">chrono</text>
</a>
</g>
</g>
<!-- Node22&#45;&gt;Node24 -->
<g id="edge39_Node000022_Node000024" class="edge">
<title>Node22&#45;&gt;Node24</title>
<g id="a_edge39_Node000022_Node000024"><a xlink:title=" ">
<path fill="none" stroke="#63b8ff" d="M972.3,-233.62C941.09,-225.33 889.18,-211 845.25,-196.25 843.93,-195.81 842.58,-195.34 841.23,-194.87"/>
<polygon fill="#63b8ff" stroke="#63b8ff" points="842.85,-191.73 832.26,-191.58 840.44,-198.31 842.85,-191.73"/>
</a>
</g>
</g>
<!-- Node25 -->
<g id="Node000025" class="node">
<title>Node25</title>
<g id="a_Node000025"><a xlink:title=" ">
<polygon fill="#e0e0e0" stroke="#999999" points="930.75,-190.62 887.75,-190.62 887.75,-171.38 930.75,-171.38 930.75,-190.62"/>
<text text-anchor="middle" x="909.25" y="-177.12" font-family="Helvetica,sans-Serif" font-size="10.00">cmath</text>
</a>
</g>
</g>
<!-- Node22&#45;&gt;Node25 -->
<g id="edge40_Node000022_Node000025" class="edge">
<title>Node22&#45;&gt;Node25</title>
<g id="a_edge40_Node000022_Node000025"><a xlink:title=" ">
<path fill="none" stroke="#63b8ff" d="M986.43,-231.93C972.13,-222.68 949.55,-208.07 932.5,-197.04"/>
<polygon fill="#63b8ff" stroke="#63b8ff" points="934.77,-194.34 924.47,-191.85 930.97,-200.22 934.77,-194.34"/>
</a>
</g>
</g>
<!-- Node26 -->
<g id="Node000026" class="node">
<title>Node26</title>
<g id="a_Node000026"><a xlink:title=" ">
<polygon fill="#e0e0e0" stroke="#999999" points="989.25,-190.62 949.25,-190.62 949.25,-171.38 989.25,-171.38 989.25,-190.62"/>
<text text-anchor="middle" x="969.25" y="-177.12" font-family="Helvetica,sans-Serif" font-size="10.00">ctime</text>
</a>
</g>
</g>
<!-- Node22&#45;&gt;Node26 -->
<g id="edge42_Node000022_Node000026" class="edge">
<title>Node22&#45;&gt;Node26</title>
<g id="a_edge42_Node000022_Node000026"><a xlink:title=" ">
<path fill="none" stroke="#63b8ff" d="M995.54,-231.93C991.26,-223.81 984.81,-211.54 979.36,-201.2"/>
<polygon fill="#63b8ff" stroke="#63b8ff" points="982.46,-199.58 974.71,-192.37 976.27,-202.84 982.46,-199.58"/>
</a>
</g>
</g>
<!-- Node27 -->
<g id="Node000027" class="node">
<title>Node27</title>
<g id="a_Node000027"><a xlink:title=" ">
<polygon fill="#e0e0e0" stroke="#999999" points="1057.12,-190.62 1007.38,-190.62 1007.38,-171.38 1057.12,-171.38 1057.12,-190.62"/>
<text text-anchor="middle" x="1032.25" y="-177.12" font-family="Helvetica,sans-Serif" font-size="10.00">iomanip</text>
</a>
</g>
</g>
<!-- Node22&#45;&gt;Node27 -->
<g id="edge43_Node000022_Node000027" class="edge">
<title>Node22&#45;&gt;Node27</title>
<g id="a_edge43_Node000022_Node000027"><a xlink:title=" ">
<path fill="none" stroke="#63b8ff" d="M1005.11,-231.93C1009.57,-223.72 1016.33,-211.28 1021.99,-200.87"/>
<polygon fill="#63b8ff" stroke="#63b8ff" points="1024.92,-202.81 1026.62,-192.36 1018.77,-199.47 1024.92,-202.81"/>
</a>
</g>
</g>
<!-- Node28 -->
<g id="Node000028" class="node">
<title>Node28</title>
<g id="a_Node000028"><a xlink:title=" ">
<polygon fill="#e0e0e0" stroke="#999999" points="1115.25,-190.62 1075.25,-190.62 1075.25,-171.38 1115.25,-171.38 1115.25,-190.62"/>
<text text-anchor="middle" x="1095.25" y="-177.12" font-family="Helvetica,sans-Serif" font-size="10.00">regex</text>
</a>
</g>
</g>
<!-- Node22&#45;&gt;Node28 -->
<g id="edge44_Node000022_Node000028" class="edge">
<title>Node22&#45;&gt;Node28</title>
<g id="a_edge44_Node000022_Node000028"><a xlink:title=" ">
<path fill="none" stroke="#63b8ff" d="M1014.68,-231.93C1029.6,-222.68 1053.18,-208.07 1070.98,-197.04"/>
<polygon fill="#63b8ff" stroke="#63b8ff" points="1072.74,-200.07 1079.4,-191.82 1069.06,-194.12 1072.74,-200.07"/>
</a>
</g>
</g>
<!-- Node29 -->
<g id="Node000029" class="node">
<title>Node29</title>
<g id="a_Node000029"><a xlink:title=" ">
<polygon fill="#e0e0e0" stroke="#999999" points="1184.88,-190.62 1133.62,-190.62 1133.62,-171.38 1184.88,-171.38 1184.88,-190.62"/>
<text text-anchor="middle" x="1159.25" y="-177.12" font-family="Helvetica,sans-Serif" font-size="10.00">sstream</text>
</a>
</g>
</g>
<!-- Node22&#45;&gt;Node29 -->
<g id="edge45_Node000022_Node000029" class="edge">
<title>Node22&#45;&gt;Node29</title>
<g id="a_edge45_Node000022_Node000029"><a xlink:title=" ">
<path fill="none" stroke="#63b8ff" d="M1026.49,-231.78C1051.67,-222.98 1090.71,-209.11 1124.25,-196.25 1125.19,-195.89 1126.14,-195.52 1127.1,-195.15"/>
<polygon fill="#63b8ff" stroke="#63b8ff" points="1128.05,-198.54 1136.05,-191.59 1125.47,-192.03 1128.05,-198.54"/>
</a>
</g>
</g>
<!-- Node30 -->
<g id="Node000030" class="node">
<title>Node30</title>
<g id="a_Node000030"><a xlink:title=" ">
<polygon fill="#e0e0e0" stroke="#999999" points="1345.5,-190.62 1241,-190.62 1241,-171.38 1345.5,-171.38 1345.5,-190.62"/>
<text text-anchor="middle" x="1293.25" y="-177.12" font-family="Helvetica,sans-Serif" font-size="10.00">boost/date_time.hpp</text>
</a>
</g>
</g>
<!-- Node22&#45;&gt;Node30 -->
<g id="edge47_Node000022_Node000030" class="edge">
<title>Node22&#45;&gt;Node30</title>
<g id="a_edge47_Node000022_Node000030"><a xlink:title=" ">
<path fill="none" stroke="#63b8ff" d="M1028.24,-235.55C1071.13,-227.34 1155.66,-211.01 1227.25,-196.25 1231.58,-195.36 1236.07,-194.42 1240.58,-193.46"/>
<polygon fill="#63b8ff" stroke="#63b8ff" points="1241.2,-196.91 1250.25,-191.4 1239.74,-190.06 1241.2,-196.91"/>
</a>
</g>
</g>
<!-- Node31 -->
<g id="Node000031" class="node">
<title>Node31</title>
<g id="a_Node000031"><a xlink:title=" ">
<polygon fill="#e0e0e0" stroke="#999999" points="1504.5,-190.62 1364,-190.62 1364,-171.38 1504.5,-171.38 1504.5,-190.62"/>
<text text-anchor="middle" x="1434.25" y="-177.12" font-family="Helvetica,sans-Serif" font-size="10.00">boost/endian/conversion.hpp</text>
</a>
</g>
</g>
<!-- Node22&#45;&gt;Node31 -->
<g id="edge48_Node000022_Node000031" class="edge">
<title>Node22&#45;&gt;Node31</title>
<g id="a_edge48_Node000022_Node000031"><a xlink:title=" ">
<path fill="none" stroke="#63b8ff" d="M1027.86,-237.88C1087.54,-231.3 1232.99,-214.68 1354.25,-196.25 1360.77,-195.26 1367.58,-194.15 1374.36,-193.01"/>
<polygon fill="#63b8ff" stroke="#63b8ff" points="1374.91,-196.47 1384.17,-191.32 1373.72,-189.57 1374.91,-196.47"/>
</a>
</g>
</g>
<!-- Node32 -->
<g id="Node000032" class="node">
<title>Node32</title>
<g id="a_Node000032"><a xlink:title=" ">
<polygon fill="#e0e0e0" stroke="#999999" points="1623.62,-190.62 1522.88,-190.62 1522.88,-171.38 1623.62,-171.38 1623.62,-190.62"/>
<text text-anchor="middle" x="1573.25" y="-177.12" font-family="Helvetica,sans-Serif" font-size="10.00">boost/uuid/uuid.hpp</text>
</a>
</g>
</g>
<!-- Node22&#45;&gt;Node32 -->
<g id="edge49_Node000022_Node000032" class="edge">
<title>Node22&#45;&gt;Node32</title>
<g id="a_edge49_Node000022_Node000032"><a xlink:title=" ">
<path fill="none" stroke="#63b8ff" d="M1028.23,-239.88C1105.75,-236.82 1329.67,-225.87 1513.25,-196.25 1517.95,-195.49 1522.82,-194.57 1527.67,-193.56"/>
<polygon fill="#63b8ff" stroke="#63b8ff" points="1528.36,-196.99 1537.36,-191.41 1526.84,-190.16 1528.36,-196.99"/>
</a>
</g>
</g>
<!-- Node33 -->
<g id="Node000033" class="node">
<title>Node33</title>
<g id="a_Node000033"><a xlink:title=" ">
<polygon fill="#e0e0e0" stroke="#999999" points="1793.12,-190.62 1641.38,-190.62 1641.38,-171.38 1793.12,-171.38 1793.12,-190.62"/>
<text text-anchor="middle" x="1717.25" y="-177.12" font-family="Helvetica,sans-Serif" font-size="10.00">boost/uuid/uuid_generators.hpp</text>
</a>
</g>
</g>
<!-- Node22&#45;&gt;Node33 -->
<g id="edge50_Node000022_Node000033" class="edge">
<title>Node22&#45;&gt;Node33</title>
<g id="a_edge50_Node000022_Node000033"><a xlink:title=" ">
<path fill="none" stroke="#63b8ff" d="M1028.06,-239.86C1116.57,-236.43 1399.6,-223.9 1632.25,-196.25 1640.22,-195.3 1648.58,-194.13 1656.81,-192.86"/>
<polygon fill="#63b8ff" stroke="#63b8ff" points="1657.1,-196.36 1666.43,-191.33 1656,-189.45 1657.1,-196.36"/>
</a>
</g>
</g>
<!-- Node34 -->
<g id="Node000034" class="node">
<title>Node34</title>
<g id="a_Node000034"><a xlink:title=" ">
<polygon fill="#e0e0e0" stroke="#999999" points="1925,-190.62 1811.5,-190.62 1811.5,-171.38 1925,-171.38 1925,-190.62"/>
<text text-anchor="middle" x="1868.25" y="-177.12" font-family="Helvetica,sans-Serif" font-size="10.00">boost/uuid/uuid_io.hpp</text>
</a>
</g>
</g>
<!-- Node22&#45;&gt;Node34 -->
<g id="edge51_Node000022_Node000034" class="edge">
<title>Node22&#45;&gt;Node34</title>
<g id="a_edge51_Node000022_Node000034"><a xlink:title=" ">
<path fill="none" stroke="#63b8ff" d="M1028.1,-240.9C1131.23,-240.68 1500.98,-236.9 1802.25,-196.25 1807.98,-195.48 1813.96,-194.47 1819.87,-193.35"/>
<polygon fill="#63b8ff" stroke="#63b8ff" points="1820.49,-196.8 1829.6,-191.39 1819.1,-189.94 1820.49,-196.8"/>
</a>
</g>
</g>
<!-- Node35 -->
<g id="Node000035" class="node">
<title>Node35</title>
<g id="a_Node000035"><a xlink:title=" ">
<polygon fill="#e0e0e0" stroke="#999999" points="693,-196.25 573.5,-196.25 573.5,-165.75 693,-165.75 693,-196.25"/>
<text text-anchor="start" x="581.5" y="-182.75" font-family="Helvetica,sans-Serif" font-size="10.00">boost/date_time/c_local</text>
<text text-anchor="middle" x="633.25" y="-171.5" font-family="Helvetica,sans-Serif" font-size="10.00">_time_adjustor.hpp</text>
</a>
</g>
</g>
<!-- Node22&#45;&gt;Node35 -->
<g id="edge52_Node000022_Node000035" class="edge">
<title>Node22&#45;&gt;Node35</title>
<g id="a_edge52_Node000022_Node000035"><a xlink:title=" ">
<path fill="none" stroke="#63b8ff" d="M972.64,-237.26C921.74,-230.48 809.42,-215 704.53,-196.6"/>
<polygon fill="#63b8ff" stroke="#63b8ff" points="705.37,-193.19 694.91,-194.89 704.15,-200.08 705.37,-193.19"/>
</a>
</g>
</g>
<!-- Node36&#45;&gt;Node12 -->
<g id="edge56_Node000036_Node000012" class="edge">
<title>Node36&#45;&gt;Node12</title>
<g id="a_edge56_Node000036_Node000012"><a xlink:title=" ">
<path fill="none" stroke="#63b8ff" d="M536.5,-232.08C529.1,-217.03 517.05,-186.01 531.25,-165.75 540.08,-153.16 573.96,-141.41 603.94,-133.13"/>
<polygon fill="#63b8ff" stroke="#63b8ff" points="604.53,-136.59 613.29,-130.63 602.72,-129.83 604.53,-136.59"/>
</a>
</g>
</g>
</g>
</svg>

<g id="navigator" transform="translate(0 0)" fill="#404254">
  <rect fill="#f2f5e9" fill-opacity="0.5" stroke="#606060" stroke-width=".5" x="0" y="0" width="60" height="60"/>
  <use id="zoomplus" xlink:href="#zoomPlus" x="17" y="9" onmousedown="handleZoom(evt,'in')"/>
  <use id="zoomminus" xlink:href="#zoomMin" x="42" y="9" onmousedown="handleZoom(evt,'out')"/>
  <use id="reset" xlink:href="#resetDef" x="30" y="36" onmousedown="handleReset()"/>
   <use id="arrowup" xlink:href="#arrowUp" x="0" y="0" onmousedown="handlePan(0,-1)"/>
  <use id="arrowright" xlink:href="#arrowRight" x="0" y="0" onmousedown="handlePan(1,0)"/>
  <use id="arrowdown" xlink:href="#arrowDown" x="0" y="0" onmousedown="handlePan(0,1)"/>
  <use id="arrowleft" xlink:href="#arrowLeft" x="0" y="0" onmousedown="handlePan(-1,0)"/>
</g>
<svg viewBox="0 0 15 15" width="100%" height="30px" preserveAspectRatio="xMaxYMin meet">
 <g id="arrow_out" transform="scale(0.3 0.3)">
  <a xlink:href="_h_d_f5_i_o_8cpp__incl_org.svg" target="_base">
   <rect id="button" ry="5" rx="5" y="6" x="6" height="38" width="38"
        fill="#f2f5e9" fill-opacity="0.5" stroke="#606060" stroke-width="1.0"/>
   <path id="arrow"
     d="M 11.500037,31.436501 C 11.940474,20.09759 22.043105,11.32322 32.158766,21.979434 L 37.068811,17.246167 C 37.068811,17.246167 37.088388,32 37.088388,32 L 22.160133,31.978069 C 22.160133,31.978069 26.997745,27.140456 26.997745,27.140456 C 18.528582,18.264221 13.291696,25.230495 11.500037,31.436501 z"
     style="fill:#404040;"/>
  </a>
 </g>
</svg>

<style type='text/css'>
<![CDATA[
[data-mouse-over-selected='false'] { opacity: 0.7; }
[data-mouse-over-selected='true']  { opacity: 1.0; }
]]>
</style>
<script type="application/ecmascript"><![CDATA[
document.addEventListener('DOMContentLoaded', (event) => {
  highlightEdges();
  highlightAdjacentNodes();
});
]]></script>
</svg>
