<?xml version="1.0" encoding="UTF-8" standalone="no"?>
<!DOCTYPE svg PUBLIC "-//W3C//DTD SVG 1.1//EN"
 "http://www.w3.org/Graphics/SVG/1.1/DTD/svg11.dtd">
<!-- Generated by graphviz version 15.1.0 (20260618.0150)
 -->
<!-- Title: src/io/hdf5/HDF5IO.hpp Pages: 1 -->
<svg width="922pt" height="248pt"
 viewBox="0.00 0.00 922.00 248.00" xmlns="http://www.w3.org/2000/svg" xmlns:xlink="http://www.w3.org/1999/xlink">
<g id="graph0" class="graph" transform="scale(1 1) rotate(0) translate(4 244.25)">
<title>src/io/hdf5/HDF5IO.hpp</title>
<!-- Node1 -->
<g id="Node000001" class="node">
<title>Node1</title>
<g id="a_Node000001"><a xlink:title=" ">
<polygon fill="#999999" stroke="#666666" points="695.12,-240.25 574.88,-240.25 574.88,-221 695.12,-221 695.12,-240.25"/>
<text xml:space="preserve" text-anchor="middle" x="635" y="-226.75" font-family="Helvetica,sans-Serif" font-size="10.00">src/io/hdf5/HDF5IO.hpp</text>
</a>
</g>
</g>
<!-- Node2 -->
<g id="Node000002" class="node">
<title>Node2</title>
<g id="a_Node000002"><a xlink:title=" ">
<polygon fill="#e0e0e0" stroke="#999999" points="724.75,-74.5 671.25,-74.5 671.25,-55.25 724.75,-55.25 724.75,-74.5"/>
<text xml:space="preserve" text-anchor="middle" x="698" y="-61" font-family="Helvetica,sans-Serif" font-size="10.00">iostream</text>
</a>
</g>
</g>
<!-- Node1&#45;&gt;Node2 -->
<g id="edge1_Node000001_Node000002" class="edge">
<title>Node1&#45;&gt;Node2</title>
<g id="a_edge1_Node000001_Node000002"><a xlink:title=" ">
<path fill="none" stroke="#63b8ff" d="M656.69,-220.56C671.7,-213.16 690.9,-201.28 702,-185 720.9,-157.29 719.74,-143.54 714,-110.5 712.52,-101.99 709.57,-92.96 706.59,-85.27"/>
<polygon fill="#63b8ff" stroke="#63b8ff" points="709.92,-84.14 702.84,-76.25 703.45,-86.83 709.92,-84.14"/>
</a>
</g>
</g>
<!-- Node3 -->
<g id="Node000003" class="node">
<title>Node3</title>
<g id="a_Node000003"><a xlink:title=" ">
<polygon fill="#e0e0e0" stroke="#999999" points="817.62,-74.5 766.38,-74.5 766.38,-55.25 817.62,-55.25 817.62,-74.5"/>
<text xml:space="preserve" text-anchor="middle" x="792" y="-61" font-family="Helvetica,sans-Serif" font-size="10.00">memory</text>
</a>
</g>
</g>
<!-- Node1&#45;&gt;Node3 -->
<g id="edge2_Node000001_Node000003" class="edge">
<title>Node1&#45;&gt;Node3</title>
<g id="a_edge2_Node000001_Node000003"><a xlink:title=" ">
<path fill="none" stroke="#63b8ff" d="M661.02,-220.55C679.41,-213.16 703.74,-201.27 721,-185 751.7,-156.06 773.64,-110.92 784.43,-85.32"/>
<polygon fill="#63b8ff" stroke="#63b8ff" points="787.62,-86.75 788.13,-76.17 781.13,-84.12 787.62,-86.75"/>
</a>
</g>
</g>
<!-- Node4 -->
<g id="Node000004" class="node">
<title>Node4</title>
<g id="a_Node000004"><a xlink:title=" ">
<polygon fill="#e0e0e0" stroke="#999999" points="40,-19.25 0,-19.25 0,0 40,0 40,-19.25"/>
<text xml:space="preserve" text-anchor="middle" x="20" y="-5.75" font-family="Helvetica,sans-Serif" font-size="10.00">string</text>
</a>
</g>
</g>
<!-- Node1&#45;&gt;Node4 -->
<g id="edge3_Node000001_Node000004" class="edge">
<title>Node1&#45;&gt;Node4</title>
<g id="a_edge3_Node000001_Node000004"><a xlink:title=" ">
<path fill="none" stroke="#63b8ff" d="M574.64,-223.44C451.49,-210.02 175.95,-175.71 94,-129.75 65.11,-113.55 61.24,-102.78 44,-74.5 35.59,-60.7 29.33,-43.47 25.31,-30.39"/>
<polygon fill="#63b8ff" stroke="#63b8ff" points="28.69,-29.46 22.57,-20.81 21.96,-31.39 28.69,-29.46"/>
</a>
</g>
</g>
<!-- Node5 -->
<g id="Node000005" class="node">
<title>Node5</title>
<g id="a_Node000005"><a xlink:title=" ">
<polygon fill="#e0e0e0" stroke="#999999" points="670,-185 600,-185 600,-165.75 670,-165.75 670,-185"/>
<text xml:space="preserve" text-anchor="middle" x="635" y="-171.5" font-family="Helvetica,sans-Serif" font-size="10.00">H5Opublic.h</text>
</a>
</g>
</g>
<!-- Node1&#45;&gt;Node5 -->
<g id="edge4_Node000001_Node000005" class="edge">
<title>Node1&#45;&gt;Node5</title>
<g id="a_edge4_Node000001_Node000005"><a xlink:title=" ">
<path fill="none" stroke="#63b8ff" d="M635,-220.83C635,-214.32 635,-205.17 635,-196.87"/>
<polygon fill="#63b8ff" stroke="#63b8ff" points="638.5,-196.87 635,-186.87 631.5,-196.87 638.5,-196.87"/>
</a>
</g>
</g>
<!-- Node6 -->
<g id="Node000006" class="node">
<title>Node6</title>
<g id="a_Node000006"><a xlink:href="_types_8hpp.html" target="_top" xlink:title=" ">
<polygon fill="white" stroke="#666666" points="614.5,-74.5 553.5,-74.5 553.5,-55.25 614.5,-55.25 614.5,-74.5"/>
<text xml:space="preserve" text-anchor="middle" x="584" y="-61" font-family="Helvetica,sans-Serif" font-size="10.00">Types.hpp</text>
</a>
</g>
</g>
<!-- Node1&#45;&gt;Node6 -->
<g id="edge5_Node000001_Node000006" class="edge">
<title>Node1&#45;&gt;Node6</title>
<g id="a_edge5_Node000001_Node000006"><a xlink:title=" ">
<path fill="none" stroke="#63b8ff" d="M646.37,-220.55C670.63,-200.08 723.23,-149.06 697,-110.5 681.16,-87.21 651.09,-76.07 625.95,-70.75"/>
<polygon fill="#63b8ff" stroke="#63b8ff" points="626.78,-67.34 616.31,-68.97 625.51,-74.23 626.78,-67.34"/>
</a>
</g>
</g>
<!-- Node16 -->
<g id="Node000016" class="node">
<title>Node16</title>
<g id="a_Node000016"><a xlink:href="_base_i_o_8hpp.html" target="_top" xlink:title=" ">
<polygon fill="white" stroke="#666666" points="269.12,-129.75 190.88,-129.75 190.88,-110.5 269.12,-110.5 269.12,-129.75"/>
<text xml:space="preserve" text-anchor="middle" x="230" y="-116.25" font-family="Helvetica,sans-Serif" font-size="10.00">io/BaseIO.hpp</text>
</a>
</g>
</g>
<!-- Node1&#45;&gt;Node16 -->
<g id="edge16_Node000001_Node000016" class="edge">
<title>Node1&#45;&gt;Node16</title>
<g id="a_edge16_Node000001_Node000016"><a xlink:title=" ">
<path fill="none" stroke="#63b8ff" d="M598.19,-220.56C562.54,-211.72 506.98,-197.77 459,-185 393.73,-167.63 318.34,-146.37 272.43,-133.29"/>
<polygon fill="#63b8ff" stroke="#63b8ff" points="273.45,-129.94 262.88,-130.56 271.53,-136.67 273.45,-129.94"/>
</a>
</g>
</g>
<!-- Node21 -->
<g id="Node000021" class="node">
<title>Node21</title>
<g id="a_Node000021"><a xlink:href="_read_i_o_8hpp.html" target="_top" xlink:title=" ">
<polygon fill="white" stroke="#666666" points="546.5,-185 467.5,-185 467.5,-165.75 546.5,-165.75 546.5,-185"/>
<text xml:space="preserve" text-anchor="middle" x="507" y="-171.5" font-family="Helvetica,sans-Serif" font-size="10.00">io/ReadIO.hpp</text>
</a>
</g>
</g>
<!-- Node1&#45;&gt;Node21 -->
<g id="edge29_Node000001_Node000021" class="edge">
<title>Node1&#45;&gt;Node21</title>
<g id="a_edge29_Node000001_Node000021"><a xlink:title=" ">
<path fill="none" stroke="#63b8ff" d="M613.29,-220.59C592.97,-212.14 562.35,-199.4 539.19,-189.77"/>
<polygon fill="#63b8ff" stroke="#63b8ff" points="540.79,-186.64 530.22,-186.03 538.11,-193.11 540.79,-186.64"/>
</a>
</g>
</g>
<!-- Node6&#45;&gt;Node4 -->
<g id="edge9_Node000006_Node000004" class="edge">
<title>Node6&#45;&gt;Node4</title>
<g id="a_edge9_Node000006_Node000004"><a xlink:title=" ">
<path fill="none" stroke="#63b8ff" d="M553.06,-56.8C550.01,-56.22 546.95,-55.69 544,-55.25 358.49,-27.47 133.24,-15.54 51.52,-11.91"/>
<polygon fill="#63b8ff" stroke="#63b8ff" points="51.75,-8.41 41.61,-11.48 51.45,-15.41 51.75,-8.41"/>
</a>
</g>
</g>
<!-- Node7 -->
<g id="Node000007" class="node">
<title>Node7</title>
<g id="a_Node000007"><a xlink:title=" ">
<polygon fill="#e0e0e0" stroke="#999999" points="607.12,-19.25 558.88,-19.25 558.88,0 607.12,0 607.12,-19.25"/>
<text xml:space="preserve" text-anchor="middle" x="583" y="-5.75" font-family="Helvetica,sans-Serif" font-size="10.00">cstddef</text>
</a>
</g>
</g>
<!-- Node6&#45;&gt;Node7 -->
<g id="edge6_Node000006_Node000007" class="edge">
<title>Node6&#45;&gt;Node7</title>
<g id="a_edge6_Node000006_Node000007"><a xlink:title=" ">
<path fill="none" stroke="#63b8ff" d="M583.83,-55.08C583.71,-48.57 583.54,-39.42 583.38,-31.12"/>
<polygon fill="#63b8ff" stroke="#63b8ff" points="586.88,-31.05 583.2,-21.12 579.89,-31.19 586.88,-31.05"/>
</a>
</g>
</g>
<!-- Node8 -->
<g id="Node000008" class="node">
<title>Node8</title>
<g id="a_Node000008"><a xlink:title=" ">
<polygon fill="#e0e0e0" stroke="#999999" points="810.62,-19.25 765.38,-19.25 765.38,0 810.62,0 810.62,-19.25"/>
<text xml:space="preserve" text-anchor="middle" x="788" y="-5.75" font-family="Helvetica,sans-Serif" font-size="10.00">cstdint</text>
</a>
</g>
</g>
<!-- Node6&#45;&gt;Node8 -->
<g id="edge7_Node000006_Node000008" class="edge">
<title>Node6&#45;&gt;Node8</title>
<g id="a_edge7_Node000006_Node000008"><a xlink:title=" ">
<path fill="none" stroke="#63b8ff" d="M614.98,-56.07C647.47,-47.85 700.28,-34.36 754.2,-19.97"/>
<polygon fill="#63b8ff" stroke="#63b8ff" points="754.77,-23.44 763.53,-17.47 752.96,-16.68 754.77,-23.44"/>
</a>
</g>
</g>
<!-- Node9 -->
<g id="Node000009" class="node">
<title>Node9</title>
<g id="a_Node000009"><a xlink:title=" ">
<polygon fill="#e0e0e0" stroke="#999999" points="664.62,-19.25 625.38,-19.25 625.38,0 664.62,0 664.62,-19.25"/>
<text xml:space="preserve" text-anchor="middle" x="645" y="-5.75" font-family="Helvetica,sans-Serif" font-size="10.00">limits</text>
</a>
</g>
</g>
<!-- Node6&#45;&gt;Node9 -->
<g id="edge8_Node000006_Node000009" class="edge">
<title>Node6&#45;&gt;Node9</title>
<g id="a_edge8_Node000006_Node000009"><a xlink:title=" ">
<path fill="none" stroke="#63b8ff" d="M594.35,-54.84C603.08,-47.22 615.79,-36.12 626.3,-26.95"/>
<polygon fill="#63b8ff" stroke="#63b8ff" points="628.43,-29.73 633.66,-20.52 623.83,-24.46 628.43,-29.73"/>
</a>
</g>
</g>
<!-- Node10 -->
<g id="Node000010" class="node">
<title>Node10</title>
<g id="a_Node000010"><a xlink:title=" ">
<polygon fill="#e0e0e0" stroke="#999999" points="747.75,-19.25 682.25,-19.25 682.25,0 747.75,0 747.75,-19.25"/>
<text xml:space="preserve" text-anchor="middle" x="715" y="-5.75" font-family="Helvetica,sans-Serif" font-size="10.00">string_view</text>
</a>
</g>
</g>
<!-- Node6&#45;&gt;Node10 -->
<g id="edge10_Node000006_Node000010" class="edge">
<title>Node6&#45;&gt;Node10</title>
<g id="a_edge10_Node000006_Node000010"><a xlink:title=" ">
<path fill="none" stroke="#63b8ff" d="M606.22,-54.84C627.02,-46.39 658.35,-33.65 682.05,-24.02"/>
<polygon fill="#63b8ff" stroke="#63b8ff" points="683.32,-27.28 691.27,-20.27 680.68,-20.8 683.32,-27.28"/>
</a>
</g>
</g>
<!-- Node11 -->
<g id="Node000011" class="node">
<title>Node11</title>
<g id="a_Node000011"><a xlink:title=" ">
<polygon fill="#e0e0e0" stroke="#999999" points="913.88,-19.25 852.12,-19.25 852.12,0 913.88,0 913.88,-19.25"/>
<text xml:space="preserve" text-anchor="middle" x="883" y="-5.75" font-family="Helvetica,sans-Serif" font-size="10.00">type_traits</text>
</a>
</g>
</g>
<!-- Node6&#45;&gt;Node11 -->
<g id="edge11_Node000006_Node000011" class="edge">
<title>Node6&#45;&gt;Node11</title>
<g id="a_edge11_Node000006_Node000011"><a xlink:title=" ">
<path fill="none" stroke="#63b8ff" d="M614.87,-58.38C668.7,-48.79 779.79,-29.01 840.72,-18.15"/>
<polygon fill="#63b8ff" stroke="#63b8ff" points="841.13,-21.64 850.36,-16.44 839.9,-14.75 841.13,-21.64"/>
</a>
</g>
</g>
<!-- Node12 -->
<g id="Node000012" class="node">
<title>Node12</title>
<g id="a_Node000012"><a xlink:title=" ">
<polygon fill="#e0e0e0" stroke="#999999" points="483.38,-19.25 400.62,-19.25 400.62,0 483.38,0 483.38,-19.25"/>
<text xml:space="preserve" text-anchor="middle" x="442" y="-5.75" font-family="Helvetica,sans-Serif" font-size="10.00">unordered_map</text>
</a>
</g>
</g>
<!-- Node6&#45;&gt;Node12 -->
<g id="edge12_Node000006_Node000012" class="edge">
<title>Node6&#45;&gt;Node12</title>
<g id="a_edge12_Node000006_Node000012"><a xlink:title=" ">
<path fill="none" stroke="#63b8ff" d="M559.91,-54.84C537.06,-46.27 502.48,-33.31 476.67,-23.63"/>
<polygon fill="#63b8ff" stroke="#63b8ff" points="478.22,-20.47 467.62,-20.23 475.76,-27.02 478.22,-20.47"/>
</a>
</g>
</g>
<!-- Node13 -->
<g id="Node000013" class="node">
<title>Node13</title>
<g id="a_Node000013"><a xlink:title=" ">
<polygon fill="#e0e0e0" stroke="#999999" points="540.62,-19.25 501.38,-19.25 501.38,0 540.62,0 540.62,-19.25"/>
<text xml:space="preserve" text-anchor="middle" x="521" y="-5.75" font-family="Helvetica,sans-Serif" font-size="10.00">utility</text>
</a>
</g>
</g>
<!-- Node6&#45;&gt;Node13 -->
<g id="edge13_Node000006_Node000013" class="edge">
<title>Node6&#45;&gt;Node13</title>
<g id="a_edge13_Node000006_Node000013"><a xlink:title=" ">
<path fill="none" stroke="#63b8ff" d="M573.31,-54.84C564.3,-47.22 551.17,-36.12 540.32,-26.95"/>
<polygon fill="#63b8ff" stroke="#63b8ff" points="542.58,-24.28 532.69,-20.5 538.06,-29.63 542.58,-24.28"/>
</a>
</g>
</g>
<!-- Node14 -->
<g id="Node000014" class="node">
<title>Node14</title>
<g id="a_Node000014"><a xlink:title=" ">
<polygon fill="#e0e0e0" stroke="#999999" points="321.62,-19.25 276.38,-19.25 276.38,0 321.62,0 321.62,-19.25"/>
<text xml:space="preserve" text-anchor="middle" x="299" y="-5.75" font-family="Helvetica,sans-Serif" font-size="10.00">variant</text>
</a>
</g>
</g>
<!-- Node6&#45;&gt;Node14 -->
<g id="edge14_Node000006_Node000014" class="edge">
<title>Node6&#45;&gt;Node14</title>
<g id="a_edge14_Node000006_Node000014"><a xlink:title=" ">
<path fill="none" stroke="#63b8ff" d="M553.02,-57.05C549.98,-56.42 546.93,-55.81 544,-55.25 453.22,-37.8 426.74,-39.6 333.14,-19.53"/>
<polygon fill="#63b8ff" stroke="#63b8ff" points="334,-16.14 323.49,-17.43 332.51,-22.98 334,-16.14"/>
</a>
</g>
</g>
<!-- Node15 -->
<g id="Node000015" class="node">
<title>Node15</title>
<g id="a_Node000015"><a xlink:title=" ">
<polygon fill="#e0e0e0" stroke="#999999" points="382.5,-19.25 339.5,-19.25 339.5,0 382.5,0 382.5,-19.25"/>
<text xml:space="preserve" text-anchor="middle" x="361" y="-5.75" font-family="Helvetica,sans-Serif" font-size="10.00">vector</text>
</a>
</g>
</g>
<!-- Node6&#45;&gt;Node15 -->
<g id="edge15_Node000006_Node000015" class="edge">
<title>Node6&#45;&gt;Node15</title>
<g id="a_edge15_Node000006_Node000015"><a xlink:title=" ">
<path fill="none" stroke="#63b8ff" d="M553.31,-57.17C517.4,-49.23 455.9,-35.35 393.77,-19.62"/>
<polygon fill="#63b8ff" stroke="#63b8ff" points="395.01,-16.32 384.45,-17.24 393.28,-23.1 395.01,-16.32"/>
</a>
</g>
</g>
<!-- Node16&#45;&gt;Node2 -->
<g id="edge20_Node000016_Node000002" class="edge">
<title>Node16&#45;&gt;Node2</title>
<g id="a_edge20_Node000016_Node000002"><a xlink:title=" ">
<path fill="none" stroke="#63b8ff" d="M269.51,-111.76C272.38,-111.3 275.23,-110.88 278,-110.5 445.63,-87.52 489.72,-99.96 657,-74.5 658.01,-74.35 659.03,-74.18 660.05,-74.01"/>
<polygon fill="#63b8ff" stroke="#63b8ff" points="660.48,-77.49 669.68,-72.24 659.22,-70.61 660.48,-77.49"/>
</a>
</g>
</g>
<!-- Node16&#45;&gt;Node3 -->
<g id="edge21_Node000016_Node000003" class="edge">
<title>Node16&#45;&gt;Node3</title>
<g id="a_edge21_Node000016_Node000003"><a xlink:title=" ">
<path fill="none" stroke="#63b8ff" d="M269.5,-111.71C272.37,-111.27 275.23,-110.86 278,-110.5 479.63,-84.49 532,-97.47 734,-74.5 740.74,-73.73 747.9,-72.78 754.8,-71.79"/>
<polygon fill="#63b8ff" stroke="#63b8ff" points="755.19,-75.27 764.57,-70.34 754.16,-68.35 755.19,-75.27"/>
</a>
</g>
</g>
<!-- Node16&#45;&gt;Node4 -->
<g id="edge22_Node000016_Node000004" class="edge">
<title>Node16&#45;&gt;Node4</title>
<g id="a_edge22_Node000016_Node000004"><a xlink:title=" ">
<path fill="none" stroke="#63b8ff" d="M209.56,-110.16C189.98,-101.45 159.69,-87.64 134,-74.5 102.97,-58.62 68.11,-38.79 45.21,-25.47"/>
<polygon fill="#63b8ff" stroke="#63b8ff" points="47,-22.46 36.6,-20.44 43.46,-28.51 47,-22.46"/>
</a>
</g>
</g>
<!-- Node16&#45;&gt;Node6 -->
<g id="edge28_Node000016_Node000006" class="edge">
<title>Node16&#45;&gt;Node6</title>
<g id="a_edge28_Node000016_Node000006"><a xlink:title=" ">
<path fill="none" stroke="#63b8ff" d="M269.53,-111.88C272.39,-111.4 275.24,-110.93 278,-110.5 392.28,-92.51 424.55,-94.92 541.8,-74.76"/>
<polygon fill="#63b8ff" stroke="#63b8ff" points="542.3,-78.22 551.55,-73.06 541.09,-71.33 542.3,-78.22"/>
</a>
</g>
</g>
<!-- Node16&#45;&gt;Node8 -->
<g id="edge19_Node000016_Node000008" class="edge">
<title>Node16&#45;&gt;Node8</title>
<g id="a_edge19_Node000016_Node000008"><a xlink:title=" ">
<path fill="none" stroke="#63b8ff" d="M269.52,-111.79C272.38,-111.33 275.23,-110.89 278,-110.5 431.08,-88.81 475.68,-118.16 624,-74.5 642.16,-69.15 644.6,-62.7 662,-55.25 692.66,-42.12 728.61,-29.67 754.25,-21.27"/>
<polygon fill="#63b8ff" stroke="#63b8ff" points="755.02,-24.7 763.46,-18.28 752.87,-18.04 755.02,-24.7"/>
</a>
</g>
</g>
<!-- Node16&#45;&gt;Node12 -->
<g id="edge24_Node000016_Node000012" class="edge">
<title>Node16&#45;&gt;Node12</title>
<g id="a_edge24_Node000016_Node000012"><a xlink:title=" ">
<path fill="none" stroke="#63b8ff" d="M257.14,-110.11C280.45,-101.96 314.67,-89.05 343,-74.5 370.89,-60.17 400.87,-40.1 420.44,-26.3"/>
<polygon fill="#63b8ff" stroke="#63b8ff" points="422.33,-29.26 428.43,-20.6 418.26,-23.56 422.33,-29.26"/>
</a>
</g>
</g>
<!-- Node16&#45;&gt;Node14 -->
<g id="edge26_Node000016_Node000014" class="edge">
<title>Node16&#45;&gt;Node14</title>
<g id="a_edge26_Node000016_Node000014"><a xlink:title=" ">
<path fill="none" stroke="#63b8ff" d="M258.04,-110.15C274.6,-103.24 294.19,-91.87 304,-74.5 311.54,-61.15 309.51,-43.66 306.03,-30.36"/>
<polygon fill="#63b8ff" stroke="#63b8ff" points="309.43,-29.51 303.11,-21.01 302.75,-31.6 309.43,-29.51"/>
</a>
</g>
</g>
<!-- Node16&#45;&gt;Node15 -->
<g id="edge27_Node000016_Node000015" class="edge">
<title>Node16&#45;&gt;Node15</title>
<g id="a_edge27_Node000016_Node000015"><a xlink:title=" ">
<path fill="none" stroke="#63b8ff" d="M257.85,-110.1C277.2,-102.79 302.7,-90.99 321,-74.5 334.82,-62.04 345.63,-43.72 352.51,-29.89"/>
<polygon fill="#63b8ff" stroke="#63b8ff" points="355.63,-31.47 356.7,-20.93 349.29,-28.5 355.63,-31.47"/>
</a>
</g>
</g>
<!-- Node17 -->
<g id="Node000017" class="node">
<title>Node17</title>
<g id="a_Node000017"><a xlink:title=" ">
<polygon fill="#e0e0e0" stroke="#999999" points="198.88,-74.5 143.12,-74.5 143.12,-55.25 198.88,-55.25 198.88,-74.5"/>
<text xml:space="preserve" text-anchor="middle" x="171" y="-61" font-family="Helvetica,sans-Serif" font-size="10.00">algorithm</text>
</a>
</g>
</g>
<!-- Node16&#45;&gt;Node17 -->
<g id="edge17_Node000016_Node000017" class="edge">
<title>Node16&#45;&gt;Node17</title>
<g id="a_edge17_Node000016_Node000017"><a xlink:title=" ">
<path fill="none" stroke="#63b8ff" d="M219.99,-110.09C211.63,-102.55 199.5,-91.6 189.4,-82.48"/>
<polygon fill="#63b8ff" stroke="#63b8ff" points="191.75,-79.89 181.98,-75.79 187.06,-85.09 191.75,-79.89"/>
</a>
</g>
</g>
<!-- Node18 -->
<g id="Node000018" class="node">
<title>Node18</title>
<g id="a_Node000018"><a xlink:title=" ">
<polygon fill="#e0e0e0" stroke="#999999" points="458.88,-74.5 427.12,-74.5 427.12,-55.25 458.88,-55.25 458.88,-74.5"/>
<text xml:space="preserve" text-anchor="middle" x="443" y="-61" font-family="Helvetica,sans-Serif" font-size="10.00">any</text>
</a>
</g>
</g>
<!-- Node16&#45;&gt;Node18 -->
<g id="edge18_Node000016_Node000018" class="edge">
<title>Node16&#45;&gt;Node18</title>
<g id="a_edge18_Node000016_Node000018"><a xlink:title=" ">
<path fill="none" stroke="#63b8ff" d="M269.39,-110.01C306.52,-101.3 363.69,-87.59 413,-74.5 413.99,-74.24 414.99,-73.97 416,-73.69"/>
<polygon fill="#63b8ff" stroke="#63b8ff" points="416.7,-77.13 425.38,-71.06 414.81,-70.39 416.7,-77.13"/>
</a>
</g>
</g>
<!-- Node19 -->
<g id="Node000019" class="node">
<title>Node19</title>
<g id="a_Node000019"><a xlink:title=" ">
<polygon fill="#e0e0e0" stroke="#999999" points="535,-74.5 477,-74.5 477,-55.25 535,-55.25 535,-74.5"/>
<text xml:space="preserve" text-anchor="middle" x="506" y="-61" font-family="Helvetica,sans-Serif" font-size="10.00">typeindex</text>
</a>
</g>
</g>
<!-- Node16&#45;&gt;Node19 -->
<g id="edge23_Node000016_Node000019" class="edge">
<title>Node16&#45;&gt;Node19</title>
<g id="a_edge23_Node000016_Node000019"><a xlink:title=" ">
<path fill="none" stroke="#63b8ff" d="M269.25,-111.95C322.37,-102.22 415.46,-85.04 465.42,-74.95"/>
<polygon fill="#63b8ff" stroke="#63b8ff" points="465.99,-78.41 475.08,-72.98 464.58,-71.55 465.99,-78.41"/>
</a>
</g>
</g>
<!-- Node20 -->
<g id="Node000020" class="node">
<title>Node20</title>
<g id="a_Node000020"><a xlink:title=" ">
<polygon fill="#e0e0e0" stroke="#999999" points="294.75,-74.5 217.25,-74.5 217.25,-55.25 294.75,-55.25 294.75,-74.5"/>
<text xml:space="preserve" text-anchor="middle" x="256" y="-61" font-family="Helvetica,sans-Serif" font-size="10.00">unordered_set</text>
</a>
</g>
</g>
<!-- Node16&#45;&gt;Node20 -->
<g id="edge25_Node000016_Node000020" class="edge">
<title>Node16&#45;&gt;Node20</title>
<g id="a_edge25_Node000016_Node000020"><a xlink:title=" ">
<path fill="none" stroke="#63b8ff" d="M234.29,-110.33C237.62,-103.51 242.36,-93.81 246.56,-85.2"/>
<polygon fill="#63b8ff" stroke="#63b8ff" points="249.71,-86.74 250.95,-76.22 243.42,-83.67 249.71,-86.74"/>
</a>
</g>
</g>
<!-- Node21&#45;&gt;Node2 -->
<g id="edge34_Node000021_Node000002" class="edge">
<title>Node21&#45;&gt;Node2</title>
<g id="a_edge34_Node000021_Node000002"><a xlink:title=" ">
<path fill="none" stroke="#63b8ff" d="M522.96,-165.31C555.96,-146.56 631.99,-103.37 672.11,-80.58"/>
<polygon fill="#63b8ff" stroke="#63b8ff" points="673.67,-83.72 680.64,-75.74 670.22,-77.63 673.67,-83.72"/>
</a>
</g>
</g>
<!-- Node21&#45;&gt;Node3 -->
<g id="edge35_Node000021_Node000003" class="edge">
<title>Node21&#45;&gt;Node3</title>
<g id="a_edge35_Node000021_Node000003"><a xlink:title=" ">
<path fill="none" stroke="#63b8ff" d="M546.89,-169.29C586.28,-163.29 647.62,-151.29 697,-129.75 725.26,-117.42 754.15,-96.58 772.53,-82.07"/>
<polygon fill="#63b8ff" stroke="#63b8ff" points="774.6,-84.9 780.19,-75.9 770.21,-79.45 774.6,-84.9"/>
</a>
</g>
</g>
<!-- Node21&#45;&gt;Node4 -->
<g id="edge38_Node000021_Node000004" class="edge">
<title>Node21&#45;&gt;Node4</title>
<g id="a_edge38_Node000021_Node000004"><a xlink:title=" ">
<path fill="none" stroke="#63b8ff" d="M467.17,-173.26C381.9,-170.32 184.7,-160.32 126,-129.75 81.54,-106.6 46.95,-56.61 30.5,-29.32"/>
<polygon fill="#63b8ff" stroke="#63b8ff" points="33.58,-27.65 25.52,-20.78 27.53,-31.18 33.58,-27.65"/>
</a>
</g>
</g>
<!-- Node21&#45;&gt;Node6 -->
<g id="edge44_Node000021_Node000006" class="edge">
<title>Node21&#45;&gt;Node6</title>
<g id="a_edge44_Node000021_Node000006"><a xlink:title=" ">
<path fill="none" stroke="#63b8ff" d="M514.47,-165.32C521.71,-156.42 532.92,-142.38 542,-129.75 552.77,-114.77 564.24,-97.21 572.46,-84.3"/>
<polygon fill="#63b8ff" stroke="#63b8ff" points="575.33,-86.31 577.71,-75.99 569.41,-82.57 575.33,-86.31"/>
</a>
</g>
</g>
<!-- Node21&#45;&gt;Node8 -->
<g id="edge33_Node000021_Node000008" class="edge">
<title>Node21&#45;&gt;Node8</title>
<g id="a_edge33_Node000021_Node000008"><a xlink:title=" ">
<path fill="none" stroke="#63b8ff" d="M546.73,-170.11C591.77,-164.43 666.87,-152.35 728,-129.75 775.26,-112.28 801.49,-117.95 827,-74.5 836.59,-58.17 822.62,-39.73 808.8,-26.88"/>
<polygon fill="#63b8ff" stroke="#63b8ff" points="811.44,-24.53 801.58,-20.65 806.87,-29.83 811.44,-24.53"/>
</a>
</g>
</g>
<!-- Node21&#45;&gt;Node11 -->
<g id="edge39_Node000021_Node000011" class="edge">
<title>Node21&#45;&gt;Node11</title>
<g id="a_edge39_Node000021_Node000011"><a xlink:title=" ">
<path fill="none" stroke="#63b8ff" d="M546.95,-170.08C610.71,-162.81 732.33,-147.18 772,-129.75 808.61,-113.66 816.2,-104.18 843,-74.5 855.33,-60.84 866.19,-42.92 873.46,-29.53"/>
<polygon fill="#63b8ff" stroke="#63b8ff" points="876.45,-31.37 877.99,-20.89 870.25,-28.13 876.45,-31.37"/>
</a>
</g>
</g>
<!-- Node21&#45;&gt;Node14 -->
<g id="edge41_Node000021_Node000014" class="edge">
<title>Node21&#45;&gt;Node14</title>
<g id="a_edge41_Node000021_Node000014"><a xlink:title=" ">
<path fill="none" stroke="#63b8ff" d="M467.13,-174.22C384.92,-173.15 200.17,-166.58 151,-129.75 123.16,-108.9 105.71,-82.76 127,-55.25 143.72,-33.64 219.68,-20.57 264.87,-14.56"/>
<polygon fill="#63b8ff" stroke="#63b8ff" points="265.21,-18.05 274.69,-13.32 264.32,-11.11 265.21,-18.05"/>
</a>
</g>
</g>
<!-- Node21&#45;&gt;Node15 -->
<g id="edge42_Node000021_Node000015" class="edge">
<title>Node21&#45;&gt;Node15</title>
<g id="a_edge42_Node000021_Node000015"><a xlink:title=" ">
<path fill="none" stroke="#63b8ff" d="M467.01,-172.38C391.34,-168.05 230.46,-155.97 182,-129.75 153.39,-114.27 145.39,-104.97 134,-74.5 131,-66.49 128.52,-61.82 134,-55.25 160.61,-23.34 271.47,-28.49 327.94,-19.37"/>
<polygon fill="#63b8ff" stroke="#63b8ff" points="328.48,-22.83 337.63,-17.48 327.14,-15.96 328.48,-22.83"/>
</a>
</g>
</g>
<!-- Node21&#45;&gt;Node16 -->
<g id="edge43_Node000021_Node000016" class="edge">
<title>Node21&#45;&gt;Node16</title>
<g id="a_edge43_Node000021_Node000016"><a xlink:title=" ">
<path fill="none" stroke="#63b8ff" d="M467.02,-166.69C417.88,-157.24 334.46,-141.21 280.82,-130.89"/>
<polygon fill="#63b8ff" stroke="#63b8ff" points="281.49,-127.46 271.01,-129.01 280.17,-134.33 281.49,-127.46"/>
</a>
</g>
</g>
<!-- Node21&#45;&gt;Node18 -->
<g id="edge30_Node000021_Node000018" class="edge">
<title>Node21&#45;&gt;Node18</title>
<g id="a_edge30_Node000021_Node000018"><a xlink:title=" ">
<path fill="none" stroke="#63b8ff" d="M467.13,-171.8C438.28,-167.6 401.12,-156.87 382,-129.75 368.12,-110.06 394.25,-90.48 416.52,-78.29"/>
<polygon fill="#63b8ff" stroke="#63b8ff" points="417.99,-81.47 425.28,-73.78 414.79,-75.24 417.99,-81.47"/>
</a>
</g>
</g>
<!-- Node21&#45;&gt;Node19 -->
<g id="edge40_Node000021_Node000019" class="edge">
<title>Node21&#45;&gt;Node19</title>
<g id="a_edge40_Node000021_Node000019"><a xlink:title=" ">
<path fill="none" stroke="#63b8ff" d="M512.95,-165.41C520.34,-153.17 531.46,-130.46 527,-110.5 525.02,-101.63 521.07,-92.44 517.12,-84.73"/>
<polygon fill="#63b8ff" stroke="#63b8ff" points="520.21,-83.07 512.31,-76.01 514.08,-86.45 520.21,-83.07"/>
</a>
</g>
</g>
<!-- Node22 -->
<g id="Node000022" class="node">
<title>Node22</title>
<g id="a_Node000022"><a xlink:title=" ">
<polygon fill="#e0e0e0" stroke="#999999" points="687.88,-129.75 650.12,-129.75 650.12,-110.5 687.88,-110.5 687.88,-129.75"/>
<text xml:space="preserve" text-anchor="middle" x="669" y="-116.25" font-family="Helvetica,sans-Serif" font-size="10.00">array</text>
</a>
</g>
</g>
<!-- Node21&#45;&gt;Node22 -->
<g id="edge31_Node000021_Node000022" class="edge">
<title>Node21&#45;&gt;Node22</title>
<g id="a_edge31_Node000021_Node000022"><a xlink:title=" ">
<path fill="none" stroke="#63b8ff" d="M534.48,-165.34C563.62,-155.76 609.48,-140.69 639.4,-130.86"/>
<polygon fill="#63b8ff" stroke="#63b8ff" points="640.17,-134.29 648.58,-127.84 637.98,-127.64 640.17,-134.29"/>
</a>
</g>
</g>
<!-- Node23 -->
<g id="Node000023" class="node">
<title>Node23</title>
<g id="a_Node000023"><a xlink:title=" ">
<polygon fill="#e0e0e0" stroke="#999999" points="335.12,-129.75 286.88,-129.75 286.88,-110.5 335.12,-110.5 335.12,-129.75"/>
<text xml:space="preserve" text-anchor="middle" x="311" y="-116.25" font-family="Helvetica,sans-Serif" font-size="10.00">cassert</text>
</a>
</g>
</g>
<!-- Node21&#45;&gt;Node23 -->
<g id="edge32_Node000021_Node000023" class="edge">
<title>Node21&#45;&gt;Node23</title>
<g id="a_edge32_Node000021_Node000023"><a xlink:title=" ">
<path fill="none" stroke="#63b8ff" d="M473.75,-165.34C438.37,-155.73 382.61,-140.58 346.42,-130.75"/>
<polygon fill="#63b8ff" stroke="#63b8ff" points="347.44,-127.4 336.87,-128.15 345.6,-134.15 347.44,-127.4"/>
</a>
</g>
</g>
<!-- Node24 -->
<g id="Node000024" class="node">
<title>Node24</title>
<g id="a_Node000024"><a xlink:title=" ">
<polygon fill="#e0e0e0" stroke="#999999" points="441.25,-129.75 390.75,-129.75 390.75,-110.5 441.25,-110.5 441.25,-129.75"/>
<text xml:space="preserve" text-anchor="middle" x="416" y="-116.25" font-family="Helvetica,sans-Serif" font-size="10.00">numeric</text>
</a>
</g>
</g>
<!-- Node21&#45;&gt;Node24 -->
<g id="edge36_Node000021_Node000024" class="edge">
<title>Node21&#45;&gt;Node24</title>
<g id="a_edge36_Node000021_Node000024"><a xlink:title=" ">
<path fill="none" stroke="#63b8ff" d="M491.56,-165.34C477.84,-157.31 457.5,-145.41 441.38,-135.98"/>
<polygon fill="#63b8ff" stroke="#63b8ff" points="443.22,-133 432.82,-130.97 439.68,-139.04 443.22,-133"/>
</a>
</g>
</g>
<!-- Node25 -->
<g id="Node000025" class="node">
<title>Node25</title>
<g id="a_Node000025"><a xlink:title=" ">
<polygon fill="#e0e0e0" stroke="#999999" points="518.38,-129.75 459.62,-129.75 459.62,-110.5 518.38,-110.5 518.38,-129.75"/>
<text xml:space="preserve" text-anchor="middle" x="489" y="-116.25" font-family="Helvetica,sans-Serif" font-size="10.00">stdexcept</text>
</a>
</g>
</g>
<!-- Node21&#45;&gt;Node25 -->
<g id="edge37_Node000021_Node000025" class="edge">
<title>Node21&#45;&gt;Node25</title>
<g id="a_edge37_Node000021_Node000025"><a xlink:title=" ">
<path fill="none" stroke="#63b8ff" d="M504.03,-165.58C501.75,-158.84 498.51,-149.27 495.63,-140.74"/>
<polygon fill="#63b8ff" stroke="#63b8ff" points="499.04,-139.9 492.52,-131.54 492.41,-142.14 499.04,-139.9"/>
</a>
</g>
</g>
</g>
</svg>
