<?xml version="1.0" encoding="UTF-8" standalone="no"?>
<!DOCTYPE svg PUBLIC "-//W3C//DTD SVG 1.1//EN"
 "http://www.w3.org/Graphics/SVG/1.1/DTD/svg11.dtd">
<!-- Generated by graphviz version 14.1.2 (20260124.0452)
 -->
<!-- Title: src/io/hdf5/HDF5RecordingData.hpp Pages: 1 -->
<svg width="735pt" height="204pt"
 viewBox="0.00 0.00 735.00 204.00" xmlns="http://www.w3.org/2000/svg" xmlns:xlink="http://www.w3.org/1999/xlink">
<g id="graph0" class="graph" transform="scale(1 1) rotate(0) translate(4 200.25)">
<title>src/io/hdf5/HDF5RecordingData.hpp</title>
<!-- Node1 -->
<g id="Node000001" class="node">
<title>Node1</title>
<g id="a_Node000001"><a xlink:title=" ">
<polygon fill="#999999" stroke="#666666" points="369.5,-196.25 234.25,-196.25 234.25,-165.75 369.5,-165.75 369.5,-196.25"/>
<text xml:space="preserve" text-anchor="start" x="242.25" y="-182.75" font-family="Helvetica,sans-Serif" font-size="10.00">src/io/hdf5/HDF5Recording</text>
<text xml:space="preserve" text-anchor="middle" x="301.88" y="-171.5" font-family="Helvetica,sans-Serif" font-size="10.00">Data.hpp</text>
</a>
</g>
</g>
<!-- Node2 -->
<g id="Node000002" class="node">
<title>Node2</title>
<g id="a_Node000002"><a xlink:href="_base_i_o_8hpp.html" target="_top" xlink:title=" ">
<polygon fill="white" stroke="#666666" points="341,-129.75 262.75,-129.75 262.75,-110.5 341,-110.5 341,-129.75"/>
<text xml:space="preserve" text-anchor="middle" x="301.88" y="-116.25" font-family="Helvetica,sans-Serif" font-size="10.00">io/BaseIO.hpp</text>
</a>
</g>
</g>
<!-- Node1&#45;&gt;Node2 -->
<g id="edge1_Node000001_Node000002" class="edge">
<title>Node1&#45;&gt;Node2</title>
<g id="a_edge1_Node000001_Node000002"><a xlink:title=" ">
<path fill="none" stroke="#63b8ff" d="M301.88,-165.45C301.88,-158.21 301.88,-149.34 301.88,-141.44"/>
<polygon fill="#63b8ff" stroke="#63b8ff" points="305.38,-141.71 301.88,-131.71 298.38,-141.71 305.38,-141.71"/>
</a>
</g>
</g>
<!-- Node3 -->
<g id="Node000003" class="node">
<title>Node3</title>
<g id="a_Node000003"><a xlink:title=" ">
<polygon fill="#e0e0e0" stroke="#999999" points="31.75,-74.5 0,-74.5 0,-55.25 31.75,-55.25 31.75,-74.5"/>
<text xml:space="preserve" text-anchor="middle" x="15.88" y="-61" font-family="Helvetica,sans-Serif" font-size="10.00">any</text>
</a>
</g>
</g>
<!-- Node2&#45;&gt;Node3 -->
<g id="edge2_Node000002_Node000003" class="edge">
<title>Node2&#45;&gt;Node3</title>
<g id="a_edge2_Node000002_Node000003"><a xlink:title=" ">
<path fill="none" stroke="#63b8ff" d="M262.54,-114.43C213.3,-108.12 126.25,-95.5 43.31,-74.76"/>
<polygon fill="#63b8ff" stroke="#63b8ff" points="44.19,-71.38 33.63,-72.3 42.46,-78.16 44.19,-71.38"/>
</a>
</g>
</g>
<!-- Node4 -->
<g id="Node000004" class="node">
<title>Node4</title>
<g id="a_Node000004"><a xlink:title=" ">
<polygon fill="#e0e0e0" stroke="#999999" points="95.5,-74.5 50.25,-74.5 50.25,-55.25 95.5,-55.25 95.5,-74.5"/>
<text xml:space="preserve" text-anchor="middle" x="72.88" y="-61" font-family="Helvetica,sans-Serif" font-size="10.00">cstdint</text>
</a>
</g>
</g>
<!-- Node2&#45;&gt;Node4 -->
<g id="edge3_Node000002_Node000004" class="edge">
<title>Node2&#45;&gt;Node4</title>
<g id="a_edge3_Node000002_Node000004"><a xlink:title=" ">
<path fill="none" stroke="#63b8ff" d="M262.29,-110.81C224.57,-102.75 165.93,-89.88 106.89,-75.17"/>
<polygon fill="#63b8ff" stroke="#63b8ff" points="107.88,-71.82 97.33,-72.78 106.18,-78.61 107.88,-71.82"/>
</a>
</g>
</g>
<!-- Node5 -->
<g id="Node000005" class="node">
<title>Node5</title>
<g id="a_Node000005"><a xlink:title=" ">
<polygon fill="#e0e0e0" stroke="#999999" points="166.62,-74.5 113.12,-74.5 113.12,-55.25 166.62,-55.25 166.62,-74.5"/>
<text xml:space="preserve" text-anchor="middle" x="139.88" y="-61" font-family="Helvetica,sans-Serif" font-size="10.00">iostream</text>
</a>
</g>
</g>
<!-- Node2&#45;&gt;Node5 -->
<g id="edge4_Node000002_Node000005" class="edge">
<title>Node2&#45;&gt;Node5</title>
<g id="a_edge4_Node000002_Node000005"><a xlink:title=" ">
<path fill="none" stroke="#63b8ff" d="M274.39,-110.09C247.82,-101.36 207.33,-88.05 177.72,-78.31"/>
<polygon fill="#63b8ff" stroke="#63b8ff" points="178.98,-75.05 168.39,-75.25 176.8,-81.7 178.98,-75.05"/>
</a>
</g>
</g>
<!-- Node6 -->
<g id="Node000006" class="node">
<title>Node6</title>
<g id="a_Node000006"><a xlink:title=" ">
<polygon fill="#e0e0e0" stroke="#999999" points="235.5,-74.5 184.25,-74.5 184.25,-55.25 235.5,-55.25 235.5,-74.5"/>
<text xml:space="preserve" text-anchor="middle" x="209.88" y="-61" font-family="Helvetica,sans-Serif" font-size="10.00">memory</text>
</a>
</g>
</g>
<!-- Node2&#45;&gt;Node6 -->
<g id="edge5_Node000002_Node000006" class="edge">
<title>Node2&#45;&gt;Node6</title>
<g id="a_edge5_Node000002_Node000006"><a xlink:title=" ">
<path fill="none" stroke="#63b8ff" d="M286.27,-110.09C272.26,-101.98 251.44,-89.93 235.07,-80.46"/>
<polygon fill="#63b8ff" stroke="#63b8ff" points="237.28,-77.69 226.87,-75.71 233.77,-83.75 237.28,-77.69"/>
</a>
</g>
</g>
<!-- Node7 -->
<g id="Node000007" class="node">
<title>Node7</title>
<g id="a_Node000007"><a xlink:title=" ">
<polygon fill="#e0e0e0" stroke="#999999" points="272.88,-19.25 232.88,-19.25 232.88,0 272.88,0 272.88,-19.25"/>
<text xml:space="preserve" text-anchor="middle" x="252.88" y="-5.75" font-family="Helvetica,sans-Serif" font-size="10.00">string</text>
</a>
</g>
</g>
<!-- Node2&#45;&gt;Node7 -->
<g id="edge6_Node000002_Node000007" class="edge">
<title>Node2&#45;&gt;Node7</title>
<g id="a_edge6_Node000002_Node000007"><a xlink:title=" ">
<path fill="none" stroke="#63b8ff" d="M297.87,-110.25C289.97,-92.76 272.25,-53.52 261.55,-29.84"/>
<polygon fill="#63b8ff" stroke="#63b8ff" points="264.87,-28.68 257.56,-21.01 258.49,-31.56 264.87,-28.68"/>
</a>
</g>
</g>
<!-- Node8 -->
<g id="Node000008" class="node">
<title>Node8</title>
<g id="a_Node000008"><a xlink:title=" ">
<polygon fill="#e0e0e0" stroke="#999999" points="467.88,-74.5 409.88,-74.5 409.88,-55.25 467.88,-55.25 467.88,-74.5"/>
<text xml:space="preserve" text-anchor="middle" x="438.88" y="-61" font-family="Helvetica,sans-Serif" font-size="10.00">typeindex</text>
</a>
</g>
</g>
<!-- Node2&#45;&gt;Node8 -->
<g id="edge7_Node000002_Node000008" class="edge">
<title>Node2&#45;&gt;Node8</title>
<g id="a_edge7_Node000002_Node000008"><a xlink:title=" ">
<path fill="none" stroke="#63b8ff" d="M325.12,-110.09C347.06,-101.56 380.22,-88.67 405.09,-79.01"/>
<polygon fill="#63b8ff" stroke="#63b8ff" points="406.06,-82.39 414.11,-75.5 403.52,-75.86 406.06,-82.39"/>
</a>
</g>
</g>
<!-- Node9 -->
<g id="Node000009" class="node">
<title>Node9</title>
<g id="a_Node000009"><a xlink:title=" ">
<polygon fill="#e0e0e0" stroke="#999999" points="568.25,-74.5 485.5,-74.5 485.5,-55.25 568.25,-55.25 568.25,-74.5"/>
<text xml:space="preserve" text-anchor="middle" x="526.88" y="-61" font-family="Helvetica,sans-Serif" font-size="10.00">unordered_map</text>
</a>
</g>
</g>
<!-- Node2&#45;&gt;Node9 -->
<g id="edge8_Node000002_Node000009" class="edge">
<title>Node2&#45;&gt;Node9</title>
<g id="a_edge8_Node000002_Node000009"><a xlink:title=" ">
<path fill="none" stroke="#63b8ff" d="M340.3,-110.03C378.16,-101.07 436.17,-87.34 477.44,-77.57"/>
<polygon fill="#63b8ff" stroke="#63b8ff" points="478.21,-80.99 487.14,-75.28 476.6,-74.18 478.21,-80.99"/>
</a>
</g>
</g>
<!-- Node10 -->
<g id="Node000010" class="node">
<title>Node10</title>
<g id="a_Node000010"><a xlink:title=" ">
<polygon fill="#e0e0e0" stroke="#999999" points="663.62,-74.5 586.12,-74.5 586.12,-55.25 663.62,-55.25 663.62,-74.5"/>
<text xml:space="preserve" text-anchor="middle" x="624.88" y="-61" font-family="Helvetica,sans-Serif" font-size="10.00">unordered_set</text>
</a>
</g>
</g>
<!-- Node2&#45;&gt;Node10 -->
<g id="edge9_Node000002_Node000010" class="edge">
<title>Node2&#45;&gt;Node10</title>
<g id="a_edge9_Node000002_Node000010"><a xlink:title=" ">
<path fill="none" stroke="#63b8ff" d="M341.07,-112.98C392.31,-104.9 485.15,-90.09 574.67,-74.85"/>
<polygon fill="#63b8ff" stroke="#63b8ff" points="575.09,-78.33 584.36,-73.2 573.91,-71.43 575.09,-78.33"/>
</a>
</g>
</g>
<!-- Node11 -->
<g id="Node000011" class="node">
<title>Node11</title>
<g id="a_Node000011"><a xlink:title=" ">
<polygon fill="#e0e0e0" stroke="#999999" points="726.5,-74.5 681.25,-74.5 681.25,-55.25 726.5,-55.25 726.5,-74.5"/>
<text xml:space="preserve" text-anchor="middle" x="703.88" y="-61" font-family="Helvetica,sans-Serif" font-size="10.00">variant</text>
</a>
</g>
</g>
<!-- Node2&#45;&gt;Node11 -->
<g id="edge10_Node000002_Node000011" class="edge">
<title>Node2&#45;&gt;Node11</title>
<g id="a_edge10_Node000002_Node000011"><a xlink:title=" ">
<path fill="none" stroke="#63b8ff" d="M341.45,-116.35C407.62,-111.27 545.04,-98.92 669.7,-74.88"/>
<polygon fill="#63b8ff" stroke="#63b8ff" points="670.32,-78.32 679.46,-72.96 668.97,-71.46 670.32,-78.32"/>
</a>
</g>
</g>
<!-- Node12 -->
<g id="Node000012" class="node">
<title>Node12</title>
<g id="a_Node000012"><a xlink:title=" ">
<polygon fill="#e0e0e0" stroke="#999999" points="334.38,-19.25 291.38,-19.25 291.38,0 334.38,0 334.38,-19.25"/>
<text xml:space="preserve" text-anchor="middle" x="312.88" y="-5.75" font-family="Helvetica,sans-Serif" font-size="10.00">vector</text>
</a>
</g>
</g>
<!-- Node2&#45;&gt;Node12 -->
<g id="edge11_Node000002_Node000012" class="edge">
<title>Node2&#45;&gt;Node12</title>
<g id="a_edge11_Node000002_Node000012"><a xlink:title=" ">
<path fill="none" stroke="#63b8ff" d="M302.78,-110.25C304.52,-93 308.42,-54.58 310.83,-30.81"/>
<polygon fill="#63b8ff" stroke="#63b8ff" points="314.28,-31.43 311.81,-21.13 307.32,-30.73 314.28,-31.43"/>
</a>
</g>
</g>
<!-- Node13 -->
<g id="Node000013" class="node">
<title>Node13</title>
<g id="a_Node000013"><a xlink:href="_types_8hpp.html" target="_top" xlink:title=" ">
<polygon fill="white" stroke="#666666" points="391.38,-74.5 330.38,-74.5 330.38,-55.25 391.38,-55.25 391.38,-74.5"/>
<text xml:space="preserve" text-anchor="middle" x="360.88" y="-61" font-family="Helvetica,sans-Serif" font-size="10.00">Types.hpp</text>
</a>
</g>
</g>
<!-- Node2&#45;&gt;Node13 -->
<g id="edge12_Node000002_Node000013" class="edge">
<title>Node2&#45;&gt;Node13</title>
<g id="a_edge12_Node000002_Node000013"><a xlink:title=" ">
<path fill="none" stroke="#63b8ff" d="M311.88,-110.09C320.24,-102.55 332.37,-91.6 342.48,-82.48"/>
<polygon fill="#63b8ff" stroke="#63b8ff" points="344.81,-85.09 349.89,-75.79 340.12,-79.89 344.81,-85.09"/>
</a>
</g>
</g>
<!-- Node13&#45;&gt;Node7 -->
<g id="edge15_Node000013_Node000007" class="edge">
<title>Node13&#45;&gt;Node7</title>
<g id="a_edge15_Node000013_Node000007"><a xlink:title=" ">
<path fill="none" stroke="#63b8ff" d="M342.55,-54.84C325.8,-46.58 300.74,-34.23 281.37,-24.68"/>
<polygon fill="#63b8ff" stroke="#63b8ff" points="283.16,-21.65 272.64,-20.37 280.06,-27.93 283.16,-21.65"/>
</a>
</g>
</g>
<!-- Node13&#45;&gt;Node12 -->
<g id="edge16_Node000013_Node000012" class="edge">
<title>Node13&#45;&gt;Node12</title>
<g id="a_edge16_Node000013_Node000012"><a xlink:title=" ">
<path fill="none" stroke="#63b8ff" d="M352.95,-55.08C346.32,-47.73 336.66,-37.01 328.49,-27.94"/>
<polygon fill="#63b8ff" stroke="#63b8ff" points="331.28,-25.82 321.99,-20.73 326.08,-30.5 331.28,-25.82"/>
</a>
</g>
</g>
<!-- Node14 -->
<g id="Node000014" class="node">
<title>Node14</title>
<g id="a_Node000014"><a xlink:title=" ">
<polygon fill="#e0e0e0" stroke="#999999" points="401,-19.25 352.75,-19.25 352.75,0 401,0 401,-19.25"/>
<text xml:space="preserve" text-anchor="middle" x="376.88" y="-5.75" font-family="Helvetica,sans-Serif" font-size="10.00">cstddef</text>
</a>
</g>
</g>
<!-- Node13&#45;&gt;Node14 -->
<g id="edge13_Node000013_Node000014" class="edge">
<title>Node13&#45;&gt;Node14</title>
<g id="a_edge13_Node000013_Node000014"><a xlink:title=" ">
<path fill="none" stroke="#63b8ff" d="M363.52,-55.08C365.52,-48.42 368.35,-38.99 370.89,-30.53"/>
<polygon fill="#63b8ff" stroke="#63b8ff" points="374.21,-31.64 373.74,-21.06 367.51,-29.63 374.21,-31.64"/>
</a>
</g>
</g>
<!-- Node15 -->
<g id="Node000015" class="node">
<title>Node15</title>
<g id="a_Node000015"><a xlink:title=" ">
<polygon fill="#e0e0e0" stroke="#999999" points="458.5,-19.25 419.25,-19.25 419.25,0 458.5,0 458.5,-19.25"/>
<text xml:space="preserve" text-anchor="middle" x="438.88" y="-5.75" font-family="Helvetica,sans-Serif" font-size="10.00">limits</text>
</a>
</g>
</g>
<!-- Node13&#45;&gt;Node15 -->
<g id="edge14_Node000013_Node000015" class="edge">
<title>Node13&#45;&gt;Node15</title>
<g id="a_edge14_Node000013_Node000015"><a xlink:title=" ">
<path fill="none" stroke="#63b8ff" d="M374.11,-54.84C385.65,-46.96 402.64,-35.36 416.32,-26.02"/>
<polygon fill="#63b8ff" stroke="#63b8ff" points="418.04,-29.08 424.33,-20.56 414.1,-23.3 418.04,-29.08"/>
</a>
</g>
</g>
</g>
</svg>
