<?xml version="1.0" encoding="UTF-8" standalone="no"?>
<!DOCTYPE svg PUBLIC "-//W3C//DTD SVG 1.1//EN"
 "http://www.w3.org/Graphics/SVG/1.1/DTD/svg11.dtd">
<!-- Generated by graphviz version 14.0.5 (20251129.0259)
 -->
<!-- Title: src/io/hdf5/HDF5IO.cpp Pages: 1 -->
<!--zoomable 381 -->

<svg id="main" version="1.1" xmlns="http://www.w3.org/2000/svg" xmlns:xlink="http://www.w3.org/1999/xlink" xml:space="preserve" onload="init(evt)">

<style type="text/css"><![CDATA[
.node, .edge {opacity: 0.7;}
.node.selected, .edge.selected {opacity: 1;}
.edge:hover path { stroke: red; }
.edge:hover polygon { stroke: red; fill: red; }
]]></style>

<defs>
  <circle id="rim" cx="0" cy="0" r="7"/>
  <circle id="rim2" cx="0" cy="0" r="3.5"/>
  <g id="zoomPlus">
    <use xlink:href="#rim" fill="#404040"><set attributeName="fill" to="#808080" begin="zoomplus.mouseover" end="zoomplus.mouseout"/></use>
    <path d="M-4,0h8M0,-4v8" fill="none" stroke="white" stroke-width="1.5" pointer-events="none"/>
  </g>
  <g id="zoomMin">
    <use xlink:href="#rim" fill="#404040"><set attributeName="fill" to="#808080" begin="zoomminus.mouseover" end="zoomminus.mouseout"/></use>
    <path d="M-4,0h8" fill="none" stroke="white" stroke-width="1.5" pointer-events="none"/>
  </g>
  <g id="arrowUp" transform="translate(30 24)">
    <use xlink:href="#rim"/>
    <path pointer-events="none" fill="none" stroke="white" stroke-width="1.5" d="M0,-3.0v7 M-2.5,-0.5L0,-3.0L2.5,-0.5"/>
  </g>
  <g id="arrowRight" transform="rotate(90) translate(36 -43)">
    <use xlink:href="#rim"/>
    <path pointer-events="none" fill="none" stroke="white" stroke-width="1.5" d="M0,-3.0v7 M-2.5,-0.5L0,-3.0L2.5,-0.5"/>
  </g>
  <g id="arrowDown" transform="rotate(180) translate(-30 -48)">
    <use xlink:href="#rim"/>
    <path pointer-events="none" fill="none" stroke="white" stroke-width="1.5" d="M0,-3.0v7 M-2.5,-0.5L0,-3.0L2.5,-0.5"/>
  </g>
  <g id="arrowLeft" transform="rotate(270) translate(-36 17)">
    <use xlink:href="#rim"/>
    <path pointer-events="none" fill="none" stroke="white" stroke-width="1.5" d="M0,-3.0v7 M-2.5,-0.5L0,-3.0L2.5,-0.5"/>
  </g>
  <g id="resetDef">
    <use xlink:href="#rim2" fill="#404040"><set attributeName="fill" to="#808080" begin="reset.mouseover" end="reset.mouseout"/></use>
  </g>
</defs>
<script type="application/ecmascript">
var viewWidth = 2109;
var viewHeight = 381;
var sectionId = 'dynsection-0';
</script>
<script type="application/ecmascript" xlink:href="svg.min.js"/>
<svg id="graph" class="graph">
<g id="viewport">
<title>src/io/hdf5/HDF5IO.cpp</title>
<!-- Node1 -->
<g id="Node000001" class="node">
<title>Node1</title>
<g id="a_Node000001"><a xlink:title=" ">
<polygon fill="#999999" stroke="#666666" points="332.38,-373.25 212.12,-373.25 212.12,-354 332.38,-354 332.38,-373.25"/>
<text xml:space="preserve" text-anchor="middle" x="272.25" y="-359.75" font-family="Helvetica,sans-Serif" font-size="10.00">src/io/hdf5/HDF5IO.cpp</text>
</a>
</g>
</g>
<!-- Node2 -->
<g id="Node000002" class="node">
<title>Node2</title>
<g id="a_Node000002"><a xlink:title=" ">
<polygon fill="#e0e0e0" stroke="#999999" points="50.5,-318 0,-318 0,-298.75 50.5,-298.75 50.5,-318"/>
<text xml:space="preserve" text-anchor="middle" x="25.25" y="-304.5" font-family="Helvetica,sans-Serif" font-size="10.00">codecvt</text>
</a>
</g>
</g>
<!-- Node1&#45;&gt;Node2 -->
<g id="edge1_Node000001_Node000002" class="edge">
<title>Node1&#45;&gt;Node2</title>
<g id="a_edge1_Node000001_Node000002"><a xlink:title=" ">
<path fill="none" stroke="#63b8ff" d="M226.01,-353.52C185.23,-345.36 123.92,-332.78 62,-318.57"/>
<polygon fill="#63b8ff" stroke="#63b8ff" points="62.85,-315.17 52.32,-316.33 61.27,-321.99 62.85,-315.17"/>
</a>
</g>
</g>
<!-- Node3 -->
<g id="Node000003" class="node">
<title>Node3</title>
<g id="a_Node000003"><a xlink:title=" ">
<polygon fill="#e0e0e0" stroke="#999999" points="129.75,-318 68.75,-318 68.75,-298.75 129.75,-298.75 129.75,-318"/>
<text xml:space="preserve" text-anchor="middle" x="99.25" y="-304.5" font-family="Helvetica,sans-Serif" font-size="10.00">filesystem</text>
</a>
</g>
</g>
<!-- Node1&#45;&gt;Node3 -->
<g id="edge2_Node000001_Node000003" class="edge">
<title>Node1&#45;&gt;Node3</title>
<g id="a_edge2_Node000001_Node000003"><a xlink:title=" ">
<path fill="none" stroke="#63b8ff" d="M242.9,-353.59C214.45,-344.83 171.05,-331.48 139.4,-321.73"/>
<polygon fill="#63b8ff" stroke="#63b8ff" points="140.77,-318.49 130.19,-318.9 138.72,-325.18 140.77,-318.49"/>
</a>
</g>
</g>
<!-- Node4 -->
<g id="Node000004" class="node">
<title>Node4</title>
<g id="a_Node000004"><a xlink:title=" ">
<polygon fill="#e0e0e0" stroke="#999999" points="889,-74.5 835.5,-74.5 835.5,-55.25 889,-55.25 889,-74.5"/>
<text xml:space="preserve" text-anchor="middle" x="862.25" y="-61" font-family="Helvetica,sans-Serif" font-size="10.00">iostream</text>
</a>
</g>
</g>
<!-- Node1&#45;&gt;Node4 -->
<g id="edge3_Node000001_Node000004" class="edge">
<title>Node1&#45;&gt;Node4</title>
<g id="a_edge3_Node000001_Node000004"><a xlink:title=" ">
<path fill="none" stroke="#63b8ff" d="M268,-353.75C258.3,-332.18 236.59,-275.59 253.25,-232.25 267.53,-195.09 278.48,-185.13 313.25,-165.75 402.06,-116.27 714.26,-80.79 823.87,-69.61"/>
<polygon fill="#63b8ff" stroke="#63b8ff" points="824.21,-73.1 833.81,-68.61 823.51,-66.13 824.21,-73.1"/>
</a>
</g>
</g>
<!-- Node5 -->
<g id="Node000005" class="node">
<title>Node5</title>
<g id="a_Node000005"><a xlink:title=" ">
<polygon fill="#e0e0e0" stroke="#999999" points="702.88,-74.5 651.62,-74.5 651.62,-55.25 702.88,-55.25 702.88,-74.5"/>
<text xml:space="preserve" text-anchor="middle" x="677.25" y="-61" font-family="Helvetica,sans-Serif" font-size="10.00">memory</text>
</a>
</g>
</g>
<!-- Node1&#45;&gt;Node5 -->
<g id="edge4_Node000001_Node000005" class="edge">
<title>Node1&#45;&gt;Node5</title>
<g id="a_edge4_Node000001_Node000005"><a xlink:title=" ">
<path fill="none" stroke="#63b8ff" d="M258.05,-353.6C246.41,-345.54 230.28,-332.76 220.25,-318 201.88,-290.97 196.25,-281.18 196.25,-248.5 196.25,-248.5 196.25,-248.5 196.25,-180 196.25,-88.91 526.94,-70.42 639.93,-66.75"/>
<polygon fill="#63b8ff" stroke="#63b8ff" points="639.99,-70.25 649.88,-66.46 639.78,-63.26 639.99,-70.25"/>
</a>
</g>
</g>
<!-- Node6 -->
<g id="Node000006" class="node">
<title>Node6</title>
<g id="a_Node000006"><a xlink:title=" ">
<polygon fill="#e0e0e0" stroke="#999999" points="1066.75,-19.25 1023.75,-19.25 1023.75,0 1066.75,0 1066.75,-19.25"/>
<text xml:space="preserve" text-anchor="middle" x="1045.25" y="-5.75" font-family="Helvetica,sans-Serif" font-size="10.00">vector</text>
</a>
</g>
</g>
<!-- Node1&#45;&gt;Node6 -->
<g id="edge5_Node000001_Node000006" class="edge">
<title>Node1&#45;&gt;Node6</title>
<g id="a_edge5_Node000001_Node000006"><a xlink:title=" ">
<path fill="none" stroke="#63b8ff" d="M251.61,-353.51C218.75,-337.43 158.25,-300.73 158.25,-248.5 158.25,-248.5 158.25,-248.5 158.25,-119.12 158.25,-10.64 534.46,-67.57 642.25,-55.25 803.73,-36.79 849.01,-49.07 1012.41,-19.26"/>
<polygon fill="#63b8ff" stroke="#63b8ff" points="1012.66,-22.77 1021.86,-17.51 1011.39,-15.89 1012.66,-22.77"/>
</a>
</g>
</g>
<!-- Node7 -->
<g id="Node000007" class="node">
<title>Node7</title>
<g id="a_Node000007"><a xlink:href="_h_d_f5_i_o_8hpp.html" target="_top" xlink:title=" ">
<polygon fill="white" stroke="#666666" points="366.12,-257.12 262.38,-257.12 262.38,-237.88 366.12,-237.88 366.12,-257.12"/>
<text xml:space="preserve" text-anchor="middle" x="314.25" y="-243.62" font-family="Helvetica,sans-Serif" font-size="10.00">io/hdf5/HDF5IO.hpp</text>
</a>
</g>
</g>
<!-- Node1&#45;&gt;Node7 -->
<g id="edge6_Node000001_Node000007" class="edge">
<title>Node1&#45;&gt;Node7</title>
<g id="a_edge6_Node000001_Node000007"><a xlink:title=" ">
<path fill="none" stroke="#63b8ff" d="M274.67,-353.84C278.16,-341.44 285,-318.12 292.25,-298.75 296.15,-288.34 301.06,-276.98 305.26,-267.69"/>
<polygon fill="#63b8ff" stroke="#63b8ff" points="308.42,-269.2 309.43,-258.65 302.06,-266.27 308.42,-269.2"/>
</a>
</g>
</g>
<!-- Node21 -->
<g id="Node000021" class="node">
<title>Node21</title>
<g id="a_Node000021"><a xlink:title=" ">
<polygon fill="#e0e0e0" stroke="#999999" points="355.75,-318 300.75,-318 300.75,-298.75 355.75,-298.75 355.75,-318"/>
<text xml:space="preserve" text-anchor="middle" x="328.25" y="-304.5" font-family="Helvetica,sans-Serif" font-size="10.00">H5Cpp.h</text>
</a>
</g>
</g>
<!-- Node1&#45;&gt;Node21 -->
<g id="edge38_Node000001_Node000021" class="edge">
<title>Node1&#45;&gt;Node21</title>
<g id="a_edge38_Node000001_Node000021"><a xlink:title=" ">
<path fill="none" stroke="#63b8ff" d="M281.75,-353.59C289.68,-346.05 301.2,-335.1 310.79,-325.98"/>
<polygon fill="#63b8ff" stroke="#63b8ff" points="312.96,-328.74 317.79,-319.32 308.14,-323.67 312.96,-328.74"/>
</a>
</g>
</g>
<!-- Node22 -->
<g id="Node000022" class="node">
<title>Node22</title>
<g id="a_Node000022"><a xlink:title=" ">
<polygon fill="#e0e0e0" stroke="#999999" points="442.5,-318 374,-318 374,-298.75 442.5,-298.75 442.5,-318"/>
<text xml:space="preserve" text-anchor="middle" x="408.25" y="-304.5" font-family="Helvetica,sans-Serif" font-size="10.00">H5Fpublic.h</text>
</a>
</g>
</g>
<!-- Node1&#45;&gt;Node22 -->
<g id="edge39_Node000001_Node000022" class="edge">
<title>Node1&#45;&gt;Node22</title>
<g id="a_edge39_Node000001_Node000022"><a xlink:title=" ">
<path fill="none" stroke="#63b8ff" d="M295.32,-353.59C317.01,-345.1 349.73,-332.29 374.38,-322.64"/>
<polygon fill="#63b8ff" stroke="#63b8ff" points="375.62,-325.91 383.66,-319 373.07,-319.39 375.62,-325.91"/>
</a>
</g>
</g>
<!-- Node23 -->
<g id="Node000023" class="node">
<title>Node23</title>
<g id="a_Node000023"><a xlink:href="_utils_8hpp.html" target="_top" xlink:title=" ">
<polygon fill="white" stroke="#666666" points="1069.75,-318 1014.75,-318 1014.75,-298.75 1069.75,-298.75 1069.75,-318"/>
<text xml:space="preserve" text-anchor="middle" x="1042.25" y="-304.5" font-family="Helvetica,sans-Serif" font-size="10.00">Utils.hpp</text>
</a>
</g>
</g>
<!-- Node1&#45;&gt;Node23 -->
<g id="edge40_Node000001_Node000023" class="edge">
<title>Node1&#45;&gt;Node23</title>
<g id="a_edge40_Node000001_Node000023"><a xlink:title=" ">
<path fill="none" stroke="#63b8ff" d="M332.67,-358.45C484.3,-347.96 877.76,-320.75 1003.21,-312.07"/>
<polygon fill="#63b8ff" stroke="#63b8ff" points="1003.25,-315.58 1012.99,-311.4 1002.77,-308.6 1003.25,-315.58"/>
</a>
</g>
</g>
<!-- Node37 -->
<g id="Node000037" class="node">
<title>Node37</title>
<g id="a_Node000037"><a xlink:href="_h_d_f5_array_data_set_config_8hpp.html" target="_top" xlink:title=" ">
<polygon fill="white" stroke="#666666" points="2101.12,-196.25 1967.38,-196.25 1967.38,-165.75 2101.12,-165.75 2101.12,-196.25"/>
<text xml:space="preserve" text-anchor="start" x="1975.38" y="-182.75" font-family="Helvetica,sans-Serif" font-size="10.00">io/hdf5/HDF5ArrayDataSet</text>
<text xml:space="preserve" text-anchor="middle" x="2034.25" y="-171.5" font-family="Helvetica,sans-Serif" font-size="10.00">Config.hpp</text>
</a>
</g>
</g>
<!-- Node1&#45;&gt;Node37 -->
<g id="edge58_Node000001_Node000037" class="edge">
<title>Node1&#45;&gt;Node37</title>
<g id="a_edge58_Node000001_Node000037"><a xlink:title=" ">
<path fill="none" stroke="#63b8ff" d="M332.63,-362.7C506.27,-362.42 1021.71,-357.99 1447.25,-318 1611.48,-302.57 1654.45,-303.66 1814.25,-262.75 1876.93,-246.71 1946.63,-219.43 1990.44,-201.08"/>
<polygon fill="#63b8ff" stroke="#63b8ff" points="1991.76,-204.32 1999.61,-197.2 1989.03,-197.87 1991.76,-204.32"/>
</a>
</g>
</g>
<!-- Node39 -->
<g id="Node000039" class="node">
<title>Node39</title>
<g id="a_Node000039"><a xlink:href="_h_d_f5_recording_data_8hpp.html" target="_top" xlink:title=" ">
<polygon fill="white" stroke="#666666" points="1949.5,-190.62 1791,-190.62 1791,-171.38 1949.5,-171.38 1949.5,-190.62"/>
<text xml:space="preserve" text-anchor="middle" x="1870.25" y="-177.12" font-family="Helvetica,sans-Serif" font-size="10.00">io/hdf5/HDF5RecordingData.hpp</text>
</a>
</g>
</g>
<!-- Node1&#45;&gt;Node39 -->
<g id="edge62_Node000001_Node000039" class="edge">
<title>Node1&#45;&gt;Node39</title>
<g id="a_edge62_Node000001_Node000039"><a xlink:title=" ">
<path fill="none" stroke="#63b8ff" d="M332.78,-360.93C597.03,-353.2 1642.39,-319.29 1777.25,-262.75 1809.98,-249.03 1839.36,-219.16 1855.97,-199.85"/>
<polygon fill="#63b8ff" stroke="#63b8ff" points="1858.59,-202.18 1862.29,-192.26 1853.2,-197.7 1858.59,-202.18"/>
</a>
</g>
</g>
<!-- Node7&#45;&gt;Node4 -->
<g id="edge7_Node000007_Node000004" class="edge">
<title>Node7&#45;&gt;Node4</title>
<g id="a_edge7_Node000007_Node000004"><a xlink:title=" ">
<path fill="none" stroke="#63b8ff" d="M341.8,-237.42C432.28,-207.6 720.44,-112.62 824.4,-78.35"/>
<polygon fill="#63b8ff" stroke="#63b8ff" points="825.45,-81.69 833.86,-75.23 823.26,-75.04 825.45,-81.69"/>
</a>
</g>
</g>
<!-- Node7&#45;&gt;Node5 -->
<g id="edge8_Node000007_Node000005" class="edge">
<title>Node7&#45;&gt;Node5</title>
<g id="a_edge8_Node000007_Node000005"><a xlink:title=" ">
<path fill="none" stroke="#63b8ff" d="M308.85,-237.43C300.18,-221.55 285.54,-188.26 300.25,-165.75 337.78,-108.31 552.2,-79.22 639.89,-69.59"/>
<polygon fill="#63b8ff" stroke="#63b8ff" points="640.07,-73.09 649.64,-68.55 639.33,-66.13 640.07,-73.09"/>
</a>
</g>
</g>
<!-- Node8 -->
<g id="Node000008" class="node">
<title>Node8</title>
<g id="a_Node000008"><a xlink:title=" ">
<polygon fill="#e0e0e0" stroke="#999999" points="1111.25,-74.5 1071.25,-74.5 1071.25,-55.25 1111.25,-55.25 1111.25,-74.5"/>
<text xml:space="preserve" text-anchor="middle" x="1091.25" y="-61" font-family="Helvetica,sans-Serif" font-size="10.00">string</text>
</a>
</g>
</g>
<!-- Node7&#45;&gt;Node8 -->
<g id="edge9_Node000007_Node000008" class="edge">
<title>Node7&#45;&gt;Node8</title>
<g id="a_edge9_Node000007_Node000008"><a xlink:title=" ">
<path fill="none" stroke="#63b8ff" d="M352.97,-237.45C360.37,-235.72 368.05,-233.93 375.25,-232.25 640.09,-170.54 960.12,-96.29 1059.96,-73.13"/>
<polygon fill="#63b8ff" stroke="#63b8ff" points="1060.61,-76.58 1069.56,-70.91 1059.02,-69.76 1060.61,-76.58"/>
</a>
</g>
</g>
<!-- Node9 -->
<g id="Node000009" class="node">
<title>Node9</title>
<g id="a_Node000009"><a xlink:title=" ">
<polygon fill="#e0e0e0" stroke="#999999" points="412.25,-190.62 342.25,-190.62 342.25,-171.38 412.25,-171.38 412.25,-190.62"/>
<text xml:space="preserve" text-anchor="middle" x="377.25" y="-177.12" font-family="Helvetica,sans-Serif" font-size="10.00">H5Opublic.h</text>
</a>
</g>
</g>
<!-- Node7&#45;&gt;Node9 -->
<g id="edge10_Node000007_Node000009" class="edge">
<title>Node7&#45;&gt;Node9</title>
<g id="a_edge10_Node000007_Node000009"><a xlink:title=" ">
<path fill="none" stroke="#63b8ff" d="M323.01,-237.53C332.7,-227.62 348.52,-211.41 360.59,-199.06"/>
<polygon fill="#63b8ff" stroke="#63b8ff" points="363.02,-201.57 367.51,-191.98 358.02,-196.68 363.02,-201.57"/>
</a>
</g>
</g>
<!-- Node10 -->
<g id="Node000010" class="node">
<title>Node10</title>
<g id="a_Node000010"><a xlink:href="_types_8hpp.html" target="_top" xlink:title=" ">
<polygon fill="white" stroke="#666666" points="1014.75,-74.5 953.75,-74.5 953.75,-55.25 1014.75,-55.25 1014.75,-74.5"/>
<text xml:space="preserve" text-anchor="middle" x="984.25" y="-61" font-family="Helvetica,sans-Serif" font-size="10.00">Types.hpp</text>
</a>
</g>
</g>
<!-- Node7&#45;&gt;Node10 -->
<g id="edge11_Node000007_Node000010" class="edge">
<title>Node7&#45;&gt;Node10</title>
<g id="a_edge11_Node000007_Node000010"><a xlink:title=" ">
<path fill="none" stroke="#63b8ff" d="M313.41,-237.4C312.41,-220.56 312.94,-184.52 333.25,-165.75 355.89,-144.83 802.49,-88.26 942.59,-70.97"/>
<polygon fill="#63b8ff" stroke="#63b8ff" points="942.66,-74.49 952.16,-69.79 941.81,-67.54 942.66,-74.49"/>
</a>
</g>
</g>
<!-- Node12 -->
<g id="Node000012" class="node">
<title>Node12</title>
<g id="a_Node000012"><a xlink:href="_base_i_o_8hpp.html" target="_top" xlink:title=" ">
<polygon fill="white" stroke="#666666" points="1350.38,-129.75 1272.12,-129.75 1272.12,-110.5 1350.38,-110.5 1350.38,-129.75"/>
<text xml:space="preserve" text-anchor="middle" x="1311.25" y="-116.25" font-family="Helvetica,sans-Serif" font-size="10.00">io/BaseIO.hpp</text>
</a>
</g>
</g>
<!-- Node7&#45;&gt;Node12 -->
<g id="edge14_Node000007_Node000012" class="edge">
<title>Node7&#45;&gt;Node12</title>
<g id="a_edge14_Node000007_Node000012"><a xlink:title=" ">
<path fill="none" stroke="#63b8ff" d="M348.24,-237.4C356.98,-235.38 366.42,-233.48 375.25,-232.25 712.38,-185.34 808.87,-274.01 1140.25,-196.25 1194.71,-183.47 1253.42,-153.8 1285.92,-135.81"/>
<polygon fill="#63b8ff" stroke="#63b8ff" points="1287.58,-138.89 1294.58,-130.94 1284.15,-132.79 1287.58,-138.89"/>
</a>
</g>
</g>
<!-- Node20 -->
<g id="Node000020" class="node">
<title>Node20</title>
<g id="a_Node000020"><a xlink:href="_read_i_o_8hpp.html" target="_top" xlink:title=" ">
<polygon fill="white" stroke="#666666" points="1130.75,-190.62 1051.75,-190.62 1051.75,-171.38 1130.75,-171.38 1130.75,-190.62"/>
<text xml:space="preserve" text-anchor="middle" x="1091.25" y="-177.12" font-family="Helvetica,sans-Serif" font-size="10.00">io/ReadIO.hpp</text>
</a>
</g>
</g>
<!-- Node7&#45;&gt;Node20 -->
<g id="edge27_Node000007_Node000020" class="edge">
<title>Node7&#45;&gt;Node20</title>
<g id="a_edge27_Node000007_Node000020"><a xlink:title=" ">
<path fill="none" stroke="#63b8ff" d="M348.58,-237.42C357.23,-235.43 366.53,-233.53 375.25,-232.25 631.23,-194.69 698.43,-217.83 956.25,-196.25 984.05,-193.92 1015,-190.7 1040.25,-187.91"/>
<polygon fill="#63b8ff" stroke="#63b8ff" points="1040.37,-191.42 1049.92,-186.83 1039.59,-184.46 1040.37,-191.42"/>
</a>
</g>
</g>
<!-- Node10&#45;&gt;Node6 -->
<g id="edge13_Node000010_Node000006" class="edge">
<title>Node10&#45;&gt;Node6</title>
<g id="a_edge13_Node000010_Node000006"><a xlink:title=" ">
<path fill="none" stroke="#63b8ff" d="M994.6,-54.84C1003.33,-47.22 1016.04,-36.12 1026.55,-26.95"/>
<polygon fill="#63b8ff" stroke="#63b8ff" points="1028.68,-29.73 1033.91,-20.52 1024.08,-24.46 1028.68,-29.73"/>
</a>
</g>
</g>
<!-- Node11 -->
<g id="Node000011" class="node">
<title>Node11</title>
<g id="a_Node000011"><a xlink:title=" ">
<polygon fill="#e0e0e0" stroke="#999999" points="1005.38,-19.25 957.12,-19.25 957.12,0 1005.38,0 1005.38,-19.25"/>
<text xml:space="preserve" text-anchor="middle" x="981.25" y="-5.75" font-family="Helvetica,sans-Serif" font-size="10.00">cstddef</text>
</a>
</g>
</g>
<!-- Node10&#45;&gt;Node11 -->
<g id="edge12_Node000010_Node000011" class="edge">
<title>Node10&#45;&gt;Node11</title>
<g id="a_edge12_Node000010_Node000011"><a xlink:title=" ">
<path fill="none" stroke="#63b8ff" d="M983.75,-55.08C983.38,-48.49 982.86,-39.21 982.39,-30.82"/>
<polygon fill="#63b8ff" stroke="#63b8ff" points="985.9,-30.91 981.84,-21.12 978.91,-31.3 985.9,-30.91"/>
</a>
</g>
</g>
<!-- Node12&#45;&gt;Node4 -->
<g id="edge17_Node000012_Node000004" class="edge">
<title>Node12&#45;&gt;Node4</title>
<g id="a_edge17_Node000012_Node000004"><a xlink:title=" ">
<path fill="none" stroke="#63b8ff" d="M1271.8,-114.45C1186.35,-104.31 985.1,-80.44 900.63,-70.43"/>
<polygon fill="#63b8ff" stroke="#63b8ff" points="901.12,-66.96 890.78,-69.26 900.3,-73.91 901.12,-66.96"/>
</a>
</g>
</g>
<!-- Node12&#45;&gt;Node5 -->
<g id="edge18_Node000012_Node000005" class="edge">
<title>Node12&#45;&gt;Node5</title>
<g id="a_edge18_Node000012_Node000005"><a xlink:title=" ">
<path fill="none" stroke="#63b8ff" d="M1272.07,-115.83C1157.85,-106.24 826.24,-78.39 714.5,-69"/>
<polygon fill="#63b8ff" stroke="#63b8ff" points="714.95,-65.53 704.69,-68.18 714.37,-72.5 714.95,-65.53"/>
</a>
</g>
</g>
<!-- Node12&#45;&gt;Node6 -->
<g id="edge24_Node000012_Node000006" class="edge">
<title>Node12&#45;&gt;Node6</title>
<g id="a_edge24_Node000012_Node000006"><a xlink:title=" ">
<path fill="none" stroke="#63b8ff" d="M1350.81,-119.78C1428.41,-120.12 1596.18,-115.93 1632.25,-74.5 1637.87,-68.05 1638.07,-61.52 1632.25,-55.25 1594.46,-14.48 1196.98,-10.78 1078.44,-10.58"/>
<polygon fill="#63b8ff" stroke="#63b8ff" points="1078.45,-7.08 1068.44,-10.58 1078.44,-14.08 1078.45,-7.08"/>
</a>
</g>
</g>
<!-- Node12&#45;&gt;Node8 -->
<g id="edge19_Node000012_Node000008" class="edge">
<title>Node12&#45;&gt;Node8</title>
<g id="a_edge19_Node000012_Node000008"><a xlink:title=" ">
<path fill="none" stroke="#63b8ff" d="M1271.94,-110.66C1235.55,-102.66 1179.7,-89.99 1122.55,-74.99"/>
<polygon fill="#63b8ff" stroke="#63b8ff" points="1123.51,-71.63 1112.95,-72.45 1121.72,-78.39 1123.51,-71.63"/>
</a>
</g>
</g>
<!-- Node12&#45;&gt;Node10 -->
<g id="edge26_Node000012_Node000010" class="edge">
<title>Node12&#45;&gt;Node10</title>
<g id="a_edge26_Node000012_Node000010"><a xlink:title=" ">
<path fill="none" stroke="#63b8ff" d="M1271.81,-112.7C1209.76,-102.6 1089.89,-83.08 1026.28,-72.72"/>
<polygon fill="#63b8ff" stroke="#63b8ff" points="1027.01,-69.29 1016.58,-71.14 1025.88,-76.2 1027.01,-69.29"/>
</a>
</g>
</g>
<!-- Node13 -->
<g id="Node000013" class="node">
<title>Node13</title>
<g id="a_Node000013"><a xlink:title=" ">
<polygon fill="#e0e0e0" stroke="#999999" points="1161.12,-74.5 1129.38,-74.5 1129.38,-55.25 1161.12,-55.25 1161.12,-74.5"/>
<text xml:space="preserve" text-anchor="middle" x="1145.25" y="-61" font-family="Helvetica,sans-Serif" font-size="10.00">any</text>
</a>
</g>
</g>
<!-- Node12&#45;&gt;Node13 -->
<g id="edge15_Node000012_Node000013" class="edge">
<title>Node12&#45;&gt;Node13</title>
<g id="a_edge15_Node000012_Node000013"><a xlink:title=" ">
<path fill="none" stroke="#63b8ff" d="M1281.74,-110.03C1255.34,-101.84 1215.33,-89.29 1172.12,-75.06"/>
<polygon fill="#63b8ff" stroke="#63b8ff" points="1173.4,-71.8 1162.8,-71.98 1171.2,-78.44 1173.4,-71.8"/>
</a>
</g>
</g>
<!-- Node14 -->
<g id="Node000014" class="node">
<title>Node14</title>
<g id="a_Node000014"><a xlink:title=" ">
<polygon fill="#e0e0e0" stroke="#999999" points="1724.88,-74.5 1679.62,-74.5 1679.62,-55.25 1724.88,-55.25 1724.88,-74.5"/>
<text xml:space="preserve" text-anchor="middle" x="1702.25" y="-61" font-family="Helvetica,sans-Serif" font-size="10.00">cstdint</text>
</a>
</g>
</g>
<!-- Node12&#45;&gt;Node14 -->
<g id="edge16_Node000012_Node000014" class="edge">
<title>Node12&#45;&gt;Node14</title>
<g id="a_edge16_Node000012_Node000014"><a xlink:title=" ">
<path fill="none" stroke="#63b8ff" d="M1350.74,-115.5C1416.35,-109.16 1551.84,-94.81 1665.25,-74.5 1666.24,-74.32 1667.25,-74.13 1668.27,-73.94"/>
<polygon fill="#63b8ff" stroke="#63b8ff" points="1668.69,-77.43 1677.75,-71.94 1667.25,-70.58 1668.69,-77.43"/>
</a>
</g>
</g>
<!-- Node15 -->
<g id="Node000015" class="node">
<title>Node15</title>
<g id="a_Node000015"><a xlink:title=" ">
<polygon fill="#e0e0e0" stroke="#999999" points="1237.25,-74.5 1179.25,-74.5 1179.25,-55.25 1237.25,-55.25 1237.25,-74.5"/>
<text xml:space="preserve" text-anchor="middle" x="1208.25" y="-61" font-family="Helvetica,sans-Serif" font-size="10.00">typeindex</text>
</a>
</g>
</g>
<!-- Node12&#45;&gt;Node15 -->
<g id="edge20_Node000012_Node000015" class="edge">
<title>Node12&#45;&gt;Node15</title>
<g id="a_edge20_Node000012_Node000015"><a xlink:title=" ">
<path fill="none" stroke="#63b8ff" d="M1293.78,-110.09C1277.94,-101.91 1254.34,-89.71 1235.94,-80.19"/>
<polygon fill="#63b8ff" stroke="#63b8ff" points="1237.64,-77.13 1227.15,-75.65 1234.43,-83.35 1237.64,-77.13"/>
</a>
</g>
</g>
<!-- Node16 -->
<g id="Node000016" class="node">
<title>Node16</title>
<g id="a_Node000016"><a xlink:title=" ">
<polygon fill="#e0e0e0" stroke="#999999" points="1464.62,-74.5 1381.88,-74.5 1381.88,-55.25 1464.62,-55.25 1464.62,-74.5"/>
<text xml:space="preserve" text-anchor="middle" x="1423.25" y="-61" font-family="Helvetica,sans-Serif" font-size="10.00">unordered_map</text>
</a>
</g>
</g>
<!-- Node12&#45;&gt;Node16 -->
<g id="edge21_Node000012_Node000016" class="edge">
<title>Node12&#45;&gt;Node16</title>
<g id="a_edge21_Node000012_Node000016"><a xlink:title=" ">
<path fill="none" stroke="#63b8ff" d="M1330.25,-110.09C1347.71,-101.79 1373.85,-89.36 1393.97,-79.79"/>
<polygon fill="#63b8ff" stroke="#63b8ff" points="1395.26,-83.06 1402.79,-75.6 1392.26,-76.74 1395.26,-83.06"/>
</a>
</g>
</g>
<!-- Node17 -->
<g id="Node000017" class="node">
<title>Node17</title>
<g id="a_Node000017"><a xlink:title=" ">
<polygon fill="#e0e0e0" stroke="#999999" points="1560,-74.5 1482.5,-74.5 1482.5,-55.25 1560,-55.25 1560,-74.5"/>
<text xml:space="preserve" text-anchor="middle" x="1521.25" y="-61" font-family="Helvetica,sans-Serif" font-size="10.00">unordered_set</text>
</a>
</g>
</g>
<!-- Node12&#45;&gt;Node17 -->
<g id="edge22_Node000012_Node000017" class="edge">
<title>Node12&#45;&gt;Node17</title>
<g id="a_edge22_Node000012_Node000017"><a xlink:title=" ">
<path fill="none" stroke="#63b8ff" d="M1346.87,-110.09C1382.02,-101.18 1435.94,-87.51 1474.51,-77.73"/>
<polygon fill="#63b8ff" stroke="#63b8ff" points="1475.15,-81.18 1483.98,-75.32 1473.43,-74.39 1475.15,-81.18"/>
</a>
</g>
</g>
<!-- Node18 -->
<g id="Node000018" class="node">
<title>Node18</title>
<g id="a_Node000018"><a xlink:title=" ">
<polygon fill="#e0e0e0" stroke="#999999" points="1622.88,-74.5 1577.62,-74.5 1577.62,-55.25 1622.88,-55.25 1622.88,-74.5"/>
<text xml:space="preserve" text-anchor="middle" x="1600.25" y="-61" font-family="Helvetica,sans-Serif" font-size="10.00">variant</text>
</a>
</g>
</g>
<!-- Node12&#45;&gt;Node18 -->
<g id="edge23_Node000012_Node000018" class="edge">
<title>Node12&#45;&gt;Node18</title>
<g id="a_edge23_Node000012_Node000018"><a xlink:title=" ">
<path fill="none" stroke="#63b8ff" d="M1350.83,-113.54C1399.49,-106.39 1484.79,-92.98 1566.34,-74.99"/>
<polygon fill="#63b8ff" stroke="#63b8ff" points="1566.82,-78.47 1575.81,-72.87 1565.29,-71.64 1566.82,-78.47"/>
</a>
</g>
</g>
<!-- Node19 -->
<g id="Node000019" class="node">
<title>Node19</title>
<g id="a_Node000019"><a xlink:title=" ">
<polygon fill="#e0e0e0" stroke="#999999" points="1363.38,-74.5 1255.12,-74.5 1255.12,-55.25 1363.38,-55.25 1363.38,-74.5"/>
<text xml:space="preserve" text-anchor="middle" x="1309.25" y="-61" font-family="Helvetica,sans-Serif" font-size="10.00">boost/multi_array.hpp</text>
</a>
</g>
</g>
<!-- Node12&#45;&gt;Node19 -->
<g id="edge25_Node000012_Node000019" class="edge">
<title>Node12&#45;&gt;Node19</title>
<g id="a_edge25_Node000012_Node000019"><a xlink:title=" ">
<path fill="none" stroke="#63b8ff" d="M1310.92,-110.33C1310.67,-103.74 1310.32,-94.46 1310.01,-86.07"/>
<polygon fill="#63b8ff" stroke="#63b8ff" points="1313.52,-86.23 1309.64,-76.37 1306.52,-86.5 1313.52,-86.23"/>
</a>
</g>
</g>
<!-- Node20&#45;&gt;Node4 -->
<g id="edge30_Node000020_Node000004" class="edge">
<title>Node20&#45;&gt;Node4</title>
<g id="a_edge30_Node000020_Node000004"><a xlink:title=" ">
<path fill="none" stroke="#63b8ff" d="M1073.28,-171.04C1033.66,-151.3 938.54,-103.9 890.72,-80.06"/>
<polygon fill="#63b8ff" stroke="#63b8ff" points="892.32,-76.95 881.81,-75.62 889.2,-83.21 892.32,-76.95"/>
</a>
</g>
</g>
<!-- Node20&#45;&gt;Node5 -->
<g id="edge31_Node000020_Node000005" class="edge">
<title>Node20&#45;&gt;Node5</title>
<g id="a_edge31_Node000020_Node000005"><a xlink:title=" ">
<path fill="none" stroke="#63b8ff" d="M1058.42,-170.95C982.31,-149.97 794.26,-98.13 714.25,-76.07"/>
<polygon fill="#63b8ff" stroke="#63b8ff" points="715.28,-72.73 704.71,-73.44 713.42,-79.48 715.28,-72.73"/>
</a>
</g>
</g>
<!-- Node20&#45;&gt;Node6 -->
<g id="edge34_Node000020_Node000006" class="edge">
<title>Node20&#45;&gt;Node6</title>
<g id="a_edge34_Node000020_Node000006"><a xlink:title=" ">
<path fill="none" stroke="#63b8ff" d="M1088.74,-170.97C1083.69,-152.75 1071.92,-110.26 1062.25,-74.5 1058.29,-59.88 1053.9,-43.35 1050.57,-30.77"/>
<polygon fill="#63b8ff" stroke="#63b8ff" points="1053.97,-29.96 1048.03,-21.19 1047.21,-31.75 1053.97,-29.96"/>
</a>
</g>
</g>
<!-- Node20&#45;&gt;Node8 -->
<g id="edge32_Node000020_Node000008" class="edge">
<title>Node20&#45;&gt;Node8</title>
<g id="a_edge32_Node000020_Node000008"><a xlink:title=" ">
<path fill="none" stroke="#63b8ff" d="M1091.25,-171.04C1091.25,-152.88 1091.25,-111.29 1091.25,-86.2"/>
<polygon fill="#63b8ff" stroke="#63b8ff" points="1094.75,-86.3 1091.25,-76.3 1087.75,-86.3 1094.75,-86.3"/>
</a>
</g>
</g>
<!-- Node20&#45;&gt;Node10 -->
<g id="edge37_Node000020_Node000010" class="edge">
<title>Node20&#45;&gt;Node10</title>
<g id="a_edge37_Node000020_Node000010"><a xlink:title=" ">
<path fill="none" stroke="#63b8ff" d="M1078.02,-170.93C1064.82,-161.52 1044.39,-145.94 1029.25,-129.75 1016.09,-115.68 1003.68,-97.56 995.24,-84.21"/>
<polygon fill="#63b8ff" stroke="#63b8ff" points="998.4,-82.67 990.18,-75.99 992.44,-86.34 998.4,-82.67"/>
</a>
</g>
</g>
<!-- Node20&#45;&gt;Node12 -->
<g id="edge36_Node000020_Node000012" class="edge">
<title>Node20&#45;&gt;Node12</title>
<g id="a_edge36_Node000020_Node000012"><a xlink:title=" ">
<path fill="none" stroke="#63b8ff" d="M1125.14,-170.93C1163.01,-160.8 1224.49,-144.34 1266.34,-133.14"/>
<polygon fill="#63b8ff" stroke="#63b8ff" points="1267.1,-136.56 1275.86,-130.6 1265.29,-129.8 1267.1,-136.56"/>
</a>
</g>
</g>
<!-- Node20&#45;&gt;Node13 -->
<g id="edge28_Node000020_Node000013" class="edge">
<title>Node20&#45;&gt;Node13</title>
<g id="a_edge28_Node000020_Node000013"><a xlink:title=" ">
<path fill="none" stroke="#63b8ff" d="M1095.49,-171.04C1104.2,-152.63 1124.3,-110.14 1136.12,-85.17"/>
<polygon fill="#63b8ff" stroke="#63b8ff" points="1139.27,-86.69 1140.39,-76.16 1132.94,-83.7 1139.27,-86.69"/>
</a>
</g>
</g>
<!-- Node20&#45;&gt;Node14 -->
<g id="edge29_Node000020_Node000014" class="edge">
<title>Node20&#45;&gt;Node14</title>
<g id="a_edge29_Node000020_Node000014"><a xlink:title=" ">
<path fill="none" stroke="#63b8ff" d="M1130.87,-172.6C1243.29,-151.6 1562.94,-91.9 1668.18,-72.24"/>
<polygon fill="#63b8ff" stroke="#63b8ff" points="1668.7,-75.7 1677.89,-70.43 1667.41,-68.82 1668.7,-75.7"/>
</a>
</g>
</g>
<!-- Node20&#45;&gt;Node15 -->
<g id="edge33_Node000020_Node000015" class="edge">
<title>Node20&#45;&gt;Node15</title>
<g id="a_edge33_Node000020_Node000015"><a xlink:title=" ">
<path fill="none" stroke="#63b8ff" d="M1100.43,-171.04C1120,-151.96 1166.05,-107.03 1191.18,-82.53"/>
<polygon fill="#63b8ff" stroke="#63b8ff" points="1193.31,-85.33 1198.03,-75.85 1188.43,-80.32 1193.31,-85.33"/>
</a>
</g>
</g>
<!-- Node20&#45;&gt;Node19 -->
<g id="edge35_Node000020_Node000019" class="edge">
<title>Node20&#45;&gt;Node19</title>
<g id="a_edge35_Node000020_Node000019"><a xlink:title=" ">
<path fill="none" stroke="#63b8ff" d="M1108.36,-171.04C1145.99,-151.34 1236.24,-104.1 1281.86,-80.21"/>
<polygon fill="#63b8ff" stroke="#63b8ff" points="1283.34,-83.39 1290.58,-75.65 1280.1,-77.19 1283.34,-83.39"/>
</a>
</g>
</g>
<!-- Node23&#45;&gt;Node7 -->
<g id="edge57_Node000023_Node000007" class="edge">
<title>Node23&#45;&gt;Node7</title>
<g id="a_edge57_Node000023_Node000007"><a xlink:title=" ">
<path fill="none" stroke="#63b8ff" d="M1014.44,-307.13C922.65,-305.98 621.18,-299.45 375.25,-262.75 370.28,-262.01 365.11,-261.07 359.98,-260.03"/>
<polygon fill="#63b8ff" stroke="#63b8ff" points="360.89,-256.65 350.38,-257.94 359.41,-263.49 360.89,-256.65"/>
</a>
</g>
</g>
<!-- Node23&#45;&gt;Node8 -->
<g id="edge49_Node000023_Node000008" class="edge">
<title>Node23&#45;&gt;Node8</title>
<g id="a_edge49_Node000023_Node000008"><a xlink:title=" ">
<path fill="none" stroke="#63b8ff" d="M1070.17,-306.58C1160.8,-303.71 1442.5,-292.45 1469.25,-262.75 1478.32,-252.68 1476.66,-243.6 1469.25,-232.25 1448.74,-200.82 1208.99,-109.53 1122.29,-77.3"/>
<polygon fill="#63b8ff" stroke="#63b8ff" points="1123.58,-74.05 1112.99,-73.86 1121.15,-80.62 1123.58,-74.05"/>
</a>
</g>
</g>
<!-- Node23&#45;&gt;Node12 -->
<g id="edge56_Node000023_Node000012" class="edge">
<title>Node23&#45;&gt;Node12</title>
<g id="a_edge56_Node000023_Node000012"><a xlink:title=" ">
<path fill="none" stroke="#63b8ff" d="M1069.91,-307.68C1190,-308.74 1662.21,-309.85 1706.25,-262.75 1808.78,-153.1 1490.31,-128.21 1362.17,-122.67"/>
<polygon fill="#63b8ff" stroke="#63b8ff" points="1362.39,-119.18 1352.26,-122.27 1362.11,-126.17 1362.39,-119.18"/>
</a>
</g>
</g>
<!-- Node23&#45;&gt;Node14 -->
<g id="edge44_Node000023_Node000014" class="edge">
<title>Node23&#45;&gt;Node14</title>
<g id="a_edge44_Node000023_Node000014"><a xlink:title=" ">
<path fill="none" stroke="#63b8ff" d="M1069.85,-306.63C1195.27,-303.09 1706.31,-287.22 1729.25,-262.75 1775.63,-213.26 1734.85,-123.68 1713.43,-84.76"/>
<polygon fill="#63b8ff" stroke="#63b8ff" points="1716.5,-83.08 1708.5,-76.12 1710.42,-86.55 1716.5,-83.08"/>
</a>
</g>
</g>
<!-- Node24 -->
<g id="Node000024" class="node">
<title>Node24</title>
<g id="a_Node000024"><a xlink:title=" ">
<polygon fill="#e0e0e0" stroke="#999999" points="1572.12,-257.12 1516.38,-257.12 1516.38,-237.88 1572.12,-237.88 1572.12,-257.12"/>
<text xml:space="preserve" text-anchor="middle" x="1544.25" y="-243.62" font-family="Helvetica,sans-Serif" font-size="10.00">algorithm</text>
</a>
</g>
</g>
<!-- Node23&#45;&gt;Node24 -->
<g id="edge41_Node000023_Node000024" class="edge">
<title>Node23&#45;&gt;Node24</title>
<g id="a_edge41_Node000023_Node000024"><a xlink:title=" ">
<path fill="none" stroke="#63b8ff" d="M1070.07,-306.9C1142.24,-305.19 1341.05,-297.43 1502.25,-262.75 1504.7,-262.22 1507.2,-261.6 1509.7,-260.92"/>
<polygon fill="#63b8ff" stroke="#63b8ff" points="1510.54,-264.32 1519.08,-258.05 1508.5,-257.62 1510.54,-264.32"/>
</a>
</g>
</g>
<!-- Node25 -->
<g id="Node000025" class="node">
<title>Node25</title>
<g id="a_Node000025"><a xlink:title=" ">
<polygon fill="#e0e0e0" stroke="#999999" points="1635.88,-257.12 1590.62,-257.12 1590.62,-237.88 1635.88,-237.88 1635.88,-257.12"/>
<text xml:space="preserve" text-anchor="middle" x="1613.25" y="-243.62" font-family="Helvetica,sans-Serif" font-size="10.00">chrono</text>
</a>
</g>
</g>
<!-- Node23&#45;&gt;Node25 -->
<g id="edge42_Node000023_Node000025" class="edge">
<title>Node23&#45;&gt;Node25</title>
<g id="a_edge42_Node000023_Node000025"><a xlink:title=" ">
<path fill="none" stroke="#63b8ff" d="M1070.09,-306.3C1166.1,-302.42 1482.9,-287.94 1581.25,-262.75 1582.61,-262.4 1583.98,-262 1585.36,-261.56"/>
<polygon fill="#63b8ff" stroke="#63b8ff" points="1586.2,-264.98 1594.28,-258.13 1583.69,-258.45 1586.2,-264.98"/>
</a>
</g>
</g>
<!-- Node26 -->
<g id="Node000026" class="node">
<title>Node26</title>
<g id="a_Node000026"><a xlink:title=" ">
<polygon fill="#e0e0e0" stroke="#999999" points="1696.75,-257.12 1653.75,-257.12 1653.75,-237.88 1696.75,-237.88 1696.75,-257.12"/>
<text xml:space="preserve" text-anchor="middle" x="1675.25" y="-243.62" font-family="Helvetica,sans-Serif" font-size="10.00">cmath</text>
</a>
</g>
</g>
<!-- Node23&#45;&gt;Node26 -->
<g id="edge43_Node000023_Node000026" class="edge">
<title>Node23&#45;&gt;Node26</title>
<g id="a_edge43_Node000023_Node000026"><a xlink:title=" ">
<path fill="none" stroke="#63b8ff" d="M1070.14,-306.67C1173.49,-303.85 1534.38,-292.08 1645.25,-262.75 1646.25,-262.49 1647.26,-262.19 1648.27,-261.86"/>
<polygon fill="#63b8ff" stroke="#63b8ff" points="1649.46,-265.16 1657.44,-258.19 1646.86,-258.66 1649.46,-265.16"/>
</a>
</g>
</g>
<!-- Node27 -->
<g id="Node000027" class="node">
<title>Node27</title>
<g id="a_Node000027"><a xlink:title=" ">
<polygon fill="#e0e0e0" stroke="#999999" points="424.25,-257.12 384.25,-257.12 384.25,-237.88 424.25,-237.88 424.25,-257.12"/>
<text xml:space="preserve" text-anchor="middle" x="404.25" y="-243.62" font-family="Helvetica,sans-Serif" font-size="10.00">ctime</text>
</a>
</g>
</g>
<!-- Node23&#45;&gt;Node27 -->
<g id="edge45_Node000023_Node000027" class="edge">
<title>Node23&#45;&gt;Node27</title>
<g id="a_edge45_Node000023_Node000027"><a xlink:title=" ">
<path fill="none" stroke="#63b8ff" d="M1014.43,-306.74C910.48,-304.17 545.16,-293.11 433.25,-262.75 432.26,-262.48 431.25,-262.18 430.25,-261.84"/>
<polygon fill="#63b8ff" stroke="#63b8ff" points="431.75,-258.67 421.17,-258.06 429.06,-265.14 431.75,-258.67"/>
</a>
</g>
</g>
<!-- Node28 -->
<g id="Node000028" class="node">
<title>Node28</title>
<g id="a_Node000028"><a xlink:title=" ">
<polygon fill="#e0e0e0" stroke="#999999" points="492.12,-257.12 442.38,-257.12 442.38,-237.88 492.12,-237.88 492.12,-257.12"/>
<text xml:space="preserve" text-anchor="middle" x="467.25" y="-243.62" font-family="Helvetica,sans-Serif" font-size="10.00">iomanip</text>
</a>
</g>
</g>
<!-- Node23&#45;&gt;Node28 -->
<g id="edge46_Node000023_Node000028" class="edge">
<title>Node23&#45;&gt;Node28</title>
<g id="a_edge46_Node000023_Node000028"><a xlink:title=" ">
<path fill="none" stroke="#63b8ff" d="M1014.33,-306.23C918.03,-302.1 600.24,-286.93 501.25,-262.75 499.66,-262.36 498.04,-261.91 496.43,-261.4"/>
<polygon fill="#63b8ff" stroke="#63b8ff" points="497.97,-258.24 487.38,-258.09 495.56,-264.82 497.97,-258.24"/>
</a>
</g>
</g>
<!-- Node29 -->
<g id="Node000029" class="node">
<title>Node29</title>
<g id="a_Node000029"><a xlink:title=" ">
<polygon fill="#e0e0e0" stroke="#999999" points="550.25,-257.12 510.25,-257.12 510.25,-237.88 550.25,-237.88 550.25,-257.12"/>
<text xml:space="preserve" text-anchor="middle" x="530.25" y="-243.62" font-family="Helvetica,sans-Serif" font-size="10.00">regex</text>
</a>
</g>
</g>
<!-- Node23&#45;&gt;Node29 -->
<g id="edge47_Node000023_Node000029" class="edge">
<title>Node23&#45;&gt;Node29</title>
<g id="a_edge47_Node000023_Node000029"><a xlink:title=" ">
<path fill="none" stroke="#63b8ff" d="M1014.52,-306.14C925.23,-301.95 645.98,-287.17 559.25,-262.75 558.28,-262.48 557.31,-262.17 556.33,-261.84"/>
<polygon fill="#63b8ff" stroke="#63b8ff" points="558.07,-258.77 547.49,-258.16 555.37,-265.24 558.07,-258.77"/>
</a>
</g>
</g>
<!-- Node30 -->
<g id="Node000030" class="node">
<title>Node30</title>
<g id="a_Node000030"><a xlink:title=" ">
<polygon fill="#e0e0e0" stroke="#999999" points="619.88,-257.12 568.62,-257.12 568.62,-237.88 619.88,-237.88 619.88,-257.12"/>
<text xml:space="preserve" text-anchor="middle" x="594.25" y="-243.62" font-family="Helvetica,sans-Serif" font-size="10.00">sstream</text>
</a>
</g>
</g>
<!-- Node23&#45;&gt;Node30 -->
<g id="edge48_Node000023_Node000030" class="edge">
<title>Node23&#45;&gt;Node30</title>
<g id="a_edge48_Node000023_Node000030"><a xlink:title=" ">
<path fill="none" stroke="#63b8ff" d="M1014.73,-307.03C947.72,-305.64 771.2,-298.56 629.25,-262.75 627.66,-262.35 626.05,-261.89 624.43,-261.39"/>
<polygon fill="#63b8ff" stroke="#63b8ff" points="625.94,-258.21 615.34,-258.13 623.58,-264.8 625.94,-258.21"/>
</a>
</g>
</g>
<!-- Node31 -->
<g id="Node000031" class="node">
<title>Node31</title>
<g id="a_Node000031"><a xlink:title=" ">
<polygon fill="#e0e0e0" stroke="#999999" points="742.5,-257.12 638,-257.12 638,-237.88 742.5,-237.88 742.5,-257.12"/>
<text xml:space="preserve" text-anchor="middle" x="690.25" y="-243.62" font-family="Helvetica,sans-Serif" font-size="10.00">boost/date_time.hpp</text>
</a>
</g>
</g>
<!-- Node23&#45;&gt;Node31 -->
<g id="edge50_Node000023_Node000031" class="edge">
<title>Node23&#45;&gt;Node31</title>
<g id="a_edge50_Node000023_Node000031"><a xlink:title=" ">
<path fill="none" stroke="#63b8ff" d="M1014.54,-303.8C962.8,-296.97 848.06,-281.11 752.25,-262.75 747.92,-261.92 743.43,-261 738.94,-260.05"/>
<polygon fill="#63b8ff" stroke="#63b8ff" points="739.86,-256.66 729.34,-257.93 738.35,-263.5 739.86,-256.66"/>
</a>
</g>
</g>
<!-- Node32 -->
<g id="Node000032" class="node">
<title>Node32</title>
<g id="a_Node000032"><a xlink:title=" ">
<polygon fill="#e0e0e0" stroke="#999999" points="901.5,-257.12 761,-257.12 761,-237.88 901.5,-237.88 901.5,-257.12"/>
<text xml:space="preserve" text-anchor="middle" x="831.25" y="-243.62" font-family="Helvetica,sans-Serif" font-size="10.00">boost/endian/conversion.hpp</text>
</a>
</g>
</g>
<!-- Node23&#45;&gt;Node32 -->
<g id="edge51_Node000023_Node000032" class="edge">
<title>Node23&#45;&gt;Node32</title>
<g id="a_edge51_Node000023_Node000032"><a xlink:title=" ">
<path fill="none" stroke="#63b8ff" d="M1014.67,-299.68C979.06,-289.74 916.69,-272.34 874.69,-260.62"/>
<polygon fill="#63b8ff" stroke="#63b8ff" points="875.71,-257.27 865.14,-257.96 873.83,-264.02 875.71,-257.27"/>
</a>
</g>
</g>
<!-- Node33 -->
<g id="Node000033" class="node">
<title>Node33</title>
<g id="a_Node000033"><a xlink:title=" ">
<polygon fill="#e0e0e0" stroke="#999999" points="1020.62,-257.12 919.88,-257.12 919.88,-237.88 1020.62,-237.88 1020.62,-257.12"/>
<text xml:space="preserve" text-anchor="middle" x="970.25" y="-243.62" font-family="Helvetica,sans-Serif" font-size="10.00">boost/uuid/uuid.hpp</text>
</a>
</g>
</g>
<!-- Node23&#45;&gt;Node33 -->
<g id="edge52_Node000023_Node000033" class="edge">
<title>Node23&#45;&gt;Node33</title>
<g id="a_edge52_Node000023_Node000033"><a xlink:title=" ">
<path fill="none" stroke="#63b8ff" d="M1031.31,-298.43C1020.43,-289.53 1003.46,-275.66 990.17,-264.79"/>
<polygon fill="#63b8ff" stroke="#63b8ff" points="992.42,-262.1 982.46,-258.48 987.99,-267.52 992.42,-262.1"/>
</a>
</g>
</g>
<!-- Node34 -->
<g id="Node000034" class="node">
<title>Node34</title>
<g id="a_Node000034"><a xlink:title=" ">
<polygon fill="#e0e0e0" stroke="#999999" points="1190.12,-257.12 1038.38,-257.12 1038.38,-237.88 1190.12,-237.88 1190.12,-257.12"/>
<text xml:space="preserve" text-anchor="middle" x="1114.25" y="-243.62" font-family="Helvetica,sans-Serif" font-size="10.00">boost/uuid/uuid_generators.hpp</text>
</a>
</g>
</g>
<!-- Node23&#45;&gt;Node34 -->
<g id="edge53_Node000023_Node000034" class="edge">
<title>Node23&#45;&gt;Node34</title>
<g id="a_edge53_Node000023_Node000034"><a xlink:title=" ">
<path fill="none" stroke="#63b8ff" d="M1053.19,-298.43C1064.07,-289.53 1081.04,-275.66 1094.33,-264.79"/>
<polygon fill="#63b8ff" stroke="#63b8ff" points="1096.51,-267.52 1102.04,-258.48 1092.08,-262.1 1096.51,-267.52"/>
</a>
</g>
</g>
<!-- Node35 -->
<g id="Node000035" class="node">
<title>Node35</title>
<g id="a_Node000035"><a xlink:title=" ">
<polygon fill="#e0e0e0" stroke="#999999" points="1322,-257.12 1208.5,-257.12 1208.5,-237.88 1322,-237.88 1322,-257.12"/>
<text xml:space="preserve" text-anchor="middle" x="1265.25" y="-243.62" font-family="Helvetica,sans-Serif" font-size="10.00">boost/uuid/uuid_io.hpp</text>
</a>
</g>
</g>
<!-- Node23&#45;&gt;Node35 -->
<g id="edge54_Node000023_Node000035" class="edge">
<title>Node23&#45;&gt;Node35</title>
<g id="a_edge54_Node000023_Node000035"><a xlink:title=" ">
<path fill="none" stroke="#63b8ff" d="M1070.04,-300.04C1107.61,-290.12 1175.04,-272.32 1219.98,-260.45"/>
<polygon fill="#63b8ff" stroke="#63b8ff" points="1220.64,-263.9 1229.42,-257.96 1218.86,-257.13 1220.64,-263.9"/>
</a>
</g>
</g>
<!-- Node36 -->
<g id="Node000036" class="node">
<title>Node36</title>
<g id="a_Node000036"><a xlink:title=" ">
<polygon fill="#e0e0e0" stroke="#999999" points="1460,-262.75 1340.5,-262.75 1340.5,-232.25 1460,-232.25 1460,-262.75"/>
<text xml:space="preserve" text-anchor="start" x="1348.5" y="-249.25" font-family="Helvetica,sans-Serif" font-size="10.00">boost/date_time/c_local</text>
<text xml:space="preserve" text-anchor="middle" x="1400.25" y="-238" font-family="Helvetica,sans-Serif" font-size="10.00">_time_adjustor.hpp</text>
</a>
</g>
</g>
<!-- Node23&#45;&gt;Node36 -->
<g id="edge55_Node000023_Node000036" class="edge">
<title>Node23&#45;&gt;Node36</title>
<g id="a_edge55_Node000023_Node000036"><a xlink:title=" ">
<path fill="none" stroke="#63b8ff" d="M1070.23,-303.53C1120.1,-296.58 1227.89,-281.1 1329.05,-263.09"/>
<polygon fill="#63b8ff" stroke="#63b8ff" points="1329.36,-266.59 1338.58,-261.38 1328.12,-259.7 1329.36,-266.59"/>
</a>
</g>
</g>
<!-- Node37&#45;&gt;Node6 -->
<g id="edge59_Node000037_Node000006" class="edge">
<title>Node37&#45;&gt;Node6</title>
<g id="a_edge59_Node000037_Node000006"><a xlink:title=" ">
<path fill="none" stroke="#63b8ff" d="M2007.55,-165.34C1956.34,-138.04 1839.99,-79.94 1734.25,-55.25 1607.15,-25.57 1197.7,-14.09 1078.25,-11.33"/>
<polygon fill="#63b8ff" stroke="#63b8ff" points="1078.58,-7.83 1068.51,-11.11 1078.43,-14.83 1078.58,-7.83"/>
</a>
</g>
</g>
<!-- Node37&#45;&gt;Node12 -->
<g id="edge61_Node000037_Node000012" class="edge">
<title>Node37&#45;&gt;Node12</title>
<g id="a_edge61_Node000037_Node000012"><a xlink:title=" ">
<path fill="none" stroke="#63b8ff" d="M1967.18,-166.99C1964.17,-166.54 1961.18,-166.12 1958.25,-165.75 1737.35,-137.52 1471.57,-126.27 1362.12,-122.62"/>
<polygon fill="#63b8ff" stroke="#63b8ff" points="1362.41,-119.13 1352.31,-122.3 1362.19,-126.12 1362.41,-119.13"/>
</a>
</g>
</g>
<!-- Node38 -->
<g id="Node000038" class="node">
<title>Node38</title>
<g id="a_Node000038"><a xlink:title=" ">
<polygon fill="#e0e0e0" stroke="#999999" points="2068.88,-129.75 1999.62,-129.75 1999.62,-110.5 2068.88,-110.5 2068.88,-129.75"/>
<text xml:space="preserve" text-anchor="middle" x="2034.25" y="-116.25" font-family="Helvetica,sans-Serif" font-size="10.00">H5Ppublic.h</text>
</a>
</g>
</g>
<!-- Node37&#45;&gt;Node38 -->
<g id="edge60_Node000037_Node000038" class="edge">
<title>Node37&#45;&gt;Node38</title>
<g id="a_edge60_Node000037_Node000038"><a xlink:title=" ">
<path fill="none" stroke="#63b8ff" d="M2034.25,-165.45C2034.25,-158.21 2034.25,-149.34 2034.25,-141.44"/>
<polygon fill="#63b8ff" stroke="#63b8ff" points="2037.75,-141.71 2034.25,-131.71 2030.75,-141.71 2037.75,-141.71"/>
</a>
</g>
</g>
<!-- Node39&#45;&gt;Node12 -->
<g id="edge63_Node000039_Node000012" class="edge">
<title>Node39&#45;&gt;Node12</title>
<g id="a_edge63_Node000039_Node000012"><a xlink:title=" ">
<path fill="none" stroke="#63b8ff" d="M1790.59,-171.28C1773.64,-169.44 1755.86,-167.52 1739.25,-165.75 1602.95,-151.23 1442.17,-134.6 1362.02,-126.34"/>
<polygon fill="#63b8ff" stroke="#63b8ff" points="1362.6,-122.89 1352.3,-125.34 1361.89,-129.85 1362.6,-122.89"/>
</a>
</g>
</g>
</g>
</svg>

<g id="navigator" transform="translate(0 0)" fill="#404254">
  <rect fill="#f2f5e9" fill-opacity="0.5" stroke="#606060" stroke-width=".5" x="0" y="0" width="60" height="60"/>
  <use id="zoomplus" xlink:href="#zoomPlus" x="17" y="9" onmousedown="handleZoom(evt,'in')"/>
  <use id="zoomminus" xlink:href="#zoomMin" x="42" y="9" onmousedown="handleZoom(evt,'out')"/>
  <use id="reset" xlink:href="#resetDef" x="30" y="36" onmousedown="handleReset()"/>
   <use id="arrowup" xlink:href="#arrowUp" x="0" y="0" onmousedown="handlePan(0,-1)"/>
  <use id="arrowright" xlink:href="#arrowRight" x="0" y="0" onmousedown="handlePan(1,0)"/>
  <use id="arrowdown" xlink:href="#arrowDown" x="0" y="0" onmousedown="handlePan(0,1)"/>
  <use id="arrowleft" xlink:href="#arrowLeft" x="0" y="0" onmousedown="handlePan(-1,0)"/>
</g>
<svg viewBox="0 0 15 15" width="100%" height="30px" preserveAspectRatio="xMaxYMin meet">
 <g id="arrow_out" transform="scale(0.3 0.3)">
  <a xlink:href="_h_d_f5_i_o_8cpp__incl_org.svg" target="_base">
   <rect id="button" ry="5" rx="5" y="6" x="6" height="38" width="38"
        fill="#f2f5e9" fill-opacity="0.5" stroke="#606060" stroke-width="1.0"/>
   <path id="arrow"
     d="M 11.500037,31.436501 C 11.940474,20.09759 22.043105,11.32322 32.158766,21.979434 L 37.068811,17.246167 C 37.068811,17.246167 37.088388,32 37.088388,32 L 22.160133,31.978069 C 22.160133,31.978069 26.997745,27.140456 26.997745,27.140456 C 18.528582,18.264221 13.291696,25.230495 11.500037,31.436501 z"
     style="fill:#404040;"/>
  </a>
 </g>
</svg>

<style type='text/css'>
<![CDATA[
[data-mouse-over-selected='false'] { opacity: 0.7; }
[data-mouse-over-selected='true']  { opacity: 1.0; }
]]>
</style>
<script type="application/ecmascript"><![CDATA[
document.addEventListener('DOMContentLoaded', (event) => {
  highlightEdges();
  highlightAdjacentNodes();
});
]]></script>
</svg>
