<?xml version="1.0" encoding="UTF-8" standalone="no"?>
<!DOCTYPE svg PUBLIC "-//W3C//DTD SVG 1.1//EN"
 "http://www.w3.org/Graphics/SVG/1.1/DTD/svg11.dtd">
<!-- Generated by graphviz version 14.1.2 (20260124.0452)
 -->
<!-- Title: src/io/hdf5/HDF5RecordingData.cpp Pages: 1 -->
<svg width="1207pt" height="370pt"
 viewBox="0.00 0.00 1207.00 370.00" xmlns="http://www.w3.org/2000/svg" xmlns:xlink="http://www.w3.org/1999/xlink">
<g id="graph0" class="graph" transform="scale(1 1) rotate(0) translate(4 366)">
<title>src/io/hdf5/HDF5RecordingData.cpp</title>
<!-- Node1 -->
<g id="Node000001" class="node">
<title>Node1</title>
<g id="a_Node000001"><a xlink:title=" ">
<polygon fill="#999999" stroke="#666666" points="785.88,-362 650.62,-362 650.62,-331.5 785.88,-331.5 785.88,-362"/>
<text xml:space="preserve" text-anchor="start" x="658.62" y="-348.5" font-family="Helvetica,sans-Serif" font-size="10.00">src/io/hdf5/HDF5Recording</text>
<text xml:space="preserve" text-anchor="middle" x="718.25" y="-337.25" font-family="Helvetica,sans-Serif" font-size="10.00">Data.cpp</text>
</a>
</g>
</g>
<!-- Node2 -->
<g id="Node000002" class="node">
<title>Node2</title>
<g id="a_Node000002"><a xlink:title=" ">
<polygon fill="#e0e0e0" stroke="#999999" points="50.5,-295.5 0,-295.5 0,-276.25 50.5,-276.25 50.5,-295.5"/>
<text xml:space="preserve" text-anchor="middle" x="25.25" y="-282" font-family="Helvetica,sans-Serif" font-size="10.00">codecvt</text>
</a>
</g>
</g>
<!-- Node1&#45;&gt;Node2 -->
<g id="edge1_Node000001_Node000002" class="edge">
<title>Node1&#45;&gt;Node2</title>
<g id="a_edge1_Node000001_Node000002"><a xlink:title=" ">
<path fill="none" stroke="#63b8ff" d="M650.44,-344.43C532.46,-341.28 281.77,-330.89 61.88,-295.66"/>
<polygon fill="#63b8ff" stroke="#63b8ff" points="62.7,-292.24 52.26,-294.09 61.57,-299.15 62.7,-292.24"/>
</a>
</g>
</g>
<!-- Node3 -->
<g id="Node000003" class="node">
<title>Node3</title>
<g id="a_Node000003"><a xlink:title=" ">
<polygon fill="#e0e0e0" stroke="#999999" points="113.88,-295.5 68.62,-295.5 68.62,-276.25 113.88,-276.25 113.88,-295.5"/>
<text xml:space="preserve" text-anchor="middle" x="91.25" y="-282" font-family="Helvetica,sans-Serif" font-size="10.00">cstring</text>
</a>
</g>
</g>
<!-- Node1&#45;&gt;Node3 -->
<g id="edge2_Node000001_Node000003" class="edge">
<title>Node1&#45;&gt;Node3</title>
<g id="a_edge2_Node000001_Node000003"><a xlink:title=" ">
<path fill="none" stroke="#63b8ff" d="M650.23,-344.15C541.11,-340.68 320.2,-329.93 125.47,-295.78"/>
<polygon fill="#63b8ff" stroke="#63b8ff" points="126.11,-292.34 115.65,-294.03 124.88,-299.23 126.11,-292.34"/>
</a>
</g>
</g>
<!-- Node4 -->
<g id="Node000004" class="node">
<title>Node4</title>
<g id="a_Node000004"><a xlink:title=" ">
<polygon fill="#e0e0e0" stroke="#999999" points="192.75,-295.5 131.75,-295.5 131.75,-276.25 192.75,-276.25 192.75,-295.5"/>
<text xml:space="preserve" text-anchor="middle" x="162.25" y="-282" font-family="Helvetica,sans-Serif" font-size="10.00">filesystem</text>
</a>
</g>
</g>
<!-- Node1&#45;&gt;Node4 -->
<g id="edge3_Node000001_Node000004" class="edge">
<title>Node1&#45;&gt;Node4</title>
<g id="a_edge3_Node000001_Node000004"><a xlink:title=" ">
<path fill="none" stroke="#63b8ff" d="M650.23,-341.05C552.08,-333.81 365.17,-318.35 207.25,-295.5 206.25,-295.36 205.24,-295.2 204.22,-295.05"/>
<polygon fill="#63b8ff" stroke="#63b8ff" points="205.11,-291.65 194.67,-293.44 203.95,-298.55 205.11,-291.65"/>
</a>
</g>
</g>
<!-- Node5 -->
<g id="Node000005" class="node">
<title>Node5</title>
<g id="a_Node000005"><a xlink:title=" ">
<polygon fill="#e0e0e0" stroke="#999999" points="1164,-74.5 1110.5,-74.5 1110.5,-55.25 1164,-55.25 1164,-74.5"/>
<text xml:space="preserve" text-anchor="middle" x="1137.25" y="-61" font-family="Helvetica,sans-Serif" font-size="10.00">iostream</text>
</a>
</g>
</g>
<!-- Node1&#45;&gt;Node5 -->
<g id="edge4_Node000001_Node000005" class="edge">
<title>Node1&#45;&gt;Node5</title>
<g id="a_edge4_Node000001_Node000005"><a xlink:title=" ">
<path fill="none" stroke="#63b8ff" d="M742.26,-331.12C787.54,-303.39 888.46,-240.94 971.25,-185 1024.29,-149.16 1085.05,-104.65 1116.28,-81.51"/>
<polygon fill="#63b8ff" stroke="#63b8ff" points="1118.18,-84.45 1124.12,-75.68 1114,-78.83 1118.18,-84.45"/>
</a>
</g>
</g>
<!-- Node6 -->
<g id="Node000006" class="node">
<title>Node6</title>
<g id="a_Node000006"><a xlink:title=" ">
<polygon fill="#e0e0e0" stroke="#999999" points="242.88,-74.5 191.62,-74.5 191.62,-55.25 242.88,-55.25 242.88,-74.5"/>
<text xml:space="preserve" text-anchor="middle" x="217.25" y="-61" font-family="Helvetica,sans-Serif" font-size="10.00">memory</text>
</a>
</g>
</g>
<!-- Node1&#45;&gt;Node6 -->
<g id="edge5_Node000001_Node000006" class="edge">
<title>Node1&#45;&gt;Node6</title>
<g id="a_edge5_Node000001_Node000006"><a xlink:title=" ">
<path fill="none" stroke="#63b8ff" d="M650.31,-337.18C486.78,-316.25 83.25,-262.56 64.25,-240.25 26.77,-196.24 35.7,-154.45 73.25,-110.5 99.64,-79.62 146.96,-69.78 180.13,-66.82"/>
<polygon fill="#63b8ff" stroke="#63b8ff" points="179.98,-70.34 189.7,-66.14 179.48,-63.36 179.98,-70.34"/>
</a>
</g>
</g>
<!-- Node7 -->
<g id="Node000007" class="node">
<title>Node7</title>
<g id="a_Node000007"><a xlink:title=" ">
<polygon fill="#e0e0e0" stroke="#999999" points="689.75,-19.25 646.75,-19.25 646.75,0 689.75,0 689.75,-19.25"/>
<text xml:space="preserve" text-anchor="middle" x="668.25" y="-5.75" font-family="Helvetica,sans-Serif" font-size="10.00">vector</text>
</a>
</g>
</g>
<!-- Node1&#45;&gt;Node7 -->
<g id="edge6_Node000001_Node000007" class="edge">
<title>Node1&#45;&gt;Node7</title>
<g id="a_edge6_Node000001_Node000007"><a xlink:title=" ">
<path fill="none" stroke="#63b8ff" d="M786.13,-342.46C907.01,-336.02 1149.69,-320.15 1179.25,-295.5 1202,-276.53 1198.25,-261.24 1198.25,-231.62 1198.25,-231.62 1198.25,-231.62 1198.25,-119.12 1198.25,-88.64 1197.65,-73.53 1173.25,-55.25 1135.56,-27.02 807.99,-14.8 701.52,-11.55"/>
<polygon fill="#63b8ff" stroke="#63b8ff" points="701.84,-8.06 691.74,-11.26 701.63,-15.06 701.84,-8.06"/>
</a>
</g>
</g>
<!-- Node8 -->
<g id="Node000008" class="node">
<title>Node8</title>
<g id="a_Node000008"><a xlink:href="_h_d_f5_recording_data_8hpp.html" target="_top" xlink:title=" ">
<polygon fill="white" stroke="#666666" points="936.5,-185 778,-185 778,-165.75 936.5,-165.75 936.5,-185"/>
<text xml:space="preserve" text-anchor="middle" x="857.25" y="-171.5" font-family="Helvetica,sans-Serif" font-size="10.00">io/hdf5/HDF5RecordingData.hpp</text>
</a>
</g>
</g>
<!-- Node1&#45;&gt;Node8 -->
<g id="edge7_Node000001_Node000008" class="edge">
<title>Node1&#45;&gt;Node8</title>
<g id="a_edge7_Node000001_Node000008"><a xlink:title=" ">
<path fill="none" stroke="#63b8ff" d="M730.34,-331.02C755.83,-299.96 814.99,-227.87 842.59,-194.24"/>
<polygon fill="#63b8ff" stroke="#63b8ff" points="845.18,-196.61 848.81,-186.66 839.76,-192.16 845.18,-196.61"/>
</a>
</g>
</g>
<!-- Node20 -->
<g id="Node000020" class="node">
<title>Node20</title>
<g id="a_Node000020"><a xlink:title=" ">
<polygon fill="#e0e0e0" stroke="#999999" points="1083.75,-295.5 1028.75,-295.5 1028.75,-276.25 1083.75,-276.25 1083.75,-295.5"/>
<text xml:space="preserve" text-anchor="middle" x="1056.25" y="-282" font-family="Helvetica,sans-Serif" font-size="10.00">H5Cpp.h</text>
</a>
</g>
</g>
<!-- Node1&#45;&gt;Node20 -->
<g id="edge23_Node000001_Node000020" class="edge">
<title>Node1&#45;&gt;Node20</title>
<g id="a_edge23_Node000001_Node000020"><a xlink:title=" ">
<path fill="none" stroke="#63b8ff" d="M786.26,-334.89C846.33,-325.13 936.25,-310.13 1014.25,-295.5 1015.24,-295.31 1016.25,-295.12 1017.26,-294.93"/>
<polygon fill="#63b8ff" stroke="#63b8ff" points="1017.64,-298.42 1026.78,-293.05 1016.29,-291.55 1017.64,-298.42"/>
</a>
</g>
</g>
<!-- Node21 -->
<g id="Node000021" class="node">
<title>Node21</title>
<g id="a_Node000021"><a xlink:title=" ">
<polygon fill="#e0e0e0" stroke="#999999" points="1170.5,-295.5 1102,-295.5 1102,-276.25 1170.5,-276.25 1170.5,-295.5"/>
<text xml:space="preserve" text-anchor="middle" x="1136.25" y="-282" font-family="Helvetica,sans-Serif" font-size="10.00">H5Fpublic.h</text>
</a>
</g>
</g>
<!-- Node1&#45;&gt;Node21 -->
<g id="edge24_Node000001_Node000021" class="edge">
<title>Node1&#45;&gt;Node21</title>
<g id="a_edge24_Node000001_Node000021"><a xlink:title=" ">
<path fill="none" stroke="#63b8ff" d="M786.19,-337.99C859.04,-329.36 978.35,-314.37 1090.39,-295.89"/>
<polygon fill="#63b8ff" stroke="#63b8ff" points="1090.77,-299.38 1100.06,-294.28 1089.62,-292.47 1090.77,-299.38"/>
</a>
</g>
</g>
<!-- Node22 -->
<g id="Node000022" class="node">
<title>Node22</title>
<g id="a_Node000022"><a xlink:href="_utils_8hpp.html" target="_top" xlink:title=" ">
<polygon fill="white" stroke="#666666" points="478.75,-295.5 423.75,-295.5 423.75,-276.25 478.75,-276.25 478.75,-295.5"/>
<text xml:space="preserve" text-anchor="middle" x="451.25" y="-282" font-family="Helvetica,sans-Serif" font-size="10.00">Utils.hpp</text>
</a>
</g>
</g>
<!-- Node1&#45;&gt;Node22 -->
<g id="edge25_Node000001_Node000022" class="edge">
<title>Node1&#45;&gt;Node22</title>
<g id="a_edge25_Node000001_Node000022"><a xlink:title=" ">
<path fill="none" stroke="#63b8ff" d="M651.56,-331.05C600.74,-319.84 532.5,-304.79 490.23,-295.47"/>
<polygon fill="#63b8ff" stroke="#63b8ff" points="491.03,-292.06 480.51,-293.33 489.52,-298.9 491.03,-292.06"/>
</a>
</g>
</g>
<!-- Node9 -->
<g id="Node000009" class="node">
<title>Node9</title>
<g id="a_Node000009"><a xlink:href="_base_i_o_8hpp.html" target="_top" xlink:title=" ">
<polygon fill="white" stroke="#666666" points="850.38,-129.75 772.12,-129.75 772.12,-110.5 850.38,-110.5 850.38,-129.75"/>
<text xml:space="preserve" text-anchor="middle" x="811.25" y="-116.25" font-family="Helvetica,sans-Serif" font-size="10.00">io/BaseIO.hpp</text>
</a>
</g>
</g>
<!-- Node8&#45;&gt;Node9 -->
<g id="edge8_Node000008_Node000009" class="edge">
<title>Node8&#45;&gt;Node9</title>
<g id="a_edge8_Node000008_Node000009"><a xlink:title=" ">
<path fill="none" stroke="#63b8ff" d="M849.65,-165.58C843.37,-158.3 834.24,-147.73 826.45,-138.73"/>
<polygon fill="#63b8ff" stroke="#63b8ff" points="829.19,-136.53 820,-131.25 823.89,-141.11 829.19,-136.53"/>
</a>
</g>
</g>
<!-- Node9&#45;&gt;Node5 -->
<g id="edge11_Node000009_Node000005" class="edge">
<title>Node9&#45;&gt;Node5</title>
<g id="a_edge11_Node000009_Node000005"><a xlink:title=" ">
<path fill="none" stroke="#63b8ff" d="M850.51,-114.24C904.46,-107.28 1004.76,-93.45 1099.01,-75.01"/>
<polygon fill="#63b8ff" stroke="#63b8ff" points="1099.56,-78.47 1108.69,-73.1 1098.2,-71.61 1099.56,-78.47"/>
</a>
</g>
</g>
<!-- Node9&#45;&gt;Node6 -->
<g id="edge12_Node000009_Node000006" class="edge">
<title>Node9&#45;&gt;Node6</title>
<g id="a_edge12_Node000009_Node000006"><a xlink:title=" ">
<path fill="none" stroke="#63b8ff" d="M771.81,-116.01C685.53,-109.13 473.55,-91.86 296.25,-74.5 282.55,-73.16 267.53,-71.55 254.3,-70.09"/>
<polygon fill="#63b8ff" stroke="#63b8ff" points="255.04,-66.65 244.71,-69.02 254.26,-73.61 255.04,-66.65"/>
</a>
</g>
</g>
<!-- Node9&#45;&gt;Node7 -->
<g id="edge18_Node000009_Node000007" class="edge">
<title>Node9&#45;&gt;Node7</title>
<g id="a_edge18_Node000009_Node000007"><a xlink:title=" ">
<path fill="none" stroke="#63b8ff" d="M802.67,-110.28C789.92,-97.39 764.93,-73.03 741.25,-55.25 726.53,-44.2 708.96,-33.39 694.74,-25.18"/>
<polygon fill="#63b8ff" stroke="#63b8ff" points="696.81,-22.33 686.39,-20.44 693.36,-28.42 696.81,-22.33"/>
</a>
</g>
</g>
<!-- Node10 -->
<g id="Node000010" class="node">
<title>Node10</title>
<g id="a_Node000010"><a xlink:title=" ">
<polygon fill="#e0e0e0" stroke="#999999" points="732.12,-74.5 700.38,-74.5 700.38,-55.25 732.12,-55.25 732.12,-74.5"/>
<text xml:space="preserve" text-anchor="middle" x="716.25" y="-61" font-family="Helvetica,sans-Serif" font-size="10.00">any</text>
</a>
</g>
</g>
<!-- Node9&#45;&gt;Node10 -->
<g id="edge9_Node000009_Node000010" class="edge">
<title>Node9&#45;&gt;Node10</title>
<g id="a_edge9_Node000009_Node000010"><a xlink:title=" ">
<path fill="none" stroke="#63b8ff" d="M795.13,-110.09C780.67,-101.98 759.17,-89.93 742.27,-80.46"/>
<polygon fill="#63b8ff" stroke="#63b8ff" points="744.2,-77.53 733.76,-75.69 740.78,-83.64 744.2,-77.53"/>
</a>
</g>
</g>
<!-- Node11 -->
<g id="Node000011" class="node">
<title>Node11</title>
<g id="a_Node000011"><a xlink:title=" ">
<polygon fill="#e0e0e0" stroke="#999999" points="1092.88,-74.5 1047.62,-74.5 1047.62,-55.25 1092.88,-55.25 1092.88,-74.5"/>
<text xml:space="preserve" text-anchor="middle" x="1070.25" y="-61" font-family="Helvetica,sans-Serif" font-size="10.00">cstdint</text>
</a>
</g>
</g>
<!-- Node9&#45;&gt;Node11 -->
<g id="edge10_Node000009_Node000011" class="edge">
<title>Node9&#45;&gt;Node11</title>
<g id="a_edge10_Node000009_Node000011"><a xlink:title=" ">
<path fill="none" stroke="#63b8ff" d="M850.58,-112.39C893.96,-104.75 966.03,-91.44 1036.45,-75.03"/>
<polygon fill="#63b8ff" stroke="#63b8ff" points="1036.87,-78.53 1045.81,-72.83 1035.27,-71.71 1036.87,-78.53"/>
</a>
</g>
</g>
<!-- Node12 -->
<g id="Node000012" class="node">
<title>Node12</title>
<g id="a_Node000012"><a xlink:title=" ">
<polygon fill="#e0e0e0" stroke="#999999" points="345.25,-74.5 305.25,-74.5 305.25,-55.25 345.25,-55.25 345.25,-74.5"/>
<text xml:space="preserve" text-anchor="middle" x="325.25" y="-61" font-family="Helvetica,sans-Serif" font-size="10.00">string</text>
</a>
</g>
</g>
<!-- Node9&#45;&gt;Node12 -->
<g id="edge13_Node000009_Node000012" class="edge">
<title>Node9&#45;&gt;Node12</title>
<g id="a_edge13_Node000009_Node000012"><a xlink:title=" ">
<path fill="none" stroke="#63b8ff" d="M771.89,-114.81C677.99,-104.52 442.34,-78.7 356.85,-69.34"/>
<polygon fill="#63b8ff" stroke="#63b8ff" points="357.42,-65.88 347.1,-68.27 356.66,-72.84 357.42,-65.88"/>
</a>
</g>
</g>
<!-- Node13 -->
<g id="Node000013" class="node">
<title>Node13</title>
<g id="a_Node000013"><a xlink:title=" ">
<polygon fill="#e0e0e0" stroke="#999999" points="682.25,-74.5 624.25,-74.5 624.25,-55.25 682.25,-55.25 682.25,-74.5"/>
<text xml:space="preserve" text-anchor="middle" x="653.25" y="-61" font-family="Helvetica,sans-Serif" font-size="10.00">typeindex</text>
</a>
</g>
</g>
<!-- Node9&#45;&gt;Node13 -->
<g id="edge14_Node000009_Node000013" class="edge">
<title>Node9&#45;&gt;Node13</title>
<g id="a_edge14_Node000009_Node000013"><a xlink:title=" ">
<path fill="none" stroke="#63b8ff" d="M784.45,-110.09C758.8,-101.45 719.86,-88.32 691.06,-78.62"/>
<polygon fill="#63b8ff" stroke="#63b8ff" points="692.21,-75.31 681.62,-75.44 689.98,-81.95 692.21,-75.31"/>
</a>
</g>
</g>
<!-- Node14 -->
<g id="Node000014" class="node">
<title>Node14</title>
<g id="a_Node000014"><a xlink:title=" ">
<polygon fill="#e0e0e0" stroke="#999999" points="934.62,-74.5 851.88,-74.5 851.88,-55.25 934.62,-55.25 934.62,-74.5"/>
<text xml:space="preserve" text-anchor="middle" x="893.25" y="-61" font-family="Helvetica,sans-Serif" font-size="10.00">unordered_map</text>
</a>
</g>
</g>
<!-- Node9&#45;&gt;Node14 -->
<g id="edge15_Node000009_Node000014" class="edge">
<title>Node9&#45;&gt;Node14</title>
<g id="a_edge15_Node000009_Node000014"><a xlink:title=" ">
<path fill="none" stroke="#63b8ff" d="M825.16,-110.09C837.41,-102.14 855.5,-90.39 869.96,-81"/>
<polygon fill="#63b8ff" stroke="#63b8ff" points="871.52,-84.16 878,-75.78 867.71,-78.29 871.52,-84.16"/>
</a>
</g>
</g>
<!-- Node15 -->
<g id="Node000015" class="node">
<title>Node15</title>
<g id="a_Node000015"><a xlink:title=" ">
<polygon fill="#e0e0e0" stroke="#999999" points="1030,-74.5 952.5,-74.5 952.5,-55.25 1030,-55.25 1030,-74.5"/>
<text xml:space="preserve" text-anchor="middle" x="991.25" y="-61" font-family="Helvetica,sans-Serif" font-size="10.00">unordered_set</text>
</a>
</g>
</g>
<!-- Node9&#45;&gt;Node15 -->
<g id="edge16_Node000009_Node000015" class="edge">
<title>Node9&#45;&gt;Node15</title>
<g id="a_edge16_Node000009_Node000015"><a xlink:title=" ">
<path fill="none" stroke="#63b8ff" d="M841.78,-110.09C871.52,-101.29 916.94,-87.86 949.9,-78.11"/>
<polygon fill="#63b8ff" stroke="#63b8ff" points="950.52,-81.57 959.11,-75.38 948.53,-74.86 950.52,-81.57"/>
</a>
</g>
</g>
<!-- Node16 -->
<g id="Node000016" class="node">
<title>Node16</title>
<g id="a_Node000016"><a xlink:title=" ">
<polygon fill="#e0e0e0" stroke="#999999" points="833.88,-74.5 788.62,-74.5 788.62,-55.25 833.88,-55.25 833.88,-74.5"/>
<text xml:space="preserve" text-anchor="middle" x="811.25" y="-61" font-family="Helvetica,sans-Serif" font-size="10.00">variant</text>
</a>
</g>
</g>
<!-- Node9&#45;&gt;Node16 -->
<g id="edge17_Node000009_Node000016" class="edge">
<title>Node9&#45;&gt;Node16</title>
<g id="a_edge17_Node000009_Node000016"><a xlink:title=" ">
<path fill="none" stroke="#63b8ff" d="M811.25,-110.33C811.25,-103.82 811.25,-94.67 811.25,-86.37"/>
<polygon fill="#63b8ff" stroke="#63b8ff" points="814.75,-86.37 811.25,-76.37 807.75,-86.37 814.75,-86.37"/>
</a>
</g>
</g>
<!-- Node17 -->
<g id="Node000017" class="node">
<title>Node17</title>
<g id="a_Node000017"><a xlink:href="_types_8hpp.html" target="_top" xlink:title=" ">
<polygon fill="white" stroke="#666666" points="526.75,-74.5 465.75,-74.5 465.75,-55.25 526.75,-55.25 526.75,-74.5"/>
<text xml:space="preserve" text-anchor="middle" x="496.25" y="-61" font-family="Helvetica,sans-Serif" font-size="10.00">Types.hpp</text>
</a>
</g>
</g>
<!-- Node9&#45;&gt;Node17 -->
<g id="edge19_Node000009_Node000017" class="edge">
<title>Node9&#45;&gt;Node17</title>
<g id="a_edge19_Node000009_Node000017"><a xlink:title=" ">
<path fill="none" stroke="#63b8ff" d="M771.67,-112.43C711.91,-102.33 599.14,-83.27 538.07,-72.95"/>
<polygon fill="#63b8ff" stroke="#63b8ff" points="538.87,-69.53 528.43,-71.32 537.71,-76.43 538.87,-69.53"/>
</a>
</g>
</g>
<!-- Node17&#45;&gt;Node7 -->
<g id="edge22_Node000017_Node000007" class="edge">
<title>Node17&#45;&gt;Node7</title>
<g id="a_edge22_Node000017_Node000007"><a xlink:title=" ">
<path fill="none" stroke="#63b8ff" d="M525.43,-54.84C555.9,-45.41 603.61,-30.64 635.39,-20.8"/>
<polygon fill="#63b8ff" stroke="#63b8ff" points="636.35,-24.16 644.87,-17.86 634.28,-17.48 636.35,-24.16"/>
</a>
</g>
</g>
<!-- Node18 -->
<g id="Node000018" class="node">
<title>Node18</title>
<g id="a_Node000018"><a xlink:title=" ">
<polygon fill="#e0e0e0" stroke="#999999" points="489.38,-19.25 441.12,-19.25 441.12,0 489.38,0 489.38,-19.25"/>
<text xml:space="preserve" text-anchor="middle" x="465.25" y="-5.75" font-family="Helvetica,sans-Serif" font-size="10.00">cstddef</text>
</a>
</g>
</g>
<!-- Node17&#45;&gt;Node18 -->
<g id="edge20_Node000017_Node000018" class="edge">
<title>Node17&#45;&gt;Node18</title>
<g id="a_edge20_Node000017_Node000018"><a xlink:title=" ">
<path fill="none" stroke="#63b8ff" d="M491.13,-55.08C487.07,-48.11 481.26,-38.12 476.16,-29.37"/>
<polygon fill="#63b8ff" stroke="#63b8ff" points="479.3,-27.8 471.24,-20.92 473.25,-31.32 479.3,-27.8"/>
</a>
</g>
</g>
<!-- Node19 -->
<g id="Node000019" class="node">
<title>Node19</title>
<g id="a_Node000019"><a xlink:title=" ">
<polygon fill="#e0e0e0" stroke="#999999" points="546.88,-19.25 507.62,-19.25 507.62,0 546.88,0 546.88,-19.25"/>
<text xml:space="preserve" text-anchor="middle" x="527.25" y="-5.75" font-family="Helvetica,sans-Serif" font-size="10.00">limits</text>
</a>
</g>
</g>
<!-- Node17&#45;&gt;Node19 -->
<g id="edge21_Node000017_Node000019" class="edge">
<title>Node17&#45;&gt;Node19</title>
<g id="a_edge21_Node000017_Node000019"><a xlink:title=" ">
<path fill="none" stroke="#63b8ff" d="M501.37,-55.08C505.43,-48.11 511.24,-38.12 516.34,-29.37"/>
<polygon fill="#63b8ff" stroke="#63b8ff" points="519.25,-31.32 521.26,-20.92 513.2,-27.8 519.25,-31.32"/>
</a>
</g>
</g>
<!-- Node22&#45;&gt;Node9 -->
<g id="edge37_Node000022_Node000009" class="edge">
<title>Node22&#45;&gt;Node9</title>
<g id="a_edge37_Node000022_Node000009"><a xlink:title=" ">
<path fill="none" stroke="#63b8ff" d="M479.12,-285.03C526.05,-284.19 622.62,-277.58 693.25,-240.25 699.48,-236.95 763.89,-170.39 794.83,-138.23"/>
<polygon fill="#63b8ff" stroke="#63b8ff" points="797.14,-140.88 801.55,-131.24 792.09,-136.03 797.14,-140.88"/>
</a>
</g>
</g>
<!-- Node22&#45;&gt;Node11 -->
<g id="edge30_Node000022_Node000011" class="edge">
<title>Node22&#45;&gt;Node11</title>
<g id="a_edge30_Node000022_Node000011"><a xlink:title=" ">
<path fill="none" stroke="#63b8ff" d="M478.84,-283.4C537.72,-279.78 679.75,-268.63 795.25,-240.25 864.24,-223.3 885.87,-224 945.25,-185 983.48,-159.89 982.78,-141.68 1016.25,-110.5 1027.01,-100.47 1039.66,-89.96 1050.01,-81.65"/>
<polygon fill="#63b8ff" stroke="#63b8ff" points="1051.9,-84.62 1057.56,-75.67 1047.55,-79.14 1051.9,-84.62"/>
</a>
</g>
</g>
<!-- Node22&#45;&gt;Node12 -->
<g id="edge36_Node000022_Node000012" class="edge">
<title>Node22&#45;&gt;Node12</title>
<g id="a_edge36_Node000022_Node000012"><a xlink:title=" ">
<path fill="none" stroke="#63b8ff" d="M455.37,-276.06C460.74,-263.21 468.42,-238.9 459.25,-221 446.77,-196.63 430.01,-202.86 409.25,-185 383.22,-162.61 374.82,-157.96 355.25,-129.75 345.63,-115.88 337.67,-98.43 332.37,-85.28"/>
<polygon fill="#63b8ff" stroke="#63b8ff" points="335.68,-84.13 328.83,-76.04 329.15,-86.63 335.68,-84.13"/>
</a>
</g>
</g>
<!-- Node23 -->
<g id="Node000023" class="node">
<title>Node23</title>
<g id="a_Node000023"><a xlink:title=" ">
<polygon fill="#e0e0e0" stroke="#999999" points="684.12,-240.25 628.38,-240.25 628.38,-221 684.12,-221 684.12,-240.25"/>
<text xml:space="preserve" text-anchor="middle" x="656.25" y="-226.75" font-family="Helvetica,sans-Serif" font-size="10.00">algorithm</text>
</a>
</g>
</g>
<!-- Node22&#45;&gt;Node23 -->
<g id="edge26_Node000022_Node000023" class="edge">
<title>Node22&#45;&gt;Node23</title>
<g id="a_edge26_Node000022_Node000023"><a xlink:title=" ">
<path fill="none" stroke="#63b8ff" d="M478.9,-277.69C514.48,-268.45 576.54,-252.33 617,-241.82"/>
<polygon fill="#63b8ff" stroke="#63b8ff" points="617.79,-245.23 626.59,-239.33 616.03,-238.46 617.79,-245.23"/>
</a>
</g>
</g>
<!-- Node24 -->
<g id="Node000024" class="node">
<title>Node24</title>
<g id="a_Node000024"><a xlink:title=" ">
<polygon fill="#e0e0e0" stroke="#999999" points="120.12,-129.75 82.38,-129.75 82.38,-110.5 120.12,-110.5 120.12,-129.75"/>
<text xml:space="preserve" text-anchor="middle" x="101.25" y="-116.25" font-family="Helvetica,sans-Serif" font-size="10.00">array</text>
</a>
</g>
</g>
<!-- Node22&#45;&gt;Node24 -->
<g id="edge27_Node000022_Node000024" class="edge">
<title>Node22&#45;&gt;Node24</title>
<g id="a_edge27_Node000022_Node000024"><a xlink:title=" ">
<path fill="none" stroke="#63b8ff" d="M423.36,-283.64C340.51,-279.7 100.2,-266.11 77.25,-240.25 52.37,-212.23 73.57,-165.74 88.88,-139.9"/>
<polygon fill="#63b8ff" stroke="#63b8ff" points="91.81,-141.83 94.13,-131.49 85.87,-138.12 91.81,-141.83"/>
</a>
</g>
</g>
<!-- Node25 -->
<g id="Node000025" class="node">
<title>Node25</title>
<g id="a_Node000025"><a xlink:title=" ">
<polygon fill="#e0e0e0" stroke="#999999" points="785.88,-240.25 740.62,-240.25 740.62,-221 785.88,-221 785.88,-240.25"/>
<text xml:space="preserve" text-anchor="middle" x="763.25" y="-226.75" font-family="Helvetica,sans-Serif" font-size="10.00">chrono</text>
</a>
</g>
</g>
<!-- Node22&#45;&gt;Node25 -->
<g id="edge28_Node000022_Node000025" class="edge">
<title>Node22&#45;&gt;Node25</title>
<g id="a_edge28_Node000022_Node000025"><a xlink:title=" ">
<path fill="none" stroke="#63b8ff" d="M479.08,-281C528.85,-273.93 636.33,-258 726.25,-240.25 727.24,-240.05 728.25,-239.85 729.26,-239.64"/>
<polygon fill="#63b8ff" stroke="#63b8ff" points="729.71,-243.13 738.73,-237.57 728.21,-236.29 729.71,-243.13"/>
</a>
</g>
</g>
<!-- Node26 -->
<g id="Node000026" class="node">
<title>Node26</title>
<g id="a_Node000026"><a xlink:title=" ">
<polygon fill="#e0e0e0" stroke="#999999" points="129.75,-240.25 86.75,-240.25 86.75,-221 129.75,-221 129.75,-240.25"/>
<text xml:space="preserve" text-anchor="middle" x="108.25" y="-226.75" font-family="Helvetica,sans-Serif" font-size="10.00">cmath</text>
</a>
</g>
</g>
<!-- Node22&#45;&gt;Node26 -->
<g id="edge29_Node000022_Node000026" class="edge">
<title>Node22&#45;&gt;Node26</title>
<g id="a_edge29_Node000022_Node000026"><a xlink:title=" ">
<path fill="none" stroke="#63b8ff" d="M423.49,-282.12C370.51,-276.61 251.16,-262.96 141.14,-240.39"/>
<polygon fill="#63b8ff" stroke="#63b8ff" points="142.16,-237.03 131.66,-238.41 140.74,-243.88 142.16,-237.03"/>
</a>
</g>
</g>
<!-- Node27 -->
<g id="Node000027" class="node">
<title>Node27</title>
<g id="a_Node000027"><a xlink:title=" ">
<polygon fill="#e0e0e0" stroke="#999999" points="188.25,-240.25 148.25,-240.25 148.25,-221 188.25,-221 188.25,-240.25"/>
<text xml:space="preserve" text-anchor="middle" x="168.25" y="-226.75" font-family="Helvetica,sans-Serif" font-size="10.00">ctime</text>
</a>
</g>
</g>
<!-- Node22&#45;&gt;Node27 -->
<g id="edge31_Node000022_Node000027" class="edge">
<title>Node22&#45;&gt;Node27</title>
<g id="a_edge31_Node000022_Node000027"><a xlink:title=" ">
<path fill="none" stroke="#63b8ff" d="M423.6,-281.08C378.63,-274.69 286.69,-260.67 199.6,-240.57"/>
<polygon fill="#63b8ff" stroke="#63b8ff" points="200.46,-237.18 189.93,-238.3 198.86,-243.99 200.46,-237.18"/>
</a>
</g>
</g>
<!-- Node28 -->
<g id="Node000028" class="node">
<title>Node28</title>
<g id="a_Node000028"><a xlink:title=" ">
<polygon fill="#e0e0e0" stroke="#999999" points="256.12,-240.25 206.38,-240.25 206.38,-221 256.12,-221 256.12,-240.25"/>
<text xml:space="preserve" text-anchor="middle" x="231.25" y="-226.75" font-family="Helvetica,sans-Serif" font-size="10.00">iomanip</text>
</a>
</g>
</g>
<!-- Node22&#45;&gt;Node28 -->
<g id="edge32_Node000022_Node000028" class="edge">
<title>Node22&#45;&gt;Node28</title>
<g id="a_edge32_Node000022_Node000028"><a xlink:title=" ">
<path fill="none" stroke="#63b8ff" d="M423.49,-278.33C389.18,-270.22 328.7,-255.84 267.52,-240.79"/>
<polygon fill="#63b8ff" stroke="#63b8ff" points="268.51,-237.43 257.96,-238.43 266.83,-244.22 268.51,-237.43"/>
</a>
</g>
</g>
<!-- Node29 -->
<g id="Node000029" class="node">
<title>Node29</title>
<g id="a_Node000029"><a xlink:title=" ">
<polygon fill="#e0e0e0" stroke="#999999" points="322.38,-240.25 274.12,-240.25 274.12,-221 322.38,-221 322.38,-240.25"/>
<text xml:space="preserve" text-anchor="middle" x="298.25" y="-226.75" font-family="Helvetica,sans-Serif" font-size="10.00">random</text>
</a>
</g>
</g>
<!-- Node22&#45;&gt;Node29 -->
<g id="edge33_Node000022_Node000029" class="edge">
<title>Node22&#45;&gt;Node29</title>
<g id="a_edge33_Node000022_Node000029"><a xlink:title=" ">
<path fill="none" stroke="#63b8ff" d="M425.3,-275.84C400.01,-267.04 361.38,-253.6 333.35,-243.84"/>
<polygon fill="#63b8ff" stroke="#63b8ff" points="334.84,-240.65 324.24,-240.67 332.53,-247.26 334.84,-240.65"/>
</a>
</g>
</g>
<!-- Node30 -->
<g id="Node000030" class="node">
<title>Node30</title>
<g id="a_Node000030"><a xlink:title=" ">
<polygon fill="#e0e0e0" stroke="#999999" points="380.25,-240.25 340.25,-240.25 340.25,-221 380.25,-221 380.25,-240.25"/>
<text xml:space="preserve" text-anchor="middle" x="360.25" y="-226.75" font-family="Helvetica,sans-Serif" font-size="10.00">regex</text>
</a>
</g>
</g>
<!-- Node22&#45;&gt;Node30 -->
<g id="edge34_Node000022_Node000030" class="edge">
<title>Node22&#45;&gt;Node30</title>
<g id="a_edge34_Node000022_Node000030"><a xlink:title=" ">
<path fill="none" stroke="#63b8ff" d="M435.81,-275.84C422.09,-267.81 401.75,-255.91 385.63,-246.48"/>
<polygon fill="#63b8ff" stroke="#63b8ff" points="387.47,-243.5 377.07,-241.47 383.93,-249.54 387.47,-243.5"/>
</a>
</g>
</g>
<!-- Node31 -->
<g id="Node000031" class="node">
<title>Node31</title>
<g id="a_Node000031"><a xlink:title=" ">
<polygon fill="#e0e0e0" stroke="#999999" points="449.88,-240.25 398.62,-240.25 398.62,-221 449.88,-221 449.88,-240.25"/>
<text xml:space="preserve" text-anchor="middle" x="424.25" y="-226.75" font-family="Helvetica,sans-Serif" font-size="10.00">sstream</text>
</a>
</g>
</g>
<!-- Node22&#45;&gt;Node31 -->
<g id="edge35_Node000022_Node000031" class="edge">
<title>Node22&#45;&gt;Node31</title>
<g id="a_edge35_Node000022_Node000031"><a xlink:title=" ">
<path fill="none" stroke="#63b8ff" d="M446.79,-276.08C443.3,-269.19 438.3,-259.34 433.9,-250.66"/>
<polygon fill="#63b8ff" stroke="#63b8ff" points="437.13,-249.3 429.49,-241.96 430.89,-252.46 437.13,-249.3"/>
</a>
</g>
</g>
<!-- Node32 -->
<g id="Node000032" class="node">
<title>Node32</title>
<g id="a_Node000032"><a xlink:href="_h_d_f5_i_o_8hpp.html" target="_top" xlink:title=" ">
<polygon fill="white" stroke="#666666" points="610.12,-240.25 506.38,-240.25 506.38,-221 610.12,-221 610.12,-240.25"/>
<text xml:space="preserve" text-anchor="middle" x="558.25" y="-226.75" font-family="Helvetica,sans-Serif" font-size="10.00">io/hdf5/HDF5IO.hpp</text>
</a>
</g>
</g>
<!-- Node22&#45;&gt;Node32 -->
<g id="edge38_Node000022_Node000032" class="edge">
<title>Node22&#45;&gt;Node32</title>
<g id="a_edge38_Node000022_Node000032"><a xlink:title=" ">
<path fill="none" stroke="#63b8ff" d="M469.4,-275.84C485.93,-267.62 510.59,-255.34 529.75,-245.81"/>
<polygon fill="#63b8ff" stroke="#63b8ff" points="531.26,-248.97 538.65,-241.38 528.14,-242.7 531.26,-248.97"/>
</a>
</g>
</g>
<!-- Node32&#45;&gt;Node5 -->
<g id="edge39_Node000032_Node000005" class="edge">
<title>Node32&#45;&gt;Node5</title>
<g id="a_edge39_Node000032_Node000005"><a xlink:title=" ">
<path fill="none" stroke="#63b8ff" d="M585.33,-220.51C625.26,-207.28 702.43,-182.51 769.25,-165.75 848.38,-145.91 870.46,-150.92 949.25,-129.75 1004.09,-115.02 1066.2,-92.79 1103.52,-78.82"/>
<polygon fill="#63b8ff" stroke="#63b8ff" points="1104.27,-82.28 1112.4,-75.48 1101.8,-75.73 1104.27,-82.28"/>
</a>
</g>
</g>
<!-- Node32&#45;&gt;Node6 -->
<g id="edge40_Node000032_Node000006" class="edge">
<title>Node32&#45;&gt;Node6</title>
<g id="a_edge40_Node000032_Node000006"><a xlink:title=" ">
<path fill="none" stroke="#63b8ff" d="M517.69,-220.56C487.12,-213.01 444.58,-200.91 409.25,-185 343.16,-155.24 272.46,-106.39 238.23,-81.5"/>
<polygon fill="#63b8ff" stroke="#63b8ff" points="240.55,-78.86 230.41,-75.77 236.41,-84.51 240.55,-78.86"/>
</a>
</g>
</g>
<!-- Node32&#45;&gt;Node9 -->
<g id="edge44_Node000032_Node000009" class="edge">
<title>Node32&#45;&gt;Node9</title>
<g id="a_edge44_Node000032_Node000009"><a xlink:title=" ">
<path fill="none" stroke="#63b8ff" d="M577.91,-220.59C613.6,-204.19 686.45,-170.77 698.25,-165.75 724.32,-154.66 754.14,-142.93 776.6,-134.27"/>
<polygon fill="#63b8ff" stroke="#63b8ff" points="777.8,-137.56 785.88,-130.71 775.29,-131.03 777.8,-137.56"/>
</a>
</g>
</g>
<!-- Node32&#45;&gt;Node12 -->
<g id="edge41_Node000032_Node000012" class="edge">
<title>Node32&#45;&gt;Node12</title>
<g id="a_edge41_Node000032_Node000012"><a xlink:title=" ">
<path fill="none" stroke="#63b8ff" d="M523.21,-220.55C498.56,-213.22 465.42,-201.41 439.25,-185 395.57,-157.62 356.93,-109.81 337.85,-83.86"/>
<polygon fill="#63b8ff" stroke="#63b8ff" points="340.89,-82.09 332.21,-76.01 335.21,-86.18 340.89,-82.09"/>
</a>
</g>
</g>
<!-- Node32&#45;&gt;Node17 -->
<g id="edge43_Node000032_Node000017" class="edge">
<title>Node32&#45;&gt;Node17</title>
<g id="a_edge43_Node000032_Node000017"><a xlink:title=" ">
<path fill="none" stroke="#63b8ff" d="M530.79,-220.57C495.71,-207.22 437.28,-178.41 418.25,-129.75 415.13,-121.78 413.96,-117.9 418.25,-110.5 426.44,-96.38 440.96,-86.35 455.27,-79.42"/>
<polygon fill="#63b8ff" stroke="#63b8ff" points="456.42,-82.74 464.17,-75.52 453.61,-76.33 456.42,-82.74"/>
</a>
</g>
</g>
<!-- Node33 -->
<g id="Node000033" class="node">
<title>Node33</title>
<g id="a_Node000033"><a xlink:title=" ">
<polygon fill="#e0e0e0" stroke="#999999" points="548.25,-185 478.25,-185 478.25,-165.75 548.25,-165.75 548.25,-185"/>
<text xml:space="preserve" text-anchor="middle" x="513.25" y="-171.5" font-family="Helvetica,sans-Serif" font-size="10.00">H5Opublic.h</text>
</a>
</g>
</g>
<!-- Node32&#45;&gt;Node33 -->
<g id="edge42_Node000032_Node000033" class="edge">
<title>Node32&#45;&gt;Node33</title>
<g id="a_edge42_Node000032_Node000033"><a xlink:title=" ">
<path fill="none" stroke="#63b8ff" d="M550.82,-220.83C544.67,-213.55 535.74,-202.98 528.12,-193.98"/>
<polygon fill="#63b8ff" stroke="#63b8ff" points="530.95,-191.89 521.82,-186.52 525.6,-196.41 530.95,-191.89"/>
</a>
</g>
</g>
<!-- Node34 -->
<g id="Node000034" class="node">
<title>Node34</title>
<g id="a_Node000034"><a xlink:href="_read_i_o_8hpp.html" target="_top" xlink:title=" ">
<polygon fill="white" stroke="#666666" points="645.75,-185 566.75,-185 566.75,-165.75 645.75,-165.75 645.75,-185"/>
<text xml:space="preserve" text-anchor="middle" x="606.25" y="-171.5" font-family="Helvetica,sans-Serif" font-size="10.00">io/ReadIO.hpp</text>
</a>
</g>
</g>
<!-- Node32&#45;&gt;Node34 -->
<g id="edge45_Node000032_Node000034" class="edge">
<title>Node32&#45;&gt;Node34</title>
<g id="a_edge45_Node000032_Node000034"><a xlink:title=" ">
<path fill="none" stroke="#63b8ff" d="M566.18,-220.83C572.81,-213.48 582.47,-202.76 590.64,-193.69"/>
<polygon fill="#63b8ff" stroke="#63b8ff" points="593.04,-196.25 597.14,-186.48 587.84,-191.57 593.04,-196.25"/>
</a>
</g>
</g>
<!-- Node34&#45;&gt;Node5 -->
<g id="edge50_Node000034_Node000005" class="edge">
<title>Node34&#45;&gt;Node5</title>
<g id="a_edge50_Node000034_Node000005"><a xlink:title=" ">
<path fill="none" stroke="#63b8ff" d="M646.22,-169.55C702.21,-162.49 807.03,-148.15 895.25,-129.75 968.15,-114.55 1051.89,-91.07 1099.29,-77.22"/>
<polygon fill="#63b8ff" stroke="#63b8ff" points="1100.19,-80.6 1108.8,-74.42 1098.22,-73.88 1100.19,-80.6"/>
</a>
</g>
</g>
<!-- Node34&#45;&gt;Node6 -->
<g id="edge51_Node000034_Node000006" class="edge">
<title>Node34&#45;&gt;Node6</title>
<g id="a_edge51_Node000034_Node000006"><a xlink:title=" ">
<path fill="none" stroke="#63b8ff" d="M566.25,-167.32C511.3,-157.47 415.37,-139.7 381.25,-129.75 333.28,-115.77 279.68,-93.59 247.22,-79.39"/>
<polygon fill="#63b8ff" stroke="#63b8ff" points="249,-76.35 238.44,-75.51 246.17,-82.75 249,-76.35"/>
</a>
</g>
</g>
<!-- Node34&#45;&gt;Node7 -->
<g id="edge56_Node000034_Node000007" class="edge">
<title>Node34&#45;&gt;Node7</title>
<g id="a_edge56_Node000034_Node000007"><a xlink:title=" ">
<path fill="none" stroke="#63b8ff" d="M619.16,-165.46C629.49,-157.46 643.21,-144.72 649.25,-129.75 652.45,-121.82 652.41,-118.45 649.25,-110.5 641.12,-90.05 623.38,-94.95 615.25,-74.5 612.09,-66.55 611.64,-63.01 615.25,-55.25 620.83,-43.27 631.38,-33.35 641.61,-25.93"/>
<polygon fill="#63b8ff" stroke="#63b8ff" points="643.49,-28.88 649.89,-20.44 639.62,-23.05 643.49,-28.88"/>
</a>
</g>
</g>
<!-- Node34&#45;&gt;Node9 -->
<g id="edge57_Node000034_Node000009" class="edge">
<title>Node34&#45;&gt;Node9</title>
<g id="a_edge57_Node000034_Node000009"><a xlink:title=" ">
<path fill="none" stroke="#63b8ff" d="M641.03,-165.34C675.34,-156.43 727.97,-142.76 765.62,-132.98"/>
<polygon fill="#63b8ff" stroke="#63b8ff" points="766.04,-136.48 774.84,-130.58 764.28,-129.71 766.04,-136.48"/>
</a>
</g>
</g>
<!-- Node34&#45;&gt;Node10 -->
<g id="edge46_Node000034_Node000010" class="edge">
<title>Node34&#45;&gt;Node10</title>
<g id="a_edge46_Node000034_Node000010"><a xlink:title=" ">
<path fill="none" stroke="#63b8ff" d="M640.86,-165.29C660.31,-158.5 683.55,-147.31 698.25,-129.75 708.55,-117.44 712.97,-99.61 714.86,-85.91"/>
<polygon fill="#63b8ff" stroke="#63b8ff" points="718.31,-86.58 715.83,-76.28 711.35,-85.88 718.31,-86.58"/>
</a>
</g>
</g>
<!-- Node34&#45;&gt;Node11 -->
<g id="edge49_Node000034_Node000011" class="edge">
<title>Node34&#45;&gt;Node11</title>
<g id="a_edge49_Node000034_Node000011"><a xlink:title=" ">
<path fill="none" stroke="#63b8ff" d="M645.96,-170.43C696.4,-164.74 785.7,-152.32 859.25,-129.75 879.27,-123.61 882.5,-117.46 902.25,-110.5 958.38,-90.71 976.51,-90.85 1036.41,-75.2"/>
<polygon fill="#63b8ff" stroke="#63b8ff" points="1037.01,-78.66 1045.77,-72.71 1035.21,-71.9 1037.01,-78.66"/>
</a>
</g>
</g>
<!-- Node34&#45;&gt;Node12 -->
<g id="edge53_Node000034_Node000012" class="edge">
<title>Node34&#45;&gt;Node12</title>
<g id="a_edge53_Node000034_Node000012"><a xlink:title=" ">
<path fill="none" stroke="#63b8ff" d="M566.51,-166.73C519.54,-157.38 444.47,-141.38 418.25,-129.75 390.6,-117.49 362.47,-96.78 344.5,-82.28"/>
<polygon fill="#63b8ff" stroke="#63b8ff" points="346.74,-79.58 336.8,-75.91 342.28,-84.98 346.74,-79.58"/>
</a>
</g>
</g>
<!-- Node34&#45;&gt;Node13 -->
<g id="edge55_Node000034_Node000013" class="edge">
<title>Node34&#45;&gt;Node13</title>
<g id="a_edge55_Node000034_Node000013"><a xlink:title=" ">
<path fill="none" stroke="#63b8ff" d="M635.79,-165.29C652.62,-158.42 672.29,-147.15 682.25,-129.75 690.92,-114.61 680.81,-96.42 670.22,-83.33"/>
<polygon fill="#63b8ff" stroke="#63b8ff" points="672.94,-81.12 663.69,-75.94 667.69,-85.75 672.94,-81.12"/>
</a>
</g>
</g>
<!-- Node34&#45;&gt;Node17 -->
<g id="edge58_Node000034_Node000017" class="edge">
<title>Node34&#45;&gt;Node17</title>
<g id="a_edge58_Node000034_Node000017"><a xlink:title=" ">
<path fill="none" stroke="#63b8ff" d="M566.63,-167.21C516.32,-157.72 434.95,-140.88 426.25,-129.75 411.08,-110.36 437.56,-91.82 462.18,-79.75"/>
<polygon fill="#63b8ff" stroke="#63b8ff" points="463.5,-83 471.12,-75.63 460.57,-76.64 463.5,-83"/>
</a>
</g>
</g>
<!-- Node34&#45;&gt;Node24 -->
<g id="edge47_Node000034_Node000024" class="edge">
<title>Node34&#45;&gt;Node24</title>
<g id="a_edge47_Node000034_Node000024"><a xlink:title=" ">
<path fill="none" stroke="#63b8ff" d="M566.44,-167.11C563.34,-166.62 560.25,-166.16 557.25,-165.75 397.49,-143.9 204.81,-128.67 131.53,-123.28"/>
<polygon fill="#63b8ff" stroke="#63b8ff" points="132.16,-119.82 121.93,-122.58 131.65,-126.8 132.16,-119.82"/>
</a>
</g>
</g>
<!-- Node35 -->
<g id="Node000035" class="node">
<title>Node35</title>
<g id="a_Node000035"><a xlink:title=" ">
<polygon fill="#e0e0e0" stroke="#999999" points="483.38,-129.75 435.12,-129.75 435.12,-110.5 483.38,-110.5 483.38,-129.75"/>
<text xml:space="preserve" text-anchor="middle" x="459.25" y="-116.25" font-family="Helvetica,sans-Serif" font-size="10.00">cassert</text>
</a>
</g>
</g>
<!-- Node34&#45;&gt;Node35 -->
<g id="edge48_Node000034_Node000035" class="edge">
<title>Node34&#45;&gt;Node35</title>
<g id="a_edge48_Node000034_Node000035"><a xlink:title=" ">
<path fill="none" stroke="#63b8ff" d="M581.31,-165.34C557.41,-156.68 521.11,-143.53 494.3,-133.82"/>
<polygon fill="#63b8ff" stroke="#63b8ff" points="495.84,-130.66 485.24,-130.54 493.45,-137.24 495.84,-130.66"/>
</a>
</g>
</g>
<!-- Node36 -->
<g id="Node000036" class="node">
<title>Node36</title>
<g id="a_Node000036"><a xlink:title=" ">
<polygon fill="#e0e0e0" stroke="#999999" points="560.62,-129.75 501.88,-129.75 501.88,-110.5 560.62,-110.5 560.62,-129.75"/>
<text xml:space="preserve" text-anchor="middle" x="531.25" y="-116.25" font-family="Helvetica,sans-Serif" font-size="10.00">stdexcept</text>
</a>
</g>
</g>
<!-- Node34&#45;&gt;Node36 -->
<g id="edge52_Node000034_Node000036" class="edge">
<title>Node34&#45;&gt;Node36</title>
<g id="a_edge52_Node000034_Node000036"><a xlink:title=" ">
<path fill="none" stroke="#63b8ff" d="M593.53,-165.34C582.54,-157.54 566.41,-146.09 553.32,-136.79"/>
<polygon fill="#63b8ff" stroke="#63b8ff" points="555.45,-134.01 545.27,-131.08 551.4,-139.72 555.45,-134.01"/>
</a>
</g>
</g>
<!-- Node37 -->
<g id="Node000037" class="node">
<title>Node37</title>
<g id="a_Node000037"><a xlink:title=" ">
<polygon fill="#e0e0e0" stroke="#999999" points="640.12,-129.75 578.38,-129.75 578.38,-110.5 640.12,-110.5 640.12,-129.75"/>
<text xml:space="preserve" text-anchor="middle" x="609.25" y="-116.25" font-family="Helvetica,sans-Serif" font-size="10.00">type_traits</text>
</a>
</g>
</g>
<!-- Node34&#45;&gt;Node37 -->
<g id="edge54_Node000034_Node000037" class="edge">
<title>Node34&#45;&gt;Node37</title>
<g id="a_edge54_Node000034_Node000037"><a xlink:title=" ">
<path fill="none" stroke="#63b8ff" d="M606.75,-165.58C607.12,-158.99 607.64,-149.71 608.11,-141.32"/>
<polygon fill="#63b8ff" stroke="#63b8ff" points="611.59,-141.8 608.66,-131.62 604.6,-141.41 611.59,-141.8"/>
</a>
</g>
</g>
</g>
</svg>
