<?xml version="1.0" encoding="UTF-8" standalone="no"?>
<!DOCTYPE svg PUBLIC "-//W3C//DTD SVG 1.1//EN"
 "http://www.w3.org/Graphics/SVG/1.1/DTD/svg11.dtd">
<!-- Generated by graphviz version 14.1.2 (20260124.0452)
 -->
<!-- Title: src/io/hdf5/HDF5IO.hpp Pages: 1 -->
<!--zoomable 248 -->

<svg id="main" version="1.1" xmlns="http://www.w3.org/2000/svg" xmlns:xlink="http://www.w3.org/1999/xlink" xml:space="preserve" onload="init(evt)">

<style type="text/css"><![CDATA[
.node, .edge {opacity: 0.7;}
.node.selected, .edge.selected {opacity: 1;}
.edge:hover path { stroke: red; }
.edge:hover polygon { stroke: red; fill: red; }
]]></style>

<defs>
  <circle id="rim" cx="0" cy="0" r="7"/>
  <circle id="rim2" cx="0" cy="0" r="3.5"/>
  <g id="zoomPlus">
    <use xlink:href="#rim" fill="#404040"><set attributeName="fill" to="#808080" begin="zoomplus.mouseover" end="zoomplus.mouseout"/></use>
    <path d="M-4,0h8M0,-4v8" fill="none" stroke="white" stroke-width="1.5" pointer-events="none"/>
  </g>
  <g id="zoomMin">
    <use xlink:href="#rim" fill="#404040"><set attributeName="fill" to="#808080" begin="zoomminus.mouseover" end="zoomminus.mouseout"/></use>
    <path d="M-4,0h8" fill="none" stroke="white" stroke-width="1.5" pointer-events="none"/>
  </g>
  <g id="arrowUp" transform="translate(30 24)">
    <use xlink:href="#rim"/>
    <path pointer-events="none" fill="none" stroke="white" stroke-width="1.5" d="M0,-3.0v7 M-2.5,-0.5L0,-3.0L2.5,-0.5"/>
  </g>
  <g id="arrowRight" transform="rotate(90) translate(36 -43)">
    <use xlink:href="#rim"/>
    <path pointer-events="none" fill="none" stroke="white" stroke-width="1.5" d="M0,-3.0v7 M-2.5,-0.5L0,-3.0L2.5,-0.5"/>
  </g>
  <g id="arrowDown" transform="rotate(180) translate(-30 -48)">
    <use xlink:href="#rim"/>
    <path pointer-events="none" fill="none" stroke="white" stroke-width="1.5" d="M0,-3.0v7 M-2.5,-0.5L0,-3.0L2.5,-0.5"/>
  </g>
  <g id="arrowLeft" transform="rotate(270) translate(-36 17)">
    <use xlink:href="#rim"/>
    <path pointer-events="none" fill="none" stroke="white" stroke-width="1.5" d="M0,-3.0v7 M-2.5,-0.5L0,-3.0L2.5,-0.5"/>
  </g>
  <g id="resetDef">
    <use xlink:href="#rim2" fill="#404040"><set attributeName="fill" to="#808080" begin="reset.mouseover" end="reset.mouseout"/></use>
  </g>
</defs>
<script type="application/ecmascript">
var viewWidth = 869;
var viewHeight = 248;
var sectionId = 'dynsection-0';
</script>
<script type="application/ecmascript" xlink:href="svg.min.js"/>
<svg id="graph" class="graph">
<g id="viewport">
<title>src/io/hdf5/HDF5IO.hpp</title>
<!-- Node1 -->
<g id="Node000001" class="node">
<title>Node1</title>
<g id="a_Node000001"><a xlink:title=" ">
<polygon fill="#999999" stroke="#666666" points="292.87,-240.25 172.62,-240.25 172.62,-221 292.87,-221 292.87,-240.25"/>
<text xml:space="preserve" text-anchor="middle" x="232.74" y="-226.75" font-family="Helvetica,sans-Serif" font-size="10.00">src/io/hdf5/HDF5IO.hpp</text>
</a>
</g>
</g>
<!-- Node2 -->
<g id="Node000002" class="node">
<title>Node2</title>
<g id="a_Node000002"><a xlink:title=" ">
<polygon fill="#e0e0e0" stroke="#999999" points="785.49,-74.5 731.99,-74.5 731.99,-55.25 785.49,-55.25 785.49,-74.5"/>
<text xml:space="preserve" text-anchor="middle" x="758.74" y="-61" font-family="Helvetica,sans-Serif" font-size="10.00">iostream</text>
</a>
</g>
</g>
<!-- Node1&#45;&gt;Node2 -->
<g id="edge1_Node000001_Node000002" class="edge">
<title>Node1&#45;&gt;Node2</title>
<g id="a_edge1_Node000001_Node000002"><a xlink:title=" ">
<path fill="none" stroke="#63b8ff" d="M293.23,-229.86C436,-228.94 787.01,-217.61 854.74,-129.75 874.43,-104.21 831.34,-85.53 796.68,-75.18"/>
<polygon fill="#63b8ff" stroke="#63b8ff" points="797.84,-71.87 787.27,-72.52 795.94,-78.61 797.84,-71.87"/>
</a>
</g>
</g>
<!-- Node3 -->
<g id="Node000003" class="node">
<title>Node3</title>
<g id="a_Node000003"><a xlink:title=" ">
<polygon fill="#e0e0e0" stroke="#999999" points="70.37,-74.5 19.12,-74.5 19.12,-55.25 70.37,-55.25 70.37,-74.5"/>
<text xml:space="preserve" text-anchor="middle" x="44.74" y="-61" font-family="Helvetica,sans-Serif" font-size="10.00">memory</text>
</a>
</g>
</g>
<!-- Node1&#45;&gt;Node3 -->
<g id="edge2_Node000001_Node000003" class="edge">
<title>Node1&#45;&gt;Node3</title>
<g id="a_edge2_Node000001_Node000003"><a xlink:title=" ">
<path fill="none" stroke="#63b8ff" d="M219.78,-220.83C207.2,-212.13 187.7,-198.24 171.74,-185 130.48,-150.77 85.44,-106.8 61.66,-83.01"/>
<polygon fill="#63b8ff" stroke="#63b8ff" points="64.24,-80.64 54.7,-76.01 59.27,-85.57 64.24,-80.64"/>
</a>
</g>
</g>
<!-- Node4 -->
<g id="Node000004" class="node">
<title>Node4</title>
<g id="a_Node000004"><a xlink:title=" ">
<polygon fill="#e0e0e0" stroke="#999999" points="198.74,-19.25 158.74,-19.25 158.74,0 198.74,0 198.74,-19.25"/>
<text xml:space="preserve" text-anchor="middle" x="178.74" y="-5.75" font-family="Helvetica,sans-Serif" font-size="10.00">string</text>
</a>
</g>
</g>
<!-- Node1&#45;&gt;Node4 -->
<g id="edge3_Node000001_Node000004" class="edge">
<title>Node1&#45;&gt;Node4</title>
<g id="a_edge3_Node000001_Node000004"><a xlink:title=" ">
<path fill="none" stroke="#63b8ff" d="M204.83,-220.56C154.16,-202.36 48.7,-155.98 9.74,-74.5 -27.02,2.39 51.73,-41.15 147.36,-19.55"/>
<polygon fill="#63b8ff" stroke="#63b8ff" points="148.18,-22.96 157.02,-17.12 146.47,-16.17 148.18,-22.96"/>
</a>
</g>
</g>
<!-- Node5 -->
<g id="Node000005" class="node">
<title>Node5</title>
<g id="a_Node000005"><a xlink:title=" ">
<polygon fill="#e0e0e0" stroke="#999999" points="267.74,-185 197.74,-185 197.74,-165.75 267.74,-165.75 267.74,-185"/>
<text xml:space="preserve" text-anchor="middle" x="232.74" y="-171.5" font-family="Helvetica,sans-Serif" font-size="10.00">H5Opublic.h</text>
</a>
</g>
</g>
<!-- Node1&#45;&gt;Node5 -->
<g id="edge4_Node000001_Node000005" class="edge">
<title>Node1&#45;&gt;Node5</title>
<g id="a_edge4_Node000001_Node000005"><a xlink:title=" ">
<path fill="none" stroke="#63b8ff" d="M232.74,-220.83C232.74,-214.32 232.74,-205.17 232.74,-196.87"/>
<polygon fill="#63b8ff" stroke="#63b8ff" points="236.24,-196.87 232.74,-186.87 229.24,-196.87 236.24,-196.87"/>
</a>
</g>
</g>
<!-- Node6 -->
<g id="Node000006" class="node">
<title>Node6</title>
<g id="a_Node000006"><a xlink:href="_types_8hpp.html" target="_top" xlink:title=" ">
<polygon fill="white" stroke="#666666" points="149.24,-74.5 88.24,-74.5 88.24,-55.25 149.24,-55.25 149.24,-74.5"/>
<text xml:space="preserve" text-anchor="middle" x="118.74" y="-61" font-family="Helvetica,sans-Serif" font-size="10.00">Types.hpp</text>
</a>
</g>
</g>
<!-- Node1&#45;&gt;Node6 -->
<g id="edge5_Node000001_Node000006" class="edge">
<title>Node1&#45;&gt;Node6</title>
<g id="a_edge5_Node000001_Node000006"><a xlink:title=" ">
<path fill="none" stroke="#63b8ff" d="M222.58,-220.68C213.16,-212.09 199.08,-198.46 188.74,-185 163.39,-151.99 140.25,-109 127.97,-84.72"/>
<polygon fill="#63b8ff" stroke="#63b8ff" points="131.25,-83.46 123.66,-76.07 124.98,-86.58 131.25,-83.46"/>
</a>
</g>
</g>
<!-- Node11 -->
<g id="Node000011" class="node">
<title>Node11</title>
<g id="a_Node000011"><a xlink:href="_base_i_o_8hpp.html" target="_top" xlink:title=" ">
<polygon fill="white" stroke="#666666" points="405.87,-129.75 327.62,-129.75 327.62,-110.5 405.87,-110.5 405.87,-129.75"/>
<text xml:space="preserve" text-anchor="middle" x="366.74" y="-116.25" font-family="Helvetica,sans-Serif" font-size="10.00">io/BaseIO.hpp</text>
</a>
</g>
</g>
<!-- Node1&#45;&gt;Node11 -->
<g id="edge11_Node000001_Node000011" class="edge">
<title>Node1&#45;&gt;Node11</title>
<g id="a_edge11_Node000001_Node000011"><a xlink:title=" ">
<path fill="none" stroke="#63b8ff" d="M243.71,-220.75C266.28,-202.47 318.23,-160.4 346.88,-137.21"/>
<polygon fill="#63b8ff" stroke="#63b8ff" points="348.88,-140.09 354.45,-131.08 344.47,-134.65 348.88,-140.09"/>
</a>
</g>
</g>
<!-- Node18 -->
<g id="Node000018" class="node">
<title>Node18</title>
<g id="a_Node000018"><a xlink:href="_read_i_o_8hpp.html" target="_top" xlink:title=" ">
<polygon fill="white" stroke="#666666" points="635.24,-185 556.24,-185 556.24,-165.75 635.24,-165.75 635.24,-185"/>
<text xml:space="preserve" text-anchor="middle" x="595.74" y="-171.5" font-family="Helvetica,sans-Serif" font-size="10.00">io/ReadIO.hpp</text>
</a>
</g>
</g>
<!-- Node1&#45;&gt;Node18 -->
<g id="edge23_Node000001_Node000018" class="edge">
<title>Node1&#45;&gt;Node18</title>
<g id="a_edge23_Node000001_Node000018"><a xlink:title=" ">
<path fill="none" stroke="#63b8ff" d="M293.09,-220.77C363.37,-210.46 478.23,-193.61 544.4,-183.91"/>
<polygon fill="#63b8ff" stroke="#63b8ff" points="544.89,-187.37 554.27,-182.46 543.87,-180.45 544.89,-187.37"/>
</a>
</g>
</g>
<!-- Node6&#45;&gt;Node4 -->
<g id="edge8_Node000006_Node000004" class="edge">
<title>Node6&#45;&gt;Node4</title>
<g id="a_edge8_Node000006_Node000004"><a xlink:title=" ">
<path fill="none" stroke="#63b8ff" d="M128.92,-54.84C137.51,-47.22 150.01,-36.12 160.35,-26.95"/>
<polygon fill="#63b8ff" stroke="#63b8ff" points="162.43,-29.79 167.58,-20.53 157.78,-24.55 162.43,-29.79"/>
</a>
</g>
</g>
<!-- Node7 -->
<g id="Node000007" class="node">
<title>Node7</title>
<g id="a_Node000007"><a xlink:title=" ">
<polygon fill="#e0e0e0" stroke="#999999" points="140.87,-19.25 92.62,-19.25 92.62,0 140.87,0 140.87,-19.25"/>
<text xml:space="preserve" text-anchor="middle" x="116.74" y="-5.75" font-family="Helvetica,sans-Serif" font-size="10.00">cstddef</text>
</a>
</g>
</g>
<!-- Node6&#45;&gt;Node7 -->
<g id="edge6_Node000006_Node000007" class="edge">
<title>Node6&#45;&gt;Node7</title>
<g id="a_edge6_Node000006_Node000007"><a xlink:title=" ">
<path fill="none" stroke="#63b8ff" d="M118.41,-55.08C118.17,-48.49 117.82,-39.21 117.5,-30.82"/>
<polygon fill="#63b8ff" stroke="#63b8ff" points="121.01,-30.98 117.14,-21.12 114.01,-31.25 121.01,-30.98"/>
</a>
</g>
</g>
<!-- Node8 -->
<g id="Node000008" class="node">
<title>Node8</title>
<g id="a_Node000008"><a xlink:title=" ">
<polygon fill="#e0e0e0" stroke="#999999" points="74.37,-19.25 35.12,-19.25 35.12,0 74.37,0 74.37,-19.25"/>
<text xml:space="preserve" text-anchor="middle" x="54.74" y="-5.75" font-family="Helvetica,sans-Serif" font-size="10.00">limits</text>
</a>
</g>
</g>
<!-- Node6&#45;&gt;Node8 -->
<g id="edge7_Node000006_Node000008" class="edge">
<title>Node6&#45;&gt;Node8</title>
<g id="a_edge7_Node000006_Node000008"><a xlink:title=" ">
<path fill="none" stroke="#63b8ff" d="M107.89,-54.84C98.64,-47.15 85.12,-35.9 74.03,-26.68"/>
<polygon fill="#63b8ff" stroke="#63b8ff" points="76.53,-24.2 66.6,-20.49 72.05,-29.58 76.53,-24.2"/>
</a>
</g>
</g>
<!-- Node9 -->
<g id="Node000009" class="node">
<title>Node9</title>
<g id="a_Node000009"><a xlink:title=" ">
<polygon fill="#e0e0e0" stroke="#999999" points="740.62,-19.25 678.87,-19.25 678.87,0 740.62,0 740.62,-19.25"/>
<text xml:space="preserve" text-anchor="middle" x="709.74" y="-5.75" font-family="Helvetica,sans-Serif" font-size="10.00">type_traits</text>
</a>
</g>
</g>
<!-- Node6&#45;&gt;Node9 -->
<g id="edge9_Node000006_Node000009" class="edge">
<title>Node6&#45;&gt;Node9</title>
<g id="a_edge9_Node000006_Node000009"><a xlink:title=" ">
<path fill="none" stroke="#63b8ff" d="M149.47,-60.31C163.83,-58.69 181.15,-56.79 196.74,-55.25 371.11,-38.03 579.17,-21.02 667.14,-13.99"/>
<polygon fill="#63b8ff" stroke="#63b8ff" points="667.29,-17.49 676.98,-13.21 666.73,-10.51 667.29,-17.49"/>
</a>
</g>
</g>
<!-- Node10 -->
<g id="Node000010" class="node">
<title>Node10</title>
<g id="a_Node000010"><a xlink:title=" ">
<polygon fill="#e0e0e0" stroke="#999999" points="497.24,-19.25 454.24,-19.25 454.24,0 497.24,0 497.24,-19.25"/>
<text xml:space="preserve" text-anchor="middle" x="475.74" y="-5.75" font-family="Helvetica,sans-Serif" font-size="10.00">vector</text>
</a>
</g>
</g>
<!-- Node6&#45;&gt;Node10 -->
<g id="edge10_Node000006_Node000010" class="edge">
<title>Node6&#45;&gt;Node10</title>
<g id="a_edge10_Node000006_Node000010"><a xlink:title=" ">
<path fill="none" stroke="#63b8ff" d="M149.49,-59.29C216.32,-49.32 374.32,-25.75 442.96,-15.52"/>
<polygon fill="#63b8ff" stroke="#63b8ff" points="443.07,-19.04 452.44,-14.1 442.03,-12.11 443.07,-19.04"/>
</a>
</g>
</g>
<!-- Node11&#45;&gt;Node2 -->
<g id="edge14_Node000011_Node000002" class="edge">
<title>Node11&#45;&gt;Node2</title>
<g id="a_edge14_Node000011_Node000002"><a xlink:title=" ">
<path fill="none" stroke="#63b8ff" d="M406.27,-111.86C409.13,-111.39 411.98,-110.93 414.74,-110.5 473.05,-101.48 643.63,-80.13 720.45,-70.6"/>
<polygon fill="#63b8ff" stroke="#63b8ff" points="720.52,-74.12 730.01,-69.42 719.66,-67.17 720.52,-74.12"/>
</a>
</g>
</g>
<!-- Node11&#45;&gt;Node3 -->
<g id="edge15_Node000011_Node000003" class="edge">
<title>Node11&#45;&gt;Node3</title>
<g id="a_edge15_Node000011_Node000003"><a xlink:title=" ">
<path fill="none" stroke="#63b8ff" d="M327.4,-114.23C273.87,-107.31 174.9,-93.59 81.71,-74.96"/>
<polygon fill="#63b8ff" stroke="#63b8ff" points="82.65,-71.58 72.16,-73.02 81.26,-78.44 82.65,-71.58"/>
</a>
</g>
</g>
<!-- Node11&#45;&gt;Node4 -->
<g id="edge16_Node000011_Node000004" class="edge">
<title>Node11&#45;&gt;Node4</title>
<g id="a_edge16_Node000011_Node000004"><a xlink:title=" ">
<path fill="none" stroke="#63b8ff" d="M327.17,-113.36C282.93,-106.15 215.08,-92.51 196.74,-74.5 185.16,-63.13 180.88,-44.93 179.36,-30.86"/>
<polygon fill="#63b8ff" stroke="#63b8ff" points="182.86,-30.68 178.72,-20.93 175.87,-31.13 182.86,-30.68"/>
</a>
</g>
</g>
<!-- Node11&#45;&gt;Node6 -->
<g id="edge22_Node000011_Node000006" class="edge">
<title>Node11&#45;&gt;Node6</title>
<g id="a_edge22_Node000011_Node000006"><a xlink:title=" ">
<path fill="none" stroke="#63b8ff" d="M327.17,-110.63C281.66,-100.86 207.25,-84.88 160.74,-74.89"/>
<polygon fill="#63b8ff" stroke="#63b8ff" points="161.55,-71.49 151.03,-72.81 160.08,-78.33 161.55,-71.49"/>
</a>
</g>
</g>
<!-- Node11&#45;&gt;Node10 -->
<g id="edge21_Node000011_Node000010" class="edge">
<title>Node11&#45;&gt;Node10</title>
<g id="a_edge21_Node000011_Node000010"><a xlink:title=" ">
<path fill="none" stroke="#63b8ff" d="M399.64,-110.1C418.81,-103.25 442.03,-91.98 456.74,-74.5 467.13,-62.17 471.84,-44.34 473.97,-30.65"/>
<polygon fill="#63b8ff" stroke="#63b8ff" points="477.41,-31.36 475.12,-21.02 470.46,-30.53 477.41,-31.36"/>
</a>
</g>
</g>
<!-- Node12 -->
<g id="Node000012" class="node">
<title>Node12</title>
<g id="a_Node000012"><a xlink:title=" ">
<polygon fill="#e0e0e0" stroke="#999999" points="611.62,-74.5 579.87,-74.5 579.87,-55.25 611.62,-55.25 611.62,-74.5"/>
<text xml:space="preserve" text-anchor="middle" x="595.74" y="-61" font-family="Helvetica,sans-Serif" font-size="10.00">any</text>
</a>
</g>
</g>
<!-- Node11&#45;&gt;Node12 -->
<g id="edge12_Node000011_Node000012" class="edge">
<title>Node11&#45;&gt;Node12</title>
<g id="a_edge12_Node000011_Node000012"><a xlink:title=" ">
<path fill="none" stroke="#63b8ff" d="M406.19,-111.92C445.27,-104.46 506.98,-91.86 568.71,-74.81"/>
<polygon fill="#63b8ff" stroke="#63b8ff" points="569.28,-78.29 577.97,-72.22 567.39,-71.55 569.28,-78.29"/>
</a>
</g>
</g>
<!-- Node13 -->
<g id="Node000013" class="node">
<title>Node13</title>
<g id="a_Node000013"><a xlink:title=" ">
<polygon fill="#e0e0e0" stroke="#999999" points="675.37,-74.5 630.12,-74.5 630.12,-55.25 675.37,-55.25 675.37,-74.5"/>
<text xml:space="preserve" text-anchor="middle" x="652.74" y="-61" font-family="Helvetica,sans-Serif" font-size="10.00">cstdint</text>
</a>
</g>
</g>
<!-- Node11&#45;&gt;Node13 -->
<g id="edge13_Node000011_Node000013" class="edge">
<title>Node11&#45;&gt;Node13</title>
<g id="a_edge13_Node000011_Node000013"><a xlink:title=" ">
<path fill="none" stroke="#63b8ff" d="M406.29,-112C409.15,-111.49 411.99,-110.99 414.74,-110.5 502.77,-94.9 528.1,-94.61 618.66,-74.79"/>
<polygon fill="#63b8ff" stroke="#63b8ff" points="619.25,-78.25 628.25,-72.67 617.73,-71.41 619.25,-78.25"/>
</a>
</g>
</g>
<!-- Node14 -->
<g id="Node000014" class="node">
<title>Node14</title>
<g id="a_Node000014"><a xlink:title=" ">
<polygon fill="#e0e0e0" stroke="#999999" points="561.74,-74.5 503.74,-74.5 503.74,-55.25 561.74,-55.25 561.74,-74.5"/>
<text xml:space="preserve" text-anchor="middle" x="532.74" y="-61" font-family="Helvetica,sans-Serif" font-size="10.00">typeindex</text>
</a>
</g>
</g>
<!-- Node11&#45;&gt;Node14 -->
<g id="edge17_Node000011_Node000014" class="edge">
<title>Node11&#45;&gt;Node14</title>
<g id="a_edge17_Node000011_Node000014"><a xlink:title=" ">
<path fill="none" stroke="#63b8ff" d="M394.9,-110.09C422.09,-101.37 463.48,-88.09 493.82,-78.36"/>
<polygon fill="#63b8ff" stroke="#63b8ff" points="494.55,-81.8 503,-75.41 492.41,-75.14 494.55,-81.8"/>
</a>
</g>
</g>
<!-- Node15 -->
<g id="Node000015" class="node">
<title>Node15</title>
<g id="a_Node000015"><a xlink:title=" ">
<polygon fill="#e0e0e0" stroke="#999999" points="352.12,-74.5 269.37,-74.5 269.37,-55.25 352.12,-55.25 352.12,-74.5"/>
<text xml:space="preserve" text-anchor="middle" x="310.74" y="-61" font-family="Helvetica,sans-Serif" font-size="10.00">unordered_map</text>
</a>
</g>
</g>
<!-- Node11&#45;&gt;Node15 -->
<g id="edge18_Node000011_Node000015" class="edge">
<title>Node11&#45;&gt;Node15</title>
<g id="a_edge18_Node000011_Node000015"><a xlink:title=" ">
<path fill="none" stroke="#63b8ff" d="M357.24,-110.09C349.31,-102.55 337.79,-91.6 328.21,-82.48"/>
<polygon fill="#63b8ff" stroke="#63b8ff" points="330.86,-80.17 321.2,-75.82 326.03,-85.24 330.86,-80.17"/>
</a>
</g>
</g>
<!-- Node16 -->
<g id="Node000016" class="node">
<title>Node16</title>
<g id="a_Node000016"><a xlink:title=" ">
<polygon fill="#e0e0e0" stroke="#999999" points="447.49,-74.5 369.99,-74.5 369.99,-55.25 447.49,-55.25 447.49,-74.5"/>
<text xml:space="preserve" text-anchor="middle" x="408.74" y="-61" font-family="Helvetica,sans-Serif" font-size="10.00">unordered_set</text>
</a>
</g>
</g>
<!-- Node11&#45;&gt;Node16 -->
<g id="edge19_Node000011_Node000016" class="edge">
<title>Node11&#45;&gt;Node16</title>
<g id="a_edge19_Node000011_Node000016"><a xlink:title=" ">
<path fill="none" stroke="#63b8ff" d="M373.68,-110.33C379.36,-103.13 387.58,-92.71 394.64,-83.76"/>
<polygon fill="#63b8ff" stroke="#63b8ff" points="397.27,-86.07 400.72,-76.05 391.78,-81.73 397.27,-86.07"/>
</a>
</g>
</g>
<!-- Node17 -->
<g id="Node000017" class="node">
<title>Node17</title>
<g id="a_Node000017"><a xlink:title=" ">
<polygon fill="#e0e0e0" stroke="#999999" points="251.37,-74.5 206.12,-74.5 206.12,-55.25 251.37,-55.25 251.37,-74.5"/>
<text xml:space="preserve" text-anchor="middle" x="228.74" y="-61" font-family="Helvetica,sans-Serif" font-size="10.00">variant</text>
</a>
</g>
</g>
<!-- Node11&#45;&gt;Node17 -->
<g id="edge20_Node000011_Node000017" class="edge">
<title>Node11&#45;&gt;Node17</title>
<g id="a_edge20_Node000011_Node000017"><a xlink:title=" ">
<path fill="none" stroke="#63b8ff" d="M343.33,-110.09C321.09,-101.51 287.42,-88.52 262.32,-78.83"/>
<polygon fill="#63b8ff" stroke="#63b8ff" points="263.81,-75.65 253.22,-75.32 261.29,-82.18 263.81,-75.65"/>
</a>
</g>
</g>
<!-- Node18&#45;&gt;Node2 -->
<g id="edge28_Node000018_Node000002" class="edge">
<title>Node18&#45;&gt;Node2</title>
<g id="a_edge28_Node000018_Node000002"><a xlink:title=" ">
<path fill="none" stroke="#63b8ff" d="M635.53,-166.72C661.11,-160.24 693.89,-148.86 717.74,-129.75 732.67,-117.79 743.86,-98.85 750.74,-84.69"/>
<polygon fill="#63b8ff" stroke="#63b8ff" points="753.75,-86.52 754.7,-75.97 747.38,-83.63 753.75,-86.52"/>
</a>
</g>
</g>
<!-- Node18&#45;&gt;Node3 -->
<g id="edge29_Node000018_Node000003" class="edge">
<title>Node18&#45;&gt;Node3</title>
<g id="a_edge29_Node000018_Node000003"><a xlink:title=" ">
<path fill="none" stroke="#63b8ff" d="M555.8,-171.53C490.84,-166.39 358.51,-153.8 248.74,-129.75 188.23,-116.49 119.9,-93.37 79.68,-78.88"/>
<polygon fill="#63b8ff" stroke="#63b8ff" points="80.88,-75.59 70.29,-75.47 78.49,-82.17 80.88,-75.59"/>
</a>
</g>
</g>
<!-- Node18&#45;&gt;Node4 -->
<g id="edge31_Node000018_Node000004" class="edge">
<title>Node18&#45;&gt;Node4</title>
<g id="a_edge31_Node000018_Node000004"><a xlink:title=" ">
<path fill="none" stroke="#63b8ff" d="M611.41,-165.39C645.31,-144.87 719.7,-93.42 684.74,-55.25 668.65,-37.68 318.94,-17.96 210.51,-12.25"/>
<polygon fill="#63b8ff" stroke="#63b8ff" points="210.76,-8.76 200.59,-11.74 210.4,-15.75 210.76,-8.76"/>
</a>
</g>
</g>
<!-- Node18&#45;&gt;Node6 -->
<g id="edge36_Node000018_Node000006" class="edge">
<title>Node18&#45;&gt;Node6</title>
<g id="a_edge36_Node000018_Node000006"><a xlink:title=" ">
<path fill="none" stroke="#63b8ff" d="M555.93,-169.86C501.78,-163.29 402.13,-149.66 318.74,-129.75 259.89,-115.69 193.27,-93.01 153.7,-78.8"/>
<polygon fill="#63b8ff" stroke="#63b8ff" points="155.06,-75.57 144.46,-75.45 152.68,-82.15 155.06,-75.57"/>
</a>
</g>
</g>
<!-- Node18&#45;&gt;Node9 -->
<g id="edge32_Node000018_Node000009" class="edge">
<title>Node18&#45;&gt;Node9</title>
<g id="a_edge32_Node000018_Node000009"><a xlink:title=" ">
<path fill="none" stroke="#63b8ff" d="M635.53,-173.53C701.06,-171.2 827.18,-162.46 854.74,-129.75 873.27,-107.76 847.17,-72.95 827.74,-55.25 806.71,-36.09 776.63,-24.88 752.11,-18.49"/>
<polygon fill="#63b8ff" stroke="#63b8ff" points="752.94,-15.09 742.4,-16.16 751.31,-21.9 752.94,-15.09"/>
</a>
</g>
</g>
<!-- Node18&#45;&gt;Node10 -->
<g id="edge34_Node000018_Node000010" class="edge">
<title>Node18&#45;&gt;Node10</title>
<g id="a_edge34_Node000018_Node000010"><a xlink:title=" ">
<path fill="none" stroke="#63b8ff" d="M635.51,-166.88C707.1,-151.72 845.68,-113.81 794.74,-55.25 776.11,-33.83 586.3,-18.31 508.62,-12.81"/>
<polygon fill="#63b8ff" stroke="#63b8ff" points="509.31,-9.35 499.09,-12.15 508.82,-16.33 509.31,-9.35"/>
</a>
</g>
</g>
<!-- Node18&#45;&gt;Node11 -->
<g id="edge35_Node000018_Node000011" class="edge">
<title>Node18&#45;&gt;Node11</title>
<g id="a_edge35_Node000018_Node000011"><a xlink:title=" ">
<path fill="none" stroke="#63b8ff" d="M556.64,-165.28C518.02,-156.3 458.81,-142.53 416.78,-132.76"/>
<polygon fill="#63b8ff" stroke="#63b8ff" points="417.69,-129.38 407.16,-130.52 416.11,-136.2 417.69,-129.38"/>
</a>
</g>
</g>
<!-- Node18&#45;&gt;Node12 -->
<g id="edge24_Node000018_Node000012" class="edge">
<title>Node18&#45;&gt;Node12</title>
<g id="a_edge24_Node000018_Node000012"><a xlink:title=" ">
<path fill="none" stroke="#63b8ff" d="M595.74,-165.5C595.74,-148.25 595.74,-109.83 595.74,-86.06"/>
<polygon fill="#63b8ff" stroke="#63b8ff" points="599.24,-86.39 595.74,-76.39 592.24,-86.39 599.24,-86.39"/>
</a>
</g>
</g>
<!-- Node18&#45;&gt;Node13 -->
<g id="edge27_Node000018_Node000013" class="edge">
<title>Node18&#45;&gt;Node13</title>
<g id="a_edge27_Node000018_Node000013"><a xlink:title=" ">
<path fill="none" stroke="#63b8ff" d="M600.41,-165.5C609.63,-147.93 630.4,-108.41 642.82,-84.77"/>
<polygon fill="#63b8ff" stroke="#63b8ff" points="645.76,-86.7 647.31,-76.22 639.56,-83.44 645.76,-86.7"/>
</a>
</g>
</g>
<!-- Node18&#45;&gt;Node14 -->
<g id="edge33_Node000018_Node000014" class="edge">
<title>Node18&#45;&gt;Node14</title>
<g id="a_edge33_Node000018_Node000014"><a xlink:title=" ">
<path fill="none" stroke="#63b8ff" d="M590.59,-165.5C580.39,-147.93 557.44,-108.41 543.71,-84.77"/>
<polygon fill="#63b8ff" stroke="#63b8ff" points="546.78,-83.08 538.73,-76.19 540.72,-86.59 546.78,-83.08"/>
</a>
</g>
</g>
<!-- Node19 -->
<g id="Node000019" class="node">
<title>Node19</title>
<g id="a_Node000019"><a xlink:title=" ">
<polygon fill="#e0e0e0" stroke="#999999" points="845.62,-129.75 807.87,-129.75 807.87,-110.5 845.62,-110.5 845.62,-129.75"/>
<text xml:space="preserve" text-anchor="middle" x="826.74" y="-116.25" font-family="Helvetica,sans-Serif" font-size="10.00">array</text>
</a>
</g>
</g>
<!-- Node18&#45;&gt;Node19 -->
<g id="edge25_Node000018_Node000019" class="edge">
<title>Node18&#45;&gt;Node19</title>
<g id="a_edge25_Node000018_Node000019"><a xlink:title=" ">
<path fill="none" stroke="#63b8ff" d="M635.66,-165.8C675.71,-157.09 739.13,-143.04 793.74,-129.75 794.72,-129.51 795.72,-129.27 796.73,-129.02"/>
<polygon fill="#63b8ff" stroke="#63b8ff" points="797.28,-132.49 806.11,-126.63 795.55,-125.7 797.28,-132.49"/>
</a>
</g>
</g>
<!-- Node20 -->
<g id="Node000020" class="node">
<title>Node20</title>
<g id="a_Node000020"><a xlink:title=" ">
<polygon fill="#e0e0e0" stroke="#999999" points="471.87,-129.75 423.62,-129.75 423.62,-110.5 471.87,-110.5 471.87,-129.75"/>
<text xml:space="preserve" text-anchor="middle" x="447.74" y="-116.25" font-family="Helvetica,sans-Serif" font-size="10.00">cassert</text>
</a>
</g>
</g>
<!-- Node18&#45;&gt;Node20 -->
<g id="edge26_Node000018_Node000020" class="edge">
<title>Node18&#45;&gt;Node20</title>
<g id="a_edge26_Node000018_Node000020"><a xlink:title=" ">
<path fill="none" stroke="#63b8ff" d="M570.64,-165.34C546.43,-156.63 509.58,-143.37 482.54,-133.65"/>
<polygon fill="#63b8ff" stroke="#63b8ff" points="484.01,-130.45 473.41,-130.36 481.64,-137.04 484.01,-130.45"/>
</a>
</g>
</g>
<!-- Node21 -->
<g id="Node000021" class="node">
<title>Node21</title>
<g id="a_Node000021"><a xlink:title=" ">
<polygon fill="#e0e0e0" stroke="#999999" points="549.12,-129.75 490.37,-129.75 490.37,-110.5 549.12,-110.5 549.12,-129.75"/>
<text xml:space="preserve" text-anchor="middle" x="519.74" y="-116.25" font-family="Helvetica,sans-Serif" font-size="10.00">stdexcept</text>
</a>
</g>
</g>
<!-- Node18&#45;&gt;Node21 -->
<g id="edge30_Node000018_Node000021" class="edge">
<title>Node18&#45;&gt;Node21</title>
<g id="a_edge30_Node000018_Node000021"><a xlink:title=" ">
<path fill="none" stroke="#63b8ff" d="M582.85,-165.34C571.71,-157.54 555.37,-146.09 542.1,-136.79"/>
<polygon fill="#63b8ff" stroke="#63b8ff" points="544.14,-133.94 533.94,-131.07 540.12,-139.68 544.14,-133.94"/>
</a>
</g>
</g>
</g>
</svg>

<g id="navigator" transform="translate(0 0)" fill="#404254">
  <rect fill="#f2f5e9" fill-opacity="0.5" stroke="#606060" stroke-width=".5" x="0" y="0" width="60" height="60"/>
  <use id="zoomplus" xlink:href="#zoomPlus" x="17" y="9" onmousedown="handleZoom(evt,'in')"/>
  <use id="zoomminus" xlink:href="#zoomMin" x="42" y="9" onmousedown="handleZoom(evt,'out')"/>
  <use id="reset" xlink:href="#resetDef" x="30" y="36" onmousedown="handleReset()"/>
   <use id="arrowup" xlink:href="#arrowUp" x="0" y="0" onmousedown="handlePan(0,-1)"/>
  <use id="arrowright" xlink:href="#arrowRight" x="0" y="0" onmousedown="handlePan(1,0)"/>
  <use id="arrowdown" xlink:href="#arrowDown" x="0" y="0" onmousedown="handlePan(0,1)"/>
  <use id="arrowleft" xlink:href="#arrowLeft" x="0" y="0" onmousedown="handlePan(-1,0)"/>
</g>
<svg viewBox="0 0 15 15" width="100%" height="30px" preserveAspectRatio="xMaxYMin meet">
 <g id="arrow_out" transform="scale(0.3 0.3)">
  <a xlink:href="_h_d_f5_i_o_8hpp__incl_org.svg" target="_base">
   <rect id="button" ry="5" rx="5" y="6" x="6" height="38" width="38"
        fill="#f2f5e9" fill-opacity="0.5" stroke="#606060" stroke-width="1.0"/>
   <path id="arrow"
     d="M 11.500037,31.436501 C 11.940474,20.09759 22.043105,11.32322 32.158766,21.979434 L 37.068811,17.246167 C 37.068811,17.246167 37.088388,32 37.088388,32 L 22.160133,31.978069 C 22.160133,31.978069 26.997745,27.140456 26.997745,27.140456 C 18.528582,18.264221 13.291696,25.230495 11.500037,31.436501 z"
     style="fill:#404040;"/>
  </a>
 </g>
</svg>

<style type='text/css'>
<![CDATA[
[data-mouse-over-selected='false'] { opacity: 0.7; }
[data-mouse-over-selected='true']  { opacity: 1.0; }
]]>
</style>
<script type="application/ecmascript"><![CDATA[
document.addEventListener('DOMContentLoaded', (event) => {
  highlightEdges();
  highlightAdjacentNodes();
});
]]></script>
</svg>
