<?xml version="1.0" encoding="UTF-8" standalone="no"?>
<!DOCTYPE svg PUBLIC "-//W3C//DTD SVG 1.1//EN"
 "http://www.w3.org/Graphics/SVG/1.1/DTD/svg11.dtd">
<!-- Generated by graphviz version 12.2.1 (20241206.2353)
 -->
<!-- Title: src/hdf5/HDF5IO.hpp Pages: 1 -->
<svg width="350pt" height="138pt"
 viewBox="0.00 0.00 350.00 137.75" xmlns="http://www.w3.org/2000/svg" xmlns:xlink="http://www.w3.org/1999/xlink">
<g id="graph0" class="graph" transform="scale(1 1) rotate(0) translate(4 133.75)">
<title>src/hdf5/HDF5IO.hpp</title>
<!-- Node1 -->
<g id="Node000001" class="node">
<title>Node1</title>
<g id="a_Node000001"><a xlink:title=" ">
<polygon fill="#999999" stroke="#666666" points="277,-129.75 167.25,-129.75 167.25,-110.5 277,-110.5 277,-129.75"/>
<text text-anchor="middle" x="222.12" y="-116.25" font-family="Helvetica,sans-Serif" font-size="10.00">src/hdf5/HDF5IO.hpp</text>
</a>
</g>
</g>
<!-- Node2 -->
<g id="Node000002" class="node">
<title>Node2</title>
<g id="a_Node000002"><a xlink:href="_utils_8hpp.html" target="_top" xlink:title=" ">
<polygon fill="white" stroke="#666666" points="225.88,-74.5 154.38,-74.5 154.38,-55.25 225.88,-55.25 225.88,-74.5"/>
<text text-anchor="middle" x="190.12" y="-61" font-family="Helvetica,sans-Serif" font-size="10.00">src/Utils.hpp</text>
</a>
</g>
</g>
<!-- Node1&#45;&gt;Node2 -->
<g id="edge1_Node000001_Node000002" class="edge">
<title>Node1&#45;&gt;Node2</title>
<g id="a_edge1_Node000001_Node000002"><a xlink:title=" ">
<path fill="none" stroke="#63b8ff" d="M211,-100.62C205.76,-91.89 199.75,-81.89 195.52,-74.86"/>
<polygon fill="#63b8ff" stroke="#63b8ff" points="207.91,-102.27 216.06,-109.03 213.91,-98.66 207.91,-102.27"/>
</a>
</g>
</g>
<!-- Node4 -->
<g id="Node000004" class="node">
<title>Node4</title>
<g id="a_Node000004"><a xlink:href="_h_d_f5_i_o_8cpp.html" target="_top" xlink:title=" ">
<polygon fill="white" stroke="#666666" points="342,-19.25 232.25,-19.25 232.25,0 342,0 342,-19.25"/>
<text text-anchor="middle" x="287.12" y="-5.75" font-family="Helvetica,sans-Serif" font-size="10.00">src/hdf5/HDF5IO.cpp</text>
</a>
</g>
</g>
<!-- Node1&#45;&gt;Node4 -->
<g id="edge5_Node000001_Node000004" class="edge">
<title>Node1&#45;&gt;Node4</title>
<g id="a_edge5_Node000001_Node000004"><a xlink:title=" ">
<path fill="none" stroke="#63b8ff" d="M233.34,-100.4C247.46,-76.83 271.15,-37.29 281.73,-19.63"/>
<polygon fill="#63b8ff" stroke="#63b8ff" points="230.36,-98.57 228.22,-108.95 236.36,-102.17 230.36,-98.57"/>
</a>
</g>
</g>
<!-- Node3 -->
<g id="Node000003" class="node">
<title>Node3</title>
<g id="a_Node000003"><a xlink:href="_base_i_o_8cpp.html" target="_top" xlink:title=" ">
<polygon fill="white" stroke="#666666" points="84.25,-19.25 0,-19.25 0,0 84.25,0 84.25,-19.25"/>
<text text-anchor="middle" x="42.12" y="-5.75" font-family="Helvetica,sans-Serif" font-size="10.00">src/BaseIO.cpp</text>
</a>
</g>
</g>
<!-- Node2&#45;&gt;Node3 -->
<g id="edge2_Node000002_Node000003" class="edge">
<title>Node2&#45;&gt;Node3</title>
<g id="a_edge2_Node000002_Node000003"><a xlink:title=" ">
<path fill="none" stroke="#63b8ff" d="M154.49,-51.05C127.58,-41.37 91.32,-28.32 67.35,-19.7"/>
<polygon fill="#63b8ff" stroke="#63b8ff" points="153,-54.24 163.59,-54.33 155.37,-47.65 153,-54.24"/>
</a>
</g>
</g>
<!-- Node2&#45;&gt;Node4 -->
<g id="edge3_Node000002_Node000004" class="edge">
<title>Node2&#45;&gt;Node4</title>
<g id="a_edge3_Node000002_Node000004"><a xlink:title=" ">
<path fill="none" stroke="#63b8ff" d="M216.6,-49.34C233.84,-39.88 255.79,-27.83 270.59,-19.7"/>
<polygon fill="#63b8ff" stroke="#63b8ff" points="214.99,-46.23 207.91,-54.11 218.36,-52.37 214.99,-46.23"/>
</a>
</g>
</g>
<!-- Node5 -->
<g id="Node000005" class="node">
<title>Node5</title>
<g id="a_Node000005"><a xlink:href="_n_w_b_file_8cpp.html" target="_top" xlink:title=" ">
<polygon fill="white" stroke="#666666" points="214.12,-19.25 102.12,-19.25 102.12,0 214.12,0 214.12,-19.25"/>
<text text-anchor="middle" x="158.12" y="-5.75" font-family="Helvetica,sans-Serif" font-size="10.00">src/nwb/NWBFile.cpp</text>
</a>
</g>
</g>
<!-- Node2&#45;&gt;Node5 -->
<g id="edge4_Node000002_Node000005" class="edge">
<title>Node2&#45;&gt;Node5</title>
<g id="a_edge4_Node000002_Node000005"><a xlink:title=" ">
<path fill="none" stroke="#63b8ff" d="M179,-45.37C173.76,-36.64 167.75,-26.64 163.52,-19.61"/>
<polygon fill="#63b8ff" stroke="#63b8ff" points="175.91,-47.02 184.06,-53.78 181.91,-43.41 175.91,-47.02"/>
</a>
</g>
</g>
</g>
</svg>
