<?xml version="1.0" encoding="UTF-8" standalone="no"?>
<!DOCTYPE svg PUBLIC "-//W3C//DTD SVG 1.1//EN"
 "http://www.w3.org/Graphics/SVG/1.1/DTD/svg11.dtd">
<!-- Generated by graphviz version 12.0.0 (20240704.0754)
 -->
<!-- Title: src/nwb/NWBFile.hpp Pages: 1 -->
<svg width="456pt" height="304pt"
 viewBox="0.00 0.00 455.62 303.50" xmlns="http://www.w3.org/2000/svg" xmlns:xlink="http://www.w3.org/1999/xlink">
<g id="graph0" class="graph" transform="scale(1 1) rotate(0) translate(4 299.5)">
<title>src/nwb/NWBFile.hpp</title>
<!-- Node1 -->
<g id="Node000001" class="node">
<title>Node1</title>
<g id="a_Node000001"><a xlink:title=" ">
<polygon fill="#999999" stroke="#666666" points="233.62,-295.5 121.62,-295.5 121.62,-276.25 233.62,-276.25 233.62,-295.5"/>
<text text-anchor="middle" x="177.62" y="-282" font-family="Helvetica,sans-Serif" font-size="10.00">src/nwb/NWBFile.hpp</text>
</a>
</g>
</g>
<!-- Node2 -->
<g id="Node000002" class="node">
<title>Node2</title>
<g id="a_Node000002"><a xlink:title=" ">
<polygon fill="#e0e0e0" stroke="#999999" points="45.25,-74.5 0,-74.5 0,-55.25 45.25,-55.25 45.25,-74.5"/>
<text text-anchor="middle" x="22.62" y="-61" font-family="Helvetica,sans-Serif" font-size="10.00">cstdint</text>
</a>
</g>
</g>
<!-- Node1&#45;&gt;Node2 -->
<g id="edge1_Node000001_Node000002" class="edge">
<title>Node1&#45;&gt;Node2</title>
<g id="a_edge1_Node000001_Node000002"><a xlink:title=" ">
<path fill="none" stroke="#63b8ff" d="M166.52,-276.05C156.23,-267.55 140.87,-253.98 129.62,-240.25 87.15,-188.38 49.15,-118.21 32.11,-84.92"/>
<polygon fill="#63b8ff" stroke="#63b8ff" points="35.3,-83.47 27.66,-76.12 29.05,-86.62 35.3,-83.47"/>
</a>
</g>
</g>
<!-- Node3 -->
<g id="Node000003" class="node">
<title>Node3</title>
<g id="a_Node000003"><a xlink:title=" ">
<polygon fill="#e0e0e0" stroke="#999999" points="361.25,-74.5 310,-74.5 310,-55.25 361.25,-55.25 361.25,-74.5"/>
<text text-anchor="middle" x="335.62" y="-61" font-family="Helvetica,sans-Serif" font-size="10.00">memory</text>
</a>
</g>
</g>
<!-- Node1&#45;&gt;Node3 -->
<g id="edge2_Node000001_Node000003" class="edge">
<title>Node1&#45;&gt;Node3</title>
<g id="a_edge2_Node000001_Node000003"><a xlink:title=" ">
<path fill="none" stroke="#63b8ff" d="M233.89,-276.76C285.62,-265.89 358.94,-240.98 390.62,-185 410.52,-149.84 376.46,-106.23 353.65,-82.74"/>
<polygon fill="#63b8ff" stroke="#63b8ff" points="356.24,-80.39 346.67,-75.85 351.32,-85.37 356.24,-80.39"/>
</a>
</g>
</g>
<!-- Node4 -->
<g id="Node000004" class="node">
<title>Node4</title>
<g id="a_Node000004"><a xlink:title=" ">
<polygon fill="#e0e0e0" stroke="#999999" points="245.12,-19.25 202.12,-19.25 202.12,0 245.12,0 245.12,-19.25"/>
<text text-anchor="middle" x="223.62" y="-5.75" font-family="Helvetica,sans-Serif" font-size="10.00">vector</text>
</a>
</g>
</g>
<!-- Node1&#45;&gt;Node4 -->
<g id="edge3_Node000001_Node000004" class="edge">
<title>Node1&#45;&gt;Node4</title>
<g id="a_edge3_Node000001_Node000004"><a xlink:title=" ">
<path fill="none" stroke="#63b8ff" d="M233.99,-277.04C271.19,-270.46 320.32,-259.04 360.62,-240.25 404.1,-219.98 447.62,-224.34 447.62,-176.38 447.62,-176.38 447.62,-176.38 447.62,-119.12 447.62,-35.3 318.99,-16.21 256.68,-11.88"/>
<polygon fill="#63b8ff" stroke="#63b8ff" points="257.21,-8.41 247.02,-11.31 256.8,-15.4 257.21,-8.41"/>
</a>
</g>
</g>
<!-- Node5 -->
<g id="Node000005" class="node">
<title>Node5</title>
<g id="a_Node000005"><a xlink:href="_base_i_o_8hpp.html" target="_top" xlink:title=" ">
<polygon fill="white" stroke="#666666" points="196.5,-129.75 128.75,-129.75 128.75,-110.5 196.5,-110.5 196.5,-129.75"/>
<text text-anchor="middle" x="162.62" y="-116.25" font-family="Helvetica,sans-Serif" font-size="10.00">BaseIO.hpp</text>
</a>
</g>
</g>
<!-- Node1&#45;&gt;Node5 -->
<g id="edge4_Node000001_Node000005" class="edge">
<title>Node1&#45;&gt;Node5</title>
<g id="a_edge4_Node000001_Node000005"><a xlink:title=" ">
<path fill="none" stroke="#63b8ff" d="M170.22,-276C163.62,-267.45 154.42,-253.86 150.62,-240.25 141.11,-206.15 149.57,-164.7 156.29,-140.77"/>
<polygon fill="#63b8ff" stroke="#63b8ff" points="159.57,-142.02 159.11,-131.43 152.87,-139.99 159.57,-142.02"/>
</a>
</g>
</g>
<!-- Node8 -->
<g id="Node000008" class="node">
<title>Node8</title>
<g id="a_Node000008"><a xlink:href="_types_8hpp.html" target="_top" xlink:title=" ">
<polygon fill="white" stroke="#666666" points="124.12,-74.5 63.12,-74.5 63.12,-55.25 124.12,-55.25 124.12,-74.5"/>
<text text-anchor="middle" x="93.62" y="-61" font-family="Helvetica,sans-Serif" font-size="10.00">Types.hpp</text>
</a>
</g>
</g>
<!-- Node1&#45;&gt;Node8 -->
<g id="edge13_Node000001_Node000008" class="edge">
<title>Node1&#45;&gt;Node8</title>
<g id="a_edge13_Node000001_Node000008"><a xlink:title=" ">
<path fill="none" stroke="#63b8ff" d="M168.96,-276.04C161.05,-267.52 149.57,-253.95 142.62,-240.25 116.12,-188.01 102.24,-119.47 96.65,-86.01"/>
<polygon fill="#63b8ff" stroke="#63b8ff" points="100.11,-85.48 95.09,-76.15 93.2,-86.58 100.11,-85.48"/>
</a>
</g>
</g>
<!-- Node10 -->
<g id="Node000010" class="node">
<title>Node10</title>
<g id="a_Node000010"><a xlink:href="_time_series_8hpp.html" target="_top" xlink:title=" ">
<polygon fill="white" stroke="#666666" points="289.25,-240.25 160,-240.25 160,-221 289.25,-221 289.25,-240.25"/>
<text text-anchor="middle" x="224.62" y="-226.75" font-family="Helvetica,sans-Serif" font-size="10.00">nwb/base/TimeSeries.hpp</text>
</a>
</g>
</g>
<!-- Node1&#45;&gt;Node10 -->
<g id="edge14_Node000001_Node000010" class="edge">
<title>Node1&#45;&gt;Node10</title>
<g id="a_edge14_Node000001_Node000010"><a xlink:title=" ">
<path fill="none" stroke="#63b8ff" d="M185.39,-276.08C191.81,-268.8 201.14,-258.23 209.09,-249.23"/>
<polygon fill="#63b8ff" stroke="#63b8ff" points="211.7,-251.56 215.69,-241.74 206.45,-246.93 211.7,-251.56"/>
</a>
</g>
</g>
<!-- Node5&#45;&gt;Node2 -->
<g id="edge5_Node000005_Node000002" class="edge">
<title>Node5&#45;&gt;Node2</title>
<g id="a_edge5_Node000005_Node000002"><a xlink:title=" ">
<path fill="none" stroke="#63b8ff" d="M138.88,-110.09C116.18,-101.46 81.74,-88.36 56.23,-78.66"/>
<polygon fill="#63b8ff" stroke="#63b8ff" points="57.57,-75.42 46.97,-75.14 55.08,-81.96 57.57,-75.42"/>
</a>
</g>
</g>
<!-- Node5&#45;&gt;Node3 -->
<g id="edge7_Node000005_Node000003" class="edge">
<title>Node5&#45;&gt;Node3</title>
<g id="a_edge7_Node000005_Node000003"><a xlink:title=" ">
<path fill="none" stroke="#63b8ff" d="M191.97,-110.09C221.46,-101.01 267,-87 298.88,-77.19"/>
<polygon fill="#63b8ff" stroke="#63b8ff" points="299.56,-80.64 308.09,-74.35 297.5,-73.95 299.56,-80.64"/>
</a>
</g>
</g>
<!-- Node5&#45;&gt;Node4 -->
<g id="edge9_Node000005_Node000004" class="edge">
<title>Node5&#45;&gt;Node4</title>
<g id="a_edge9_Node000005_Node000004"><a xlink:title=" ">
<path fill="none" stroke="#63b8ff" d="M173.42,-110.28C182.91,-101.97 196.45,-88.7 204.62,-74.5 212.5,-60.82 217.37,-43.58 220.21,-30.46"/>
<polygon fill="#63b8ff" stroke="#63b8ff" points="223.6,-31.37 222.06,-20.88 216.73,-30.04 223.6,-31.37"/>
</a>
</g>
</g>
<!-- Node6 -->
<g id="Node000006" class="node">
<title>Node6</title>
<g id="a_Node000006"><a xlink:title=" ">
<polygon fill="#e0e0e0" stroke="#999999" points="195.38,-74.5 141.88,-74.5 141.88,-55.25 195.38,-55.25 195.38,-74.5"/>
<text text-anchor="middle" x="168.62" y="-61" font-family="Helvetica,sans-Serif" font-size="10.00">iostream</text>
</a>
</g>
</g>
<!-- Node5&#45;&gt;Node6 -->
<g id="edge6_Node000005_Node000006" class="edge">
<title>Node5&#45;&gt;Node6</title>
<g id="a_edge6_Node000005_Node000006"><a xlink:title=" ">
<path fill="none" stroke="#63b8ff" d="M163.62,-110.33C164.36,-103.74 165.4,-94.46 166.35,-86.07"/>
<polygon fill="#63b8ff" stroke="#63b8ff" points="169.8,-86.69 167.44,-76.36 162.85,-85.91 169.8,-86.69"/>
</a>
</g>
</g>
<!-- Node7 -->
<g id="Node000007" class="node">
<title>Node7</title>
<g id="a_Node000007"><a xlink:title=" ">
<polygon fill="#e0e0e0" stroke="#999999" points="291.62,-74.5 251.62,-74.5 251.62,-55.25 291.62,-55.25 291.62,-74.5"/>
<text text-anchor="middle" x="271.62" y="-61" font-family="Helvetica,sans-Serif" font-size="10.00">string</text>
</a>
</g>
</g>
<!-- Node5&#45;&gt;Node7 -->
<g id="edge8_Node000005_Node000007" class="edge">
<title>Node5&#45;&gt;Node7</title>
<g id="a_edge8_Node000005_Node000007"><a xlink:title=" ">
<path fill="none" stroke="#63b8ff" d="M181.12,-110.09C198.03,-101.83 223.31,-89.48 242.86,-79.93"/>
<polygon fill="#63b8ff" stroke="#63b8ff" points="244.24,-83.15 251.68,-75.62 241.16,-76.86 244.24,-83.15"/>
</a>
</g>
</g>
<!-- Node5&#45;&gt;Node8 -->
<g id="edge10_Node000005_Node000008" class="edge">
<title>Node5&#45;&gt;Node8</title>
<g id="a_edge10_Node000005_Node000008"><a xlink:title=" ">
<path fill="none" stroke="#63b8ff" d="M150.92,-110.09C140.85,-102.32 126.08,-90.92 114.06,-81.65"/>
<polygon fill="#63b8ff" stroke="#63b8ff" points="116.41,-79.04 106.36,-75.7 112.13,-84.58 116.41,-79.04"/>
</a>
</g>
</g>
<!-- Node8&#45;&gt;Node4 -->
<g id="edge12_Node000008_Node000004" class="edge">
<title>Node8&#45;&gt;Node4</title>
<g id="a_edge12_Node000008_Node000004"><a xlink:title=" ">
<path fill="none" stroke="#63b8ff" d="M115.68,-54.84C136.44,-46.34 167.78,-33.5 191.36,-23.84"/>
<polygon fill="#63b8ff" stroke="#63b8ff" points="192.57,-27.13 200.5,-20.1 189.92,-20.65 192.57,-27.13"/>
</a>
</g>
</g>
<!-- Node9 -->
<g id="Node000009" class="node">
<title>Node9</title>
<g id="a_Node000009"><a xlink:title=" ">
<polygon fill="#e0e0e0" stroke="#999999" points="117.75,-19.25 69.5,-19.25 69.5,0 117.75,0 117.75,-19.25"/>
<text text-anchor="middle" x="93.62" y="-5.75" font-family="Helvetica,sans-Serif" font-size="10.00">cstddef</text>
</a>
</g>
</g>
<!-- Node8&#45;&gt;Node9 -->
<g id="edge11_Node000008_Node000009" class="edge">
<title>Node8&#45;&gt;Node9</title>
<g id="a_edge11_Node000008_Node000009"><a xlink:title=" ">
<path fill="none" stroke="#63b8ff" d="M93.62,-55.08C93.62,-48.57 93.62,-39.42 93.62,-31.12"/>
<polygon fill="#63b8ff" stroke="#63b8ff" points="97.13,-31.12 93.63,-21.12 90.13,-31.12 97.13,-31.12"/>
</a>
</g>
</g>
<!-- Node10&#45;&gt;Node5 -->
<g id="edge16_Node000010_Node000005" class="edge">
<title>Node10&#45;&gt;Node5</title>
<g id="a_edge16_Node000010_Node000005"><a xlink:title=" ">
<path fill="none" stroke="#63b8ff" d="M217.78,-220.67C211.2,-211.85 201.15,-197.86 193.62,-185 185.14,-170.5 176.9,-153.34 171.06,-140.46"/>
<polygon fill="#63b8ff" stroke="#63b8ff" points="174.3,-139.12 167.03,-131.41 167.9,-141.97 174.3,-139.12"/>
</a>
</g>
</g>
<!-- Node10&#45;&gt;Node7 -->
<g id="edge15_Node000010_Node000007" class="edge">
<title>Node10&#45;&gt;Node7</title>
<g id="a_edge15_Node000010_Node000007"><a xlink:title=" ">
<path fill="none" stroke="#63b8ff" d="M223.83,-220.81C222.95,-208.36 222.17,-184.99 226.62,-165.75 233.54,-135.87 249.59,-104.01 260.54,-84.51"/>
<polygon fill="#63b8ff" stroke="#63b8ff" points="263.41,-86.53 265.38,-76.12 257.35,-83.03 263.41,-86.53"/>
</a>
</g>
</g>
<!-- Node11 -->
<g id="Node000011" class="node">
<title>Node11</title>
<g id="a_Node000011"><a xlink:href="_container_8hpp.html" target="_top" xlink:title=" ">
<polygon fill="white" stroke="#666666" points="381.5,-185 235.75,-185 235.75,-165.75 381.5,-165.75 381.5,-185"/>
<text text-anchor="middle" x="308.62" y="-171.5" font-family="Helvetica,sans-Serif" font-size="10.00">nwb/hdmf/base/Container.hpp</text>
</a>
</g>
</g>
<!-- Node10&#45;&gt;Node11 -->
<g id="edge17_Node000010_Node000011" class="edge">
<title>Node10&#45;&gt;Node11</title>
<g id="a_edge17_Node000010_Node000011"><a xlink:title=" ">
<path fill="none" stroke="#63b8ff" d="M238.87,-220.59C251.42,-212.64 269.96,-200.89 284.77,-191.5"/>
<polygon fill="#63b8ff" stroke="#63b8ff" points="286.46,-194.57 293.03,-186.26 282.71,-188.66 286.46,-194.57"/>
</a>
</g>
</g>
<!-- Node11&#45;&gt;Node3 -->
<g id="edge18_Node000011_Node000003" class="edge">
<title>Node11&#45;&gt;Node3</title>
<g id="a_edge18_Node000011_Node000003"><a xlink:title=" ">
<path fill="none" stroke="#63b8ff" d="M310.83,-165.5C315.15,-148.17 324.77,-109.48 330.68,-85.74"/>
<polygon fill="#63b8ff" stroke="#63b8ff" points="334,-86.89 333.02,-76.35 327.21,-85.2 334,-86.89"/>
</a>
</g>
</g>
<!-- Node11&#45;&gt;Node5 -->
<g id="edge20_Node000011_Node000005" class="edge">
<title>Node11&#45;&gt;Node5</title>
<g id="a_edge20_Node000011_Node000005"><a xlink:title=" ">
<path fill="none" stroke="#63b8ff" d="M283.86,-165.34C260.37,-156.77 224.81,-143.81 198.27,-134.13"/>
<polygon fill="#63b8ff" stroke="#63b8ff" points="199.53,-130.86 188.94,-130.72 197.13,-137.44 199.53,-130.86"/>
</a>
</g>
</g>
<!-- Node11&#45;&gt;Node7 -->
<g id="edge19_Node000011_Node000007" class="edge">
<title>Node11&#45;&gt;Node7</title>
<g id="a_edge19_Node000011_Node000007"><a xlink:title=" ">
<path fill="none" stroke="#63b8ff" d="M305.6,-165.5C299.69,-148.17 286.49,-109.48 278.4,-85.74"/>
<polygon fill="#63b8ff" stroke="#63b8ff" points="281.72,-84.64 275.18,-76.31 275.1,-86.9 281.72,-84.64"/>
</a>
</g>
</g>
</g>
</svg>
