<?xml version="1.0" encoding="UTF-8" standalone="no"?>
<!DOCTYPE svg PUBLIC "-//W3C//DTD SVG 1.1//EN"
 "http://www.w3.org/Graphics/SVG/1.1/DTD/svg11.dtd">
<!-- Generated by graphviz version 13.1.2 (20250808.2320)
 -->
<!-- Title: src/spec/NamespaceRegistry.hpp Pages: 1 -->
<!--zoomable 537 -->

<svg id="main" version="1.1" xmlns="http://www.w3.org/2000/svg" xmlns:xlink="http://www.w3.org/1999/xlink" xml:space="preserve" onload="init(evt)">

<style type="text/css"><![CDATA[
.node, .edge {opacity: 0.7;}
.node.selected, .edge.selected {opacity: 1;}
.edge:hover path { stroke: red; }
.edge:hover polygon { stroke: red; fill: red; }
]]></style>

<defs>
  <circle id="rim" cx="0" cy="0" r="7"/>
  <circle id="rim2" cx="0" cy="0" r="3.5"/>
  <g id="zoomPlus">
    <use xlink:href="#rim" fill="#404040"><set attributeName="fill" to="#808080" begin="zoomplus.mouseover" end="zoomplus.mouseout"/></use>
    <path d="M-4,0h8M0,-4v8" fill="none" stroke="white" stroke-width="1.5" pointer-events="none"/>
  </g>
  <g id="zoomMin">
    <use xlink:href="#rim" fill="#404040"><set attributeName="fill" to="#808080" begin="zoomminus.mouseover" end="zoomminus.mouseout"/></use>
    <path d="M-4,0h8" fill="none" stroke="white" stroke-width="1.5" pointer-events="none"/>
  </g>
  <g id="arrowUp" transform="translate(30 24)">
    <use xlink:href="#rim"/>
    <path pointer-events="none" fill="none" stroke="white" stroke-width="1.5" d="M0,-3.0v7 M-2.5,-0.5L0,-3.0L2.5,-0.5"/>
  </g>
  <g id="arrowRight" transform="rotate(90) translate(36 -43)">
    <use xlink:href="#rim"/>
    <path pointer-events="none" fill="none" stroke="white" stroke-width="1.5" d="M0,-3.0v7 M-2.5,-0.5L0,-3.0L2.5,-0.5"/>
  </g>
  <g id="arrowDown" transform="rotate(180) translate(-30 -48)">
    <use xlink:href="#rim"/>
    <path pointer-events="none" fill="none" stroke="white" stroke-width="1.5" d="M0,-3.0v7 M-2.5,-0.5L0,-3.0L2.5,-0.5"/>
  </g>
  <g id="arrowLeft" transform="rotate(270) translate(-36 17)">
    <use xlink:href="#rim"/>
    <path pointer-events="none" fill="none" stroke="white" stroke-width="1.5" d="M0,-3.0v7 M-2.5,-0.5L0,-3.0L2.5,-0.5"/>
  </g>
  <g id="resetDef">
    <use xlink:href="#rim2" fill="#404040"><set attributeName="fill" to="#808080" begin="reset.mouseover" end="reset.mouseout"/></use>
  </g>
</defs>
<script type="application/ecmascript">
var viewWidth = 1877;
var viewHeight = 537;
var sectionId = 'dynsection-1';
</script>
<script type="application/ecmascript" xlink:href="svg.min.js"/>
<svg id="graph" class="graph">
<g id="viewport">
<title>src/spec/NamespaceRegistry.hpp</title>
<!-- Node1 -->
<g id="Node000001" class="node">
<title>Node1</title>
<g id="a_Node000001"><a xlink:title=" ">
<polygon fill="#999999" stroke="#666666" points="538.5,-528.75 375.5,-528.75 375.5,-509.5 538.5,-509.5 538.5,-528.75"/>
<text xml:space="preserve" text-anchor="middle" x="457" y="-515.25" font-family="Helvetica,sans-Serif" font-size="10.00">src/spec/NamespaceRegistry.hpp</text>
</a>
</g>
</g>
<!-- Node2 -->
<g id="Node000002" class="node">
<title>Node2</title>
<g id="a_Node000002"><a xlink:href="_n_w_b_file_8cpp.html" target="_top" xlink:title=" ">
<polygon fill="white" stroke="#666666" points="1135,-24.88 1023,-24.88 1023,-5.63 1135,-5.63 1135,-24.88"/>
<text xml:space="preserve" text-anchor="middle" x="1079" y="-11.38" font-family="Helvetica,sans-Serif" font-size="10.00">src/nwb/NWBFile.cpp</text>
</a>
</g>
</g>
<!-- Node1&#45;&gt;Node2 -->
<g id="edge1_Node000001_Node000002" class="edge">
<title>Node1&#45;&gt;Node2</title>
<g id="a_edge1_Node000001_Node000002"><a xlink:title=" ">
<path fill="none" stroke="#63b8ff" d="M363.6,-514.72C229.92,-507.26 0,-483.66 0,-409.62 0,-409.62 0,-409.62 0,-147.25 0,-88.38 49.77,-86.88 105,-66.5 190.98,-34.77 828.15,-20.77 1022.73,-17.2"/>
<polygon fill="#63b8ff" stroke="#63b8ff" points="363.35,-518.21 373.52,-515.25 363.72,-511.22 363.35,-518.21"/>
</a>
</g>
</g>
<!-- Node3 -->
<g id="Node000003" class="node">
<title>Node3</title>
<g id="a_Node000003"><a xlink:href="_namespace_registry_8cpp.html" target="_top" xlink:title=" ">
<polygon fill="white" stroke="#666666" points="1010.5,-473.5 847.5,-473.5 847.5,-454.25 1010.5,-454.25 1010.5,-473.5"/>
<text xml:space="preserve" text-anchor="middle" x="929" y="-460" font-family="Helvetica,sans-Serif" font-size="10.00">src/spec/NamespaceRegistry.cpp</text>
</a>
</g>
</g>
<!-- Node1&#45;&gt;Node3 -->
<g id="edge2_Node000001_Node000003" class="edge">
<title>Node1&#45;&gt;Node3</title>
<g id="a_edge2_Node000001_Node000003"><a xlink:title=" ">
<path fill="none" stroke="#63b8ff" d="M549.06,-507.74C636.1,-497.92 765.38,-483.33 848.43,-473.96"/>
<polygon fill="#63b8ff" stroke="#63b8ff" points="548.92,-504.23 539.38,-508.83 549.7,-511.19 548.92,-504.23"/>
</a>
</g>
</g>
<!-- Node4 -->
<g id="Node000004" class="node">
<title>Node4</title>
<g id="a_Node000004"><a xlink:href="core_8hpp.html" target="_top" xlink:title=" ">
<polygon fill="white" stroke="#666666" points="1083,-290.88 989,-290.88 989,-271.62 1083,-271.62 1083,-290.88"/>
<text xml:space="preserve" text-anchor="middle" x="1036" y="-277.38" font-family="Helvetica,sans-Serif" font-size="10.00">src/spec/core.hpp</text>
</a>
</g>
</g>
<!-- Node1&#45;&gt;Node4 -->
<g id="edge3_Node000001_Node000004" class="edge">
<title>Node1&#45;&gt;Node4</title>
<g id="a_edge3_Node000001_Node000004"><a xlink:title=" ">
<path fill="none" stroke="#63b8ff" d="M490,-504.68C595.82,-461.57 924.91,-327.5 1013.72,-291.32"/>
<polygon fill="#63b8ff" stroke="#63b8ff" points="488.68,-501.44 480.74,-508.45 491.33,-507.92 488.68,-501.44"/>
</a>
</g>
</g>
<!-- Node22 -->
<g id="Node000022" class="node">
<title>Node22</title>
<g id="a_Node000022"><a xlink:href="hdmf__common_8hpp.html" target="_top" xlink:title=" ">
<polygon fill="white" stroke="#666666" points="526.88,-473.5 387.12,-473.5 387.12,-454.25 526.88,-454.25 526.88,-473.5"/>
<text xml:space="preserve" text-anchor="middle" x="457" y="-460" font-family="Helvetica,sans-Serif" font-size="10.00">src/spec/hdmf_common.hpp</text>
</a>
</g>
</g>
<!-- Node1&#45;&gt;Node22 -->
<g id="edge40_Node000001_Node000022" class="edge">
<title>Node1&#45;&gt;Node22</title>
<g id="a_edge40_Node000001_Node000022"><a xlink:title=" ">
<path fill="none" stroke="#63b8ff" d="M457,-497.88C457,-489.59 457,-480.42 457,-473.86"/>
<polygon fill="#63b8ff" stroke="#63b8ff" points="453.5,-497.82 457,-507.82 460.5,-497.82 453.5,-497.82"/>
</a>
</g>
</g>
<!-- Node33 -->
<g id="Node000033" class="node">
<title>Node33</title>
<g id="a_Node000033"><a xlink:href="hdmf__experimental_8hpp.html" target="_top" xlink:title=" ">
<polygon fill="white" stroke="#666666" points="185.88,-418.25 28.12,-418.25 28.12,-399 185.88,-399 185.88,-418.25"/>
<text xml:space="preserve" text-anchor="middle" x="107" y="-404.75" font-family="Helvetica,sans-Serif" font-size="10.00">src/spec/hdmf_experimental.hpp</text>
</a>
</g>
</g>
<!-- Node1&#45;&gt;Node33 -->
<g id="edge65_Node000001_Node000033" class="edge">
<title>Node1&#45;&gt;Node33</title>
<g id="a_edge65_Node000001_Node000033"><a xlink:title=" ">
<path fill="none" stroke="#63b8ff" d="M417.03,-505.73C345.93,-483.69 199.08,-438.17 136.4,-418.74"/>
<polygon fill="#63b8ff" stroke="#63b8ff" points="415.73,-508.99 426.32,-508.61 417.8,-502.31 415.73,-508.99"/>
</a>
</g>
</g>
<!-- Node4&#45;&gt;Node2 -->
<g id="edge4_Node000004_Node000002" class="edge">
<title>Node4&#45;&gt;Node2</title>
<g id="a_edge4_Node000004_Node000002"><a xlink:title=" ">
<path fill="none" stroke="#63b8ff" d="M1094.79,-280.12C1175.79,-276.37 1319.25,-256.13 1386,-163.5 1411.2,-128.52 1413.91,-99.35 1386,-66.5 1354.48,-29.41 1215.15,-19.64 1135.45,-17.1"/>
<polygon fill="#63b8ff" stroke="#63b8ff" points="1094.68,-276.62 1084.82,-280.5 1094.95,-283.61 1094.68,-276.62"/>
</a>
</g>
</g>
<!-- Node5 -->
<g id="Node000005" class="node">
<title>Node5</title>
<g id="a_Node000005"><a xlink:href="_n_w_b_file_8hpp.html" target="_top" xlink:title=" ">
<polygon fill="white" stroke="#666666" points="523,-91.38 411,-91.38 411,-72.12 523,-72.12 523,-91.38"/>
<text xml:space="preserve" text-anchor="middle" x="467" y="-77.88" font-family="Helvetica,sans-Serif" font-size="10.00">src/nwb/NWBFile.hpp</text>
</a>
</g>
</g>
<!-- Node4&#45;&gt;Node5 -->
<g id="edge5_Node000004_Node000005" class="edge">
<title>Node4&#45;&gt;Node5</title>
<g id="a_edge5_Node000004_Node000005"><a xlink:title=" ">
<path fill="none" stroke="#63b8ff" d="M977.53,-273.11C895.04,-262.78 748.77,-243.42 697,-230 659.76,-220.35 652.52,-211.57 616,-199.5 560.7,-181.22 531.17,-204.7 490,-163.5 470.22,-143.7 467.17,-108.18 466.88,-91.66"/>
<polygon fill="#63b8ff" stroke="#63b8ff" points="976.87,-276.56 987.23,-274.32 977.74,-269.61 976.87,-276.56"/>
</a>
</g>
</g>
<!-- Node6 -->
<g id="Node000006" class="node">
<title>Node6</title>
<g id="a_Node000006"><a xlink:href="_time_series_8hpp.html" target="_top" xlink:title=" ">
<polygon fill="white" stroke="#666666" points="851.88,-224.38 706.12,-224.38 706.12,-205.12 851.88,-205.12 851.88,-224.38"/>
<text xml:space="preserve" text-anchor="middle" x="779" y="-210.88" font-family="Helvetica,sans-Serif" font-size="10.00">src/nwb/base/TimeSeries.hpp</text>
</a>
</g>
</g>
<!-- Node4&#45;&gt;Node6 -->
<g id="edge7_Node000004_Node000006" class="edge">
<title>Node4&#45;&gt;Node6</title>
<g id="a_edge7_Node000004_Node000006"><a xlink:title=" ">
<path fill="none" stroke="#63b8ff" d="M988.86,-268.42C938.73,-255.84 860.54,-236.21 815.09,-224.81"/>
<polygon fill="#63b8ff" stroke="#63b8ff" points="987.7,-271.74 998.26,-270.78 989.41,-264.95 987.7,-271.74"/>
</a>
</g>
</g>
<!-- Node10 -->
<g id="Node000010" class="node">
<title>Node10</title>
<g id="a_Node000010"><a xlink:href="_electrical_series_8hpp.html" target="_top" xlink:title=" ">
<polygon fill="white" stroke="#666666" points="1012.88,-163.5 879.12,-163.5 879.12,-133 1012.88,-133 1012.88,-163.5"/>
<text xml:space="preserve" text-anchor="start" x="887.12" y="-150" font-family="Helvetica,sans-Serif" font-size="10.00">src/nwb/ecephys/Electrical</text>
<text xml:space="preserve" text-anchor="middle" x="946" y="-138.75" font-family="Helvetica,sans-Serif" font-size="10.00">Series.hpp</text>
</a>
</g>
</g>
<!-- Node4&#45;&gt;Node10 -->
<g id="edge31_Node000004_Node000010" class="edge">
<title>Node4&#45;&gt;Node10</title>
<g id="a_edge31_Node000004_Node000010"><a xlink:title=" ">
<path fill="none" stroke="#63b8ff" d="M1006,-265.65C991.55,-257.15 975.19,-245.12 965,-230 951.4,-209.82 947.47,-181.09 946.38,-163.9"/>
<polygon fill="#63b8ff" stroke="#63b8ff" points="1004.3,-268.7 1014.75,-270.47 1007.68,-262.57 1004.3,-268.7"/>
</a>
</g>
</g>
<!-- Node12 -->
<g id="Node000012" class="node">
<title>Node12</title>
<g id="a_Node000012"><a xlink:href="_spike_event_series_8hpp.html" target="_top" xlink:title=" ">
<polygon fill="white" stroke="#666666" points="1614.75,-97 1471.25,-97 1471.25,-66.5 1614.75,-66.5 1614.75,-97"/>
<text xml:space="preserve" text-anchor="start" x="1479.25" y="-83.5" font-family="Helvetica,sans-Serif" font-size="10.00">src/nwb/ecephys/SpikeEvent</text>
<text xml:space="preserve" text-anchor="middle" x="1543" y="-72.25" font-family="Helvetica,sans-Serif" font-size="10.00">Series.hpp</text>
</a>
</g>
</g>
<!-- Node4&#45;&gt;Node12 -->
<g id="edge32_Node000004_Node000012" class="edge">
<title>Node4&#45;&gt;Node12</title>
<g id="a_edge32_Node000004_Node000012"><a xlink:title=" ">
<path fill="none" stroke="#63b8ff" d="M1094.77,-278.33C1229.88,-272.46 1555.32,-249.49 1612,-163.5 1619.46,-152.18 1618.15,-145.08 1612,-133 1604.14,-117.55 1589.05,-105.72 1574.98,-97.44"/>
<polygon fill="#63b8ff" stroke="#63b8ff" points="1094.81,-274.83 1084.97,-278.74 1095.1,-281.82 1094.81,-274.83"/>
</a>
</g>
</g>
<!-- Node14 -->
<g id="Node000014" class="node">
<title>Node14</title>
<g id="a_Node000014"><a xlink:href="_annotation_series_8hpp.html" target="_top" xlink:title=" ">
<polygon fill="white" stroke="#666666" points="1603.25,-157.88 1432.75,-157.88 1432.75,-138.62 1603.25,-138.62 1603.25,-157.88"/>
<text xml:space="preserve" text-anchor="middle" x="1518" y="-144.38" font-family="Helvetica,sans-Serif" font-size="10.00">src/nwb/misc/AnnotationSeries.hpp</text>
</a>
</g>
</g>
<!-- Node4&#45;&gt;Node14 -->
<g id="edge39_Node000004_Node000014" class="edge">
<title>Node4&#45;&gt;Node14</title>
<g id="a_edge39_Node000004_Node000014"><a xlink:title=" ">
<path fill="none" stroke="#63b8ff" d="M1094.77,-276.48C1187.23,-269.89 1362.02,-254.59 1419,-230 1458.51,-212.95 1494.99,-175.37 1510.34,-158.17"/>
<polygon fill="#63b8ff" stroke="#63b8ff" points="1094.61,-272.98 1084.88,-277.17 1095.1,-279.96 1094.61,-272.98"/>
</a>
</g>
</g>
<!-- Node16 -->
<g id="Node000016" class="node">
<title>Node16</title>
<g id="a_Node000016"><a xlink:href="_device_8hpp.html" target="_top" xlink:title=" ">
<polygon fill="white" stroke="#666666" points="1108.25,-224.38 973.75,-224.38 973.75,-205.12 1108.25,-205.12 1108.25,-224.38"/>
<text xml:space="preserve" text-anchor="middle" x="1041" y="-210.88" font-family="Helvetica,sans-Serif" font-size="10.00">src/nwb/device/Device.hpp</text>
</a>
</g>
</g>
<!-- Node4&#45;&gt;Node16 -->
<g id="edge25_Node000004_Node000016" class="edge">
<title>Node4&#45;&gt;Node16</title>
<g id="a_edge25_Node000004_Node000016"><a xlink:title=" ">
<path fill="none" stroke="#63b8ff" d="M1037.56,-260.15C1038.48,-248.25 1039.6,-233.76 1040.31,-224.64"/>
<polygon fill="#63b8ff" stroke="#63b8ff" points="1034.1,-259.53 1036.81,-269.77 1041.07,-260.07 1034.1,-259.53"/>
</a>
</g>
</g>
<!-- Node18 -->
<g id="Node000018" class="node">
<title>Node18</title>
<g id="a_Node000018"><a xlink:href="_electrode_group_8hpp.html" target="_top" xlink:title=" ">
<polygon fill="white" stroke="#666666" points="1376.75,-157.88 1221.25,-157.88 1221.25,-138.62 1376.75,-138.62 1376.75,-157.88"/>
<text xml:space="preserve" text-anchor="middle" x="1299" y="-144.38" font-family="Helvetica,sans-Serif" font-size="10.00">src/nwb/file/ElectrodeGroup.hpp</text>
</a>
</g>
</g>
<!-- Node4&#45;&gt;Node18 -->
<g id="edge33_Node000004_Node000018" class="edge">
<title>Node4&#45;&gt;Node18</title>
<g id="a_edge33_Node000004_Node000018"><a xlink:title=" ">
<path fill="none" stroke="#63b8ff" d="M1064.35,-266.13C1118.6,-239.11 1235.71,-180.77 1280.8,-158.32"/>
<polygon fill="#63b8ff" stroke="#63b8ff" points="1062.82,-262.98 1055.43,-270.57 1065.94,-269.25 1062.82,-262.98"/>
</a>
</g>
</g>
<!-- Node20 -->
<g id="Node000020" class="node">
<title>Node20</title>
<g id="a_Node000020"><a xlink:href="_electrode_table_8hpp.html" target="_top" xlink:title=" ">
<polygon fill="white" stroke="#666666" points="456.25,-224.38 303.75,-224.38 303.75,-205.12 456.25,-205.12 456.25,-224.38"/>
<text xml:space="preserve" text-anchor="middle" x="380" y="-210.88" font-family="Helvetica,sans-Serif" font-size="10.00">src/nwb/file/ElectrodeTable.hpp</text>
</a>
</g>
</g>
<!-- Node4&#45;&gt;Node20 -->
<g id="edge34_Node000004_Node000020" class="edge">
<title>Node4&#45;&gt;Node20</title>
<g id="a_edge34_Node000004_Node000020"><a xlink:title=" ">
<path fill="none" stroke="#63b8ff" d="M977.42,-273.3C955.92,-270.84 931.37,-268.16 909,-266 711.94,-246.96 661.47,-254.39 465,-230 453.57,-228.58 441.32,-226.73 429.79,-224.83"/>
<polygon fill="#63b8ff" stroke="#63b8ff" points="976.86,-276.75 987.19,-274.42 977.65,-269.8 976.86,-276.75"/>
</a>
</g>
</g>
<!-- Node5&#45;&gt;Node2 -->
<g id="edge6_Node000005_Node000002" class="edge">
<title>Node5&#45;&gt;Node2</title>
<g id="a_edge6_Node000005_Node000002"><a xlink:title=" ">
<path fill="none" stroke="#63b8ff" d="M534.84,-73.6C656.55,-60.77 909.83,-34.08 1022.66,-22.19"/>
<polygon fill="#63b8ff" stroke="#63b8ff" points="534.56,-70.11 524.98,-74.64 535.3,-77.07 534.56,-70.11"/>
</a>
</g>
</g>
<!-- Node6&#45;&gt;Node5 -->
<g id="edge8_Node000006_Node000005" class="edge">
<title>Node6&#45;&gt;Node5</title>
<g id="a_edge8_Node000006_Node000005"><a xlink:title=" ">
<path fill="none" stroke="#63b8ff" d="M694.72,-203.98C631.7,-195.42 551.81,-181.54 524,-163.5 496.21,-145.48 477.93,-108.73 470.61,-91.74"/>
<polygon fill="#63b8ff" stroke="#63b8ff" points="694,-207.42 704.38,-205.26 694.92,-200.48 694,-207.42"/>
</a>
</g>
</g>
<!-- Node7 -->
<g id="Node000007" class="node">
<title>Node7</title>
<g id="a_Node000007"><a xlink:href="_recording_containers_8hpp.html" target="_top" xlink:title=" ">
<polygon fill="white" stroke="#666666" points="860.88,-157.88 697.12,-157.88 697.12,-138.62 860.88,-138.62 860.88,-157.88"/>
<text xml:space="preserve" text-anchor="middle" x="779" y="-144.38" font-family="Helvetica,sans-Serif" font-size="10.00">src/nwb/RecordingContainers.hpp</text>
</a>
</g>
</g>
<!-- Node6&#45;&gt;Node7 -->
<g id="edge9_Node000006_Node000007" class="edge">
<title>Node6&#45;&gt;Node7</title>
<g id="a_edge9_Node000006_Node000007"><a xlink:title=" ">
<path fill="none" stroke="#63b8ff" d="M779,-193.27C779,-181.44 779,-167.16 779,-158.14"/>
<polygon fill="#63b8ff" stroke="#63b8ff" points="775.5,-193.27 779,-203.27 782.5,-193.27 775.5,-193.27"/>
</a>
</g>
</g>
<!-- Node9 -->
<g id="Node000009" class="node">
<title>Node9</title>
<g id="a_Node000009"><a xlink:href="_time_series_8cpp.html" target="_top" xlink:title=" ">
<polygon fill="white" stroke="#666666" points="678.88,-157.88 533.12,-157.88 533.12,-138.62 678.88,-138.62 678.88,-157.88"/>
<text xml:space="preserve" text-anchor="middle" x="606" y="-144.38" font-family="Helvetica,sans-Serif" font-size="10.00">src/nwb/base/TimeSeries.cpp</text>
</a>
</g>
</g>
<!-- Node6&#45;&gt;Node9 -->
<g id="edge12_Node000006_Node000009" class="edge">
<title>Node6&#45;&gt;Node9</title>
<g id="a_edge12_Node000006_Node000009"><a xlink:title=" ">
<path fill="none" stroke="#63b8ff" d="M743.8,-200.63C710.01,-188.03 659.86,-169.33 630.3,-158.31"/>
<polygon fill="#63b8ff" stroke="#63b8ff" points="742.57,-203.9 753.16,-204.12 745.01,-197.34 742.57,-203.9"/>
</a>
</g>
</g>
<!-- Node6&#45;&gt;Node10 -->
<g id="edge13_Node000006_Node000010" class="edge">
<title>Node6&#45;&gt;Node10</title>
<g id="a_edge13_Node000006_Node000010"><a xlink:title=" ">
<path fill="none" stroke="#63b8ff" d="M813.28,-200.51C840.86,-189.86 879.57,-174.91 908.07,-163.9"/>
<polygon fill="#63b8ff" stroke="#63b8ff" points="812.05,-197.23 803.98,-204.1 814.57,-203.76 812.05,-197.23"/>
</a>
</g>
</g>
<!-- Node6&#45;&gt;Node14 -->
<g id="edge21_Node000006_Node000014" class="edge">
<title>Node6&#45;&gt;Node14</title>
<g id="a_edge21_Node000006_Node000014"><a xlink:title=" ">
<path fill="none" stroke="#63b8ff" d="M863.44,-207.02C1005.61,-195.65 1286.97,-172.94 1386,-163.5 1402.41,-161.94 1419.94,-160.13 1436.7,-158.35"/>
<polygon fill="#63b8ff" stroke="#63b8ff" points="863.4,-203.51 853.71,-207.8 863.95,-210.49 863.4,-203.51"/>
</a>
</g>
</g>
<!-- Node7&#45;&gt;Node5 -->
<g id="edge10_Node000007_Node000005" class="edge">
<title>Node7&#45;&gt;Node5</title>
<g id="a_edge10_Node000007_Node000005"><a xlink:title=" ">
<path fill="none" stroke="#63b8ff" d="M723.69,-135.82C663.02,-123.27 566.87,-103.4 511.07,-91.86"/>
<polygon fill="#63b8ff" stroke="#63b8ff" points="722.98,-139.24 733.48,-137.84 724.39,-132.39 722.98,-139.24"/>
</a>
</g>
</g>
<!-- Node8 -->
<g id="Node000008" class="node">
<title>Node8</title>
<g id="a_Node000008"><a xlink:href="_recording_containers_8cpp.html" target="_top" xlink:title=" ">
<polygon fill="white" stroke="#666666" points="1538.88,-24.88 1375.12,-24.88 1375.12,-5.63 1538.88,-5.63 1538.88,-24.88"/>
<text xml:space="preserve" text-anchor="middle" x="1457" y="-11.38" font-family="Helvetica,sans-Serif" font-size="10.00">src/nwb/RecordingContainers.cpp</text>
</a>
</g>
</g>
<!-- Node7&#45;&gt;Node8 -->
<g id="edge11_Node000007_Node000008" class="edge">
<title>Node7&#45;&gt;Node8</title>
<g id="a_edge11_Node000007_Node000008"><a xlink:title=" ">
<path fill="none" stroke="#63b8ff" d="M822.07,-135.1C884.16,-117.93 1002.63,-86.43 1105,-66.5 1197.71,-48.45 1305.33,-34.03 1376.93,-25.34"/>
<polygon fill="#63b8ff" stroke="#63b8ff" points="821.31,-131.68 812.61,-137.73 823.18,-138.43 821.31,-131.68"/>
</a>
</g>
</g>
<!-- Node10&#45;&gt;Node2 -->
<g id="edge14_Node000010_Node000002" class="edge">
<title>Node10&#45;&gt;Node2</title>
<g id="a_edge14_Node000010_Node000002"><a xlink:title=" ">
<path fill="none" stroke="#63b8ff" d="M968.88,-124.71C998.59,-95.45 1049.09,-45.71 1069.76,-25.35"/>
<polygon fill="#63b8ff" stroke="#63b8ff" points="966.49,-122.16 961.82,-131.67 971.4,-127.14 966.49,-122.16"/>
</a>
</g>
</g>
<!-- Node10&#45;&gt;Node8 -->
<g id="edge15_Node000010_Node000008" class="edge">
<title>Node10&#45;&gt;Node8</title>
<g id="a_edge15_Node000010_Node000008"><a xlink:title=" ">
<path fill="none" stroke="#63b8ff" d="M1000.83,-128.98C1054.32,-111.54 1138.19,-85.23 1212,-66.5 1278.29,-49.68 1355.74,-34.54 1405.54,-25.37"/>
<polygon fill="#63b8ff" stroke="#63b8ff" points="999.75,-125.65 991.33,-132.09 1001.92,-132.31 999.75,-125.65"/>
</a>
</g>
</g>
<!-- Node11 -->
<g id="Node000011" class="node">
<title>Node11</title>
<g id="a_Node000011"><a xlink:href="_electrical_series_8cpp.html" target="_top" xlink:title=" ">
<polygon fill="white" stroke="#666666" points="862.88,-97 729.12,-97 729.12,-66.5 862.88,-66.5 862.88,-97"/>
<text xml:space="preserve" text-anchor="start" x="737.12" y="-83.5" font-family="Helvetica,sans-Serif" font-size="10.00">src/nwb/ecephys/Electrical</text>
<text xml:space="preserve" text-anchor="middle" x="796" y="-72.25" font-family="Helvetica,sans-Serif" font-size="10.00">Series.cpp</text>
</a>
</g>
</g>
<!-- Node10&#45;&gt;Node11 -->
<g id="edge16_Node000010_Node000011" class="edge">
<title>Node10&#45;&gt;Node11</title>
<g id="a_edge16_Node000010_Node000011"><a xlink:title=" ">
<path fill="none" stroke="#63b8ff" d="M901.5,-128.12C878.67,-118.3 851.3,-106.53 830.16,-97.44"/>
<polygon fill="#63b8ff" stroke="#63b8ff" points="900,-131.28 910.57,-132.02 902.77,-124.85 900,-131.28"/>
</a>
</g>
</g>
<!-- Node10&#45;&gt;Node12 -->
<g id="edge17_Node000010_Node000012" class="edge">
<title>Node10&#45;&gt;Node12</title>
<g id="a_edge17_Node000010_Node000012"><a xlink:title=" ">
<path fill="none" stroke="#63b8ff" d="M1024.49,-137.22C1036.38,-135.77 1048.51,-134.32 1060,-133 1205.74,-116.31 1376.5,-99.09 1470.94,-89.78"/>
<polygon fill="#63b8ff" stroke="#63b8ff" points="1024.18,-133.73 1014.69,-138.43 1025.04,-140.68 1024.18,-133.73"/>
</a>
</g>
</g>
<!-- Node12&#45;&gt;Node2 -->
<g id="edge18_Node000012_Node000002" class="edge">
<title>Node12&#45;&gt;Node2</title>
<g id="a_edge18_Node000012_Node000002"><a xlink:title=" ">
<path fill="none" stroke="#63b8ff" d="M1459.54,-66.88C1458.69,-66.75 1457.84,-66.63 1457,-66.5 1343.07,-49.49 1209.39,-32.39 1135.44,-23.18"/>
<polygon fill="#63b8ff" stroke="#63b8ff" points="1458.85,-70.32 1469.27,-68.38 1459.92,-63.4 1458.85,-70.32"/>
</a>
</g>
</g>
<!-- Node12&#45;&gt;Node8 -->
<g id="edge19_Node000012_Node000008" class="edge">
<title>Node12&#45;&gt;Node8</title>
<g id="a_edge19_Node000012_Node000008"><a xlink:title=" ">
<path fill="none" stroke="#63b8ff" d="M1514.71,-59.53C1499.09,-47.82 1480.54,-33.9 1468.76,-25.07"/>
<polygon fill="#63b8ff" stroke="#63b8ff" points="1512.17,-62.01 1522.27,-65.21 1516.37,-56.41 1512.17,-62.01"/>
</a>
</g>
</g>
<!-- Node13 -->
<g id="Node000013" class="node">
<title>Node13</title>
<g id="a_Node000013"><a xlink:href="_spike_event_series_8cpp.html" target="_top" xlink:title=" ">
<polygon fill="white" stroke="#666666" points="1700.75,-30.5 1557.25,-30.5 1557.25,0 1700.75,0 1700.75,-30.5"/>
<text xml:space="preserve" text-anchor="start" x="1565.25" y="-17" font-family="Helvetica,sans-Serif" font-size="10.00">src/nwb/ecephys/SpikeEvent</text>
<text xml:space="preserve" text-anchor="middle" x="1629" y="-5.75" font-family="Helvetica,sans-Serif" font-size="10.00">Series.cpp</text>
</a>
</g>
</g>
<!-- Node12&#45;&gt;Node13 -->
<g id="edge20_Node000012_Node000013" class="edge">
<title>Node12&#45;&gt;Node13</title>
<g id="a_edge20_Node000012_Node000013"><a xlink:title=" ">
<path fill="none" stroke="#63b8ff" d="M1571.61,-59.29C1584.07,-49.94 1598.36,-39.23 1609.56,-30.83"/>
<polygon fill="#63b8ff" stroke="#63b8ff" points="1569.63,-56.41 1563.73,-65.21 1573.83,-62.01 1569.63,-56.41"/>
</a>
</g>
</g>
<!-- Node14&#45;&gt;Node2 -->
<g id="edge22_Node000014_Node000002" class="edge">
<title>Node14&#45;&gt;Node2</title>
<g id="a_edge22_Node000014_Node000002"><a xlink:title=" ">
<path fill="none" stroke="#63b8ff" d="M1500.14,-130.71C1476.81,-109.46 1436.83,-74.36 1419,-66.5 1325.51,-25.26 1204.95,-16.71 1135.38,-15.56"/>
<polygon fill="#63b8ff" stroke="#63b8ff" points="1497.61,-133.14 1507.35,-137.32 1502.35,-127.99 1497.61,-133.14"/>
</a>
</g>
</g>
<!-- Node14&#45;&gt;Node8 -->
<g id="edge23_Node000014_Node000008" class="edge">
<title>Node14&#45;&gt;Node8</title>
<g id="a_edge23_Node000014_Node000008"><a xlink:title=" ">
<path fill="none" stroke="#63b8ff" d="M1614.88,-143.79C1690.57,-138.8 1786.99,-126.65 1812,-97 1820.74,-86.64 1820.91,-76.71 1812,-66.5 1773.06,-21.89 1606.58,-39.08 1548,-30.5 1536.92,-28.88 1525.1,-27.08 1513.77,-25.32"/>
<polygon fill="#63b8ff" stroke="#63b8ff" points="1614.68,-140.29 1604.91,-144.41 1615.11,-147.28 1614.68,-140.29"/>
</a>
</g>
</g>
<!-- Node15 -->
<g id="Node000015" class="node">
<title>Node15</title>
<g id="a_Node000015"><a xlink:href="_annotation_series_8cpp.html" target="_top" xlink:title=" ">
<polygon fill="white" stroke="#666666" points="1803.25,-91.38 1632.75,-91.38 1632.75,-72.12 1803.25,-72.12 1803.25,-91.38"/>
<text xml:space="preserve" text-anchor="middle" x="1718" y="-77.88" font-family="Helvetica,sans-Serif" font-size="10.00">src/nwb/misc/AnnotationSeries.cpp</text>
</a>
</g>
</g>
<!-- Node14&#45;&gt;Node15 -->
<g id="edge24_Node000014_Node000015" class="edge">
<title>Node14&#45;&gt;Node15</title>
<g id="a_edge24_Node000014_Node000015"><a xlink:title=" ">
<path fill="none" stroke="#63b8ff" d="M1557.17,-134.62C1596.24,-122.02 1655.29,-102.97 1689.91,-91.81"/>
<polygon fill="#63b8ff" stroke="#63b8ff" points="1556.11,-131.28 1547.67,-137.68 1558.26,-137.94 1556.11,-131.28"/>
</a>
</g>
</g>
<!-- Node16&#45;&gt;Node2 -->
<g id="edge26_Node000016_Node000002" class="edge">
<title>Node16&#45;&gt;Node2</title>
<g id="a_edge26_Node000016_Node000002"><a xlink:title=" ">
<path fill="none" stroke="#63b8ff" d="M1044.9,-193.5C1053.02,-151.26 1071.51,-55.2 1077.26,-25.3"/>
<polygon fill="#63b8ff" stroke="#63b8ff" points="1041.47,-192.78 1043.02,-203.26 1048.34,-194.11 1041.47,-192.78"/>
</a>
</g>
</g>
<!-- Node17 -->
<g id="Node000017" class="node">
<title>Node17</title>
<g id="a_Node000017"><a xlink:href="_device_8cpp.html" target="_top" xlink:title=" ">
<polygon fill="white" stroke="#666666" points="1203.25,-157.88 1068.75,-157.88 1068.75,-138.62 1203.25,-138.62 1203.25,-157.88"/>
<text xml:space="preserve" text-anchor="middle" x="1136" y="-144.38" font-family="Helvetica,sans-Serif" font-size="10.00">src/nwb/device/Device.cpp</text>
</a>
</g>
</g>
<!-- Node16&#45;&gt;Node17 -->
<g id="edge27_Node000016_Node000017" class="edge">
<title>Node16&#45;&gt;Node17</title>
<g id="a_edge27_Node000016_Node000017"><a xlink:title=" ">
<path fill="none" stroke="#63b8ff" d="M1063.6,-198.41C1081.97,-185.93 1107.28,-168.75 1122.6,-158.35"/>
<polygon fill="#63b8ff" stroke="#63b8ff" points="1061.77,-195.42 1055.46,-203.93 1065.7,-201.21 1061.77,-195.42"/>
</a>
</g>
</g>
<!-- Node16&#45;&gt;Node18 -->
<g id="edge28_Node000016_Node000018" class="edge">
<title>Node16&#45;&gt;Node18</title>
<g id="a_edge28_Node000016_Node000018"><a xlink:title=" ">
<path fill="none" stroke="#63b8ff" d="M1088.33,-201.92C1138.65,-189.34 1217.14,-169.71 1262.77,-158.31"/>
<polygon fill="#63b8ff" stroke="#63b8ff" points="1087.74,-198.46 1078.89,-204.28 1089.44,-205.25 1087.74,-198.46"/>
</a>
</g>
</g>
<!-- Node18&#45;&gt;Node2 -->
<g id="edge29_Node000018_Node000002" class="edge">
<title>Node18&#45;&gt;Node2</title>
<g id="a_edge29_Node000018_Node000002"><a xlink:title=" ">
<path fill="none" stroke="#63b8ff" d="M1273.27,-132.59C1255.91,-122.64 1232.51,-109.15 1212,-97 1168.77,-71.4 1118.15,-40.37 1093.7,-25.32"/>
<polygon fill="#63b8ff" stroke="#63b8ff" points="1271.49,-135.6 1281.91,-137.52 1274.96,-129.52 1271.49,-135.6"/>
</a>
</g>
</g>
<!-- Node19 -->
<g id="Node000019" class="node">
<title>Node19</title>
<g id="a_Node000019"><a xlink:href="_electrode_group_8cpp.html" target="_top" xlink:title=" ">
<polygon fill="white" stroke="#666666" points="1376.75,-91.38 1221.25,-91.38 1221.25,-72.12 1376.75,-72.12 1376.75,-91.38"/>
<text xml:space="preserve" text-anchor="middle" x="1299" y="-77.88" font-family="Helvetica,sans-Serif" font-size="10.00">src/nwb/file/ElectrodeGroup.cpp</text>
</a>
</g>
</g>
<!-- Node18&#45;&gt;Node19 -->
<g id="edge30_Node000018_Node000019" class="edge">
<title>Node18&#45;&gt;Node19</title>
<g id="a_edge30_Node000018_Node000019"><a xlink:title=" ">
<path fill="none" stroke="#63b8ff" d="M1299,-126.77C1299,-114.94 1299,-100.66 1299,-91.64"/>
<polygon fill="#63b8ff" stroke="#63b8ff" points="1295.5,-126.77 1299,-136.77 1302.5,-126.77 1295.5,-126.77"/>
</a>
</g>
</g>
<!-- Node20&#45;&gt;Node5 -->
<g id="edge35_Node000020_Node000005" class="edge">
<title>Node20&#45;&gt;Node5</title>
<g id="a_edge35_Node000020_Node000005"><a xlink:title=" ">
<path fill="none" stroke="#63b8ff" d="M373.58,-193.73C369.29,-176.44 366.2,-151.4 377,-133 389.23,-112.17 413.59,-99.33 433.88,-91.85"/>
<polygon fill="#63b8ff" stroke="#63b8ff" points="370.2,-194.64 376.32,-203.3 376.93,-192.72 370.2,-194.64"/>
</a>
</g>
</g>
<!-- Node20&#45;&gt;Node10 -->
<g id="edge37_Node000020_Node000010" class="edge">
<title>Node20&#45;&gt;Node10</title>
<g id="a_edge37_Node000020_Node000010"><a xlink:title=" ">
<path fill="none" stroke="#63b8ff" d="M441.36,-202.88C449.3,-201.65 457.33,-200.48 465,-199.5 644.25,-176.54 690.98,-188.18 870,-163.5 872.93,-163.1 875.91,-162.66 878.92,-162.19"/>
<polygon fill="#63b8ff" stroke="#63b8ff" points="441.06,-199.39 431.74,-204.43 442.17,-206.3 441.06,-199.39"/>
</a>
</g>
</g>
<!-- Node20&#45;&gt;Node11 -->
<g id="edge36_Node000020_Node000011" class="edge">
<title>Node20&#45;&gt;Node11</title>
<g id="a_edge36_Node000020_Node000011"><a xlink:title=" ">
<path fill="none" stroke="#63b8ff" d="M402.2,-198.22C429.57,-179.83 478.11,-149.59 524,-133 591.4,-108.63 672.67,-95.6 728.72,-88.97"/>
<polygon fill="#63b8ff" stroke="#63b8ff" points="400.33,-195.26 394.05,-203.79 404.28,-201.04 400.33,-195.26"/>
</a>
</g>
</g>
<!-- Node21 -->
<g id="Node000021" class="node">
<title>Node21</title>
<g id="a_Node000021"><a xlink:href="_electrode_table_8cpp.html" target="_top" xlink:title=" ">
<polygon fill="white" stroke="#666666" points="325.25,-157.88 172.75,-157.88 172.75,-138.62 325.25,-138.62 325.25,-157.88"/>
<text xml:space="preserve" text-anchor="middle" x="249" y="-144.38" font-family="Helvetica,sans-Serif" font-size="10.00">src/nwb/file/ElectrodeTable.cpp</text>
</a>
</g>
</g>
<!-- Node20&#45;&gt;Node21 -->
<g id="edge38_Node000020_Node000021" class="edge">
<title>Node20&#45;&gt;Node21</title>
<g id="a_edge38_Node000020_Node000021"><a xlink:title=" ">
<path fill="none" stroke="#63b8ff" d="M351.32,-199.63C325.79,-187.06 289.2,-169.04 267.4,-158.31"/>
<polygon fill="#63b8ff" stroke="#63b8ff" points="349.63,-202.7 360.15,-203.98 352.73,-196.42 349.63,-202.7"/>
</a>
</g>
</g>
<!-- Node22&#45;&gt;Node2 -->
<g id="edge41_Node000022_Node000002" class="edge">
<title>Node22&#45;&gt;Node2</title>
<g id="a_edge41_Node000022_Node000002"><a xlink:title=" ">
<path fill="none" stroke="#63b8ff" d="M375.28,-457.84C307.95,-449.09 215.47,-425.58 164,-363 140.58,-334.53 145,-319.12 145,-282.25 145,-282.25 145,-282.25 145,-147.25 145,-58.11 820.75,-25.84 1022.68,-18.18"/>
<polygon fill="#63b8ff" stroke="#63b8ff" points="374.85,-461.32 385.2,-459.04 375.69,-454.37 374.85,-461.32"/>
</a>
</g>
</g>
<!-- Node23 -->
<g id="Node000023" class="node">
<title>Node23</title>
<g id="a_Node000023"><a xlink:href="_container_8hpp.html" target="_top" xlink:title=" ">
<polygon fill="white" stroke="#666666" points="791.12,-357.38 628.88,-357.38 628.88,-338.12 791.12,-338.12 791.12,-357.38"/>
<text xml:space="preserve" text-anchor="middle" x="710" y="-343.88" font-family="Helvetica,sans-Serif" font-size="10.00">src/nwb/hdmf/base/Container.hpp</text>
</a>
</g>
</g>
<!-- Node22&#45;&gt;Node23 -->
<g id="edge42_Node000022_Node000023" class="edge">
<title>Node22&#45;&gt;Node23</title>
<g id="a_edge42_Node000022_Node000023"><a xlink:title=" ">
<path fill="none" stroke="#63b8ff" d="M512.22,-451.15C541.76,-443.78 578.28,-432.87 609,-418.25 644.75,-401.24 681.87,-372.26 699.49,-357.68"/>
<polygon fill="#63b8ff" stroke="#63b8ff" points="511.63,-447.69 502.73,-453.45 513.28,-454.5 511.63,-447.69"/>
</a>
</g>
</g>
<!-- Node25 -->
<g id="Node000025" class="node">
<title>Node25</title>
<g id="a_Node000025"><a xlink:href="_dynamic_table_8hpp.html" target="_top" xlink:title=" ">
<polygon fill="white" stroke="#666666" points="601,-296.5 501,-296.5 501,-266 601,-266 601,-296.5"/>
<text xml:space="preserve" text-anchor="start" x="509" y="-283" font-family="Helvetica,sans-Serif" font-size="10.00">src/nwb/hdmf/table</text>
<text xml:space="preserve" text-anchor="middle" x="551" y="-271.75" font-family="Helvetica,sans-Serif" font-size="10.00">/DynamicTable.hpp</text>
</a>
</g>
</g>
<!-- Node22&#45;&gt;Node25 -->
<g id="edge62_Node000022_Node000025" class="edge">
<title>Node22&#45;&gt;Node25</title>
<g id="a_edge62_Node000022_Node000025"><a xlink:title=" ">
<path fill="none" stroke="#63b8ff" d="M485.83,-448.41C514.74,-432.11 557.53,-402.62 576,-363 586.29,-340.92 572.73,-313.52 561.91,-296.99"/>
<polygon fill="#63b8ff" stroke="#63b8ff" points="484.33,-445.25 477.21,-453.09 487.67,-451.4 484.33,-445.25"/>
</a>
</g>
</g>
<!-- Node27 -->
<g id="Node000027" class="node">
<title>Node27</title>
<g id="a_Node000027"><a xlink:href="_data_8hpp.html" target="_top" xlink:title=" ">
<polygon fill="white" stroke="#666666" points="469,-418.25 327,-418.25 327,-399 469,-399 469,-418.25"/>
<text xml:space="preserve" text-anchor="middle" x="398" y="-404.75" font-family="Helvetica,sans-Serif" font-size="10.00">src/nwb/hdmf/base/Data.hpp</text>
</a>
</g>
</g>
<!-- Node22&#45;&gt;Node27 -->
<g id="edge52_Node000022_Node000027" class="edge">
<title>Node22&#45;&gt;Node27</title>
<g id="a_edge52_Node000022_Node000027"><a xlink:title=" ">
<path fill="none" stroke="#63b8ff" d="M438.73,-446.39C428.54,-437.19 416.26,-426.1 407.86,-418.52"/>
<polygon fill="#63b8ff" stroke="#63b8ff" points="436.1,-448.73 445.87,-452.83 440.79,-443.53 436.1,-448.73"/>
</a>
</g>
</g>
<!-- Node29 -->
<g id="Node000029" class="node">
<title>Node29</title>
<g id="a_Node000029"><a xlink:href="_element_identifiers_8hpp.html" target="_top" xlink:title=" ">
<polygon fill="white" stroke="#666666" points="289.25,-363 172.75,-363 172.75,-332.5 289.25,-332.5 289.25,-363"/>
<text xml:space="preserve" text-anchor="start" x="180.75" y="-349.5" font-family="Helvetica,sans-Serif" font-size="10.00">src/nwb/hdmf/table</text>
<text xml:space="preserve" text-anchor="middle" x="231" y="-338.25" font-family="Helvetica,sans-Serif" font-size="10.00">/ElementIdentifiers.hpp</text>
</a>
</g>
</g>
<!-- Node22&#45;&gt;Node29 -->
<g id="edge63_Node000022_Node000029" class="edge">
<title>Node22&#45;&gt;Node29</title>
<g id="a_edge63_Node000022_Node000029"><a xlink:title=" ">
<path fill="none" stroke="#63b8ff" d="M404.48,-450.86C377.66,-443.54 345.07,-432.77 318,-418.25 290.06,-403.26 262.21,-378.96 245.81,-363.42"/>
<polygon fill="#63b8ff" stroke="#63b8ff" points="403.56,-454.24 414.12,-453.4 405.34,-447.47 403.56,-454.24"/>
</a>
</g>
</g>
<!-- Node31 -->
<g id="Node000031" class="node">
<title>Node31</title>
<g id="a_Node000031"><a xlink:href="_vector_data_8hpp.html" target="_top" xlink:title=" ">
<polygon fill="white" stroke="#666666" points="566.62,-363 467.38,-363 467.38,-332.5 566.62,-332.5 566.62,-363"/>
<text xml:space="preserve" text-anchor="start" x="475.38" y="-349.5" font-family="Helvetica,sans-Serif" font-size="10.00">src/nwb/hdmf/table</text>
<text xml:space="preserve" text-anchor="middle" x="517" y="-338.25" font-family="Helvetica,sans-Serif" font-size="10.00">/VectorData.hpp</text>
</a>
</g>
</g>
<!-- Node22&#45;&gt;Node31 -->
<g id="edge64_Node000022_Node000031" class="edge">
<title>Node22&#45;&gt;Node31</title>
<g id="a_edge64_Node000022_Node000031"><a xlink:title=" ">
<path fill="none" stroke="#63b8ff" d="M467.01,-443.83C478.94,-421.15 498.6,-383.75 509.37,-363.27"/>
<polygon fill="#63b8ff" stroke="#63b8ff" points="463.97,-442.1 462.41,-452.58 470.16,-445.36 463.97,-442.1"/>
</a>
</g>
</g>
<!-- Node23&#45;&gt;Node5 -->
<g id="edge43_Node000023_Node000005" class="edge">
<title>Node23&#45;&gt;Node5</title>
<g id="a_edge43_Node000023_Node000005"><a xlink:title=" ">
<path fill="none" stroke="#63b8ff" d="M696.39,-328.61C669.65,-293.39 610.46,-217.59 583,-199.5 538.63,-170.27 500.94,-205.96 469,-163.5 452.98,-142.21 459.64,-108.04 464.14,-91.84"/>
<polygon fill="#63b8ff" stroke="#63b8ff" points="693.57,-330.69 702.39,-336.56 699.16,-326.47 693.57,-330.69"/>
</a>
</g>
</g>
<!-- Node23&#45;&gt;Node6 -->
<g id="edge45_Node000023_Node000006" class="edge">
<title>Node23&#45;&gt;Node6</title>
<g id="a_edge45_Node000023_Node000006"><a xlink:title=" ">
<path fill="none" stroke="#63b8ff" d="M711.69,-326.33C713.8,-309.3 718.52,-284.86 729,-266 738.44,-249 755.27,-233.84 766.78,-224.73"/>
<polygon fill="#63b8ff" stroke="#63b8ff" points="708.22,-325.88 710.68,-336.19 715.18,-326.6 708.22,-325.88"/>
</a>
</g>
</g>
<!-- Node23&#45;&gt;Node8 -->
<g id="edge44_Node000023_Node000008" class="edge">
<title>Node23&#45;&gt;Node8</title>
<g id="a_edge44_Node000023_Node000008"><a xlink:title=" ">
<path fill="none" stroke="#63b8ff" d="M802.62,-345.96C1077.41,-342.4 1869,-322.85 1869,-215.75 1869,-215.75 1869,-215.75 1869,-147.25 1869,-107.2 1861.62,-89.74 1829,-66.5 1777.73,-29.96 1610.33,-39.37 1548,-30.5 1536.76,-28.9 1524.75,-27.09 1513.27,-25.31"/>
<polygon fill="#63b8ff" stroke="#63b8ff" points="802.97,-342.46 793.01,-346.08 803.06,-349.46 802.97,-342.46"/>
</a>
</g>
</g>
<!-- Node23&#45;&gt;Node16 -->
<g id="edge46_Node000023_Node000016" class="edge">
<title>Node23&#45;&gt;Node16</title>
<g id="a_edge46_Node000023_Node000016"><a xlink:title=" ">
<path fill="none" stroke="#63b8ff" d="M775.33,-335.43C814.96,-327.31 866.01,-314.58 909,-296.5 956.54,-276.5 1007.02,-241.08 1029.29,-224.62"/>
<polygon fill="#63b8ff" stroke="#63b8ff" points="774.81,-331.97 765.69,-337.36 776.18,-338.83 774.81,-331.97"/>
</a>
</g>
</g>
<!-- Node23&#45;&gt;Node18 -->
<g id="edge47_Node000023_Node000018" class="edge">
<title>Node23&#45;&gt;Node18</title>
<g id="a_edge47_Node000023_Node000018"><a xlink:title=" ">
<path fill="none" stroke="#63b8ff" d="M802.9,-346.96C882.24,-344.27 998.1,-333.41 1092,-296.5 1178.61,-262.46 1263.07,-184.5 1290.09,-158.14"/>
<polygon fill="#63b8ff" stroke="#63b8ff" points="802.87,-343.46 792.97,-347.26 803.07,-350.46 802.87,-343.46"/>
</a>
</g>
</g>
<!-- Node24 -->
<g id="Node000024" class="node">
<title>Node24</title>
<g id="a_Node000024"><a xlink:href="_container_8cpp.html" target="_top" xlink:title=" ">
<polygon fill="white" stroke="#666666" points="900.12,-290.88 737.88,-290.88 737.88,-271.62 900.12,-271.62 900.12,-290.88"/>
<text xml:space="preserve" text-anchor="middle" x="819" y="-277.38" font-family="Helvetica,sans-Serif" font-size="10.00">src/nwb/hdmf/base/Container.cpp</text>
</a>
</g>
</g>
<!-- Node23&#45;&gt;Node24 -->
<g id="edge48_Node000023_Node000024" class="edge">
<title>Node23&#45;&gt;Node24</title>
<g id="a_edge48_Node000023_Node000024"><a xlink:title=" ">
<path fill="none" stroke="#63b8ff" d="M735.05,-331.92C756.2,-319.41 785.81,-301.89 803.62,-291.35"/>
<polygon fill="#63b8ff" stroke="#63b8ff" points="733.28,-328.91 726.46,-337.01 736.85,-334.93 733.28,-328.91"/>
</a>
</g>
</g>
<!-- Node23&#45;&gt;Node25 -->
<g id="edge49_Node000023_Node000025" class="edge">
<title>Node23&#45;&gt;Node25</title>
<g id="a_edge49_Node000023_Node000025"><a xlink:title=" ">
<path fill="none" stroke="#63b8ff" d="M677.01,-333.37C650.78,-322.73 614.13,-307.86 587.11,-296.9"/>
<polygon fill="#63b8ff" stroke="#63b8ff" points="675.57,-336.56 686.15,-337.08 678.2,-330.07 675.57,-336.56"/>
</a>
</g>
</g>
<!-- Node25&#45;&gt;Node20 -->
<g id="edge50_Node000025_Node000020" class="edge">
<title>Node25&#45;&gt;Node20</title>
<g id="a_edge50_Node000025_Node000020"><a xlink:title=" ">
<path fill="none" stroke="#63b8ff" d="M501.66,-261.64C469.55,-249.53 429.1,-234.27 403.89,-224.76"/>
<polygon fill="#63b8ff" stroke="#63b8ff" points="500.19,-264.83 510.78,-265.08 502.66,-258.28 500.19,-264.83"/>
</a>
</g>
</g>
<!-- Node26 -->
<g id="Node000026" class="node">
<title>Node26</title>
<g id="a_Node000026"><a xlink:href="_dynamic_table_8cpp.html" target="_top" xlink:title=" ">
<polygon fill="white" stroke="#666666" points="574,-230 474,-230 474,-199.5 574,-199.5 574,-230"/>
<text xml:space="preserve" text-anchor="start" x="482" y="-216.5" font-family="Helvetica,sans-Serif" font-size="10.00">src/nwb/hdmf/table</text>
<text xml:space="preserve" text-anchor="middle" x="524" y="-205.25" font-family="Helvetica,sans-Serif" font-size="10.00">/DynamicTable.cpp</text>
</a>
</g>
</g>
<!-- Node25&#45;&gt;Node26 -->
<g id="edge51_Node000025_Node000026" class="edge">
<title>Node25&#45;&gt;Node26</title>
<g id="a_edge51_Node000025_Node000026"><a xlink:title=" ">
<path fill="none" stroke="#63b8ff" d="M540.5,-255.16C536.98,-246.75 533.17,-237.66 530.1,-230.33"/>
<polygon fill="#63b8ff" stroke="#63b8ff" points="537.2,-256.34 544.29,-264.22 543.66,-253.64 537.2,-256.34"/>
</a>
</g>
</g>
<!-- Node28 -->
<g id="Node000028" class="node">
<title>Node28</title>
<g id="a_Node000028"><a xlink:href="_data_8cpp.html" target="_top" xlink:title=" ">
<polygon fill="white" stroke="#666666" points="449,-357.38 307,-357.38 307,-338.12 449,-338.12 449,-357.38"/>
<text xml:space="preserve" text-anchor="middle" x="378" y="-343.88" font-family="Helvetica,sans-Serif" font-size="10.00">src/nwb/hdmf/base/Data.cpp</text>
</a>
</g>
</g>
<!-- Node27&#45;&gt;Node28 -->
<g id="edge53_Node000027_Node000028" class="edge">
<title>Node27&#45;&gt;Node28</title>
<g id="a_edge53_Node000027_Node000028"><a xlink:title=" ">
<path fill="none" stroke="#63b8ff" d="M391.29,-387.87C387.83,-377.68 383.78,-365.76 381.07,-357.78"/>
<polygon fill="#63b8ff" stroke="#63b8ff" points="387.95,-388.91 394.48,-397.25 394.57,-386.66 387.95,-388.91"/>
</a>
</g>
</g>
<!-- Node27&#45;&gt;Node29 -->
<g id="edge54_Node000027_Node000029" class="edge">
<title>Node27&#45;&gt;Node29</title>
<g id="a_edge54_Node000027_Node000029"><a xlink:title=" ">
<path fill="none" stroke="#63b8ff" d="M361.66,-394.81C335.45,-385.57 300.03,-373.09 272.68,-363.44"/>
<polygon fill="#63b8ff" stroke="#63b8ff" points="360.25,-398.03 370.84,-398.05 362.58,-391.43 360.25,-398.03"/>
</a>
</g>
</g>
<!-- Node27&#45;&gt;Node31 -->
<g id="edge58_Node000027_Node000031" class="edge">
<title>Node27&#45;&gt;Node31</title>
<g id="a_edge58_Node000027_Node000031"><a xlink:title=" ">
<path fill="none" stroke="#63b8ff" d="M426.44,-393.56C444.81,-384.47 468.68,-372.66 487.3,-363.44"/>
<polygon fill="#63b8ff" stroke="#63b8ff" points="425.1,-390.31 417.69,-397.88 428.2,-396.59 425.1,-390.31"/>
</a>
</g>
</g>
<!-- Node29&#45;&gt;Node20 -->
<g id="edge55_Node000029_Node000020" class="edge">
<title>Node29&#45;&gt;Node20</title>
<g id="a_edge55_Node000029_Node000020"><a xlink:title=" ">
<path fill="none" stroke="#63b8ff" d="M261.11,-325.5C272.89,-316.84 286.35,-306.53 298,-296.5 326.47,-272 357.35,-239.93 371.74,-224.63"/>
<polygon fill="#63b8ff" stroke="#63b8ff" points="259.35,-322.45 253.31,-331.16 263.46,-328.12 259.35,-322.45"/>
</a>
</g>
</g>
<!-- Node29&#45;&gt;Node25 -->
<g id="edge56_Node000029_Node000025" class="edge">
<title>Node29&#45;&gt;Node25</title>
<g id="a_edge56_Node000029_Node000025"><a xlink:title=" ">
<path fill="none" stroke="#63b8ff" d="M300.54,-331.99C375.74,-316.58 451.86,-301.58 500.56,-292.06"/>
<polygon fill="#63b8ff" stroke="#63b8ff" points="300.03,-328.52 290.94,-333.96 301.44,-335.38 300.03,-328.52"/>
</a>
</g>
</g>
<!-- Node30 -->
<g id="Node000030" class="node">
<title>Node30</title>
<g id="a_Node000030"><a xlink:href="_element_identifiers_8cpp.html" target="_top" xlink:title=" ">
<polygon fill="white" stroke="#666666" points="289.25,-296.5 172.75,-296.5 172.75,-266 289.25,-266 289.25,-296.5"/>
<text xml:space="preserve" text-anchor="start" x="180.75" y="-283" font-family="Helvetica,sans-Serif" font-size="10.00">src/nwb/hdmf/table</text>
<text xml:space="preserve" text-anchor="middle" x="231" y="-271.75" font-family="Helvetica,sans-Serif" font-size="10.00">/ElementIdentifiers.cpp</text>
</a>
</g>
</g>
<!-- Node29&#45;&gt;Node30 -->
<g id="edge57_Node000029_Node000030" class="edge">
<title>Node29&#45;&gt;Node30</title>
<g id="a_edge57_Node000029_Node000030"><a xlink:title=" ">
<path fill="none" stroke="#63b8ff" d="M231,-320.81C231,-312.64 231,-303.91 231,-296.83"/>
<polygon fill="#63b8ff" stroke="#63b8ff" points="227.5,-320.6 231,-330.6 234.5,-320.6 227.5,-320.6"/>
</a>
</g>
</g>
<!-- Node31&#45;&gt;Node20 -->
<g id="edge59_Node000031_Node000020" class="edge">
<title>Node31&#45;&gt;Node20</title>
<g id="a_edge59_Node000031_Node000020"><a xlink:title=" ">
<path fill="none" stroke="#63b8ff" d="M501.43,-322.98C489.62,-305.98 472.34,-283.17 454,-266 436.09,-249.23 412.1,-234.02 396.36,-224.83"/>
<polygon fill="#63b8ff" stroke="#63b8ff" points="498.35,-324.67 506.87,-330.97 504.14,-320.74 498.35,-324.67"/>
</a>
</g>
</g>
<!-- Node31&#45;&gt;Node25 -->
<g id="edge60_Node000031_Node000025" class="edge">
<title>Node31&#45;&gt;Node25</title>
<g id="a_edge60_Node000031_Node000025"><a xlink:title=" ">
<path fill="none" stroke="#63b8ff" d="M530.08,-321.94C534.55,-313.46 539.41,-304.24 543.32,-296.83"/>
<polygon fill="#63b8ff" stroke="#63b8ff" points="526.99,-320.3 525.42,-330.78 533.18,-323.56 526.99,-320.3"/>
</a>
</g>
</g>
<!-- Node32 -->
<g id="Node000032" class="node">
<title>Node32</title>
<g id="a_Node000032"><a xlink:href="_vector_data_8cpp.html" target="_top" xlink:title=" ">
<polygon fill="white" stroke="#666666" points="444.62,-296.5 345.38,-296.5 345.38,-266 444.62,-266 444.62,-296.5"/>
<text xml:space="preserve" text-anchor="start" x="353.38" y="-283" font-family="Helvetica,sans-Serif" font-size="10.00">src/nwb/hdmf/table</text>
<text xml:space="preserve" text-anchor="middle" x="395" y="-271.75" font-family="Helvetica,sans-Serif" font-size="10.00">/VectorData.cpp</text>
</a>
</g>
</g>
<!-- Node31&#45;&gt;Node32 -->
<g id="edge61_Node000031_Node000032" class="edge">
<title>Node31&#45;&gt;Node32</title>
<g id="a_edge61_Node000031_Node000032"><a xlink:title=" ">
<path fill="none" stroke="#63b8ff" d="M479.25,-326.79C460.93,-317.11 439.32,-305.68 422.57,-296.83"/>
<polygon fill="#63b8ff" stroke="#63b8ff" points="477.5,-329.83 487.98,-331.41 480.77,-323.64 477.5,-329.83"/>
</a>
</g>
</g>
<!-- Node33&#45;&gt;Node2 -->
<g id="edge66_Node000033_Node000002" class="edge">
<title>Node33&#45;&gt;Node2</title>
<g id="a_edge66_Node000033_Node000002"><a xlink:title=" ">
<path fill="none" stroke="#63b8ff" d="M107,-387.01C107,-362.16 107,-319.15 107,-282.25 107,-282.25 107,-282.25 107,-147.25 107,-109.81 101.59,-89.67 131,-66.5 166.15,-38.8 824.37,-21.92 1022.83,-17.45"/>
<polygon fill="#63b8ff" stroke="#63b8ff" points="103.5,-386.99 107,-396.99 110.5,-386.99 103.5,-386.99"/>
</a>
</g>
</g>
</g>
</svg>

<g id="navigator" transform="translate(0 0)" fill="#404254">
  <rect fill="#f2f5e9" fill-opacity="0.5" stroke="#606060" stroke-width=".5" x="0" y="0" width="60" height="60"/>
  <use id="zoomplus" xlink:href="#zoomPlus" x="17" y="9" onmousedown="handleZoom(evt,'in')"/>
  <use id="zoomminus" xlink:href="#zoomMin" x="42" y="9" onmousedown="handleZoom(evt,'out')"/>
  <use id="reset" xlink:href="#resetDef" x="30" y="36" onmousedown="handleReset()"/>
   <use id="arrowup" xlink:href="#arrowUp" x="0" y="0" onmousedown="handlePan(0,-1)"/>
  <use id="arrowright" xlink:href="#arrowRight" x="0" y="0" onmousedown="handlePan(1,0)"/>
  <use id="arrowdown" xlink:href="#arrowDown" x="0" y="0" onmousedown="handlePan(0,1)"/>
  <use id="arrowleft" xlink:href="#arrowLeft" x="0" y="0" onmousedown="handlePan(-1,0)"/>
</g>
<svg viewBox="0 0 15 15" width="100%" height="30px" preserveAspectRatio="xMaxYMin meet">
 <g id="arrow_out" transform="scale(0.3 0.3)">
  <a xlink:href="_namespace_registry_8hpp__dep__incl_org.svg" target="_base">
   <rect id="button" ry="5" rx="5" y="6" x="6" height="38" width="38"
        fill="#f2f5e9" fill-opacity="0.5" stroke="#606060" stroke-width="1.0"/>
   <path id="arrow"
     d="M 11.500037,31.436501 C 11.940474,20.09759 22.043105,11.32322 32.158766,21.979434 L 37.068811,17.246167 C 37.068811,17.246167 37.088388,32 37.088388,32 L 22.160133,31.978069 C 22.160133,31.978069 26.997745,27.140456 26.997745,27.140456 C 18.528582,18.264221 13.291696,25.230495 11.500037,31.436501 z"
     style="fill:#404040;"/>
  </a>
 </g>
</svg>

<style type='text/css'>
<![CDATA[
[data-mouse-over-selected='false'] { opacity: 0.7; }
[data-mouse-over-selected='true']  { opacity: 1.0; }
]]>
</style>
<script type="application/ecmascript"><![CDATA[
document.addEventListener('DOMContentLoaded', (event) => {
  highlightEdges();
  highlightAdjacentNodes();
});
]]></script>
</svg>
