<?xml version="1.0" encoding="UTF-8" standalone="no"?>
<!DOCTYPE svg PUBLIC "-//W3C//DTD SVG 1.1//EN"
 "http://www.w3.org/Graphics/SVG/1.1/DTD/svg11.dtd">
<!-- Generated by graphviz version 14.1.2 (20260124.0452)
 -->
<!-- Title: src/io/ReadIO.hpp Pages: 1 -->
<!--zoomable 193 -->

<svg id="main" version="1.1" xmlns="http://www.w3.org/2000/svg" xmlns:xlink="http://www.w3.org/1999/xlink" xml:space="preserve" onload="init(evt)">

<style type="text/css"><![CDATA[
.node, .edge {opacity: 0.7;}
.node.selected, .edge.selected {opacity: 1;}
.edge:hover path { stroke: red; }
.edge:hover polygon { stroke: red; fill: red; }
]]></style>

<defs>
  <circle id="rim" cx="0" cy="0" r="7"/>
  <circle id="rim2" cx="0" cy="0" r="3.5"/>
  <g id="zoomPlus">
    <use xlink:href="#rim" fill="#404040"><set attributeName="fill" to="#808080" begin="zoomplus.mouseover" end="zoomplus.mouseout"/></use>
    <path d="M-4,0h8M0,-4v8" fill="none" stroke="white" stroke-width="1.5" pointer-events="none"/>
  </g>
  <g id="zoomMin">
    <use xlink:href="#rim" fill="#404040"><set attributeName="fill" to="#808080" begin="zoomminus.mouseover" end="zoomminus.mouseout"/></use>
    <path d="M-4,0h8" fill="none" stroke="white" stroke-width="1.5" pointer-events="none"/>
  </g>
  <g id="arrowUp" transform="translate(30 24)">
    <use xlink:href="#rim"/>
    <path pointer-events="none" fill="none" stroke="white" stroke-width="1.5" d="M0,-3.0v7 M-2.5,-0.5L0,-3.0L2.5,-0.5"/>
  </g>
  <g id="arrowRight" transform="rotate(90) translate(36 -43)">
    <use xlink:href="#rim"/>
    <path pointer-events="none" fill="none" stroke="white" stroke-width="1.5" d="M0,-3.0v7 M-2.5,-0.5L0,-3.0L2.5,-0.5"/>
  </g>
  <g id="arrowDown" transform="rotate(180) translate(-30 -48)">
    <use xlink:href="#rim"/>
    <path pointer-events="none" fill="none" stroke="white" stroke-width="1.5" d="M0,-3.0v7 M-2.5,-0.5L0,-3.0L2.5,-0.5"/>
  </g>
  <g id="arrowLeft" transform="rotate(270) translate(-36 17)">
    <use xlink:href="#rim"/>
    <path pointer-events="none" fill="none" stroke="white" stroke-width="1.5" d="M0,-3.0v7 M-2.5,-0.5L0,-3.0L2.5,-0.5"/>
  </g>
  <g id="resetDef">
    <use xlink:href="#rim2" fill="#404040"><set attributeName="fill" to="#808080" begin="reset.mouseover" end="reset.mouseout"/></use>
  </g>
</defs>
<script type="application/ecmascript">
var viewWidth = 805;
var viewHeight = 193;
var sectionId = 'dynsection-0';
</script>
<script type="application/ecmascript" xlink:href="svg.min.js"/>
<svg id="graph" class="graph">
<g id="viewport">
<title>src/io/ReadIO.hpp</title>
<!-- Node1 -->
<g id="Node000001" class="node">
<title>Node1</title>
<g id="a_Node000001"><a xlink:title=" ">
<polygon fill="#999999" stroke="#666666" points="383.22,-185 287.72,-185 287.72,-165.75 383.22,-165.75 383.22,-185"/>
<text xml:space="preserve" text-anchor="middle" x="335.47" y="-171.5" font-family="Helvetica,sans-Serif" font-size="10.00">src/io/ReadIO.hpp</text>
</a>
</g>
</g>
<!-- Node2 -->
<g id="Node000002" class="node">
<title>Node2</title>
<g id="a_Node000002"><a xlink:title=" ">
<polygon fill="#e0e0e0" stroke="#999999" points="57.34,-74.5 25.59,-74.5 25.59,-55.25 57.34,-55.25 57.34,-74.5"/>
<text xml:space="preserve" text-anchor="middle" x="41.47" y="-61" font-family="Helvetica,sans-Serif" font-size="10.00">any</text>
</a>
</g>
</g>
<!-- Node1&#45;&gt;Node2 -->
<g id="edge1_Node000001_Node000002" class="edge">
<title>Node1&#45;&gt;Node2</title>
<g id="a_edge1_Node000001_Node000002"><a xlink:title=" ">
<path fill="none" stroke="#63b8ff" d="M302.07,-165.31C272.25,-156.94 227.53,-143.73 189.47,-129.75 146.14,-113.83 97.21,-91.91 67.88,-78.33"/>
<polygon fill="#63b8ff" stroke="#63b8ff" points="69.57,-75.26 59.02,-74.2 66.61,-81.6 69.57,-75.26"/>
</a>
</g>
</g>
<!-- Node3 -->
<g id="Node000003" class="node">
<title>Node3</title>
<g id="a_Node000003"><a xlink:title=" ">
<polygon fill="#e0e0e0" stroke="#999999" points="501.34,-129.75 463.59,-129.75 463.59,-110.5 501.34,-110.5 501.34,-129.75"/>
<text xml:space="preserve" text-anchor="middle" x="482.47" y="-116.25" font-family="Helvetica,sans-Serif" font-size="10.00">array</text>
</a>
</g>
</g>
<!-- Node1&#45;&gt;Node3 -->
<g id="edge2_Node000001_Node000003" class="edge">
<title>Node1&#45;&gt;Node3</title>
<g id="a_edge2_Node000001_Node000003"><a xlink:title=" ">
<path fill="none" stroke="#63b8ff" d="M360.4,-165.34C385.92,-156.1 425.57,-141.74 452.71,-131.9"/>
<polygon fill="#63b8ff" stroke="#63b8ff" points="453.86,-135.21 462.07,-128.51 451.48,-128.63 453.86,-135.21"/>
</a>
</g>
</g>
<!-- Node4 -->
<g id="Node000004" class="node">
<title>Node4</title>
<g id="a_Node000004"><a xlink:title=" ">
<polygon fill="#e0e0e0" stroke="#999999" points="567.59,-129.75 519.34,-129.75 519.34,-110.5 567.59,-110.5 567.59,-129.75"/>
<text xml:space="preserve" text-anchor="middle" x="543.47" y="-116.25" font-family="Helvetica,sans-Serif" font-size="10.00">cassert</text>
</a>
</g>
</g>
<!-- Node1&#45;&gt;Node4 -->
<g id="edge3_Node000001_Node000004" class="edge">
<title>Node1&#45;&gt;Node4</title>
<g id="a_edge3_Node000001_Node000004"><a xlink:title=" ">
<path fill="none" stroke="#63b8ff" d="M371.34,-165.29C404.45,-156.9 455.26,-143.98 508.03,-130.37"/>
<polygon fill="#63b8ff" stroke="#63b8ff" points="508.69,-133.81 517.5,-127.93 506.94,-127.04 508.69,-133.81"/>
</a>
</g>
</g>
<!-- Node5 -->
<g id="Node000005" class="node">
<title>Node5</title>
<g id="a_Node000005"><a xlink:title=" ">
<polygon fill="#e0e0e0" stroke="#999999" points="121.09,-74.5 75.84,-74.5 75.84,-55.25 121.09,-55.25 121.09,-74.5"/>
<text xml:space="preserve" text-anchor="middle" x="98.47" y="-61" font-family="Helvetica,sans-Serif" font-size="10.00">cstdint</text>
</a>
</g>
</g>
<!-- Node1&#45;&gt;Node5 -->
<g id="edge4_Node000001_Node000005" class="edge">
<title>Node1&#45;&gt;Node5</title>
<g id="a_edge4_Node000001_Node000005"><a xlink:title=" ">
<path fill="none" stroke="#63b8ff" d="M314.51,-165.28C294.04,-156.36 262.03,-142.31 234.47,-129.75 197.37,-112.85 154.89,-92.78 127.42,-79.71"/>
<polygon fill="#63b8ff" stroke="#63b8ff" points="129.22,-76.69 118.69,-75.55 126.21,-83.01 129.22,-76.69"/>
</a>
</g>
</g>
<!-- Node6 -->
<g id="Node000006" class="node">
<title>Node6</title>
<g id="a_Node000006"><a xlink:title=" ">
<polygon fill="#e0e0e0" stroke="#999999" points="192.22,-74.5 138.72,-74.5 138.72,-55.25 192.22,-55.25 192.22,-74.5"/>
<text xml:space="preserve" text-anchor="middle" x="165.47" y="-61" font-family="Helvetica,sans-Serif" font-size="10.00">iostream</text>
</a>
</g>
</g>
<!-- Node1&#45;&gt;Node6 -->
<g id="edge5_Node000001_Node000006" class="edge">
<title>Node1&#45;&gt;Node6</title>
<g id="a_edge5_Node000001_Node000006"><a xlink:title=" ">
<path fill="none" stroke="#63b8ff" d="M321.25,-165.32C307.11,-156.31 284.78,-142.08 265.47,-129.75 239.44,-113.14 209.61,-94.09 189.35,-81.14"/>
<polygon fill="#63b8ff" stroke="#63b8ff" points="191.29,-78.23 180.98,-75.79 187.52,-84.12 191.29,-78.23"/>
</a>
</g>
</g>
<!-- Node7 -->
<g id="Node000007" class="node">
<title>Node7</title>
<g id="a_Node000007"><a xlink:title=" ">
<polygon fill="#e0e0e0" stroke="#999999" points="261.09,-74.5 209.84,-74.5 209.84,-55.25 261.09,-55.25 261.09,-74.5"/>
<text xml:space="preserve" text-anchor="middle" x="235.47" y="-61" font-family="Helvetica,sans-Serif" font-size="10.00">memory</text>
</a>
</g>
</g>
<!-- Node1&#45;&gt;Node7 -->
<g id="edge6_Node000001_Node000007" class="edge">
<title>Node1&#45;&gt;Node7</title>
<g id="a_edge6_Node000001_Node000007"><a xlink:title=" ">
<path fill="none" stroke="#63b8ff" d="M324.22,-165.33C313.73,-156.67 297.88,-142.99 285.47,-129.75 271.8,-115.18 257.93,-97.14 248.28,-83.96"/>
<polygon fill="#63b8ff" stroke="#63b8ff" points="251.36,-82.25 242.67,-76.19 245.68,-86.34 251.36,-82.25"/>
</a>
</g>
</g>
<!-- Node8 -->
<g id="Node000008" class="node">
<title>Node8</title>
<g id="a_Node000008"><a xlink:title=" ">
<polygon fill="#e0e0e0" stroke="#999999" points="644.84,-129.75 586.09,-129.75 586.09,-110.5 644.84,-110.5 644.84,-129.75"/>
<text xml:space="preserve" text-anchor="middle" x="615.47" y="-116.25" font-family="Helvetica,sans-Serif" font-size="10.00">stdexcept</text>
</a>
</g>
</g>
<!-- Node1&#45;&gt;Node8 -->
<g id="edge7_Node000001_Node000008" class="edge">
<title>Node1&#45;&gt;Node8</title>
<g id="a_edge7_Node000001_Node000008"><a xlink:title=" ">
<path fill="none" stroke="#63b8ff" d="M383.57,-165.97C429.91,-157.77 502.25,-144.66 574.55,-130.08"/>
<polygon fill="#63b8ff" stroke="#63b8ff" points="575.09,-133.54 584.19,-128.12 573.7,-126.68 575.09,-133.54"/>
</a>
</g>
</g>
<!-- Node9 -->
<g id="Node000009" class="node">
<title>Node9</title>
<g id="a_Node000009"><a xlink:title=" ">
<polygon fill="#e0e0e0" stroke="#999999" points="319.47,-74.5 279.47,-74.5 279.47,-55.25 319.47,-55.25 319.47,-74.5"/>
<text xml:space="preserve" text-anchor="middle" x="299.47" y="-61" font-family="Helvetica,sans-Serif" font-size="10.00">string</text>
</a>
</g>
</g>
<!-- Node1&#45;&gt;Node9 -->
<g id="edge8_Node000001_Node000009" class="edge">
<title>Node1&#45;&gt;Node9</title>
<g id="a_edge8_Node000001_Node000009"><a xlink:title=" ">
<path fill="none" stroke="#63b8ff" d="M322.56,-165.46C312.23,-157.46 298.5,-144.72 292.47,-129.75 286.84,-115.79 289.08,-98.81 292.47,-85.87"/>
<polygon fill="#63b8ff" stroke="#63b8ff" points="295.8,-86.96 295.4,-76.37 289.11,-84.89 295.8,-86.96"/>
</a>
</g>
</g>
<!-- Node10 -->
<g id="Node000010" class="node">
<title>Node10</title>
<g id="a_Node000010"><a xlink:title=" ">
<polygon fill="#e0e0e0" stroke="#999999" points="724.34,-129.75 662.59,-129.75 662.59,-110.5 724.34,-110.5 724.34,-129.75"/>
<text xml:space="preserve" text-anchor="middle" x="693.47" y="-116.25" font-family="Helvetica,sans-Serif" font-size="10.00">type_traits</text>
</a>
</g>
</g>
<!-- Node1&#45;&gt;Node10 -->
<g id="edge9_Node000001_Node000010" class="edge">
<title>Node1&#45;&gt;Node10</title>
<g id="a_edge9_Node000001_Node000010"><a xlink:title=" ">
<path fill="none" stroke="#63b8ff" d="M383.59,-168.73C443.76,-161.43 550.19,-147.71 651.17,-130.04"/>
<polygon fill="#63b8ff" stroke="#63b8ff" points="651.77,-133.49 661.01,-128.3 650.55,-126.59 651.77,-133.49"/>
</a>
</g>
</g>
<!-- Node11 -->
<g id="Node000011" class="node">
<title>Node11</title>
<g id="a_Node000011"><a xlink:title=" ">
<polygon fill="#e0e0e0" stroke="#999999" points="692.47,-74.5 634.47,-74.5 634.47,-55.25 692.47,-55.25 692.47,-74.5"/>
<text xml:space="preserve" text-anchor="middle" x="663.47" y="-61" font-family="Helvetica,sans-Serif" font-size="10.00">typeindex</text>
</a>
</g>
</g>
<!-- Node1&#45;&gt;Node11 -->
<g id="edge10_Node000001_Node000011" class="edge">
<title>Node1&#45;&gt;Node11</title>
<g id="a_edge10_Node000001_Node000011"><a xlink:title=" ">
<path fill="none" stroke="#63b8ff" d="M344.6,-165.3C359.39,-151.18 390.09,-124.16 421.47,-110.5 439.67,-102.57 559.08,-82.62 623.09,-72.29"/>
<polygon fill="#63b8ff" stroke="#63b8ff" points="623.55,-75.76 632.87,-70.72 622.44,-68.85 623.55,-75.76"/>
</a>
</g>
</g>
<!-- Node12 -->
<g id="Node000012" class="node">
<title>Node12</title>
<g id="a_Node000012"><a xlink:title=" ">
<polygon fill="#e0e0e0" stroke="#999999" points="627.97,-19.25 584.97,-19.25 584.97,0 627.97,0 627.97,-19.25"/>
<text xml:space="preserve" text-anchor="middle" x="606.47" y="-5.75" font-family="Helvetica,sans-Serif" font-size="10.00">vector</text>
</a>
</g>
</g>
<!-- Node1&#45;&gt;Node12 -->
<g id="edge11_Node000001_Node000012" class="edge">
<title>Node1&#45;&gt;Node12</title>
<g id="a_edge11_Node000001_Node000012"><a xlink:title=" ">
<path fill="none" stroke="#63b8ff" d="M287.24,-172.35C179.61,-166.25 -64.53,-142.6 16.47,-55.25 54.49,-14.24 454.77,-10.71 573.47,-10.57"/>
<polygon fill="#63b8ff" stroke="#63b8ff" points="573.16,-14.07 583.16,-10.57 573.16,-7.07 573.16,-14.07"/>
</a>
</g>
</g>
<!-- Node13 -->
<g id="Node000013" class="node">
<title>Node13</title>
<g id="a_Node000013"><a xlink:href="_base_i_o_8hpp.html" target="_top" xlink:title=" ">
<polygon fill="white" stroke="#666666" points="369.34,-129.75 301.59,-129.75 301.59,-110.5 369.34,-110.5 369.34,-129.75"/>
<text xml:space="preserve" text-anchor="middle" x="335.47" y="-116.25" font-family="Helvetica,sans-Serif" font-size="10.00">BaseIO.hpp</text>
</a>
</g>
</g>
<!-- Node1&#45;&gt;Node13 -->
<g id="edge12_Node000001_Node000013" class="edge">
<title>Node1&#45;&gt;Node13</title>
<g id="a_edge12_Node000001_Node000013"><a xlink:title=" ">
<path fill="none" stroke="#63b8ff" d="M335.47,-165.58C335.47,-159.07 335.47,-149.92 335.47,-141.62"/>
<polygon fill="#63b8ff" stroke="#63b8ff" points="338.97,-141.62 335.47,-131.62 331.97,-141.62 338.97,-141.62"/>
</a>
</g>
</g>
<!-- Node17 -->
<g id="Node000017" class="node">
<title>Node17</title>
<g id="a_Node000017"><a xlink:href="_types_8hpp.html" target="_top" xlink:title=" ">
<polygon fill="white" stroke="#666666" points="771.97,-74.5 710.97,-74.5 710.97,-55.25 771.97,-55.25 771.97,-74.5"/>
<text xml:space="preserve" text-anchor="middle" x="741.47" y="-61" font-family="Helvetica,sans-Serif" font-size="10.00">Types.hpp</text>
</a>
</g>
</g>
<!-- Node1&#45;&gt;Node17 -->
<g id="edge27_Node000001_Node000017" class="edge">
<title>Node1&#45;&gt;Node17</title>
<g id="a_edge27_Node000001_Node000017"><a xlink:title=" ">
<path fill="none" stroke="#63b8ff" d="M352.4,-165.26C385.1,-147.67 453.79,-110.72 454.47,-110.5 556.42,-76.86 590.12,-93.07 699.33,-74.72"/>
<polygon fill="#63b8ff" stroke="#63b8ff" points="699.76,-78.2 709.01,-73.03 698.55,-71.3 699.76,-78.2"/>
</a>
</g>
</g>
<!-- Node13&#45;&gt;Node2 -->
<g id="edge13_Node000013_Node000002" class="edge">
<title>Node13&#45;&gt;Node2</title>
<g id="a_edge13_Node000013_Node000002"><a xlink:title=" ">
<path fill="none" stroke="#63b8ff" d="M301.12,-115.3C251.67,-109.39 157.46,-96.63 68.81,-74.72"/>
<polygon fill="#63b8ff" stroke="#63b8ff" points="69.77,-71.36 59.22,-72.3 68.06,-78.14 69.77,-71.36"/>
</a>
</g>
</g>
<!-- Node13&#45;&gt;Node5 -->
<g id="edge14_Node000013_Node000005" class="edge">
<title>Node13&#45;&gt;Node5</title>
<g id="a_edge14_Node000013_Node000005"><a xlink:title=" ">
<path fill="none" stroke="#63b8ff" d="M301.43,-112.38C262.63,-104.56 197.06,-90.92 132.26,-75.09"/>
<polygon fill="#63b8ff" stroke="#63b8ff" points="133.47,-71.79 122.92,-72.79 131.79,-78.58 133.47,-71.79"/>
</a>
</g>
</g>
<!-- Node13&#45;&gt;Node6 -->
<g id="edge15_Node000013_Node000006" class="edge">
<title>Node13&#45;&gt;Node6</title>
<g id="a_edge15_Node000013_Node000006"><a xlink:title=" ">
<path fill="none" stroke="#63b8ff" d="M306.63,-110.09C278.2,-101.19 234.59,-87.53 203.37,-77.75"/>
<polygon fill="#63b8ff" stroke="#63b8ff" points="204.51,-74.44 193.92,-74.79 202.42,-81.12 204.51,-74.44"/>
</a>
</g>
</g>
<!-- Node13&#45;&gt;Node7 -->
<g id="edge16_Node000013_Node000007" class="edge">
<title>Node13&#45;&gt;Node7</title>
<g id="a_edge16_Node000013_Node000007"><a xlink:title=" ">
<path fill="none" stroke="#63b8ff" d="M318.5,-110.09C303.2,-101.94 280.43,-89.82 262.6,-80.33"/>
<polygon fill="#63b8ff" stroke="#63b8ff" points="264.32,-77.27 253.85,-75.66 261.03,-83.45 264.32,-77.27"/>
</a>
</g>
</g>
<!-- Node13&#45;&gt;Node9 -->
<g id="edge17_Node000013_Node000009" class="edge">
<title>Node13&#45;&gt;Node9</title>
<g id="a_edge17_Node000013_Node000009"><a xlink:title=" ">
<path fill="none" stroke="#63b8ff" d="M329.52,-110.33C324.76,-103.28 317.9,-93.15 311.95,-84.33"/>
<polygon fill="#63b8ff" stroke="#63b8ff" points="314.89,-82.44 306.39,-76.11 309.09,-86.36 314.89,-82.44"/>
</a>
</g>
</g>
<!-- Node13&#45;&gt;Node11 -->
<g id="edge18_Node000013_Node000011" class="edge">
<title>Node13&#45;&gt;Node11</title>
<g id="a_edge18_Node000013_Node000011"><a xlink:title=" ">
<path fill="none" stroke="#63b8ff" d="M369.79,-112.84C374.39,-112.03 379.04,-111.23 383.47,-110.5 488.57,-93.08 515.54,-92.98 620.47,-74.5 621.45,-74.33 622.45,-74.15 623.45,-73.97"/>
<polygon fill="#63b8ff" stroke="#63b8ff" points="623.69,-77.48 632.87,-72.19 622.39,-70.6 623.69,-77.48"/>
</a>
</g>
</g>
<!-- Node13&#45;&gt;Node12 -->
<g id="edge22_Node000013_Node000012" class="edge">
<title>Node13&#45;&gt;Node12</title>
<g id="a_edge22_Node000013_Node000012"><a xlink:title=" ">
<path fill="none" stroke="#63b8ff" d="M369.81,-112.94C374.4,-112.12 379.05,-111.29 383.47,-110.5 474.11,-94.36 518.75,-135.77 587.47,-74.5 599.76,-63.54 604.25,-45.03 605.82,-30.75"/>
<polygon fill="#63b8ff" stroke="#63b8ff" points="609.29,-31.3 606.47,-21.09 602.31,-30.83 609.29,-31.3"/>
</a>
</g>
</g>
<!-- Node14 -->
<g id="Node000014" class="node">
<title>Node14</title>
<g id="a_Node000014"><a xlink:title=" ">
<polygon fill="#e0e0e0" stroke="#999999" points="419.84,-74.5 337.09,-74.5 337.09,-55.25 419.84,-55.25 419.84,-74.5"/>
<text xml:space="preserve" text-anchor="middle" x="378.47" y="-61" font-family="Helvetica,sans-Serif" font-size="10.00">unordered_map</text>
</a>
</g>
</g>
<!-- Node13&#45;&gt;Node14 -->
<g id="edge19_Node000013_Node000014" class="edge">
<title>Node13&#45;&gt;Node14</title>
<g id="a_edge19_Node000013_Node000014"><a xlink:title=" ">
<path fill="none" stroke="#63b8ff" d="M342.57,-110.33C348.38,-103.13 356.8,-92.71 364.02,-83.76"/>
<polygon fill="#63b8ff" stroke="#63b8ff" points="366.7,-86.02 370.26,-76.04 361.25,-81.62 366.7,-86.02"/>
</a>
</g>
</g>
<!-- Node15 -->
<g id="Node000015" class="node">
<title>Node15</title>
<g id="a_Node000015"><a xlink:title=" ">
<polygon fill="#e0e0e0" stroke="#999999" points="515.22,-74.5 437.72,-74.5 437.72,-55.25 515.22,-55.25 515.22,-74.5"/>
<text xml:space="preserve" text-anchor="middle" x="476.47" y="-61" font-family="Helvetica,sans-Serif" font-size="10.00">unordered_set</text>
</a>
</g>
</g>
<!-- Node13&#45;&gt;Node15 -->
<g id="edge20_Node000013_Node000015" class="edge">
<title>Node13&#45;&gt;Node15</title>
<g id="a_edge20_Node000013_Node000015"><a xlink:title=" ">
<path fill="none" stroke="#63b8ff" d="M359.38,-110.09C381.97,-101.56 416.1,-88.67 441.69,-79.01"/>
<polygon fill="#63b8ff" stroke="#63b8ff" points="442.9,-82.29 451.01,-75.49 440.42,-75.75 442.9,-82.29"/>
</a>
</g>
</g>
<!-- Node16 -->
<g id="Node000016" class="node">
<title>Node16</title>
<g id="a_Node000016"><a xlink:title=" ">
<polygon fill="#e0e0e0" stroke="#999999" points="578.09,-74.5 532.84,-74.5 532.84,-55.25 578.09,-55.25 578.09,-74.5"/>
<text xml:space="preserve" text-anchor="middle" x="555.47" y="-61" font-family="Helvetica,sans-Serif" font-size="10.00">variant</text>
</a>
</g>
</g>
<!-- Node13&#45;&gt;Node16 -->
<g id="edge21_Node000013_Node000016" class="edge">
<title>Node13&#45;&gt;Node16</title>
<g id="a_edge21_Node000013_Node000016"><a xlink:title=" ">
<path fill="none" stroke="#63b8ff" d="M369.71,-111.47C405.43,-103.39 463.3,-90.03 521.59,-75.17"/>
<polygon fill="#63b8ff" stroke="#63b8ff" points="522.19,-78.63 531,-72.76 520.45,-71.85 522.19,-78.63"/>
</a>
</g>
</g>
<!-- Node13&#45;&gt;Node17 -->
<g id="edge23_Node000013_Node000017" class="edge">
<title>Node13&#45;&gt;Node17</title>
<g id="a_edge23_Node000013_Node000017"><a xlink:title=" ">
<path fill="none" stroke="#63b8ff" d="M369.81,-115.34C444.44,-107.06 620.4,-87.18 699.56,-74.64"/>
<polygon fill="#63b8ff" stroke="#63b8ff" points="699.72,-78.16 709.02,-73.09 698.58,-71.25 699.72,-78.16"/>
</a>
</g>
</g>
<!-- Node17&#45;&gt;Node12 -->
<g id="edge26_Node000017_Node000012" class="edge">
<title>Node17&#45;&gt;Node12</title>
<g id="a_edge26_Node000017_Node000012"><a xlink:title=" ">
<path fill="none" stroke="#63b8ff" d="M718.57,-54.84C696.65,-46.2 663.37,-33.07 638.76,-23.36"/>
<polygon fill="#63b8ff" stroke="#63b8ff" points="640.13,-20.14 629.55,-19.73 637.56,-26.65 640.13,-20.14"/>
</a>
</g>
</g>
<!-- Node18 -->
<g id="Node000018" class="node">
<title>Node18</title>
<g id="a_Node000018"><a xlink:title=" ">
<polygon fill="#e0e0e0" stroke="#999999" points="796.59,-19.25 748.34,-19.25 748.34,0 796.59,0 796.59,-19.25"/>
<text xml:space="preserve" text-anchor="middle" x="772.47" y="-5.75" font-family="Helvetica,sans-Serif" font-size="10.00">cstddef</text>
</a>
</g>
</g>
<!-- Node17&#45;&gt;Node18 -->
<g id="edge24_Node000017_Node000018" class="edge">
<title>Node17&#45;&gt;Node18</title>
<g id="a_edge24_Node000017_Node000018"><a xlink:title=" ">
<path fill="none" stroke="#63b8ff" d="M746.59,-55.08C750.64,-48.11 756.46,-38.12 761.55,-29.37"/>
<polygon fill="#63b8ff" stroke="#63b8ff" points="764.47,-31.32 766.47,-20.92 758.42,-27.8 764.47,-31.32"/>
</a>
</g>
</g>
<!-- Node19 -->
<g id="Node000019" class="node">
<title>Node19</title>
<g id="a_Node000019"><a xlink:title=" ">
<polygon fill="#e0e0e0" stroke="#999999" points="730.09,-19.25 690.84,-19.25 690.84,0 730.09,0 730.09,-19.25"/>
<text xml:space="preserve" text-anchor="middle" x="710.47" y="-5.75" font-family="Helvetica,sans-Serif" font-size="10.00">limits</text>
</a>
</g>
</g>
<!-- Node17&#45;&gt;Node19 -->
<g id="edge25_Node000017_Node000019" class="edge">
<title>Node17&#45;&gt;Node19</title>
<g id="a_edge25_Node000017_Node000019"><a xlink:title=" ">
<path fill="none" stroke="#63b8ff" d="M736.35,-55.08C732.29,-48.11 726.47,-38.12 721.38,-29.37"/>
<polygon fill="#63b8ff" stroke="#63b8ff" points="724.51,-27.8 716.46,-20.92 718.46,-31.32 724.51,-27.8"/>
</a>
</g>
</g>
</g>
</svg>

<g id="navigator" transform="translate(0 0)" fill="#404254">
  <rect fill="#f2f5e9" fill-opacity="0.5" stroke="#606060" stroke-width=".5" x="0" y="0" width="60" height="60"/>
  <use id="zoomplus" xlink:href="#zoomPlus" x="17" y="9" onmousedown="handleZoom(evt,'in')"/>
  <use id="zoomminus" xlink:href="#zoomMin" x="42" y="9" onmousedown="handleZoom(evt,'out')"/>
  <use id="reset" xlink:href="#resetDef" x="30" y="36" onmousedown="handleReset()"/>
   <use id="arrowup" xlink:href="#arrowUp" x="0" y="0" onmousedown="handlePan(0,-1)"/>
  <use id="arrowright" xlink:href="#arrowRight" x="0" y="0" onmousedown="handlePan(1,0)"/>
  <use id="arrowdown" xlink:href="#arrowDown" x="0" y="0" onmousedown="handlePan(0,1)"/>
  <use id="arrowleft" xlink:href="#arrowLeft" x="0" y="0" onmousedown="handlePan(-1,0)"/>
</g>
<svg viewBox="0 0 15 15" width="100%" height="30px" preserveAspectRatio="xMaxYMin meet">
 <g id="arrow_out" transform="scale(0.3 0.3)">
  <a xlink:href="_read_i_o_8hpp__incl_org.svg" target="_base">
   <rect id="button" ry="5" rx="5" y="6" x="6" height="38" width="38"
        fill="#f2f5e9" fill-opacity="0.5" stroke="#606060" stroke-width="1.0"/>
   <path id="arrow"
     d="M 11.500037,31.436501 C 11.940474,20.09759 22.043105,11.32322 32.158766,21.979434 L 37.068811,17.246167 C 37.068811,17.246167 37.088388,32 37.088388,32 L 22.160133,31.978069 C 22.160133,31.978069 26.997745,27.140456 26.997745,27.140456 C 18.528582,18.264221 13.291696,25.230495 11.500037,31.436501 z"
     style="fill:#404040;"/>
  </a>
 </g>
</svg>

<style type='text/css'>
<![CDATA[
[data-mouse-over-selected='false'] { opacity: 0.7; }
[data-mouse-over-selected='true']  { opacity: 1.0; }
]]>
</style>
<script type="application/ecmascript"><![CDATA[
document.addEventListener('DOMContentLoaded', (event) => {
  highlightEdges();
  highlightAdjacentNodes();
});
]]></script>
</svg>
