<?xml version="1.0" encoding="UTF-8" standalone="no"?>
<!DOCTYPE svg PUBLIC "-//W3C//DTD SVG 1.1//EN"
 "http://www.w3.org/Graphics/SVG/1.1/DTD/svg11.dtd">
<!-- Generated by graphviz version 12.2.1 (20241206.2353)
 -->
<!-- Title: src/io/ReadIO.hpp Pages: 1 -->
<svg width="621pt" height="138pt"
 viewBox="0.00 0.00 621.38 137.75" xmlns="http://www.w3.org/2000/svg" xmlns:xlink="http://www.w3.org/1999/xlink">
<g id="graph0" class="graph" transform="scale(1 1) rotate(0) translate(4 133.75)">
<title>src/io/ReadIO.hpp</title>
<!-- Node1 -->
<g id="Node000001" class="node">
<title>Node1</title>
<g id="a_Node000001"><a xlink:title=" ">
<polygon fill="#999999" stroke="#666666" points="321.62,-129.75 226.12,-129.75 226.12,-110.5 321.62,-110.5 321.62,-129.75"/>
<text text-anchor="middle" x="273.88" y="-116.25" font-family="Helvetica,sans-Serif" font-size="10.00">src/io/ReadIO.hpp</text>
</a>
</g>
</g>
<!-- Node2 -->
<g id="Node000002" class="node">
<title>Node2</title>
<g id="a_Node000002"><a xlink:title=" ">
<polygon fill="#e0e0e0" stroke="#999999" points="31.75,-74.5 0,-74.5 0,-55.25 31.75,-55.25 31.75,-74.5"/>
<text text-anchor="middle" x="15.88" y="-61" font-family="Helvetica,sans-Serif" font-size="10.00">any</text>
</a>
</g>
</g>
<!-- Node1&#45;&gt;Node2 -->
<g id="edge1_Node000001_Node000002" class="edge">
<title>Node1&#45;&gt;Node2</title>
<g id="a_edge1_Node000001_Node000002"><a xlink:title=" ">
<path fill="none" stroke="#63b8ff" d="M225.67,-111.96C180.65,-104.81 111.43,-92.64 43.13,-74.79"/>
<polygon fill="#63b8ff" stroke="#63b8ff" points="44.2,-71.45 33.64,-72.26 42.4,-78.22 44.2,-71.45"/>
</a>
</g>
</g>
<!-- Node3 -->
<g id="Node000003" class="node">
<title>Node3</title>
<g id="a_Node000003"><a xlink:title=" ">
<polygon fill="#e0e0e0" stroke="#999999" points="95.5,-74.5 50.25,-74.5 50.25,-55.25 95.5,-55.25 95.5,-74.5"/>
<text text-anchor="middle" x="72.88" y="-61" font-family="Helvetica,sans-Serif" font-size="10.00">cstdint</text>
</a>
</g>
</g>
<!-- Node1&#45;&gt;Node3 -->
<g id="edge2_Node000001_Node000003" class="edge">
<title>Node1&#45;&gt;Node3</title>
<g id="a_edge2_Node000001_Node000003"><a xlink:title=" ">
<path fill="none" stroke="#63b8ff" d="M238.67,-110.04C206.55,-101.72 157.48,-88.93 106.74,-75.25"/>
<polygon fill="#63b8ff" stroke="#63b8ff" points="107.92,-71.94 97.35,-72.71 106.09,-78.7 107.92,-71.94"/>
</a>
</g>
</g>
<!-- Node4 -->
<g id="Node000004" class="node">
<title>Node4</title>
<g id="a_Node000004"><a xlink:title=" ">
<polygon fill="#e0e0e0" stroke="#999999" points="166.62,-74.5 113.12,-74.5 113.12,-55.25 166.62,-55.25 166.62,-74.5"/>
<text text-anchor="middle" x="139.88" y="-61" font-family="Helvetica,sans-Serif" font-size="10.00">iostream</text>
</a>
</g>
</g>
<!-- Node1&#45;&gt;Node4 -->
<g id="edge3_Node000001_Node000004" class="edge">
<title>Node1&#45;&gt;Node4</title>
<g id="a_edge3_Node000001_Node000004"><a xlink:title=" ">
<path fill="none" stroke="#63b8ff" d="M251.14,-110.09C229.78,-101.6 197.53,-88.79 173.25,-79.14"/>
<polygon fill="#63b8ff" stroke="#63b8ff" points="174.71,-75.95 164.12,-75.51 172.12,-82.46 174.71,-75.95"/>
</a>
</g>
</g>
<!-- Node5 -->
<g id="Node000005" class="node">
<title>Node5</title>
<g id="a_Node000005"><a xlink:title=" ">
<polygon fill="#e0e0e0" stroke="#999999" points="235.5,-74.5 184.25,-74.5 184.25,-55.25 235.5,-55.25 235.5,-74.5"/>
<text text-anchor="middle" x="209.88" y="-61" font-family="Helvetica,sans-Serif" font-size="10.00">memory</text>
</a>
</g>
</g>
<!-- Node1&#45;&gt;Node5 -->
<g id="edge4_Node000001_Node000005" class="edge">
<title>Node1&#45;&gt;Node5</title>
<g id="a_edge4_Node000001_Node000005"><a xlink:title=" ">
<path fill="none" stroke="#63b8ff" d="M263.02,-110.09C253.77,-102.4 240.25,-91.15 229.17,-81.93"/>
<polygon fill="#63b8ff" stroke="#63b8ff" points="231.66,-79.45 221.73,-75.74 227.18,-84.83 231.66,-79.45"/>
</a>
</g>
</g>
<!-- Node6 -->
<g id="Node000006" class="node">
<title>Node6</title>
<g id="a_Node000006"><a xlink:title=" ">
<polygon fill="#e0e0e0" stroke="#999999" points="293.88,-74.5 253.88,-74.5 253.88,-55.25 293.88,-55.25 293.88,-74.5"/>
<text text-anchor="middle" x="273.88" y="-61" font-family="Helvetica,sans-Serif" font-size="10.00">string</text>
</a>
</g>
</g>
<!-- Node1&#45;&gt;Node6 -->
<g id="edge5_Node000001_Node000006" class="edge">
<title>Node1&#45;&gt;Node6</title>
<g id="a_edge5_Node000001_Node000006"><a xlink:title=" ">
<path fill="none" stroke="#63b8ff" d="M273.88,-110.33C273.88,-103.82 273.88,-94.67 273.88,-86.37"/>
<polygon fill="#63b8ff" stroke="#63b8ff" points="277.38,-86.37 273.88,-76.37 270.38,-86.37 277.38,-86.37"/>
</a>
</g>
</g>
<!-- Node7 -->
<g id="Node000007" class="node">
<title>Node7</title>
<g id="a_Node000007"><a xlink:title=" ">
<polygon fill="#e0e0e0" stroke="#999999" points="369.88,-74.5 311.88,-74.5 311.88,-55.25 369.88,-55.25 369.88,-74.5"/>
<text text-anchor="middle" x="340.88" y="-61" font-family="Helvetica,sans-Serif" font-size="10.00">typeindex</text>
</a>
</g>
</g>
<!-- Node1&#45;&gt;Node7 -->
<g id="edge6_Node000001_Node000007" class="edge">
<title>Node1&#45;&gt;Node7</title>
<g id="a_edge6_Node000001_Node000007"><a xlink:title=" ">
<path fill="none" stroke="#63b8ff" d="M285.24,-110.09C294.92,-102.4 309.07,-91.15 320.68,-81.93"/>
<polygon fill="#63b8ff" stroke="#63b8ff" points="322.84,-84.68 328.49,-75.72 318.49,-79.2 322.84,-84.68"/>
</a>
</g>
</g>
<!-- Node8 -->
<g id="Node000008" class="node">
<title>Node8</title>
<g id="a_Node000008"><a xlink:title=" ">
<polygon fill="#e0e0e0" stroke="#999999" points="480.38,-19.25 437.38,-19.25 437.38,0 480.38,0 480.38,-19.25"/>
<text text-anchor="middle" x="458.88" y="-5.75" font-family="Helvetica,sans-Serif" font-size="10.00">vector</text>
</a>
</g>
</g>
<!-- Node1&#45;&gt;Node8 -->
<g id="edge7_Node000001_Node000008" class="edge">
<title>Node1&#45;&gt;Node8</title>
<g id="a_edge7_Node000001_Node000008"><a xlink:title=" ">
<path fill="none" stroke="#63b8ff" d="M300.73,-110.02C322.54,-102.09 353.7,-89.52 378.88,-74.5 402.1,-60.65 425.97,-40.7 441.52,-26.79"/>
<polygon fill="#63b8ff" stroke="#63b8ff" points="443.49,-29.74 448.53,-20.42 438.78,-24.56 443.49,-29.74"/>
</a>
</g>
</g>
<!-- Node9 -->
<g id="Node000009" class="node">
<title>Node9</title>
<g id="a_Node000009"><a xlink:title=" ">
<polygon fill="#e0e0e0" stroke="#999999" points="534,-74.5 425.75,-74.5 425.75,-55.25 534,-55.25 534,-74.5"/>
<text text-anchor="middle" x="479.88" y="-61" font-family="Helvetica,sans-Serif" font-size="10.00">boost/multi_array.hpp</text>
</a>
</g>
</g>
<!-- Node1&#45;&gt;Node9 -->
<g id="edge8_Node000001_Node000009" class="edge">
<title>Node1&#45;&gt;Node9</title>
<g id="a_edge8_Node000001_Node000009"><a xlink:title=" ">
<path fill="none" stroke="#63b8ff" d="M308.82,-110.09C343.3,-101.18 396.19,-87.51 434.03,-77.73"/>
<polygon fill="#63b8ff" stroke="#63b8ff" points="434.49,-81.22 443.29,-75.33 432.74,-74.45 434.49,-81.22"/>
</a>
</g>
</g>
<!-- Node10 -->
<g id="Node000010" class="node">
<title>Node10</title>
<g id="a_Node000010"><a xlink:href="_types_8hpp.html" target="_top" xlink:title=" ">
<polygon fill="white" stroke="#666666" points="613.38,-74.5 552.38,-74.5 552.38,-55.25 613.38,-55.25 613.38,-74.5"/>
<text text-anchor="middle" x="582.88" y="-61" font-family="Helvetica,sans-Serif" font-size="10.00">Types.hpp</text>
</a>
</g>
</g>
<!-- Node1&#45;&gt;Node10 -->
<g id="edge9_Node000001_Node000010" class="edge">
<title>Node1&#45;&gt;Node10</title>
<g id="a_edge9_Node000001_Node000010"><a xlink:title=" ">
<path fill="none" stroke="#63b8ff" d="M322.11,-111.84C373.72,-103.88 458.26,-90.39 540.79,-74.82"/>
<polygon fill="#63b8ff" stroke="#63b8ff" points="541.24,-78.3 550.41,-72.99 539.93,-71.42 541.24,-78.3"/>
</a>
</g>
</g>
<!-- Node10&#45;&gt;Node8 -->
<g id="edge11_Node000010_Node000008" class="edge">
<title>Node10&#45;&gt;Node8</title>
<g id="a_edge11_Node000010_Node000008"><a xlink:title=" ">
<path fill="none" stroke="#63b8ff" d="M561.84,-54.84C542.24,-46.43 512.77,-33.77 490.37,-24.15"/>
<polygon fill="#63b8ff" stroke="#63b8ff" points="491.97,-21.03 481.4,-20.3 489.21,-27.46 491.97,-21.03"/>
</a>
</g>
</g>
<!-- Node11 -->
<g id="Node000011" class="node">
<title>Node11</title>
<g id="a_Node000011"><a xlink:title=" ">
<polygon fill="#e0e0e0" stroke="#999999" points="607,-19.25 558.75,-19.25 558.75,0 607,0 607,-19.25"/>
<text text-anchor="middle" x="582.88" y="-5.75" font-family="Helvetica,sans-Serif" font-size="10.00">cstddef</text>
</a>
</g>
</g>
<!-- Node10&#45;&gt;Node11 -->
<g id="edge10_Node000010_Node000011" class="edge">
<title>Node10&#45;&gt;Node11</title>
<g id="a_edge10_Node000010_Node000011"><a xlink:title=" ">
<path fill="none" stroke="#63b8ff" d="M582.88,-55.08C582.88,-48.57 582.88,-39.42 582.88,-31.12"/>
<polygon fill="#63b8ff" stroke="#63b8ff" points="586.38,-31.12 582.88,-21.12 579.38,-31.12 586.38,-31.12"/>
</a>
</g>
</g>
</g>
</svg>
