<?xml version="1.0" encoding="UTF-8" standalone="no"?>
<!DOCTYPE svg PUBLIC "-//W3C//DTD SVG 1.1//EN"
 "http://www.w3.org/Graphics/SVG/1.1/DTD/svg11.dtd">
<!-- Generated by graphviz version 14.1.0 (20251206.1807)
 -->
<!-- Title: src/io/ReadIO.hpp Pages: 1 -->
<!--zoomable 193 -->

<svg id="main" version="1.1" xmlns="http://www.w3.org/2000/svg" xmlns:xlink="http://www.w3.org/1999/xlink" xml:space="preserve" onload="init(evt)">

<style type="text/css"><![CDATA[
.node, .edge {opacity: 0.7;}
.node.selected, .edge.selected {opacity: 1;}
.edge:hover path { stroke: red; }
.edge:hover polygon { stroke: red; fill: red; }
]]></style>

<defs>
  <circle id="rim" cx="0" cy="0" r="7"/>
  <circle id="rim2" cx="0" cy="0" r="3.5"/>
  <g id="zoomPlus">
    <use xlink:href="#rim" fill="#404040"><set attributeName="fill" to="#808080" begin="zoomplus.mouseover" end="zoomplus.mouseout"/></use>
    <path d="M-4,0h8M0,-4v8" fill="none" stroke="white" stroke-width="1.5" pointer-events="none"/>
  </g>
  <g id="zoomMin">
    <use xlink:href="#rim" fill="#404040"><set attributeName="fill" to="#808080" begin="zoomminus.mouseover" end="zoomminus.mouseout"/></use>
    <path d="M-4,0h8" fill="none" stroke="white" stroke-width="1.5" pointer-events="none"/>
  </g>
  <g id="arrowUp" transform="translate(30 24)">
    <use xlink:href="#rim"/>
    <path pointer-events="none" fill="none" stroke="white" stroke-width="1.5" d="M0,-3.0v7 M-2.5,-0.5L0,-3.0L2.5,-0.5"/>
  </g>
  <g id="arrowRight" transform="rotate(90) translate(36 -43)">
    <use xlink:href="#rim"/>
    <path pointer-events="none" fill="none" stroke="white" stroke-width="1.5" d="M0,-3.0v7 M-2.5,-0.5L0,-3.0L2.5,-0.5"/>
  </g>
  <g id="arrowDown" transform="rotate(180) translate(-30 -48)">
    <use xlink:href="#rim"/>
    <path pointer-events="none" fill="none" stroke="white" stroke-width="1.5" d="M0,-3.0v7 M-2.5,-0.5L0,-3.0L2.5,-0.5"/>
  </g>
  <g id="arrowLeft" transform="rotate(270) translate(-36 17)">
    <use xlink:href="#rim"/>
    <path pointer-events="none" fill="none" stroke="white" stroke-width="1.5" d="M0,-3.0v7 M-2.5,-0.5L0,-3.0L2.5,-0.5"/>
  </g>
  <g id="resetDef">
    <use xlink:href="#rim2" fill="#404040"><set attributeName="fill" to="#808080" begin="reset.mouseover" end="reset.mouseout"/></use>
  </g>
</defs>
<script type="application/ecmascript">
var viewWidth = 974;
var viewHeight = 193;
var sectionId = 'dynsection-0';
</script>
<script type="application/ecmascript" xlink:href="svg.min.js"/>
<svg id="graph" class="graph">
<g id="viewport">
<title>src/io/ReadIO.hpp</title>
<!-- Node1 -->
<g id="Node000001" class="node">
<title>Node1</title>
<g id="a_Node000001"><a xlink:title=" ">
<polygon fill="#999999" stroke="#666666" points="366.62,-185 271.12,-185 271.12,-165.75 366.62,-165.75 366.62,-185"/>
<text xml:space="preserve" text-anchor="middle" x="318.88" y="-171.5" font-family="Helvetica,sans-Serif" font-size="10.00">src/io/ReadIO.hpp</text>
</a>
</g>
</g>
<!-- Node2 -->
<g id="Node000002" class="node">
<title>Node2</title>
<g id="a_Node000002"><a xlink:title=" ">
<polygon fill="#e0e0e0" stroke="#999999" points="31.75,-74.5 0,-74.5 0,-55.25 31.75,-55.25 31.75,-74.5"/>
<text xml:space="preserve" text-anchor="middle" x="15.88" y="-61" font-family="Helvetica,sans-Serif" font-size="10.00">any</text>
</a>
</g>
</g>
<!-- Node1&#45;&gt;Node2 -->
<g id="edge1_Node000001_Node000002" class="edge">
<title>Node1&#45;&gt;Node2</title>
<g id="a_edge1_Node000001_Node000002"><a xlink:title=" ">
<path fill="none" stroke="#63b8ff" d="M284.04,-165.26C253.21,-156.91 207.14,-143.75 167.88,-129.75 123.17,-113.81 72.61,-91.72 42.53,-78.13"/>
<polygon fill="#63b8ff" stroke="#63b8ff" points="43.99,-74.95 33.44,-74 41.09,-81.33 43.99,-74.95"/>
</a>
</g>
</g>
<!-- Node3 -->
<g id="Node000003" class="node">
<title>Node3</title>
<g id="a_Node000003"><a xlink:title=" ">
<polygon fill="#e0e0e0" stroke="#999999" points="95.5,-74.5 50.25,-74.5 50.25,-55.25 95.5,-55.25 95.5,-74.5"/>
<text xml:space="preserve" text-anchor="middle" x="72.88" y="-61" font-family="Helvetica,sans-Serif" font-size="10.00">cstdint</text>
</a>
</g>
</g>
<!-- Node1&#45;&gt;Node3 -->
<g id="edge2_Node000001_Node000003" class="edge">
<title>Node1&#45;&gt;Node3</title>
<g id="a_edge2_Node000001_Node000003"><a xlink:title=" ">
<path fill="none" stroke="#63b8ff" d="M297.32,-165.25C276.25,-156.31 243.3,-142.24 214.88,-129.75 176.03,-112.68 131.44,-92.53 102.75,-79.5"/>
<polygon fill="#63b8ff" stroke="#63b8ff" points="104.51,-76.45 93.96,-75.5 101.61,-82.82 104.51,-76.45"/>
</a>
</g>
</g>
<!-- Node4 -->
<g id="Node000004" class="node">
<title>Node4</title>
<g id="a_Node000004"><a xlink:title=" ">
<polygon fill="#e0e0e0" stroke="#999999" points="166.62,-74.5 113.12,-74.5 113.12,-55.25 166.62,-55.25 166.62,-74.5"/>
<text xml:space="preserve" text-anchor="middle" x="139.88" y="-61" font-family="Helvetica,sans-Serif" font-size="10.00">iostream</text>
</a>
</g>
</g>
<!-- Node1&#45;&gt;Node4 -->
<g id="edge3_Node000001_Node000004" class="edge">
<title>Node1&#45;&gt;Node4</title>
<g id="a_edge3_Node000001_Node000004"><a xlink:title=" ">
<path fill="none" stroke="#63b8ff" d="M303.92,-165.31C273.05,-146.6 201.99,-103.53 164.33,-80.7"/>
<polygon fill="#63b8ff" stroke="#63b8ff" points="166.32,-77.81 155.95,-75.62 162.69,-83.8 166.32,-77.81"/>
</a>
</g>
</g>
<!-- Node5 -->
<g id="Node000005" class="node">
<title>Node5</title>
<g id="a_Node000005"><a xlink:title=" ">
<polygon fill="#e0e0e0" stroke="#999999" points="235.5,-74.5 184.25,-74.5 184.25,-55.25 235.5,-55.25 235.5,-74.5"/>
<text xml:space="preserve" text-anchor="middle" x="209.88" y="-61" font-family="Helvetica,sans-Serif" font-size="10.00">memory</text>
</a>
</g>
</g>
<!-- Node1&#45;&gt;Node5 -->
<g id="edge4_Node000001_Node000005" class="edge">
<title>Node1&#45;&gt;Node5</title>
<g id="a_edge4_Node000001_Node000005"><a xlink:title=" ">
<path fill="none" stroke="#63b8ff" d="M309.96,-165.5C291.83,-147.46 250.43,-106.25 226.95,-82.88"/>
<polygon fill="#63b8ff" stroke="#63b8ff" points="229.55,-80.52 219.99,-75.94 224.61,-85.48 229.55,-80.52"/>
</a>
</g>
</g>
<!-- Node6 -->
<g id="Node000006" class="node">
<title>Node6</title>
<g id="a_Node000006"><a xlink:title=" ">
<polygon fill="#e0e0e0" stroke="#999999" points="293.88,-74.5 253.88,-74.5 253.88,-55.25 293.88,-55.25 293.88,-74.5"/>
<text xml:space="preserve" text-anchor="middle" x="273.88" y="-61" font-family="Helvetica,sans-Serif" font-size="10.00">string</text>
</a>
</g>
</g>
<!-- Node1&#45;&gt;Node6 -->
<g id="edge5_Node000001_Node000006" class="edge">
<title>Node1&#45;&gt;Node6</title>
<g id="a_edge5_Node000001_Node000006"><a xlink:title=" ">
<path fill="none" stroke="#63b8ff" d="M315.19,-165.5C307.97,-148.09 291.81,-109.12 281.98,-85.41"/>
<polygon fill="#63b8ff" stroke="#63b8ff" points="285.25,-84.17 278.19,-76.27 278.79,-86.85 285.25,-84.17"/>
</a>
</g>
</g>
<!-- Node7 -->
<g id="Node000007" class="node">
<title>Node7</title>
<g id="a_Node000007"><a xlink:title=" ">
<polygon fill="#e0e0e0" stroke="#999999" points="666.88,-74.5 608.88,-74.5 608.88,-55.25 666.88,-55.25 666.88,-74.5"/>
<text xml:space="preserve" text-anchor="middle" x="637.88" y="-61" font-family="Helvetica,sans-Serif" font-size="10.00">typeindex</text>
</a>
</g>
</g>
<!-- Node1&#45;&gt;Node7 -->
<g id="edge6_Node000001_Node000007" class="edge">
<title>Node1&#45;&gt;Node7</title>
<g id="a_edge6_Node000001_Node000007"><a xlink:title=" ">
<path fill="none" stroke="#63b8ff" d="M345.52,-165.31C402.29,-146 535.25,-100.78 600.47,-78.6"/>
<polygon fill="#63b8ff" stroke="#63b8ff" points="601.3,-82.01 609.64,-75.48 599.05,-75.38 601.3,-82.01"/>
</a>
</g>
</g>
<!-- Node8 -->
<g id="Node000008" class="node">
<title>Node8</title>
<g id="a_Node000008"><a xlink:title=" ">
<polygon fill="#e0e0e0" stroke="#999999" points="842.38,-19.25 799.38,-19.25 799.38,0 842.38,0 842.38,-19.25"/>
<text xml:space="preserve" text-anchor="middle" x="820.88" y="-5.75" font-family="Helvetica,sans-Serif" font-size="10.00">vector</text>
</a>
</g>
</g>
<!-- Node1&#45;&gt;Node8 -->
<g id="edge7_Node000001_Node000008" class="edge">
<title>Node1&#45;&gt;Node8</title>
<g id="a_edge7_Node000001_Node000008"><a xlink:title=" ">
<path fill="none" stroke="#63b8ff" d="M367.02,-170.65C476.32,-161.25 738.61,-133 801.88,-74.5 813.96,-63.32 818.48,-44.83 820.11,-30.61"/>
<polygon fill="#63b8ff" stroke="#63b8ff" points="823.58,-31.25 820.81,-21.02 816.6,-30.74 823.58,-31.25"/>
</a>
</g>
</g>
<!-- Node9 -->
<g id="Node000009" class="node">
<title>Node9</title>
<g id="a_Node000009"><a xlink:title=" ">
<polygon fill="#e0e0e0" stroke="#999999" points="793,-74.5 684.75,-74.5 684.75,-55.25 793,-55.25 793,-74.5"/>
<text xml:space="preserve" text-anchor="middle" x="738.88" y="-61" font-family="Helvetica,sans-Serif" font-size="10.00">boost/multi_array.hpp</text>
</a>
</g>
</g>
<!-- Node1&#45;&gt;Node9 -->
<g id="edge8_Node000001_Node000009" class="edge">
<title>Node1&#45;&gt;Node9</title>
<g id="a_edge8_Node000001_Node000009"><a xlink:title=" ">
<path fill="none" stroke="#63b8ff" d="M354.54,-165.26C389.72,-156.26 445.01,-142.1 492.88,-129.75 562.83,-111.7 643.94,-90.6 693.32,-77.75"/>
<polygon fill="#63b8ff" stroke="#63b8ff" points="694,-81.19 702.79,-75.28 692.23,-74.41 694,-81.19"/>
</a>
</g>
</g>
<!-- Node10 -->
<g id="Node000010" class="node">
<title>Node10</title>
<g id="a_Node000010"><a xlink:href="_base_i_o_8hpp.html" target="_top" xlink:title=" ">
<polygon fill="white" stroke="#666666" points="384.75,-129.75 317,-129.75 317,-110.5 384.75,-110.5 384.75,-129.75"/>
<text xml:space="preserve" text-anchor="middle" x="350.88" y="-116.25" font-family="Helvetica,sans-Serif" font-size="10.00">BaseIO.hpp</text>
</a>
</g>
</g>
<!-- Node1&#45;&gt;Node10 -->
<g id="edge9_Node000001_Node000010" class="edge">
<title>Node1&#45;&gt;Node10</title>
<g id="a_edge9_Node000001_Node000010"><a xlink:title=" ">
<path fill="none" stroke="#63b8ff" d="M324.16,-165.58C328.35,-158.61 334.35,-148.62 339.61,-139.87"/>
<polygon fill="#63b8ff" stroke="#63b8ff" points="342.55,-141.78 344.7,-131.41 336.55,-138.18 342.55,-141.78"/>
</a>
</g>
</g>
<!-- Node14 -->
<g id="Node000014" class="node">
<title>Node14</title>
<g id="a_Node000014"><a xlink:href="_types_8hpp.html" target="_top" xlink:title=" ">
<polygon fill="white" stroke="#666666" points="910.38,-74.5 849.38,-74.5 849.38,-55.25 910.38,-55.25 910.38,-74.5"/>
<text xml:space="preserve" text-anchor="middle" x="879.88" y="-61" font-family="Helvetica,sans-Serif" font-size="10.00">Types.hpp</text>
</a>
</g>
</g>
<!-- Node1&#45;&gt;Node14 -->
<g id="edge25_Node000001_Node000014" class="edge">
<title>Node1&#45;&gt;Node14</title>
<g id="a_edge25_Node000001_Node000014"><a xlink:title=" ">
<path fill="none" stroke="#63b8ff" d="M366.95,-172.52C487.32,-167.55 794.87,-152.74 834.88,-129.75 852.31,-119.73 864.64,-99.9 871.93,-84.98"/>
<polygon fill="#63b8ff" stroke="#63b8ff" points="874.99,-86.71 875.91,-76.15 868.61,-83.83 874.99,-86.71"/>
</a>
</g>
</g>
<!-- Node10&#45;&gt;Node2 -->
<g id="edge10_Node000010_Node000002" class="edge">
<title>Node10&#45;&gt;Node2</title>
<g id="a_edge10_Node000010_Node000002"><a xlink:title=" ">
<path fill="none" stroke="#63b8ff" d="M316.53,-116.32C260.89,-111.32 147.53,-99.23 43.19,-74.64"/>
<polygon fill="#63b8ff" stroke="#63b8ff" points="44.16,-71.28 33.62,-72.34 42.52,-78.08 44.16,-71.28"/>
</a>
</g>
</g>
<!-- Node10&#45;&gt;Node3 -->
<g id="edge11_Node000010_Node000003" class="edge">
<title>Node10&#45;&gt;Node3</title>
<g id="a_edge11_Node000010_Node000003"><a xlink:title=" ">
<path fill="none" stroke="#63b8ff" d="M316.71,-113.98C270.92,-106.86 186.89,-93.02 106.62,-74.97"/>
<polygon fill="#63b8ff" stroke="#63b8ff" points="107.84,-71.66 97.31,-72.85 106.29,-78.49 107.84,-71.66"/>
</a>
</g>
</g>
<!-- Node10&#45;&gt;Node4 -->
<g id="edge12_Node000010_Node000004" class="edge">
<title>Node10&#45;&gt;Node4</title>
<g id="a_edge12_Node000010_Node000004"><a xlink:title=" ">
<path fill="none" stroke="#63b8ff" d="M316.5,-110.45C278.45,-100.85 217.3,-85.41 177.86,-75.46"/>
<polygon fill="#63b8ff" stroke="#63b8ff" points="178.87,-72.11 168.32,-73.05 177.16,-78.89 178.87,-72.11"/>
</a>
</g>
</g>
<!-- Node10&#45;&gt;Node5 -->
<g id="edge13_Node000010_Node000005" class="edge">
<title>Node10&#45;&gt;Node5</title>
<g id="a_edge13_Node000010_Node000005"><a xlink:title=" ">
<path fill="none" stroke="#63b8ff" d="M326.96,-110.09C304.37,-101.56 270.24,-88.67 244.65,-79.01"/>
<polygon fill="#63b8ff" stroke="#63b8ff" points="245.92,-75.75 235.33,-75.49 243.45,-82.29 245.92,-75.75"/>
</a>
</g>
</g>
<!-- Node10&#45;&gt;Node6 -->
<g id="edge14_Node000010_Node000006" class="edge">
<title>Node10&#45;&gt;Node6</title>
<g id="a_edge14_Node000010_Node000006"><a xlink:title=" ">
<path fill="none" stroke="#63b8ff" d="M337.81,-110.09C326.42,-102.21 309.65,-90.61 296.14,-81.27"/>
<polygon fill="#63b8ff" stroke="#63b8ff" points="298.46,-78.62 288.25,-75.81 294.48,-84.38 298.46,-78.62"/>
</a>
</g>
</g>
<!-- Node10&#45;&gt;Node7 -->
<g id="edge15_Node000010_Node000007" class="edge">
<title>Node10&#45;&gt;Node7</title>
<g id="a_edge15_Node000010_Node000007"><a xlink:title=" ">
<path fill="none" stroke="#63b8ff" d="M385.21,-113.48C431.25,-105.81 515.81,-91.32 597.47,-74.92"/>
<polygon fill="#63b8ff" stroke="#63b8ff" points="597.85,-78.41 606.96,-72.99 596.47,-71.55 597.85,-78.41"/>
</a>
</g>
</g>
<!-- Node10&#45;&gt;Node8 -->
<g id="edge19_Node000010_Node000008" class="edge">
<title>Node10&#45;&gt;Node8</title>
<g id="a_edge19_Node000010_Node000008"><a xlink:title=" ">
<path fill="none" stroke="#63b8ff" d="M374.95,-110.14C397.6,-101.52 432.36,-87.88 461.88,-74.5 479.12,-66.68 481.81,-60.91 499.88,-55.25 601.6,-23.39 728.56,-14.25 787.7,-11.65"/>
<polygon fill="#63b8ff" stroke="#63b8ff" points="787.56,-15.15 797.41,-11.26 787.28,-8.16 787.56,-15.15"/>
</a>
</g>
</g>
<!-- Node10&#45;&gt;Node9 -->
<g id="edge20_Node000010_Node000009" class="edge">
<title>Node10&#45;&gt;Node9</title>
<g id="a_edge20_Node000010_Node000009"><a xlink:title=" ">
<path fill="none" stroke="#63b8ff" d="M384.97,-114.45C449.34,-105.61 589.79,-86.34 673.1,-74.9"/>
<polygon fill="#63b8ff" stroke="#63b8ff" points="673.53,-78.38 682.96,-73.55 672.58,-71.44 673.53,-78.38"/>
</a>
</g>
</g>
<!-- Node11 -->
<g id="Node000011" class="node">
<title>Node11</title>
<g id="a_Node000011"><a xlink:title=" ">
<polygon fill="#e0e0e0" stroke="#999999" points="591.25,-74.5 508.5,-74.5 508.5,-55.25 591.25,-55.25 591.25,-74.5"/>
<text xml:space="preserve" text-anchor="middle" x="549.88" y="-61" font-family="Helvetica,sans-Serif" font-size="10.00">unordered_map</text>
</a>
</g>
</g>
<!-- Node10&#45;&gt;Node11 -->
<g id="edge16_Node000010_Node000011" class="edge">
<title>Node10&#45;&gt;Node11</title>
<g id="a_edge16_Node000010_Node000011"><a xlink:title=" ">
<path fill="none" stroke="#63b8ff" d="M384.63,-110.09C417.8,-101.22 468.59,-87.62 505.11,-77.85"/>
<polygon fill="#63b8ff" stroke="#63b8ff" points="505.73,-81.31 514.49,-75.34 503.92,-74.55 505.73,-81.31"/>
</a>
</g>
</g>
<!-- Node12 -->
<g id="Node000012" class="node">
<title>Node12</title>
<g id="a_Node000012"><a xlink:title=" ">
<polygon fill="#e0e0e0" stroke="#999999" points="389.62,-74.5 312.12,-74.5 312.12,-55.25 389.62,-55.25 389.62,-74.5"/>
<text xml:space="preserve" text-anchor="middle" x="350.88" y="-61" font-family="Helvetica,sans-Serif" font-size="10.00">unordered_set</text>
</a>
</g>
</g>
<!-- Node10&#45;&gt;Node12 -->
<g id="edge17_Node000010_Node000012" class="edge">
<title>Node10&#45;&gt;Node12</title>
<g id="a_edge17_Node000010_Node000012"><a xlink:title=" ">
<path fill="none" stroke="#63b8ff" d="M350.88,-110.33C350.88,-103.82 350.88,-94.67 350.88,-86.37"/>
<polygon fill="#63b8ff" stroke="#63b8ff" points="354.38,-86.37 350.88,-76.37 347.38,-86.37 354.38,-86.37"/>
</a>
</g>
</g>
<!-- Node13 -->
<g id="Node000013" class="node">
<title>Node13</title>
<g id="a_Node000013"><a xlink:title=" ">
<polygon fill="#e0e0e0" stroke="#999999" points="452.5,-74.5 407.25,-74.5 407.25,-55.25 452.5,-55.25 452.5,-74.5"/>
<text xml:space="preserve" text-anchor="middle" x="429.88" y="-61" font-family="Helvetica,sans-Serif" font-size="10.00">variant</text>
</a>
</g>
</g>
<!-- Node10&#45;&gt;Node13 -->
<g id="edge18_Node000010_Node000013" class="edge">
<title>Node10&#45;&gt;Node13</title>
<g id="a_edge18_Node000010_Node000013"><a xlink:title=" ">
<path fill="none" stroke="#63b8ff" d="M364.28,-110.09C375.97,-102.21 393.18,-90.61 407.04,-81.27"/>
<polygon fill="#63b8ff" stroke="#63b8ff" points="408.82,-84.29 415.15,-75.8 404.9,-78.49 408.82,-84.29"/>
</a>
</g>
</g>
<!-- Node10&#45;&gt;Node14 -->
<g id="edge21_Node000010_Node000014" class="edge">
<title>Node10&#45;&gt;Node14</title>
<g id="a_edge21_Node000010_Node000014"><a xlink:title=" ">
<path fill="none" stroke="#63b8ff" d="M385.12,-115.87C460.47,-108.68 646.35,-90.79 801.88,-74.5 813.56,-73.28 826.23,-71.9 837.89,-70.61"/>
<polygon fill="#63b8ff" stroke="#63b8ff" points="838.08,-74.11 847.63,-69.52 837.31,-67.15 838.08,-74.11"/>
</a>
</g>
</g>
<!-- Node14&#45;&gt;Node8 -->
<g id="edge24_Node000014_Node000008" class="edge">
<title>Node14&#45;&gt;Node8</title>
<g id="a_edge24_Node000014_Node000008"><a xlink:title=" ">
<path fill="none" stroke="#63b8ff" d="M869.87,-54.84C861.51,-47.3 849.38,-36.35 839.27,-27.23"/>
<polygon fill="#63b8ff" stroke="#63b8ff" points="841.63,-24.64 831.86,-20.54 836.94,-29.84 841.63,-24.64"/>
</a>
</g>
</g>
<!-- Node15 -->
<g id="Node000015" class="node">
<title>Node15</title>
<g id="a_Node000015"><a xlink:title=" ">
<polygon fill="#e0e0e0" stroke="#999999" points="966,-19.25 917.75,-19.25 917.75,0 966,0 966,-19.25"/>
<text xml:space="preserve" text-anchor="middle" x="941.88" y="-5.75" font-family="Helvetica,sans-Serif" font-size="10.00">cstddef</text>
</a>
</g>
</g>
<!-- Node14&#45;&gt;Node15 -->
<g id="edge22_Node000014_Node000015" class="edge">
<title>Node14&#45;&gt;Node15</title>
<g id="a_edge22_Node000014_Node000015"><a xlink:title=" ">
<path fill="none" stroke="#63b8ff" d="M890.39,-54.84C899.26,-47.22 912.19,-36.12 922.86,-26.95"/>
<polygon fill="#63b8ff" stroke="#63b8ff" points="925.06,-29.68 930.36,-20.51 920.5,-24.37 925.06,-29.68"/>
</a>
</g>
</g>
<!-- Node16 -->
<g id="Node000016" class="node">
<title>Node16</title>
<g id="a_Node000016"><a xlink:title=" ">
<polygon fill="#e0e0e0" stroke="#999999" points="899.5,-19.25 860.25,-19.25 860.25,0 899.5,0 899.5,-19.25"/>
<text xml:space="preserve" text-anchor="middle" x="879.88" y="-5.75" font-family="Helvetica,sans-Serif" font-size="10.00">limits</text>
</a>
</g>
</g>
<!-- Node14&#45;&gt;Node16 -->
<g id="edge23_Node000014_Node000016" class="edge">
<title>Node14&#45;&gt;Node16</title>
<g id="a_edge23_Node000014_Node000016"><a xlink:title=" ">
<path fill="none" stroke="#63b8ff" d="M879.88,-55.08C879.88,-48.57 879.88,-39.42 879.88,-31.12"/>
<polygon fill="#63b8ff" stroke="#63b8ff" points="883.38,-31.12 879.88,-21.12 876.38,-31.12 883.38,-31.12"/>
</a>
</g>
</g>
</g>
</svg>

<g id="navigator" transform="translate(0 0)" fill="#404254">
  <rect fill="#f2f5e9" fill-opacity="0.5" stroke="#606060" stroke-width=".5" x="0" y="0" width="60" height="60"/>
  <use id="zoomplus" xlink:href="#zoomPlus" x="17" y="9" onmousedown="handleZoom(evt,'in')"/>
  <use id="zoomminus" xlink:href="#zoomMin" x="42" y="9" onmousedown="handleZoom(evt,'out')"/>
  <use id="reset" xlink:href="#resetDef" x="30" y="36" onmousedown="handleReset()"/>
   <use id="arrowup" xlink:href="#arrowUp" x="0" y="0" onmousedown="handlePan(0,-1)"/>
  <use id="arrowright" xlink:href="#arrowRight" x="0" y="0" onmousedown="handlePan(1,0)"/>
  <use id="arrowdown" xlink:href="#arrowDown" x="0" y="0" onmousedown="handlePan(0,1)"/>
  <use id="arrowleft" xlink:href="#arrowLeft" x="0" y="0" onmousedown="handlePan(-1,0)"/>
</g>
<svg viewBox="0 0 15 15" width="100%" height="30px" preserveAspectRatio="xMaxYMin meet">
 <g id="arrow_out" transform="scale(0.3 0.3)">
  <a xlink:href="_read_i_o_8hpp__incl_org.svg" target="_base">
   <rect id="button" ry="5" rx="5" y="6" x="6" height="38" width="38"
        fill="#f2f5e9" fill-opacity="0.5" stroke="#606060" stroke-width="1.0"/>
   <path id="arrow"
     d="M 11.500037,31.436501 C 11.940474,20.09759 22.043105,11.32322 32.158766,21.979434 L 37.068811,17.246167 C 37.068811,17.246167 37.088388,32 37.088388,32 L 22.160133,31.978069 C 22.160133,31.978069 26.997745,27.140456 26.997745,27.140456 C 18.528582,18.264221 13.291696,25.230495 11.500037,31.436501 z"
     style="fill:#404040;"/>
  </a>
 </g>
</svg>

<style type='text/css'>
<![CDATA[
[data-mouse-over-selected='false'] { opacity: 0.7; }
[data-mouse-over-selected='true']  { opacity: 1.0; }
]]>
</style>
<script type="application/ecmascript"><![CDATA[
document.addEventListener('DOMContentLoaded', (event) => {
  highlightEdges();
  highlightAdjacentNodes();
});
]]></script>
</svg>
