<?xml version="1.0" encoding="UTF-8" standalone="no"?>
<!DOCTYPE svg PUBLIC "-//W3C//DTD SVG 1.1//EN"
 "http://www.w3.org/Graphics/SVG/1.1/DTD/svg11.dtd">
<!-- Generated by graphviz version 12.2.1 (20241206.2353)
 -->
<!-- Title: src/io/ReadIO.hpp Pages: 1 -->
<svg width="1861pt" height="581pt"
 viewBox="0.00 0.00 1861.23 580.75" xmlns="http://www.w3.org/2000/svg" xmlns:xlink="http://www.w3.org/1999/xlink">
<g id="graph0" class="graph" transform="scale(1 1) rotate(0) translate(4 576.75)">
<title>src/io/ReadIO.hpp</title>
<!-- Node1 -->
<g id="Node000001" class="node">
<title>Node1</title>
<g id="a_Node000001"><a xlink:title=" ">
<polygon fill="#999999" stroke="#666666" points="1389.75,-572.75 1294.25,-572.75 1294.25,-553.5 1389.75,-553.5 1389.75,-572.75"/>
<text text-anchor="middle" x="1342" y="-559.25" font-family="Helvetica,sans-Serif" font-size="10.00">src/io/ReadIO.hpp</text>
</a>
</g>
</g>
<!-- Node2 -->
<g id="Node000002" class="node">
<title>Node2</title>
<g id="a_Node000002"><a xlink:href="_h_d_f5_i_o_8hpp.html" target="_top" xlink:title=" ">
<polygon fill="white" stroke="#666666" points="1358.12,-517.5 1237.88,-517.5 1237.88,-498.25 1358.12,-498.25 1358.12,-517.5"/>
<text text-anchor="middle" x="1298" y="-504" font-family="Helvetica,sans-Serif" font-size="10.00">src/io/hdf5/HDF5IO.hpp</text>
</a>
</g>
</g>
<!-- Node1&#45;&gt;Node2 -->
<g id="edge1_Node000001_Node000002" class="edge">
<title>Node1&#45;&gt;Node2</title>
<g id="a_edge1_Node000001_Node000002"><a xlink:title=" ">
<path fill="none" stroke="#63b8ff" d="M1327.42,-544.47C1320.05,-535.56 1311.42,-525.12 1305.42,-517.86"/>
<polygon fill="#63b8ff" stroke="#63b8ff" points="1324.7,-546.69 1333.77,-552.17 1330.1,-542.23 1324.7,-546.69"/>
</a>
</g>
</g>
<!-- Node8 -->
<g id="Node000008" class="node">
<title>Node8</title>
<g id="a_Node000008"><a xlink:href="_n_w_b_file_8hpp.html" target="_top" xlink:title=" ">
<polygon fill="white" stroke="#666666" points="884,-80.12 772,-80.12 772,-60.88 884,-60.88 884,-80.12"/>
<text text-anchor="middle" x="828" y="-66.62" font-family="Helvetica,sans-Serif" font-size="10.00">src/nwb/NWBFile.hpp</text>
</a>
</g>
</g>
<!-- Node1&#45;&gt;Node8 -->
<g id="edge65_Node000001_Node000008" class="edge">
<title>Node1&#45;&gt;Node8</title>
<g id="a_edge65_Node000001_Node000008"><a xlink:title=" ">
<path fill="none" stroke="#63b8ff" d="M1282.77,-560.95C1148.99,-557.81 827.05,-547.29 723,-517.5 664.54,-500.76 602,-514.44 602,-453.62 602,-453.62 602,-453.62 602,-202.5 602,-124.27 704.61,-91.99 771.55,-79.25"/>
<polygon fill="#63b8ff" stroke="#63b8ff" points="1282.38,-564.44 1292.46,-561.17 1282.54,-557.45 1282.38,-564.44"/>
</a>
</g>
</g>
<!-- Node9 -->
<g id="Node000009" class="node">
<title>Node9</title>
<g id="a_Node000009"><a xlink:href="_registered_type_8cpp.html" target="_top" xlink:title=" ">
<polygon fill="white" stroke="#666666" points="1630.25,-340.5 1489.75,-340.5 1489.75,-321.25 1630.25,-321.25 1630.25,-340.5"/>
<text text-anchor="middle" x="1560" y="-327" font-family="Helvetica,sans-Serif" font-size="10.00">src/nwb/RegisteredType.cpp</text>
</a>
</g>
</g>
<!-- Node1&#45;&gt;Node9 -->
<g id="edge66_Node000001_Node000009" class="edge">
<title>Node1&#45;&gt;Node9</title>
<g id="a_edge66_Node000001_Node000009"><a xlink:title=" ">
<path fill="none" stroke="#63b8ff" d="M1384.17,-549.36C1441.35,-529.48 1541.05,-485.05 1582,-407 1593.74,-384.62 1576.81,-355.1 1566.67,-340.63"/>
<polygon fill="#63b8ff" stroke="#63b8ff" points="1383.12,-546.02 1374.76,-552.53 1385.36,-552.65 1383.12,-546.02"/>
</a>
</g>
</g>
<!-- Node10 -->
<g id="Node000010" class="node">
<title>Node10</title>
<g id="a_Node000010"><a xlink:href="_registered_type_8hpp.html" target="_top" xlink:title=" ">
<polygon fill="white" stroke="#666666" points="1554.25,-401.38 1413.75,-401.38 1413.75,-382.12 1554.25,-382.12 1554.25,-401.38"/>
<text text-anchor="middle" x="1484" y="-387.88" font-family="Helvetica,sans-Serif" font-size="10.00">src/nwb/RegisteredType.hpp</text>
</a>
</g>
</g>
<!-- Node1&#45;&gt;Node10 -->
<g id="edge67_Node000001_Node000010" class="edge">
<title>Node1&#45;&gt;Node10</title>
<g id="a_edge67_Node000001_Node000010"><a xlink:title=" ">
<path fill="none" stroke="#63b8ff" d="M1365.13,-546.96C1376.37,-538.96 1389.64,-528.53 1400,-517.5 1436.28,-478.86 1467.84,-423.06 1479.35,-401.61"/>
<polygon fill="#63b8ff" stroke="#63b8ff" points="1363.4,-543.9 1357.15,-552.45 1367.37,-549.66 1363.4,-543.9"/>
</a>
</g>
</g>
<!-- Node13 -->
<g id="Node000013" class="node">
<title>Node13</title>
<g id="a_Node000013"><a xlink:href="_time_series_8hpp.html" target="_top" xlink:title=" ">
<polygon fill="white" stroke="#666666" points="955.88,-279.62 810.12,-279.62 810.12,-260.38 955.88,-260.38 955.88,-279.62"/>
<text text-anchor="middle" x="883" y="-266.12" font-family="Helvetica,sans-Serif" font-size="10.00">src/nwb/base/TimeSeries.hpp</text>
</a>
</g>
</g>
<!-- Node1&#45;&gt;Node13 -->
<g id="edge68_Node000001_Node000013" class="edge">
<title>Node1&#45;&gt;Node13</title>
<g id="a_edge68_Node000001_Node000013"><a xlink:title=" ">
<path fill="none" stroke="#63b8ff" d="M1282.6,-559.17C1113.23,-549.96 640,-518.43 640,-453.62 640,-453.62 640,-453.62 640,-390.75 640,-314.21 738.21,-286.59 809.76,-276.62"/>
<polygon fill="#63b8ff" stroke="#63b8ff" points="1282.34,-562.66 1292.51,-559.7 1282.72,-555.67 1282.34,-562.66"/>
</a>
</g>
</g>
<!-- Node16 -->
<g id="Node000016" class="node">
<title>Node16</title>
<g id="a_Node000016"><a xlink:href="_electrical_series_8hpp.html" target="_top" xlink:title=" ">
<polygon fill="white" stroke="#666666" points="1145.88,-218.75 1012.12,-218.75 1012.12,-188.25 1145.88,-188.25 1145.88,-218.75"/>
<text text-anchor="start" x="1020.12" y="-205.25" font-family="Helvetica,sans-Serif" font-size="10.00">src/nwb/ecephys/Electrical</text>
<text text-anchor="middle" x="1079" y="-194" font-family="Helvetica,sans-Serif" font-size="10.00">Series.hpp</text>
</a>
</g>
</g>
<!-- Node1&#45;&gt;Node16 -->
<g id="edge70_Node000001_Node000016" class="edge">
<title>Node1&#45;&gt;Node16</title>
<g id="a_edge70_Node000001_Node000016"><a xlink:title=" ">
<path fill="none" stroke="#63b8ff" d="M1355.08,-543.77C1359.82,-536.04 1364.59,-526.72 1367,-517.5 1382.83,-456.86 1407,-424.74 1367,-376.5 1311.86,-310 1248.75,-387.07 1176,-340.5 1136.61,-315.29 1142.17,-292.82 1115,-254.75 1106.4,-242.7 1096.61,-229.04 1089.41,-219"/>
<polygon fill="#63b8ff" stroke="#63b8ff" points="1352.3,-541.62 1349.7,-551.89 1358.14,-545.49 1352.3,-541.62"/>
</a>
</g>
</g>
<!-- Node18 -->
<g id="Node000018" class="node">
<title>Node18</title>
<g id="a_Node000018"><a xlink:href="_spike_event_series_8hpp.html" target="_top" xlink:title=" ">
<polygon fill="white" stroke="#666666" points="1399.75,-152.25 1256.25,-152.25 1256.25,-121.75 1399.75,-121.75 1399.75,-152.25"/>
<text text-anchor="start" x="1264.25" y="-138.75" font-family="Helvetica,sans-Serif" font-size="10.00">src/nwb/ecephys/SpikeEvent</text>
<text text-anchor="middle" x="1328" y="-127.5" font-family="Helvetica,sans-Serif" font-size="10.00">Series.hpp</text>
</a>
</g>
</g>
<!-- Node1&#45;&gt;Node18 -->
<g id="edge71_Node000001_Node000018" class="edge">
<title>Node1&#45;&gt;Node18</title>
<g id="a_edge71_Node000001_Node000018"><a xlink:title=" ">
<path fill="none" stroke="#63b8ff" d="M1401.14,-561.85C1535.27,-559.62 1851,-544.71 1851,-453.62 1851,-453.62 1851,-453.62 1851,-269 1851,-232.13 1859.9,-212.35 1832,-188.25 1796.3,-157.42 1455.77,-158.34 1409,-152.25 1406.03,-151.86 1403,-151.44 1399.94,-151"/>
<polygon fill="#63b8ff" stroke="#63b8ff" points="1401.35,-558.34 1391.4,-561.99 1401.45,-565.34 1401.35,-558.34"/>
</a>
</g>
</g>
<!-- Node20 -->
<g id="Node000020" class="node">
<title>Node20</title>
<g id="a_Node000020"><a xlink:href="_device_8hpp.html" target="_top" xlink:title=" ">
<polygon fill="white" stroke="#666666" points="1744.25,-279.62 1609.75,-279.62 1609.75,-260.38 1744.25,-260.38 1744.25,-279.62"/>
<text text-anchor="middle" x="1677" y="-266.12" font-family="Helvetica,sans-Serif" font-size="10.00">src/nwb/device/Device.hpp</text>
</a>
</g>
</g>
<!-- Node1&#45;&gt;Node20 -->
<g id="edge69_Node000001_Node000020" class="edge">
<title>Node1&#45;&gt;Node20</title>
<g id="a_edge69_Node000001_Node000020"><a xlink:title=" ">
<path fill="none" stroke="#63b8ff" d="M1401.33,-556.28C1502.13,-544.7 1696,-514.51 1696,-453.62 1696,-453.62 1696,-453.62 1696,-390.75 1696,-348.86 1684.52,-299.74 1679.41,-279.94"/>
<polygon fill="#63b8ff" stroke="#63b8ff" points="1401.16,-552.78 1391.61,-557.37 1401.94,-559.74 1401.16,-552.78"/>
</a>
</g>
</g>
<!-- Node25 -->
<g id="Node000025" class="node">
<title>Node25</title>
<g id="a_Node000025"><a xlink:href="_dynamic_table_8hpp.html" target="_top" xlink:title=" ">
<polygon fill="white" stroke="#666666" points="360,-218.75 260,-218.75 260,-188.25 360,-188.25 360,-218.75"/>
<text text-anchor="start" x="268" y="-205.25" font-family="Helvetica,sans-Serif" font-size="10.00">src/nwb/hdmf/table</text>
<text text-anchor="middle" x="310" y="-194" font-family="Helvetica,sans-Serif" font-size="10.00">/DynamicTable.hpp</text>
</a>
</g>
</g>
<!-- Node1&#45;&gt;Node25 -->
<g id="edge72_Node000001_Node000025" class="edge">
<title>Node1&#45;&gt;Node25</title>
<g id="a_edge72_Node000001_Node000025"><a xlink:title=" ">
<path fill="none" stroke="#63b8ff" d="M1282.48,-562.61C1052.13,-563.71 232,-560.14 232,-453.62 232,-453.62 232,-453.62 232,-329.88 232,-283.73 270.56,-240.49 293.46,-218.89"/>
<polygon fill="#63b8ff" stroke="#63b8ff" points="1282.45,-566.11 1292.43,-562.56 1282.42,-559.11 1282.45,-566.11"/>
</a>
</g>
</g>
<!-- Node33 -->
<g id="Node000033" class="node">
<title>Node33</title>
<g id="a_Node000033"><a xlink:href="_vector_data_8hpp.html" target="_top" xlink:title=" ">
<polygon fill="white" stroke="#666666" points="203.62,-285.25 104.38,-285.25 104.38,-254.75 203.62,-254.75 203.62,-285.25"/>
<text text-anchor="start" x="112.38" y="-271.75" font-family="Helvetica,sans-Serif" font-size="10.00">src/nwb/hdmf/table</text>
<text text-anchor="middle" x="154" y="-260.5" font-family="Helvetica,sans-Serif" font-size="10.00">/VectorData.hpp</text>
</a>
</g>
</g>
<!-- Node1&#45;&gt;Node33 -->
<g id="edge73_Node000001_Node000033" class="edge">
<title>Node1&#45;&gt;Node33</title>
<g id="a_edge73_Node000001_Node000033"><a xlink:title=" ">
<path fill="none" stroke="#63b8ff" d="M1282.32,-561.68C1080.69,-559.89 425.74,-551.53 218,-517.5 118.37,-501.18 0,-554.59 0,-453.62 0,-453.62 0,-453.62 0,-390.75 0,-336.22 60.91,-302.92 106.12,-285.71"/>
<polygon fill="#63b8ff" stroke="#63b8ff" points="1282.28,-565.18 1292.31,-561.77 1282.34,-558.18 1282.28,-565.18"/>
</a>
</g>
</g>
<!-- Node3 -->
<g id="Node000003" class="node">
<title>Node3</title>
<g id="a_Node000003"><a xlink:href="_utils_8hpp.html" target="_top" xlink:title=" ">
<polygon fill="white" stroke="#666666" points="1019.75,-462.25 948.25,-462.25 948.25,-443 1019.75,-443 1019.75,-462.25"/>
<text text-anchor="middle" x="984" y="-448.75" font-family="Helvetica,sans-Serif" font-size="10.00">src/Utils.hpp</text>
</a>
</g>
</g>
<!-- Node2&#45;&gt;Node3 -->
<g id="edge2_Node000002_Node000003" class="edge">
<title>Node2&#45;&gt;Node3</title>
<g id="a_edge2_Node000002_Node000003"><a xlink:title=" ">
<path fill="none" stroke="#63b8ff" d="M1233.1,-495.87C1168.48,-484.91 1071.65,-468.49 1019.8,-459.7"/>
<polygon fill="#63b8ff" stroke="#63b8ff" points="1232.44,-499.31 1242.89,-497.53 1233.61,-492.41 1232.44,-499.31"/>
</a>
</g>
</g>
<!-- Node5 -->
<g id="Node000005" class="node">
<title>Node5</title>
<g id="a_Node000005"><a xlink:href="_h_d_f5_i_o_8cpp.html" target="_top" xlink:title=" ">
<polygon fill="white" stroke="#666666" points="1358.12,-401.38 1237.88,-401.38 1237.88,-382.12 1358.12,-382.12 1358.12,-401.38"/>
<text text-anchor="middle" x="1298" y="-387.88" font-family="Helvetica,sans-Serif" font-size="10.00">src/io/hdf5/HDF5IO.cpp</text>
</a>
</g>
</g>
<!-- Node2&#45;&gt;Node5 -->
<g id="edge64_Node000002_Node000005" class="edge">
<title>Node2&#45;&gt;Node5</title>
<g id="a_edge64_Node000002_Node000005"><a xlink:title=" ">
<path fill="none" stroke="#63b8ff" d="M1298,-486.5C1298,-461.38 1298,-419.79 1298,-401.66"/>
<polygon fill="#63b8ff" stroke="#63b8ff" points="1294.5,-486.41 1298,-496.41 1301.5,-486.41 1294.5,-486.41"/>
</a>
</g>
</g>
<!-- Node4 -->
<g id="Node000004" class="node">
<title>Node4</title>
<g id="a_Node000004"><a xlink:href="_base_i_o_8cpp.html" target="_top" xlink:title=" ">
<polygon fill="white" stroke="#666666" points="1106.38,-401.38 1011.62,-401.38 1011.62,-382.12 1106.38,-382.12 1106.38,-401.38"/>
<text text-anchor="middle" x="1059" y="-387.88" font-family="Helvetica,sans-Serif" font-size="10.00">src/io/BaseIO.cpp</text>
</a>
</g>
</g>
<!-- Node3&#45;&gt;Node4 -->
<g id="edge3_Node000003_Node000004" class="edge">
<title>Node3&#45;&gt;Node4</title>
<g id="a_edge3_Node000003_Node000004"><a xlink:title=" ">
<path fill="none" stroke="#63b8ff" d="M1004.22,-435.75C1018.1,-424.86 1036.01,-410.8 1047.5,-401.78"/>
<polygon fill="#63b8ff" stroke="#63b8ff" points="1002.29,-432.82 996.58,-441.75 1006.61,-438.33 1002.29,-432.82"/>
</a>
</g>
</g>
<!-- Node3&#45;&gt;Node5 -->
<g id="edge4_Node000003_Node000005" class="edge">
<title>Node3&#45;&gt;Node5</title>
<g id="a_edge4_Node000003_Node000005"><a xlink:title=" ">
<path fill="none" stroke="#63b8ff" d="M1031.26,-442.93C1079.68,-434 1157.11,-419.66 1224,-407 1232.74,-405.35 1242.06,-403.56 1251.03,-401.84"/>
<polygon fill="#63b8ff" stroke="#63b8ff" points="1030.89,-439.44 1021.69,-444.69 1032.16,-446.32 1030.89,-439.44"/>
</a>
</g>
</g>
<!-- Node6 -->
<g id="Node000006" class="node">
<title>Node6</title>
<g id="a_Node000006"><a xlink:href="_h_d_f5_recording_data_8cpp.html" target="_top" xlink:title=" ">
<polygon fill="white" stroke="#666666" points="917.62,-407 782.38,-407 782.38,-376.5 917.62,-376.5 917.62,-407"/>
<text text-anchor="start" x="790.38" y="-393.5" font-family="Helvetica,sans-Serif" font-size="10.00">src/io/hdf5/HDF5Recording</text>
<text text-anchor="middle" x="850" y="-382.25" font-family="Helvetica,sans-Serif" font-size="10.00">Data.cpp</text>
</a>
</g>
</g>
<!-- Node3&#45;&gt;Node6 -->
<g id="edge5_Node000003_Node000006" class="edge">
<title>Node3&#45;&gt;Node6</title>
<g id="a_edge5_Node000003_Node000006"><a xlink:title=" ">
<path fill="none" stroke="#63b8ff" d="M952.85,-437.94C932.04,-428.8 904.71,-416.79 883.45,-407.44"/>
<polygon fill="#63b8ff" stroke="#63b8ff" points="951.41,-441.13 961.97,-441.95 954.22,-434.72 951.41,-441.13"/>
</a>
</g>
</g>
<!-- Node7 -->
<g id="Node000007" class="node">
<title>Node7</title>
<g id="a_Node000007"><a xlink:href="_n_w_b_file_8cpp.html" target="_top" xlink:title=" ">
<polygon fill="white" stroke="#666666" points="1290,-19.25 1178,-19.25 1178,0 1290,0 1290,-19.25"/>
<text text-anchor="middle" x="1234" y="-5.75" font-family="Helvetica,sans-Serif" font-size="10.00">src/nwb/NWBFile.cpp</text>
</a>
</g>
</g>
<!-- Node3&#45;&gt;Node7 -->
<g id="edge6_Node000003_Node000007" class="edge">
<title>Node3&#45;&gt;Node7</title>
<g id="a_edge6_Node000003_Node000007"><a xlink:title=" ">
<path fill="none" stroke="#63b8ff" d="M984,-431.24C984,-407.41 984,-366.78 984,-331.88 984,-331.88 984,-331.88 984,-269 984,-232.13 985.69,-220.8 1003,-188.25 1012.45,-170.48 1109.48,-66.75 1126,-55.25 1149.48,-38.91 1179.86,-27.03 1202.41,-19.66"/>
<polygon fill="#63b8ff" stroke="#63b8ff" points="980.5,-431.1 984,-441.1 987.5,-431.1 980.5,-431.1"/>
</a>
</g>
</g>
<!-- Node3&#45;&gt;Node8 -->
<g id="edge7_Node000003_Node000008" class="edge">
<title>Node3&#45;&gt;Node8</title>
<g id="a_edge7_Node000003_Node000008"><a xlink:title=" ">
<path fill="none" stroke="#63b8ff" d="M936.74,-448.74C876.92,-444.06 778.65,-432.63 754,-407 686.01,-336.32 690.32,-279.99 725,-188.25 743.45,-139.45 792.62,-97.88 815.71,-80.37"/>
<polygon fill="#63b8ff" stroke="#63b8ff" points="936.42,-452.23 946.65,-449.48 936.94,-445.25 936.42,-452.23"/>
</a>
</g>
</g>
<!-- Node3&#45;&gt;Node9 -->
<g id="edge9_Node000003_Node000009" class="edge">
<title>Node3&#45;&gt;Node9</title>
<g id="a_edge9_Node000003_Node000009"><a xlink:title=" ">
<path fill="none" stroke="#63b8ff" d="M1031.41,-451.58C1163.3,-450.95 1527.18,-445.69 1563,-407 1579.85,-388.8 1570.04,-356.23 1563.86,-340.65"/>
<polygon fill="#63b8ff" stroke="#63b8ff" points="1031.62,-448.07 1021.63,-451.61 1031.65,-455.07 1031.62,-448.07"/>
</a>
</g>
</g>
<!-- Node3&#45;&gt;Node10 -->
<g id="edge10_Node000003_Node000010" class="edge">
<title>Node3&#45;&gt;Node10</title>
<g id="a_edge10_Node000003_Node000010"><a xlink:title=" ">
<path fill="none" stroke="#63b8ff" d="M1031.61,-446.16C1104.04,-437.82 1246.26,-421.39 1367,-407 1382.04,-405.21 1398.16,-403.26 1413.48,-401.4"/>
<polygon fill="#63b8ff" stroke="#63b8ff" points="1031.22,-442.68 1021.68,-447.3 1032.02,-449.63 1031.22,-442.68"/>
</a>
</g>
</g>
<!-- Node3&#45;&gt;Node13 -->
<g id="edge54_Node000003_Node000013" class="edge">
<title>Node3&#45;&gt;Node13</title>
<g id="a_edge54_Node000003_Node000013"><a xlink:title=" ">
<path fill="none" stroke="#63b8ff" d="M973.64,-433.09C952.23,-394.81 903.82,-308.23 888.06,-280.05"/>
<polygon fill="#63b8ff" stroke="#63b8ff" points="970.45,-434.57 978.39,-441.59 976.56,-431.16 970.45,-434.57"/>
</a>
</g>
</g>
<!-- Node15 -->
<g id="Node000015" class="node">
<title>Node15</title>
<g id="a_Node000015"><a xlink:href="_time_series_8cpp.html" target="_top" xlink:title=" ">
<polygon fill="white" stroke="#666666" points="879.88,-213.12 734.12,-213.12 734.12,-193.88 879.88,-193.88 879.88,-213.12"/>
<text text-anchor="middle" x="807" y="-199.62" font-family="Helvetica,sans-Serif" font-size="10.00">src/nwb/base/TimeSeries.cpp</text>
</a>
</g>
</g>
<!-- Node3&#45;&gt;Node15 -->
<g id="edge53_Node000003_Node000015" class="edge">
<title>Node3&#45;&gt;Node15</title>
<g id="a_edge53_Node000003_Node000015"><a xlink:title=" ">
<path fill="none" stroke="#63b8ff" d="M936.64,-448.38C880.85,-443.47 793.2,-431.91 773,-407 724.51,-347.18 782.05,-244.14 801.22,-213.41"/>
<polygon fill="#63b8ff" stroke="#63b8ff" points="936.26,-451.87 946.51,-449.21 936.84,-444.89 936.26,-451.87"/>
</a>
</g>
</g>
<!-- Node3&#45;&gt;Node16 -->
<g id="edge57_Node000003_Node000016" class="edge">
<title>Node3&#45;&gt;Node16</title>
<g id="a_edge57_Node000003_Node000016"><a xlink:title=" ">
<path fill="none" stroke="#63b8ff" d="M1031.43,-448.83C1060.69,-444.35 1096.11,-433.39 1115,-407 1136.77,-376.58 1098.8,-260.33 1084.29,-219.11"/>
<polygon fill="#63b8ff" stroke="#63b8ff" points="1031.13,-445.33 1021.66,-450.09 1032.03,-452.28 1031.13,-445.33"/>
</a>
</g>
</g>
<!-- Node17 -->
<g id="Node000017" class="node">
<title>Node17</title>
<g id="a_Node000017"><a xlink:href="_electrical_series_8cpp.html" target="_top" xlink:title=" ">
<polygon fill="white" stroke="#666666" points="376.88,-85.75 243.12,-85.75 243.12,-55.25 376.88,-55.25 376.88,-85.75"/>
<text text-anchor="start" x="251.12" y="-72.25" font-family="Helvetica,sans-Serif" font-size="10.00">src/nwb/ecephys/Electrical</text>
<text text-anchor="middle" x="310" y="-61" font-family="Helvetica,sans-Serif" font-size="10.00">Series.cpp</text>
</a>
</g>
</g>
<!-- Node3&#45;&gt;Node17 -->
<g id="edge56_Node000003_Node000017" class="edge">
<title>Node3&#45;&gt;Node17</title>
<g id="a_edge56_Node000003_Node000017"><a xlink:title=" ">
<path fill="none" stroke="#63b8ff" d="M936.65,-451.02C794.73,-448.86 374.51,-439.78 242,-407 163.39,-387.55 76,-412.86 76,-331.88 76,-331.88 76,-331.88 76,-202.5 76,-125.56 173.5,-93.37 242.63,-80.21"/>
<polygon fill="#63b8ff" stroke="#63b8ff" points="936.38,-454.52 946.43,-451.17 936.48,-447.52 936.38,-454.52"/>
</a>
</g>
</g>
<!-- Node3&#45;&gt;Node18 -->
<g id="edge58_Node000003_Node000018" class="edge">
<title>Node3&#45;&gt;Node18</title>
<g id="a_edge58_Node000003_Node000018"><a xlink:title=" ">
<path fill="none" stroke="#63b8ff" d="M1025.16,-439.36C1054.88,-430.46 1095.95,-418.1 1132,-407 1175.19,-393.7 1185.7,-389.44 1229,-376.5 1285.21,-359.7 1305.44,-370.26 1356,-340.5 1395.02,-317.54 1424.77,-297.88 1411,-254.75 1397.61,-212.82 1363.06,-173.06 1343.01,-152.51"/>
<polygon fill="#63b8ff" stroke="#63b8ff" points="1024.39,-435.93 1015.81,-442.15 1026.39,-442.64 1024.39,-435.93"/>
</a>
</g>
</g>
<!-- Node3&#45;&gt;Node20 -->
<g id="edge55_Node000003_Node000020" class="edge">
<title>Node3&#45;&gt;Node20</title>
<g id="a_edge55_Node000003_Node000020"><a xlink:title=" ">
<path fill="none" stroke="#63b8ff" d="M1031.34,-450.17C1164.09,-445.82 1533.36,-431.6 1582,-407 1635.97,-379.7 1665.32,-305.67 1674.13,-279.95"/>
<polygon fill="#63b8ff" stroke="#63b8ff" points="1031.38,-446.67 1021.5,-450.49 1031.6,-453.67 1031.38,-446.67"/>
</a>
</g>
</g>
<!-- Node23 -->
<g id="Node000023" class="node">
<title>Node23</title>
<g id="a_Node000023"><a xlink:href="_electrode_group_8cpp.html" target="_top" xlink:title=" ">
<polygon fill="white" stroke="#666666" points="1573.75,-146.62 1418.25,-146.62 1418.25,-127.38 1573.75,-127.38 1573.75,-146.62"/>
<text text-anchor="middle" x="1496" y="-133.12" font-family="Helvetica,sans-Serif" font-size="10.00">src/nwb/file/ElectrodeGroup.cpp</text>
</a>
</g>
</g>
<!-- Node3&#45;&gt;Node23 -->
<g id="edge59_Node000003_Node000023" class="edge">
<title>Node3&#45;&gt;Node23</title>
<g id="a_edge59_Node000003_Node000023"><a xlink:title=" ">
<path fill="none" stroke="#63b8ff" d="M1025.16,-439.36C1054.88,-430.46 1095.95,-418.1 1132,-407 1175.19,-393.7 1185.7,-389.44 1229,-376.5 1285.21,-359.7 1305.44,-370.26 1356,-340.5 1436.3,-293.24 1481.36,-179.63 1492.97,-146.94"/>
<polygon fill="#63b8ff" stroke="#63b8ff" points="1024.39,-435.93 1015.81,-442.15 1026.39,-442.64 1024.39,-435.93"/>
</a>
</g>
</g>
<!-- Node3&#45;&gt;Node25 -->
<g id="edge62_Node000003_Node000025" class="edge">
<title>Node3&#45;&gt;Node25</title>
<g id="a_edge62_Node000003_Node000025"><a xlink:title=" ">
<path fill="none" stroke="#63b8ff" d="M936.31,-449.9C830.97,-444.63 572.18,-423.54 375,-340.5 333.13,-322.87 310.78,-325.12 289,-285.25 277.34,-263.89 290.02,-235.79 300.13,-218.99"/>
<polygon fill="#63b8ff" stroke="#63b8ff" points="936.13,-453.4 946.28,-450.37 936.46,-446.41 936.13,-453.4"/>
</a>
</g>
</g>
<!-- Node27 -->
<g id="Node000027" class="node">
<title>Node27</title>
<g id="a_Node000027"><a xlink:href="_electrode_table_8cpp.html" target="_top" xlink:title=" ">
<polygon fill="white" stroke="#666666" points="170.25,-80.12 17.75,-80.12 17.75,-60.88 170.25,-60.88 170.25,-80.12"/>
<text text-anchor="middle" x="94" y="-66.62" font-family="Helvetica,sans-Serif" font-size="10.00">src/nwb/file/ElectrodeTable.cpp</text>
</a>
</g>
</g>
<!-- Node3&#45;&gt;Node27 -->
<g id="edge60_Node000003_Node000027" class="edge">
<title>Node3&#45;&gt;Node27</title>
<g id="a_edge60_Node000003_Node000027"><a xlink:title=" ">
<path fill="none" stroke="#63b8ff" d="M936.51,-451.69C762.22,-451.59 164.14,-448.24 90,-407 54.51,-387.26 38,-372.48 38,-331.88 38,-331.88 38,-331.88 38,-202.5 38,-153.03 72.18,-100.9 87.13,-80.46"/>
<polygon fill="#63b8ff" stroke="#63b8ff" points="936.32,-455.19 946.32,-451.69 936.32,-448.19 936.32,-455.19"/>
</a>
</g>
</g>
<!-- Node28 -->
<g id="Node000028" class="node">
<title>Node28</title>
<g id="a_Node000028"><a xlink:href="_dynamic_table_8cpp.html" target="_top" xlink:title=" ">
<polygon fill="white" stroke="#666666" points="512,-152.25 412,-152.25 412,-121.75 512,-121.75 512,-152.25"/>
<text text-anchor="start" x="420" y="-138.75" font-family="Helvetica,sans-Serif" font-size="10.00">src/nwb/hdmf/table</text>
<text text-anchor="middle" x="462" y="-127.5" font-family="Helvetica,sans-Serif" font-size="10.00">/DynamicTable.cpp</text>
</a>
</g>
</g>
<!-- Node3&#45;&gt;Node28 -->
<g id="edge61_Node000003_Node000028" class="edge">
<title>Node3&#45;&gt;Node28</title>
<g id="a_edge61_Node000003_Node000028"><a xlink:title=" ">
<path fill="none" stroke="#63b8ff" d="M936.72,-448.48C866.96,-443.13 740.56,-430.46 702,-407 598.87,-344.25 629.21,-270.66 541,-188.25 525.92,-174.16 506.35,-161.68 490.47,-152.68"/>
<polygon fill="#63b8ff" stroke="#63b8ff" points="936.08,-451.94 946.31,-449.2 936.6,-444.96 936.08,-451.94"/>
</a>
</g>
</g>
<!-- Node3&#45;&gt;Node33 -->
<g id="edge63_Node000003_Node000033" class="edge">
<title>Node3&#45;&gt;Node33</title>
<g id="a_edge63_Node000003_Node000033"><a xlink:title=" ">
<path fill="none" stroke="#63b8ff" d="M936.55,-450.45C790.22,-446.57 352.35,-432.9 294,-407 233.3,-380.05 183.48,-314.65 163.46,-285.47"/>
<polygon fill="#63b8ff" stroke="#63b8ff" points="936.18,-453.94 946.27,-450.71 936.36,-446.95 936.18,-453.94"/>
</a>
</g>
</g>
<!-- Node8&#45;&gt;Node7 -->
<g id="edge8_Node000008_Node000007" class="edge">
<title>Node8&#45;&gt;Node7</title>
<g id="a_edge8_Node000008_Node000007"><a xlink:title=" ">
<path fill="none" stroke="#63b8ff" d="M895.73,-59.68C974.75,-48.22 1103.95,-29.48 1177.7,-18.79"/>
<polygon fill="#63b8ff" stroke="#63b8ff" points="895.34,-56.2 885.95,-61.1 896.35,-63.13 895.34,-56.2"/>
</a>
</g>
</g>
<!-- Node10&#45;&gt;Node9 -->
<g id="edge11_Node000010_Node000009" class="edge">
<title>Node10&#45;&gt;Node9</title>
<g id="a_edge11_Node000010_Node000009"><a xlink:title=" ">
<path fill="none" stroke="#63b8ff" d="M1504.49,-374.88C1518.55,-363.98 1536.7,-349.92 1548.35,-340.9"/>
<polygon fill="#63b8ff" stroke="#63b8ff" points="1502.5,-371.99 1496.74,-380.88 1506.79,-377.52 1502.5,-371.99"/>
</a>
</g>
</g>
<!-- Node11 -->
<g id="Node000011" class="node">
<title>Node11</title>
<g id="a_Node000011"><a xlink:href="_container_8hpp.html" target="_top" xlink:title=" ">
<polygon fill="white" stroke="#666666" points="1347.12,-340.5 1184.88,-340.5 1184.88,-321.25 1347.12,-321.25 1347.12,-340.5"/>
<text text-anchor="middle" x="1266" y="-327" font-family="Helvetica,sans-Serif" font-size="10.00">src/nwb/hdmf/base/Container.hpp</text>
</a>
</g>
</g>
<!-- Node10&#45;&gt;Node11 -->
<g id="edge12_Node000010_Node000011" class="edge">
<title>Node10&#45;&gt;Node11</title>
<g id="a_edge12_Node000010_Node000011"><a xlink:title=" ">
<path fill="none" stroke="#63b8ff" d="M1439.54,-378.74C1398.08,-367.55 1337.16,-351.09 1299.62,-340.96"/>
<polygon fill="#63b8ff" stroke="#63b8ff" points="1438.39,-382.06 1448.95,-381.29 1440.21,-375.3 1438.39,-382.06"/>
</a>
</g>
</g>
<!-- Node29 -->
<g id="Node000029" class="node">
<title>Node29</title>
<g id="a_Node000029"><a xlink:href="_data_8hpp.html" target="_top" xlink:title=" ">
<polygon fill="white" stroke="#666666" points="526,-340.5 384,-340.5 384,-321.25 526,-321.25 526,-340.5"/>
<text text-anchor="middle" x="455" y="-327" font-family="Helvetica,sans-Serif" font-size="10.00">src/nwb/hdmf/base/Data.hpp</text>
</a>
</g>
</g>
<!-- Node10&#45;&gt;Node29 -->
<g id="edge43_Node000010_Node000029" class="edge">
<title>Node10&#45;&gt;Node29</title>
<g id="a_edge43_Node000010_Node000029"><a xlink:title=" ">
<path fill="none" stroke="#63b8ff" d="M1404.6,-380.3C1392.04,-378.87 1379.18,-377.54 1367,-376.5 1054.46,-349.86 680.2,-337.74 526.36,-333.61"/>
<polygon fill="#63b8ff" stroke="#63b8ff" points="1404.19,-383.77 1414.53,-381.45 1405,-376.82 1404.19,-383.77"/>
</a>
</g>
</g>
<!-- Node11&#45;&gt;Node8 -->
<g id="edge13_Node000011_Node000008" class="edge">
<title>Node11&#45;&gt;Node8</title>
<g id="a_edge13_Node000011_Node000008"><a xlink:title=" ">
<path fill="none" stroke="#63b8ff" d="M1247.15,-313.28C1238.45,-305.21 1228.25,-295.14 1220,-285.25 1186.75,-245.41 1193.57,-222.97 1155,-188.25 1077.5,-118.47 955.41,-89.69 884.39,-78.35"/>
<polygon fill="#63b8ff" stroke="#63b8ff" points="1244.64,-315.73 1254.4,-319.85 1249.34,-310.54 1244.64,-315.73"/>
</a>
</g>
</g>
<!-- Node12 -->
<g id="Node000012" class="node">
<title>Node12</title>
<g id="a_Node000012"><a xlink:href="_recording_containers_8cpp.html" target="_top" xlink:title=" ">
<polygon fill="white" stroke="#666666" points="1315.88,-80.12 1152.12,-80.12 1152.12,-60.88 1315.88,-60.88 1315.88,-80.12"/>
<text text-anchor="middle" x="1234" y="-66.62" font-family="Helvetica,sans-Serif" font-size="10.00">src/nwb/RecordingContainers.cpp</text>
</a>
</g>
</g>
<!-- Node11&#45;&gt;Node12 -->
<g id="edge14_Node000011_Node000012" class="edge">
<title>Node11&#45;&gt;Node12</title>
<g id="a_edge14_Node000011_Node000012"><a xlink:title=" ">
<path fill="none" stroke="#63b8ff" d="M1247.92,-312.47C1241.25,-304.82 1234.47,-295.31 1231,-285.25 1204.95,-209.83 1224.77,-110.33 1231.79,-80.39"/>
<polygon fill="#63b8ff" stroke="#63b8ff" points="1245.33,-314.81 1254.74,-319.67 1250.41,-310 1245.33,-314.81"/>
</a>
</g>
</g>
<!-- Node11&#45;&gt;Node13 -->
<g id="edge15_Node000011_Node000013" class="edge">
<title>Node11&#45;&gt;Node13</title>
<g id="a_edge15_Node000011_Node000013"><a xlink:title=" ">
<path fill="none" stroke="#63b8ff" d="M1195.66,-319.06C1122.87,-307.87 1010.42,-290.59 942.07,-280.08"/>
<polygon fill="#63b8ff" stroke="#63b8ff" points="1195.08,-322.51 1205.5,-320.57 1196.15,-315.6 1195.08,-322.51"/>
</a>
</g>
</g>
<!-- Node11&#45;&gt;Node20 -->
<g id="edge29_Node000011_Node000020" class="edge">
<title>Node11&#45;&gt;Node20</title>
<g id="a_edge29_Node000011_Node000020"><a xlink:title=" ">
<path fill="none" stroke="#63b8ff" d="M1340.51,-319.2C1418.6,-308.01 1539.96,-290.63 1613.61,-280.08"/>
<polygon fill="#63b8ff" stroke="#63b8ff" points="1340.22,-315.71 1330.82,-320.59 1341.21,-322.64 1340.22,-315.71"/>
</a>
</g>
</g>
<!-- Node22 -->
<g id="Node000022" class="node">
<title>Node22</title>
<g id="a_Node000022"><a xlink:href="_electrode_group_8hpp.html" target="_top" xlink:title=" ">
<polygon fill="white" stroke="#666666" points="1670.75,-213.12 1515.25,-213.12 1515.25,-193.88 1670.75,-193.88 1670.75,-213.12"/>
<text text-anchor="middle" x="1593" y="-199.62" font-family="Helvetica,sans-Serif" font-size="10.00">src/nwb/file/ElectrodeGroup.hpp</text>
</a>
</g>
</g>
<!-- Node11&#45;&gt;Node22 -->
<g id="edge35_Node000011_Node000022" class="edge">
<title>Node11&#45;&gt;Node22</title>
<g id="a_edge35_Node000011_Node000022"><a xlink:title=" ">
<path fill="none" stroke="#63b8ff" d="M1310.48,-317.67C1339.41,-309.38 1377.79,-297.68 1411,-285.25 1472.03,-262.41 1541.86,-229.43 1574.44,-213.62"/>
<polygon fill="#63b8ff" stroke="#63b8ff" points="1309.61,-314.28 1300.95,-320.38 1311.52,-321.02 1309.61,-314.28"/>
</a>
</g>
</g>
<!-- Node24 -->
<g id="Node000024" class="node">
<title>Node24</title>
<g id="a_Node000024"><a xlink:href="_container_8cpp.html" target="_top" xlink:title=" ">
<polygon fill="white" stroke="#666666" points="1402.12,-279.62 1239.88,-279.62 1239.88,-260.38 1402.12,-260.38 1402.12,-279.62"/>
<text text-anchor="middle" x="1321" y="-266.12" font-family="Helvetica,sans-Serif" font-size="10.00">src/nwb/hdmf/base/Container.cpp</text>
</a>
</g>
</g>
<!-- Node11&#45;&gt;Node24 -->
<g id="edge36_Node000011_Node000024" class="edge">
<title>Node11&#45;&gt;Node24</title>
<g id="a_edge36_Node000011_Node000024"><a xlink:title=" ">
<path fill="none" stroke="#63b8ff" d="M1282.02,-312.73C1292.01,-302.04 1304.46,-288.7 1312.57,-280.03"/>
<polygon fill="#63b8ff" stroke="#63b8ff" points="1279.66,-310.13 1275.39,-319.83 1284.77,-314.91 1279.66,-310.13"/>
</a>
</g>
</g>
<!-- Node11&#45;&gt;Node25 -->
<g id="edge37_Node000011_Node000025" class="edge">
<title>Node11&#45;&gt;Node25</title>
<g id="a_edge37_Node000011_Node000025"><a xlink:title=" ">
<path fill="none" stroke="#63b8ff" d="M1173.29,-322.83C1079.29,-315.25 929.74,-301.99 801,-285.25 639.3,-264.22 449.13,-230.3 360.37,-213.94"/>
<polygon fill="#63b8ff" stroke="#63b8ff" points="1173,-326.31 1183.24,-323.62 1173.56,-319.34 1173,-326.31"/>
</a>
</g>
</g>
<!-- Node13&#45;&gt;Node8 -->
<g id="edge16_Node000013_Node000008" class="edge">
<title>Node13&#45;&gt;Node8</title>
<g id="a_edge16_Node000013_Node000008"><a xlink:title=" ">
<path fill="none" stroke="#63b8ff" d="M889.65,-249.22C894.17,-232.26 897.89,-207.57 889,-188.25 878.73,-165.91 859.78,-173.25 847,-152.25 832.78,-128.87 829.2,-95.72 828.3,-80.17"/>
<polygon fill="#63b8ff" stroke="#63b8ff" points="886.37,-247.98 886.82,-258.57 893.07,-250.01 886.37,-247.98"/>
</a>
</g>
</g>
<!-- Node14 -->
<g id="Node000014" class="node">
<title>Node14</title>
<g id="a_Node000014"><a xlink:href="_recording_containers_8hpp.html" target="_top" xlink:title=" ">
<polygon fill="white" stroke="#666666" points="1019.88,-146.62 856.12,-146.62 856.12,-127.38 1019.88,-127.38 1019.88,-146.62"/>
<text text-anchor="middle" x="938" y="-133.12" font-family="Helvetica,sans-Serif" font-size="10.00">src/nwb/RecordingContainers.hpp</text>
</a>
</g>
</g>
<!-- Node13&#45;&gt;Node14 -->
<g id="edge17_Node000013_Node000014" class="edge">
<title>Node13&#45;&gt;Node14</title>
<g id="a_edge17_Node000013_Node000014"><a xlink:title=" ">
<path fill="none" stroke="#63b8ff" d="M899.92,-251.45C907.77,-242.36 916.56,-230.68 922,-218.75 933.15,-194.3 936.55,-162.21 937.57,-146.89"/>
<polygon fill="#63b8ff" stroke="#63b8ff" points="897.4,-249.01 893.27,-258.76 902.58,-253.72 897.4,-249.01"/>
</a>
</g>
</g>
<!-- Node13&#45;&gt;Node15 -->
<g id="edge20_Node000013_Node000015" class="edge">
<title>Node13&#45;&gt;Node15</title>
<g id="a_edge20_Node000013_Node000015"><a xlink:title=" ">
<path fill="none" stroke="#63b8ff" d="M864.05,-252.92C849.33,-240.42 829.46,-223.56 817.48,-213.39"/>
<polygon fill="#63b8ff" stroke="#63b8ff" points="861.39,-255.25 871.28,-259.05 865.92,-249.91 861.39,-255.25"/>
</a>
</g>
</g>
<!-- Node13&#45;&gt;Node16 -->
<g id="edge21_Node000013_Node000016" class="edge">
<title>Node13&#45;&gt;Node16</title>
<g id="a_edge21_Node000013_Node000016"><a xlink:title=" ">
<path fill="none" stroke="#63b8ff" d="M921.52,-256.32C953.98,-245.64 1000.44,-230.35 1034.49,-219.15"/>
<polygon fill="#63b8ff" stroke="#63b8ff" points="920.51,-252.97 912.1,-259.42 922.7,-259.62 920.51,-252.97"/>
</a>
</g>
</g>
<!-- Node14&#45;&gt;Node8 -->
<g id="edge18_Node000014_Node000008" class="edge">
<title>Node14&#45;&gt;Node8</title>
<g id="a_edge18_Node000014_Node000008"><a xlink:title=" ">
<path fill="none" stroke="#63b8ff" d="M913.01,-121.35C891.65,-108.82 861.58,-91.19 843.52,-80.6"/>
<polygon fill="#63b8ff" stroke="#63b8ff" points="911,-124.23 921.4,-126.27 914.54,-118.19 911,-124.23"/>
</a>
</g>
</g>
<!-- Node14&#45;&gt;Node12 -->
<g id="edge19_Node000014_Node000012" class="edge">
<title>Node14&#45;&gt;Node12</title>
<g id="a_edge19_Node000014_Node000012"><a xlink:title=" ">
<path fill="none" stroke="#63b8ff" d="M990.85,-124.48C1048.52,-111.92 1139.65,-92.06 1192.43,-80.56"/>
<polygon fill="#63b8ff" stroke="#63b8ff" points="990.29,-121.02 981.26,-126.57 991.78,-127.86 990.29,-121.02"/>
</a>
</g>
</g>
<!-- Node16&#45;&gt;Node7 -->
<g id="edge22_Node000016_Node000007" class="edge">
<title>Node16&#45;&gt;Node7</title>
<g id="a_edge22_Node000016_Node000007"><a xlink:title=" ">
<path fill="none" stroke="#63b8ff" d="M1089.6,-177.51C1107.2,-136.12 1140.73,-57.62 1143,-55.25 1159.41,-38.07 1183.82,-26.6 1203.22,-19.6"/>
<polygon fill="#63b8ff" stroke="#63b8ff" points="1086.48,-175.91 1085.79,-186.48 1092.92,-178.64 1086.48,-175.91"/>
</a>
</g>
</g>
<!-- Node16&#45;&gt;Node12 -->
<g id="edge23_Node000016_Node000012" class="edge">
<title>Node16&#45;&gt;Node12</title>
<g id="a_edge23_Node000016_Node000012"><a xlink:title=" ">
<path fill="none" stroke="#63b8ff" d="M1104.78,-180.71C1139.28,-151.55 1198.93,-101.14 1223.23,-80.6"/>
<polygon fill="#63b8ff" stroke="#63b8ff" points="1102.71,-177.87 1097.34,-187 1107.23,-183.22 1102.71,-177.87"/>
</a>
</g>
</g>
<!-- Node16&#45;&gt;Node17 -->
<g id="edge24_Node000016_Node000017" class="edge">
<title>Node16&#45;&gt;Node17</title>
<g id="a_edge24_Node000016_Node000017"><a xlink:title=" ">
<path fill="none" stroke="#63b8ff" d="M1000.75,-189.17C849.47,-163.4 519.3,-107.15 377.22,-82.95"/>
<polygon fill="#63b8ff" stroke="#63b8ff" points="999.83,-192.56 1010.27,-190.79 1001,-185.66 999.83,-192.56"/>
</a>
</g>
</g>
<!-- Node16&#45;&gt;Node18 -->
<g id="edge25_Node000016_Node000018" class="edge">
<title>Node16&#45;&gt;Node18</title>
<g id="a_edge25_Node000016_Node000018"><a xlink:title=" ">
<path fill="none" stroke="#63b8ff" d="M1146.83,-184.93C1185.89,-174.81 1234.43,-162.24 1271.43,-152.65"/>
<polygon fill="#63b8ff" stroke="#63b8ff" points="1146.08,-181.51 1137.28,-187.4 1147.84,-188.28 1146.08,-181.51"/>
</a>
</g>
</g>
<!-- Node18&#45;&gt;Node7 -->
<g id="edge26_Node000018_Node000007" class="edge">
<title>Node18&#45;&gt;Node7</title>
<g id="a_edge26_Node000018_Node000007"><a xlink:title=" ">
<path fill="none" stroke="#63b8ff" d="M1333.45,-110.25C1335.59,-93.3 1335.45,-71.34 1325,-55.25 1313.31,-37.25 1292.09,-26.27 1273.09,-19.71"/>
<polygon fill="#63b8ff" stroke="#63b8ff" points="1330.01,-109.63 1331.85,-120.06 1336.92,-110.76 1330.01,-109.63"/>
</a>
</g>
</g>
<!-- Node18&#45;&gt;Node12 -->
<g id="edge27_Node000018_Node000012" class="edge">
<title>Node18&#45;&gt;Node12</title>
<g id="a_edge27_Node000018_Node000012"><a xlink:title=" ">
<path fill="none" stroke="#63b8ff" d="M1297.61,-115.15C1280.55,-103.44 1260.15,-89.44 1247.13,-80.51"/>
<polygon fill="#63b8ff" stroke="#63b8ff" points="1295.2,-117.74 1305.42,-120.51 1299.16,-111.96 1295.2,-117.74"/>
</a>
</g>
</g>
<!-- Node19 -->
<g id="Node000019" class="node">
<title>Node19</title>
<g id="a_Node000019"><a xlink:href="_spike_event_series_8cpp.html" target="_top" xlink:title=" ">
<polygon fill="white" stroke="#666666" points="1515.75,-85.75 1372.25,-85.75 1372.25,-55.25 1515.75,-55.25 1515.75,-85.75"/>
<text text-anchor="start" x="1380.25" y="-72.25" font-family="Helvetica,sans-Serif" font-size="10.00">src/nwb/ecephys/SpikeEvent</text>
<text text-anchor="middle" x="1444" y="-61" font-family="Helvetica,sans-Serif" font-size="10.00">Series.cpp</text>
</a>
</g>
</g>
<!-- Node18&#45;&gt;Node19 -->
<g id="edge28_Node000018_Node000019" class="edge">
<title>Node18&#45;&gt;Node19</title>
<g id="a_edge28_Node000018_Node000019"><a xlink:title=" ">
<path fill="none" stroke="#63b8ff" d="M1364.14,-115.91C1381.5,-106.25 1401.93,-94.89 1417.78,-86.08"/>
<polygon fill="#63b8ff" stroke="#63b8ff" points="1362.68,-112.71 1355.64,-120.63 1366.09,-118.83 1362.68,-112.71"/>
</a>
</g>
</g>
<!-- Node20&#45;&gt;Node7 -->
<g id="edge30_Node000020_Node000007" class="edge">
<title>Node20&#45;&gt;Node7</title>
<g id="a_edge30_Node000020_Node000007"><a xlink:title=" ">
<path fill="none" stroke="#63b8ff" d="M1752.46,-257.62C1802.62,-246.46 1855.33,-225.51 1832,-188.25 1760.16,-73.52 1687.54,-94.53 1558,-55.25 1466.85,-27.61 1356.03,-17.03 1290.47,-13.03"/>
<polygon fill="#63b8ff" stroke="#63b8ff" points="1752.04,-254.13 1742.97,-259.61 1753.47,-260.99 1752.04,-254.13"/>
</a>
</g>
</g>
<!-- Node21 -->
<g id="Node000021" class="node">
<title>Node21</title>
<g id="a_Node000021"><a xlink:href="_device_8cpp.html" target="_top" xlink:title=" ">
<polygon fill="white" stroke="#666666" points="1823.25,-213.12 1688.75,-213.12 1688.75,-193.88 1823.25,-193.88 1823.25,-213.12"/>
<text text-anchor="middle" x="1756" y="-199.62" font-family="Helvetica,sans-Serif" font-size="10.00">src/nwb/device/Device.cpp</text>
</a>
</g>
</g>
<!-- Node20&#45;&gt;Node21 -->
<g id="edge31_Node000020_Node000021" class="edge">
<title>Node20&#45;&gt;Node21</title>
<g id="a_edge31_Node000020_Node000021"><a xlink:title=" ">
<path fill="none" stroke="#63b8ff" d="M1696.65,-252.96C1711.85,-240.55 1732.36,-223.8 1744.85,-213.6"/>
<polygon fill="#63b8ff" stroke="#63b8ff" points="1694.69,-250.04 1689.16,-259.07 1699.12,-255.46 1694.69,-250.04"/>
</a>
</g>
</g>
<!-- Node20&#45;&gt;Node22 -->
<g id="edge32_Node000020_Node000022" class="edge">
<title>Node20&#45;&gt;Node22</title>
<g id="a_edge32_Node000020_Node000022"><a xlink:title=" ">
<path fill="none" stroke="#63b8ff" d="M1656.57,-253.31C1640.36,-240.86 1618.27,-223.9 1604.85,-213.6"/>
<polygon fill="#63b8ff" stroke="#63b8ff" points="1654.06,-255.8 1664.12,-259.11 1658.32,-250.24 1654.06,-255.8"/>
</a>
</g>
</g>
<!-- Node22&#45;&gt;Node7 -->
<g id="edge33_Node000022_Node000007" class="edge">
<title>Node22&#45;&gt;Node7</title>
<g id="a_edge33_Node000022_Node000007"><a xlink:title=" ">
<path fill="none" stroke="#63b8ff" d="M1593.72,-182.32C1593.59,-165.43 1591.63,-141.07 1583,-121.75 1567,-85.94 1559.36,-74.15 1525,-55.25 1485.65,-33.6 1363.17,-20.65 1290.26,-14.65"/>
<polygon fill="#63b8ff" stroke="#63b8ff" points="1590.23,-182 1593.57,-192.05 1597.23,-182.11 1590.23,-182"/>
</a>
</g>
</g>
<!-- Node22&#45;&gt;Node23 -->
<g id="edge34_Node000022_Node000023" class="edge">
<title>Node22&#45;&gt;Node23</title>
<g id="a_edge34_Node000022_Node000023"><a xlink:title=" ">
<path fill="none" stroke="#63b8ff" d="M1569.93,-187.16C1551.16,-174.68 1525.32,-157.5 1509.69,-147.1"/>
<polygon fill="#63b8ff" stroke="#63b8ff" points="1567.99,-190.07 1578.25,-192.69 1571.86,-184.24 1567.99,-190.07"/>
</a>
</g>
</g>
<!-- Node26 -->
<g id="Node000026" class="node">
<title>Node26</title>
<g id="a_Node000026"><a xlink:href="_electrode_table_8hpp.html" target="_top" xlink:title=" ">
<polygon fill="white" stroke="#666666" points="386.25,-146.62 233.75,-146.62 233.75,-127.38 386.25,-127.38 386.25,-146.62"/>
<text text-anchor="middle" x="310" y="-133.12" font-family="Helvetica,sans-Serif" font-size="10.00">src/nwb/file/ElectrodeTable.hpp</text>
</a>
</g>
</g>
<!-- Node25&#45;&gt;Node26 -->
<g id="edge38_Node000025_Node000026" class="edge">
<title>Node25&#45;&gt;Node26</title>
<g id="a_edge38_Node000025_Node000026"><a xlink:title=" ">
<path fill="none" stroke="#63b8ff" d="M310,-176.59C310,-166.01 310,-154.5 310,-146.82"/>
<polygon fill="#63b8ff" stroke="#63b8ff" points="306.5,-176.35 310,-186.35 313.5,-176.35 306.5,-176.35"/>
</a>
</g>
</g>
<!-- Node25&#45;&gt;Node28 -->
<g id="edge42_Node000025_Node000028" class="edge">
<title>Node25&#45;&gt;Node28</title>
<g id="a_edge42_Node000025_Node000028"><a xlink:title=" ">
<path fill="none" stroke="#63b8ff" d="M354.78,-183.5C377.97,-173.66 405.86,-161.82 427.38,-152.69"/>
<polygon fill="#63b8ff" stroke="#63b8ff" points="353.72,-180.14 345.88,-187.27 356.46,-186.59 353.72,-180.14"/>
</a>
</g>
</g>
<!-- Node26&#45;&gt;Node8 -->
<g id="edge39_Node000026_Node000008" class="edge">
<title>Node26&#45;&gt;Node8</title>
<g id="a_edge39_Node000026_Node000008"><a xlink:title=" ">
<path fill="none" stroke="#63b8ff" d="M378.27,-125.26C386.6,-124.04 394.99,-122.84 403,-121.75 534.79,-103.87 690.06,-86.43 771.55,-77.55"/>
<polygon fill="#63b8ff" stroke="#63b8ff" points="377.88,-121.78 368.5,-126.72 378.91,-128.71 377.88,-121.78"/>
</a>
</g>
</g>
<!-- Node26&#45;&gt;Node17 -->
<g id="edge40_Node000026_Node000017" class="edge">
<title>Node26&#45;&gt;Node17</title>
<g id="a_edge40_Node000026_Node000017"><a xlink:title=" ">
<path fill="none" stroke="#63b8ff" d="M310,-115.62C310,-105.94 310,-94.6 310,-85.84"/>
<polygon fill="#63b8ff" stroke="#63b8ff" points="306.5,-115.52 310,-125.52 313.5,-115.52 306.5,-115.52"/>
</a>
</g>
</g>
<!-- Node26&#45;&gt;Node27 -->
<g id="edge41_Node000026_Node000027" class="edge">
<title>Node26&#45;&gt;Node27</title>
<g id="a_edge41_Node000026_Node000027"><a xlink:title=" ">
<path fill="none" stroke="#63b8ff" d="M268.5,-123.61C226.32,-111.01 161.97,-91.8 124.33,-80.56"/>
<polygon fill="#63b8ff" stroke="#63b8ff" points="267.48,-126.95 278.06,-126.46 269.48,-120.25 267.48,-126.95"/>
</a>
</g>
</g>
<!-- Node30 -->
<g id="Node000030" class="node">
<title>Node30</title>
<g id="a_Node000030"><a xlink:href="_data_8cpp.html" target="_top" xlink:title=" ">
<polygon fill="white" stroke="#666666" points="574,-279.62 432,-279.62 432,-260.38 574,-260.38 574,-279.62"/>
<text text-anchor="middle" x="503" y="-266.12" font-family="Helvetica,sans-Serif" font-size="10.00">src/nwb/hdmf/base/Data.cpp</text>
</a>
</g>
</g>
<!-- Node29&#45;&gt;Node30 -->
<g id="edge44_Node000029_Node000030" class="edge">
<title>Node29&#45;&gt;Node30</title>
<g id="a_edge44_Node000029_Node000030"><a xlink:title=" ">
<path fill="none" stroke="#63b8ff" d="M469.5,-312.09C478.13,-301.5 488.71,-288.53 495.64,-280.03"/>
<polygon fill="#63b8ff" stroke="#63b8ff" points="466.85,-309.8 463.25,-319.76 472.28,-314.22 466.85,-309.8"/>
</a>
</g>
</g>
<!-- Node31 -->
<g id="Node000031" class="node">
<title>Node31</title>
<g id="a_Node000031"><a xlink:href="_element_identifiers_8hpp.html" target="_top" xlink:title=" ">
<polygon fill="white" stroke="#666666" points="414.25,-285.25 297.75,-285.25 297.75,-254.75 414.25,-254.75 414.25,-285.25"/>
<text text-anchor="start" x="305.75" y="-271.75" font-family="Helvetica,sans-Serif" font-size="10.00">src/nwb/hdmf/table</text>
<text text-anchor="middle" x="356" y="-260.5" font-family="Helvetica,sans-Serif" font-size="10.00">/ElementIdentifiers.hpp</text>
</a>
</g>
</g>
<!-- Node29&#45;&gt;Node31 -->
<g id="edge45_Node000029_Node000031" class="edge">
<title>Node29&#45;&gt;Node31</title>
<g id="a_edge45_Node000029_Node000031"><a xlink:title=" ">
<path fill="none" stroke="#63b8ff" d="M430.2,-315.13C414.99,-306.08 395.58,-294.54 380.44,-285.53"/>
<polygon fill="#63b8ff" stroke="#63b8ff" points="428.28,-318.06 438.66,-320.16 431.86,-312.04 428.28,-318.06"/>
</a>
</g>
</g>
<!-- Node29&#45;&gt;Node33 -->
<g id="edge49_Node000029_Node000033" class="edge">
<title>Node29&#45;&gt;Node33</title>
<g id="a_edge49_Node000029_Node000033"><a xlink:title=" ">
<path fill="none" stroke="#63b8ff" d="M397.47,-318.62C341.46,-307.67 257.21,-291.19 203.94,-280.77"/>
<polygon fill="#63b8ff" stroke="#63b8ff" points="396.66,-322.03 407.14,-320.51 398,-315.16 396.66,-322.03"/>
</a>
</g>
</g>
<!-- Node31&#45;&gt;Node25 -->
<g id="edge47_Node000031_Node000025" class="edge">
<title>Node31&#45;&gt;Node25</title>
<g id="a_edge47_Node000031_Node000025"><a xlink:title=" ">
<path fill="none" stroke="#63b8ff" d="M338.91,-245.04C332.69,-236.32 325.86,-226.74 320.4,-219.08"/>
<polygon fill="#63b8ff" stroke="#63b8ff" points="336.03,-247.02 344.68,-253.13 341.73,-242.96 336.03,-247.02"/>
</a>
</g>
</g>
<!-- Node31&#45;&gt;Node26 -->
<g id="edge46_Node000031_Node000026" class="edge">
<title>Node31&#45;&gt;Node26</title>
<g id="a_edge46_Node000031_Node000026"><a xlink:title=" ">
<path fill="none" stroke="#63b8ff" d="M367.27,-243.85C372.94,-227.38 377.08,-205.74 369,-188.25 360.48,-169.81 341.49,-155.64 327.34,-147.12"/>
<polygon fill="#63b8ff" stroke="#63b8ff" points="364.11,-242.31 363.77,-252.9 370.64,-244.83 364.11,-242.31"/>
</a>
</g>
</g>
<!-- Node32 -->
<g id="Node000032" class="node">
<title>Node32</title>
<g id="a_Node000032"><a xlink:href="_element_identifiers_8cpp.html" target="_top" xlink:title=" ">
<polygon fill="white" stroke="#666666" points="532.25,-218.75 415.75,-218.75 415.75,-188.25 532.25,-188.25 532.25,-218.75"/>
<text text-anchor="start" x="423.75" y="-205.25" font-family="Helvetica,sans-Serif" font-size="10.00">src/nwb/hdmf/table</text>
<text text-anchor="middle" x="474" y="-194" font-family="Helvetica,sans-Serif" font-size="10.00">/ElementIdentifiers.cpp</text>
</a>
</g>
</g>
<!-- Node31&#45;&gt;Node32 -->
<g id="edge48_Node000031_Node000032" class="edge">
<title>Node31&#45;&gt;Node32</title>
<g id="a_edge48_Node000031_Node000032"><a xlink:title=" ">
<path fill="none" stroke="#63b8ff" d="M392.76,-248.91C410.42,-239.25 431.21,-227.89 447.33,-219.08"/>
<polygon fill="#63b8ff" stroke="#63b8ff" points="391.2,-245.77 384.1,-253.64 394.56,-251.91 391.2,-245.77"/>
</a>
</g>
</g>
<!-- Node33&#45;&gt;Node25 -->
<g id="edge51_Node000033_Node000025" class="edge">
<title>Node33&#45;&gt;Node25</title>
<g id="a_edge51_Node000033_Node000025"><a xlink:title=" ">
<path fill="none" stroke="#63b8ff" d="M199.96,-250C223.76,-240.16 252.38,-228.32 274.47,-219.19"/>
<polygon fill="#63b8ff" stroke="#63b8ff" points="198.7,-246.73 190.8,-253.79 201.38,-253.2 198.7,-246.73"/>
</a>
</g>
</g>
<!-- Node33&#45;&gt;Node26 -->
<g id="edge50_Node000033_Node000026" class="edge">
<title>Node33&#45;&gt;Node26</title>
<g id="a_edge50_Node000033_Node000026"><a xlink:title=" ">
<path fill="none" stroke="#63b8ff" d="M137.6,-244.54C128.28,-227.32 120.71,-204.52 133,-188.25 147.35,-169.26 204.95,-155.36 250.6,-147.05"/>
<polygon fill="#63b8ff" stroke="#63b8ff" points="134.58,-246.31 142.69,-253.13 140.6,-242.75 134.58,-246.31"/>
</a>
</g>
</g>
<!-- Node34 -->
<g id="Node000034" class="node">
<title>Node34</title>
<g id="a_Node000034"><a xlink:href="_vector_data_8cpp.html" target="_top" xlink:title=" ">
<polygon fill="white" stroke="#666666" points="241.62,-218.75 142.38,-218.75 142.38,-188.25 241.62,-188.25 241.62,-218.75"/>
<text text-anchor="start" x="150.38" y="-205.25" font-family="Helvetica,sans-Serif" font-size="10.00">src/nwb/hdmf/table</text>
<text text-anchor="middle" x="192" y="-194" font-family="Helvetica,sans-Serif" font-size="10.00">/VectorData.cpp</text>
</a>
</g>
</g>
<!-- Node33&#45;&gt;Node34 -->
<g id="edge52_Node000033_Node000034" class="edge">
<title>Node33&#45;&gt;Node34</title>
<g id="a_edge52_Node000033_Node000034"><a xlink:title=" ">
<path fill="none" stroke="#63b8ff" d="M168.45,-244.48C173.49,-235.91 179,-226.57 183.41,-219.08"/>
<polygon fill="#63b8ff" stroke="#63b8ff" points="165.45,-242.67 163.39,-253.06 171.48,-246.22 165.45,-242.67"/>
</a>
</g>
</g>
</g>
</svg>
