<?xml version="1.0" encoding="UTF-8" standalone="no"?>
<!DOCTYPE svg PUBLIC "-//W3C//DTD SVG 1.1//EN"
 "http://www.w3.org/Graphics/SVG/1.1/DTD/svg11.dtd">
<!-- Generated by graphviz version 14.1.2 (20260124.0452)
 -->
<!-- Title: src/io/RecordingObjects.hpp Pages: 1 -->
<!--zoomable 360 -->

<svg id="main" version="1.1" xmlns="http://www.w3.org/2000/svg" xmlns:xlink="http://www.w3.org/1999/xlink" xml:space="preserve" onload="init(evt)">

<style type="text/css"><![CDATA[
.node, .edge {opacity: 0.7;}
.node.selected, .edge.selected {opacity: 1;}
.edge:hover path { stroke: red; }
.edge:hover polygon { stroke: red; fill: red; }
]]></style>

<defs>
  <circle id="rim" cx="0" cy="0" r="7"/>
  <circle id="rim2" cx="0" cy="0" r="3.5"/>
  <g id="zoomPlus">
    <use xlink:href="#rim" fill="#404040"><set attributeName="fill" to="#808080" begin="zoomplus.mouseover" end="zoomplus.mouseout"/></use>
    <path d="M-4,0h8M0,-4v8" fill="none" stroke="white" stroke-width="1.5" pointer-events="none"/>
  </g>
  <g id="zoomMin">
    <use xlink:href="#rim" fill="#404040"><set attributeName="fill" to="#808080" begin="zoomminus.mouseover" end="zoomminus.mouseout"/></use>
    <path d="M-4,0h8" fill="none" stroke="white" stroke-width="1.5" pointer-events="none"/>
  </g>
  <g id="arrowUp" transform="translate(30 24)">
    <use xlink:href="#rim"/>
    <path pointer-events="none" fill="none" stroke="white" stroke-width="1.5" d="M0,-3.0v7 M-2.5,-0.5L0,-3.0L2.5,-0.5"/>
  </g>
  <g id="arrowRight" transform="rotate(90) translate(36 -43)">
    <use xlink:href="#rim"/>
    <path pointer-events="none" fill="none" stroke="white" stroke-width="1.5" d="M0,-3.0v7 M-2.5,-0.5L0,-3.0L2.5,-0.5"/>
  </g>
  <g id="arrowDown" transform="rotate(180) translate(-30 -48)">
    <use xlink:href="#rim"/>
    <path pointer-events="none" fill="none" stroke="white" stroke-width="1.5" d="M0,-3.0v7 M-2.5,-0.5L0,-3.0L2.5,-0.5"/>
  </g>
  <g id="arrowLeft" transform="rotate(270) translate(-36 17)">
    <use xlink:href="#rim"/>
    <path pointer-events="none" fill="none" stroke="white" stroke-width="1.5" d="M0,-3.0v7 M-2.5,-0.5L0,-3.0L2.5,-0.5"/>
  </g>
  <g id="resetDef">
    <use xlink:href="#rim2" fill="#404040"><set attributeName="fill" to="#808080" begin="reset.mouseover" end="reset.mouseout"/></use>
  </g>
</defs>
<script type="application/ecmascript">
var viewWidth = 736;
var viewHeight = 360;
var sectionId = 'dynsection-1';
</script>
<script type="application/ecmascript" xlink:href="svg.min.js"/>
<svg id="graph" class="graph">
<g id="viewport">
<title>src/io/RecordingObjects.hpp</title>
<!-- Node1 -->
<g id="Node000001" class="node">
<title>Node1</title>
<g id="a_Node000001"><a xlink:title=" ">
<polygon fill="#999999" stroke="#666666" points="230.25,-351.75 90.5,-351.75 90.5,-332.5 230.25,-332.5 230.25,-351.75"/>
<text xml:space="preserve" text-anchor="middle" x="160.38" y="-338.25" font-family="Helvetica,sans-Serif" font-size="10.00">src/io/RecordingObjects.hpp</text>
</a>
</g>
</g>
<!-- Node2 -->
<g id="Node000002" class="node">
<title>Node2</title>
<g id="a_Node000002"><a xlink:href="_base_i_o_8cpp.html" target="_top" xlink:title=" ">
<polygon fill="white" stroke="#666666" points="94.75,-290.88 0,-290.88 0,-271.62 94.75,-271.62 94.75,-290.88"/>
<text xml:space="preserve" text-anchor="middle" x="47.38" y="-277.38" font-family="Helvetica,sans-Serif" font-size="10.00">src/io/BaseIO.cpp</text>
</a>
</g>
</g>
<!-- Node1&#45;&gt;Node2 -->
<g id="edge1_Node000001_Node000002" class="edge">
<title>Node1&#45;&gt;Node2</title>
<g id="a_edge1_Node000001_Node000002"><a xlink:title=" ">
<path fill="none" stroke="#63b8ff" d="M133.17,-326.95C111.88,-315.86 82.93,-300.78 64.7,-291.28"/>
<polygon fill="#63b8ff" stroke="#63b8ff" points="131.38,-329.97 141.87,-331.48 134.62,-323.76 131.38,-329.97"/>
</a>
</g>
</g>
<!-- Node3 -->
<g id="Node000003" class="node">
<title>Node3</title>
<g id="a_Node000003"><a xlink:href="_recording_objects_8cpp.html" target="_top" xlink:title=" ">
<polygon fill="white" stroke="#666666" points="178.25,-24.88 38.5,-24.88 38.5,-5.63 178.25,-5.63 178.25,-24.88"/>
<text xml:space="preserve" text-anchor="middle" x="108.38" y="-11.38" font-family="Helvetica,sans-Serif" font-size="10.00">src/io/RecordingObjects.cpp</text>
</a>
</g>
</g>
<!-- Node1&#45;&gt;Node3 -->
<g id="edge2_Node000001_Node000003" class="edge">
<title>Node1&#45;&gt;Node3</title>
<g id="a_edge2_Node000001_Node000003"><a xlink:title=" ">
<path fill="none" stroke="#63b8ff" d="M150.76,-322.07C139.5,-297.96 122.38,-254.84 122.38,-215.75 122.38,-215.75 122.38,-215.75 122.38,-147.25 122.38,-101.05 113.66,-46.2 109.98,-25.11"/>
<polygon fill="#63b8ff" stroke="#63b8ff" points="147.54,-323.45 155.05,-330.92 153.84,-320.4 147.54,-323.45"/>
</a>
</g>
</g>
<!-- Node4 -->
<g id="Node000004" class="node">
<title>Node4</title>
<g id="a_Node000004"><a xlink:href="nwbio__utils_8hpp.html" target="_top" xlink:title=" ">
<polygon fill="white" stroke="#666666" points="306.62,-24.88 196.12,-24.88 196.12,-5.63 306.62,-5.63 306.62,-24.88"/>
<text xml:space="preserve" text-anchor="middle" x="251.38" y="-11.38" font-family="Helvetica,sans-Serif" font-size="10.00">src/io/nwbio_utils.hpp</text>
</a>
</g>
</g>
<!-- Node1&#45;&gt;Node4 -->
<g id="edge3_Node000001_Node000004" class="edge">
<title>Node1&#45;&gt;Node4</title>
<g id="a_edge3_Node000001_Node000004"><a xlink:title=" ">
<path fill="none" stroke="#63b8ff" d="M160.38,-320.51C160.38,-295.66 160.38,-252.65 160.38,-215.75 160.38,-215.75 160.38,-215.75 160.38,-147.25 160.38,-92.7 214.26,-44.53 239.1,-25.22"/>
<polygon fill="#63b8ff" stroke="#63b8ff" points="156.88,-320.49 160.38,-330.49 163.88,-320.49 156.88,-320.49"/>
</a>
</g>
</g>
<!-- Node5 -->
<g id="Node000005" class="node">
<title>Node5</title>
<g id="a_Node000005"><a xlink:href="_registered_type_8cpp.html" target="_top" xlink:title=" ">
<polygon fill="white" stroke="#666666" points="500.62,-290.88 360.12,-290.88 360.12,-271.62 500.62,-271.62 500.62,-290.88"/>
<text xml:space="preserve" text-anchor="middle" x="430.38" y="-277.38" font-family="Helvetica,sans-Serif" font-size="10.00">src/nwb/RegisteredType.cpp</text>
</a>
</g>
</g>
<!-- Node1&#45;&gt;Node5 -->
<g id="edge4_Node000001_Node000005" class="edge">
<title>Node1&#45;&gt;Node5</title>
<g id="a_edge4_Node000001_Node000005"><a xlink:title=" ">
<path fill="none" stroke="#63b8ff" d="M213.16,-329.61C264.53,-318.41 341.54,-301.62 388.73,-291.33"/>
<polygon fill="#63b8ff" stroke="#63b8ff" points="212.47,-326.18 203.45,-331.73 213.97,-333.02 212.47,-326.18"/>
</a>
</g>
</g>
<!-- Node6 -->
<g id="Node000006" class="node">
<title>Node6</title>
<g id="a_Node000006"><a xlink:href="_dynamic_table_8hpp.html" target="_top" xlink:title=" ">
<polygon fill="white" stroke="#666666" points="342.38,-296.5 242.38,-296.5 242.38,-266 342.38,-266 342.38,-296.5"/>
<text xml:space="preserve" text-anchor="start" x="250.38" y="-283" font-family="Helvetica,sans-Serif" font-size="10.00">src/nwb/hdmf/table</text>
<text xml:space="preserve" text-anchor="middle" x="292.38" y="-271.75" font-family="Helvetica,sans-Serif" font-size="10.00">/DynamicTable.hpp</text>
</a>
</g>
</g>
<!-- Node1&#45;&gt;Node6 -->
<g id="edge5_Node000001_Node000006" class="edge">
<title>Node1&#45;&gt;Node6</title>
<g id="a_edge5_Node000001_Node000006"><a xlink:title=" ">
<path fill="none" stroke="#63b8ff" d="M191.06,-327.44C211.56,-318.3 238.49,-306.29 259.43,-296.94"/>
<polygon fill="#63b8ff" stroke="#63b8ff" points="189.8,-324.17 182.09,-331.44 192.65,-330.56 189.8,-324.17"/>
</a>
</g>
</g>
<!-- Node7 -->
<g id="Node000007" class="node">
<title>Node7</title>
<g id="a_Node000007"><a xlink:href="_electrodes_table_8hpp.html" target="_top" xlink:title=" ">
<polygon fill="white" stroke="#666666" points="424.25,-224.38 266.5,-224.38 266.5,-205.12 424.25,-205.12 424.25,-224.38"/>
<text xml:space="preserve" text-anchor="middle" x="345.38" y="-210.88" font-family="Helvetica,sans-Serif" font-size="10.00">src/nwb/file/ElectrodesTable.hpp</text>
</a>
</g>
</g>
<!-- Node6&#45;&gt;Node7 -->
<g id="edge6_Node000006_Node000007" class="edge">
<title>Node6&#45;&gt;Node7</title>
<g id="a_edge6_Node000006_Node000007"><a xlink:title=" ">
<path fill="none" stroke="#63b8ff" d="M311.45,-257.04C320.7,-245.77 331.28,-232.91 338.13,-224.57"/>
<polygon fill="#63b8ff" stroke="#63b8ff" points="309.01,-254.5 305.36,-264.44 314.42,-258.94 309.01,-254.5"/>
</a>
</g>
</g>
<!-- Node15 -->
<g id="Node000015" class="node">
<title>Node15</title>
<g id="a_Node000015"><a xlink:href="_dynamic_table_8cpp.html" target="_top" xlink:title=" ">
<polygon fill="white" stroke="#666666" points="542.38,-230 442.38,-230 442.38,-199.5 542.38,-199.5 542.38,-230"/>
<text xml:space="preserve" text-anchor="start" x="450.38" y="-216.5" font-family="Helvetica,sans-Serif" font-size="10.00">src/nwb/hdmf/table</text>
<text xml:space="preserve" text-anchor="middle" x="492.38" y="-205.25" font-family="Helvetica,sans-Serif" font-size="10.00">/DynamicTable.cpp</text>
</a>
</g>
</g>
<!-- Node6&#45;&gt;Node15 -->
<g id="edge21_Node000006_Node000015" class="edge">
<title>Node6&#45;&gt;Node15</title>
<g id="a_edge21_Node000006_Node000015"><a xlink:title=" ">
<path fill="none" stroke="#63b8ff" d="M348.68,-262.09C379.73,-252.08 417.79,-239.8 446.94,-230.4"/>
<polygon fill="#63b8ff" stroke="#63b8ff" points="347.89,-258.67 339.45,-265.07 350.04,-265.33 347.89,-258.67"/>
</a>
</g>
</g>
<!-- Node8 -->
<g id="Node000008" class="node">
<title>Node8</title>
<g id="a_Node000008"><a xlink:href="_n_w_b_file_8hpp.html" target="_top" xlink:title=" ">
<polygon fill="white" stroke="#666666" points="728.38,-91.38 616.38,-91.38 616.38,-72.12 728.38,-72.12 728.38,-91.38"/>
<text xml:space="preserve" text-anchor="middle" x="672.38" y="-77.88" font-family="Helvetica,sans-Serif" font-size="10.00">src/nwb/NWBFile.hpp</text>
</a>
</g>
</g>
<!-- Node7&#45;&gt;Node8 -->
<g id="edge7_Node000007_Node000008" class="edge">
<title>Node7&#45;&gt;Node8</title>
<g id="a_edge7_Node000007_Node000008"><a xlink:title=" ">
<path fill="none" stroke="#63b8ff" d="M404.41,-202.35C442.38,-193.99 492.3,-181.02 534.38,-163.5 583.32,-143.12 636.05,-108.2 659.67,-91.78"/>
<polygon fill="#63b8ff" stroke="#63b8ff" points="404.05,-198.85 395.01,-204.38 405.53,-205.69 404.05,-198.85"/>
</a>
</g>
</g>
<!-- Node10 -->
<g id="Node000010" class="node">
<title>Node10</title>
<g id="a_Node000010"><a xlink:href="_electrical_series_8cpp.html" target="_top" xlink:title=" ">
<polygon fill="white" stroke="#666666" points="598.25,-97 464.5,-97 464.5,-66.5 598.25,-66.5 598.25,-97"/>
<text xml:space="preserve" text-anchor="start" x="472.5" y="-83.5" font-family="Helvetica,sans-Serif" font-size="10.00">src/nwb/ecephys/Electrical</text>
<text xml:space="preserve" text-anchor="middle" x="531.38" y="-72.25" font-family="Helvetica,sans-Serif" font-size="10.00">Series.cpp</text>
</a>
</g>
</g>
<!-- Node7&#45;&gt;Node10 -->
<g id="edge9_Node000007_Node000010" class="edge">
<title>Node7&#45;&gt;Node10</title>
<g id="a_edge9_Node000007_Node000010"><a xlink:title=" ">
<path fill="none" stroke="#63b8ff" d="M405.28,-202.31C446.92,-193.17 497.51,-179.31 512.38,-163.5 529.35,-145.46 532.09,-115.21 532.06,-97.3"/>
<polygon fill="#63b8ff" stroke="#63b8ff" points="404.62,-198.87 395.57,-204.38 406.08,-205.71 404.62,-198.87"/>
</a>
</g>
</g>
<!-- Node11 -->
<g id="Node000011" class="node">
<title>Node11</title>
<g id="a_Node000011"><a xlink:href="_electrical_series_8hpp.html" target="_top" xlink:title=" ">
<polygon fill="white" stroke="#666666" points="327.25,-163.5 193.5,-163.5 193.5,-133 327.25,-133 327.25,-163.5"/>
<text xml:space="preserve" text-anchor="start" x="201.5" y="-150" font-family="Helvetica,sans-Serif" font-size="10.00">src/nwb/ecephys/Electrical</text>
<text xml:space="preserve" text-anchor="middle" x="260.38" y="-138.75" font-family="Helvetica,sans-Serif" font-size="10.00">Series.hpp</text>
</a>
</g>
</g>
<!-- Node7&#45;&gt;Node11 -->
<g id="edge10_Node000007_Node000011" class="edge">
<title>Node7&#45;&gt;Node11</title>
<g id="a_edge10_Node000007_Node000011"><a xlink:title=" ">
<path fill="none" stroke="#63b8ff" d="M324.42,-197.85C310.71,-187.45 292.95,-173.97 279.6,-163.84"/>
<polygon fill="#63b8ff" stroke="#63b8ff" points="322.27,-200.61 332.35,-203.87 326.5,-195.03 322.27,-200.61"/>
</a>
</g>
</g>
<!-- Node14 -->
<g id="Node000014" class="node">
<title>Node14</title>
<g id="a_Node000014"><a xlink:href="_electrodes_table_8cpp.html" target="_top" xlink:title=" ">
<polygon fill="white" stroke="#666666" points="503.25,-157.88 345.5,-157.88 345.5,-138.62 503.25,-138.62 503.25,-157.88"/>
<text xml:space="preserve" text-anchor="middle" x="424.38" y="-144.38" font-family="Helvetica,sans-Serif" font-size="10.00">src/nwb/file/ElectrodesTable.cpp</text>
</a>
</g>
</g>
<!-- Node7&#45;&gt;Node14 -->
<g id="edge20_Node000007_Node000014" class="edge">
<title>Node7&#45;&gt;Node14</title>
<g id="a_edge20_Node000007_Node000014"><a xlink:title=" ">
<path fill="none" stroke="#63b8ff" d="M365.02,-197.71C380.22,-185.3 400.73,-168.55 413.23,-158.35"/>
<polygon fill="#63b8ff" stroke="#63b8ff" points="363.06,-194.79 357.53,-203.82 367.49,-200.21 363.06,-194.79"/>
</a>
</g>
</g>
<!-- Node9 -->
<g id="Node000009" class="node">
<title>Node9</title>
<g id="a_Node000009"><a xlink:href="_n_w_b_file_8cpp.html" target="_top" xlink:title=" ">
<polygon fill="white" stroke="#666666" points="598.38,-24.88 486.38,-24.88 486.38,-5.63 598.38,-5.63 598.38,-24.88"/>
<text xml:space="preserve" text-anchor="middle" x="542.38" y="-11.38" font-family="Helvetica,sans-Serif" font-size="10.00">src/nwb/NWBFile.cpp</text>
</a>
</g>
</g>
<!-- Node8&#45;&gt;Node9 -->
<g id="edge8_Node000008_Node000009" class="edge">
<title>Node8&#45;&gt;Node9</title>
<g id="a_edge8_Node000008_Node000009"><a xlink:title=" ">
<path fill="none" stroke="#63b8ff" d="M643.91,-66.63C618.58,-54.06 582.27,-36.04 560.63,-25.31"/>
<polygon fill="#63b8ff" stroke="#63b8ff" points="642.16,-69.66 652.67,-70.97 645.27,-63.39 642.16,-69.66"/>
</a>
</g>
</g>
<!-- Node11&#45;&gt;Node3 -->
<g id="edge11_Node000011_Node000003" class="edge">
<title>Node11&#45;&gt;Node3</title>
<g id="a_edge11_Node000011_Node000003"><a xlink:title=" ">
<path fill="none" stroke="#63b8ff" d="M235.09,-125.46C201.26,-96.3 142.76,-45.89 118.94,-25.35"/>
<polygon fill="#63b8ff" stroke="#63b8ff" points="232.52,-127.86 242.38,-131.74 237.09,-122.56 232.52,-127.86"/>
</a>
</g>
</g>
<!-- Node11&#45;&gt;Node4 -->
<g id="edge12_Node000011_Node000004" class="edge">
<title>Node11&#45;&gt;Node4</title>
<g id="a_edge12_Node000011_Node000004"><a xlink:title=" ">
<path fill="none" stroke="#63b8ff" d="M257.55,-121.34C256.76,-113.52 255.96,-104.92 255.38,-97 253.44,-70.96 252.2,-40.13 251.67,-25.22"/>
<polygon fill="#63b8ff" stroke="#63b8ff" points="254.06,-121.67 258.58,-131.25 261.03,-120.94 254.06,-121.67"/>
</a>
</g>
</g>
<!-- Node11&#45;&gt;Node9 -->
<g id="edge13_Node000011_Node000009" class="edge">
<title>Node11&#45;&gt;Node9</title>
<g id="a_edge13_Node000011_Node000009"><a xlink:title=" ">
<path fill="none" stroke="#63b8ff" d="M334.93,-129.46C361.8,-121.5 391.78,-110.75 417.38,-97 436.45,-86.75 437.5,-78.73 455.38,-66.5 478.55,-50.64 506.99,-34.86 524.9,-25.32"/>
<polygon fill="#63b8ff" stroke="#63b8ff" points="334.13,-126.05 325.48,-132.18 336.06,-132.78 334.13,-126.05"/>
</a>
</g>
</g>
<!-- Node11&#45;&gt;Node10 -->
<g id="edge14_Node000011_Node000010" class="edge">
<title>Node11&#45;&gt;Node10</title>
<g id="a_edge14_Node000011_Node000010"><a xlink:title=" ">
<path fill="none" stroke="#63b8ff" d="M333.37,-129.88C376.04,-119.72 429.28,-107.05 469.81,-97.4"/>
<polygon fill="#63b8ff" stroke="#63b8ff" points="332.6,-126.46 323.68,-132.18 334.22,-133.27 332.6,-126.46"/>
</a>
</g>
</g>
<!-- Node12 -->
<g id="Node000012" class="node">
<title>Node12</title>
<g id="a_Node000012"><a xlink:href="_spike_event_series_8hpp.html" target="_top" xlink:title=" ">
<polygon fill="white" stroke="#666666" points="408.12,-97 264.62,-97 264.62,-66.5 408.12,-66.5 408.12,-97"/>
<text xml:space="preserve" text-anchor="start" x="272.62" y="-83.5" font-family="Helvetica,sans-Serif" font-size="10.00">src/nwb/ecephys/SpikeEvent</text>
<text xml:space="preserve" text-anchor="middle" x="336.38" y="-72.25" font-family="Helvetica,sans-Serif" font-size="10.00">Series.hpp</text>
</a>
</g>
</g>
<!-- Node11&#45;&gt;Node12 -->
<g id="edge15_Node000011_Node000012" class="edge">
<title>Node11&#45;&gt;Node12</title>
<g id="a_edge15_Node000011_Node000012"><a xlink:title=" ">
<path fill="none" stroke="#63b8ff" d="M286.31,-125.24C297.17,-116.03 309.49,-105.56 319.2,-97.33"/>
<polygon fill="#63b8ff" stroke="#63b8ff" points="284.13,-122.5 278.77,-131.63 288.66,-127.83 284.13,-122.5"/>
</a>
</g>
</g>
<!-- Node12&#45;&gt;Node3 -->
<g id="edge16_Node000012_Node000003" class="edge">
<title>Node12&#45;&gt;Node3</title>
<g id="a_edge16_Node000012_Node000003"><a xlink:title=" ">
<path fill="none" stroke="#63b8ff" d="M273.39,-62.93C230.25,-50.73 174.84,-35.05 140.47,-25.33"/>
<polygon fill="#63b8ff" stroke="#63b8ff" points="272.32,-66.27 282.9,-65.62 274.23,-59.53 272.32,-66.27"/>
</a>
</g>
</g>
<!-- Node12&#45;&gt;Node4 -->
<g id="edge17_Node000012_Node000004" class="edge">
<title>Node12&#45;&gt;Node4</title>
<g id="a_edge17_Node000012_Node000004"><a xlink:title=" ">
<path fill="none" stroke="#63b8ff" d="M307.98,-59.2C292.63,-47.56 274.53,-33.82 263,-25.07"/>
<polygon fill="#63b8ff" stroke="#63b8ff" points="305.8,-61.94 315.88,-65.2 310.03,-56.37 305.8,-61.94"/>
</a>
</g>
</g>
<!-- Node12&#45;&gt;Node9 -->
<g id="edge18_Node000012_Node000009" class="edge">
<title>Node12&#45;&gt;Node9</title>
<g id="a_edge18_Node000012_Node000009"><a xlink:title=" ">
<path fill="none" stroke="#63b8ff" d="M394.03,-62.7C432.89,-50.53 482.52,-34.99 513.37,-25.33"/>
<polygon fill="#63b8ff" stroke="#63b8ff" points="393.32,-59.25 384.82,-65.58 395.41,-65.93 393.32,-59.25"/>
</a>
</g>
</g>
<!-- Node13 -->
<g id="Node000013" class="node">
<title>Node13</title>
<g id="a_Node000013"><a xlink:href="_spike_event_series_8cpp.html" target="_top" xlink:title=" ">
<polygon fill="white" stroke="#666666" points="468.12,-30.5 324.62,-30.5 324.62,0 468.12,0 468.12,-30.5"/>
<text xml:space="preserve" text-anchor="start" x="332.62" y="-17" font-family="Helvetica,sans-Serif" font-size="10.00">src/nwb/ecephys/SpikeEvent</text>
<text xml:space="preserve" text-anchor="middle" x="396.38" y="-5.75" font-family="Helvetica,sans-Serif" font-size="10.00">Series.cpp</text>
</a>
</g>
</g>
<!-- Node12&#45;&gt;Node13 -->
<g id="edge19_Node000012_Node000013" class="edge">
<title>Node12&#45;&gt;Node13</title>
<g id="a_edge19_Node000012_Node000013"><a xlink:title=" ">
<path fill="none" stroke="#63b8ff" d="M357.62,-57.91C366,-48.9 375.38,-38.82 382.81,-30.83"/>
<polygon fill="#63b8ff" stroke="#63b8ff" points="355.27,-55.3 351.02,-65.01 360.39,-60.07 355.27,-55.3"/>
</a>
</g>
</g>
</g>
</svg>

<g id="navigator" transform="translate(0 0)" fill="#404254">
  <rect fill="#f2f5e9" fill-opacity="0.5" stroke="#606060" stroke-width=".5" x="0" y="0" width="60" height="60"/>
  <use id="zoomplus" xlink:href="#zoomPlus" x="17" y="9" onmousedown="handleZoom(evt,'in')"/>
  <use id="zoomminus" xlink:href="#zoomMin" x="42" y="9" onmousedown="handleZoom(evt,'out')"/>
  <use id="reset" xlink:href="#resetDef" x="30" y="36" onmousedown="handleReset()"/>
   <use id="arrowup" xlink:href="#arrowUp" x="0" y="0" onmousedown="handlePan(0,-1)"/>
  <use id="arrowright" xlink:href="#arrowRight" x="0" y="0" onmousedown="handlePan(1,0)"/>
  <use id="arrowdown" xlink:href="#arrowDown" x="0" y="0" onmousedown="handlePan(0,1)"/>
  <use id="arrowleft" xlink:href="#arrowLeft" x="0" y="0" onmousedown="handlePan(-1,0)"/>
</g>
<svg viewBox="0 0 15 15" width="100%" height="30px" preserveAspectRatio="xMaxYMin meet">
 <g id="arrow_out" transform="scale(0.3 0.3)">
  <a xlink:href="_recording_objects_8hpp__dep__incl_org.svg" target="_base">
   <rect id="button" ry="5" rx="5" y="6" x="6" height="38" width="38"
        fill="#f2f5e9" fill-opacity="0.5" stroke="#606060" stroke-width="1.0"/>
   <path id="arrow"
     d="M 11.500037,31.436501 C 11.940474,20.09759 22.043105,11.32322 32.158766,21.979434 L 37.068811,17.246167 C 37.068811,17.246167 37.088388,32 37.088388,32 L 22.160133,31.978069 C 22.160133,31.978069 26.997745,27.140456 26.997745,27.140456 C 18.528582,18.264221 13.291696,25.230495 11.500037,31.436501 z"
     style="fill:#404040;"/>
  </a>
 </g>
</svg>

<style type='text/css'>
<![CDATA[
[data-mouse-over-selected='false'] { opacity: 0.7; }
[data-mouse-over-selected='true']  { opacity: 1.0; }
]]>
</style>
<script type="application/ecmascript"><![CDATA[
document.addEventListener('DOMContentLoaded', (event) => {
  highlightEdges();
  highlightAdjacentNodes();
});
]]></script>
</svg>
