<?xml version="1.0" encoding="UTF-8" standalone="no"?>
<!DOCTYPE svg PUBLIC "-//W3C//DTD SVG 1.1//EN"
 "http://www.w3.org/Graphics/SVG/1.1/DTD/svg11.dtd">
<!-- Generated by graphviz version 12.2.1 (20241206.2353)
 -->
<!-- Title: src/nwb/RegisteredType.cpp Pages: 1 -->
<!--zoomable 425 -->

<svg id="main" version="1.1" xmlns="http://www.w3.org/2000/svg" xmlns:xlink="http://www.w3.org/1999/xlink" xml:space="preserve" onload="init(evt)">

<style type="text/css"><![CDATA[
.node, .edge {opacity: 0.7;}
.node.selected, .edge.selected {opacity: 1;}
.edge:hover path { stroke: red; }
.edge:hover polygon { stroke: red; fill: red; }
]]></style>

<defs>
  <circle id="rim" cx="0" cy="0" r="7"/>
  <circle id="rim2" cx="0" cy="0" r="3.5"/>
  <g id="zoomPlus">
    <use xlink:href="#rim" fill="#404040"><set attributeName="fill" to="#808080" begin="zoomplus.mouseover" end="zoomplus.mouseout"/></use>
    <path d="M-4,0h8M0,-4v8" fill="none" stroke="white" stroke-width="1.5" pointer-events="none"/>
  </g>
  <g id="zoomMin">
    <use xlink:href="#rim" fill="#404040"><set attributeName="fill" to="#808080" begin="zoomminus.mouseover" end="zoomminus.mouseout"/></use>
    <path d="M-4,0h8" fill="none" stroke="white" stroke-width="1.5" pointer-events="none"/>
  </g>
  <g id="arrowUp" transform="translate(30 24)">
    <use xlink:href="#rim"/>
    <path pointer-events="none" fill="none" stroke="white" stroke-width="1.5" d="M0,-3.0v7 M-2.5,-0.5L0,-3.0L2.5,-0.5"/>
  </g>
  <g id="arrowRight" transform="rotate(90) translate(36 -43)">
    <use xlink:href="#rim"/>
    <path pointer-events="none" fill="none" stroke="white" stroke-width="1.5" d="M0,-3.0v7 M-2.5,-0.5L0,-3.0L2.5,-0.5"/>
  </g>
  <g id="arrowDown" transform="rotate(180) translate(-30 -48)">
    <use xlink:href="#rim"/>
    <path pointer-events="none" fill="none" stroke="white" stroke-width="1.5" d="M0,-3.0v7 M-2.5,-0.5L0,-3.0L2.5,-0.5"/>
  </g>
  <g id="arrowLeft" transform="rotate(270) translate(-36 17)">
    <use xlink:href="#rim"/>
    <path pointer-events="none" fill="none" stroke="white" stroke-width="1.5" d="M0,-3.0v7 M-2.5,-0.5L0,-3.0L2.5,-0.5"/>
  </g>
  <g id="resetDef">
    <use xlink:href="#rim2" fill="#404040"><set attributeName="fill" to="#808080" begin="reset.mouseover" end="reset.mouseout"/></use>
  </g>
</defs>
<script type="application/ecmascript">
var viewWidth = 1804;
var viewHeight = 425;
var sectionId = 'dynsection-0';
</script>
<script type="application/ecmascript" xlink:href="svg.min.js"/>
<svg id="graph" class="graph">
<g id="viewport">
<title>src/nwb/RegisteredType.cpp</title>
<!-- Node1 -->
<g id="Node000001" class="node">
<title>Node1</title>
<g id="a_Node000001"><a xlink:title=" ">
<polygon fill="#999999" stroke="#666666" points="1027.23,-417.25 886.73,-417.25 886.73,-398 1027.23,-398 1027.23,-417.25"/>
<text text-anchor="middle" x="956.98" y="-403.75" font-family="Helvetica,sans-Serif" font-size="10.00">src/nwb/RegisteredType.cpp</text>
</a>
</g>
</g>
<!-- Node2 -->
<g id="Node000002" class="node">
<title>Node2</title>
<g id="a_Node000002"><a xlink:href="_registered_type_8hpp.html" target="_top" xlink:title=" ">
<polygon fill="white" stroke="#666666" points="1576.48,-362 1473.48,-362 1473.48,-342.75 1576.48,-342.75 1576.48,-362"/>
<text text-anchor="middle" x="1524.98" y="-348.5" font-family="Helvetica,sans-Serif" font-size="10.00">RegisteredType.hpp</text>
</a>
</g>
</g>
<!-- Node1&#45;&gt;Node2 -->
<g id="edge1_Node000001_Node000002" class="edge">
<title>Node1&#45;&gt;Node2</title>
<g id="a_edge1_Node000001_Node000002"><a xlink:title=" ">
<path fill="none" stroke="#63b8ff" d="M1027.49,-400.02C1139.14,-389.55 1354.91,-369.32 1461.81,-359.3"/>
<polygon fill="#63b8ff" stroke="#63b8ff" points="1461.91,-362.8 1471.54,-358.39 1461.26,-355.83 1461.91,-362.8"/>
</a>
</g>
</g>
<!-- Node12 -->
<g id="Node000012" class="node">
<title>Node12</title>
<g id="a_Node000012"><a xlink:href="_utils_8hpp.html" target="_top" xlink:title=" ">
<polygon fill="white" stroke="#666666" points="984.48,-306.75 929.48,-306.75 929.48,-287.5 984.48,-287.5 984.48,-306.75"/>
<text text-anchor="middle" x="956.98" y="-293.25" font-family="Helvetica,sans-Serif" font-size="10.00">Utils.hpp</text>
</a>
</g>
</g>
<!-- Node1&#45;&gt;Node12 -->
<g id="edge60_Node000001_Node000012" class="edge">
<title>Node1&#45;&gt;Node12</title>
<g id="a_edge60_Node000001_Node000012"><a xlink:title=" ">
<path fill="none" stroke="#63b8ff" d="M956.98,-397.75C956.98,-380.5 956.98,-342.08 956.98,-318.31"/>
<polygon fill="#63b8ff" stroke="#63b8ff" points="960.48,-318.64 956.98,-308.64 953.48,-318.64 960.48,-318.64"/>
</a>
</g>
</g>
<!-- Node35 -->
<g id="Node000035" class="node">
<title>Node35</title>
<g id="a_Node000035"><a xlink:href="_read_i_o_8hpp.html" target="_top" xlink:title=" ">
<polygon fill="white" stroke="#666666" points="1051.48,-185 972.48,-185 972.48,-165.75 1051.48,-165.75 1051.48,-185"/>
<text text-anchor="middle" x="1011.98" y="-171.5" font-family="Helvetica,sans-Serif" font-size="10.00">io/ReadIO.hpp</text>
</a>
</g>
</g>
<!-- Node1&#45;&gt;Node35 -->
<g id="edge61_Node000001_Node000035" class="edge">
<title>Node1&#45;&gt;Node35</title>
<g id="a_edge61_Node000001_Node000035"><a xlink:title=" ">
<path fill="none" stroke="#63b8ff" d="M886.4,-404C647.27,-393.9 -110.63,-351.31 13.98,-221 46.98,-186.49 761.85,-178.33 960.93,-176.72"/>
<polygon fill="#63b8ff" stroke="#63b8ff" points="960.72,-180.23 970.69,-176.65 960.66,-173.23 960.72,-180.23"/>
</a>
</g>
</g>
<!-- Node3 -->
<g id="Node000003" class="node">
<title>Node3</title>
<g id="a_Node000003"><a xlink:title=" ">
<polygon fill="#e0e0e0" stroke="#999999" points="1614.48,-306.75 1553.48,-306.75 1553.48,-287.5 1614.48,-287.5 1614.48,-306.75"/>
<text text-anchor="middle" x="1583.98" y="-293.25" font-family="Helvetica,sans-Serif" font-size="10.00">filesystem</text>
</a>
</g>
</g>
<!-- Node2&#45;&gt;Node3 -->
<g id="edge2_Node000002_Node000003" class="edge">
<title>Node2&#45;&gt;Node3</title>
<g id="a_edge2_Node000002_Node000003"><a xlink:title=" ">
<path fill="none" stroke="#63b8ff" d="M1534.99,-342.34C1543.35,-334.8 1555.48,-323.85 1565.58,-314.73"/>
<polygon fill="#63b8ff" stroke="#63b8ff" points="1567.92,-317.34 1573,-308.04 1563.23,-312.14 1567.92,-317.34"/>
</a>
</g>
</g>
<!-- Node4 -->
<g id="Node000004" class="node">
<title>Node4</title>
<g id="a_Node000004"><a xlink:title=" ">
<polygon fill="#e0e0e0" stroke="#999999" points="1766.98,-306.75 1708.98,-306.75 1708.98,-287.5 1766.98,-287.5 1766.98,-306.75"/>
<text text-anchor="middle" x="1737.98" y="-293.25" font-family="Helvetica,sans-Serif" font-size="10.00">functional</text>
</a>
</g>
</g>
<!-- Node2&#45;&gt;Node4 -->
<g id="edge3_Node000002_Node000004" class="edge">
<title>Node2&#45;&gt;Node4</title>
<g id="a_edge3_Node000002_Node000004"><a xlink:title=" ">
<path fill="none" stroke="#63b8ff" d="M1561.12,-342.34C1598.93,-332.89 1658.15,-318.08 1697.51,-308.24"/>
<polygon fill="#63b8ff" stroke="#63b8ff" points="1698.22,-311.67 1707.08,-305.85 1696.53,-304.88 1698.22,-311.67"/>
</a>
</g>
</g>
<!-- Node5 -->
<g id="Node000005" class="node">
<title>Node5</title>
<g id="a_Node000005"><a xlink:title=" ">
<polygon fill="#e0e0e0" stroke="#999999" points="878.61,-74.5 827.36,-74.5 827.36,-55.25 878.61,-55.25 878.61,-74.5"/>
<text text-anchor="middle" x="852.98" y="-61" font-family="Helvetica,sans-Serif" font-size="10.00">memory</text>
</a>
</g>
</g>
<!-- Node2&#45;&gt;Node5 -->
<g id="edge4_Node000002_Node000005" class="edge">
<title>Node2&#45;&gt;Node5</title>
<g id="a_edge4_Node000002_Node000005"><a xlink:title=" ">
<path fill="none" stroke="#63b8ff" d="M1473.01,-350.96C1264.4,-349.07 487.5,-339.9 243.98,-306.75 139.81,-292.57 79.06,-334.06 13.98,-251.5 -90.12,-119.43 639.87,-76.01 815.55,-67.53"/>
<polygon fill="#63b8ff" stroke="#63b8ff" points="815.66,-71.03 825.49,-67.06 815.33,-64.04 815.66,-71.03"/>
</a>
</g>
</g>
<!-- Node6 -->
<g id="Node000006" class="node">
<title>Node6</title>
<g id="a_Node000006"><a xlink:title=" ">
<polygon fill="#e0e0e0" stroke="#999999" points="1700.98,-74.5 1660.98,-74.5 1660.98,-55.25 1700.98,-55.25 1700.98,-74.5"/>
<text text-anchor="middle" x="1680.98" y="-61" font-family="Helvetica,sans-Serif" font-size="10.00">string</text>
</a>
</g>
</g>
<!-- Node2&#45;&gt;Node6 -->
<g id="edge5_Node000002_Node000006" class="edge">
<title>Node2&#45;&gt;Node6</title>
<g id="a_edge5_Node000002_Node000006"><a xlink:title=" ">
<path fill="none" stroke="#63b8ff" d="M1576.71,-348.58C1641.51,-344.03 1747.51,-332.75 1775.98,-306.75 1799.63,-285.16 1794.98,-269.27 1794.98,-237.25 1794.98,-237.25 1794.98,-237.25 1794.98,-174.38 1794.98,-128.27 1745.46,-95.81 1711.69,-79.03"/>
<polygon fill="#63b8ff" stroke="#63b8ff" points="1713.27,-75.9 1702.73,-74.79 1710.27,-82.23 1713.27,-75.9"/>
</a>
</g>
</g>
<!-- Node7 -->
<g id="Node000007" class="node">
<title>Node7</title>
<g id="a_Node000007"><a xlink:title=" ">
<polygon fill="#e0e0e0" stroke="#999999" points="1468.36,-74.5 1385.61,-74.5 1385.61,-55.25 1468.36,-55.25 1468.36,-74.5"/>
<text text-anchor="middle" x="1426.98" y="-61" font-family="Helvetica,sans-Serif" font-size="10.00">unordered_map</text>
</a>
</g>
</g>
<!-- Node2&#45;&gt;Node7 -->
<g id="edge6_Node000002_Node000007" class="edge">
<title>Node2&#45;&gt;Node7</title>
<g id="a_edge6_Node000002_Node000007"><a xlink:title=" ">
<path fill="none" stroke="#63b8ff" d="M1525.2,-342.28C1525.46,-320.7 1524.64,-264.91 1510.98,-221 1494.44,-167.84 1459.04,-111.96 1439.9,-84.03"/>
<polygon fill="#63b8ff" stroke="#63b8ff" points="1442.89,-82.2 1434.3,-76 1437.15,-86.2 1442.89,-82.2"/>
</a>
</g>
</g>
<!-- Node8 -->
<g id="Node000008" class="node">
<title>Node8</title>
<g id="a_Node000008"><a xlink:title=" ">
<polygon fill="#e0e0e0" stroke="#999999" points="1642.73,-74.5 1565.23,-74.5 1565.23,-55.25 1642.73,-55.25 1642.73,-74.5"/>
<text text-anchor="middle" x="1603.98" y="-61" font-family="Helvetica,sans-Serif" font-size="10.00">unordered_set</text>
</a>
</g>
</g>
<!-- Node2&#45;&gt;Node8 -->
<g id="edge7_Node000002_Node000008" class="edge">
<title>Node2&#45;&gt;Node8</title>
<g id="a_edge7_Node000002_Node000008"><a xlink:title=" ">
<path fill="none" stroke="#63b8ff" d="M1571.16,-342.33C1595.09,-335.74 1623.5,-324.72 1643.98,-306.75 1670.29,-283.67 1680.98,-272.24 1680.98,-237.25 1680.98,-237.25 1680.98,-237.25 1680.98,-174.38 1680.98,-135.6 1647.87,-101.02 1625.08,-81.81"/>
<polygon fill="#63b8ff" stroke="#63b8ff" points="1627.51,-79.28 1617.53,-75.73 1623.12,-84.73 1627.51,-79.28"/>
</a>
</g>
</g>
<!-- Node9 -->
<g id="Node000009" class="node">
<title>Node9</title>
<g id="a_Node000009"><a xlink:href="_types_8hpp.html" target="_top" xlink:title=" ">
<polygon fill="white" stroke="#666666" points="1547.48,-74.5 1486.48,-74.5 1486.48,-55.25 1547.48,-55.25 1547.48,-74.5"/>
<text text-anchor="middle" x="1516.98" y="-61" font-family="Helvetica,sans-Serif" font-size="10.00">Types.hpp</text>
</a>
</g>
</g>
<!-- Node2&#45;&gt;Node9 -->
<g id="edge8_Node000002_Node000009" class="edge">
<title>Node2&#45;&gt;Node9</title>
<g id="a_edge8_Node000002_Node000009"><a xlink:title=" ">
<path fill="none" stroke="#63b8ff" d="M1564.2,-342.35C1584.71,-335.73 1608.67,-324.67 1623.98,-306.75 1644.79,-282.4 1642.98,-269.27 1642.98,-237.25 1642.98,-237.25 1642.98,-237.25 1642.98,-174.38 1642.98,-144.05 1639.85,-132.5 1618.98,-110.5 1602.94,-93.58 1579.36,-82.69 1558.91,-75.92"/>
<polygon fill="#63b8ff" stroke="#63b8ff" points="1559.98,-72.58 1549.39,-73 1557.93,-79.28 1559.98,-72.58"/>
</a>
</g>
</g>
<!-- Node2&#45;&gt;Node12 -->
<g id="edge11_Node000002_Node000012" class="edge">
<title>Node2&#45;&gt;Node12</title>
<g id="a_edge11_Node000002_Node000012"><a xlink:title=" ">
<path fill="none" stroke="#63b8ff" d="M1473.07,-346.51C1360.57,-335.96 1096.36,-311.19 996.31,-301.81"/>
<polygon fill="#63b8ff" stroke="#63b8ff" points="996.74,-298.34 986.46,-300.89 996.09,-305.31 996.74,-298.34"/>
</a>
</g>
</g>
<!-- Node27 -->
<g id="Node000027" class="node">
<title>Node27</title>
<g id="a_Node000027"><a xlink:href="_base_i_o_8hpp.html" target="_top" xlink:title=" ">
<polygon fill="white" stroke="#666666" points="1365.11,-129.75 1286.86,-129.75 1286.86,-110.5 1365.11,-110.5 1365.11,-129.75"/>
<text text-anchor="middle" x="1325.98" y="-116.25" font-family="Helvetica,sans-Serif" font-size="10.00">io/BaseIO.hpp</text>
</a>
</g>
</g>
<!-- Node2&#45;&gt;Node27 -->
<g id="edge58_Node000002_Node000027" class="edge">
<title>Node2&#45;&gt;Node27</title>
<g id="a_edge58_Node000002_Node000027"><a xlink:title=" ">
<path fill="none" stroke="#63b8ff" d="M1522,-342.54C1519.02,-333.58 1514.41,-319.28 1510.98,-306.75 1493.18,-241.54 1507.46,-207.09 1453.98,-165.75 1431.44,-148.32 1401.59,-137.4 1376.38,-130.72"/>
<polygon fill="#63b8ff" stroke="#63b8ff" points="1377.55,-127.41 1367.01,-128.4 1375.87,-134.2 1377.55,-127.41"/>
</a>
</g>
</g>
<!-- Node2&#45;&gt;Node35 -->
<g id="edge59_Node000002_Node000035" class="edge">
<title>Node2&#45;&gt;Node35</title>
<g id="a_edge59_Node000002_Node000035"><a xlink:title=" ">
<path fill="none" stroke="#63b8ff" d="M1473.12,-349.89C1214.6,-342.24 75.55,-305.55 24.98,-251.5 15.72,-241.6 15.61,-230.79 24.98,-221 57.38,-187.19 820.22,-187.39 866.98,-185 898.06,-183.41 932.86,-181.35 960.57,-179.64"/>
<polygon fill="#63b8ff" stroke="#63b8ff" points="960.71,-183.14 970.48,-179.03 960.28,-176.15 960.71,-183.14"/>
</a>
</g>
</g>
<!-- Node10 -->
<g id="Node000010" class="node">
<title>Node10</title>
<g id="a_Node000010"><a xlink:title=" ">
<polygon fill="#e0e0e0" stroke="#999999" points="1541.11,-19.25 1492.86,-19.25 1492.86,0 1541.11,0 1541.11,-19.25"/>
<text text-anchor="middle" x="1516.98" y="-5.75" font-family="Helvetica,sans-Serif" font-size="10.00">cstddef</text>
</a>
</g>
</g>
<!-- Node9&#45;&gt;Node10 -->
<g id="edge9_Node000009_Node000010" class="edge">
<title>Node9&#45;&gt;Node10</title>
<g id="a_edge9_Node000009_Node000010"><a xlink:title=" ">
<path fill="none" stroke="#63b8ff" d="M1516.98,-55.08C1516.98,-48.57 1516.98,-39.42 1516.98,-31.12"/>
<polygon fill="#63b8ff" stroke="#63b8ff" points="1520.48,-31.12 1516.98,-21.12 1513.48,-31.12 1520.48,-31.12"/>
</a>
</g>
</g>
<!-- Node11 -->
<g id="Node000011" class="node">
<title>Node11</title>
<g id="a_Node000011"><a xlink:title=" ">
<polygon fill="#e0e0e0" stroke="#999999" points="1315.48,-19.25 1272.48,-19.25 1272.48,0 1315.48,0 1315.48,-19.25"/>
<text text-anchor="middle" x="1293.98" y="-5.75" font-family="Helvetica,sans-Serif" font-size="10.00">vector</text>
</a>
</g>
</g>
<!-- Node9&#45;&gt;Node11 -->
<g id="edge10_Node000009_Node000011" class="edge">
<title>Node9&#45;&gt;Node11</title>
<g id="a_edge10_Node000009_Node000011"><a xlink:title=" ">
<path fill="none" stroke="#63b8ff" d="M1486.44,-56.58C1444.59,-46.59 1369.73,-28.71 1326.75,-18.45"/>
<polygon fill="#63b8ff" stroke="#63b8ff" points="1327.79,-15.1 1317.25,-16.18 1326.17,-21.91 1327.79,-15.1"/>
</a>
</g>
</g>
<!-- Node12&#45;&gt;Node6 -->
<g id="edge20_Node000012_Node000006" class="edge">
<title>Node12&#45;&gt;Node6</title>
<g id="a_edge20_Node000012_Node000006"><a xlink:title=" ">
<path fill="none" stroke="#63b8ff" d="M984.66,-296.25C1080.79,-296.33 1399.38,-293.35 1490.98,-251.5 1574.18,-213.49 1642.52,-122.94 1669.08,-84.09"/>
<polygon fill="#63b8ff" stroke="#63b8ff" points="1671.94,-86.11 1674.59,-75.85 1666.12,-82.21 1671.94,-86.11"/>
</a>
</g>
</g>
<!-- Node13 -->
<g id="Node000013" class="node">
<title>Node13</title>
<g id="a_Node000013"><a xlink:title=" ">
<polygon fill="#e0e0e0" stroke="#999999" points="1158.86,-245.88 1103.11,-245.88 1103.11,-226.62 1158.86,-226.62 1158.86,-245.88"/>
<text text-anchor="middle" x="1130.98" y="-232.38" font-family="Helvetica,sans-Serif" font-size="10.00">algorithm</text>
</a>
</g>
</g>
<!-- Node12&#45;&gt;Node13 -->
<g id="edge12_Node000012_Node000013" class="edge">
<title>Node12&#45;&gt;Node13</title>
<g id="a_edge12_Node000012_Node000013"><a xlink:title=" ">
<path fill="none" stroke="#63b8ff" d="M984.94,-287.49C1012.73,-278.8 1056.5,-264.81 1093.98,-251.5 1095.12,-251.1 1096.27,-250.68 1097.43,-250.26"/>
<polygon fill="#63b8ff" stroke="#63b8ff" points="1098.4,-253.64 1106.54,-246.86 1095.95,-247.08 1098.4,-253.64"/>
</a>
</g>
</g>
<!-- Node14 -->
<g id="Node000014" class="node">
<title>Node14</title>
<g id="a_Node000014"><a xlink:title=" ">
<polygon fill="#e0e0e0" stroke="#999999" points="1222.61,-245.88 1177.36,-245.88 1177.36,-226.62 1222.61,-226.62 1222.61,-245.88"/>
<text text-anchor="middle" x="1199.98" y="-232.38" font-family="Helvetica,sans-Serif" font-size="10.00">chrono</text>
</a>
</g>
</g>
<!-- Node12&#45;&gt;Node14 -->
<g id="edge13_Node000012_Node000014" class="edge">
<title>Node12&#45;&gt;Node14</title>
<g id="a_edge13_Node000012_Node000014"><a xlink:title=" ">
<path fill="none" stroke="#63b8ff" d="M984.78,-292.16C1025.61,-285.91 1103.88,-272.3 1167.98,-251.5 1168.95,-251.19 1169.92,-250.86 1170.89,-250.51"/>
<polygon fill="#63b8ff" stroke="#63b8ff" points="1171.89,-253.88 1179.88,-246.92 1169.3,-247.38 1171.89,-253.88"/>
</a>
</g>
</g>
<!-- Node15 -->
<g id="Node000015" class="node">
<title>Node15</title>
<g id="a_Node000015"><a xlink:title=" ">
<polygon fill="#e0e0e0" stroke="#999999" points="1283.48,-245.88 1240.48,-245.88 1240.48,-226.62 1283.48,-226.62 1283.48,-245.88"/>
<text text-anchor="middle" x="1261.98" y="-232.38" font-family="Helvetica,sans-Serif" font-size="10.00">cmath</text>
</a>
</g>
</g>
<!-- Node12&#45;&gt;Node15 -->
<g id="edge14_Node000012_Node000015" class="edge">
<title>Node12&#45;&gt;Node15</title>
<g id="a_edge14_Node000012_Node000015"><a xlink:title=" ">
<path fill="none" stroke="#63b8ff" d="M984.9,-294.21C1035.26,-290.18 1144.25,-278.85 1231.98,-251.5 1232.95,-251.2 1233.92,-250.87 1234.89,-250.53"/>
<polygon fill="#63b8ff" stroke="#63b8ff" points="1235.9,-253.9 1243.79,-246.83 1233.21,-247.44 1235.9,-253.9"/>
</a>
</g>
</g>
<!-- Node16 -->
<g id="Node000016" class="node">
<title>Node16</title>
<g id="a_Node000016"><a xlink:title=" ">
<polygon fill="#e0e0e0" stroke="#999999" points="1194.61,-74.5 1149.36,-74.5 1149.36,-55.25 1194.61,-55.25 1194.61,-74.5"/>
<text text-anchor="middle" x="1171.98" y="-61" font-family="Helvetica,sans-Serif" font-size="10.00">cstdint</text>
</a>
</g>
</g>
<!-- Node12&#45;&gt;Node16 -->
<g id="edge15_Node000012_Node000016" class="edge">
<title>Node12&#45;&gt;Node16</title>
<g id="a_edge15_Node000012_Node000016"><a xlink:title=" ">
<path fill="none" stroke="#63b8ff" d="M929.16,-295.81C780.82,-294 88.75,-283.83 57.98,-251.5 48.64,-241.68 48.57,-230.76 57.98,-221 135.33,-140.82 958.54,-231.04 1059.98,-185 1106.99,-163.66 1143.73,-112.53 1161.07,-84.69"/>
<polygon fill="#63b8ff" stroke="#63b8ff" points="1163.99,-86.64 1166.15,-76.26 1157.99,-83.02 1163.99,-86.64"/>
</a>
</g>
</g>
<!-- Node17 -->
<g id="Node000017" class="node">
<title>Node17</title>
<g id="a_Node000017"><a xlink:title=" ">
<polygon fill="#e0e0e0" stroke="#999999" points="1462.98,-245.88 1422.98,-245.88 1422.98,-226.62 1462.98,-226.62 1462.98,-245.88"/>
<text text-anchor="middle" x="1442.98" y="-232.38" font-family="Helvetica,sans-Serif" font-size="10.00">ctime</text>
</a>
</g>
</g>
<!-- Node12&#45;&gt;Node17 -->
<g id="edge16_Node000012_Node000017" class="edge">
<title>Node12&#45;&gt;Node17</title>
<g id="a_edge16_Node000012_Node000017"><a xlink:title=" ">
<path fill="none" stroke="#63b8ff" d="M984.92,-296.83C1057.33,-297.93 1256.41,-296.31 1413.98,-251.5 1414.95,-251.22 1415.93,-250.92 1416.9,-250.59"/>
<polygon fill="#63b8ff" stroke="#63b8ff" points="1417.86,-253.98 1425.74,-246.89 1415.16,-247.52 1417.86,-253.98"/>
</a>
</g>
</g>
<!-- Node18 -->
<g id="Node000018" class="node">
<title>Node18</title>
<g id="a_Node000018"><a xlink:title=" ">
<polygon fill="#e0e0e0" stroke="#999999" points="116.86,-245.88 67.11,-245.88 67.11,-226.62 116.86,-226.62 116.86,-245.88"/>
<text text-anchor="middle" x="91.98" y="-232.38" font-family="Helvetica,sans-Serif" font-size="10.00">iomanip</text>
</a>
</g>
</g>
<!-- Node12&#45;&gt;Node18 -->
<g id="edge17_Node000012_Node000018" class="edge">
<title>Node12&#45;&gt;Node18</title>
<g id="a_edge17_Node000012_Node000018"><a xlink:title=" ">
<path fill="none" stroke="#63b8ff" d="M929.09,-295.91C802.81,-294.72 283.89,-287.68 125.98,-251.5 124.35,-251.12 122.69,-250.68 121.03,-250.17"/>
<polygon fill="#63b8ff" stroke="#63b8ff" points="122.32,-246.92 111.73,-246.79 119.93,-253.5 122.32,-246.92"/>
</a>
</g>
</g>
<!-- Node19 -->
<g id="Node000019" class="node">
<title>Node19</title>
<g id="a_Node000019"><a xlink:title=" ">
<polygon fill="#e0e0e0" stroke="#999999" points="174.98,-245.88 134.98,-245.88 134.98,-226.62 174.98,-226.62 174.98,-245.88"/>
<text text-anchor="middle" x="154.98" y="-232.38" font-family="Helvetica,sans-Serif" font-size="10.00">regex</text>
</a>
</g>
</g>
<!-- Node12&#45;&gt;Node19 -->
<g id="edge18_Node000012_Node000019" class="edge">
<title>Node12&#45;&gt;Node19</title>
<g id="a_edge18_Node000012_Node000019"><a xlink:title=" ">
<path fill="none" stroke="#63b8ff" d="M928.99,-295.99C807.91,-295.19 328.94,-289.63 183.98,-251.5 182.99,-251.24 181.98,-250.94 180.98,-250.61"/>
<polygon fill="#63b8ff" stroke="#63b8ff" points="182.47,-247.44 171.89,-246.86 179.8,-253.91 182.47,-247.44"/>
</a>
</g>
</g>
<!-- Node20 -->
<g id="Node000020" class="node">
<title>Node20</title>
<g id="a_Node000020"><a xlink:title=" ">
<polygon fill="#e0e0e0" stroke="#999999" points="244.61,-245.88 193.36,-245.88 193.36,-226.62 244.61,-226.62 244.61,-245.88"/>
<text text-anchor="middle" x="218.98" y="-232.38" font-family="Helvetica,sans-Serif" font-size="10.00">sstream</text>
</a>
</g>
</g>
<!-- Node12&#45;&gt;Node20 -->
<g id="edge19_Node000012_Node000020" class="edge">
<title>Node12&#45;&gt;Node20</title>
<g id="a_edge19_Node000012_Node000020"><a xlink:title=" ">
<path fill="none" stroke="#63b8ff" d="M929.32,-295.56C815.86,-293.05 386.01,-281.72 253.98,-251.5 252.22,-251.1 250.43,-250.61 248.64,-250.08"/>
<polygon fill="#63b8ff" stroke="#63b8ff" points="249.9,-246.81 239.3,-246.75 247.55,-253.4 249.9,-246.81"/>
</a>
</g>
</g>
<!-- Node21 -->
<g id="Node000021" class="node">
<title>Node21</title>
<g id="a_Node000021"><a xlink:title=" ">
<polygon fill="#e0e0e0" stroke="#999999" points="367.23,-245.88 262.73,-245.88 262.73,-226.62 367.23,-226.62 367.23,-245.88"/>
<text text-anchor="middle" x="314.98" y="-232.38" font-family="Helvetica,sans-Serif" font-size="10.00">boost/date_time.hpp</text>
</a>
</g>
</g>
<!-- Node12&#45;&gt;Node21 -->
<g id="edge21_Node000012_Node000021" class="edge">
<title>Node12&#45;&gt;Node21</title>
<g id="a_edge21_Node000012_Node000021"><a xlink:title=" ">
<path fill="none" stroke="#63b8ff" d="M929.05,-295.45C845.06,-293.11 587.64,-283.63 376.98,-251.5 371.93,-250.73 366.69,-249.77 361.47,-248.72"/>
<polygon fill="#63b8ff" stroke="#63b8ff" points="362.21,-245.3 351.7,-246.62 360.74,-252.14 362.21,-245.3"/>
</a>
</g>
</g>
<!-- Node22 -->
<g id="Node000022" class="node">
<title>Node22</title>
<g id="a_Node000022"><a xlink:title=" ">
<polygon fill="#e0e0e0" stroke="#999999" points="526.23,-245.88 385.73,-245.88 385.73,-226.62 526.23,-226.62 526.23,-245.88"/>
<text text-anchor="middle" x="455.98" y="-232.38" font-family="Helvetica,sans-Serif" font-size="10.00">boost/endian/conversion.hpp</text>
</a>
</g>
</g>
<!-- Node12&#45;&gt;Node22 -->
<g id="edge22_Node000012_Node000022" class="edge">
<title>Node12&#45;&gt;Node22</title>
<g id="a_edge22_Node000012_Node000022"><a xlink:title=" ">
<path fill="none" stroke="#63b8ff" d="M929.07,-293.85C861.44,-288.2 683.53,-272.43 535.98,-251.5 529.11,-250.52 521.92,-249.4 514.79,-248.21"/>
<polygon fill="#63b8ff" stroke="#63b8ff" points="515.64,-244.81 505.19,-246.57 514.46,-251.71 515.64,-244.81"/>
</a>
</g>
</g>
<!-- Node23 -->
<g id="Node000023" class="node">
<title>Node23</title>
<g id="a_Node000023"><a xlink:title=" ">
<polygon fill="#e0e0e0" stroke="#999999" points="645.36,-245.88 544.61,-245.88 544.61,-226.62 645.36,-226.62 645.36,-245.88"/>
<text text-anchor="middle" x="594.98" y="-232.38" font-family="Helvetica,sans-Serif" font-size="10.00">boost/uuid/uuid.hpp</text>
</a>
</g>
</g>
<!-- Node12&#45;&gt;Node23 -->
<g id="edge23_Node000012_Node000023" class="edge">
<title>Node12&#45;&gt;Node23</title>
<g id="a_edge23_Node000012_Node000023"><a xlink:title=" ">
<path fill="none" stroke="#63b8ff" d="M929.27,-292.9C875.79,-286.48 754.73,-271.04 653.98,-251.5 649.92,-250.71 645.71,-249.83 641.5,-248.9"/>
<polygon fill="#63b8ff" stroke="#63b8ff" points="642.44,-245.53 631.91,-246.7 640.88,-252.35 642.44,-245.53"/>
</a>
</g>
</g>
<!-- Node24 -->
<g id="Node000024" class="node">
<title>Node24</title>
<g id="a_Node000024"><a xlink:title=" ">
<polygon fill="#e0e0e0" stroke="#999999" points="814.86,-245.88 663.11,-245.88 663.11,-226.62 814.86,-226.62 814.86,-245.88"/>
<text text-anchor="middle" x="738.98" y="-232.38" font-family="Helvetica,sans-Serif" font-size="10.00">boost/uuid/uuid_generators.hpp</text>
</a>
</g>
</g>
<!-- Node12&#45;&gt;Node24 -->
<g id="edge24_Node000012_Node000024" class="edge">
<title>Node12&#45;&gt;Node24</title>
<g id="a_edge24_Node000012_Node000024"><a xlink:title=" ">
<path fill="none" stroke="#63b8ff" d="M929.37,-288.67C892.59,-278.73 827.08,-261.04 783.33,-249.23"/>
<polygon fill="#63b8ff" stroke="#63b8ff" points="784.46,-245.91 773.89,-246.68 782.63,-252.66 784.46,-245.91"/>
</a>
</g>
</g>
<!-- Node25 -->
<g id="Node000025" class="node">
<title>Node25</title>
<g id="a_Node000025"><a xlink:title=" ">
<polygon fill="#e0e0e0" stroke="#999999" points="946.73,-245.88 833.23,-245.88 833.23,-226.62 946.73,-226.62 946.73,-245.88"/>
<text text-anchor="middle" x="889.98" y="-232.38" font-family="Helvetica,sans-Serif" font-size="10.00">boost/uuid/uuid_io.hpp</text>
</a>
</g>
</g>
<!-- Node12&#45;&gt;Node25 -->
<g id="edge25_Node000012_Node000025" class="edge">
<title>Node12&#45;&gt;Node25</title>
<g id="a_edge25_Node000012_Node000025"><a xlink:title=" ">
<path fill="none" stroke="#63b8ff" d="M946.81,-287.18C936.77,-278.37 921.19,-264.68 908.89,-253.86"/>
<polygon fill="#63b8ff" stroke="#63b8ff" points="911.21,-251.25 901.39,-247.28 906.59,-256.51 911.21,-251.25"/>
</a>
</g>
</g>
<!-- Node26 -->
<g id="Node000026" class="node">
<title>Node26</title>
<g id="a_Node000026"><a xlink:title=" ">
<polygon fill="#e0e0e0" stroke="#999999" points="1084.73,-251.5 965.23,-251.5 965.23,-221 1084.73,-221 1084.73,-251.5"/>
<text text-anchor="start" x="973.23" y="-238" font-family="Helvetica,sans-Serif" font-size="10.00">boost/date_time/c_local</text>
<text text-anchor="middle" x="1024.98" y="-226.75" font-family="Helvetica,sans-Serif" font-size="10.00">_time_adjustor.hpp</text>
</a>
</g>
</g>
<!-- Node12&#45;&gt;Node26 -->
<g id="edge26_Node000012_Node000026" class="edge">
<title>Node12&#45;&gt;Node26</title>
<g id="a_edge26_Node000012_Node000026"><a xlink:title=" ">
<path fill="none" stroke="#63b8ff" d="M967.31,-287.18C975.87,-279.77 988.41,-268.92 999.61,-259.22"/>
<polygon fill="#63b8ff" stroke="#63b8ff" points="1001.79,-261.96 1007.06,-252.77 997.2,-256.67 1001.79,-261.96"/>
</a>
</g>
</g>
<!-- Node12&#45;&gt;Node27 -->
<g id="edge27_Node000012_Node000027" class="edge">
<title>Node12&#45;&gt;Node27</title>
<g id="a_edge27_Node000012_Node000027"><a xlink:title=" ">
<path fill="none" stroke="#63b8ff" d="M984.77,-295.86C1087.1,-294.59 1438.85,-287.63 1471.98,-251.5 1514.83,-204.78 1417.69,-156.91 1361.84,-134.38"/>
<polygon fill="#63b8ff" stroke="#63b8ff" points="1363.27,-131.19 1352.68,-130.78 1360.7,-137.7 1363.27,-131.19"/>
</a>
</g>
</g>
<!-- Node33 -->
<g id="Node000033" class="node">
<title>Node33</title>
<g id="a_Node000033"><a xlink:href="_h_d_f5_i_o_8hpp.html" target="_top" xlink:title=" ">
<polygon fill="white" stroke="#666666" points="1404.86,-245.88 1301.11,-245.88 1301.11,-226.62 1404.86,-226.62 1404.86,-245.88"/>
<text text-anchor="middle" x="1352.98" y="-232.38" font-family="Helvetica,sans-Serif" font-size="10.00">io/hdf5/HDF5IO.hpp</text>
</a>
</g>
</g>
<!-- Node12&#45;&gt;Node33 -->
<g id="edge40_Node000012_Node000033" class="edge">
<title>Node12&#45;&gt;Node33</title>
<g id="a_edge40_Node000012_Node000033"><a xlink:title=" ">
<path fill="none" stroke="#63b8ff" d="M984.92,-293.33C1042.59,-287.36 1178.86,-272.2 1291.98,-251.5 1296.37,-250.7 1300.92,-249.79 1305.46,-248.82"/>
<polygon fill="#63b8ff" stroke="#63b8ff" points="1306.17,-252.25 1315.18,-246.67 1304.66,-245.41 1306.17,-252.25"/>
</a>
</g>
</g>
<!-- Node27&#45;&gt;Node5 -->
<g id="edge31_Node000027_Node000005" class="edge">
<title>Node27&#45;&gt;Node5</title>
<g id="a_edge31_Node000027_Node000005"><a xlink:title=" ">
<path fill="none" stroke="#63b8ff" d="M1286.47,-116.96C1211.19,-112.43 1041.89,-100.34 889.81,-74.57"/>
<polygon fill="#63b8ff" stroke="#63b8ff" points="890.83,-71.19 880.38,-72.95 889.65,-78.09 890.83,-71.19"/>
</a>
</g>
</g>
<!-- Node27&#45;&gt;Node6 -->
<g id="edge32_Node000027_Node000006" class="edge">
<title>Node27&#45;&gt;Node6</title>
<g id="a_edge32_Node000027_Node000006"><a xlink:title=" ">
<path fill="none" stroke="#63b8ff" d="M1365.46,-115.69C1425.07,-110.07 1541.72,-97.43 1649.43,-74.76"/>
<polygon fill="#63b8ff" stroke="#63b8ff" points="1649.96,-78.23 1659.01,-72.71 1648.5,-71.38 1649.96,-78.23"/>
</a>
</g>
</g>
<!-- Node27&#45;&gt;Node7 -->
<g id="edge34_Node000027_Node000007" class="edge">
<title>Node27&#45;&gt;Node7</title>
<g id="a_edge34_Node000027_Node000007"><a xlink:title=" ">
<path fill="none" stroke="#63b8ff" d="M1343.12,-110.09C1358.64,-101.91 1381.78,-89.71 1399.83,-80.19"/>
<polygon fill="#63b8ff" stroke="#63b8ff" points="1401.21,-83.42 1408.43,-75.66 1397.95,-77.23 1401.21,-83.42"/>
</a>
</g>
</g>
<!-- Node27&#45;&gt;Node8 -->
<g id="edge35_Node000027_Node000008" class="edge">
<title>Node27&#45;&gt;Node8</title>
<g id="a_edge35_Node000027_Node000008"><a xlink:title=" ">
<path fill="none" stroke="#63b8ff" d="M1365.52,-111.55C1415.06,-102.06 1500,-85.79 1554,-75.45"/>
<polygon fill="#63b8ff" stroke="#63b8ff" points="1554.38,-78.94 1563.55,-73.62 1553.07,-72.06 1554.38,-78.94"/>
</a>
</g>
</g>
<!-- Node27&#45;&gt;Node9 -->
<g id="edge39_Node000027_Node000009" class="edge">
<title>Node27&#45;&gt;Node9</title>
<g id="a_edge39_Node000027_Node000009"><a xlink:title=" ">
<path fill="none" stroke="#63b8ff" d="M1358.38,-110.09C1390.56,-101.12 1440.02,-87.33 1475.15,-77.54"/>
<polygon fill="#63b8ff" stroke="#63b8ff" points="1475.86,-80.97 1484.55,-74.92 1473.98,-74.23 1475.86,-80.97"/>
</a>
</g>
</g>
<!-- Node27&#45;&gt;Node11 -->
<g id="edge37_Node000027_Node000011" class="edge">
<title>Node27&#45;&gt;Node11</title>
<g id="a_edge37_Node000027_Node000011"><a xlink:title=" ">
<path fill="none" stroke="#63b8ff" d="M1323.37,-110.25C1318.26,-92.92 1306.84,-54.23 1299.84,-30.49"/>
<polygon fill="#63b8ff" stroke="#63b8ff" points="1303.25,-29.68 1297.07,-21.08 1296.54,-31.66 1303.25,-29.68"/>
</a>
</g>
</g>
<!-- Node27&#45;&gt;Node16 -->
<g id="edge29_Node000027_Node000016" class="edge">
<title>Node27&#45;&gt;Node16</title>
<g id="a_edge29_Node000027_Node000016"><a xlink:title=" ">
<path fill="none" stroke="#63b8ff" d="M1299.86,-110.09C1273.8,-101.08 1233.67,-87.2 1205.32,-77.4"/>
<polygon fill="#63b8ff" stroke="#63b8ff" points="1206.74,-74.19 1196.15,-74.23 1204.46,-80.81 1206.74,-74.19"/>
</a>
</g>
</g>
<!-- Node28 -->
<g id="Node000028" class="node">
<title>Node28</title>
<g id="a_Node000028"><a xlink:title=" ">
<polygon fill="#e0e0e0" stroke="#999999" points="928.86,-74.5 897.11,-74.5 897.11,-55.25 928.86,-55.25 928.86,-74.5"/>
<text text-anchor="middle" x="912.98" y="-61" font-family="Helvetica,sans-Serif" font-size="10.00">any</text>
</a>
</g>
</g>
<!-- Node27&#45;&gt;Node28 -->
<g id="edge28_Node000027_Node000028" class="edge">
<title>Node27&#45;&gt;Node28</title>
<g id="a_edge28_Node000027_Node000028"><a xlink:title=" ">
<path fill="none" stroke="#63b8ff" d="M1286.41,-117.42C1217.62,-113.84 1071.56,-103.55 940.28,-74.54"/>
<polygon fill="#63b8ff" stroke="#63b8ff" points="941.24,-71.17 930.72,-72.39 939.7,-78 941.24,-71.17"/>
</a>
</g>
</g>
<!-- Node29 -->
<g id="Node000029" class="node">
<title>Node29</title>
<g id="a_Node000029"><a xlink:title=" ">
<polygon fill="#e0e0e0" stroke="#999999" points="1265.73,-74.5 1212.23,-74.5 1212.23,-55.25 1265.73,-55.25 1265.73,-74.5"/>
<text text-anchor="middle" x="1238.98" y="-61" font-family="Helvetica,sans-Serif" font-size="10.00">iostream</text>
</a>
</g>
</g>
<!-- Node27&#45;&gt;Node29 -->
<g id="edge30_Node000027_Node000029" class="edge">
<title>Node27&#45;&gt;Node29</title>
<g id="a_edge30_Node000027_Node000029"><a xlink:title=" ">
<path fill="none" stroke="#63b8ff" d="M1311.23,-110.09C1298.1,-102.06 1278.66,-90.16 1263.25,-80.73"/>
<polygon fill="#63b8ff" stroke="#63b8ff" points="1265.46,-77.98 1255.11,-75.74 1261.81,-83.95 1265.46,-77.98"/>
</a>
</g>
</g>
<!-- Node30 -->
<g id="Node000030" class="node">
<title>Node30</title>
<g id="a_Node000030"><a xlink:title=" ">
<polygon fill="#e0e0e0" stroke="#999999" points="1004.98,-74.5 946.98,-74.5 946.98,-55.25 1004.98,-55.25 1004.98,-74.5"/>
<text text-anchor="middle" x="975.98" y="-61" font-family="Helvetica,sans-Serif" font-size="10.00">typeindex</text>
</a>
</g>
</g>
<!-- Node27&#45;&gt;Node30 -->
<g id="edge33_Node000027_Node000030" class="edge">
<title>Node27&#45;&gt;Node30</title>
<g id="a_edge33_Node000027_Node000030"><a xlink:title=" ">
<path fill="none" stroke="#63b8ff" d="M1286.42,-114.51C1229.1,-107.6 1119.44,-93.52 1016.6,-74.86"/>
<polygon fill="#63b8ff" stroke="#63b8ff" points="1017.35,-71.43 1006.88,-73.07 1016.09,-78.32 1017.35,-71.43"/>
</a>
</g>
</g>
<!-- Node31 -->
<g id="Node000031" class="node">
<title>Node31</title>
<g id="a_Node000031"><a xlink:title=" ">
<polygon fill="#e0e0e0" stroke="#999999" points="1367.61,-74.5 1322.36,-74.5 1322.36,-55.25 1367.61,-55.25 1367.61,-74.5"/>
<text text-anchor="middle" x="1344.98" y="-61" font-family="Helvetica,sans-Serif" font-size="10.00">variant</text>
</a>
</g>
</g>
<!-- Node27&#45;&gt;Node31 -->
<g id="edge36_Node000027_Node000031" class="edge">
<title>Node27&#45;&gt;Node31</title>
<g id="a_edge36_Node000027_Node000031"><a xlink:title=" ">
<path fill="none" stroke="#63b8ff" d="M1329.12,-110.33C1331.53,-103.59 1334.94,-94.02 1337.98,-85.49"/>
<polygon fill="#63b8ff" stroke="#63b8ff" points="1341.21,-86.88 1341.27,-76.28 1334.61,-84.53 1341.21,-86.88"/>
</a>
</g>
</g>
<!-- Node32 -->
<g id="Node000032" class="node">
<title>Node32</title>
<g id="a_Node000032"><a xlink:title=" ">
<polygon fill="#e0e0e0" stroke="#999999" points="1131.11,-74.5 1022.86,-74.5 1022.86,-55.25 1131.11,-55.25 1131.11,-74.5"/>
<text text-anchor="middle" x="1076.98" y="-61" font-family="Helvetica,sans-Serif" font-size="10.00">boost/multi_array.hpp</text>
</a>
</g>
</g>
<!-- Node27&#45;&gt;Node32 -->
<g id="edge38_Node000027_Node000032" class="edge">
<title>Node27&#45;&gt;Node32</title>
<g id="a_edge38_Node000027_Node000032"><a xlink:title=" ">
<path fill="none" stroke="#63b8ff" d="M1286.53,-110.69C1244.47,-101.69 1177.6,-87.39 1130.75,-77.37"/>
<polygon fill="#63b8ff" stroke="#63b8ff" points="1131.58,-73.97 1121.07,-75.3 1130.12,-80.82 1131.58,-73.97"/>
</a>
</g>
</g>
<!-- Node33&#45;&gt;Node5 -->
<g id="edge42_Node000033_Node000005" class="edge">
<title>Node33&#45;&gt;Node5</title>
<g id="a_edge42_Node000033_Node000005"><a xlink:title=" ">
<path fill="none" stroke="#63b8ff" d="M1317.33,-226.16C1309.05,-224.26 1300.24,-222.41 1291.98,-221 1146.99,-196.22 1094.32,-251.24 962.98,-185 917.27,-161.95 881,-111.53 863.82,-84.26"/>
<polygon fill="#63b8ff" stroke="#63b8ff" points="866.99,-82.75 858.8,-76.04 861.02,-86.4 866.99,-82.75"/>
</a>
</g>
</g>
<!-- Node33&#45;&gt;Node6 -->
<g id="edge43_Node000033_Node000006" class="edge">
<title>Node33&#45;&gt;Node6</title>
<g id="a_edge43_Node000033_Node000006"><a xlink:title=" ">
<path fill="none" stroke="#63b8ff" d="M1370.62,-226.14C1424.69,-198.22 1588.45,-113.66 1653.71,-79.96"/>
<polygon fill="#63b8ff" stroke="#63b8ff" points="1655.04,-83.21 1662.32,-75.52 1651.82,-76.99 1655.04,-83.21"/>
</a>
</g>
</g>
<!-- Node33&#45;&gt;Node9 -->
<g id="edge45_Node000033_Node000009" class="edge">
<title>Node33&#45;&gt;Node9</title>
<g id="a_edge45_Node000033_Node000009"><a xlink:title=" ">
<path fill="none" stroke="#63b8ff" d="M1361.8,-226.14C1388.18,-198.91 1466.73,-117.77 1500.86,-82.53"/>
<polygon fill="#63b8ff" stroke="#63b8ff" points="1503.02,-85.32 1507.47,-75.7 1498,-80.45 1503.02,-85.32"/>
</a>
</g>
</g>
<!-- Node33&#45;&gt;Node27 -->
<g id="edge46_Node000033_Node000027" class="edge">
<title>Node33&#45;&gt;Node27</title>
<g id="a_edge46_Node000033_Node000027"><a xlink:title=" ">
<path fill="none" stroke="#63b8ff" d="M1352.99,-226.53C1352.81,-213.21 1351.68,-187.07 1345.98,-165.75 1343.66,-157.04 1339.82,-147.88 1336.13,-140.14"/>
<polygon fill="#63b8ff" stroke="#63b8ff" points="1339.34,-138.73 1331.7,-131.39 1333.09,-141.89 1339.34,-138.73"/>
</a>
</g>
</g>
<!-- Node33&#45;&gt;Node29 -->
<g id="edge41_Node000033_Node000029" class="edge">
<title>Node33&#45;&gt;Node29</title>
<g id="a_edge41_Node000033_Node000029"><a xlink:title=" ">
<path fill="none" stroke="#63b8ff" d="M1320.13,-226.24C1299.02,-218.72 1272.86,-205.79 1257.98,-185 1236.92,-155.57 1235.64,-111.59 1237.03,-86.12"/>
<polygon fill="#63b8ff" stroke="#63b8ff" points="1240.49,-86.69 1237.76,-76.46 1233.51,-86.16 1240.49,-86.69"/>
</a>
</g>
</g>
<!-- Node34 -->
<g id="Node000034" class="node">
<title>Node34</title>
<g id="a_Node000034"><a xlink:title=" ">
<polygon fill="#e0e0e0" stroke="#999999" points="1336.98,-185 1266.98,-185 1266.98,-165.75 1336.98,-165.75 1336.98,-185"/>
<text text-anchor="middle" x="1301.98" y="-171.5" font-family="Helvetica,sans-Serif" font-size="10.00">H5Opublic.h</text>
</a>
</g>
</g>
<!-- Node33&#45;&gt;Node34 -->
<g id="edge44_Node000033_Node000034" class="edge">
<title>Node33&#45;&gt;Node34</title>
<g id="a_edge44_Node000033_Node000034"><a xlink:title=" ">
<path fill="none" stroke="#63b8ff" d="M1345.24,-226.31C1337.82,-217.75 1326.44,-204.6 1317.2,-193.95"/>
<polygon fill="#63b8ff" stroke="#63b8ff" points="1319.99,-191.81 1310.79,-186.55 1314.7,-196.4 1319.99,-191.81"/>
</a>
</g>
</g>
<!-- Node33&#45;&gt;Node35 -->
<g id="edge47_Node000033_Node000035" class="edge">
<title>Node33&#45;&gt;Node35</title>
<g id="a_edge47_Node000033_Node000035"><a xlink:title=" ">
<path fill="none" stroke="#63b8ff" d="M1315.98,-226.16C1308.08,-224.34 1299.77,-222.53 1291.98,-221 1212.22,-205.35 1118.86,-191.32 1062.63,-183.34"/>
<polygon fill="#63b8ff" stroke="#63b8ff" points="1063.45,-179.92 1053.05,-181.98 1062.47,-186.85 1063.45,-179.92"/>
</a>
</g>
</g>
<!-- Node35&#45;&gt;Node5 -->
<g id="edge51_Node000035_Node000005" class="edge">
<title>Node35&#45;&gt;Node5</title>
<g id="a_edge51_Node000035_Node000005"><a xlink:title=" ">
<path fill="none" stroke="#63b8ff" d="M998.7,-165.31C971.51,-146.76 909.24,-104.26 875.58,-81.29"/>
<polygon fill="#63b8ff" stroke="#63b8ff" points="877.6,-78.44 867.37,-75.69 873.65,-84.22 877.6,-78.44"/>
</a>
</g>
</g>
<!-- Node35&#45;&gt;Node6 -->
<g id="edge52_Node000035_Node000006" class="edge">
<title>Node35&#45;&gt;Node6</title>
<g id="a_edge52_Node000035_Node000006"><a xlink:title=" ">
<path fill="none" stroke="#63b8ff" d="M1051.86,-171.51C1124.32,-165.96 1282.3,-152.26 1413.98,-129.75 1517.47,-112.06 1545.19,-102.89 1649.7,-75.01"/>
<polygon fill="#63b8ff" stroke="#63b8ff" points="1650.52,-78.41 1659.28,-72.45 1648.72,-71.64 1650.52,-78.41"/>
</a>
</g>
</g>
<!-- Node35&#45;&gt;Node9 -->
<g id="edge57_Node000035_Node000009" class="edge">
<title>Node35&#45;&gt;Node9</title>
<g id="a_edge57_Node000035_Node000009"><a xlink:title=" ">
<path fill="none" stroke="#63b8ff" d="M1051.84,-173.31C1119.33,-170.67 1259.9,-161.49 1373.98,-129.75 1416.77,-117.85 1463.16,-95.13 1491.15,-80.25"/>
<polygon fill="#63b8ff" stroke="#63b8ff" points="1492.81,-83.33 1499.94,-75.5 1489.48,-77.17 1492.81,-83.33"/>
</a>
</g>
</g>
<!-- Node35&#45;&gt;Node11 -->
<g id="edge54_Node000035_Node000011" class="edge">
<title>Node35&#45;&gt;Node11</title>
<g id="a_edge54_Node000035_Node000011"><a xlink:title=" ">
<path fill="none" stroke="#63b8ff" d="M972.09,-166.28C901.56,-150.31 766.89,-111.36 817.98,-55.25 847.75,-22.56 1157.69,-13.37 1260.82,-11.21"/>
<polygon fill="#63b8ff" stroke="#63b8ff" points="1260.62,-14.72 1270.55,-11.02 1260.48,-7.72 1260.62,-14.72"/>
</a>
</g>
</g>
<!-- Node35&#45;&gt;Node16 -->
<g id="edge49_Node000035_Node000016" class="edge">
<title>Node35&#45;&gt;Node16</title>
<g id="a_edge49_Node000035_Node000016"><a xlink:title=" ">
<path fill="none" stroke="#63b8ff" d="M1018.77,-165.51C1029.35,-152.15 1050.99,-126.7 1073.98,-110.5 1093.75,-96.57 1118.56,-85.33 1138.27,-77.61"/>
<polygon fill="#63b8ff" stroke="#63b8ff" points="1139.38,-80.93 1147.5,-74.12 1136.91,-74.38 1139.38,-80.93"/>
</a>
</g>
</g>
<!-- Node35&#45;&gt;Node27 -->
<g id="edge56_Node000035_Node000027" class="edge">
<title>Node35&#45;&gt;Node27</title>
<g id="a_edge56_Node000035_Node000027"><a xlink:title=" ">
<path fill="none" stroke="#63b8ff" d="M1051.75,-167.63C1108.61,-157.99 1213.14,-140.26 1275.42,-129.7"/>
<polygon fill="#63b8ff" stroke="#63b8ff" points="1275.77,-133.19 1285.05,-128.07 1274.6,-126.29 1275.77,-133.19"/>
</a>
</g>
</g>
<!-- Node35&#45;&gt;Node28 -->
<g id="edge48_Node000035_Node000028" class="edge">
<title>Node35&#45;&gt;Node28</title>
<g id="a_edge48_Node000035_Node000028"><a xlink:title=" ">
<path fill="none" stroke="#63b8ff" d="M1003.88,-165.5C987.49,-147.53 950.15,-106.61 928.78,-83.19"/>
<polygon fill="#63b8ff" stroke="#63b8ff" points="931.54,-81.02 922.22,-75.99 926.37,-85.74 931.54,-81.02"/>
</a>
</g>
</g>
<!-- Node35&#45;&gt;Node29 -->
<g id="edge50_Node000035_Node000029" class="edge">
<title>Node35&#45;&gt;Node29</title>
<g id="a_edge50_Node000035_Node000029"><a xlink:title=" ">
<path fill="none" stroke="#63b8ff" d="M1030.95,-165.31C1070.59,-146.36 1162.46,-102.45 1209.73,-79.86"/>
<polygon fill="#63b8ff" stroke="#63b8ff" points="1211.04,-83.11 1218.55,-75.64 1208.02,-76.8 1211.04,-83.11"/>
</a>
</g>
</g>
<!-- Node35&#45;&gt;Node30 -->
<g id="edge53_Node000035_Node000030" class="edge">
<title>Node35&#45;&gt;Node30</title>
<g id="a_edge53_Node000035_Node000030"><a xlink:title=" ">
<path fill="none" stroke="#63b8ff" d="M1009.04,-165.5C1003.29,-148.17 990.45,-109.48 982.57,-85.74"/>
<polygon fill="#63b8ff" stroke="#63b8ff" points="985.92,-84.7 979.45,-76.31 979.27,-86.91 985.92,-84.7"/>
</a>
</g>
</g>
<!-- Node35&#45;&gt;Node32 -->
<g id="edge55_Node000035_Node000032" class="edge">
<title>Node35&#45;&gt;Node32</title>
<g id="a_edge55_Node000035_Node000032"><a xlink:title=" ">
<path fill="none" stroke="#63b8ff" d="M1014.12,-165.63C1017.49,-152.86 1024.82,-128.66 1035.98,-110.5 1042.15,-100.47 1050.76,-90.68 1058.5,-82.84"/>
<polygon fill="#63b8ff" stroke="#63b8ff" points="1060.85,-85.43 1065.6,-75.96 1055.98,-80.41 1060.85,-85.43"/>
</a>
</g>
</g>
</g>
</svg>

<g id="navigator" transform="translate(0 0)" fill="#404254">
  <rect fill="#f2f5e9" fill-opacity="0.5" stroke="#606060" stroke-width=".5" x="0" y="0" width="60" height="60"/>
  <use id="zoomplus" xlink:href="#zoomPlus" x="17" y="9" onmousedown="handleZoom(evt,'in')"/>
  <use id="zoomminus" xlink:href="#zoomMin" x="42" y="9" onmousedown="handleZoom(evt,'out')"/>
  <use id="reset" xlink:href="#resetDef" x="30" y="36" onmousedown="handleReset()"/>
   <use id="arrowup" xlink:href="#arrowUp" x="0" y="0" onmousedown="handlePan(0,-1)"/>
  <use id="arrowright" xlink:href="#arrowRight" x="0" y="0" onmousedown="handlePan(1,0)"/>
  <use id="arrowdown" xlink:href="#arrowDown" x="0" y="0" onmousedown="handlePan(0,1)"/>
  <use id="arrowleft" xlink:href="#arrowLeft" x="0" y="0" onmousedown="handlePan(-1,0)"/>
</g>
<svg viewBox="0 0 15 15" width="100%" height="30px" preserveAspectRatio="xMaxYMin meet">
 <g id="arrow_out" transform="scale(0.3 0.3)">
  <a xlink:href="_registered_type_8cpp__incl_org.svg" target="_base">
   <rect id="button" ry="5" rx="5" y="6" x="6" height="38" width="38"
        fill="#f2f5e9" fill-opacity="0.5" stroke="#606060" stroke-width="1.0"/>
   <path id="arrow"
     d="M 11.500037,31.436501 C 11.940474,20.09759 22.043105,11.32322 32.158766,21.979434 L 37.068811,17.246167 C 37.068811,17.246167 37.088388,32 37.088388,32 L 22.160133,31.978069 C 22.160133,31.978069 26.997745,27.140456 26.997745,27.140456 C 18.528582,18.264221 13.291696,25.230495 11.500037,31.436501 z"
     style="fill:#404040;"/>
  </a>
 </g>
</svg>

<style type='text/css'>
<![CDATA[
[data-mouse-over-selected='false'] { opacity: 0.7; }
[data-mouse-over-selected='true']  { opacity: 1.0; }
]]>
</style>
<script type="application/ecmascript"><![CDATA[
document.addEventListener('DOMContentLoaded', (event) => {
  highlightEdges();
  highlightAdjacentNodes();
});
]]></script>
</svg>
