<?xml version="1.0" encoding="UTF-8" standalone="no"?>
<!DOCTYPE svg PUBLIC "-//W3C//DTD SVG 1.1//EN"
 "http://www.w3.org/Graphics/SVG/1.1/DTD/svg11.dtd">
<!-- Generated by graphviz version 14.1.2 (20260124.0452)
 -->
<!-- Title: src/nwb/RegisteredType.hpp Pages: 1 -->
<!--zoomable 359 -->

<svg id="main" version="1.1" xmlns="http://www.w3.org/2000/svg" xmlns:xlink="http://www.w3.org/1999/xlink" xml:space="preserve" onload="init(evt)">

<style type="text/css"><![CDATA[
.node, .edge {opacity: 0.7;}
.node.selected, .edge.selected {opacity: 1;}
.edge:hover path { stroke: red; }
.edge:hover polygon { stroke: red; fill: red; }
]]></style>

<defs>
  <circle id="rim" cx="0" cy="0" r="7"/>
  <circle id="rim2" cx="0" cy="0" r="3.5"/>
  <g id="zoomPlus">
    <use xlink:href="#rim" fill="#404040"><set attributeName="fill" to="#808080" begin="zoomplus.mouseover" end="zoomplus.mouseout"/></use>
    <path d="M-4,0h8M0,-4v8" fill="none" stroke="white" stroke-width="1.5" pointer-events="none"/>
  </g>
  <g id="zoomMin">
    <use xlink:href="#rim" fill="#404040"><set attributeName="fill" to="#808080" begin="zoomminus.mouseover" end="zoomminus.mouseout"/></use>
    <path d="M-4,0h8" fill="none" stroke="white" stroke-width="1.5" pointer-events="none"/>
  </g>
  <g id="arrowUp" transform="translate(30 24)">
    <use xlink:href="#rim"/>
    <path pointer-events="none" fill="none" stroke="white" stroke-width="1.5" d="M0,-3.0v7 M-2.5,-0.5L0,-3.0L2.5,-0.5"/>
  </g>
  <g id="arrowRight" transform="rotate(90) translate(36 -43)">
    <use xlink:href="#rim"/>
    <path pointer-events="none" fill="none" stroke="white" stroke-width="1.5" d="M0,-3.0v7 M-2.5,-0.5L0,-3.0L2.5,-0.5"/>
  </g>
  <g id="arrowDown" transform="rotate(180) translate(-30 -48)">
    <use xlink:href="#rim"/>
    <path pointer-events="none" fill="none" stroke="white" stroke-width="1.5" d="M0,-3.0v7 M-2.5,-0.5L0,-3.0L2.5,-0.5"/>
  </g>
  <g id="arrowLeft" transform="rotate(270) translate(-36 17)">
    <use xlink:href="#rim"/>
    <path pointer-events="none" fill="none" stroke="white" stroke-width="1.5" d="M0,-3.0v7 M-2.5,-0.5L0,-3.0L2.5,-0.5"/>
  </g>
  <g id="resetDef">
    <use xlink:href="#rim2" fill="#404040"><set attributeName="fill" to="#808080" begin="reset.mouseover" end="reset.mouseout"/></use>
  </g>
</defs>
<script type="application/ecmascript">
var viewWidth = 1471;
var viewHeight = 359;
var sectionId = 'dynsection-0';
</script>
<script type="application/ecmascript" xlink:href="svg.min.js"/>
<svg id="graph" class="graph">
<g id="viewport">
<title>src/nwb/RegisteredType.hpp</title>
<!-- Node1 -->
<g id="Node000001" class="node">
<title>Node1</title>
<g id="a_Node000001"><a xlink:title=" ">
<polygon fill="#999999" stroke="#666666" points="606.75,-350.75 466.25,-350.75 466.25,-331.5 606.75,-331.5 606.75,-350.75"/>
<text xml:space="preserve" text-anchor="middle" x="536.5" y="-337.25" font-family="Helvetica,sans-Serif" font-size="10.00">src/nwb/RegisteredType.hpp</text>
</a>
</g>
</g>
<!-- Node2 -->
<g id="Node000002" class="node">
<title>Node2</title>
<g id="a_Node000002"><a xlink:title=" ">
<polygon fill="#e0e0e0" stroke="#999999" points="61,-295.5 0,-295.5 0,-276.25 61,-276.25 61,-295.5"/>
<text xml:space="preserve" text-anchor="middle" x="30.5" y="-282" font-family="Helvetica,sans-Serif" font-size="10.00">filesystem</text>
</a>
</g>
</g>
<!-- Node1&#45;&gt;Node2 -->
<g id="edge1_Node000001_Node000002" class="edge">
<title>Node1&#45;&gt;Node2</title>
<g id="a_edge1_Node000001_Node000002"><a xlink:title=" ">
<path fill="none" stroke="#63b8ff" d="M465.92,-335.94C376.68,-330.08 218.15,-317.76 72.78,-295.67"/>
<polygon fill="#63b8ff" stroke="#63b8ff" points="73.35,-292.22 62.94,-294.15 72.29,-299.13 73.35,-292.22"/>
</a>
</g>
</g>
<!-- Node3 -->
<g id="Node000003" class="node">
<title>Node3</title>
<g id="a_Node000003"><a xlink:title=" ">
<polygon fill="#e0e0e0" stroke="#999999" points="137.5,-295.5 79.5,-295.5 79.5,-276.25 137.5,-276.25 137.5,-295.5"/>
<text xml:space="preserve" text-anchor="middle" x="108.5" y="-282" font-family="Helvetica,sans-Serif" font-size="10.00">functional</text>
</a>
</g>
</g>
<!-- Node1&#45;&gt;Node3 -->
<g id="edge2_Node000001_Node000003" class="edge">
<title>Node1&#45;&gt;Node3</title>
<g id="a_edge2_Node000001_Node000003"><a xlink:title=" ">
<path fill="none" stroke="#63b8ff" d="M466.01,-333.72C388.62,-326.27 260.83,-312.77 151.5,-295.5 150.51,-295.34 149.51,-295.18 148.51,-295.01"/>
<polygon fill="#63b8ff" stroke="#63b8ff" points="149.54,-291.64 139.08,-293.32 148.3,-298.53 149.54,-291.64"/>
</a>
</g>
</g>
<!-- Node4 -->
<g id="Node000004" class="node">
<title>Node4</title>
<g id="a_Node000004"><a xlink:title=" ">
<polygon fill="#e0e0e0" stroke="#999999" points="365.12,-74.5 313.88,-74.5 313.88,-55.25 365.12,-55.25 365.12,-74.5"/>
<text xml:space="preserve" text-anchor="middle" x="339.5" y="-61" font-family="Helvetica,sans-Serif" font-size="10.00">memory</text>
</a>
</g>
</g>
<!-- Node1&#45;&gt;Node4 -->
<g id="edge3_Node000001_Node000004" class="edge">
<title>Node1&#45;&gt;Node4</title>
<g id="a_edge3_Node000001_Node000004"><a xlink:title=" ">
<path fill="none" stroke="#63b8ff" d="M479.27,-331.06C393.48,-315.82 241.5,-281.76 241.5,-231.62 241.5,-231.62 241.5,-231.62 241.5,-174.38 241.5,-131.91 283.34,-98.62 312.35,-80.64"/>
<polygon fill="#63b8ff" stroke="#63b8ff" points="313.86,-83.81 320.68,-75.7 310.29,-77.79 313.86,-83.81"/>
</a>
</g>
</g>
<!-- Node5 -->
<g id="Node000005" class="node">
<title>Node5</title>
<g id="a_Node000005"><a xlink:title=" ">
<polygon fill="#e0e0e0" stroke="#999999" points="1045.5,-19.25 1005.5,-19.25 1005.5,0 1045.5,0 1045.5,-19.25"/>
<text xml:space="preserve" text-anchor="middle" x="1025.5" y="-5.75" font-family="Helvetica,sans-Serif" font-size="10.00">string</text>
</a>
</g>
</g>
<!-- Node1&#45;&gt;Node5 -->
<g id="edge4_Node000001_Node000005" class="edge">
<title>Node1&#45;&gt;Node5</title>
<g id="a_edge4_Node000001_Node000005"><a xlink:title=" ">
<path fill="none" stroke="#63b8ff" d="M606.99,-339.57C774.29,-337.71 1191.41,-329.67 1326.5,-295.5 1391.24,-279.12 1462.5,-298.4 1462.5,-231.62 1462.5,-231.62 1462.5,-231.62 1462.5,-119.12 1462.5,-35.56 1157.67,-15.9 1057.2,-11.69"/>
<polygon fill="#63b8ff" stroke="#63b8ff" points="1057.63,-8.2 1047.5,-11.3 1057.36,-15.19 1057.63,-8.2"/>
</a>
</g>
</g>
<!-- Node6 -->
<g id="Node000006" class="node">
<title>Node6</title>
<g id="a_Node000006"><a xlink:title=" ">
<polygon fill="#e0e0e0" stroke="#999999" points="1134.88,-74.5 1052.12,-74.5 1052.12,-55.25 1134.88,-55.25 1134.88,-74.5"/>
<text xml:space="preserve" text-anchor="middle" x="1093.5" y="-61" font-family="Helvetica,sans-Serif" font-size="10.00">unordered_map</text>
</a>
</g>
</g>
<!-- Node1&#45;&gt;Node6 -->
<g id="edge5_Node000001_Node000006" class="edge">
<title>Node1&#45;&gt;Node6</title>
<g id="a_edge5_Node000001_Node000006"><a xlink:title=" ">
<path fill="none" stroke="#63b8ff" d="M607.14,-336.62C792.81,-326.69 1283.44,-295.4 1329.5,-240.25 1392.94,-164.29 1224.17,-103.19 1139.11,-78.15"/>
<polygon fill="#63b8ff" stroke="#63b8ff" points="1140.21,-74.83 1129.64,-75.42 1138.27,-81.55 1140.21,-74.83"/>
</a>
</g>
</g>
<!-- Node7 -->
<g id="Node000007" class="node">
<title>Node7</title>
<g id="a_Node000007"><a xlink:title=" ">
<polygon fill="#e0e0e0" stroke="#999999" points="1294.25,-74.5 1216.75,-74.5 1216.75,-55.25 1294.25,-55.25 1294.25,-74.5"/>
<text xml:space="preserve" text-anchor="middle" x="1255.5" y="-61" font-family="Helvetica,sans-Serif" font-size="10.00">unordered_set</text>
</a>
</g>
</g>
<!-- Node1&#45;&gt;Node7 -->
<g id="edge6_Node000001_Node000007" class="edge">
<title>Node1&#45;&gt;Node7</title>
<g id="a_edge6_Node000001_Node000007"><a xlink:title=" ">
<path fill="none" stroke="#63b8ff" d="M606.92,-338.89C816.95,-334.28 1424.5,-313.84 1424.5,-231.62 1424.5,-231.62 1424.5,-231.62 1424.5,-174.38 1424.5,-117.32 1355.46,-88.88 1305.63,-75.78"/>
<polygon fill="#63b8ff" stroke="#63b8ff" points="1306.71,-72.44 1296.17,-73.43 1305.03,-79.23 1306.71,-72.44"/>
</a>
</g>
</g>
<!-- Node8 -->
<g id="Node000008" class="node">
<title>Node8</title>
<g id="a_Node000008"><a xlink:href="_types_8hpp.html" target="_top" xlink:title=" ">
<polygon fill="white" stroke="#666666" points="296,-74.5 235,-74.5 235,-55.25 296,-55.25 296,-74.5"/>
<text xml:space="preserve" text-anchor="middle" x="265.5" y="-61" font-family="Helvetica,sans-Serif" font-size="10.00">Types.hpp</text>
</a>
</g>
</g>
<!-- Node1&#45;&gt;Node8 -->
<g id="edge7_Node000001_Node000008" class="edge">
<title>Node1&#45;&gt;Node8</title>
<g id="a_edge7_Node000001_Node000008"><a xlink:title=" ">
<path fill="none" stroke="#63b8ff" d="M465.84,-333.95C358.2,-322.56 165.5,-293.53 165.5,-231.62 165.5,-231.62 165.5,-231.62 165.5,-174.38 165.5,-131.52 208.2,-98.35 237.79,-80.5"/>
<polygon fill="#63b8ff" stroke="#63b8ff" points="239.39,-83.61 246.31,-75.59 235.9,-77.55 239.39,-83.61"/>
</a>
</g>
</g>
<!-- Node12 -->
<g id="Node000012" class="node">
<title>Node12</title>
<g id="a_Node000012"><a xlink:href="_utils_8hpp.html" target="_top" xlink:title=" ">
<polygon fill="white" stroke="#666666" points="1015,-295.5 960,-295.5 960,-276.25 1015,-276.25 1015,-295.5"/>
<text xml:space="preserve" text-anchor="middle" x="987.5" y="-282" font-family="Helvetica,sans-Serif" font-size="10.00">Utils.hpp</text>
</a>
</g>
</g>
<!-- Node1&#45;&gt;Node12 -->
<g id="edge12_Node000001_Node000012" class="edge">
<title>Node1&#45;&gt;Node12</title>
<g id="a_edge12_Node000001_Node000012"><a xlink:title=" ">
<path fill="none" stroke="#63b8ff" d="M606.97,-331.8C703.03,-320.46 871.85,-300.53 948.12,-291.52"/>
<polygon fill="#63b8ff" stroke="#63b8ff" points="948.52,-295 958.04,-290.35 947.7,-288.05 948.52,-295"/>
</a>
</g>
</g>
<!-- Node23 -->
<g id="Node000023" class="node">
<title>Node23</title>
<g id="a_Node000023"><a xlink:href="_base_i_o_8hpp.html" target="_top" xlink:title=" ">
<polygon fill="white" stroke="#666666" points="836.62,-129.75 758.38,-129.75 758.38,-110.5 836.62,-110.5 836.62,-129.75"/>
<text xml:space="preserve" text-anchor="middle" x="797.5" y="-116.25" font-family="Helvetica,sans-Serif" font-size="10.00">io/BaseIO.hpp</text>
</a>
</g>
</g>
<!-- Node1&#45;&gt;Node23 -->
<g id="edge57_Node000001_Node000023" class="edge">
<title>Node1&#45;&gt;Node23</title>
<g id="a_edge57_Node000001_Node000023"><a xlink:title=" ">
<path fill="none" stroke="#63b8ff" d="M537.87,-331.16C541.34,-310.46 551.84,-258.29 574.5,-221 592.49,-191.39 599.49,-183.08 629.5,-165.75 665.66,-144.87 711.81,-133.53 746.58,-127.51"/>
<polygon fill="#63b8ff" stroke="#63b8ff" points="747.11,-130.97 756.42,-125.91 745.98,-124.06 747.11,-130.97"/>
</a>
</g>
</g>
<!-- Node30 -->
<g id="Node000030" class="node">
<title>Node30</title>
<g id="a_Node000030"><a xlink:href="_read_i_o_8hpp.html" target="_top" xlink:title=" ">
<polygon fill="white" stroke="#666666" points="557,-185 478,-185 478,-165.75 557,-165.75 557,-185"/>
<text xml:space="preserve" text-anchor="middle" x="517.5" y="-171.5" font-family="Helvetica,sans-Serif" font-size="10.00">io/ReadIO.hpp</text>
</a>
</g>
</g>
<!-- Node1&#45;&gt;Node30 -->
<g id="edge58_Node000001_Node000030" class="edge">
<title>Node1&#45;&gt;Node30</title>
<g id="a_edge58_Node000001_Node000030"><a xlink:title=" ">
<path fill="none" stroke="#63b8ff" d="M535.48,-331.32C532.54,-306 524.01,-232.5 519.85,-196.59"/>
<polygon fill="#63b8ff" stroke="#63b8ff" points="523.33,-196.26 518.7,-186.73 516.38,-197.06 523.33,-196.26"/>
</a>
</g>
</g>
<!-- Node8&#45;&gt;Node5 -->
<g id="edge10_Node000008_Node000005" class="edge">
<title>Node8&#45;&gt;Node5</title>
<g id="a_edge10_Node000008_Node000005"><a xlink:title=" ">
<path fill="none" stroke="#63b8ff" d="M296.07,-56.64C298.91,-56.11 301.75,-55.64 304.5,-55.25 568.87,-18.07 892.1,-11.87 993.51,-10.83"/>
<polygon fill="#63b8ff" stroke="#63b8ff" points="993.54,-14.33 1003.51,-10.74 993.48,-7.33 993.54,-14.33"/>
</a>
</g>
</g>
<!-- Node9 -->
<g id="Node000009" class="node">
<title>Node9</title>
<g id="a_Node000009"><a xlink:title=" ">
<polygon fill="#e0e0e0" stroke="#999999" points="320.62,-19.25 272.38,-19.25 272.38,0 320.62,0 320.62,-19.25"/>
<text xml:space="preserve" text-anchor="middle" x="296.5" y="-5.75" font-family="Helvetica,sans-Serif" font-size="10.00">cstddef</text>
</a>
</g>
</g>
<!-- Node8&#45;&gt;Node9 -->
<g id="edge8_Node000008_Node000009" class="edge">
<title>Node8&#45;&gt;Node9</title>
<g id="a_edge8_Node000008_Node000009"><a xlink:title=" ">
<path fill="none" stroke="#63b8ff" d="M270.62,-55.08C274.68,-48.11 280.49,-38.12 285.59,-29.37"/>
<polygon fill="#63b8ff" stroke="#63b8ff" points="288.5,-31.32 290.51,-20.92 282.45,-27.8 288.5,-31.32"/>
</a>
</g>
</g>
<!-- Node10 -->
<g id="Node000010" class="node">
<title>Node10</title>
<g id="a_Node000010"><a xlink:title=" ">
<polygon fill="#e0e0e0" stroke="#999999" points="254.12,-19.25 214.88,-19.25 214.88,0 254.12,0 254.12,-19.25"/>
<text xml:space="preserve" text-anchor="middle" x="234.5" y="-5.75" font-family="Helvetica,sans-Serif" font-size="10.00">limits</text>
</a>
</g>
</g>
<!-- Node8&#45;&gt;Node10 -->
<g id="edge9_Node000008_Node000010" class="edge">
<title>Node8&#45;&gt;Node10</title>
<g id="a_edge9_Node000008_Node000010"><a xlink:title=" ">
<path fill="none" stroke="#63b8ff" d="M260.38,-55.08C256.32,-48.11 250.51,-38.12 245.41,-29.37"/>
<polygon fill="#63b8ff" stroke="#63b8ff" points="248.55,-27.8 240.49,-20.92 242.5,-31.32 248.55,-27.8"/>
</a>
</g>
</g>
<!-- Node11 -->
<g id="Node000011" class="node">
<title>Node11</title>
<g id="a_Node000011"><a xlink:title=" ">
<polygon fill="#e0e0e0" stroke="#999999" points="415,-19.25 372,-19.25 372,0 415,0 415,-19.25"/>
<text xml:space="preserve" text-anchor="middle" x="393.5" y="-5.75" font-family="Helvetica,sans-Serif" font-size="10.00">vector</text>
</a>
</g>
</g>
<!-- Node8&#45;&gt;Node11 -->
<g id="edge11_Node000008_Node000011" class="edge">
<title>Node8&#45;&gt;Node11</title>
<g id="a_edge11_Node000008_Node000011"><a xlink:title=" ">
<path fill="none" stroke="#63b8ff" d="M287.21,-54.84C307.53,-46.39 338.15,-33.65 361.31,-24.02"/>
<polygon fill="#63b8ff" stroke="#63b8ff" points="362.39,-27.36 370.28,-20.28 359.71,-20.89 362.39,-27.36"/>
</a>
</g>
</g>
<!-- Node12&#45;&gt;Node5 -->
<g id="edge23_Node000012_Node000005" class="edge">
<title>Node12&#45;&gt;Node5</title>
<g id="a_edge23_Node000012_Node000005"><a xlink:title=" ">
<path fill="none" stroke="#63b8ff" d="M1015.37,-285.01C1088.3,-284.8 1282.39,-280.4 1329.5,-240.25 1352.04,-221.04 1348.5,-205.99 1348.5,-176.38 1348.5,-176.38 1348.5,-176.38 1348.5,-119.12 1348.5,-84.4 1332.96,-73.64 1303.5,-55.25 1262.79,-29.84 1120.99,-17.16 1057.12,-12.63"/>
<polygon fill="#63b8ff" stroke="#63b8ff" points="1057.51,-9.14 1047.3,-11.95 1057.04,-16.13 1057.51,-9.14"/>
</a>
</g>
</g>
<!-- Node13 -->
<g id="Node000013" class="node">
<title>Node13</title>
<g id="a_Node000013"><a xlink:title=" ">
<polygon fill="#e0e0e0" stroke="#999999" points="1195.38,-240.25 1139.62,-240.25 1139.62,-221 1195.38,-221 1195.38,-240.25"/>
<text xml:space="preserve" text-anchor="middle" x="1167.5" y="-226.75" font-family="Helvetica,sans-Serif" font-size="10.00">algorithm</text>
</a>
</g>
</g>
<!-- Node12&#45;&gt;Node13 -->
<g id="edge13_Node000012_Node000013" class="edge">
<title>Node12&#45;&gt;Node13</title>
<g id="a_edge13_Node000012_Node000013"><a xlink:title=" ">
<path fill="none" stroke="#63b8ff" d="M1015.23,-276.67C1045.44,-267.73 1094.02,-253.36 1128.16,-243.26"/>
<polygon fill="#63b8ff" stroke="#63b8ff" points="1129.1,-246.64 1137.69,-240.44 1127.11,-239.92 1129.1,-246.64"/>
</a>
</g>
</g>
<!-- Node14 -->
<g id="Node000014" class="node">
<title>Node14</title>
<g id="a_Node000014"><a xlink:title=" ">
<polygon fill="#e0e0e0" stroke="#999999" points="968.38,-129.75 930.62,-129.75 930.62,-110.5 968.38,-110.5 968.38,-129.75"/>
<text xml:space="preserve" text-anchor="middle" x="949.5" y="-116.25" font-family="Helvetica,sans-Serif" font-size="10.00">array</text>
</a>
</g>
</g>
<!-- Node12&#45;&gt;Node14 -->
<g id="edge14_Node000012_Node000014" class="edge">
<title>Node12&#45;&gt;Node14</title>
<g id="a_edge14_Node000012_Node000014"><a xlink:title=" ">
<path fill="none" stroke="#63b8ff" d="M1010.42,-275.83C1033.72,-265.1 1065.02,-245.52 1054.5,-221 1038.3,-183.24 1000.04,-153.01 974.45,-136.07"/>
<polygon fill="#63b8ff" stroke="#63b8ff" points="976.6,-133.29 966.29,-130.86 972.83,-139.19 976.6,-133.29"/>
</a>
</g>
</g>
<!-- Node15 -->
<g id="Node000015" class="node">
<title>Node15</title>
<g id="a_Node000015"><a xlink:title=" ">
<polygon fill="#e0e0e0" stroke="#999999" points="1259.12,-240.25 1213.88,-240.25 1213.88,-221 1259.12,-221 1259.12,-240.25"/>
<text xml:space="preserve" text-anchor="middle" x="1236.5" y="-226.75" font-family="Helvetica,sans-Serif" font-size="10.00">chrono</text>
</a>
</g>
</g>
<!-- Node12&#45;&gt;Node15 -->
<g id="edge15_Node000012_Node000015" class="edge">
<title>Node12&#45;&gt;Node15</title>
<g id="a_edge15_Node000012_Node000015"><a xlink:title=" ">
<path fill="none" stroke="#63b8ff" d="M1015.36,-279.7C1054.84,-272.26 1129.52,-257.73 1202.69,-240.56"/>
<polygon fill="#63b8ff" stroke="#63b8ff" points="1203.07,-244.07 1212,-238.36 1201.46,-237.26 1203.07,-244.07"/>
</a>
</g>
</g>
<!-- Node16 -->
<g id="Node000016" class="node">
<title>Node16</title>
<g id="a_Node000016"><a xlink:title=" ">
<polygon fill="#e0e0e0" stroke="#999999" points="1320,-240.25 1277,-240.25 1277,-221 1320,-221 1320,-240.25"/>
<text xml:space="preserve" text-anchor="middle" x="1298.5" y="-226.75" font-family="Helvetica,sans-Serif" font-size="10.00">cmath</text>
</a>
</g>
</g>
<!-- Node12&#45;&gt;Node16 -->
<g id="edge16_Node000012_Node000016" class="edge">
<title>Node12&#45;&gt;Node16</title>
<g id="a_edge16_Node000012_Node000016"><a xlink:title=" ">
<path fill="none" stroke="#63b8ff" d="M1015.23,-281.62C1064.01,-275.64 1168.51,-261.75 1265.45,-240.71"/>
<polygon fill="#63b8ff" stroke="#63b8ff" points="1266.14,-244.15 1275.15,-238.58 1264.63,-237.31 1266.14,-244.15"/>
</a>
</g>
</g>
<!-- Node17 -->
<g id="Node000017" class="node">
<title>Node17</title>
<g id="a_Node000017"><a xlink:title=" ">
<polygon fill="#e0e0e0" stroke="#999999" points="1034.12,-74.5 988.88,-74.5 988.88,-55.25 1034.12,-55.25 1034.12,-74.5"/>
<text xml:space="preserve" text-anchor="middle" x="1011.5" y="-61" font-family="Helvetica,sans-Serif" font-size="10.00">cstdint</text>
</a>
</g>
</g>
<!-- Node12&#45;&gt;Node17 -->
<g id="edge17_Node000012_Node000017" class="edge">
<title>Node12&#45;&gt;Node17</title>
<g id="a_edge17_Node000012_Node000017"><a xlink:title=" ">
<path fill="none" stroke="#63b8ff" d="M1015.21,-277.84C1034.14,-271.44 1057.82,-259.9 1069.5,-240.25 1100.67,-187.81 1052.91,-116.42 1026.75,-83.65"/>
<polygon fill="#63b8ff" stroke="#63b8ff" points="1029.46,-81.43 1020.4,-75.95 1024.06,-85.89 1029.46,-81.43"/>
</a>
</g>
</g>
<!-- Node18 -->
<g id="Node000018" class="node">
<title>Node18</title>
<g id="a_Node000018"><a xlink:title=" ">
<polygon fill="#e0e0e0" stroke="#999999" points="783.5,-240.25 743.5,-240.25 743.5,-221 783.5,-221 783.5,-240.25"/>
<text xml:space="preserve" text-anchor="middle" x="763.5" y="-226.75" font-family="Helvetica,sans-Serif" font-size="10.00">ctime</text>
</a>
</g>
</g>
<!-- Node12&#45;&gt;Node18 -->
<g id="edge18_Node000012_Node000018" class="edge">
<title>Node12&#45;&gt;Node18</title>
<g id="a_edge18_Node000012_Node000018"><a xlink:title=" ">
<path fill="none" stroke="#63b8ff" d="M959.59,-279.08C923.62,-271.48 858.91,-257.38 794.49,-240.64"/>
<polygon fill="#63b8ff" stroke="#63b8ff" points="795.76,-237.36 785.2,-238.21 793.98,-244.13 795.76,-237.36"/>
</a>
</g>
</g>
<!-- Node19 -->
<g id="Node000019" class="node">
<title>Node19</title>
<g id="a_Node000019"><a xlink:title=" ">
<polygon fill="#e0e0e0" stroke="#999999" points="851.38,-240.25 801.62,-240.25 801.62,-221 851.38,-221 851.38,-240.25"/>
<text xml:space="preserve" text-anchor="middle" x="826.5" y="-226.75" font-family="Helvetica,sans-Serif" font-size="10.00">iomanip</text>
</a>
</g>
</g>
<!-- Node12&#45;&gt;Node19 -->
<g id="edge19_Node000012_Node000019" class="edge">
<title>Node12&#45;&gt;Node19</title>
<g id="a_edge19_Node000012_Node000019"><a xlink:title=" ">
<path fill="none" stroke="#63b8ff" d="M960.19,-275.84C933.3,-266.95 892.08,-253.32 862.52,-243.54"/>
<polygon fill="#63b8ff" stroke="#63b8ff" points="863.85,-240.29 853.26,-240.47 861.65,-246.94 863.85,-240.29"/>
</a>
</g>
</g>
<!-- Node20 -->
<g id="Node000020" class="node">
<title>Node20</title>
<g id="a_Node000020"><a xlink:title=" ">
<polygon fill="#e0e0e0" stroke="#999999" points="917.62,-240.25 869.38,-240.25 869.38,-221 917.62,-221 917.62,-240.25"/>
<text xml:space="preserve" text-anchor="middle" x="893.5" y="-226.75" font-family="Helvetica,sans-Serif" font-size="10.00">random</text>
</a>
</g>
</g>
<!-- Node12&#45;&gt;Node20 -->
<g id="edge20_Node000012_Node000020" class="edge">
<title>Node12&#45;&gt;Node20</title>
<g id="a_edge20_Node000012_Node000020"><a xlink:title=" ">
<path fill="none" stroke="#63b8ff" d="M971.55,-275.84C957.24,-267.73 935.97,-255.68 919.25,-246.21"/>
<polygon fill="#63b8ff" stroke="#63b8ff" points="921.27,-243.33 910.84,-241.45 917.82,-249.42 921.27,-243.33"/>
</a>
</g>
</g>
<!-- Node21 -->
<g id="Node000021" class="node">
<title>Node21</title>
<g id="a_Node000021"><a xlink:title=" ">
<polygon fill="#e0e0e0" stroke="#999999" points="975.5,-240.25 935.5,-240.25 935.5,-221 975.5,-221 975.5,-240.25"/>
<text xml:space="preserve" text-anchor="middle" x="955.5" y="-226.75" font-family="Helvetica,sans-Serif" font-size="10.00">regex</text>
</a>
</g>
</g>
<!-- Node12&#45;&gt;Node21 -->
<g id="edge21_Node000012_Node000021" class="edge">
<title>Node12&#45;&gt;Node21</title>
<g id="a_edge21_Node000012_Node000021"><a xlink:title=" ">
<path fill="none" stroke="#63b8ff" d="M982.22,-276.08C978.03,-269.11 972.02,-259.12 966.77,-250.37"/>
<polygon fill="#63b8ff" stroke="#63b8ff" points="969.83,-248.68 961.68,-241.91 963.83,-252.28 969.83,-248.68"/>
</a>
</g>
</g>
<!-- Node22 -->
<g id="Node000022" class="node">
<title>Node22</title>
<g id="a_Node000022"><a xlink:title=" ">
<polygon fill="#e0e0e0" stroke="#999999" points="1045.12,-240.25 993.88,-240.25 993.88,-221 1045.12,-221 1045.12,-240.25"/>
<text xml:space="preserve" text-anchor="middle" x="1019.5" y="-226.75" font-family="Helvetica,sans-Serif" font-size="10.00">sstream</text>
</a>
</g>
</g>
<!-- Node12&#45;&gt;Node22 -->
<g id="edge22_Node000012_Node000022" class="edge">
<title>Node12&#45;&gt;Node22</title>
<g id="a_edge22_Node000012_Node000022"><a xlink:title=" ">
<path fill="none" stroke="#63b8ff" d="M992.78,-276.08C996.97,-269.11 1002.98,-259.12 1008.23,-250.37"/>
<polygon fill="#63b8ff" stroke="#63b8ff" points="1011.17,-252.28 1013.32,-241.91 1005.17,-248.68 1011.17,-252.28"/>
</a>
</g>
</g>
<!-- Node12&#45;&gt;Node23 -->
<g id="edge24_Node000012_Node000023" class="edge">
<title>Node12&#45;&gt;Node23</title>
<g id="a_edge24_Node000012_Node000023"><a xlink:title=" ">
<path fill="none" stroke="#63b8ff" d="M959.7,-284.28C900.08,-282.35 763.03,-274.25 734.5,-240.25 707.21,-207.72 750.27,-161.45 777.66,-137.26"/>
<polygon fill="#63b8ff" stroke="#63b8ff" points="779.73,-140.09 785.07,-130.94 775.19,-134.77 779.73,-140.09"/>
</a>
</g>
</g>
<!-- Node28 -->
<g id="Node000028" class="node">
<title>Node28</title>
<g id="a_Node000028"><a xlink:href="_h_d_f5_i_o_8hpp.html" target="_top" xlink:title=" ">
<polygon fill="white" stroke="#666666" points="687.38,-240.25 583.62,-240.25 583.62,-221 687.38,-221 687.38,-240.25"/>
<text xml:space="preserve" text-anchor="middle" x="635.5" y="-226.75" font-family="Helvetica,sans-Serif" font-size="10.00">io/hdf5/HDF5IO.hpp</text>
</a>
</g>
</g>
<!-- Node12&#45;&gt;Node28 -->
<g id="edge36_Node000012_Node000028" class="edge">
<title>Node12&#45;&gt;Node28</title>
<g id="a_edge36_Node000012_Node000028"><a xlink:title=" ">
<path fill="none" stroke="#63b8ff" d="M959.58,-280.65C903.56,-272.18 776.17,-252.91 698.84,-241.21"/>
<polygon fill="#63b8ff" stroke="#63b8ff" points="699.71,-237.8 689.3,-239.76 698.67,-244.72 699.71,-237.8"/>
</a>
</g>
</g>
<!-- Node23&#45;&gt;Node4 -->
<g id="edge28_Node000023_Node000004" class="edge">
<title>Node23&#45;&gt;Node4</title>
<g id="a_edge28_Node000023_Node000004"><a xlink:title=" ">
<path fill="none" stroke="#63b8ff" d="M758.05,-114.54C670.71,-104.38 461.96,-80.11 376.72,-70.2"/>
<polygon fill="#63b8ff" stroke="#63b8ff" points="377.38,-66.76 367.04,-69.08 376.57,-73.71 377.38,-66.76"/>
</a>
</g>
</g>
<!-- Node23&#45;&gt;Node5 -->
<g id="edge29_Node000023_Node000005" class="edge">
<title>Node23&#45;&gt;Node5</title>
<g id="a_edge29_Node000023_Node000005"><a xlink:title=" ">
<path fill="none" stroke="#63b8ff" d="M811.48,-110.12C832.16,-97.02 872.35,-72.41 908.5,-55.25 936.85,-41.79 970.44,-29.32 994.34,-21"/>
<polygon fill="#63b8ff" stroke="#63b8ff" points="995.47,-24.31 1003.79,-17.76 993.2,-17.69 995.47,-24.31"/>
</a>
</g>
</g>
<!-- Node23&#45;&gt;Node6 -->
<g id="edge31_Node000023_Node000006" class="edge">
<title>Node23&#45;&gt;Node6</title>
<g id="a_edge31_Node000023_Node000006"><a xlink:title=" ">
<path fill="none" stroke="#63b8ff" d="M837.11,-112C889.54,-102.57 982.14,-85.91 1040.54,-75.4"/>
<polygon fill="#63b8ff" stroke="#63b8ff" points="1041.03,-78.87 1050.25,-73.66 1039.79,-71.98 1041.03,-78.87"/>
</a>
</g>
</g>
<!-- Node23&#45;&gt;Node7 -->
<g id="edge32_Node000023_Node000007" class="edge">
<title>Node23&#45;&gt;Node7</title>
<g id="a_edge32_Node000023_Node000007"><a xlink:title=" ">
<path fill="none" stroke="#63b8ff" d="M836.95,-114.54C920.07,-104.87 1113.15,-82.43 1205.09,-71.74"/>
<polygon fill="#63b8ff" stroke="#63b8ff" points="1205.28,-75.24 1214.81,-70.61 1204.47,-68.28 1205.28,-75.24"/>
</a>
</g>
</g>
<!-- Node23&#45;&gt;Node8 -->
<g id="edge35_Node000023_Node000008" class="edge">
<title>Node23&#45;&gt;Node8</title>
<g id="a_edge35_Node000023_Node000008"><a xlink:title=" ">
<path fill="none" stroke="#63b8ff" d="M757.99,-117.26C675.87,-113.02 480.64,-101.03 307.46,-74.78"/>
<polygon fill="#63b8ff" stroke="#63b8ff" points="308,-71.32 297.58,-73.26 306.93,-78.24 308,-71.32"/>
</a>
</g>
</g>
<!-- Node23&#45;&gt;Node11 -->
<g id="edge34_Node000023_Node000011" class="edge">
<title>Node23&#45;&gt;Node11</title>
<g id="a_edge34_Node000023_Node000011"><a xlink:title=" ">
<path fill="none" stroke="#63b8ff" d="M796.28,-110.41C793.81,-96.28 786.78,-68.62 768.5,-55.25 714.46,-15.72 507.97,-10.86 426.67,-10.51"/>
<polygon fill="#63b8ff" stroke="#63b8ff" points="426.92,-7.01 416.91,-10.49 426.9,-14.01 426.92,-7.01"/>
</a>
</g>
</g>
<!-- Node23&#45;&gt;Node17 -->
<g id="edge26_Node000023_Node000017" class="edge">
<title>Node23&#45;&gt;Node17</title>
<g id="a_edge26_Node000023_Node000017"><a xlink:title=" ">
<path fill="none" stroke="#63b8ff" d="M836.15,-110.08C870.93,-101.86 923.71,-89.18 977.69,-75.18"/>
<polygon fill="#63b8ff" stroke="#63b8ff" points="978.24,-78.65 987.03,-72.74 976.48,-71.88 978.24,-78.65"/>
</a>
</g>
</g>
<!-- Node24 -->
<g id="Node000024" class="node">
<title>Node24</title>
<g id="a_Node000024"><a xlink:title=" ">
<polygon fill="#e0e0e0" stroke="#999999" points="683.38,-74.5 651.62,-74.5 651.62,-55.25 683.38,-55.25 683.38,-74.5"/>
<text xml:space="preserve" text-anchor="middle" x="667.5" y="-61" font-family="Helvetica,sans-Serif" font-size="10.00">any</text>
</a>
</g>
</g>
<!-- Node23&#45;&gt;Node24 -->
<g id="edge25_Node000023_Node000024" class="edge">
<title>Node23&#45;&gt;Node24</title>
<g id="a_edge25_Node000023_Node000024"><a xlink:title=" ">
<path fill="none" stroke="#63b8ff" d="M775.45,-110.09C752.93,-100.87 717.98,-86.55 693.98,-76.72"/>
<polygon fill="#63b8ff" stroke="#63b8ff" points="695.48,-73.55 684.9,-73 692.83,-80.03 695.48,-73.55"/>
</a>
</g>
</g>
<!-- Node25 -->
<g id="Node000025" class="node">
<title>Node25</title>
<g id="a_Node000025"><a xlink:title=" ">
<polygon fill="#e0e0e0" stroke="#999999" points="971.25,-74.5 917.75,-74.5 917.75,-55.25 971.25,-55.25 971.25,-74.5"/>
<text xml:space="preserve" text-anchor="middle" x="944.5" y="-61" font-family="Helvetica,sans-Serif" font-size="10.00">iostream</text>
</a>
</g>
</g>
<!-- Node23&#45;&gt;Node25 -->
<g id="edge27_Node000023_Node000025" class="edge">
<title>Node23&#45;&gt;Node25</title>
<g id="a_edge27_Node000023_Node000025"><a xlink:title=" ">
<path fill="none" stroke="#63b8ff" d="M822.44,-110.09C846.19,-101.49 882.21,-88.44 908.96,-78.75"/>
<polygon fill="#63b8ff" stroke="#63b8ff" points="909.81,-82.16 918.02,-75.47 907.42,-75.58 909.81,-82.16"/>
</a>
</g>
</g>
<!-- Node26 -->
<g id="Node000026" class="node">
<title>Node26</title>
<g id="a_Node000026"><a xlink:title=" ">
<polygon fill="#e0e0e0" stroke="#999999" points="759.5,-74.5 701.5,-74.5 701.5,-55.25 759.5,-55.25 759.5,-74.5"/>
<text xml:space="preserve" text-anchor="middle" x="730.5" y="-61" font-family="Helvetica,sans-Serif" font-size="10.00">typeindex</text>
</a>
</g>
</g>
<!-- Node23&#45;&gt;Node26 -->
<g id="edge30_Node000023_Node000026" class="edge">
<title>Node23&#45;&gt;Node26</title>
<g id="a_edge30_Node000023_Node000026"><a xlink:title=" ">
<path fill="none" stroke="#63b8ff" d="M786.13,-110.09C776.45,-102.4 762.3,-91.15 750.69,-81.93"/>
<polygon fill="#63b8ff" stroke="#63b8ff" points="752.89,-79.2 742.88,-75.72 748.53,-84.68 752.89,-79.2"/>
</a>
</g>
</g>
<!-- Node27 -->
<g id="Node000027" class="node">
<title>Node27</title>
<g id="a_Node000027"><a xlink:title=" ">
<polygon fill="#e0e0e0" stroke="#999999" points="861.12,-74.5 815.88,-74.5 815.88,-55.25 861.12,-55.25 861.12,-74.5"/>
<text xml:space="preserve" text-anchor="middle" x="838.5" y="-61" font-family="Helvetica,sans-Serif" font-size="10.00">variant</text>
</a>
</g>
</g>
<!-- Node23&#45;&gt;Node27 -->
<g id="edge33_Node000023_Node000027" class="edge">
<title>Node23&#45;&gt;Node27</title>
<g id="a_edge33_Node000023_Node000027"><a xlink:title=" ">
<path fill="none" stroke="#63b8ff" d="M804.27,-110.33C809.82,-103.13 817.84,-92.71 824.73,-83.76"/>
<polygon fill="#63b8ff" stroke="#63b8ff" points="827.33,-86.12 830.66,-76.06 821.79,-81.85 827.33,-86.12"/>
</a>
</g>
</g>
<!-- Node28&#45;&gt;Node4 -->
<g id="edge38_Node000028_Node000004" class="edge">
<title>Node28&#45;&gt;Node4</title>
<g id="a_edge38_Node000028_Node000004"><a xlink:title=" ">
<path fill="none" stroke="#63b8ff" d="M583.32,-226.1C520.06,-218.88 414.92,-196.86 358.5,-129.75 348.13,-117.41 343.42,-99.58 341.28,-85.89"/>
<polygon fill="#63b8ff" stroke="#63b8ff" points="344.79,-85.78 340.13,-76.26 337.84,-86.61 344.79,-85.78"/>
</a>
</g>
</g>
<!-- Node28&#45;&gt;Node5 -->
<g id="edge39_Node000028_Node000005" class="edge">
<title>Node28&#45;&gt;Node5</title>
<g id="a_edge39_Node000028_Node000005"><a xlink:title=" ">
<path fill="none" stroke="#63b8ff" d="M687.81,-225.42C743.5,-219.94 833.73,-208.19 908.5,-185 1018.73,-150.81 1081.64,-171.94 1143.5,-74.5 1165.87,-39.27 1099.14,-22.06 1057.06,-14.91"/>
<polygon fill="#63b8ff" stroke="#63b8ff" points="1057.86,-11.49 1047.43,-13.39 1056.77,-18.41 1057.86,-11.49"/>
</a>
</g>
</g>
<!-- Node28&#45;&gt;Node8 -->
<g id="edge41_Node000028_Node000008" class="edge">
<title>Node28&#45;&gt;Node8</title>
<g id="a_edge41_Node000028_Node000008"><a xlink:title=" ">
<path fill="none" stroke="#63b8ff" d="M583.15,-226.7C533.34,-222.35 457.2,-211.6 396.5,-185 344.84,-162.37 299.94,-110.99 278.65,-83.69"/>
<polygon fill="#63b8ff" stroke="#63b8ff" points="281.66,-81.87 272.82,-76.03 276.09,-86.11 281.66,-81.87"/>
</a>
</g>
</g>
<!-- Node28&#45;&gt;Node23 -->
<g id="edge42_Node000028_Node000023" class="edge">
<title>Node28&#45;&gt;Node23</title>
<g id="a_edge42_Node000028_Node000023"><a xlink:title=" ">
<path fill="none" stroke="#63b8ff" d="M633.64,-220.59C631.4,-207.01 629.42,-181.28 642.5,-165.75 656.03,-149.68 706.95,-137.12 746.77,-129.47"/>
<polygon fill="#63b8ff" stroke="#63b8ff" points="747.25,-132.94 756.45,-127.68 745.98,-126.06 747.25,-132.94"/>
</a>
</g>
</g>
<!-- Node28&#45;&gt;Node25 -->
<g id="edge37_Node000028_Node000025" class="edge">
<title>Node28&#45;&gt;Node25</title>
<g id="a_edge37_Node000028_Node000025"><a xlink:title=" ">
<path fill="none" stroke="#63b8ff" d="M687.69,-222.08C774.53,-208.33 942.62,-176.27 977.5,-129.75 988.56,-115 975.88,-96.02 963.17,-82.59"/>
<polygon fill="#63b8ff" stroke="#63b8ff" points="965.74,-80.21 956.14,-75.73 960.85,-85.22 965.74,-80.21"/>
</a>
</g>
</g>
<!-- Node29 -->
<g id="Node000029" class="node">
<title>Node29</title>
<g id="a_Node000029"><a xlink:title=" ">
<polygon fill="#e0e0e0" stroke="#999999" points="721.5,-185 651.5,-185 651.5,-165.75 721.5,-165.75 721.5,-185"/>
<text xml:space="preserve" text-anchor="middle" x="686.5" y="-171.5" font-family="Helvetica,sans-Serif" font-size="10.00">H5Opublic.h</text>
</a>
</g>
</g>
<!-- Node28&#45;&gt;Node29 -->
<g id="edge40_Node000028_Node000029" class="edge">
<title>Node28&#45;&gt;Node29</title>
<g id="a_edge40_Node000028_Node000029"><a xlink:title=" ">
<path fill="none" stroke="#63b8ff" d="M643.92,-220.83C651.04,-213.4 661.44,-202.54 670.19,-193.41"/>
<polygon fill="#63b8ff" stroke="#63b8ff" points="672.46,-196.1 676.85,-186.45 667.4,-191.25 672.46,-196.1"/>
</a>
</g>
</g>
<!-- Node28&#45;&gt;Node30 -->
<g id="edge43_Node000028_Node000030" class="edge">
<title>Node28&#45;&gt;Node30</title>
<g id="a_edge43_Node000028_Node000030"><a xlink:title=" ">
<path fill="none" stroke="#63b8ff" d="M615.48,-220.59C597.01,-212.25 569.29,-199.75 548.05,-190.16"/>
<polygon fill="#63b8ff" stroke="#63b8ff" points="549.55,-187 538.99,-186.08 546.67,-193.38 549.55,-187"/>
</a>
</g>
</g>
<!-- Node30&#45;&gt;Node4 -->
<g id="edge49_Node000030_Node000004" class="edge">
<title>Node30&#45;&gt;Node4</title>
<g id="a_edge49_Node000030_Node000004"><a xlink:title=" ">
<path fill="none" stroke="#63b8ff" d="M477.79,-169.02C448.19,-163.37 408.1,-152.04 379.5,-129.75 364.52,-118.07 353.66,-99.1 347.07,-84.85"/>
<polygon fill="#63b8ff" stroke="#63b8ff" points="350.46,-83.88 343.3,-76.07 344.03,-86.64 350.46,-83.88"/>
</a>
</g>
</g>
<!-- Node30&#45;&gt;Node5 -->
<g id="edge51_Node000030_Node000005" class="edge">
<title>Node30&#45;&gt;Node5</title>
<g id="a_edge51_Node000030_Node000005"><a xlink:title=" ">
<path fill="none" stroke="#63b8ff" d="M553.3,-165.32C584.12,-156.76 625.21,-143.25 635.5,-129.75 655.67,-103.3 619.25,-79.03 642.5,-55.25 666.95,-30.25 906.58,-16.33 993.89,-12.06"/>
<polygon fill="#63b8ff" stroke="#63b8ff" points="993.83,-15.57 1003.65,-11.59 993.49,-8.58 993.83,-15.57"/>
</a>
</g>
</g>
<!-- Node30&#45;&gt;Node8 -->
<g id="edge56_Node000030_Node000008" class="edge">
<title>Node30&#45;&gt;Node8</title>
<g id="a_edge56_Node000030_Node000008"><a xlink:title=" ">
<path fill="none" stroke="#63b8ff" d="M477.67,-166.99C444.71,-160 397.19,-147.86 358.5,-129.75 331.11,-116.93 302.93,-96.34 284.87,-82.01"/>
<polygon fill="#63b8ff" stroke="#63b8ff" points="287.1,-79.32 277.13,-75.74 282.7,-84.76 287.1,-79.32"/>
</a>
</g>
</g>
<!-- Node30&#45;&gt;Node11 -->
<g id="edge54_Node000030_Node000011" class="edge">
<title>Node30&#45;&gt;Node11</title>
<g id="a_edge54_Node000030_Node000011"><a xlink:title=" ">
<path fill="none" stroke="#63b8ff" d="M477.76,-167.33C455.19,-161.23 428.36,-150.04 412.5,-129.75 390.1,-101.1 389.35,-56.5 391.18,-30.78"/>
<polygon fill="#63b8ff" stroke="#63b8ff" points="394.65,-31.31 392.1,-21.03 387.68,-30.66 394.65,-31.31"/>
</a>
</g>
</g>
<!-- Node30&#45;&gt;Node14 -->
<g id="edge45_Node000030_Node000014" class="edge">
<title>Node30&#45;&gt;Node14</title>
<g id="a_edge45_Node000030_Node000014"><a xlink:title=" ">
<path fill="none" stroke="#63b8ff" d="M557.42,-171.83C629.57,-166.79 786.29,-153.92 916.5,-129.75 917.49,-129.57 918.5,-129.37 919.52,-129.16"/>
<polygon fill="#63b8ff" stroke="#63b8ff" points="919.99,-132.64 928.94,-126.96 918.4,-125.82 919.99,-132.64"/>
</a>
</g>
</g>
<!-- Node30&#45;&gt;Node17 -->
<g id="edge47_Node000030_Node000017" class="edge">
<title>Node30&#45;&gt;Node17</title>
<g id="a_edge47_Node000030_Node000017"><a xlink:title=" ">
<path fill="none" stroke="#63b8ff" d="M557.29,-171.09C638.13,-164.16 818.96,-147.22 878.5,-129.75 889.29,-126.58 947.9,-97.69 983.61,-79.86"/>
<polygon fill="#63b8ff" stroke="#63b8ff" points="984.72,-83.22 992.1,-75.62 981.59,-76.96 984.72,-83.22"/>
</a>
</g>
</g>
<!-- Node30&#45;&gt;Node23 -->
<g id="edge55_Node000030_Node000023" class="edge">
<title>Node30&#45;&gt;Node23</title>
<g id="a_edge55_Node000030_Node000023"><a xlink:title=" ">
<path fill="none" stroke="#63b8ff" d="M557.32,-166.8C607.22,-157.31 692.77,-141.04 747.16,-130.7"/>
<polygon fill="#63b8ff" stroke="#63b8ff" points="747.61,-134.18 756.78,-128.87 746.3,-127.3 747.61,-134.18"/>
</a>
</g>
</g>
<!-- Node30&#45;&gt;Node24 -->
<g id="edge44_Node000030_Node000024" class="edge">
<title>Node30&#45;&gt;Node24</title>
<g id="a_edge44_Node000030_Node000024"><a xlink:title=" ">
<path fill="none" stroke="#63b8ff" d="M557.16,-168.12C597.24,-160.89 655.12,-147.65 668.5,-129.75 677.75,-117.37 676.63,-99.54 673.7,-85.87"/>
<polygon fill="#63b8ff" stroke="#63b8ff" points="677.08,-84.97 671.12,-76.21 670.32,-86.77 677.08,-84.97"/>
</a>
</g>
</g>
<!-- Node30&#45;&gt;Node25 -->
<g id="edge48_Node000030_Node000025" class="edge">
<title>Node30&#45;&gt;Node25</title>
<g id="a_edge48_Node000030_Node000025"><a xlink:title=" ">
<path fill="none" stroke="#63b8ff" d="M557.28,-171.14C632.64,-164.66 793.35,-149.03 845.5,-129.75 875.72,-118.58 906.24,-96.97 925.24,-81.99"/>
<polygon fill="#63b8ff" stroke="#63b8ff" points="927.31,-84.82 932.89,-75.81 922.91,-79.38 927.31,-84.82"/>
</a>
</g>
</g>
<!-- Node30&#45;&gt;Node26 -->
<g id="edge53_Node000030_Node000026" class="edge">
<title>Node30&#45;&gt;Node26</title>
<g id="a_edge53_Node000030_Node000026"><a xlink:title=" ">
<path fill="none" stroke="#63b8ff" d="M557.18,-167.09C600.02,-158.67 664.88,-144.11 685.5,-129.75 701.66,-118.49 713.97,-99.46 721.59,-85.09"/>
<polygon fill="#63b8ff" stroke="#63b8ff" points="724.71,-86.68 726.01,-76.16 718.44,-83.57 724.71,-86.68"/>
</a>
</g>
</g>
<!-- Node31 -->
<g id="Node000031" class="node">
<title>Node31</title>
<g id="a_Node000031"><a xlink:title=" ">
<polygon fill="#e0e0e0" stroke="#999999" points="469.62,-129.75 421.38,-129.75 421.38,-110.5 469.62,-110.5 469.62,-129.75"/>
<text xml:space="preserve" text-anchor="middle" x="445.5" y="-116.25" font-family="Helvetica,sans-Serif" font-size="10.00">cassert</text>
</a>
</g>
</g>
<!-- Node30&#45;&gt;Node31 -->
<g id="edge46_Node000030_Node000031" class="edge">
<title>Node30&#45;&gt;Node31</title>
<g id="a_edge46_Node000030_Node000031"><a xlink:title=" ">
<path fill="none" stroke="#63b8ff" d="M505.29,-165.34C494.67,-157.49 479.06,-145.95 466.46,-136.62"/>
<polygon fill="#63b8ff" stroke="#63b8ff" points="468.87,-134.06 458.75,-130.92 464.71,-139.69 468.87,-134.06"/>
</a>
</g>
</g>
<!-- Node32 -->
<g id="Node000032" class="node">
<title>Node32</title>
<g id="a_Node000032"><a xlink:title=" ">
<polygon fill="#e0e0e0" stroke="#999999" points="546.88,-129.75 488.12,-129.75 488.12,-110.5 546.88,-110.5 546.88,-129.75"/>
<text xml:space="preserve" text-anchor="middle" x="517.5" y="-116.25" font-family="Helvetica,sans-Serif" font-size="10.00">stdexcept</text>
</a>
</g>
</g>
<!-- Node30&#45;&gt;Node32 -->
<g id="edge50_Node000030_Node000032" class="edge">
<title>Node30&#45;&gt;Node32</title>
<g id="a_edge50_Node000030_Node000032"><a xlink:title=" ">
<path fill="none" stroke="#63b8ff" d="M517.5,-165.58C517.5,-159.07 517.5,-149.92 517.5,-141.62"/>
<polygon fill="#63b8ff" stroke="#63b8ff" points="521,-141.62 517.5,-131.62 514,-141.62 521,-141.62"/>
</a>
</g>
</g>
<!-- Node33 -->
<g id="Node000033" class="node">
<title>Node33</title>
<g id="a_Node000033"><a xlink:title=" ">
<polygon fill="#e0e0e0" stroke="#999999" points="626.38,-129.75 564.62,-129.75 564.62,-110.5 626.38,-110.5 626.38,-129.75"/>
<text xml:space="preserve" text-anchor="middle" x="595.5" y="-116.25" font-family="Helvetica,sans-Serif" font-size="10.00">type_traits</text>
</a>
</g>
</g>
<!-- Node30&#45;&gt;Node33 -->
<g id="edge52_Node000030_Node000033" class="edge">
<title>Node30&#45;&gt;Node33</title>
<g id="a_edge52_Node000030_Node000033"><a xlink:title=" ">
<path fill="none" stroke="#63b8ff" d="M530.73,-165.34C542.27,-157.46 559.27,-145.86 572.95,-136.52"/>
<polygon fill="#63b8ff" stroke="#63b8ff" points="574.67,-139.58 580.95,-131.06 570.72,-133.8 574.67,-139.58"/>
</a>
</g>
</g>
</g>
</svg>

<g id="navigator" transform="translate(0 0)" fill="#404254">
  <rect fill="#f2f5e9" fill-opacity="0.5" stroke="#606060" stroke-width=".5" x="0" y="0" width="60" height="60"/>
  <use id="zoomplus" xlink:href="#zoomPlus" x="17" y="9" onmousedown="handleZoom(evt,'in')"/>
  <use id="zoomminus" xlink:href="#zoomMin" x="42" y="9" onmousedown="handleZoom(evt,'out')"/>
  <use id="reset" xlink:href="#resetDef" x="30" y="36" onmousedown="handleReset()"/>
   <use id="arrowup" xlink:href="#arrowUp" x="0" y="0" onmousedown="handlePan(0,-1)"/>
  <use id="arrowright" xlink:href="#arrowRight" x="0" y="0" onmousedown="handlePan(1,0)"/>
  <use id="arrowdown" xlink:href="#arrowDown" x="0" y="0" onmousedown="handlePan(0,1)"/>
  <use id="arrowleft" xlink:href="#arrowLeft" x="0" y="0" onmousedown="handlePan(-1,0)"/>
</g>
<svg viewBox="0 0 15 15" width="100%" height="30px" preserveAspectRatio="xMaxYMin meet">
 <g id="arrow_out" transform="scale(0.3 0.3)">
  <a xlink:href="_registered_type_8hpp__incl_org.svg" target="_base">
   <rect id="button" ry="5" rx="5" y="6" x="6" height="38" width="38"
        fill="#f2f5e9" fill-opacity="0.5" stroke="#606060" stroke-width="1.0"/>
   <path id="arrow"
     d="M 11.500037,31.436501 C 11.940474,20.09759 22.043105,11.32322 32.158766,21.979434 L 37.068811,17.246167 C 37.068811,17.246167 37.088388,32 37.088388,32 L 22.160133,31.978069 C 22.160133,31.978069 26.997745,27.140456 26.997745,27.140456 C 18.528582,18.264221 13.291696,25.230495 11.500037,31.436501 z"
     style="fill:#404040;"/>
  </a>
 </g>
</svg>

<style type='text/css'>
<![CDATA[
[data-mouse-over-selected='false'] { opacity: 0.7; }
[data-mouse-over-selected='true']  { opacity: 1.0; }
]]>
</style>
<script type="application/ecmascript"><![CDATA[
document.addEventListener('DOMContentLoaded', (event) => {
  highlightEdges();
  highlightAdjacentNodes();
});
]]></script>
</svg>
