<?xml version="1.0" encoding="UTF-8" standalone="no"?>
<!DOCTYPE svg PUBLIC "-//W3C//DTD SVG 1.1//EN"
 "http://www.w3.org/Graphics/SVG/1.1/DTD/svg11.dtd">
<!-- Generated by graphviz version 13.1.2 (20250808.2320)
 -->
<!-- Title: src/nwb/RegisteredType.hpp Pages: 1 -->
<svg width="1986pt" height="370pt"
 viewBox="0.00 0.00 1986.00 370.00" xmlns="http://www.w3.org/2000/svg" xmlns:xlink="http://www.w3.org/1999/xlink">
<g id="graph0" class="graph" transform="scale(1 1) rotate(0) translate(4 366)">
<title>src/nwb/RegisteredType.hpp</title>
<!-- Node1 -->
<g id="Node000001" class="node">
<title>Node1</title>
<g id="a_Node000001"><a xlink:title=" ">
<polygon fill="#999999" stroke="#666666" points="645.75,-362 505.25,-362 505.25,-342.75 645.75,-342.75 645.75,-362"/>
<text xml:space="preserve" text-anchor="middle" x="575.5" y="-348.5" font-family="Helvetica,sans-Serif" font-size="10.00">src/nwb/RegisteredType.hpp</text>
</a>
</g>
</g>
<!-- Node2 -->
<g id="Node000002" class="node">
<title>Node2</title>
<g id="a_Node000002"><a xlink:title=" ">
<polygon fill="#e0e0e0" stroke="#999999" points="61,-306.75 0,-306.75 0,-287.5 61,-287.5 61,-306.75"/>
<text xml:space="preserve" text-anchor="middle" x="30.5" y="-293.25" font-family="Helvetica,sans-Serif" font-size="10.00">filesystem</text>
</a>
</g>
</g>
<!-- Node1&#45;&gt;Node2 -->
<g id="edge1_Node000001_Node000002" class="edge">
<title>Node1&#45;&gt;Node2</title>
<g id="a_edge1_Node000001_Node000002"><a xlink:title=" ">
<path fill="none" stroke="#63b8ff" d="M504.91,-347.91C409.18,-342.6 232.68,-330.62 72.46,-306.85"/>
<polygon fill="#63b8ff" stroke="#63b8ff" points="73.34,-303.45 62.94,-305.42 72.3,-310.37 73.34,-303.45"/>
</a>
</g>
</g>
<!-- Node3 -->
<g id="Node000003" class="node">
<title>Node3</title>
<g id="a_Node000003"><a xlink:title=" ">
<polygon fill="#e0e0e0" stroke="#999999" points="137.5,-306.75 79.5,-306.75 79.5,-287.5 137.5,-287.5 137.5,-306.75"/>
<text xml:space="preserve" text-anchor="middle" x="108.5" y="-293.25" font-family="Helvetica,sans-Serif" font-size="10.00">functional</text>
</a>
</g>
</g>
<!-- Node1&#45;&gt;Node3 -->
<g id="edge2_Node000001_Node000003" class="edge">
<title>Node1&#45;&gt;Node3</title>
<g id="a_edge2_Node000001_Node000003"><a xlink:title=" ">
<path fill="none" stroke="#63b8ff" d="M505.1,-345.98C420.76,-339.06 275.34,-325.65 151.5,-306.75 150.51,-306.6 149.51,-306.44 148.5,-306.28"/>
<polygon fill="#63b8ff" stroke="#63b8ff" points="149.53,-302.9 139.07,-304.6 148.3,-309.8 149.53,-302.9"/>
</a>
</g>
</g>
<!-- Node4 -->
<g id="Node000004" class="node">
<title>Node4</title>
<g id="a_Node000004"><a xlink:title=" ">
<polygon fill="#e0e0e0" stroke="#999999" points="351.12,-74.5 299.88,-74.5 299.88,-55.25 351.12,-55.25 351.12,-74.5"/>
<text xml:space="preserve" text-anchor="middle" x="325.5" y="-61" font-family="Helvetica,sans-Serif" font-size="10.00">memory</text>
</a>
</g>
</g>
<!-- Node1&#45;&gt;Node4 -->
<g id="edge3_Node000001_Node000004" class="edge">
<title>Node1&#45;&gt;Node4</title>
<g id="a_edge3_Node000001_Node000004"><a xlink:title=" ">
<path fill="none" stroke="#63b8ff" d="M504.95,-345.04C439.18,-338.1 346.69,-325.43 315.5,-306.75 278.93,-284.84 265.51,-263.06 272.5,-221 280.94,-170.17 303.95,-113.64 316.7,-84.91"/>
<polygon fill="#63b8ff" stroke="#63b8ff" points="319.77,-86.63 320.7,-76.08 313.39,-83.74 319.77,-86.63"/>
</a>
</g>
</g>
<!-- Node5 -->
<g id="Node000005" class="node">
<title>Node5</title>
<g id="a_Node000005"><a xlink:title=" ">
<polygon fill="#e0e0e0" stroke="#999999" points="1782.5,-74.5 1742.5,-74.5 1742.5,-55.25 1782.5,-55.25 1782.5,-74.5"/>
<text xml:space="preserve" text-anchor="middle" x="1762.5" y="-61" font-family="Helvetica,sans-Serif" font-size="10.00">string</text>
</a>
</g>
</g>
<!-- Node1&#45;&gt;Node5 -->
<g id="edge4_Node000001_Node000005" class="edge">
<title>Node1&#45;&gt;Node5</title>
<g id="a_edge4_Node000001_Node000005"><a xlink:title=" ">
<path fill="none" stroke="#63b8ff" d="M646.21,-350.12C844.87,-346.3 1405.44,-333.4 1587.5,-306.75 1712.66,-288.43 1863.5,-363.75 1863.5,-237.25 1863.5,-237.25 1863.5,-237.25 1863.5,-174.38 1863.5,-131.33 1820.38,-98.21 1790.49,-80.43"/>
<polygon fill="#63b8ff" stroke="#63b8ff" points="1792.3,-77.43 1781.87,-75.53 1788.84,-83.52 1792.3,-77.43"/>
</a>
</g>
</g>
<!-- Node6 -->
<g id="Node000006" class="node">
<title>Node6</title>
<g id="a_Node000006"><a xlink:title=" ">
<polygon fill="#e0e0e0" stroke="#999999" points="1882.88,-74.5 1800.12,-74.5 1800.12,-55.25 1882.88,-55.25 1882.88,-74.5"/>
<text xml:space="preserve" text-anchor="middle" x="1841.5" y="-61" font-family="Helvetica,sans-Serif" font-size="10.00">unordered_map</text>
</a>
</g>
</g>
<!-- Node1&#45;&gt;Node6 -->
<g id="edge5_Node000001_Node000006" class="edge">
<title>Node1&#45;&gt;Node6</title>
<g id="a_edge5_Node000001_Node000006"><a xlink:title=" ">
<path fill="none" stroke="#63b8ff" d="M646.24,-351.65C864.17,-352.01 1523.23,-349.45 1732.5,-306.75 1812.07,-290.51 1901.5,-318.46 1901.5,-237.25 1901.5,-237.25 1901.5,-237.25 1901.5,-174.38 1901.5,-138.51 1876.08,-103.37 1858.34,-83.2"/>
<polygon fill="#63b8ff" stroke="#63b8ff" points="1860.98,-80.91 1851.64,-75.92 1855.83,-85.65 1860.98,-80.91"/>
</a>
</g>
</g>
<!-- Node7 -->
<g id="Node000007" class="node">
<title>Node7</title>
<g id="a_Node000007"><a xlink:title=" ">
<polygon fill="#e0e0e0" stroke="#999999" points="1978.25,-74.5 1900.75,-74.5 1900.75,-55.25 1978.25,-55.25 1978.25,-74.5"/>
<text xml:space="preserve" text-anchor="middle" x="1939.5" y="-61" font-family="Helvetica,sans-Serif" font-size="10.00">unordered_set</text>
</a>
</g>
</g>
<!-- Node1&#45;&gt;Node7 -->
<g id="edge6_Node000001_Node000007" class="edge">
<title>Node1&#45;&gt;Node7</title>
<g id="a_edge6_Node000001_Node000007"><a xlink:title=" ">
<path fill="none" stroke="#63b8ff" d="M646.2,-350.79C892.64,-348.46 1704.96,-338.46 1817.5,-306.75 1877.56,-289.83 1939.5,-299.65 1939.5,-237.25 1939.5,-237.25 1939.5,-237.25 1939.5,-174.38 1939.5,-143.66 1939.5,-108.05 1939.5,-86.24"/>
<polygon fill="#63b8ff" stroke="#63b8ff" points="1943,-86.39 1939.5,-76.39 1936,-86.39 1943,-86.39"/>
</a>
</g>
</g>
<!-- Node8 -->
<g id="Node000008" class="node">
<title>Node8</title>
<g id="a_Node000008"><a xlink:href="_types_8hpp.html" target="_top" xlink:title=" ">
<polygon fill="white" stroke="#666666" points="272,-74.5 211,-74.5 211,-55.25 272,-55.25 272,-74.5"/>
<text xml:space="preserve" text-anchor="middle" x="241.5" y="-61" font-family="Helvetica,sans-Serif" font-size="10.00">Types.hpp</text>
</a>
</g>
</g>
<!-- Node1&#45;&gt;Node8 -->
<g id="edge7_Node000001_Node000008" class="edge">
<title>Node1&#45;&gt;Node8</title>
<g id="a_edge7_Node000001_Node000008"><a xlink:title=" ">
<path fill="none" stroke="#63b8ff" d="M505.02,-346.28C387.79,-335.85 165.5,-306.89 165.5,-237.25 165.5,-237.25 165.5,-237.25 165.5,-174.38 165.5,-135.77 198.18,-101.14 220.68,-81.87"/>
<polygon fill="#63b8ff" stroke="#63b8ff" points="222.61,-84.82 228.12,-75.77 218.17,-79.41 222.61,-84.82"/>
</a>
</g>
</g>
<!-- Node11 -->
<g id="Node000011" class="node">
<title>Node11</title>
<g id="a_Node000011"><a xlink:href="_utils_8hpp.html" target="_top" xlink:title=" ">
<polygon fill="white" stroke="#666666" points="990,-306.75 935,-306.75 935,-287.5 990,-287.5 990,-306.75"/>
<text xml:space="preserve" text-anchor="middle" x="962.5" y="-293.25" font-family="Helvetica,sans-Serif" font-size="10.00">Utils.hpp</text>
</a>
</g>
</g>
<!-- Node1&#45;&gt;Node11 -->
<g id="edge10_Node000001_Node000011" class="edge">
<title>Node1&#45;&gt;Node11</title>
<g id="a_edge10_Node000001_Node000011"><a xlink:title=" ">
<path fill="none" stroke="#63b8ff" d="M641.59,-342.28C722.64,-331.13 857.39,-312.59 923.5,-303.49"/>
<polygon fill="#63b8ff" stroke="#63b8ff" points="923.71,-307 933.14,-302.17 922.75,-300.06 923.71,-307"/>
</a>
</g>
</g>
<!-- Node26 -->
<g id="Node000026" class="node">
<title>Node26</title>
<g id="a_Node000026"><a xlink:href="_base_i_o_8hpp.html" target="_top" xlink:title=" ">
<polygon fill="white" stroke="#666666" points="709.62,-129.75 631.38,-129.75 631.38,-110.5 709.62,-110.5 709.62,-129.75"/>
<text xml:space="preserve" text-anchor="middle" x="670.5" y="-116.25" font-family="Helvetica,sans-Serif" font-size="10.00">io/BaseIO.hpp</text>
</a>
</g>
</g>
<!-- Node1&#45;&gt;Node26 -->
<g id="edge57_Node000001_Node000026" class="edge">
<title>Node1&#45;&gt;Node26</title>
<g id="a_edge57_Node000001_Node000026"><a xlink:title=" ">
<path fill="none" stroke="#63b8ff" d="M645.9,-350.69C885.28,-347.63 1657.03,-331.59 1730.5,-251.5 1739.66,-241.51 1739.62,-231.02 1730.5,-221 1661.84,-145.57 923.55,-125.96 721.41,-121.99"/>
<polygon fill="#63b8ff" stroke="#63b8ff" points="721.56,-118.5 711.49,-121.8 721.42,-125.5 721.56,-118.5"/>
</a>
</g>
</g>
<!-- Node34 -->
<g id="Node000034" class="node">
<title>Node34</title>
<g id="a_Node000034"><a xlink:href="_read_i_o_8hpp.html" target="_top" xlink:title=" ">
<polygon fill="white" stroke="#666666" points="429,-185 350,-185 350,-165.75 429,-165.75 429,-185"/>
<text xml:space="preserve" text-anchor="middle" x="389.5" y="-171.5" font-family="Helvetica,sans-Serif" font-size="10.00">io/ReadIO.hpp</text>
</a>
</g>
</g>
<!-- Node1&#45;&gt;Node34 -->
<g id="edge58_Node000001_Node000034" class="edge">
<title>Node1&#45;&gt;Node34</title>
<g id="a_edge58_Node000001_Node000034"><a xlink:title=" ">
<path fill="none" stroke="#63b8ff" d="M504.88,-349.36C435.44,-343.16 332.78,-321.75 282.5,-251.5 274.61,-240.48 274.98,-232.28 282.5,-221 295.19,-201.96 317.71,-191.03 338.83,-184.76"/>
<polygon fill="#63b8ff" stroke="#63b8ff" points="339.45,-188.22 348.22,-182.28 337.66,-181.45 339.45,-188.22"/>
</a>
</g>
</g>
<!-- Node9 -->
<g id="Node000009" class="node">
<title>Node9</title>
<g id="a_Node000009"><a xlink:title=" ">
<polygon fill="#e0e0e0" stroke="#999999" points="265.62,-19.25 217.38,-19.25 217.38,0 265.62,0 265.62,-19.25"/>
<text xml:space="preserve" text-anchor="middle" x="241.5" y="-5.75" font-family="Helvetica,sans-Serif" font-size="10.00">cstddef</text>
</a>
</g>
</g>
<!-- Node8&#45;&gt;Node9 -->
<g id="edge8_Node000008_Node000009" class="edge">
<title>Node8&#45;&gt;Node9</title>
<g id="a_edge8_Node000008_Node000009"><a xlink:title=" ">
<path fill="none" stroke="#63b8ff" d="M241.5,-55.08C241.5,-48.57 241.5,-39.42 241.5,-31.12"/>
<polygon fill="#63b8ff" stroke="#63b8ff" points="245,-31.12 241.5,-21.12 238,-31.12 245,-31.12"/>
</a>
</g>
</g>
<!-- Node10 -->
<g id="Node000010" class="node">
<title>Node10</title>
<g id="a_Node000010"><a xlink:title=" ">
<polygon fill="#e0e0e0" stroke="#999999" points="409,-19.25 366,-19.25 366,0 409,0 409,-19.25"/>
<text xml:space="preserve" text-anchor="middle" x="387.5" y="-5.75" font-family="Helvetica,sans-Serif" font-size="10.00">vector</text>
</a>
</g>
</g>
<!-- Node8&#45;&gt;Node10 -->
<g id="edge9_Node000008_Node000010" class="edge">
<title>Node8&#45;&gt;Node10</title>
<g id="a_edge9_Node000008_Node000010"><a xlink:title=" ">
<path fill="none" stroke="#63b8ff" d="M266.27,-54.84C290.76,-45.91 328.35,-32.2 355.18,-22.41"/>
<polygon fill="#63b8ff" stroke="#63b8ff" points="356.33,-25.72 364.53,-19 353.93,-19.14 356.33,-25.72"/>
</a>
</g>
</g>
<!-- Node11&#45;&gt;Node5 -->
<g id="edge19_Node000011_Node000005" class="edge">
<title>Node11&#45;&gt;Node5</title>
<g id="a_edge19_Node000011_Node000005"><a xlink:title=" ">
<path fill="none" stroke="#63b8ff" d="M990.27,-295.56C1126.62,-292.66 1719.85,-278.5 1747.5,-251.5 1792.38,-207.68 1777.85,-123.67 1768.18,-85.55"/>
<polygon fill="#63b8ff" stroke="#63b8ff" points="1771.69,-85.09 1765.69,-76.36 1764.93,-86.92 1771.69,-85.09"/>
</a>
</g>
</g>
<!-- Node12 -->
<g id="Node000012" class="node">
<title>Node12</title>
<g id="a_Node000012"><a xlink:title=" ">
<polygon fill="#e0e0e0" stroke="#999999" points="1596.38,-245.88 1540.62,-245.88 1540.62,-226.62 1596.38,-226.62 1596.38,-245.88"/>
<text xml:space="preserve" text-anchor="middle" x="1568.5" y="-232.38" font-family="Helvetica,sans-Serif" font-size="10.00">algorithm</text>
</a>
</g>
</g>
<!-- Node11&#45;&gt;Node12 -->
<g id="edge11_Node000011_Node000012" class="edge">
<title>Node11&#45;&gt;Node12</title>
<g id="a_edge11_Node000011_Node000012"><a xlink:title=" ">
<path fill="none" stroke="#63b8ff" d="M990.46,-296.76C1073.88,-298.07 1327.84,-297.67 1531.5,-251.5 1533.39,-251.07 1535.32,-250.56 1537.24,-250"/>
<polygon fill="#63b8ff" stroke="#63b8ff" points="1538.31,-253.34 1546.65,-246.81 1536.06,-246.71 1538.31,-253.34"/>
</a>
</g>
</g>
<!-- Node13 -->
<g id="Node000013" class="node">
<title>Node13</title>
<g id="a_Node000013"><a xlink:title=" ">
<polygon fill="#e0e0e0" stroke="#999999" points="1660.12,-245.88 1614.88,-245.88 1614.88,-226.62 1660.12,-226.62 1660.12,-245.88"/>
<text xml:space="preserve" text-anchor="middle" x="1637.5" y="-232.38" font-family="Helvetica,sans-Serif" font-size="10.00">chrono</text>
</a>
</g>
</g>
<!-- Node11&#45;&gt;Node13 -->
<g id="edge12_Node000011_Node000013" class="edge">
<title>Node11&#45;&gt;Node13</title>
<g id="a_edge12_Node000011_Node000013"><a xlink:title=" ">
<path fill="none" stroke="#63b8ff" d="M990.35,-295.48C1097.92,-292.8 1486.19,-281.22 1605.5,-251.5 1606.89,-251.15 1608.3,-250.75 1609.71,-250.3"/>
<polygon fill="#63b8ff" stroke="#63b8ff" points="1610.8,-253.63 1618.88,-246.78 1608.29,-247.1 1610.8,-253.63"/>
</a>
</g>
</g>
<!-- Node14 -->
<g id="Node000014" class="node">
<title>Node14</title>
<g id="a_Node000014"><a xlink:title=" ">
<polygon fill="#e0e0e0" stroke="#999999" points="1721,-245.88 1678,-245.88 1678,-226.62 1721,-226.62 1721,-245.88"/>
<text xml:space="preserve" text-anchor="middle" x="1699.5" y="-232.38" font-family="Helvetica,sans-Serif" font-size="10.00">cmath</text>
</a>
</g>
</g>
<!-- Node11&#45;&gt;Node14 -->
<g id="edge13_Node000011_Node000014" class="edge">
<title>Node11&#45;&gt;Node14</title>
<g id="a_edge13_Node000011_Node000014"><a xlink:title=" ">
<path fill="none" stroke="#63b8ff" d="M990.38,-295.77C1104.68,-294.11 1537.64,-285.63 1669.5,-251.5 1670.67,-251.2 1671.85,-250.85 1673.04,-250.46"/>
<polygon fill="#63b8ff" stroke="#63b8ff" points="1674.06,-253.82 1682.02,-246.83 1671.43,-247.33 1674.06,-253.82"/>
</a>
</g>
</g>
<!-- Node15 -->
<g id="Node000015" class="node">
<title>Node15</title>
<g id="a_Node000015"><a xlink:title=" ">
<polygon fill="#e0e0e0" stroke="#999999" points="885.12,-74.5 839.88,-74.5 839.88,-55.25 885.12,-55.25 885.12,-74.5"/>
<text xml:space="preserve" text-anchor="middle" x="862.5" y="-61" font-family="Helvetica,sans-Serif" font-size="10.00">cstdint</text>
</a>
</g>
</g>
<!-- Node11&#45;&gt;Node15 -->
<g id="edge14_Node000011_Node000015" class="edge">
<title>Node11&#45;&gt;Node15</title>
<g id="a_edge14_Node000011_Node000015"><a xlink:title=" ">
<path fill="none" stroke="#63b8ff" d="M990.15,-295.57C1124.6,-292.74 1704.58,-278.97 1730.5,-251.5 1739.8,-241.64 1739.2,-231.39 1730.5,-221 1620.95,-90.13 1043.71,-69.55 896.63,-66.42"/>
<polygon fill="#63b8ff" stroke="#63b8ff" points="896.84,-62.92 886.78,-66.22 896.7,-69.92 896.84,-62.92"/>
</a>
</g>
</g>
<!-- Node16 -->
<g id="Node000016" class="node">
<title>Node16</title>
<g id="a_Node000016"><a xlink:title=" ">
<polygon fill="#e0e0e0" stroke="#999999" points="486.5,-245.88 446.5,-245.88 446.5,-226.62 486.5,-226.62 486.5,-245.88"/>
<text xml:space="preserve" text-anchor="middle" x="466.5" y="-232.38" font-family="Helvetica,sans-Serif" font-size="10.00">ctime</text>
</a>
</g>
</g>
<!-- Node11&#45;&gt;Node16 -->
<g id="edge15_Node000011_Node000016" class="edge">
<title>Node11&#45;&gt;Node16</title>
<g id="a_edge15_Node000011_Node000016"><a xlink:title=" ">
<path fill="none" stroke="#63b8ff" d="M934.77,-294.79C847.46,-290.37 579.05,-275.16 495.5,-251.5 494.53,-251.23 493.56,-250.92 492.58,-250.59"/>
<polygon fill="#63b8ff" stroke="#63b8ff" points="494.32,-247.52 483.74,-246.9 491.62,-253.98 494.32,-247.52"/>
</a>
</g>
</g>
<!-- Node17 -->
<g id="Node000017" class="node">
<title>Node17</title>
<g id="a_Node000017"><a xlink:title=" ">
<polygon fill="#e0e0e0" stroke="#999999" points="554.38,-245.88 504.62,-245.88 504.62,-226.62 554.38,-226.62 554.38,-245.88"/>
<text xml:space="preserve" text-anchor="middle" x="529.5" y="-232.38" font-family="Helvetica,sans-Serif" font-size="10.00">iomanip</text>
</a>
</g>
</g>
<!-- Node11&#45;&gt;Node17 -->
<g id="edge16_Node000011_Node000017" class="edge">
<title>Node11&#45;&gt;Node17</title>
<g id="a_edge16_Node000011_Node000017"><a xlink:title=" ">
<path fill="none" stroke="#63b8ff" d="M934.92,-295.73C869.42,-294.22 699.78,-286.9 563.5,-251.5 562.11,-251.14 560.69,-250.73 559.28,-250.29"/>
<polygon fill="#63b8ff" stroke="#63b8ff" points="560.6,-247.04 550.01,-246.89 558.19,-253.62 560.6,-247.04"/>
</a>
</g>
</g>
<!-- Node18 -->
<g id="Node000018" class="node">
<title>Node18</title>
<g id="a_Node000018"><a xlink:title=" ">
<polygon fill="#e0e0e0" stroke="#999999" points="612.5,-245.88 572.5,-245.88 572.5,-226.62 612.5,-226.62 612.5,-245.88"/>
<text xml:space="preserve" text-anchor="middle" x="592.5" y="-232.38" font-family="Helvetica,sans-Serif" font-size="10.00">regex</text>
</a>
</g>
</g>
<!-- Node11&#45;&gt;Node18 -->
<g id="edge17_Node000011_Node000018" class="edge">
<title>Node11&#45;&gt;Node18</title>
<g id="a_edge17_Node000011_Node000018"><a xlink:title=" ">
<path fill="none" stroke="#63b8ff" d="M934.9,-295.54C876.05,-293.65 734.38,-285.61 621.5,-251.5 620.69,-251.26 619.88,-250.99 619.07,-250.71"/>
<polygon fill="#63b8ff" stroke="#63b8ff" points="620.65,-247.58 610.08,-246.94 617.95,-254.04 620.65,-247.58"/>
</a>
</g>
</g>
<!-- Node19 -->
<g id="Node000019" class="node">
<title>Node19</title>
<g id="a_Node000019"><a xlink:title=" ">
<polygon fill="#e0e0e0" stroke="#999999" points="682.12,-245.88 630.88,-245.88 630.88,-226.62 682.12,-226.62 682.12,-245.88"/>
<text xml:space="preserve" text-anchor="middle" x="656.5" y="-232.38" font-family="Helvetica,sans-Serif" font-size="10.00">sstream</text>
</a>
</g>
</g>
<!-- Node11&#45;&gt;Node19 -->
<g id="edge18_Node000011_Node000019" class="edge">
<title>Node11&#45;&gt;Node19</title>
<g id="a_edge18_Node000011_Node000019"><a xlink:title=" ">
<path fill="none" stroke="#63b8ff" d="M934.75,-293.62C885.17,-288.7 778.46,-276.03 691.5,-251.5 690.11,-251.11 688.71,-250.68 687.3,-250.22"/>
<polygon fill="#63b8ff" stroke="#63b8ff" points="688.61,-246.97 678.01,-246.84 686.21,-253.55 688.61,-246.97"/>
</a>
</g>
</g>
<!-- Node20 -->
<g id="Node000020" class="node">
<title>Node20</title>
<g id="a_Node000020"><a xlink:title=" ">
<polygon fill="#e0e0e0" stroke="#999999" points="804.75,-245.88 700.25,-245.88 700.25,-226.62 804.75,-226.62 804.75,-245.88"/>
<text xml:space="preserve" text-anchor="middle" x="752.5" y="-232.38" font-family="Helvetica,sans-Serif" font-size="10.00">boost/date_time.hpp</text>
</a>
</g>
</g>
<!-- Node11&#45;&gt;Node20 -->
<g id="edge20_Node000011_Node000020" class="edge">
<title>Node11&#45;&gt;Node20</title>
<g id="a_edge20_Node000011_Node000020"><a xlink:title=" ">
<path fill="none" stroke="#63b8ff" d="M934.61,-288.31C899.15,-278.36 837.53,-261.09 795.9,-249.42"/>
<polygon fill="#63b8ff" stroke="#63b8ff" points="797.02,-246.1 786.45,-246.77 795.13,-252.84 797.02,-246.1"/>
</a>
</g>
</g>
<!-- Node21 -->
<g id="Node000021" class="node">
<title>Node21</title>
<g id="a_Node000021"><a xlink:title=" ">
<polygon fill="#e0e0e0" stroke="#999999" points="963.75,-245.88 823.25,-245.88 823.25,-226.62 963.75,-226.62 963.75,-245.88"/>
<text xml:space="preserve" text-anchor="middle" x="893.5" y="-232.38" font-family="Helvetica,sans-Serif" font-size="10.00">boost/endian/conversion.hpp</text>
</a>
</g>
</g>
<!-- Node11&#45;&gt;Node21 -->
<g id="edge21_Node000011_Node000021" class="edge">
<title>Node11&#45;&gt;Node21</title>
<g id="a_edge21_Node000011_Node000021"><a xlink:title=" ">
<path fill="none" stroke="#63b8ff" d="M952.02,-287.18C941.58,-278.28 925.33,-264.41 912.59,-253.54"/>
<polygon fill="#63b8ff" stroke="#63b8ff" points="915.11,-251.09 905.23,-247.26 910.56,-256.41 915.11,-251.09"/>
</a>
</g>
</g>
<!-- Node22 -->
<g id="Node000022" class="node">
<title>Node22</title>
<g id="a_Node000022"><a xlink:title=" ">
<polygon fill="#e0e0e0" stroke="#999999" points="1082.88,-245.88 982.12,-245.88 982.12,-226.62 1082.88,-226.62 1082.88,-245.88"/>
<text xml:space="preserve" text-anchor="middle" x="1032.5" y="-232.38" font-family="Helvetica,sans-Serif" font-size="10.00">boost/uuid/uuid.hpp</text>
</a>
</g>
</g>
<!-- Node11&#45;&gt;Node22 -->
<g id="edge22_Node000011_Node000022" class="edge">
<title>Node11&#45;&gt;Node22</title>
<g id="a_edge22_Node000011_Node000022"><a xlink:title=" ">
<path fill="none" stroke="#63b8ff" d="M973.13,-287.18C983.72,-278.28 1000.21,-264.41 1013.13,-253.54"/>
<polygon fill="#63b8ff" stroke="#63b8ff" points="1015.21,-256.37 1020.61,-247.25 1010.7,-251.01 1015.21,-256.37"/>
</a>
</g>
</g>
<!-- Node23 -->
<g id="Node000023" class="node">
<title>Node23</title>
<g id="a_Node000023"><a xlink:title=" ">
<polygon fill="#e0e0e0" stroke="#999999" points="1252.38,-245.88 1100.62,-245.88 1100.62,-226.62 1252.38,-226.62 1252.38,-245.88"/>
<text xml:space="preserve" text-anchor="middle" x="1176.5" y="-232.38" font-family="Helvetica,sans-Serif" font-size="10.00">boost/uuid/uuid_generators.hpp</text>
</a>
</g>
</g>
<!-- Node11&#45;&gt;Node23 -->
<g id="edge23_Node000011_Node000023" class="edge">
<title>Node11&#45;&gt;Node23</title>
<g id="a_edge23_Node000011_Node000023"><a xlink:title=" ">
<path fill="none" stroke="#63b8ff" d="M990.48,-288.43C1026.67,-278.47 1090.12,-261.02 1132.72,-249.3"/>
<polygon fill="#63b8ff" stroke="#63b8ff" points="1133.43,-252.73 1142.15,-246.7 1131.58,-245.98 1133.43,-252.73"/>
</a>
</g>
</g>
<!-- Node24 -->
<g id="Node000024" class="node">
<title>Node24</title>
<g id="a_Node000024"><a xlink:title=" ">
<polygon fill="#e0e0e0" stroke="#999999" points="1384.25,-245.88 1270.75,-245.88 1270.75,-226.62 1384.25,-226.62 1384.25,-245.88"/>
<text xml:space="preserve" text-anchor="middle" x="1327.5" y="-232.38" font-family="Helvetica,sans-Serif" font-size="10.00">boost/uuid/uuid_io.hpp</text>
</a>
</g>
</g>
<!-- Node11&#45;&gt;Node24 -->
<g id="edge24_Node000011_Node000024" class="edge">
<title>Node11&#45;&gt;Node24</title>
<g id="a_edge24_Node000011_Node000024"><a xlink:title=" ">
<path fill="none" stroke="#63b8ff" d="M990.22,-292.6C1043.13,-285.73 1162.11,-269.63 1261.5,-251.5 1266.37,-250.61 1271.42,-249.63 1276.47,-248.61"/>
<polygon fill="#63b8ff" stroke="#63b8ff" points="1276.88,-252.1 1285.96,-246.64 1275.46,-245.24 1276.88,-252.1"/>
</a>
</g>
</g>
<!-- Node25 -->
<g id="Node000025" class="node">
<title>Node25</title>
<g id="a_Node000025"><a xlink:title=" ">
<polygon fill="#e0e0e0" stroke="#999999" points="1522.25,-251.5 1402.75,-251.5 1402.75,-221 1522.25,-221 1522.25,-251.5"/>
<text xml:space="preserve" text-anchor="start" x="1410.75" y="-238" font-family="Helvetica,sans-Serif" font-size="10.00">boost/date_time/c_local</text>
<text xml:space="preserve" text-anchor="middle" x="1462.5" y="-226.75" font-family="Helvetica,sans-Serif" font-size="10.00">_time_adjustor.hpp</text>
</a>
</g>
</g>
<!-- Node11&#45;&gt;Node25 -->
<g id="edge25_Node000011_Node000025" class="edge">
<title>Node11&#45;&gt;Node25</title>
<g id="a_edge25_Node000011_Node000025"><a xlink:title=" ">
<path fill="none" stroke="#63b8ff" d="M990.36,-294.22C1057.49,-289.41 1233.69,-275.56 1391.06,-251.77"/>
<polygon fill="#63b8ff" stroke="#63b8ff" points="1391.5,-255.25 1400.86,-250.27 1390.44,-248.33 1391.5,-255.25"/>
</a>
</g>
</g>
<!-- Node11&#45;&gt;Node26 -->
<g id="edge26_Node000011_Node000026" class="edge">
<title>Node11&#45;&gt;Node26</title>
<g id="a_edge26_Node000011_Node000026"><a xlink:title=" ">
<path fill="none" stroke="#63b8ff" d="M934.76,-296.38C816.46,-297.19 358.28,-297.34 315.5,-251.5 306.25,-241.59 307.38,-231.86 315.5,-221 349.35,-175.72 385.45,-207.07 437.5,-185 453.49,-178.22 455.3,-172 471.5,-165.75 520.17,-146.99 578.71,-135.05 619.66,-128.28"/>
<polygon fill="#63b8ff" stroke="#63b8ff" points="620.17,-131.75 629.49,-126.71 619.06,-124.83 620.17,-131.75"/>
</a>
</g>
</g>
<!-- Node32 -->
<g id="Node000032" class="node">
<title>Node32</title>
<g id="a_Node000032"><a xlink:href="_h_d_f5_i_o_8hpp.html" target="_top" xlink:title=" ">
<polygon fill="white" stroke="#666666" points="428.38,-245.88 324.62,-245.88 324.62,-226.62 428.38,-226.62 428.38,-245.88"/>
<text xml:space="preserve" text-anchor="middle" x="376.5" y="-232.38" font-family="Helvetica,sans-Serif" font-size="10.00">io/hdf5/HDF5IO.hpp</text>
</a>
</g>
</g>
<!-- Node11&#45;&gt;Node32 -->
<g id="edge39_Node000011_Node000032" class="edge">
<title>Node11&#45;&gt;Node32</title>
<g id="a_edge39_Node000011_Node000032"><a xlink:title=" ">
<path fill="none" stroke="#63b8ff" d="M934.72,-295.18C856.21,-292.2 626.1,-281.38 437.5,-251.5 432.59,-250.72 427.5,-249.77 422.43,-248.73"/>
<polygon fill="#63b8ff" stroke="#63b8ff" points="423.48,-245.37 412.97,-246.66 421.99,-252.21 423.48,-245.37"/>
</a>
</g>
</g>
<!-- Node26&#45;&gt;Node4 -->
<g id="edge30_Node000026_Node000004" class="edge">
<title>Node26&#45;&gt;Node4</title>
<g id="a_edge30_Node000026_Node000004"><a xlink:title=" ">
<path fill="none" stroke="#63b8ff" d="M630.92,-113.02C563.64,-102.63 427.88,-81.68 362.43,-71.58"/>
<polygon fill="#63b8ff" stroke="#63b8ff" points="363.35,-68.18 352.93,-70.11 362.28,-75.09 363.35,-68.18"/>
</a>
</g>
</g>
<!-- Node26&#45;&gt;Node5 -->
<g id="edge31_Node000026_Node000005" class="edge">
<title>Node26&#45;&gt;Node5</title>
<g id="a_edge31_Node000026_Node000005"><a xlink:title=" ">
<path fill="none" stroke="#63b8ff" d="M710.01,-117.2C883.3,-108.75 1574.42,-75.05 1730.89,-67.42"/>
<polygon fill="#63b8ff" stroke="#63b8ff" points="1730.69,-70.93 1740.5,-66.95 1730.35,-63.94 1730.69,-70.93"/>
</a>
</g>
</g>
<!-- Node26&#45;&gt;Node6 -->
<g id="edge33_Node000026_Node000006" class="edge">
<title>Node26&#45;&gt;Node6</title>
<g id="a_edge33_Node000026_Node000006"><a xlink:title=" ">
<path fill="none" stroke="#63b8ff" d="M709.85,-119.42C853.15,-120.1 1360.7,-119.1 1788.46,-74.68"/>
<polygon fill="#63b8ff" stroke="#63b8ff" points="1788.73,-78.17 1798.31,-73.64 1788,-71.21 1788.73,-78.17"/>
</a>
</g>
</g>
<!-- Node26&#45;&gt;Node7 -->
<g id="edge34_Node000026_Node000007" class="edge">
<title>Node26&#45;&gt;Node7</title>
<g id="a_edge34_Node000026_Node000007"><a xlink:title=" ">
<path fill="none" stroke="#63b8ff" d="M710.05,-118.43C889.87,-115.17 1632.3,-100.44 1889.14,-74.55"/>
<polygon fill="#63b8ff" stroke="#63b8ff" points="1889.18,-78.07 1898.77,-73.55 1888.46,-71.1 1889.18,-78.07"/>
</a>
</g>
</g>
<!-- Node26&#45;&gt;Node8 -->
<g id="edge38_Node000026_Node000008" class="edge">
<title>Node26&#45;&gt;Node8</title>
<g id="a_edge38_Node000026_Node000008"><a xlink:title=" ">
<path fill="none" stroke="#63b8ff" d="M631.01,-115.24C561.86,-108.27 414.39,-92.66 290.5,-74.5 288.2,-74.16 285.83,-73.8 283.45,-73.42"/>
<polygon fill="#63b8ff" stroke="#63b8ff" points="284.23,-70 273.79,-71.82 283.09,-76.91 284.23,-70"/>
</a>
</g>
</g>
<!-- Node26&#45;&gt;Node10 -->
<g id="edge36_Node000026_Node000010" class="edge">
<title>Node26&#45;&gt;Node10</title>
<g id="a_edge36_Node000026_Node000010"><a xlink:title=" ">
<path fill="none" stroke="#63b8ff" d="M671.71,-110.25C673.05,-96.41 673.34,-69.76 658.5,-55.25 625.2,-22.69 484.93,-13.84 420.33,-11.47"/>
<polygon fill="#63b8ff" stroke="#63b8ff" points="420.81,-7.98 410.7,-11.15 420.58,-14.98 420.81,-7.98"/>
</a>
</g>
</g>
<!-- Node26&#45;&gt;Node15 -->
<g id="edge28_Node000026_Node000015" class="edge">
<title>Node26&#45;&gt;Node15</title>
<g id="a_edge28_Node000026_Node000015"><a xlink:title=" ">
<path fill="none" stroke="#63b8ff" d="M703.19,-110.07C733.43,-101.7 779.94,-88.81 828.44,-75.35"/>
<polygon fill="#63b8ff" stroke="#63b8ff" points="829.32,-78.74 838.02,-72.69 827.45,-71.99 829.32,-78.74"/>
</a>
</g>
</g>
<!-- Node27 -->
<g id="Node000027" class="node">
<title>Node27</title>
<g id="a_Node000027"><a xlink:title=" ">
<polygon fill="#e0e0e0" stroke="#999999" points="447.38,-74.5 415.62,-74.5 415.62,-55.25 447.38,-55.25 447.38,-74.5"/>
<text xml:space="preserve" text-anchor="middle" x="431.5" y="-61" font-family="Helvetica,sans-Serif" font-size="10.00">any</text>
</a>
</g>
</g>
<!-- Node26&#45;&gt;Node27 -->
<g id="edge27_Node000026_Node000027" class="edge">
<title>Node26&#45;&gt;Node27</title>
<g id="a_edge27_Node000026_Node000027"><a xlink:title=" ">
<path fill="none" stroke="#63b8ff" d="M631.09,-112.45C590.17,-105.19 524.12,-92.51 458.72,-74.83"/>
<polygon fill="#63b8ff" stroke="#63b8ff" points="459.84,-71.51 449.27,-72.24 457.99,-78.26 459.84,-71.51"/>
</a>
</g>
</g>
<!-- Node28 -->
<g id="Node000028" class="node">
<title>Node28</title>
<g id="a_Node000028"><a xlink:title=" ">
<polygon fill="#e0e0e0" stroke="#999999" points="759.25,-74.5 705.75,-74.5 705.75,-55.25 759.25,-55.25 759.25,-74.5"/>
<text xml:space="preserve" text-anchor="middle" x="732.5" y="-61" font-family="Helvetica,sans-Serif" font-size="10.00">iostream</text>
</a>
</g>
</g>
<!-- Node26&#45;&gt;Node28 -->
<g id="edge29_Node000026_Node000028" class="edge">
<title>Node26&#45;&gt;Node28</title>
<g id="a_edge29_Node000026_Node000028"><a xlink:title=" ">
<path fill="none" stroke="#63b8ff" d="M681.02,-110.09C689.89,-102.47 702.81,-91.37 713.49,-82.2"/>
<polygon fill="#63b8ff" stroke="#63b8ff" points="715.68,-84.93 720.99,-75.76 711.12,-79.62 715.68,-84.93"/>
</a>
</g>
</g>
<!-- Node29 -->
<g id="Node000029" class="node">
<title>Node29</title>
<g id="a_Node000029"><a xlink:title=" ">
<polygon fill="#e0e0e0" stroke="#999999" points="523.5,-74.5 465.5,-74.5 465.5,-55.25 523.5,-55.25 523.5,-74.5"/>
<text xml:space="preserve" text-anchor="middle" x="494.5" y="-61" font-family="Helvetica,sans-Serif" font-size="10.00">typeindex</text>
</a>
</g>
</g>
<!-- Node26&#45;&gt;Node29 -->
<g id="edge32_Node000026_Node000029" class="edge">
<title>Node26&#45;&gt;Node29</title>
<g id="a_edge32_Node000026_Node000029"><a xlink:title=" ">
<path fill="none" stroke="#63b8ff" d="M640.64,-110.09C611.52,-101.28 567.01,-87.81 534.76,-78.06"/>
<polygon fill="#63b8ff" stroke="#63b8ff" points="535.95,-74.76 525.36,-75.21 533.92,-81.46 535.95,-74.76"/>
</a>
</g>
</g>
<!-- Node30 -->
<g id="Node000030" class="node">
<title>Node30</title>
<g id="a_Node000030"><a xlink:title=" ">
<polygon fill="#e0e0e0" stroke="#999999" points="822.12,-74.5 776.88,-74.5 776.88,-55.25 822.12,-55.25 822.12,-74.5"/>
<text xml:space="preserve" text-anchor="middle" x="799.5" y="-61" font-family="Helvetica,sans-Serif" font-size="10.00">variant</text>
</a>
</g>
</g>
<!-- Node26&#45;&gt;Node30 -->
<g id="edge35_Node000026_Node000030" class="edge">
<title>Node26&#45;&gt;Node30</title>
<g id="a_edge35_Node000026_Node000030"><a xlink:title=" ">
<path fill="none" stroke="#63b8ff" d="M692.38,-110.09C712.86,-101.64 743.71,-88.9 767.06,-79.27"/>
<polygon fill="#63b8ff" stroke="#63b8ff" points="768.2,-82.58 776.11,-75.53 765.53,-76.11 768.2,-82.58"/>
</a>
</g>
</g>
<!-- Node31 -->
<g id="Node000031" class="node">
<title>Node31</title>
<g id="a_Node000031"><a xlink:title=" ">
<polygon fill="#e0e0e0" stroke="#999999" points="649.62,-74.5 541.38,-74.5 541.38,-55.25 649.62,-55.25 649.62,-74.5"/>
<text xml:space="preserve" text-anchor="middle" x="595.5" y="-61" font-family="Helvetica,sans-Serif" font-size="10.00">boost/multi_array.hpp</text>
</a>
</g>
</g>
<!-- Node26&#45;&gt;Node31 -->
<g id="edge37_Node000026_Node000031" class="edge">
<title>Node26&#45;&gt;Node31</title>
<g id="a_edge37_Node000026_Node000031"><a xlink:title=" ">
<path fill="none" stroke="#63b8ff" d="M657.78,-110.09C646.79,-102.29 630.66,-90.84 617.57,-81.54"/>
<polygon fill="#63b8ff" stroke="#63b8ff" points="619.7,-78.76 609.52,-75.83 615.65,-84.47 619.7,-78.76"/>
</a>
</g>
</g>
<!-- Node32&#45;&gt;Node4 -->
<g id="edge41_Node000032_Node000004" class="edge">
<title>Node32&#45;&gt;Node4</title>
<g id="a_edge41_Node000032_Node000004"><a xlink:title=" ">
<path fill="none" stroke="#63b8ff" d="M368.07,-226.45C359.57,-217.01 346.84,-201.19 340.5,-185 327.61,-152.1 325.21,-110.53 325.07,-86.2"/>
<polygon fill="#63b8ff" stroke="#63b8ff" points="328.56,-86.45 325.14,-76.42 321.56,-86.39 328.56,-86.45"/>
</a>
</g>
</g>
<!-- Node32&#45;&gt;Node5 -->
<g id="edge42_Node000032_Node000005" class="edge">
<title>Node32&#45;&gt;Node5</title>
<g id="a_edge42_Node000032_Node000005"><a xlink:title=" ">
<path fill="none" stroke="#63b8ff" d="M412.49,-226.13C420.67,-224.26 429.36,-222.42 437.5,-221 699.14,-175.27 1555.56,-86.96 1730.95,-69.08"/>
<polygon fill="#63b8ff" stroke="#63b8ff" points="1731.06,-72.59 1740.66,-68.09 1730.35,-65.62 1731.06,-72.59"/>
</a>
</g>
</g>
<!-- Node32&#45;&gt;Node8 -->
<g id="edge44_Node000032_Node000008" class="edge">
<title>Node32&#45;&gt;Node8</title>
<g id="a_edge44_Node000032_Node000008"><a xlink:title=" ">
<path fill="none" stroke="#63b8ff" d="M367.74,-226.23C358.27,-216.36 342.87,-199.94 330.5,-185 301.82,-150.35 270.96,-107.69 254.16,-83.97"/>
<polygon fill="#63b8ff" stroke="#63b8ff" points="257.18,-82.17 248.56,-76.01 251.45,-86.2 257.18,-82.17"/>
</a>
</g>
</g>
<!-- Node32&#45;&gt;Node26 -->
<g id="edge45_Node000032_Node000026" class="edge">
<title>Node32&#45;&gt;Node26</title>
<g id="a_edge45_Node000032_Node000026"><a xlink:title=" ">
<path fill="none" stroke="#63b8ff" d="M393.57,-226.15C424.88,-209.53 490.51,-175.12 514.5,-165.75 548.97,-152.28 589.14,-140.88 620.09,-132.98"/>
<polygon fill="#63b8ff" stroke="#63b8ff" points="620.73,-136.43 629.57,-130.6 619.02,-129.64 620.73,-136.43"/>
</a>
</g>
</g>
<!-- Node32&#45;&gt;Node28 -->
<g id="edge40_Node000032_Node000028" class="edge">
<title>Node32&#45;&gt;Node28</title>
<g id="a_edge40_Node000032_Node000028"><a xlink:title=" ">
<path fill="none" stroke="#63b8ff" d="M414.88,-226.19C422.38,-224.45 430.18,-222.65 437.5,-221 565.58,-192.07 636.85,-232.59 718.5,-129.75 728.34,-117.36 731.61,-99.53 732.56,-85.86"/>
<polygon fill="#63b8ff" stroke="#63b8ff" points="736.04,-86.36 732.84,-76.26 729.05,-86.15 736.04,-86.36"/>
</a>
</g>
</g>
<!-- Node33 -->
<g id="Node000033" class="node">
<title>Node33</title>
<g id="a_Node000033"><a xlink:title=" ">
<polygon fill="#e0e0e0" stroke="#999999" points="593.5,-185 523.5,-185 523.5,-165.75 593.5,-165.75 593.5,-185"/>
<text xml:space="preserve" text-anchor="middle" x="558.5" y="-171.5" font-family="Helvetica,sans-Serif" font-size="10.00">H5Opublic.h</text>
</a>
</g>
</g>
<!-- Node32&#45;&gt;Node33 -->
<g id="edge43_Node000032_Node000033" class="edge">
<title>Node32&#45;&gt;Node33</title>
<g id="a_edge43_Node000032_Node000033"><a xlink:title=" ">
<path fill="none" stroke="#63b8ff" d="M404.54,-226.18C435.4,-216.2 485.21,-200.08 519.78,-188.9"/>
<polygon fill="#63b8ff" stroke="#63b8ff" points="520.55,-192.33 528.99,-185.92 518.4,-185.67 520.55,-192.33"/>
</a>
</g>
</g>
<!-- Node32&#45;&gt;Node34 -->
<g id="edge46_Node000032_Node000034" class="edge">
<title>Node32&#45;&gt;Node34</title>
<g id="a_edge46_Node000032_Node000034"><a xlink:title=" ">
<path fill="none" stroke="#63b8ff" d="M378.47,-226.31C380.21,-218.44 382.8,-206.7 385.04,-196.57"/>
<polygon fill="#63b8ff" stroke="#63b8ff" points="388.44,-197.4 387.18,-186.88 381.61,-195.89 388.44,-197.4"/>
</a>
</g>
</g>
<!-- Node34&#45;&gt;Node4 -->
<g id="edge50_Node000034_Node000004" class="edge">
<title>Node34&#45;&gt;Node4</title>
<g id="a_edge50_Node000034_Node000004"><a xlink:title=" ">
<path fill="none" stroke="#63b8ff" d="M384.26,-165.5C373.9,-147.93 350.59,-108.41 336.64,-84.77"/>
<polygon fill="#63b8ff" stroke="#63b8ff" points="339.67,-83.02 331.58,-76.18 333.64,-86.57 339.67,-83.02"/>
</a>
</g>
</g>
<!-- Node34&#45;&gt;Node5 -->
<g id="edge51_Node000034_Node000005" class="edge">
<title>Node34&#45;&gt;Node5</title>
<g id="a_edge51_Node000034_Node000005"><a xlink:title=" ">
<path fill="none" stroke="#63b8ff" d="M429.48,-171.22C632.67,-155.16 1548.39,-82.79 1730.83,-68.38"/>
<polygon fill="#63b8ff" stroke="#63b8ff" points="1731.02,-71.87 1740.71,-67.6 1730.47,-64.9 1731.02,-71.87"/>
</a>
</g>
</g>
<!-- Node34&#45;&gt;Node8 -->
<g id="edge56_Node000034_Node000008" class="edge">
<title>Node34&#45;&gt;Node8</title>
<g id="a_edge56_Node000034_Node000008"><a xlink:title=" ">
<path fill="none" stroke="#63b8ff" d="M377.14,-165.31C351.94,-146.84 294.36,-104.63 262.93,-81.59"/>
<polygon fill="#63b8ff" stroke="#63b8ff" points="265.08,-78.82 254.95,-75.73 260.94,-84.47 265.08,-78.82"/>
</a>
</g>
</g>
<!-- Node34&#45;&gt;Node10 -->
<g id="edge53_Node000034_Node000010" class="edge">
<title>Node34&#45;&gt;Node10</title>
<g id="a_edge53_Node000034_Node000010"><a xlink:title=" ">
<path fill="none" stroke="#63b8ff" d="M389.39,-165.57C389.08,-140.25 388.19,-66.75 387.75,-30.84"/>
<polygon fill="#63b8ff" stroke="#63b8ff" points="391.25,-30.94 387.63,-20.99 384.25,-31.03 391.25,-30.94"/>
</a>
</g>
</g>
<!-- Node34&#45;&gt;Node15 -->
<g id="edge48_Node000034_Node000015" class="edge">
<title>Node34&#45;&gt;Node15</title>
<g id="a_edge48_Node000034_Node000015"><a xlink:title=" ">
<path fill="none" stroke="#63b8ff" d="M429.45,-170.38C504.75,-162.62 664.91,-144.94 718.5,-129.75 761.43,-117.58 808.13,-94.98 836.36,-80.18"/>
<polygon fill="#63b8ff" stroke="#63b8ff" points="837.7,-83.43 844.89,-75.65 834.42,-77.25 837.7,-83.43"/>
</a>
</g>
</g>
<!-- Node34&#45;&gt;Node26 -->
<g id="edge55_Node000034_Node000026" class="edge">
<title>Node34&#45;&gt;Node26</title>
<g id="a_edge55_Node000034_Node000026"><a xlink:title=" ">
<path fill="none" stroke="#63b8ff" d="M429.46,-166.8C479.54,-157.31 565.4,-141.04 619.98,-130.7"/>
<polygon fill="#63b8ff" stroke="#63b8ff" points="620.47,-134.17 629.64,-128.87 619.16,-127.29 620.47,-134.17"/>
</a>
</g>
</g>
<!-- Node34&#45;&gt;Node27 -->
<g id="edge47_Node000034_Node000027" class="edge">
<title>Node34&#45;&gt;Node27</title>
<g id="a_edge47_Node000034_Node000027"><a xlink:title=" ">
<path fill="none" stroke="#63b8ff" d="M393.15,-165.51C396.83,-156.52 402.65,-142.2 407.5,-129.75 413.23,-115.03 419.51,-98.31 424.2,-85.67"/>
<polygon fill="#63b8ff" stroke="#63b8ff" points="427.44,-87.01 427.63,-76.42 420.87,-84.58 427.44,-87.01"/>
</a>
</g>
</g>
<!-- Node34&#45;&gt;Node28 -->
<g id="edge49_Node000034_Node000028" class="edge">
<title>Node34&#45;&gt;Node28</title>
<g id="a_edge49_Node000034_Node000028"><a xlink:title=" ">
<path fill="none" stroke="#63b8ff" d="M418.15,-165.31C479.92,-145.77 625.62,-99.69 694.78,-77.81"/>
<polygon fill="#63b8ff" stroke="#63b8ff" points="695.67,-81.2 704.15,-74.84 693.56,-74.52 695.67,-81.2"/>
</a>
</g>
</g>
<!-- Node34&#45;&gt;Node29 -->
<g id="edge52_Node000034_Node000029" class="edge">
<title>Node34&#45;&gt;Node29</title>
<g id="a_edge52_Node000034_Node000029"><a xlink:title=" ">
<path fill="none" stroke="#63b8ff" d="M398.09,-165.5C415.55,-147.46 455.43,-106.25 478.05,-82.88"/>
<polygon fill="#63b8ff" stroke="#63b8ff" points="480.3,-85.58 484.74,-75.96 475.27,-80.72 480.3,-85.58"/>
</a>
</g>
</g>
<!-- Node34&#45;&gt;Node31 -->
<g id="edge54_Node000034_Node000031" class="edge">
<title>Node34&#45;&gt;Node31</title>
<g id="a_edge54_Node000034_Node000031"><a xlink:title=" ">
<path fill="none" stroke="#63b8ff" d="M406.71,-165.31C442.46,-146.48 525,-103.01 568.13,-80.29"/>
<polygon fill="#63b8ff" stroke="#63b8ff" points="569.64,-83.45 576.86,-75.69 566.38,-77.26 569.64,-83.45"/>
</a>
</g>
</g>
</g>
</svg>
