<?xml version="1.0" encoding="UTF-8" standalone="no"?>
<!DOCTYPE svg PUBLIC "-//W3C//DTD SVG 1.1//EN"
 "http://www.w3.org/Graphics/SVG/1.1/DTD/svg11.dtd">
<!-- Generated by graphviz version 14.1.0 (20251206.1807)
 -->
<!-- Title: src/nwb/RegisteredType.hpp Pages: 1 -->
<svg width="1541pt" height="482pt"
 viewBox="0.00 0.00 1541.00 482.00" xmlns="http://www.w3.org/2000/svg" xmlns:xlink="http://www.w3.org/1999/xlink">
<g id="graph0" class="graph" transform="scale(1 1) rotate(0) translate(4 477.5)">
<title>src/nwb/RegisteredType.hpp</title>
<!-- Node1 -->
<g id="Node000001" class="node">
<title>Node1</title>
<g id="a_Node000001"><a xlink:title=" ">
<polygon fill="#999999" stroke="#666666" points="781,-473.5 640.5,-473.5 640.5,-454.25 781,-454.25 781,-473.5"/>
<text xml:space="preserve" text-anchor="middle" x="710.75" y="-460" font-family="Helvetica,sans-Serif" font-size="10.00">src/nwb/RegisteredType.hpp</text>
</a>
</g>
</g>
<!-- Node2 -->
<g id="Node000002" class="node">
<title>Node2</title>
<g id="a_Node000002"><a xlink:href="_registered_type_8cpp.html" target="_top" xlink:title=" ">
<polygon fill="white" stroke="#666666" points="449,-418.25 308.5,-418.25 308.5,-399 449,-399 449,-418.25"/>
<text xml:space="preserve" text-anchor="middle" x="378.75" y="-404.75" font-family="Helvetica,sans-Serif" font-size="10.00">src/nwb/RegisteredType.cpp</text>
</a>
</g>
</g>
<!-- Node1&#45;&gt;Node2 -->
<g id="edge1_Node000001_Node000002" class="edge">
<title>Node1&#45;&gt;Node2</title>
<g id="a_edge1_Node000001_Node000002"><a xlink:title=" ">
<path fill="none" stroke="#63b8ff" d="M642.98,-452C581.84,-442.2 492.95,-427.94 435.49,-418.73"/>
<polygon fill="#63b8ff" stroke="#63b8ff" points="642.13,-455.41 652.56,-453.54 643.24,-448.5 642.13,-455.41"/>
</a>
</g>
</g>
<!-- Node3 -->
<g id="Node000003" class="node">
<title>Node3</title>
<g id="a_Node000003"><a xlink:href="_n_w_b_container_8hpp.html" target="_top" xlink:title=" ">
<polygon fill="white" stroke="#666666" points="666.5,-357.38 505,-357.38 505,-338.12 666.5,-338.12 666.5,-357.38"/>
<text xml:space="preserve" text-anchor="middle" x="585.75" y="-343.88" font-family="Helvetica,sans-Serif" font-size="10.00">src/nwb/base/NWBContainer.hpp</text>
</a>
</g>
</g>
<!-- Node1&#45;&gt;Node3 -->
<g id="edge2_Node000001_Node000003" class="edge">
<title>Node1&#45;&gt;Node3</title>
<g id="a_edge2_Node000001_Node000003"><a xlink:title=" ">
<path fill="none" stroke="#63b8ff" d="M692.45,-446.17C665.58,-421.63 616.37,-376.71 595.51,-357.66"/>
<polygon fill="#63b8ff" stroke="#63b8ff" points="690.08,-448.74 699.82,-452.9 694.8,-443.57 690.08,-448.74"/>
</a>
</g>
</g>
<!-- Node7 -->
<g id="Node000007" class="node">
<title>Node7</title>
<g id="a_Node000007"><a xlink:href="_n_w_b_data_interface_8hpp.html" target="_top" xlink:title=" ">
<polygon fill="white" stroke="#666666" points="360.5,-290.88 181,-290.88 181,-271.62 360.5,-271.62 360.5,-290.88"/>
<text xml:space="preserve" text-anchor="middle" x="270.75" y="-277.38" font-family="Helvetica,sans-Serif" font-size="10.00">src/nwb/base/NWBDataInterface.hpp</text>
</a>
</g>
</g>
<!-- Node1&#45;&gt;Node7 -->
<g id="edge35_Node000001_Node000007" class="edge">
<title>Node1&#45;&gt;Node7</title>
<g id="a_edge35_Node000001_Node000007"><a xlink:title=" ">
<path fill="none" stroke="#63b8ff" d="M678.02,-449.44C592.67,-414.4 364.94,-320.92 292.92,-291.35"/>
<polygon fill="#63b8ff" stroke="#63b8ff" points="676.65,-452.66 687.23,-453.22 679.31,-446.18 676.65,-452.66"/>
</a>
</g>
</g>
<!-- Node23 -->
<g id="Node000023" class="node">
<title>Node23</title>
<g id="a_Node000023"><a xlink:href="_n_w_b_data_8hpp.html" target="_top" xlink:title=" ">
<polygon fill="white" stroke="#666666" points="1533.38,-357.38 1392.12,-357.38 1392.12,-338.12 1533.38,-338.12 1533.38,-357.38"/>
<text xml:space="preserve" text-anchor="middle" x="1462.75" y="-343.88" font-family="Helvetica,sans-Serif" font-size="10.00">src/nwb/base/NWBData.hpp</text>
</a>
</g>
</g>
<!-- Node1&#45;&gt;Node23 -->
<g id="edge33_Node000001_Node000023" class="edge">
<title>Node1&#45;&gt;Node23</title>
<g id="a_edge33_Node000001_Node000023"><a xlink:title=" ">
<path fill="none" stroke="#63b8ff" d="M792.85,-458.14C884.48,-452.09 1036.93,-439.74 1166.75,-418.25 1263.87,-402.17 1376.58,-372.63 1430.62,-357.78"/>
<polygon fill="#63b8ff" stroke="#63b8ff" points="792.7,-454.64 782.95,-458.78 793.15,-461.63 792.7,-454.64"/>
</a>
</g>
</g>
<!-- Node25 -->
<g id="Node000025" class="node">
<title>Node25</title>
<g id="a_Node000025"><a xlink:href="_container_8hpp.html" target="_top" xlink:title=" ">
<polygon fill="white" stroke="#666666" points="846.88,-418.25 684.62,-418.25 684.62,-399 846.88,-399 846.88,-418.25"/>
<text xml:space="preserve" text-anchor="middle" x="765.75" y="-404.75" font-family="Helvetica,sans-Serif" font-size="10.00">src/nwb/hdmf/base/Container.hpp</text>
</a>
</g>
</g>
<!-- Node1&#45;&gt;Node25 -->
<g id="edge36_Node000001_Node000025" class="edge">
<title>Node1&#45;&gt;Node25</title>
<g id="a_edge36_Node000001_Node000025"><a xlink:title=" ">
<path fill="none" stroke="#63b8ff" d="M728.1,-446.07C737.5,-436.98 748.73,-426.1 756.47,-418.61"/>
<polygon fill="#63b8ff" stroke="#63b8ff" points="725.67,-443.56 720.92,-453.03 730.54,-448.59 725.67,-443.56"/>
</a>
</g>
</g>
<!-- Node31 -->
<g id="Node000031" class="node">
<title>Node31</title>
<g id="a_Node000031"><a xlink:href="_data_8hpp.html" target="_top" xlink:title=" ">
<polygon fill="white" stroke="#666666" points="1157.75,-418.25 1015.75,-418.25 1015.75,-399 1157.75,-399 1157.75,-418.25"/>
<text xml:space="preserve" text-anchor="middle" x="1086.75" y="-404.75" font-family="Helvetica,sans-Serif" font-size="10.00">src/nwb/hdmf/base/Data.hpp</text>
</a>
</g>
</g>
<!-- Node1&#45;&gt;Node31 -->
<g id="edge47_Node000001_Node000031" class="edge">
<title>Node1&#45;&gt;Node31</title>
<g id="a_edge47_Node000001_Node000031"><a xlink:title=" ">
<path fill="none" stroke="#63b8ff" d="M786.22,-452.19C855.49,-442.38 957.01,-428 1022.49,-418.73"/>
<polygon fill="#63b8ff" stroke="#63b8ff" points="785.87,-448.7 776.46,-453.57 786.85,-455.63 785.87,-448.7"/>
</a>
</g>
</g>
<!-- Node4 -->
<g id="Node000004" class="node">
<title>Node4</title>
<g id="a_Node000004"><a xlink:href="_n_w_b_file_8hpp.html" target="_top" xlink:title=" ">
<polygon fill="white" stroke="#666666" points="398.75,-91.38 286.75,-91.38 286.75,-72.12 398.75,-72.12 398.75,-91.38"/>
<text xml:space="preserve" text-anchor="middle" x="342.75" y="-77.88" font-family="Helvetica,sans-Serif" font-size="10.00">src/nwb/NWBFile.hpp</text>
</a>
</g>
</g>
<!-- Node3&#45;&gt;Node4 -->
<g id="edge3_Node000003_Node000004" class="edge">
<title>Node3&#45;&gt;Node4</title>
<g id="a_edge3_Node000003_Node000004"><a xlink:title=" ">
<path fill="none" stroke="#63b8ff" d="M493.71,-339.61C462.62,-332.75 430.16,-319.98 407.75,-296.5 356.25,-242.53 396.08,-202.8 369.75,-133 364.02,-117.8 354.55,-101.45 348.48,-91.67"/>
<polygon fill="#63b8ff" stroke="#63b8ff" points="492.65,-342.97 503.14,-341.5 494.02,-336.11 492.65,-342.97"/>
</a>
</g>
</g>
<!-- Node6 -->
<g id="Node000006" class="node">
<title>Node6</title>
<g id="a_Node000006"><a xlink:href="_n_w_b_container_8cpp.html" target="_top" xlink:title=" ">
<polygon fill="white" stroke="#666666" points="730.5,-290.88 569,-290.88 569,-271.62 730.5,-271.62 730.5,-290.88"/>
<text xml:space="preserve" text-anchor="middle" x="649.75" y="-277.38" font-family="Helvetica,sans-Serif" font-size="10.00">src/nwb/base/NWBContainer.cpp</text>
</a>
</g>
</g>
<!-- Node3&#45;&gt;Node6 -->
<g id="edge5_Node000003_Node000006" class="edge">
<title>Node3&#45;&gt;Node6</title>
<g id="a_edge5_Node000003_Node000006"><a xlink:title=" ">
<path fill="none" stroke="#63b8ff" d="M602.42,-329.95C614.73,-317.54 631.02,-301.12 640.93,-291.14"/>
<polygon fill="#63b8ff" stroke="#63b8ff" points="600.27,-327.14 595.71,-336.71 605.24,-332.07 600.27,-327.14"/>
</a>
</g>
</g>
<!-- Node3&#45;&gt;Node7 -->
<g id="edge6_Node000003_Node000007" class="edge">
<title>Node3&#45;&gt;Node7</title>
<g id="a_edge6_Node000003_Node000007"><a xlink:title=" ">
<path fill="none" stroke="#63b8ff" d="M530.29,-335.39C469.06,-322.86 371.69,-302.92 315.24,-291.36"/>
<polygon fill="#63b8ff" stroke="#63b8ff" points="529.3,-338.76 539.8,-337.34 530.71,-331.91 529.3,-338.76"/>
</a>
</g>
</g>
<!-- Node19 -->
<g id="Node000019" class="node">
<title>Node19</title>
<g id="a_Node000019"><a xlink:href="_device_8hpp.html" target="_top" xlink:title=" ">
<polygon fill="white" stroke="#666666" points="551,-290.88 416.5,-290.88 416.5,-271.62 551,-271.62 551,-290.88"/>
<text xml:space="preserve" text-anchor="middle" x="483.75" y="-277.38" font-family="Helvetica,sans-Serif" font-size="10.00">src/nwb/device/Device.hpp</text>
</a>
</g>
</g>
<!-- Node3&#45;&gt;Node19 -->
<g id="edge26_Node000003_Node000019" class="edge">
<title>Node3&#45;&gt;Node19</title>
<g id="a_edge26_Node000003_Node000019"><a xlink:title=" ">
<path fill="none" stroke="#63b8ff" d="M562.03,-331.75C542.26,-319.25 514.73,-301.84 498.14,-291.35"/>
<polygon fill="#63b8ff" stroke="#63b8ff" points="559.97,-334.59 570.29,-336.97 563.71,-328.67 559.97,-334.59"/>
</a>
</g>
</g>
<!-- Node21 -->
<g id="Node000021" class="node">
<title>Node21</title>
<g id="a_Node000021"><a xlink:href="_electrode_group_8hpp.html" target="_top" xlink:title=" ">
<polygon fill="white" stroke="#666666" points="762.5,-224.38 607,-224.38 607,-205.12 762.5,-205.12 762.5,-224.38"/>
<text xml:space="preserve" text-anchor="middle" x="684.75" y="-210.88" font-family="Helvetica,sans-Serif" font-size="10.00">src/nwb/file/ElectrodeGroup.hpp</text>
</a>
</g>
</g>
<!-- Node3&#45;&gt;Node21 -->
<g id="edge32_Node000003_Node000021" class="edge">
<title>Node3&#45;&gt;Node21</title>
<g id="a_edge32_Node000003_Node000021"><a xlink:title=" ">
<path fill="none" stroke="#63b8ff" d="M643.95,-335.17C682.52,-326.18 728.1,-312.56 739.75,-296.5 758.28,-270.96 720.85,-239.91 698.99,-224.83"/>
<polygon fill="#63b8ff" stroke="#63b8ff" points="643.23,-331.74 634.25,-337.36 644.77,-338.57 643.23,-331.74"/>
</a>
</g>
</g>
<!-- Node5 -->
<g id="Node000005" class="node">
<title>Node5</title>
<g id="a_Node000005"><a xlink:href="_n_w_b_file_8cpp.html" target="_top" xlink:title=" ">
<polygon fill="white" stroke="#666666" points="485.75,-24.88 373.75,-24.88 373.75,-5.63 485.75,-5.63 485.75,-24.88"/>
<text xml:space="preserve" text-anchor="middle" x="429.75" y="-11.38" font-family="Helvetica,sans-Serif" font-size="10.00">src/nwb/NWBFile.cpp</text>
</a>
</g>
</g>
<!-- Node4&#45;&gt;Node5 -->
<g id="edge4_Node000004_Node000005" class="edge">
<title>Node4&#45;&gt;Node5</title>
<g id="a_edge4_Node000004_Node000005"><a xlink:title=" ">
<path fill="none" stroke="#63b8ff" d="M363.91,-65.06C380.7,-52.61 403.58,-35.65 417.48,-25.35"/>
<polygon fill="#63b8ff" stroke="#63b8ff" points="362.01,-62.11 356.06,-70.88 366.18,-67.74 362.01,-62.11"/>
</a>
</g>
</g>
<!-- Node8 -->
<g id="Node000008" class="node">
<title>Node8</title>
<g id="a_Node000008"><a xlink:href="_n_w_b_data_interface_8cpp.html" target="_top" xlink:title=" ">
<polygon fill="white" stroke="#666666" points="179.5,-224.38 0,-224.38 0,-205.12 179.5,-205.12 179.5,-224.38"/>
<text xml:space="preserve" text-anchor="middle" x="89.75" y="-210.88" font-family="Helvetica,sans-Serif" font-size="10.00">src/nwb/base/NWBDataInterface.cpp</text>
</a>
</g>
</g>
<!-- Node7&#45;&gt;Node8 -->
<g id="edge7_Node000007_Node000008" class="edge">
<title>Node7&#45;&gt;Node8</title>
<g id="a_edge7_Node000007_Node000008"><a xlink:title=" ">
<path fill="none" stroke="#63b8ff" d="M234.38,-267.29C199.02,-254.69 146.24,-235.88 115.17,-224.81"/>
<polygon fill="#63b8ff" stroke="#63b8ff" points="233.18,-270.58 243.78,-270.64 235.53,-263.98 233.18,-270.58"/>
</a>
</g>
</g>
<!-- Node9 -->
<g id="Node000009" class="node">
<title>Node9</title>
<g id="a_Node000009"><a xlink:href="_time_series_8hpp.html" target="_top" xlink:title=" ">
<polygon fill="white" stroke="#666666" points="343.62,-224.38 197.88,-224.38 197.88,-205.12 343.62,-205.12 343.62,-224.38"/>
<text xml:space="preserve" text-anchor="middle" x="270.75" y="-210.88" font-family="Helvetica,sans-Serif" font-size="10.00">src/nwb/base/TimeSeries.hpp</text>
</a>
</g>
</g>
<!-- Node7&#45;&gt;Node9 -->
<g id="edge8_Node000007_Node000009" class="edge">
<title>Node7&#45;&gt;Node9</title>
<g id="a_edge8_Node000007_Node000009"><a xlink:title=" ">
<path fill="none" stroke="#63b8ff" d="M270.75,-259.77C270.75,-247.94 270.75,-233.66 270.75,-224.64"/>
<polygon fill="#63b8ff" stroke="#63b8ff" points="267.25,-259.77 270.75,-269.77 274.25,-259.77 267.25,-259.77"/>
</a>
</g>
</g>
<!-- Node9&#45;&gt;Node4 -->
<g id="edge9_Node000009_Node000004" class="edge">
<title>Node9&#45;&gt;Node4</title>
<g id="a_edge9_Node000009_Node000004"><a xlink:title=" ">
<path fill="none" stroke="#63b8ff" d="M210.93,-202.54C138.79,-188.88 26.75,-167.17 23.75,-163.5 15.17,-153 14.86,-143.24 23.75,-133 61.13,-89.95 221.65,-107.11 277.75,-97 286.16,-95.48 295.14,-93.65 303.66,-91.82"/>
<polygon fill="#63b8ff" stroke="#63b8ff" points="210.18,-205.96 220.65,-204.38 211.48,-199.08 210.18,-205.96"/>
</a>
</g>
</g>
<!-- Node10 -->
<g id="Node000010" class="node">
<title>Node10</title>
<g id="a_Node000010"><a xlink:href="_recording_containers_8hpp.html" target="_top" xlink:title=" ">
<polygon fill="white" stroke="#666666" points="360.62,-157.88 196.88,-157.88 196.88,-138.62 360.62,-138.62 360.62,-157.88"/>
<text xml:space="preserve" text-anchor="middle" x="278.75" y="-144.38" font-family="Helvetica,sans-Serif" font-size="10.00">src/nwb/RecordingContainers.hpp</text>
</a>
</g>
</g>
<!-- Node9&#45;&gt;Node10 -->
<g id="edge10_Node000009_Node000010" class="edge">
<title>Node9&#45;&gt;Node10</title>
<g id="a_edge10_Node000009_Node000010"><a xlink:title=" ">
<path fill="none" stroke="#63b8ff" d="M273.24,-193.65C274.72,-181.75 276.52,-167.26 277.65,-158.14"/>
<polygon fill="#63b8ff" stroke="#63b8ff" points="269.81,-192.92 272.05,-203.28 276.75,-193.79 269.81,-192.92"/>
</a>
</g>
</g>
<!-- Node12 -->
<g id="Node000012" class="node">
<title>Node12</title>
<g id="a_Node000012"><a xlink:href="_time_series_8cpp.html" target="_top" xlink:title=" ">
<polygon fill="white" stroke="#666666" points="178.62,-157.88 32.88,-157.88 32.88,-138.62 178.62,-138.62 178.62,-157.88"/>
<text xml:space="preserve" text-anchor="middle" x="105.75" y="-144.38" font-family="Helvetica,sans-Serif" font-size="10.00">src/nwb/base/TimeSeries.cpp</text>
</a>
</g>
</g>
<!-- Node9&#45;&gt;Node12 -->
<g id="edge13_Node000009_Node000012" class="edge">
<title>Node9&#45;&gt;Node12</title>
<g id="a_edge13_Node000009_Node000012"><a xlink:title=" ">
<path fill="none" stroke="#63b8ff" d="M236.76,-200.46C204.53,-187.87 157,-169.28 128.92,-158.31"/>
<polygon fill="#63b8ff" stroke="#63b8ff" points="235.46,-203.71 246.05,-204.09 238.01,-197.19 235.46,-203.71"/>
</a>
</g>
</g>
<!-- Node13 -->
<g id="Node000013" class="node">
<title>Node13</title>
<g id="a_Node000013"><a xlink:href="_electrical_series_8hpp.html" target="_top" xlink:title=" ">
<polygon fill="white" stroke="#666666" points="838.62,-163.5 704.88,-163.5 704.88,-133 838.62,-133 838.62,-163.5"/>
<text xml:space="preserve" text-anchor="start" x="712.88" y="-150" font-family="Helvetica,sans-Serif" font-size="10.00">src/nwb/ecephys/Electrical</text>
<text xml:space="preserve" text-anchor="middle" x="771.75" y="-138.75" font-family="Helvetica,sans-Serif" font-size="10.00">Series.hpp</text>
</a>
</g>
</g>
<!-- Node9&#45;&gt;Node13 -->
<g id="edge14_Node000009_Node000013" class="edge">
<title>Node9&#45;&gt;Node13</title>
<g id="a_edge14_Node000009_Node000013"><a xlink:title=" ">
<path fill="none" stroke="#63b8ff" d="M352.82,-203.18C451.01,-190.54 613.53,-169.62 704.59,-157.9"/>
<polygon fill="#63b8ff" stroke="#63b8ff" points="352.44,-199.7 342.97,-204.45 353.33,-206.65 352.44,-199.7"/>
</a>
</g>
</g>
<!-- Node17 -->
<g id="Node000017" class="node">
<title>Node17</title>
<g id="a_Node000017"><a xlink:href="_annotation_series_8hpp.html" target="_top" xlink:title=" ">
<polygon fill="white" stroke="#666666" points="269,-91.38 98.5,-91.38 98.5,-72.12 269,-72.12 269,-91.38"/>
<text xml:space="preserve" text-anchor="middle" x="183.75" y="-77.88" font-family="Helvetica,sans-Serif" font-size="10.00">src/nwb/misc/AnnotationSeries.hpp</text>
</a>
</g>
</g>
<!-- Node9&#45;&gt;Node17 -->
<g id="edge22_Node000009_Node000017" class="edge">
<title>Node9&#45;&gt;Node17</title>
<g id="a_edge22_Node000009_Node000017"><a xlink:title=" ">
<path fill="none" stroke="#63b8ff" d="M208.42,-202.61C133.08,-189.01 15.89,-167.32 12.75,-163.5 -19.98,-123.78 51.48,-102.43 111.81,-91.84"/>
<polygon fill="#63b8ff" stroke="#63b8ff" points="207.72,-206.04 218.18,-204.37 208.96,-199.15 207.72,-206.04"/>
</a>
</g>
</g>
<!-- Node10&#45;&gt;Node4 -->
<g id="edge11_Node000010_Node000004" class="edge">
<title>Node10&#45;&gt;Node4</title>
<g id="a_edge11_Node000010_Node000004"><a xlink:title=" ">
<path fill="none" stroke="#63b8ff" d="M295.42,-130.45C307.73,-118.04 324.02,-101.62 333.93,-91.64"/>
<polygon fill="#63b8ff" stroke="#63b8ff" points="293.27,-127.64 288.71,-137.21 298.24,-132.57 293.27,-127.64"/>
</a>
</g>
</g>
<!-- Node11 -->
<g id="Node000011" class="node">
<title>Node11</title>
<g id="a_Node000011"><a xlink:href="_recording_containers_8cpp.html" target="_top" xlink:title=" ">
<polygon fill="white" stroke="#666666" points="836.62,-24.88 672.88,-24.88 672.88,-5.63 836.62,-5.63 836.62,-24.88"/>
<text xml:space="preserve" text-anchor="middle" x="754.75" y="-11.38" font-family="Helvetica,sans-Serif" font-size="10.00">src/nwb/RecordingContainers.cpp</text>
</a>
</g>
</g>
<!-- Node10&#45;&gt;Node11 -->
<g id="edge12_Node000010_Node000011" class="edge">
<title>Node10&#45;&gt;Node11</title>
<g id="a_edge12_Node000010_Node000011"><a xlink:title=" ">
<path fill="none" stroke="#63b8ff" d="M372.31,-139.93C486.68,-130.38 668.46,-112.98 695.75,-97 724.81,-79.98 743.71,-42.38 751.16,-25.17"/>
<polygon fill="#63b8ff" stroke="#63b8ff" points="372.3,-136.42 362.62,-140.74 372.88,-143.4 372.3,-136.42"/>
</a>
</g>
</g>
<!-- Node13&#45;&gt;Node5 -->
<g id="edge15_Node000013_Node000005" class="edge">
<title>Node13&#45;&gt;Node5</title>
<g id="a_edge15_Node000013_Node000005"><a xlink:title=" ">
<path fill="none" stroke="#63b8ff" d="M693.18,-132.48C629.61,-120.22 548.32,-103.76 533.75,-97 493.72,-78.44 454.94,-41.97 438.27,-25.14"/>
<polygon fill="#63b8ff" stroke="#63b8ff" points="692.46,-135.9 702.94,-134.35 693.78,-129.03 692.46,-135.9"/>
</a>
</g>
</g>
<!-- Node13&#45;&gt;Node11 -->
<g id="edge16_Node000013_Node000011" class="edge">
<title>Node13&#45;&gt;Node11</title>
<g id="a_edge16_Node000013_Node000011"><a xlink:title=" ">
<path fill="none" stroke="#63b8ff" d="M768.42,-121.63C764.59,-92.07 758.48,-45.01 755.93,-25.35"/>
<polygon fill="#63b8ff" stroke="#63b8ff" points="764.91,-121.76 769.67,-131.23 771.85,-120.86 764.91,-121.76"/>
</a>
</g>
</g>
<!-- Node14 -->
<g id="Node000014" class="node">
<title>Node14</title>
<g id="a_Node000014"><a xlink:href="_electrical_series_8cpp.html" target="_top" xlink:title=" ">
<polygon fill="white" stroke="#666666" points="927.62,-97 793.88,-97 793.88,-66.5 927.62,-66.5 927.62,-97"/>
<text xml:space="preserve" text-anchor="start" x="801.88" y="-83.5" font-family="Helvetica,sans-Serif" font-size="10.00">src/nwb/ecephys/Electrical</text>
<text xml:space="preserve" text-anchor="middle" x="860.75" y="-72.25" font-family="Helvetica,sans-Serif" font-size="10.00">Series.cpp</text>
</a>
</g>
</g>
<!-- Node13&#45;&gt;Node14 -->
<g id="edge17_Node000013_Node000014" class="edge">
<title>Node13&#45;&gt;Node14</title>
<g id="a_edge17_Node000013_Node000014"><a xlink:title=" ">
<path fill="none" stroke="#63b8ff" d="M800.98,-126.07C813.97,-116.66 828.93,-105.81 840.63,-97.33"/>
<polygon fill="#63b8ff" stroke="#63b8ff" points="799.21,-123.02 793.17,-131.73 803.32,-128.69 799.21,-123.02"/>
</a>
</g>
</g>
<!-- Node15 -->
<g id="Node000015" class="node">
<title>Node15</title>
<g id="a_Node000015"><a xlink:href="_spike_event_series_8hpp.html" target="_top" xlink:title=" ">
<polygon fill="white" stroke="#666666" points="686.5,-97 543,-97 543,-66.5 686.5,-66.5 686.5,-97"/>
<text xml:space="preserve" text-anchor="start" x="551" y="-83.5" font-family="Helvetica,sans-Serif" font-size="10.00">src/nwb/ecephys/SpikeEvent</text>
<text xml:space="preserve" text-anchor="middle" x="614.75" y="-72.25" font-family="Helvetica,sans-Serif" font-size="10.00">Series.hpp</text>
</a>
</g>
</g>
<!-- Node13&#45;&gt;Node15 -->
<g id="edge18_Node000013_Node000015" class="edge">
<title>Node13&#45;&gt;Node15</title>
<g id="a_edge18_Node000013_Node000015"><a xlink:title=" ">
<path fill="none" stroke="#63b8ff" d="M725.5,-128.25C701.54,-118.41 672.73,-106.57 650.51,-97.44"/>
<polygon fill="#63b8ff" stroke="#63b8ff" points="724.14,-131.48 734.72,-132.04 726.8,-125 724.14,-131.48"/>
</a>
</g>
</g>
<!-- Node15&#45;&gt;Node5 -->
<g id="edge19_Node000015_Node000005" class="edge">
<title>Node15&#45;&gt;Node5</title>
<g id="a_edge19_Node000015_Node000005"><a xlink:title=" ">
<path fill="none" stroke="#63b8ff" d="M562.31,-62.47C527.54,-50.34 483.4,-34.96 455.86,-25.35"/>
<polygon fill="#63b8ff" stroke="#63b8ff" points="560.75,-65.63 571.34,-65.62 563.05,-59.02 560.75,-65.63"/>
</a>
</g>
</g>
<!-- Node15&#45;&gt;Node11 -->
<g id="edge20_Node000015_Node000011" class="edge">
<title>Node15&#45;&gt;Node11</title>
<g id="a_edge20_Node000015_Node000011"><a xlink:title=" ">
<path fill="none" stroke="#63b8ff" d="M656.87,-61.35C682.87,-49.37 715,-34.56 735.19,-25.26"/>
<polygon fill="#63b8ff" stroke="#63b8ff" points="655.51,-58.12 647.89,-65.48 658.44,-64.48 655.51,-58.12"/>
</a>
</g>
</g>
<!-- Node16 -->
<g id="Node000016" class="node">
<title>Node16</title>
<g id="a_Node000016"><a xlink:href="_spike_event_series_8cpp.html" target="_top" xlink:title=" ">
<polygon fill="white" stroke="#666666" points="654.5,-30.5 511,-30.5 511,0 654.5,0 654.5,-30.5"/>
<text xml:space="preserve" text-anchor="start" x="519" y="-17" font-family="Helvetica,sans-Serif" font-size="10.00">src/nwb/ecephys/SpikeEvent</text>
<text xml:space="preserve" text-anchor="middle" x="582.75" y="-5.75" font-family="Helvetica,sans-Serif" font-size="10.00">Series.cpp</text>
</a>
</g>
</g>
<!-- Node15&#45;&gt;Node16 -->
<g id="edge21_Node000015_Node000016" class="edge">
<title>Node15&#45;&gt;Node16</title>
<g id="a_edge21_Node000015_Node000016"><a xlink:title=" ">
<path fill="none" stroke="#63b8ff" d="M602.44,-55.94C598.23,-47.46 593.66,-38.24 589.98,-30.83"/>
<polygon fill="#63b8ff" stroke="#63b8ff" points="599.24,-57.36 606.82,-64.76 605.51,-54.24 599.24,-57.36"/>
</a>
</g>
</g>
<!-- Node17&#45;&gt;Node5 -->
<g id="edge23_Node000017_Node000005" class="edge">
<title>Node17&#45;&gt;Node5</title>
<g id="a_edge23_Node000017_Node000005"><a xlink:title=" ">
<path fill="none" stroke="#63b8ff" d="M229.48,-68.76C277.49,-56.17 351.88,-36.67 395.2,-25.31"/>
<polygon fill="#63b8ff" stroke="#63b8ff" points="228.72,-65.34 219.94,-71.26 230.5,-72.11 228.72,-65.34"/>
</a>
</g>
</g>
<!-- Node17&#45;&gt;Node11 -->
<g id="edge24_Node000017_Node000011" class="edge">
<title>Node17&#45;&gt;Node11</title>
<g id="a_edge24_Node000017_Node000011"><a xlink:title=" ">
<path fill="none" stroke="#63b8ff" d="M251.44,-70.01C260.28,-68.75 269.23,-67.54 277.75,-66.5 448.78,-45.58 492.78,-51.84 663.75,-30.5 675.65,-29.01 688.39,-27.18 700.45,-25.32"/>
<polygon fill="#63b8ff" stroke="#63b8ff" points="251.23,-66.51 241.84,-71.41 252.24,-73.43 251.23,-66.51"/>
</a>
</g>
</g>
<!-- Node18 -->
<g id="Node000018" class="node">
<title>Node18</title>
<g id="a_Node000018"><a xlink:href="_annotation_series_8cpp.html" target="_top" xlink:title=" ">
<polygon fill="white" stroke="#666666" points="269,-24.88 98.5,-24.88 98.5,-5.63 269,-5.63 269,-24.88"/>
<text xml:space="preserve" text-anchor="middle" x="183.75" y="-11.38" font-family="Helvetica,sans-Serif" font-size="10.00">src/nwb/misc/AnnotationSeries.cpp</text>
</a>
</g>
</g>
<!-- Node17&#45;&gt;Node18 -->
<g id="edge25_Node000017_Node000018" class="edge">
<title>Node17&#45;&gt;Node18</title>
<g id="a_edge25_Node000017_Node000018"><a xlink:title=" ">
<path fill="none" stroke="#63b8ff" d="M183.75,-60.27C183.75,-48.44 183.75,-34.16 183.75,-25.14"/>
<polygon fill="#63b8ff" stroke="#63b8ff" points="180.25,-60.27 183.75,-70.27 187.25,-60.27 180.25,-60.27"/>
</a>
</g>
</g>
<!-- Node19&#45;&gt;Node5 -->
<g id="edge27_Node000019_Node000005" class="edge">
<title>Node19&#45;&gt;Node5</title>
<g id="a_edge27_Node000019_Node000005"><a xlink:title=" ">
<path fill="none" stroke="#63b8ff" d="M466.65,-262.88C458.85,-253.84 450.34,-242.15 445.75,-230 417.48,-155.15 425.41,-55.26 428.67,-25.18"/>
<polygon fill="#63b8ff" stroke="#63b8ff" points="463.97,-265.14 473.31,-270.14 469.13,-260.41 463.97,-265.14"/>
</a>
</g>
</g>
<!-- Node20 -->
<g id="Node000020" class="node">
<title>Node20</title>
<g id="a_Node000020"><a xlink:href="_device_8cpp.html" target="_top" xlink:title=" ">
<polygon fill="white" stroke="#666666" points="589,-224.38 454.5,-224.38 454.5,-205.12 589,-205.12 589,-224.38"/>
<text xml:space="preserve" text-anchor="middle" x="521.75" y="-210.88" font-family="Helvetica,sans-Serif" font-size="10.00">src/nwb/device/Device.cpp</text>
</a>
</g>
</g>
<!-- Node19&#45;&gt;Node20 -->
<g id="edge28_Node000019_Node000020" class="edge">
<title>Node19&#45;&gt;Node20</title>
<g id="a_edge28_Node000019_Node000020"><a xlink:title=" ">
<path fill="none" stroke="#63b8ff" d="M494.72,-261.64C501.88,-249.48 510.91,-234.14 516.51,-224.64"/>
<polygon fill="#63b8ff" stroke="#63b8ff" points="491.86,-259.58 489.8,-269.98 497.89,-263.14 491.86,-259.58"/>
</a>
</g>
</g>
<!-- Node19&#45;&gt;Node21 -->
<g id="edge29_Node000019_Node000021" class="edge">
<title>Node19&#45;&gt;Node21</title>
<g id="a_edge29_Node000019_Node000021"><a xlink:title=" ">
<path fill="none" stroke="#63b8ff" d="M522.87,-267.7C562.13,-255.1 621.65,-236 656.52,-224.81"/>
<polygon fill="#63b8ff" stroke="#63b8ff" points="522.02,-264.29 513.56,-270.68 524.15,-270.96 522.02,-264.29"/>
</a>
</g>
</g>
<!-- Node21&#45;&gt;Node5 -->
<g id="edge30_Node000021_Node000005" class="edge">
<title>Node21&#45;&gt;Node5</title>
<g id="a_edge30_Node000021_Node000005"><a xlink:title=" ">
<path fill="none" stroke="#63b8ff" d="M628.06,-202.41C572.5,-190.84 494.61,-173.26 483.75,-163.5 462.08,-144.02 438.91,-54.21 431.88,-25.27"/>
<polygon fill="#63b8ff" stroke="#63b8ff" points="627.21,-205.81 637.71,-204.4 628.63,-198.95 627.21,-205.81"/>
</a>
</g>
</g>
<!-- Node22 -->
<g id="Node000022" class="node">
<title>Node22</title>
<g id="a_Node000022"><a xlink:href="_electrode_group_8cpp.html" target="_top" xlink:title=" ">
<polygon fill="white" stroke="#666666" points="648.5,-157.88 493,-157.88 493,-138.62 648.5,-138.62 648.5,-157.88"/>
<text xml:space="preserve" text-anchor="middle" x="570.75" y="-144.38" font-family="Helvetica,sans-Serif" font-size="10.00">src/nwb/file/ElectrodeGroup.cpp</text>
</a>
</g>
</g>
<!-- Node21&#45;&gt;Node22 -->
<g id="edge31_Node000021_Node000022" class="edge">
<title>Node21&#45;&gt;Node22</title>
<g id="a_edge31_Node000021_Node000022"><a xlink:title=" ">
<path fill="none" stroke="#63b8ff" d="M659.15,-199.27C636.99,-186.73 605.64,-168.99 586.83,-158.35"/>
<polygon fill="#63b8ff" stroke="#63b8ff" points="657.15,-202.16 667.58,-204.04 660.6,-196.07 657.15,-202.16"/>
</a>
</g>
</g>
<!-- Node24 -->
<g id="Node000024" class="node">
<title>Node24</title>
<g id="a_Node000024"><a xlink:href="_n_w_b_data_8cpp.html" target="_top" xlink:title=" ">
<polygon fill="white" stroke="#666666" points="1533.38,-290.88 1392.12,-290.88 1392.12,-271.62 1533.38,-271.62 1533.38,-290.88"/>
<text xml:space="preserve" text-anchor="middle" x="1462.75" y="-277.38" font-family="Helvetica,sans-Serif" font-size="10.00">src/nwb/base/NWBData.cpp</text>
</a>
</g>
</g>
<!-- Node23&#45;&gt;Node24 -->
<g id="edge34_Node000023_Node000024" class="edge">
<title>Node23&#45;&gt;Node24</title>
<g id="a_edge34_Node000023_Node000024"><a xlink:title=" ">
<path fill="none" stroke="#63b8ff" d="M1462.75,-326.27C1462.75,-314.44 1462.75,-300.16 1462.75,-291.14"/>
<polygon fill="#63b8ff" stroke="#63b8ff" points="1459.25,-326.27 1462.75,-336.27 1466.25,-326.27 1459.25,-326.27"/>
</a>
</g>
</g>
<!-- Node25&#45;&gt;Node3 -->
<g id="edge38_Node000025_Node000003" class="edge">
<title>Node25&#45;&gt;Node3</title>
<g id="a_edge38_Node000025_Node000003"><a xlink:title=" ">
<path fill="none" stroke="#63b8ff" d="M727.49,-395.11C693.31,-383.93 644.05,-367.82 613.51,-357.83"/>
<polygon fill="#63b8ff" stroke="#63b8ff" points="725.99,-398.3 736.58,-398.08 728.16,-391.65 725.99,-398.3"/>
</a>
</g>
</g>
<!-- Node25&#45;&gt;Node11 -->
<g id="edge37_Node000025_Node000011" class="edge">
<title>Node25&#45;&gt;Node11</title>
<g id="a_edge37_Node000025_Node000011"><a xlink:title=" ">
<path fill="none" stroke="#63b8ff" d="M858.64,-402.9C954.19,-396.95 1095.88,-384.76 1145.75,-363 1217.58,-331.66 1242.75,-294.12 1242.75,-215.75 1242.75,-215.75 1242.75,-215.75 1242.75,-147.25 1242.75,-64.24 976.06,-32.37 836.98,-21.39"/>
<polygon fill="#63b8ff" stroke="#63b8ff" points="858.51,-399.4 848.74,-403.5 858.94,-406.39 858.51,-399.4"/>
</a>
</g>
</g>
<!-- Node26 -->
<g id="Node000026" class="node">
<title>Node26</title>
<g id="a_Node000026"><a xlink:href="_container_8cpp.html" target="_top" xlink:title=" ">
<polygon fill="white" stroke="#666666" points="846.88,-357.38 684.62,-357.38 684.62,-338.12 846.88,-338.12 846.88,-357.38"/>
<text xml:space="preserve" text-anchor="middle" x="765.75" y="-343.88" font-family="Helvetica,sans-Serif" font-size="10.00">src/nwb/hdmf/base/Container.cpp</text>
</a>
</g>
</g>
<!-- Node25&#45;&gt;Node26 -->
<g id="edge39_Node000025_Node000026" class="edge">
<title>Node25&#45;&gt;Node26</title>
<g id="a_edge39_Node000025_Node000026"><a xlink:title=" ">
<path fill="none" stroke="#63b8ff" d="M765.75,-387.2C765.75,-377.17 765.75,-365.58 765.75,-357.78"/>
<polygon fill="#63b8ff" stroke="#63b8ff" points="762.25,-387.17 765.75,-397.17 769.25,-387.17 762.25,-387.17"/>
</a>
</g>
</g>
<!-- Node27 -->
<g id="Node000027" class="node">
<title>Node27</title>
<g id="a_Node000027"><a xlink:href="_dynamic_table_8hpp.html" target="_top" xlink:title=" ">
<polygon fill="white" stroke="#666666" points="1058.75,-296.5 958.75,-296.5 958.75,-266 1058.75,-266 1058.75,-296.5"/>
<text xml:space="preserve" text-anchor="start" x="966.75" y="-283" font-family="Helvetica,sans-Serif" font-size="10.00">src/nwb/hdmf/table</text>
<text xml:space="preserve" text-anchor="middle" x="1008.75" y="-271.75" font-family="Helvetica,sans-Serif" font-size="10.00">/DynamicTable.hpp</text>
</a>
</g>
</g>
<!-- Node25&#45;&gt;Node27 -->
<g id="edge40_Node000025_Node000027" class="edge">
<title>Node25&#45;&gt;Node27</title>
<g id="a_edge40_Node000025_Node000027"><a xlink:title=" ">
<path fill="none" stroke="#63b8ff" d="M858.29,-399.28C911.24,-392.62 970.81,-381.29 989.75,-363 1007.67,-345.69 1010.05,-314.9 1009.7,-296.75"/>
<polygon fill="#63b8ff" stroke="#63b8ff" points="858.12,-395.77 848.61,-400.45 858.96,-402.72 858.12,-395.77"/>
</a>
</g>
</g>
<!-- Node28 -->
<g id="Node000028" class="node">
<title>Node28</title>
<g id="a_Node000028"><a xlink:href="_electrodes_table_8hpp.html" target="_top" xlink:title=" ">
<polygon fill="white" stroke="#666666" points="943.62,-224.38 785.88,-224.38 785.88,-205.12 943.62,-205.12 943.62,-224.38"/>
<text xml:space="preserve" text-anchor="middle" x="864.75" y="-210.88" font-family="Helvetica,sans-Serif" font-size="10.00">src/nwb/file/ElectrodesTable.hpp</text>
</a>
</g>
</g>
<!-- Node27&#45;&gt;Node28 -->
<g id="edge41_Node000027_Node000028" class="edge">
<title>Node27&#45;&gt;Node28</title>
<g id="a_edge41_Node000027_Node000028"><a xlink:title=" ">
<path fill="none" stroke="#63b8ff" d="M965.78,-261.01C938.98,-249 905.73,-234.1 884.86,-224.76"/>
<polygon fill="#63b8ff" stroke="#63b8ff" points="964.14,-264.1 974.69,-265 967,-257.71 964.14,-264.1"/>
</a>
</g>
</g>
<!-- Node30 -->
<g id="Node000030" class="node">
<title>Node30</title>
<g id="a_Node000030"><a xlink:href="_dynamic_table_8cpp.html" target="_top" xlink:title=" ">
<polygon fill="white" stroke="#666666" points="1061.75,-230 961.75,-230 961.75,-199.5 1061.75,-199.5 1061.75,-230"/>
<text xml:space="preserve" text-anchor="start" x="969.75" y="-216.5" font-family="Helvetica,sans-Serif" font-size="10.00">src/nwb/hdmf/table</text>
<text xml:space="preserve" text-anchor="middle" x="1011.75" y="-205.25" font-family="Helvetica,sans-Serif" font-size="10.00">/DynamicTable.cpp</text>
</a>
</g>
</g>
<!-- Node27&#45;&gt;Node30 -->
<g id="edge46_Node000027_Node000030" class="edge">
<title>Node27&#45;&gt;Node30</title>
<g id="a_edge46_Node000027_Node000030"><a xlink:title=" ">
<path fill="none" stroke="#63b8ff" d="M1009.96,-254.31C1010.34,-246.14 1010.74,-237.41 1011.07,-230.33"/>
<polygon fill="#63b8ff" stroke="#63b8ff" points="1006.47,-253.95 1009.5,-264.1 1013.46,-254.28 1006.47,-253.95"/>
</a>
</g>
</g>
<!-- Node28&#45;&gt;Node4 -->
<g id="edge42_Node000028_Node000004" class="edge">
<title>Node28&#45;&gt;Node4</title>
<g id="a_edge42_Node000028_Node000004"><a xlink:title=" ">
<path fill="none" stroke="#63b8ff" d="M805.59,-202.1C772.13,-194.08 730.22,-181.56 695.75,-163.5 676.57,-153.45 677.55,-141.78 657.75,-133 612.5,-112.94 476.87,-96.4 399.13,-88.24"/>
<polygon fill="#63b8ff" stroke="#63b8ff" points="804.59,-205.46 815.12,-204.31 806.17,-198.64 804.59,-205.46"/>
</a>
</g>
</g>
<!-- Node28&#45;&gt;Node13 -->
<g id="edge44_Node000028_Node000013" class="edge">
<title>Node28&#45;&gt;Node13</title>
<g id="a_edge44_Node000028_Node000013"><a xlink:title=" ">
<path fill="none" stroke="#63b8ff" d="M842.69,-198.45C827.58,-187.97 807.67,-174.16 792.79,-163.84"/>
<polygon fill="#63b8ff" stroke="#63b8ff" points="840.36,-201.1 850.58,-203.92 844.35,-195.34 840.36,-201.1"/>
</a>
</g>
</g>
<!-- Node28&#45;&gt;Node14 -->
<g id="edge43_Node000028_Node000014" class="edge">
<title>Node28&#45;&gt;Node14</title>
<g id="a_edge43_Node000028_Node000014"><a xlink:title=" ">
<path fill="none" stroke="#63b8ff" d="M864.13,-193.4C863.31,-166.73 861.91,-120.6 861.19,-97.22"/>
<polygon fill="#63b8ff" stroke="#63b8ff" points="860.63,-193.34 864.43,-203.23 867.62,-193.13 860.63,-193.34"/>
</a>
</g>
</g>
<!-- Node29 -->
<g id="Node000029" class="node">
<title>Node29</title>
<g id="a_Node000029"><a xlink:href="_electrodes_table_8cpp.html" target="_top" xlink:title=" ">
<polygon fill="white" stroke="#666666" points="1052.62,-157.88 894.88,-157.88 894.88,-138.62 1052.62,-138.62 1052.62,-157.88"/>
<text xml:space="preserve" text-anchor="middle" x="973.75" y="-144.38" font-family="Helvetica,sans-Serif" font-size="10.00">src/nwb/file/ElectrodesTable.cpp</text>
</a>
</g>
</g>
<!-- Node28&#45;&gt;Node29 -->
<g id="edge45_Node000028_Node000029" class="edge">
<title>Node28&#45;&gt;Node29</title>
<g id="a_edge45_Node000028_Node000029"><a xlink:title=" ">
<path fill="none" stroke="#63b8ff" d="M889.8,-198.92C910.95,-186.41 940.56,-168.89 958.37,-158.35"/>
<polygon fill="#63b8ff" stroke="#63b8ff" points="888.03,-195.91 881.21,-204.01 891.6,-201.93 888.03,-195.91"/>
</a>
</g>
</g>
<!-- Node31&#45;&gt;Node23 -->
<g id="edge48_Node000031_Node000023" class="edge">
<title>Node31&#45;&gt;Node23</title>
<g id="a_edge48_Node000031_Node000023"><a xlink:title=" ">
<path fill="none" stroke="#63b8ff" d="M1161.59,-396.91C1221.48,-388.19 1307.6,-375.36 1382.75,-363 1392.49,-361.4 1402.89,-359.61 1412.86,-357.85"/>
<polygon fill="#63b8ff" stroke="#63b8ff" points="1161.23,-393.42 1151.84,-398.32 1162.24,-400.35 1161.23,-393.42"/>
</a>
</g>
</g>
<!-- Node32 -->
<g id="Node000032" class="node">
<title>Node32</title>
<g id="a_Node000032"><a xlink:href="_data_8cpp.html" target="_top" xlink:title=" ">
<polygon fill="white" stroke="#666666" points="1373.75,-357.38 1231.75,-357.38 1231.75,-338.12 1373.75,-338.12 1373.75,-357.38"/>
<text xml:space="preserve" text-anchor="middle" x="1302.75" y="-343.88" font-family="Helvetica,sans-Serif" font-size="10.00">src/nwb/hdmf/base/Data.cpp</text>
</a>
</g>
</g>
<!-- Node31&#45;&gt;Node32 -->
<g id="edge49_Node000031_Node000032" class="edge">
<title>Node31&#45;&gt;Node32</title>
<g id="a_edge49_Node000031_Node000032"><a xlink:title=" ">
<path fill="none" stroke="#63b8ff" d="M1131.07,-395.55C1172.14,-384.35 1232.32,-367.95 1269.44,-357.83"/>
<polygon fill="#63b8ff" stroke="#63b8ff" points="1130.21,-392.15 1121.49,-398.16 1132.06,-398.9 1130.21,-392.15"/>
</a>
</g>
</g>
<!-- Node33 -->
<g id="Node000033" class="node">
<title>Node33</title>
<g id="a_Node000033"><a xlink:href="_element_identifiers_8hpp.html" target="_top" xlink:title=" ">
<polygon fill="white" stroke="#666666" points="981,-363 864.5,-363 864.5,-332.5 981,-332.5 981,-363"/>
<text xml:space="preserve" text-anchor="start" x="872.5" y="-349.5" font-family="Helvetica,sans-Serif" font-size="10.00">src/nwb/hdmf/table</text>
<text xml:space="preserve" text-anchor="middle" x="922.75" y="-338.25" font-family="Helvetica,sans-Serif" font-size="10.00">/ElementIdentifiers.hpp</text>
</a>
</g>
</g>
<!-- Node31&#45;&gt;Node33 -->
<g id="edge50_Node000031_Node000033" class="edge">
<title>Node31&#45;&gt;Node33</title>
<g id="a_edge50_Node000031_Node000033"><a xlink:title=" ">
<path fill="none" stroke="#63b8ff" d="M1050.71,-394.69C1025.02,-385.46 990.42,-373.04 963.68,-363.44"/>
<polygon fill="#63b8ff" stroke="#63b8ff" points="1049.47,-397.96 1060.06,-398.04 1051.83,-391.37 1049.47,-397.96"/>
</a>
</g>
</g>
<!-- Node35 -->
<g id="Node000035" class="node">
<title>Node35</title>
<g id="a_Node000035"><a xlink:href="_vector_data_8hpp.html" target="_top" xlink:title=" ">
<polygon fill="white" stroke="#666666" points="1136.38,-363 1037.12,-363 1037.12,-332.5 1136.38,-332.5 1136.38,-363"/>
<text xml:space="preserve" text-anchor="start" x="1045.12" y="-349.5" font-family="Helvetica,sans-Serif" font-size="10.00">src/nwb/hdmf/table</text>
<text xml:space="preserve" text-anchor="middle" x="1086.75" y="-338.25" font-family="Helvetica,sans-Serif" font-size="10.00">/VectorData.hpp</text>
</a>
</g>
</g>
<!-- Node31&#45;&gt;Node35 -->
<g id="edge54_Node000031_Node000035" class="edge">
<title>Node31&#45;&gt;Node35</title>
<g id="a_edge54_Node000031_Node000035"><a xlink:title=" ">
<path fill="none" stroke="#63b8ff" d="M1086.75,-387.42C1086.75,-379.49 1086.75,-370.56 1086.75,-363.28"/>
<polygon fill="#63b8ff" stroke="#63b8ff" points="1083.25,-387.17 1086.75,-397.17 1090.25,-387.17 1083.25,-387.17"/>
</a>
</g>
</g>
<!-- Node33&#45;&gt;Node27 -->
<g id="edge52_Node000033_Node000027" class="edge">
<title>Node33&#45;&gt;Node27</title>
<g id="a_edge52_Node000033_Node000027"><a xlink:title=" ">
<path fill="none" stroke="#63b8ff" d="M951.36,-325.29C963.82,-315.94 978.11,-305.23 989.31,-296.83"/>
<polygon fill="#63b8ff" stroke="#63b8ff" points="949.38,-322.41 943.48,-331.21 953.58,-328.01 949.38,-322.41"/>
</a>
</g>
</g>
<!-- Node33&#45;&gt;Node28 -->
<g id="edge51_Node000033_Node000028" class="edge">
<title>Node33&#45;&gt;Node28</title>
<g id="a_edge51_Node000033_Node000028"><a xlink:title=" ">
<path fill="none" stroke="#63b8ff" d="M853.74,-328.15C838.73,-320.78 824.69,-310.58 815.75,-296.5 799.4,-270.75 832.67,-239.79 852.09,-224.79"/>
<polygon fill="#63b8ff" stroke="#63b8ff" points="852.29,-331.33 862.85,-332.2 855.13,-324.94 852.29,-331.33"/>
</a>
</g>
</g>
<!-- Node34 -->
<g id="Node000034" class="node">
<title>Node34</title>
<g id="a_Node000034"><a xlink:href="_element_identifiers_8cpp.html" target="_top" xlink:title=" ">
<polygon fill="white" stroke="#666666" points="941,-296.5 824.5,-296.5 824.5,-266 941,-266 941,-296.5"/>
<text xml:space="preserve" text-anchor="start" x="832.5" y="-283" font-family="Helvetica,sans-Serif" font-size="10.00">src/nwb/hdmf/table</text>
<text xml:space="preserve" text-anchor="middle" x="882.75" y="-271.75" font-family="Helvetica,sans-Serif" font-size="10.00">/ElementIdentifiers.cpp</text>
</a>
</g>
</g>
<!-- Node33&#45;&gt;Node34 -->
<g id="edge53_Node000033_Node000034" class="edge">
<title>Node33&#45;&gt;Node34</title>
<g id="a_edge53_Node000033_Node000034"><a xlink:title=" ">
<path fill="none" stroke="#63b8ff" d="M907.72,-322.51C902.36,-313.87 896.49,-304.41 891.79,-296.83"/>
<polygon fill="#63b8ff" stroke="#63b8ff" points="904.63,-324.17 912.88,-330.83 910.58,-320.48 904.63,-324.17"/>
</a>
</g>
</g>
<!-- Node35&#45;&gt;Node27 -->
<g id="edge56_Node000035_Node000027" class="edge">
<title>Node35&#45;&gt;Node27</title>
<g id="a_edge56_Node000035_Node000027"><a xlink:title=" ">
<path fill="none" stroke="#63b8ff" d="M1060.47,-325.02C1049.24,-315.73 1036.44,-305.15 1026.38,-296.83"/>
<polygon fill="#63b8ff" stroke="#63b8ff" points="1057.95,-327.47 1067.88,-331.15 1062.41,-322.08 1057.95,-327.47"/>
</a>
</g>
</g>
<!-- Node35&#45;&gt;Node28 -->
<g id="edge55_Node000035_Node000028" class="edge">
<title>Node35&#45;&gt;Node28</title>
<g id="a_edge55_Node000035_Node000028"><a xlink:title=" ">
<path fill="none" stroke="#63b8ff" d="M1087.31,-320.77C1086.26,-303.06 1081.9,-280.31 1067.75,-266 1056.77,-254.9 968.91,-236.03 912.43,-224.84"/>
<polygon fill="#63b8ff" stroke="#63b8ff" points="1083.8,-320.64 1087.54,-330.55 1090.8,-320.47 1083.8,-320.64"/>
</a>
</g>
</g>
<!-- Node36 -->
<g id="Node000036" class="node">
<title>Node36</title>
<g id="a_Node000036"><a xlink:href="_vector_data_8cpp.html" target="_top" xlink:title=" ">
<polygon fill="white" stroke="#666666" points="1214.38,-296.5 1115.12,-296.5 1115.12,-266 1214.38,-266 1214.38,-296.5"/>
<text xml:space="preserve" text-anchor="start" x="1123.12" y="-283" font-family="Helvetica,sans-Serif" font-size="10.00">src/nwb/hdmf/table</text>
<text xml:space="preserve" text-anchor="middle" x="1164.75" y="-271.75" font-family="Helvetica,sans-Serif" font-size="10.00">/VectorData.cpp</text>
</a>
</g>
</g>
<!-- Node35&#45;&gt;Node36 -->
<g id="edge57_Node000035_Node000036" class="edge">
<title>Node35&#45;&gt;Node36</title>
<g id="a_edge57_Node000035_Node000036"><a xlink:title=" ">
<path fill="none" stroke="#63b8ff" d="M1113.03,-325.02C1124.26,-315.73 1137.06,-305.15 1147.12,-296.83"/>
<polygon fill="#63b8ff" stroke="#63b8ff" points="1111.09,-322.08 1105.62,-331.15 1115.55,-327.47 1111.09,-322.08"/>
</a>
</g>
</g>
</g>
</svg>
