<?xml version="1.0" encoding="UTF-8" standalone="no"?>
<!DOCTYPE svg PUBLIC "-//W3C//DTD SVG 1.1//EN"
 "http://www.w3.org/Graphics/SVG/1.1/DTD/svg11.dtd">
<!-- Generated by graphviz version 12.2.1 (20241206.2353)
 -->
<!-- Title: src/nwb/RegisteredType.hpp Pages: 1 -->
<svg width="1798pt" height="315pt"
 viewBox="0.00 0.00 1798.00 314.75" xmlns="http://www.w3.org/2000/svg" xmlns:xlink="http://www.w3.org/1999/xlink">
<g id="graph0" class="graph" transform="scale(1 1) rotate(0) translate(4 310.75)">
<title>src/nwb/RegisteredType.hpp</title>
<!-- Node1 -->
<g id="Node000001" class="node">
<title>Node1</title>
<g id="a_Node000001"><a xlink:title=" ">
<polygon fill="#999999" stroke="#666666" points="1704.25,-306.75 1563.75,-306.75 1563.75,-287.5 1704.25,-287.5 1704.25,-306.75"/>
<text text-anchor="middle" x="1634" y="-293.25" font-family="Helvetica,sans-Serif" font-size="10.00">src/nwb/RegisteredType.hpp</text>
</a>
</g>
</g>
<!-- Node2 -->
<g id="Node000002" class="node">
<title>Node2</title>
<g id="a_Node000002"><a xlink:title=" ">
<polygon fill="#e0e0e0" stroke="#999999" points="58,-251.5 0,-251.5 0,-232.25 58,-232.25 58,-251.5"/>
<text text-anchor="middle" x="29" y="-238" font-family="Helvetica,sans-Serif" font-size="10.00">functional</text>
</a>
</g>
</g>
<!-- Node1&#45;&gt;Node2 -->
<g id="edge1_Node000001_Node000002" class="edge">
<title>Node1&#45;&gt;Node2</title>
<g id="a_edge1_Node000001_Node000002"><a xlink:title=" ">
<path fill="none" stroke="#63b8ff" d="M1563.59,-295.7C1299.37,-293.85 366.99,-285.05 72,-251.5 71.01,-251.39 70,-251.26 68.99,-251.13"/>
<polygon fill="#63b8ff" stroke="#63b8ff" points="69.96,-247.74 59.53,-249.63 68.86,-254.65 69.96,-247.74"/>
</a>
</g>
</g>
<!-- Node3 -->
<g id="Node000003" class="node">
<title>Node3</title>
<g id="a_Node000003"><a xlink:title=" ">
<polygon fill="#e0e0e0" stroke="#999999" points="859.62,-74.5 808.38,-74.5 808.38,-55.25 859.62,-55.25 859.62,-74.5"/>
<text text-anchor="middle" x="834" y="-61" font-family="Helvetica,sans-Serif" font-size="10.00">memory</text>
</a>
</g>
</g>
<!-- Node1&#45;&gt;Node3 -->
<g id="edge2_Node000001_Node000003" class="edge">
<title>Node1&#45;&gt;Node3</title>
<g id="a_edge2_Node000001_Node000003"><a xlink:title=" ">
<path fill="none" stroke="#63b8ff" d="M1644.79,-287.14C1653.74,-278.92 1665.81,-265.89 1671,-251.5 1678.25,-231.4 1691.14,-189.95 1669,-165.75 1614.26,-105.91 1025.42,-74.7 870.94,-67.51"/>
<polygon fill="#63b8ff" stroke="#63b8ff" points="871.43,-64.03 861.28,-67.06 871.11,-71.02 871.43,-64.03"/>
</a>
</g>
</g>
<!-- Node4 -->
<g id="Node000004" class="node">
<title>Node4</title>
<g id="a_Node000004"><a xlink:title=" ">
<polygon fill="#e0e0e0" stroke="#999999" points="244,-74.5 204,-74.5 204,-55.25 244,-55.25 244,-74.5"/>
<text text-anchor="middle" x="224" y="-61" font-family="Helvetica,sans-Serif" font-size="10.00">string</text>
</a>
</g>
</g>
<!-- Node1&#45;&gt;Node4 -->
<g id="edge3_Node000001_Node000004" class="edge">
<title>Node1&#45;&gt;Node4</title>
<g id="a_edge3_Node000001_Node000004"><a xlink:title=" ">
<path fill="none" stroke="#63b8ff" d="M1563.36,-295.61C1334.15,-293.63 612.6,-284.84 382,-251.5 284.35,-237.38 227.46,-274.21 167,-196.25 157.27,-183.7 169.8,-120.3 175,-110.5 180.99,-99.22 190.99,-89.33 200.41,-81.75"/>
<polygon fill="#63b8ff" stroke="#63b8ff" points="202.34,-84.67 208.25,-75.88 198.15,-79.07 202.34,-84.67"/>
</a>
</g>
</g>
<!-- Node5 -->
<g id="Node000005" class="node">
<title>Node5</title>
<g id="a_Node000005"><a xlink:title=" ">
<polygon fill="#e0e0e0" stroke="#999999" points="1153.38,-74.5 1070.62,-74.5 1070.62,-55.25 1153.38,-55.25 1153.38,-74.5"/>
<text text-anchor="middle" x="1112" y="-61" font-family="Helvetica,sans-Serif" font-size="10.00">unordered_map</text>
</a>
</g>
</g>
<!-- Node1&#45;&gt;Node5 -->
<g id="edge4_Node000001_Node000005" class="edge">
<title>Node1&#45;&gt;Node5</title>
<g id="a_edge4_Node000001_Node000005"><a xlink:title=" ">
<path fill="none" stroke="#63b8ff" d="M1672.94,-287.11C1691.82,-280.56 1712.78,-269.58 1724,-251.5 1757.03,-198.25 1766.67,-156.4 1724,-110.5 1686.34,-70 1307.07,-65.84 1165.19,-65.71"/>
<polygon fill="#63b8ff" stroke="#63b8ff" points="1165.31,-62.21 1155.31,-65.71 1165.31,-69.21 1165.31,-62.21"/>
</a>
</g>
</g>
<!-- Node6 -->
<g id="Node000006" class="node">
<title>Node6</title>
<g id="a_Node000006"><a xlink:title=" ">
<polygon fill="#e0e0e0" stroke="#999999" points="1632.75,-74.5 1555.25,-74.5 1555.25,-55.25 1632.75,-55.25 1632.75,-74.5"/>
<text text-anchor="middle" x="1594" y="-61" font-family="Helvetica,sans-Serif" font-size="10.00">unordered_set</text>
</a>
</g>
</g>
<!-- Node1&#45;&gt;Node6 -->
<g id="edge5_Node000001_Node000006" class="edge">
<title>Node1&#45;&gt;Node6</title>
<g id="a_edge5_Node000001_Node000006"><a xlink:title=" ">
<path fill="none" stroke="#63b8ff" d="M1704.49,-287.69C1726.53,-281.36 1748.58,-270.4 1762,-251.5 1798.29,-200.41 1800.2,-160.18 1762,-110.5 1747.66,-91.85 1688.46,-79.36 1644.37,-72.45"/>
<polygon fill="#63b8ff" stroke="#63b8ff" points="1645.15,-69.03 1634.74,-71 1644.1,-75.95 1645.15,-69.03"/>
</a>
</g>
</g>
<!-- Node7 -->
<g id="Node000007" class="node">
<title>Node7</title>
<g id="a_Node000007"><a xlink:href="_types_8hpp.html" target="_top" xlink:title=" ">
<polygon fill="white" stroke="#666666" points="326.5,-74.5 265.5,-74.5 265.5,-55.25 326.5,-55.25 326.5,-74.5"/>
<text text-anchor="middle" x="296" y="-61" font-family="Helvetica,sans-Serif" font-size="10.00">Types.hpp</text>
</a>
</g>
</g>
<!-- Node1&#45;&gt;Node7 -->
<g id="edge6_Node000001_Node000007" class="edge">
<title>Node1&#45;&gt;Node7</title>
<g id="a_edge6_Node000001_Node000007"><a xlink:title=" ">
<path fill="none" stroke="#63b8ff" d="M1563.55,-293.96C1279.08,-284.89 228.06,-247.98 181,-196.25 143.11,-154.6 221.51,-104.42 266.83,-80.26"/>
<polygon fill="#63b8ff" stroke="#63b8ff" points="268.41,-83.38 275.68,-75.67 265.19,-77.17 268.41,-83.38"/>
</a>
</g>
</g>
<!-- Node10 -->
<g id="Node000010" class="node">
<title>Node10</title>
<g id="a_Node000010"><a xlink:href="_utils_8hpp.html" target="_top" xlink:title=" ">
<polygon fill="white" stroke="#666666" points="828.5,-251.5 773.5,-251.5 773.5,-232.25 828.5,-232.25 828.5,-251.5"/>
<text text-anchor="middle" x="801" y="-238" font-family="Helvetica,sans-Serif" font-size="10.00">Utils.hpp</text>
</a>
</g>
</g>
<!-- Node1&#45;&gt;Node10 -->
<g id="edge9_Node000001_Node000010" class="edge">
<title>Node1&#45;&gt;Node10</title>
<g id="a_edge9_Node000001_Node000010"><a xlink:title=" ">
<path fill="none" stroke="#63b8ff" d="M1563.34,-291.61C1394.39,-280.81 971.38,-253.77 840.33,-245.39"/>
<polygon fill="#63b8ff" stroke="#63b8ff" points="840.64,-241.9 830.44,-244.76 840.2,-248.89 840.64,-241.9"/>
</a>
</g>
</g>
<!-- Node24 -->
<g id="Node000024" class="node">
<title>Node24</title>
<g id="a_Node000024"><a xlink:href="_base_i_o_8hpp.html" target="_top" xlink:title=" ">
<polygon fill="white" stroke="#666666" points="737.12,-129.75 658.88,-129.75 658.88,-110.5 737.12,-110.5 737.12,-129.75"/>
<text text-anchor="middle" x="698" y="-116.25" font-family="Helvetica,sans-Serif" font-size="10.00">io/BaseIO.hpp</text>
</a>
</g>
</g>
<!-- Node1&#45;&gt;Node24 -->
<g id="edge52_Node000001_Node000024" class="edge">
<title>Node1&#45;&gt;Node24</title>
<g id="a_edge52_Node000001_Node000024"><a xlink:title=" ">
<path fill="none" stroke="#63b8ff" d="M1639.1,-287.03C1651.58,-263.42 1680.37,-199.68 1648,-165.75 1616.76,-133.01 942,-123.61 749.09,-121.59"/>
<polygon fill="#63b8ff" stroke="#63b8ff" points="749.17,-118.1 739.13,-121.49 749.1,-125.1 749.17,-118.1"/>
</a>
</g>
</g>
<!-- Node30 -->
<g id="Node000030" class="node">
<title>Node30</title>
<g id="a_Node000030"><a xlink:href="_read_i_o_8hpp.html" target="_top" xlink:title=" ">
<polygon fill="white" stroke="#666666" points="535.5,-129.75 456.5,-129.75 456.5,-110.5 535.5,-110.5 535.5,-129.75"/>
<text text-anchor="middle" x="496" y="-116.25" font-family="Helvetica,sans-Serif" font-size="10.00">io/ReadIO.hpp</text>
</a>
</g>
</g>
<!-- Node1&#45;&gt;Node30 -->
<g id="edge53_Node000001_Node000030" class="edge">
<title>Node1&#45;&gt;Node30</title>
<g id="a_edge53_Node000001_Node000030"><a xlink:title=" ">
<path fill="none" stroke="#63b8ff" d="M1633.22,-287.15C1630.55,-262.68 1619.44,-194.71 1577,-165.75 1534.43,-136.7 701.48,-132.19 650,-129.75 615.76,-128.13 577.26,-125.97 547.32,-124.22"/>
<polygon fill="#63b8ff" stroke="#63b8ff" points="547.57,-120.73 537.39,-123.64 547.16,-127.72 547.57,-120.73"/>
</a>
</g>
</g>
<!-- Node8 -->
<g id="Node000008" class="node">
<title>Node8</title>
<g id="a_Node000008"><a xlink:title=" ">
<polygon fill="#e0e0e0" stroke="#999999" points="320.12,-19.25 271.88,-19.25 271.88,0 320.12,0 320.12,-19.25"/>
<text text-anchor="middle" x="296" y="-5.75" font-family="Helvetica,sans-Serif" font-size="10.00">cstddef</text>
</a>
</g>
</g>
<!-- Node7&#45;&gt;Node8 -->
<g id="edge7_Node000007_Node000008" class="edge">
<title>Node7&#45;&gt;Node8</title>
<g id="a_edge7_Node000007_Node000008"><a xlink:title=" ">
<path fill="none" stroke="#63b8ff" d="M296,-55.08C296,-48.57 296,-39.42 296,-31.12"/>
<polygon fill="#63b8ff" stroke="#63b8ff" points="299.5,-31.12 296,-21.12 292.5,-31.12 299.5,-31.12"/>
</a>
</g>
</g>
<!-- Node9 -->
<g id="Node000009" class="node">
<title>Node9</title>
<g id="a_Node000009"><a xlink:title=" ">
<polygon fill="#e0e0e0" stroke="#999999" points="515.5,-19.25 472.5,-19.25 472.5,0 515.5,0 515.5,-19.25"/>
<text text-anchor="middle" x="494" y="-5.75" font-family="Helvetica,sans-Serif" font-size="10.00">vector</text>
</a>
</g>
</g>
<!-- Node7&#45;&gt;Node9 -->
<g id="edge8_Node000007_Node000009" class="edge">
<title>Node7&#45;&gt;Node9</title>
<g id="a_edge8_Node000007_Node000009"><a xlink:title=" ">
<path fill="none" stroke="#63b8ff" d="M326.94,-55.55C363.51,-45.72 424.09,-29.43 461.38,-19.4"/>
<polygon fill="#63b8ff" stroke="#63b8ff" points="461.94,-22.87 470.69,-16.89 460.12,-16.11 461.94,-22.87"/>
</a>
</g>
</g>
<!-- Node10&#45;&gt;Node4 -->
<g id="edge17_Node000010_Node000004" class="edge">
<title>Node10&#45;&gt;Node4</title>
<g id="a_edge17_Node000010_Node000004"><a xlink:title=" ">
<path fill="none" stroke="#63b8ff" d="M773.26,-241.04C658.09,-241.46 221.8,-240.1 181,-196.25 151.08,-164.1 186.51,-110.68 208.72,-83.27"/>
<polygon fill="#63b8ff" stroke="#63b8ff" points="211.16,-85.8 214.92,-75.9 205.8,-81.3 211.16,-85.8"/>
</a>
</g>
</g>
<!-- Node11 -->
<g id="Node000011" class="node">
<title>Node11</title>
<g id="a_Node000011"><a xlink:title=" ">
<polygon fill="#e0e0e0" stroke="#999999" points="1503.88,-190.62 1448.12,-190.62 1448.12,-171.38 1503.88,-171.38 1503.88,-190.62"/>
<text text-anchor="middle" x="1476" y="-177.12" font-family="Helvetica,sans-Serif" font-size="10.00">algorithm</text>
</a>
</g>
</g>
<!-- Node10&#45;&gt;Node11 -->
<g id="edge10_Node000010_Node000011" class="edge">
<title>Node10&#45;&gt;Node11</title>
<g id="a_edge10_Node000010_Node000011"><a xlink:title=" ">
<path fill="none" stroke="#63b8ff" d="M828.96,-240.02C936.04,-236.6 1320.04,-222.69 1439,-196.25 1440.89,-195.83 1442.82,-195.33 1444.75,-194.77"/>
<polygon fill="#63b8ff" stroke="#63b8ff" points="1445.81,-198.11 1454.16,-191.59 1443.57,-191.47 1445.81,-198.11"/>
</a>
</g>
</g>
<!-- Node12 -->
<g id="Node000012" class="node">
<title>Node12</title>
<g id="a_Node000012"><a xlink:title=" ">
<polygon fill="#e0e0e0" stroke="#999999" points="1567.62,-190.62 1522.38,-190.62 1522.38,-171.38 1567.62,-171.38 1567.62,-190.62"/>
<text text-anchor="middle" x="1545" y="-177.12" font-family="Helvetica,sans-Serif" font-size="10.00">chrono</text>
</a>
</g>
</g>
<!-- Node10&#45;&gt;Node12 -->
<g id="edge11_Node000010_Node000012" class="edge">
<title>Node10&#45;&gt;Node12</title>
<g id="a_edge11_Node000010_Node000012"><a xlink:title=" ">
<path fill="none" stroke="#63b8ff" d="M828.66,-240.45C943.09,-238.49 1379.64,-228.99 1513,-196.25 1514.4,-195.91 1515.81,-195.51 1517.22,-195.06"/>
<polygon fill="#63b8ff" stroke="#63b8ff" points="1518.3,-198.4 1526.38,-191.55 1515.79,-191.86 1518.3,-198.4"/>
</a>
</g>
</g>
<!-- Node13 -->
<g id="Node000013" class="node">
<title>Node13</title>
<g id="a_Node000013"><a xlink:title=" ">
<polygon fill="#e0e0e0" stroke="#999999" points="233.5,-190.62 190.5,-190.62 190.5,-171.38 233.5,-171.38 233.5,-190.62"/>
<text text-anchor="middle" x="212" y="-177.12" font-family="Helvetica,sans-Serif" font-size="10.00">cmath</text>
</a>
</g>
</g>
<!-- Node10&#45;&gt;Node13 -->
<g id="edge12_Node000010_Node000013" class="edge">
<title>Node10&#45;&gt;Node13</title>
<g id="a_edge12_Node000010_Node000013"><a xlink:title=" ">
<path fill="none" stroke="#63b8ff" d="M773.23,-241.51C691.5,-242.76 445.24,-242.16 248,-196.25 246.24,-195.84 244.45,-195.36 242.66,-194.83"/>
<polygon fill="#63b8ff" stroke="#63b8ff" points="243.87,-191.54 233.27,-191.57 241.57,-198.15 243.87,-191.54"/>
</a>
</g>
</g>
<!-- Node14 -->
<g id="Node000014" class="node">
<title>Node14</title>
<g id="a_Node000014"><a xlink:title=" ">
<polygon fill="#e0e0e0" stroke="#999999" points="389.62,-74.5 344.38,-74.5 344.38,-55.25 389.62,-55.25 389.62,-74.5"/>
<text text-anchor="middle" x="367" y="-61" font-family="Helvetica,sans-Serif" font-size="10.00">cstdint</text>
</a>
</g>
</g>
<!-- Node10&#45;&gt;Node14 -->
<g id="edge13_Node000010_Node000014" class="edge">
<title>Node10&#45;&gt;Node14</title>
<g id="a_edge13_Node000010_Node000014"><a xlink:title=" ">
<path fill="none" stroke="#63b8ff" d="M773.3,-240.63C670.43,-239.46 314.51,-232.76 281,-196.25 246.81,-159 308.06,-106.84 343.85,-81.26"/>
<polygon fill="#63b8ff" stroke="#63b8ff" points="345.71,-84.23 351.92,-75.65 341.71,-78.48 345.71,-84.23"/>
</a>
</g>
</g>
<!-- Node15 -->
<g id="Node000015" class="node">
<title>Node15</title>
<g id="a_Node000015"><a xlink:title=" ">
<polygon fill="#e0e0e0" stroke="#999999" points="452,-190.62 412,-190.62 412,-171.38 452,-171.38 452,-190.62"/>
<text text-anchor="middle" x="432" y="-177.12" font-family="Helvetica,sans-Serif" font-size="10.00">ctime</text>
</a>
</g>
</g>
<!-- Node10&#45;&gt;Node15 -->
<g id="edge14_Node000010_Node000015" class="edge">
<title>Node10&#45;&gt;Node15</title>
<g id="a_edge14_Node000010_Node000015"><a xlink:title=" ">
<path fill="none" stroke="#63b8ff" d="M773.03,-240.27C714.09,-238.32 573.26,-230.19 461,-196.25 460.19,-196.01 459.38,-195.74 458.57,-195.46"/>
<polygon fill="#63b8ff" stroke="#63b8ff" points="460.15,-192.33 449.58,-191.69 457.45,-198.78 460.15,-192.33"/>
</a>
</g>
</g>
<!-- Node16 -->
<g id="Node000016" class="node">
<title>Node16</title>
<g id="a_Node000016"><a xlink:title=" ">
<polygon fill="#e0e0e0" stroke="#999999" points="519.88,-190.62 470.12,-190.62 470.12,-171.38 519.88,-171.38 519.88,-190.62"/>
<text text-anchor="middle" x="495" y="-177.12" font-family="Helvetica,sans-Serif" font-size="10.00">iomanip</text>
</a>
</g>
</g>
<!-- Node10&#45;&gt;Node16 -->
<g id="edge15_Node000010_Node000016" class="edge">
<title>Node10&#45;&gt;Node16</title>
<g id="a_edge15_Node000010_Node000016"><a xlink:title=" ">
<path fill="none" stroke="#63b8ff" d="M773.12,-238.47C723.32,-233.71 616.16,-221.29 529,-196.25 527.65,-195.86 526.28,-195.44 524.91,-194.98"/>
<polygon fill="#63b8ff" stroke="#63b8ff" points="526.51,-191.84 515.91,-191.62 524.05,-198.4 526.51,-191.84"/>
</a>
</g>
</g>
<!-- Node17 -->
<g id="Node000017" class="node">
<title>Node17</title>
<g id="a_Node000017"><a xlink:title=" ">
<polygon fill="#e0e0e0" stroke="#999999" points="589.62,-190.62 538.38,-190.62 538.38,-171.38 589.62,-171.38 589.62,-190.62"/>
<text text-anchor="middle" x="564" y="-177.12" font-family="Helvetica,sans-Serif" font-size="10.00">sstream</text>
</a>
</g>
</g>
<!-- Node10&#45;&gt;Node17 -->
<g id="edge16_Node000010_Node000017" class="edge">
<title>Node10&#45;&gt;Node17</title>
<g id="a_edge16_Node000010_Node000017"><a xlink:title=" ">
<path fill="none" stroke="#63b8ff" d="M773.17,-236.27C733.85,-229.41 660.03,-215.27 599,-196.25 597.66,-195.83 596.3,-195.39 594.93,-194.92"/>
<polygon fill="#63b8ff" stroke="#63b8ff" points="596.53,-191.78 585.93,-191.56 594.08,-198.33 596.53,-191.78"/>
</a>
</g>
</g>
<!-- Node18 -->
<g id="Node000018" class="node">
<title>Node18</title>
<g id="a_Node000018"><a xlink:title=" ">
<polygon fill="#e0e0e0" stroke="#999999" points="712.25,-190.62 607.75,-190.62 607.75,-171.38 712.25,-171.38 712.25,-190.62"/>
<text text-anchor="middle" x="660" y="-177.12" font-family="Helvetica,sans-Serif" font-size="10.00">boost/date_time.hpp</text>
</a>
</g>
</g>
<!-- Node10&#45;&gt;Node18 -->
<g id="edge18_Node000010_Node000018" class="edge">
<title>Node10&#45;&gt;Node18</title>
<g id="a_edge18_Node000010_Node000018"><a xlink:title=" ">
<path fill="none" stroke="#63b8ff" d="M779.28,-231.8C755.92,-222.05 718.56,-206.45 691.87,-195.31"/>
<polygon fill="#63b8ff" stroke="#63b8ff" points="693.49,-192.19 682.91,-191.57 690.79,-198.65 693.49,-192.19"/>
</a>
</g>
</g>
<!-- Node19 -->
<g id="Node000019" class="node">
<title>Node19</title>
<g id="a_Node000019"><a xlink:title=" ">
<polygon fill="#e0e0e0" stroke="#999999" points="871.25,-190.62 730.75,-190.62 730.75,-171.38 871.25,-171.38 871.25,-190.62"/>
<text text-anchor="middle" x="801" y="-177.12" font-family="Helvetica,sans-Serif" font-size="10.00">boost/endian/conversion.hpp</text>
</a>
</g>
</g>
<!-- Node10&#45;&gt;Node19 -->
<g id="edge19_Node000010_Node000019" class="edge">
<title>Node10&#45;&gt;Node19</title>
<g id="a_edge19_Node000010_Node000019"><a xlink:title=" ">
<path fill="none" stroke="#63b8ff" d="M801,-231.93C801,-224.15 801,-212.58 801,-202.53"/>
<polygon fill="#63b8ff" stroke="#63b8ff" points="804.5,-202.54 801,-192.54 797.5,-202.54 804.5,-202.54"/>
</a>
</g>
</g>
<!-- Node20 -->
<g id="Node000020" class="node">
<title>Node20</title>
<g id="a_Node000020"><a xlink:title=" ">
<polygon fill="#e0e0e0" stroke="#999999" points="990.38,-190.62 889.62,-190.62 889.62,-171.38 990.38,-171.38 990.38,-190.62"/>
<text text-anchor="middle" x="940" y="-177.12" font-family="Helvetica,sans-Serif" font-size="10.00">boost/uuid/uuid.hpp</text>
</a>
</g>
</g>
<!-- Node10&#45;&gt;Node20 -->
<g id="edge20_Node000010_Node000020" class="edge">
<title>Node10&#45;&gt;Node20</title>
<g id="a_edge20_Node000010_Node000020"><a xlink:title=" ">
<path fill="none" stroke="#63b8ff" d="M822.41,-231.8C845.34,-222.1 881.95,-206.59 908.23,-195.46"/>
<polygon fill="#63b8ff" stroke="#63b8ff" points="909.55,-198.7 917.4,-191.57 906.82,-192.25 909.55,-198.7"/>
</a>
</g>
</g>
<!-- Node21 -->
<g id="Node000021" class="node">
<title>Node21</title>
<g id="a_Node000021"><a xlink:title=" ">
<polygon fill="#e0e0e0" stroke="#999999" points="1159.88,-190.62 1008.12,-190.62 1008.12,-171.38 1159.88,-171.38 1159.88,-190.62"/>
<text text-anchor="middle" x="1084" y="-177.12" font-family="Helvetica,sans-Serif" font-size="10.00">boost/uuid/uuid_generators.hpp</text>
</a>
</g>
</g>
<!-- Node10&#45;&gt;Node21 -->
<g id="edge21_Node000010_Node000021" class="edge">
<title>Node10&#45;&gt;Node21</title>
<g id="a_edge21_Node000010_Node000021"><a xlink:title=" ">
<path fill="none" stroke="#63b8ff" d="M828.91,-235.07C875.28,-225.42 969.04,-205.92 1029.06,-193.43"/>
<polygon fill="#63b8ff" stroke="#63b8ff" points="1029.66,-196.88 1038.74,-191.42 1028.23,-190.03 1029.66,-196.88"/>
</a>
</g>
</g>
<!-- Node22 -->
<g id="Node000022" class="node">
<title>Node22</title>
<g id="a_Node000022"><a xlink:title=" ">
<polygon fill="#e0e0e0" stroke="#999999" points="1291.75,-190.62 1178.25,-190.62 1178.25,-171.38 1291.75,-171.38 1291.75,-190.62"/>
<text text-anchor="middle" x="1235" y="-177.12" font-family="Helvetica,sans-Serif" font-size="10.00">boost/uuid/uuid_io.hpp</text>
</a>
</g>
</g>
<!-- Node10&#45;&gt;Node22 -->
<g id="edge22_Node000010_Node000022" class="edge">
<title>Node10&#45;&gt;Node22</title>
<g id="a_edge22_Node000010_Node000022"><a xlink:title=" ">
<path fill="none" stroke="#63b8ff" d="M828.82,-238.38C890.39,-232.68 1042.7,-217.5 1169,-196.25 1174.01,-195.41 1179.22,-194.44 1184.41,-193.42"/>
<polygon fill="#63b8ff" stroke="#63b8ff" points="1185.1,-196.85 1194.19,-191.41 1183.7,-189.99 1185.1,-196.85"/>
</a>
</g>
</g>
<!-- Node23 -->
<g id="Node000023" class="node">
<title>Node23</title>
<g id="a_Node000023"><a xlink:title=" ">
<polygon fill="#e0e0e0" stroke="#999999" points="1429.75,-196.25 1310.25,-196.25 1310.25,-165.75 1429.75,-165.75 1429.75,-196.25"/>
<text text-anchor="start" x="1318.25" y="-182.75" font-family="Helvetica,sans-Serif" font-size="10.00">boost/date_time/c_local</text>
<text text-anchor="middle" x="1370" y="-171.5" font-family="Helvetica,sans-Serif" font-size="10.00">_time_adjustor.hpp</text>
</a>
</g>
</g>
<!-- Node10&#45;&gt;Node23 -->
<g id="edge23_Node000010_Node000023" class="edge">
<title>Node10&#45;&gt;Node23</title>
<g id="a_edge23_Node000010_Node000023"><a xlink:title=" ">
<path fill="none" stroke="#63b8ff" d="M828.77,-239.52C903.2,-235.64 1113.45,-223.13 1298.55,-196.49"/>
<polygon fill="#63b8ff" stroke="#63b8ff" points="1298.97,-199.97 1308.36,-195.06 1297.96,-193.04 1298.97,-199.97"/>
</a>
</g>
</g>
<!-- Node10&#45;&gt;Node24 -->
<g id="edge24_Node000010_Node000024" class="edge">
<title>Node10&#45;&gt;Node24</title>
<g id="a_edge24_Node000010_Node000024"><a xlink:title=" ">
<path fill="none" stroke="#63b8ff" d="M828.94,-240.33C964.79,-237.56 1550.8,-224 1577,-196.25 1586.31,-186.39 1586.34,-175.58 1577,-165.75 1548.33,-135.59 931.96,-124.45 748.85,-121.79"/>
<polygon fill="#63b8ff" stroke="#63b8ff" points="748.99,-118.3 738.94,-121.65 748.89,-125.29 748.99,-118.3"/>
</a>
</g>
</g>
<!-- Node28 -->
<g id="Node000028" class="node">
<title>Node28</title>
<g id="a_Node000028"><a xlink:href="_h_d_f5_i_o_8hpp.html" target="_top" xlink:title=" ">
<polygon fill="white" stroke="#666666" points="393.88,-190.62 290.12,-190.62 290.12,-171.38 393.88,-171.38 393.88,-190.62"/>
<text text-anchor="middle" x="342" y="-177.12" font-family="Helvetica,sans-Serif" font-size="10.00">io/hdf5/HDF5IO.hpp</text>
</a>
</g>
</g>
<!-- Node10&#45;&gt;Node28 -->
<g id="edge35_Node000010_Node000028" class="edge">
<title>Node10&#45;&gt;Node28</title>
<g id="a_edge35_Node000010_Node000028"><a xlink:title=" ">
<path fill="none" stroke="#63b8ff" d="M773.34,-238.9C708.37,-234.02 541.07,-220.03 403,-196.25 398.36,-195.45 393.54,-194.51 388.74,-193.51"/>
<polygon fill="#63b8ff" stroke="#63b8ff" points="389.66,-190.13 379.14,-191.4 388.15,-196.96 389.66,-190.13"/>
</a>
</g>
</g>
<!-- Node24&#45;&gt;Node3 -->
<g id="edge28_Node000024_Node000003" class="edge">
<title>Node24&#45;&gt;Node3</title>
<g id="a_edge28_Node000024_Node000003"><a xlink:title=" ">
<path fill="none" stroke="#63b8ff" d="M721.07,-110.09C742.76,-101.6 775.48,-88.79 800.13,-79.14"/>
<polygon fill="#63b8ff" stroke="#63b8ff" points="801.37,-82.41 809.41,-75.5 798.82,-75.89 801.37,-82.41"/>
</a>
</g>
</g>
<!-- Node24&#45;&gt;Node4 -->
<g id="edge29_Node000024_Node000004" class="edge">
<title>Node24&#45;&gt;Node4</title>
<g id="a_edge29_Node000024_Node000004"><a xlink:title=" ">
<path fill="none" stroke="#63b8ff" d="M658.38,-117.29C580.65,-113.21 402.97,-101.54 256,-74.5 255.76,-74.46 255.52,-74.41 255.28,-74.36"/>
<polygon fill="#63b8ff" stroke="#63b8ff" points="256.2,-70.99 245.68,-72.19 254.65,-77.81 256.2,-70.99"/>
</a>
</g>
</g>
<!-- Node24&#45;&gt;Node5 -->
<g id="edge30_Node000024_Node000005" class="edge">
<title>Node24&#45;&gt;Node5</title>
<g id="a_edge30_Node000024_Node000005"><a xlink:title=" ">
<path fill="none" stroke="#63b8ff" d="M737.32,-114.07C812.02,-104.46 974.5,-83.56 1058.82,-72.71"/>
<polygon fill="#63b8ff" stroke="#63b8ff" points="1059.21,-76.19 1068.68,-71.45 1058.32,-69.25 1059.21,-76.19"/>
</a>
</g>
</g>
<!-- Node24&#45;&gt;Node6 -->
<g id="edge31_Node000024_Node000006" class="edge">
<title>Node24&#45;&gt;Node6</title>
<g id="a_edge31_Node000024_Node000006"><a xlink:title=" ">
<path fill="none" stroke="#63b8ff" d="M737.37,-116.79C881.69,-108.21 1381.78,-78.49 1543.28,-68.89"/>
<polygon fill="#63b8ff" stroke="#63b8ff" points="1543.47,-72.38 1553.25,-68.3 1543.06,-65.4 1543.47,-72.38"/>
</a>
</g>
</g>
<!-- Node24&#45;&gt;Node7 -->
<g id="edge34_Node000024_Node000007" class="edge">
<title>Node24&#45;&gt;Node7</title>
<g id="a_edge34_Node000024_Node000007"><a xlink:title=" ">
<path fill="none" stroke="#63b8ff" d="M658.61,-115.52C593.73,-109.33 460.15,-95.43 337.66,-74.82"/>
<polygon fill="#63b8ff" stroke="#63b8ff" points="338.54,-71.42 328.09,-73.19 337.36,-78.32 338.54,-71.42"/>
</a>
</g>
</g>
<!-- Node24&#45;&gt;Node9 -->
<g id="edge32_Node000024_Node000009" class="edge">
<title>Node24&#45;&gt;Node9</title>
<g id="a_edge32_Node000024_Node000009"><a xlink:title=" ">
<path fill="none" stroke="#63b8ff" d="M718.64,-110.03C743.11,-98.01 778.51,-75.93 761,-55.25 731.34,-20.22 591.48,-12.67 526.87,-11.05"/>
<polygon fill="#63b8ff" stroke="#63b8ff" points="527.31,-7.56 517.24,-10.85 527.16,-14.56 527.31,-7.56"/>
</a>
</g>
</g>
<!-- Node24&#45;&gt;Node14 -->
<g id="edge26_Node000024_Node000014" class="edge">
<title>Node24&#45;&gt;Node14</title>
<g id="a_edge26_Node000024_Node000014"><a xlink:title=" ">
<path fill="none" stroke="#63b8ff" d="M658.56,-114.71C603.19,-108.19 499.1,-94.76 401,-74.7"/>
<polygon fill="#63b8ff" stroke="#63b8ff" points="401.98,-71.33 391.48,-72.72 400.56,-78.18 401.98,-71.33"/>
</a>
</g>
</g>
<!-- Node25 -->
<g id="Node000025" class="node">
<title>Node25</title>
<g id="a_Node000025"><a xlink:title=" ">
<polygon fill="#e0e0e0" stroke="#999999" points="625.88,-74.5 594.12,-74.5 594.12,-55.25 625.88,-55.25 625.88,-74.5"/>
<text text-anchor="middle" x="610" y="-61" font-family="Helvetica,sans-Serif" font-size="10.00">any</text>
</a>
</g>
</g>
<!-- Node24&#45;&gt;Node25 -->
<g id="edge25_Node000024_Node000025" class="edge">
<title>Node24&#45;&gt;Node25</title>
<g id="a_edge25_Node000024_Node000025"><a xlink:title=" ">
<path fill="none" stroke="#63b8ff" d="M683.07,-110.09C669.8,-102.06 650.13,-90.16 634.55,-80.73"/>
<polygon fill="#63b8ff" stroke="#63b8ff" points="636.66,-77.92 626.3,-75.74 633.04,-83.91 636.66,-77.92"/>
</a>
</g>
</g>
<!-- Node26 -->
<g id="Node000026" class="node">
<title>Node26</title>
<g id="a_Node000026"><a xlink:title=" ">
<polygon fill="#e0e0e0" stroke="#999999" points="575.75,-74.5 522.25,-74.5 522.25,-55.25 575.75,-55.25 575.75,-74.5"/>
<text text-anchor="middle" x="549" y="-61" font-family="Helvetica,sans-Serif" font-size="10.00">iostream</text>
</a>
</g>
</g>
<!-- Node24&#45;&gt;Node26 -->
<g id="edge27_Node000024_Node000026" class="edge">
<title>Node24&#45;&gt;Node26</title>
<g id="a_edge27_Node000024_Node000026"><a xlink:title=" ">
<path fill="none" stroke="#63b8ff" d="M672.72,-110.09C648.64,-101.49 612.14,-88.44 585.02,-78.75"/>
<polygon fill="#63b8ff" stroke="#63b8ff" points="586.42,-75.53 575.83,-75.46 584.06,-82.12 586.42,-75.53"/>
</a>
</g>
</g>
<!-- Node27 -->
<g id="Node000027" class="node">
<title>Node27</title>
<g id="a_Node000027"><a xlink:title=" ">
<polygon fill="#e0e0e0" stroke="#999999" points="752.12,-74.5 643.88,-74.5 643.88,-55.25 752.12,-55.25 752.12,-74.5"/>
<text text-anchor="middle" x="698" y="-61" font-family="Helvetica,sans-Serif" font-size="10.00">boost/multi_array.hpp</text>
</a>
</g>
</g>
<!-- Node24&#45;&gt;Node27 -->
<g id="edge33_Node000024_Node000027" class="edge">
<title>Node24&#45;&gt;Node27</title>
<g id="a_edge33_Node000024_Node000027"><a xlink:title=" ">
<path fill="none" stroke="#63b8ff" d="M698,-110.33C698,-103.82 698,-94.67 698,-86.37"/>
<polygon fill="#63b8ff" stroke="#63b8ff" points="701.5,-86.37 698,-76.37 694.5,-86.37 701.5,-86.37"/>
</a>
</g>
</g>
<!-- Node28&#45;&gt;Node3 -->
<g id="edge37_Node000028_Node000003" class="edge">
<title>Node28&#45;&gt;Node3</title>
<g id="a_edge37_Node000028_Node000003"><a xlink:title=" ">
<path fill="none" stroke="#63b8ff" d="M377.65,-170.88C385.93,-168.99 394.74,-167.14 403,-165.75 554.15,-140.27 602.88,-184.64 746,-129.75 773.66,-119.14 800.48,-97.53 817.09,-82.4"/>
<polygon fill="#63b8ff" stroke="#63b8ff" points="819.22,-85.21 824.11,-75.81 814.43,-80.1 819.22,-85.21"/>
</a>
</g>
</g>
<!-- Node28&#45;&gt;Node4 -->
<g id="edge38_Node000028_Node000004" class="edge">
<title>Node28&#45;&gt;Node4</title>
<g id="a_edge38_Node000028_Node000004"><a xlink:title=" ">
<path fill="none" stroke="#63b8ff" d="M332.74,-171.04C313.01,-151.96 266.56,-107.03 241.22,-82.53"/>
<polygon fill="#63b8ff" stroke="#63b8ff" points="243.93,-80.28 234.3,-75.84 239.06,-85.31 243.93,-80.28"/>
</a>
</g>
</g>
<!-- Node28&#45;&gt;Node7 -->
<g id="edge40_Node000028_Node000007" class="edge">
<title>Node28&#45;&gt;Node7</title>
<g id="a_edge40_Node000028_Node000007"><a xlink:title=" ">
<path fill="none" stroke="#63b8ff" d="M338.39,-171.04C330.97,-152.63 313.84,-110.14 303.78,-85.17"/>
<polygon fill="#63b8ff" stroke="#63b8ff" points="307.14,-84.16 300.16,-76.19 300.65,-86.78 307.14,-84.16"/>
</a>
</g>
</g>
<!-- Node28&#45;&gt;Node24 -->
<g id="edge41_Node000028_Node000024" class="edge">
<title>Node28&#45;&gt;Node24</title>
<g id="a_edge41_Node000028_Node000024"><a xlink:title=" ">
<path fill="none" stroke="#63b8ff" d="M378.67,-170.94C386.67,-169.1 395.1,-167.27 403,-165.75 488.36,-149.35 588.57,-135.28 647.49,-127.52"/>
<polygon fill="#63b8ff" stroke="#63b8ff" points="647.74,-131.02 657.2,-126.26 646.83,-124.08 647.74,-131.02"/>
</a>
</g>
</g>
<!-- Node28&#45;&gt;Node26 -->
<g id="edge36_Node000028_Node000026" class="edge">
<title>Node28&#45;&gt;Node26</title>
<g id="a_edge36_Node000028_Node000026"><a xlink:title=" ">
<path fill="none" stroke="#63b8ff" d="M341.44,-170.9C341.05,-156.08 342.59,-126.76 359,-110.5 380.11,-89.58 461.52,-76.38 510.66,-70.14"/>
<polygon fill="#63b8ff" stroke="#63b8ff" points="510.81,-73.64 520.31,-68.95 509.96,-66.7 510.81,-73.64"/>
</a>
</g>
</g>
<!-- Node29 -->
<g id="Node000029" class="node">
<title>Node29</title>
<g id="a_Node000029"><a xlink:title=" ">
<polygon fill="#e0e0e0" stroke="#999999" points="438,-129.75 368,-129.75 368,-110.5 438,-110.5 438,-129.75"/>
<text text-anchor="middle" x="403" y="-116.25" font-family="Helvetica,sans-Serif" font-size="10.00">H5Opublic.h</text>
</a>
</g>
</g>
<!-- Node28&#45;&gt;Node29 -->
<g id="edge39_Node000028_Node000029" class="edge">
<title>Node28&#45;&gt;Node29</title>
<g id="a_edge39_Node000028_Node000029"><a xlink:title=" ">
<path fill="none" stroke="#63b8ff" d="M351.26,-171.06C360.31,-162.33 374.31,-148.82 385.46,-138.05"/>
<polygon fill="#63b8ff" stroke="#63b8ff" points="387.79,-140.67 392.56,-131.2 382.93,-135.63 387.79,-140.67"/>
</a>
</g>
</g>
<!-- Node28&#45;&gt;Node30 -->
<g id="edge42_Node000028_Node000030" class="edge">
<title>Node28&#45;&gt;Node30</title>
<g id="a_edge42_Node000028_Node000030"><a xlink:title=" ">
<path fill="none" stroke="#63b8ff" d="M365.73,-170.93C391.39,-161.12 432.53,-145.39 461.71,-134.23"/>
<polygon fill="#63b8ff" stroke="#63b8ff" points="462.74,-137.59 470.83,-130.75 460.24,-131.05 462.74,-137.59"/>
</a>
</g>
</g>
<!-- Node30&#45;&gt;Node3 -->
<g id="edge46_Node000030_Node000003" class="edge">
<title>Node30&#45;&gt;Node3</title>
<g id="a_edge46_Node000030_Node000003"><a xlink:title=" ">
<path fill="none" stroke="#63b8ff" d="M535.77,-112.86C601.64,-102.48 732.51,-81.86 796.71,-71.75"/>
<polygon fill="#63b8ff" stroke="#63b8ff" points="797.06,-75.24 806.4,-70.22 795.98,-68.32 797.06,-75.24"/>
</a>
</g>
</g>
<!-- Node30&#45;&gt;Node4 -->
<g id="edge47_Node000030_Node000004" class="edge">
<title>Node30&#45;&gt;Node4</title>
<g id="a_edge47_Node000030_Node000004"><a xlink:title=" ">
<path fill="none" stroke="#63b8ff" d="M456.38,-112.15C398.47,-101.89 293.5,-83.03 256,-74.5 255.76,-74.45 255.52,-74.39 255.28,-74.34"/>
<polygon fill="#63b8ff" stroke="#63b8ff" points="256.27,-70.98 245.72,-71.96 254.58,-77.77 256.27,-70.98"/>
</a>
</g>
</g>
<!-- Node30&#45;&gt;Node7 -->
<g id="edge51_Node000030_Node000007" class="edge">
<title>Node30&#45;&gt;Node7</title>
<g id="a_edge51_Node000030_Node000007"><a xlink:title=" ">
<path fill="none" stroke="#63b8ff" d="M462.07,-110.09C427.73,-100.95 374.58,-86.8 337.69,-76.98"/>
<polygon fill="#63b8ff" stroke="#63b8ff" points="338.83,-73.66 328.27,-74.47 337.03,-80.42 338.83,-73.66"/>
</a>
</g>
</g>
<!-- Node30&#45;&gt;Node9 -->
<g id="edge49_Node000030_Node000009" class="edge">
<title>Node30&#45;&gt;Node9</title>
<g id="a_edge49_Node000030_Node000009"><a xlink:title=" ">
<path fill="none" stroke="#63b8ff" d="M495.84,-110.25C495.52,-93 494.81,-54.58 494.37,-30.81"/>
<polygon fill="#63b8ff" stroke="#63b8ff" points="497.88,-31.07 494.19,-21.14 490.88,-31.2 497.88,-31.07"/>
</a>
</g>
</g>
<!-- Node30&#45;&gt;Node14 -->
<g id="edge44_Node000030_Node000014" class="edge">
<title>Node30&#45;&gt;Node14</title>
<g id="a_edge44_Node000030_Node000014"><a xlink:title=" ">
<path fill="none" stroke="#63b8ff" d="M474.12,-110.09C453.64,-101.64 422.79,-88.9 399.44,-79.27"/>
<polygon fill="#63b8ff" stroke="#63b8ff" points="400.97,-76.11 390.39,-75.53 398.3,-82.58 400.97,-76.11"/>
</a>
</g>
</g>
<!-- Node30&#45;&gt;Node25 -->
<g id="edge43_Node000030_Node000025" class="edge">
<title>Node30&#45;&gt;Node25</title>
<g id="a_edge43_Node000030_Node000025"><a xlink:title=" ">
<path fill="none" stroke="#63b8ff" d="M515.34,-110.09C534.08,-101.34 562.65,-87.99 583.5,-78.25"/>
<polygon fill="#63b8ff" stroke="#63b8ff" points="584.94,-81.44 592.52,-74.04 581.98,-75.1 584.94,-81.44"/>
</a>
</g>
</g>
<!-- Node30&#45;&gt;Node26 -->
<g id="edge45_Node000030_Node000026" class="edge">
<title>Node30&#45;&gt;Node26</title>
<g id="a_edge45_Node000030_Node000026"><a xlink:title=" ">
<path fill="none" stroke="#63b8ff" d="M504.75,-110.33C512.15,-102.9 522.96,-92.04 532.05,-82.91"/>
<polygon fill="#63b8ff" stroke="#63b8ff" points="534.42,-85.49 538.99,-75.93 529.46,-80.55 534.42,-85.49"/>
</a>
</g>
</g>
<!-- Node30&#45;&gt;Node27 -->
<g id="edge50_Node000030_Node000027" class="edge">
<title>Node30&#45;&gt;Node27</title>
<g id="a_edge50_Node000030_Node000027"><a xlink:title=" ">
<path fill="none" stroke="#63b8ff" d="M530.27,-110.09C563.93,-101.22 615.49,-87.62 652.56,-77.85"/>
<polygon fill="#63b8ff" stroke="#63b8ff" points="653.32,-81.27 662.1,-75.34 651.54,-74.5 653.32,-81.27"/>
</a>
</g>
</g>
<!-- Node31 -->
<g id="Node000031" class="node">
<title>Node31</title>
<g id="a_Node000031"><a xlink:title=" ">
<polygon fill="#e0e0e0" stroke="#999999" points="466,-74.5 408,-74.5 408,-55.25 466,-55.25 466,-74.5"/>
<text text-anchor="middle" x="437" y="-61" font-family="Helvetica,sans-Serif" font-size="10.00">typeindex</text>
</a>
</g>
</g>
<!-- Node30&#45;&gt;Node31 -->
<g id="edge48_Node000030_Node000031" class="edge">
<title>Node30&#45;&gt;Node31</title>
<g id="a_edge48_Node000030_Node000031"><a xlink:title=" ">
<path fill="none" stroke="#63b8ff" d="M485.99,-110.09C477.63,-102.55 465.5,-91.6 455.4,-82.48"/>
<polygon fill="#63b8ff" stroke="#63b8ff" points="457.75,-79.89 447.98,-75.79 453.06,-85.09 457.75,-79.89"/>
</a>
</g>
</g>
</g>
</svg>
