<?xml version="1.0" encoding="UTF-8" standalone="no"?>
<!DOCTYPE svg PUBLIC "-//W3C//DTD SVG 1.1//EN"
 "http://www.w3.org/Graphics/SVG/1.1/DTD/svg11.dtd">
<!-- Generated by graphviz version 15.1.0 (20260618.0150)
 -->
<!-- Title: src/nwb/RegisteredType.hpp Pages: 1 -->
<svg width="1443pt" height="359pt"
 viewBox="0.00 0.00 1443.00 359.00" xmlns="http://www.w3.org/2000/svg" xmlns:xlink="http://www.w3.org/1999/xlink">
<g id="graph0" class="graph" transform="scale(1 1) rotate(0) translate(4 354.75)">
<title>src/nwb/RegisteredType.hpp</title>
<!-- Node1 -->
<g id="Node000001" class="node">
<title>Node1</title>
<g id="a_Node000001"><a xlink:title=" ">
<polygon fill="#999999" stroke="#666666" points="518.75,-350.75 378.25,-350.75 378.25,-331.5 518.75,-331.5 518.75,-350.75"/>
<text xml:space="preserve" text-anchor="middle" x="448.5" y="-337.25" font-family="Helvetica,sans-Serif" font-size="10.00">src/nwb/RegisteredType.hpp</text>
</a>
</g>
</g>
<!-- Node2 -->
<g id="Node000002" class="node">
<title>Node2</title>
<g id="a_Node000002"><a xlink:title=" ">
<polygon fill="#e0e0e0" stroke="#999999" points="61,-295.5 0,-295.5 0,-276.25 61,-276.25 61,-295.5"/>
<text xml:space="preserve" text-anchor="middle" x="30.5" y="-282" font-family="Helvetica,sans-Serif" font-size="10.00">filesystem</text>
</a>
</g>
</g>
<!-- Node1&#45;&gt;Node2 -->
<g id="edge1_Node000001_Node000002" class="edge">
<title>Node1&#45;&gt;Node2</title>
<g id="a_edge1_Node000001_Node000002"><a xlink:title=" ">
<path fill="none" stroke="#63b8ff" d="M377.85,-333.81C304.16,-326.76 185.06,-314.09 72.66,-295.71"/>
<polygon fill="#63b8ff" stroke="#63b8ff" points="73.38,-292.28 62.95,-294.1 72.24,-299.19 73.38,-292.28"/>
</a>
</g>
</g>
<!-- Node3 -->
<g id="Node000003" class="node">
<title>Node3</title>
<g id="a_Node000003"><a xlink:title=" ">
<polygon fill="#e0e0e0" stroke="#999999" points="137.5,-295.5 79.5,-295.5 79.5,-276.25 137.5,-276.25 137.5,-295.5"/>
<text xml:space="preserve" text-anchor="middle" x="108.5" y="-282" font-family="Helvetica,sans-Serif" font-size="10.00">functional</text>
</a>
</g>
</g>
<!-- Node1&#45;&gt;Node3 -->
<g id="edge2_Node000001_Node000003" class="edge">
<title>Node1&#45;&gt;Node3</title>
<g id="a_edge2_Node000001_Node000003"><a xlink:title=" ">
<path fill="none" stroke="#63b8ff" d="M381.7,-331.04C321.41,-322.61 230.33,-309.32 151.5,-295.5 150.52,-295.33 149.52,-295.15 148.51,-294.97"/>
<polygon fill="#63b8ff" stroke="#63b8ff" points="149.57,-291.61 139.1,-293.19 148.27,-298.48 149.57,-291.61"/>
</a>
</g>
</g>
<!-- Node4 -->
<g id="Node000004" class="node">
<title>Node4</title>
<g id="a_Node000004"><a xlink:title=" ">
<polygon fill="#e0e0e0" stroke="#999999" points="278.12,-74.5 226.88,-74.5 226.88,-55.25 278.12,-55.25 278.12,-74.5"/>
<text xml:space="preserve" text-anchor="middle" x="252.5" y="-61" font-family="Helvetica,sans-Serif" font-size="10.00">memory</text>
</a>
</g>
</g>
<!-- Node1&#45;&gt;Node4 -->
<g id="edge3_Node000001_Node000004" class="edge">
<title>Node1&#45;&gt;Node4</title>
<g id="a_edge3_Node000001_Node000004"><a xlink:title=" ">
<path fill="none" stroke="#63b8ff" d="M377.96,-337.87C305.59,-331.34 203.5,-308.5 203.5,-231.62 203.5,-231.62 203.5,-231.62 203.5,-174.38 203.5,-140.07 224.09,-104.65 238.58,-83.97"/>
<polygon fill="#63b8ff" stroke="#63b8ff" points="241.29,-86.19 244.38,-76.05 235.65,-82.05 241.29,-86.19"/>
</a>
</g>
</g>
<!-- Node5 -->
<g id="Node000005" class="node">
<title>Node5</title>
<g id="a_Node000005"><a xlink:title=" ">
<polygon fill="#e0e0e0" stroke="#999999" points="1262.5,-19.25 1222.5,-19.25 1222.5,0 1262.5,0 1262.5,-19.25"/>
<text xml:space="preserve" text-anchor="middle" x="1242.5" y="-5.75" font-family="Helvetica,sans-Serif" font-size="10.00">string</text>
</a>
</g>
</g>
<!-- Node1&#45;&gt;Node5 -->
<g id="edge4_Node000001_Node000005" class="edge">
<title>Node1&#45;&gt;Node5</title>
<g id="a_edge4_Node000001_Node000005"><a xlink:title=" ">
<path fill="none" stroke="#63b8ff" d="M519.01,-339.77C744.69,-337.69 1434.5,-323.81 1434.5,-231.62 1434.5,-231.62 1434.5,-231.62 1434.5,-119.12 1434.5,-89.51 1436.82,-75.81 1415.5,-55.25 1377.23,-18.36 1312.68,-10.86 1274.18,-9.94"/>
<polygon fill="#63b8ff" stroke="#63b8ff" points="1274.43,-6.44 1264.4,-9.85 1274.37,-13.44 1274.43,-6.44"/>
</a>
</g>
</g>
<!-- Node6 -->
<g id="Node000006" class="node">
<title>Node6</title>
<g id="a_Node000006"><a xlink:title=" ">
<polygon fill="#e0e0e0" stroke="#999999" points="646.88,-19.25 564.12,-19.25 564.12,0 646.88,0 646.88,-19.25"/>
<text xml:space="preserve" text-anchor="middle" x="605.5" y="-5.75" font-family="Helvetica,sans-Serif" font-size="10.00">unordered_map</text>
</a>
</g>
</g>
<!-- Node1&#45;&gt;Node6 -->
<g id="edge5_Node000001_Node000006" class="edge">
<title>Node1&#45;&gt;Node6</title>
<g id="a_edge5_Node000001_Node000006"><a xlink:title=" ">
<path fill="none" stroke="#63b8ff" d="M377.99,-339.16C329.5,-335.61 265.3,-324.98 216.5,-295.5 185.41,-276.71 165.5,-267.95 165.5,-231.62 165.5,-231.62 165.5,-231.62 165.5,-119.12 165.5,-82.52 185.39,-72.83 217.5,-55.25 273.96,-24.33 460.12,-14.73 552.52,-11.83"/>
<polygon fill="#63b8ff" stroke="#63b8ff" points="552.44,-15.33 562.33,-11.54 552.23,-8.34 552.44,-15.33"/>
</a>
</g>
</g>
<!-- Node7 -->
<g id="Node000007" class="node">
<title>Node7</title>
<g id="a_Node000007"><a xlink:title=" ">
<polygon fill="#e0e0e0" stroke="#999999" points="1406.25,-74.5 1328.75,-74.5 1328.75,-55.25 1406.25,-55.25 1406.25,-74.5"/>
<text xml:space="preserve" text-anchor="middle" x="1367.5" y="-61" font-family="Helvetica,sans-Serif" font-size="10.00">unordered_set</text>
</a>
</g>
</g>
<!-- Node1&#45;&gt;Node7 -->
<g id="edge6_Node000001_Node000007" class="edge">
<title>Node1&#45;&gt;Node7</title>
<g id="a_edge6_Node000001_Node000007"><a xlink:title=" ">
<path fill="none" stroke="#63b8ff" d="M519.14,-339.05C732.13,-334.89 1353.5,-315.54 1353.5,-231.62 1353.5,-231.62 1353.5,-231.62 1353.5,-174.38 1353.5,-143.26 1359.23,-107.53 1363.36,-85.84"/>
<polygon fill="#63b8ff" stroke="#63b8ff" points="1366.74,-86.8 1365.26,-76.31 1359.87,-85.44 1366.74,-86.8"/>
</a>
</g>
</g>
<!-- Node8 -->
<g id="Node000008" class="node">
<title>Node8</title>
<g id="a_Node000008"><a xlink:href="_types_8hpp.html" target="_top" xlink:title=" ">
<polygon fill="white" stroke="#666666" points="1028,-74.5 967,-74.5 967,-55.25 1028,-55.25 1028,-74.5"/>
<text xml:space="preserve" text-anchor="middle" x="997.5" y="-61" font-family="Helvetica,sans-Serif" font-size="10.00">Types.hpp</text>
</a>
</g>
</g>
<!-- Node1&#45;&gt;Node8 -->
<g id="edge7_Node000001_Node000008" class="edge">
<title>Node1&#45;&gt;Node8</title>
<g id="a_edge7_Node000001_Node000008"><a xlink:title=" ">
<path fill="none" stroke="#63b8ff" d="M519.11,-340.69C676.74,-340.3 1049.74,-329.73 1129.5,-240.25 1168.16,-196.88 1156.62,-149.44 1113.5,-110.5 1092.76,-91.77 1063.32,-80.57 1039.29,-74.08"/>
<polygon fill="#63b8ff" stroke="#63b8ff" points="1040.36,-70.74 1029.81,-71.7 1038.66,-77.53 1040.36,-70.74"/>
</a>
</g>
</g>
<!-- Node17 -->
<g id="Node000017" class="node">
<title>Node17</title>
<g id="a_Node000017"><a xlink:href="_utils_8hpp.html" target="_top" xlink:title=" ">
<polygon fill="white" stroke="#666666" points="958,-295.5 903,-295.5 903,-276.25 958,-276.25 958,-295.5"/>
<text xml:space="preserve" text-anchor="middle" x="930.5" y="-282" font-family="Helvetica,sans-Serif" font-size="10.00">Utils.hpp</text>
</a>
</g>
</g>
<!-- Node1&#45;&gt;Node17 -->
<g id="edge18_Node000001_Node000017" class="edge">
<title>Node1&#45;&gt;Node17</title>
<g id="a_edge18_Node000001_Node000017"><a xlink:title=" ">
<path fill="none" stroke="#63b8ff" d="M519.1,-332.32C622.05,-320.95 809.94,-300.19 891.26,-291.21"/>
<polygon fill="#63b8ff" stroke="#63b8ff" points="891.63,-294.69 901.18,-290.11 890.86,-287.73 891.63,-294.69"/>
</a>
</g>
</g>
<!-- Node27 -->
<g id="Node000027" class="node">
<title>Node27</title>
<g id="a_Node000027"><a xlink:href="_base_i_o_8hpp.html" target="_top" xlink:title=" ">
<polygon fill="white" stroke="#666666" points="824.62,-129.75 746.38,-129.75 746.38,-110.5 824.62,-110.5 824.62,-129.75"/>
<text xml:space="preserve" text-anchor="middle" x="785.5" y="-116.25" font-family="Helvetica,sans-Serif" font-size="10.00">io/BaseIO.hpp</text>
</a>
</g>
</g>
<!-- Node1&#45;&gt;Node27 -->
<g id="edge67_Node000001_Node000027" class="edge">
<title>Node1&#45;&gt;Node27</title>
<g id="a_edge67_Node000001_Node000027"><a xlink:title=" ">
<path fill="none" stroke="#63b8ff" d="M451.66,-331.4C463.04,-301.48 505.12,-202.85 577.5,-165.75 627.28,-140.23 690.97,-129.29 734.68,-124.61"/>
<polygon fill="#63b8ff" stroke="#63b8ff" points="734.78,-128.11 744.39,-123.64 734.09,-121.15 734.78,-128.11"/>
</a>
</g>
</g>
<!-- Node33 -->
<g id="Node000033" class="node">
<title>Node33</title>
<g id="a_Node000033"><a xlink:href="_read_i_o_8hpp.html" target="_top" xlink:title=" ">
<polygon fill="white" stroke="#666666" points="471,-185 392,-185 392,-165.75 471,-165.75 471,-185"/>
<text xml:space="preserve" text-anchor="middle" x="431.5" y="-171.5" font-family="Helvetica,sans-Serif" font-size="10.00">io/ReadIO.hpp</text>
</a>
</g>
</g>
<!-- Node1&#45;&gt;Node33 -->
<g id="edge68_Node000001_Node000033" class="edge">
<title>Node1&#45;&gt;Node33</title>
<g id="a_edge68_Node000001_Node000033"><a xlink:title=" ">
<path fill="none" stroke="#63b8ff" d="M447.59,-331.32C444.96,-306 437.33,-232.5 433.6,-196.59"/>
<polygon fill="#63b8ff" stroke="#63b8ff" points="437.09,-196.31 432.57,-186.73 430.13,-197.04 437.09,-196.31"/>
</a>
</g>
</g>
<!-- Node8&#45;&gt;Node5 -->
<g id="edge11_Node000008_Node000005" class="edge">
<title>Node8&#45;&gt;Node5</title>
<g id="a_edge11_Node000008_Node000005"><a xlink:title=" ">
<path fill="none" stroke="#63b8ff" d="M1028.03,-57.24C1074.86,-47.06 1163.94,-27.7 1211.22,-17.42"/>
<polygon fill="#63b8ff" stroke="#63b8ff" points="1211.78,-20.88 1220.81,-15.34 1210.29,-14.04 1211.78,-20.88"/>
</a>
</g>
</g>
<!-- Node8&#45;&gt;Node6 -->
<g id="edge14_Node000008_Node000006" class="edge">
<title>Node8&#45;&gt;Node6</title>
<g id="a_edge14_Node000008_Node000006"><a xlink:title=" ">
<path fill="none" stroke="#63b8ff" d="M966.9,-56.81C964.07,-56.24 961.23,-55.71 958.5,-55.25 828.32,-33.18 791.62,-38.48 658.27,-19.58"/>
<polygon fill="#63b8ff" stroke="#63b8ff" points="659.11,-16.16 648.71,-18.21 658.11,-23.09 659.11,-16.16"/>
</a>
</g>
</g>
<!-- Node9 -->
<g id="Node000009" class="node">
<title>Node9</title>
<g id="a_Node000009"><a xlink:title=" ">
<polygon fill="#e0e0e0" stroke="#999999" points="1037.62,-19.25 989.38,-19.25 989.38,0 1037.62,0 1037.62,-19.25"/>
<text xml:space="preserve" text-anchor="middle" x="1013.5" y="-5.75" font-family="Helvetica,sans-Serif" font-size="10.00">cstddef</text>
</a>
</g>
</g>
<!-- Node8&#45;&gt;Node9 -->
<g id="edge8_Node000008_Node000009" class="edge">
<title>Node8&#45;&gt;Node9</title>
<g id="a_edge8_Node000008_Node000009"><a xlink:title=" ">
<path fill="none" stroke="#63b8ff" d="M1000.14,-55.08C1002.14,-48.42 1004.98,-38.99 1007.52,-30.53"/>
<polygon fill="#63b8ff" stroke="#63b8ff" points="1010.84,-31.64 1010.36,-21.06 1004.14,-29.63 1010.84,-31.64"/>
</a>
</g>
</g>
<!-- Node10 -->
<g id="Node000010" class="node">
<title>Node10</title>
<g id="a_Node000010"><a xlink:title=" ">
<polygon fill="#e0e0e0" stroke="#999999" points="914.12,-19.25 868.88,-19.25 868.88,0 914.12,0 914.12,-19.25"/>
<text xml:space="preserve" text-anchor="middle" x="891.5" y="-5.75" font-family="Helvetica,sans-Serif" font-size="10.00">cstdint</text>
</a>
</g>
</g>
<!-- Node8&#45;&gt;Node10 -->
<g id="edge9_Node000008_Node000010" class="edge">
<title>Node8&#45;&gt;Node10</title>
<g id="a_edge9_Node000008_Node000010"><a xlink:title=" ">
<path fill="none" stroke="#63b8ff" d="M979.52,-54.84C963.15,-46.62 938.71,-34.34 919.74,-24.81"/>
<polygon fill="#63b8ff" stroke="#63b8ff" points="921.43,-21.74 910.92,-20.38 918.29,-28 921.43,-21.74"/>
</a>
</g>
</g>
<!-- Node11 -->
<g id="Node000011" class="node">
<title>Node11</title>
<g id="a_Node000011"><a xlink:title=" ">
<polygon fill="#e0e0e0" stroke="#999999" points="1095.12,-19.25 1055.88,-19.25 1055.88,0 1095.12,0 1095.12,-19.25"/>
<text xml:space="preserve" text-anchor="middle" x="1075.5" y="-5.75" font-family="Helvetica,sans-Serif" font-size="10.00">limits</text>
</a>
</g>
</g>
<!-- Node8&#45;&gt;Node11 -->
<g id="edge10_Node000008_Node000011" class="edge">
<title>Node8&#45;&gt;Node11</title>
<g id="a_edge10_Node000008_Node000011"><a xlink:title=" ">
<path fill="none" stroke="#63b8ff" d="M1010.73,-54.84C1022.27,-46.96 1039.27,-35.36 1052.95,-26.02"/>
<polygon fill="#63b8ff" stroke="#63b8ff" points="1054.67,-29.08 1060.95,-20.56 1050.72,-23.3 1054.67,-29.08"/>
</a>
</g>
</g>
<!-- Node12 -->
<g id="Node000012" class="node">
<title>Node12</title>
<g id="a_Node000012"><a xlink:title=" ">
<polygon fill="#e0e0e0" stroke="#999999" points="1178.25,-19.25 1112.75,-19.25 1112.75,0 1178.25,0 1178.25,-19.25"/>
<text xml:space="preserve" text-anchor="middle" x="1145.5" y="-5.75" font-family="Helvetica,sans-Serif" font-size="10.00">string_view</text>
</a>
</g>
</g>
<!-- Node8&#45;&gt;Node12 -->
<g id="edge12_Node000008_Node000012" class="edge">
<title>Node8&#45;&gt;Node12</title>
<g id="a_edge12_Node000008_Node000012"><a xlink:title=" ">
<path fill="none" stroke="#63b8ff" d="M1022.61,-54.84C1046.53,-46.24 1082.78,-33.19 1109.72,-23.5"/>
<polygon fill="#63b8ff" stroke="#63b8ff" points="1110.62,-26.89 1118.85,-20.21 1108.25,-20.31 1110.62,-26.89"/>
</a>
</g>
</g>
<!-- Node13 -->
<g id="Node000013" class="node">
<title>Node13</title>
<g id="a_Node000013"><a xlink:title=" ">
<polygon fill="#e0e0e0" stroke="#999999" points="726.38,-19.25 664.62,-19.25 664.62,0 726.38,0 726.38,-19.25"/>
<text xml:space="preserve" text-anchor="middle" x="695.5" y="-5.75" font-family="Helvetica,sans-Serif" font-size="10.00">type_traits</text>
</a>
</g>
</g>
<!-- Node8&#45;&gt;Node13 -->
<g id="edge13_Node000008_Node000013" class="edge">
<title>Node8&#45;&gt;Node13</title>
<g id="a_edge13_Node000008_Node000013"><a xlink:title=" ">
<path fill="none" stroke="#63b8ff" d="M966.88,-56.93C964.05,-56.34 961.22,-55.77 958.5,-55.25 863.36,-37.07 836.06,-37.76 737.54,-19.54"/>
<polygon fill="#63b8ff" stroke="#63b8ff" points="738.44,-16.15 727.96,-17.75 737.15,-23.03 738.44,-16.15"/>
</a>
</g>
</g>
<!-- Node14 -->
<g id="Node000014" class="node">
<title>Node14</title>
<g id="a_Node000014"><a xlink:title=" ">
<polygon fill="#e0e0e0" stroke="#999999" points="971.12,-19.25 931.88,-19.25 931.88,0 971.12,0 971.12,-19.25"/>
<text xml:space="preserve" text-anchor="middle" x="951.5" y="-5.75" font-family="Helvetica,sans-Serif" font-size="10.00">utility</text>
</a>
</g>
</g>
<!-- Node8&#45;&gt;Node14 -->
<g id="edge15_Node000008_Node000014" class="edge">
<title>Node8&#45;&gt;Node14</title>
<g id="a_edge15_Node000008_Node000014"><a xlink:title=" ">
<path fill="none" stroke="#63b8ff" d="M989.9,-55.08C983.62,-47.8 974.49,-37.23 966.7,-28.23"/>
<polygon fill="#63b8ff" stroke="#63b8ff" points="969.44,-26.03 960.25,-20.75 964.14,-30.61 969.44,-26.03"/>
</a>
</g>
</g>
<!-- Node15 -->
<g id="Node000015" class="node">
<title>Node15</title>
<g id="a_Node000015"><a xlink:title=" ">
<polygon fill="#e0e0e0" stroke="#999999" points="790.12,-19.25 744.88,-19.25 744.88,0 790.12,0 790.12,-19.25"/>
<text xml:space="preserve" text-anchor="middle" x="767.5" y="-5.75" font-family="Helvetica,sans-Serif" font-size="10.00">variant</text>
</a>
</g>
</g>
<!-- Node8&#45;&gt;Node15 -->
<g id="edge16_Node000008_Node000015" class="edge">
<title>Node8&#45;&gt;Node15</title>
<g id="a_edge16_Node000008_Node000015"><a xlink:title=" ">
<path fill="none" stroke="#63b8ff" d="M966.82,-57.04C920.98,-46.8 836.86,-27.99 801.29,-19.56"/>
<polygon fill="#63b8ff" stroke="#63b8ff" points="802.56,-16.26 792.01,-17.31 800.91,-23.07 802.56,-16.26"/>
</a>
</g>
</g>
<!-- Node16 -->
<g id="Node000016" class="node">
<title>Node16</title>
<g id="a_Node000016"><a xlink:title=" ">
<polygon fill="#e0e0e0" stroke="#999999" points="851,-19.25 808,-19.25 808,0 851,0 851,-19.25"/>
<text xml:space="preserve" text-anchor="middle" x="829.5" y="-5.75" font-family="Helvetica,sans-Serif" font-size="10.00">vector</text>
</a>
</g>
</g>
<!-- Node8&#45;&gt;Node16 -->
<g id="edge17_Node000008_Node000016" class="edge">
<title>Node8&#45;&gt;Node16</title>
<g id="a_edge17_Node000008_Node000016"><a xlink:title=" ">
<path fill="none" stroke="#63b8ff" d="M969,-54.84C939.4,-45.46 893.16,-30.8 862.12,-20.96"/>
<polygon fill="#63b8ff" stroke="#63b8ff" points="863.47,-17.72 852.87,-18.03 861.35,-24.39 863.47,-17.72"/>
</a>
</g>
</g>
<!-- Node17&#45;&gt;Node5 -->
<g id="edge29_Node000017_Node000005" class="edge">
<title>Node17&#45;&gt;Node5</title>
<g id="a_edge29_Node000017_Node000005"><a xlink:title=" ">
<path fill="none" stroke="#63b8ff" d="M958.31,-282.75C1044.36,-275.44 1300.5,-247.67 1300.5,-176.38 1300.5,-176.38 1300.5,-176.38 1300.5,-119.12 1300.5,-83.54 1275.93,-48.31 1258.78,-28.06"/>
<polygon fill="#63b8ff" stroke="#63b8ff" points="1261.56,-25.92 1252.31,-20.75 1256.32,-30.56 1261.56,-25.92"/>
</a>
</g>
</g>
<!-- Node17&#45;&gt;Node8 -->
<g id="edge30_Node000017_Node000008" class="edge">
<title>Node17&#45;&gt;Node8</title>
<g id="a_edge30_Node000017_Node000008"><a xlink:title=" ">
<path fill="none" stroke="#63b8ff" d="M958.48,-282.04C1004.05,-276.78 1091.06,-263.85 1109.5,-240.25 1145.34,-194.37 1129.58,-154.54 1091.5,-110.5 1077.83,-94.7 1057.33,-84.07 1038.96,-77.16"/>
<polygon fill="#63b8ff" stroke="#63b8ff" points="1040.19,-73.88 1029.59,-73.91 1037.9,-80.49 1040.19,-73.88"/>
</a>
</g>
</g>
<!-- Node17&#45;&gt;Node10 -->
<g id="edge23_Node000017_Node000010" class="edge">
<title>Node17&#45;&gt;Node10</title>
<g id="a_edge23_Node000017_Node000010"><a xlink:title=" ">
<path fill="none" stroke="#63b8ff" d="M958.2,-282.44C1010.5,-277.33 1121.19,-263.98 1150.5,-240.25 1216.11,-187.13 1249.12,-118.75 1193.5,-55.25 1155.5,-11.87 999.09,-29.37 925.5,-19.26"/>
<polygon fill="#63b8ff" stroke="#63b8ff" points="926.37,-15.86 915.93,-17.64 925.2,-22.76 926.37,-15.86"/>
</a>
</g>
</g>
<!-- Node18 -->
<g id="Node000018" class="node">
<title>Node18</title>
<g id="a_Node000018"><a xlink:title=" ">
<polygon fill="#e0e0e0" stroke="#999999" points="1184.38,-74.5 1128.62,-74.5 1128.62,-55.25 1184.38,-55.25 1184.38,-74.5"/>
<text xml:space="preserve" text-anchor="middle" x="1156.5" y="-61" font-family="Helvetica,sans-Serif" font-size="10.00">algorithm</text>
</a>
</g>
</g>
<!-- Node17&#45;&gt;Node18 -->
<g id="edge19_Node000017_Node000018" class="edge">
<title>Node17&#45;&gt;Node18</title>
<g id="a_edge19_Node000017_Node000018"><a xlink:title=" ">
<path fill="none" stroke="#63b8ff" d="M958.25,-282.3C1007.14,-277.2 1105.73,-264.18 1129.5,-240.25 1170.83,-198.64 1165.45,-121.76 1160.1,-85.62"/>
<polygon fill="#63b8ff" stroke="#63b8ff" points="1163.62,-85.45 1158.54,-76.15 1156.71,-86.59 1163.62,-85.45"/>
</a>
</g>
</g>
<!-- Node19 -->
<g id="Node000019" class="node">
<title>Node19</title>
<g id="a_Node000019"><a xlink:title=" ">
<polygon fill="#e0e0e0" stroke="#999999" points="1082.38,-129.75 1044.62,-129.75 1044.62,-110.5 1082.38,-110.5 1082.38,-129.75"/>
<text xml:space="preserve" text-anchor="middle" x="1063.5" y="-116.25" font-family="Helvetica,sans-Serif" font-size="10.00">array</text>
</a>
</g>
</g>
<!-- Node17&#45;&gt;Node19 -->
<g id="edge20_Node000017_Node000019" class="edge">
<title>Node17&#45;&gt;Node19</title>
<g id="a_edge20_Node000017_Node000019"><a xlink:title=" ">
<path fill="none" stroke="#63b8ff" d="M958.39,-281.21C1000.07,-275.1 1075.43,-261.37 1091.5,-240.25 1114.23,-210.36 1092.23,-164.96 1076.42,-139.71"/>
<polygon fill="#63b8ff" stroke="#63b8ff" points="1079.44,-137.92 1071.01,-131.49 1073.59,-141.77 1079.44,-137.92"/>
</a>
</g>
</g>
<!-- Node20 -->
<g id="Node000020" class="node">
<title>Node20</title>
<g id="a_Node000020"><a xlink:title=" ">
<polygon fill="#e0e0e0" stroke="#999999" points="701.12,-240.25 655.88,-240.25 655.88,-221 701.12,-221 701.12,-240.25"/>
<text xml:space="preserve" text-anchor="middle" x="678.5" y="-226.75" font-family="Helvetica,sans-Serif" font-size="10.00">chrono</text>
</a>
</g>
</g>
<!-- Node17&#45;&gt;Node20 -->
<g id="edge21_Node000017_Node000020" class="edge">
<title>Node17&#45;&gt;Node20</title>
<g id="a_edge21_Node000017_Node000020"><a xlink:title=" ">
<path fill="none" stroke="#63b8ff" d="M902.59,-279.8C862.67,-272.41 786.71,-257.89 712.47,-240.59"/>
<polygon fill="#63b8ff" stroke="#63b8ff" points="713.54,-237.25 703,-238.36 711.93,-244.06 713.54,-237.25"/>
</a>
</g>
</g>
<!-- Node21 -->
<g id="Node000021" class="node">
<title>Node21</title>
<g id="a_Node000021"><a xlink:title=" ">
<polygon fill="#e0e0e0" stroke="#999999" points="762,-240.25 719,-240.25 719,-221 762,-221 762,-240.25"/>
<text xml:space="preserve" text-anchor="middle" x="740.5" y="-226.75" font-family="Helvetica,sans-Serif" font-size="10.00">cmath</text>
</a>
</g>
</g>
<!-- Node17&#45;&gt;Node21 -->
<g id="edge22_Node000017_Node000021" class="edge">
<title>Node17&#45;&gt;Node21</title>
<g id="a_edge22_Node000017_Node000021"><a xlink:title=" ">
<path fill="none" stroke="#63b8ff" d="M902.87,-277.13C868.51,-267.5 809.92,-251.08 773.31,-240.82"/>
<polygon fill="#63b8ff" stroke="#63b8ff" points="774.28,-237.46 763.71,-238.13 772.4,-244.2 774.28,-237.46"/>
</a>
</g>
</g>
<!-- Node22 -->
<g id="Node000022" class="node">
<title>Node22</title>
<g id="a_Node000022"><a xlink:title=" ">
<polygon fill="#e0e0e0" stroke="#999999" points="820.5,-240.25 780.5,-240.25 780.5,-221 820.5,-221 820.5,-240.25"/>
<text xml:space="preserve" text-anchor="middle" x="800.5" y="-226.75" font-family="Helvetica,sans-Serif" font-size="10.00">ctime</text>
</a>
</g>
</g>
<!-- Node17&#45;&gt;Node22 -->
<g id="edge24_Node000017_Node000022" class="edge">
<title>Node17&#45;&gt;Node22</title>
<g id="a_edge24_Node000017_Node000022"><a xlink:title=" ">
<path fill="none" stroke="#63b8ff" d="M908.45,-275.84C887.31,-267.18 855.21,-254.03 831.5,-244.32"/>
<polygon fill="#63b8ff" stroke="#63b8ff" points="832.93,-241.12 822.34,-240.57 830.27,-247.6 832.93,-241.12"/>
</a>
</g>
</g>
<!-- Node23 -->
<g id="Node000023" class="node">
<title>Node23</title>
<g id="a_Node000023"><a xlink:title=" ">
<polygon fill="#e0e0e0" stroke="#999999" points="888.38,-240.25 838.62,-240.25 838.62,-221 888.38,-221 888.38,-240.25"/>
<text xml:space="preserve" text-anchor="middle" x="863.5" y="-226.75" font-family="Helvetica,sans-Serif" font-size="10.00">iomanip</text>
</a>
</g>
</g>
<!-- Node17&#45;&gt;Node23 -->
<g id="edge25_Node000017_Node000023" class="edge">
<title>Node17&#45;&gt;Node23</title>
<g id="a_edge25_Node000017_Node000023"><a xlink:title=" ">
<path fill="none" stroke="#63b8ff" d="M919.13,-275.84C909.45,-268.15 895.3,-256.9 883.69,-247.68"/>
<polygon fill="#63b8ff" stroke="#63b8ff" points="885.89,-244.95 875.88,-241.47 881.53,-250.43 885.89,-244.95"/>
</a>
</g>
</g>
<!-- Node24 -->
<g id="Node000024" class="node">
<title>Node24</title>
<g id="a_Node000024"><a xlink:title=" ">
<polygon fill="#e0e0e0" stroke="#999999" points="954.62,-240.25 906.38,-240.25 906.38,-221 954.62,-221 954.62,-240.25"/>
<text xml:space="preserve" text-anchor="middle" x="930.5" y="-226.75" font-family="Helvetica,sans-Serif" font-size="10.00">random</text>
</a>
</g>
</g>
<!-- Node17&#45;&gt;Node24 -->
<g id="edge26_Node000017_Node000024" class="edge">
<title>Node17&#45;&gt;Node24</title>
<g id="a_edge26_Node000017_Node000024"><a xlink:title=" ">
<path fill="none" stroke="#63b8ff" d="M930.5,-276.08C930.5,-269.57 930.5,-260.42 930.5,-252.12"/>
<polygon fill="#63b8ff" stroke="#63b8ff" points="934,-252.12 930.5,-242.12 927,-252.12 934,-252.12"/>
</a>
</g>
</g>
<!-- Node25 -->
<g id="Node000025" class="node">
<title>Node25</title>
<g id="a_Node000025"><a xlink:title=" ">
<polygon fill="#e0e0e0" stroke="#999999" points="1012.5,-240.25 972.5,-240.25 972.5,-221 1012.5,-221 1012.5,-240.25"/>
<text xml:space="preserve" text-anchor="middle" x="992.5" y="-226.75" font-family="Helvetica,sans-Serif" font-size="10.00">regex</text>
</a>
</g>
</g>
<!-- Node17&#45;&gt;Node25 -->
<g id="edge27_Node000017_Node000025" class="edge">
<title>Node17&#45;&gt;Node25</title>
<g id="a_edge27_Node000017_Node000025"><a xlink:title=" ">
<path fill="none" stroke="#63b8ff" d="M941.02,-275.84C949.89,-268.22 962.81,-257.12 973.49,-247.95"/>
<polygon fill="#63b8ff" stroke="#63b8ff" points="975.68,-250.68 980.99,-241.51 971.12,-245.37 975.68,-250.68"/>
</a>
</g>
</g>
<!-- Node26 -->
<g id="Node000026" class="node">
<title>Node26</title>
<g id="a_Node000026"><a xlink:title=" ">
<polygon fill="#e0e0e0" stroke="#999999" points="1082.12,-240.25 1030.88,-240.25 1030.88,-221 1082.12,-221 1082.12,-240.25"/>
<text xml:space="preserve" text-anchor="middle" x="1056.5" y="-226.75" font-family="Helvetica,sans-Serif" font-size="10.00">sstream</text>
</a>
</g>
</g>
<!-- Node17&#45;&gt;Node26 -->
<g id="edge28_Node000017_Node000026" class="edge">
<title>Node17&#45;&gt;Node26</title>
<g id="a_edge28_Node000017_Node000026"><a xlink:title=" ">
<path fill="none" stroke="#63b8ff" d="M951.87,-275.84C971.79,-267.43 1001.74,-254.77 1024.5,-245.15"/>
<polygon fill="#63b8ff" stroke="#63b8ff" points="1025.78,-248.41 1033.63,-241.29 1023.05,-241.96 1025.78,-248.41"/>
</a>
</g>
</g>
<!-- Node17&#45;&gt;Node27 -->
<g id="edge31_Node000017_Node000027" class="edge">
<title>Node17&#45;&gt;Node27</title>
<g id="a_edge31_Node000017_Node000027"><a xlink:title=" ">
<path fill="none" stroke="#63b8ff" d="M902.73,-283.92C815.27,-280.65 549.76,-268.44 524.5,-240.25 492.6,-204.65 655.23,-155.47 738.64,-133.09"/>
<polygon fill="#63b8ff" stroke="#63b8ff" points="739.38,-136.51 748.15,-130.56 737.59,-129.74 739.38,-136.51"/>
</a>
</g>
</g>
<!-- Node31 -->
<g id="Node000031" class="node">
<title>Node31</title>
<g id="a_Node000031"><a xlink:href="_h_d_f5_i_o_8hpp.html" target="_top" xlink:title=" ">
<polygon fill="white" stroke="#666666" points="637.38,-240.25 533.62,-240.25 533.62,-221 637.38,-221 637.38,-240.25"/>
<text xml:space="preserve" text-anchor="middle" x="585.5" y="-226.75" font-family="Helvetica,sans-Serif" font-size="10.00">io/hdf5/HDF5IO.hpp</text>
</a>
</g>
</g>
<!-- Node17&#45;&gt;Node31 -->
<g id="edge44_Node000017_Node000031" class="edge">
<title>Node17&#45;&gt;Node31</title>
<g id="a_edge44_Node000017_Node000031"><a xlink:title=" ">
<path fill="none" stroke="#63b8ff" d="M902.56,-280.56C847.71,-272.1 724.7,-253.11 649.04,-241.43"/>
<polygon fill="#63b8ff" stroke="#63b8ff" points="649.69,-237.99 639.28,-239.93 648.62,-244.91 649.69,-237.99"/>
</a>
</g>
</g>
<!-- Node27&#45;&gt;Node4 -->
<g id="edge36_Node000027_Node000004" class="edge">
<title>Node27&#45;&gt;Node4</title>
<g id="a_edge36_Node000027_Node000004"><a xlink:title=" ">
<path fill="none" stroke="#63b8ff" d="M746.31,-115.21C647.07,-105.29 386.88,-79.3 289.76,-69.6"/>
<polygon fill="#63b8ff" stroke="#63b8ff" points="290.29,-66.13 279.99,-68.62 289.6,-73.1 290.29,-66.13"/>
</a>
</g>
</g>
<!-- Node27&#45;&gt;Node5 -->
<g id="edge37_Node000027_Node000005" class="edge">
<title>Node27&#45;&gt;Node5</title>
<g id="a_edge37_Node000027_Node000005"><a xlink:title=" ">
<path fill="none" stroke="#63b8ff" d="M825.06,-115.16C875.29,-109.45 964.24,-97.01 1037.5,-74.5 1057.52,-68.35 1060.79,-62.33 1080.5,-55.25 1125,-39.26 1178.1,-25.63 1211.06,-17.78"/>
<polygon fill="#63b8ff" stroke="#63b8ff" points="1211.83,-21.19 1220.77,-15.5 1210.23,-14.38 1211.83,-21.19"/>
</a>
</g>
</g>
<!-- Node27&#45;&gt;Node6 -->
<g id="edge39_Node000027_Node000006" class="edge">
<title>Node27&#45;&gt;Node6</title>
<g id="a_edge39_Node000027_Node000006"><a xlink:title=" ">
<path fill="none" stroke="#63b8ff" d="M780.73,-110.38C772.84,-96.72 755.83,-70.32 734.5,-55.25 711.84,-39.24 682.93,-28.54 658.22,-21.65"/>
<polygon fill="#63b8ff" stroke="#63b8ff" points="659.23,-18.29 648.67,-19.12 657.44,-25.06 659.23,-18.29"/>
</a>
</g>
</g>
<!-- Node27&#45;&gt;Node7 -->
<g id="edge40_Node000027_Node000007" class="edge">
<title>Node27&#45;&gt;Node7</title>
<g id="a_edge40_Node000027_Node000007"><a xlink:title=" ">
<path fill="none" stroke="#63b8ff" d="M825.05,-115.51C927.82,-106.1 1203.24,-80.9 1317.13,-70.48"/>
<polygon fill="#63b8ff" stroke="#63b8ff" points="1317.14,-74 1326.78,-69.6 1316.5,-67.03 1317.14,-74"/>
</a>
</g>
</g>
<!-- Node27&#45;&gt;Node8 -->
<g id="edge43_Node000027_Node000008" class="edge">
<title>Node27&#45;&gt;Node8</title>
<g id="a_edge43_Node000027_Node000008"><a xlink:title=" ">
<path fill="none" stroke="#63b8ff" d="M821.46,-110.09C858.56,-100.77 916.36,-86.25 955.53,-76.42"/>
<polygon fill="#63b8ff" stroke="#63b8ff" points="956.23,-79.85 965.07,-74.02 954.52,-73.06 956.23,-79.85"/>
</a>
</g>
</g>
<!-- Node27&#45;&gt;Node10 -->
<g id="edge34_Node000027_Node000010" class="edge">
<title>Node27&#45;&gt;Node10</title>
<g id="a_edge34_Node000027_Node000010"><a xlink:title=" ">
<path fill="none" stroke="#63b8ff" d="M794.17,-110.25C811.8,-92.21 852.06,-51 874.89,-27.63"/>
<polygon fill="#63b8ff" stroke="#63b8ff" points="877.16,-30.31 881.65,-20.71 872.16,-25.42 877.16,-30.31"/>
</a>
</g>
</g>
<!-- Node27&#45;&gt;Node15 -->
<g id="edge41_Node000027_Node000015" class="edge">
<title>Node27&#45;&gt;Node15</title>
<g id="a_edge41_Node000027_Node000015"><a xlink:title=" ">
<path fill="none" stroke="#63b8ff" d="M784.03,-110.25C781.17,-93 774.79,-54.58 770.85,-30.81"/>
<polygon fill="#63b8ff" stroke="#63b8ff" points="774.33,-30.41 769.24,-21.12 767.42,-31.56 774.33,-30.41"/>
</a>
</g>
</g>
<!-- Node27&#45;&gt;Node16 -->
<g id="edge42_Node000027_Node000016" class="edge">
<title>Node27&#45;&gt;Node16</title>
<g id="a_edge42_Node000027_Node000016"><a xlink:title=" ">
<path fill="none" stroke="#63b8ff" d="M789.1,-110.25C796.16,-92.84 811.96,-53.87 821.58,-30.16"/>
<polygon fill="#63b8ff" stroke="#63b8ff" points="824.77,-31.61 825.28,-21.03 818.28,-28.98 824.77,-31.61"/>
</a>
</g>
</g>
<!-- Node27&#45;&gt;Node18 -->
<g id="edge32_Node000027_Node000018" class="edge">
<title>Node27&#45;&gt;Node18</title>
<g id="a_edge32_Node000027_Node000018"><a xlink:title=" ">
<path fill="none" stroke="#63b8ff" d="M824.85,-113.48C896.22,-103.23 1046.19,-81.71 1117.38,-71.49"/>
<polygon fill="#63b8ff" stroke="#63b8ff" points="1117.61,-74.99 1127.01,-70.11 1116.62,-68.06 1117.61,-74.99"/>
</a>
</g>
</g>
<!-- Node28 -->
<g id="Node000028" class="node">
<title>Node28</title>
<g id="a_Node000028"><a xlink:title=" ">
<polygon fill="#e0e0e0" stroke="#999999" points="611.38,-74.5 579.62,-74.5 579.62,-55.25 611.38,-55.25 611.38,-74.5"/>
<text xml:space="preserve" text-anchor="middle" x="595.5" y="-61" font-family="Helvetica,sans-Serif" font-size="10.00">any</text>
</a>
</g>
</g>
<!-- Node27&#45;&gt;Node28 -->
<g id="edge33_Node000027_Node000028" class="edge">
<title>Node27&#45;&gt;Node28</title>
<g id="a_edge33_Node000027_Node000028"><a xlink:title=" ">
<path fill="none" stroke="#63b8ff" d="M753.27,-110.09C716.52,-99.79 657.1,-83.14 622.62,-73.48"/>
<polygon fill="#63b8ff" stroke="#63b8ff" points="623.58,-70.11 613.01,-70.78 621.69,-76.85 623.58,-70.11"/>
</a>
</g>
</g>
<!-- Node29 -->
<g id="Node000029" class="node">
<title>Node29</title>
<g id="a_Node000029"><a xlink:title=" ">
<polygon fill="#e0e0e0" stroke="#999999" points="949.25,-74.5 895.75,-74.5 895.75,-55.25 949.25,-55.25 949.25,-74.5"/>
<text xml:space="preserve" text-anchor="middle" x="922.5" y="-61" font-family="Helvetica,sans-Serif" font-size="10.00">iostream</text>
</a>
</g>
</g>
<!-- Node27&#45;&gt;Node29 -->
<g id="edge35_Node000027_Node000029" class="edge">
<title>Node27&#45;&gt;Node29</title>
<g id="a_edge35_Node000027_Node000029"><a xlink:title=" ">
<path fill="none" stroke="#63b8ff" d="M808.74,-110.09C830.69,-101.56 863.85,-88.67 888.71,-79.01"/>
<polygon fill="#63b8ff" stroke="#63b8ff" points="889.68,-82.39 897.74,-75.5 887.15,-75.86 889.68,-82.39"/>
</a>
</g>
</g>
<!-- Node30 -->
<g id="Node000030" class="node">
<title>Node30</title>
<g id="a_Node000030"><a xlink:title=" ">
<polygon fill="#e0e0e0" stroke="#999999" points="725.5,-74.5 667.5,-74.5 667.5,-55.25 725.5,-55.25 725.5,-74.5"/>
<text xml:space="preserve" text-anchor="middle" x="696.5" y="-61" font-family="Helvetica,sans-Serif" font-size="10.00">typeindex</text>
</a>
</g>
</g>
<!-- Node27&#45;&gt;Node30 -->
<g id="edge38_Node000027_Node000030" class="edge">
<title>Node27&#45;&gt;Node30</title>
<g id="a_edge38_Node000027_Node000030"><a xlink:title=" ">
<path fill="none" stroke="#63b8ff" d="M770.4,-110.09C756.98,-102.06 737.09,-90.16 721.33,-80.73"/>
<polygon fill="#63b8ff" stroke="#63b8ff" points="723.35,-77.86 712.97,-75.73 719.75,-83.87 723.35,-77.86"/>
</a>
</g>
</g>
<!-- Node31&#45;&gt;Node4 -->
<g id="edge46_Node000031_Node000004" class="edge">
<title>Node31&#45;&gt;Node4</title>
<g id="a_edge46_Node000031_Node000004"><a xlink:title=" ">
<path fill="none" stroke="#63b8ff" d="M533.4,-227.67C464.96,-222.19 345.72,-202.1 279.5,-129.75 268.17,-117.37 261.18,-99.55 257.15,-85.87"/>
<polygon fill="#63b8ff" stroke="#63b8ff" points="260.55,-85.01 254.64,-76.21 253.77,-86.77 260.55,-85.01"/>
</a>
</g>
</g>
<!-- Node31&#45;&gt;Node5 -->
<g id="edge47_Node000031_Node000005" class="edge">
<title>Node31&#45;&gt;Node5</title>
<g id="a_edge47_Node000031_Node000005"><a xlink:title=" ">
<path fill="none" stroke="#63b8ff" d="M637.72,-222.09C640.69,-221.71 643.63,-221.34 646.5,-221 811,-201.4 860.71,-238.48 1017.5,-185 1104.92,-155.19 1125.2,-136.68 1193.5,-74.5 1208.32,-61 1221.92,-42.58 1231.01,-28.99"/>
<polygon fill="#63b8ff" stroke="#63b8ff" points="1233.71,-31.26 1236.2,-20.96 1227.83,-27.45 1233.71,-31.26"/>
</a>
</g>
</g>
<!-- Node31&#45;&gt;Node8 -->
<g id="edge49_Node000031_Node000008" class="edge">
<title>Node31&#45;&gt;Node8</title>
<g id="a_edge49_Node000031_Node000008"><a xlink:title=" ">
<path fill="none" stroke="#63b8ff" d="M637.73,-222.11C640.69,-221.72 643.63,-221.35 646.5,-221 685.42,-216.25 971.23,-214.1 997.5,-185 1021.91,-157.96 1012.73,-111.75 1004.63,-85.54"/>
<polygon fill="#63b8ff" stroke="#63b8ff" points="1007.99,-84.54 1001.48,-76.18 1001.35,-86.78 1007.99,-84.54"/>
</a>
</g>
</g>
<!-- Node31&#45;&gt;Node27 -->
<g id="edge50_Node000031_Node000027" class="edge">
<title>Node31&#45;&gt;Node27</title>
<g id="a_edge50_Node000031_Node000027"><a xlink:title=" ">
<path fill="none" stroke="#63b8ff" d="M602.21,-220.56C636.84,-201.77 716.72,-158.44 758.66,-135.68"/>
<polygon fill="#63b8ff" stroke="#63b8ff" points="760.25,-138.81 767.37,-130.96 756.91,-132.65 760.25,-138.81"/>
</a>
</g>
</g>
<!-- Node31&#45;&gt;Node29 -->
<g id="edge45_Node000031_Node000029" class="edge">
<title>Node31&#45;&gt;Node29</title>
<g id="a_edge45_Node000031_Node000029"><a xlink:title=" ">
<path fill="none" stroke="#63b8ff" d="M631.12,-220.52C689.09,-207.41 790.48,-179.17 864.5,-129.75 882.95,-117.44 899.46,-98 910.1,-83.8"/>
<polygon fill="#63b8ff" stroke="#63b8ff" points="912.87,-85.95 915.87,-75.79 907.19,-81.85 912.87,-85.95"/>
</a>
</g>
</g>
<!-- Node32 -->
<g id="Node000032" class="node">
<title>Node32</title>
<g id="a_Node000032"><a xlink:title=" ">
<polygon fill="#e0e0e0" stroke="#999999" points="988.5,-185 918.5,-185 918.5,-165.75 988.5,-165.75 988.5,-185"/>
<text xml:space="preserve" text-anchor="middle" x="953.5" y="-171.5" font-family="Helvetica,sans-Serif" font-size="10.00">H5Opublic.h</text>
</a>
</g>
</g>
<!-- Node31&#45;&gt;Node32 -->
<g id="edge48_Node000031_Node000032" class="edge">
<title>Node31&#45;&gt;Node32</title>
<g id="a_edge48_Node000031_Node000032"><a xlink:title=" ">
<path fill="none" stroke="#63b8ff" d="M637.74,-222.23C640.71,-221.81 643.64,-221.4 646.5,-221 761.15,-204.9 790.14,-203.04 904.5,-185 905.33,-184.87 906.17,-184.74 907.02,-184.6"/>
<polygon fill="#63b8ff" stroke="#63b8ff" points="907.41,-188.08 916.7,-182.99 906.26,-181.18 907.41,-188.08"/>
</a>
</g>
</g>
<!-- Node31&#45;&gt;Node33 -->
<g id="edge51_Node000031_Node000033" class="edge">
<title>Node31&#45;&gt;Node33</title>
<g id="a_edge51_Node000031_Node000033"><a xlink:title=" ">
<path fill="none" stroke="#63b8ff" d="M559.38,-220.59C534.38,-211.95 496.42,-198.82 468.35,-189.12"/>
<polygon fill="#63b8ff" stroke="#63b8ff" points="469.78,-185.91 459.18,-185.95 467.49,-192.52 469.78,-185.91"/>
</a>
</g>
</g>
<!-- Node33&#45;&gt;Node4 -->
<g id="edge57_Node000033_Node000004" class="edge">
<title>Node33&#45;&gt;Node4</title>
<g id="a_edge57_Node000033_Node000004"><a xlink:title=" ">
<path fill="none" stroke="#63b8ff" d="M391.59,-166.56C364.87,-159.94 329.91,-148.45 303.5,-129.75 286.52,-117.72 272.26,-98.52 263.18,-84.31"/>
<polygon fill="#63b8ff" stroke="#63b8ff" points="266.25,-82.63 258.06,-75.9 260.27,-86.27 266.25,-82.63"/>
</a>
</g>
</g>
<!-- Node33&#45;&gt;Node5 -->
<g id="edge60_Node000033_Node000005" class="edge">
<title>Node33&#45;&gt;Node5</title>
<g id="a_edge60_Node000033_Node000005"><a xlink:title=" ">
<path fill="none" stroke="#63b8ff" d="M471.41,-173.55C553.26,-171.22 745.73,-162.43 903.5,-129.75 981.29,-113.64 999.02,-102.14 1073.5,-74.5 1094.28,-66.79 1098.85,-63.31 1119.5,-55.25 1150.7,-43.07 1186.75,-30.12 1211.73,-21.33"/>
<polygon fill="#63b8ff" stroke="#63b8ff" points="1212.66,-24.71 1220.93,-18.1 1210.34,-18.1 1212.66,-24.71"/>
</a>
</g>
</g>
<!-- Node33&#45;&gt;Node8 -->
<g id="edge66_Node000033_Node000008" class="edge">
<title>Node33&#45;&gt;Node8</title>
<g id="a_edge66_Node000033_Node000008"><a xlink:title=" ">
<path fill="none" stroke="#63b8ff" d="M471.46,-174.8C548.86,-174.64 723.95,-169.44 864.5,-129.75 904.58,-118.43 947.4,-95.72 973.31,-80.66"/>
<polygon fill="#63b8ff" stroke="#63b8ff" points="974.88,-83.8 981.71,-75.69 971.32,-77.77 974.88,-83.8"/>
</a>
</g>
</g>
<!-- Node33&#45;&gt;Node10 -->
<g id="edge55_Node000033_Node000010" class="edge">
<title>Node33&#45;&gt;Node10</title>
<g id="a_edge55_Node000033_Node000010"><a xlink:title=" ">
<path fill="none" stroke="#63b8ff" d="M471.46,-167.8C540.29,-156.37 674.2,-133.71 677.5,-129.75 699.4,-103.52 636.56,-81.45 658.5,-55.25 685.89,-22.55 799.92,-28.39 857.49,-19.37"/>
<polygon fill="#63b8ff" stroke="#63b8ff" points="857.88,-22.86 867.05,-17.56 856.58,-15.98 857.88,-22.86"/>
</a>
</g>
</g>
<!-- Node33&#45;&gt;Node13 -->
<g id="edge61_Node000033_Node000013" class="edge">
<title>Node33&#45;&gt;Node13</title>
<g id="a_edge61_Node000033_Node000013"><a xlink:title=" ">
<path fill="none" stroke="#63b8ff" d="M392.56,-165.36C373.68,-158.81 352.72,-147.83 341.5,-129.75 324.05,-101.61 319.46,-79.96 341.5,-55.25 386.15,-5.19 568.72,-28.33 653.29,-19.14"/>
<polygon fill="#63b8ff" stroke="#63b8ff" points="653.61,-22.62 663.05,-17.82 652.67,-15.69 653.61,-22.62"/>
</a>
</g>
</g>
<!-- Node33&#45;&gt;Node15 -->
<g id="edge63_Node000033_Node000015" class="edge">
<title>Node33&#45;&gt;Node15</title>
<g id="a_edge63_Node000033_Node000015"><a xlink:title=" ">
<path fill="none" stroke="#63b8ff" d="M423.53,-165.51C412.94,-152.59 396.82,-128.21 408.5,-110.5 489.63,12.5 583.78,-49.33 733.6,-19.39"/>
<polygon fill="#63b8ff" stroke="#63b8ff" points="733.95,-22.9 743,-17.39 732.49,-16.05 733.95,-22.9"/>
</a>
</g>
</g>
<!-- Node33&#45;&gt;Node16 -->
<g id="edge64_Node000033_Node000016" class="edge">
<title>Node33&#45;&gt;Node16</title>
<g id="a_edge64_Node000033_Node000016"><a xlink:title=" ">
<path fill="none" stroke="#63b8ff" d="M471.3,-168C535.51,-157.52 655.45,-137.09 661.5,-129.75 694.75,-89.42 536.53,-94.98 570.5,-55.25 602.02,-18.39 732.57,-28.9 796.5,-19.3"/>
<polygon fill="#63b8ff" stroke="#63b8ff" points="796.93,-22.78 806.14,-17.53 795.67,-15.89 796.93,-22.78"/>
</a>
</g>
</g>
<!-- Node33&#45;&gt;Node19 -->
<g id="edge53_Node000033_Node000019" class="edge">
<title>Node33&#45;&gt;Node19</title>
<g id="a_edge53_Node000033_Node000019"><a xlink:title=" ">
<path fill="none" stroke="#63b8ff" d="M471.34,-171.78C563.28,-165.65 797.34,-149.36 992.5,-129.75 1005.79,-128.41 1020.46,-126.68 1032.99,-125.11"/>
<polygon fill="#63b8ff" stroke="#63b8ff" points="1033.26,-128.61 1042.74,-123.87 1032.38,-121.66 1033.26,-128.61"/>
</a>
</g>
</g>
<!-- Node33&#45;&gt;Node27 -->
<g id="edge65_Node000033_Node000027" class="edge">
<title>Node33&#45;&gt;Node27</title>
<g id="a_edge65_Node000033_Node000027"><a xlink:title=" ">
<path fill="none" stroke="#63b8ff" d="M471.3,-167.95C476.08,-167.2 480.9,-166.45 485.5,-165.75 595.17,-149 622.86,-146.66 732.5,-129.75 733.33,-129.62 734.17,-129.49 735.01,-129.36"/>
<polygon fill="#63b8ff" stroke="#63b8ff" points="735.32,-132.86 744.65,-127.84 734.23,-125.94 735.32,-132.86"/>
</a>
</g>
</g>
<!-- Node33&#45;&gt;Node28 -->
<g id="edge52_Node000033_Node000028" class="edge">
<title>Node33&#45;&gt;Node28</title>
<g id="a_edge52_Node000033_Node000028"><a xlink:title=" ">
<path fill="none" stroke="#63b8ff" d="M425.48,-165.53C417.23,-152.2 404.79,-126.79 417.5,-110.5 435.86,-86.97 522.66,-73.98 567.91,-68.71"/>
<polygon fill="#63b8ff" stroke="#63b8ff" points="568.16,-72.2 577.72,-67.62 567.39,-65.24 568.16,-72.2"/>
</a>
</g>
</g>
<!-- Node33&#45;&gt;Node29 -->
<g id="edge56_Node000033_Node000029" class="edge">
<title>Node33&#45;&gt;Node29</title>
<g id="a_edge56_Node000033_Node000029"><a xlink:title=" ">
<path fill="none" stroke="#63b8ff" d="M471.38,-172.52C559.46,-168 767.94,-154.92 833.5,-129.75 861.37,-119.05 888.51,-97.47 905.35,-82.36"/>
<polygon fill="#63b8ff" stroke="#63b8ff" points="907.51,-85.13 912.47,-75.77 902.75,-80 907.51,-85.13"/>
</a>
</g>
</g>
<!-- Node33&#45;&gt;Node30 -->
<g id="edge62_Node000033_Node000030" class="edge">
<title>Node33&#45;&gt;Node30</title>
<g id="a_edge62_Node000033_Node000030"><a xlink:title=" ">
<path fill="none" stroke="#63b8ff" d="M431.4,-165.43C431.77,-151.49 434.64,-124.71 450.5,-110.5 465.63,-96.94 590.25,-79.34 656.09,-70.87"/>
<polygon fill="#63b8ff" stroke="#63b8ff" points="656.29,-74.37 665.77,-69.63 655.41,-67.43 656.29,-74.37"/>
</a>
</g>
</g>
<!-- Node34 -->
<g id="Node000034" class="node">
<title>Node34</title>
<g id="a_Node000034"><a xlink:title=" ">
<polygon fill="#e0e0e0" stroke="#999999" points="507.62,-129.75 459.38,-129.75 459.38,-110.5 507.62,-110.5 507.62,-129.75"/>
<text xml:space="preserve" text-anchor="middle" x="483.5" y="-116.25" font-family="Helvetica,sans-Serif" font-size="10.00">cassert</text>
</a>
</g>
</g>
<!-- Node33&#45;&gt;Node34 -->
<g id="edge54_Node000033_Node000034" class="edge">
<title>Node33&#45;&gt;Node34</title>
<g id="a_edge54_Node000033_Node000034"><a xlink:title=" ">
<path fill="none" stroke="#63b8ff" d="M440.09,-165.58C447.34,-158.15 457.95,-147.29 466.87,-138.16"/>
<polygon fill="#63b8ff" stroke="#63b8ff" points="469.19,-140.79 473.67,-131.19 464.18,-135.9 469.19,-140.79"/>
</a>
</g>
</g>
<!-- Node35 -->
<g id="Node000035" class="node">
<title>Node35</title>
<g id="a_Node000035"><a xlink:title=" ">
<polygon fill="#e0e0e0" stroke="#999999" points="575.75,-129.75 525.25,-129.75 525.25,-110.5 575.75,-110.5 575.75,-129.75"/>
<text xml:space="preserve" text-anchor="middle" x="550.5" y="-116.25" font-family="Helvetica,sans-Serif" font-size="10.00">numeric</text>
</a>
</g>
</g>
<!-- Node33&#45;&gt;Node35 -->
<g id="edge58_Node000033_Node000035" class="edge">
<title>Node33&#45;&gt;Node35</title>
<g id="a_edge58_Node000033_Node000035"><a xlink:title=" ">
<path fill="none" stroke="#63b8ff" d="M451.69,-165.34C470.41,-156.97 498.52,-144.38 519.98,-134.78"/>
<polygon fill="#63b8ff" stroke="#63b8ff" points="521.13,-138.1 528.83,-130.82 518.28,-131.71 521.13,-138.1"/>
</a>
</g>
</g>
<!-- Node36 -->
<g id="Node000036" class="node">
<title>Node36</title>
<g id="a_Node000036"><a xlink:title=" ">
<polygon fill="#e0e0e0" stroke="#999999" points="652.88,-129.75 594.12,-129.75 594.12,-110.5 652.88,-110.5 652.88,-129.75"/>
<text xml:space="preserve" text-anchor="middle" x="623.5" y="-116.25" font-family="Helvetica,sans-Serif" font-size="10.00">stdexcept</text>
</a>
</g>
</g>
<!-- Node33&#45;&gt;Node36 -->
<g id="edge59_Node000033_Node000036" class="edge">
<title>Node33&#45;&gt;Node36</title>
<g id="a_edge59_Node000033_Node000036"><a xlink:title=" ">
<path fill="none" stroke="#63b8ff" d="M464.07,-165.34C496.89,-156.24 547.63,-142.17 583.02,-132.35"/>
<polygon fill="#63b8ff" stroke="#63b8ff" points="583.77,-135.78 592.47,-129.73 581.9,-129.03 583.77,-135.78"/>
</a>
</g>
</g>
</g>
</svg>
