<?xml version="1.0" encoding="UTF-8" standalone="no"?>
<!DOCTYPE svg PUBLIC "-//W3C//DTD SVG 1.1//EN"
 "http://www.w3.org/Graphics/SVG/1.1/DTD/svg11.dtd">
<!-- Generated by graphviz version 14.1.0 (20251206.1807)
 -->
<!-- Title: src/nwb/RegisteredType.hpp Pages: 1 -->
<!--zoomable 370 -->

<svg id="main" version="1.1" xmlns="http://www.w3.org/2000/svg" xmlns:xlink="http://www.w3.org/1999/xlink" xml:space="preserve" onload="init(evt)">

<style type="text/css"><![CDATA[
.node, .edge {opacity: 0.7;}
.node.selected, .edge.selected {opacity: 1;}
.edge:hover path { stroke: red; }
.edge:hover polygon { stroke: red; fill: red; }
]]></style>

<defs>
  <circle id="rim" cx="0" cy="0" r="7"/>
  <circle id="rim2" cx="0" cy="0" r="3.5"/>
  <g id="zoomPlus">
    <use xlink:href="#rim" fill="#404040"><set attributeName="fill" to="#808080" begin="zoomplus.mouseover" end="zoomplus.mouseout"/></use>
    <path d="M-4,0h8M0,-4v8" fill="none" stroke="white" stroke-width="1.5" pointer-events="none"/>
  </g>
  <g id="zoomMin">
    <use xlink:href="#rim" fill="#404040"><set attributeName="fill" to="#808080" begin="zoomminus.mouseover" end="zoomminus.mouseout"/></use>
    <path d="M-4,0h8" fill="none" stroke="white" stroke-width="1.5" pointer-events="none"/>
  </g>
  <g id="arrowUp" transform="translate(30 24)">
    <use xlink:href="#rim"/>
    <path pointer-events="none" fill="none" stroke="white" stroke-width="1.5" d="M0,-3.0v7 M-2.5,-0.5L0,-3.0L2.5,-0.5"/>
  </g>
  <g id="arrowRight" transform="rotate(90) translate(36 -43)">
    <use xlink:href="#rim"/>
    <path pointer-events="none" fill="none" stroke="white" stroke-width="1.5" d="M0,-3.0v7 M-2.5,-0.5L0,-3.0L2.5,-0.5"/>
  </g>
  <g id="arrowDown" transform="rotate(180) translate(-30 -48)">
    <use xlink:href="#rim"/>
    <path pointer-events="none" fill="none" stroke="white" stroke-width="1.5" d="M0,-3.0v7 M-2.5,-0.5L0,-3.0L2.5,-0.5"/>
  </g>
  <g id="arrowLeft" transform="rotate(270) translate(-36 17)">
    <use xlink:href="#rim"/>
    <path pointer-events="none" fill="none" stroke="white" stroke-width="1.5" d="M0,-3.0v7 M-2.5,-0.5L0,-3.0L2.5,-0.5"/>
  </g>
  <g id="resetDef">
    <use xlink:href="#rim2" fill="#404040"><set attributeName="fill" to="#808080" begin="reset.mouseover" end="reset.mouseout"/></use>
  </g>
</defs>
<script type="application/ecmascript">
var viewWidth = 2002;
var viewHeight = 370;
var sectionId = 'dynsection-0';
</script>
<script type="application/ecmascript" xlink:href="svg.min.js"/>
<svg id="graph" class="graph">
<g id="viewport">
<title>src/nwb/RegisteredType.hpp</title>
<!-- Node1 -->
<g id="Node000001" class="node">
<title>Node1</title>
<g id="a_Node000001"><a xlink:title=" ">
<polygon fill="#999999" stroke="#666666" points="679.75,-362 539.25,-362 539.25,-342.75 679.75,-342.75 679.75,-362"/>
<text xml:space="preserve" text-anchor="middle" x="609.5" y="-348.5" font-family="Helvetica,sans-Serif" font-size="10.00">src/nwb/RegisteredType.hpp</text>
</a>
</g>
</g>
<!-- Node2 -->
<g id="Node000002" class="node">
<title>Node2</title>
<g id="a_Node000002"><a xlink:title=" ">
<polygon fill="#e0e0e0" stroke="#999999" points="61,-306.75 0,-306.75 0,-287.5 61,-287.5 61,-306.75"/>
<text xml:space="preserve" text-anchor="middle" x="30.5" y="-293.25" font-family="Helvetica,sans-Serif" font-size="10.00">filesystem</text>
</a>
</g>
</g>
<!-- Node1&#45;&gt;Node2 -->
<g id="edge1_Node000001_Node000002" class="edge">
<title>Node1&#45;&gt;Node2</title>
<g id="a_edge1_Node000001_Node000002"><a xlink:title=" ">
<path fill="none" stroke="#63b8ff" d="M538.96,-348.46C437.9,-343.63 245.92,-332.06 72.81,-306.89"/>
<polygon fill="#63b8ff" stroke="#63b8ff" points="73.34,-303.43 62.93,-305.43 72.32,-310.35 73.34,-303.43"/>
</a>
</g>
</g>
<!-- Node3 -->
<g id="Node000003" class="node">
<title>Node3</title>
<g id="a_Node000003"><a xlink:title=" ">
<polygon fill="#e0e0e0" stroke="#999999" points="137.5,-306.75 79.5,-306.75 79.5,-287.5 137.5,-287.5 137.5,-306.75"/>
<text xml:space="preserve" text-anchor="middle" x="108.5" y="-293.25" font-family="Helvetica,sans-Serif" font-size="10.00">functional</text>
</a>
</g>
</g>
<!-- Node1&#45;&gt;Node3 -->
<g id="edge2_Node000001_Node000003" class="edge">
<title>Node1&#45;&gt;Node3</title>
<g id="a_edge2_Node000001_Node000003"><a xlink:title=" ">
<path fill="none" stroke="#63b8ff" d="M539.01,-346.72C448.84,-340.27 288.01,-327.04 151.5,-306.75 150.51,-306.6 149.51,-306.45 148.5,-306.29"/>
<polygon fill="#63b8ff" stroke="#63b8ff" points="149.52,-302.91 139.07,-304.63 148.31,-309.81 149.52,-302.91"/>
</a>
</g>
</g>
<!-- Node4 -->
<g id="Node000004" class="node">
<title>Node4</title>
<g id="a_Node000004"><a xlink:title=" ">
<polygon fill="#e0e0e0" stroke="#999999" points="343.12,-74.5 291.88,-74.5 291.88,-55.25 343.12,-55.25 343.12,-74.5"/>
<text xml:space="preserve" text-anchor="middle" x="317.5" y="-61" font-family="Helvetica,sans-Serif" font-size="10.00">memory</text>
</a>
</g>
</g>
<!-- Node1&#45;&gt;Node4 -->
<g id="edge3_Node000001_Node000004" class="edge">
<title>Node1&#45;&gt;Node4</title>
<g id="a_edge3_Node000001_Node000004"><a xlink:title=" ">
<path fill="none" stroke="#63b8ff" d="M538.95,-345.04C473.18,-338.1 380.69,-325.43 349.5,-306.75 322.81,-290.76 316.6,-280.93 306.5,-251.5 286.71,-193.85 302.1,-120.26 311.54,-85.61"/>
<polygon fill="#63b8ff" stroke="#63b8ff" points="314.85,-86.74 314.25,-76.16 308.12,-84.8 314.85,-86.74"/>
</a>
</g>
</g>
<!-- Node5 -->
<g id="Node000005" class="node">
<title>Node5</title>
<g id="a_Node000005"><a xlink:title=" ">
<polygon fill="#e0e0e0" stroke="#999999" points="1746.5,-74.5 1706.5,-74.5 1706.5,-55.25 1746.5,-55.25 1746.5,-74.5"/>
<text xml:space="preserve" text-anchor="middle" x="1726.5" y="-61" font-family="Helvetica,sans-Serif" font-size="10.00">string</text>
</a>
</g>
</g>
<!-- Node1&#45;&gt;Node5 -->
<g id="edge4_Node000001_Node000005" class="edge">
<title>Node1&#45;&gt;Node5</title>
<g id="a_edge4_Node000001_Node000005"><a xlink:title=" ">
<path fill="none" stroke="#63b8ff" d="M680.21,-350.12C878.87,-346.3 1439.44,-333.4 1621.5,-306.75 1746.66,-288.43 1897.5,-363.75 1897.5,-237.25 1897.5,-237.25 1897.5,-237.25 1897.5,-174.38 1897.5,-108.95 1807.15,-81.31 1757.8,-71.09"/>
<polygon fill="#63b8ff" stroke="#63b8ff" points="1758.76,-67.71 1748.27,-69.25 1757.43,-74.59 1758.76,-67.71"/>
</a>
</g>
</g>
<!-- Node6 -->
<g id="Node000006" class="node">
<title>Node6</title>
<g id="a_Node000006"><a xlink:title=" ">
<polygon fill="#e0e0e0" stroke="#999999" points="1881.88,-74.5 1799.12,-74.5 1799.12,-55.25 1881.88,-55.25 1881.88,-74.5"/>
<text xml:space="preserve" text-anchor="middle" x="1840.5" y="-61" font-family="Helvetica,sans-Serif" font-size="10.00">unordered_map</text>
</a>
</g>
</g>
<!-- Node1&#45;&gt;Node6 -->
<g id="edge5_Node000001_Node000006" class="edge">
<title>Node1&#45;&gt;Node6</title>
<g id="a_edge5_Node000001_Node000006"><a xlink:title=" ">
<path fill="none" stroke="#63b8ff" d="M680.24,-351.65C898.17,-352.01 1557.23,-349.45 1766.5,-306.75 1846.07,-290.51 1935.5,-318.46 1935.5,-237.25 1935.5,-237.25 1935.5,-237.25 1935.5,-174.38 1935.5,-132.45 1894.86,-98.96 1866.74,-80.79"/>
<polygon fill="#63b8ff" stroke="#63b8ff" points="1868.68,-77.88 1858.34,-75.61 1865.01,-83.84 1868.68,-77.88"/>
</a>
</g>
</g>
<!-- Node7 -->
<g id="Node000007" class="node">
<title>Node7</title>
<g id="a_Node000007"><a xlink:title=" ">
<polygon fill="#e0e0e0" stroke="#999999" points="1994.25,-74.5 1916.75,-74.5 1916.75,-55.25 1994.25,-55.25 1994.25,-74.5"/>
<text xml:space="preserve" text-anchor="middle" x="1955.5" y="-61" font-family="Helvetica,sans-Serif" font-size="10.00">unordered_set</text>
</a>
</g>
</g>
<!-- Node1&#45;&gt;Node7 -->
<g id="edge6_Node000001_Node000007" class="edge">
<title>Node1&#45;&gt;Node7</title>
<g id="a_edge6_Node000001_Node000007"><a xlink:title=" ">
<path fill="none" stroke="#63b8ff" d="M680.2,-350.79C926.64,-348.46 1738.96,-338.46 1851.5,-306.75 1911.56,-289.83 1973.5,-299.65 1973.5,-237.25 1973.5,-237.25 1973.5,-237.25 1973.5,-174.38 1973.5,-143.09 1966.13,-107.41 1960.82,-85.77"/>
<polygon fill="#63b8ff" stroke="#63b8ff" points="1964.25,-85.08 1958.38,-76.26 1957.47,-86.82 1964.25,-85.08"/>
</a>
</g>
</g>
<!-- Node8 -->
<g id="Node000008" class="node">
<title>Node8</title>
<g id="a_Node000008"><a xlink:href="_types_8hpp.html" target="_top" xlink:title=" ">
<polygon fill="white" stroke="#666666" points="272,-74.5 211,-74.5 211,-55.25 272,-55.25 272,-74.5"/>
<text xml:space="preserve" text-anchor="middle" x="241.5" y="-61" font-family="Helvetica,sans-Serif" font-size="10.00">Types.hpp</text>
</a>
</g>
</g>
<!-- Node1&#45;&gt;Node8 -->
<g id="edge7_Node000001_Node000008" class="edge">
<title>Node1&#45;&gt;Node8</title>
<g id="a_edge7_Node000001_Node000008"><a xlink:title=" ">
<path fill="none" stroke="#63b8ff" d="M539.15,-347.8C413.95,-339.51 165.5,-313.46 165.5,-237.25 165.5,-237.25 165.5,-237.25 165.5,-174.38 165.5,-135.77 198.18,-101.14 220.68,-81.87"/>
<polygon fill="#63b8ff" stroke="#63b8ff" points="222.61,-84.82 228.12,-75.77 218.17,-79.41 222.61,-84.82"/>
</a>
</g>
</g>
<!-- Node12 -->
<g id="Node000012" class="node">
<title>Node12</title>
<g id="a_Node000012"><a xlink:href="_utils_8hpp.html" target="_top" xlink:title=" ">
<polygon fill="white" stroke="#666666" points="1024,-306.75 969,-306.75 969,-287.5 1024,-287.5 1024,-306.75"/>
<text xml:space="preserve" text-anchor="middle" x="996.5" y="-293.25" font-family="Helvetica,sans-Serif" font-size="10.00">Utils.hpp</text>
</a>
</g>
</g>
<!-- Node1&#45;&gt;Node12 -->
<g id="edge11_Node000001_Node000012" class="edge">
<title>Node1&#45;&gt;Node12</title>
<g id="a_edge11_Node000001_Node000012"><a xlink:title=" ">
<path fill="none" stroke="#63b8ff" d="M675.59,-342.28C756.64,-331.13 891.39,-312.59 957.5,-303.49"/>
<polygon fill="#63b8ff" stroke="#63b8ff" points="957.71,-307 967.14,-302.17 956.75,-300.06 957.71,-307"/>
</a>
</g>
</g>
<!-- Node27 -->
<g id="Node000027" class="node">
<title>Node27</title>
<g id="a_Node000027"><a xlink:href="_base_i_o_8hpp.html" target="_top" xlink:title=" ">
<polygon fill="white" stroke="#666666" points="694.62,-129.75 616.38,-129.75 616.38,-110.5 694.62,-110.5 694.62,-129.75"/>
<text xml:space="preserve" text-anchor="middle" x="655.5" y="-116.25" font-family="Helvetica,sans-Serif" font-size="10.00">io/BaseIO.hpp</text>
</a>
</g>
</g>
<!-- Node1&#45;&gt;Node27 -->
<g id="edge58_Node000001_Node000027" class="edge">
<title>Node1&#45;&gt;Node27</title>
<g id="a_edge58_Node000001_Node000027"><a xlink:title=" ">
<path fill="none" stroke="#63b8ff" d="M679.9,-350.69C919.28,-347.63 1691.03,-331.59 1764.5,-251.5 1773.66,-241.51 1773.65,-231.01 1764.5,-221 1692.26,-141.96 914.29,-124.92 706.35,-121.77"/>
<polygon fill="#63b8ff" stroke="#63b8ff" points="706.46,-118.27 696.41,-121.62 706.36,-125.27 706.46,-118.27"/>
</a>
</g>
</g>
<!-- Node35 -->
<g id="Node000035" class="node">
<title>Node35</title>
<g id="a_Node000035"><a xlink:href="_read_i_o_8hpp.html" target="_top" xlink:title=" ">
<polygon fill="white" stroke="#666666" points="439,-185 360,-185 360,-165.75 439,-165.75 439,-185"/>
<text xml:space="preserve" text-anchor="middle" x="399.5" y="-171.5" font-family="Helvetica,sans-Serif" font-size="10.00">io/ReadIO.hpp</text>
</a>
</g>
</g>
<!-- Node1&#45;&gt;Node35 -->
<g id="edge59_Node000001_Node000035" class="edge">
<title>Node1&#45;&gt;Node35</title>
<g id="a_edge59_Node000001_Node000035"><a xlink:title=" ">
<path fill="none" stroke="#63b8ff" d="M538.88,-349.36C469.44,-343.16 366.78,-321.75 316.5,-251.5 308.61,-240.48 309.55,-232.64 316.5,-221 325.16,-206.51 340.33,-196.45 355.34,-189.6"/>
<polygon fill="#63b8ff" stroke="#63b8ff" points="356.32,-192.99 364.23,-185.94 353.66,-186.51 356.32,-192.99"/>
</a>
</g>
</g>
<!-- Node9 -->
<g id="Node000009" class="node">
<title>Node9</title>
<g id="a_Node000009"><a xlink:title=" ">
<polygon fill="#e0e0e0" stroke="#999999" points="234.62,-19.25 186.38,-19.25 186.38,0 234.62,0 234.62,-19.25"/>
<text xml:space="preserve" text-anchor="middle" x="210.5" y="-5.75" font-family="Helvetica,sans-Serif" font-size="10.00">cstddef</text>
</a>
</g>
</g>
<!-- Node8&#45;&gt;Node9 -->
<g id="edge8_Node000008_Node000009" class="edge">
<title>Node8&#45;&gt;Node9</title>
<g id="a_edge8_Node000008_Node000009"><a xlink:title=" ">
<path fill="none" stroke="#63b8ff" d="M236.38,-55.08C232.32,-48.11 226.51,-38.12 221.41,-29.37"/>
<polygon fill="#63b8ff" stroke="#63b8ff" points="224.55,-27.8 216.49,-20.92 218.5,-31.32 224.55,-27.8"/>
</a>
</g>
</g>
<!-- Node10 -->
<g id="Node000010" class="node">
<title>Node10</title>
<g id="a_Node000010"><a xlink:title=" ">
<polygon fill="#e0e0e0" stroke="#999999" points="292.12,-19.25 252.88,-19.25 252.88,0 292.12,0 292.12,-19.25"/>
<text xml:space="preserve" text-anchor="middle" x="272.5" y="-5.75" font-family="Helvetica,sans-Serif" font-size="10.00">limits</text>
</a>
</g>
</g>
<!-- Node8&#45;&gt;Node10 -->
<g id="edge9_Node000008_Node000010" class="edge">
<title>Node8&#45;&gt;Node10</title>
<g id="a_edge9_Node000008_Node000010"><a xlink:title=" ">
<path fill="none" stroke="#63b8ff" d="M246.62,-55.08C250.68,-48.11 256.49,-38.12 261.59,-29.37"/>
<polygon fill="#63b8ff" stroke="#63b8ff" points="264.5,-31.32 266.51,-20.92 258.45,-27.8 264.5,-31.32"/>
</a>
</g>
</g>
<!-- Node11 -->
<g id="Node000011" class="node">
<title>Node11</title>
<g id="a_Node000011"><a xlink:title=" ">
<polygon fill="#e0e0e0" stroke="#999999" points="393,-19.25 350,-19.25 350,0 393,0 393,-19.25"/>
<text xml:space="preserve" text-anchor="middle" x="371.5" y="-5.75" font-family="Helvetica,sans-Serif" font-size="10.00">vector</text>
</a>
</g>
</g>
<!-- Node8&#45;&gt;Node11 -->
<g id="edge10_Node000008_Node000011" class="edge">
<title>Node8&#45;&gt;Node11</title>
<g id="a_edge10_Node000008_Node000011"><a xlink:title=" ">
<path fill="none" stroke="#63b8ff" d="M263.55,-54.84C284.31,-46.34 315.66,-33.5 339.23,-23.84"/>
<polygon fill="#63b8ff" stroke="#63b8ff" points="340.45,-27.13 348.37,-20.1 337.79,-20.65 340.45,-27.13"/>
</a>
</g>
</g>
<!-- Node12&#45;&gt;Node5 -->
<g id="edge20_Node000012_Node000005" class="edge">
<title>Node12&#45;&gt;Node5</title>
<g id="a_edge20_Node000012_Node000005"><a xlink:title=" ">
<path fill="none" stroke="#63b8ff" d="M1024.31,-295.6C1160.88,-292.91 1754.96,-279.59 1781.5,-251.5 1826.86,-203.49 1770.17,-119.8 1741.37,-83.5"/>
<polygon fill="#63b8ff" stroke="#63b8ff" points="1744.09,-81.3 1735.06,-75.76 1738.67,-85.72 1744.09,-81.3"/>
</a>
</g>
</g>
<!-- Node13 -->
<g id="Node000013" class="node">
<title>Node13</title>
<g id="a_Node000013"><a xlink:title=" ">
<polygon fill="#e0e0e0" stroke="#999999" points="1630.38,-245.88 1574.62,-245.88 1574.62,-226.62 1630.38,-226.62 1630.38,-245.88"/>
<text xml:space="preserve" text-anchor="middle" x="1602.5" y="-232.38" font-family="Helvetica,sans-Serif" font-size="10.00">algorithm</text>
</a>
</g>
</g>
<!-- Node12&#45;&gt;Node13 -->
<g id="edge12_Node000012_Node000013" class="edge">
<title>Node12&#45;&gt;Node13</title>
<g id="a_edge12_Node000012_Node000013"><a xlink:title=" ">
<path fill="none" stroke="#63b8ff" d="M1024.46,-296.76C1107.88,-298.07 1361.84,-297.67 1565.5,-251.5 1567.39,-251.07 1569.32,-250.56 1571.24,-250"/>
<polygon fill="#63b8ff" stroke="#63b8ff" points="1572.31,-253.34 1580.65,-246.81 1570.06,-246.71 1572.31,-253.34"/>
</a>
</g>
</g>
<!-- Node14 -->
<g id="Node000014" class="node">
<title>Node14</title>
<g id="a_Node000014"><a xlink:title=" ">
<polygon fill="#e0e0e0" stroke="#999999" points="1694.12,-245.88 1648.88,-245.88 1648.88,-226.62 1694.12,-226.62 1694.12,-245.88"/>
<text xml:space="preserve" text-anchor="middle" x="1671.5" y="-232.38" font-family="Helvetica,sans-Serif" font-size="10.00">chrono</text>
</a>
</g>
</g>
<!-- Node12&#45;&gt;Node14 -->
<g id="edge13_Node000012_Node000014" class="edge">
<title>Node12&#45;&gt;Node14</title>
<g id="a_edge13_Node000012_Node000014"><a xlink:title=" ">
<path fill="none" stroke="#63b8ff" d="M1024.35,-295.48C1131.92,-292.8 1520.19,-281.22 1639.5,-251.5 1640.89,-251.15 1642.3,-250.75 1643.71,-250.3"/>
<polygon fill="#63b8ff" stroke="#63b8ff" points="1644.8,-253.63 1652.88,-246.78 1642.29,-247.1 1644.8,-253.63"/>
</a>
</g>
</g>
<!-- Node15 -->
<g id="Node000015" class="node">
<title>Node15</title>
<g id="a_Node000015"><a xlink:title=" ">
<polygon fill="#e0e0e0" stroke="#999999" points="1755,-245.88 1712,-245.88 1712,-226.62 1755,-226.62 1755,-245.88"/>
<text xml:space="preserve" text-anchor="middle" x="1733.5" y="-232.38" font-family="Helvetica,sans-Serif" font-size="10.00">cmath</text>
</a>
</g>
</g>
<!-- Node12&#45;&gt;Node15 -->
<g id="edge14_Node000012_Node000015" class="edge">
<title>Node12&#45;&gt;Node15</title>
<g id="a_edge14_Node000012_Node000015"><a xlink:title=" ">
<path fill="none" stroke="#63b8ff" d="M1024.38,-295.77C1138.68,-294.11 1571.64,-285.63 1703.5,-251.5 1704.67,-251.2 1705.85,-250.85 1707.04,-250.46"/>
<polygon fill="#63b8ff" stroke="#63b8ff" points="1708.06,-253.82 1716.02,-246.83 1705.43,-247.33 1708.06,-253.82"/>
</a>
</g>
</g>
<!-- Node16 -->
<g id="Node000016" class="node">
<title>Node16</title>
<g id="a_Node000016"><a xlink:title=" ">
<polygon fill="#e0e0e0" stroke="#999999" points="869.12,-74.5 823.88,-74.5 823.88,-55.25 869.12,-55.25 869.12,-74.5"/>
<text xml:space="preserve" text-anchor="middle" x="846.5" y="-61" font-family="Helvetica,sans-Serif" font-size="10.00">cstdint</text>
</a>
</g>
</g>
<!-- Node12&#45;&gt;Node16 -->
<g id="edge15_Node000012_Node000016" class="edge">
<title>Node12&#45;&gt;Node16</title>
<g id="a_edge15_Node000012_Node000016"><a xlink:title=" ">
<path fill="none" stroke="#63b8ff" d="M1024.15,-295.57C1158.6,-292.74 1738.58,-278.97 1764.5,-251.5 1773.8,-241.64 1773.25,-231.35 1764.5,-221 1647.68,-82.78 1032.8,-67.68 880.6,-66.06"/>
<polygon fill="#63b8ff" stroke="#63b8ff" points="880.82,-62.56 870.78,-65.97 880.75,-69.56 880.82,-62.56"/>
</a>
</g>
</g>
<!-- Node17 -->
<g id="Node000017" class="node">
<title>Node17</title>
<g id="a_Node000017"><a xlink:title=" ">
<polygon fill="#e0e0e0" stroke="#999999" points="520.5,-245.88 480.5,-245.88 480.5,-226.62 520.5,-226.62 520.5,-245.88"/>
<text xml:space="preserve" text-anchor="middle" x="500.5" y="-232.38" font-family="Helvetica,sans-Serif" font-size="10.00">ctime</text>
</a>
</g>
</g>
<!-- Node12&#45;&gt;Node17 -->
<g id="edge16_Node000012_Node000017" class="edge">
<title>Node12&#45;&gt;Node17</title>
<g id="a_edge16_Node000012_Node000017"><a xlink:title=" ">
<path fill="none" stroke="#63b8ff" d="M968.77,-294.79C881.46,-290.37 613.05,-275.16 529.5,-251.5 528.53,-251.23 527.56,-250.92 526.58,-250.59"/>
<polygon fill="#63b8ff" stroke="#63b8ff" points="528.32,-247.52 517.74,-246.9 525.62,-253.98 528.32,-247.52"/>
</a>
</g>
</g>
<!-- Node18 -->
<g id="Node000018" class="node">
<title>Node18</title>
<g id="a_Node000018"><a xlink:title=" ">
<polygon fill="#e0e0e0" stroke="#999999" points="588.38,-245.88 538.62,-245.88 538.62,-226.62 588.38,-226.62 588.38,-245.88"/>
<text xml:space="preserve" text-anchor="middle" x="563.5" y="-232.38" font-family="Helvetica,sans-Serif" font-size="10.00">iomanip</text>
</a>
</g>
</g>
<!-- Node12&#45;&gt;Node18 -->
<g id="edge17_Node000012_Node000018" class="edge">
<title>Node12&#45;&gt;Node18</title>
<g id="a_edge17_Node000012_Node000018"><a xlink:title=" ">
<path fill="none" stroke="#63b8ff" d="M968.92,-295.73C903.42,-294.22 733.78,-286.9 597.5,-251.5 596.11,-251.14 594.69,-250.73 593.28,-250.29"/>
<polygon fill="#63b8ff" stroke="#63b8ff" points="594.6,-247.04 584.01,-246.89 592.19,-253.62 594.6,-247.04"/>
</a>
</g>
</g>
<!-- Node19 -->
<g id="Node000019" class="node">
<title>Node19</title>
<g id="a_Node000019"><a xlink:title=" ">
<polygon fill="#e0e0e0" stroke="#999999" points="646.5,-245.88 606.5,-245.88 606.5,-226.62 646.5,-226.62 646.5,-245.88"/>
<text xml:space="preserve" text-anchor="middle" x="626.5" y="-232.38" font-family="Helvetica,sans-Serif" font-size="10.00">regex</text>
</a>
</g>
</g>
<!-- Node12&#45;&gt;Node19 -->
<g id="edge18_Node000012_Node000019" class="edge">
<title>Node12&#45;&gt;Node19</title>
<g id="a_edge18_Node000012_Node000019"><a xlink:title=" ">
<path fill="none" stroke="#63b8ff" d="M968.9,-295.54C910.05,-293.65 768.38,-285.61 655.5,-251.5 654.69,-251.26 653.88,-250.99 653.07,-250.71"/>
<polygon fill="#63b8ff" stroke="#63b8ff" points="654.65,-247.58 644.08,-246.94 651.95,-254.04 654.65,-247.58"/>
</a>
</g>
</g>
<!-- Node20 -->
<g id="Node000020" class="node">
<title>Node20</title>
<g id="a_Node000020"><a xlink:title=" ">
<polygon fill="#e0e0e0" stroke="#999999" points="716.12,-245.88 664.88,-245.88 664.88,-226.62 716.12,-226.62 716.12,-245.88"/>
<text xml:space="preserve" text-anchor="middle" x="690.5" y="-232.38" font-family="Helvetica,sans-Serif" font-size="10.00">sstream</text>
</a>
</g>
</g>
<!-- Node12&#45;&gt;Node20 -->
<g id="edge19_Node000012_Node000020" class="edge">
<title>Node12&#45;&gt;Node20</title>
<g id="a_edge19_Node000012_Node000020"><a xlink:title=" ">
<path fill="none" stroke="#63b8ff" d="M968.75,-293.62C919.17,-288.7 812.46,-276.03 725.5,-251.5 724.11,-251.11 722.71,-250.68 721.3,-250.22"/>
<polygon fill="#63b8ff" stroke="#63b8ff" points="722.61,-246.97 712.01,-246.84 720.21,-253.55 722.61,-246.97"/>
</a>
</g>
</g>
<!-- Node21 -->
<g id="Node000021" class="node">
<title>Node21</title>
<g id="a_Node000021"><a xlink:title=" ">
<polygon fill="#e0e0e0" stroke="#999999" points="838.75,-245.88 734.25,-245.88 734.25,-226.62 838.75,-226.62 838.75,-245.88"/>
<text xml:space="preserve" text-anchor="middle" x="786.5" y="-232.38" font-family="Helvetica,sans-Serif" font-size="10.00">boost/date_time.hpp</text>
</a>
</g>
</g>
<!-- Node12&#45;&gt;Node21 -->
<g id="edge21_Node000012_Node000021" class="edge">
<title>Node12&#45;&gt;Node21</title>
<g id="a_edge21_Node000012_Node000021"><a xlink:title=" ">
<path fill="none" stroke="#63b8ff" d="M968.61,-288.31C933.15,-278.36 871.53,-261.09 829.9,-249.42"/>
<polygon fill="#63b8ff" stroke="#63b8ff" points="831.02,-246.1 820.45,-246.77 829.13,-252.84 831.02,-246.1"/>
</a>
</g>
</g>
<!-- Node22 -->
<g id="Node000022" class="node">
<title>Node22</title>
<g id="a_Node000022"><a xlink:title=" ">
<polygon fill="#e0e0e0" stroke="#999999" points="997.75,-245.88 857.25,-245.88 857.25,-226.62 997.75,-226.62 997.75,-245.88"/>
<text xml:space="preserve" text-anchor="middle" x="927.5" y="-232.38" font-family="Helvetica,sans-Serif" font-size="10.00">boost/endian/conversion.hpp</text>
</a>
</g>
</g>
<!-- Node12&#45;&gt;Node22 -->
<g id="edge22_Node000012_Node000022" class="edge">
<title>Node12&#45;&gt;Node22</title>
<g id="a_edge22_Node000012_Node000022"><a xlink:title=" ">
<path fill="none" stroke="#63b8ff" d="M986.02,-287.18C975.58,-278.28 959.33,-264.41 946.59,-253.54"/>
<polygon fill="#63b8ff" stroke="#63b8ff" points="949.11,-251.09 939.23,-247.26 944.56,-256.41 949.11,-251.09"/>
</a>
</g>
</g>
<!-- Node23 -->
<g id="Node000023" class="node">
<title>Node23</title>
<g id="a_Node000023"><a xlink:title=" ">
<polygon fill="#e0e0e0" stroke="#999999" points="1116.88,-245.88 1016.12,-245.88 1016.12,-226.62 1116.88,-226.62 1116.88,-245.88"/>
<text xml:space="preserve" text-anchor="middle" x="1066.5" y="-232.38" font-family="Helvetica,sans-Serif" font-size="10.00">boost/uuid/uuid.hpp</text>
</a>
</g>
</g>
<!-- Node12&#45;&gt;Node23 -->
<g id="edge23_Node000012_Node000023" class="edge">
<title>Node12&#45;&gt;Node23</title>
<g id="a_edge23_Node000012_Node000023"><a xlink:title=" ">
<path fill="none" stroke="#63b8ff" d="M1007.13,-287.18C1017.72,-278.28 1034.21,-264.41 1047.13,-253.54"/>
<polygon fill="#63b8ff" stroke="#63b8ff" points="1049.21,-256.37 1054.61,-247.25 1044.7,-251.01 1049.21,-256.37"/>
</a>
</g>
</g>
<!-- Node24 -->
<g id="Node000024" class="node">
<title>Node24</title>
<g id="a_Node000024"><a xlink:title=" ">
<polygon fill="#e0e0e0" stroke="#999999" points="1286.38,-245.88 1134.62,-245.88 1134.62,-226.62 1286.38,-226.62 1286.38,-245.88"/>
<text xml:space="preserve" text-anchor="middle" x="1210.5" y="-232.38" font-family="Helvetica,sans-Serif" font-size="10.00">boost/uuid/uuid_generators.hpp</text>
</a>
</g>
</g>
<!-- Node12&#45;&gt;Node24 -->
<g id="edge24_Node000012_Node000024" class="edge">
<title>Node12&#45;&gt;Node24</title>
<g id="a_edge24_Node000012_Node000024"><a xlink:title=" ">
<path fill="none" stroke="#63b8ff" d="M1024.48,-288.43C1060.67,-278.47 1124.12,-261.02 1166.72,-249.3"/>
<polygon fill="#63b8ff" stroke="#63b8ff" points="1167.43,-252.73 1176.15,-246.7 1165.58,-245.98 1167.43,-252.73"/>
</a>
</g>
</g>
<!-- Node25 -->
<g id="Node000025" class="node">
<title>Node25</title>
<g id="a_Node000025"><a xlink:title=" ">
<polygon fill="#e0e0e0" stroke="#999999" points="1418.25,-245.88 1304.75,-245.88 1304.75,-226.62 1418.25,-226.62 1418.25,-245.88"/>
<text xml:space="preserve" text-anchor="middle" x="1361.5" y="-232.38" font-family="Helvetica,sans-Serif" font-size="10.00">boost/uuid/uuid_io.hpp</text>
</a>
</g>
</g>
<!-- Node12&#45;&gt;Node25 -->
<g id="edge25_Node000012_Node000025" class="edge">
<title>Node12&#45;&gt;Node25</title>
<g id="a_edge25_Node000012_Node000025"><a xlink:title=" ">
<path fill="none" stroke="#63b8ff" d="M1024.22,-292.6C1077.13,-285.73 1196.11,-269.63 1295.5,-251.5 1300.37,-250.61 1305.42,-249.63 1310.47,-248.61"/>
<polygon fill="#63b8ff" stroke="#63b8ff" points="1310.88,-252.1 1319.96,-246.64 1309.46,-245.24 1310.88,-252.1"/>
</a>
</g>
</g>
<!-- Node26 -->
<g id="Node000026" class="node">
<title>Node26</title>
<g id="a_Node000026"><a xlink:title=" ">
<polygon fill="#e0e0e0" stroke="#999999" points="1556.25,-251.5 1436.75,-251.5 1436.75,-221 1556.25,-221 1556.25,-251.5"/>
<text xml:space="preserve" text-anchor="start" x="1444.75" y="-238" font-family="Helvetica,sans-Serif" font-size="10.00">boost/date_time/c_local</text>
<text xml:space="preserve" text-anchor="middle" x="1496.5" y="-226.75" font-family="Helvetica,sans-Serif" font-size="10.00">_time_adjustor.hpp</text>
</a>
</g>
</g>
<!-- Node12&#45;&gt;Node26 -->
<g id="edge26_Node000012_Node000026" class="edge">
<title>Node12&#45;&gt;Node26</title>
<g id="a_edge26_Node000012_Node000026"><a xlink:title=" ">
<path fill="none" stroke="#63b8ff" d="M1024.36,-294.22C1091.49,-289.41 1267.69,-275.56 1425.06,-251.77"/>
<polygon fill="#63b8ff" stroke="#63b8ff" points="1425.5,-255.25 1434.86,-250.27 1424.44,-248.33 1425.5,-255.25"/>
</a>
</g>
</g>
<!-- Node12&#45;&gt;Node27 -->
<g id="edge27_Node000012_Node000027" class="edge">
<title>Node12&#45;&gt;Node27</title>
<g id="a_edge27_Node000012_Node000027"><a xlink:title=" ">
<path fill="none" stroke="#63b8ff" d="M968.76,-296.38C850.46,-297.19 392.28,-297.34 349.5,-251.5 340.25,-241.59 341.74,-232.12 349.5,-221 376.06,-182.95 405.05,-203.75 447.5,-185 464.46,-177.51 467.2,-172.41 484.5,-165.75 523.86,-150.6 570.25,-138.85 604.78,-131.22"/>
<polygon fill="#63b8ff" stroke="#63b8ff" points="605.49,-134.65 614.53,-129.11 604.01,-127.81 605.49,-134.65"/>
</a>
</g>
</g>
<!-- Node33 -->
<g id="Node000033" class="node">
<title>Node33</title>
<g id="a_Node000033"><a xlink:href="_h_d_f5_i_o_8hpp.html" target="_top" xlink:title=" ">
<polygon fill="white" stroke="#666666" points="462.38,-245.88 358.62,-245.88 358.62,-226.62 462.38,-226.62 462.38,-245.88"/>
<text xml:space="preserve" text-anchor="middle" x="410.5" y="-232.38" font-family="Helvetica,sans-Serif" font-size="10.00">io/hdf5/HDF5IO.hpp</text>
</a>
</g>
</g>
<!-- Node12&#45;&gt;Node33 -->
<g id="edge40_Node000012_Node000033" class="edge">
<title>Node12&#45;&gt;Node33</title>
<g id="a_edge40_Node000012_Node000033"><a xlink:title=" ">
<path fill="none" stroke="#63b8ff" d="M968.72,-295.18C890.21,-292.2 660.1,-281.38 471.5,-251.5 466.59,-250.72 461.5,-249.77 456.43,-248.73"/>
<polygon fill="#63b8ff" stroke="#63b8ff" points="457.48,-245.37 446.97,-246.66 455.99,-252.21 457.48,-245.37"/>
</a>
</g>
</g>
<!-- Node27&#45;&gt;Node4 -->
<g id="edge31_Node000027_Node000004" class="edge">
<title>Node27&#45;&gt;Node4</title>
<g id="a_edge31_Node000027_Node000004"><a xlink:title=" ">
<path fill="none" stroke="#63b8ff" d="M616.07,-112.91C550.16,-102.53 418.56,-81.8 354.39,-71.69"/>
<polygon fill="#63b8ff" stroke="#63b8ff" points="355.15,-68.26 344.72,-70.16 354.06,-75.18 355.15,-68.26"/>
</a>
</g>
</g>
<!-- Node27&#45;&gt;Node5 -->
<g id="edge32_Node000027_Node000005" class="edge">
<title>Node27&#45;&gt;Node5</title>
<g id="a_edge32_Node000027_Node000005"><a xlink:title=" ">
<path fill="none" stroke="#63b8ff" d="M694.89,-117.17C865.56,-108.68 1539.61,-75.17 1694.61,-67.46"/>
<polygon fill="#63b8ff" stroke="#63b8ff" points="1694.71,-70.96 1704.53,-66.97 1694.36,-63.97 1694.71,-70.96"/>
</a>
</g>
</g>
<!-- Node27&#45;&gt;Node6 -->
<g id="edge34_Node000027_Node000006" class="edge">
<title>Node27&#45;&gt;Node6</title>
<g id="a_edge34_Node000027_Node000006"><a xlink:title=" ">
<path fill="none" stroke="#63b8ff" d="M695.01,-118.39C837.92,-115.53 1341.31,-103.89 1755.5,-74.5 1765.93,-73.76 1777.06,-72.77 1787.72,-71.73"/>
<polygon fill="#63b8ff" stroke="#63b8ff" points="1787.94,-75.23 1797.53,-70.74 1787.23,-68.26 1787.94,-75.23"/>
</a>
</g>
</g>
<!-- Node27&#45;&gt;Node7 -->
<g id="edge35_Node000027_Node000007" class="edge">
<title>Node27&#45;&gt;Node7</title>
<g id="a_edge35_Node000027_Node000007"><a xlink:title=" ">
<path fill="none" stroke="#63b8ff" d="M695.04,-119.07C848.75,-118.58 1421.22,-114.02 1890.5,-74.5 1895.22,-74.1 1900.13,-73.61 1905.03,-73.05"/>
<polygon fill="#63b8ff" stroke="#63b8ff" points="1905.37,-76.54 1914.88,-71.86 1904.53,-69.59 1905.37,-76.54"/>
</a>
</g>
</g>
<!-- Node27&#45;&gt;Node8 -->
<g id="edge39_Node000027_Node000008" class="edge">
<title>Node27&#45;&gt;Node8</title>
<g id="a_edge39_Node000027_Node000008"><a xlink:title=" ">
<path fill="none" stroke="#63b8ff" d="M616.14,-115.57C549.86,-109.33 411.6,-95.25 283.51,-74.5"/>
<polygon fill="#63b8ff" stroke="#63b8ff" points="284.27,-71.08 273.83,-72.91 283.14,-77.98 284.27,-71.08"/>
</a>
</g>
</g>
<!-- Node27&#45;&gt;Node11 -->
<g id="edge37_Node000027_Node000011" class="edge">
<title>Node27&#45;&gt;Node11</title>
<g id="a_edge37_Node000027_Node000011"><a xlink:title=" ">
<path fill="none" stroke="#63b8ff" d="M656.55,-110.24C657.65,-96.37 657.5,-69.69 642.5,-55.25 608.96,-22.94 468.81,-13.96 404.28,-11.51"/>
<polygon fill="#63b8ff" stroke="#63b8ff" points="404.79,-8.03 394.67,-11.18 404.54,-15.02 404.79,-8.03"/>
</a>
</g>
</g>
<!-- Node27&#45;&gt;Node16 -->
<g id="edge29_Node000027_Node000016" class="edge">
<title>Node27&#45;&gt;Node16</title>
<g id="a_edge29_Node000027_Node000016"><a xlink:title=" ">
<path fill="none" stroke="#63b8ff" d="M687.9,-110.09C722.67,-100.4 777.63,-85.08 812.86,-75.25"/>
<polygon fill="#63b8ff" stroke="#63b8ff" points="813.41,-78.73 822.1,-72.68 811.53,-71.99 813.41,-78.73"/>
</a>
</g>
</g>
<!-- Node28 -->
<g id="Node000028" class="node">
<title>Node28</title>
<g id="a_Node000028"><a xlink:title=" ">
<polygon fill="#e0e0e0" stroke="#999999" points="431.38,-74.5 399.62,-74.5 399.62,-55.25 431.38,-55.25 431.38,-74.5"/>
<text xml:space="preserve" text-anchor="middle" x="415.5" y="-61" font-family="Helvetica,sans-Serif" font-size="10.00">any</text>
</a>
</g>
</g>
<!-- Node27&#45;&gt;Node28 -->
<g id="edge28_Node000027_Node000028" class="edge">
<title>Node27&#45;&gt;Node28</title>
<g id="a_edge28_Node000027_Node000028"><a xlink:title=" ">
<path fill="none" stroke="#63b8ff" d="M615.91,-112.47C574.79,-105.22 508.43,-92.56 442.77,-74.84"/>
<polygon fill="#63b8ff" stroke="#63b8ff" points="443.84,-71.51 433.27,-72.24 441.99,-78.26 443.84,-71.51"/>
</a>
</g>
</g>
<!-- Node29 -->
<g id="Node000029" class="node">
<title>Node29</title>
<g id="a_Node000029"><a xlink:title=" ">
<polygon fill="#e0e0e0" stroke="#999999" points="806.25,-74.5 752.75,-74.5 752.75,-55.25 806.25,-55.25 806.25,-74.5"/>
<text xml:space="preserve" text-anchor="middle" x="779.5" y="-61" font-family="Helvetica,sans-Serif" font-size="10.00">iostream</text>
</a>
</g>
</g>
<!-- Node27&#45;&gt;Node29 -->
<g id="edge30_Node000027_Node000029" class="edge">
<title>Node27&#45;&gt;Node29</title>
<g id="a_edge30_Node000027_Node000029"><a xlink:title=" ">
<path fill="none" stroke="#63b8ff" d="M676.53,-110.09C696.13,-101.68 725.61,-89.02 748.01,-79.4"/>
<polygon fill="#63b8ff" stroke="#63b8ff" points="749.16,-82.71 756.97,-75.55 746.4,-76.28 749.16,-82.71"/>
</a>
</g>
</g>
<!-- Node30 -->
<g id="Node000030" class="node">
<title>Node30</title>
<g id="a_Node000030"><a xlink:title=" ">
<polygon fill="#e0e0e0" stroke="#999999" points="507.5,-74.5 449.5,-74.5 449.5,-55.25 507.5,-55.25 507.5,-74.5"/>
<text xml:space="preserve" text-anchor="middle" x="478.5" y="-61" font-family="Helvetica,sans-Serif" font-size="10.00">typeindex</text>
</a>
</g>
</g>
<!-- Node27&#45;&gt;Node30 -->
<g id="edge33_Node000027_Node000030" class="edge">
<title>Node27&#45;&gt;Node30</title>
<g id="a_edge33_Node000027_Node000030"><a xlink:title=" ">
<path fill="none" stroke="#63b8ff" d="M625.47,-110.09C596.09,-101.25 551.15,-87.73 518.7,-77.97"/>
<polygon fill="#63b8ff" stroke="#63b8ff" points="519.82,-74.65 509.24,-75.12 517.81,-81.35 519.82,-74.65"/>
</a>
</g>
</g>
<!-- Node31 -->
<g id="Node000031" class="node">
<title>Node31</title>
<g id="a_Node000031"><a xlink:title=" ">
<polygon fill="#e0e0e0" stroke="#999999" points="735.12,-74.5 689.88,-74.5 689.88,-55.25 735.12,-55.25 735.12,-74.5"/>
<text xml:space="preserve" text-anchor="middle" x="712.5" y="-61" font-family="Helvetica,sans-Serif" font-size="10.00">variant</text>
</a>
</g>
</g>
<!-- Node27&#45;&gt;Node31 -->
<g id="edge36_Node000027_Node000031" class="edge">
<title>Node27&#45;&gt;Node31</title>
<g id="a_edge36_Node000027_Node000031"><a xlink:title=" ">
<path fill="none" stroke="#63b8ff" d="M665.17,-110.09C673.24,-102.55 684.97,-91.6 694.72,-82.48"/>
<polygon fill="#63b8ff" stroke="#63b8ff" points="696.95,-85.19 701.87,-75.81 692.17,-80.08 696.95,-85.19"/>
</a>
</g>
</g>
<!-- Node32 -->
<g id="Node000032" class="node">
<title>Node32</title>
<g id="a_Node000032"><a xlink:title=" ">
<polygon fill="#e0e0e0" stroke="#999999" points="633.62,-74.5 525.38,-74.5 525.38,-55.25 633.62,-55.25 633.62,-74.5"/>
<text xml:space="preserve" text-anchor="middle" x="579.5" y="-61" font-family="Helvetica,sans-Serif" font-size="10.00">boost/multi_array.hpp</text>
</a>
</g>
</g>
<!-- Node27&#45;&gt;Node32 -->
<g id="edge38_Node000027_Node000032" class="edge">
<title>Node27&#45;&gt;Node32</title>
<g id="a_edge38_Node000027_Node000032"><a xlink:title=" ">
<path fill="none" stroke="#63b8ff" d="M642.61,-110.09C631.47,-102.29 615.13,-90.84 601.86,-81.54"/>
<polygon fill="#63b8ff" stroke="#63b8ff" points="603.89,-78.69 593.7,-75.82 599.88,-84.43 603.89,-78.69"/>
</a>
</g>
</g>
<!-- Node33&#45;&gt;Node4 -->
<g id="edge42_Node000033_Node000004" class="edge">
<title>Node33&#45;&gt;Node4</title>
<g id="a_edge42_Node000033_Node000004"><a xlink:title=" ">
<path fill="none" stroke="#63b8ff" d="M395.17,-226.23C381.49,-217.39 361.9,-202.71 350.5,-185 330.62,-154.11 322.57,-111.28 319.42,-86.28"/>
<polygon fill="#63b8ff" stroke="#63b8ff" points="322.92,-86.05 318.35,-76.49 315.96,-86.81 322.92,-86.05"/>
</a>
</g>
</g>
<!-- Node33&#45;&gt;Node5 -->
<g id="edge43_Node000033_Node000005" class="edge">
<title>Node33&#45;&gt;Node5</title>
<g id="a_edge43_Node000033_Node000005"><a xlink:title=" ">
<path fill="none" stroke="#63b8ff" d="M446.49,-226.17C454.68,-224.29 463.36,-222.45 471.5,-221 955.07,-134.88 1551.95,-80.81 1694.75,-68.54"/>
<polygon fill="#63b8ff" stroke="#63b8ff" points="1694.89,-72.04 1704.56,-67.71 1694.3,-65.07 1694.89,-72.04"/>
</a>
</g>
</g>
<!-- Node33&#45;&gt;Node8 -->
<g id="edge45_Node000033_Node000008" class="edge">
<title>Node33&#45;&gt;Node8</title>
<g id="a_edge45_Node000033_Node000008"><a xlink:title=" ">
<path fill="none" stroke="#63b8ff" d="M394.18,-226.13C378.47,-216.91 354.5,-201.67 336.5,-185 302.35,-153.37 270.26,-108.94 253.54,-84.25"/>
<polygon fill="#63b8ff" stroke="#63b8ff" points="256.46,-82.33 248,-75.95 250.64,-86.21 256.46,-82.33"/>
</a>
</g>
</g>
<!-- Node33&#45;&gt;Node27 -->
<g id="edge46_Node000033_Node000027" class="edge">
<title>Node33&#45;&gt;Node27</title>
<g id="a_edge46_Node000033_Node000027"><a xlink:title=" ">
<path fill="none" stroke="#63b8ff" d="M423.31,-226.14C443.88,-211.83 485.87,-183.84 524.5,-165.75 552.55,-152.62 585.57,-141.39 611.45,-133.49"/>
<polygon fill="#63b8ff" stroke="#63b8ff" points="612.4,-136.86 620.97,-130.63 610.39,-130.15 612.4,-136.86"/>
</a>
</g>
</g>
<!-- Node33&#45;&gt;Node29 -->
<g id="edge41_Node000033_Node000029" class="edge">
<title>Node33&#45;&gt;Node29</title>
<g id="a_edge41_Node000033_Node000029"><a xlink:title=" ">
<path fill="none" stroke="#63b8ff" d="M448.09,-226.21C504.38,-212.62 604.85,-188.19 612.5,-185 656.18,-166.8 665.05,-157.33 703.5,-129.75 724.38,-114.77 746.71,-95.58 761.72,-82.16"/>
<polygon fill="#63b8ff" stroke="#63b8ff" points="763.85,-84.96 768.92,-75.65 759.16,-79.76 763.85,-84.96"/>
</a>
</g>
</g>
<!-- Node34 -->
<g id="Node000034" class="node">
<title>Node34</title>
<g id="a_Node000034"><a xlink:title=" ">
<polygon fill="#e0e0e0" stroke="#999999" points="603.5,-185 533.5,-185 533.5,-165.75 603.5,-165.75 603.5,-185"/>
<text xml:space="preserve" text-anchor="middle" x="568.5" y="-171.5" font-family="Helvetica,sans-Serif" font-size="10.00">H5Opublic.h</text>
</a>
</g>
</g>
<!-- Node33&#45;&gt;Node34 -->
<g id="edge44_Node000033_Node000034" class="edge">
<title>Node33&#45;&gt;Node34</title>
<g id="a_edge44_Node000033_Node000034"><a xlink:title=" ">
<path fill="none" stroke="#63b8ff" d="M434.84,-226.18C461.28,-216.33 503.75,-200.5 533.71,-189.34"/>
<polygon fill="#63b8ff" stroke="#63b8ff" points="534.56,-192.76 542.71,-185.98 532.12,-186.2 534.56,-192.76"/>
</a>
</g>
</g>
<!-- Node33&#45;&gt;Node35 -->
<g id="edge47_Node000033_Node000035" class="edge">
<title>Node33&#45;&gt;Node35</title>
<g id="a_edge47_Node000033_Node000035"><a xlink:title=" ">
<path fill="none" stroke="#63b8ff" d="M408.83,-226.31C407.36,-218.44 405.17,-206.7 403.27,-196.57"/>
<polygon fill="#63b8ff" stroke="#63b8ff" points="406.74,-196.08 401.46,-186.89 399.86,-197.36 406.74,-196.08"/>
</a>
</g>
</g>
<!-- Node35&#45;&gt;Node4 -->
<g id="edge51_Node000035_Node000004" class="edge">
<title>Node35&#45;&gt;Node4</title>
<g id="a_edge51_Node000035_Node000004"><a xlink:title=" ">
<path fill="none" stroke="#63b8ff" d="M392.79,-165.5C379.34,-147.69 348.83,-107.33 331.06,-83.81"/>
<polygon fill="#63b8ff" stroke="#63b8ff" points="334.04,-81.95 325.22,-76.08 328.45,-86.17 334.04,-81.95"/>
</a>
</g>
</g>
<!-- Node35&#45;&gt;Node5 -->
<g id="edge52_Node000035_Node000005" class="edge">
<title>Node35&#45;&gt;Node5</title>
<g id="a_edge52_Node000035_Node000005"><a xlink:title=" ">
<path fill="none" stroke="#63b8ff" d="M439.21,-171.13C637.25,-154.94 1515.58,-83.12 1694.59,-68.48"/>
<polygon fill="#63b8ff" stroke="#63b8ff" points="1694.84,-71.98 1704.52,-67.67 1694.27,-65 1694.84,-71.98"/>
</a>
</g>
</g>
<!-- Node35&#45;&gt;Node8 -->
<g id="edge57_Node000035_Node000008" class="edge">
<title>Node35&#45;&gt;Node8</title>
<g id="a_edge57_Node000035_Node000008"><a xlink:title=" ">
<path fill="none" stroke="#63b8ff" d="M386.3,-165.31C359.28,-146.76 297.4,-104.26 263.95,-81.29"/>
<polygon fill="#63b8ff" stroke="#63b8ff" points="266.02,-78.47 255.8,-75.69 262.06,-84.24 266.02,-78.47"/>
</a>
</g>
</g>
<!-- Node35&#45;&gt;Node11 -->
<g id="edge54_Node000035_Node000011" class="edge">
<title>Node35&#45;&gt;Node11</title>
<g id="a_edge54_Node000035_Node000011"><a xlink:title=" ">
<path fill="none" stroke="#63b8ff" d="M397.99,-165.57C393.65,-140.14 380.99,-66.1 374.88,-30.37"/>
<polygon fill="#63b8ff" stroke="#63b8ff" points="378.4,-30.23 373.27,-20.96 371.5,-31.41 378.4,-30.23"/>
</a>
</g>
</g>
<!-- Node35&#45;&gt;Node16 -->
<g id="edge49_Node000035_Node000016" class="edge">
<title>Node35&#45;&gt;Node16</title>
<g id="a_edge49_Node000035_Node000016"><a xlink:title=" ">
<path fill="none" stroke="#63b8ff" d="M439.1,-172.03C497.84,-167.79 611.04,-156.63 703.5,-129.75 746.1,-117.37 792.48,-94.82 820.53,-80.1"/>
<polygon fill="#63b8ff" stroke="#63b8ff" points="821.81,-83.38 828.99,-75.59 818.52,-77.2 821.81,-83.38"/>
</a>
</g>
</g>
<!-- Node35&#45;&gt;Node27 -->
<g id="edge56_Node000035_Node000027" class="edge">
<title>Node35&#45;&gt;Node27</title>
<g id="a_edge56_Node000035_Node000027"><a xlink:title=" ">
<path fill="none" stroke="#63b8ff" d="M439.5,-166.05C484.15,-156.77 556.5,-141.72 605.02,-131.63"/>
<polygon fill="#63b8ff" stroke="#63b8ff" points="605.64,-135.07 614.72,-129.61 604.22,-128.22 605.64,-135.07"/>
</a>
</g>
</g>
<!-- Node35&#45;&gt;Node28 -->
<g id="edge48_Node000035_Node000028" class="edge">
<title>Node35&#45;&gt;Node28</title>
<g id="a_edge48_Node000035_Node000028"><a xlink:title=" ">
<path fill="none" stroke="#63b8ff" d="M401.23,-165.51C402.95,-156.52 405.61,-142.2 407.5,-129.75 409.72,-115.17 411.78,-98.64 413.25,-86.05"/>
<polygon fill="#63b8ff" stroke="#63b8ff" points="416.68,-86.83 414.34,-76.5 409.73,-86.04 416.68,-86.83"/>
</a>
</g>
</g>
<!-- Node35&#45;&gt;Node29 -->
<g id="edge50_Node000035_Node000029" class="edge">
<title>Node35&#45;&gt;Node29</title>
<g id="a_edge50_Node000035_Node000029"><a xlink:title=" ">
<path fill="none" stroke="#63b8ff" d="M427.64,-165.3C467.52,-152.54 542.8,-128.82 607.5,-110.5 632.45,-103.44 698.79,-86.41 741.41,-75.55"/>
<polygon fill="#63b8ff" stroke="#63b8ff" points="742.19,-78.96 751.01,-73.1 740.46,-72.18 742.19,-78.96"/>
</a>
</g>
</g>
<!-- Node35&#45;&gt;Node30 -->
<g id="edge53_Node000035_Node000030" class="edge">
<title>Node35&#45;&gt;Node30</title>
<g id="a_edge53_Node000035_Node000030"><a xlink:title=" ">
<path fill="none" stroke="#63b8ff" d="M405.96,-165.5C418.87,-147.77 448.05,-107.69 465.21,-84.13"/>
<polygon fill="#63b8ff" stroke="#63b8ff" points="468,-86.24 471.05,-76.1 462.34,-82.12 468,-86.24"/>
</a>
</g>
</g>
<!-- Node35&#45;&gt;Node32 -->
<g id="edge55_Node000035_Node000032" class="edge">
<title>Node35&#45;&gt;Node32</title>
<g id="a_edge55_Node000035_Node000032"><a xlink:title=" ">
<path fill="none" stroke="#63b8ff" d="M414.54,-165.31C445.51,-146.64 516.68,-103.74 554.62,-80.87"/>
<polygon fill="#63b8ff" stroke="#63b8ff" points="556.33,-83.93 563.08,-75.77 552.71,-77.94 556.33,-83.93"/>
</a>
</g>
</g>
</g>
</svg>

<g id="navigator" transform="translate(0 0)" fill="#404254">
  <rect fill="#f2f5e9" fill-opacity="0.5" stroke="#606060" stroke-width=".5" x="0" y="0" width="60" height="60"/>
  <use id="zoomplus" xlink:href="#zoomPlus" x="17" y="9" onmousedown="handleZoom(evt,'in')"/>
  <use id="zoomminus" xlink:href="#zoomMin" x="42" y="9" onmousedown="handleZoom(evt,'out')"/>
  <use id="reset" xlink:href="#resetDef" x="30" y="36" onmousedown="handleReset()"/>
   <use id="arrowup" xlink:href="#arrowUp" x="0" y="0" onmousedown="handlePan(0,-1)"/>
  <use id="arrowright" xlink:href="#arrowRight" x="0" y="0" onmousedown="handlePan(1,0)"/>
  <use id="arrowdown" xlink:href="#arrowDown" x="0" y="0" onmousedown="handlePan(0,1)"/>
  <use id="arrowleft" xlink:href="#arrowLeft" x="0" y="0" onmousedown="handlePan(-1,0)"/>
</g>
<svg viewBox="0 0 15 15" width="100%" height="30px" preserveAspectRatio="xMaxYMin meet">
 <g id="arrow_out" transform="scale(0.3 0.3)">
  <a xlink:href="_registered_type_8hpp__incl_org.svg" target="_base">
   <rect id="button" ry="5" rx="5" y="6" x="6" height="38" width="38"
        fill="#f2f5e9" fill-opacity="0.5" stroke="#606060" stroke-width="1.0"/>
   <path id="arrow"
     d="M 11.500037,31.436501 C 11.940474,20.09759 22.043105,11.32322 32.158766,21.979434 L 37.068811,17.246167 C 37.068811,17.246167 37.088388,32 37.088388,32 L 22.160133,31.978069 C 22.160133,31.978069 26.997745,27.140456 26.997745,27.140456 C 18.528582,18.264221 13.291696,25.230495 11.500037,31.436501 z"
     style="fill:#404040;"/>
  </a>
 </g>
</svg>

<style type='text/css'>
<![CDATA[
[data-mouse-over-selected='false'] { opacity: 0.7; }
[data-mouse-over-selected='true']  { opacity: 1.0; }
]]>
</style>
<script type="application/ecmascript"><![CDATA[
document.addEventListener('DOMContentLoaded', (event) => {
  highlightEdges();
  highlightAdjacentNodes();
});
]]></script>
</svg>
