<?xml version="1.0" encoding="UTF-8" standalone="no"?>
<!DOCTYPE svg PUBLIC "-//W3C//DTD SVG 1.1//EN"
 "http://www.w3.org/Graphics/SVG/1.1/DTD/svg11.dtd">
<!-- Generated by graphviz version 14.1.2 (20260124.0452)
 -->
<!-- Title: src/nwb/ecephys/SpikeEventSeries.hpp Pages: 1 -->
<svg width="568pt" height="105pt"
 viewBox="0.00 0.00 568.00 105.00" xmlns="http://www.w3.org/2000/svg" xmlns:xlink="http://www.w3.org/1999/xlink">
<g id="graph0" class="graph" transform="scale(1 1) rotate(0) translate(4 101)">
<title>src/nwb/ecephys/SpikeEventSeries.hpp</title>
<!-- Node1 -->
<g id="Node000001" class="node">
<title>Node1</title>
<g id="a_Node000001"><a xlink:title=" ">
<polygon fill="#999999" stroke="#666666" points="348.62,-97 205.12,-97 205.12,-66.5 348.62,-66.5 348.62,-97"/>
<text xml:space="preserve" text-anchor="start" x="213.12" y="-83.5" font-family="Helvetica,sans-Serif" font-size="10.00">src/nwb/ecephys/SpikeEvent</text>
<text xml:space="preserve" text-anchor="middle" x="276.88" y="-72.25" font-family="Helvetica,sans-Serif" font-size="10.00">Series.hpp</text>
</a>
</g>
</g>
<!-- Node2 -->
<g id="Node000002" class="node">
<title>Node2</title>
<g id="a_Node000002"><a xlink:href="_recording_objects_8cpp.html" target="_top" xlink:title=" ">
<polygon fill="white" stroke="#666666" points="139.75,-24.88 0,-24.88 0,-5.63 139.75,-5.63 139.75,-24.88"/>
<text xml:space="preserve" text-anchor="middle" x="69.88" y="-11.38" font-family="Helvetica,sans-Serif" font-size="10.00">src/io/RecordingObjects.cpp</text>
</a>
</g>
</g>
<!-- Node1&#45;&gt;Node2 -->
<g id="edge1_Node000001_Node000002" class="edge">
<title>Node1&#45;&gt;Node2</title>
<g id="a_edge1_Node000001_Node000002"><a xlink:title=" ">
<path fill="none" stroke="#63b8ff" d="M218.69,-62.62C179.68,-50.46 129.96,-34.97 99.02,-25.33"/>
<polygon fill="#63b8ff" stroke="#63b8ff" points="217.61,-65.95 228.2,-65.58 219.69,-59.27 217.61,-65.95"/>
</a>
</g>
</g>
<!-- Node3 -->
<g id="Node000003" class="node">
<title>Node3</title>
<g id="a_Node000003"><a xlink:href="nwbio__utils_8hpp.html" target="_top" xlink:title=" ">
<polygon fill="white" stroke="#666666" points="268.12,-24.88 157.62,-24.88 157.62,-5.63 268.12,-5.63 268.12,-24.88"/>
<text xml:space="preserve" text-anchor="middle" x="212.88" y="-11.38" font-family="Helvetica,sans-Serif" font-size="10.00">src/io/nwbio_utils.hpp</text>
</a>
</g>
</g>
<!-- Node1&#45;&gt;Node3 -->
<g id="edge2_Node000001_Node000003" class="edge">
<title>Node1&#45;&gt;Node3</title>
<g id="a_edge2_Node000001_Node000003"><a xlink:title=" ">
<path fill="none" stroke="#63b8ff" d="M254.51,-58.21C243.17,-46.78 230.06,-33.57 221.63,-25.07"/>
<polygon fill="#63b8ff" stroke="#63b8ff" points="251.76,-60.41 261.29,-65.04 256.73,-55.48 251.76,-60.41"/>
</a>
</g>
</g>
<!-- Node4 -->
<g id="Node000004" class="node">
<title>Node4</title>
<g id="a_Node000004"><a xlink:href="_n_w_b_file_8cpp.html" target="_top" xlink:title=" ">
<polygon fill="white" stroke="#666666" points="397.88,-24.88 285.88,-24.88 285.88,-5.63 397.88,-5.63 397.88,-24.88"/>
<text xml:space="preserve" text-anchor="middle" x="341.88" y="-11.38" font-family="Helvetica,sans-Serif" font-size="10.00">src/nwb/NWBFile.cpp</text>
</a>
</g>
</g>
<!-- Node1&#45;&gt;Node4 -->
<g id="edge3_Node000001_Node000004" class="edge">
<title>Node1&#45;&gt;Node4</title>
<g id="a_edge3_Node000001_Node000004"><a xlink:title=" ">
<path fill="none" stroke="#63b8ff" d="M299.59,-58.21C311.1,-46.78 324.42,-33.57 332.98,-25.07"/>
<polygon fill="#63b8ff" stroke="#63b8ff" points="297.33,-55.52 292.7,-65.05 302.26,-60.49 297.33,-55.52"/>
</a>
</g>
</g>
<!-- Node5 -->
<g id="Node000005" class="node">
<title>Node5</title>
<g id="a_Node000005"><a xlink:href="_spike_event_series_8cpp.html" target="_top" xlink:title=" ">
<polygon fill="white" stroke="#666666" points="559.62,-30.5 416.12,-30.5 416.12,0 559.62,0 559.62,-30.5"/>
<text xml:space="preserve" text-anchor="start" x="424.12" y="-17" font-family="Helvetica,sans-Serif" font-size="10.00">src/nwb/ecephys/SpikeEvent</text>
<text xml:space="preserve" text-anchor="middle" x="487.88" y="-5.75" font-family="Helvetica,sans-Serif" font-size="10.00">Series.cpp</text>
</a>
</g>
</g>
<!-- Node1&#45;&gt;Node5 -->
<g id="edge4_Node000001_Node000005" class="edge">
<title>Node1&#45;&gt;Node5</title>
<g id="a_edge4_Node000001_Node000005"><a xlink:title=" ">
<path fill="none" stroke="#63b8ff" d="M335.84,-62.72C368.69,-52.68 409.06,-40.34 439.94,-30.9"/>
<polygon fill="#63b8ff" stroke="#63b8ff" points="335.01,-59.32 326.47,-65.59 337.05,-66.01 335.01,-59.32"/>
</a>
</g>
</g>
</g>
</svg>
