<?xml version="1.0" encoding="UTF-8" standalone="no"?>
<!DOCTYPE svg PUBLIC "-//W3C//DTD SVG 1.1//EN"
 "http://www.w3.org/Graphics/SVG/1.1/DTD/svg11.dtd">
<!-- Generated by graphviz version 12.2.1 (20241206.2353)
 -->
<!-- Title: src/nwb/ecephys/SpikeEventSeries.cpp Pages: 1 -->
<svg width="2303pt" height="602pt"
 viewBox="0.00 0.00 2302.62 602.25" xmlns="http://www.w3.org/2000/svg" xmlns:xlink="http://www.w3.org/1999/xlink">
<g id="graph0" class="graph" transform="scale(1 1) rotate(0) translate(4 598.25)">
<title>src/nwb/ecephys/SpikeEventSeries.cpp</title>
<!-- Node1 -->
<g id="Node000001" class="node">
<title>Node1</title>
<g id="a_Node000001"><a xlink:title=" ">
<polygon fill="#999999" stroke="#666666" points="392.75,-594.25 249.25,-594.25 249.25,-563.75 392.75,-563.75 392.75,-594.25"/>
<text text-anchor="start" x="257.25" y="-580.75" font-family="Helvetica,sans-Serif" font-size="10.00">src/nwb/ecephys/SpikeEvent</text>
<text text-anchor="middle" x="321" y="-569.5" font-family="Helvetica,sans-Serif" font-size="10.00">Series.cpp</text>
</a>
</g>
</g>
<!-- Node2 -->
<g id="Node000002" class="node">
<title>Node2</title>
<g id="a_Node000002"><a xlink:href="_spike_event_series_8hpp.html" target="_top" xlink:title=" ">
<polygon fill="white" stroke="#666666" points="407.75,-527.75 234.25,-527.75 234.25,-508.5 407.75,-508.5 407.75,-527.75"/>
<text text-anchor="middle" x="321" y="-514.25" font-family="Helvetica,sans-Serif" font-size="10.00">nwb/ecephys/SpikeEventSeries.hpp</text>
</a>
</g>
</g>
<!-- Node1&#45;&gt;Node2 -->
<g id="edge1_Node000001_Node000002" class="edge">
<title>Node1&#45;&gt;Node2</title>
<g id="a_edge1_Node000001_Node000002"><a xlink:title=" ">
<path fill="none" stroke="#63b8ff" d="M321,-563.45C321,-556.21 321,-547.34 321,-539.44"/>
<polygon fill="#63b8ff" stroke="#63b8ff" points="324.5,-539.71 321,-529.71 317.5,-539.71 324.5,-539.71"/>
</a>
</g>
</g>
<!-- Node3 -->
<g id="Node000003" class="node">
<title>Node3</title>
<g id="a_Node000003"><a xlink:title=" ">
<polygon fill="#e0e0e0" stroke="#999999" points="191,-74.5 151,-74.5 151,-55.25 191,-55.25 191,-74.5"/>
<text text-anchor="middle" x="171" y="-61" font-family="Helvetica,sans-Serif" font-size="10.00">string</text>
</a>
</g>
</g>
<!-- Node2&#45;&gt;Node3 -->
<g id="edge2_Node000002_Node000003" class="edge">
<title>Node2&#45;&gt;Node3</title>
<g id="a_edge2_Node000002_Node000003"><a xlink:title=" ">
<path fill="none" stroke="#63b8ff" d="M252.53,-508.05C158.26,-493.61 0,-461.5 0,-408.62 0,-408.62 0,-408.62 0,-180 0,-113.58 90.35,-83.42 139.7,-71.9"/>
<polygon fill="#63b8ff" stroke="#63b8ff" points="140.22,-75.37 149.23,-69.81 138.72,-68.53 140.22,-75.37"/>
</a>
</g>
</g>
<!-- Node4 -->
<g id="Node000004" class="node">
<title>Node4</title>
<g id="a_Node000004"><a xlink:href="_channel_8hpp.html" target="_top" xlink:title=" ">
<polygon fill="white" stroke="#666666" points="225.38,-417.25 154.62,-417.25 154.62,-398 225.38,-398 225.38,-417.25"/>
<text text-anchor="middle" x="190" y="-403.75" font-family="Helvetica,sans-Serif" font-size="10.00">Channel.hpp</text>
</a>
</g>
</g>
<!-- Node2&#45;&gt;Node4 -->
<g id="edge3_Node000002_Node000004" class="edge">
<title>Node2&#45;&gt;Node4</title>
<g id="a_edge3_Node000002_Node000004"><a xlink:title=" ">
<path fill="none" stroke="#63b8ff" d="M304.96,-508.15C290.5,-499.75 268.98,-486.44 252,-472.5 234.53,-458.16 216.78,-439.36 204.78,-425.87"/>
<polygon fill="#63b8ff" stroke="#63b8ff" points="207.68,-423.87 198.46,-418.64 202.41,-428.48 207.68,-423.87"/>
</a>
</g>
</g>
<!-- Node9 -->
<g id="Node000009" class="node">
<title>Node9</title>
<g id="a_Node000009"><a xlink:href="_utils_8hpp.html" target="_top" xlink:title=" ">
<polygon fill="white" stroke="#666666" points="1166.5,-251.5 1111.5,-251.5 1111.5,-232.25 1166.5,-232.25 1166.5,-251.5"/>
<text text-anchor="middle" x="1139" y="-238" font-family="Helvetica,sans-Serif" font-size="10.00">Utils.hpp</text>
</a>
</g>
</g>
<!-- Node2&#45;&gt;Node9 -->
<g id="edge9_Node000002_Node000009" class="edge">
<title>Node2&#45;&gt;Node9</title>
<g id="a_edge9_Node000002_Node000009"><a xlink:title=" ">
<path fill="none" stroke="#63b8ff" d="M312.12,-508.31C304.01,-499.81 292.23,-486.25 285,-472.5 271.22,-446.28 266,-438.24 266,-408.62 266,-408.62 266,-408.62 266,-351.38 266,-266.08 930.75,-247.03 1100.11,-243.56"/>
<polygon fill="#63b8ff" stroke="#63b8ff" points="1099.99,-247.06 1109.92,-243.36 1099.85,-240.06 1099.99,-247.06"/>
</a>
</g>
</g>
<!-- Node23 -->
<g id="Node000023" class="node">
<title>Node23</title>
<g id="a_Node000023"><a xlink:href="_base_i_o_8hpp.html" target="_top" xlink:title=" ">
<polygon fill="white" stroke="#666666" points="1775.12,-129.75 1696.88,-129.75 1696.88,-110.5 1775.12,-110.5 1775.12,-129.75"/>
<text text-anchor="middle" x="1736" y="-116.25" font-family="Helvetica,sans-Serif" font-size="10.00">io/BaseIO.hpp</text>
</a>
</g>
</g>
<!-- Node2&#45;&gt;Node23 -->
<g id="edge52_Node000002_Node000023" class="edge">
<title>Node2&#45;&gt;Node23</title>
<g id="a_edge52_Node000002_Node000023"><a xlink:title=" ">
<path fill="none" stroke="#63b8ff" d="M408.13,-516.35C762.66,-512.66 2078,-493.24 2078,-408.62 2078,-408.62 2078,-408.62 2078,-296.12 2078,-166.95 1882.26,-133.07 1786.95,-124.22"/>
<polygon fill="#63b8ff" stroke="#63b8ff" points="1787.34,-120.74 1777.07,-123.37 1786.74,-127.72 1787.34,-120.74"/>
</a>
</g>
</g>
<!-- Node32 -->
<g id="Node000032" class="node">
<title>Node32</title>
<g id="a_Node000032"><a xlink:href="_read_i_o_8hpp.html" target="_top" xlink:title=" ">
<polygon fill="white" stroke="#666666" points="2071.5,-129.75 1992.5,-129.75 1992.5,-110.5 2071.5,-110.5 2071.5,-129.75"/>
<text text-anchor="middle" x="2032" y="-116.25" font-family="Helvetica,sans-Serif" font-size="10.00">io/ReadIO.hpp</text>
</a>
</g>
</g>
<!-- Node2&#45;&gt;Node32 -->
<g id="edge53_Node000002_Node000032" class="edge">
<title>Node2&#45;&gt;Node32</title>
<g id="a_edge53_Node000002_Node000032"><a xlink:title=" ">
<path fill="none" stroke="#63b8ff" d="M407.99,-516.79C781.44,-514.81 2230,-501.16 2230,-408.62 2230,-408.62 2230,-408.62 2230,-240.88 2230,-172 2141.19,-141.67 2082.53,-129.14"/>
<polygon fill="#63b8ff" stroke="#63b8ff" points="2083.57,-125.78 2073.08,-127.24 2082.19,-132.65 2083.57,-125.78"/>
</a>
</g>
</g>
<!-- Node34 -->
<g id="Node000034" class="node">
<title>Node34</title>
<g id="a_Node000034"><a xlink:href="_electrical_series_8hpp.html" target="_top" xlink:title=" ">
<polygon fill="white" stroke="#666666" points="457.88,-472.5 294.12,-472.5 294.12,-453.25 457.88,-453.25 457.88,-472.5"/>
<text text-anchor="middle" x="376" y="-459" font-family="Helvetica,sans-Serif" font-size="10.00">nwb/ecephys/ElectricalSeries.hpp</text>
</a>
</g>
</g>
<!-- Node2&#45;&gt;Node34 -->
<g id="edge54_Node000002_Node000034" class="edge">
<title>Node2&#45;&gt;Node34</title>
<g id="a_edge54_Node000002_Node000034"><a xlink:title=" ">
<path fill="none" stroke="#63b8ff" d="M330.08,-508.33C337.84,-500.82 349.21,-489.81 358.7,-480.63"/>
<polygon fill="#63b8ff" stroke="#63b8ff" points="360.88,-483.38 365.63,-473.91 356.01,-478.35 360.88,-483.38"/>
</a>
</g>
</g>
<!-- Node4&#45;&gt;Node3 -->
<g id="edge5_Node000004_Node000003" class="edge">
<title>Node4&#45;&gt;Node3</title>
<g id="a_edge5_Node000004_Node000003"><a xlink:title=" ">
<path fill="none" stroke="#63b8ff" d="M154.36,-398.07C109.44,-384.9 38,-355.03 38,-298.12 38,-298.12 38,-298.12 38,-180 38,-147.32 39.55,-134.25 62,-110.5 82.64,-88.66 115.5,-77.19 139.75,-71.38"/>
<polygon fill="#63b8ff" stroke="#63b8ff" points="140.37,-74.83 149.4,-69.29 138.88,-67.99 140.37,-74.83"/>
</a>
</g>
</g>
<!-- Node5 -->
<g id="Node000005" class="node">
<title>Node5</title>
<g id="a_Node000005"><a xlink:title=" ">
<polygon fill="#e0e0e0" stroke="#999999" points="161.88,-362 124.12,-362 124.12,-342.75 161.88,-342.75 161.88,-362"/>
<text text-anchor="middle" x="143" y="-348.5" font-family="Helvetica,sans-Serif" font-size="10.00">array</text>
</a>
</g>
</g>
<!-- Node4&#45;&gt;Node5 -->
<g id="edge4_Node000004_Node000005" class="edge">
<title>Node4&#45;&gt;Node5</title>
<g id="a_edge4_Node000004_Node000005"><a xlink:title=" ">
<path fill="none" stroke="#63b8ff" d="M182.24,-397.83C175.81,-390.55 166.49,-379.98 158.54,-370.98"/>
<polygon fill="#63b8ff" stroke="#63b8ff" points="161.17,-368.68 151.93,-363.49 155.92,-373.31 161.17,-368.68"/>
</a>
</g>
</g>
<!-- Node6 -->
<g id="Node000006" class="node">
<title>Node6</title>
<g id="a_Node000006"><a xlink:href="_types_8hpp.html" target="_top" xlink:title=" ">
<polygon fill="white" stroke="#666666" points="1566.5,-74.5 1505.5,-74.5 1505.5,-55.25 1566.5,-55.25 1566.5,-74.5"/>
<text text-anchor="middle" x="1536" y="-61" font-family="Helvetica,sans-Serif" font-size="10.00">Types.hpp</text>
</a>
</g>
</g>
<!-- Node4&#45;&gt;Node6 -->
<g id="edge6_Node000004_Node000006" class="edge">
<title>Node4&#45;&gt;Node6</title>
<g id="a_edge6_Node000004_Node000006"><a xlink:title=" ">
<path fill="none" stroke="#63b8ff" d="M190.36,-397.66C192.37,-361.43 205.16,-224.87 285,-165.75 384.14,-92.34 1286.97,-70.65 1493.88,-66.62"/>
<polygon fill="#63b8ff" stroke="#63b8ff" points="1493.69,-70.13 1503.62,-66.44 1493.56,-63.13 1493.69,-70.13"/>
</a>
</g>
</g>
<!-- Node7 -->
<g id="Node000007" class="node">
<title>Node7</title>
<g id="a_Node000007"><a xlink:title=" ">
<polygon fill="#e0e0e0" stroke="#999999" points="1560.12,-19.25 1511.88,-19.25 1511.88,0 1560.12,0 1560.12,-19.25"/>
<text text-anchor="middle" x="1536" y="-5.75" font-family="Helvetica,sans-Serif" font-size="10.00">cstddef</text>
</a>
</g>
</g>
<!-- Node6&#45;&gt;Node7 -->
<g id="edge7_Node000006_Node000007" class="edge">
<title>Node6&#45;&gt;Node7</title>
<g id="a_edge7_Node000006_Node000007"><a xlink:title=" ">
<path fill="none" stroke="#63b8ff" d="M1536,-55.08C1536,-48.57 1536,-39.42 1536,-31.12"/>
<polygon fill="#63b8ff" stroke="#63b8ff" points="1539.5,-31.12 1536,-21.12 1532.5,-31.12 1539.5,-31.12"/>
</a>
</g>
</g>
<!-- Node8 -->
<g id="Node000008" class="node">
<title>Node8</title>
<g id="a_Node000008"><a xlink:title=" ">
<polygon fill="#e0e0e0" stroke="#999999" points="1687.5,-19.25 1644.5,-19.25 1644.5,0 1687.5,0 1687.5,-19.25"/>
<text text-anchor="middle" x="1666" y="-5.75" font-family="Helvetica,sans-Serif" font-size="10.00">vector</text>
</a>
</g>
</g>
<!-- Node6&#45;&gt;Node8 -->
<g id="edge8_Node000006_Node000008" class="edge">
<title>Node6&#45;&gt;Node8</title>
<g id="a_edge8_Node000006_Node000008"><a xlink:title=" ">
<path fill="none" stroke="#63b8ff" d="M1558.05,-54.84C1578.81,-46.34 1610.16,-33.5 1633.73,-23.84"/>
<polygon fill="#63b8ff" stroke="#63b8ff" points="1634.95,-27.13 1642.87,-20.1 1632.29,-20.65 1634.95,-27.13"/>
</a>
</g>
</g>
<!-- Node9&#45;&gt;Node3 -->
<g id="edge17_Node000009_Node000003" class="edge">
<title>Node9&#45;&gt;Node3</title>
<g id="a_edge17_Node000009_Node000003"><a xlink:title=" ">
<path fill="none" stroke="#63b8ff" d="M1111.07,-240.7C972.3,-239.66 360.7,-233.03 285,-196.25 271.83,-189.85 212.71,-117.72 185.18,-83.58"/>
<polygon fill="#63b8ff" stroke="#63b8ff" points="187.97,-81.46 178.98,-75.86 182.52,-85.85 187.97,-81.46"/>
</a>
</g>
</g>
<!-- Node10 -->
<g id="Node000010" class="node">
<title>Node10</title>
<g id="a_Node000010"><a xlink:title=" ">
<polygon fill="#e0e0e0" stroke="#999999" points="1066.88,-190.62 1011.12,-190.62 1011.12,-171.38 1066.88,-171.38 1066.88,-190.62"/>
<text text-anchor="middle" x="1039" y="-177.12" font-family="Helvetica,sans-Serif" font-size="10.00">algorithm</text>
</a>
</g>
</g>
<!-- Node9&#45;&gt;Node10 -->
<g id="edge10_Node000009_Node000010" class="edge">
<title>Node9&#45;&gt;Node10</title>
<g id="a_edge10_Node000009_Node000010"><a xlink:title=" ">
<path fill="none" stroke="#63b8ff" d="M1123.81,-231.93C1107.95,-222.6 1082.82,-207.8 1064.02,-196.73"/>
<polygon fill="#63b8ff" stroke="#63b8ff" points="1066.03,-193.85 1055.64,-191.79 1062.48,-199.88 1066.03,-193.85"/>
</a>
</g>
</g>
<!-- Node11 -->
<g id="Node000011" class="node">
<title>Node11</title>
<g id="a_Node000011"><a xlink:title=" ">
<polygon fill="#e0e0e0" stroke="#999999" points="1130.62,-190.62 1085.38,-190.62 1085.38,-171.38 1130.62,-171.38 1130.62,-190.62"/>
<text text-anchor="middle" x="1108" y="-177.12" font-family="Helvetica,sans-Serif" font-size="10.00">chrono</text>
</a>
</g>
</g>
<!-- Node9&#45;&gt;Node11 -->
<g id="edge11_Node000009_Node000011" class="edge">
<title>Node9&#45;&gt;Node11</title>
<g id="a_edge11_Node000009_Node000011"><a xlink:title=" ">
<path fill="none" stroke="#63b8ff" d="M1134.29,-231.93C1130.01,-223.81 1123.56,-211.54 1118.11,-201.2"/>
<polygon fill="#63b8ff" stroke="#63b8ff" points="1121.21,-199.58 1113.46,-192.37 1115.02,-202.84 1121.21,-199.58"/>
</a>
</g>
</g>
<!-- Node12 -->
<g id="Node000012" class="node">
<title>Node12</title>
<g id="a_Node000012"><a xlink:title=" ">
<polygon fill="#e0e0e0" stroke="#999999" points="1191.5,-190.62 1148.5,-190.62 1148.5,-171.38 1191.5,-171.38 1191.5,-190.62"/>
<text text-anchor="middle" x="1170" y="-177.12" font-family="Helvetica,sans-Serif" font-size="10.00">cmath</text>
</a>
</g>
</g>
<!-- Node9&#45;&gt;Node12 -->
<g id="edge12_Node000009_Node000012" class="edge">
<title>Node9&#45;&gt;Node12</title>
<g id="a_edge12_Node000009_Node000012"><a xlink:title=" ">
<path fill="none" stroke="#63b8ff" d="M1143.71,-231.93C1147.99,-223.81 1154.44,-211.54 1159.89,-201.2"/>
<polygon fill="#63b8ff" stroke="#63b8ff" points="1162.98,-202.84 1164.54,-192.37 1156.79,-199.58 1162.98,-202.84"/>
</a>
</g>
</g>
<!-- Node13 -->
<g id="Node000013" class="node">
<title>Node13</title>
<g id="a_Node000013"><a xlink:title=" ">
<polygon fill="#e0e0e0" stroke="#999999" points="2225.62,-74.5 2180.38,-74.5 2180.38,-55.25 2225.62,-55.25 2225.62,-74.5"/>
<text text-anchor="middle" x="2203" y="-61" font-family="Helvetica,sans-Serif" font-size="10.00">cstdint</text>
</a>
</g>
</g>
<!-- Node9&#45;&gt;Node13 -->
<g id="edge13_Node000009_Node000013" class="edge">
<title>Node9&#45;&gt;Node13</title>
<g id="a_edge13_Node000009_Node000013"><a xlink:title=" ">
<path fill="none" stroke="#63b8ff" d="M1166.6,-239.14C1302.82,-230.35 1904.1,-188.79 2081,-129.75 2117.35,-117.62 2156.01,-95.64 2179.83,-80.9"/>
<polygon fill="#63b8ff" stroke="#63b8ff" points="2181.5,-83.98 2188.1,-75.69 2177.77,-78.06 2181.5,-83.98"/>
</a>
</g>
</g>
<!-- Node14 -->
<g id="Node000014" class="node">
<title>Node14</title>
<g id="a_Node000014"><a xlink:title=" ">
<polygon fill="#e0e0e0" stroke="#999999" points="1250,-190.62 1210,-190.62 1210,-171.38 1250,-171.38 1250,-190.62"/>
<text text-anchor="middle" x="1230" y="-177.12" font-family="Helvetica,sans-Serif" font-size="10.00">ctime</text>
</a>
</g>
</g>
<!-- Node9&#45;&gt;Node14 -->
<g id="edge14_Node000009_Node000014" class="edge">
<title>Node9&#45;&gt;Node14</title>
<g id="a_edge14_Node000009_Node000014"><a xlink:title=" ">
<path fill="none" stroke="#63b8ff" d="M1152.82,-231.93C1167.12,-222.68 1189.7,-208.07 1206.75,-197.04"/>
<polygon fill="#63b8ff" stroke="#63b8ff" points="1208.28,-200.22 1214.78,-191.85 1204.48,-194.34 1208.28,-200.22"/>
</a>
</g>
</g>
<!-- Node15 -->
<g id="Node000015" class="node">
<title>Node15</title>
<g id="a_Node000015"><a xlink:title=" ">
<polygon fill="#e0e0e0" stroke="#999999" points="1317.88,-190.62 1268.12,-190.62 1268.12,-171.38 1317.88,-171.38 1317.88,-190.62"/>
<text text-anchor="middle" x="1293" y="-177.12" font-family="Helvetica,sans-Serif" font-size="10.00">iomanip</text>
</a>
</g>
</g>
<!-- Node9&#45;&gt;Node15 -->
<g id="edge15_Node000009_Node000015" class="edge">
<title>Node9&#45;&gt;Node15</title>
<g id="a_edge15_Node000009_Node000015"><a xlink:title=" ">
<path fill="none" stroke="#63b8ff" d="M1164.4,-231.77C1188.77,-222.96 1226.55,-209.08 1259,-196.25 1259.78,-195.94 1260.57,-195.63 1261.37,-195.31"/>
<polygon fill="#63b8ff" stroke="#63b8ff" points="1262.5,-198.63 1270.43,-191.6 1259.85,-192.15 1262.5,-198.63"/>
</a>
</g>
</g>
<!-- Node16 -->
<g id="Node000016" class="node">
<title>Node16</title>
<g id="a_Node000016"><a xlink:title=" ">
<polygon fill="#e0e0e0" stroke="#999999" points="1387.62,-190.62 1336.38,-190.62 1336.38,-171.38 1387.62,-171.38 1387.62,-190.62"/>
<text text-anchor="middle" x="1362" y="-177.12" font-family="Helvetica,sans-Serif" font-size="10.00">sstream</text>
</a>
</g>
</g>
<!-- Node9&#45;&gt;Node16 -->
<g id="edge16_Node000009_Node000016" class="edge">
<title>Node9&#45;&gt;Node16</title>
<g id="a_edge16_Node000009_Node000016"><a xlink:title=" ">
<path fill="none" stroke="#63b8ff" d="M1166.76,-235.68C1203.77,-228.43 1271.09,-214.15 1327,-196.25 1328.16,-195.88 1329.33,-195.49 1330.51,-195.08"/>
<polygon fill="#63b8ff" stroke="#63b8ff" points="1331.54,-198.43 1339.68,-191.65 1329.08,-191.88 1331.54,-198.43"/>
</a>
</g>
</g>
<!-- Node17 -->
<g id="Node000017" class="node">
<title>Node17</title>
<g id="a_Node000017"><a xlink:title=" ">
<polygon fill="#e0e0e0" stroke="#999999" points="1510.25,-190.62 1405.75,-190.62 1405.75,-171.38 1510.25,-171.38 1510.25,-190.62"/>
<text text-anchor="middle" x="1458" y="-177.12" font-family="Helvetica,sans-Serif" font-size="10.00">boost/date_time.hpp</text>
</a>
</g>
</g>
<!-- Node9&#45;&gt;Node17 -->
<g id="edge18_Node000009_Node000017" class="edge">
<title>Node9&#45;&gt;Node17</title>
<g id="a_edge18_Node000009_Node000017"><a xlink:title=" ">
<path fill="none" stroke="#63b8ff" d="M1166.97,-236.58C1214.43,-229.18 1313.7,-213.17 1397,-196.25 1401.08,-195.42 1405.3,-194.52 1409.53,-193.59"/>
<polygon fill="#63b8ff" stroke="#63b8ff" points="1410.19,-197.03 1419.18,-191.42 1408.65,-190.2 1410.19,-197.03"/>
</a>
</g>
</g>
<!-- Node18 -->
<g id="Node000018" class="node">
<title>Node18</title>
<g id="a_Node000018"><a xlink:title=" ">
<polygon fill="#e0e0e0" stroke="#999999" points="434.25,-190.62 293.75,-190.62 293.75,-171.38 434.25,-171.38 434.25,-190.62"/>
<text text-anchor="middle" x="364" y="-177.12" font-family="Helvetica,sans-Serif" font-size="10.00">boost/endian/conversion.hpp</text>
</a>
</g>
</g>
<!-- Node9&#45;&gt;Node18 -->
<g id="edge19_Node000009_Node000018" class="edge">
<title>Node9&#45;&gt;Node18</title>
<g id="a_edge19_Node000009_Node000018"><a xlink:title=" ">
<path fill="none" stroke="#63b8ff" d="M1111.09,-240.21C1016.87,-237.71 702.08,-227.42 444,-196.25 436.57,-195.35 428.78,-194.21 421.1,-192.97"/>
<polygon fill="#63b8ff" stroke="#63b8ff" points="421.91,-189.56 411.47,-191.35 420.75,-196.46 421.91,-189.56"/>
</a>
</g>
</g>
<!-- Node19 -->
<g id="Node000019" class="node">
<title>Node19</title>
<g id="a_Node000019"><a xlink:title=" ">
<polygon fill="#e0e0e0" stroke="#999999" points="553.38,-190.62 452.62,-190.62 452.62,-171.38 553.38,-171.38 553.38,-190.62"/>
<text text-anchor="middle" x="503" y="-177.12" font-family="Helvetica,sans-Serif" font-size="10.00">boost/uuid/uuid.hpp</text>
</a>
</g>
</g>
<!-- Node9&#45;&gt;Node19 -->
<g id="edge20_Node000009_Node000019" class="edge">
<title>Node9&#45;&gt;Node19</title>
<g id="a_edge20_Node000009_Node000019"><a xlink:title=" ">
<path fill="none" stroke="#63b8ff" d="M1111.19,-240.3C1027.59,-238.23 771.39,-229.42 562,-196.25 557.32,-195.51 552.46,-194.59 547.63,-193.57"/>
<polygon fill="#63b8ff" stroke="#63b8ff" points="548.51,-190.18 537.99,-191.41 546.98,-197.01 548.51,-190.18"/>
</a>
</g>
</g>
<!-- Node20 -->
<g id="Node000020" class="node">
<title>Node20</title>
<g id="a_Node000020"><a xlink:title=" ">
<polygon fill="#e0e0e0" stroke="#999999" points="722.88,-190.62 571.12,-190.62 571.12,-171.38 722.88,-171.38 722.88,-190.62"/>
<text text-anchor="middle" x="647" y="-177.12" font-family="Helvetica,sans-Serif" font-size="10.00">boost/uuid/uuid_generators.hpp</text>
</a>
</g>
</g>
<!-- Node9&#45;&gt;Node20 -->
<g id="edge21_Node000009_Node000020" class="edge">
<title>Node9&#45;&gt;Node20</title>
<g id="a_edge21_Node000009_Node000020"><a xlink:title=" ">
<path fill="none" stroke="#63b8ff" d="M1111.3,-238.39C1045.41,-232.35 874.23,-215.95 732,-196.25 724.63,-195.23 716.92,-194.07 709.27,-192.86"/>
<polygon fill="#63b8ff" stroke="#63b8ff" points="710.09,-189.45 699.66,-191.3 708.98,-196.36 710.09,-189.45"/>
</a>
</g>
</g>
<!-- Node21 -->
<g id="Node000021" class="node">
<title>Node21</title>
<g id="a_Node000021"><a xlink:title=" ">
<polygon fill="#e0e0e0" stroke="#999999" points="854.75,-190.62 741.25,-190.62 741.25,-171.38 854.75,-171.38 854.75,-190.62"/>
<text text-anchor="middle" x="798" y="-177.12" font-family="Helvetica,sans-Serif" font-size="10.00">boost/uuid/uuid_io.hpp</text>
</a>
</g>
</g>
<!-- Node9&#45;&gt;Node21 -->
<g id="edge22_Node000009_Node000021" class="edge">
<title>Node9&#45;&gt;Node21</title>
<g id="a_edge22_Node000009_Node000021"><a xlink:title=" ">
<path fill="none" stroke="#63b8ff" d="M1111.2,-236.85C1061.48,-229.54 954.06,-213.27 864,-196.25 859.33,-195.37 854.49,-194.41 849.65,-193.42"/>
<polygon fill="#63b8ff" stroke="#63b8ff" points="850.41,-190 839.9,-191.38 848.98,-196.85 850.41,-190"/>
</a>
</g>
</g>
<!-- Node22 -->
<g id="Node000022" class="node">
<title>Node22</title>
<g id="a_Node000022"><a xlink:title=" ">
<polygon fill="#e0e0e0" stroke="#999999" points="992.75,-196.25 873.25,-196.25 873.25,-165.75 992.75,-165.75 992.75,-196.25"/>
<text text-anchor="start" x="881.25" y="-182.75" font-family="Helvetica,sans-Serif" font-size="10.00">boost/date_time/c_local</text>
<text text-anchor="middle" x="933" y="-171.5" font-family="Helvetica,sans-Serif" font-size="10.00">_time_adjustor.hpp</text>
</a>
</g>
</g>
<!-- Node9&#45;&gt;Node22 -->
<g id="edge23_Node000009_Node000022" class="edge">
<title>Node9&#45;&gt;Node22</title>
<g id="a_edge23_Node000009_Node000022"><a xlink:title=" ">
<path fill="none" stroke="#63b8ff" d="M1111.22,-232.93C1081.6,-224.47 1033.75,-210.79 995.08,-199.74"/>
<polygon fill="#63b8ff" stroke="#63b8ff" points="996.48,-196.5 985.9,-197.12 994.55,-203.23 996.48,-196.5"/>
</a>
</g>
</g>
<!-- Node9&#45;&gt;Node23 -->
<g id="edge24_Node000009_Node000023" class="edge">
<title>Node9&#45;&gt;Node23</title>
<g id="a_edge24_Node000009_Node000023"><a xlink:title=" ">
<path fill="none" stroke="#63b8ff" d="M1166.78,-240.48C1258.93,-238.87 1553.61,-231.04 1641,-196.25 1649.62,-192.82 1691.49,-158.42 1716.68,-137.38"/>
<polygon fill="#63b8ff" stroke="#63b8ff" points="1718.84,-140.14 1724.25,-131.04 1714.34,-134.78 1718.84,-140.14"/>
</a>
</g>
</g>
<!-- Node30 -->
<g id="Node000030" class="node">
<title>Node30</title>
<g id="a_Node000030"><a xlink:href="_h_d_f5_i_o_8hpp.html" target="_top" xlink:title=" ">
<polygon fill="white" stroke="#666666" points="1631.88,-190.62 1528.12,-190.62 1528.12,-171.38 1631.88,-171.38 1631.88,-190.62"/>
<text text-anchor="middle" x="1580" y="-177.12" font-family="Helvetica,sans-Serif" font-size="10.00">io/hdf5/HDF5IO.hpp</text>
</a>
</g>
</g>
<!-- Node9&#45;&gt;Node30 -->
<g id="edge35_Node000009_Node000030" class="edge">
<title>Node9&#45;&gt;Node30</title>
<g id="a_edge35_Node000009_Node000030"><a xlink:title=" ">
<path fill="none" stroke="#63b8ff" d="M1166.81,-238.69C1229.81,-233.5 1388.14,-219.14 1519,-196.25 1523.58,-195.45 1528.33,-194.52 1533.07,-193.52"/>
<polygon fill="#63b8ff" stroke="#63b8ff" points="1533.52,-197.01 1542.53,-191.44 1532.02,-190.17 1533.52,-197.01"/>
</a>
</g>
</g>
<!-- Node23&#45;&gt;Node3 -->
<g id="edge29_Node000023_Node000003" class="edge">
<title>Node23&#45;&gt;Node3</title>
<g id="a_edge29_Node000023_Node000003"><a xlink:title=" ">
<path fill="none" stroke="#63b8ff" d="M1696.39,-116.98C1660.93,-115.1 1607.5,-112.39 1561,-110.5 1017.25,-88.37 353.47,-70.62 202.53,-66.69"/>
<polygon fill="#63b8ff" stroke="#63b8ff" points="203.01,-63.2 192.92,-66.44 202.83,-70.2 203.01,-63.2"/>
</a>
</g>
</g>
<!-- Node23&#45;&gt;Node6 -->
<g id="edge34_Node000023_Node000006" class="edge">
<title>Node23&#45;&gt;Node6</title>
<g id="a_edge34_Node000023_Node000006"><a xlink:title=" ">
<path fill="none" stroke="#63b8ff" d="M1702.07,-110.09C1667.73,-100.95 1614.58,-86.8 1577.69,-76.98"/>
<polygon fill="#63b8ff" stroke="#63b8ff" points="1578.83,-73.66 1568.27,-74.47 1577.03,-80.42 1578.83,-73.66"/>
</a>
</g>
</g>
<!-- Node23&#45;&gt;Node8 -->
<g id="edge32_Node000023_Node000008" class="edge">
<title>Node23&#45;&gt;Node8</title>
<g id="a_edge32_Node000023_Node000008"><a xlink:title=" ">
<path fill="none" stroke="#63b8ff" d="M1721.91,-110.15C1710.4,-102.12 1694.53,-89.35 1685,-74.5 1676.48,-61.22 1671.64,-43.96 1668.98,-30.72"/>
<polygon fill="#63b8ff" stroke="#63b8ff" points="1672.46,-30.29 1667.31,-21.03 1665.56,-31.48 1672.46,-30.29"/>
</a>
</g>
</g>
<!-- Node23&#45;&gt;Node13 -->
<g id="edge26_Node000023_Node000013" class="edge">
<title>Node23&#45;&gt;Node13</title>
<g id="a_edge26_Node000023_Node000013"><a xlink:title=" ">
<path fill="none" stroke="#63b8ff" d="M1775.59,-117.2C1850.52,-113.1 2018.28,-101.74 2168.77,-74.61"/>
<polygon fill="#63b8ff" stroke="#63b8ff" points="2169.34,-78.06 2178.54,-72.81 2168.07,-71.18 2169.34,-78.06"/>
</a>
</g>
</g>
<!-- Node24 -->
<g id="Node000024" class="node">
<title>Node24</title>
<g id="a_Node000024"><a xlink:title=" ">
<polygon fill="#e0e0e0" stroke="#999999" points="2047.88,-74.5 2016.12,-74.5 2016.12,-55.25 2047.88,-55.25 2047.88,-74.5"/>
<text text-anchor="middle" x="2032" y="-61" font-family="Helvetica,sans-Serif" font-size="10.00">any</text>
</a>
</g>
</g>
<!-- Node23&#45;&gt;Node24 -->
<g id="edge25_Node000023_Node000024" class="edge">
<title>Node23&#45;&gt;Node24</title>
<g id="a_edge25_Node000023_Node000024"><a xlink:title=" ">
<path fill="none" stroke="#63b8ff" d="M1775.47,-114.75C1826.44,-108.64 1917.97,-96.1 2004.62,-74.73"/>
<polygon fill="#63b8ff" stroke="#63b8ff" points="2005.4,-78.14 2014.25,-72.31 2003.69,-71.35 2005.4,-78.14"/>
</a>
</g>
</g>
<!-- Node25 -->
<g id="Node000025" class="node">
<title>Node25</title>
<g id="a_Node000025"><a xlink:title=" ">
<polygon fill="#e0e0e0" stroke="#999999" points="1637.75,-74.5 1584.25,-74.5 1584.25,-55.25 1637.75,-55.25 1637.75,-74.5"/>
<text text-anchor="middle" x="1611" y="-61" font-family="Helvetica,sans-Serif" font-size="10.00">iostream</text>
</a>
</g>
</g>
<!-- Node23&#45;&gt;Node25 -->
<g id="edge27_Node000023_Node000025" class="edge">
<title>Node23&#45;&gt;Node25</title>
<g id="a_edge27_Node000023_Node000025"><a xlink:title=" ">
<path fill="none" stroke="#63b8ff" d="M1714.8,-110.09C1695.04,-101.68 1665.33,-89.02 1642.75,-79.4"/>
<polygon fill="#63b8ff" stroke="#63b8ff" points="1644.27,-76.24 1633.7,-75.55 1641.53,-82.68 1644.27,-76.24"/>
</a>
</g>
</g>
<!-- Node26 -->
<g id="Node000026" class="node">
<title>Node26</title>
<g id="a_Node000026"><a xlink:title=" ">
<polygon fill="#e0e0e0" stroke="#999999" points="2294.62,-74.5 2243.38,-74.5 2243.38,-55.25 2294.62,-55.25 2294.62,-74.5"/>
<text text-anchor="middle" x="2269" y="-61" font-family="Helvetica,sans-Serif" font-size="10.00">memory</text>
</a>
</g>
</g>
<!-- Node23&#45;&gt;Node26 -->
<g id="edge28_Node000023_Node000026" class="edge">
<title>Node23&#45;&gt;Node26</title>
<g id="a_edge28_Node000023_Node000026"><a xlink:title=" ">
<path fill="none" stroke="#63b8ff" d="M1775.41,-117.73C1858.31,-114.35 2056.88,-103.85 2231.88,-74.79"/>
<polygon fill="#63b8ff" stroke="#63b8ff" points="2232.33,-78.27 2241.61,-73.15 2231.17,-71.36 2232.33,-78.27"/>
</a>
</g>
</g>
<!-- Node27 -->
<g id="Node000027" class="node">
<title>Node27</title>
<g id="a_Node000027"><a xlink:title=" ">
<polygon fill="#e0e0e0" stroke="#999999" points="1776.38,-74.5 1693.62,-74.5 1693.62,-55.25 1776.38,-55.25 1776.38,-74.5"/>
<text text-anchor="middle" x="1735" y="-61" font-family="Helvetica,sans-Serif" font-size="10.00">unordered_map</text>
</a>
</g>
</g>
<!-- Node23&#45;&gt;Node27 -->
<g id="edge30_Node000023_Node000027" class="edge">
<title>Node23&#45;&gt;Node27</title>
<g id="a_edge30_Node000023_Node000027"><a xlink:title=" ">
<path fill="none" stroke="#63b8ff" d="M1735.83,-110.33C1735.71,-103.82 1735.54,-94.67 1735.38,-86.37"/>
<polygon fill="#63b8ff" stroke="#63b8ff" points="1738.88,-86.3 1735.2,-76.37 1731.89,-86.44 1738.88,-86.3"/>
</a>
</g>
</g>
<!-- Node28 -->
<g id="Node000028" class="node">
<title>Node28</title>
<g id="a_Node000028"><a xlink:title=" ">
<polygon fill="#e0e0e0" stroke="#999999" points="1871.75,-74.5 1794.25,-74.5 1794.25,-55.25 1871.75,-55.25 1871.75,-74.5"/>
<text text-anchor="middle" x="1833" y="-61" font-family="Helvetica,sans-Serif" font-size="10.00">unordered_set</text>
</a>
</g>
</g>
<!-- Node23&#45;&gt;Node28 -->
<g id="edge31_Node000023_Node000028" class="edge">
<title>Node23&#45;&gt;Node28</title>
<g id="a_edge31_Node000023_Node000028"><a xlink:title=" ">
<path fill="none" stroke="#63b8ff" d="M1752.45,-110.09C1767.23,-101.98 1789.18,-89.93 1806.43,-80.46"/>
<polygon fill="#63b8ff" stroke="#63b8ff" points="1808.06,-83.56 1815.14,-75.68 1804.69,-77.43 1808.06,-83.56"/>
</a>
</g>
</g>
<!-- Node29 -->
<g id="Node000029" class="node">
<title>Node29</title>
<g id="a_Node000029"><a xlink:title=" ">
<polygon fill="#e0e0e0" stroke="#999999" points="1998.12,-74.5 1889.88,-74.5 1889.88,-55.25 1998.12,-55.25 1998.12,-74.5"/>
<text text-anchor="middle" x="1944" y="-61" font-family="Helvetica,sans-Serif" font-size="10.00">boost/multi_array.hpp</text>
</a>
</g>
</g>
<!-- Node23&#45;&gt;Node29 -->
<g id="edge33_Node000023_Node000029" class="edge">
<title>Node23&#45;&gt;Node29</title>
<g id="a_edge33_Node000023_Node000029"><a xlink:title=" ">
<path fill="none" stroke="#63b8ff" d="M1771.28,-110.09C1806.1,-101.18 1859.5,-87.51 1897.71,-77.73"/>
<polygon fill="#63b8ff" stroke="#63b8ff" points="1898.26,-81.2 1907.08,-75.33 1896.52,-74.42 1898.26,-81.2"/>
</a>
</g>
</g>
<!-- Node30&#45;&gt;Node3 -->
<g id="edge38_Node000030_Node000003" class="edge">
<title>Node30&#45;&gt;Node3</title>
<g id="a_edge38_Node000030_Node000003"><a xlink:title=" ">
<path fill="none" stroke="#63b8ff" d="M1545.34,-170.92C1536.78,-168.95 1527.6,-167.06 1519,-165.75 997.23,-85.97 351.72,-69.28 202.7,-66.41"/>
<polygon fill="#63b8ff" stroke="#63b8ff" points="202.9,-62.91 192.83,-66.22 202.77,-69.91 202.9,-62.91"/>
</a>
</g>
</g>
<!-- Node30&#45;&gt;Node6 -->
<g id="edge40_Node000030_Node000006" class="edge">
<title>Node30&#45;&gt;Node6</title>
<g id="a_edge40_Node000030_Node000006"><a xlink:title=" ">
<path fill="none" stroke="#63b8ff" d="M1578.32,-171.22C1575.59,-157.81 1569.63,-131.57 1561,-110.5 1557.39,-101.67 1552.4,-92.4 1547.84,-84.61"/>
<polygon fill="#63b8ff" stroke="#63b8ff" points="1550.83,-82.79 1542.64,-76.07 1544.85,-86.43 1550.83,-82.79"/>
</a>
</g>
</g>
<!-- Node30&#45;&gt;Node23 -->
<g id="edge41_Node000030_Node000023" class="edge">
<title>Node30&#45;&gt;Node23</title>
<g id="a_edge41_Node000030_Node000023"><a xlink:title=" ">
<path fill="none" stroke="#63b8ff" d="M1604.03,-170.93C1630.03,-161.12 1671.71,-145.39 1701.26,-134.23"/>
<polygon fill="#63b8ff" stroke="#63b8ff" points="1702.4,-137.55 1710.52,-130.74 1699.93,-131 1702.4,-137.55"/>
</a>
</g>
</g>
<!-- Node30&#45;&gt;Node25 -->
<g id="edge36_Node000030_Node000025" class="edge">
<title>Node30&#45;&gt;Node25</title>
<g id="a_edge36_Node000030_Node000025"><a xlink:title=" ">
<path fill="none" stroke="#63b8ff" d="M1582.51,-171.11C1585.34,-161.08 1590.05,-144.25 1594,-129.75 1597.98,-115.13 1602.38,-98.61 1605.7,-86.03"/>
<polygon fill="#63b8ff" stroke="#63b8ff" points="1609.06,-87.01 1608.23,-76.44 1602.29,-85.22 1609.06,-87.01"/>
</a>
</g>
</g>
<!-- Node30&#45;&gt;Node26 -->
<g id="edge37_Node000030_Node000026" class="edge">
<title>Node30&#45;&gt;Node26</title>
<g id="a_edge37_Node000030_Node000026"><a xlink:title=" ">
<path fill="none" stroke="#63b8ff" d="M1632.17,-178.66C1723.93,-175.46 1919.76,-164.75 2081,-129.75 2137.17,-117.56 2199.93,-94.15 2236.86,-79.31"/>
<polygon fill="#63b8ff" stroke="#63b8ff" points="2238.11,-82.58 2246.06,-75.57 2235.48,-76.09 2238.11,-82.58"/>
</a>
</g>
</g>
<!-- Node31 -->
<g id="Node000031" class="node">
<title>Node31</title>
<g id="a_Node000031"><a xlink:title=" ">
<polygon fill="#e0e0e0" stroke="#999999" points="1552,-129.75 1482,-129.75 1482,-110.5 1552,-110.5 1552,-129.75"/>
<text text-anchor="middle" x="1517" y="-116.25" font-family="Helvetica,sans-Serif" font-size="10.00">H5Opublic.h</text>
</a>
</g>
</g>
<!-- Node30&#45;&gt;Node31 -->
<g id="edge39_Node000030_Node000031" class="edge">
<title>Node30&#45;&gt;Node31</title>
<g id="a_edge39_Node000030_Node000031"><a xlink:title=" ">
<path fill="none" stroke="#63b8ff" d="M1570.43,-171.06C1561,-162.24 1546.35,-148.55 1534.77,-137.73"/>
<polygon fill="#63b8ff" stroke="#63b8ff" points="1537.46,-135.46 1527.76,-131.18 1532.68,-140.57 1537.46,-135.46"/>
</a>
</g>
</g>
<!-- Node30&#45;&gt;Node32 -->
<g id="edge42_Node000030_Node000032" class="edge">
<title>Node30&#45;&gt;Node32</title>
<g id="a_edge42_Node000030_Node000032"><a xlink:title=" ">
<path fill="none" stroke="#63b8ff" d="M1632.29,-173.19C1719.61,-161.82 1894.02,-139.1 1980.68,-127.81"/>
<polygon fill="#63b8ff" stroke="#63b8ff" points="1981.1,-131.29 1990.56,-126.52 1980.19,-124.34 1981.1,-131.29"/>
</a>
</g>
</g>
<!-- Node32&#45;&gt;Node3 -->
<g id="edge47_Node000032_Node000003" class="edge">
<title>Node32&#45;&gt;Node3</title>
<g id="a_edge47_Node000032_Node000003"><a xlink:title=" ">
<path fill="none" stroke="#63b8ff" d="M1992.06,-117.65C1943.05,-115.86 1857.42,-112.79 1784,-110.5 1146.83,-90.61 367.94,-70.82 202.72,-66.67"/>
<polygon fill="#63b8ff" stroke="#63b8ff" points="203.08,-63.18 192.99,-66.42 202.9,-70.17 203.08,-63.18"/>
</a>
</g>
</g>
<!-- Node32&#45;&gt;Node6 -->
<g id="edge51_Node000032_Node000006" class="edge">
<title>Node32&#45;&gt;Node6</title>
<g id="a_edge51_Node000032_Node000006"><a xlink:title=" ">
<path fill="none" stroke="#63b8ff" d="M1992.06,-116.85C1914.17,-112.05 1736.36,-99.4 1577.51,-74.73"/>
<polygon fill="#63b8ff" stroke="#63b8ff" points="1578.51,-71.34 1568.09,-73.24 1577.42,-78.25 1578.51,-71.34"/>
</a>
</g>
</g>
<!-- Node32&#45;&gt;Node8 -->
<g id="edge49_Node000032_Node000008" class="edge">
<title>Node32&#45;&gt;Node8</title>
<g id="a_edge49_Node000032_Node000008"><a xlink:title=" ">
<path fill="none" stroke="#63b8ff" d="M2040.68,-110.25C2052.71,-96.88 2071.43,-71.42 2057,-55.25 2033.32,-28.72 1789.58,-15.83 1699.35,-11.94"/>
<polygon fill="#63b8ff" stroke="#63b8ff" points="1699.57,-8.44 1689.43,-11.52 1699.28,-15.44 1699.57,-8.44"/>
</a>
</g>
</g>
<!-- Node32&#45;&gt;Node13 -->
<g id="edge44_Node000032_Node000013" class="edge">
<title>Node32&#45;&gt;Node13</title>
<g id="a_edge44_Node000032_Node000013"><a xlink:title=" ">
<path fill="none" stroke="#63b8ff" d="M2061.01,-110.09C2090.88,-100.79 2137.41,-86.3 2168.99,-76.47"/>
<polygon fill="#63b8ff" stroke="#63b8ff" points="2169.94,-79.84 2178.45,-73.52 2167.86,-73.15 2169.94,-79.84"/>
</a>
</g>
</g>
<!-- Node32&#45;&gt;Node24 -->
<g id="edge43_Node000032_Node000024" class="edge">
<title>Node32&#45;&gt;Node24</title>
<g id="a_edge43_Node000032_Node000024"><a xlink:title=" ">
<path fill="none" stroke="#63b8ff" d="M2032,-110.33C2032,-103.82 2032,-94.67 2032,-86.37"/>
<polygon fill="#63b8ff" stroke="#63b8ff" points="2035.5,-86.37 2032,-76.37 2028.5,-86.37 2035.5,-86.37"/>
</a>
</g>
</g>
<!-- Node32&#45;&gt;Node25 -->
<g id="edge45_Node000032_Node000025" class="edge">
<title>Node32&#45;&gt;Node25</title>
<g id="a_edge45_Node000032_Node000025"><a xlink:title=" ">
<path fill="none" stroke="#63b8ff" d="M1992.01,-114.07C1911.02,-103.82 1728.56,-80.74 1649.14,-70.7"/>
<polygon fill="#63b8ff" stroke="#63b8ff" points="1650.06,-67.29 1639.7,-69.5 1649.18,-74.23 1650.06,-67.29"/>
</a>
</g>
</g>
<!-- Node32&#45;&gt;Node26 -->
<g id="edge46_Node000032_Node000026" class="edge">
<title>Node32&#45;&gt;Node26</title>
<g id="a_edge46_Node000032_Node000026"><a xlink:title=" ">
<path fill="none" stroke="#63b8ff" d="M2071.76,-110.78C2110.43,-102.57 2171.1,-89.47 2232.05,-75.15"/>
<polygon fill="#63b8ff" stroke="#63b8ff" points="2232.63,-78.61 2241.56,-72.9 2231.02,-71.79 2232.63,-78.61"/>
</a>
</g>
</g>
<!-- Node32&#45;&gt;Node29 -->
<g id="edge50_Node000032_Node000029" class="edge">
<title>Node32&#45;&gt;Node29</title>
<g id="a_edge50_Node000032_Node000029"><a xlink:title=" ">
<path fill="none" stroke="#63b8ff" d="M2017.07,-110.09C2003.8,-102.06 1984.13,-90.16 1968.55,-80.73"/>
<polygon fill="#63b8ff" stroke="#63b8ff" points="1970.66,-77.92 1960.3,-75.74 1967.04,-83.91 1970.66,-77.92"/>
</a>
</g>
</g>
<!-- Node33 -->
<g id="Node000033" class="node">
<title>Node33</title>
<g id="a_Node000033"><a xlink:title=" ">
<polygon fill="#e0e0e0" stroke="#999999" points="2162,-74.5 2104,-74.5 2104,-55.25 2162,-55.25 2162,-74.5"/>
<text text-anchor="middle" x="2133" y="-61" font-family="Helvetica,sans-Serif" font-size="10.00">typeindex</text>
</a>
</g>
</g>
<!-- Node32&#45;&gt;Node33 -->
<g id="edge48_Node000032_Node000033" class="edge">
<title>Node32&#45;&gt;Node33</title>
<g id="a_edge48_Node000032_Node000033"><a xlink:title=" ">
<path fill="none" stroke="#63b8ff" d="M2049.13,-110.09C2064.66,-101.91 2087.8,-89.71 2105.84,-80.19"/>
<polygon fill="#63b8ff" stroke="#63b8ff" points="2107.23,-83.42 2114.44,-75.66 2103.97,-77.23 2107.23,-83.42"/>
</a>
</g>
</g>
<!-- Node34&#45;&gt;Node3 -->
<g id="edge55_Node000034_Node000003" class="edge">
<title>Node34&#45;&gt;Node3</title>
<g id="a_edge55_Node000034_Node000003"><a xlink:title=" ">
<path fill="none" stroke="#63b8ff" d="M365.47,-452.86C329.88,-421.66 213.71,-313.76 167,-196.25 152.89,-160.75 156.8,-148.47 161,-110.5 161.91,-102.31 163.72,-93.43 165.56,-85.76"/>
<polygon fill="#63b8ff" stroke="#63b8ff" points="168.93,-86.69 168.05,-76.13 162.16,-84.94 168.93,-86.69"/>
</a>
</g>
</g>
<!-- Node34&#45;&gt;Node4 -->
<g id="edge56_Node000034_Node000004" class="edge">
<title>Node34&#45;&gt;Node4</title>
<g id="a_edge56_Node000034_Node000004"><a xlink:title=" ">
<path fill="none" stroke="#63b8ff" d="M344.45,-452.84C313.72,-444.04 266.79,-430.61 232.72,-420.86"/>
<polygon fill="#63b8ff" stroke="#63b8ff" points="233.74,-417.51 223.16,-418.12 231.81,-424.24 233.74,-417.51"/>
</a>
</g>
</g>
<!-- Node34&#45;&gt;Node9 -->
<g id="edge57_Node000034_Node000009" class="edge">
<title>Node34&#45;&gt;Node9</title>
<g id="a_edge57_Node000034_Node000009"><a xlink:title=" ">
<path fill="none" stroke="#63b8ff" d="M407.33,-452.88C528.59,-418.08 966.88,-292.28 1100.23,-254"/>
<polygon fill="#63b8ff" stroke="#63b8ff" points="1101,-257.42 1109.65,-251.3 1099.07,-250.69 1101,-257.42"/>
</a>
</g>
</g>
<!-- Node34&#45;&gt;Node23 -->
<g id="edge58_Node000034_Node000023" class="edge">
<title>Node34&#45;&gt;Node23</title>
<g id="a_edge58_Node000034_Node000023"><a xlink:title=" ">
<path fill="none" stroke="#63b8ff" d="M454.48,-452.75C702.22,-422.89 1463.69,-322.7 1674,-196.25 1696.8,-182.54 1715,-157.3 1725.63,-139.89"/>
<polygon fill="#63b8ff" stroke="#63b8ff" points="1728.49,-141.94 1730.49,-131.54 1722.44,-138.42 1728.49,-141.94"/>
</a>
</g>
</g>
<!-- Node34&#45;&gt;Node32 -->
<g id="edge59_Node000034_Node000032" class="edge">
<title>Node34&#45;&gt;Node32</title>
<g id="a_edge59_Node000034_Node000032"><a xlink:title=" ">
<path fill="none" stroke="#63b8ff" d="M458.15,-461.32C812.47,-458.42 2192,-441.46 2192,-353.38 2192,-353.38 2192,-353.38 2192,-240.88 2192,-183.1 2124.3,-149.82 2076.97,-133.61"/>
<polygon fill="#63b8ff" stroke="#63b8ff" points="2078.36,-130.38 2067.76,-130.6 2076.18,-137.03 2078.36,-130.38"/>
</a>
</g>
</g>
<!-- Node35 -->
<g id="Node000035" class="node">
<title>Node35</title>
<g id="a_Node000035"><a xlink:href="_time_series_8hpp.html" target="_top" xlink:title=" ">
<polygon fill="white" stroke="#666666" points="1800.62,-417.25 1671.38,-417.25 1671.38,-398 1800.62,-398 1800.62,-417.25"/>
<text text-anchor="middle" x="1736" y="-403.75" font-family="Helvetica,sans-Serif" font-size="10.00">nwb/base/TimeSeries.hpp</text>
</a>
</g>
</g>
<!-- Node34&#45;&gt;Node35 -->
<g id="edge60_Node000034_Node000035" class="edge">
<title>Node34&#45;&gt;Node35</title>
<g id="a_edge60_Node000034_Node000035"><a xlink:title=" ">
<path fill="none" stroke="#63b8ff" d="M458.26,-458.65C702.9,-449.08 1423.49,-420.86 1659.91,-411.6"/>
<polygon fill="#63b8ff" stroke="#63b8ff" points="1659.77,-415.11 1669.62,-411.22 1659.49,-408.12 1659.77,-415.11"/>
</a>
</g>
</g>
<!-- Node35&#45;&gt;Node3 -->
<g id="edge62_Node000035_Node000003" class="edge">
<title>Node35&#45;&gt;Node3</title>
<g id="a_edge62_Node000035_Node000003"><a xlink:title=" ">
<path fill="none" stroke="#63b8ff" d="M1671.18,-403.84C1422.96,-392.54 533.65,-346.18 269,-251.5 226.93,-236.45 210.69,-232.81 185,-196.25 161.84,-163.29 164.01,-113.59 167.56,-86.05"/>
<polygon fill="#63b8ff" stroke="#63b8ff" points="171,-86.7 169.03,-76.29 164.08,-85.65 171,-86.7"/>
</a>
</g>
</g>
<!-- Node35&#45;&gt;Node9 -->
<g id="edge63_Node000035_Node000009" class="edge">
<title>Node35&#45;&gt;Node9</title>
<g id="a_edge63_Node000035_Node000009"><a xlink:title=" ">
<path fill="none" stroke="#63b8ff" d="M1703.05,-397.59C1600.59,-369.48 1287.84,-283.7 1177.8,-253.52"/>
<polygon fill="#63b8ff" stroke="#63b8ff" points="1178.93,-250.2 1168.36,-250.93 1177.08,-256.95 1178.93,-250.2"/>
</a>
</g>
</g>
<!-- Node35&#45;&gt;Node13 -->
<g id="edge61_Node000035_Node000013" class="edge">
<title>Node35&#45;&gt;Node13</title>
<g id="a_edge61_Node000035_Node000013"><a xlink:title=" ">
<path fill="none" stroke="#63b8ff" d="M1800.73,-403.19C1915.76,-393.09 2152.27,-353.27 2244,-196.25 2265.45,-159.53 2236.78,-110.33 2217.64,-84.12"/>
<polygon fill="#63b8ff" stroke="#63b8ff" points="2220.44,-82.01 2211.59,-76.18 2214.87,-86.25 2220.44,-82.01"/>
</a>
</g>
</g>
<!-- Node35&#45;&gt;Node23 -->
<g id="edge64_Node000035_Node000023" class="edge">
<title>Node35&#45;&gt;Node23</title>
<g id="a_edge64_Node000035_Node000023"><a xlink:title=" ">
<path fill="none" stroke="#63b8ff" d="M1736,-397.62C1736,-379.03 1736,-335.05 1736,-298.12 1736,-298.12 1736,-298.12 1736,-240.88 1736,-205.97 1736,-165.34 1736,-141.51"/>
<polygon fill="#63b8ff" stroke="#63b8ff" points="1739.5,-141.65 1736,-131.65 1732.5,-141.65 1739.5,-141.65"/>
</a>
</g>
</g>
<!-- Node35&#45;&gt;Node32 -->
<g id="edge65_Node000035_Node000032" class="edge">
<title>Node35&#45;&gt;Node32</title>
<g id="a_edge65_Node000035_Node000032"><a xlink:title=" ">
<path fill="none" stroke="#63b8ff" d="M1800.81,-402.65C1839.12,-397.65 1887.01,-386.53 1923,-362 1995.86,-312.35 2009.12,-281.4 2032,-196.25 2036.86,-178.14 2036.27,-156.68 2034.81,-141.35"/>
<polygon fill="#63b8ff" stroke="#63b8ff" points="2038.31,-141.13 2033.66,-131.61 2031.35,-141.95 2038.31,-141.13"/>
</a>
</g>
</g>
<!-- Node36 -->
<g id="Node000036" class="node">
<title>Node36</title>
<g id="a_Node000036"><a xlink:href="_container_8hpp.html" target="_top" xlink:title=" ">
<polygon fill="white" stroke="#666666" points="1913.88,-362 1768.12,-362 1768.12,-342.75 1913.88,-342.75 1913.88,-362"/>
<text text-anchor="middle" x="1841" y="-348.5" font-family="Helvetica,sans-Serif" font-size="10.00">nwb/hdmf/base/Container.hpp</text>
</a>
</g>
</g>
<!-- Node35&#45;&gt;Node36 -->
<g id="edge66_Node000035_Node000036" class="edge">
<title>Node35&#45;&gt;Node36</title>
<g id="a_edge66_Node000035_Node000036"><a xlink:title=" ">
<path fill="none" stroke="#63b8ff" d="M1753.81,-397.59C1770.03,-389.37 1794.24,-377.09 1813.03,-367.56"/>
<polygon fill="#63b8ff" stroke="#63b8ff" points="1814.42,-370.78 1821.75,-363.14 1811.25,-364.54 1814.42,-370.78"/>
</a>
</g>
</g>
<!-- Node36&#45;&gt;Node3 -->
<g id="edge68_Node000036_Node000003" class="edge">
<title>Node36&#45;&gt;Node3</title>
<g id="a_edge68_Node000036_Node000003"><a xlink:title=" ">
<path fill="none" stroke="#63b8ff" d="M1767.86,-347.73C1571.75,-337.51 1018,-305.73 560,-251.5 404.92,-233.14 337.67,-290.29 213,-196.25 178.6,-170.3 171.86,-115.78 170.85,-86.12"/>
<polygon fill="#63b8ff" stroke="#63b8ff" points="174.35,-86.23 170.73,-76.28 167.35,-86.32 174.35,-86.23"/>
</a>
</g>
</g>
<!-- Node36&#45;&gt;Node26 -->
<g id="edge67_Node000036_Node000026" class="edge">
<title>Node36&#45;&gt;Node26</title>
<g id="a_edge67_Node000036_Node000026"><a xlink:title=" ">
<path fill="none" stroke="#63b8ff" d="M1864.91,-342.31C1928.88,-317.11 2106.64,-240.65 2218,-129.75 2232.42,-115.39 2246.69,-97.07 2256.46,-83.73"/>
<polygon fill="#63b8ff" stroke="#63b8ff" points="2259.1,-86.05 2262.09,-75.89 2253.41,-81.97 2259.1,-86.05"/>
</a>
</g>
</g>
<!-- Node37 -->
<g id="Node000037" class="node">
<title>Node37</title>
<g id="a_Node000037"><a xlink:href="_registered_type_8hpp.html" target="_top" xlink:title=" ">
<polygon fill="white" stroke="#666666" points="1906,-306.75 1782,-306.75 1782,-287.5 1906,-287.5 1906,-306.75"/>
<text text-anchor="middle" x="1844" y="-293.25" font-family="Helvetica,sans-Serif" font-size="10.00">nwb/RegisteredType.hpp</text>
</a>
</g>
</g>
<!-- Node36&#45;&gt;Node37 -->
<g id="edge69_Node000036_Node000037" class="edge">
<title>Node36&#45;&gt;Node37</title>
<g id="a_edge69_Node000036_Node000037"><a xlink:title=" ">
<path fill="none" stroke="#63b8ff" d="M1841.5,-342.58C1841.87,-335.99 1842.39,-326.71 1842.86,-318.32"/>
<polygon fill="#63b8ff" stroke="#63b8ff" points="1846.34,-318.8 1843.41,-308.62 1839.35,-318.41 1846.34,-318.8"/>
</a>
</g>
</g>
<!-- Node37&#45;&gt;Node3 -->
<g id="edge72_Node000037_Node000003" class="edge">
<title>Node37&#45;&gt;Node3</title>
<g id="a_edge72_Node000037_Node000003"><a xlink:title=" ">
<path fill="none" stroke="#63b8ff" d="M1781.62,-293.72C1495.41,-282.51 318.94,-234.26 251,-196.25 208.43,-172.43 185.76,-115.67 176.35,-85.5"/>
<polygon fill="#63b8ff" stroke="#63b8ff" points="179.79,-84.78 173.63,-76.16 173.07,-86.74 179.79,-84.78"/>
</a>
</g>
</g>
<!-- Node37&#45;&gt;Node6 -->
<g id="edge75_Node000037_Node000006" class="edge">
<title>Node37&#45;&gt;Node6</title>
<g id="a_edge75_Node000037_Node000006"><a xlink:title=" ">
<path fill="none" stroke="#63b8ff" d="M1831.93,-287.1C1785.25,-252.21 1616.3,-125.9 1556.86,-81.47"/>
<polygon fill="#63b8ff" stroke="#63b8ff" points="1559.31,-78.93 1549.2,-75.74 1555.12,-84.54 1559.31,-78.93"/>
</a>
</g>
</g>
<!-- Node37&#45;&gt;Node9 -->
<g id="edge76_Node000037_Node000009" class="edge">
<title>Node37&#45;&gt;Node9</title>
<g id="a_edge76_Node000037_Node000009"><a xlink:title=" ">
<path fill="none" stroke="#63b8ff" d="M1781.75,-291.42C1639.58,-280.68 1294.38,-254.61 1178.03,-245.82"/>
<polygon fill="#63b8ff" stroke="#63b8ff" points="1178.61,-242.36 1168.38,-245.09 1178.09,-249.34 1178.61,-242.36"/>
</a>
</g>
</g>
<!-- Node37&#45;&gt;Node23 -->
<g id="edge77_Node000037_Node000023" class="edge">
<title>Node37&#45;&gt;Node23</title>
<g id="a_edge77_Node000037_Node000023"><a xlink:title=" ">
<path fill="none" stroke="#63b8ff" d="M1841.69,-287.19C1835.65,-264.99 1817.75,-206.25 1788,-165.75 1779.89,-154.71 1768.55,-144.57 1758.53,-136.75"/>
<polygon fill="#63b8ff" stroke="#63b8ff" points="1760.8,-134.08 1750.69,-130.92 1756.62,-139.7 1760.8,-134.08"/>
</a>
</g>
</g>
<!-- Node37&#45;&gt;Node26 -->
<g id="edge71_Node000037_Node000026" class="edge">
<title>Node37&#45;&gt;Node26</title>
<g id="a_edge71_Node000037_Node000026"><a xlink:title=" ">
<path fill="none" stroke="#63b8ff" d="M1890.47,-287.01C1922.26,-279.77 1964.85,-268.1 2000,-251.5 2102.33,-203.16 2208.5,-117.46 2250.41,-81.96"/>
<polygon fill="#63b8ff" stroke="#63b8ff" points="2252.52,-84.76 2257.85,-75.61 2247.97,-79.44 2252.52,-84.76"/>
</a>
</g>
</g>
<!-- Node37&#45;&gt;Node27 -->
<g id="edge73_Node000037_Node000027" class="edge">
<title>Node37&#45;&gt;Node27</title>
<g id="a_edge73_Node000037_Node000027"><a xlink:title=" ">
<path fill="none" stroke="#63b8ff" d="M1843.55,-287.33C1842.77,-274.9 1840.77,-251.56 1836,-232.25 1821.89,-175.13 1819.3,-157.58 1784,-110.5 1776.03,-99.87 1765.28,-89.74 1755.87,-81.84"/>
<polygon fill="#63b8ff" stroke="#63b8ff" points="1758.23,-79.24 1748.25,-75.68 1753.83,-84.69 1758.23,-79.24"/>
</a>
</g>
</g>
<!-- Node37&#45;&gt;Node28 -->
<g id="edge74_Node000037_Node000028" class="edge">
<title>Node37&#45;&gt;Node28</title>
<g id="a_edge74_Node000037_Node000028"><a xlink:title=" ">
<path fill="none" stroke="#63b8ff" d="M1891.74,-287.07C1911.74,-280.66 1933.07,-269.81 1945,-251.5 1954.16,-237.44 1994.47,-188.7 1940,-110.5 1932.06,-99.1 1901.6,-87.03 1875.19,-78.32"/>
<polygon fill="#63b8ff" stroke="#63b8ff" points="1876.61,-75.1 1866.02,-75.38 1874.48,-81.76 1876.61,-75.1"/>
</a>
</g>
</g>
<!-- Node37&#45;&gt;Node32 -->
<g id="edge78_Node000037_Node000032" class="edge">
<title>Node37&#45;&gt;Node32</title>
<g id="a_edge78_Node000037_Node000032"><a xlink:title=" ">
<path fill="none" stroke="#63b8ff" d="M1905.78,-287.07C1930.74,-280.71 1958.26,-269.88 1978,-251.5 2010.03,-221.67 2023.65,-169.99 2028.96,-141.48"/>
<polygon fill="#63b8ff" stroke="#63b8ff" points="2032.41,-142.1 2030.6,-131.66 2025.5,-140.95 2032.41,-142.1"/>
</a>
</g>
</g>
<!-- Node38 -->
<g id="Node000038" class="node">
<title>Node38</title>
<g id="a_Node000038"><a xlink:title=" ">
<polygon fill="#e0e0e0" stroke="#999999" points="1936,-251.5 1878,-251.5 1878,-232.25 1936,-232.25 1936,-251.5"/>
<text text-anchor="middle" x="1907" y="-238" font-family="Helvetica,sans-Serif" font-size="10.00">functional</text>
</a>
</g>
</g>
<!-- Node37&#45;&gt;Node38 -->
<g id="edge70_Node000037_Node000038" class="edge">
<title>Node37&#45;&gt;Node38</title>
<g id="a_edge70_Node000037_Node000038"><a xlink:title=" ">
<path fill="none" stroke="#63b8ff" d="M1854.69,-287.09C1863.7,-279.47 1876.83,-268.37 1887.68,-259.2"/>
<polygon fill="#63b8ff" stroke="#63b8ff" points="1889.94,-261.88 1895.31,-252.75 1885.42,-256.53 1889.94,-261.88"/>
</a>
</g>
</g>
</g>
</svg>
