<?xml version="1.0" encoding="UTF-8" standalone="no"?>
<!DOCTYPE svg PUBLIC "-//W3C//DTD SVG 1.1//EN"
 "http://www.w3.org/Graphics/SVG/1.1/DTD/svg11.dtd">
<!-- Generated by graphviz version 13.1.2 (20250808.2320)
 -->
<!-- Title: src/nwb/base/TimeSeries.hpp Pages: 1 -->
<svg width="2149pt" height="481pt"
 viewBox="0.00 0.00 2149.00 481.00" xmlns="http://www.w3.org/2000/svg" xmlns:xlink="http://www.w3.org/1999/xlink">
<g id="graph0" class="graph" transform="scale(1 1) rotate(0) translate(4 476.5)">
<title>src/nwb/base/TimeSeries.hpp</title>
<!-- Node1 -->
<g id="Node000001" class="node">
<title>Node1</title>
<g id="a_Node000001"><a xlink:title=" ">
<polygon fill="#999999" stroke="#666666" points="1478.88,-472.5 1333.12,-472.5 1333.12,-453.25 1478.88,-453.25 1478.88,-472.5"/>
<text xml:space="preserve" text-anchor="middle" x="1406" y="-459" font-family="Helvetica,sans-Serif" font-size="10.00">src/nwb/base/TimeSeries.hpp</text>
</a>
</g>
</g>
<!-- Node2 -->
<g id="Node000002" class="node">
<title>Node2</title>
<g id="a_Node000002"><a xlink:title=" ">
<polygon fill="#e0e0e0" stroke="#999999" points="193.62,-74.5 148.38,-74.5 148.38,-55.25 193.62,-55.25 193.62,-74.5"/>
<text xml:space="preserve" text-anchor="middle" x="171" y="-61" font-family="Helvetica,sans-Serif" font-size="10.00">cstdint</text>
</a>
</g>
</g>
<!-- Node1&#45;&gt;Node2 -->
<g id="edge1_Node000001_Node000002" class="edge">
<title>Node1&#45;&gt;Node2</title>
<g id="a_edge1_Node000001_Node000002"><a xlink:title=" ">
<path fill="none" stroke="#63b8ff" d="M1332.88,-460.1C1044.27,-452.62 0,-420.89 0,-353.38 0,-353.38 0,-353.38 0,-174.38 0,-110.25 86.79,-82.43 136.71,-71.72"/>
<polygon fill="#63b8ff" stroke="#63b8ff" points="137.34,-75.17 146.45,-69.77 135.96,-68.3 137.34,-75.17"/>
</a>
</g>
</g>
<!-- Node3 -->
<g id="Node000003" class="node">
<title>Node3</title>
<g id="a_Node000003"><a xlink:title=" ">
<polygon fill="#e0e0e0" stroke="#999999" points="1996,-74.5 1956,-74.5 1956,-55.25 1996,-55.25 1996,-74.5"/>
<text xml:space="preserve" text-anchor="middle" x="1976" y="-61" font-family="Helvetica,sans-Serif" font-size="10.00">string</text>
</a>
</g>
</g>
<!-- Node1&#45;&gt;Node3 -->
<g id="edge2_Node000001_Node000003" class="edge">
<title>Node1&#45;&gt;Node3</title>
<g id="a_edge2_Node000001_Node000003"><a xlink:title=" ">
<path fill="none" stroke="#63b8ff" d="M1479.27,-459.89C1617.36,-455.57 1911.04,-443.55 2009,-417.25 2071.95,-400.35 2141,-418.55 2141,-353.38 2141,-353.38 2141,-353.38 2141,-174.38 2141,-111.03 2055.05,-82.6 2007.22,-71.69"/>
<polygon fill="#63b8ff" stroke="#63b8ff" points="2008.22,-68.32 1997.71,-69.65 2006.76,-75.17 2008.22,-68.32"/>
</a>
</g>
</g>
<!-- Node4 -->
<g id="Node000004" class="node">
<title>Node4</title>
<g id="a_Node000004"><a xlink:href="_utils_8hpp.html" target="_top" xlink:title=" ">
<polygon fill="white" stroke="#666666" points="1088.5,-306.75 1033.5,-306.75 1033.5,-287.5 1088.5,-287.5 1088.5,-306.75"/>
<text xml:space="preserve" text-anchor="middle" x="1061" y="-293.25" font-family="Helvetica,sans-Serif" font-size="10.00">Utils.hpp</text>
</a>
</g>
</g>
<!-- Node1&#45;&gt;Node4 -->
<g id="edge3_Node000001_Node000004" class="edge">
<title>Node1&#45;&gt;Node4</title>
<g id="a_edge3_Node000001_Node000004"><a xlink:title=" ">
<path fill="none" stroke="#63b8ff" d="M1386.96,-452.84C1329.7,-425.66 1158.83,-344.56 1090.1,-311.94"/>
<polygon fill="#63b8ff" stroke="#63b8ff" points="1091.88,-308.91 1081.35,-307.78 1088.88,-315.23 1091.88,-308.91"/>
</a>
</g>
</g>
<!-- Node18 -->
<g id="Node000018" class="node">
<title>Node18</title>
<g id="a_Node000018"><a xlink:href="_base_i_o_8hpp.html" target="_top" xlink:title=" ">
<polygon fill="white" stroke="#666666" points="1567.12,-129.75 1488.88,-129.75 1488.88,-110.5 1567.12,-110.5 1567.12,-129.75"/>
<text xml:space="preserve" text-anchor="middle" x="1528" y="-116.25" font-family="Helvetica,sans-Serif" font-size="10.00">io/BaseIO.hpp</text>
</a>
</g>
</g>
<!-- Node1&#45;&gt;Node18 -->
<g id="edge52_Node000001_Node000018" class="edge">
<title>Node1&#45;&gt;Node18</title>
<g id="a_edge52_Node000001_Node000018"><a xlink:title=" ">
<path fill="none" stroke="#63b8ff" d="M1428.45,-452.82C1461.91,-437.65 1521,-403.74 1521,-353.38 1521,-353.38 1521,-353.38 1521,-296.12 1521,-238.1 1505.21,-223.11 1514,-165.75 1515.27,-157.43 1517.81,-148.53 1520.38,-140.88"/>
<polygon fill="#63b8ff" stroke="#63b8ff" points="1523.64,-142.18 1523.75,-131.58 1517.05,-139.79 1523.64,-142.18"/>
</a>
</g>
</g>
<!-- Node32 -->
<g id="Node000032" class="node">
<title>Node32</title>
<g id="a_Node000032"><a xlink:href="_read_i_o_8hpp.html" target="_top" xlink:title=" ">
<polygon fill="white" stroke="#666666" points="1384.5,-185 1305.5,-185 1305.5,-165.75 1384.5,-165.75 1384.5,-185"/>
<text xml:space="preserve" text-anchor="middle" x="1345" y="-171.5" font-family="Helvetica,sans-Serif" font-size="10.00">io/ReadIO.hpp</text>
</a>
</g>
</g>
<!-- Node1&#45;&gt;Node32 -->
<g id="edge53_Node000001_Node000032" class="edge">
<title>Node1&#45;&gt;Node32</title>
<g id="a_edge53_Node000001_Node000032"><a xlink:title=" ">
<path fill="none" stroke="#63b8ff" d="M1333.03,-459.43C1042.41,-448.46 -8.88,-396.36 160,-221 199.85,-179.62 1071.44,-176.47 1293.75,-176.35"/>
<polygon fill="#63b8ff" stroke="#63b8ff" points="1293.54,-179.85 1303.54,-176.34 1293.54,-172.85 1293.54,-179.85"/>
</a>
</g>
</g>
<!-- Node33 -->
<g id="Node000033" class="node">
<title>Node33</title>
<g id="a_Node000033"><a xlink:href="_container_8hpp.html" target="_top" xlink:title=" ">
<polygon fill="white" stroke="#666666" points="1999.88,-417.25 1854.12,-417.25 1854.12,-398 1999.88,-398 1999.88,-417.25"/>
<text xml:space="preserve" text-anchor="middle" x="1927" y="-403.75" font-family="Helvetica,sans-Serif" font-size="10.00">nwb/hdmf/base/Container.hpp</text>
</a>
</g>
</g>
<!-- Node1&#45;&gt;Node33 -->
<g id="edge54_Node000001_Node000033" class="edge">
<title>Node1&#45;&gt;Node33</title>
<g id="a_edge54_Node000001_Node000033"><a xlink:title=" ">
<path fill="none" stroke="#63b8ff" d="M1479.27,-454.39C1574.8,-444.62 1741.58,-427.58 1842.39,-417.27"/>
<polygon fill="#63b8ff" stroke="#63b8ff" points="1842.65,-420.76 1852.24,-416.27 1841.94,-413.8 1842.65,-420.76"/>
</a>
</g>
</g>
<!-- Node4&#45;&gt;Node2 -->
<g id="edge7_Node000004_Node000002" class="edge">
<title>Node4&#45;&gt;Node2</title>
<g id="a_edge7_Node000004_Node000002"><a xlink:title=" ">
<path fill="none" stroke="#63b8ff" d="M1033.45,-295.8C886.6,-293.93 201.45,-283.52 171,-251.5 127.91,-206.2 150.13,-122.95 163.42,-85.29"/>
<polygon fill="#63b8ff" stroke="#63b8ff" points="166.6,-86.78 166.8,-76.19 160.04,-84.35 166.6,-86.78"/>
</a>
</g>
</g>
<!-- Node4&#45;&gt;Node3 -->
<g id="edge12_Node000004_Node000003" class="edge">
<title>Node4&#45;&gt;Node3</title>
<g id="a_edge12_Node000004_Node000003"><a xlink:title=" ">
<path fill="none" stroke="#63b8ff" d="M1088.86,-295.65C1192.11,-293.64 1552.52,-284.37 1662,-251.5 1784.59,-214.69 1909.34,-120.29 1956.42,-82.19"/>
<polygon fill="#63b8ff" stroke="#63b8ff" points="1958.57,-84.95 1964.09,-75.91 1954.13,-79.54 1958.57,-84.95"/>
</a>
</g>
</g>
<!-- Node5 -->
<g id="Node000005" class="node">
<title>Node5</title>
<g id="a_Node000005"><a xlink:title=" ">
<polygon fill="#e0e0e0" stroke="#999999" points="1329.88,-245.88 1274.12,-245.88 1274.12,-226.62 1329.88,-226.62 1329.88,-245.88"/>
<text xml:space="preserve" text-anchor="middle" x="1302" y="-232.38" font-family="Helvetica,sans-Serif" font-size="10.00">algorithm</text>
</a>
</g>
</g>
<!-- Node4&#45;&gt;Node5 -->
<g id="edge4_Node000004_Node000005" class="edge">
<title>Node4&#45;&gt;Node5</title>
<g id="a_edge4_Node000004_Node000005"><a xlink:title=" ">
<path fill="none" stroke="#63b8ff" d="M1088.73,-291.45C1128.29,-284.46 1203.02,-270.1 1265,-251.5 1266.57,-251.03 1268.16,-250.52 1269.76,-249.99"/>
<polygon fill="#63b8ff" stroke="#63b8ff" points="1270.61,-253.41 1278.85,-246.76 1268.26,-246.82 1270.61,-253.41"/>
</a>
</g>
</g>
<!-- Node6 -->
<g id="Node000006" class="node">
<title>Node6</title>
<g id="a_Node000006"><a xlink:title=" ">
<polygon fill="#e0e0e0" stroke="#999999" points="1393.62,-245.88 1348.38,-245.88 1348.38,-226.62 1393.62,-226.62 1393.62,-245.88"/>
<text xml:space="preserve" text-anchor="middle" x="1371" y="-232.38" font-family="Helvetica,sans-Serif" font-size="10.00">chrono</text>
</a>
</g>
</g>
<!-- Node4&#45;&gt;Node6 -->
<g id="edge5_Node000004_Node000006" class="edge">
<title>Node4&#45;&gt;Node6</title>
<g id="a_edge5_Node000004_Node000006"><a xlink:title=" ">
<path fill="none" stroke="#63b8ff" d="M1088.75,-294.07C1139.38,-289.79 1249.74,-278.04 1339,-251.5 1340.17,-251.15 1341.34,-250.77 1342.53,-250.37"/>
<polygon fill="#63b8ff" stroke="#63b8ff" points="1343.61,-253.71 1351.63,-246.78 1341.04,-247.19 1343.61,-253.71"/>
</a>
</g>
</g>
<!-- Node7 -->
<g id="Node000007" class="node">
<title>Node7</title>
<g id="a_Node000007"><a xlink:title=" ">
<polygon fill="#e0e0e0" stroke="#999999" points="1454.5,-245.88 1411.5,-245.88 1411.5,-226.62 1454.5,-226.62 1454.5,-245.88"/>
<text xml:space="preserve" text-anchor="middle" x="1433" y="-232.38" font-family="Helvetica,sans-Serif" font-size="10.00">cmath</text>
</a>
</g>
</g>
<!-- Node4&#45;&gt;Node7 -->
<g id="edge6_Node000004_Node000007" class="edge">
<title>Node4&#45;&gt;Node7</title>
<g id="a_edge6_Node000004_Node000007"><a xlink:title=" ">
<path fill="none" stroke="#63b8ff" d="M1088.64,-295.44C1147.6,-293.34 1289.56,-284.93 1403,-251.5 1403.97,-251.21 1404.94,-250.9 1405.92,-250.57"/>
<polygon fill="#63b8ff" stroke="#63b8ff" points="1406.9,-253.95 1414.83,-246.92 1404.25,-247.47 1406.9,-253.95"/>
</a>
</g>
</g>
<!-- Node8 -->
<g id="Node000008" class="node">
<title>Node8</title>
<g id="a_Node000008"><a xlink:title=" ">
<polygon fill="#e0e0e0" stroke="#999999" points="220,-245.88 180,-245.88 180,-226.62 220,-226.62 220,-245.88"/>
<text xml:space="preserve" text-anchor="middle" x="200" y="-232.38" font-family="Helvetica,sans-Serif" font-size="10.00">ctime</text>
</a>
</g>
</g>
<!-- Node4&#45;&gt;Node8 -->
<g id="edge8_Node000004_Node000008" class="edge">
<title>Node4&#45;&gt;Node8</title>
<g id="a_edge8_Node000004_Node000008"><a xlink:title=" ">
<path fill="none" stroke="#63b8ff" d="M1033.02,-296.13C906.35,-295.9 385.94,-292.44 229,-251.5 228,-251.24 227,-250.94 226,-250.62"/>
<polygon fill="#63b8ff" stroke="#63b8ff" points="227.49,-247.45 216.91,-246.87 224.82,-253.92 227.49,-247.45"/>
</a>
</g>
</g>
<!-- Node9 -->
<g id="Node000009" class="node">
<title>Node9</title>
<g id="a_Node000009"><a xlink:title=" ">
<polygon fill="#e0e0e0" stroke="#999999" points="287.88,-245.88 238.12,-245.88 238.12,-226.62 287.88,-226.62 287.88,-245.88"/>
<text xml:space="preserve" text-anchor="middle" x="263" y="-232.38" font-family="Helvetica,sans-Serif" font-size="10.00">iomanip</text>
</a>
</g>
</g>
<!-- Node4&#45;&gt;Node9 -->
<g id="edge9_Node000004_Node000009" class="edge">
<title>Node4&#45;&gt;Node9</title>
<g id="a_edge9_Node000004_Node000009"><a xlink:title=" ">
<path fill="none" stroke="#63b8ff" d="M1033.38,-295.76C913.93,-293.98 441.32,-284.93 297,-251.5 295.36,-251.12 293.7,-250.67 292.05,-250.17"/>
<polygon fill="#63b8ff" stroke="#63b8ff" points="293.34,-246.91 282.75,-246.78 290.95,-253.49 293.34,-246.91"/>
</a>
</g>
</g>
<!-- Node10 -->
<g id="Node000010" class="node">
<title>Node10</title>
<g id="a_Node000010"><a xlink:title=" ">
<polygon fill="#e0e0e0" stroke="#999999" points="346,-245.88 306,-245.88 306,-226.62 346,-226.62 346,-245.88"/>
<text xml:space="preserve" text-anchor="middle" x="326" y="-232.38" font-family="Helvetica,sans-Serif" font-size="10.00">regex</text>
</a>
</g>
</g>
<!-- Node4&#45;&gt;Node10 -->
<g id="edge10_Node000004_Node000010" class="edge">
<title>Node4&#45;&gt;Node10</title>
<g id="a_edge10_Node000004_Node000010"><a xlink:title=" ">
<path fill="none" stroke="#63b8ff" d="M1033.15,-295.82C918.96,-294.33 486.45,-286.46 355,-251.5 354,-251.24 353,-250.93 352,-250.61"/>
<polygon fill="#63b8ff" stroke="#63b8ff" points="353.49,-247.44 342.91,-246.84 350.81,-253.9 353.49,-247.44"/>
</a>
</g>
</g>
<!-- Node11 -->
<g id="Node000011" class="node">
<title>Node11</title>
<g id="a_Node000011"><a xlink:title=" ">
<polygon fill="#e0e0e0" stroke="#999999" points="415.62,-245.88 364.38,-245.88 364.38,-226.62 415.62,-226.62 415.62,-245.88"/>
<text xml:space="preserve" text-anchor="middle" x="390" y="-232.38" font-family="Helvetica,sans-Serif" font-size="10.00">sstream</text>
</a>
</g>
</g>
<!-- Node4&#45;&gt;Node11 -->
<g id="edge11_Node000004_Node000011" class="edge">
<title>Node4&#45;&gt;Node11</title>
<g id="a_edge11_Node000004_Node000011"><a xlink:title=" ">
<path fill="none" stroke="#63b8ff" d="M1033.12,-295.34C926.31,-292.15 543.33,-279 425,-251.5 423.36,-251.12 421.7,-250.67 420.04,-250.18"/>
<polygon fill="#63b8ff" stroke="#63b8ff" points="421.29,-246.9 410.69,-246.87 418.95,-253.5 421.29,-246.9"/>
</a>
</g>
</g>
<!-- Node12 -->
<g id="Node000012" class="node">
<title>Node12</title>
<g id="a_Node000012"><a xlink:title=" ">
<polygon fill="#e0e0e0" stroke="#999999" points="538.25,-245.88 433.75,-245.88 433.75,-226.62 538.25,-226.62 538.25,-245.88"/>
<text xml:space="preserve" text-anchor="middle" x="486" y="-232.38" font-family="Helvetica,sans-Serif" font-size="10.00">boost/date_time.hpp</text>
</a>
</g>
</g>
<!-- Node4&#45;&gt;Node12 -->
<g id="edge13_Node000004_Node000012" class="edge">
<title>Node4&#45;&gt;Node12</title>
<g id="a_edge13_Node000004_Node000012"><a xlink:title=" ">
<path fill="none" stroke="#63b8ff" d="M1033.03,-295.06C955.54,-291.82 731.68,-280.45 548,-251.5 543.02,-250.71 537.84,-249.76 532.69,-248.71"/>
<polygon fill="#63b8ff" stroke="#63b8ff" points="533.56,-245.32 523.05,-246.64 532.09,-252.16 533.56,-245.32"/>
</a>
</g>
</g>
<!-- Node13 -->
<g id="Node000013" class="node">
<title>Node13</title>
<g id="a_Node000013"><a xlink:title=" ">
<polygon fill="#e0e0e0" stroke="#999999" points="697.25,-245.88 556.75,-245.88 556.75,-226.62 697.25,-226.62 697.25,-245.88"/>
<text xml:space="preserve" text-anchor="middle" x="627" y="-232.38" font-family="Helvetica,sans-Serif" font-size="10.00">boost/endian/conversion.hpp</text>
</a>
</g>
</g>
<!-- Node4&#45;&gt;Node13 -->
<g id="edge14_Node000004_Node000013" class="edge">
<title>Node4&#45;&gt;Node13</title>
<g id="a_edge14_Node000004_Node000013"><a xlink:title=" ">
<path fill="none" stroke="#63b8ff" d="M1033.39,-293.13C973.71,-286.55 828.26,-269.93 707,-251.5 700.48,-250.51 693.67,-249.4 686.89,-248.26"/>
<polygon fill="#63b8ff" stroke="#63b8ff" points="687.53,-244.82 677.08,-246.57 686.34,-251.72 687.53,-244.82"/>
</a>
</g>
</g>
<!-- Node14 -->
<g id="Node000014" class="node">
<title>Node14</title>
<g id="a_Node000014"><a xlink:title=" ">
<polygon fill="#e0e0e0" stroke="#999999" points="816.38,-245.88 715.62,-245.88 715.62,-226.62 816.38,-226.62 816.38,-245.88"/>
<text xml:space="preserve" text-anchor="middle" x="766" y="-232.38" font-family="Helvetica,sans-Serif" font-size="10.00">boost/uuid/uuid.hpp</text>
</a>
</g>
</g>
<!-- Node4&#45;&gt;Node14 -->
<g id="edge15_Node000004_Node000014" class="edge">
<title>Node4&#45;&gt;Node14</title>
<g id="a_edge15_Node000004_Node000014"><a xlink:title=" ">
<path fill="none" stroke="#63b8ff" d="M1033.3,-291.35C989.11,-283.63 900.01,-267.64 825,-251.5 821.23,-250.69 817.33,-249.82 813.42,-248.92"/>
<polygon fill="#63b8ff" stroke="#63b8ff" points="814.45,-245.57 803.92,-246.7 812.86,-252.38 814.45,-245.57"/>
</a>
</g>
</g>
<!-- Node15 -->
<g id="Node000015" class="node">
<title>Node15</title>
<g id="a_Node000015"><a xlink:title=" ">
<polygon fill="#e0e0e0" stroke="#999999" points="985.88,-245.88 834.12,-245.88 834.12,-226.62 985.88,-226.62 985.88,-245.88"/>
<text xml:space="preserve" text-anchor="middle" x="910" y="-232.38" font-family="Helvetica,sans-Serif" font-size="10.00">boost/uuid/uuid_generators.hpp</text>
</a>
</g>
</g>
<!-- Node4&#45;&gt;Node15 -->
<g id="edge16_Node000004_Node000015" class="edge">
<title>Node4&#45;&gt;Node15</title>
<g id="a_edge16_Node000004_Node000015"><a xlink:title=" ">
<path fill="none" stroke="#63b8ff" d="M1037.74,-287.05C1012.69,-277.29 972.59,-261.65 944,-250.51"/>
<polygon fill="#63b8ff" stroke="#63b8ff" points="945.29,-247.25 934.7,-246.88 942.74,-253.77 945.29,-247.25"/>
</a>
</g>
</g>
<!-- Node16 -->
<g id="Node000016" class="node">
<title>Node16</title>
<g id="a_Node000016"><a xlink:title=" ">
<polygon fill="#e0e0e0" stroke="#999999" points="1117.75,-245.88 1004.25,-245.88 1004.25,-226.62 1117.75,-226.62 1117.75,-245.88"/>
<text xml:space="preserve" text-anchor="middle" x="1061" y="-232.38" font-family="Helvetica,sans-Serif" font-size="10.00">boost/uuid/uuid_io.hpp</text>
</a>
</g>
</g>
<!-- Node4&#45;&gt;Node16 -->
<g id="edge17_Node000004_Node000016" class="edge">
<title>Node4&#45;&gt;Node16</title>
<g id="a_edge17_Node000004_Node000016"><a xlink:title=" ">
<path fill="none" stroke="#63b8ff" d="M1061,-287.18C1061,-279.4 1061,-267.83 1061,-257.78"/>
<polygon fill="#63b8ff" stroke="#63b8ff" points="1064.5,-257.79 1061,-247.79 1057.5,-257.79 1064.5,-257.79"/>
</a>
</g>
</g>
<!-- Node17 -->
<g id="Node000017" class="node">
<title>Node17</title>
<g id="a_Node000017"><a xlink:title=" ">
<polygon fill="#e0e0e0" stroke="#999999" points="1255.75,-251.5 1136.25,-251.5 1136.25,-221 1255.75,-221 1255.75,-251.5"/>
<text xml:space="preserve" text-anchor="start" x="1144.25" y="-238" font-family="Helvetica,sans-Serif" font-size="10.00">boost/date_time/c_local</text>
<text xml:space="preserve" text-anchor="middle" x="1196" y="-226.75" font-family="Helvetica,sans-Serif" font-size="10.00">_time_adjustor.hpp</text>
</a>
</g>
</g>
<!-- Node4&#45;&gt;Node17 -->
<g id="edge18_Node000004_Node000017" class="edge">
<title>Node4&#45;&gt;Node17</title>
<g id="a_edge18_Node000004_Node000017"><a xlink:title=" ">
<path fill="none" stroke="#63b8ff" d="M1081.8,-287.05C1100.4,-278.94 1128.28,-266.78 1151.83,-256.51"/>
<polygon fill="#63b8ff" stroke="#63b8ff" points="1153.15,-259.76 1160.92,-252.55 1150.35,-253.34 1153.15,-259.76"/>
</a>
</g>
</g>
<!-- Node4&#45;&gt;Node18 -->
<g id="edge19_Node000004_Node000018" class="edge">
<title>Node4&#45;&gt;Node18</title>
<g id="a_edge19_Node000004_Node000018"><a xlink:title=" ">
<path fill="none" stroke="#63b8ff" d="M1088.95,-294.92C1175.74,-290.91 1436.39,-276.85 1464,-251.5 1492.62,-225.23 1462.25,-199.78 1481,-165.75 1487.04,-154.78 1496.72,-144.91 1505.73,-137.26"/>
<polygon fill="#63b8ff" stroke="#63b8ff" points="1507.85,-140.04 1513.5,-131.08 1503.5,-134.56 1507.85,-140.04"/>
</a>
</g>
</g>
<!-- Node30 -->
<g id="Node000030" class="node">
<title>Node30</title>
<g id="a_Node000030"><a xlink:href="_h_d_f5_i_o_8hpp.html" target="_top" xlink:title=" ">
<polygon fill="white" stroke="#666666" points="1652.88,-245.88 1549.12,-245.88 1549.12,-226.62 1652.88,-226.62 1652.88,-245.88"/>
<text xml:space="preserve" text-anchor="middle" x="1601" y="-232.38" font-family="Helvetica,sans-Serif" font-size="10.00">io/hdf5/HDF5IO.hpp</text>
</a>
</g>
</g>
<!-- Node4&#45;&gt;Node30 -->
<g id="edge34_Node000004_Node000030" class="edge">
<title>Node4&#45;&gt;Node30</title>
<g id="a_edge34_Node000004_Node000030"><a xlink:title=" ">
<path fill="none" stroke="#63b8ff" d="M1088.84,-293.61C1157.98,-287.29 1343.06,-269.92 1497,-251.5 1510.15,-249.93 1524.21,-248.1 1537.61,-246.29"/>
<polygon fill="#63b8ff" stroke="#63b8ff" points="1537.74,-249.8 1547.17,-244.98 1536.79,-242.87 1537.74,-249.8"/>
</a>
</g>
</g>
<!-- Node18&#45;&gt;Node2 -->
<g id="edge21_Node000018_Node000002" class="edge">
<title>Node18&#45;&gt;Node2</title>
<g id="a_edge21_Node000018_Node000002"><a xlink:title=" ">
<path fill="none" stroke="#63b8ff" d="M1488.49,-117.57C1288.74,-109.74 392.33,-74.56 205.28,-67.22"/>
<polygon fill="#63b8ff" stroke="#63b8ff" points="205.64,-63.73 195.51,-66.84 205.36,-70.73 205.64,-63.73"/>
</a>
</g>
</g>
<!-- Node18&#45;&gt;Node3 -->
<g id="edge24_Node000018_Node000003" class="edge">
<title>Node18&#45;&gt;Node3</title>
<g id="a_edge24_Node000018_Node000003"><a xlink:title=" ">
<path fill="none" stroke="#63b8ff" d="M1567.35,-117.34C1640.12,-113.52 1800.67,-102.68 1944.33,-74.69"/>
<polygon fill="#63b8ff" stroke="#63b8ff" points="1944.91,-78.15 1954.04,-72.77 1943.55,-71.28 1944.91,-78.15"/>
</a>
</g>
</g>
<!-- Node19 -->
<g id="Node000019" class="node">
<title>Node19</title>
<g id="a_Node000019"><a xlink:title=" ">
<polygon fill="#e0e0e0" stroke="#999999" points="1297.88,-74.5 1266.12,-74.5 1266.12,-55.25 1297.88,-55.25 1297.88,-74.5"/>
<text xml:space="preserve" text-anchor="middle" x="1282" y="-61" font-family="Helvetica,sans-Serif" font-size="10.00">any</text>
</a>
</g>
</g>
<!-- Node18&#45;&gt;Node19 -->
<g id="edge20_Node000018_Node000019" class="edge">
<title>Node18&#45;&gt;Node19</title>
<g id="a_edge20_Node000018_Node000019"><a xlink:title=" ">
<path fill="none" stroke="#63b8ff" d="M1488.51,-112.78C1446.27,-105.64 1377.17,-92.94 1309.2,-74.81"/>
<polygon fill="#63b8ff" stroke="#63b8ff" points="1310.34,-71.49 1299.77,-72.25 1308.5,-78.24 1310.34,-71.49"/>
</a>
</g>
</g>
<!-- Node20 -->
<g id="Node000020" class="node">
<title>Node20</title>
<g id="a_Node000020"><a xlink:title=" ">
<polygon fill="#e0e0e0" stroke="#999999" points="1672.75,-74.5 1619.25,-74.5 1619.25,-55.25 1672.75,-55.25 1672.75,-74.5"/>
<text xml:space="preserve" text-anchor="middle" x="1646" y="-61" font-family="Helvetica,sans-Serif" font-size="10.00">iostream</text>
</a>
</g>
</g>
<!-- Node18&#45;&gt;Node20 -->
<g id="edge22_Node000018_Node000020" class="edge">
<title>Node18&#45;&gt;Node20</title>
<g id="a_edge22_Node000018_Node000020"><a xlink:title=" ">
<path fill="none" stroke="#63b8ff" d="M1548.02,-110.09C1566.49,-101.75 1594.21,-89.25 1615.45,-79.66"/>
<polygon fill="#63b8ff" stroke="#63b8ff" points="1616.83,-82.88 1624.51,-75.58 1613.95,-76.5 1616.83,-82.88"/>
</a>
</g>
</g>
<!-- Node21 -->
<g id="Node000021" class="node">
<title>Node21</title>
<g id="a_Node000021"><a xlink:title=" ">
<polygon fill="#e0e0e0" stroke="#999999" points="1937.62,-74.5 1886.38,-74.5 1886.38,-55.25 1937.62,-55.25 1937.62,-74.5"/>
<text xml:space="preserve" text-anchor="middle" x="1912" y="-61" font-family="Helvetica,sans-Serif" font-size="10.00">memory</text>
</a>
</g>
</g>
<!-- Node18&#45;&gt;Node21 -->
<g id="edge23_Node000018_Node000021" class="edge">
<title>Node18&#45;&gt;Node21</title>
<g id="a_edge23_Node000018_Node000021"><a xlink:title=" ">
<path fill="none" stroke="#63b8ff" d="M1567.61,-115.66C1630.71,-109.79 1758.08,-96.56 1874.82,-74.92"/>
<polygon fill="#63b8ff" stroke="#63b8ff" points="1875.42,-78.37 1884.6,-73.08 1874.12,-71.49 1875.42,-78.37"/>
</a>
</g>
</g>
<!-- Node22 -->
<g id="Node000022" class="node">
<title>Node22</title>
<g id="a_Node000022"><a xlink:title=" ">
<polygon fill="#e0e0e0" stroke="#999999" points="1374,-74.5 1316,-74.5 1316,-55.25 1374,-55.25 1374,-74.5"/>
<text xml:space="preserve" text-anchor="middle" x="1345" y="-61" font-family="Helvetica,sans-Serif" font-size="10.00">typeindex</text>
</a>
</g>
</g>
<!-- Node18&#45;&gt;Node22 -->
<g id="edge25_Node000018_Node000022" class="edge">
<title>Node18&#45;&gt;Node22</title>
<g id="a_edge25_Node000018_Node000022"><a xlink:title=" ">
<path fill="none" stroke="#63b8ff" d="M1496.96,-110.09C1466.17,-101.13 1418.87,-87.37 1385.22,-77.58"/>
<polygon fill="#63b8ff" stroke="#63b8ff" points="1386.41,-74.28 1375.83,-74.85 1384.45,-81 1386.41,-74.28"/>
</a>
</g>
</g>
<!-- Node23 -->
<g id="Node000023" class="node">
<title>Node23</title>
<g id="a_Node000023"><a xlink:title=" ">
<polygon fill="#e0e0e0" stroke="#999999" points="1773.38,-74.5 1690.62,-74.5 1690.62,-55.25 1773.38,-55.25 1773.38,-74.5"/>
<text xml:space="preserve" text-anchor="middle" x="1732" y="-61" font-family="Helvetica,sans-Serif" font-size="10.00">unordered_map</text>
</a>
</g>
</g>
<!-- Node18&#45;&gt;Node23 -->
<g id="edge26_Node000018_Node000023" class="edge">
<title>Node18&#45;&gt;Node23</title>
<g id="a_edge26_Node000018_Node000023"><a xlink:title=" ">
<path fill="none" stroke="#63b8ff" d="M1562.61,-110.09C1596.6,-101.22 1648.68,-87.62 1686.11,-77.85"/>
<polygon fill="#63b8ff" stroke="#63b8ff" points="1686.97,-81.25 1695.76,-75.33 1685.2,-74.47 1686.97,-81.25"/>
</a>
</g>
</g>
<!-- Node24 -->
<g id="Node000024" class="node">
<title>Node24</title>
<g id="a_Node000024"><a xlink:title=" ">
<polygon fill="#e0e0e0" stroke="#999999" points="1868.75,-74.5 1791.25,-74.5 1791.25,-55.25 1868.75,-55.25 1868.75,-74.5"/>
<text xml:space="preserve" text-anchor="middle" x="1830" y="-61" font-family="Helvetica,sans-Serif" font-size="10.00">unordered_set</text>
</a>
</g>
</g>
<!-- Node18&#45;&gt;Node24 -->
<g id="edge27_Node000018_Node000024" class="edge">
<title>Node18&#45;&gt;Node24</title>
<g id="a_edge27_Node000018_Node000024"><a xlink:title=" ">
<path fill="none" stroke="#63b8ff" d="M1567.6,-112.22C1615.44,-103.86 1698.64,-89.29 1780.02,-74.85"/>
<polygon fill="#63b8ff" stroke="#63b8ff" points="1780.25,-78.36 1789.48,-73.17 1779.02,-71.47 1780.25,-78.36"/>
</a>
</g>
</g>
<!-- Node25 -->
<g id="Node000025" class="node">
<title>Node25</title>
<g id="a_Node000025"><a xlink:title=" ">
<polygon fill="#e0e0e0" stroke="#999999" points="1601.62,-74.5 1556.38,-74.5 1556.38,-55.25 1601.62,-55.25 1601.62,-74.5"/>
<text xml:space="preserve" text-anchor="middle" x="1579" y="-61" font-family="Helvetica,sans-Serif" font-size="10.00">variant</text>
</a>
</g>
</g>
<!-- Node18&#45;&gt;Node25 -->
<g id="edge28_Node000018_Node000025" class="edge">
<title>Node18&#45;&gt;Node25</title>
<g id="a_edge28_Node000018_Node000025"><a xlink:title=" ">
<path fill="none" stroke="#63b8ff" d="M1536.42,-110.33C1543.54,-102.9 1553.94,-92.04 1562.69,-82.91"/>
<polygon fill="#63b8ff" stroke="#63b8ff" points="1564.96,-85.6 1569.35,-75.95 1559.9,-80.75 1564.96,-85.6"/>
</a>
</g>
</g>
<!-- Node26 -->
<g id="Node000026" class="node">
<title>Node26</title>
<g id="a_Node000026"><a xlink:title=" ">
<polygon fill="#e0e0e0" stroke="#999999" points="1260.5,-19.25 1217.5,-19.25 1217.5,0 1260.5,0 1260.5,-19.25"/>
<text xml:space="preserve" text-anchor="middle" x="1239" y="-5.75" font-family="Helvetica,sans-Serif" font-size="10.00">vector</text>
</a>
</g>
</g>
<!-- Node18&#45;&gt;Node26 -->
<g id="edge29_Node000018_Node000026" class="edge">
<title>Node18&#45;&gt;Node26</title>
<g id="a_edge29_Node000018_Node000026"><a xlink:title=" ">
<path fill="none" stroke="#63b8ff" d="M1528.13,-110.15C1527.8,-96.17 1524.97,-69.33 1509,-55.25 1474.35,-24.69 1336.54,-14.81 1272.29,-11.82"/>
<polygon fill="#63b8ff" stroke="#63b8ff" points="1272.49,-8.33 1262.35,-11.39 1272.19,-15.32 1272.49,-8.33"/>
</a>
</g>
</g>
<!-- Node27 -->
<g id="Node000027" class="node">
<title>Node27</title>
<g id="a_Node000027"><a xlink:title=" ">
<polygon fill="#e0e0e0" stroke="#999999" points="1500.12,-74.5 1391.88,-74.5 1391.88,-55.25 1500.12,-55.25 1500.12,-74.5"/>
<text xml:space="preserve" text-anchor="middle" x="1446" y="-61" font-family="Helvetica,sans-Serif" font-size="10.00">boost/multi_array.hpp</text>
</a>
</g>
</g>
<!-- Node18&#45;&gt;Node27 -->
<g id="edge30_Node000018_Node000027" class="edge">
<title>Node18&#45;&gt;Node27</title>
<g id="a_edge30_Node000018_Node000027"><a xlink:title=" ">
<path fill="none" stroke="#63b8ff" d="M1514.09,-110.09C1501.84,-102.14 1483.75,-90.39 1469.29,-81"/>
<polygon fill="#63b8ff" stroke="#63b8ff" points="1471.54,-78.29 1461.25,-75.78 1467.73,-84.16 1471.54,-78.29"/>
</a>
</g>
</g>
<!-- Node28 -->
<g id="Node000028" class="node">
<title>Node28</title>
<g id="a_Node000028"><a xlink:href="_types_8hpp.html" target="_top" xlink:title=" ">
<polygon fill="white" stroke="#666666" points="1207.5,-74.5 1146.5,-74.5 1146.5,-55.25 1207.5,-55.25 1207.5,-74.5"/>
<text xml:space="preserve" text-anchor="middle" x="1177" y="-61" font-family="Helvetica,sans-Serif" font-size="10.00">Types.hpp</text>
</a>
</g>
</g>
<!-- Node18&#45;&gt;Node28 -->
<g id="edge31_Node000018_Node000028" class="edge">
<title>Node18&#45;&gt;Node28</title>
<g id="a_edge31_Node000018_Node000028"><a xlink:title=" ">
<path fill="none" stroke="#63b8ff" d="M1488.42,-113.12C1421.64,-102.99 1287.22,-82.6 1218.91,-72.23"/>
<polygon fill="#63b8ff" stroke="#63b8ff" points="1219.65,-68.81 1209.24,-70.77 1218.6,-75.73 1219.65,-68.81"/>
</a>
</g>
</g>
<!-- Node28&#45;&gt;Node26 -->
<g id="edge33_Node000028_Node000026" class="edge">
<title>Node28&#45;&gt;Node26</title>
<g id="a_edge33_Node000028_Node000026"><a xlink:title=" ">
<path fill="none" stroke="#63b8ff" d="M1187.52,-54.84C1196.39,-47.22 1209.31,-36.12 1219.99,-26.95"/>
<polygon fill="#63b8ff" stroke="#63b8ff" points="1222.18,-29.68 1227.49,-20.51 1217.62,-24.37 1222.18,-29.68"/>
</a>
</g>
</g>
<!-- Node29 -->
<g id="Node000029" class="node">
<title>Node29</title>
<g id="a_Node000029"><a xlink:title=" ">
<polygon fill="#e0e0e0" stroke="#999999" points="1199.12,-19.25 1150.88,-19.25 1150.88,0 1199.12,0 1199.12,-19.25"/>
<text xml:space="preserve" text-anchor="middle" x="1175" y="-5.75" font-family="Helvetica,sans-Serif" font-size="10.00">cstddef</text>
</a>
</g>
</g>
<!-- Node28&#45;&gt;Node29 -->
<g id="edge32_Node000028_Node000029" class="edge">
<title>Node28&#45;&gt;Node29</title>
<g id="a_edge32_Node000028_Node000029"><a xlink:title=" ">
<path fill="none" stroke="#63b8ff" d="M1176.67,-55.08C1176.42,-48.49 1176.07,-39.21 1175.76,-30.82"/>
<polygon fill="#63b8ff" stroke="#63b8ff" points="1179.27,-30.98 1175.39,-21.12 1172.27,-31.25 1179.27,-30.98"/>
</a>
</g>
</g>
<!-- Node30&#45;&gt;Node3 -->
<g id="edge37_Node000030_Node000003" class="edge">
<title>Node30&#45;&gt;Node3</title>
<g id="a_edge37_Node000030_Node000003"><a xlink:title=" ">
<path fill="none" stroke="#63b8ff" d="M1624.48,-226.2C1649.54,-216.44 1690.34,-200.23 1725,-185 1806.76,-149.07 1901.55,-102.8 1947.76,-79.94"/>
<polygon fill="#63b8ff" stroke="#63b8ff" points="1949.14,-83.16 1956.54,-75.58 1946.03,-76.89 1949.14,-83.16"/>
</a>
</g>
</g>
<!-- Node30&#45;&gt;Node18 -->
<g id="edge40_Node000030_Node000018" class="edge">
<title>Node30&#45;&gt;Node18</title>
<g id="a_edge40_Node000030_Node000018"><a xlink:title=" ">
<path fill="none" stroke="#63b8ff" d="M1603.78,-226.44C1607.62,-212.53 1612.92,-185.08 1602,-165.75 1594.18,-151.9 1580.15,-141.87 1566.4,-134.87"/>
<polygon fill="#63b8ff" stroke="#63b8ff" points="1567.96,-131.74 1557.41,-130.73 1565.03,-138.1 1567.96,-131.74"/>
</a>
</g>
</g>
<!-- Node30&#45;&gt;Node20 -->
<g id="edge35_Node000030_Node000020" class="edge">
<title>Node30&#45;&gt;Node20</title>
<g id="a_edge35_Node000030_Node000020"><a xlink:title=" ">
<path fill="none" stroke="#63b8ff" d="M1604.51,-226.46C1608.41,-216.51 1614.7,-199.77 1619,-185 1629,-150.66 1637.55,-109.85 1642.21,-86.01"/>
<polygon fill="#63b8ff" stroke="#63b8ff" points="1645.6,-86.9 1644.05,-76.42 1638.73,-85.58 1645.6,-86.9"/>
</a>
</g>
</g>
<!-- Node30&#45;&gt;Node21 -->
<g id="edge36_Node000030_Node000021" class="edge">
<title>Node30&#45;&gt;Node21</title>
<g id="a_edge36_Node000030_Node000021"><a xlink:title=" ">
<path fill="none" stroke="#63b8ff" d="M1617.72,-226.14C1668.89,-198.28 1823.62,-114.01 1885.76,-80.17"/>
<polygon fill="#63b8ff" stroke="#63b8ff" points="1887.14,-83.4 1894.24,-75.54 1883.79,-77.25 1887.14,-83.4"/>
</a>
</g>
</g>
<!-- Node30&#45;&gt;Node28 -->
<g id="edge39_Node000030_Node000028" class="edge">
<title>Node30&#45;&gt;Node28</title>
<g id="a_edge39_Node000030_Node000028"><a xlink:title=" ">
<path fill="none" stroke="#63b8ff" d="M1548.83,-228.91C1474.58,-219.51 1342.4,-201.22 1297,-185 1250.64,-168.44 1232.86,-167.27 1201,-129.75 1190.32,-117.17 1184.15,-99.36 1180.75,-85.74"/>
<polygon fill="#63b8ff" stroke="#63b8ff" points="1184.22,-85.19 1178.68,-76.16 1177.37,-86.67 1184.22,-85.19"/>
</a>
</g>
</g>
<!-- Node31 -->
<g id="Node000031" class="node">
<title>Node31</title>
<g id="a_Node000031"><a xlink:title=" ">
<polygon fill="#e0e0e0" stroke="#999999" points="1593,-185 1523,-185 1523,-165.75 1593,-165.75 1593,-185"/>
<text xml:space="preserve" text-anchor="middle" x="1558" y="-171.5" font-family="Helvetica,sans-Serif" font-size="10.00">H5Opublic.h</text>
</a>
</g>
</g>
<!-- Node30&#45;&gt;Node31 -->
<g id="edge38_Node000030_Node000031" class="edge">
<title>Node30&#45;&gt;Node31</title>
<g id="a_edge38_Node000030_Node000031"><a xlink:title=" ">
<path fill="none" stroke="#63b8ff" d="M1594.47,-226.31C1588.34,-217.92 1579,-205.13 1571.31,-194.59"/>
<polygon fill="#63b8ff" stroke="#63b8ff" points="1574.21,-192.63 1565.48,-186.62 1568.56,-196.76 1574.21,-192.63"/>
</a>
</g>
</g>
<!-- Node30&#45;&gt;Node32 -->
<g id="edge41_Node000030_Node000032" class="edge">
<title>Node30&#45;&gt;Node32</title>
<g id="a_edge41_Node000030_Node000032"><a xlink:title=" ">
<path fill="none" stroke="#63b8ff" d="M1561.56,-226.18C1516.93,-215.92 1444.12,-199.17 1395.41,-187.97"/>
<polygon fill="#63b8ff" stroke="#63b8ff" points="1396.49,-184.63 1385.96,-185.79 1394.92,-191.45 1396.49,-184.63"/>
</a>
</g>
</g>
<!-- Node32&#45;&gt;Node2 -->
<g id="edge43_Node000032_Node000002" class="edge">
<title>Node32&#45;&gt;Node2</title>
<g id="a_edge43_Node000032_Node000002"><a xlink:title=" ">
<path fill="none" stroke="#63b8ff" d="M1305.27,-170.7C1123.67,-153.92 374.26,-84.66 205.05,-69.02"/>
<polygon fill="#63b8ff" stroke="#63b8ff" points="205.46,-65.54 195.18,-68.11 204.81,-72.52 205.46,-65.54"/>
</a>
</g>
</g>
<!-- Node32&#45;&gt;Node3 -->
<g id="edge46_Node000032_Node000003" class="edge">
<title>Node32&#45;&gt;Node3</title>
<g id="a_edge46_Node000032_Node000003"><a xlink:title=" ">
<path fill="none" stroke="#63b8ff" d="M1384.88,-169.93C1480.39,-158.82 1729.74,-127.11 1944.92,-74.82"/>
<polygon fill="#63b8ff" stroke="#63b8ff" points="1945.44,-78.29 1954.32,-72.51 1943.77,-71.5 1945.44,-78.29"/>
</a>
</g>
</g>
<!-- Node32&#45;&gt;Node18 -->
<g id="edge50_Node000032_Node000018" class="edge">
<title>Node32&#45;&gt;Node18</title>
<g id="a_edge50_Node000032_Node000018"><a xlink:title=" ">
<path fill="none" stroke="#63b8ff" d="M1376.04,-165.34C1406.28,-156.54 1452.45,-143.11 1485.97,-133.36"/>
<polygon fill="#63b8ff" stroke="#63b8ff" points="1486.73,-136.78 1495.35,-130.63 1484.77,-130.06 1486.73,-136.78"/>
</a>
</g>
</g>
<!-- Node32&#45;&gt;Node19 -->
<g id="edge42_Node000032_Node000019" class="edge">
<title>Node32&#45;&gt;Node19</title>
<g id="a_edge42_Node000032_Node000019"><a xlink:title=" ">
<path fill="none" stroke="#63b8ff" d="M1339.84,-165.5C1329.65,-147.93 1306.7,-108.41 1292.97,-84.77"/>
<polygon fill="#63b8ff" stroke="#63b8ff" points="1296.03,-83.08 1287.99,-76.19 1289.98,-86.59 1296.03,-83.08"/>
</a>
</g>
</g>
<!-- Node32&#45;&gt;Node20 -->
<g id="edge44_Node000032_Node000020" class="edge">
<title>Node32&#45;&gt;Node20</title>
<g id="a_edge44_Node000032_Node000020"><a xlink:title=" ">
<path fill="none" stroke="#63b8ff" d="M1361.63,-165.31C1386.7,-151.92 1435.95,-126.69 1480,-110.5 1503.3,-101.94 1566.42,-85.66 1607.76,-75.31"/>
<polygon fill="#63b8ff" stroke="#63b8ff" points="1608.47,-78.74 1617.33,-72.92 1606.78,-71.95 1608.47,-78.74"/>
</a>
</g>
</g>
<!-- Node32&#45;&gt;Node21 -->
<g id="edge45_Node000032_Node000021" class="edge">
<title>Node32&#45;&gt;Node21</title>
<g id="a_edge45_Node000032_Node000021"><a xlink:title=" ">
<path fill="none" stroke="#63b8ff" d="M1384.96,-167.78C1472.16,-153.19 1686.23,-116.33 1874.81,-75.11"/>
<polygon fill="#63b8ff" stroke="#63b8ff" points="1875.56,-78.53 1884.57,-72.96 1874.06,-71.69 1875.56,-78.53"/>
</a>
</g>
</g>
<!-- Node32&#45;&gt;Node22 -->
<g id="edge47_Node000032_Node000022" class="edge">
<title>Node32&#45;&gt;Node22</title>
<g id="a_edge47_Node000032_Node000022"><a xlink:title=" ">
<path fill="none" stroke="#63b8ff" d="M1345,-165.5C1345,-148.25 1345,-109.83 1345,-86.06"/>
<polygon fill="#63b8ff" stroke="#63b8ff" points="1348.5,-86.39 1345,-76.39 1341.5,-86.39 1348.5,-86.39"/>
</a>
</g>
</g>
<!-- Node32&#45;&gt;Node26 -->
<g id="edge48_Node000032_Node000026" class="edge">
<title>Node32&#45;&gt;Node26</title>
<g id="a_edge48_Node000032_Node000026"><a xlink:title=" ">
<path fill="none" stroke="#63b8ff" d="M1334.36,-165.32C1315.9,-149.02 1277.88,-112.86 1257,-74.5 1249.49,-60.7 1244.87,-43.47 1242.2,-30.38"/>
<polygon fill="#63b8ff" stroke="#63b8ff" points="1245.69,-30.06 1240.47,-20.84 1238.81,-31.31 1245.69,-30.06"/>
</a>
</g>
</g>
<!-- Node32&#45;&gt;Node27 -->
<g id="edge49_Node000032_Node000027" class="edge">
<title>Node32&#45;&gt;Node27</title>
<g id="a_edge49_Node000032_Node000027"><a xlink:title=" ">
<path fill="none" stroke="#63b8ff" d="M1353.27,-165.5C1369.99,-147.53 1408.08,-106.61 1429.89,-83.19"/>
<polygon fill="#63b8ff" stroke="#63b8ff" points="1432.34,-85.69 1436.59,-75.98 1427.21,-80.92 1432.34,-85.69"/>
</a>
</g>
</g>
<!-- Node32&#45;&gt;Node28 -->
<g id="edge51_Node000032_Node000028" class="edge">
<title>Node32&#45;&gt;Node28</title>
<g id="a_edge51_Node000032_Node000028"><a xlink:title=" ">
<path fill="none" stroke="#63b8ff" d="M1305.09,-165.92C1280.01,-159.17 1247.98,-147.78 1224,-129.75 1207.87,-117.62 1194.8,-98.43 1186.57,-84.25"/>
<polygon fill="#63b8ff" stroke="#63b8ff" points="1189.87,-82.98 1181.99,-75.9 1183.74,-86.35 1189.87,-82.98"/>
</a>
</g>
</g>
<!-- Node33&#45;&gt;Node3 -->
<g id="edge56_Node000033_Node000003" class="edge">
<title>Node33&#45;&gt;Node3</title>
<g id="a_edge56_Node000033_Node000003"><a xlink:title=" ">
<path fill="none" stroke="#63b8ff" d="M1978.38,-397.58C2030.33,-385.14 2103,-357.17 2103,-298.12 2103,-298.12 2103,-298.12 2103,-174.38 2103,-123.96 2044.44,-91.98 2006.85,-76.65"/>
<polygon fill="#63b8ff" stroke="#63b8ff" points="2008.4,-73.5 1997.82,-73.14 2005.87,-80.03 2008.4,-73.5"/>
</a>
</g>
</g>
<!-- Node33&#45;&gt;Node21 -->
<g id="edge55_Node000033_Node000021" class="edge">
<title>Node33&#45;&gt;Node21</title>
<g id="a_edge55_Node000033_Node000021"><a xlink:title=" ">
<path fill="none" stroke="#63b8ff" d="M1940.29,-397.69C1965.72,-379.38 2017.9,-335.25 2008,-287.5 1991.5,-207.87 1944.9,-121.7 1923.28,-84.6"/>
<polygon fill="#63b8ff" stroke="#63b8ff" points="1926.31,-82.84 1918.2,-76.02 1920.29,-86.41 1926.31,-82.84"/>
</a>
</g>
</g>
<!-- Node34 -->
<g id="Node000034" class="node">
<title>Node34</title>
<g id="a_Node000034"><a xlink:href="_registered_type_8hpp.html" target="_top" xlink:title=" ">
<polygon fill="white" stroke="#666666" points="1876,-362 1752,-362 1752,-342.75 1876,-342.75 1876,-362"/>
<text xml:space="preserve" text-anchor="middle" x="1814" y="-348.5" font-family="Helvetica,sans-Serif" font-size="10.00">nwb/RegisteredType.hpp</text>
</a>
</g>
</g>
<!-- Node33&#45;&gt;Node34 -->
<g id="edge57_Node000033_Node000034" class="edge">
<title>Node33&#45;&gt;Node34</title>
<g id="a_edge57_Node000033_Node000034"><a xlink:title=" ">
<path fill="none" stroke="#63b8ff" d="M1907.83,-397.59C1890.22,-389.29 1863.84,-376.86 1843.54,-367.29"/>
<polygon fill="#63b8ff" stroke="#63b8ff" points="1845.17,-364.19 1834.63,-363.1 1842.19,-370.53 1845.17,-364.19"/>
</a>
</g>
</g>
<!-- Node34&#45;&gt;Node3 -->
<g id="edge61_Node000034_Node000003" class="edge">
<title>Node34&#45;&gt;Node3</title>
<g id="a_edge61_Node000034_Node000003"><a xlink:title=" ">
<path fill="none" stroke="#63b8ff" d="M1876.24,-345.21C1926.42,-338.83 1991.29,-326.91 2008,-306.75 2063.7,-239.56 2045.67,-192.21 2015,-110.5 2010.96,-99.75 2003.03,-89.89 1995.37,-82.19"/>
<polygon fill="#63b8ff" stroke="#63b8ff" points="1998.17,-80.01 1988.47,-75.77 1993.41,-85.14 1998.17,-80.01"/>
</a>
</g>
</g>
<!-- Node34&#45;&gt;Node4 -->
<g id="edge65_Node000034_Node000004" class="edge">
<title>Node34&#45;&gt;Node4</title>
<g id="a_edge65_Node000034_Node000004"><a xlink:title=" ">
<path fill="none" stroke="#63b8ff" d="M1751.74,-346.97C1601.7,-336.36 1223.45,-309.61 1100.37,-300.91"/>
<polygon fill="#63b8ff" stroke="#63b8ff" points="1100.67,-297.42 1090.45,-300.21 1100.18,-304.4 1100.67,-297.42"/>
</a>
</g>
</g>
<!-- Node34&#45;&gt;Node18 -->
<g id="edge66_Node000034_Node000018" class="edge">
<title>Node34&#45;&gt;Node18</title>
<g id="a_edge66_Node000034_Node000018"><a xlink:title=" ">
<path fill="none" stroke="#63b8ff" d="M1796.71,-342.37C1781.72,-334.14 1759.85,-321.1 1743,-306.75 1679.46,-252.65 1685.3,-216.43 1619,-165.75 1602.1,-152.83 1580.86,-142.16 1563.16,-134.5"/>
<polygon fill="#63b8ff" stroke="#63b8ff" points="1564.63,-131.32 1554.06,-130.7 1561.94,-137.78 1564.63,-131.32"/>
</a>
</g>
</g>
<!-- Node34&#45;&gt;Node21 -->
<g id="edge60_Node000034_Node000021" class="edge">
<title>Node34&#45;&gt;Node21</title>
<g id="a_edge60_Node000034_Node000021"><a xlink:title=" ">
<path fill="none" stroke="#63b8ff" d="M1830.69,-342.3C1843.27,-334.55 1859.88,-322.21 1869,-306.75 1911.73,-234.31 1914.09,-129.84 1912.96,-86.22"/>
<polygon fill="#63b8ff" stroke="#63b8ff" points="1916.47,-86.33 1912.6,-76.46 1909.47,-86.58 1916.47,-86.33"/>
</a>
</g>
</g>
<!-- Node34&#45;&gt;Node23 -->
<g id="edge62_Node000034_Node000023" class="edge">
<title>Node34&#45;&gt;Node23</title>
<g id="a_edge62_Node000034_Node000023"><a xlink:title=" ">
<path fill="none" stroke="#63b8ff" d="M1803.91,-342.51C1795.1,-334.18 1782.72,-320.91 1776,-306.75 1740,-230.87 1733.36,-128.65 1732.2,-85.94"/>
<polygon fill="#63b8ff" stroke="#63b8ff" points="1735.71,-86.13 1732.02,-76.2 1728.71,-86.26 1735.71,-86.13"/>
</a>
</g>
</g>
<!-- Node34&#45;&gt;Node24 -->
<g id="edge63_Node000034_Node000024" class="edge">
<title>Node34&#45;&gt;Node24</title>
<g id="a_edge63_Node000034_Node000024"><a xlink:title=" ">
<path fill="none" stroke="#63b8ff" d="M1825.07,-342.45C1834.26,-334.28 1846.66,-321.27 1852,-306.75 1880.65,-228.92 1852,-127.81 1837.41,-85.67"/>
<polygon fill="#63b8ff" stroke="#63b8ff" points="1840.76,-84.64 1834.08,-76.41 1834.17,-87.01 1840.76,-84.64"/>
</a>
</g>
</g>
<!-- Node34&#45;&gt;Node28 -->
<g id="edge64_Node000034_Node000028" class="edge">
<title>Node34&#45;&gt;Node28</title>
<g id="a_edge64_Node000034_Node000028"><a xlink:title=" ">
<path fill="none" stroke="#63b8ff" d="M1751.8,-351.42C1510.51,-351.27 636.2,-347.87 362,-306.75 269.95,-292.95 216.47,-325.49 160,-251.5 36.63,-89.85 928.49,-68.93 1134.96,-66.26"/>
<polygon fill="#63b8ff" stroke="#63b8ff" points="1134.73,-69.76 1144.69,-66.14 1134.64,-62.76 1134.73,-69.76"/>
</a>
</g>
</g>
<!-- Node34&#45;&gt;Node32 -->
<g id="edge67_Node000034_Node000032" class="edge">
<title>Node34&#45;&gt;Node32</title>
<g id="a_edge67_Node000034_Node000032"><a xlink:title=" ">
<path fill="none" stroke="#63b8ff" d="M1751.94,-349.96C1458.95,-343 226.09,-310.27 171,-251.5 161.73,-241.61 161.6,-230.77 171,-221 210.46,-180.02 1073.03,-176.57 1293.87,-176.37"/>
<polygon fill="#63b8ff" stroke="#63b8ff" points="1293.58,-179.87 1303.58,-176.36 1293.58,-172.87 1293.58,-179.87"/>
</a>
</g>
</g>
<!-- Node35 -->
<g id="Node000035" class="node">
<title>Node35</title>
<g id="a_Node000035"><a xlink:title=" ">
<polygon fill="#e0e0e0" stroke="#999999" points="1998.5,-306.75 1937.5,-306.75 1937.5,-287.5 1998.5,-287.5 1998.5,-306.75"/>
<text xml:space="preserve" text-anchor="middle" x="1968" y="-293.25" font-family="Helvetica,sans-Serif" font-size="10.00">filesystem</text>
</a>
</g>
</g>
<!-- Node34&#45;&gt;Node35 -->
<g id="edge58_Node000034_Node000035" class="edge">
<title>Node34&#45;&gt;Node35</title>
<g id="a_edge58_Node000034_Node000035"><a xlink:title=" ">
<path fill="none" stroke="#63b8ff" d="M1840.12,-342.34C1865.12,-333.7 1903.08,-320.57 1931.15,-310.87"/>
<polygon fill="#63b8ff" stroke="#63b8ff" points="1932.01,-314.27 1940.32,-307.7 1929.72,-307.66 1932.01,-314.27"/>
</a>
</g>
</g>
<!-- Node36 -->
<g id="Node000036" class="node">
<title>Node36</title>
<g id="a_Node000036"><a xlink:title=" ">
<polygon fill="#e0e0e0" stroke="#999999" points="1843,-306.75 1785,-306.75 1785,-287.5 1843,-287.5 1843,-306.75"/>
<text xml:space="preserve" text-anchor="middle" x="1814" y="-293.25" font-family="Helvetica,sans-Serif" font-size="10.00">functional</text>
</a>
</g>
</g>
<!-- Node34&#45;&gt;Node36 -->
<g id="edge59_Node000034_Node000036" class="edge">
<title>Node34&#45;&gt;Node36</title>
<g id="a_edge59_Node000034_Node000036"><a xlink:title=" ">
<path fill="none" stroke="#63b8ff" d="M1814,-342.58C1814,-336.07 1814,-326.92 1814,-318.62"/>
<polygon fill="#63b8ff" stroke="#63b8ff" points="1817.5,-318.62 1814,-308.62 1810.5,-318.62 1817.5,-318.62"/>
</a>
</g>
</g>
</g>
</svg>
