<?xml version="1.0" encoding="UTF-8" standalone="no"?>
<!DOCTYPE svg PUBLIC "-//W3C//DTD SVG 1.1//EN"
 "http://www.w3.org/Graphics/SVG/1.1/DTD/svg11.dtd">
<!-- Generated by graphviz version 12.2.1 (20241206.2353)
 -->
<!-- Title: src/nwb/base/TimeSeries.hpp Pages: 1 -->
<svg width="1989pt" height="425pt"
 viewBox="0.00 0.00 1989.00 425.25" xmlns="http://www.w3.org/2000/svg" xmlns:xlink="http://www.w3.org/1999/xlink">
<g id="graph0" class="graph" transform="scale(1 1) rotate(0) translate(4 421.25)">
<title>src/nwb/base/TimeSeries.hpp</title>
<!-- Node1 -->
<g id="Node000001" class="node">
<title>Node1</title>
<g id="a_Node000001"><a xlink:title=" ">
<polygon fill="#999999" stroke="#666666" points="243.88,-417.25 98.12,-417.25 98.12,-398 243.88,-398 243.88,-417.25"/>
<text text-anchor="middle" x="171" y="-403.75" font-family="Helvetica,sans-Serif" font-size="10.00">src/nwb/base/TimeSeries.hpp</text>
</a>
</g>
</g>
<!-- Node2 -->
<g id="Node000002" class="node">
<title>Node2</title>
<g id="a_Node000002"><a xlink:title=" ">
<polygon fill="#e0e0e0" stroke="#999999" points="579.62,-74.5 534.38,-74.5 534.38,-55.25 579.62,-55.25 579.62,-74.5"/>
<text text-anchor="middle" x="557" y="-61" font-family="Helvetica,sans-Serif" font-size="10.00">cstdint</text>
</a>
</g>
</g>
<!-- Node1&#45;&gt;Node2 -->
<g id="edge1_Node000001_Node000002" class="edge">
<title>Node1&#45;&gt;Node2</title>
<g id="a_edge1_Node000001_Node000002"><a xlink:title=" ">
<path fill="none" stroke="#63b8ff" d="M122.91,-397.58C72.33,-384.95 0,-356.67 0,-298.12 0,-298.12 0,-298.12 0,-180 0,-72.76 401.28,-65.35 522.64,-65.56"/>
<polygon fill="#63b8ff" stroke="#63b8ff" points="522.6,-69.06 532.61,-65.6 522.63,-62.06 522.6,-69.06"/>
</a>
</g>
</g>
<!-- Node3 -->
<g id="Node000003" class="node">
<title>Node3</title>
<g id="a_Node000003"><a xlink:title=" ">
<polygon fill="#e0e0e0" stroke="#999999" points="1862,-74.5 1822,-74.5 1822,-55.25 1862,-55.25 1862,-74.5"/>
<text text-anchor="middle" x="1842" y="-61" font-family="Helvetica,sans-Serif" font-size="10.00">string</text>
</a>
</g>
</g>
<!-- Node1&#45;&gt;Node3 -->
<g id="edge2_Node000001_Node000003" class="edge">
<title>Node1&#45;&gt;Node3</title>
<g id="a_edge2_Node000001_Node000003"><a xlink:title=" ">
<path fill="none" stroke="#63b8ff" d="M244.36,-406.28C545.19,-404.64 1675.88,-396.24 1832,-362 1902.38,-346.56 1981,-370.18 1981,-298.12 1981,-298.12 1981,-298.12 1981,-180 1981,-124.49 1913.96,-91.04 1873,-75.78"/>
<polygon fill="#63b8ff" stroke="#63b8ff" points="1874.23,-72.5 1863.64,-72.46 1871.89,-79.1 1874.23,-72.5"/>
</a>
</g>
</g>
<!-- Node4 -->
<g id="Node000004" class="node">
<title>Node4</title>
<g id="a_Node000004"><a xlink:href="_utils_8hpp.html" target="_top" xlink:title=" ">
<polygon fill="white" stroke="#666666" points="744.5,-251.5 689.5,-251.5 689.5,-232.25 744.5,-232.25 744.5,-251.5"/>
<text text-anchor="middle" x="717" y="-238" font-family="Helvetica,sans-Serif" font-size="10.00">Utils.hpp</text>
</a>
</g>
</g>
<!-- Node1&#45;&gt;Node4 -->
<g id="edge3_Node000001_Node000004" class="edge">
<title>Node1&#45;&gt;Node4</title>
<g id="a_edge3_Node000001_Node000004"><a xlink:title=" ">
<path fill="none" stroke="#63b8ff" d="M201.13,-397.59C293.9,-369.77 575.13,-285.42 678.42,-254.45"/>
<polygon fill="#63b8ff" stroke="#63b8ff" points="679.24,-257.85 687.81,-251.63 677.23,-251.15 679.24,-257.85"/>
</a>
</g>
</g>
<!-- Node17 -->
<g id="Node000017" class="node">
<title>Node17</title>
<g id="a_Node000017"><a xlink:href="_base_i_o_8hpp.html" target="_top" xlink:title=" ">
<polygon fill="white" stroke="#666666" points="1447.12,-129.75 1368.88,-129.75 1368.88,-110.5 1447.12,-110.5 1447.12,-129.75"/>
<text text-anchor="middle" x="1408" y="-116.25" font-family="Helvetica,sans-Serif" font-size="10.00">io/BaseIO.hpp</text>
</a>
</g>
</g>
<!-- Node1&#45;&gt;Node17 -->
<g id="edge48_Node000001_Node000017" class="edge">
<title>Node1&#45;&gt;Node17</title>
<g id="a_edge48_Node000001_Node000017"><a xlink:title=" ">
<path fill="none" stroke="#63b8ff" d="M168.36,-397.72C163.14,-379.3 152,-335.61 152,-298.12 152,-298.12 152,-298.12 152,-240.88 152,-206.43 144.16,-187.34 171,-165.75 220.25,-126.14 1244.91,-133.47 1308,-129.75 1324.1,-128.8 1341.62,-127.41 1357.44,-126.02"/>
<polygon fill="#63b8ff" stroke="#63b8ff" points="1357.46,-129.54 1367.11,-125.16 1356.83,-122.56 1357.46,-129.54"/>
</a>
</g>
</g>
<!-- Node29 -->
<g id="Node000029" class="node">
<title>Node29</title>
<g id="a_Node000029"><a xlink:href="_read_i_o_8hpp.html" target="_top" xlink:title=" ">
<polygon fill="white" stroke="#666666" points="1298.5,-129.75 1219.5,-129.75 1219.5,-110.5 1298.5,-110.5 1298.5,-129.75"/>
<text text-anchor="middle" x="1259" y="-116.25" font-family="Helvetica,sans-Serif" font-size="10.00">io/ReadIO.hpp</text>
</a>
</g>
</g>
<!-- Node1&#45;&gt;Node29 -->
<g id="edge49_Node000001_Node000029" class="edge">
<title>Node1&#45;&gt;Node29</title>
<g id="a_edge49_Node000001_Node000029"><a xlink:title=" ">
<path fill="none" stroke="#63b8ff" d="M142.14,-397.56C103.02,-383.26 38,-351.47 38,-298.12 38,-298.12 38,-298.12 38,-240.88 38,-177.2 99.1,-184.34 160,-165.75 260.78,-134.99 1004.71,-124.1 1207.86,-121.68"/>
<polygon fill="#63b8ff" stroke="#63b8ff" points="1207.6,-125.18 1217.56,-121.57 1207.52,-118.19 1207.6,-125.18"/>
</a>
</g>
</g>
<!-- Node31 -->
<g id="Node000031" class="node">
<title>Node31</title>
<g id="a_Node000031"><a xlink:href="_container_8hpp.html" target="_top" xlink:title=" ">
<polygon fill="white" stroke="#666666" points="1822.88,-362 1677.12,-362 1677.12,-342.75 1822.88,-342.75 1822.88,-362"/>
<text text-anchor="middle" x="1750" y="-348.5" font-family="Helvetica,sans-Serif" font-size="10.00">nwb/hdmf/base/Container.hpp</text>
</a>
</g>
</g>
<!-- Node1&#45;&gt;Node31 -->
<g id="edge50_Node000001_Node000031" class="edge">
<title>Node1&#45;&gt;Node31</title>
<g id="a_edge50_Node000001_Node000031"><a xlink:title=" ">
<path fill="none" stroke="#63b8ff" d="M244.25,-404.15C505.13,-395.36 1388.09,-365.58 1665.72,-356.22"/>
<polygon fill="#63b8ff" stroke="#63b8ff" points="1665.52,-359.73 1675.4,-355.89 1665.29,-352.73 1665.52,-359.73"/>
</a>
</g>
</g>
<!-- Node4&#45;&gt;Node2 -->
<g id="edge7_Node000004_Node000002" class="edge">
<title>Node4&#45;&gt;Node2</title>
<g id="a_edge7_Node000004_Node000002"><a xlink:title=" ">
<path fill="none" stroke="#63b8ff" d="M689.02,-240.75C582.49,-240 206.37,-234.63 171,-196.25 67.86,-84.34 410.76,-68.45 522.79,-66.23"/>
<polygon fill="#63b8ff" stroke="#63b8ff" points="522.63,-69.73 532.57,-66.06 522.51,-62.73 522.63,-69.73"/>
</a>
</g>
</g>
<!-- Node4&#45;&gt;Node3 -->
<g id="edge11_Node000004_Node000003" class="edge">
<title>Node4&#45;&gt;Node3</title>
<g id="a_edge11_Node000004_Node000003"><a xlink:title=" ">
<path fill="none" stroke="#63b8ff" d="M744.65,-241.14C875.91,-242.15 1436.72,-243.58 1604,-196.25 1691.16,-171.59 1781.64,-110.43 1821.3,-81.51"/>
<polygon fill="#63b8ff" stroke="#63b8ff" points="1823.28,-84.39 1829.24,-75.63 1819.12,-78.76 1823.28,-84.39"/>
</a>
</g>
</g>
<!-- Node5 -->
<g id="Node000005" class="node">
<title>Node5</title>
<g id="a_Node000005"><a xlink:title=" ">
<polygon fill="#e0e0e0" stroke="#999999" points="373.88,-190.62 318.12,-190.62 318.12,-171.38 373.88,-171.38 373.88,-190.62"/>
<text text-anchor="middle" x="346" y="-177.12" font-family="Helvetica,sans-Serif" font-size="10.00">algorithm</text>
</a>
</g>
</g>
<!-- Node4&#45;&gt;Node5 -->
<g id="edge4_Node000004_Node000005" class="edge">
<title>Node4&#45;&gt;Node5</title>
<g id="a_edge4_Node000004_Node000005"><a xlink:title=" ">
<path fill="none" stroke="#63b8ff" d="M689.31,-239.38C631.56,-235.77 494.38,-224.72 383,-196.25 381.25,-195.8 379.47,-195.3 377.68,-194.75"/>
<polygon fill="#63b8ff" stroke="#63b8ff" points="378.88,-191.46 368.28,-191.51 376.59,-198.08 378.88,-191.46"/>
</a>
</g>
</g>
<!-- Node6 -->
<g id="Node000006" class="node">
<title>Node6</title>
<g id="a_Node000006"><a xlink:title=" ">
<polygon fill="#e0e0e0" stroke="#999999" points="437.62,-190.62 392.38,-190.62 392.38,-171.38 437.62,-171.38 437.62,-190.62"/>
<text text-anchor="middle" x="415" y="-177.12" font-family="Helvetica,sans-Serif" font-size="10.00">chrono</text>
</a>
</g>
</g>
<!-- Node4&#45;&gt;Node6 -->
<g id="edge5_Node000004_Node000006" class="edge">
<title>Node4&#45;&gt;Node6</title>
<g id="a_edge5_Node000004_Node000006"><a xlink:title=" ">
<path fill="none" stroke="#63b8ff" d="M689.27,-238.64C639.75,-234.14 533.24,-222.11 447,-196.25 446.01,-195.95 445,-195.63 443.99,-195.29"/>
<polygon fill="#63b8ff" stroke="#63b8ff" points="445.31,-192.04 434.72,-191.66 442.76,-198.56 445.31,-192.04"/>
</a>
</g>
</g>
<!-- Node7 -->
<g id="Node000007" class="node">
<title>Node7</title>
<g id="a_Node000007"><a xlink:title=" ">
<polygon fill="#e0e0e0" stroke="#999999" points="498.5,-190.62 455.5,-190.62 455.5,-171.38 498.5,-171.38 498.5,-190.62"/>
<text text-anchor="middle" x="477" y="-177.12" font-family="Helvetica,sans-Serif" font-size="10.00">cmath</text>
</a>
</g>
</g>
<!-- Node4&#45;&gt;Node7 -->
<g id="edge6_Node000004_Node000007" class="edge">
<title>Node4&#45;&gt;Node7</title>
<g id="a_edge6_Node000004_Node000007"><a xlink:title=" ">
<path fill="none" stroke="#63b8ff" d="M689.1,-236.92C648.53,-230.73 571.21,-217.24 508,-196.25 507.2,-195.98 506.39,-195.7 505.58,-195.41"/>
<polygon fill="#63b8ff" stroke="#63b8ff" points="507.07,-192.24 496.49,-191.7 504.42,-198.72 507.07,-192.24"/>
</a>
</g>
</g>
<!-- Node8 -->
<g id="Node000008" class="node">
<title>Node8</title>
<g id="a_Node000008"><a xlink:title=" ">
<polygon fill="#e0e0e0" stroke="#999999" points="557,-190.62 517,-190.62 517,-171.38 557,-171.38 557,-190.62"/>
<text text-anchor="middle" x="537" y="-177.12" font-family="Helvetica,sans-Serif" font-size="10.00">ctime</text>
</a>
</g>
</g>
<!-- Node4&#45;&gt;Node8 -->
<g id="edge8_Node000004_Node000008" class="edge">
<title>Node4&#45;&gt;Node8</title>
<g id="a_edge8_Node000004_Node000008"><a xlink:title=" ">
<path fill="none" stroke="#63b8ff" d="M689.25,-234.18C658.6,-226.44 608.02,-212.65 566,-196.25 565.52,-196.06 565.03,-195.87 564.54,-195.67"/>
<polygon fill="#63b8ff" stroke="#63b8ff" points="566.21,-192.58 555.65,-191.7 563.35,-198.97 566.21,-192.58"/>
</a>
</g>
</g>
<!-- Node9 -->
<g id="Node000009" class="node">
<title>Node9</title>
<g id="a_Node000009"><a xlink:title=" ">
<polygon fill="#e0e0e0" stroke="#999999" points="624.88,-190.62 575.12,-190.62 575.12,-171.38 624.88,-171.38 624.88,-190.62"/>
<text text-anchor="middle" x="600" y="-177.12" font-family="Helvetica,sans-Serif" font-size="10.00">iomanip</text>
</a>
</g>
</g>
<!-- Node4&#45;&gt;Node9 -->
<g id="edge9_Node000004_Node000009" class="edge">
<title>Node4&#45;&gt;Node9</title>
<g id="a_edge9_Node000004_Node000009"><a xlink:title=" ">
<path fill="none" stroke="#63b8ff" d="M698.98,-231.8C680.03,-222.27 649.96,-207.14 627.94,-196.06"/>
<polygon fill="#63b8ff" stroke="#63b8ff" points="629.71,-193.03 619.21,-191.66 626.56,-199.29 629.71,-193.03"/>
</a>
</g>
</g>
<!-- Node10 -->
<g id="Node000010" class="node">
<title>Node10</title>
<g id="a_Node000010"><a xlink:title=" ">
<polygon fill="#e0e0e0" stroke="#999999" points="694.62,-190.62 643.38,-190.62 643.38,-171.38 694.62,-171.38 694.62,-190.62"/>
<text text-anchor="middle" x="669" y="-177.12" font-family="Helvetica,sans-Serif" font-size="10.00">sstream</text>
</a>
</g>
</g>
<!-- Node4&#45;&gt;Node10 -->
<g id="edge10_Node000004_Node000010" class="edge">
<title>Node4&#45;&gt;Node10</title>
<g id="a_edge10_Node000004_Node000010"><a xlink:title=" ">
<path fill="none" stroke="#63b8ff" d="M709.71,-231.93C702.8,-223.46 692.23,-210.49 683.59,-199.89"/>
<polygon fill="#63b8ff" stroke="#63b8ff" points="686.35,-197.74 677.32,-192.2 680.92,-202.16 686.35,-197.74"/>
</a>
</g>
</g>
<!-- Node11 -->
<g id="Node000011" class="node">
<title>Node11</title>
<g id="a_Node000011"><a xlink:title=" ">
<polygon fill="#e0e0e0" stroke="#999999" points="817.25,-190.62 712.75,-190.62 712.75,-171.38 817.25,-171.38 817.25,-190.62"/>
<text text-anchor="middle" x="765" y="-177.12" font-family="Helvetica,sans-Serif" font-size="10.00">boost/date_time.hpp</text>
</a>
</g>
</g>
<!-- Node4&#45;&gt;Node11 -->
<g id="edge12_Node000004_Node000011" class="edge">
<title>Node4&#45;&gt;Node11</title>
<g id="a_edge12_Node000004_Node000011"><a xlink:title=" ">
<path fill="none" stroke="#63b8ff" d="M724.29,-231.93C731.2,-223.46 741.77,-210.49 750.41,-199.89"/>
<polygon fill="#63b8ff" stroke="#63b8ff" points="753.08,-202.16 756.68,-192.2 747.65,-197.74 753.08,-202.16"/>
</a>
</g>
</g>
<!-- Node12 -->
<g id="Node000012" class="node">
<title>Node12</title>
<g id="a_Node000012"><a xlink:title=" ">
<polygon fill="#e0e0e0" stroke="#999999" points="976.25,-190.62 835.75,-190.62 835.75,-171.38 976.25,-171.38 976.25,-190.62"/>
<text text-anchor="middle" x="906" y="-177.12" font-family="Helvetica,sans-Serif" font-size="10.00">boost/endian/conversion.hpp</text>
</a>
</g>
</g>
<!-- Node4&#45;&gt;Node12 -->
<g id="edge13_Node000004_Node000012" class="edge">
<title>Node4&#45;&gt;Node12</title>
<g id="a_edge13_Node000004_Node000012"><a xlink:title=" ">
<path fill="none" stroke="#63b8ff" d="M744.89,-232.19C776.9,-222.22 829.66,-205.78 866.03,-194.45"/>
<polygon fill="#63b8ff" stroke="#63b8ff" points="866.8,-197.88 875.31,-191.56 864.72,-191.19 866.8,-197.88"/>
</a>
</g>
</g>
<!-- Node13 -->
<g id="Node000013" class="node">
<title>Node13</title>
<g id="a_Node000013"><a xlink:title=" ">
<polygon fill="#e0e0e0" stroke="#999999" points="1095.38,-190.62 994.62,-190.62 994.62,-171.38 1095.38,-171.38 1095.38,-190.62"/>
<text text-anchor="middle" x="1045" y="-177.12" font-family="Helvetica,sans-Serif" font-size="10.00">boost/uuid/uuid.hpp</text>
</a>
</g>
</g>
<!-- Node4&#45;&gt;Node13 -->
<g id="edge14_Node000004_Node000013" class="edge">
<title>Node4&#45;&gt;Node13</title>
<g id="a_edge14_Node000004_Node000013"><a xlink:title=" ">
<path fill="none" stroke="#63b8ff" d="M744.89,-236.87C793.73,-229.72 897.84,-213.83 985,-196.25 989.07,-195.43 993.28,-194.53 997.5,-193.59"/>
<polygon fill="#63b8ff" stroke="#63b8ff" points="998.15,-197.04 1007.12,-191.4 996.6,-190.21 998.15,-197.04"/>
</a>
</g>
</g>
<!-- Node14 -->
<g id="Node000014" class="node">
<title>Node14</title>
<g id="a_Node000014"><a xlink:title=" ">
<polygon fill="#e0e0e0" stroke="#999999" points="1264.88,-190.62 1113.12,-190.62 1113.12,-171.38 1264.88,-171.38 1264.88,-190.62"/>
<text text-anchor="middle" x="1189" y="-177.12" font-family="Helvetica,sans-Serif" font-size="10.00">boost/uuid/uuid_generators.hpp</text>
</a>
</g>
</g>
<!-- Node4&#45;&gt;Node14 -->
<g id="edge15_Node000004_Node000014" class="edge">
<title>Node4&#45;&gt;Node14</title>
<g id="a_edge15_Node000004_Node000014"><a xlink:title=" ">
<path fill="none" stroke="#63b8ff" d="M744.75,-238.17C808.39,-231.85 969.73,-215.23 1104,-196.25 1111.18,-195.23 1118.69,-194.09 1126.15,-192.91"/>
<polygon fill="#63b8ff" stroke="#63b8ff" points="1126.57,-196.39 1135.88,-191.33 1125.45,-189.48 1126.57,-196.39"/>
</a>
</g>
</g>
<!-- Node15 -->
<g id="Node000015" class="node">
<title>Node15</title>
<g id="a_Node000015"><a xlink:title=" ">
<polygon fill="#e0e0e0" stroke="#999999" points="1396.75,-190.62 1283.25,-190.62 1283.25,-171.38 1396.75,-171.38 1396.75,-190.62"/>
<text text-anchor="middle" x="1340" y="-177.12" font-family="Helvetica,sans-Serif" font-size="10.00">boost/uuid/uuid_io.hpp</text>
</a>
</g>
</g>
<!-- Node4&#45;&gt;Node15 -->
<g id="edge16_Node000004_Node000015" class="edge">
<title>Node4&#45;&gt;Node15</title>
<g id="a_edge16_Node000004_Node000015"><a xlink:title=" ">
<path fill="none" stroke="#63b8ff" d="M744.97,-239.95C826.76,-236.95 1072.45,-225.95 1274,-196.25 1279.58,-195.43 1285.4,-194.41 1291.17,-193.3"/>
<polygon fill="#63b8ff" stroke="#63b8ff" points="1291.53,-196.8 1300.63,-191.38 1290.14,-189.94 1291.53,-196.8"/>
</a>
</g>
</g>
<!-- Node16 -->
<g id="Node000016" class="node">
<title>Node16</title>
<g id="a_Node000016"><a xlink:title=" ">
<polygon fill="#e0e0e0" stroke="#999999" points="299.75,-196.25 180.25,-196.25 180.25,-165.75 299.75,-165.75 299.75,-196.25"/>
<text text-anchor="start" x="188.25" y="-182.75" font-family="Helvetica,sans-Serif" font-size="10.00">boost/date_time/c_local</text>
<text text-anchor="middle" x="240" y="-171.5" font-family="Helvetica,sans-Serif" font-size="10.00">_time_adjustor.hpp</text>
</a>
</g>
</g>
<!-- Node4&#45;&gt;Node16 -->
<g id="edge17_Node000004_Node000016" class="edge">
<title>Node4&#45;&gt;Node16</title>
<g id="a_edge17_Node000004_Node000016"><a xlink:title=" ">
<path fill="none" stroke="#63b8ff" d="M689.18,-238.75C624.63,-233.62 459.51,-219.37 311.25,-196.5"/>
<polygon fill="#63b8ff" stroke="#63b8ff" points="312.07,-193.09 301.64,-195.01 310.98,-200.01 312.07,-193.09"/>
</a>
</g>
</g>
<!-- Node4&#45;&gt;Node17 -->
<g id="edge18_Node000004_Node000017" class="edge">
<title>Node4&#45;&gt;Node17</title>
<g id="a_edge18_Node000004_Node000017"><a xlink:title=" ">
<path fill="none" stroke="#63b8ff" d="M744.83,-241.23C867.94,-242.51 1359.5,-244.56 1406,-196.25 1419.76,-181.95 1417.88,-158.13 1414.08,-141.14"/>
<polygon fill="#63b8ff" stroke="#63b8ff" points="1417.52,-140.45 1411.56,-131.68 1410.75,-142.24 1417.52,-140.45"/>
</a>
</g>
</g>
<!-- Node27 -->
<g id="Node000027" class="node">
<title>Node27</title>
<g id="a_Node000027"><a xlink:href="_h_d_f5_i_o_8hpp.html" target="_top" xlink:title=" ">
<polygon fill="white" stroke="#666666" points="1594.88,-190.62 1491.12,-190.62 1491.12,-171.38 1594.88,-171.38 1594.88,-190.62"/>
<text text-anchor="middle" x="1543" y="-177.12" font-family="Helvetica,sans-Serif" font-size="10.00">io/hdf5/HDF5IO.hpp</text>
</a>
</g>
</g>
<!-- Node4&#45;&gt;Node27 -->
<g id="edge31_Node000004_Node000027" class="edge">
<title>Node4&#45;&gt;Node27</title>
<g id="a_edge31_Node000004_Node000027"><a xlink:title=" ">
<path fill="none" stroke="#63b8ff" d="M744.94,-239.9C841.4,-236.36 1169.37,-223.02 1439,-196.25 1452.18,-194.94 1466.25,-193.23 1479.65,-191.45"/>
<polygon fill="#63b8ff" stroke="#63b8ff" points="1479.78,-194.96 1489.22,-190.14 1478.84,-188.02 1479.78,-194.96"/>
</a>
</g>
</g>
<!-- Node17&#45;&gt;Node2 -->
<g id="edge20_Node000017_Node000002" class="edge">
<title>Node17&#45;&gt;Node2</title>
<g id="a_edge20_Node000017_Node000002"><a xlink:title=" ">
<path fill="none" stroke="#63b8ff" d="M1368.6,-115.48C1350.2,-113.84 1327.99,-111.96 1308,-110.5 1031.73,-90.38 697.8,-72.97 591.34,-67.59"/>
<polygon fill="#63b8ff" stroke="#63b8ff" points="591.74,-64.1 581.57,-67.1 591.38,-71.1 591.74,-64.1"/>
</a>
</g>
</g>
<!-- Node17&#45;&gt;Node3 -->
<g id="edge23_Node000017_Node000003" class="edge">
<title>Node17&#45;&gt;Node3</title>
<g id="a_edge23_Node000017_Node000003"><a xlink:title=" ">
<path fill="none" stroke="#63b8ff" d="M1447.51,-111.78C1450.38,-111.32 1453.23,-110.89 1456,-110.5 1610.38,-88.88 1654.57,-104.62 1810.59,-74.63"/>
<polygon fill="#63b8ff" stroke="#63b8ff" points="1810.9,-78.13 1820.04,-72.78 1809.55,-71.26 1810.9,-78.13"/>
</a>
</g>
</g>
<!-- Node18 -->
<g id="Node000018" class="node">
<title>Node18</title>
<g id="a_Node000018"><a xlink:title=" ">
<polygon fill="#e0e0e0" stroke="#999999" points="1420.88,-74.5 1389.12,-74.5 1389.12,-55.25 1420.88,-55.25 1420.88,-74.5"/>
<text text-anchor="middle" x="1405" y="-61" font-family="Helvetica,sans-Serif" font-size="10.00">any</text>
</a>
</g>
</g>
<!-- Node17&#45;&gt;Node18 -->
<g id="edge19_Node000017_Node000018" class="edge">
<title>Node17&#45;&gt;Node18</title>
<g id="a_edge19_Node000017_Node000018"><a xlink:title=" ">
<path fill="none" stroke="#63b8ff" d="M1407.5,-110.33C1407.13,-103.74 1406.61,-94.46 1406.14,-86.07"/>
<polygon fill="#63b8ff" stroke="#63b8ff" points="1409.65,-86.16 1405.59,-76.37 1402.66,-86.55 1409.65,-86.16"/>
</a>
</g>
</g>
<!-- Node19 -->
<g id="Node000019" class="node">
<title>Node19</title>
<g id="a_Node000019"><a xlink:title=" ">
<polygon fill="#e0e0e0" stroke="#999999" points="1370.75,-74.5 1317.25,-74.5 1317.25,-55.25 1370.75,-55.25 1370.75,-74.5"/>
<text text-anchor="middle" x="1344" y="-61" font-family="Helvetica,sans-Serif" font-size="10.00">iostream</text>
</a>
</g>
</g>
<!-- Node17&#45;&gt;Node19 -->
<g id="edge21_Node000017_Node000019" class="edge">
<title>Node17&#45;&gt;Node19</title>
<g id="a_edge21_Node000017_Node000019"><a xlink:title=" ">
<path fill="none" stroke="#63b8ff" d="M1397.14,-110.09C1387.89,-102.4 1374.38,-91.15 1363.29,-81.93"/>
<polygon fill="#63b8ff" stroke="#63b8ff" points="1365.79,-79.45 1355.86,-75.74 1361.31,-84.83 1365.79,-79.45"/>
</a>
</g>
</g>
<!-- Node20 -->
<g id="Node000020" class="node">
<title>Node20</title>
<g id="a_Node000020"><a xlink:title=" ">
<polygon fill="#e0e0e0" stroke="#999999" points="1803.62,-74.5 1752.38,-74.5 1752.38,-55.25 1803.62,-55.25 1803.62,-74.5"/>
<text text-anchor="middle" x="1778" y="-61" font-family="Helvetica,sans-Serif" font-size="10.00">memory</text>
</a>
</g>
</g>
<!-- Node17&#45;&gt;Node20 -->
<g id="edge22_Node000017_Node000020" class="edge">
<title>Node17&#45;&gt;Node20</title>
<g id="a_edge22_Node000017_Node000020"><a xlink:title=" ">
<path fill="none" stroke="#63b8ff" d="M1447.52,-111.85C1450.39,-111.38 1453.24,-110.92 1456,-110.5 1579.92,-91.64 1615.25,-98.01 1740.87,-74.9"/>
<polygon fill="#63b8ff" stroke="#63b8ff" points="1741.41,-78.36 1750.6,-73.08 1740.12,-71.48 1741.41,-78.36"/>
</a>
</g>
</g>
<!-- Node21 -->
<g id="Node000021" class="node">
<title>Node21</title>
<g id="a_Node000021"><a xlink:title=" ">
<polygon fill="#e0e0e0" stroke="#999999" points="1639.38,-74.5 1556.62,-74.5 1556.62,-55.25 1639.38,-55.25 1639.38,-74.5"/>
<text text-anchor="middle" x="1598" y="-61" font-family="Helvetica,sans-Serif" font-size="10.00">unordered_map</text>
</a>
</g>
</g>
<!-- Node17&#45;&gt;Node21 -->
<g id="edge24_Node000017_Node000021" class="edge">
<title>Node17&#45;&gt;Node21</title>
<g id="a_edge24_Node000017_Node000021"><a xlink:title=" ">
<path fill="none" stroke="#63b8ff" d="M1440.23,-110.09C1471.76,-101.26 1519.98,-87.74 1554.81,-77.98"/>
<polygon fill="#63b8ff" stroke="#63b8ff" points="1555.47,-81.43 1564.15,-75.36 1553.58,-74.69 1555.47,-81.43"/>
</a>
</g>
</g>
<!-- Node22 -->
<g id="Node000022" class="node">
<title>Node22</title>
<g id="a_Node000022"><a xlink:title=" ">
<polygon fill="#e0e0e0" stroke="#999999" points="1734.75,-74.5 1657.25,-74.5 1657.25,-55.25 1734.75,-55.25 1734.75,-74.5"/>
<text text-anchor="middle" x="1696" y="-61" font-family="Helvetica,sans-Serif" font-size="10.00">unordered_set</text>
</a>
</g>
</g>
<!-- Node17&#45;&gt;Node22 -->
<g id="edge25_Node000017_Node000022" class="edge">
<title>Node17&#45;&gt;Node22</title>
<g id="a_edge25_Node000017_Node000022"><a xlink:title=" ">
<path fill="none" stroke="#63b8ff" d="M1447.44,-111.83C1499.04,-102.29 1589.49,-85.57 1645.89,-75.14"/>
<polygon fill="#63b8ff" stroke="#63b8ff" points="1646.35,-78.61 1655.55,-73.35 1645.08,-71.73 1646.35,-78.61"/>
</a>
</g>
</g>
<!-- Node23 -->
<g id="Node000023" class="node">
<title>Node23</title>
<g id="a_Node000023"><a xlink:title=" ">
<polygon fill="#e0e0e0" stroke="#999999" points="1467.5,-19.25 1424.5,-19.25 1424.5,0 1467.5,0 1467.5,-19.25"/>
<text text-anchor="middle" x="1446" y="-5.75" font-family="Helvetica,sans-Serif" font-size="10.00">vector</text>
</a>
</g>
</g>
<!-- Node17&#45;&gt;Node23 -->
<g id="edge26_Node000017_Node000023" class="edge">
<title>Node17&#45;&gt;Node23</title>
<g id="a_edge26_Node000017_Node000023"><a xlink:title=" ">
<path fill="none" stroke="#63b8ff" d="M1413.14,-110.15C1418.02,-101.31 1425.3,-87.31 1430,-74.5 1435.26,-60.17 1439.38,-43.42 1442.13,-30.66"/>
<polygon fill="#63b8ff" stroke="#63b8ff" points="1445.54,-31.46 1444.1,-20.96 1438.68,-30.07 1445.54,-31.46"/>
</a>
</g>
</g>
<!-- Node24 -->
<g id="Node000024" class="node">
<title>Node24</title>
<g id="a_Node000024"><a xlink:title=" ">
<polygon fill="#e0e0e0" stroke="#999999" points="1299.12,-74.5 1190.88,-74.5 1190.88,-55.25 1299.12,-55.25 1299.12,-74.5"/>
<text text-anchor="middle" x="1245" y="-61" font-family="Helvetica,sans-Serif" font-size="10.00">boost/multi_array.hpp</text>
</a>
</g>
</g>
<!-- Node17&#45;&gt;Node24 -->
<g id="edge27_Node000017_Node000024" class="edge">
<title>Node17&#45;&gt;Node24</title>
<g id="a_edge27_Node000017_Node000024"><a xlink:title=" ">
<path fill="none" stroke="#63b8ff" d="M1380.35,-110.09C1353.77,-101.41 1313.36,-88.21 1283.61,-78.49"/>
<polygon fill="#63b8ff" stroke="#63b8ff" points="1284.82,-75.2 1274.23,-75.42 1282.64,-81.85 1284.82,-75.2"/>
</a>
</g>
</g>
<!-- Node25 -->
<g id="Node000025" class="node">
<title>Node25</title>
<g id="a_Node000025"><a xlink:href="_types_8hpp.html" target="_top" xlink:title=" ">
<polygon fill="white" stroke="#666666" points="1538.5,-74.5 1477.5,-74.5 1477.5,-55.25 1538.5,-55.25 1538.5,-74.5"/>
<text text-anchor="middle" x="1508" y="-61" font-family="Helvetica,sans-Serif" font-size="10.00">Types.hpp</text>
</a>
</g>
</g>
<!-- Node17&#45;&gt;Node25 -->
<g id="edge28_Node000017_Node000025" class="edge">
<title>Node17&#45;&gt;Node25</title>
<g id="a_edge28_Node000017_Node000025"><a xlink:title=" ">
<path fill="none" stroke="#63b8ff" d="M1424.96,-110.09C1440.26,-101.94 1463.03,-89.82 1480.86,-80.33"/>
<polygon fill="#63b8ff" stroke="#63b8ff" points="1482.44,-83.45 1489.62,-75.66 1479.15,-77.27 1482.44,-83.45"/>
</a>
</g>
</g>
<!-- Node25&#45;&gt;Node23 -->
<g id="edge30_Node000025_Node000023" class="edge">
<title>Node25&#45;&gt;Node23</title>
<g id="a_edge30_Node000025_Node000023"><a xlink:title=" ">
<path fill="none" stroke="#63b8ff" d="M1497.48,-54.84C1488.61,-47.22 1475.69,-36.12 1465.01,-26.95"/>
<polygon fill="#63b8ff" stroke="#63b8ff" points="1467.38,-24.37 1457.51,-20.51 1462.82,-29.68 1467.38,-24.37"/>
</a>
</g>
</g>
<!-- Node26 -->
<g id="Node000026" class="node">
<title>Node26</title>
<g id="a_Node000026"><a xlink:title=" ">
<polygon fill="#e0e0e0" stroke="#999999" points="1534.12,-19.25 1485.88,-19.25 1485.88,0 1534.12,0 1534.12,-19.25"/>
<text text-anchor="middle" x="1510" y="-5.75" font-family="Helvetica,sans-Serif" font-size="10.00">cstddef</text>
</a>
</g>
</g>
<!-- Node25&#45;&gt;Node26 -->
<g id="edge29_Node000025_Node000026" class="edge">
<title>Node25&#45;&gt;Node26</title>
<g id="a_edge29_Node000025_Node000026"><a xlink:title=" ">
<path fill="none" stroke="#63b8ff" d="M1508.33,-55.08C1508.58,-48.49 1508.93,-39.21 1509.24,-30.82"/>
<polygon fill="#63b8ff" stroke="#63b8ff" points="1512.73,-31.25 1509.61,-21.12 1505.73,-30.98 1512.73,-31.25"/>
</a>
</g>
</g>
<!-- Node27&#45;&gt;Node3 -->
<g id="edge34_Node000027_Node000003" class="edge">
<title>Node27&#45;&gt;Node3</title>
<g id="a_edge34_Node000027_Node000003"><a xlink:title=" ">
<path fill="none" stroke="#63b8ff" d="M1568.97,-170.9C1596.96,-161.02 1642.78,-144.66 1682,-129.75 1727.26,-112.54 1779.27,-91.55 1811.39,-78.44"/>
<polygon fill="#63b8ff" stroke="#63b8ff" points="1812.54,-81.75 1820.48,-74.73 1809.9,-75.27 1812.54,-81.75"/>
</a>
</g>
</g>
<!-- Node27&#45;&gt;Node17 -->
<g id="edge37_Node000027_Node000017" class="edge">
<title>Node27&#45;&gt;Node17</title>
<g id="a_edge37_Node000027_Node000017"><a xlink:title=" ">
<path fill="none" stroke="#63b8ff" d="M1522.2,-170.93C1499.94,-161.22 1464.38,-145.71 1438.86,-134.58"/>
<polygon fill="#63b8ff" stroke="#63b8ff" points="1440.55,-131.5 1429.99,-130.71 1437.75,-137.92 1440.55,-131.5"/>
</a>
</g>
</g>
<!-- Node27&#45;&gt;Node19 -->
<g id="edge32_Node000027_Node000019" class="edge">
<title>Node27&#45;&gt;Node19</title>
<g id="a_edge32_Node000027_Node000019"><a xlink:title=" ">
<path fill="none" stroke="#63b8ff" d="M1490.97,-179.33C1449.93,-175.96 1394.09,-164.62 1360,-129.75 1348.74,-118.23 1345.03,-100.05 1343.97,-86.02"/>
<polygon fill="#63b8ff" stroke="#63b8ff" points="1347.47,-86.02 1343.64,-76.13 1340.47,-86.24 1347.47,-86.02"/>
</a>
</g>
</g>
<!-- Node27&#45;&gt;Node20 -->
<g id="edge33_Node000027_Node000020" class="edge">
<title>Node27&#45;&gt;Node20</title>
<g id="a_edge33_Node000027_Node000020"><a xlink:title=" ">
<path fill="none" stroke="#63b8ff" d="M1561.44,-171.04C1602.18,-151.26 1700.12,-103.7 1749.09,-79.91"/>
<polygon fill="#63b8ff" stroke="#63b8ff" points="1750.49,-83.12 1757.96,-75.61 1747.43,-76.83 1750.49,-83.12"/>
</a>
</g>
</g>
<!-- Node27&#45;&gt;Node25 -->
<g id="edge36_Node000027_Node000025" class="edge">
<title>Node27&#45;&gt;Node25</title>
<g id="a_edge36_Node000027_Node000025"><a xlink:title=" ">
<path fill="none" stroke="#63b8ff" d="M1545.04,-171.13C1547.72,-157.6 1551.31,-131.21 1544,-110.5 1540.38,-100.25 1533.29,-90.62 1526.36,-82.95"/>
<polygon fill="#63b8ff" stroke="#63b8ff" points="1529.06,-80.7 1519.56,-76 1524.06,-85.6 1529.06,-80.7"/>
</a>
</g>
</g>
<!-- Node28 -->
<g id="Node000028" class="node">
<title>Node28</title>
<g id="a_Node000028"><a xlink:title=" ">
<polygon fill="#e0e0e0" stroke="#999999" points="1535,-129.75 1465,-129.75 1465,-110.5 1535,-110.5 1535,-129.75"/>
<text text-anchor="middle" x="1500" y="-116.25" font-family="Helvetica,sans-Serif" font-size="10.00">H5Opublic.h</text>
</a>
</g>
</g>
<!-- Node27&#45;&gt;Node28 -->
<g id="edge35_Node000027_Node000028" class="edge">
<title>Node27&#45;&gt;Node28</title>
<g id="a_edge35_Node000027_Node000028"><a xlink:title=" ">
<path fill="none" stroke="#63b8ff" d="M1536.47,-171.06C1530.34,-162.67 1521,-149.88 1513.31,-139.34"/>
<polygon fill="#63b8ff" stroke="#63b8ff" points="1516.21,-137.38 1507.48,-131.37 1510.56,-141.51 1516.21,-137.38"/>
</a>
</g>
</g>
<!-- Node27&#45;&gt;Node29 -->
<g id="edge38_Node000027_Node000029" class="edge">
<title>Node27&#45;&gt;Node29</title>
<g id="a_edge38_Node000027_Node000029"><a xlink:title=" ">
<path fill="none" stroke="#63b8ff" d="M1499.25,-170.93C1448.12,-160.33 1363.65,-142.82 1309.7,-131.64"/>
<polygon fill="#63b8ff" stroke="#63b8ff" points="1310.66,-128.26 1300.16,-129.66 1309.24,-135.11 1310.66,-128.26"/>
</a>
</g>
</g>
<!-- Node29&#45;&gt;Node2 -->
<g id="edge40_Node000029_Node000002" class="edge">
<title>Node29&#45;&gt;Node2</title>
<g id="a_edge40_Node000029_Node000002"><a xlink:title=" ">
<path fill="none" stroke="#63b8ff" d="M1219.25,-116.11C1094.03,-106.61 709.12,-77.41 591.5,-68.49"/>
<polygon fill="#63b8ff" stroke="#63b8ff" points="591.79,-65 581.55,-67.74 591.26,-71.98 591.79,-65"/>
</a>
</g>
</g>
<!-- Node29&#45;&gt;Node3 -->
<g id="edge43_Node000029_Node000003" class="edge">
<title>Node29&#45;&gt;Node3</title>
<g id="a_edge43_Node000029_Node000003"><a xlink:title=" ">
<path fill="none" stroke="#63b8ff" d="M1298.81,-115.67C1317.4,-114.07 1339.83,-112.16 1360,-110.5 1557.65,-94.21 1612.48,-110.87 1810.46,-74.6"/>
<polygon fill="#63b8ff" stroke="#63b8ff" points="1810.85,-78.08 1820.05,-72.82 1809.58,-71.2 1810.85,-78.08"/>
</a>
</g>
</g>
<!-- Node29&#45;&gt;Node18 -->
<g id="edge39_Node000029_Node000018" class="edge">
<title>Node29&#45;&gt;Node18</title>
<g id="a_edge39_Node000029_Node000018"><a xlink:title=" ">
<path fill="none" stroke="#63b8ff" d="M1283.77,-110.09C1309.96,-100.54 1351.16,-85.51 1378.13,-75.68"/>
<polygon fill="#63b8ff" stroke="#63b8ff" points="1379.11,-79.04 1387.31,-72.33 1376.71,-72.47 1379.11,-79.04"/>
</a>
</g>
</g>
<!-- Node29&#45;&gt;Node19 -->
<g id="edge41_Node000029_Node000019" class="edge">
<title>Node29&#45;&gt;Node19</title>
<g id="a_edge41_Node000029_Node000019"><a xlink:title=" ">
<path fill="none" stroke="#63b8ff" d="M1273.42,-110.09C1286.12,-102.14 1304.87,-90.39 1319.86,-81"/>
<polygon fill="#63b8ff" stroke="#63b8ff" points="1321.61,-84.03 1328.23,-75.76 1317.9,-78.1 1321.61,-84.03"/>
</a>
</g>
</g>
<!-- Node29&#45;&gt;Node20 -->
<g id="edge42_Node000029_Node000020" class="edge">
<title>Node29&#45;&gt;Node20</title>
<g id="a_edge42_Node000029_Node000020"><a xlink:title=" ">
<path fill="none" stroke="#63b8ff" d="M1298.63,-115.65C1402.21,-106.54 1676.99,-82.25 1740.97,-74.43"/>
<polygon fill="#63b8ff" stroke="#63b8ff" points="1741.18,-77.94 1750.6,-73.1 1740.22,-71.01 1741.18,-77.94"/>
</a>
</g>
</g>
<!-- Node29&#45;&gt;Node23 -->
<g id="edge45_Node000029_Node000023" class="edge">
<title>Node29&#45;&gt;Node23</title>
<g id="a_edge45_Node000029_Node000023"><a xlink:title=" ">
<path fill="none" stroke="#63b8ff" d="M1219.38,-116.07C1163.36,-110.3 1071.45,-94.63 1106,-55.25 1126.07,-32.37 1330.99,-17.57 1412.66,-12.54"/>
<polygon fill="#63b8ff" stroke="#63b8ff" points="1412.72,-16.04 1422.49,-11.95 1412.3,-9.06 1412.72,-16.04"/>
</a>
</g>
</g>
<!-- Node29&#45;&gt;Node24 -->
<g id="edge46_Node000029_Node000024" class="edge">
<title>Node29&#45;&gt;Node24</title>
<g id="a_edge46_Node000029_Node000024"><a xlink:title=" ">
<path fill="none" stroke="#63b8ff" d="M1256.69,-110.33C1254.94,-103.67 1252.46,-94.24 1250.23,-85.78"/>
<polygon fill="#63b8ff" stroke="#63b8ff" points="1253.67,-85.1 1247.75,-76.32 1246.9,-86.88 1253.67,-85.1"/>
</a>
</g>
</g>
<!-- Node29&#45;&gt;Node25 -->
<g id="edge47_Node000029_Node000025" class="edge">
<title>Node29&#45;&gt;Node25</title>
<g id="a_edge47_Node000029_Node000025"><a xlink:title=" ">
<path fill="none" stroke="#63b8ff" d="M1298.73,-110.63C1344.42,-100.86 1419.13,-84.88 1465.83,-74.89"/>
<polygon fill="#63b8ff" stroke="#63b8ff" points="1466.54,-78.32 1475.58,-72.81 1465.07,-71.48 1466.54,-78.32"/>
</a>
</g>
</g>
<!-- Node30 -->
<g id="Node000030" class="node">
<title>Node30</title>
<g id="a_Node000030"><a xlink:title=" ">
<polygon fill="#e0e0e0" stroke="#999999" points="1173,-74.5 1115,-74.5 1115,-55.25 1173,-55.25 1173,-74.5"/>
<text text-anchor="middle" x="1144" y="-61" font-family="Helvetica,sans-Serif" font-size="10.00">typeindex</text>
</a>
</g>
</g>
<!-- Node29&#45;&gt;Node30 -->
<g id="edge44_Node000029_Node000030" class="edge">
<title>Node29&#45;&gt;Node30</title>
<g id="a_edge44_Node000029_Node000030"><a xlink:title=" ">
<path fill="none" stroke="#63b8ff" d="M1239.49,-110.09C1221.48,-101.75 1194.48,-89.25 1173.77,-79.66"/>
<polygon fill="#63b8ff" stroke="#63b8ff" points="1175.52,-76.61 1164.98,-75.59 1172.58,-82.97 1175.52,-76.61"/>
</a>
</g>
</g>
<!-- Node31&#45;&gt;Node3 -->
<g id="edge52_Node000031_Node000003" class="edge">
<title>Node31&#45;&gt;Node3</title>
<g id="a_edge52_Node000031_Node000003"><a xlink:title=" ">
<path fill="none" stroke="#63b8ff" d="M1814.53,-342.26C1870.64,-330.27 1943,-303.13 1943,-242.88 1943,-242.88 1943,-242.88 1943,-180 1943,-135.07 1898.56,-99.53 1868.64,-80.7"/>
<polygon fill="#63b8ff" stroke="#63b8ff" points="1870.8,-77.91 1860.43,-75.74 1867.18,-83.91 1870.8,-77.91"/>
</a>
</g>
</g>
<!-- Node31&#45;&gt;Node20 -->
<g id="edge51_Node000031_Node000020" class="edge">
<title>Node31&#45;&gt;Node20</title>
<g id="a_edge51_Node000031_Node000020"><a xlink:title=" ">
<path fill="none" stroke="#63b8ff" d="M1751.63,-342.55C1757.04,-312.75 1774.39,-213.04 1780,-129.75 1780.97,-115.29 1780.43,-98.96 1779.67,-86.43"/>
<polygon fill="#63b8ff" stroke="#63b8ff" points="1783.16,-86.22 1778.96,-76.49 1776.18,-86.72 1783.16,-86.22"/>
</a>
</g>
</g>
<!-- Node32 -->
<g id="Node000032" class="node">
<title>Node32</title>
<g id="a_Node000032"><a xlink:href="_registered_type_8hpp.html" target="_top" xlink:title=" ">
<polygon fill="white" stroke="#666666" points="1711,-306.75 1587,-306.75 1587,-287.5 1711,-287.5 1711,-306.75"/>
<text text-anchor="middle" x="1649" y="-293.25" font-family="Helvetica,sans-Serif" font-size="10.00">nwb/RegisteredType.hpp</text>
</a>
</g>
</g>
<!-- Node31&#45;&gt;Node32 -->
<g id="edge53_Node000031_Node000032" class="edge">
<title>Node31&#45;&gt;Node32</title>
<g id="a_edge53_Node000031_Node000032"><a xlink:title=" ">
<path fill="none" stroke="#63b8ff" d="M1732.87,-342.34C1717.34,-334.16 1694.2,-321.96 1676.16,-312.44"/>
<polygon fill="#63b8ff" stroke="#63b8ff" points="1678.03,-309.48 1667.56,-307.91 1674.77,-315.67 1678.03,-309.48"/>
</a>
</g>
</g>
<!-- Node32&#45;&gt;Node3 -->
<g id="edge56_Node000032_Node000003" class="edge">
<title>Node32&#45;&gt;Node3</title>
<g id="a_edge56_Node000032_Node000003"><a xlink:title=" ">
<path fill="none" stroke="#63b8ff" d="M1671.76,-287.01C1688.72,-279.4 1711.67,-267.24 1728,-251.5 1780.35,-201.03 1818.37,-121.67 1834.05,-85.28"/>
<polygon fill="#63b8ff" stroke="#63b8ff" points="1837.27,-86.66 1837.92,-76.08 1830.82,-83.95 1837.27,-86.66"/>
</a>
</g>
</g>
<!-- Node32&#45;&gt;Node4 -->
<g id="edge60_Node000032_Node000004" class="edge">
<title>Node32&#45;&gt;Node4</title>
<g id="a_edge60_Node000032_Node000004"><a xlink:title=" ">
<path fill="none" stroke="#63b8ff" d="M1586.76,-292.57C1408.87,-282.4 901.64,-253.42 756.34,-245.12"/>
<polygon fill="#63b8ff" stroke="#63b8ff" points="756.65,-241.63 746.47,-244.56 756.25,-248.62 756.65,-241.63"/>
</a>
</g>
</g>
<!-- Node32&#45;&gt;Node17 -->
<g id="edge61_Node000032_Node000017" class="edge">
<title>Node32&#45;&gt;Node17</title>
<g id="a_edge61_Node000032_Node000017"><a xlink:title=" ">
<path fill="none" stroke="#63b8ff" d="M1623.81,-287.07C1603.01,-279.09 1573.08,-266.42 1549,-251.5 1496.77,-219.14 1446.68,-165.82 1422.7,-138.47"/>
<polygon fill="#63b8ff" stroke="#63b8ff" points="1425.53,-136.39 1416.34,-131.11 1420.23,-140.96 1425.53,-136.39"/>
</a>
</g>
</g>
<!-- Node32&#45;&gt;Node20 -->
<g id="edge55_Node000032_Node000020" class="edge">
<title>Node32&#45;&gt;Node20</title>
<g id="a_edge55_Node000032_Node000020"><a xlink:title=" ">
<path fill="none" stroke="#63b8ff" d="M1665.57,-287.13C1678.68,-279.26 1696.62,-266.72 1708,-251.5 1747.29,-198.94 1766.87,-121.79 1774.32,-85.77"/>
<polygon fill="#63b8ff" stroke="#63b8ff" points="1777.68,-86.83 1776.17,-76.34 1770.81,-85.48 1777.68,-86.83"/>
</a>
</g>
</g>
<!-- Node32&#45;&gt;Node21 -->
<g id="edge57_Node000032_Node000021" class="edge">
<title>Node32&#45;&gt;Node21</title>
<g id="a_edge57_Node000032_Node000021"><a xlink:title=" ">
<path fill="none" stroke="#63b8ff" d="M1651.97,-287.02C1655.62,-274.62 1661,-251.73 1658,-232.25 1649.41,-176.55 1622.3,-115.19 1607.63,-84.92"/>
<polygon fill="#63b8ff" stroke="#63b8ff" points="1610.93,-83.69 1603.36,-76.28 1604.65,-86.8 1610.93,-83.69"/>
</a>
</g>
</g>
<!-- Node32&#45;&gt;Node22 -->
<g id="edge58_Node000032_Node000022" class="edge">
<title>Node32&#45;&gt;Node22</title>
<g id="a_edge58_Node000032_Node000022"><a xlink:title=" ">
<path fill="none" stroke="#63b8ff" d="M1661.51,-287.1C1671.54,-279.04 1684.92,-266.25 1691,-251.5 1714.2,-195.22 1705.9,-120.98 1699.94,-85.89"/>
<polygon fill="#63b8ff" stroke="#63b8ff" points="1703.43,-85.53 1698.19,-76.33 1696.55,-86.8 1703.43,-85.53"/>
</a>
</g>
</g>
<!-- Node32&#45;&gt;Node25 -->
<g id="edge59_Node000032_Node000025" class="edge">
<title>Node32&#45;&gt;Node25</title>
<g id="a_edge59_Node000032_Node000025"><a xlink:title=" ">
<path fill="none" stroke="#63b8ff" d="M1624.89,-287.1C1609.59,-279.97 1591.04,-268.38 1582,-251.5 1569.52,-228.2 1596.84,-221.69 1604,-196.25 1607.67,-183.2 1608.47,-178.55 1604,-165.75 1591.1,-128.83 1555.86,-98.52 1531.86,-81.32"/>
<polygon fill="#63b8ff" stroke="#63b8ff" points="1534.13,-78.63 1523.91,-75.83 1530.15,-84.39 1534.13,-78.63"/>
</a>
</g>
</g>
<!-- Node32&#45;&gt;Node29 -->
<g id="edge62_Node000032_Node000029" class="edge">
<title>Node32&#45;&gt;Node29</title>
<g id="a_edge62_Node000032_Node000029"><a xlink:title=" ">
<path fill="none" stroke="#63b8ff" d="M1586.83,-294.32C1312.17,-286.03 219.05,-249.78 171,-196.25 161.95,-186.16 161.61,-175.53 171,-165.75 207.3,-127.94 997.46,-122.15 1207.9,-121.28"/>
<polygon fill="#63b8ff" stroke="#63b8ff" points="1207.7,-124.78 1217.69,-121.24 1207.67,-117.78 1207.7,-124.78"/>
</a>
</g>
</g>
<!-- Node33 -->
<g id="Node000033" class="node">
<title>Node33</title>
<g id="a_Node000033"><a xlink:title=" ">
<polygon fill="#e0e0e0" stroke="#999999" points="1649,-251.5 1591,-251.5 1591,-232.25 1649,-232.25 1649,-251.5"/>
<text text-anchor="middle" x="1620" y="-238" font-family="Helvetica,sans-Serif" font-size="10.00">functional</text>
</a>
</g>
</g>
<!-- Node32&#45;&gt;Node33 -->
<g id="edge54_Node000032_Node000033" class="edge">
<title>Node32&#45;&gt;Node33</title>
<g id="a_edge54_Node000032_Node000033"><a xlink:title=" ">
<path fill="none" stroke="#63b8ff" d="M1644.21,-287.33C1640.46,-280.44 1635.09,-270.59 1630.37,-261.91"/>
<polygon fill="#63b8ff" stroke="#63b8ff" points="1633.47,-260.3 1625.62,-253.19 1627.33,-263.64 1633.47,-260.3"/>
</a>
</g>
</g>
</g>
</svg>
