<?xml version="1.0" encoding="UTF-8" standalone="no"?>
<!DOCTYPE svg PUBLIC "-//W3C//DTD SVG 1.1//EN"
 "http://www.w3.org/Graphics/SVG/1.1/DTD/svg11.dtd">
<!-- Generated by graphviz version 12.1.0 (20240811.2233)
 -->
<!-- Title: src/nwb/base/TimeSeries.hpp Pages: 1 -->
<svg width="518pt" height="216pt"
 viewBox="0.00 0.00 517.53 215.50" xmlns="http://www.w3.org/2000/svg" xmlns:xlink="http://www.w3.org/1999/xlink">
<g id="graph0" class="graph" transform="scale(1 1) rotate(0) translate(4 211.5)">
<title>src/nwb/base/TimeSeries.hpp</title>
<!-- Node1 -->
<g id="Node000001" class="node">
<title>Node1</title>
<g id="a_Node000001"><a xlink:title=" ">
<polygon fill="#999999" stroke="#666666" points="255.53,-207.5 109.78,-207.5 109.78,-188.25 255.53,-188.25 255.53,-207.5"/>
<text text-anchor="middle" x="182.65" y="-194" font-family="Helvetica,sans-Serif" font-size="10.00">src/nwb/base/TimeSeries.hpp</text>
</a>
</g>
</g>
<!-- Node2 -->
<g id="Node000002" class="node">
<title>Node2</title>
<g id="a_Node000002"><a xlink:href="_n_w_b_file_8hpp.html" target="_top" xlink:title=" ">
<polygon fill="white" stroke="#666666" points="137.65,-80.12 25.65,-80.12 25.65,-60.88 137.65,-60.88 137.65,-80.12"/>
<text text-anchor="middle" x="81.65" y="-66.62" font-family="Helvetica,sans-Serif" font-size="10.00">src/nwb/NWBFile.hpp</text>
</a>
</g>
</g>
<!-- Node1&#45;&gt;Node2 -->
<g id="edge1_Node000001_Node000002" class="edge">
<title>Node1&#45;&gt;Node2</title>
<g id="a_edge1_Node000001_Node000002"><a xlink:title=" ">
<path fill="none" stroke="#63b8ff" d="M99.5,-185.85C59.53,-178.68 17.71,-167.73 5.65,-152.25 -2.68,-141.56 -0.77,-133.69 5.65,-121.75 16.36,-101.83 38.82,-88.48 56.56,-80.58"/>
<polygon fill="#63b8ff" stroke="#63b8ff" points="98.75,-189.28 109.2,-187.52 99.94,-182.38 98.75,-189.28"/>
</a>
</g>
</g>
<!-- Node4 -->
<g id="Node000004" class="node">
<title>Node4</title>
<g id="a_Node000004"><a xlink:href="_recording_containers_8hpp.html" target="_top" xlink:title=" ">
<polygon fill="white" stroke="#666666" points="178.53,-146.62 14.78,-146.62 14.78,-127.38 178.53,-127.38 178.53,-146.62"/>
<text text-anchor="middle" x="96.65" y="-133.12" font-family="Helvetica,sans-Serif" font-size="10.00">src/nwb/RecordingContainers.hpp</text>
</a>
</g>
</g>
<!-- Node1&#45;&gt;Node4 -->
<g id="edge3_Node000001_Node000004" class="edge">
<title>Node1&#45;&gt;Node4</title>
<g id="a_edge3_Node000001_Node000004"><a xlink:title=" ">
<path fill="none" stroke="#63b8ff" d="M160.38,-181.63C144.35,-170.65 123.27,-156.22 109.84,-147.03"/>
<polygon fill="#63b8ff" stroke="#63b8ff" points="158.11,-184.32 168.34,-187.08 162.07,-178.54 158.11,-184.32"/>
</a>
</g>
</g>
<!-- Node6 -->
<g id="Node000006" class="node">
<title>Node6</title>
<g id="a_Node000006"><a xlink:href="_time_series_8cpp.html" target="_top" xlink:title=" ">
<polygon fill="white" stroke="#666666" points="342.53,-146.62 196.78,-146.62 196.78,-127.38 342.53,-127.38 342.53,-146.62"/>
<text text-anchor="middle" x="269.65" y="-133.12" font-family="Helvetica,sans-Serif" font-size="10.00">src/nwb/base/TimeSeries.cpp</text>
</a>
</g>
</g>
<!-- Node1&#45;&gt;Node6 -->
<g id="edge6_Node000001_Node000006" class="edge">
<title>Node1&#45;&gt;Node6</title>
<g id="a_edge6_Node000001_Node000006"><a xlink:title=" ">
<path fill="none" stroke="#63b8ff" d="M205.19,-181.63C221.4,-170.65 242.72,-156.22 256.31,-147.03"/>
<polygon fill="#63b8ff" stroke="#63b8ff" points="203.44,-178.58 197.12,-187.08 207.36,-184.38 203.44,-178.58"/>
</a>
</g>
</g>
<!-- Node7 -->
<g id="Node000007" class="node">
<title>Node7</title>
<g id="a_Node000007"><a xlink:href="_electrical_series_8hpp.html" target="_top" xlink:title=" ">
<polygon fill="white" stroke="#666666" points="494.53,-152.25 360.78,-152.25 360.78,-121.75 494.53,-121.75 494.53,-152.25"/>
<text text-anchor="start" x="368.78" y="-138.75" font-family="Helvetica,sans-Serif" font-size="10.00">src/nwb/ecephys/Electrical</text>
<text text-anchor="middle" x="427.65" y="-127.5" font-family="Helvetica,sans-Serif" font-size="10.00">Series.hpp</text>
</a>
</g>
</g>
<!-- Node1&#45;&gt;Node7 -->
<g id="edge7_Node000001_Node000007" class="edge">
<title>Node1&#45;&gt;Node7</title>
<g id="a_edge7_Node000001_Node000007"><a xlink:title=" ">
<path fill="none" stroke="#63b8ff" d="M231.4,-185.16C270.22,-175.83 324.76,-162.72 366.5,-152.69"/>
<polygon fill="#63b8ff" stroke="#63b8ff" points="230.77,-181.71 221.87,-187.45 232.41,-188.52 230.77,-181.71"/>
</a>
</g>
</g>
<!-- Node3 -->
<g id="Node000003" class="node">
<title>Node3</title>
<g id="a_Node000003"><a xlink:href="_n_w_b_file_8cpp.html" target="_top" xlink:title=" ">
<polygon fill="white" stroke="#666666" points="270.65,-19.25 158.65,-19.25 158.65,0 270.65,0 270.65,-19.25"/>
<text text-anchor="middle" x="214.65" y="-5.75" font-family="Helvetica,sans-Serif" font-size="10.00">src/nwb/NWBFile.cpp</text>
</a>
</g>
</g>
<!-- Node2&#45;&gt;Node3 -->
<g id="edge2_Node000002_Node000003" class="edge">
<title>Node2&#45;&gt;Node3</title>
<g id="a_edge2_Node000002_Node000003"><a xlink:title=" ">
<path fill="none" stroke="#63b8ff" d="M112.61,-55.79C137.79,-44.65 172.6,-29.24 194.36,-19.61"/>
<polygon fill="#63b8ff" stroke="#63b8ff" points="111.25,-52.57 103.52,-59.82 114.09,-58.97 111.25,-52.57"/>
</a>
</g>
</g>
<!-- Node4&#45;&gt;Node2 -->
<g id="edge4_Node000004_Node000002" class="edge">
<title>Node4&#45;&gt;Node2</title>
<g id="a_edge4_Node000004_Node000002"><a xlink:title=" ">
<path fill="none" stroke="#63b8ff" d="M91.98,-115.9C89.21,-104 85.84,-89.51 83.72,-80.39"/>
<polygon fill="#63b8ff" stroke="#63b8ff" points="88.55,-116.61 94.22,-125.56 95.37,-115.02 88.55,-116.61"/>
</a>
</g>
</g>
<!-- Node5 -->
<g id="Node000005" class="node">
<title>Node5</title>
<g id="a_Node000005"><a xlink:href="_recording_containers_8cpp.html" target="_top" xlink:title=" ">
<polygon fill="white" stroke="#666666" points="319.53,-80.12 155.78,-80.12 155.78,-60.88 319.53,-60.88 319.53,-80.12"/>
<text text-anchor="middle" x="237.65" y="-66.62" font-family="Helvetica,sans-Serif" font-size="10.00">src/nwb/RecordingContainers.cpp</text>
</a>
</g>
</g>
<!-- Node4&#45;&gt;Node5 -->
<g id="edge5_Node000004_Node000005" class="edge">
<title>Node4&#45;&gt;Node5</title>
<g id="a_edge5_Node000004_Node000005"><a xlink:title=" ">
<path fill="none" stroke="#63b8ff" d="M126.79,-122.21C154.3,-109.63 194.17,-91.39 217.85,-80.56"/>
<polygon fill="#63b8ff" stroke="#63b8ff" points="125.57,-118.92 117.93,-126.27 128.48,-125.29 125.57,-118.92"/>
</a>
</g>
</g>
<!-- Node7&#45;&gt;Node3 -->
<g id="edge8_Node000007_Node000003" class="edge">
<title>Node7&#45;&gt;Node3</title>
<g id="a_edge8_Node000007_Node000003"><a xlink:title=" ">
<path fill="none" stroke="#63b8ff" d="M401.23,-114.28C372.59,-90.77 330.66,-56.42 328.65,-55.25 301.86,-39.6 268.55,-27.29 244.87,-19.59"/>
<polygon fill="#63b8ff" stroke="#63b8ff" points="398.87,-116.88 408.82,-120.52 403.32,-111.47 398.87,-116.88"/>
</a>
</g>
</g>
<!-- Node7&#45;&gt;Node5 -->
<g id="edge9_Node000007_Node000005" class="edge">
<title>Node7&#45;&gt;Node5</title>
<g id="a_edge9_Node000007_Node000005"><a xlink:title=" ">
<path fill="none" stroke="#63b8ff" d="M373.79,-117.72C338.08,-105.59 292.75,-90.21 264.47,-80.6"/>
<polygon fill="#63b8ff" stroke="#63b8ff" points="372.51,-120.98 383.1,-120.88 374.76,-114.35 372.51,-120.98"/>
</a>
</g>
</g>
<!-- Node8 -->
<g id="Node000008" class="node">
<title>Node8</title>
<g id="a_Node000008"><a xlink:href="_electrical_series_8cpp.html" target="_top" xlink:title=" ">
<polygon fill="white" stroke="#666666" points="509.53,-85.75 375.78,-85.75 375.78,-55.25 509.53,-55.25 509.53,-85.75"/>
<text text-anchor="start" x="383.78" y="-72.25" font-family="Helvetica,sans-Serif" font-size="10.00">src/nwb/ecephys/Electrical</text>
<text text-anchor="middle" x="442.65" y="-61" font-family="Helvetica,sans-Serif" font-size="10.00">Series.cpp</text>
</a>
</g>
</g>
<!-- Node7&#45;&gt;Node8 -->
<g id="edge10_Node000007_Node000008" class="edge">
<title>Node7&#45;&gt;Node8</title>
<g id="a_edge10_Node000007_Node000008"><a xlink:title=" ">
<path fill="none" stroke="#63b8ff" d="M433.62,-110.34C435.54,-102.09 437.59,-93.24 439.26,-86.08"/>
<polygon fill="#63b8ff" stroke="#63b8ff" points="430.25,-109.36 431.4,-119.89 437.07,-110.94 430.25,-109.36"/>
</a>
</g>
</g>
</g>
</svg>
