<?xml version="1.0" encoding="UTF-8" standalone="no"?>
<!DOCTYPE svg PUBLIC "-//W3C//DTD SVG 1.1//EN"
 "http://www.w3.org/Graphics/SVG/1.1/DTD/svg11.dtd">
<!-- Generated by graphviz version 12.2.1 (20241206.2353)
 -->
<!-- Title: src/nwb/base/TimeSeries.cpp Pages: 1 -->
<!--zoomable 481 -->

<svg id="main" version="1.1" xmlns="http://www.w3.org/2000/svg" xmlns:xlink="http://www.w3.org/1999/xlink" xml:space="preserve" onload="init(evt)">

<style type="text/css"><![CDATA[
.node, .edge {opacity: 0.7;}
.node.selected, .edge.selected {opacity: 1;}
.edge:hover path { stroke: red; }
.edge:hover polygon { stroke: red; fill: red; }
]]></style>

<defs>
  <circle id="rim" cx="0" cy="0" r="7"/>
  <circle id="rim2" cx="0" cy="0" r="3.5"/>
  <g id="zoomPlus">
    <use xlink:href="#rim" fill="#404040"><set attributeName="fill" to="#808080" begin="zoomplus.mouseover" end="zoomplus.mouseout"/></use>
    <path d="M-4,0h8M0,-4v8" fill="none" stroke="white" stroke-width="1.5" pointer-events="none"/>
  </g>
  <g id="zoomMin">
    <use xlink:href="#rim" fill="#404040"><set attributeName="fill" to="#808080" begin="zoomminus.mouseover" end="zoomminus.mouseout"/></use>
    <path d="M-4,0h8" fill="none" stroke="white" stroke-width="1.5" pointer-events="none"/>
  </g>
  <g id="arrowUp" transform="translate(30 24)">
    <use xlink:href="#rim"/>
    <path pointer-events="none" fill="none" stroke="white" stroke-width="1.5" d="M0,-3.0v7 M-2.5,-0.5L0,-3.0L2.5,-0.5"/>
  </g>
  <g id="arrowRight" transform="rotate(90) translate(36 -43)">
    <use xlink:href="#rim"/>
    <path pointer-events="none" fill="none" stroke="white" stroke-width="1.5" d="M0,-3.0v7 M-2.5,-0.5L0,-3.0L2.5,-0.5"/>
  </g>
  <g id="arrowDown" transform="rotate(180) translate(-30 -48)">
    <use xlink:href="#rim"/>
    <path pointer-events="none" fill="none" stroke="white" stroke-width="1.5" d="M0,-3.0v7 M-2.5,-0.5L0,-3.0L2.5,-0.5"/>
  </g>
  <g id="arrowLeft" transform="rotate(270) translate(-36 17)">
    <use xlink:href="#rim"/>
    <path pointer-events="none" fill="none" stroke="white" stroke-width="1.5" d="M0,-3.0v7 M-2.5,-0.5L0,-3.0L2.5,-0.5"/>
  </g>
  <g id="resetDef">
    <use xlink:href="#rim2" fill="#404040"><set attributeName="fill" to="#808080" begin="reset.mouseover" end="reset.mouseout"/></use>
  </g>
</defs>
<script type="application/ecmascript">
var viewWidth = 1968;
var viewHeight = 481;
var sectionId = 'dynsection-0';
</script>
<script type="application/ecmascript" xlink:href="svg.min.js"/>
<svg id="graph" class="graph">
<g id="viewport">
<title>src/nwb/base/TimeSeries.cpp</title>
<!-- Node1 -->
<g id="Node000001" class="node">
<title>Node1</title>
<g id="a_Node000001"><a xlink:title=" ">
<polygon fill="#999999" stroke="#666666" points="1328.64,-472.5 1182.89,-472.5 1182.89,-453.25 1328.64,-453.25 1328.64,-472.5"/>
<text text-anchor="middle" x="1255.76" y="-459" font-family="Helvetica,sans-Serif" font-size="10.00">src/nwb/base/TimeSeries.cpp</text>
</a>
</g>
</g>
<!-- Node2 -->
<g id="Node000002" class="node">
<title>Node2</title>
<g id="a_Node000002"><a xlink:href="_time_series_8hpp.html" target="_top" xlink:title=" ">
<polygon fill="white" stroke="#666666" points="1320.39,-417.25 1191.14,-417.25 1191.14,-398 1320.39,-398 1320.39,-417.25"/>
<text text-anchor="middle" x="1255.76" y="-403.75" font-family="Helvetica,sans-Serif" font-size="10.00">nwb/base/TimeSeries.hpp</text>
</a>
</g>
</g>
<!-- Node1&#45;&gt;Node2 -->
<g id="edge1_Node000001_Node000002" class="edge">
<title>Node1&#45;&gt;Node2</title>
<g id="a_edge1_Node000001_Node000002"><a xlink:title=" ">
<path fill="none" stroke="#63b8ff" d="M1255.76,-453.08C1255.76,-446.57 1255.76,-437.42 1255.76,-429.12"/>
<polygon fill="#63b8ff" stroke="#63b8ff" points="1259.26,-429.12 1255.76,-419.12 1252.26,-429.12 1259.26,-429.12"/>
</a>
</g>
</g>
<!-- Node5 -->
<g id="Node000005" class="node">
<title>Node5</title>
<g id="a_Node000005"><a xlink:href="_utils_8hpp.html" target="_top" xlink:title=" ">
<polygon fill="white" stroke="#666666" points="821.26,-251.5 766.26,-251.5 766.26,-232.25 821.26,-232.25 821.26,-251.5"/>
<text text-anchor="middle" x="793.76" y="-238" font-family="Helvetica,sans-Serif" font-size="10.00">Utils.hpp</text>
</a>
</g>
</g>
<!-- Node1&#45;&gt;Node5 -->
<g id="edge64_Node000001_Node000005" class="edge">
<title>Node1&#45;&gt;Node5</title>
<g id="a_edge64_Node000001_Node000005"><a xlink:title=" ">
<path fill="none" stroke="#63b8ff" d="M1236.31,-452.89C1185.16,-429.22 1042.71,-363.14 924.76,-306.75 889.25,-289.77 848.52,-269.84 822.03,-256.82"/>
<polygon fill="#63b8ff" stroke="#63b8ff" points="823.82,-253.79 813.3,-252.52 820.73,-260.07 823.82,-253.79"/>
</a>
</g>
</g>
<!-- Node18 -->
<g id="Node000018" class="node">
<title>Node18</title>
<g id="a_Node000018"><a xlink:href="_base_i_o_8hpp.html" target="_top" xlink:title=" ">
<polygon fill="white" stroke="#666666" points="1589.89,-129.75 1511.64,-129.75 1511.64,-110.5 1589.89,-110.5 1589.89,-129.75"/>
<text text-anchor="middle" x="1550.76" y="-116.25" font-family="Helvetica,sans-Serif" font-size="10.00">io/BaseIO.hpp</text>
</a>
</g>
</g>
<!-- Node1&#45;&gt;Node18 -->
<g id="edge65_Node000001_Node000018" class="edge">
<title>Node1&#45;&gt;Node18</title>
<g id="a_edge65_Node000001_Node000018"><a xlink:title=" ">
<path fill="none" stroke="#63b8ff" d="M1328.83,-459.77C1401.98,-453.3 1503.76,-430.45 1503.76,-353.38 1503.76,-353.38 1503.76,-353.38 1503.76,-296.12 1503.76,-237.82 1528.39,-172.22 1541.99,-140.44"/>
<polygon fill="#63b8ff" stroke="#63b8ff" points="1545.15,-141.95 1545.98,-131.39 1538.75,-139.13 1545.15,-141.95"/>
</a>
</g>
</g>
<!-- Node3 -->
<g id="Node000003" class="node">
<title>Node3</title>
<g id="a_Node000003"><a xlink:title=" ">
<polygon fill="#e0e0e0" stroke="#999999" points="549.39,-74.5 504.14,-74.5 504.14,-55.25 549.39,-55.25 549.39,-74.5"/>
<text text-anchor="middle" x="526.76" y="-61" font-family="Helvetica,sans-Serif" font-size="10.00">cstdint</text>
</a>
</g>
</g>
<!-- Node2&#45;&gt;Node3 -->
<g id="edge2_Node000002_Node000003" class="edge">
<title>Node2&#45;&gt;Node3</title>
<g id="a_edge2_Node000002_Node000003"><a xlink:title=" ">
<path fill="none" stroke="#63b8ff" d="M1190.96,-405.66C996.29,-402.46 418.66,-390.75 232.76,-362 139.51,-347.58 91.62,-376.22 27.76,-306.75 -35.98,-237.4 20.79,-146.68 107.76,-110.5 177.19,-81.62 405.32,-70.35 492.48,-67.03"/>
<polygon fill="#63b8ff" stroke="#63b8ff" points="492.44,-70.53 502.3,-66.66 492.18,-63.53 492.44,-70.53"/>
</a>
</g>
</g>
<!-- Node4 -->
<g id="Node000004" class="node">
<title>Node4</title>
<g id="a_Node000004"><a xlink:title=" ">
<polygon fill="#e0e0e0" stroke="#999999" points="1894.76,-74.5 1854.76,-74.5 1854.76,-55.25 1894.76,-55.25 1894.76,-74.5"/>
<text text-anchor="middle" x="1874.76" y="-61" font-family="Helvetica,sans-Serif" font-size="10.00">string</text>
</a>
</g>
</g>
<!-- Node2&#45;&gt;Node4 -->
<g id="edge3_Node000002_Node000004" class="edge">
<title>Node2&#45;&gt;Node4</title>
<g id="a_edge3_Node000002_Node000004"><a xlink:title=" ">
<path fill="none" stroke="#63b8ff" d="M1320.75,-405.36C1453.56,-402.19 1751.69,-391.88 1848.76,-362 1903.16,-345.25 1959.76,-355.04 1959.76,-298.12 1959.76,-298.12 1959.76,-298.12 1959.76,-180 1959.76,-137.94 1922.17,-101.35 1896.98,-81.55"/>
<polygon fill="#63b8ff" stroke="#63b8ff" points="1899.34,-78.95 1889.25,-75.72 1895.13,-84.54 1899.34,-78.95"/>
</a>
</g>
</g>
<!-- Node2&#45;&gt;Node5 -->
<g id="edge4_Node000002_Node000005" class="edge">
<title>Node2&#45;&gt;Node5</title>
<g id="a_edge4_Node000002_Node000005"><a xlink:title=" ">
<path fill="none" stroke="#63b8ff" d="M1230.26,-397.59C1152.89,-370.16 920.58,-287.83 830.25,-255.81"/>
<polygon fill="#63b8ff" stroke="#63b8ff" points="831.49,-252.53 820.89,-252.49 829.15,-259.13 831.49,-252.53"/>
</a>
</g>
</g>
<!-- Node2&#45;&gt;Node18 -->
<g id="edge49_Node000002_Node000018" class="edge">
<title>Node2&#45;&gt;Node18</title>
<g id="a_edge49_Node000002_Node000018"><a xlink:title=" ">
<path fill="none" stroke="#63b8ff" d="M1265.94,-397.67C1298.28,-369.1 1401.3,-277.25 1481.76,-196.25 1500.78,-177.11 1521.6,-154.14 1535.34,-138.68"/>
<polygon fill="#63b8ff" stroke="#63b8ff" points="1537.9,-141.07 1541.9,-131.26 1532.66,-136.43 1537.9,-141.07"/>
</a>
</g>
</g>
<!-- Node30 -->
<g id="Node000030" class="node">
<title>Node30</title>
<g id="a_Node000030"><a xlink:href="_read_i_o_8hpp.html" target="_top" xlink:title=" ">
<polygon fill="white" stroke="#666666" points="1329.26,-129.75 1250.26,-129.75 1250.26,-110.5 1329.26,-110.5 1329.26,-129.75"/>
<text text-anchor="middle" x="1289.76" y="-116.25" font-family="Helvetica,sans-Serif" font-size="10.00">io/ReadIO.hpp</text>
</a>
</g>
</g>
<!-- Node2&#45;&gt;Node30 -->
<g id="edge50_Node000002_Node000030" class="edge">
<title>Node2&#45;&gt;Node30</title>
<g id="a_edge50_Node000002_Node000030"><a xlink:title=" ">
<path fill="none" stroke="#63b8ff" d="M1190.82,-404.3C937.77,-394.84 31.76,-356.86 31.76,-298.12 31.76,-298.12 31.76,-298.12 31.76,-240.88 31.76,-206.43 23.97,-187.39 50.76,-165.75 97.64,-127.88 1010.93,-122.12 1238.66,-121.27"/>
<polygon fill="#63b8ff" stroke="#63b8ff" points="1238.41,-124.77 1248.4,-121.23 1238.38,-117.77 1238.41,-124.77"/>
</a>
</g>
</g>
<!-- Node32 -->
<g id="Node000032" class="node">
<title>Node32</title>
<g id="a_Node000032"><a xlink:href="_container_8hpp.html" target="_top" xlink:title=" ">
<polygon fill="white" stroke="#666666" points="1839.64,-362 1693.89,-362 1693.89,-342.75 1839.64,-342.75 1839.64,-362"/>
<text text-anchor="middle" x="1766.76" y="-348.5" font-family="Helvetica,sans-Serif" font-size="10.00">nwb/hdmf/base/Container.hpp</text>
</a>
</g>
</g>
<!-- Node2&#45;&gt;Node32 -->
<g id="edge51_Node000002_Node000032" class="edge">
<title>Node2&#45;&gt;Node32</title>
<g id="a_edge51_Node000002_Node000032"><a xlink:title=" ">
<path fill="none" stroke="#63b8ff" d="M1320.74,-399.85C1412.63,-390.28 1580.63,-372.77 1682.15,-362.19"/>
<polygon fill="#63b8ff" stroke="#63b8ff" points="1682.5,-365.68 1692.08,-361.16 1681.77,-358.71 1682.5,-365.68"/>
</a>
</g>
</g>
<!-- Node5&#45;&gt;Node3 -->
<g id="edge8_Node000005_Node000003" class="edge">
<title>Node5&#45;&gt;Node3</title>
<g id="a_edge8_Node000005_Node000003"><a xlink:title=" ">
<path fill="none" stroke="#63b8ff" d="M766.14,-240.26C634.45,-237.23 75.76,-222.8 50.76,-196.25 41.47,-186.38 42.22,-176.27 50.76,-165.75 106.77,-96.77 392.43,-73.7 492.26,-67.68"/>
<polygon fill="#63b8ff" stroke="#63b8ff" points="492.47,-71.18 502.25,-67.1 492.06,-64.19 492.47,-71.18"/>
</a>
</g>
</g>
<!-- Node5&#45;&gt;Node4 -->
<g id="edge12_Node000005_Node000004" class="edge">
<title>Node5&#45;&gt;Node4</title>
<g id="a_edge12_Node000005_Node000004"><a xlink:title=" ">
<path fill="none" stroke="#63b8ff" d="M821.55,-240.02C933.53,-236.43 1351.94,-221.56 1481.76,-196.25 1620.83,-169.14 1778.71,-106.49 1844.01,-79.1"/>
<polygon fill="#63b8ff" stroke="#63b8ff" points="1845.14,-82.42 1852.99,-75.3 1842.42,-75.97 1845.14,-82.42"/>
</a>
</g>
</g>
<!-- Node6 -->
<g id="Node000006" class="node">
<title>Node6</title>
<g id="a_Node000006"><a xlink:title=" ">
<polygon fill="#e0e0e0" stroke="#999999" points="1213.64,-190.62 1157.89,-190.62 1157.89,-171.38 1213.64,-171.38 1213.64,-190.62"/>
<text text-anchor="middle" x="1185.76" y="-177.12" font-family="Helvetica,sans-Serif" font-size="10.00">algorithm</text>
</a>
</g>
</g>
<!-- Node5&#45;&gt;Node6 -->
<g id="edge5_Node000005_Node000006" class="edge">
<title>Node5&#45;&gt;Node6</title>
<g id="a_edge5_Node000005_Node000006"><a xlink:title=" ">
<path fill="none" stroke="#63b8ff" d="M821.35,-239.68C881.61,-236.59 1029.18,-226.32 1148.76,-196.25 1150.51,-195.81 1152.3,-195.31 1154.08,-194.77"/>
<polygon fill="#63b8ff" stroke="#63b8ff" points="1155.17,-198.1 1163.48,-191.53 1152.89,-191.48 1155.17,-198.1"/>
</a>
</g>
</g>
<!-- Node7 -->
<g id="Node000007" class="node">
<title>Node7</title>
<g id="a_Node000007"><a xlink:title=" ">
<polygon fill="#e0e0e0" stroke="#999999" points="1277.39,-190.62 1232.14,-190.62 1232.14,-171.38 1277.39,-171.38 1277.39,-190.62"/>
<text text-anchor="middle" x="1254.76" y="-177.12" font-family="Helvetica,sans-Serif" font-size="10.00">chrono</text>
</a>
</g>
</g>
<!-- Node5&#45;&gt;Node7 -->
<g id="edge6_Node000005_Node000007" class="edge">
<title>Node5&#45;&gt;Node7</title>
<g id="a_edge6_Node000005_Node000007"><a xlink:title=" ">
<path fill="none" stroke="#63b8ff" d="M821.66,-240.98C890.84,-240.61 1075.37,-235.66 1222.76,-196.25 1224.12,-195.89 1225.49,-195.47 1226.86,-195.02"/>
<polygon fill="#63b8ff" stroke="#63b8ff" points="1227.72,-198.44 1235.77,-191.56 1225.18,-191.92 1227.72,-198.44"/>
</a>
</g>
</g>
<!-- Node8 -->
<g id="Node000008" class="node">
<title>Node8</title>
<g id="a_Node000008"><a xlink:title=" ">
<polygon fill="#e0e0e0" stroke="#999999" points="103.26,-190.62 60.26,-190.62 60.26,-171.38 103.26,-171.38 103.26,-190.62"/>
<text text-anchor="middle" x="81.76" y="-177.12" font-family="Helvetica,sans-Serif" font-size="10.00">cmath</text>
</a>
</g>
</g>
<!-- Node5&#45;&gt;Node8 -->
<g id="edge7_Node000005_Node000008" class="edge">
<title>Node5&#45;&gt;Node8</title>
<g id="a_edge7_Node000005_Node000008"><a xlink:title=" ">
<path fill="none" stroke="#63b8ff" d="M765.79,-240.4C654.04,-238.28 239.53,-228.37 112.76,-196.25 111.56,-195.94 110.34,-195.59 109.12,-195.21"/>
<polygon fill="#63b8ff" stroke="#63b8ff" points="110.4,-191.95 99.82,-191.55 107.85,-198.46 110.4,-191.95"/>
</a>
</g>
</g>
<!-- Node9 -->
<g id="Node000009" class="node">
<title>Node9</title>
<g id="a_Node000009"><a xlink:title=" ">
<polygon fill="#e0e0e0" stroke="#999999" points="161.76,-190.62 121.76,-190.62 121.76,-171.38 161.76,-171.38 161.76,-190.62"/>
<text text-anchor="middle" x="141.76" y="-177.12" font-family="Helvetica,sans-Serif" font-size="10.00">ctime</text>
</a>
</g>
</g>
<!-- Node5&#45;&gt;Node9 -->
<g id="edge9_Node000005_Node000009" class="edge">
<title>Node5&#45;&gt;Node9</title>
<g id="a_edge9_Node000005_Node000009"><a xlink:title=" ">
<path fill="none" stroke="#63b8ff" d="M766.03,-240.3C660.68,-237.89 285.51,-227.28 170.76,-196.25 169.77,-195.98 168.76,-195.68 167.76,-195.34"/>
<polygon fill="#63b8ff" stroke="#63b8ff" points="169.26,-192.18 158.68,-191.57 166.57,-198.64 169.26,-192.18"/>
</a>
</g>
</g>
<!-- Node10 -->
<g id="Node000010" class="node">
<title>Node10</title>
<g id="a_Node000010"><a xlink:title=" ">
<polygon fill="#e0e0e0" stroke="#999999" points="229.64,-190.62 179.89,-190.62 179.89,-171.38 229.64,-171.38 229.64,-190.62"/>
<text text-anchor="middle" x="204.76" y="-177.12" font-family="Helvetica,sans-Serif" font-size="10.00">iomanip</text>
</a>
</g>
</g>
<!-- Node5&#45;&gt;Node10 -->
<g id="edge10_Node000005_Node000010" class="edge">
<title>Node5&#45;&gt;Node10</title>
<g id="a_edge10_Node000005_Node000010"><a xlink:title=" ">
<path fill="none" stroke="#63b8ff" d="M765.8,-239.8C667.84,-235.83 340.56,-221 238.76,-196.25 237.17,-195.86 235.55,-195.41 233.94,-194.91"/>
<polygon fill="#63b8ff" stroke="#63b8ff" points="235.48,-191.75 224.88,-191.6 233.08,-198.32 235.48,-191.75"/>
</a>
</g>
</g>
<!-- Node11 -->
<g id="Node000011" class="node">
<title>Node11</title>
<g id="a_Node000011"><a xlink:title=" ">
<polygon fill="#e0e0e0" stroke="#999999" points="299.39,-190.62 248.14,-190.62 248.14,-171.38 299.39,-171.38 299.39,-190.62"/>
<text text-anchor="middle" x="273.76" y="-177.12" font-family="Helvetica,sans-Serif" font-size="10.00">sstream</text>
</a>
</g>
</g>
<!-- Node5&#45;&gt;Node11 -->
<g id="edge11_Node000005_Node000011" class="edge">
<title>Node5&#45;&gt;Node11</title>
<g id="a_edge11_Node000005_Node000011"><a xlink:title=" ">
<path fill="none" stroke="#63b8ff" d="M765.95,-241.15C690.96,-241.3 478.81,-237.72 308.76,-196.25 307.13,-195.85 305.47,-195.39 303.81,-194.88"/>
<polygon fill="#63b8ff" stroke="#63b8ff" points="305.06,-191.61 294.47,-191.54 302.71,-198.21 305.06,-191.61"/>
</a>
</g>
</g>
<!-- Node12 -->
<g id="Node000012" class="node">
<title>Node12</title>
<g id="a_Node000012"><a xlink:title=" ">
<polygon fill="#e0e0e0" stroke="#999999" points="422.01,-190.62 317.51,-190.62 317.51,-171.38 422.01,-171.38 422.01,-190.62"/>
<text text-anchor="middle" x="369.76" y="-177.12" font-family="Helvetica,sans-Serif" font-size="10.00">boost/date_time.hpp</text>
</a>
</g>
</g>
<!-- Node5&#45;&gt;Node12 -->
<g id="edge13_Node000005_Node000012" class="edge">
<title>Node5&#45;&gt;Node12</title>
<g id="a_edge13_Node000005_Node000012"><a xlink:title=" ">
<path fill="none" stroke="#63b8ff" d="M765.91,-238.43C705.02,-232.87 555.55,-218.05 431.76,-196.25 427.11,-195.43 422.29,-194.49 417.47,-193.49"/>
<polygon fill="#63b8ff" stroke="#63b8ff" points="418.35,-190.09 407.83,-191.39 416.86,-196.93 418.35,-190.09"/>
</a>
</g>
</g>
<!-- Node13 -->
<g id="Node000013" class="node">
<title>Node13</title>
<g id="a_Node000013"><a xlink:title=" ">
<polygon fill="#e0e0e0" stroke="#999999" points="581.01,-190.62 440.51,-190.62 440.51,-171.38 581.01,-171.38 581.01,-190.62"/>
<text text-anchor="middle" x="510.76" y="-177.12" font-family="Helvetica,sans-Serif" font-size="10.00">boost/endian/conversion.hpp</text>
</a>
</g>
</g>
<!-- Node5&#45;&gt;Node13 -->
<g id="edge14_Node000005_Node000013" class="edge">
<title>Node5&#45;&gt;Node13</title>
<g id="a_edge14_Node000005_Node000013"><a xlink:title=" ">
<path fill="none" stroke="#63b8ff" d="M765.85,-235.07C719.48,-225.42 625.72,-205.92 565.7,-193.43"/>
<polygon fill="#63b8ff" stroke="#63b8ff" points="566.53,-190.03 556.02,-191.42 565.1,-196.88 566.53,-190.03"/>
</a>
</g>
</g>
<!-- Node14 -->
<g id="Node000014" class="node">
<title>Node14</title>
<g id="a_Node000014"><a xlink:title=" ">
<polygon fill="#e0e0e0" stroke="#999999" points="700.14,-190.62 599.39,-190.62 599.39,-171.38 700.14,-171.38 700.14,-190.62"/>
<text text-anchor="middle" x="649.76" y="-177.12" font-family="Helvetica,sans-Serif" font-size="10.00">boost/uuid/uuid.hpp</text>
</a>
</g>
</g>
<!-- Node5&#45;&gt;Node14 -->
<g id="edge15_Node000005_Node000014" class="edge">
<title>Node5&#45;&gt;Node14</title>
<g id="a_edge15_Node000005_Node000014"><a xlink:title=" ">
<path fill="none" stroke="#63b8ff" d="M771.58,-231.8C747.72,-222.05 709.56,-206.45 682.31,-195.31"/>
<polygon fill="#63b8ff" stroke="#63b8ff" points="683.72,-192.1 673.14,-191.56 681.07,-198.58 683.72,-192.1"/>
</a>
</g>
</g>
<!-- Node15 -->
<g id="Node000015" class="node">
<title>Node15</title>
<g id="a_Node000015"><a xlink:title=" ">
<polygon fill="#e0e0e0" stroke="#999999" points="869.64,-190.62 717.89,-190.62 717.89,-171.38 869.64,-171.38 869.64,-190.62"/>
<text text-anchor="middle" x="793.76" y="-177.12" font-family="Helvetica,sans-Serif" font-size="10.00">boost/uuid/uuid_generators.hpp</text>
</a>
</g>
</g>
<!-- Node5&#45;&gt;Node15 -->
<g id="edge16_Node000005_Node000015" class="edge">
<title>Node5&#45;&gt;Node15</title>
<g id="a_edge16_Node000005_Node000015"><a xlink:title=" ">
<path fill="none" stroke="#63b8ff" d="M793.76,-231.93C793.76,-224.15 793.76,-212.58 793.76,-202.53"/>
<polygon fill="#63b8ff" stroke="#63b8ff" points="797.26,-202.54 793.76,-192.54 790.26,-202.54 797.26,-202.54"/>
</a>
</g>
</g>
<!-- Node16 -->
<g id="Node000016" class="node">
<title>Node16</title>
<g id="a_Node000016"><a xlink:title=" ">
<polygon fill="#e0e0e0" stroke="#999999" points="1001.51,-190.62 888.01,-190.62 888.01,-171.38 1001.51,-171.38 1001.51,-190.62"/>
<text text-anchor="middle" x="944.76" y="-177.12" font-family="Helvetica,sans-Serif" font-size="10.00">boost/uuid/uuid_io.hpp</text>
</a>
</g>
</g>
<!-- Node5&#45;&gt;Node16 -->
<g id="edge17_Node000005_Node000016" class="edge">
<title>Node5&#45;&gt;Node16</title>
<g id="a_edge17_Node000005_Node000016"><a xlink:title=" ">
<path fill="none" stroke="#63b8ff" d="M817.02,-231.8C842.07,-222.04 882.17,-206.4 910.76,-195.26"/>
<polygon fill="#63b8ff" stroke="#63b8ff" points="912.02,-198.52 920.06,-191.63 909.47,-192 912.02,-198.52"/>
</a>
</g>
</g>
<!-- Node17 -->
<g id="Node000017" class="node">
<title>Node17</title>
<g id="a_Node000017"><a xlink:title=" ">
<polygon fill="#e0e0e0" stroke="#999999" points="1139.51,-196.25 1020.01,-196.25 1020.01,-165.75 1139.51,-165.75 1139.51,-196.25"/>
<text text-anchor="start" x="1028.01" y="-182.75" font-family="Helvetica,sans-Serif" font-size="10.00">boost/date_time/c_local</text>
<text text-anchor="middle" x="1079.76" y="-171.5" font-family="Helvetica,sans-Serif" font-size="10.00">_time_adjustor.hpp</text>
</a>
</g>
</g>
<!-- Node5&#45;&gt;Node17 -->
<g id="edge18_Node000005_Node000017" class="edge">
<title>Node5&#45;&gt;Node17</title>
<g id="a_edge18_Node000005_Node000017"><a xlink:title=" ">
<path fill="none" stroke="#63b8ff" d="M821.51,-235.18C860.76,-227.11 935.05,-211.85 1008.29,-196.76"/>
<polygon fill="#63b8ff" stroke="#63b8ff" points="1008.98,-200.19 1018.07,-194.74 1007.57,-193.33 1008.98,-200.19"/>
</a>
</g>
</g>
<!-- Node5&#45;&gt;Node18 -->
<g id="edge19_Node000005_Node000018" class="edge">
<title>Node5&#45;&gt;Node18</title>
<g id="a_edge19_Node000005_Node000018"><a xlink:title=" ">
<path fill="none" stroke="#63b8ff" d="M821.52,-241C930.54,-241.16 1329.08,-238.8 1446.76,-196.25 1449.11,-195.4 1499.4,-158.73 1529.17,-136.95"/>
<polygon fill="#63b8ff" stroke="#63b8ff" points="1531.16,-139.83 1537.16,-131.1 1527.03,-134.18 1531.16,-139.83"/>
</a>
</g>
</g>
<!-- Node28 -->
<g id="Node000028" class="node">
<title>Node28</title>
<g id="a_Node000028"><a xlink:href="_h_d_f5_i_o_8hpp.html" target="_top" xlink:title=" ">
<polygon fill="white" stroke="#666666" points="1437.64,-190.62 1333.89,-190.62 1333.89,-171.38 1437.64,-171.38 1437.64,-190.62"/>
<text text-anchor="middle" x="1385.76" y="-177.12" font-family="Helvetica,sans-Serif" font-size="10.00">io/hdf5/HDF5IO.hpp</text>
</a>
</g>
</g>
<!-- Node5&#45;&gt;Node28 -->
<g id="edge32_Node000005_Node000028" class="edge">
<title>Node5&#45;&gt;Node28</title>
<g id="a_edge32_Node000005_Node000028"><a xlink:title=" ">
<path fill="none" stroke="#63b8ff" d="M821.61,-238.87C896.79,-233.35 1110.07,-216.95 1286.76,-196.25 1298.26,-194.9 1310.49,-193.29 1322.28,-191.64"/>
<polygon fill="#63b8ff" stroke="#63b8ff" points="1322.52,-195.14 1331.92,-190.27 1321.53,-188.21 1322.52,-195.14"/>
</a>
</g>
</g>
<!-- Node18&#45;&gt;Node3 -->
<g id="edge21_Node000018_Node000003" class="edge">
<title>Node18&#45;&gt;Node3</title>
<g id="a_edge21_Node000018_Node000003"><a xlink:title=" ">
<path fill="none" stroke="#63b8ff" d="M1511.4,-116.19C1487.03,-114.42 1455.09,-112.19 1426.76,-110.5 1089.32,-90.4 680.33,-72.44 560.98,-67.33"/>
<polygon fill="#63b8ff" stroke="#63b8ff" points="561.37,-63.84 551.23,-66.91 561.07,-70.83 561.37,-63.84"/>
</a>
</g>
</g>
<!-- Node18&#45;&gt;Node4 -->
<g id="edge24_Node000018_Node000004" class="edge">
<title>Node18&#45;&gt;Node4</title>
<g id="a_edge24_Node000018_Node000004"><a xlink:title=" ">
<path fill="none" stroke="#63b8ff" d="M1590.21,-114.92C1644.99,-108.71 1747.31,-95.71 1843.49,-74.73"/>
<polygon fill="#63b8ff" stroke="#63b8ff" points="1844.09,-78.18 1853.1,-72.6 1842.58,-71.35 1844.09,-78.18"/>
</a>
</g>
</g>
<!-- Node19 -->
<g id="Node000019" class="node">
<title>Node19</title>
<g id="a_Node000019"><a xlink:title=" ">
<polygon fill="#e0e0e0" stroke="#999999" points="1453.64,-74.5 1421.89,-74.5 1421.89,-55.25 1453.64,-55.25 1453.64,-74.5"/>
<text text-anchor="middle" x="1437.76" y="-61" font-family="Helvetica,sans-Serif" font-size="10.00">any</text>
</a>
</g>
</g>
<!-- Node18&#45;&gt;Node19 -->
<g id="edge20_Node000018_Node000019" class="edge">
<title>Node18&#45;&gt;Node19</title>
<g id="a_edge20_Node000018_Node000019"><a xlink:title=" ">
<path fill="none" stroke="#63b8ff" d="M1531.59,-110.09C1513.12,-101.39 1485.03,-88.15 1464.39,-78.42"/>
<polygon fill="#63b8ff" stroke="#63b8ff" points="1465.99,-75.31 1455.45,-74.21 1463.01,-81.64 1465.99,-75.31"/>
</a>
</g>
</g>
<!-- Node20 -->
<g id="Node000020" class="node">
<title>Node20</title>
<g id="a_Node000020"><a xlink:title=" ">
<polygon fill="#e0e0e0" stroke="#999999" points="1277.51,-74.5 1224.01,-74.5 1224.01,-55.25 1277.51,-55.25 1277.51,-74.5"/>
<text text-anchor="middle" x="1250.76" y="-61" font-family="Helvetica,sans-Serif" font-size="10.00">iostream</text>
</a>
</g>
</g>
<!-- Node18&#45;&gt;Node20 -->
<g id="edge22_Node000018_Node000020" class="edge">
<title>Node18&#45;&gt;Node20</title>
<g id="a_edge22_Node000018_Node000020"><a xlink:title=" ">
<path fill="none" stroke="#63b8ff" d="M1511.25,-113.3C1461.66,-105.8 1373.79,-91.9 1288.98,-74.83"/>
<polygon fill="#63b8ff" stroke="#63b8ff" points="1289.82,-71.43 1279.33,-72.87 1288.43,-78.29 1289.82,-71.43"/>
</a>
</g>
</g>
<!-- Node21 -->
<g id="Node000021" class="node">
<title>Node21</title>
<g id="a_Node000021"><a xlink:title=" ">
<polygon fill="#e0e0e0" stroke="#999999" points="1640.39,-74.5 1589.14,-74.5 1589.14,-55.25 1640.39,-55.25 1640.39,-74.5"/>
<text text-anchor="middle" x="1614.76" y="-61" font-family="Helvetica,sans-Serif" font-size="10.00">memory</text>
</a>
</g>
</g>
<!-- Node18&#45;&gt;Node21 -->
<g id="edge23_Node000018_Node000021" class="edge">
<title>Node18&#45;&gt;Node21</title>
<g id="a_edge23_Node000018_Node000021"><a xlink:title=" ">
<path fill="none" stroke="#63b8ff" d="M1561.62,-110.09C1570.87,-102.4 1584.38,-91.15 1595.47,-81.93"/>
<polygon fill="#63b8ff" stroke="#63b8ff" points="1597.45,-84.83 1602.9,-75.74 1592.98,-79.45 1597.45,-84.83"/>
</a>
</g>
</g>
<!-- Node22 -->
<g id="Node000022" class="node">
<title>Node22</title>
<g id="a_Node000022"><a xlink:title=" ">
<polygon fill="#e0e0e0" stroke="#999999" points="1741.14,-74.5 1658.39,-74.5 1658.39,-55.25 1741.14,-55.25 1741.14,-74.5"/>
<text text-anchor="middle" x="1699.76" y="-61" font-family="Helvetica,sans-Serif" font-size="10.00">unordered_map</text>
</a>
</g>
</g>
<!-- Node18&#45;&gt;Node22 -->
<g id="edge25_Node000018_Node000022" class="edge">
<title>Node18&#45;&gt;Node22</title>
<g id="a_edge25_Node000018_Node000022"><a xlink:title=" ">
<path fill="none" stroke="#63b8ff" d="M1576.04,-110.09C1600.12,-101.49 1636.62,-88.44 1663.74,-78.75"/>
<polygon fill="#63b8ff" stroke="#63b8ff" points="1664.7,-82.12 1672.94,-75.46 1662.34,-75.53 1664.7,-82.12"/>
</a>
</g>
</g>
<!-- Node23 -->
<g id="Node000023" class="node">
<title>Node23</title>
<g id="a_Node000023"><a xlink:title=" ">
<polygon fill="#e0e0e0" stroke="#999999" points="1836.51,-74.5 1759.01,-74.5 1759.01,-55.25 1836.51,-55.25 1836.51,-74.5"/>
<text text-anchor="middle" x="1797.76" y="-61" font-family="Helvetica,sans-Serif" font-size="10.00">unordered_set</text>
</a>
</g>
</g>
<!-- Node18&#45;&gt;Node23 -->
<g id="edge26_Node000018_Node000023" class="edge">
<title>Node18&#45;&gt;Node23</title>
<g id="a_edge26_Node000018_Node000023"><a xlink:title=" ">
<path fill="none" stroke="#63b8ff" d="M1590.17,-110.63C1632.95,-101.41 1701.37,-86.66 1747.87,-76.63"/>
<polygon fill="#63b8ff" stroke="#63b8ff" points="1748.38,-80.1 1757.42,-74.57 1746.91,-73.26 1748.38,-80.1"/>
</a>
</g>
</g>
<!-- Node24 -->
<g id="Node000024" class="node">
<title>Node24</title>
<g id="a_Node000024"><a xlink:title=" ">
<polygon fill="#e0e0e0" stroke="#999999" points="1552.26,-19.25 1509.26,-19.25 1509.26,0 1552.26,0 1552.26,-19.25"/>
<text text-anchor="middle" x="1530.76" y="-5.75" font-family="Helvetica,sans-Serif" font-size="10.00">vector</text>
</a>
</g>
</g>
<!-- Node18&#45;&gt;Node24 -->
<g id="edge27_Node000018_Node000024" class="edge">
<title>Node18&#45;&gt;Node24</title>
<g id="a_edge27_Node000018_Node000024"><a xlink:title=" ">
<path fill="none" stroke="#63b8ff" d="M1549.82,-110.4C1548.42,-98.06 1545.54,-74.82 1541.76,-55.25 1540.19,-47.12 1538.09,-38.25 1536.14,-30.58"/>
<polygon fill="#63b8ff" stroke="#63b8ff" points="1539.53,-29.7 1533.6,-20.92 1532.76,-31.48 1539.53,-29.7"/>
</a>
</g>
</g>
<!-- Node25 -->
<g id="Node000025" class="node">
<title>Node25</title>
<g id="a_Node000025"><a xlink:title=" ">
<polygon fill="#e0e0e0" stroke="#999999" points="1403.89,-74.5 1295.64,-74.5 1295.64,-55.25 1403.89,-55.25 1403.89,-74.5"/>
<text text-anchor="middle" x="1349.76" y="-61" font-family="Helvetica,sans-Serif" font-size="10.00">boost/multi_array.hpp</text>
</a>
</g>
</g>
<!-- Node18&#45;&gt;Node25 -->
<g id="edge28_Node000018_Node000025" class="edge">
<title>Node18&#45;&gt;Node25</title>
<g id="a_edge28_Node000018_Node000025"><a xlink:title=" ">
<path fill="none" stroke="#63b8ff" d="M1516.66,-110.09C1483.17,-101.22 1431.86,-87.62 1394.97,-77.85"/>
<polygon fill="#63b8ff" stroke="#63b8ff" points="1396.05,-74.52 1385.49,-75.34 1394.26,-81.28 1396.05,-74.52"/>
</a>
</g>
</g>
<!-- Node26 -->
<g id="Node000026" class="node">
<title>Node26</title>
<g id="a_Node000026"><a xlink:href="_types_8hpp.html" target="_top" xlink:title=" ">
<polygon fill="white" stroke="#666666" points="1532.26,-74.5 1471.26,-74.5 1471.26,-55.25 1532.26,-55.25 1532.26,-74.5"/>
<text text-anchor="middle" x="1501.76" y="-61" font-family="Helvetica,sans-Serif" font-size="10.00">Types.hpp</text>
</a>
</g>
</g>
<!-- Node18&#45;&gt;Node26 -->
<g id="edge29_Node000018_Node000026" class="edge">
<title>Node18&#45;&gt;Node26</title>
<g id="a_edge29_Node000018_Node000026"><a xlink:title=" ">
<path fill="none" stroke="#63b8ff" d="M1542.67,-110.33C1535.9,-102.98 1526.04,-92.26 1517.7,-83.19"/>
<polygon fill="#63b8ff" stroke="#63b8ff" points="1520.4,-80.96 1511.05,-75.97 1515.25,-85.7 1520.4,-80.96"/>
</a>
</g>
</g>
<!-- Node26&#45;&gt;Node24 -->
<g id="edge31_Node000026_Node000024" class="edge">
<title>Node26&#45;&gt;Node24</title>
<g id="a_edge31_Node000026_Node000024"><a xlink:title=" ">
<path fill="none" stroke="#63b8ff" d="M1506.55,-55.08C1510.31,-48.19 1515.67,-38.34 1520.39,-29.66"/>
<polygon fill="#63b8ff" stroke="#63b8ff" points="1523.44,-31.39 1525.14,-20.94 1517.29,-28.05 1523.44,-31.39"/>
</a>
</g>
</g>
<!-- Node27 -->
<g id="Node000027" class="node">
<title>Node27</title>
<g id="a_Node000027"><a xlink:title=" ">
<polygon fill="#e0e0e0" stroke="#999999" points="1490.89,-19.25 1442.64,-19.25 1442.64,0 1490.89,0 1490.89,-19.25"/>
<text text-anchor="middle" x="1466.76" y="-5.75" font-family="Helvetica,sans-Serif" font-size="10.00">cstddef</text>
</a>
</g>
</g>
<!-- Node26&#45;&gt;Node27 -->
<g id="edge30_Node000026_Node000027" class="edge">
<title>Node26&#45;&gt;Node27</title>
<g id="a_edge30_Node000026_Node000027"><a xlink:title=" ">
<path fill="none" stroke="#63b8ff" d="M1495.98,-55.08C1491.35,-48.03 1484.69,-37.9 1478.89,-29.08"/>
<polygon fill="#63b8ff" stroke="#63b8ff" points="1481.92,-27.31 1473.5,-20.87 1476.07,-31.15 1481.92,-27.31"/>
</a>
</g>
</g>
<!-- Node28&#45;&gt;Node4 -->
<g id="edge35_Node000028_Node000004" class="edge">
<title>Node28&#45;&gt;Node4</title>
<g id="a_edge35_Node000028_Node000004"><a xlink:title=" ">
<path fill="none" stroke="#63b8ff" d="M1429.75,-170.89C1510.05,-154.04 1685.89,-116.17 1843.68,-74.92"/>
<polygon fill="#63b8ff" stroke="#63b8ff" points="1844.28,-78.38 1853.06,-72.46 1842.5,-71.61 1844.28,-78.38"/>
</a>
</g>
</g>
<!-- Node28&#45;&gt;Node18 -->
<g id="edge38_Node000028_Node000018" class="edge">
<title>Node28&#45;&gt;Node18</title>
<g id="a_edge38_Node000028_Node000018"><a xlink:title=" ">
<path fill="none" stroke="#63b8ff" d="M1411.18,-170.93C1438.92,-161.03 1483.54,-145.11 1514.84,-133.94"/>
<polygon fill="#63b8ff" stroke="#63b8ff" points="1515.65,-137.37 1523.89,-130.71 1513.29,-130.78 1515.65,-137.37"/>
</a>
</g>
</g>
<!-- Node28&#45;&gt;Node20 -->
<g id="edge33_Node000028_Node000020" class="edge">
<title>Node28&#45;&gt;Node20</title>
<g id="a_edge33_Node000028_Node000020"><a xlink:title=" ">
<path fill="none" stroke="#63b8ff" d="M1333.53,-176.47C1301.37,-171.27 1262.46,-158.89 1241.76,-129.75 1232.54,-116.77 1236.34,-98.5 1241.54,-84.83"/>
<polygon fill="#63b8ff" stroke="#63b8ff" points="1244.59,-86.59 1245.38,-76.02 1238.17,-83.79 1244.59,-86.59"/>
</a>
</g>
</g>
<!-- Node28&#45;&gt;Node21 -->
<g id="edge34_Node000028_Node000021" class="edge">
<title>Node28&#45;&gt;Node21</title>
<g id="a_edge34_Node000028_Node000021"><a xlink:title=" ">
<path fill="none" stroke="#63b8ff" d="M1399.41,-170.93C1420.85,-156.91 1463.97,-129.6 1502.76,-110.5 1527.34,-98.4 1556.06,-87 1578.27,-78.76"/>
<polygon fill="#63b8ff" stroke="#63b8ff" points="1579.3,-82.11 1587.49,-75.38 1576.9,-75.53 1579.3,-82.11"/>
</a>
</g>
</g>
<!-- Node28&#45;&gt;Node26 -->
<g id="edge37_Node000028_Node000026" class="edge">
<title>Node28&#45;&gt;Node26</title>
<g id="a_edge37_Node000028_Node000026"><a xlink:title=" ">
<path fill="none" stroke="#63b8ff" d="M1394.86,-171.04C1414.18,-152.04 1459.53,-107.43 1484.51,-82.85"/>
<polygon fill="#63b8ff" stroke="#63b8ff" points="1486.95,-85.36 1491.62,-75.85 1482.04,-80.37 1486.95,-85.36"/>
</a>
</g>
</g>
<!-- Node29 -->
<g id="Node000029" class="node">
<title>Node29</title>
<g id="a_Node000029"><a xlink:title=" ">
<polygon fill="#e0e0e0" stroke="#999999" points="1417.76,-129.75 1347.76,-129.75 1347.76,-110.5 1417.76,-110.5 1417.76,-129.75"/>
<text text-anchor="middle" x="1382.76" y="-116.25" font-family="Helvetica,sans-Serif" font-size="10.00">H5Opublic.h</text>
</a>
</g>
</g>
<!-- Node28&#45;&gt;Node29 -->
<g id="edge36_Node000028_Node000029" class="edge">
<title>Node28&#45;&gt;Node29</title>
<g id="a_edge36_Node000028_Node000029"><a xlink:title=" ">
<path fill="none" stroke="#63b8ff" d="M1385.31,-171.06C1384.9,-163.19 1384.31,-151.45 1383.79,-141.32"/>
<polygon fill="#63b8ff" stroke="#63b8ff" points="1387.3,-141.47 1383.3,-131.66 1380.31,-141.83 1387.3,-141.47"/>
</a>
</g>
</g>
<!-- Node28&#45;&gt;Node30 -->
<g id="edge39_Node000028_Node000030" class="edge">
<title>Node28&#45;&gt;Node30</title>
<g id="a_edge39_Node000028_Node000030"><a xlink:title=" ">
<path fill="none" stroke="#63b8ff" d="M1371.18,-171.06C1356.1,-161.81 1332.27,-147.2 1314.29,-136.17"/>
<polygon fill="#63b8ff" stroke="#63b8ff" points="1316.12,-133.19 1305.77,-130.94 1312.46,-139.15 1316.12,-133.19"/>
</a>
</g>
</g>
<!-- Node30&#45;&gt;Node3 -->
<g id="edge41_Node000030_Node000003" class="edge">
<title>Node30&#45;&gt;Node3</title>
<g id="a_edge41_Node000030_Node000003"><a xlink:title=" ">
<path fill="none" stroke="#63b8ff" d="M1249.81,-116.34C1116.13,-107.01 685.83,-76.98 561,-68.26"/>
<polygon fill="#63b8ff" stroke="#63b8ff" points="561.3,-64.78 551.08,-67.57 560.81,-71.76 561.3,-64.78"/>
</a>
</g>
</g>
<!-- Node30&#45;&gt;Node4 -->
<g id="edge44_Node000030_Node000004" class="edge">
<title>Node30&#45;&gt;Node4</title>
<g id="a_edge44_Node000030_Node000004"><a xlink:title=" ">
<path fill="none" stroke="#63b8ff" d="M1329.56,-111.77C1332.66,-111.3 1335.76,-110.87 1338.76,-110.5 1559.35,-83.33 1621.52,-113.92 1843.28,-74.55"/>
<polygon fill="#63b8ff" stroke="#63b8ff" points="1843.59,-78.05 1852.81,-72.83 1842.35,-71.16 1843.59,-78.05"/>
</a>
</g>
</g>
<!-- Node30&#45;&gt;Node19 -->
<g id="edge40_Node000030_Node000019" class="edge">
<title>Node30&#45;&gt;Node19</title>
<g id="a_edge40_Node000030_Node000019"><a xlink:title=" ">
<path fill="none" stroke="#63b8ff" d="M1314.87,-110.09C1341.57,-100.49 1383.64,-85.35 1410.97,-75.52"/>
<polygon fill="#63b8ff" stroke="#63b8ff" points="1412.04,-78.85 1420.26,-72.17 1409.67,-72.26 1412.04,-78.85"/>
</a>
</g>
</g>
<!-- Node30&#45;&gt;Node20 -->
<g id="edge42_Node000030_Node000020" class="edge">
<title>Node30&#45;&gt;Node20</title>
<g id="a_edge42_Node000030_Node000020"><a xlink:title=" ">
<path fill="none" stroke="#63b8ff" d="M1283.32,-110.33C1278.1,-103.21 1270.57,-92.93 1264.07,-84.05"/>
<polygon fill="#63b8ff" stroke="#63b8ff" points="1266.97,-82.08 1258.24,-76.08 1261.32,-86.22 1266.97,-82.08"/>
</a>
</g>
</g>
<!-- Node30&#45;&gt;Node21 -->
<g id="edge43_Node000030_Node000021" class="edge">
<title>Node30&#45;&gt;Node21</title>
<g id="a_edge43_Node000030_Node000021"><a xlink:title=" ">
<path fill="none" stroke="#63b8ff" d="M1329.6,-112.06C1332.7,-111.53 1335.78,-111 1338.76,-110.5 1424.19,-96.08 1524.67,-80.07 1577.68,-71.7"/>
<polygon fill="#63b8ff" stroke="#63b8ff" points="1578.04,-75.19 1587.37,-70.17 1576.95,-68.27 1578.04,-75.19"/>
</a>
</g>
</g>
<!-- Node30&#45;&gt;Node24 -->
<g id="edge46_Node000030_Node000024" class="edge">
<title>Node30&#45;&gt;Node24</title>
<g id="a_edge46_Node000030_Node000024"><a xlink:title=" ">
<path fill="none" stroke="#63b8ff" d="M1250.03,-115.78C1194.48,-109.65 1104.09,-93.55 1138.76,-55.25 1190.7,2.13 1402.57,-31.17 1497.6,-18.99"/>
<polygon fill="#63b8ff" stroke="#63b8ff" points="1498.03,-22.47 1507.36,-17.46 1496.94,-15.55 1498.03,-22.47"/>
</a>
</g>
</g>
<!-- Node30&#45;&gt;Node25 -->
<g id="edge47_Node000030_Node000025" class="edge">
<title>Node30&#45;&gt;Node25</title>
<g id="a_edge47_Node000030_Node000025"><a xlink:title=" ">
<path fill="none" stroke="#63b8ff" d="M1299.94,-110.09C1308.52,-102.47 1321.03,-91.37 1331.36,-82.2"/>
<polygon fill="#63b8ff" stroke="#63b8ff" points="1333.45,-85.04 1338.6,-75.78 1328.8,-79.8 1333.45,-85.04"/>
</a>
</g>
</g>
<!-- Node30&#45;&gt;Node26 -->
<g id="edge48_Node000030_Node000026" class="edge">
<title>Node30&#45;&gt;Node26</title>
<g id="a_edge48_Node000030_Node000026"><a xlink:title=" ">
<path fill="none" stroke="#63b8ff" d="M1325.72,-110.09C1362.82,-100.77 1420.63,-86.25 1459.79,-76.42"/>
<polygon fill="#63b8ff" stroke="#63b8ff" points="1460.49,-79.85 1469.33,-74.02 1458.78,-73.06 1460.49,-79.85"/>
</a>
</g>
</g>
<!-- Node31 -->
<g id="Node000031" class="node">
<title>Node31</title>
<g id="a_Node000031"><a xlink:title=" ">
<polygon fill="#e0e0e0" stroke="#999999" points="1205.76,-74.5 1147.76,-74.5 1147.76,-55.25 1205.76,-55.25 1205.76,-74.5"/>
<text text-anchor="middle" x="1176.76" y="-61" font-family="Helvetica,sans-Serif" font-size="10.00">typeindex</text>
</a>
</g>
</g>
<!-- Node30&#45;&gt;Node31 -->
<g id="edge45_Node000030_Node000031" class="edge">
<title>Node30&#45;&gt;Node31</title>
<g id="a_edge45_Node000030_Node000031"><a xlink:title=" ">
<path fill="none" stroke="#63b8ff" d="M1270.59,-110.09C1252.98,-101.79 1226.6,-89.36 1206.3,-79.79"/>
<polygon fill="#63b8ff" stroke="#63b8ff" points="1207.93,-76.69 1197.39,-75.6 1204.95,-83.03 1207.93,-76.69"/>
</a>
</g>
</g>
<!-- Node32&#45;&gt;Node4 -->
<g id="edge53_Node000032_Node000004" class="edge">
<title>Node32&#45;&gt;Node4</title>
<g id="a_edge53_Node000032_Node000004"><a xlink:title=" ">
<path fill="none" stroke="#63b8ff" d="M1827.47,-342.34C1851.93,-335.97 1878.78,-325.15 1897.76,-306.75 1919.54,-285.64 1921.76,-273.2 1921.76,-242.88 1921.76,-242.88 1921.76,-242.88 1921.76,-180 1921.76,-143.91 1901.41,-105.9 1887.5,-84.13"/>
<polygon fill="#63b8ff" stroke="#63b8ff" points="1890.59,-82.46 1882.14,-76.08 1884.77,-86.35 1890.59,-82.46"/>
</a>
</g>
</g>
<!-- Node32&#45;&gt;Node21 -->
<g id="edge52_Node000032_Node000021" class="edge">
<title>Node32&#45;&gt;Node21</title>
<g id="a_edge52_Node000032_Node000021"><a xlink:title=" ">
<path fill="none" stroke="#63b8ff" d="M1768.82,-342.55C1770.8,-333.59 1773.65,-319.29 1774.76,-306.75 1777.73,-273.34 1776.76,-262.73 1762.76,-232.25 1734.46,-170.62 1718.1,-159.07 1670.76,-110.5 1660.53,-100 1647.85,-89.71 1637.14,-81.66"/>
<polygon fill="#63b8ff" stroke="#63b8ff" points="1639.34,-78.93 1629.2,-75.85 1635.2,-84.58 1639.34,-78.93"/>
</a>
</g>
</g>
<!-- Node33 -->
<g id="Node000033" class="node">
<title>Node33</title>
<g id="a_Node000033"><a xlink:href="_registered_type_8hpp.html" target="_top" xlink:title=" ">
<polygon fill="white" stroke="#666666" points="1765.76,-306.75 1641.76,-306.75 1641.76,-287.5 1765.76,-287.5 1765.76,-306.75"/>
<text text-anchor="middle" x="1703.76" y="-293.25" font-family="Helvetica,sans-Serif" font-size="10.00">nwb/RegisteredType.hpp</text>
</a>
</g>
</g>
<!-- Node32&#45;&gt;Node33 -->
<g id="edge54_Node000032_Node000033" class="edge">
<title>Node32&#45;&gt;Node33</title>
<g id="a_edge54_Node000032_Node000033"><a xlink:title=" ">
<path fill="none" stroke="#63b8ff" d="M1756.07,-342.34C1747.06,-334.72 1733.93,-323.62 1723.08,-314.45"/>
<polygon fill="#63b8ff" stroke="#63b8ff" points="1725.34,-311.78 1715.45,-308 1720.82,-317.13 1725.34,-311.78"/>
</a>
</g>
</g>
<!-- Node33&#45;&gt;Node4 -->
<g id="edge57_Node000033_Node000004" class="edge">
<title>Node33&#45;&gt;Node4</title>
<g id="a_edge57_Node000033_Node000004"><a xlink:title=" ">
<path fill="none" stroke="#63b8ff" d="M1727.33,-287.03C1744.2,-279.56 1766.53,-267.59 1781.76,-251.5 1829.39,-201.16 1857.94,-121.73 1869.2,-85.3"/>
<polygon fill="#63b8ff" stroke="#63b8ff" points="1872.42,-86.73 1871.92,-76.15 1865.71,-84.74 1872.42,-86.73"/>
</a>
</g>
</g>
<!-- Node33&#45;&gt;Node5 -->
<g id="edge61_Node000033_Node000005" class="edge">
<title>Node33&#45;&gt;Node5</title>
<g id="a_edge61_Node000033_Node000005"><a xlink:title=" ">
<path fill="none" stroke="#63b8ff" d="M1641.57,-292.49C1466.73,-282.25 974.36,-253.44 832.47,-245.14"/>
<polygon fill="#63b8ff" stroke="#63b8ff" points="833.05,-241.67 822.87,-244.58 832.64,-248.66 833.05,-241.67"/>
</a>
</g>
</g>
<!-- Node33&#45;&gt;Node18 -->
<g id="edge62_Node000033_Node000018" class="edge">
<title>Node33&#45;&gt;Node18</title>
<g id="a_edge62_Node000033_Node000018"><a xlink:title=" ">
<path fill="none" stroke="#63b8ff" d="M1666.93,-287.09C1646.07,-280.32 1620.81,-269.13 1603.76,-251.5 1573.42,-220.12 1559.62,-169.05 1554.04,-141.05"/>
<polygon fill="#63b8ff" stroke="#63b8ff" points="1557.53,-140.67 1552.3,-131.45 1550.64,-141.91 1557.53,-140.67"/>
</a>
</g>
</g>
<!-- Node33&#45;&gt;Node21 -->
<g id="edge56_Node000033_Node000021" class="edge">
<title>Node33&#45;&gt;Node21</title>
<g id="a_edge56_Node000033_Node000021"><a xlink:title=" ">
<path fill="none" stroke="#63b8ff" d="M1707.22,-287.31C1711.61,-274.85 1718,-251.48 1712.76,-232.25 1696.51,-172.65 1652.88,-112.65 1629.7,-83.7"/>
<polygon fill="#63b8ff" stroke="#63b8ff" points="1632.43,-81.51 1623.4,-75.98 1627.01,-85.94 1632.43,-81.51"/>
</a>
</g>
</g>
<!-- Node33&#45;&gt;Node22 -->
<g id="edge58_Node000033_Node000022" class="edge">
<title>Node33&#45;&gt;Node22</title>
<g id="a_edge58_Node000033_Node000022"><a xlink:title=" ">
<path fill="none" stroke="#63b8ff" d="M1716.37,-287.14C1726.47,-279.11 1739.88,-266.33 1745.76,-251.5 1769.18,-192.46 1731.91,-118.01 1711.58,-84.14"/>
<polygon fill="#63b8ff" stroke="#63b8ff" points="1714.72,-82.57 1706.47,-75.93 1708.78,-86.27 1714.72,-82.57"/>
</a>
</g>
</g>
<!-- Node33&#45;&gt;Node23 -->
<g id="edge59_Node000033_Node000023" class="edge">
<title>Node33&#45;&gt;Node23</title>
<g id="a_edge59_Node000033_Node000023"><a xlink:title=" ">
<path fill="none" stroke="#63b8ff" d="M1722.16,-287C1735.57,-279.37 1753.02,-267.22 1762.76,-251.5 1795.53,-198.62 1798.95,-122.18 1798.53,-86.14"/>
<polygon fill="#63b8ff" stroke="#63b8ff" points="1802.03,-86.22 1798.28,-76.31 1795.03,-86.4 1802.03,-86.22"/>
</a>
</g>
</g>
<!-- Node33&#45;&gt;Node26 -->
<g id="edge60_Node000033_Node000026" class="edge">
<title>Node33&#45;&gt;Node26</title>
<g id="a_edge60_Node000033_Node000026"><a xlink:title=" ">
<path fill="none" stroke="#63b8ff" d="M1682.63,-287.05C1667.69,-279.58 1648.34,-267.61 1636.76,-251.5 1598.88,-198.8 1640.64,-160.08 1598.76,-110.5 1584.6,-93.73 1562.78,-82.93 1543.42,-76.16"/>
<polygon fill="#63b8ff" stroke="#63b8ff" points="1544.72,-72.9 1534.13,-73.17 1542.58,-79.56 1544.72,-72.9"/>
</a>
</g>
</g>
<!-- Node33&#45;&gt;Node30 -->
<g id="edge63_Node000033_Node000030" class="edge">
<title>Node33&#45;&gt;Node30</title>
<g id="a_edge63_Node000033_Node000030"><a xlink:title=" ">
<path fill="none" stroke="#63b8ff" d="M1641.38,-295.39C1559.68,-291.25 1416.13,-272.62 1324.76,-196.25 1307.88,-182.14 1298.68,-158.09 1294.01,-141"/>
<polygon fill="#63b8ff" stroke="#63b8ff" points="1297.46,-140.4 1291.71,-131.51 1290.66,-142.05 1297.46,-140.4"/>
</a>
</g>
</g>
<!-- Node34 -->
<g id="Node000034" class="node">
<title>Node34</title>
<g id="a_Node000034"><a xlink:title=" ">
<polygon fill="#e0e0e0" stroke="#999999" points="1703.76,-251.5 1645.76,-251.5 1645.76,-232.25 1703.76,-232.25 1703.76,-251.5"/>
<text text-anchor="middle" x="1674.76" y="-238" font-family="Helvetica,sans-Serif" font-size="10.00">functional</text>
</a>
</g>
</g>
<!-- Node33&#45;&gt;Node34 -->
<g id="edge55_Node000033_Node000034" class="edge">
<title>Node33&#45;&gt;Node34</title>
<g id="a_edge55_Node000033_Node000034"><a xlink:title=" ">
<path fill="none" stroke="#63b8ff" d="M1698.97,-287.33C1695.22,-280.44 1689.85,-270.59 1685.13,-261.91"/>
<polygon fill="#63b8ff" stroke="#63b8ff" points="1688.23,-260.3 1680.38,-253.19 1682.09,-263.64 1688.23,-260.3"/>
</a>
</g>
</g>
</g>
</svg>

<g id="navigator" transform="translate(0 0)" fill="#404254">
  <rect fill="#f2f5e9" fill-opacity="0.5" stroke="#606060" stroke-width=".5" x="0" y="0" width="60" height="60"/>
  <use id="zoomplus" xlink:href="#zoomPlus" x="17" y="9" onmousedown="handleZoom(evt,'in')"/>
  <use id="zoomminus" xlink:href="#zoomMin" x="42" y="9" onmousedown="handleZoom(evt,'out')"/>
  <use id="reset" xlink:href="#resetDef" x="30" y="36" onmousedown="handleReset()"/>
   <use id="arrowup" xlink:href="#arrowUp" x="0" y="0" onmousedown="handlePan(0,-1)"/>
  <use id="arrowright" xlink:href="#arrowRight" x="0" y="0" onmousedown="handlePan(1,0)"/>
  <use id="arrowdown" xlink:href="#arrowDown" x="0" y="0" onmousedown="handlePan(0,1)"/>
  <use id="arrowleft" xlink:href="#arrowLeft" x="0" y="0" onmousedown="handlePan(-1,0)"/>
</g>
<svg viewBox="0 0 15 15" width="100%" height="30px" preserveAspectRatio="xMaxYMin meet">
 <g id="arrow_out" transform="scale(0.3 0.3)">
  <a xlink:href="_time_series_8cpp__incl_org.svg" target="_base">
   <rect id="button" ry="5" rx="5" y="6" x="6" height="38" width="38"
        fill="#f2f5e9" fill-opacity="0.5" stroke="#606060" stroke-width="1.0"/>
   <path id="arrow"
     d="M 11.500037,31.436501 C 11.940474,20.09759 22.043105,11.32322 32.158766,21.979434 L 37.068811,17.246167 C 37.068811,17.246167 37.088388,32 37.088388,32 L 22.160133,31.978069 C 22.160133,31.978069 26.997745,27.140456 26.997745,27.140456 C 18.528582,18.264221 13.291696,25.230495 11.500037,31.436501 z"
     style="fill:#404040;"/>
  </a>
 </g>
</svg>

<style type='text/css'>
<![CDATA[
[data-mouse-over-selected='false'] { opacity: 0.7; }
[data-mouse-over-selected='true']  { opacity: 1.0; }
]]>
</style>
<script type="application/ecmascript"><![CDATA[
document.addEventListener('DOMContentLoaded', (event) => {
  highlightEdges();
  highlightAdjacentNodes();
});
]]></script>
</svg>
