<?xml version="1.0" encoding="UTF-8" standalone="no"?>
<!DOCTYPE svg PUBLIC "-//W3C//DTD SVG 1.1//EN"
 "http://www.w3.org/Graphics/SVG/1.1/DTD/svg11.dtd">
<!-- Generated by graphviz version 12.2.1 (20241206.2353)
 -->
<!-- Title: src/nwb/base/TimeSeries.hpp Pages: 1 -->
<!--zoomable 481 -->

<svg id="main" version="1.1" xmlns="http://www.w3.org/2000/svg" xmlns:xlink="http://www.w3.org/1999/xlink" xml:space="preserve" onload="init(evt)">

<style type="text/css"><![CDATA[
.node, .edge {opacity: 0.7;}
.node.selected, .edge.selected {opacity: 1;}
.edge:hover path { stroke: red; }
.edge:hover polygon { stroke: red; fill: red; }
]]></style>

<defs>
  <circle id="rim" cx="0" cy="0" r="7"/>
  <circle id="rim2" cx="0" cy="0" r="3.5"/>
  <g id="zoomPlus">
    <use xlink:href="#rim" fill="#404040"><set attributeName="fill" to="#808080" begin="zoomplus.mouseover" end="zoomplus.mouseout"/></use>
    <path d="M-4,0h8M0,-4v8" fill="none" stroke="white" stroke-width="1.5" pointer-events="none"/>
  </g>
  <g id="zoomMin">
    <use xlink:href="#rim" fill="#404040"><set attributeName="fill" to="#808080" begin="zoomminus.mouseover" end="zoomminus.mouseout"/></use>
    <path d="M-4,0h8" fill="none" stroke="white" stroke-width="1.5" pointer-events="none"/>
  </g>
  <g id="arrowUp" transform="translate(30 24)">
    <use xlink:href="#rim"/>
    <path pointer-events="none" fill="none" stroke="white" stroke-width="1.5" d="M0,-3.0v7 M-2.5,-0.5L0,-3.0L2.5,-0.5"/>
  </g>
  <g id="arrowRight" transform="rotate(90) translate(36 -43)">
    <use xlink:href="#rim"/>
    <path pointer-events="none" fill="none" stroke="white" stroke-width="1.5" d="M0,-3.0v7 M-2.5,-0.5L0,-3.0L2.5,-0.5"/>
  </g>
  <g id="arrowDown" transform="rotate(180) translate(-30 -48)">
    <use xlink:href="#rim"/>
    <path pointer-events="none" fill="none" stroke="white" stroke-width="1.5" d="M0,-3.0v7 M-2.5,-0.5L0,-3.0L2.5,-0.5"/>
  </g>
  <g id="arrowLeft" transform="rotate(270) translate(-36 17)">
    <use xlink:href="#rim"/>
    <path pointer-events="none" fill="none" stroke="white" stroke-width="1.5" d="M0,-3.0v7 M-2.5,-0.5L0,-3.0L2.5,-0.5"/>
  </g>
  <g id="resetDef">
    <use xlink:href="#rim2" fill="#404040"><set attributeName="fill" to="#808080" begin="reset.mouseover" end="reset.mouseout"/></use>
  </g>
</defs>
<script type="application/ecmascript">
var viewWidth = 2149;
var viewHeight = 481;
var sectionId = 'dynsection-0';
</script>
<script type="application/ecmascript" xlink:href="svg.min.js"/>
<svg id="graph" class="graph">
<g id="viewport">
<title>src/nwb/base/TimeSeries.hpp</title>
<!-- Node1 -->
<g id="Node000001" class="node">
<title>Node1</title>
<g id="a_Node000001"><a xlink:title=" ">
<polygon fill="#999999" stroke="#666666" points="1478.88,-472.5 1333.12,-472.5 1333.12,-453.25 1478.88,-453.25 1478.88,-472.5"/>
<text text-anchor="middle" x="1406" y="-459" font-family="Helvetica,sans-Serif" font-size="10.00">src/nwb/base/TimeSeries.hpp</text>
</a>
</g>
</g>
<!-- Node2 -->
<g id="Node000002" class="node">
<title>Node2</title>
<g id="a_Node000002"><a xlink:title=" ">
<polygon fill="#e0e0e0" stroke="#999999" points="193.62,-74.5 148.38,-74.5 148.38,-55.25 193.62,-55.25 193.62,-74.5"/>
<text text-anchor="middle" x="171" y="-61" font-family="Helvetica,sans-Serif" font-size="10.00">cstdint</text>
</a>
</g>
</g>
<!-- Node1&#45;&gt;Node2 -->
<g id="edge1_Node000001_Node000002" class="edge">
<title>Node1&#45;&gt;Node2</title>
<g id="a_edge1_Node000001_Node000002"><a xlink:title=" ">
<path fill="none" stroke="#63b8ff" d="M1332.88,-460.1C1044.27,-452.62 0,-420.89 0,-353.38 0,-353.38 0,-353.38 0,-174.38 0,-110.25 86.79,-82.43 136.71,-71.72"/>
<polygon fill="#63b8ff" stroke="#63b8ff" points="137.34,-75.17 146.45,-69.77 135.96,-68.3 137.34,-75.17"/>
</a>
</g>
</g>
<!-- Node3 -->
<g id="Node000003" class="node">
<title>Node3</title>
<g id="a_Node000003"><a xlink:title=" ">
<polygon fill="#e0e0e0" stroke="#999999" points="2002,-74.5 1962,-74.5 1962,-55.25 2002,-55.25 2002,-74.5"/>
<text text-anchor="middle" x="1982" y="-61" font-family="Helvetica,sans-Serif" font-size="10.00">string</text>
</a>
</g>
</g>
<!-- Node1&#45;&gt;Node3 -->
<g id="edge2_Node000001_Node000003" class="edge">
<title>Node1&#45;&gt;Node3</title>
<g id="a_edge2_Node000001_Node000003"><a xlink:title=" ">
<path fill="none" stroke="#63b8ff" d="M1479.27,-459.89C1617.36,-455.57 1911.04,-443.55 2009,-417.25 2071.95,-400.35 2141,-418.55 2141,-353.38 2141,-353.38 2141,-353.38 2141,-174.38 2141,-113.22 2059.76,-84.06 2013.42,-72.39"/>
<polygon fill="#63b8ff" stroke="#63b8ff" points="2014.47,-69.05 2003.93,-70.15 2012.86,-75.86 2014.47,-69.05"/>
</a>
</g>
</g>
<!-- Node4 -->
<g id="Node000004" class="node">
<title>Node4</title>
<g id="a_Node000004"><a xlink:href="_utils_8hpp.html" target="_top" xlink:title=" ">
<polygon fill="white" stroke="#666666" points="1088.5,-306.75 1033.5,-306.75 1033.5,-287.5 1088.5,-287.5 1088.5,-306.75"/>
<text text-anchor="middle" x="1061" y="-293.25" font-family="Helvetica,sans-Serif" font-size="10.00">Utils.hpp</text>
</a>
</g>
</g>
<!-- Node1&#45;&gt;Node4 -->
<g id="edge3_Node000001_Node000004" class="edge">
<title>Node1&#45;&gt;Node4</title>
<g id="a_edge3_Node000001_Node000004"><a xlink:title=" ">
<path fill="none" stroke="#63b8ff" d="M1386.96,-452.84C1329.7,-425.66 1158.83,-344.56 1090.1,-311.94"/>
<polygon fill="#63b8ff" stroke="#63b8ff" points="1091.88,-308.91 1081.35,-307.78 1088.88,-315.23 1091.88,-308.91"/>
</a>
</g>
</g>
<!-- Node18 -->
<g id="Node000018" class="node">
<title>Node18</title>
<g id="a_Node000018"><a xlink:href="_base_i_o_8hpp.html" target="_top" xlink:title=" ">
<polygon fill="white" stroke="#666666" points="1573.12,-129.75 1494.88,-129.75 1494.88,-110.5 1573.12,-110.5 1573.12,-129.75"/>
<text text-anchor="middle" x="1534" y="-116.25" font-family="Helvetica,sans-Serif" font-size="10.00">io/BaseIO.hpp</text>
</a>
</g>
</g>
<!-- Node1&#45;&gt;Node18 -->
<g id="edge52_Node000001_Node000018" class="edge">
<title>Node1&#45;&gt;Node18</title>
<g id="a_edge52_Node000001_Node000018"><a xlink:title=" ">
<path fill="none" stroke="#63b8ff" d="M1428.45,-452.82C1461.91,-437.65 1521,-403.74 1521,-353.38 1521,-353.38 1521,-353.38 1521,-296.12 1521,-238.18 1511.23,-223.03 1520,-165.75 1521.27,-157.43 1523.81,-148.53 1526.38,-140.88"/>
<polygon fill="#63b8ff" stroke="#63b8ff" points="1529.64,-142.18 1529.75,-131.58 1523.05,-139.79 1529.64,-142.18"/>
</a>
</g>
</g>
<!-- Node32 -->
<g id="Node000032" class="node">
<title>Node32</title>
<g id="a_Node000032"><a xlink:href="_read_i_o_8hpp.html" target="_top" xlink:title=" ">
<polygon fill="white" stroke="#666666" points="1390.5,-185 1311.5,-185 1311.5,-165.75 1390.5,-165.75 1390.5,-185"/>
<text text-anchor="middle" x="1351" y="-171.5" font-family="Helvetica,sans-Serif" font-size="10.00">io/ReadIO.hpp</text>
</a>
</g>
</g>
<!-- Node1&#45;&gt;Node32 -->
<g id="edge53_Node000001_Node000032" class="edge">
<title>Node1&#45;&gt;Node32</title>
<g id="a_edge53_Node000001_Node000032"><a xlink:title=" ">
<path fill="none" stroke="#63b8ff" d="M1333.03,-459.43C1042.4,-448.46 -8.9,-396.34 160,-221 200.08,-179.39 1077.02,-176.42 1299.86,-176.34"/>
<polygon fill="#63b8ff" stroke="#63b8ff" points="1299.67,-179.84 1309.67,-176.34 1299.67,-172.84 1299.67,-179.84"/>
</a>
</g>
</g>
<!-- Node33 -->
<g id="Node000033" class="node">
<title>Node33</title>
<g id="a_Node000033"><a xlink:href="_container_8hpp.html" target="_top" xlink:title=" ">
<polygon fill="white" stroke="#666666" points="1999.88,-417.25 1854.12,-417.25 1854.12,-398 1999.88,-398 1999.88,-417.25"/>
<text text-anchor="middle" x="1927" y="-403.75" font-family="Helvetica,sans-Serif" font-size="10.00">nwb/hdmf/base/Container.hpp</text>
</a>
</g>
</g>
<!-- Node1&#45;&gt;Node33 -->
<g id="edge54_Node000001_Node000033" class="edge">
<title>Node1&#45;&gt;Node33</title>
<g id="a_edge54_Node000001_Node000033"><a xlink:title=" ">
<path fill="none" stroke="#63b8ff" d="M1479.27,-454.39C1574.8,-444.62 1741.58,-427.58 1842.39,-417.27"/>
<polygon fill="#63b8ff" stroke="#63b8ff" points="1842.65,-420.76 1852.24,-416.27 1841.94,-413.8 1842.65,-420.76"/>
</a>
</g>
</g>
<!-- Node4&#45;&gt;Node2 -->
<g id="edge7_Node000004_Node000002" class="edge">
<title>Node4&#45;&gt;Node2</title>
<g id="a_edge7_Node000004_Node000002"><a xlink:title=" ">
<path fill="none" stroke="#63b8ff" d="M1033.45,-295.8C886.6,-293.93 201.45,-283.52 171,-251.5 127.91,-206.2 150.13,-122.95 163.42,-85.29"/>
<polygon fill="#63b8ff" stroke="#63b8ff" points="166.6,-86.78 166.8,-76.19 160.04,-84.35 166.6,-86.78"/>
</a>
</g>
</g>
<!-- Node4&#45;&gt;Node3 -->
<g id="edge12_Node000004_Node000003" class="edge">
<title>Node4&#45;&gt;Node3</title>
<g id="a_edge12_Node000004_Node000003"><a xlink:title=" ">
<path fill="none" stroke="#63b8ff" d="M1088.85,-295.62C1192.06,-293.49 1552.37,-283.85 1662,-251.5 1786.77,-214.68 1914.42,-119.93 1962.29,-81.96"/>
<polygon fill="#63b8ff" stroke="#63b8ff" points="1964.23,-84.89 1969.84,-75.91 1959.85,-79.43 1964.23,-84.89"/>
</a>
</g>
</g>
<!-- Node5 -->
<g id="Node000005" class="node">
<title>Node5</title>
<g id="a_Node000005"><a xlink:title=" ">
<polygon fill="#e0e0e0" stroke="#999999" points="1329.88,-245.88 1274.12,-245.88 1274.12,-226.62 1329.88,-226.62 1329.88,-245.88"/>
<text text-anchor="middle" x="1302" y="-232.38" font-family="Helvetica,sans-Serif" font-size="10.00">algorithm</text>
</a>
</g>
</g>
<!-- Node4&#45;&gt;Node5 -->
<g id="edge4_Node000004_Node000005" class="edge">
<title>Node4&#45;&gt;Node5</title>
<g id="a_edge4_Node000004_Node000005"><a xlink:title=" ">
<path fill="none" stroke="#63b8ff" d="M1088.73,-291.45C1128.29,-284.46 1203.02,-270.1 1265,-251.5 1266.57,-251.03 1268.16,-250.52 1269.76,-249.99"/>
<polygon fill="#63b8ff" stroke="#63b8ff" points="1270.61,-253.41 1278.85,-246.76 1268.26,-246.82 1270.61,-253.41"/>
</a>
</g>
</g>
<!-- Node6 -->
<g id="Node000006" class="node">
<title>Node6</title>
<g id="a_Node000006"><a xlink:title=" ">
<polygon fill="#e0e0e0" stroke="#999999" points="1393.62,-245.88 1348.38,-245.88 1348.38,-226.62 1393.62,-226.62 1393.62,-245.88"/>
<text text-anchor="middle" x="1371" y="-232.38" font-family="Helvetica,sans-Serif" font-size="10.00">chrono</text>
</a>
</g>
</g>
<!-- Node4&#45;&gt;Node6 -->
<g id="edge5_Node000004_Node000006" class="edge">
<title>Node4&#45;&gt;Node6</title>
<g id="a_edge5_Node000004_Node000006"><a xlink:title=" ">
<path fill="none" stroke="#63b8ff" d="M1088.75,-294.07C1139.38,-289.79 1249.74,-278.04 1339,-251.5 1340.17,-251.15 1341.34,-250.77 1342.53,-250.37"/>
<polygon fill="#63b8ff" stroke="#63b8ff" points="1343.61,-253.71 1351.63,-246.78 1341.04,-247.19 1343.61,-253.71"/>
</a>
</g>
</g>
<!-- Node7 -->
<g id="Node000007" class="node">
<title>Node7</title>
<g id="a_Node000007"><a xlink:title=" ">
<polygon fill="#e0e0e0" stroke="#999999" points="1454.5,-245.88 1411.5,-245.88 1411.5,-226.62 1454.5,-226.62 1454.5,-245.88"/>
<text text-anchor="middle" x="1433" y="-232.38" font-family="Helvetica,sans-Serif" font-size="10.00">cmath</text>
</a>
</g>
</g>
<!-- Node4&#45;&gt;Node7 -->
<g id="edge6_Node000004_Node000007" class="edge">
<title>Node4&#45;&gt;Node7</title>
<g id="a_edge6_Node000004_Node000007"><a xlink:title=" ">
<path fill="none" stroke="#63b8ff" d="M1088.64,-295.44C1147.6,-293.34 1289.56,-284.93 1403,-251.5 1403.97,-251.21 1404.94,-250.9 1405.92,-250.57"/>
<polygon fill="#63b8ff" stroke="#63b8ff" points="1406.9,-253.95 1414.83,-246.92 1404.25,-247.47 1406.9,-253.95"/>
</a>
</g>
</g>
<!-- Node8 -->
<g id="Node000008" class="node">
<title>Node8</title>
<g id="a_Node000008"><a xlink:title=" ">
<polygon fill="#e0e0e0" stroke="#999999" points="220,-245.88 180,-245.88 180,-226.62 220,-226.62 220,-245.88"/>
<text text-anchor="middle" x="200" y="-232.38" font-family="Helvetica,sans-Serif" font-size="10.00">ctime</text>
</a>
</g>
</g>
<!-- Node4&#45;&gt;Node8 -->
<g id="edge8_Node000004_Node000008" class="edge">
<title>Node4&#45;&gt;Node8</title>
<g id="a_edge8_Node000004_Node000008"><a xlink:title=" ">
<path fill="none" stroke="#63b8ff" d="M1033.02,-296.13C906.35,-295.9 385.94,-292.44 229,-251.5 228,-251.24 227,-250.94 226,-250.62"/>
<polygon fill="#63b8ff" stroke="#63b8ff" points="227.49,-247.45 216.91,-246.87 224.82,-253.92 227.49,-247.45"/>
</a>
</g>
</g>
<!-- Node9 -->
<g id="Node000009" class="node">
<title>Node9</title>
<g id="a_Node000009"><a xlink:title=" ">
<polygon fill="#e0e0e0" stroke="#999999" points="287.88,-245.88 238.12,-245.88 238.12,-226.62 287.88,-226.62 287.88,-245.88"/>
<text text-anchor="middle" x="263" y="-232.38" font-family="Helvetica,sans-Serif" font-size="10.00">iomanip</text>
</a>
</g>
</g>
<!-- Node4&#45;&gt;Node9 -->
<g id="edge9_Node000004_Node000009" class="edge">
<title>Node4&#45;&gt;Node9</title>
<g id="a_edge9_Node000004_Node000009"><a xlink:title=" ">
<path fill="none" stroke="#63b8ff" d="M1033.38,-295.76C913.93,-293.98 441.32,-284.93 297,-251.5 295.36,-251.12 293.7,-250.67 292.05,-250.17"/>
<polygon fill="#63b8ff" stroke="#63b8ff" points="293.34,-246.91 282.75,-246.78 290.95,-253.49 293.34,-246.91"/>
</a>
</g>
</g>
<!-- Node10 -->
<g id="Node000010" class="node">
<title>Node10</title>
<g id="a_Node000010"><a xlink:title=" ">
<polygon fill="#e0e0e0" stroke="#999999" points="346,-245.88 306,-245.88 306,-226.62 346,-226.62 346,-245.88"/>
<text text-anchor="middle" x="326" y="-232.38" font-family="Helvetica,sans-Serif" font-size="10.00">regex</text>
</a>
</g>
</g>
<!-- Node4&#45;&gt;Node10 -->
<g id="edge10_Node000004_Node000010" class="edge">
<title>Node4&#45;&gt;Node10</title>
<g id="a_edge10_Node000004_Node000010"><a xlink:title=" ">
<path fill="none" stroke="#63b8ff" d="M1033.15,-295.82C918.96,-294.33 486.45,-286.46 355,-251.5 354,-251.24 353,-250.93 352,-250.61"/>
<polygon fill="#63b8ff" stroke="#63b8ff" points="353.49,-247.44 342.91,-246.84 350.81,-253.9 353.49,-247.44"/>
</a>
</g>
</g>
<!-- Node11 -->
<g id="Node000011" class="node">
<title>Node11</title>
<g id="a_Node000011"><a xlink:title=" ">
<polygon fill="#e0e0e0" stroke="#999999" points="415.62,-245.88 364.38,-245.88 364.38,-226.62 415.62,-226.62 415.62,-245.88"/>
<text text-anchor="middle" x="390" y="-232.38" font-family="Helvetica,sans-Serif" font-size="10.00">sstream</text>
</a>
</g>
</g>
<!-- Node4&#45;&gt;Node11 -->
<g id="edge11_Node000004_Node000011" class="edge">
<title>Node4&#45;&gt;Node11</title>
<g id="a_edge11_Node000004_Node000011"><a xlink:title=" ">
<path fill="none" stroke="#63b8ff" d="M1033.12,-295.34C926.31,-292.15 543.33,-279 425,-251.5 423.36,-251.12 421.7,-250.67 420.04,-250.18"/>
<polygon fill="#63b8ff" stroke="#63b8ff" points="421.29,-246.9 410.69,-246.87 418.95,-253.5 421.29,-246.9"/>
</a>
</g>
</g>
<!-- Node12 -->
<g id="Node000012" class="node">
<title>Node12</title>
<g id="a_Node000012"><a xlink:title=" ">
<polygon fill="#e0e0e0" stroke="#999999" points="538.25,-245.88 433.75,-245.88 433.75,-226.62 538.25,-226.62 538.25,-245.88"/>
<text text-anchor="middle" x="486" y="-232.38" font-family="Helvetica,sans-Serif" font-size="10.00">boost/date_time.hpp</text>
</a>
</g>
</g>
<!-- Node4&#45;&gt;Node12 -->
<g id="edge13_Node000004_Node000012" class="edge">
<title>Node4&#45;&gt;Node12</title>
<g id="a_edge13_Node000004_Node000012"><a xlink:title=" ">
<path fill="none" stroke="#63b8ff" d="M1033.03,-295.06C955.54,-291.82 731.68,-280.45 548,-251.5 543.02,-250.71 537.84,-249.76 532.69,-248.71"/>
<polygon fill="#63b8ff" stroke="#63b8ff" points="533.56,-245.32 523.05,-246.64 532.09,-252.16 533.56,-245.32"/>
</a>
</g>
</g>
<!-- Node13 -->
<g id="Node000013" class="node">
<title>Node13</title>
<g id="a_Node000013"><a xlink:title=" ">
<polygon fill="#e0e0e0" stroke="#999999" points="697.25,-245.88 556.75,-245.88 556.75,-226.62 697.25,-226.62 697.25,-245.88"/>
<text text-anchor="middle" x="627" y="-232.38" font-family="Helvetica,sans-Serif" font-size="10.00">boost/endian/conversion.hpp</text>
</a>
</g>
</g>
<!-- Node4&#45;&gt;Node13 -->
<g id="edge14_Node000004_Node000013" class="edge">
<title>Node4&#45;&gt;Node13</title>
<g id="a_edge14_Node000004_Node000013"><a xlink:title=" ">
<path fill="none" stroke="#63b8ff" d="M1033.39,-293.13C973.71,-286.55 828.26,-269.93 707,-251.5 700.48,-250.51 693.67,-249.4 686.89,-248.26"/>
<polygon fill="#63b8ff" stroke="#63b8ff" points="687.53,-244.82 677.08,-246.57 686.34,-251.72 687.53,-244.82"/>
</a>
</g>
</g>
<!-- Node14 -->
<g id="Node000014" class="node">
<title>Node14</title>
<g id="a_Node000014"><a xlink:title=" ">
<polygon fill="#e0e0e0" stroke="#999999" points="816.38,-245.88 715.62,-245.88 715.62,-226.62 816.38,-226.62 816.38,-245.88"/>
<text text-anchor="middle" x="766" y="-232.38" font-family="Helvetica,sans-Serif" font-size="10.00">boost/uuid/uuid.hpp</text>
</a>
</g>
</g>
<!-- Node4&#45;&gt;Node14 -->
<g id="edge15_Node000004_Node000014" class="edge">
<title>Node4&#45;&gt;Node14</title>
<g id="a_edge15_Node000004_Node000014"><a xlink:title=" ">
<path fill="none" stroke="#63b8ff" d="M1033.3,-291.35C989.11,-283.63 900.01,-267.64 825,-251.5 821.23,-250.69 817.33,-249.82 813.42,-248.92"/>
<polygon fill="#63b8ff" stroke="#63b8ff" points="814.45,-245.57 803.92,-246.7 812.86,-252.38 814.45,-245.57"/>
</a>
</g>
</g>
<!-- Node15 -->
<g id="Node000015" class="node">
<title>Node15</title>
<g id="a_Node000015"><a xlink:title=" ">
<polygon fill="#e0e0e0" stroke="#999999" points="985.88,-245.88 834.12,-245.88 834.12,-226.62 985.88,-226.62 985.88,-245.88"/>
<text text-anchor="middle" x="910" y="-232.38" font-family="Helvetica,sans-Serif" font-size="10.00">boost/uuid/uuid_generators.hpp</text>
</a>
</g>
</g>
<!-- Node4&#45;&gt;Node15 -->
<g id="edge16_Node000004_Node000015" class="edge">
<title>Node4&#45;&gt;Node15</title>
<g id="a_edge16_Node000004_Node000015"><a xlink:title=" ">
<path fill="none" stroke="#63b8ff" d="M1037.74,-287.05C1012.69,-277.29 972.59,-261.65 944,-250.51"/>
<polygon fill="#63b8ff" stroke="#63b8ff" points="945.29,-247.25 934.7,-246.88 942.74,-253.77 945.29,-247.25"/>
</a>
</g>
</g>
<!-- Node16 -->
<g id="Node000016" class="node">
<title>Node16</title>
<g id="a_Node000016"><a xlink:title=" ">
<polygon fill="#e0e0e0" stroke="#999999" points="1117.75,-245.88 1004.25,-245.88 1004.25,-226.62 1117.75,-226.62 1117.75,-245.88"/>
<text text-anchor="middle" x="1061" y="-232.38" font-family="Helvetica,sans-Serif" font-size="10.00">boost/uuid/uuid_io.hpp</text>
</a>
</g>
</g>
<!-- Node4&#45;&gt;Node16 -->
<g id="edge17_Node000004_Node000016" class="edge">
<title>Node4&#45;&gt;Node16</title>
<g id="a_edge17_Node000004_Node000016"><a xlink:title=" ">
<path fill="none" stroke="#63b8ff" d="M1061,-287.18C1061,-279.4 1061,-267.83 1061,-257.78"/>
<polygon fill="#63b8ff" stroke="#63b8ff" points="1064.5,-257.79 1061,-247.79 1057.5,-257.79 1064.5,-257.79"/>
</a>
</g>
</g>
<!-- Node17 -->
<g id="Node000017" class="node">
<title>Node17</title>
<g id="a_Node000017"><a xlink:title=" ">
<polygon fill="#e0e0e0" stroke="#999999" points="1255.75,-251.5 1136.25,-251.5 1136.25,-221 1255.75,-221 1255.75,-251.5"/>
<text text-anchor="start" x="1144.25" y="-238" font-family="Helvetica,sans-Serif" font-size="10.00">boost/date_time/c_local</text>
<text text-anchor="middle" x="1196" y="-226.75" font-family="Helvetica,sans-Serif" font-size="10.00">_time_adjustor.hpp</text>
</a>
</g>
</g>
<!-- Node4&#45;&gt;Node17 -->
<g id="edge18_Node000004_Node000017" class="edge">
<title>Node4&#45;&gt;Node17</title>
<g id="a_edge18_Node000004_Node000017"><a xlink:title=" ">
<path fill="none" stroke="#63b8ff" d="M1081.8,-287.05C1100.4,-278.94 1128.28,-266.78 1151.83,-256.51"/>
<polygon fill="#63b8ff" stroke="#63b8ff" points="1153.15,-259.76 1160.92,-252.55 1150.35,-253.34 1153.15,-259.76"/>
</a>
</g>
</g>
<!-- Node4&#45;&gt;Node18 -->
<g id="edge19_Node000004_Node000018" class="edge">
<title>Node4&#45;&gt;Node18</title>
<g id="a_edge19_Node000004_Node000018"><a xlink:title=" ">
<path fill="none" stroke="#63b8ff" d="M1088.88,-294.84C1175.46,-290.6 1435.56,-275.92 1464,-251.5 1493.94,-225.79 1466.83,-199.66 1487,-165.75 1493.49,-154.84 1503.39,-144.88 1512.43,-137.15"/>
<polygon fill="#63b8ff" stroke="#63b8ff" points="1514.59,-139.91 1520.18,-130.91 1510.2,-134.45 1514.59,-139.91"/>
</a>
</g>
</g>
<!-- Node30 -->
<g id="Node000030" class="node">
<title>Node30</title>
<g id="a_Node000030"><a xlink:href="_h_d_f5_i_o_8hpp.html" target="_top" xlink:title=" ">
<polygon fill="white" stroke="#666666" points="1652.88,-245.88 1549.12,-245.88 1549.12,-226.62 1652.88,-226.62 1652.88,-245.88"/>
<text text-anchor="middle" x="1601" y="-232.38" font-family="Helvetica,sans-Serif" font-size="10.00">io/hdf5/HDF5IO.hpp</text>
</a>
</g>
</g>
<!-- Node4&#45;&gt;Node30 -->
<g id="edge34_Node000004_Node000030" class="edge">
<title>Node4&#45;&gt;Node30</title>
<g id="a_edge34_Node000004_Node000030"><a xlink:title=" ">
<path fill="none" stroke="#63b8ff" d="M1088.84,-293.61C1157.98,-287.29 1343.06,-269.92 1497,-251.5 1510.15,-249.93 1524.21,-248.1 1537.61,-246.29"/>
<polygon fill="#63b8ff" stroke="#63b8ff" points="1537.74,-249.8 1547.17,-244.98 1536.79,-242.87 1537.74,-249.8"/>
</a>
</g>
</g>
<!-- Node18&#45;&gt;Node2 -->
<g id="edge21_Node000018_Node000002" class="edge">
<title>Node18&#45;&gt;Node2</title>
<g id="a_edge21_Node000018_Node000002"><a xlink:title=" ">
<path fill="none" stroke="#63b8ff" d="M1494.68,-117.59C1294.79,-109.78 393.54,-74.57 205.46,-67.22"/>
<polygon fill="#63b8ff" stroke="#63b8ff" points="205.76,-63.73 195.63,-66.84 205.49,-70.73 205.76,-63.73"/>
</a>
</g>
</g>
<!-- Node18&#45;&gt;Node3 -->
<g id="edge24_Node000018_Node000003" class="edge">
<title>Node18&#45;&gt;Node3</title>
<g id="a_edge24_Node000018_Node000003"><a xlink:title=" ">
<path fill="none" stroke="#63b8ff" d="M1573.35,-117.34C1646.12,-113.52 1806.67,-102.68 1950.33,-74.69"/>
<polygon fill="#63b8ff" stroke="#63b8ff" points="1950.91,-78.15 1960.04,-72.77 1949.55,-71.28 1950.91,-78.15"/>
</a>
</g>
</g>
<!-- Node19 -->
<g id="Node000019" class="node">
<title>Node19</title>
<g id="a_Node000019"><a xlink:title=" ">
<polygon fill="#e0e0e0" stroke="#999999" points="1303.88,-74.5 1272.12,-74.5 1272.12,-55.25 1303.88,-55.25 1303.88,-74.5"/>
<text text-anchor="middle" x="1288" y="-61" font-family="Helvetica,sans-Serif" font-size="10.00">any</text>
</a>
</g>
</g>
<!-- Node18&#45;&gt;Node19 -->
<g id="edge20_Node000018_Node000019" class="edge">
<title>Node18&#45;&gt;Node19</title>
<g id="a_edge20_Node000018_Node000019"><a xlink:title=" ">
<path fill="none" stroke="#63b8ff" d="M1494.51,-112.78C1452.27,-105.64 1383.17,-92.94 1315.2,-74.81"/>
<polygon fill="#63b8ff" stroke="#63b8ff" points="1316.34,-71.49 1305.77,-72.25 1314.5,-78.24 1316.34,-71.49"/>
</a>
</g>
</g>
<!-- Node20 -->
<g id="Node000020" class="node">
<title>Node20</title>
<g id="a_Node000020"><a xlink:title=" ">
<polygon fill="#e0e0e0" stroke="#999999" points="1678.75,-74.5 1625.25,-74.5 1625.25,-55.25 1678.75,-55.25 1678.75,-74.5"/>
<text text-anchor="middle" x="1652" y="-61" font-family="Helvetica,sans-Serif" font-size="10.00">iostream</text>
</a>
</g>
</g>
<!-- Node18&#45;&gt;Node20 -->
<g id="edge22_Node000018_Node000020" class="edge">
<title>Node18&#45;&gt;Node20</title>
<g id="a_edge22_Node000018_Node000020"><a xlink:title=" ">
<path fill="none" stroke="#63b8ff" d="M1554.02,-110.09C1572.49,-101.75 1600.21,-89.25 1621.45,-79.66"/>
<polygon fill="#63b8ff" stroke="#63b8ff" points="1622.83,-82.88 1630.51,-75.58 1619.95,-76.5 1622.83,-82.88"/>
</a>
</g>
</g>
<!-- Node21 -->
<g id="Node000021" class="node">
<title>Node21</title>
<g id="a_Node000021"><a xlink:title=" ">
<polygon fill="#e0e0e0" stroke="#999999" points="1943.62,-74.5 1892.38,-74.5 1892.38,-55.25 1943.62,-55.25 1943.62,-74.5"/>
<text text-anchor="middle" x="1918" y="-61" font-family="Helvetica,sans-Serif" font-size="10.00">memory</text>
</a>
</g>
</g>
<!-- Node18&#45;&gt;Node21 -->
<g id="edge23_Node000018_Node000021" class="edge">
<title>Node18&#45;&gt;Node21</title>
<g id="a_edge23_Node000018_Node000021"><a xlink:title=" ">
<path fill="none" stroke="#63b8ff" d="M1573.61,-115.66C1636.71,-109.79 1764.08,-96.56 1880.82,-74.92"/>
<polygon fill="#63b8ff" stroke="#63b8ff" points="1881.42,-78.37 1890.6,-73.08 1880.12,-71.49 1881.42,-78.37"/>
</a>
</g>
</g>
<!-- Node22 -->
<g id="Node000022" class="node">
<title>Node22</title>
<g id="a_Node000022"><a xlink:title=" ">
<polygon fill="#e0e0e0" stroke="#999999" points="1380,-74.5 1322,-74.5 1322,-55.25 1380,-55.25 1380,-74.5"/>
<text text-anchor="middle" x="1351" y="-61" font-family="Helvetica,sans-Serif" font-size="10.00">typeindex</text>
</a>
</g>
</g>
<!-- Node18&#45;&gt;Node22 -->
<g id="edge25_Node000018_Node000022" class="edge">
<title>Node18&#45;&gt;Node22</title>
<g id="a_edge25_Node000018_Node000022"><a xlink:title=" ">
<path fill="none" stroke="#63b8ff" d="M1502.96,-110.09C1472.17,-101.13 1424.87,-87.37 1391.22,-77.58"/>
<polygon fill="#63b8ff" stroke="#63b8ff" points="1392.41,-74.28 1381.83,-74.85 1390.45,-81 1392.41,-74.28"/>
</a>
</g>
</g>
<!-- Node23 -->
<g id="Node000023" class="node">
<title>Node23</title>
<g id="a_Node000023"><a xlink:title=" ">
<polygon fill="#e0e0e0" stroke="#999999" points="1779.38,-74.5 1696.62,-74.5 1696.62,-55.25 1779.38,-55.25 1779.38,-74.5"/>
<text text-anchor="middle" x="1738" y="-61" font-family="Helvetica,sans-Serif" font-size="10.00">unordered_map</text>
</a>
</g>
</g>
<!-- Node18&#45;&gt;Node23 -->
<g id="edge26_Node000018_Node000023" class="edge">
<title>Node18&#45;&gt;Node23</title>
<g id="a_edge26_Node000018_Node000023"><a xlink:title=" ">
<path fill="none" stroke="#63b8ff" d="M1568.61,-110.09C1602.6,-101.22 1654.68,-87.62 1692.11,-77.85"/>
<polygon fill="#63b8ff" stroke="#63b8ff" points="1692.97,-81.25 1701.76,-75.33 1691.2,-74.47 1692.97,-81.25"/>
</a>
</g>
</g>
<!-- Node24 -->
<g id="Node000024" class="node">
<title>Node24</title>
<g id="a_Node000024"><a xlink:title=" ">
<polygon fill="#e0e0e0" stroke="#999999" points="1874.75,-74.5 1797.25,-74.5 1797.25,-55.25 1874.75,-55.25 1874.75,-74.5"/>
<text text-anchor="middle" x="1836" y="-61" font-family="Helvetica,sans-Serif" font-size="10.00">unordered_set</text>
</a>
</g>
</g>
<!-- Node18&#45;&gt;Node24 -->
<g id="edge27_Node000018_Node000024" class="edge">
<title>Node18&#45;&gt;Node24</title>
<g id="a_edge27_Node000018_Node000024"><a xlink:title=" ">
<path fill="none" stroke="#63b8ff" d="M1573.6,-112.22C1621.44,-103.86 1704.64,-89.29 1786.02,-74.85"/>
<polygon fill="#63b8ff" stroke="#63b8ff" points="1786.25,-78.36 1795.48,-73.17 1785.02,-71.47 1786.25,-78.36"/>
</a>
</g>
</g>
<!-- Node25 -->
<g id="Node000025" class="node">
<title>Node25</title>
<g id="a_Node000025"><a xlink:title=" ">
<polygon fill="#e0e0e0" stroke="#999999" points="1607.62,-74.5 1562.38,-74.5 1562.38,-55.25 1607.62,-55.25 1607.62,-74.5"/>
<text text-anchor="middle" x="1585" y="-61" font-family="Helvetica,sans-Serif" font-size="10.00">variant</text>
</a>
</g>
</g>
<!-- Node18&#45;&gt;Node25 -->
<g id="edge28_Node000018_Node000025" class="edge">
<title>Node18&#45;&gt;Node25</title>
<g id="a_edge28_Node000018_Node000025"><a xlink:title=" ">
<path fill="none" stroke="#63b8ff" d="M1542.42,-110.33C1549.54,-102.9 1559.94,-92.04 1568.69,-82.91"/>
<polygon fill="#63b8ff" stroke="#63b8ff" points="1570.96,-85.6 1575.35,-75.95 1565.9,-80.75 1570.96,-85.6"/>
</a>
</g>
</g>
<!-- Node26 -->
<g id="Node000026" class="node">
<title>Node26</title>
<g id="a_Node000026"><a xlink:title=" ">
<polygon fill="#e0e0e0" stroke="#999999" points="1266.5,-19.25 1223.5,-19.25 1223.5,0 1266.5,0 1266.5,-19.25"/>
<text text-anchor="middle" x="1245" y="-5.75" font-family="Helvetica,sans-Serif" font-size="10.00">vector</text>
</a>
</g>
</g>
<!-- Node18&#45;&gt;Node26 -->
<g id="edge29_Node000018_Node000026" class="edge">
<title>Node18&#45;&gt;Node26</title>
<g id="a_edge29_Node000018_Node000026"><a xlink:title=" ">
<path fill="none" stroke="#63b8ff" d="M1534.13,-110.15C1533.8,-96.17 1530.97,-69.33 1515,-55.25 1480.35,-24.69 1342.54,-14.81 1278.29,-11.82"/>
<polygon fill="#63b8ff" stroke="#63b8ff" points="1278.49,-8.33 1268.35,-11.39 1278.19,-15.32 1278.49,-8.33"/>
</a>
</g>
</g>
<!-- Node27 -->
<g id="Node000027" class="node">
<title>Node27</title>
<g id="a_Node000027"><a xlink:title=" ">
<polygon fill="#e0e0e0" stroke="#999999" points="1506.12,-74.5 1397.88,-74.5 1397.88,-55.25 1506.12,-55.25 1506.12,-74.5"/>
<text text-anchor="middle" x="1452" y="-61" font-family="Helvetica,sans-Serif" font-size="10.00">boost/multi_array.hpp</text>
</a>
</g>
</g>
<!-- Node18&#45;&gt;Node27 -->
<g id="edge30_Node000018_Node000027" class="edge">
<title>Node18&#45;&gt;Node27</title>
<g id="a_edge30_Node000018_Node000027"><a xlink:title=" ">
<path fill="none" stroke="#63b8ff" d="M1520.09,-110.09C1507.84,-102.14 1489.75,-90.39 1475.29,-81"/>
<polygon fill="#63b8ff" stroke="#63b8ff" points="1477.54,-78.29 1467.25,-75.78 1473.73,-84.16 1477.54,-78.29"/>
</a>
</g>
</g>
<!-- Node28 -->
<g id="Node000028" class="node">
<title>Node28</title>
<g id="a_Node000028"><a xlink:href="_types_8hpp.html" target="_top" xlink:title=" ">
<polygon fill="white" stroke="#666666" points="1213.5,-74.5 1152.5,-74.5 1152.5,-55.25 1213.5,-55.25 1213.5,-74.5"/>
<text text-anchor="middle" x="1183" y="-61" font-family="Helvetica,sans-Serif" font-size="10.00">Types.hpp</text>
</a>
</g>
</g>
<!-- Node18&#45;&gt;Node28 -->
<g id="edge31_Node000018_Node000028" class="edge">
<title>Node18&#45;&gt;Node28</title>
<g id="a_edge31_Node000018_Node000028"><a xlink:title=" ">
<path fill="none" stroke="#63b8ff" d="M1494.42,-113.12C1427.64,-102.99 1293.22,-82.6 1224.91,-72.23"/>
<polygon fill="#63b8ff" stroke="#63b8ff" points="1225.65,-68.81 1215.24,-70.77 1224.6,-75.73 1225.65,-68.81"/>
</a>
</g>
</g>
<!-- Node28&#45;&gt;Node26 -->
<g id="edge33_Node000028_Node000026" class="edge">
<title>Node28&#45;&gt;Node26</title>
<g id="a_edge33_Node000028_Node000026"><a xlink:title=" ">
<path fill="none" stroke="#63b8ff" d="M1193.52,-54.84C1202.39,-47.22 1215.31,-36.12 1225.99,-26.95"/>
<polygon fill="#63b8ff" stroke="#63b8ff" points="1228.18,-29.68 1233.49,-20.51 1223.62,-24.37 1228.18,-29.68"/>
</a>
</g>
</g>
<!-- Node29 -->
<g id="Node000029" class="node">
<title>Node29</title>
<g id="a_Node000029"><a xlink:title=" ">
<polygon fill="#e0e0e0" stroke="#999999" points="1205.12,-19.25 1156.88,-19.25 1156.88,0 1205.12,0 1205.12,-19.25"/>
<text text-anchor="middle" x="1181" y="-5.75" font-family="Helvetica,sans-Serif" font-size="10.00">cstddef</text>
</a>
</g>
</g>
<!-- Node28&#45;&gt;Node29 -->
<g id="edge32_Node000028_Node000029" class="edge">
<title>Node28&#45;&gt;Node29</title>
<g id="a_edge32_Node000028_Node000029"><a xlink:title=" ">
<path fill="none" stroke="#63b8ff" d="M1182.67,-55.08C1182.42,-48.49 1182.07,-39.21 1181.76,-30.82"/>
<polygon fill="#63b8ff" stroke="#63b8ff" points="1185.27,-30.98 1181.39,-21.12 1178.27,-31.25 1185.27,-30.98"/>
</a>
</g>
</g>
<!-- Node30&#45;&gt;Node3 -->
<g id="edge37_Node000030_Node000003" class="edge">
<title>Node30&#45;&gt;Node3</title>
<g id="a_edge37_Node000030_Node000003"><a xlink:title=" ">
<path fill="none" stroke="#63b8ff" d="M1624.85,-226.21C1650.32,-216.44 1691.77,-200.24 1727,-185 1810.04,-149.08 1906.35,-102.8 1953.3,-79.94"/>
<polygon fill="#63b8ff" stroke="#63b8ff" points="1954.8,-83.11 1962.25,-75.58 1951.73,-76.82 1954.8,-83.11"/>
</a>
</g>
</g>
<!-- Node30&#45;&gt;Node18 -->
<g id="edge40_Node000030_Node000018" class="edge">
<title>Node30&#45;&gt;Node18</title>
<g id="a_edge40_Node000030_Node000018"><a xlink:title=" ">
<path fill="none" stroke="#63b8ff" d="M1604.95,-226.46C1610.56,-212.58 1618.97,-185.18 1608,-165.75 1600.18,-151.9 1586.15,-141.87 1572.4,-134.87"/>
<polygon fill="#63b8ff" stroke="#63b8ff" points="1573.96,-131.74 1563.41,-130.73 1571.03,-138.1 1573.96,-131.74"/>
</a>
</g>
</g>
<!-- Node30&#45;&gt;Node20 -->
<g id="edge35_Node000030_Node000020" class="edge">
<title>Node30&#45;&gt;Node20</title>
<g id="a_edge35_Node000030_Node000020"><a xlink:title=" ">
<path fill="none" stroke="#63b8ff" d="M1606.06,-226.25C1611.41,-216.39 1619.8,-199.98 1625,-185 1636.79,-151.04 1644.81,-109.82 1648.88,-85.84"/>
<polygon fill="#63b8ff" stroke="#63b8ff" points="1652.29,-86.66 1650.44,-76.22 1645.38,-85.53 1652.29,-86.66"/>
</a>
</g>
</g>
<!-- Node30&#45;&gt;Node21 -->
<g id="edge36_Node000030_Node000021" class="edge">
<title>Node30&#45;&gt;Node21</title>
<g id="a_edge36_Node000030_Node000021"><a xlink:title=" ">
<path fill="none" stroke="#63b8ff" d="M1618.04,-226.14C1670.2,-198.28 1827.92,-114.01 1891.25,-80.17"/>
<polygon fill="#63b8ff" stroke="#63b8ff" points="1892.75,-83.33 1899.92,-75.53 1889.45,-77.16 1892.75,-83.33"/>
</a>
</g>
</g>
<!-- Node30&#45;&gt;Node28 -->
<g id="edge39_Node000030_Node000028" class="edge">
<title>Node30&#45;&gt;Node28</title>
<g id="a_edge39_Node000030_Node000028"><a xlink:title=" ">
<path fill="none" stroke="#63b8ff" d="M1548.64,-228.69C1475.64,-219.16 1347.26,-200.89 1303,-185 1256.67,-168.37 1238.86,-167.27 1207,-129.75 1196.32,-117.17 1190.15,-99.36 1186.75,-85.74"/>
<polygon fill="#63b8ff" stroke="#63b8ff" points="1190.22,-85.19 1184.68,-76.16 1183.37,-86.67 1190.22,-85.19"/>
</a>
</g>
</g>
<!-- Node31 -->
<g id="Node000031" class="node">
<title>Node31</title>
<g id="a_Node000031"><a xlink:title=" ">
<polygon fill="#e0e0e0" stroke="#999999" points="1599,-185 1529,-185 1529,-165.75 1599,-165.75 1599,-185"/>
<text text-anchor="middle" x="1564" y="-171.5" font-family="Helvetica,sans-Serif" font-size="10.00">H5Opublic.h</text>
</a>
</g>
</g>
<!-- Node30&#45;&gt;Node31 -->
<g id="edge38_Node000030_Node000031" class="edge">
<title>Node30&#45;&gt;Node31</title>
<g id="a_edge38_Node000030_Node000031"><a xlink:title=" ">
<path fill="none" stroke="#63b8ff" d="M1595.38,-226.31C1590.16,-218.01 1582.24,-205.39 1575.66,-194.92"/>
<polygon fill="#63b8ff" stroke="#63b8ff" points="1578.76,-193.29 1570.48,-186.68 1572.84,-197.01 1578.76,-193.29"/>
</a>
</g>
</g>
<!-- Node30&#45;&gt;Node32 -->
<g id="edge41_Node000030_Node000032" class="edge">
<title>Node30&#45;&gt;Node32</title>
<g id="a_edge41_Node000030_Node000032"><a xlink:title=" ">
<path fill="none" stroke="#63b8ff" d="M1562.49,-226.18C1518.99,-215.94 1448.1,-199.24 1400.52,-188.04"/>
<polygon fill="#63b8ff" stroke="#63b8ff" points="1401.57,-184.69 1391.03,-185.8 1399.96,-191.5 1401.57,-184.69"/>
</a>
</g>
</g>
<!-- Node32&#45;&gt;Node2 -->
<g id="edge43_Node000032_Node000002" class="edge">
<title>Node32&#45;&gt;Node2</title>
<g id="a_edge43_Node000032_Node000002"><a xlink:title=" ">
<path fill="none" stroke="#63b8ff" d="M1311.06,-170.7C1128.54,-153.92 375.3,-84.66 205.23,-69.02"/>
<polygon fill="#63b8ff" stroke="#63b8ff" points="205.57,-65.54 195.3,-68.11 204.93,-72.51 205.57,-65.54"/>
</a>
</g>
</g>
<!-- Node32&#45;&gt;Node3 -->
<g id="edge46_Node000032_Node000003" class="edge">
<title>Node32&#45;&gt;Node3</title>
<g id="a_edge46_Node000032_Node000003"><a xlink:title=" ">
<path fill="none" stroke="#63b8ff" d="M1390.88,-169.93C1486.39,-158.82 1735.74,-127.11 1950.92,-74.82"/>
<polygon fill="#63b8ff" stroke="#63b8ff" points="1951.44,-78.29 1960.32,-72.51 1949.77,-71.5 1951.44,-78.29"/>
</a>
</g>
</g>
<!-- Node32&#45;&gt;Node18 -->
<g id="edge50_Node000032_Node000018" class="edge">
<title>Node32&#45;&gt;Node18</title>
<g id="a_edge50_Node000032_Node000018"><a xlink:title=" ">
<path fill="none" stroke="#63b8ff" d="M1382.04,-165.34C1412.28,-156.54 1458.45,-143.11 1491.97,-133.36"/>
<polygon fill="#63b8ff" stroke="#63b8ff" points="1492.73,-136.78 1501.35,-130.63 1490.77,-130.06 1492.73,-136.78"/>
</a>
</g>
</g>
<!-- Node32&#45;&gt;Node19 -->
<g id="edge42_Node000032_Node000019" class="edge">
<title>Node32&#45;&gt;Node19</title>
<g id="a_edge42_Node000032_Node000019"><a xlink:title=" ">
<path fill="none" stroke="#63b8ff" d="M1345.84,-165.5C1335.65,-147.93 1312.7,-108.41 1298.97,-84.77"/>
<polygon fill="#63b8ff" stroke="#63b8ff" points="1302.03,-83.08 1293.99,-76.19 1295.98,-86.59 1302.03,-83.08"/>
</a>
</g>
</g>
<!-- Node32&#45;&gt;Node20 -->
<g id="edge44_Node000032_Node000020" class="edge">
<title>Node32&#45;&gt;Node20</title>
<g id="a_edge44_Node000032_Node000020"><a xlink:title=" ">
<path fill="none" stroke="#63b8ff" d="M1367.63,-165.31C1392.7,-151.92 1441.95,-126.69 1486,-110.5 1509.3,-101.94 1572.42,-85.66 1613.76,-75.31"/>
<polygon fill="#63b8ff" stroke="#63b8ff" points="1614.47,-78.74 1623.33,-72.92 1612.78,-71.95 1614.47,-78.74"/>
</a>
</g>
</g>
<!-- Node32&#45;&gt;Node21 -->
<g id="edge45_Node000032_Node000021" class="edge">
<title>Node32&#45;&gt;Node21</title>
<g id="a_edge45_Node000032_Node000021"><a xlink:title=" ">
<path fill="none" stroke="#63b8ff" d="M1390.96,-167.78C1478.16,-153.19 1692.23,-116.33 1880.81,-75.11"/>
<polygon fill="#63b8ff" stroke="#63b8ff" points="1881.56,-78.53 1890.57,-72.96 1880.06,-71.69 1881.56,-78.53"/>
</a>
</g>
</g>
<!-- Node32&#45;&gt;Node22 -->
<g id="edge47_Node000032_Node000022" class="edge">
<title>Node32&#45;&gt;Node22</title>
<g id="a_edge47_Node000032_Node000022"><a xlink:title=" ">
<path fill="none" stroke="#63b8ff" d="M1351,-165.5C1351,-148.25 1351,-109.83 1351,-86.06"/>
<polygon fill="#63b8ff" stroke="#63b8ff" points="1354.5,-86.39 1351,-76.39 1347.5,-86.39 1354.5,-86.39"/>
</a>
</g>
</g>
<!-- Node32&#45;&gt;Node26 -->
<g id="edge48_Node000032_Node000026" class="edge">
<title>Node32&#45;&gt;Node26</title>
<g id="a_edge48_Node000032_Node000026"><a xlink:title=" ">
<path fill="none" stroke="#63b8ff" d="M1340.36,-165.32C1321.9,-149.02 1283.88,-112.86 1263,-74.5 1255.49,-60.7 1250.87,-43.47 1248.2,-30.38"/>
<polygon fill="#63b8ff" stroke="#63b8ff" points="1251.69,-30.06 1246.47,-20.84 1244.81,-31.31 1251.69,-30.06"/>
</a>
</g>
</g>
<!-- Node32&#45;&gt;Node27 -->
<g id="edge49_Node000032_Node000027" class="edge">
<title>Node32&#45;&gt;Node27</title>
<g id="a_edge49_Node000032_Node000027"><a xlink:title=" ">
<path fill="none" stroke="#63b8ff" d="M1359.27,-165.5C1375.99,-147.53 1414.08,-106.61 1435.89,-83.19"/>
<polygon fill="#63b8ff" stroke="#63b8ff" points="1438.34,-85.69 1442.59,-75.98 1433.21,-80.92 1438.34,-85.69"/>
</a>
</g>
</g>
<!-- Node32&#45;&gt;Node28 -->
<g id="edge51_Node000032_Node000028" class="edge">
<title>Node32&#45;&gt;Node28</title>
<g id="a_edge51_Node000032_Node000028"><a xlink:title=" ">
<path fill="none" stroke="#63b8ff" d="M1311.09,-165.92C1286.01,-159.17 1253.98,-147.78 1230,-129.75 1213.87,-117.62 1200.8,-98.43 1192.57,-84.25"/>
<polygon fill="#63b8ff" stroke="#63b8ff" points="1195.87,-82.98 1187.99,-75.9 1189.74,-86.35 1195.87,-82.98"/>
</a>
</g>
</g>
<!-- Node33&#45;&gt;Node3 -->
<g id="edge56_Node000033_Node000003" class="edge">
<title>Node33&#45;&gt;Node3</title>
<g id="a_edge56_Node000033_Node000003"><a xlink:title=" ">
<path fill="none" stroke="#63b8ff" d="M1978.38,-397.58C2030.33,-385.14 2103,-357.17 2103,-298.12 2103,-298.12 2103,-298.12 2103,-174.38 2103,-125.92 2048.55,-93.65 2012.7,-77.65"/>
<polygon fill="#63b8ff" stroke="#63b8ff" points="2014.22,-74.5 2003.65,-73.8 2011.48,-80.94 2014.22,-74.5"/>
</a>
</g>
</g>
<!-- Node33&#45;&gt;Node21 -->
<g id="edge55_Node000033_Node000021" class="edge">
<title>Node33&#45;&gt;Node21</title>
<g id="a_edge55_Node000033_Node000021"><a xlink:title=" ">
<path fill="none" stroke="#63b8ff" d="M1940.2,-397.71C1965.46,-379.43 2017.35,-335.36 2008,-287.5 1992.56,-208.45 1948.86,-121.98 1928.58,-84.7"/>
<polygon fill="#63b8ff" stroke="#63b8ff" points="1931.73,-83.16 1923.83,-76.1 1925.6,-86.54 1931.73,-83.16"/>
</a>
</g>
</g>
<!-- Node34 -->
<g id="Node000034" class="node">
<title>Node34</title>
<g id="a_Node000034"><a xlink:href="_registered_type_8hpp.html" target="_top" xlink:title=" ">
<polygon fill="white" stroke="#666666" points="1876,-362 1752,-362 1752,-342.75 1876,-342.75 1876,-362"/>
<text text-anchor="middle" x="1814" y="-348.5" font-family="Helvetica,sans-Serif" font-size="10.00">nwb/RegisteredType.hpp</text>
</a>
</g>
</g>
<!-- Node33&#45;&gt;Node34 -->
<g id="edge57_Node000033_Node000034" class="edge">
<title>Node33&#45;&gt;Node34</title>
<g id="a_edge57_Node000033_Node000034"><a xlink:title=" ">
<path fill="none" stroke="#63b8ff" d="M1907.83,-397.59C1890.22,-389.29 1863.84,-376.86 1843.54,-367.29"/>
<polygon fill="#63b8ff" stroke="#63b8ff" points="1845.17,-364.19 1834.63,-363.1 1842.19,-370.53 1845.17,-364.19"/>
</a>
</g>
</g>
<!-- Node34&#45;&gt;Node3 -->
<g id="edge61_Node000034_Node000003" class="edge">
<title>Node34&#45;&gt;Node3</title>
<g id="a_edge61_Node000034_Node000003"><a xlink:title=" ">
<path fill="none" stroke="#63b8ff" d="M1876.07,-345.07C1926.14,-338.6 1990.96,-326.62 2008,-306.75 2064.91,-240.4 2051.72,-192.34 2021,-110.5 2016.96,-99.75 2009.03,-89.89 2001.37,-82.19"/>
<polygon fill="#63b8ff" stroke="#63b8ff" points="2004.17,-80.01 1994.47,-75.77 1999.41,-85.14 2004.17,-80.01"/>
</a>
</g>
</g>
<!-- Node34&#45;&gt;Node4 -->
<g id="edge65_Node000034_Node000004" class="edge">
<title>Node34&#45;&gt;Node4</title>
<g id="a_edge65_Node000034_Node000004"><a xlink:title=" ">
<path fill="none" stroke="#63b8ff" d="M1751.74,-346.97C1601.7,-336.36 1223.45,-309.61 1100.37,-300.91"/>
<polygon fill="#63b8ff" stroke="#63b8ff" points="1100.67,-297.42 1090.45,-300.21 1100.18,-304.4 1100.67,-297.42"/>
</a>
</g>
</g>
<!-- Node34&#45;&gt;Node18 -->
<g id="edge66_Node000034_Node000018" class="edge">
<title>Node34&#45;&gt;Node18</title>
<g id="a_edge66_Node000034_Node000018"><a xlink:title=" ">
<path fill="none" stroke="#63b8ff" d="M1796.32,-342.31C1781.29,-334.13 1759.56,-321.21 1743,-306.75 1681.43,-253.02 1689.31,-216.17 1625,-165.75 1608.37,-152.71 1587.32,-142.09 1569.66,-134.48"/>
<polygon fill="#63b8ff" stroke="#63b8ff" points="1571.14,-131.31 1560.56,-130.72 1568.47,-137.78 1571.14,-131.31"/>
</a>
</g>
</g>
<!-- Node34&#45;&gt;Node21 -->
<g id="edge60_Node000034_Node000021" class="edge">
<title>Node34&#45;&gt;Node21</title>
<g id="a_edge60_Node000034_Node000021"><a xlink:title=" ">
<path fill="none" stroke="#63b8ff" d="M1830.33,-342.4C1842.89,-334.63 1859.63,-322.21 1869,-306.75 1912.8,-234.5 1918.16,-129.93 1918.34,-86.25"/>
<polygon fill="#63b8ff" stroke="#63b8ff" points="1921.84,-86.45 1918.28,-76.48 1914.84,-86.5 1921.84,-86.45"/>
</a>
</g>
</g>
<!-- Node34&#45;&gt;Node23 -->
<g id="edge62_Node000034_Node000023" class="edge">
<title>Node34&#45;&gt;Node23</title>
<g id="a_edge62_Node000034_Node000023"><a xlink:title=" ">
<path fill="none" stroke="#63b8ff" d="M1803.83,-342.55C1794.97,-334.24 1782.55,-320.99 1776,-306.75 1741.06,-230.76 1737.42,-128.6 1737.57,-85.92"/>
<polygon fill="#63b8ff" stroke="#63b8ff" points="1741.07,-86.23 1737.7,-76.19 1734.07,-86.15 1741.07,-86.23"/>
</a>
</g>
</g>
<!-- Node34&#45;&gt;Node24 -->
<g id="edge63_Node000034_Node000024" class="edge">
<title>Node34&#45;&gt;Node24</title>
<g id="a_edge63_Node000034_Node000024"><a xlink:title=" ">
<path fill="none" stroke="#63b8ff" d="M1825.07,-342.45C1834.26,-334.28 1846.66,-321.27 1852,-306.75 1880.66,-228.88 1855.42,-127.38 1842.51,-85.38"/>
<polygon fill="#63b8ff" stroke="#63b8ff" points="1845.89,-84.45 1839.5,-76 1839.22,-86.59 1845.89,-84.45"/>
</a>
</g>
</g>
<!-- Node34&#45;&gt;Node28 -->
<g id="edge64_Node000034_Node000028" class="edge">
<title>Node34&#45;&gt;Node28</title>
<g id="a_edge64_Node000034_Node000028"><a xlink:title=" ">
<path fill="none" stroke="#63b8ff" d="M1751.8,-351.42C1510.51,-351.27 636.2,-347.87 362,-306.75 269.95,-292.95 216.47,-325.49 160,-251.5 35.92,-88.93 933.03,-68.72 1140.72,-66.22"/>
<polygon fill="#63b8ff" stroke="#63b8ff" points="1140.54,-69.73 1150.5,-66.12 1140.47,-62.73 1140.54,-69.73"/>
</a>
</g>
</g>
<!-- Node34&#45;&gt;Node32 -->
<g id="edge67_Node000034_Node000032" class="edge">
<title>Node34&#45;&gt;Node32</title>
<g id="a_edge67_Node000034_Node000032"><a xlink:title=" ">
<path fill="none" stroke="#63b8ff" d="M1751.94,-349.96C1458.95,-343 226.09,-310.27 171,-251.5 161.73,-241.61 161.6,-230.76 171,-221 210.68,-179.79 1078.59,-176.52 1299.97,-176.36"/>
<polygon fill="#63b8ff" stroke="#63b8ff" points="1299.71,-179.86 1309.71,-176.35 1299.71,-172.86 1299.71,-179.86"/>
</a>
</g>
</g>
<!-- Node35 -->
<g id="Node000035" class="node">
<title>Node35</title>
<g id="a_Node000035"><a xlink:title=" ">
<polygon fill="#e0e0e0" stroke="#999999" points="1998.5,-306.75 1937.5,-306.75 1937.5,-287.5 1998.5,-287.5 1998.5,-306.75"/>
<text text-anchor="middle" x="1968" y="-293.25" font-family="Helvetica,sans-Serif" font-size="10.00">filesystem</text>
</a>
</g>
</g>
<!-- Node34&#45;&gt;Node35 -->
<g id="edge58_Node000034_Node000035" class="edge">
<title>Node34&#45;&gt;Node35</title>
<g id="a_edge58_Node000034_Node000035"><a xlink:title=" ">
<path fill="none" stroke="#63b8ff" d="M1840.12,-342.34C1865.12,-333.7 1903.08,-320.57 1931.15,-310.87"/>
<polygon fill="#63b8ff" stroke="#63b8ff" points="1932.01,-314.27 1940.32,-307.7 1929.72,-307.66 1932.01,-314.27"/>
</a>
</g>
</g>
<!-- Node36 -->
<g id="Node000036" class="node">
<title>Node36</title>
<g id="a_Node000036"><a xlink:title=" ">
<polygon fill="#e0e0e0" stroke="#999999" points="1843,-306.75 1785,-306.75 1785,-287.5 1843,-287.5 1843,-306.75"/>
<text text-anchor="middle" x="1814" y="-293.25" font-family="Helvetica,sans-Serif" font-size="10.00">functional</text>
</a>
</g>
</g>
<!-- Node34&#45;&gt;Node36 -->
<g id="edge59_Node000034_Node000036" class="edge">
<title>Node34&#45;&gt;Node36</title>
<g id="a_edge59_Node000034_Node000036"><a xlink:title=" ">
<path fill="none" stroke="#63b8ff" d="M1814,-342.58C1814,-336.07 1814,-326.92 1814,-318.62"/>
<polygon fill="#63b8ff" stroke="#63b8ff" points="1817.5,-318.62 1814,-308.62 1810.5,-318.62 1817.5,-318.62"/>
</a>
</g>
</g>
</g>
</svg>

<g id="navigator" transform="translate(0 0)" fill="#404254">
  <rect fill="#f2f5e9" fill-opacity="0.5" stroke="#606060" stroke-width=".5" x="0" y="0" width="60" height="60"/>
  <use id="zoomplus" xlink:href="#zoomPlus" x="17" y="9" onmousedown="handleZoom(evt,'in')"/>
  <use id="zoomminus" xlink:href="#zoomMin" x="42" y="9" onmousedown="handleZoom(evt,'out')"/>
  <use id="reset" xlink:href="#resetDef" x="30" y="36" onmousedown="handleReset()"/>
   <use id="arrowup" xlink:href="#arrowUp" x="0" y="0" onmousedown="handlePan(0,-1)"/>
  <use id="arrowright" xlink:href="#arrowRight" x="0" y="0" onmousedown="handlePan(1,0)"/>
  <use id="arrowdown" xlink:href="#arrowDown" x="0" y="0" onmousedown="handlePan(0,1)"/>
  <use id="arrowleft" xlink:href="#arrowLeft" x="0" y="0" onmousedown="handlePan(-1,0)"/>
</g>
<svg viewBox="0 0 15 15" width="100%" height="30px" preserveAspectRatio="xMaxYMin meet">
 <g id="arrow_out" transform="scale(0.3 0.3)">
  <a xlink:href="_time_series_8hpp__incl_org.svg" target="_base">
   <rect id="button" ry="5" rx="5" y="6" x="6" height="38" width="38"
        fill="#f2f5e9" fill-opacity="0.5" stroke="#606060" stroke-width="1.0"/>
   <path id="arrow"
     d="M 11.500037,31.436501 C 11.940474,20.09759 22.043105,11.32322 32.158766,21.979434 L 37.068811,17.246167 C 37.068811,17.246167 37.088388,32 37.088388,32 L 22.160133,31.978069 C 22.160133,31.978069 26.997745,27.140456 26.997745,27.140456 C 18.528582,18.264221 13.291696,25.230495 11.500037,31.436501 z"
     style="fill:#404040;"/>
  </a>
 </g>
</svg>

<style type='text/css'>
<![CDATA[
[data-mouse-over-selected='false'] { opacity: 0.7; }
[data-mouse-over-selected='true']  { opacity: 1.0; }
]]>
</style>
<script type="application/ecmascript"><![CDATA[
document.addEventListener('DOMContentLoaded', (event) => {
  highlightEdges();
  highlightAdjacentNodes();
});
]]></script>
</svg>
