<?xml version="1.0" encoding="UTF-8" standalone="no"?>
<!DOCTYPE svg PUBLIC "-//W3C//DTD SVG 1.1//EN"
 "http://www.w3.org/Graphics/SVG/1.1/DTD/svg11.dtd">
<!-- Generated by graphviz version 14.1.2 (20260124.0452)
 -->
<!-- Title: src/nwb/base/TimeSeries.hpp Pages: 1 -->
<!--zoomable 415 -->

<svg id="main" version="1.1" xmlns="http://www.w3.org/2000/svg" xmlns:xlink="http://www.w3.org/1999/xlink" xml:space="preserve" onload="init(evt)">

<style type="text/css"><![CDATA[
.node, .edge {opacity: 0.7;}
.node.selected, .edge.selected {opacity: 1;}
.edge:hover path { stroke: red; }
.edge:hover polygon { stroke: red; fill: red; }
]]></style>

<defs>
  <circle id="rim" cx="0" cy="0" r="7"/>
  <circle id="rim2" cx="0" cy="0" r="3.5"/>
  <g id="zoomPlus">
    <use xlink:href="#rim" fill="#404040"><set attributeName="fill" to="#808080" begin="zoomplus.mouseover" end="zoomplus.mouseout"/></use>
    <path d="M-4,0h8M0,-4v8" fill="none" stroke="white" stroke-width="1.5" pointer-events="none"/>
  </g>
  <g id="zoomMin">
    <use xlink:href="#rim" fill="#404040"><set attributeName="fill" to="#808080" begin="zoomminus.mouseover" end="zoomminus.mouseout"/></use>
    <path d="M-4,0h8" fill="none" stroke="white" stroke-width="1.5" pointer-events="none"/>
  </g>
  <g id="arrowUp" transform="translate(30 24)">
    <use xlink:href="#rim"/>
    <path pointer-events="none" fill="none" stroke="white" stroke-width="1.5" d="M0,-3.0v7 M-2.5,-0.5L0,-3.0L2.5,-0.5"/>
  </g>
  <g id="arrowRight" transform="rotate(90) translate(36 -43)">
    <use xlink:href="#rim"/>
    <path pointer-events="none" fill="none" stroke="white" stroke-width="1.5" d="M0,-3.0v7 M-2.5,-0.5L0,-3.0L2.5,-0.5"/>
  </g>
  <g id="arrowDown" transform="rotate(180) translate(-30 -48)">
    <use xlink:href="#rim"/>
    <path pointer-events="none" fill="none" stroke="white" stroke-width="1.5" d="M0,-3.0v7 M-2.5,-0.5L0,-3.0L2.5,-0.5"/>
  </g>
  <g id="arrowLeft" transform="rotate(270) translate(-36 17)">
    <use xlink:href="#rim"/>
    <path pointer-events="none" fill="none" stroke="white" stroke-width="1.5" d="M0,-3.0v7 M-2.5,-0.5L0,-3.0L2.5,-0.5"/>
  </g>
  <g id="resetDef">
    <use xlink:href="#rim2" fill="#404040"><set attributeName="fill" to="#808080" begin="reset.mouseover" end="reset.mouseout"/></use>
  </g>
</defs>
<script type="application/ecmascript">
var viewWidth = 1223;
var viewHeight = 415;
var sectionId = 'dynsection-1';
</script>
<script type="application/ecmascript" xlink:href="svg.min.js"/>
<svg id="graph" class="graph">
<g id="viewport">
<title>src/nwb/base/TimeSeries.hpp</title>
<!-- Node1 -->
<g id="Node000001" class="node">
<title>Node1</title>
<g id="a_Node000001"><a xlink:title=" ">
<polygon fill="#999999" stroke="#666666" points="568.75,-407 423,-407 423,-387.75 568.75,-387.75 568.75,-407"/>
<text xml:space="preserve" text-anchor="middle" x="495.88" y="-393.5" font-family="Helvetica,sans-Serif" font-size="10.00">src/nwb/base/TimeSeries.hpp</text>
</a>
</g>
</g>
<!-- Node2 -->
<g id="Node000002" class="node">
<title>Node2</title>
<g id="a_Node000002"><a xlink:href="_recording_objects_8hpp.html" target="_top" xlink:title=" ">
<polygon fill="white" stroke="#666666" points="391.75,-351.75 252,-351.75 252,-332.5 391.75,-332.5 391.75,-351.75"/>
<text xml:space="preserve" text-anchor="middle" x="321.88" y="-338.25" font-family="Helvetica,sans-Serif" font-size="10.00">src/io/RecordingObjects.hpp</text>
</a>
</g>
</g>
<!-- Node1&#45;&gt;Node2 -->
<g id="edge1_Node000001_Node000002" class="edge">
<title>Node1&#45;&gt;Node2</title>
<g id="a_edge1_Node000001_Node000002"><a xlink:title=" ">
<path fill="none" stroke="#63b8ff" d="M455.65,-384.07C423.86,-374.34 380.21,-360.98 351.54,-352.2"/>
<polygon fill="#63b8ff" stroke="#63b8ff" points="454.32,-387.32 464.91,-386.9 456.37,-380.63 454.32,-387.32"/>
</a>
</g>
</g>
<!-- Node5 -->
<g id="Node000005" class="node">
<title>Node5</title>
<g id="a_Node000005"><a xlink:href="nwbio__utils_8hpp.html" target="_top" xlink:title=" ">
<polygon fill="white" stroke="#666666" points="457.12,-24.88 346.62,-24.88 346.62,-5.63 457.12,-5.63 457.12,-24.88"/>
<text xml:space="preserve" text-anchor="middle" x="401.88" y="-11.38" font-family="Helvetica,sans-Serif" font-size="10.00">src/io/nwbio_utils.hpp</text>
</a>
</g>
</g>
<!-- Node1&#45;&gt;Node5 -->
<g id="edge26_Node000001_Node000005" class="edge">
<title>Node1&#45;&gt;Node5</title>
<g id="a_edge26_Node000001_Node000005"><a xlink:title=" ">
<path fill="none" stroke="#63b8ff" d="M490.16,-376.76C482.74,-351.24 469.35,-305.29 457.88,-266 444.57,-220.44 438.68,-209.72 427.88,-163.5 415.76,-111.68 406.37,-48.43 403.12,-25.28"/>
<polygon fill="#63b8ff" stroke="#63b8ff" points="486.72,-377.45 492.88,-386.07 493.44,-375.49 486.72,-377.45"/>
</a>
</g>
</g>
<!-- Node9 -->
<g id="Node000009" class="node">
<title>Node9</title>
<g id="a_Node000009"><a xlink:href="_n_w_b_file_8hpp.html" target="_top" xlink:title=" ">
<polygon fill="white" stroke="#666666" points="1108.88,-157.88 996.88,-157.88 996.88,-138.62 1108.88,-138.62 1108.88,-157.88"/>
<text xml:space="preserve" text-anchor="middle" x="1052.88" y="-144.38" font-family="Helvetica,sans-Serif" font-size="10.00">src/nwb/NWBFile.hpp</text>
</a>
</g>
</g>
<!-- Node1&#45;&gt;Node9 -->
<g id="edge27_Node000001_Node000009" class="edge">
<title>Node1&#45;&gt;Node9</title>
<g id="a_edge27_Node000001_Node000009"><a xlink:title=" ">
<path fill="none" stroke="#63b8ff" d="M580.59,-391.77C694.98,-381.13 898.67,-346 1021.88,-230 1042.87,-210.24 1049.81,-174.7 1051.97,-158.16"/>
<polygon fill="#63b8ff" stroke="#63b8ff" points="580.29,-388.28 570.63,-392.64 580.9,-395.25 580.29,-388.28"/>
</a>
</g>
</g>
<!-- Node14 -->
<g id="Node000014" class="node">
<title>Node14</title>
<g id="a_Node000014"><a xlink:href="_electrical_series_8hpp.html" target="_top" xlink:title=" ">
<polygon fill="white" stroke="#666666" points="570.75,-163.5 437,-163.5 437,-133 570.75,-133 570.75,-163.5"/>
<text xml:space="preserve" text-anchor="start" x="445" y="-150" font-family="Helvetica,sans-Serif" font-size="10.00">src/nwb/ecephys/Electrical</text>
<text xml:space="preserve" text-anchor="middle" x="503.88" y="-138.75" font-family="Helvetica,sans-Serif" font-size="10.00">Series.hpp</text>
</a>
</g>
</g>
<!-- Node1&#45;&gt;Node14 -->
<g id="edge29_Node000001_Node000014" class="edge">
<title>Node1&#45;&gt;Node14</title>
<g id="a_edge29_Node000001_Node000014"><a xlink:title=" ">
<path fill="none" stroke="#63b8ff" d="M496.54,-375.84C498.12,-327.14 502.05,-205.54 503.41,-163.68"/>
<polygon fill="#63b8ff" stroke="#63b8ff" points="493.04,-375.67 496.22,-385.77 500.04,-375.89 493.04,-375.67"/>
</a>
</g>
</g>
<!-- Node19 -->
<g id="Node000019" class="node">
<title>Node19</title>
<g id="a_Node000019"><a xlink:href="_time_series_8cpp.html" target="_top" xlink:title=" ">
<polygon fill="white" stroke="#666666" points="1214.75,-351.75 1069,-351.75 1069,-332.5 1214.75,-332.5 1214.75,-351.75"/>
<text xml:space="preserve" text-anchor="middle" x="1141.88" y="-338.25" font-family="Helvetica,sans-Serif" font-size="10.00">src/nwb/base/TimeSeries.cpp</text>
</a>
</g>
</g>
<!-- Node1&#45;&gt;Node19 -->
<g id="edge28_Node000001_Node000019" class="edge">
<title>Node1&#45;&gt;Node19</title>
<g id="a_edge28_Node000001_Node000019"><a xlink:title=" ">
<path fill="none" stroke="#63b8ff" d="M580.46,-390.13C689.98,-381.93 886.76,-366.79 1054.88,-351.75 1059.41,-351.34 1064.08,-350.92 1068.78,-350.47"/>
<polygon fill="#63b8ff" stroke="#63b8ff" points="580.38,-386.63 570.67,-390.86 580.91,-393.61 580.38,-386.63"/>
</a>
</g>
</g>
<!-- Node20 -->
<g id="Node000020" class="node">
<title>Node20</title>
<g id="a_Node000020"><a xlink:href="_annotation_series_8hpp.html" target="_top" xlink:title=" ">
<polygon fill="white" stroke="#666666" points="287.12,-91.38 116.62,-91.38 116.62,-72.12 287.12,-72.12 287.12,-91.38"/>
<text xml:space="preserve" text-anchor="middle" x="201.88" y="-77.88" font-family="Helvetica,sans-Serif" font-size="10.00">src/nwb/misc/AnnotationSeries.hpp</text>
</a>
</g>
</g>
<!-- Node1&#45;&gt;Node20 -->
<g id="edge30_Node000001_Node000020" class="edge">
<title>Node1&#45;&gt;Node20</title>
<g id="a_edge30_Node000001_Node000020"><a xlink:title=" ">
<path fill="none" stroke="#63b8ff" d="M411.47,-387.13C303.38,-372.89 129.88,-340.91 129.88,-282.25 129.88,-282.25 129.88,-282.25 129.88,-213.75 129.88,-162.11 173.38,-111.59 192.76,-91.66"/>
<polygon fill="#63b8ff" stroke="#63b8ff" points="410.82,-390.57 421.19,-388.38 411.72,-383.63 410.82,-390.57"/>
</a>
</g>
</g>
<!-- Node3 -->
<g id="Node000003" class="node">
<title>Node3</title>
<g id="a_Node000003"><a xlink:href="_base_i_o_8cpp.html" target="_top" xlink:title=" ">
<polygon fill="white" stroke="#666666" points="449.25,-290.88 354.5,-290.88 354.5,-271.62 449.25,-271.62 449.25,-290.88"/>
<text xml:space="preserve" text-anchor="middle" x="401.88" y="-277.38" font-family="Helvetica,sans-Serif" font-size="10.00">src/io/BaseIO.cpp</text>
</a>
</g>
</g>
<!-- Node2&#45;&gt;Node3 -->
<g id="edge2_Node000002_Node000003" class="edge">
<title>Node2&#45;&gt;Node3</title>
<g id="a_edge2_Node000002_Node000003"><a xlink:title=" ">
<path fill="none" stroke="#63b8ff" d="M343.02,-325.56C357.88,-314.63 377.23,-300.39 389.61,-291.28"/>
<polygon fill="#63b8ff" stroke="#63b8ff" points="341.22,-322.54 335.24,-331.29 345.37,-328.18 341.22,-322.54"/>
</a>
</g>
</g>
<!-- Node4 -->
<g id="Node000004" class="node">
<title>Node4</title>
<g id="a_Node000004"><a xlink:href="_recording_objects_8cpp.html" target="_top" xlink:title=" ">
<polygon fill="white" stroke="#666666" points="139.75,-24.88 0,-24.88 0,-5.63 139.75,-5.63 139.75,-24.88"/>
<text xml:space="preserve" text-anchor="middle" x="69.88" y="-11.38" font-family="Helvetica,sans-Serif" font-size="10.00">src/io/RecordingObjects.cpp</text>
</a>
</g>
</g>
<!-- Node2&#45;&gt;Node4 -->
<g id="edge3_Node000002_Node000004" class="edge">
<title>Node2&#45;&gt;Node4</title>
<g id="a_edge3_Node000002_Node000004"><a xlink:title=" ">
<path fill="none" stroke="#63b8ff" d="M240.68,-336.98C160.85,-328 50.88,-300.29 50.88,-215.75 50.88,-215.75 50.88,-215.75 50.88,-147.25 50.88,-100.83 62.7,-46.1 67.7,-25.08"/>
<polygon fill="#63b8ff" stroke="#63b8ff" points="239.92,-340.42 250.23,-337.97 240.64,-333.45 239.92,-340.42"/>
</a>
</g>
</g>
<!-- Node2&#45;&gt;Node5 -->
<g id="edge4_Node000002_Node000005" class="edge">
<title>Node2&#45;&gt;Node5</title>
<g id="a_edge4_Node000002_Node000005"><a xlink:title=" ">
<path fill="none" stroke="#63b8ff" d="M240.6,-331.57C219.78,-325.02 199.68,-314.22 186.88,-296.5 178.94,-285.51 182.16,-278.71 186.88,-266 229.28,-151.75 349.96,-54.72 389.3,-25.35"/>
<polygon fill="#63b8ff" stroke="#63b8ff" points="239.49,-334.89 250.06,-334.21 241.37,-328.15 239.49,-334.89"/>
</a>
</g>
</g>
<!-- Node6 -->
<g id="Node000006" class="node">
<title>Node6</title>
<g id="a_Node000006"><a xlink:href="_registered_type_8cpp.html" target="_top" xlink:title=" ">
<polygon fill="white" stroke="#666666" points="336.12,-290.88 195.62,-290.88 195.62,-271.62 336.12,-271.62 336.12,-290.88"/>
<text xml:space="preserve" text-anchor="middle" x="265.88" y="-277.38" font-family="Helvetica,sans-Serif" font-size="10.00">src/nwb/RegisteredType.cpp</text>
</a>
</g>
</g>
<!-- Node2&#45;&gt;Node6 -->
<g id="edge5_Node000002_Node000006" class="edge">
<title>Node2&#45;&gt;Node6</title>
<g id="a_edge5_Node000002_Node000006"><a xlink:title=" ">
<path fill="none" stroke="#63b8ff" d="M305.57,-323.98C295.39,-313.29 282.71,-299.95 274.46,-291.28"/>
<polygon fill="#63b8ff" stroke="#63b8ff" points="302.9,-326.25 312.33,-331.09 307.97,-321.43 302.9,-326.25"/>
</a>
</g>
</g>
<!-- Node7 -->
<g id="Node000007" class="node">
<title>Node7</title>
<g id="a_Node000007"><a xlink:href="_dynamic_table_8hpp.html" target="_top" xlink:title=" ">
<polygon fill="white" stroke="#666666" points="716.88,-296.5 616.88,-296.5 616.88,-266 716.88,-266 716.88,-296.5"/>
<text xml:space="preserve" text-anchor="start" x="624.88" y="-283" font-family="Helvetica,sans-Serif" font-size="10.00">src/nwb/hdmf/table</text>
<text xml:space="preserve" text-anchor="middle" x="666.88" y="-271.75" font-family="Helvetica,sans-Serif" font-size="10.00">/DynamicTable.hpp</text>
</a>
</g>
</g>
<!-- Node2&#45;&gt;Node7 -->
<g id="edge6_Node000002_Node000007" class="edge">
<title>Node2&#45;&gt;Node7</title>
<g id="a_edge6_Node000002_Node000007"><a xlink:title=" ">
<path fill="none" stroke="#63b8ff" d="M386.21,-330.15C452.82,-318.78 555.52,-301.25 616.47,-290.85"/>
<polygon fill="#63b8ff" stroke="#63b8ff" points="385.79,-326.67 376.52,-331.8 386.96,-333.57 385.79,-326.67"/>
</a>
</g>
</g>
<!-- Node8 -->
<g id="Node000008" class="node">
<title>Node8</title>
<g id="a_Node000008"><a xlink:href="_processing_module_8hpp.html" target="_top" xlink:title=" ">
<polygon fill="white" stroke="#666666" points="1013.12,-224.38 836.62,-224.38 836.62,-205.12 1013.12,-205.12 1013.12,-224.38"/>
<text xml:space="preserve" text-anchor="middle" x="924.88" y="-210.88" font-family="Helvetica,sans-Serif" font-size="10.00">src/nwb/base/ProcessingModule.hpp</text>
</a>
</g>
</g>
<!-- Node7&#45;&gt;Node8 -->
<g id="edge7_Node000007_Node000008" class="edge">
<title>Node7&#45;&gt;Node8</title>
<g id="a_edge7_Node000007_Node000008"><a xlink:title=" ">
<path fill="none" stroke="#63b8ff" d="M728.21,-264.92C778.08,-252.45 846.77,-235.28 888.38,-224.87"/>
<polygon fill="#63b8ff" stroke="#63b8ff" points="727.55,-261.47 718.7,-267.29 729.25,-268.26 727.55,-261.47"/>
</a>
</g>
</g>
<!-- Node12 -->
<g id="Node000012" class="node">
<title>Node12</title>
<g id="a_Node000012"><a xlink:href="_electrodes_table_8hpp.html" target="_top" xlink:title=" ">
<polygon fill="white" stroke="#666666" points="818.75,-224.38 661,-224.38 661,-205.12 818.75,-205.12 818.75,-224.38"/>
<text xml:space="preserve" text-anchor="middle" x="739.88" y="-210.88" font-family="Helvetica,sans-Serif" font-size="10.00">src/nwb/file/ElectrodesTable.hpp</text>
</a>
</g>
</g>
<!-- Node7&#45;&gt;Node12 -->
<g id="edge11_Node000007_Node000012" class="edge">
<title>Node7&#45;&gt;Node12</title>
<g id="a_edge11_Node000007_Node000012"><a xlink:title=" ">
<path fill="none" stroke="#63b8ff" d="M692.01,-258.04C705.03,-246.54 720.18,-233.15 729.89,-224.57"/>
<polygon fill="#63b8ff" stroke="#63b8ff" points="689.75,-255.37 684.57,-264.61 694.39,-260.61 689.75,-255.37"/>
</a>
</g>
</g>
<!-- Node18 -->
<g id="Node000018" class="node">
<title>Node18</title>
<g id="a_Node000018"><a xlink:href="_dynamic_table_8cpp.html" target="_top" xlink:title=" ">
<polygon fill="white" stroke="#666666" points="642.88,-230 542.88,-230 542.88,-199.5 642.88,-199.5 642.88,-230"/>
<text xml:space="preserve" text-anchor="start" x="550.88" y="-216.5" font-family="Helvetica,sans-Serif" font-size="10.00">src/nwb/hdmf/table</text>
<text xml:space="preserve" text-anchor="middle" x="592.88" y="-205.25" font-family="Helvetica,sans-Serif" font-size="10.00">/DynamicTable.cpp</text>
</a>
</g>
</g>
<!-- Node7&#45;&gt;Node18 -->
<g id="edge25_Node000007_Node000018" class="edge">
<title>Node7&#45;&gt;Node18</title>
<g id="a_edge25_Node000007_Node000018"><a xlink:title=" ">
<path fill="none" stroke="#63b8ff" d="M641.62,-258.24C631.05,-249.03 619.05,-238.56 609.6,-230.33"/>
<polygon fill="#63b8ff" stroke="#63b8ff" points="639.1,-260.69 648.94,-264.62 643.7,-255.41 639.1,-260.69"/>
</a>
</g>
</g>
<!-- Node8&#45;&gt;Node9 -->
<g id="edge8_Node000008_Node000009" class="edge">
<title>Node8&#45;&gt;Node9</title>
<g id="a_edge8_Node000008_Node000009"><a xlink:title=" ">
<path fill="none" stroke="#63b8ff" d="M952.9,-199.63C977.85,-187.06 1013.59,-169.04 1034.9,-158.31"/>
<polygon fill="#63b8ff" stroke="#63b8ff" points="951.65,-196.34 944.29,-203.96 954.8,-202.59 951.65,-196.34"/>
</a>
</g>
</g>
<!-- Node11 -->
<g id="Node000011" class="node">
<title>Node11</title>
<g id="a_Node000011"><a xlink:href="_processing_module_8cpp.html" target="_top" xlink:title=" ">
<polygon fill="white" stroke="#666666" points="979.12,-157.88 802.62,-157.88 802.62,-138.62 979.12,-138.62 979.12,-157.88"/>
<text xml:space="preserve" text-anchor="middle" x="890.88" y="-144.38" font-family="Helvetica,sans-Serif" font-size="10.00">src/nwb/base/ProcessingModule.cpp</text>
</a>
</g>
</g>
<!-- Node8&#45;&gt;Node11 -->
<g id="edge10_Node000008_Node000011" class="edge">
<title>Node8&#45;&gt;Node11</title>
<g id="a_edge10_Node000008_Node000011"><a xlink:title=" ">
<path fill="none" stroke="#63b8ff" d="M914.87,-194.77C908.49,-182.67 900.52,-167.55 895.56,-158.14"/>
<polygon fill="#63b8ff" stroke="#63b8ff" points="911.68,-196.23 919.44,-203.44 917.87,-192.96 911.68,-196.23"/>
</a>
</g>
</g>
<!-- Node10 -->
<g id="Node000010" class="node">
<title>Node10</title>
<g id="a_Node000010"><a xlink:href="_n_w_b_file_8cpp.html" target="_top" xlink:title=" ">
<polygon fill="white" stroke="#666666" points="748.88,-24.88 636.88,-24.88 636.88,-5.63 748.88,-5.63 748.88,-24.88"/>
<text xml:space="preserve" text-anchor="middle" x="692.88" y="-11.38" font-family="Helvetica,sans-Serif" font-size="10.00">src/nwb/NWBFile.cpp</text>
</a>
</g>
</g>
<!-- Node9&#45;&gt;Node10 -->
<g id="edge9_Node000009_Node000010" class="edge">
<title>Node9&#45;&gt;Node10</title>
<g id="a_edge9_Node000009_Node000010"><a xlink:title=" ">
<path fill="none" stroke="#63b8ff" d="M1019.8,-134.01C978.56,-117.64 905.84,-89.14 842.88,-66.5 800.75,-51.35 751.46,-35.12 721.2,-25.33"/>
<polygon fill="#63b8ff" stroke="#63b8ff" points="1018.32,-137.19 1028.91,-137.64 1020.91,-130.69 1018.32,-137.19"/>
</a>
</g>
</g>
<!-- Node12&#45;&gt;Node9 -->
<g id="edge12_Node000012_Node000009" class="edge">
<title>Node12&#45;&gt;Node9</title>
<g id="a_edge12_Node000012_Node000009"><a xlink:title=" ">
<path fill="none" stroke="#63b8ff" d="M796.91,-202.46C847.21,-192.44 922.47,-177.29 987.88,-163.5 995.67,-161.85 1003.99,-160.06 1011.98,-158.32"/>
<polygon fill="#63b8ff" stroke="#63b8ff" points="796.24,-199.03 787.11,-204.41 797.6,-205.89 796.24,-199.03"/>
</a>
</g>
</g>
<!-- Node13 -->
<g id="Node000013" class="node">
<title>Node13</title>
<g id="a_Node000013"><a xlink:href="_electrical_series_8cpp.html" target="_top" xlink:title=" ">
<polygon fill="white" stroke="#666666" points="833.75,-97 700,-97 700,-66.5 833.75,-66.5 833.75,-97"/>
<text xml:space="preserve" text-anchor="start" x="708" y="-83.5" font-family="Helvetica,sans-Serif" font-size="10.00">src/nwb/ecephys/Electrical</text>
<text xml:space="preserve" text-anchor="middle" x="766.88" y="-72.25" font-family="Helvetica,sans-Serif" font-size="10.00">Series.cpp</text>
</a>
</g>
</g>
<!-- Node12&#45;&gt;Node13 -->
<g id="edge13_Node000012_Node000013" class="edge">
<title>Node12&#45;&gt;Node13</title>
<g id="a_edge13_Node000012_Node000013"><a xlink:title=" ">
<path fill="none" stroke="#63b8ff" d="M746.95,-194.26C750.07,-185.04 753.55,-173.81 755.88,-163.5 761.01,-140.73 764.1,-113.76 765.64,-97.47"/>
<polygon fill="#63b8ff" stroke="#63b8ff" points="743.69,-192.96 743.68,-203.55 750.3,-195.28 743.69,-192.96"/>
</a>
</g>
</g>
<!-- Node12&#45;&gt;Node14 -->
<g id="edge14_Node000012_Node000014" class="edge">
<title>Node12&#45;&gt;Node14</title>
<g id="a_edge14_Node000012_Node000014"><a xlink:title=" ">
<path fill="none" stroke="#63b8ff" d="M695.53,-201.63C656.37,-190.93 599.18,-175.3 557.47,-163.9"/>
<polygon fill="#63b8ff" stroke="#63b8ff" points="694.53,-204.99 705.1,-204.25 696.38,-198.23 694.53,-204.99"/>
</a>
</g>
</g>
<!-- Node17 -->
<g id="Node000017" class="node">
<title>Node17</title>
<g id="a_Node000017"><a xlink:href="_electrodes_table_8cpp.html" target="_top" xlink:title=" ">
<polygon fill="white" stroke="#666666" points="746.75,-157.88 589,-157.88 589,-138.62 746.75,-138.62 746.75,-157.88"/>
<text xml:space="preserve" text-anchor="middle" x="667.88" y="-144.38" font-family="Helvetica,sans-Serif" font-size="10.00">src/nwb/file/ElectrodesTable.cpp</text>
</a>
</g>
</g>
<!-- Node12&#45;&gt;Node17 -->
<g id="edge24_Node000012_Node000017" class="edge">
<title>Node12&#45;&gt;Node17</title>
<g id="a_edge24_Node000012_Node000017"><a xlink:title=" ">
<path fill="none" stroke="#63b8ff" d="M721.52,-197.31C707.62,-184.86 689.05,-168.22 677.8,-158.14"/>
<polygon fill="#63b8ff" stroke="#63b8ff" points="718.95,-199.71 728.74,-203.77 723.62,-194.49 718.95,-199.71"/>
</a>
</g>
</g>
<!-- Node14&#45;&gt;Node4 -->
<g id="edge15_Node000014_Node000004" class="edge">
<title>Node14&#45;&gt;Node4</title>
<g id="a_edge15_Node000014_Node000004"><a xlink:title=" ">
<path fill="none" stroke="#63b8ff" d="M425.18,-146.06C324.43,-143.07 156.99,-132.71 107.88,-97 83.69,-79.42 74.37,-42.45 71.25,-25.32"/>
<polygon fill="#63b8ff" stroke="#63b8ff" points="424.92,-149.56 435.01,-146.33 425.11,-142.56 424.92,-149.56"/>
</a>
</g>
</g>
<!-- Node14&#45;&gt;Node5 -->
<g id="edge16_Node000014_Node000005" class="edge">
<title>Node14&#45;&gt;Node5</title>
<g id="a_edge16_Node000014_Node000005"><a xlink:title=" ">
<path fill="none" stroke="#63b8ff" d="M485.73,-123.95C462.88,-94.59 424.68,-45.54 408.96,-25.35"/>
<polygon fill="#63b8ff" stroke="#63b8ff" points="482.73,-125.8 491.64,-131.54 488.26,-121.5 482.73,-125.8"/>
</a>
</g>
</g>
<!-- Node14&#45;&gt;Node10 -->
<g id="edge17_Node000014_Node000010" class="edge">
<title>Node14&#45;&gt;Node10</title>
<g id="a_edge17_Node000014_Node000010"><a xlink:title=" ">
<path fill="none" stroke="#63b8ff" d="M566.98,-128.75C587.57,-120.92 609.78,-110.45 627.88,-97 655.47,-76.5 678.07,-41.64 687.77,-25.26"/>
<polygon fill="#63b8ff" stroke="#63b8ff" points="566.01,-125.37 557.81,-132.08 568.4,-131.95 566.01,-125.37"/>
</a>
</g>
</g>
<!-- Node14&#45;&gt;Node13 -->
<g id="edge18_Node000014_Node000013" class="edge">
<title>Node14&#45;&gt;Node13</title>
<g id="a_edge18_Node000014_Node000013"><a xlink:title=" ">
<path fill="none" stroke="#63b8ff" d="M574.98,-129.81C616.34,-119.67 667.88,-107.03 707.12,-97.4"/>
<polygon fill="#63b8ff" stroke="#63b8ff" points="574.23,-126.39 565.35,-132.17 575.9,-133.19 574.23,-126.39"/>
</a>
</g>
</g>
<!-- Node15 -->
<g id="Node000015" class="node">
<title>Node15</title>
<g id="a_Node000015"><a xlink:href="_spike_event_series_8hpp.html" target="_top" xlink:title=" ">
<polygon fill="white" stroke="#666666" points="618.62,-97 475.12,-97 475.12,-66.5 618.62,-66.5 618.62,-97"/>
<text xml:space="preserve" text-anchor="start" x="483.12" y="-83.5" font-family="Helvetica,sans-Serif" font-size="10.00">src/nwb/ecephys/SpikeEvent</text>
<text xml:space="preserve" text-anchor="middle" x="546.88" y="-72.25" font-family="Helvetica,sans-Serif" font-size="10.00">Series.hpp</text>
</a>
</g>
</g>
<!-- Node14&#45;&gt;Node15 -->
<g id="edge19_Node000014_Node000015" class="edge">
<title>Node14&#45;&gt;Node15</title>
<g id="a_edge19_Node000014_Node000015"><a xlink:title=" ">
<path fill="none" stroke="#63b8ff" d="M519.85,-123.29C525.66,-114.57 532.05,-104.99 537.16,-97.33"/>
<polygon fill="#63b8ff" stroke="#63b8ff" points="517.11,-121.09 514.47,-131.35 522.93,-124.98 517.11,-121.09"/>
</a>
</g>
</g>
<!-- Node15&#45;&gt;Node4 -->
<g id="edge20_Node000015_Node000004" class="edge">
<title>Node15&#45;&gt;Node4</title>
<g id="a_edge20_Node000015_Node000004"><a xlink:title=" ">
<path fill="none" stroke="#63b8ff" d="M463.74,-71.55C383.1,-62.32 257.36,-47.12 148.88,-30.5 138.82,-28.96 128.07,-27.14 117.85,-25.32"/>
<polygon fill="#63b8ff" stroke="#63b8ff" points="462.98,-74.99 473.31,-72.64 463.77,-68.03 462.98,-74.99"/>
</a>
</g>
</g>
<!-- Node15&#45;&gt;Node5 -->
<g id="edge21_Node000015_Node000005" class="edge">
<title>Node15&#45;&gt;Node5</title>
<g id="a_edge21_Node000015_Node000005"><a xlink:title=" ">
<path fill="none" stroke="#63b8ff" d="M503.61,-61.51C476.62,-49.5 443.14,-34.6 422.13,-25.26"/>
<polygon fill="#63b8ff" stroke="#63b8ff" points="502.03,-64.63 512.59,-65.5 504.88,-58.24 502.03,-64.63"/>
</a>
</g>
</g>
<!-- Node15&#45;&gt;Node10 -->
<g id="edge22_Node000015_Node000010" class="edge">
<title>Node15&#45;&gt;Node10</title>
<g id="a_edge22_Node000015_Node000010"><a xlink:title=" ">
<path fill="none" stroke="#63b8ff" d="M590.44,-61.51C617.61,-49.5 651.33,-34.6 672.48,-25.26"/>
<polygon fill="#63b8ff" stroke="#63b8ff" points="589.12,-58.26 581.39,-65.5 591.95,-64.66 589.12,-58.26"/>
</a>
</g>
</g>
<!-- Node16 -->
<g id="Node000016" class="node">
<title>Node16</title>
<g id="a_Node000016"><a xlink:href="_spike_event_series_8cpp.html" target="_top" xlink:title=" ">
<polygon fill="white" stroke="#666666" points="618.62,-30.5 475.12,-30.5 475.12,0 618.62,0 618.62,-30.5"/>
<text xml:space="preserve" text-anchor="start" x="483.12" y="-17" font-family="Helvetica,sans-Serif" font-size="10.00">src/nwb/ecephys/SpikeEvent</text>
<text xml:space="preserve" text-anchor="middle" x="546.88" y="-5.75" font-family="Helvetica,sans-Serif" font-size="10.00">Series.cpp</text>
</a>
</g>
</g>
<!-- Node15&#45;&gt;Node16 -->
<g id="edge23_Node000015_Node000016" class="edge">
<title>Node15&#45;&gt;Node16</title>
<g id="a_edge23_Node000015_Node000016"><a xlink:title=" ">
<path fill="none" stroke="#63b8ff" d="M546.88,-54.81C546.88,-46.64 546.88,-37.91 546.88,-30.83"/>
<polygon fill="#63b8ff" stroke="#63b8ff" points="543.38,-54.6 546.88,-64.6 550.38,-54.6 543.38,-54.6"/>
</a>
</g>
</g>
<!-- Node20&#45;&gt;Node4 -->
<g id="edge31_Node000020_Node000004" class="edge">
<title>Node20&#45;&gt;Node4</title>
<g id="a_edge31_Node000020_Node000004"><a xlink:title=" ">
<path fill="none" stroke="#63b8ff" d="M172.97,-66.63C147.25,-54.06 110.38,-36.04 88.41,-25.31"/>
<polygon fill="#63b8ff" stroke="#63b8ff" points="171.36,-69.74 181.88,-70.98 174.43,-63.45 171.36,-69.74"/>
</a>
</g>
</g>
<!-- Node20&#45;&gt;Node5 -->
<g id="edge32_Node000020_Node000005" class="edge">
<title>Node20&#45;&gt;Node5</title>
<g id="a_edge32_Node000020_Node000005"><a xlink:title=" ">
<path fill="none" stroke="#63b8ff" d="M241.05,-68.12C280.12,-55.52 339.16,-36.47 373.79,-25.31"/>
<polygon fill="#63b8ff" stroke="#63b8ff" points="239.99,-64.78 231.55,-71.18 242.14,-71.44 239.99,-64.78"/>
</a>
</g>
</g>
<!-- Node20&#45;&gt;Node10 -->
<g id="edge33_Node000020_Node000010" class="edge">
<title>Node20&#45;&gt;Node10</title>
<g id="a_edge33_Node000020_Node000010"><a xlink:title=" ">
<path fill="none" stroke="#63b8ff" d="M298.89,-72.05C385.49,-63.63 515.6,-49.38 627.88,-30.5 636.53,-29.04 645.78,-27.2 654.5,-25.32"/>
<polygon fill="#63b8ff" stroke="#63b8ff" points="298.62,-68.56 289,-73 299.29,-75.53 298.62,-68.56"/>
</a>
</g>
</g>
<!-- Node21 -->
<g id="Node000021" class="node">
<title>Node21</title>
<g id="a_Node000021"><a xlink:href="_annotation_series_8cpp.html" target="_top" xlink:title=" ">
<polygon fill="white" stroke="#666666" points="328.12,-24.88 157.62,-24.88 157.62,-5.63 328.12,-5.63 328.12,-24.88"/>
<text xml:space="preserve" text-anchor="middle" x="242.88" y="-11.38" font-family="Helvetica,sans-Serif" font-size="10.00">src/nwb/misc/AnnotationSeries.cpp</text>
</a>
</g>
</g>
<!-- Node20&#45;&gt;Node21 -->
<g id="edge34_Node000020_Node000021" class="edge">
<title>Node20&#45;&gt;Node21</title>
<g id="a_edge34_Node000020_Node000021"><a xlink:title=" ">
<path fill="none" stroke="#63b8ff" d="M213.71,-62.14C221.44,-49.98 231.18,-34.64 237.22,-25.14"/>
<polygon fill="#63b8ff" stroke="#63b8ff" points="210.8,-60.19 208.39,-70.5 216.71,-63.94 210.8,-60.19"/>
</a>
</g>
</g>
</g>
</svg>

<g id="navigator" transform="translate(0 0)" fill="#404254">
  <rect fill="#f2f5e9" fill-opacity="0.5" stroke="#606060" stroke-width=".5" x="0" y="0" width="60" height="60"/>
  <use id="zoomplus" xlink:href="#zoomPlus" x="17" y="9" onmousedown="handleZoom(evt,'in')"/>
  <use id="zoomminus" xlink:href="#zoomMin" x="42" y="9" onmousedown="handleZoom(evt,'out')"/>
  <use id="reset" xlink:href="#resetDef" x="30" y="36" onmousedown="handleReset()"/>
   <use id="arrowup" xlink:href="#arrowUp" x="0" y="0" onmousedown="handlePan(0,-1)"/>
  <use id="arrowright" xlink:href="#arrowRight" x="0" y="0" onmousedown="handlePan(1,0)"/>
  <use id="arrowdown" xlink:href="#arrowDown" x="0" y="0" onmousedown="handlePan(0,1)"/>
  <use id="arrowleft" xlink:href="#arrowLeft" x="0" y="0" onmousedown="handlePan(-1,0)"/>
</g>
<svg viewBox="0 0 15 15" width="100%" height="30px" preserveAspectRatio="xMaxYMin meet">
 <g id="arrow_out" transform="scale(0.3 0.3)">
  <a xlink:href="_time_series_8hpp__dep__incl_org.svg" target="_base">
   <rect id="button" ry="5" rx="5" y="6" x="6" height="38" width="38"
        fill="#f2f5e9" fill-opacity="0.5" stroke="#606060" stroke-width="1.0"/>
   <path id="arrow"
     d="M 11.500037,31.436501 C 11.940474,20.09759 22.043105,11.32322 32.158766,21.979434 L 37.068811,17.246167 C 37.068811,17.246167 37.088388,32 37.088388,32 L 22.160133,31.978069 C 22.160133,31.978069 26.997745,27.140456 26.997745,27.140456 C 18.528582,18.264221 13.291696,25.230495 11.500037,31.436501 z"
     style="fill:#404040;"/>
  </a>
 </g>
</svg>

<style type='text/css'>
<![CDATA[
[data-mouse-over-selected='false'] { opacity: 0.7; }
[data-mouse-over-selected='true']  { opacity: 1.0; }
]]>
</style>
<script type="application/ecmascript"><![CDATA[
document.addEventListener('DOMContentLoaded', (event) => {
  highlightEdges();
  highlightAdjacentNodes();
});
]]></script>
</svg>
