<?xml version="1.0" encoding="UTF-8" standalone="no"?>
<!DOCTYPE svg PUBLIC "-//W3C//DTD SVG 1.1//EN"
 "http://www.w3.org/Graphics/SVG/1.1/DTD/svg11.dtd">
<!-- Generated by graphviz version 12.1.0 (20240811.2233)
 -->
<!-- Title: src/Types.hpp Pages: 1 -->
<!--zoomable 404 -->

<svg id="main" version="1.1" xmlns="http://www.w3.org/2000/svg" xmlns:xlink="http://www.w3.org/1999/xlink" xml:space="preserve" onload="init(evt)">

<style type="text/css"><![CDATA[
.node, .edge {opacity: 0.7;}
.node.selected, .edge.selected {opacity: 1;}
.edge:hover path { stroke: red; }
.edge:hover polygon { stroke: red; fill: red; }
]]></style>

<defs>
  <circle id="rim" cx="0" cy="0" r="7"/>
  <circle id="rim2" cx="0" cy="0" r="3.5"/>
  <g id="zoomPlus">
    <use xlink:href="#rim" fill="#404040"><set attributeName="fill" to="#808080" begin="zoomplus.mouseover" end="zoomplus.mouseout"/></use>
    <path d="M-4,0h8M0,-4v8" fill="none" stroke="white" stroke-width="1.5" pointer-events="none"/>
  </g>
  <g id="zoomMin">
    <use xlink:href="#rim" fill="#404040"><set attributeName="fill" to="#808080" begin="zoomminus.mouseover" end="zoomminus.mouseout"/></use>
    <path d="M-4,0h8" fill="none" stroke="white" stroke-width="1.5" pointer-events="none"/>
  </g>
  <g id="arrowUp" transform="translate(30 24)">
    <use xlink:href="#rim"/>
    <path pointer-events="none" fill="none" stroke="white" stroke-width="1.5" d="M0,-3.0v7 M-2.5,-0.5L0,-3.0L2.5,-0.5"/>
  </g>
  <g id="arrowRight" transform="rotate(90) translate(36 -43)">
    <use xlink:href="#rim"/>
    <path pointer-events="none" fill="none" stroke="white" stroke-width="1.5" d="M0,-3.0v7 M-2.5,-0.5L0,-3.0L2.5,-0.5"/>
  </g>
  <g id="arrowDown" transform="rotate(180) translate(-30 -48)">
    <use xlink:href="#rim"/>
    <path pointer-events="none" fill="none" stroke="white" stroke-width="1.5" d="M0,-3.0v7 M-2.5,-0.5L0,-3.0L2.5,-0.5"/>
  </g>
  <g id="arrowLeft" transform="rotate(270) translate(-36 17)">
    <use xlink:href="#rim"/>
    <path pointer-events="none" fill="none" stroke="white" stroke-width="1.5" d="M0,-3.0v7 M-2.5,-0.5L0,-3.0L2.5,-0.5"/>
  </g>
  <g id="resetDef">
    <use xlink:href="#rim2" fill="#404040"><set attributeName="fill" to="#808080" begin="reset.mouseover" end="reset.mouseout"/></use>
  </g>
</defs>
<script type="application/ecmascript">
var viewWidth = 1604;
var viewHeight = 404;
var sectionId = 'dynsection-1';
</script>
<script type="application/ecmascript" xlink:href="svg.min.js"/>
<svg id="graph" class="graph">
<g id="viewport">
<title>src/Types.hpp</title>
<!-- Node1 -->
<g id="Node000001" class="node">
<title>Node1</title>
<g id="a_Node000001"><a xlink:title=" ">
<polygon fill="#999999" stroke="#666666" points="347.42,-395.75 269.92,-395.75 269.92,-376.5 347.42,-376.5 347.42,-395.75"/>
<text text-anchor="middle" x="308.67" y="-382.25" font-family="Helvetica,sans-Serif" font-size="10.00">src/Types.hpp</text>
</a>
</g>
</g>
<!-- Node2 -->
<g id="Node000002" class="node">
<title>Node2</title>
<g id="a_Node000002"><a xlink:href="_base_i_o_8hpp.html" target="_top" xlink:title=" ">
<polygon fill="white" stroke="#666666" points="871.79,-340.5 787.54,-340.5 787.54,-321.25 871.79,-321.25 871.79,-340.5"/>
<text text-anchor="middle" x="829.67" y="-327" font-family="Helvetica,sans-Serif" font-size="10.00">src/BaseIO.hpp</text>
</a>
</g>
</g>
<!-- Node1&#45;&gt;Node2 -->
<g id="edge1_Node000001_Node000002" class="edge">
<title>Node1&#45;&gt;Node2</title>
<g id="a_edge1_Node000001_Node000002"><a xlink:title=" ">
<path fill="none" stroke="#63b8ff" d="M359.07,-379.97C461.4,-369.51 691.84,-345.96 787.16,-336.22"/>
<polygon fill="#63b8ff" stroke="#63b8ff" points="358.93,-376.47 349.33,-380.97 359.64,-383.43 358.93,-376.47"/>
</a>
</g>
</g>
<!-- Node8 -->
<g id="Node000008" class="node">
<title>Node8</title>
<g id="a_Node000008"><a xlink:href="_h_d_f5_i_o_8hpp.html" target="_top" xlink:title=" ">
<polygon fill="white" stroke="#666666" points="242.54,-285.25 132.79,-285.25 132.79,-266 242.54,-266 242.54,-285.25"/>
<text text-anchor="middle" x="187.67" y="-271.75" font-family="Helvetica,sans-Serif" font-size="10.00">src/hdf5/HDF5IO.hpp</text>
</a>
</g>
</g>
<!-- Node1&#45;&gt;Node8 -->
<g id="edge58_Node000001_Node000008" class="edge">
<title>Node1&#45;&gt;Node8</title>
<g id="a_edge58_Node000001_Node000008"><a xlink:title=" ">
<path fill="none" stroke="#63b8ff" d="M290.23,-368.59C264.32,-345.36 218.03,-303.85 197.71,-285.63"/>
<polygon fill="#63b8ff" stroke="#63b8ff" points="287.86,-371.17 297.64,-375.24 292.53,-365.95 287.86,-371.17"/>
</a>
</g>
</g>
<!-- Node9 -->
<g id="Node000009" class="node">
<title>Node9</title>
<g id="a_Node000009"><a xlink:href="_n_w_b_file_8hpp.html" target="_top" xlink:title=" ">
<polygon fill="white" stroke="#666666" points="553.67,-157.88 441.67,-157.88 441.67,-138.62 553.67,-138.62 553.67,-157.88"/>
<text text-anchor="middle" x="497.67" y="-144.38" font-family="Helvetica,sans-Serif" font-size="10.00">src/nwb/NWBFile.hpp</text>
</a>
</g>
</g>
<!-- Node1&#45;&gt;Node9 -->
<g id="edge59_Node000001_Node000009" class="edge">
<title>Node1&#45;&gt;Node9</title>
<g id="a_edge59_Node000001_Node000009"><a xlink:title=" ">
<path fill="none" stroke="#63b8ff" d="M322.88,-367.38C360.65,-320.25 462.52,-193.12 490.48,-158.22"/>
<polygon fill="#63b8ff" stroke="#63b8ff" points="320.32,-364.99 316.79,-374.99 325.78,-369.37 320.32,-364.99"/>
</a>
</g>
</g>
<!-- Node10 -->
<g id="Node000010" class="node">
<title>Node10</title>
<g id="a_Node000010"><a xlink:href="_n_w_b_recording_8hpp.html" target="_top" xlink:title=" ">
<polygon fill="white" stroke="#666666" points="278.92,-91.38 138.42,-91.38 138.42,-72.12 278.92,-72.12 278.92,-91.38"/>
<text text-anchor="middle" x="208.67" y="-77.88" font-family="Helvetica,sans-Serif" font-size="10.00">src/nwb/NWBRecording.hpp</text>
</a>
</g>
</g>
<!-- Node1&#45;&gt;Node10 -->
<g id="edge60_Node000001_Node000010" class="edge">
<title>Node1&#45;&gt;Node10</title>
<g id="a_edge60_Node000001_Node000010"><a xlink:title=" ">
<path fill="none" stroke="#63b8ff" d="M258.26,-377.96C171.15,-364.16 1.67,-330.39 1.67,-276.62 1.67,-276.62 1.67,-276.62 1.67,-213.75 1.67,-176.88 -5.01,-159.46 20.67,-133 51.02,-101.72 98.52,-89.21 138.18,-84.49"/>
<polygon fill="#63b8ff" stroke="#63b8ff" points="257.56,-381.4 267.98,-379.47 258.63,-374.48 257.56,-381.4"/>
</a>
</g>
</g>
<!-- Node29 -->
<g id="Node000029" class="node">
<title>Node29</title>
<g id="a_Node000029"><a xlink:href="_channel_8hpp.html" target="_top" xlink:title=" ">
<polygon fill="white" stroke="#666666" points="283.29,-157.88 196.04,-157.88 196.04,-138.62 283.29,-138.62 283.29,-157.88"/>
<text text-anchor="middle" x="239.67" y="-144.38" font-family="Helvetica,sans-Serif" font-size="10.00">src/Channel.hpp</text>
</a>
</g>
</g>
<!-- Node1&#45;&gt;Node29 -->
<g id="edge52_Node000001_Node000029" class="edge">
<title>Node1&#45;&gt;Node29</title>
<g id="a_edge52_Node000001_Node000029"><a xlink:title=" ">
<path fill="none" stroke="#63b8ff" d="M304.42,-364.85C296.99,-330.43 280.52,-258.53 260.67,-199.5 255.73,-184.8 248.5,-168.31 243.94,-158.36"/>
<polygon fill="#63b8ff" stroke="#63b8ff" points="301,-365.57 306.5,-374.62 307.85,-364.12 301,-365.57"/>
</a>
</g>
</g>
<!-- Node3 -->
<g id="Node000003" class="node">
<title>Node3</title>
<g id="a_Node000003"><a xlink:href="_base_i_o_8cpp.html" target="_top" xlink:title=" ">
<polygon fill="white" stroke="#666666" points="423.79,-157.88 339.54,-157.88 339.54,-138.62 423.79,-138.62 423.79,-157.88"/>
<text text-anchor="middle" x="381.67" y="-144.38" font-family="Helvetica,sans-Serif" font-size="10.00">src/BaseIO.cpp</text>
</a>
</g>
</g>
<!-- Node2&#45;&gt;Node3 -->
<g id="edge2_Node000002_Node000003" class="edge">
<title>Node2&#45;&gt;Node3</title>
<g id="a_edge2_Node000002_Node000003"><a xlink:title=" ">
<path fill="none" stroke="#63b8ff" d="M776.13,-328.27C720.88,-324.96 633.21,-314.98 563.67,-285.25 487.87,-252.84 414.53,-182.7 390.15,-158.04"/>
<polygon fill="#63b8ff" stroke="#63b8ff" points="775.72,-331.76 785.89,-328.8 776.1,-324.77 775.72,-331.76"/>
</a>
</g>
</g>
<!-- Node4 -->
<g id="Node000004" class="node">
<title>Node4</title>
<g id="a_Node000004"><a xlink:href="_utils_8hpp.html" target="_top" xlink:title=" ">
<polygon fill="white" stroke="#666666" points="251.42,-224.38 179.92,-224.38 179.92,-205.12 251.42,-205.12 251.42,-224.38"/>
<text text-anchor="middle" x="215.67" y="-210.88" font-family="Helvetica,sans-Serif" font-size="10.00">src/Utils.hpp</text>
</a>
</g>
</g>
<!-- Node2&#45;&gt;Node4 -->
<g id="edge3_Node000002_Node000004" class="edge">
<title>Node2&#45;&gt;Node4</title>
<g id="a_edge3_Node000002_Node000004"><a xlink:title=" ">
<path fill="none" stroke="#63b8ff" d="M775.79,-329.8C690.27,-328.5 518.8,-321.16 378.67,-285.25 322.64,-270.89 261,-240.14 232.2,-224.82"/>
<polygon fill="#63b8ff" stroke="#63b8ff" points="775.71,-333.29 785.76,-329.92 775.8,-326.29 775.71,-333.29"/>
</a>
</g>
</g>
<!-- Node6 -->
<g id="Node000006" class="node">
<title>Node6</title>
<g id="a_Node000006"><a xlink:href="_n_w_b_file_8cpp.html" target="_top" xlink:title=" ">
<polygon fill="white" stroke="#666666" points="791.67,-24.88 679.67,-24.88 679.67,-5.63 791.67,-5.63 791.67,-24.88"/>
<text text-anchor="middle" x="735.67" y="-11.38" font-family="Helvetica,sans-Serif" font-size="10.00">src/nwb/NWBFile.cpp</text>
</a>
</g>
</g>
<!-- Node2&#45;&gt;Node6 -->
<g id="edge12_Node000002_Node000006" class="edge">
<title>Node2&#45;&gt;Node6</title>
<g id="a_edge12_Node000002_Node000006"><a xlink:title=" ">
<path fill="none" stroke="#63b8ff" d="M883.37,-329.15C1010.91,-326.9 1328.9,-318.07 1429.67,-285.25 1483.23,-267.8 1535.67,-272.08 1535.67,-215.75 1535.67,-215.75 1535.67,-215.75 1535.67,-147.25 1535.67,-124.2 1770.25,-164.21 1310.67,-66.5 1212.65,-45.66 916.83,-26.71 792.1,-19.42"/>
<polygon fill="#63b8ff" stroke="#63b8ff" points="883.45,-325.65 873.51,-329.31 883.56,-332.65 883.45,-325.65"/>
</a>
</g>
</g>
<!-- Node2&#45;&gt;Node8 -->
<g id="edge8_Node000002_Node000008" class="edge">
<title>Node2&#45;&gt;Node8</title>
<g id="a_edge8_Node000002_Node000008"><a xlink:title=" ">
<path fill="none" stroke="#63b8ff" d="M775.72,-326.52C674.05,-320 447.17,-304.56 256.67,-285.25 252.22,-284.8 247.62,-284.3 243,-283.77"/>
<polygon fill="#63b8ff" stroke="#63b8ff" points="775.48,-330.01 785.69,-327.15 775.93,-323.02 775.48,-330.01"/>
</a>
</g>
</g>
<!-- Node2&#45;&gt;Node9 -->
<g id="edge13_Node000002_Node000009" class="edge">
<title>Node2&#45;&gt;Node9</title>
<g id="a_edge13_Node000002_Node000009"><a xlink:title=" ">
<path fill="none" stroke="#63b8ff" d="M776.17,-327.84C706.82,-322.26 586.75,-302.03 518.67,-230 499.66,-209.89 497.33,-174.84 497.37,-158.34"/>
<polygon fill="#63b8ff" stroke="#63b8ff" points="775.52,-331.31 785.75,-328.54 776.03,-324.33 775.52,-331.31"/>
</a>
</g>
</g>
<!-- Node11 -->
<g id="Node000011" class="node">
<title>Node11</title>
<g id="a_Node000011"><a xlink:href="_time_series_8hpp.html" target="_top" xlink:title=" ">
<polygon fill="white" stroke="#666666" points="673.54,-224.38 527.79,-224.38 527.79,-205.12 673.54,-205.12 673.54,-224.38"/>
<text text-anchor="middle" x="600.67" y="-210.88" font-family="Helvetica,sans-Serif" font-size="10.00">src/nwb/base/TimeSeries.hpp</text>
</a>
</g>
</g>
<!-- Node2&#45;&gt;Node11 -->
<g id="edge17_Node000002_Node000011" class="edge">
<title>Node2&#45;&gt;Node11</title>
<g id="a_edge17_Node000002_Node000011"><a xlink:title=" ">
<path fill="none" stroke="#63b8ff" d="M801.48,-315.83C753.84,-292.08 658.71,-244.67 618.87,-224.82"/>
<polygon fill="#63b8ff" stroke="#63b8ff" points="799.83,-318.92 810.34,-320.24 802.96,-312.65 799.83,-318.92"/>
</a>
</g>
</g>
<!-- Node13 -->
<g id="Node000013" class="node">
<title>Node13</title>
<g id="a_Node000013"><a xlink:href="_electrical_series_8hpp.html" target="_top" xlink:title=" ">
<polygon fill="white" stroke="#666666" points="755.54,-97 621.79,-97 621.79,-66.5 755.54,-66.5 755.54,-97"/>
<text text-anchor="start" x="629.79" y="-83.5" font-family="Helvetica,sans-Serif" font-size="10.00">src/nwb/ecephys/Electrical</text>
<text text-anchor="middle" x="688.67" y="-72.25" font-family="Helvetica,sans-Serif" font-size="10.00">Series.hpp</text>
</a>
</g>
</g>
<!-- Node2&#45;&gt;Node13 -->
<g id="edge29_Node000002_Node000013" class="edge">
<title>Node2&#45;&gt;Node13</title>
<g id="a_edge29_Node000002_Node000013"><a xlink:title=" ">
<path fill="none" stroke="#63b8ff" d="M883.49,-330.5C1067.94,-331.01 1653.79,-318.41 1478.67,-133 1430.53,-82.03 918.6,-102.11 848.67,-97 818.21,-94.77 784.54,-91.85 755.97,-89.22"/>
<polygon fill="#63b8ff" stroke="#63b8ff" points="883.71,-327 873.7,-330.45 883.68,-334 883.71,-327"/>
</a>
</g>
</g>
<!-- Node15 -->
<g id="Node000015" class="node">
<title>Node15</title>
<g id="a_Node000015"><a xlink:href="_device_8hpp.html" target="_top" xlink:title=" ">
<polygon fill="white" stroke="#666666" points="825.92,-224.38 691.42,-224.38 691.42,-205.12 825.92,-205.12 825.92,-224.38"/>
<text text-anchor="middle" x="758.67" y="-210.88" font-family="Helvetica,sans-Serif" font-size="10.00">src/nwb/device/Device.hpp</text>
</a>
</g>
</g>
<!-- Node2&#45;&gt;Node15 -->
<g id="edge23_Node000002_Node000015" class="edge">
<title>Node2&#45;&gt;Node15</title>
<g id="a_edge23_Node000002_Node000015"><a xlink:title=" ">
<path fill="none" stroke="#63b8ff" d="M818.05,-311.2C802.56,-286.3 775.75,-243.21 764.21,-224.66"/>
<polygon fill="#63b8ff" stroke="#63b8ff" points="815.04,-312.99 823.3,-319.63 820.99,-309.29 815.04,-312.99"/>
</a>
</g>
</g>
<!-- Node17 -->
<g id="Node000017" class="node">
<title>Node17</title>
<g id="a_Node000017"><a xlink:href="_electrode_group_8hpp.html" target="_top" xlink:title=" ">
<polygon fill="white" stroke="#666666" points="1119.42,-157.88 963.92,-157.88 963.92,-138.62 1119.42,-138.62 1119.42,-157.88"/>
<text text-anchor="middle" x="1041.67" y="-144.38" font-family="Helvetica,sans-Serif" font-size="10.00">src/nwb/file/ElectrodeGroup.hpp</text>
</a>
</g>
</g>
<!-- Node2&#45;&gt;Node17 -->
<g id="edge30_Node000002_Node000017" class="edge">
<title>Node2&#45;&gt;Node17</title>
<g id="a_edge30_Node000002_Node000017"><a xlink:title=" ">
<path fill="none" stroke="#63b8ff" d="M830.71,-309.48C833.27,-280.91 842.12,-229.16 872.67,-199.5 890.02,-182.66 950.33,-167.46 993.96,-158.3"/>
<polygon fill="#63b8ff" stroke="#63b8ff" points="827.23,-309.08 830.02,-319.3 834.21,-309.57 827.23,-309.08"/>
</a>
</g>
</g>
<!-- Node19 -->
<g id="Node000019" class="node">
<title>Node19</title>
<g id="a_Node000019"><a xlink:href="_electrode_table_8hpp.html" target="_top" xlink:title=" ">
<polygon fill="white" stroke="#666666" points="1301.92,-91.38 1149.42,-91.38 1149.42,-72.12 1301.92,-72.12 1301.92,-91.38"/>
<text text-anchor="middle" x="1225.67" y="-77.88" font-family="Helvetica,sans-Serif" font-size="10.00">src/nwb/file/ElectrodeTable.hpp</text>
</a>
</g>
</g>
<!-- Node2&#45;&gt;Node19 -->
<g id="edge31_Node000002_Node000019" class="edge">
<title>Node2&#45;&gt;Node19</title>
<g id="a_edge31_Node000002_Node000019"><a xlink:title=" ">
<path fill="none" stroke="#63b8ff" d="M883.34,-329.71C931.16,-327.23 1001.3,-317.65 1052.67,-285.25 1124.16,-240.15 1108.8,-194.62 1166.67,-133 1181.59,-117.11 1201.25,-101.21 1213.68,-91.67"/>
<polygon fill="#63b8ff" stroke="#63b8ff" points="883.35,-326.21 873.5,-330.12 883.64,-333.2 883.35,-326.21"/>
</a>
</g>
</g>
<!-- Node21 -->
<g id="Node000021" class="node">
<title>Node21</title>
<g id="a_Node000021"><a xlink:href="_container_8hpp.html" target="_top" xlink:title=" ">
<polygon fill="white" stroke="#666666" points="1043.79,-285.25 881.54,-285.25 881.54,-266 1043.79,-266 1043.79,-285.25"/>
<text text-anchor="middle" x="962.67" y="-271.75" font-family="Helvetica,sans-Serif" font-size="10.00">src/nwb/hdmf/base/Container.hpp</text>
</a>
</g>
</g>
<!-- Node2&#45;&gt;Node21 -->
<g id="edge35_Node000002_Node000021" class="edge">
<title>Node2&#45;&gt;Node21</title>
<g id="a_edge35_Node000002_Node000021"><a xlink:title=" ">
<path fill="none" stroke="#63b8ff" d="M862.67,-316.66C886.74,-307.02 918.75,-294.21 940,-285.7"/>
<polygon fill="#63b8ff" stroke="#63b8ff" points="861.62,-313.31 853.64,-320.28 864.22,-319.81 861.62,-313.31"/>
</a>
</g>
</g>
<!-- Node23 -->
<g id="Node000023" class="node">
<title>Node23</title>
<g id="a_Node000023"><a xlink:href="_dynamic_table_8hpp.html" target="_top" xlink:title=" ">
<polygon fill="white" stroke="#666666" points="1275.67,-163.5 1175.67,-163.5 1175.67,-133 1275.67,-133 1275.67,-163.5"/>
<text text-anchor="start" x="1183.67" y="-150" font-family="Helvetica,sans-Serif" font-size="10.00">src/nwb/hdmf/table</text>
<text text-anchor="middle" x="1225.67" y="-138.75" font-family="Helvetica,sans-Serif" font-size="10.00">/DynamicTable.hpp</text>
</a>
</g>
</g>
<!-- Node2&#45;&gt;Node23 -->
<g id="edge51_Node000002_Node000023" class="edge">
<title>Node2&#45;&gt;Node23</title>
<g id="a_edge51_Node000002_Node000023"><a xlink:title=" ">
<path fill="none" stroke="#63b8ff" d="M883.57,-328.77C966.04,-326.08 1118.53,-316.85 1161.67,-285.25 1167.01,-281.34 1204.12,-198.11 1219.26,-163.82"/>
<polygon fill="#63b8ff" stroke="#63b8ff" points="883.58,-325.27 873.69,-329.07 883.79,-332.27 883.58,-325.27"/>
</a>
</g>
</g>
<!-- Node25 -->
<g id="Node000025" class="node">
<title>Node25</title>
<g id="a_Node000025"><a xlink:href="_data_8hpp.html" target="_top" xlink:title=" ">
<polygon fill="white" stroke="#666666" points="1355.67,-285.25 1213.67,-285.25 1213.67,-266 1355.67,-266 1355.67,-285.25"/>
<text text-anchor="middle" x="1284.67" y="-271.75" font-family="Helvetica,sans-Serif" font-size="10.00">src/nwb/hdmf/base/Data.hpp</text>
</a>
</g>
</g>
<!-- Node2&#45;&gt;Node25 -->
<g id="edge43_Node000002_Node000025" class="edge">
<title>Node2&#45;&gt;Node25</title>
<g id="a_edge43_Node000002_Node000025"><a xlink:title=" ">
<path fill="none" stroke="#63b8ff" d="M883.37,-323.59C965.37,-313.99 1121.91,-295.67 1213.35,-284.97"/>
<polygon fill="#63b8ff" stroke="#63b8ff" points="883.09,-320.1 873.57,-324.74 883.91,-327.05 883.09,-320.1"/>
</a>
</g>
</g>
<!-- Node4&#45;&gt;Node3 -->
<g id="edge4_Node000004_Node000003" class="edge">
<title>Node4&#45;&gt;Node3</title>
<g id="a_edge4_Node000004_Node000003"><a xlink:title=" ">
<path fill="none" stroke="#63b8ff" d="M249.44,-200.63C281.87,-188.03 329.99,-169.33 358.36,-158.31"/>
<polygon fill="#63b8ff" stroke="#63b8ff" points="248.56,-197.21 240.51,-204.1 251.1,-203.74 248.56,-197.21"/>
</a>
</g>
</g>
<!-- Node5 -->
<g id="Node000005" class="node">
<title>Node5</title>
<g id="a_Node000005"><a xlink:href="_h_d_f5_i_o_8cpp.html" target="_top" xlink:title=" ">
<polygon fill="white" stroke="#666666" points="139.54,-157.88 29.79,-157.88 29.79,-138.62 139.54,-138.62 139.54,-157.88"/>
<text text-anchor="middle" x="84.67" y="-144.38" font-family="Helvetica,sans-Serif" font-size="10.00">src/hdf5/HDF5IO.cpp</text>
</a>
</g>
</g>
<!-- Node4&#45;&gt;Node5 -->
<g id="edge5_Node000004_Node000005" class="edge">
<title>Node4&#45;&gt;Node5</title>
<g id="a_edge5_Node000004_Node000005"><a xlink:title=" ">
<path fill="none" stroke="#63b8ff" d="M186.99,-199.63C161.46,-187.06 124.87,-169.04 103.07,-158.31"/>
<polygon fill="#63b8ff" stroke="#63b8ff" points="185.3,-202.7 195.82,-203.98 188.39,-196.42 185.3,-202.7"/>
</a>
</g>
</g>
<!-- Node4&#45;&gt;Node6 -->
<g id="edge6_Node000004_Node000006" class="edge">
<title>Node4&#45;&gt;Node6</title>
<g id="a_edge6_Node000004_Node000006"><a xlink:title=" ">
<path fill="none" stroke="#63b8ff" d="M239.76,-198.88C255.15,-189.18 275.39,-176.03 292.67,-163.5 310.2,-150.79 311.33,-142.74 330.67,-133 386.89,-104.68 407.23,-114.63 467.67,-97 510.24,-84.58 520.26,-79.46 562.67,-66.5 611.57,-51.55 668.58,-35.2 703.39,-25.34"/>
<polygon fill="#63b8ff" stroke="#63b8ff" points="238.34,-195.65 231.71,-203.92 242.05,-201.58 238.34,-195.65"/>
</a>
</g>
</g>
<!-- Node7 -->
<g id="Node000007" class="node">
<title>Node7</title>
<g id="a_Node000007"><a xlink:href="_n_w_b_recording_8cpp.html" target="_top" xlink:title=" ">
<polygon fill="white" stroke="#666666" points="161.92,-24.88 21.42,-24.88 21.42,-5.63 161.92,-5.63 161.92,-24.88"/>
<text text-anchor="middle" x="91.67" y="-11.38" font-family="Helvetica,sans-Serif" font-size="10.00">src/nwb/NWBRecording.cpp</text>
</a>
</g>
</g>
<!-- Node4&#45;&gt;Node7 -->
<g id="edge7_Node000004_Node000007" class="edge">
<title>Node4&#45;&gt;Node7</title>
<g id="a_edge7_Node000004_Node000007"><a xlink:title=" ">
<path fill="none" stroke="#63b8ff" d="M202.5,-195.95C189.6,-179.01 168.98,-153.17 148.67,-133 130.74,-115.2 117.27,-118.9 104.67,-97 91.21,-73.62 90.57,-40.46 91.13,-24.92"/>
<polygon fill="#63b8ff" stroke="#63b8ff" points="199.43,-197.69 208.23,-203.58 205.02,-193.49 199.43,-197.69"/>
</a>
</g>
</g>
<!-- Node8&#45;&gt;Node4 -->
<g id="edge9_Node000008_Node000004" class="edge">
<title>Node8&#45;&gt;Node4</title>
<g id="a_edge9_Node000008_Node000004"><a xlink:title=" ">
<path fill="none" stroke="#63b8ff" d="M196.75,-255.53C201.66,-245.2 207.5,-232.93 211.38,-224.78"/>
<polygon fill="#63b8ff" stroke="#63b8ff" points="193.71,-253.78 192.57,-264.32 200.03,-256.79 193.71,-253.78"/>
</a>
</g>
</g>
<!-- Node8&#45;&gt;Node5 -->
<g id="edge10_Node000008_Node000005" class="edge">
<title>Node8&#45;&gt;Node5</title>
<g id="a_edge10_Node000008_Node000005"><a xlink:title=" ">
<path fill="none" stroke="#63b8ff" d="M172.98,-256.75C150.63,-229.53 108.87,-178.71 92.01,-158.18"/>
<polygon fill="#63b8ff" stroke="#63b8ff" points="170.25,-258.93 179.3,-264.44 175.66,-254.49 170.25,-258.93"/>
</a>
</g>
</g>
<!-- Node8&#45;&gt;Node7 -->
<g id="edge11_Node000008_Node000007" class="edge">
<title>Node8&#45;&gt;Node7</title>
<g id="a_edge11_Node000008_Node000007"><a xlink:title=" ">
<path fill="none" stroke="#63b8ff" d="M149.23,-261.52C108.91,-245.45 47.71,-213.97 20.67,-163.5 -6.81,-112.22 55.25,-48.64 81.07,-25.35"/>
<polygon fill="#63b8ff" stroke="#63b8ff" points="147.75,-264.7 158.34,-265.01 150.25,-258.16 147.75,-264.7"/>
</a>
</g>
</g>
<!-- Node9&#45;&gt;Node6 -->
<g id="edge14_Node000009_Node000006" class="edge">
<title>Node9&#45;&gt;Node6</title>
<g id="a_edge14_Node000009_Node000006"><a xlink:title=" ">
<path fill="none" stroke="#63b8ff" d="M517.34,-131.37C539.55,-113.94 577.24,-85.86 612.67,-66.5 644.25,-49.25 683.02,-34.36 708.48,-25.36"/>
<polygon fill="#63b8ff" stroke="#63b8ff" points="515.39,-128.45 509.73,-137.41 519.74,-133.93 515.39,-128.45"/>
</a>
</g>
</g>
<!-- Node9&#45;&gt;Node10 -->
<g id="edge15_Node000009_Node000010" class="edge">
<title>Node9&#45;&gt;Node10</title>
<g id="a_edge15_Node000009_Node000010"><a xlink:title=" ">
<path fill="none" stroke="#63b8ff" d="M445.72,-135.66C389.4,-123.09 300.68,-103.29 249.25,-91.81"/>
<polygon fill="#63b8ff" stroke="#63b8ff" points="444.88,-139.05 455.4,-137.82 446.4,-132.22 444.88,-139.05"/>
</a>
</g>
</g>
<!-- Node10&#45;&gt;Node7 -->
<g id="edge16_Node000010_Node000007" class="edge">
<title>Node10&#45;&gt;Node7</title>
<g id="a_edge16_Node000010_Node000007"><a xlink:title=" ">
<path fill="none" stroke="#63b8ff" d="M182.13,-66.12C159.38,-53.58 127.31,-35.9 108.1,-25.31"/>
<polygon fill="#63b8ff" stroke="#63b8ff" points="180.38,-69.15 190.83,-70.91 183.76,-63.02 180.38,-69.15"/>
</a>
</g>
</g>
<!-- Node11&#45;&gt;Node9 -->
<g id="edge18_Node000011_Node000009" class="edge">
<title>Node11&#45;&gt;Node9</title>
<g id="a_edge18_Node000011_Node000009"><a xlink:title=" ">
<path fill="none" stroke="#63b8ff" d="M576.72,-198.75C556.75,-186.25 528.96,-168.84 512.2,-158.35"/>
<polygon fill="#63b8ff" stroke="#63b8ff" points="574.73,-201.64 585.06,-203.98 578.45,-195.7 574.73,-201.64"/>
</a>
</g>
</g>
<!-- Node12 -->
<g id="Node000012" class="node">
<title>Node12</title>
<g id="a_Node000012"><a xlink:href="_time_series_8cpp.html" target="_top" xlink:title=" ">
<polygon fill="white" stroke="#666666" points="717.54,-157.88 571.79,-157.88 571.79,-138.62 717.54,-138.62 717.54,-157.88"/>
<text text-anchor="middle" x="644.67" y="-144.38" font-family="Helvetica,sans-Serif" font-size="10.00">src/nwb/base/TimeSeries.cpp</text>
</a>
</g>
</g>
<!-- Node11&#45;&gt;Node12 -->
<g id="edge19_Node000011_Node000012" class="edge">
<title>Node11&#45;&gt;Node12</title>
<g id="a_edge19_Node000011_Node000012"><a xlink:title=" ">
<path fill="none" stroke="#63b8ff" d="M613.12,-195.5C621.45,-183.29 632.06,-167.74 638.6,-158.14"/>
<polygon fill="#63b8ff" stroke="#63b8ff" points="610.38,-193.3 607.64,-203.53 616.17,-197.24 610.38,-193.3"/>
</a>
</g>
</g>
<!-- Node11&#45;&gt;Node13 -->
<g id="edge20_Node000011_Node000013" class="edge">
<title>Node11&#45;&gt;Node13</title>
<g id="a_edge20_Node000011_Node000013"><a xlink:title=" ">
<path fill="none" stroke="#63b8ff" d="M672.06,-201.29C693.18,-193.91 714.01,-182.18 726.67,-163.5 741.19,-142.08 720.59,-114.24 704.52,-97.48"/>
<polygon fill="#63b8ff" stroke="#63b8ff" points="671.3,-197.86 662.82,-204.21 673.41,-204.53 671.3,-197.86"/>
</a>
</g>
</g>
<!-- Node13&#45;&gt;Node6 -->
<g id="edge21_Node000013_Node000006" class="edge">
<title>Node13&#45;&gt;Node6</title>
<g id="a_edge21_Node000013_Node000006"><a xlink:title=" ">
<path fill="none" stroke="#63b8ff" d="M706.07,-56.87C714.16,-45.77 723.29,-33.24 729.24,-25.07"/>
<polygon fill="#63b8ff" stroke="#63b8ff" points="703.29,-54.75 700.23,-64.89 708.94,-58.87 703.29,-54.75"/>
</a>
</g>
</g>
<!-- Node14 -->
<g id="Node000014" class="node">
<title>Node14</title>
<g id="a_Node000014"><a xlink:href="_electrical_series_8cpp.html" target="_top" xlink:title=" ">
<polygon fill="white" stroke="#666666" points="1141.54,-30.5 1007.79,-30.5 1007.79,0 1141.54,0 1141.54,-30.5"/>
<text text-anchor="start" x="1015.79" y="-17" font-family="Helvetica,sans-Serif" font-size="10.00">src/nwb/ecephys/Electrical</text>
<text text-anchor="middle" x="1074.67" y="-5.75" font-family="Helvetica,sans-Serif" font-size="10.00">Series.cpp</text>
</a>
</g>
</g>
<!-- Node13&#45;&gt;Node14 -->
<g id="edge22_Node000013_Node000014" class="edge">
<title>Node13&#45;&gt;Node14</title>
<g id="a_edge22_Node000013_Node000014"><a xlink:title=" ">
<path fill="none" stroke="#63b8ff" d="M766.96,-67.67C837.65,-55.86 940.56,-38.66 1007.56,-27.46"/>
<polygon fill="#63b8ff" stroke="#63b8ff" points="766.68,-64.17 757.4,-69.27 767.84,-71.07 766.68,-64.17"/>
</a>
</g>
</g>
<!-- Node15&#45;&gt;Node6 -->
<g id="edge24_Node000015_Node000006" class="edge">
<title>Node15&#45;&gt;Node6</title>
<g id="a_edge24_Node000015_Node000006"><a xlink:title=" ">
<path fill="none" stroke="#63b8ff" d="M763.14,-194.02C768.83,-165.37 776.55,-110.85 764.67,-66.5 760.45,-50.74 749.96,-34.8 742.82,-25.22"/>
<polygon fill="#63b8ff" stroke="#63b8ff" points="759.8,-192.93 761.14,-203.44 766.64,-194.39 759.8,-192.93"/>
</a>
</g>
</g>
<!-- Node16 -->
<g id="Node000016" class="node">
<title>Node16</title>
<g id="a_Node000016"><a xlink:href="_device_8cpp.html" target="_top" xlink:title=" ">
<polygon fill="white" stroke="#666666" points="945.92,-157.88 811.42,-157.88 811.42,-138.62 945.92,-138.62 945.92,-157.88"/>
<text text-anchor="middle" x="878.67" y="-144.38" font-family="Helvetica,sans-Serif" font-size="10.00">src/nwb/device/Device.cpp</text>
</a>
</g>
</g>
<!-- Node15&#45;&gt;Node16 -->
<g id="edge25_Node000015_Node000016" class="edge">
<title>Node15&#45;&gt;Node16</title>
<g id="a_edge25_Node000015_Node000016"><a xlink:title=" ">
<path fill="none" stroke="#63b8ff" d="M785.57,-199.29C808.93,-186.74 842.02,-168.95 861.82,-158.31"/>
<polygon fill="#63b8ff" stroke="#63b8ff" points="784.09,-196.11 776.94,-203.93 787.41,-202.28 784.09,-196.11"/>
</a>
</g>
</g>
<!-- Node15&#45;&gt;Node17 -->
<g id="edge26_Node000015_Node000017" class="edge">
<title>Node15&#45;&gt;Node17</title>
<g id="a_edge26_Node000015_Node000017"><a xlink:title=" ">
<path fill="none" stroke="#63b8ff" d="M809.54,-202.16C864.69,-189.59 951.56,-169.79 1001.93,-158.31"/>
<polygon fill="#63b8ff" stroke="#63b8ff" points="809.06,-198.67 800.09,-204.31 810.62,-205.5 809.06,-198.67"/>
</a>
</g>
</g>
<!-- Node17&#45;&gt;Node6 -->
<g id="edge27_Node000017_Node000006" class="edge">
<title>Node17&#45;&gt;Node6</title>
<g id="a_edge27_Node000017_Node000006"><a xlink:title=" ">
<path fill="none" stroke="#63b8ff" d="M973.94,-135.93C935.94,-128.05 888.34,-115.56 848.67,-97 827.05,-86.88 771.27,-44.11 747.11,-25.25"/>
<polygon fill="#63b8ff" stroke="#63b8ff" points="972.92,-139.3 983.41,-137.84 974.3,-132.44 972.92,-139.3"/>
</a>
</g>
</g>
<!-- Node18 -->
<g id="Node000018" class="node">
<title>Node18</title>
<g id="a_Node000018"><a xlink:href="_electrode_group_8cpp.html" target="_top" xlink:title=" ">
<polygon fill="white" stroke="#666666" points="1013.42,-91.38 857.92,-91.38 857.92,-72.12 1013.42,-72.12 1013.42,-91.38"/>
<text text-anchor="middle" x="935.67" y="-77.88" font-family="Helvetica,sans-Serif" font-size="10.00">src/nwb/file/ElectrodeGroup.cpp</text>
</a>
</g>
</g>
<!-- Node17&#45;&gt;Node18 -->
<g id="edge28_Node000017_Node000018" class="edge">
<title>Node17&#45;&gt;Node18</title>
<g id="a_edge28_Node000017_Node000018"><a xlink:title=" ">
<path fill="none" stroke="#63b8ff" d="M1017.3,-132.42C996.74,-119.91 967.95,-102.39 950.62,-91.85"/>
<polygon fill="#63b8ff" stroke="#63b8ff" points="1015.27,-135.29 1025.64,-137.49 1018.91,-129.31 1015.27,-135.29"/>
</a>
</g>
</g>
<!-- Node19&#45;&gt;Node6 -->
<g id="edge32_Node000019_Node000006" class="edge">
<title>Node19&#45;&gt;Node6</title>
<g id="a_edge32_Node000019_Node000006"><a xlink:title=" ">
<path fill="none" stroke="#63b8ff" d="M1162.24,-69.81C1154.97,-68.65 1147.66,-67.52 1140.67,-66.5 1016.57,-48.41 870.47,-31.31 792.12,-22.48"/>
<polygon fill="#63b8ff" stroke="#63b8ff" points="1161.65,-73.26 1172.09,-71.41 1162.78,-66.35 1161.65,-73.26"/>
</a>
</g>
</g>
<!-- Node19&#45;&gt;Node14 -->
<g id="edge33_Node000019_Node000014" class="edge">
<title>Node19&#45;&gt;Node14</title>
<g id="a_edge33_Node000019_Node000014"><a xlink:title=" ">
<path fill="none" stroke="#63b8ff" d="M1194.01,-67.22C1169.12,-56.59 1134.51,-41.81 1108.96,-30.9"/>
<polygon fill="#63b8ff" stroke="#63b8ff" points="1192.39,-70.34 1202.96,-71.05 1195.14,-63.9 1192.39,-70.34"/>
</a>
</g>
</g>
<!-- Node20 -->
<g id="Node000020" class="node">
<title>Node20</title>
<g id="a_Node000020"><a xlink:href="_electrode_table_8cpp.html" target="_top" xlink:title=" ">
<polygon fill="white" stroke="#666666" points="521.92,-24.88 369.42,-24.88 369.42,-5.63 521.92,-5.63 521.92,-24.88"/>
<text text-anchor="middle" x="445.67" y="-11.38" font-family="Helvetica,sans-Serif" font-size="10.00">src/nwb/file/ElectrodeTable.cpp</text>
</a>
</g>
</g>
<!-- Node19&#45;&gt;Node20 -->
<g id="edge34_Node000019_Node000020" class="edge">
<title>Node19&#45;&gt;Node20</title>
<g id="a_edge34_Node000019_Node000020"><a xlink:title=" ">
<path fill="none" stroke="#63b8ff" d="M1165.23,-69.9C1156.99,-68.63 1148.64,-67.45 1140.67,-66.5 1080.61,-59.31 690.2,-32.68 522.27,-21.38"/>
<polygon fill="#63b8ff" stroke="#63b8ff" points="1164.42,-73.32 1174.85,-71.44 1165.52,-66.4 1164.42,-73.32"/>
</a>
</g>
</g>
<!-- Node21&#45;&gt;Node11 -->
<g id="edge36_Node000021_Node000011" class="edge">
<title>Node21&#45;&gt;Node11</title>
<g id="a_edge36_Node000021_Node000011"><a xlink:title=" ">
<path fill="none" stroke="#63b8ff" d="M892.56,-263.73C835.9,-254.86 754.1,-241.9 682.67,-230 672.83,-228.36 662.34,-226.57 652.27,-224.83"/>
<polygon fill="#63b8ff" stroke="#63b8ff" points="891.99,-267.18 902.41,-265.27 893.07,-260.27 891.99,-267.18"/>
</a>
</g>
</g>
<!-- Node21&#45;&gt;Node15 -->
<g id="edge37_Node000021_Node000015" class="edge">
<title>Node21&#45;&gt;Node15</title>
<g id="a_edge37_Node000021_Node000015"><a xlink:title=" ">
<path fill="none" stroke="#63b8ff" d="M920.31,-262.4C881.54,-251.21 825.04,-234.9 790.13,-224.83"/>
<polygon fill="#63b8ff" stroke="#63b8ff" points="919.21,-265.72 929.79,-265.14 921.15,-259 919.21,-265.72"/>
</a>
</g>
</g>
<!-- Node21&#45;&gt;Node17 -->
<g id="edge38_Node000021_Node000017" class="edge">
<title>Node21&#45;&gt;Node17</title>
<g id="a_edge38_Node000021_Node000017"><a xlink:title=" ">
<path fill="none" stroke="#63b8ff" d="M1011.92,-261.63C1027.71,-254.89 1043.47,-244.83 1052.67,-230 1066.77,-207.28 1054.05,-174.09 1046.43,-158.28"/>
<polygon fill="#63b8ff" stroke="#63b8ff" points="1011.1,-258.2 1003.02,-265.06 1013.61,-264.73 1011.1,-258.2"/>
</a>
</g>
</g>
<!-- Node22 -->
<g id="Node000022" class="node">
<title>Node22</title>
<g id="a_Node000022"><a xlink:href="_container_8cpp.html" target="_top" xlink:title=" ">
<polygon fill="white" stroke="#666666" points="1043.79,-224.38 881.54,-224.38 881.54,-205.12 1043.79,-205.12 1043.79,-224.38"/>
<text text-anchor="middle" x="962.67" y="-210.88" font-family="Helvetica,sans-Serif" font-size="10.00">src/nwb/hdmf/base/Container.cpp</text>
</a>
</g>
</g>
<!-- Node21&#45;&gt;Node22 -->
<g id="edge39_Node000021_Node000022" class="edge">
<title>Node21&#45;&gt;Node22</title>
<g id="a_edge39_Node000021_Node000022"><a xlink:title=" ">
<path fill="none" stroke="#63b8ff" d="M962.67,-254.2C962.67,-244.17 962.67,-232.58 962.67,-224.78"/>
<polygon fill="#63b8ff" stroke="#63b8ff" points="959.17,-254.17 962.67,-264.17 966.17,-254.17 959.17,-254.17"/>
</a>
</g>
</g>
<!-- Node21&#45;&gt;Node23 -->
<g id="edge40_Node000021_Node000023" class="edge">
<title>Node21&#45;&gt;Node23</title>
<g id="a_edge40_Node000021_Node000023"><a xlink:title=" ">
<path fill="none" stroke="#63b8ff" d="M996.31,-261.42C1017.54,-252.89 1045.44,-241.3 1069.67,-230 1115.83,-208.47 1168.15,-180.67 1198.95,-163.94"/>
<polygon fill="#63b8ff" stroke="#63b8ff" points="995.26,-258.07 987.27,-265.03 997.86,-264.57 995.26,-258.07"/>
</a>
</g>
</g>
<!-- Node23&#45;&gt;Node19 -->
<g id="edge41_Node000023_Node000019" class="edge">
<title>Node23&#45;&gt;Node19</title>
<g id="a_edge41_Node000023_Node000019"><a xlink:title=" ">
<path fill="none" stroke="#63b8ff" d="M1225.67,-121.34C1225.67,-110.76 1225.67,-99.25 1225.67,-91.57"/>
<polygon fill="#63b8ff" stroke="#63b8ff" points="1222.17,-121.1 1225.67,-131.1 1229.17,-121.1 1222.17,-121.1"/>
</a>
</g>
</g>
<!-- Node24 -->
<g id="Node000024" class="node">
<title>Node24</title>
<g id="a_Node000024"><a xlink:href="_dynamic_table_8cpp.html" target="_top" xlink:title=" ">
<polygon fill="white" stroke="#666666" points="1131.67,-97 1031.67,-97 1031.67,-66.5 1131.67,-66.5 1131.67,-97"/>
<text text-anchor="start" x="1039.67" y="-83.5" font-family="Helvetica,sans-Serif" font-size="10.00">src/nwb/hdmf/table</text>
<text text-anchor="middle" x="1081.67" y="-72.25" font-family="Helvetica,sans-Serif" font-size="10.00">/DynamicTable.cpp</text>
</a>
</g>
</g>
<!-- Node23&#45;&gt;Node24 -->
<g id="edge42_Node000023_Node000024" class="edge">
<title>Node23&#45;&gt;Node24</title>
<g id="a_edge42_Node000023_Node000024"><a xlink:title=" ">
<path fill="none" stroke="#63b8ff" d="M1182.62,-127.97C1160.68,-118.14 1134.44,-106.39 1114.22,-97.33"/>
<polygon fill="#63b8ff" stroke="#63b8ff" points="1181.05,-131.1 1191.61,-132 1183.92,-124.71 1181.05,-131.1"/>
</a>
</g>
</g>
<!-- Node26 -->
<g id="Node000026" class="node">
<title>Node26</title>
<g id="a_Node000026"><a xlink:href="_element_identifiers_8hpp.html" target="_top" xlink:title=" ">
<polygon fill="white" stroke="#666666" points="1329.92,-230 1213.42,-230 1213.42,-199.5 1329.92,-199.5 1329.92,-230"/>
<text text-anchor="start" x="1221.42" y="-216.5" font-family="Helvetica,sans-Serif" font-size="10.00">src/nwb/hdmf/table</text>
<text text-anchor="middle" x="1271.67" y="-205.25" font-family="Helvetica,sans-Serif" font-size="10.00">/ElementIdentifiers.hpp</text>
</a>
</g>
</g>
<!-- Node25&#45;&gt;Node26 -->
<g id="edge44_Node000025_Node000026" class="edge">
<title>Node25&#45;&gt;Node26</title>
<g id="a_edge44_Node000025_Node000026"><a xlink:title=" ">
<path fill="none" stroke="#63b8ff" d="M1280.27,-254.7C1278.5,-246.7 1276.5,-237.65 1274.88,-230.28"/>
<polygon fill="#63b8ff" stroke="#63b8ff" points="1276.79,-255.2 1282.37,-264.21 1283.63,-253.69 1276.79,-255.2"/>
</a>
</g>
</g>
<!-- Node27 -->
<g id="Node000027" class="node">
<title>Node27</title>
<g id="a_Node000027"><a xlink:href="_vector_data_8hpp.html" target="_top" xlink:title=" ">
<polygon fill="white" stroke="#666666" points="1447.29,-230 1348.04,-230 1348.04,-199.5 1447.29,-199.5 1447.29,-230"/>
<text text-anchor="start" x="1356.04" y="-216.5" font-family="Helvetica,sans-Serif" font-size="10.00">src/nwb/hdmf/table</text>
<text text-anchor="middle" x="1397.67" y="-205.25" font-family="Helvetica,sans-Serif" font-size="10.00">/VectorData.hpp</text>
</a>
</g>
</g>
<!-- Node25&#45;&gt;Node27 -->
<g id="edge47_Node000025_Node000027" class="edge">
<title>Node25&#45;&gt;Node27</title>
<g id="a_edge47_Node000025_Node000027"><a xlink:title=" ">
<path fill="none" stroke="#63b8ff" d="M1311.98,-260.4C1329.49,-251.27 1352.15,-239.46 1369.78,-230.28"/>
<polygon fill="#63b8ff" stroke="#63b8ff" points="1310.42,-257.26 1303.17,-264.98 1313.66,-263.47 1310.42,-257.26"/>
</a>
</g>
</g>
<!-- Node26&#45;&gt;Node19 -->
<g id="edge45_Node000026_Node000019" class="edge">
<title>Node26&#45;&gt;Node19</title>
<g id="a_edge45_Node000026_Node000019"><a xlink:title=" ">
<path fill="none" stroke="#63b8ff" d="M1282.94,-188.6C1288.61,-172.13 1292.75,-150.49 1284.67,-133 1276.15,-114.56 1257.15,-100.39 1243,-91.87"/>
<polygon fill="#63b8ff" stroke="#63b8ff" points="1279.78,-187.06 1279.44,-197.65 1286.31,-189.58 1279.78,-187.06"/>
</a>
</g>
</g>
<!-- Node26&#45;&gt;Node23 -->
<g id="edge46_Node000026_Node000023" class="edge">
<title>Node26&#45;&gt;Node23</title>
<g id="a_edge46_Node000026_Node000023"><a xlink:title=" ">
<path fill="none" stroke="#63b8ff" d="M1254.58,-189.79C1248.36,-181.07 1241.53,-171.49 1236.07,-163.83"/>
<polygon fill="#63b8ff" stroke="#63b8ff" points="1251.7,-191.77 1260.35,-197.88 1257.39,-187.71 1251.7,-191.77"/>
</a>
</g>
</g>
<!-- Node27&#45;&gt;Node19 -->
<g id="edge48_Node000027_Node000019" class="edge">
<title>Node27&#45;&gt;Node19</title>
<g id="a_edge48_Node000027_Node000019"><a xlink:title=" ">
<path fill="none" stroke="#63b8ff" d="M1372.79,-191.82C1353.53,-175.14 1325.96,-151.92 1300.67,-133 1280.21,-117.7 1255.4,-101.51 1240.07,-91.77"/>
<polygon fill="#63b8ff" stroke="#63b8ff" points="1370.29,-194.28 1380.13,-198.21 1374.89,-189 1370.29,-194.28"/>
</a>
</g>
</g>
<!-- Node27&#45;&gt;Node23 -->
<g id="edge49_Node000027_Node000023" class="edge">
<title>Node27&#45;&gt;Node23</title>
<g id="a_edge49_Node000027_Node000023"><a xlink:title=" ">
<path fill="none" stroke="#63b8ff" d="M1348.06,-195.15C1321.61,-185.23 1289.52,-173.2 1264.84,-163.94"/>
<polygon fill="#63b8ff" stroke="#63b8ff" points="1346.63,-198.35 1357.22,-198.58 1349.09,-191.79 1346.63,-198.35"/>
</a>
</g>
</g>
<!-- Node28 -->
<g id="Node000028" class="node">
<title>Node28</title>
<g id="a_Node000028"><a xlink:href="_vector_data_8cpp.html" target="_top" xlink:title=" ">
<polygon fill="white" stroke="#666666" points="1469.29,-163.5 1370.04,-163.5 1370.04,-133 1469.29,-133 1469.29,-163.5"/>
<text text-anchor="start" x="1378.04" y="-150" font-family="Helvetica,sans-Serif" font-size="10.00">src/nwb/hdmf/table</text>
<text text-anchor="middle" x="1419.67" y="-138.75" font-family="Helvetica,sans-Serif" font-size="10.00">/VectorData.cpp</text>
</a>
</g>
</g>
<!-- Node27&#45;&gt;Node28 -->
<g id="edge50_Node000027_Node000028" class="edge">
<title>Node27&#45;&gt;Node28</title>
<g id="a_edge50_Node000027_Node000028"><a xlink:title=" ">
<path fill="none" stroke="#63b8ff" d="M1406.32,-188.38C1409.16,-180.05 1412.22,-171.08 1414.7,-163.83"/>
<polygon fill="#63b8ff" stroke="#63b8ff" points="1403.07,-187.09 1403.15,-197.68 1409.69,-189.35 1403.07,-187.09"/>
</a>
</g>
</g>
<!-- Node29&#45;&gt;Node6 -->
<g id="edge54_Node000029_Node000006" class="edge">
<title>Node29&#45;&gt;Node6</title>
<g id="a_edge54_Node000029_Node000006"><a xlink:title=" ">
<path fill="none" stroke="#63b8ff" d="M286.71,-135.39C341.37,-121.54 424.99,-100.12 431.67,-97 452.9,-87.1 453.12,-75.7 474.67,-66.5 541.51,-37.96 624.9,-25.52 679.17,-20.17"/>
<polygon fill="#63b8ff" stroke="#63b8ff" points="286.16,-131.92 277.33,-137.76 287.88,-138.7 286.16,-131.92"/>
</a>
</g>
</g>
<!-- Node29&#45;&gt;Node7 -->
<g id="edge55_Node000029_Node000007" class="edge">
<title>Node29&#45;&gt;Node7</title>
<g id="a_edge55_Node000029_Node000007"><a xlink:title=" ">
<path fill="none" stroke="#63b8ff" d="M193.86,-134.47C172.24,-126.55 147.36,-114.49 129.67,-97 108.62,-76.19 97.83,-41.48 93.7,-25.2"/>
<polygon fill="#63b8ff" stroke="#63b8ff" points="192.46,-137.69 203.06,-137.64 194.74,-131.07 192.46,-137.69"/>
</a>
</g>
</g>
<!-- Node29&#45;&gt;Node13 -->
<g id="edge56_Node000029_Node000013" class="edge">
<title>Node29&#45;&gt;Node13</title>
<g id="a_edge56_Node000029_Node000013"><a xlink:title=" ">
<path fill="none" stroke="#63b8ff" d="M294.74,-138.48C306.59,-136.64 319.04,-134.73 330.67,-133 431.86,-117.98 549.33,-101.71 621.32,-91.88"/>
<polygon fill="#63b8ff" stroke="#63b8ff" points="294.45,-134.98 285.11,-139.99 295.54,-141.9 294.45,-134.98"/>
</a>
</g>
</g>
<!-- Node29&#45;&gt;Node20 -->
<g id="edge57_Node000029_Node000020" class="edge">
<title>Node29&#45;&gt;Node20</title>
<g id="a_edge57_Node000029_Node000020"><a xlink:title=" ">
<path fill="none" stroke="#63b8ff" d="M256.15,-130.42C276.66,-109.72 310.78,-76.15 325.67,-66.5 354.28,-47.95 390.89,-33.8 416.11,-25.31"/>
<polygon fill="#63b8ff" stroke="#63b8ff" points="253.88,-127.73 249.35,-137.31 258.87,-132.65 253.88,-127.73"/>
</a>
</g>
</g>
<!-- Node30 -->
<g id="Node000030" class="node">
<title>Node30</title>
<g id="a_Node000030"><a xlink:href="_channel_8cpp.html" target="_top" xlink:title=" ">
<polygon fill="white" stroke="#666666" points="422.29,-91.38 335.04,-91.38 335.04,-72.12 422.29,-72.12 422.29,-91.38"/>
<text text-anchor="middle" x="378.67" y="-77.88" font-family="Helvetica,sans-Serif" font-size="10.00">src/Channel.cpp</text>
</a>
</g>
</g>
<!-- Node29&#45;&gt;Node30 -->
<g id="edge53_Node000029_Node000030" class="edge">
<title>Node29&#45;&gt;Node30</title>
<g id="a_edge53_Node000029_Node000030"><a xlink:title=" ">
<path fill="none" stroke="#63b8ff" d="M269.38,-133.46C296.5,-120.88 335.81,-102.64 359.15,-91.81"/>
<polygon fill="#63b8ff" stroke="#63b8ff" points="268.26,-130.12 260.66,-137.51 271.21,-136.47 268.26,-130.12"/>
</a>
</g>
</g>
</g>
</svg>

<g id="navigator" transform="translate(0 0)" fill="#404254">
  <rect fill="#f2f5e9" fill-opacity="0.5" stroke="#606060" stroke-width=".5" x="0" y="0" width="60" height="60"/>
  <use id="zoomplus" xlink:href="#zoomPlus" x="17" y="9" onmousedown="handleZoom(evt,'in')"/>
  <use id="zoomminus" xlink:href="#zoomMin" x="42" y="9" onmousedown="handleZoom(evt,'out')"/>
  <use id="reset" xlink:href="#resetDef" x="30" y="36" onmousedown="handleReset()"/>
   <use id="arrowup" xlink:href="#arrowUp" x="0" y="0" onmousedown="handlePan(0,-1)"/>
  <use id="arrowright" xlink:href="#arrowRight" x="0" y="0" onmousedown="handlePan(1,0)"/>
  <use id="arrowdown" xlink:href="#arrowDown" x="0" y="0" onmousedown="handlePan(0,1)"/>
  <use id="arrowleft" xlink:href="#arrowLeft" x="0" y="0" onmousedown="handlePan(-1,0)"/>
</g>
<svg viewBox="0 0 15 15" width="100%" height="30px" preserveAspectRatio="xMaxYMin meet">
 <g id="arrow_out" transform="scale(0.3 0.3)">
  <a xlink:href="_types_8hpp__dep__incl_org.svg" target="_base">
   <rect id="button" ry="5" rx="5" y="6" x="6" height="38" width="38"
        fill="#f2f5e9" fill-opacity="0.5" stroke="#606060" stroke-width="1.0"/>
   <path id="arrow"
     d="M 11.500037,31.436501 C 11.940474,20.09759 22.043105,11.32322 32.158766,21.979434 L 37.068811,17.246167 C 37.068811,17.246167 37.088388,32 37.088388,32 L 22.160133,31.978069 C 22.160133,31.978069 26.997745,27.140456 26.997745,27.140456 C 18.528582,18.264221 13.291696,25.230495 11.500037,31.436501 z"
     style="fill:#404040;"/>
  </a>
 </g>
</svg>

<style type='text/css'>
<![CDATA[
[data-mouse-over-selected='false'] { opacity: 0.7; }
[data-mouse-over-selected='true']  { opacity: 1.0; }
]]>
</style>
<script type="application/ecmascript"><![CDATA[
document.addEventListener('DOMContentLoaded', (event) => {
  highlightEdges();
  highlightAdjacentNodes();
});
]]></script>
</svg>
