<?xml version="1.0" encoding="UTF-8" standalone="no"?>
<!DOCTYPE svg PUBLIC "-//W3C//DTD SVG 1.1//EN"
 "http://www.w3.org/Graphics/SVG/1.1/DTD/svg11.dtd">
<!-- Generated by graphviz version 12.1.0 (20240811.2233)
 -->
<!-- Title: src/Types.hpp Pages: 1 -->
<!--zoomable 470 -->

<svg id="main" version="1.1" xmlns="http://www.w3.org/2000/svg" xmlns:xlink="http://www.w3.org/1999/xlink" xml:space="preserve" onload="init(evt)">

<style type="text/css"><![CDATA[
.node, .edge {opacity: 0.7;}
.node.selected, .edge.selected {opacity: 1;}
.edge:hover path { stroke: red; }
.edge:hover polygon { stroke: red; fill: red; }
]]></style>

<defs>
  <circle id="rim" cx="0" cy="0" r="7"/>
  <circle id="rim2" cx="0" cy="0" r="3.5"/>
  <g id="zoomPlus">
    <use xlink:href="#rim" fill="#404040"><set attributeName="fill" to="#808080" begin="zoomplus.mouseover" end="zoomplus.mouseout"/></use>
    <path d="M-4,0h8M0,-4v8" fill="none" stroke="white" stroke-width="1.5" pointer-events="none"/>
  </g>
  <g id="zoomMin">
    <use xlink:href="#rim" fill="#404040"><set attributeName="fill" to="#808080" begin="zoomminus.mouseover" end="zoomminus.mouseout"/></use>
    <path d="M-4,0h8" fill="none" stroke="white" stroke-width="1.5" pointer-events="none"/>
  </g>
  <g id="arrowUp" transform="translate(30 24)">
    <use xlink:href="#rim"/>
    <path pointer-events="none" fill="none" stroke="white" stroke-width="1.5" d="M0,-3.0v7 M-2.5,-0.5L0,-3.0L2.5,-0.5"/>
  </g>
  <g id="arrowRight" transform="rotate(90) translate(36 -43)">
    <use xlink:href="#rim"/>
    <path pointer-events="none" fill="none" stroke="white" stroke-width="1.5" d="M0,-3.0v7 M-2.5,-0.5L0,-3.0L2.5,-0.5"/>
  </g>
  <g id="arrowDown" transform="rotate(180) translate(-30 -48)">
    <use xlink:href="#rim"/>
    <path pointer-events="none" fill="none" stroke="white" stroke-width="1.5" d="M0,-3.0v7 M-2.5,-0.5L0,-3.0L2.5,-0.5"/>
  </g>
  <g id="arrowLeft" transform="rotate(270) translate(-36 17)">
    <use xlink:href="#rim"/>
    <path pointer-events="none" fill="none" stroke="white" stroke-width="1.5" d="M0,-3.0v7 M-2.5,-0.5L0,-3.0L2.5,-0.5"/>
  </g>
  <g id="resetDef">
    <use xlink:href="#rim2" fill="#404040"><set attributeName="fill" to="#808080" begin="reset.mouseover" end="reset.mouseout"/></use>
  </g>
</defs>
<script type="application/ecmascript">
var viewWidth = 1795;
var viewHeight = 470;
var sectionId = 'dynsection-1';
</script>
<script type="application/ecmascript" xlink:href="svg.min.js"/>
<svg id="graph" class="graph">
<g id="viewport">
<title>src/Types.hpp</title>
<!-- Node1 -->
<g id="Node000001" class="node">
<title>Node1</title>
<g id="a_Node000001"><a xlink:title=" ">
<polygon fill="#999999" stroke="#666666" points="800.75,-462.25 723.25,-462.25 723.25,-443 800.75,-443 800.75,-462.25"/>
<text text-anchor="middle" x="762" y="-448.75" font-family="Helvetica,sans-Serif" font-size="10.00">src/Types.hpp</text>
</a>
</g>
</g>
<!-- Node2 -->
<g id="Node000002" class="node">
<title>Node2</title>
<g id="a_Node000002"><a xlink:href="_base_i_o_8hpp.html" target="_top" xlink:title=" ">
<polygon fill="white" stroke="#666666" points="804.12,-407 719.88,-407 719.88,-387.75 804.12,-387.75 804.12,-407"/>
<text text-anchor="middle" x="762" y="-393.5" font-family="Helvetica,sans-Serif" font-size="10.00">src/BaseIO.hpp</text>
</a>
</g>
</g>
<!-- Node1&#45;&gt;Node2 -->
<g id="edge1_Node000001_Node000002" class="edge">
<title>Node1&#45;&gt;Node2</title>
<g id="a_edge1_Node000001_Node000002"><a xlink:title=" ">
<path fill="none" stroke="#63b8ff" d="M762,-431.38C762,-423.09 762,-413.92 762,-407.36"/>
<polygon fill="#63b8ff" stroke="#63b8ff" points="758.5,-431.32 762,-441.32 765.5,-431.32 758.5,-431.32"/>
</a>
</g>
</g>
<!-- Node7 -->
<g id="Node000007" class="node">
<title>Node7</title>
<g id="a_Node000007"><a xlink:href="_h_d_f5_i_o_8hpp.html" target="_top" xlink:title=" ">
<polygon fill="white" stroke="#666666" points="341.88,-351.75 232.12,-351.75 232.12,-332.5 341.88,-332.5 341.88,-351.75"/>
<text text-anchor="middle" x="287" y="-338.25" font-family="Helvetica,sans-Serif" font-size="10.00">src/hdf5/HDF5IO.hpp</text>
</a>
</g>
</g>
<!-- Node1&#45;&gt;Node7 -->
<g id="edge65_Node000001_Node000007" class="edge">
<title>Node1&#45;&gt;Node7</title>
<g id="a_edge65_Node000001_Node000007"><a xlink:title=" ">
<path fill="none" stroke="#63b8ff" d="M711.67,-451.08C641.57,-449.04 511.26,-440.56 406,-407 364.67,-393.82 320.93,-366.33 299.85,-352.1"/>
<polygon fill="#63b8ff" stroke="#63b8ff" points="711.21,-454.57 721.29,-451.33 711.39,-447.57 711.21,-454.57"/>
</a>
</g>
</g>
<!-- Node8 -->
<g id="Node000008" class="node">
<title>Node8</title>
<g id="a_Node000008"><a xlink:href="_n_w_b_file_8hpp.html" target="_top" xlink:title=" ">
<polygon fill="white" stroke="#666666" points="912,-91.38 800,-91.38 800,-72.12 912,-72.12 912,-91.38"/>
<text text-anchor="middle" x="856" y="-77.88" font-family="Helvetica,sans-Serif" font-size="10.00">src/nwb/NWBFile.hpp</text>
</a>
</g>
</g>
<!-- Node1&#45;&gt;Node8 -->
<g id="edge66_Node000001_Node000008" class="edge">
<title>Node1&#45;&gt;Node8</title>
<g id="a_edge66_Node000001_Node000008"><a xlink:title=" ">
<path fill="none" stroke="#63b8ff" d="M733.54,-437.54C662.32,-400.41 486.75,-296.03 553,-199.5 569.39,-175.62 754.71,-114.85 827.19,-91.8"/>
<polygon fill="#63b8ff" stroke="#63b8ff" points="731.79,-440.58 742.29,-442.03 734.99,-434.35 731.79,-440.58"/>
</a>
</g>
</g>
<!-- Node10 -->
<g id="Node000010" class="node">
<title>Node10</title>
<g id="a_Node000010"><a xlink:href="_recording_containers_8hpp.html" target="_top" xlink:title=" ">
<polygon fill="white" stroke="#666666" points="1399.88,-157.88 1236.12,-157.88 1236.12,-138.62 1399.88,-138.62 1399.88,-157.88"/>
<text text-anchor="middle" x="1318" y="-144.38" font-family="Helvetica,sans-Serif" font-size="10.00">src/nwb/RecordingContainers.hpp</text>
</a>
</g>
</g>
<!-- Node1&#45;&gt;Node10 -->
<g id="edge67_Node000001_Node000010" class="edge">
<title>Node1&#45;&gt;Node10</title>
<g id="a_edge67_Node000001_Node000010"><a xlink:title=" ">
<path fill="none" stroke="#63b8ff" d="M812.52,-447.14C893.65,-438.31 1056.34,-413.82 1179,-351.75 1253.78,-313.91 1287.72,-306.02 1323,-230 1334.12,-206.05 1326.21,-173.73 1321.22,-158.25"/>
<polygon fill="#63b8ff" stroke="#63b8ff" points="812.24,-443.65 802.66,-448.18 812.97,-450.61 812.24,-443.65"/>
</a>
</g>
</g>
<!-- Node31 -->
<g id="Node000031" class="node">
<title>Node31</title>
<g id="a_Node000031"><a xlink:href="_channel_8hpp.html" target="_top" xlink:title=" ">
<polygon fill="white" stroke="#666666" points="1607.62,-224.38 1520.38,-224.38 1520.38,-205.12 1607.62,-205.12 1607.62,-224.38"/>
<text text-anchor="middle" x="1564" y="-210.88" font-family="Helvetica,sans-Serif" font-size="10.00">src/Channel.hpp</text>
</a>
</g>
</g>
<!-- Node1&#45;&gt;Node31 -->
<g id="edge58_Node000001_Node000031" class="edge">
<title>Node1&#45;&gt;Node31</title>
<g id="a_edge58_Node000001_Node000031"><a xlink:title=" ">
<path fill="none" stroke="#63b8ff" d="M812.65,-450.49C981.1,-446.47 1513.4,-431.87 1540,-407 1592.81,-357.64 1573.59,-255.42 1566.29,-224.68"/>
<polygon fill="#63b8ff" stroke="#63b8ff" points="812.59,-446.99 802.67,-450.72 812.75,-453.99 812.59,-446.99"/>
</a>
</g>
</g>
<!-- Node3 -->
<g id="Node000003" class="node">
<title>Node3</title>
<g id="a_Node000003"><a xlink:href="_base_i_o_8cpp.html" target="_top" xlink:title=" ">
<polygon fill="white" stroke="#666666" points="278.12,-224.38 193.88,-224.38 193.88,-205.12 278.12,-205.12 278.12,-224.38"/>
<text text-anchor="middle" x="236" y="-210.88" font-family="Helvetica,sans-Serif" font-size="10.00">src/BaseIO.cpp</text>
</a>
</g>
</g>
<!-- Node2&#45;&gt;Node3 -->
<g id="edge2_Node000002_Node000003" class="edge">
<title>Node2&#45;&gt;Node3</title>
<g id="a_edge2_Node000002_Node000003"><a xlink:title=" ">
<path fill="none" stroke="#63b8ff" d="M708.15,-389.23C662.01,-382.28 594.16,-370.07 537,-351.75 423.96,-315.53 296.93,-248.96 252.44,-224.81"/>
<polygon fill="#63b8ff" stroke="#63b8ff" points="707.49,-392.68 717.89,-390.67 708.51,-385.75 707.49,-392.68"/>
</a>
</g>
</g>
<!-- Node4 -->
<g id="Node000004" class="node">
<title>Node4</title>
<g id="a_Node000004"><a xlink:href="_utils_8hpp.html" target="_top" xlink:title=" ">
<polygon fill="white" stroke="#666666" points="271.75,-290.88 200.25,-290.88 200.25,-271.62 271.75,-271.62 271.75,-290.88"/>
<text text-anchor="middle" x="236" y="-277.38" font-family="Helvetica,sans-Serif" font-size="10.00">src/Utils.hpp</text>
</a>
</g>
</g>
<!-- Node2&#45;&gt;Node4 -->
<g id="edge3_Node000002_Node000004" class="edge">
<title>Node2&#45;&gt;Node4</title>
<g id="a_edge3_Node000002_Node000004"><a xlink:title=" ">
<path fill="none" stroke="#63b8ff" d="M708.3,-389.72C651.68,-382.26 560.03,-368.93 482,-351.75 402.03,-334.15 309.56,-305.82 264.14,-291.37"/>
<polygon fill="#63b8ff" stroke="#63b8ff" points="707.62,-393.16 717.99,-390.98 708.53,-386.22 707.62,-393.16"/>
</a>
</g>
</g>
<!-- Node6 -->
<g id="Node000006" class="node">
<title>Node6</title>
<g id="a_Node000006"><a xlink:href="_n_w_b_file_8cpp.html" target="_top" xlink:title=" ">
<polygon fill="white" stroke="#666666" points="828,-24.88 716,-24.88 716,-5.63 828,-5.63 828,-24.88"/>
<text text-anchor="middle" x="772" y="-11.38" font-family="Helvetica,sans-Serif" font-size="10.00">src/nwb/NWBFile.cpp</text>
</a>
</g>
</g>
<!-- Node2&#45;&gt;Node6 -->
<g id="edge10_Node000002_Node000006" class="edge">
<title>Node2&#45;&gt;Node6</title>
<g id="a_edge10_Node000002_Node000006"><a xlink:title=" ">
<path fill="none" stroke="#63b8ff" d="M707.99,-393.98C534.1,-385.58 0,-353.92 0,-282.25 0,-282.25 0,-282.25 0,-147.25 0,-74.65 537.58,-31.99 715.55,-19.86"/>
<polygon fill="#63b8ff" stroke="#63b8ff" points="707.73,-397.48 717.89,-394.46 708.06,-390.48 707.73,-397.48"/>
</a>
</g>
</g>
<!-- Node2&#45;&gt;Node7 -->
<g id="edge7_Node000002_Node000007" class="edge">
<title>Node2&#45;&gt;Node7</title>
<g id="a_edge7_Node000002_Node000007"><a xlink:title=" ">
<path fill="none" stroke="#63b8ff" d="M708.01,-390.32C617.03,-380.12 434.13,-359.62 342.29,-349.32"/>
<polygon fill="#63b8ff" stroke="#63b8ff" points="707.6,-393.8 717.92,-391.43 708.38,-386.84 707.6,-393.8"/>
</a>
</g>
</g>
<!-- Node2&#45;&gt;Node8 -->
<g id="edge11_Node000002_Node000008" class="edge">
<title>Node2&#45;&gt;Node8</title>
<g id="a_edge11_Node000002_Node000008"><a xlink:title=" ">
<path fill="none" stroke="#63b8ff" d="M764.39,-375.88C766.61,-355.71 769.76,-324.04 771,-296.5 771.61,-282.96 773.16,-279.38 771,-266 766.05,-235.27 758.81,-229.04 749,-199.5 743.68,-183.49 739.7,-180.15 737,-163.5 734.83,-150.12 729.51,-144.3 737,-133 751.44,-111.23 777.38,-98.86 801.37,-91.86"/>
<polygon fill="#63b8ff" stroke="#63b8ff" points="760.91,-375.47 763.26,-385.8 767.87,-376.26 760.91,-375.47"/>
</a>
</g>
</g>
<!-- Node9 -->
<g id="Node000009" class="node">
<title>Node9</title>
<g id="a_Node000009"><a xlink:href="_time_series_8hpp.html" target="_top" xlink:title=" ">
<polygon fill="white" stroke="#666666" points="1313.88,-224.38 1168.12,-224.38 1168.12,-205.12 1313.88,-205.12 1313.88,-224.38"/>
<text text-anchor="middle" x="1241" y="-210.88" font-family="Helvetica,sans-Serif" font-size="10.00">src/nwb/base/TimeSeries.hpp</text>
</a>
</g>
</g>
<!-- Node2&#45;&gt;Node9 -->
<g id="edge13_Node000002_Node000009" class="edge">
<title>Node2&#45;&gt;Node9</title>
<g id="a_edge13_Node000002_Node000009"><a xlink:title=" ">
<path fill="none" stroke="#63b8ff" d="M815.61,-395.87C909.45,-394.09 1098.76,-386.19 1154,-351.75 1203.71,-320.76 1230.24,-249.72 1238.31,-224.68"/>
<polygon fill="#63b8ff" stroke="#63b8ff" points="815.84,-392.37 805.9,-396.04 815.96,-399.37 815.84,-392.37"/>
</a>
</g>
</g>
<!-- Node13 -->
<g id="Node000013" class="node">
<title>Node13</title>
<g id="a_Node000013"><a xlink:href="_electrical_series_8hpp.html" target="_top" xlink:title=" ">
<polygon fill="white" stroke="#666666" points="1589.88,-163.5 1456.12,-163.5 1456.12,-133 1589.88,-133 1589.88,-163.5"/>
<text text-anchor="start" x="1464.12" y="-150" font-family="Helvetica,sans-Serif" font-size="10.00">src/nwb/ecephys/Electrical</text>
<text text-anchor="middle" x="1523" y="-138.75" font-family="Helvetica,sans-Serif" font-size="10.00">Series.hpp</text>
</a>
</g>
</g>
<!-- Node2&#45;&gt;Node13 -->
<g id="edge33_Node000002_Node000013" class="edge">
<title>Node2&#45;&gt;Node13</title>
<g id="a_edge33_Node000002_Node000013"><a xlink:title=" ">
<path fill="none" stroke="#63b8ff" d="M815.88,-393.45C912.88,-387.71 1112.9,-373.6 1179,-351.75 1314.87,-306.82 1455.37,-202.62 1504.63,-164"/>
<polygon fill="#63b8ff" stroke="#63b8ff" points="815.87,-389.94 806.09,-394.02 816.28,-396.93 815.87,-389.94"/>
</a>
</g>
</g>
<!-- Node15 -->
<g id="Node000015" class="node">
<title>Node15</title>
<g id="a_Node000015"><a xlink:href="_spike_event_series_8hpp.html" target="_top" xlink:title=" ">
<polygon fill="white" stroke="#666666" points="1711.75,-97 1568.25,-97 1568.25,-66.5 1711.75,-66.5 1711.75,-97"/>
<text text-anchor="start" x="1576.25" y="-83.5" font-family="Helvetica,sans-Serif" font-size="10.00">src/nwb/ecephys/SpikeEvent</text>
<text text-anchor="middle" x="1640" y="-72.25" font-family="Helvetica,sans-Serif" font-size="10.00">Series.hpp</text>
</a>
</g>
</g>
<!-- Node2&#45;&gt;Node15 -->
<g id="edge34_Node000002_Node000015" class="edge">
<title>Node2&#45;&gt;Node15</title>
<g id="a_edge34_Node000002_Node000015"><a xlink:title=" ">
<path fill="none" stroke="#63b8ff" d="M815.92,-393.32C1010.47,-380.98 1670.59,-327.41 1781,-163.5 1803.46,-130.16 1757.22,-108.92 1711.82,-96.63"/>
<polygon fill="#63b8ff" stroke="#63b8ff" points="815.86,-389.81 806.1,-393.93 816.3,-396.8 815.86,-389.81"/>
</a>
</g>
</g>
<!-- Node17 -->
<g id="Node000017" class="node">
<title>Node17</title>
<g id="a_Node000017"><a xlink:href="_device_8hpp.html" target="_top" xlink:title=" ">
<polygon fill="white" stroke="#666666" points="430.25,-224.38 295.75,-224.38 295.75,-205.12 430.25,-205.12 430.25,-224.38"/>
<text text-anchor="middle" x="363" y="-210.88" font-family="Helvetica,sans-Serif" font-size="10.00">src/nwb/device/Device.hpp</text>
</a>
</g>
</g>
<!-- Node2&#45;&gt;Node17 -->
<g id="edge27_Node000002_Node000017" class="edge">
<title>Node2&#45;&gt;Node17</title>
<g id="a_edge27_Node000002_Node000017"><a xlink:title=" ">
<path fill="none" stroke="#63b8ff" d="M708.18,-396.4C663.91,-393.84 601.58,-384.06 558,-351.75 522.91,-325.74 543.55,-293.97 510,-266 484.1,-244.41 448.45,-231.93 418.74,-224.8"/>
<polygon fill="#63b8ff" stroke="#63b8ff" points="707.93,-399.89 718.08,-396.85 708.25,-392.9 707.93,-399.89"/>
</a>
</g>
</g>
<!-- Node19 -->
<g id="Node000019" class="node">
<title>Node19</title>
<g id="a_Node000019"><a xlink:href="_electrode_group_8hpp.html" target="_top" xlink:title=" ">
<polygon fill="white" stroke="#666666" points="607.75,-157.88 452.25,-157.88 452.25,-138.62 607.75,-138.62 607.75,-157.88"/>
<text text-anchor="middle" x="530" y="-144.38" font-family="Helvetica,sans-Serif" font-size="10.00">src/nwb/file/ElectrodeGroup.hpp</text>
</a>
</g>
</g>
<!-- Node2&#45;&gt;Node19 -->
<g id="edge35_Node000002_Node000019" class="edge">
<title>Node2&#45;&gt;Node19</title>
<g id="a_edge35_Node000002_Node000019"><a xlink:title=" ">
<path fill="none" stroke="#63b8ff" d="M723.36,-383.34C667.12,-361.84 565.83,-312.88 533,-230 523.29,-205.48 526.22,-173.42 528.47,-158.13"/>
<polygon fill="#63b8ff" stroke="#63b8ff" points="721.97,-386.55 732.56,-386.75 724.4,-379.99 721.97,-386.55"/>
</a>
</g>
</g>
<!-- Node21 -->
<g id="Node000021" class="node">
<title>Node21</title>
<g id="a_Node000021"><a xlink:href="_electrode_table_8hpp.html" target="_top" xlink:title=" ">
<polygon fill="white" stroke="#666666" points="1016.25,-157.88 863.75,-157.88 863.75,-138.62 1016.25,-138.62 1016.25,-157.88"/>
<text text-anchor="middle" x="940" y="-144.38" font-family="Helvetica,sans-Serif" font-size="10.00">src/nwb/file/ElectrodeTable.hpp</text>
</a>
</g>
</g>
<!-- Node2&#45;&gt;Node21 -->
<g id="edge36_Node000002_Node000021" class="edge">
<title>Node2&#45;&gt;Node21</title>
<g id="a_edge36_Node000002_Node000021"><a xlink:title=" ">
<path fill="none" stroke="#63b8ff" d="M815.74,-392.19C866.4,-386.95 943.76,-375.59 1007,-351.75 1051.63,-334.93 1069.2,-333.74 1099,-296.5 1126.62,-261.98 1147.75,-234.69 1121,-199.5 1112.51,-188.34 1033.72,-169.49 982.93,-158.32"/>
<polygon fill="#63b8ff" stroke="#63b8ff" points="815.52,-388.69 805.92,-393.16 816.21,-395.66 815.52,-388.69"/>
</a>
</g>
</g>
<!-- Node23 -->
<g id="Node000023" class="node">
<title>Node23</title>
<g id="a_Node000023"><a xlink:href="_container_8hpp.html" target="_top" xlink:title=" ">
<polygon fill="white" stroke="#666666" points="762.12,-290.88 599.88,-290.88 599.88,-271.62 762.12,-271.62 762.12,-290.88"/>
<text text-anchor="middle" x="681" y="-277.38" font-family="Helvetica,sans-Serif" font-size="10.00">src/nwb/hdmf/base/Container.hpp</text>
</a>
</g>
</g>
<!-- Node2&#45;&gt;Node23 -->
<g id="edge40_Node000002_Node000023" class="edge">
<title>Node2&#45;&gt;Node23</title>
<g id="a_edge40_Node000002_Node000023"><a xlink:title=" ">
<path fill="none" stroke="#63b8ff" d="M748.98,-378.03C731.34,-353.18 700.55,-309.79 687.33,-291.16"/>
<polygon fill="#63b8ff" stroke="#63b8ff" points="746.13,-380.06 754.77,-386.19 751.83,-376 746.13,-380.06"/>
</a>
</g>
</g>
<!-- Node25 -->
<g id="Node000025" class="node">
<title>Node25</title>
<g id="a_Node000025"><a xlink:href="_dynamic_table_8hpp.html" target="_top" xlink:title=" ">
<polygon fill="white" stroke="#666666" points="918,-230 818,-230 818,-199.5 918,-199.5 918,-230"/>
<text text-anchor="start" x="826" y="-216.5" font-family="Helvetica,sans-Serif" font-size="10.00">src/nwb/hdmf/table</text>
<text text-anchor="middle" x="868" y="-205.25" font-family="Helvetica,sans-Serif" font-size="10.00">/DynamicTable.hpp</text>
</a>
</g>
</g>
<!-- Node2&#45;&gt;Node25 -->
<g id="edge57_Node000002_Node000025" class="edge">
<title>Node2&#45;&gt;Node25</title>
<g id="a_edge57_Node000002_Node000025"><a xlink:title=" ">
<path fill="none" stroke="#63b8ff" d="M780.02,-379.79C788.01,-371.82 797.14,-361.83 804,-351.75 818.53,-330.39 848.87,-260.72 861.87,-230.24"/>
<polygon fill="#63b8ff" stroke="#63b8ff" points="777.82,-377.05 773.04,-386.5 782.67,-382.09 777.82,-377.05"/>
</a>
</g>
</g>
<!-- Node27 -->
<g id="Node000027" class="node">
<title>Node27</title>
<g id="a_Node000027"><a xlink:href="_data_8hpp.html" target="_top" xlink:title=" ">
<polygon fill="white" stroke="#666666" points="998,-351.75 856,-351.75 856,-332.5 998,-332.5 998,-351.75"/>
<text text-anchor="middle" x="927" y="-338.25" font-family="Helvetica,sans-Serif" font-size="10.00">src/nwb/hdmf/base/Data.hpp</text>
</a>
</g>
</g>
<!-- Node2&#45;&gt;Node27 -->
<g id="edge49_Node000002_Node000027" class="edge">
<title>Node2&#45;&gt;Node27</title>
<g id="a_edge49_Node000002_Node000027"><a xlink:title=" ">
<path fill="none" stroke="#63b8ff" d="M800.94,-383.81C831.01,-374.1 871.92,-360.9 898.87,-352.2"/>
<polygon fill="#63b8ff" stroke="#63b8ff" points="799.87,-380.47 791.43,-386.88 802.02,-387.14 799.87,-380.47"/>
</a>
</g>
</g>
<!-- Node4&#45;&gt;Node3 -->
<g id="edge4_Node000004_Node000003" class="edge">
<title>Node4&#45;&gt;Node3</title>
<g id="a_edge4_Node000004_Node000003"><a xlink:title=" ">
<path fill="none" stroke="#63b8ff" d="M236,-259.77C236,-247.94 236,-233.66 236,-224.64"/>
<polygon fill="#63b8ff" stroke="#63b8ff" points="232.5,-259.77 236,-269.77 239.5,-259.77 232.5,-259.77"/>
</a>
</g>
</g>
<!-- Node5 -->
<g id="Node000005" class="node">
<title>Node5</title>
<g id="a_Node000005"><a xlink:href="_h_d_f5_i_o_8cpp.html" target="_top" xlink:title=" ">
<polygon fill="white" stroke="#666666" points="137.88,-224.38 28.12,-224.38 28.12,-205.12 137.88,-205.12 137.88,-224.38"/>
<text text-anchor="middle" x="83" y="-210.88" font-family="Helvetica,sans-Serif" font-size="10.00">src/hdf5/HDF5IO.cpp</text>
</a>
</g>
</g>
<!-- Node4&#45;&gt;Node5 -->
<g id="edge5_Node000004_Node000005" class="edge">
<title>Node4&#45;&gt;Node5</title>
<g id="a_edge5_Node000004_Node000005"><a xlink:title=" ">
<path fill="none" stroke="#63b8ff" d="M204.09,-266.8C174.21,-254.2 130.41,-235.74 104.49,-224.81"/>
<polygon fill="#63b8ff" stroke="#63b8ff" points="202.43,-269.9 213.01,-270.56 205.15,-263.45 202.43,-269.9"/>
</a>
</g>
</g>
<!-- Node4&#45;&gt;Node6 -->
<g id="edge6_Node000004_Node000006" class="edge">
<title>Node4&#45;&gt;Node6</title>
<g id="a_edge6_Node000004_Node000006"><a xlink:title=" ">
<path fill="none" stroke="#63b8ff" d="M213.16,-264.57C202.45,-255.79 190.79,-243.83 185,-230 179.77,-217.5 179.77,-212 185,-199.5 217.52,-121.81 243.95,-102.7 320,-66.5 388.79,-33.75 610.76,-21.82 715.85,-17.93"/>
<polygon fill="#63b8ff" stroke="#63b8ff" points="210.88,-267.23 220.96,-270.51 215.13,-261.66 210.88,-267.23"/>
</a>
</g>
</g>
<!-- Node7&#45;&gt;Node4 -->
<g id="edge8_Node000007_Node000004" class="edge">
<title>Node7&#45;&gt;Node4</title>
<g id="a_edge8_Node000007_Node000004"><a xlink:title=" ">
<path fill="none" stroke="#63b8ff" d="M271.87,-323.66C262.65,-313.02 251.26,-299.86 243.82,-291.28"/>
<polygon fill="#63b8ff" stroke="#63b8ff" points="269.07,-325.77 278.26,-331.04 274.36,-321.19 269.07,-325.77"/>
</a>
</g>
</g>
<!-- Node7&#45;&gt;Node5 -->
<g id="edge9_Node000007_Node000005" class="edge">
<title>Node7&#45;&gt;Node5</title>
<g id="a_edge9_Node000007_Node000005"><a xlink:title=" ">
<path fill="none" stroke="#63b8ff" d="M253.73,-327.68C234.84,-319.56 211.05,-308.48 191,-296.5 153.02,-273.8 112.25,-240.61 93.52,-224.78"/>
<polygon fill="#63b8ff" stroke="#63b8ff" points="252.25,-330.86 262.82,-331.52 254.97,-324.41 252.25,-330.86"/>
</a>
</g>
</g>
<!-- Node8&#45;&gt;Node6 -->
<g id="edge12_Node000008_Node000006" class="edge">
<title>Node8&#45;&gt;Node6</title>
<g id="a_edge12_Node000008_Node000006"><a xlink:title=" ">
<path fill="none" stroke="#63b8ff" d="M835.57,-65.06C819.36,-52.61 797.27,-35.65 783.85,-25.35"/>
<polygon fill="#63b8ff" stroke="#63b8ff" points="833.06,-67.55 843.12,-70.86 837.32,-61.99 833.06,-67.55"/>
</a>
</g>
</g>
<!-- Node9&#45;&gt;Node8 -->
<g id="edge14_Node000009_Node000008" class="edge">
<title>Node9&#45;&gt;Node8</title>
<g id="a_edge14_Node000009_Node000008"><a xlink:title=" ">
<path fill="none" stroke="#63b8ff" d="M1177.26,-202.26C1142.25,-194.38 1098.8,-181.95 1063,-163.5 1043.75,-153.58 1044.18,-143.05 1025,-133 986.64,-112.9 939.05,-99.66 904.16,-91.85"/>
<polygon fill="#63b8ff" stroke="#63b8ff" points="1176.31,-205.64 1186.83,-204.34 1177.8,-198.8 1176.31,-205.64"/>
</a>
</g>
</g>
<!-- Node9&#45;&gt;Node10 -->
<g id="edge15_Node000009_Node000010" class="edge">
<title>Node9&#45;&gt;Node10</title>
<g id="a_edge15_Node000009_Node000010"><a xlink:title=" ">
<path fill="none" stroke="#63b8ff" d="M1260.2,-197.67C1275.12,-185.17 1295.24,-168.31 1307.38,-158.14"/>
<polygon fill="#63b8ff" stroke="#63b8ff" points="1258.29,-194.71 1252.87,-203.81 1262.78,-200.07 1258.29,-194.71"/>
</a>
</g>
</g>
<!-- Node12 -->
<g id="Node000012" class="node">
<title>Node12</title>
<g id="a_Node000012"><a xlink:href="_time_series_8cpp.html" target="_top" xlink:title=" ">
<polygon fill="white" stroke="#666666" points="1217.88,-157.88 1072.12,-157.88 1072.12,-138.62 1217.88,-138.62 1217.88,-157.88"/>
<text text-anchor="middle" x="1145" y="-144.38" font-family="Helvetica,sans-Serif" font-size="10.00">src/nwb/base/TimeSeries.cpp</text>
</a>
</g>
</g>
<!-- Node9&#45;&gt;Node12 -->
<g id="edge18_Node000009_Node000012" class="edge">
<title>Node9&#45;&gt;Node12</title>
<g id="a_edge18_Node000009_Node000012"><a xlink:title=" ">
<path fill="none" stroke="#63b8ff" d="M1218.16,-198.41C1199.59,-185.93 1174.02,-168.75 1158.54,-158.35"/>
<polygon fill="#63b8ff" stroke="#63b8ff" points="1216.14,-201.27 1226.4,-203.94 1220.05,-195.46 1216.14,-201.27"/>
</a>
</g>
</g>
<!-- Node9&#45;&gt;Node13 -->
<g id="edge19_Node000009_Node000013" class="edge">
<title>Node9&#45;&gt;Node13</title>
<g id="a_edge19_Node000009_Node000013"><a xlink:title=" ">
<path fill="none" stroke="#63b8ff" d="M1291.88,-202.11C1338.62,-191.42 1408.11,-175.53 1458.68,-163.96"/>
<polygon fill="#63b8ff" stroke="#63b8ff" points="1291.25,-198.67 1282.28,-204.31 1292.81,-205.49 1291.25,-198.67"/>
</a>
</g>
</g>
<!-- Node10&#45;&gt;Node8 -->
<g id="edge16_Node000010_Node000008" class="edge">
<title>Node10&#45;&gt;Node8</title>
<g id="a_edge16_Node000010_Node000008"><a xlink:title=" ">
<path fill="none" stroke="#63b8ff" d="M1249.96,-136.44C1242.22,-135.25 1234.44,-134.09 1227,-133 1115.57,-116.73 985.05,-99.47 912.3,-90.01"/>
<polygon fill="#63b8ff" stroke="#63b8ff" points="1249.32,-139.88 1259.74,-137.94 1250.39,-132.96 1249.32,-139.88"/>
</a>
</g>
</g>
<!-- Node11 -->
<g id="Node000011" class="node">
<title>Node11</title>
<g id="a_Node000011"><a xlink:href="_recording_containers_8cpp.html" target="_top" xlink:title=" ">
<polygon fill="white" stroke="#666666" points="1574.88,-24.88 1411.12,-24.88 1411.12,-5.63 1574.88,-5.63 1574.88,-24.88"/>
<text text-anchor="middle" x="1493" y="-11.38" font-family="Helvetica,sans-Serif" font-size="10.00">src/nwb/RecordingContainers.cpp</text>
</a>
</g>
</g>
<!-- Node10&#45;&gt;Node11 -->
<g id="edge17_Node000010_Node000011" class="edge">
<title>Node10&#45;&gt;Node11</title>
<g id="a_edge17_Node000010_Node000011"><a xlink:title=" ">
<path fill="none" stroke="#63b8ff" d="M1338.94,-131.57C1375.87,-103.93 1451.45,-47.35 1480.89,-25.32"/>
<polygon fill="#63b8ff" stroke="#63b8ff" points="1337.15,-128.54 1331.24,-137.34 1341.34,-134.15 1337.15,-128.54"/>
</a>
</g>
</g>
<!-- Node13&#45;&gt;Node6 -->
<g id="edge20_Node000013_Node000006" class="edge">
<title>Node13&#45;&gt;Node6</title>
<g id="a_edge20_Node000013_Node000006"><a xlink:title=" ">
<path fill="none" stroke="#63b8ff" d="M1489.31,-126.88C1453.04,-105.32 1397.39,-73.48 1374,-66.5 1272.75,-36.29 957.92,-22.5 828.47,-18"/>
<polygon fill="#63b8ff" stroke="#63b8ff" points="1487.31,-129.76 1497.69,-131.88 1490.9,-123.75 1487.31,-129.76"/>
</a>
</g>
</g>
<!-- Node13&#45;&gt;Node11 -->
<g id="edge21_Node000013_Node000011" class="edge">
<title>Node13&#45;&gt;Node11</title>
<g id="a_edge21_Node000013_Node000011"><a xlink:title=" ">
<path fill="none" stroke="#63b8ff" d="M1518.41,-121.5C1515.45,-105.58 1511.35,-84.78 1507,-66.5 1503.52,-51.88 1498.67,-35.09 1495.68,-25.09"/>
<polygon fill="#63b8ff" stroke="#63b8ff" points="1514.93,-121.89 1520.17,-131.1 1521.81,-120.63 1514.93,-121.89"/>
</a>
</g>
</g>
<!-- Node14 -->
<g id="Node000014" class="node">
<title>Node14</title>
<g id="a_Node000014"><a xlink:href="_electrical_series_8cpp.html" target="_top" xlink:title=" ">
<polygon fill="white" stroke="#666666" points="1364.88,-97 1231.12,-97 1231.12,-66.5 1364.88,-66.5 1364.88,-97"/>
<text text-anchor="start" x="1239.12" y="-83.5" font-family="Helvetica,sans-Serif" font-size="10.00">src/nwb/ecephys/Electrical</text>
<text text-anchor="middle" x="1298" y="-72.25" font-family="Helvetica,sans-Serif" font-size="10.00">Series.cpp</text>
</a>
</g>
</g>
<!-- Node13&#45;&gt;Node14 -->
<g id="edge22_Node000013_Node000014" class="edge">
<title>Node13&#45;&gt;Node14</title>
<g id="a_edge22_Node000013_Node000014"><a xlink:title=" ">
<path fill="none" stroke="#63b8ff" d="M1461.03,-129.49C1425.85,-119.4 1382.34,-106.93 1349.12,-97.4"/>
<polygon fill="#63b8ff" stroke="#63b8ff" points="1459.63,-132.72 1470.21,-132.12 1461.56,-126 1459.63,-132.72"/>
</a>
</g>
</g>
<!-- Node13&#45;&gt;Node15 -->
<g id="edge23_Node000013_Node000015" class="edge">
<title>Node13&#45;&gt;Node15</title>
<g id="a_edge23_Node000013_Node000015"><a xlink:title=" ">
<path fill="none" stroke="#63b8ff" d="M1559.45,-127.16C1576.96,-117.5 1597.57,-106.14 1613.56,-97.33"/>
<polygon fill="#63b8ff" stroke="#63b8ff" points="1557.94,-123.99 1550.87,-131.88 1561.32,-130.12 1557.94,-123.99"/>
</a>
</g>
</g>
<!-- Node15&#45;&gt;Node6 -->
<g id="edge24_Node000015_Node000006" class="edge">
<title>Node15&#45;&gt;Node6</title>
<g id="a_edge24_Node000015_Node000006"><a xlink:title=" ">
<path fill="none" stroke="#63b8ff" d="M1556.73,-73.62C1528.84,-71.29 1497.58,-68.72 1469,-66.5 1231.02,-48.01 947.14,-28.26 828.48,-20.11"/>
<polygon fill="#63b8ff" stroke="#63b8ff" points="1556.28,-77.1 1566.54,-74.45 1556.87,-70.12 1556.28,-77.1"/>
</a>
</g>
</g>
<!-- Node15&#45;&gt;Node11 -->
<g id="edge25_Node000015_Node000011" class="edge">
<title>Node15&#45;&gt;Node11</title>
<g id="a_edge25_Node000015_Node000011"><a xlink:title=" ">
<path fill="none" stroke="#63b8ff" d="M1596.14,-61.51C1568.78,-49.5 1534.83,-34.6 1513.53,-25.26"/>
<polygon fill="#63b8ff" stroke="#63b8ff" points="1594.69,-64.69 1605.26,-65.51 1597.51,-58.28 1594.69,-64.69"/>
</a>
</g>
</g>
<!-- Node16 -->
<g id="Node000016" class="node">
<title>Node16</title>
<g id="a_Node000016"><a xlink:href="_spike_event_series_8cpp.html" target="_top" xlink:title=" ">
<polygon fill="white" stroke="#666666" points="1736.75,-30.5 1593.25,-30.5 1593.25,0 1736.75,0 1736.75,-30.5"/>
<text text-anchor="start" x="1601.25" y="-17" font-family="Helvetica,sans-Serif" font-size="10.00">src/nwb/ecephys/SpikeEvent</text>
<text text-anchor="middle" x="1665" y="-5.75" font-family="Helvetica,sans-Serif" font-size="10.00">Series.cpp</text>
</a>
</g>
</g>
<!-- Node15&#45;&gt;Node16 -->
<g id="edge26_Node000015_Node000016" class="edge">
<title>Node15&#45;&gt;Node16</title>
<g id="a_edge26_Node000015_Node000016"><a xlink:title=" ">
<path fill="none" stroke="#63b8ff" d="M1649.72,-55.66C1652.98,-47.25 1656.51,-38.16 1659.35,-30.83"/>
<polygon fill="#63b8ff" stroke="#63b8ff" points="1646.57,-54.11 1646.22,-64.7 1653.1,-56.64 1646.57,-54.11"/>
</a>
</g>
</g>
<!-- Node17&#45;&gt;Node6 -->
<g id="edge28_Node000017_Node000006" class="edge">
<title>Node17&#45;&gt;Node6</title>
<g id="a_edge28_Node000017_Node000006"><a xlink:title=" ">
<path fill="none" stroke="#63b8ff" d="M329.97,-199.55C315.21,-191.33 299.3,-179.42 291,-163.5 284.73,-151.48 284.12,-144.68 291,-133 321.95,-80.46 353.16,-85.81 411,-66.5 514.84,-31.84 643.19,-21.08 715.51,-17.74"/>
<polygon fill="#63b8ff" stroke="#63b8ff" points="328.05,-202.5 338.55,-203.96 331.26,-196.28 328.05,-202.5"/>
</a>
</g>
</g>
<!-- Node18 -->
<g id="Node000018" class="node">
<title>Node18</title>
<g id="a_Node000018"><a xlink:href="_device_8cpp.html" target="_top" xlink:title=" ">
<polygon fill="white" stroke="#666666" points="434.25,-157.88 299.75,-157.88 299.75,-138.62 434.25,-138.62 434.25,-157.88"/>
<text text-anchor="middle" x="367" y="-144.38" font-family="Helvetica,sans-Serif" font-size="10.00">src/nwb/device/Device.cpp</text>
</a>
</g>
</g>
<!-- Node17&#45;&gt;Node18 -->
<g id="edge29_Node000017_Node000018" class="edge">
<title>Node17&#45;&gt;Node18</title>
<g id="a_edge29_Node000017_Node000018"><a xlink:title=" ">
<path fill="none" stroke="#63b8ff" d="M364.25,-193.65C364.98,-181.75 365.88,-167.26 366.45,-158.14"/>
<polygon fill="#63b8ff" stroke="#63b8ff" points="360.78,-193.07 363.65,-203.27 367.76,-193.51 360.78,-193.07"/>
</a>
</g>
</g>
<!-- Node17&#45;&gt;Node19 -->
<g id="edge30_Node000017_Node000019" class="edge">
<title>Node17&#45;&gt;Node19</title>
<g id="a_edge30_Node000017_Node000019"><a xlink:title=" ">
<path fill="none" stroke="#63b8ff" d="M396.98,-200.63C429.6,-188.03 478.01,-169.33 506.55,-158.31"/>
<polygon fill="#63b8ff" stroke="#63b8ff" points="396.05,-197.23 387.98,-204.1 398.57,-203.76 396.05,-197.23"/>
</a>
</g>
</g>
<!-- Node19&#45;&gt;Node6 -->
<g id="edge31_Node000019_Node000006" class="edge">
<title>Node19&#45;&gt;Node6</title>
<g id="a_edge31_Node000019_Node000006"><a xlink:title=" ">
<path fill="none" stroke="#63b8ff" d="M548.26,-130.88C571.66,-110.14 611.21,-75.95 628,-66.5 662.04,-47.35 704.66,-33.59 734.67,-25.36"/>
<polygon fill="#63b8ff" stroke="#63b8ff" points="546.15,-128.07 541.01,-137.33 550.81,-133.3 546.15,-128.07"/>
</a>
</g>
</g>
<!-- Node20 -->
<g id="Node000020" class="node">
<title>Node20</title>
<g id="a_Node000020"><a xlink:href="_electrode_group_8cpp.html" target="_top" xlink:title=" ">
<polygon fill="white" stroke="#666666" points="575.75,-91.38 420.25,-91.38 420.25,-72.12 575.75,-72.12 575.75,-91.38"/>
<text text-anchor="middle" x="498" y="-77.88" font-family="Helvetica,sans-Serif" font-size="10.00">src/nwb/file/ElectrodeGroup.cpp</text>
</a>
</g>
</g>
<!-- Node19&#45;&gt;Node20 -->
<g id="edge32_Node000019_Node000020" class="edge">
<title>Node19&#45;&gt;Node20</title>
<g id="a_edge32_Node000019_Node000020"><a xlink:title=" ">
<path fill="none" stroke="#63b8ff" d="M520.58,-128.27C514.58,-116.17 507.08,-101.05 502.41,-91.64"/>
<polygon fill="#63b8ff" stroke="#63b8ff" points="517.3,-129.52 524.88,-136.93 523.57,-126.41 517.3,-129.52"/>
</a>
</g>
</g>
<!-- Node21&#45;&gt;Node8 -->
<g id="edge37_Node000021_Node000008" class="edge">
<title>Node21&#45;&gt;Node8</title>
<g id="a_edge37_Node000021_Node000008"><a xlink:title=" ">
<path fill="none" stroke="#63b8ff" d="M919.57,-131.56C903.36,-119.11 881.27,-102.15 867.85,-91.85"/>
<polygon fill="#63b8ff" stroke="#63b8ff" points="917.06,-134.05 927.12,-137.36 921.32,-128.49 917.06,-134.05"/>
</a>
</g>
</g>
<!-- Node21&#45;&gt;Node14 -->
<g id="edge38_Node000021_Node000014" class="edge">
<title>Node21&#45;&gt;Node14</title>
<g id="a_edge38_Node000021_Node000014"><a xlink:title=" ">
<path fill="none" stroke="#63b8ff" d="M1001.62,-136.15C1065.42,-124.65 1164.79,-106.75 1230.63,-94.89"/>
<polygon fill="#63b8ff" stroke="#63b8ff" points="1001.24,-132.66 992.02,-137.88 1002.49,-139.55 1001.24,-132.66"/>
</a>
</g>
</g>
<!-- Node22 -->
<g id="Node000022" class="node">
<title>Node22</title>
<g id="a_Node000022"><a xlink:href="_electrode_table_8cpp.html" target="_top" xlink:title=" ">
<polygon fill="white" stroke="#666666" points="1182.25,-91.38 1029.75,-91.38 1029.75,-72.12 1182.25,-72.12 1182.25,-91.38"/>
<text text-anchor="middle" x="1106" y="-77.88" font-family="Helvetica,sans-Serif" font-size="10.00">src/nwb/file/ElectrodeTable.cpp</text>
</a>
</g>
</g>
<!-- Node21&#45;&gt;Node22 -->
<g id="edge39_Node000021_Node000022" class="edge">
<title>Node21&#45;&gt;Node22</title>
<g id="a_edge39_Node000021_Node000022"><a xlink:title=" ">
<path fill="none" stroke="#63b8ff" d="M973.78,-134.13C1006.2,-121.53 1054.32,-102.83 1082.69,-91.81"/>
<polygon fill="#63b8ff" stroke="#63b8ff" points="972.9,-130.71 964.84,-137.6 975.43,-137.24 972.9,-130.71"/>
</a>
</g>
</g>
<!-- Node23&#45;&gt;Node9 -->
<g id="edge42_Node000023_Node000009" class="edge">
<title>Node23&#45;&gt;Node9</title>
<g id="a_edge42_Node000023_Node000009"><a xlink:title=" ">
<path fill="none" stroke="#63b8ff" d="M773.12,-269.85C862.15,-259.77 1000.83,-244 1121,-230 1136.11,-228.24 1152.28,-226.33 1167.71,-224.51"/>
<polygon fill="#63b8ff" stroke="#63b8ff" points="772.75,-266.37 763.21,-270.97 773.54,-273.33 772.75,-266.37"/>
</a>
</g>
</g>
<!-- Node23&#45;&gt;Node11 -->
<g id="edge41_Node000023_Node000011" class="edge">
<title>Node23&#45;&gt;Node11</title>
<g id="a_edge41_Node000023_Node000011"><a xlink:title=" ">
<path fill="none" stroke="#63b8ff" d="M704.69,-264.32C715.5,-255.6 727.16,-243.77 733,-230 738.29,-217.52 737.51,-212.28 733,-199.5 726.17,-180.12 710.83,-182.88 704,-163.5 699.49,-150.72 697.99,-145.15 704,-133 725.57,-89.37 745.49,-83.74 791,-66.5 902.27,-24.36 1250.51,-17.25 1410.78,-16.27"/>
<polygon fill="#63b8ff" stroke="#63b8ff" points="702.7,-261.44 696.8,-270.24 706.9,-267.04 702.7,-261.44"/>
</a>
</g>
</g>
<!-- Node23&#45;&gt;Node17 -->
<g id="edge43_Node000023_Node000017" class="edge">
<title>Node23&#45;&gt;Node17</title>
<g id="a_edge43_Node000023_Node000017"><a xlink:title=" ">
<path fill="none" stroke="#63b8ff" d="M625.01,-268.89C563.2,-256.36 464.9,-236.42 407.92,-224.86"/>
<polygon fill="#63b8ff" stroke="#63b8ff" points="624.13,-272.29 634.63,-270.84 625.52,-265.43 624.13,-272.29"/>
</a>
</g>
</g>
<!-- Node23&#45;&gt;Node19 -->
<g id="edge44_Node000023_Node000019" class="edge">
<title>Node23&#45;&gt;Node19</title>
<g id="a_edge44_Node000023_Node000019"><a xlink:title=" ">
<path fill="none" stroke="#63b8ff" d="M618.02,-267.96C594.76,-260.52 569.97,-248.69 553,-230 534.29,-209.39 530.69,-174.58 530.08,-158.24"/>
<polygon fill="#63b8ff" stroke="#63b8ff" points="616.88,-271.27 627.46,-270.74 618.86,-264.56 616.88,-271.27"/>
</a>
</g>
</g>
<!-- Node24 -->
<g id="Node000024" class="node">
<title>Node24</title>
<g id="a_Node000024"><a xlink:href="_container_8cpp.html" target="_top" xlink:title=" ">
<polygon fill="white" stroke="#666666" points="724.12,-224.38 561.88,-224.38 561.88,-205.12 724.12,-205.12 724.12,-224.38"/>
<text text-anchor="middle" x="643" y="-210.88" font-family="Helvetica,sans-Serif" font-size="10.00">src/nwb/hdmf/base/Container.cpp</text>
</a>
</g>
</g>
<!-- Node23&#45;&gt;Node24 -->
<g id="edge45_Node000023_Node000024" class="edge">
<title>Node23&#45;&gt;Node24</title>
<g id="a_edge45_Node000023_Node000024"><a xlink:title=" ">
<path fill="none" stroke="#63b8ff" d="M670.03,-261.64C662.87,-249.48 653.84,-234.14 648.24,-224.64"/>
<polygon fill="#63b8ff" stroke="#63b8ff" points="666.86,-263.14 674.95,-269.98 672.89,-259.58 666.86,-263.14"/>
</a>
</g>
</g>
<!-- Node23&#45;&gt;Node25 -->
<g id="edge46_Node000023_Node000025" class="edge">
<title>Node23&#45;&gt;Node25</title>
<g id="a_edge46_Node000023_Node000025"><a xlink:title=" ">
<path fill="none" stroke="#63b8ff" d="M718.16,-267.43C749.11,-256.76 793.19,-241.55 825.53,-230.4"/>
<polygon fill="#63b8ff" stroke="#63b8ff" points="717.14,-264.08 708.83,-270.65 719.42,-270.7 717.14,-264.08"/>
</a>
</g>
</g>
<!-- Node25&#45;&gt;Node21 -->
<g id="edge47_Node000025_Node000021" class="edge">
<title>Node25&#45;&gt;Node21</title>
<g id="a_edge47_Node000025_Node000021"><a xlink:title=" ">
<path fill="none" stroke="#63b8ff" d="M892.79,-191.54C905.63,-180.04 920.57,-166.65 930.15,-158.07"/>
<polygon fill="#63b8ff" stroke="#63b8ff" points="890.58,-188.82 885.47,-198.1 895.25,-194.04 890.58,-188.82"/>
</a>
</g>
</g>
<!-- Node26 -->
<g id="Node000026" class="node">
<title>Node26</title>
<g id="a_Node000026"><a xlink:href="_dynamic_table_8cpp.html" target="_top" xlink:title=" ">
<polygon fill="white" stroke="#666666" points="846,-163.5 746,-163.5 746,-133 846,-133 846,-163.5"/>
<text text-anchor="start" x="754" y="-150" font-family="Helvetica,sans-Serif" font-size="10.00">src/nwb/hdmf/table</text>
<text text-anchor="middle" x="796" y="-138.75" font-family="Helvetica,sans-Serif" font-size="10.00">/DynamicTable.cpp</text>
</a>
</g>
</g>
<!-- Node25&#45;&gt;Node26 -->
<g id="edge48_Node000025_Node000026" class="edge">
<title>Node25&#45;&gt;Node26</title>
<g id="a_edge48_Node000025_Node000026"><a xlink:title=" ">
<path fill="none" stroke="#63b8ff" d="M843.12,-191.46C832.91,-182.32 821.38,-171.98 812.27,-163.83"/>
<polygon fill="#63b8ff" stroke="#63b8ff" points="840.75,-194.04 850.53,-198.1 845.42,-188.82 840.75,-194.04"/>
</a>
</g>
</g>
<!-- Node28 -->
<g id="Node000028" class="node">
<title>Node28</title>
<g id="a_Node000028"><a xlink:href="_element_identifiers_8hpp.html" target="_top" xlink:title=" ">
<polygon fill="white" stroke="#666666" points="972.25,-296.5 855.75,-296.5 855.75,-266 972.25,-266 972.25,-296.5"/>
<text text-anchor="start" x="863.75" y="-283" font-family="Helvetica,sans-Serif" font-size="10.00">src/nwb/hdmf/table</text>
<text text-anchor="middle" x="914" y="-271.75" font-family="Helvetica,sans-Serif" font-size="10.00">/ElementIdentifiers.hpp</text>
</a>
</g>
</g>
<!-- Node27&#45;&gt;Node28 -->
<g id="edge50_Node000027_Node000028" class="edge">
<title>Node27&#45;&gt;Node28</title>
<g id="a_edge50_Node000027_Node000028"><a xlink:title=" ">
<path fill="none" stroke="#63b8ff" d="M922.6,-321.2C920.83,-313.2 918.83,-304.15 917.21,-296.78"/>
<polygon fill="#63b8ff" stroke="#63b8ff" points="919.13,-321.7 924.7,-330.71 925.96,-320.19 919.13,-321.7"/>
</a>
</g>
</g>
<!-- Node29 -->
<g id="Node000029" class="node">
<title>Node29</title>
<g id="a_Node000029"><a xlink:href="_vector_data_8hpp.html" target="_top" xlink:title=" ">
<polygon fill="white" stroke="#666666" points="1089.62,-296.5 990.38,-296.5 990.38,-266 1089.62,-266 1089.62,-296.5"/>
<text text-anchor="start" x="998.38" y="-283" font-family="Helvetica,sans-Serif" font-size="10.00">src/nwb/hdmf/table</text>
<text text-anchor="middle" x="1040" y="-271.75" font-family="Helvetica,sans-Serif" font-size="10.00">/VectorData.hpp</text>
</a>
</g>
</g>
<!-- Node27&#45;&gt;Node29 -->
<g id="edge53_Node000027_Node000029" class="edge">
<title>Node27&#45;&gt;Node29</title>
<g id="a_edge53_Node000027_Node000029"><a xlink:title=" ">
<path fill="none" stroke="#63b8ff" d="M954.31,-326.9C971.82,-317.77 994.48,-305.96 1012.11,-296.78"/>
<polygon fill="#63b8ff" stroke="#63b8ff" points="952.76,-323.76 945.5,-331.48 955.99,-329.97 952.76,-323.76"/>
</a>
</g>
</g>
<!-- Node28&#45;&gt;Node21 -->
<g id="edge51_Node000028_Node000021" class="edge">
<title>Node28&#45;&gt;Node21</title>
<g id="a_edge51_Node000028_Node000021"><a xlink:title=" ">
<path fill="none" stroke="#63b8ff" d="M921.1,-254.7C923.16,-246.82 925.31,-238.08 927,-230 932.41,-204.15 936.82,-173.24 938.83,-158.26"/>
<polygon fill="#63b8ff" stroke="#63b8ff" points="917.72,-253.79 918.51,-264.36 924.48,-255.61 917.72,-253.79"/>
</a>
</g>
</g>
<!-- Node28&#45;&gt;Node25 -->
<g id="edge52_Node000028_Node000025" class="edge">
<title>Node28&#45;&gt;Node25</title>
<g id="a_edge52_Node000028_Node000025"><a xlink:title=" ">
<path fill="none" stroke="#63b8ff" d="M896.91,-256.29C890.69,-247.57 883.86,-237.99 878.4,-230.33"/>
<polygon fill="#63b8ff" stroke="#63b8ff" points="894.03,-258.27 902.68,-264.38 899.73,-254.21 894.03,-258.27"/>
</a>
</g>
</g>
<!-- Node29&#45;&gt;Node21 -->
<g id="edge54_Node000029_Node000021" class="edge">
<title>Node29&#45;&gt;Node21</title>
<g id="a_edge54_Node000029_Node000021"><a xlink:title=" ">
<path fill="none" stroke="#63b8ff" d="M1022.22,-256.95C999.8,-227.59 962.36,-178.54 946.95,-158.35"/>
<polygon fill="#63b8ff" stroke="#63b8ff" points="1019.15,-258.7 1028,-264.53 1024.71,-254.45 1019.15,-258.7"/>
</a>
</g>
</g>
<!-- Node29&#45;&gt;Node25 -->
<g id="edge55_Node000029_Node000025" class="edge">
<title>Node29&#45;&gt;Node25</title>
<g id="a_edge55_Node000029_Node000025"><a xlink:title=" ">
<path fill="none" stroke="#63b8ff" d="M990.39,-261.65C963.94,-251.73 931.85,-239.7 907.17,-230.44"/>
<polygon fill="#63b8ff" stroke="#63b8ff" points="988.96,-264.85 999.55,-265.08 991.42,-258.29 988.96,-264.85"/>
</a>
</g>
</g>
<!-- Node30 -->
<g id="Node000030" class="node">
<title>Node30</title>
<g id="a_Node000030"><a xlink:href="_vector_data_8cpp.html" target="_top" xlink:title=" ">
<polygon fill="white" stroke="#666666" points="1111.62,-230 1012.38,-230 1012.38,-199.5 1111.62,-199.5 1111.62,-230"/>
<text text-anchor="start" x="1020.38" y="-216.5" font-family="Helvetica,sans-Serif" font-size="10.00">src/nwb/hdmf/table</text>
<text text-anchor="middle" x="1062" y="-205.25" font-family="Helvetica,sans-Serif" font-size="10.00">/VectorData.cpp</text>
</a>
</g>
</g>
<!-- Node29&#45;&gt;Node30 -->
<g id="edge56_Node000029_Node000030" class="edge">
<title>Node29&#45;&gt;Node30</title>
<g id="a_edge56_Node000029_Node000030"><a xlink:title=" ">
<path fill="none" stroke="#63b8ff" d="M1048.65,-254.88C1051.5,-246.55 1054.56,-237.58 1057.03,-230.33"/>
<polygon fill="#63b8ff" stroke="#63b8ff" points="1045.4,-253.59 1045.48,-264.18 1052.02,-255.85 1045.4,-253.59"/>
</a>
</g>
</g>
<!-- Node31&#45;&gt;Node6 -->
<g id="edge60_Node000031_Node000006" class="edge">
<title>Node31&#45;&gt;Node6</title>
<g id="a_edge60_Node000031_Node000006"><a xlink:title=" ">
<path fill="none" stroke="#63b8ff" d="M1581.36,-196.22C1596.11,-179.12 1612.87,-152.87 1599,-133 1574.47,-97.86 1459.87,-75.64 1418,-66.5 1203.96,-19.79 941.72,-15.07 828.49,-15.48"/>
<polygon fill="#63b8ff" stroke="#63b8ff" points="1578.8,-193.83 1574.6,-203.56 1583.95,-198.57 1578.8,-193.83"/>
</a>
</g>
</g>
<!-- Node31&#45;&gt;Node10 -->
<g id="edge61_Node000031_Node000010" class="edge">
<title>Node31&#45;&gt;Node10</title>
<g id="a_edge61_Node000031_Node000010"><a xlink:title=" ">
<path fill="none" stroke="#63b8ff" d="M1518.27,-201.76C1470.26,-189.17 1395.87,-169.67 1352.55,-158.31"/>
<polygon fill="#63b8ff" stroke="#63b8ff" points="1517.25,-205.11 1527.81,-204.26 1519.03,-198.34 1517.25,-205.11"/>
</a>
</g>
</g>
<!-- Node31&#45;&gt;Node13 -->
<g id="edge62_Node000031_Node000013" class="edge">
<title>Node31&#45;&gt;Node13</title>
<g id="a_edge62_Node000031_Node000013"><a xlink:title=" ">
<path fill="none" stroke="#63b8ff" d="M1552.27,-195.3C1545.87,-185.23 1538.06,-172.94 1532.12,-163.59"/>
<polygon fill="#63b8ff" stroke="#63b8ff" points="1549.17,-196.94 1557.49,-203.5 1555.08,-193.19 1549.17,-196.94"/>
</a>
</g>
</g>
<!-- Node31&#45;&gt;Node15 -->
<g id="edge63_Node000031_Node000015" class="edge">
<title>Node31&#45;&gt;Node15</title>
<g id="a_edge63_Node000031_Node000015"><a xlink:title=" ">
<path fill="none" stroke="#63b8ff" d="M1593.85,-199.22C1607.84,-190.79 1623.31,-178.8 1632,-163.5 1643.76,-142.8 1643.48,-114.24 1641.93,-97.22"/>
<polygon fill="#63b8ff" stroke="#63b8ff" points="1592.38,-196.03 1585.37,-203.98 1595.8,-202.14 1592.38,-196.03"/>
</a>
</g>
</g>
<!-- Node31&#45;&gt;Node22 -->
<g id="edge64_Node000031_Node000022" class="edge">
<title>Node31&#45;&gt;Node22</title>
<g id="a_edge64_Node000031_Node000022"><a xlink:title=" ">
<path fill="none" stroke="#63b8ff" d="M1526.81,-200.75C1503.17,-191.77 1472.36,-178.73 1447,-163.5 1428.44,-152.35 1428.77,-141.84 1409,-133 1387.73,-123.49 1254.31,-103.55 1171.76,-91.85"/>
<polygon fill="#63b8ff" stroke="#63b8ff" points="1525.44,-203.97 1536.03,-204.17 1527.88,-197.41 1525.44,-203.97"/>
</a>
</g>
</g>
<!-- Node32 -->
<g id="Node000032" class="node">
<title>Node32</title>
<g id="a_Node000032"><a xlink:href="_channel_8cpp.html" target="_top" xlink:title=" ">
<polygon fill="white" stroke="#666666" points="1771.62,-157.88 1684.38,-157.88 1684.38,-138.62 1771.62,-138.62 1771.62,-157.88"/>
<text text-anchor="middle" x="1728" y="-144.38" font-family="Helvetica,sans-Serif" font-size="10.00">src/Channel.cpp</text>
</a>
</g>
</g>
<!-- Node31&#45;&gt;Node32 -->
<g id="edge59_Node000031_Node000032" class="edge">
<title>Node31&#45;&gt;Node32</title>
<g id="a_edge59_Node000031_Node000032"><a xlink:title=" ">
<path fill="none" stroke="#63b8ff" d="M1597.79,-200.46C1629.82,-187.87 1677.06,-169.28 1704.97,-158.31"/>
<polygon fill="#63b8ff" stroke="#63b8ff" points="1596.58,-197.17 1588.56,-204.09 1599.15,-203.69 1596.58,-197.17"/>
</a>
</g>
</g>
</g>
</svg>

<g id="navigator" transform="translate(0 0)" fill="#404254">
  <rect fill="#f2f5e9" fill-opacity="0.5" stroke="#606060" stroke-width=".5" x="0" y="0" width="60" height="60"/>
  <use id="zoomplus" xlink:href="#zoomPlus" x="17" y="9" onmousedown="handleZoom(evt,'in')"/>
  <use id="zoomminus" xlink:href="#zoomMin" x="42" y="9" onmousedown="handleZoom(evt,'out')"/>
  <use id="reset" xlink:href="#resetDef" x="30" y="36" onmousedown="handleReset()"/>
   <use id="arrowup" xlink:href="#arrowUp" x="0" y="0" onmousedown="handlePan(0,-1)"/>
  <use id="arrowright" xlink:href="#arrowRight" x="0" y="0" onmousedown="handlePan(1,0)"/>
  <use id="arrowdown" xlink:href="#arrowDown" x="0" y="0" onmousedown="handlePan(0,1)"/>
  <use id="arrowleft" xlink:href="#arrowLeft" x="0" y="0" onmousedown="handlePan(-1,0)"/>
</g>
<svg viewBox="0 0 15 15" width="100%" height="30px" preserveAspectRatio="xMaxYMin meet">
 <g id="arrow_out" transform="scale(0.3 0.3)">
  <a xlink:href="_types_8hpp__dep__incl_org.svg" target="_base">
   <rect id="button" ry="5" rx="5" y="6" x="6" height="38" width="38"
        fill="#f2f5e9" fill-opacity="0.5" stroke="#606060" stroke-width="1.0"/>
   <path id="arrow"
     d="M 11.500037,31.436501 C 11.940474,20.09759 22.043105,11.32322 32.158766,21.979434 L 37.068811,17.246167 C 37.068811,17.246167 37.088388,32 37.088388,32 L 22.160133,31.978069 C 22.160133,31.978069 26.997745,27.140456 26.997745,27.140456 C 18.528582,18.264221 13.291696,25.230495 11.500037,31.436501 z"
     style="fill:#404040;"/>
  </a>
 </g>
</svg>

<style type='text/css'>
<![CDATA[
[data-mouse-over-selected='false'] { opacity: 0.7; }
[data-mouse-over-selected='true']  { opacity: 1.0; }
]]>
</style>
<script type="application/ecmascript"><![CDATA[
document.addEventListener('DOMContentLoaded', (event) => {
  highlightEdges();
  highlightAdjacentNodes();
});
]]></script>
</svg>
