<?xml version="1.0" encoding="UTF-8" standalone="no"?>
<!DOCTYPE svg PUBLIC "-//W3C//DTD SVG 1.1//EN"
 "http://www.w3.org/Graphics/SVG/1.1/DTD/svg11.dtd">
<!-- Generated by graphviz version 12.2.1 (20241206.2353)
 -->
<!-- Title: src/Utils.hpp Pages: 1 -->
<svg width="2239pt" height="482pt"
 viewBox="0.00 0.00 2238.70 481.50" xmlns="http://www.w3.org/2000/svg" xmlns:xlink="http://www.w3.org/1999/xlink">
<g id="graph0" class="graph" transform="scale(1 1) rotate(0) translate(4 477.5)">
<title>src/Utils.hpp</title>
<!-- Node1 -->
<g id="Node000001" class="node">
<title>Node1</title>
<g id="a_Node000001"><a xlink:title=" ">
<polygon fill="#999999" stroke="#666666" points="1324.12,-473.5 1252.62,-473.5 1252.62,-454.25 1324.12,-454.25 1324.12,-473.5"/>
<text text-anchor="middle" x="1288.38" y="-460" font-family="Helvetica,sans-Serif" font-size="10.00">src/Utils.hpp</text>
</a>
</g>
</g>
<!-- Node2 -->
<g id="Node000002" class="node">
<title>Node2</title>
<g id="a_Node000002"><a xlink:href="_base_i_o_8cpp.html" target="_top" xlink:title=" ">
<polygon fill="white" stroke="#666666" points="94.75,-412.62 0,-412.62 0,-393.38 94.75,-393.38 94.75,-412.62"/>
<text text-anchor="middle" x="47.38" y="-399.12" font-family="Helvetica,sans-Serif" font-size="10.00">src/io/BaseIO.cpp</text>
</a>
</g>
</g>
<!-- Node1&#45;&gt;Node2 -->
<g id="edge1_Node000001_Node000002" class="edge">
<title>Node1&#45;&gt;Node2</title>
<g id="a_edge1_Node000001_Node000002"><a xlink:title=" ">
<path fill="none" stroke="#63b8ff" d="M1240.97,-462.4C1049.07,-460.27 329.53,-450.28 104.38,-418.25 95.99,-417.06 87.05,-415.14 78.8,-413.09"/>
<polygon fill="#63b8ff" stroke="#63b8ff" points="1240.76,-465.9 1250.8,-462.51 1240.84,-458.9 1240.76,-465.9"/>
</a>
</g>
</g>
<!-- Node3 -->
<g id="Node000003" class="node">
<title>Node3</title>
<g id="a_Node000003"><a xlink:href="_h_d_f5_i_o_8cpp.html" target="_top" xlink:title=" ">
<polygon fill="white" stroke="#666666" points="233.5,-412.62 113.25,-412.62 113.25,-393.38 233.5,-393.38 233.5,-412.62"/>
<text text-anchor="middle" x="173.38" y="-399.12" font-family="Helvetica,sans-Serif" font-size="10.00">src/io/hdf5/HDF5IO.cpp</text>
</a>
</g>
</g>
<!-- Node1&#45;&gt;Node3 -->
<g id="edge2_Node000001_Node000003" class="edge">
<title>Node1&#45;&gt;Node3</title>
<g id="a_edge2_Node000001_Node000003"><a xlink:title=" ">
<path fill="none" stroke="#63b8ff" d="M1241.12,-461.87C1064.01,-457.95 439.75,-442.68 242.38,-418.25 232.42,-417.02 221.76,-415.11 211.88,-413.09"/>
<polygon fill="#63b8ff" stroke="#63b8ff" points="1240.78,-465.36 1250.85,-462.08 1240.93,-458.37 1240.78,-465.36"/>
</a>
</g>
</g>
<!-- Node4 -->
<g id="Node000004" class="node">
<title>Node4</title>
<g id="a_Node000004"><a xlink:href="_h_d_f5_recording_data_8cpp.html" target="_top" xlink:title=" ">
<polygon fill="white" stroke="#666666" points="387,-418.25 251.75,-418.25 251.75,-387.75 387,-387.75 387,-418.25"/>
<text text-anchor="start" x="259.75" y="-404.75" font-family="Helvetica,sans-Serif" font-size="10.00">src/io/hdf5/HDF5Recording</text>
<text text-anchor="middle" x="319.38" y="-393.5" font-family="Helvetica,sans-Serif" font-size="10.00">Data.cpp</text>
</a>
</g>
</g>
<!-- Node1&#45;&gt;Node4 -->
<g id="edge3_Node000001_Node000004" class="edge">
<title>Node1&#45;&gt;Node4</title>
<g id="a_edge3_Node000001_Node000004"><a xlink:title=" ">
<path fill="none" stroke="#63b8ff" d="M1241.01,-462.52C1108.16,-461.08 720.81,-453.91 401.38,-418.25 396.78,-417.74 392.05,-417.13 387.3,-416.46"/>
<polygon fill="#63b8ff" stroke="#63b8ff" points="1240.79,-466.02 1250.83,-462.62 1240.86,-459.02 1240.79,-466.02"/>
</a>
</g>
</g>
<!-- Node5 -->
<g id="Node000005" class="node">
<title>Node5</title>
<g id="a_Node000005"><a xlink:href="_n_w_b_file_8cpp.html" target="_top" xlink:title=" ">
<polygon fill="white" stroke="#666666" points="1309.38,-24.88 1197.38,-24.88 1197.38,-5.63 1309.38,-5.63 1309.38,-24.88"/>
<text text-anchor="middle" x="1253.38" y="-11.38" font-family="Helvetica,sans-Serif" font-size="10.00">src/nwb/NWBFile.cpp</text>
</a>
</g>
</g>
<!-- Node1&#45;&gt;Node5 -->
<g id="edge4_Node000001_Node000005" class="edge">
<title>Node1&#45;&gt;Node5</title>
<g id="a_edge4_Node000001_Node000005"><a xlink:title=" ">
<path fill="none" stroke="#63b8ff" d="M1335.89,-462.35C1505.58,-460.21 2075.61,-450.67 2150.38,-418.25 2194.53,-399.1 2228.38,-391.26 2228.38,-343.12 2228.38,-343.12 2228.38,-343.12 2228.38,-147.25 2228.38,-110.38 2237.67,-90.14 2209.38,-66.5 2174.72,-37.54 1509.64,-21.53 1309.73,-17.36"/>
<polygon fill="#63b8ff" stroke="#63b8ff" points="1336.08,-458.85 1326.12,-462.47 1336.16,-465.85 1336.08,-458.85"/>
</a>
</g>
</g>
<!-- Node6 -->
<g id="Node000006" class="node">
<title>Node6</title>
<g id="a_Node000006"><a xlink:href="_n_w_b_file_8hpp.html" target="_top" xlink:title=" ">
<polygon fill="white" stroke="#666666" points="1309.38,-91.38 1197.38,-91.38 1197.38,-72.12 1309.38,-72.12 1309.38,-91.38"/>
<text text-anchor="middle" x="1253.38" y="-77.88" font-family="Helvetica,sans-Serif" font-size="10.00">src/nwb/NWBFile.hpp</text>
</a>
</g>
</g>
<!-- Node1&#45;&gt;Node6 -->
<g id="edge5_Node000001_Node000006" class="edge">
<title>Node1&#45;&gt;Node6</title>
<g id="a_edge5_Node000001_Node000006"><a xlink:title=" ">
<path fill="none" stroke="#63b8ff" d="M1261.92,-447.82C1231.11,-428.09 1184.38,-390.38 1184.38,-343.12 1184.38,-343.12 1184.38,-343.12 1184.38,-280.25 1184.38,-224.64 1211.44,-216.14 1229.38,-163.5 1238.15,-137.75 1246.84,-106.79 1250.94,-91.79"/>
<polygon fill="#63b8ff" stroke="#63b8ff" points="1260.02,-450.76 1270.38,-453.01 1263.69,-444.8 1260.02,-450.76"/>
</a>
</g>
</g>
<!-- Node7 -->
<g id="Node000007" class="node">
<title>Node7</title>
<g id="a_Node000007"><a xlink:href="_registered_type_8cpp.html" target="_top" xlink:title=" ">
<polygon fill="white" stroke="#666666" points="1526.62,-351.75 1386.12,-351.75 1386.12,-332.5 1526.62,-332.5 1526.62,-351.75"/>
<text text-anchor="middle" x="1456.38" y="-338.25" font-family="Helvetica,sans-Serif" font-size="10.00">src/nwb/RegisteredType.cpp</text>
</a>
</g>
</g>
<!-- Node1&#45;&gt;Node7 -->
<g id="edge7_Node000001_Node000007" class="edge">
<title>Node1&#45;&gt;Node7</title>
<g id="a_edge7_Node000001_Node000007"><a xlink:title=" ">
<path fill="none" stroke="#63b8ff" d="M1318.67,-448.99C1335.12,-440.92 1355.49,-430.03 1372.38,-418.25 1402.22,-397.43 1433.04,-367.21 1447.66,-352.23"/>
<polygon fill="#63b8ff" stroke="#63b8ff" points="1317.37,-445.74 1309.87,-453.22 1320.4,-452.05 1317.37,-445.74"/>
</a>
</g>
</g>
<!-- Node8 -->
<g id="Node000008" class="node">
<title>Node8</title>
<g id="a_Node000008"><a xlink:href="_registered_type_8hpp.html" target="_top" xlink:title=" ">
<polygon fill="white" stroke="#666666" points="1564.62,-412.62 1424.12,-412.62 1424.12,-393.38 1564.62,-393.38 1564.62,-412.62"/>
<text text-anchor="middle" x="1494.38" y="-399.12" font-family="Helvetica,sans-Serif" font-size="10.00">src/nwb/RegisteredType.hpp</text>
</a>
</g>
</g>
<!-- Node1&#45;&gt;Node8 -->
<g id="edge8_Node000001_Node000008" class="edge">
<title>Node1&#45;&gt;Node8</title>
<g id="a_edge8_Node000001_Node000008"><a xlink:title=" ">
<path fill="none" stroke="#63b8ff" d="M1331.14,-450.65C1370.3,-439.46 1427.35,-423.15 1462.6,-413.08"/>
<polygon fill="#63b8ff" stroke="#63b8ff" points="1330.22,-447.28 1321.57,-453.39 1332.14,-454.01 1330.22,-447.28"/>
</a>
</g>
</g>
<!-- Node11 -->
<g id="Node000011" class="node">
<title>Node11</title>
<g id="a_Node000011"><a xlink:href="_time_series_8hpp.html" target="_top" xlink:title=" ">
<polygon fill="white" stroke="#666666" points="1080.25,-224.38 934.5,-224.38 934.5,-205.12 1080.25,-205.12 1080.25,-224.38"/>
<text text-anchor="middle" x="1007.38" y="-210.88" font-family="Helvetica,sans-Serif" font-size="10.00">src/nwb/base/TimeSeries.hpp</text>
</a>
</g>
</g>
<!-- Node1&#45;&gt;Node11 -->
<g id="edge56_Node000001_Node000011" class="edge">
<title>Node1&#45;&gt;Node11</title>
<g id="a_edge56_Node000001_Node000011"><a xlink:title=" ">
<path fill="none" stroke="#63b8ff" d="M1241.1,-456.97C1191.07,-449.87 1116.34,-436.59 1094.38,-418.25 1030.63,-365.04 1012.44,-256.54 1008.38,-224.71"/>
<polygon fill="#63b8ff" stroke="#63b8ff" points="1240.43,-460.41 1250.81,-458.31 1241.38,-453.48 1240.43,-460.41"/>
</a>
</g>
</g>
<!-- Node13 -->
<g id="Node000013" class="node">
<title>Node13</title>
<g id="a_Node000013"><a xlink:href="_time_series_8cpp.html" target="_top" xlink:title=" ">
<polygon fill="white" stroke="#666666" points="1187.25,-157.88 1041.5,-157.88 1041.5,-138.62 1187.25,-138.62 1187.25,-157.88"/>
<text text-anchor="middle" x="1114.38" y="-144.38" font-family="Helvetica,sans-Serif" font-size="10.00">src/nwb/base/TimeSeries.cpp</text>
</a>
</g>
</g>
<!-- Node1&#45;&gt;Node13 -->
<g id="edge55_Node000001_Node000013" class="edge">
<title>Node1&#45;&gt;Node13</title>
<g id="a_edge55_Node000001_Node000013"><a xlink:title=" ">
<path fill="none" stroke="#63b8ff" d="M1241.44,-453.11C1188.11,-438.95 1108.38,-407.08 1108.38,-343.12 1108.38,-343.12 1108.38,-343.12 1108.38,-280.25 1108.38,-234.26 1112.11,-179.29 1113.69,-158.14"/>
<polygon fill="#63b8ff" stroke="#63b8ff" points="1240.36,-456.45 1250.91,-455.5 1242.07,-449.66 1240.36,-456.45"/>
</a>
</g>
</g>
<!-- Node14 -->
<g id="Node000014" class="node">
<title>Node14</title>
<g id="a_Node000014"><a xlink:href="_electrical_series_8hpp.html" target="_top" xlink:title=" ">
<polygon fill="white" stroke="#666666" points="615.25,-163.5 481.5,-163.5 481.5,-133 615.25,-133 615.25,-163.5"/>
<text text-anchor="start" x="489.5" y="-150" font-family="Helvetica,sans-Serif" font-size="10.00">src/nwb/ecephys/Electrical</text>
<text text-anchor="middle" x="548.38" y="-138.75" font-family="Helvetica,sans-Serif" font-size="10.00">Series.hpp</text>
</a>
</g>
</g>
<!-- Node1&#45;&gt;Node14 -->
<g id="edge59_Node000001_Node000014" class="edge">
<title>Node1&#45;&gt;Node14</title>
<g id="a_edge59_Node000001_Node000014"><a xlink:title=" ">
<path fill="none" stroke="#63b8ff" d="M1240.98,-461.11C1064.2,-453.93 453.38,-423.29 453.38,-343.12 453.38,-343.12 453.38,-343.12 453.38,-280.25 453.38,-229.68 500.34,-185.46 528.23,-163.66"/>
<polygon fill="#63b8ff" stroke="#63b8ff" points="1240.58,-464.6 1250.72,-461.5 1240.86,-457.61 1240.58,-464.6"/>
</a>
</g>
</g>
<!-- Node15 -->
<g id="Node000015" class="node">
<title>Node15</title>
<g id="a_Node000015"><a xlink:href="_electrical_series_8cpp.html" target="_top" xlink:title=" ">
<polygon fill="white" stroke="#666666" points="1856.25,-97 1722.5,-97 1722.5,-66.5 1856.25,-66.5 1856.25,-97"/>
<text text-anchor="start" x="1730.5" y="-83.5" font-family="Helvetica,sans-Serif" font-size="10.00">src/nwb/ecephys/Electrical</text>
<text text-anchor="middle" x="1789.38" y="-72.25" font-family="Helvetica,sans-Serif" font-size="10.00">Series.cpp</text>
</a>
</g>
</g>
<!-- Node1&#45;&gt;Node15 -->
<g id="edge58_Node000001_Node000015" class="edge">
<title>Node1&#45;&gt;Node15</title>
<g id="a_edge58_Node000001_Node000015"><a xlink:title=" ">
<path fill="none" stroke="#63b8ff" d="M1335.7,-462.23C1469.28,-460 1847.25,-450.93 1966.38,-418.25 2037.51,-398.74 2114.38,-416.89 2114.38,-343.12 2114.38,-343.12 2114.38,-343.12 2114.38,-213.75 2114.38,-158.69 1951.91,-116 1856.72,-95.72"/>
<polygon fill="#63b8ff" stroke="#63b8ff" points="1335.74,-458.72 1325.8,-462.38 1335.85,-465.72 1335.74,-458.72"/>
</a>
</g>
</g>
<!-- Node16 -->
<g id="Node000016" class="node">
<title>Node16</title>
<g id="a_Node000016"><a xlink:href="_spike_event_series_8hpp.html" target="_top" xlink:title=" ">
<polygon fill="white" stroke="#666666" points="468.12,-97 324.62,-97 324.62,-66.5 468.12,-66.5 468.12,-97"/>
<text text-anchor="start" x="332.62" y="-83.5" font-family="Helvetica,sans-Serif" font-size="10.00">src/nwb/ecephys/SpikeEvent</text>
<text text-anchor="middle" x="396.38" y="-72.25" font-family="Helvetica,sans-Serif" font-size="10.00">Series.hpp</text>
</a>
</g>
</g>
<!-- Node1&#45;&gt;Node16 -->
<g id="edge60_Node000001_Node000016" class="edge">
<title>Node1&#45;&gt;Node16</title>
<g id="a_edge60_Node000001_Node000016"><a xlink:title=" ">
<path fill="none" stroke="#63b8ff" d="M1241.16,-463.09C1097.67,-463.28 668.53,-460.21 536.38,-418.25 476.04,-399.09 415.38,-406.42 415.38,-343.12 415.38,-343.12 415.38,-343.12 415.38,-213.75 415.38,-171.01 405.35,-121.22 399.86,-97.19"/>
<polygon fill="#63b8ff" stroke="#63b8ff" points="1241.06,-466.59 1251.05,-463.07 1241.05,-459.59 1241.06,-466.59"/>
</a>
</g>
</g>
<!-- Node18 -->
<g id="Node000018" class="node">
<title>Node18</title>
<g id="a_Node000018"><a xlink:href="_annotation_series_8hpp.html" target="_top" xlink:title=" ">
<polygon fill="white" stroke="#666666" points="803.62,-157.88 633.12,-157.88 633.12,-138.62 803.62,-138.62 803.62,-157.88"/>
<text text-anchor="middle" x="718.38" y="-144.38" font-family="Helvetica,sans-Serif" font-size="10.00">src/nwb/misc/AnnotationSeries.hpp</text>
</a>
</g>
</g>
<!-- Node1&#45;&gt;Node18 -->
<g id="edge67_Node000001_Node000018" class="edge">
<title>Node1&#45;&gt;Node18</title>
<g id="a_edge67_Node000001_Node000018"><a xlink:title=" ">
<path fill="none" stroke="#63b8ff" d="M1240.81,-460.99C1120.28,-454.93 812.38,-430.85 812.38,-343.12 812.38,-343.12 812.38,-343.12 812.38,-280.25 812.38,-225.11 756.71,-177.26 731.05,-158.13"/>
<polygon fill="#63b8ff" stroke="#63b8ff" points="1240.54,-464.48 1250.7,-461.47 1240.87,-457.49 1240.54,-464.48"/>
</a>
</g>
</g>
<!-- Node19 -->
<g id="Node000019" class="node">
<title>Node19</title>
<g id="a_Node000019"><a xlink:href="_annotation_series_8cpp.html" target="_top" xlink:title=" ">
<polygon fill="white" stroke="#666666" points="1169.62,-91.38 999.12,-91.38 999.12,-72.12 1169.62,-72.12 1169.62,-91.38"/>
<text text-anchor="middle" x="1084.38" y="-77.88" font-family="Helvetica,sans-Serif" font-size="10.00">src/nwb/misc/AnnotationSeries.cpp</text>
</a>
</g>
</g>
<!-- Node1&#45;&gt;Node19 -->
<g id="edge66_Node000001_Node000019" class="edge">
<title>Node1&#45;&gt;Node19</title>
<g id="a_edge66_Node000001_Node000019"><a xlink:title=" ">
<path fill="none" stroke="#63b8ff" d="M1275.71,-444.66C1255.98,-415.15 1218.61,-354.33 1203.38,-296.5 1184.85,-226.17 1237.2,-193.2 1196.38,-133 1181.72,-111.39 1155.45,-98.96 1132.03,-91.87"/>
<polygon fill="#63b8ff" stroke="#63b8ff" points="1272.73,-446.51 1281.25,-452.81 1278.52,-442.57 1272.73,-446.51"/>
</a>
</g>
</g>
<!-- Node20 -->
<g id="Node000020" class="node">
<title>Node20</title>
<g id="a_Node000020"><a xlink:href="_device_8hpp.html" target="_top" xlink:title=" ">
<polygon fill="white" stroke="#666666" points="1564.62,-224.38 1430.12,-224.38 1430.12,-205.12 1564.62,-205.12 1564.62,-224.38"/>
<text text-anchor="middle" x="1497.38" y="-210.88" font-family="Helvetica,sans-Serif" font-size="10.00">src/nwb/device/Device.hpp</text>
</a>
</g>
</g>
<!-- Node1&#45;&gt;Node20 -->
<g id="edge57_Node000001_Node000020" class="edge">
<title>Node1&#45;&gt;Node20</title>
<g id="a_edge57_Node000001_Node000020"><a xlink:title=" ">
<path fill="none" stroke="#63b8ff" d="M1299.48,-444.17C1315.35,-418.08 1346.05,-369.76 1377.38,-332.5 1414.04,-288.89 1464.9,-243.62 1486.73,-224.8"/>
<polygon fill="#63b8ff" stroke="#63b8ff" points="1296.57,-442.23 1294.42,-452.6 1302.57,-445.84 1296.57,-442.23"/>
</a>
</g>
</g>
<!-- Node23 -->
<g id="Node000023" class="node">
<title>Node23</title>
<g id="a_Node000023"><a xlink:href="_electrode_group_8cpp.html" target="_top" xlink:title=" ">
<polygon fill="white" stroke="#666666" points="2030.12,-91.38 1874.62,-91.38 1874.62,-72.12 2030.12,-72.12 2030.12,-91.38"/>
<text text-anchor="middle" x="1952.38" y="-77.88" font-family="Helvetica,sans-Serif" font-size="10.00">src/nwb/file/ElectrodeGroup.cpp</text>
</a>
</g>
</g>
<!-- Node1&#45;&gt;Node23 -->
<g id="edge61_Node000001_Node000023" class="edge">
<title>Node1&#45;&gt;Node23</title>
<g id="a_edge61_Node000001_Node000023"><a xlink:title=" ">
<path fill="none" stroke="#63b8ff" d="M1336.02,-463.44C1480.78,-464.65 1913.58,-464.21 2045.38,-418.25 2100.24,-399.12 2152.38,-401.23 2152.38,-343.12 2152.38,-343.12 2152.38,-343.12 2152.38,-213.75 2152.38,-140.9 2058.38,-106.37 1999.27,-91.85"/>
<polygon fill="#63b8ff" stroke="#63b8ff" points="1336.05,-459.94 1326.02,-463.35 1335.99,-466.94 1336.05,-459.94"/>
</a>
</g>
</g>
<!-- Node25 -->
<g id="Node000025" class="node">
<title>Node25</title>
<g id="a_Node000025"><a xlink:href="_dynamic_table_8hpp.html" target="_top" xlink:title=" ">
<polygon fill="white" stroke="#666666" points="1892.38,-230 1792.38,-230 1792.38,-199.5 1892.38,-199.5 1892.38,-230"/>
<text text-anchor="start" x="1800.38" y="-216.5" font-family="Helvetica,sans-Serif" font-size="10.00">src/nwb/hdmf/table</text>
<text text-anchor="middle" x="1842.38" y="-205.25" font-family="Helvetica,sans-Serif" font-size="10.00">/DynamicTable.hpp</text>
</a>
</g>
</g>
<!-- Node1&#45;&gt;Node25 -->
<g id="edge64_Node000001_Node000025" class="edge">
<title>Node1&#45;&gt;Node25</title>
<g id="a_edge64_Node000001_Node000025"><a xlink:title=" ">
<path fill="none" stroke="#63b8ff" d="M1335.86,-462.11C1434.98,-458.7 1668.76,-441 1838.38,-351.75 1881.18,-329.23 1926.36,-309.58 1905.38,-266 1898.09,-250.87 1883.79,-238.89 1870.66,-230.42"/>
<polygon fill="#63b8ff" stroke="#63b8ff" points="1335.86,-458.61 1325.97,-462.42 1336.07,-465.61 1335.86,-458.61"/>
</a>
</g>
</g>
<!-- Node27 -->
<g id="Node000027" class="node">
<title>Node27</title>
<g id="a_Node000027"><a xlink:href="_electrode_table_8cpp.html" target="_top" xlink:title=" ">
<polygon fill="white" stroke="#666666" points="2200.62,-91.38 2048.12,-91.38 2048.12,-72.12 2200.62,-72.12 2200.62,-91.38"/>
<text text-anchor="middle" x="2124.38" y="-77.88" font-family="Helvetica,sans-Serif" font-size="10.00">src/nwb/file/ElectrodeTable.cpp</text>
</a>
</g>
</g>
<!-- Node1&#45;&gt;Node27 -->
<g id="edge62_Node000001_Node000027" class="edge">
<title>Node1&#45;&gt;Node27</title>
<g id="a_edge62_Node000001_Node000027"><a xlink:title=" ">
<path fill="none" stroke="#63b8ff" d="M1335.61,-462.05C1498.59,-458.94 2031.28,-446.7 2102.38,-418.25 2150.12,-399.14 2190.38,-394.55 2190.38,-343.12 2190.38,-343.12 2190.38,-343.12 2190.38,-213.75 2190.38,-163.07 2150.49,-112.02 2132.73,-91.8"/>
<polygon fill="#63b8ff" stroke="#63b8ff" points="1335.97,-458.54 1326.04,-462.22 1336.1,-465.54 1335.97,-458.54"/>
</a>
</g>
</g>
<!-- Node28 -->
<g id="Node000028" class="node">
<title>Node28</title>
<g id="a_Node000028"><a xlink:href="_dynamic_table_8cpp.html" target="_top" xlink:title=" ">
<polygon fill="white" stroke="#666666" points="1807.38,-163.5 1707.38,-163.5 1707.38,-133 1807.38,-133 1807.38,-163.5"/>
<text text-anchor="start" x="1715.38" y="-150" font-family="Helvetica,sans-Serif" font-size="10.00">src/nwb/hdmf/table</text>
<text text-anchor="middle" x="1757.38" y="-138.75" font-family="Helvetica,sans-Serif" font-size="10.00">/DynamicTable.cpp</text>
</a>
</g>
</g>
<!-- Node1&#45;&gt;Node28 -->
<g id="edge63_Node000001_Node000028" class="edge">
<title>Node1&#45;&gt;Node28</title>
<g id="a_edge63_Node000001_Node000028"><a xlink:title=" ">
<path fill="none" stroke="#63b8ff" d="M1335.81,-461.63C1407.69,-458.75 1539.46,-449.27 1573.38,-418.25 1624.84,-371.18 1585.39,-330.72 1611.38,-266 1624.06,-234.41 1624.32,-222.54 1649.38,-199.5 1666.58,-183.68 1689.63,-172.04 1710.03,-163.96"/>
<polygon fill="#63b8ff" stroke="#63b8ff" points="1335.76,-458.13 1325.9,-461.99 1336.02,-465.12 1335.76,-458.13"/>
</a>
</g>
</g>
<!-- Node33 -->
<g id="Node000033" class="node">
<title>Node33</title>
<g id="a_Node000033"><a xlink:href="_vector_data_8hpp.html" target="_top" xlink:title=" ">
<polygon fill="white" stroke="#666666" points="2052,-296.5 1952.75,-296.5 1952.75,-266 2052,-266 2052,-296.5"/>
<text text-anchor="start" x="1960.75" y="-283" font-family="Helvetica,sans-Serif" font-size="10.00">src/nwb/hdmf/table</text>
<text text-anchor="middle" x="2002.38" y="-271.75" font-family="Helvetica,sans-Serif" font-size="10.00">/VectorData.hpp</text>
</a>
</g>
</g>
<!-- Node1&#45;&gt;Node33 -->
<g id="edge65_Node000001_Node000033" class="edge">
<title>Node1&#45;&gt;Node33</title>
<g id="a_edge65_Node000001_Node000033"><a xlink:title=" ">
<path fill="none" stroke="#63b8ff" d="M1335.89,-462.36C1477.34,-460.45 1888.99,-452.02 1938.38,-418.25 1980.38,-389.53 1995.53,-325.65 2000.36,-296.84"/>
<polygon fill="#63b8ff" stroke="#63b8ff" points="1336.08,-458.86 1326.13,-462.49 1336.17,-465.86 1336.08,-458.86"/>
</a>
</g>
</g>
<!-- Node6&#45;&gt;Node5 -->
<g id="edge6_Node000006_Node000005" class="edge">
<title>Node6&#45;&gt;Node5</title>
<g id="a_edge6_Node000006_Node000005"><a xlink:title=" ">
<path fill="none" stroke="#63b8ff" d="M1253.38,-60.27C1253.38,-48.44 1253.38,-34.16 1253.38,-25.14"/>
<polygon fill="#63b8ff" stroke="#63b8ff" points="1249.88,-60.27 1253.38,-70.27 1256.88,-60.27 1249.88,-60.27"/>
</a>
</g>
</g>
<!-- Node8&#45;&gt;Node7 -->
<g id="edge9_Node000008_Node000007" class="edge">
<title>Node8&#45;&gt;Node7</title>
<g id="a_edge9_Node000008_Node000007"><a xlink:title=" ">
<path fill="none" stroke="#63b8ff" d="M1482.47,-383.56C1475.72,-373.1 1467.58,-360.48 1462.2,-352.15"/>
<polygon fill="#63b8ff" stroke="#63b8ff" points="1479.42,-385.28 1487.78,-391.79 1485.3,-381.49 1479.42,-385.28"/>
</a>
</g>
</g>
<!-- Node9 -->
<g id="Node000009" class="node">
<title>Node9</title>
<g id="a_Node000009"><a xlink:href="_container_8hpp.html" target="_top" xlink:title=" ">
<polygon fill="white" stroke="#666666" points="1374.5,-290.88 1212.25,-290.88 1212.25,-271.62 1374.5,-271.62 1374.5,-290.88"/>
<text text-anchor="middle" x="1293.38" y="-277.38" font-family="Helvetica,sans-Serif" font-size="10.00">src/nwb/hdmf/base/Container.hpp</text>
</a>
</g>
</g>
<!-- Node8&#45;&gt;Node9 -->
<g id="edge10_Node000008_Node000009" class="edge">
<title>Node8&#45;&gt;Node9</title>
<g id="a_edge10_Node000008_Node000009"><a xlink:title=" ">
<path fill="none" stroke="#63b8ff" d="M1515.34,-385.54C1531.49,-370.86 1548.95,-349.19 1535.38,-332.5 1515.27,-307.79 1437.06,-294.84 1374.92,-288.32"/>
<polygon fill="#63b8ff" stroke="#63b8ff" points="1513.2,-382.76 1507.86,-391.91 1517.74,-388.09 1513.2,-382.76"/>
</a>
</g>
</g>
<!-- Node29 -->
<g id="Node000029" class="node">
<title>Node29</title>
<g id="a_Node000029"><a xlink:href="_data_8hpp.html" target="_top" xlink:title=" ">
<polygon fill="white" stroke="#666666" points="1829.38,-351.75 1687.38,-351.75 1687.38,-332.5 1829.38,-332.5 1829.38,-351.75"/>
<text text-anchor="middle" x="1758.38" y="-338.25" font-family="Helvetica,sans-Serif" font-size="10.00">src/nwb/hdmf/base/Data.hpp</text>
</a>
</g>
</g>
<!-- Node8&#45;&gt;Node29 -->
<g id="edge45_Node000008_Node000029" class="edge">
<title>Node8&#45;&gt;Node29</title>
<g id="a_edge45_Node000008_Node000029"><a xlink:title=" ">
<path fill="none" stroke="#63b8ff" d="M1545.99,-390.49C1596.21,-379.29 1671.52,-362.5 1717.66,-352.21"/>
<polygon fill="#63b8ff" stroke="#63b8ff" points="1545.52,-387.01 1536.52,-392.6 1547.05,-393.84 1545.52,-387.01"/>
</a>
</g>
</g>
<!-- Node9&#45;&gt;Node6 -->
<g id="edge11_Node000009_Node000006" class="edge">
<title>Node9&#45;&gt;Node6</title>
<g id="a_edge11_Node000009_Node000006"><a xlink:title=" ">
<path fill="none" stroke="#63b8ff" d="M1269.68,-264.32C1258.88,-255.6 1247.22,-243.77 1241.38,-230 1236.08,-217.52 1237.2,-212.4 1241.38,-199.5 1247.45,-180.72 1261.3,-182.28 1267.38,-163.5 1271.55,-150.6 1269.21,-146.43 1267.38,-133 1265.36,-118.28 1260.18,-101.8 1256.72,-91.85"/>
<polygon fill="#63b8ff" stroke="#63b8ff" points="1267.47,-267.04 1277.57,-270.24 1271.68,-261.44 1267.47,-267.04"/>
</a>
</g>
</g>
<!-- Node10 -->
<g id="Node000010" class="node">
<title>Node10</title>
<g id="a_Node000010"><a xlink:href="_recording_containers_8cpp.html" target="_top" xlink:title=" ">
<polygon fill="white" stroke="#666666" points="640.25,-24.88 476.5,-24.88 476.5,-5.63 640.25,-5.63 640.25,-24.88"/>
<text text-anchor="middle" x="558.38" y="-11.38" font-family="Helvetica,sans-Serif" font-size="10.00">src/nwb/RecordingContainers.cpp</text>
</a>
</g>
</g>
<!-- Node9&#45;&gt;Node10 -->
<g id="edge12_Node000009_Node000010" class="edge">
<title>Node9&#45;&gt;Node10</title>
<g id="a_edge12_Node000009_Node000010"><a xlink:title=" ">
<path fill="none" stroke="#63b8ff" d="M1200.5,-273.83C995.67,-258.73 519.51,-218.06 472.38,-163.5 463.51,-153.24 468.14,-145.88 472.38,-133 487.62,-86.6 529.15,-43.48 548.37,-25.31"/>
<polygon fill="#63b8ff" stroke="#63b8ff" points="1200.08,-277.31 1210.31,-274.55 1200.59,-270.33 1200.08,-277.31"/>
</a>
</g>
</g>
<!-- Node9&#45;&gt;Node11 -->
<g id="edge13_Node000009_Node000011" class="edge">
<title>Node9&#45;&gt;Node11</title>
<g id="a_edge13_Node000009_Node000011"><a xlink:title=" ">
<path fill="none" stroke="#63b8ff" d="M1241.96,-268.66C1186.23,-256.09 1098.44,-236.29 1047.54,-224.81"/>
<polygon fill="#63b8ff" stroke="#63b8ff" points="1241,-272.03 1251.53,-270.81 1242.54,-265.2 1241,-272.03"/>
</a>
</g>
</g>
<!-- Node9&#45;&gt;Node20 -->
<g id="edge31_Node000009_Node000020" class="edge">
<title>Node9&#45;&gt;Node20</title>
<g id="a_edge31_Node000009_Node000020"><a xlink:title=" ">
<path fill="none" stroke="#63b8ff" d="M1333.08,-267.7C1372.92,-255.1 1433.33,-236 1468.73,-224.81"/>
<polygon fill="#63b8ff" stroke="#63b8ff" points="1332.09,-264.34 1323.61,-270.69 1334.2,-271.01 1332.09,-264.34"/>
</a>
</g>
</g>
<!-- Node22 -->
<g id="Node000022" class="node">
<title>Node22</title>
<g id="a_Node000022"><a xlink:href="_electrode_group_8hpp.html" target="_top" xlink:title=" ">
<polygon fill="white" stroke="#666666" points="1670.12,-157.88 1514.62,-157.88 1514.62,-138.62 1670.12,-138.62 1670.12,-157.88"/>
<text text-anchor="middle" x="1592.38" y="-144.38" font-family="Helvetica,sans-Serif" font-size="10.00">src/nwb/file/ElectrodeGroup.hpp</text>
</a>
</g>
</g>
<!-- Node9&#45;&gt;Node22 -->
<g id="edge37_Node000009_Node000022" class="edge">
<title>Node9&#45;&gt;Node22</title>
<g id="a_edge37_Node000009_Node000022"><a xlink:title=" ">
<path fill="none" stroke="#63b8ff" d="M1385.88,-274.46C1456.74,-268.1 1546.75,-255.24 1573.38,-230 1593.44,-210.98 1594.1,-175.07 1593.17,-158.3"/>
<polygon fill="#63b8ff" stroke="#63b8ff" points="1385.85,-270.95 1376.19,-275.3 1386.45,-277.92 1385.85,-270.95"/>
</a>
</g>
</g>
<!-- Node24 -->
<g id="Node000024" class="node">
<title>Node24</title>
<g id="a_Node000024"><a xlink:href="_container_8cpp.html" target="_top" xlink:title=" ">
<polygon fill="white" stroke="#666666" points="1412.5,-224.38 1250.25,-224.38 1250.25,-205.12 1412.5,-205.12 1412.5,-224.38"/>
<text text-anchor="middle" x="1331.38" y="-210.88" font-family="Helvetica,sans-Serif" font-size="10.00">src/nwb/hdmf/base/Container.cpp</text>
</a>
</g>
</g>
<!-- Node9&#45;&gt;Node24 -->
<g id="edge38_Node000009_Node000024" class="edge">
<title>Node9&#45;&gt;Node24</title>
<g id="a_edge38_Node000009_Node000024"><a xlink:title=" ">
<path fill="none" stroke="#63b8ff" d="M1304.34,-261.64C1311.51,-249.48 1320.54,-234.14 1326.14,-224.64"/>
<polygon fill="#63b8ff" stroke="#63b8ff" points="1301.49,-259.58 1299.43,-269.98 1307.52,-263.14 1301.49,-259.58"/>
</a>
</g>
</g>
<!-- Node9&#45;&gt;Node25 -->
<g id="edge39_Node000009_Node000025" class="edge">
<title>Node9&#45;&gt;Node25</title>
<g id="a_edge39_Node000009_Node000025"><a xlink:title=" ">
<path fill="none" stroke="#63b8ff" d="M1386.35,-274.46C1485.29,-267.43 1646.15,-253.5 1783.38,-230 1786.18,-229.52 1789.05,-228.98 1791.94,-228.41"/>
<polygon fill="#63b8ff" stroke="#63b8ff" points="1386.14,-270.97 1376.41,-275.16 1386.63,-277.95 1386.14,-270.97"/>
</a>
</g>
</g>
<!-- Node11&#45;&gt;Node6 -->
<g id="edge14_Node000011_Node000006" class="edge">
<title>Node11&#45;&gt;Node6</title>
<g id="a_edge14_Node000011_Node000006"><a xlink:title=" ">
<path fill="none" stroke="#63b8ff" d="M1008.18,-193.27C1010.02,-174.88 1015.66,-148.48 1032.38,-133 1038.86,-126.99 1145.19,-104.65 1207.96,-91.87"/>
<polygon fill="#63b8ff" stroke="#63b8ff" points="1004.69,-193 1007.51,-203.21 1011.67,-193.47 1004.69,-193"/>
</a>
</g>
</g>
<!-- Node12 -->
<g id="Node000012" class="node">
<title>Node12</title>
<g id="a_Node000012"><a xlink:href="_recording_containers_8hpp.html" target="_top" xlink:title=" ">
<polygon fill="white" stroke="#666666" points="985.25,-157.88 821.5,-157.88 821.5,-138.62 985.25,-138.62 985.25,-157.88"/>
<text text-anchor="middle" x="903.38" y="-144.38" font-family="Helvetica,sans-Serif" font-size="10.00">src/nwb/RecordingContainers.hpp</text>
</a>
</g>
</g>
<!-- Node11&#45;&gt;Node12 -->
<g id="edge15_Node000011_Node000012" class="edge">
<title>Node11&#45;&gt;Node12</title>
<g id="a_edge15_Node000011_Node000012"><a xlink:title=" ">
<path fill="none" stroke="#63b8ff" d="M983.19,-198.75C963.03,-186.25 934.97,-168.84 918.05,-158.35"/>
<polygon fill="#63b8ff" stroke="#63b8ff" points="981.28,-201.69 991.63,-203.98 984.97,-195.74 981.28,-201.69"/>
</a>
</g>
</g>
<!-- Node11&#45;&gt;Node13 -->
<g id="edge18_Node000011_Node000013" class="edge">
<title>Node11&#45;&gt;Node13</title>
<g id="a_edge18_Node000011_Node000013"><a xlink:title=" ">
<path fill="none" stroke="#63b8ff" d="M1031.97,-198.92C1052.73,-186.41 1081.79,-168.89 1099.28,-158.35"/>
<polygon fill="#63b8ff" stroke="#63b8ff" points="1030.31,-195.84 1023.55,-204 1033.92,-201.84 1030.31,-195.84"/>
</a>
</g>
</g>
<!-- Node11&#45;&gt;Node14 -->
<g id="edge19_Node000011_Node000014" class="edge">
<title>Node11&#45;&gt;Node14</title>
<g id="a_edge19_Node000011_Node000014"><a xlink:title=" ">
<path fill="none" stroke="#63b8ff" d="M922.97,-204.03C845.24,-194.75 726.79,-179.81 624.38,-163.5 621.46,-163.04 618.48,-162.55 615.48,-162.04"/>
<polygon fill="#63b8ff" stroke="#63b8ff" points="922.29,-207.47 932.63,-205.17 923.12,-200.52 922.29,-207.47"/>
</a>
</g>
</g>
<!-- Node11&#45;&gt;Node18 -->
<g id="edge27_Node000011_Node000018" class="edge">
<title>Node11&#45;&gt;Node18</title>
<g id="a_edge27_Node000011_Node000018"><a xlink:title=" ">
<path fill="none" stroke="#63b8ff" d="M955.42,-202.16C899.1,-189.59 810.39,-169.79 758.96,-158.31"/>
<polygon fill="#63b8ff" stroke="#63b8ff" points="954.58,-205.55 965.1,-204.32 956.11,-198.72 954.58,-205.55"/>
</a>
</g>
</g>
<!-- Node12&#45;&gt;Node6 -->
<g id="edge16_Node000012_Node000006" class="edge">
<title>Node12&#45;&gt;Node6</title>
<g id="a_edge16_Node000012_Node000006"><a xlink:title=" ">
<path fill="none" stroke="#63b8ff" d="M964.93,-136.13C1020.68,-126.03 1105.06,-110.66 1178.38,-97 1187.24,-95.35 1196.68,-93.57 1205.77,-91.85"/>
<polygon fill="#63b8ff" stroke="#63b8ff" points="964.53,-132.64 955.32,-137.87 965.78,-139.53 964.53,-132.64"/>
</a>
</g>
</g>
<!-- Node12&#45;&gt;Node10 -->
<g id="edge17_Node000012_Node000010" class="edge">
<title>Node12&#45;&gt;Node10</title>
<g id="a_edge17_Node000012_Node000010"><a xlink:title=" ">
<path fill="none" stroke="#63b8ff" d="M868.95,-134.18C799.05,-107.64 642.08,-48.03 582.2,-25.3"/>
<polygon fill="#63b8ff" stroke="#63b8ff" points="867.38,-137.33 877.97,-137.61 869.87,-130.78 867.38,-137.33"/>
</a>
</g>
</g>
<!-- Node14&#45;&gt;Node5 -->
<g id="edge20_Node000014_Node000005" class="edge">
<title>Node14&#45;&gt;Node5</title>
<g id="a_edge20_Node000014_Node000005"><a xlink:title=" ">
<path fill="none" stroke="#63b8ff" d="M612.4,-129.63C679.13,-111.76 786.96,-84.28 881.38,-66.5 992.49,-45.58 1123.86,-29.94 1196.99,-22.02"/>
<polygon fill="#63b8ff" stroke="#63b8ff" points="611.85,-126.15 603.1,-132.13 613.67,-132.91 611.85,-126.15"/>
</a>
</g>
</g>
<!-- Node14&#45;&gt;Node10 -->
<g id="edge21_Node000014_Node000010" class="edge">
<title>Node14&#45;&gt;Node10</title>
<g id="a_edge21_Node000014_Node000010"><a xlink:title=" ">
<path fill="none" stroke="#63b8ff" d="M550.33,-121.63C552.59,-92.07 556.18,-45.01 557.68,-25.35"/>
<polygon fill="#63b8ff" stroke="#63b8ff" points="546.87,-120.98 549.6,-131.22 553.85,-121.52 546.87,-120.98"/>
</a>
</g>
</g>
<!-- Node14&#45;&gt;Node15 -->
<g id="edge22_Node000014_Node000015" class="edge">
<title>Node14&#45;&gt;Node15</title>
<g id="a_edge22_Node000014_Node000015"><a xlink:title=" ">
<path fill="none" stroke="#63b8ff" d="M626.5,-132.99C774.19,-119.04 1496.66,-93.02 1722.1,-85.09"/>
<polygon fill="#63b8ff" stroke="#63b8ff" points="626.52,-129.47 616.94,-133.99 627.25,-136.44 626.52,-129.47"/>
</a>
</g>
</g>
<!-- Node14&#45;&gt;Node16 -->
<g id="edge23_Node000014_Node000016" class="edge">
<title>Node14&#45;&gt;Node16</title>
<g id="a_edge23_Node000014_Node000016"><a xlink:title=" ">
<path fill="none" stroke="#63b8ff" d="M503.6,-128.25C480.4,-118.41 452.51,-106.57 430.99,-97.44"/>
<polygon fill="#63b8ff" stroke="#63b8ff" points="501.92,-131.34 512.49,-132.02 504.65,-124.89 501.92,-131.34"/>
</a>
</g>
</g>
<!-- Node16&#45;&gt;Node5 -->
<g id="edge24_Node000016_Node000005" class="edge">
<title>Node16&#45;&gt;Node5</title>
<g id="a_edge24_Node000016_Node000005"><a xlink:title=" ">
<path fill="none" stroke="#63b8ff" d="M479.69,-74.48C653.28,-61.41 1049.77,-31.57 1196.98,-20.49"/>
<polygon fill="#63b8ff" stroke="#63b8ff" points="479.55,-70.98 469.84,-75.22 480.08,-77.96 479.55,-70.98"/>
</a>
</g>
</g>
<!-- Node16&#45;&gt;Node10 -->
<g id="edge25_Node000016_Node000010" class="edge">
<title>Node16&#45;&gt;Node10</title>
<g id="a_edge25_Node000016_Node000010"><a xlink:title=" ">
<path fill="none" stroke="#63b8ff" d="M443.51,-61.98C473.87,-49.9 511.97,-34.73 535.75,-25.26"/>
<polygon fill="#63b8ff" stroke="#63b8ff" points="442.54,-58.6 434.54,-65.55 445.13,-65.11 442.54,-58.6"/>
</a>
</g>
</g>
<!-- Node17 -->
<g id="Node000017" class="node">
<title>Node17</title>
<g id="a_Node000017"><a xlink:href="_spike_event_series_8cpp.html" target="_top" xlink:title=" ">
<polygon fill="white" stroke="#666666" points="458.12,-30.5 314.62,-30.5 314.62,0 458.12,0 458.12,-30.5"/>
<text text-anchor="start" x="322.62" y="-17" font-family="Helvetica,sans-Serif" font-size="10.00">src/nwb/ecephys/SpikeEvent</text>
<text text-anchor="middle" x="386.38" y="-5.75" font-family="Helvetica,sans-Serif" font-size="10.00">Series.cpp</text>
</a>
</g>
</g>
<!-- Node16&#45;&gt;Node17 -->
<g id="edge26_Node000016_Node000017" class="edge">
<title>Node16&#45;&gt;Node17</title>
<g id="a_edge26_Node000016_Node000017"><a xlink:title=" ">
<path fill="none" stroke="#63b8ff" d="M392.35,-54.81C391.09,-46.64 389.73,-37.91 388.64,-30.83"/>
<polygon fill="#63b8ff" stroke="#63b8ff" points="388.88,-55.27 393.87,-64.62 395.8,-54.2 388.88,-55.27"/>
</a>
</g>
</g>
<!-- Node18&#45;&gt;Node5 -->
<g id="edge28_Node000018_Node000005" class="edge">
<title>Node18&#45;&gt;Node5</title>
<g id="a_edge28_Node000018_Node000005"><a xlink:title=" ">
<path fill="none" stroke="#63b8ff" d="M756.3,-134.68C808.56,-117.67 905.88,-87.06 990.38,-66.5 1061.06,-49.3 1143.61,-34.35 1197.1,-25.33"/>
<polygon fill="#63b8ff" stroke="#63b8ff" points="755.4,-131.3 746.98,-137.73 757.57,-137.95 755.4,-131.3"/>
</a>
</g>
</g>
<!-- Node18&#45;&gt;Node10 -->
<g id="edge29_Node000018_Node000010" class="edge">
<title>Node18&#45;&gt;Node10</title>
<g id="a_edge29_Node000018_Node000010"><a xlink:title=" ">
<path fill="none" stroke="#63b8ff" d="M698.79,-131.22C664.87,-103.45 596.25,-47.26 569.45,-25.32"/>
<polygon fill="#63b8ff" stroke="#63b8ff" points="696.25,-133.66 706.21,-137.29 700.69,-128.24 696.25,-133.66"/>
</a>
</g>
</g>
<!-- Node18&#45;&gt;Node19 -->
<g id="edge30_Node000018_Node000019" class="edge">
<title>Node18&#45;&gt;Node19</title>
<g id="a_edge30_Node000018_Node000019"><a xlink:title=" ">
<path fill="none" stroke="#63b8ff" d="M781.05,-136.2C852.08,-123.69 966.55,-103.52 1032.68,-91.86"/>
<polygon fill="#63b8ff" stroke="#63b8ff" points="780.77,-132.7 771.53,-137.88 781.98,-139.59 780.77,-132.7"/>
</a>
</g>
</g>
<!-- Node20&#45;&gt;Node5 -->
<g id="edge32_Node000020_Node000005" class="edge">
<title>Node20&#45;&gt;Node5</title>
<g id="a_edge32_Node000020_Node000005"><a xlink:title=" ">
<path fill="none" stroke="#63b8ff" d="M1493.98,-193.42C1490.13,-175.73 1482.34,-150.29 1467.38,-133 1416.96,-74.76 1330.07,-40.32 1284.04,-25.28"/>
<polygon fill="#63b8ff" stroke="#63b8ff" points="1490.54,-194.05 1495.85,-203.21 1497.41,-192.73 1490.54,-194.05"/>
</a>
</g>
</g>
<!-- Node21 -->
<g id="Node000021" class="node">
<title>Node21</title>
<g id="a_Node000021"><a xlink:href="_device_8cpp.html" target="_top" xlink:title=" ">
<polygon fill="white" stroke="#666666" points="1458.62,-157.88 1324.12,-157.88 1324.12,-138.62 1458.62,-138.62 1458.62,-157.88"/>
<text text-anchor="middle" x="1391.38" y="-144.38" font-family="Helvetica,sans-Serif" font-size="10.00">src/nwb/device/Device.cpp</text>
</a>
</g>
</g>
<!-- Node20&#45;&gt;Node21 -->
<g id="edge33_Node000020_Node000021" class="edge">
<title>Node20&#45;&gt;Node21</title>
<g id="a_edge33_Node000020_Node000021"><a xlink:title=" ">
<path fill="none" stroke="#63b8ff" d="M1473.01,-198.92C1452.44,-186.41 1423.65,-168.89 1406.33,-158.35"/>
<polygon fill="#63b8ff" stroke="#63b8ff" points="1470.98,-201.79 1481.34,-203.99 1474.62,-195.81 1470.98,-201.79"/>
</a>
</g>
</g>
<!-- Node20&#45;&gt;Node22 -->
<g id="edge34_Node000020_Node000022" class="edge">
<title>Node20&#45;&gt;Node22</title>
<g id="a_edge34_Node000020_Node000022"><a xlink:title=" ">
<path fill="none" stroke="#63b8ff" d="M1519.97,-198.41C1538.35,-185.93 1563.66,-168.75 1578.97,-158.35"/>
<polygon fill="#63b8ff" stroke="#63b8ff" points="1518.14,-195.42 1511.84,-203.93 1522.08,-201.21 1518.14,-195.42"/>
</a>
</g>
</g>
<!-- Node22&#45;&gt;Node5 -->
<g id="edge35_Node000022_Node000005" class="edge">
<title>Node22&#45;&gt;Node5</title>
<g id="a_edge35_Node000022_Node000005"><a xlink:title=" ">
<path fill="none" stroke="#63b8ff" d="M1577.7,-129.84C1560.96,-111.16 1531.81,-82.09 1500.38,-66.5 1439.52,-36.31 1361.63,-24.25 1309.75,-19.44"/>
<polygon fill="#63b8ff" stroke="#63b8ff" points="1574.87,-131.92 1584.08,-137.16 1580.15,-127.32 1574.87,-131.92"/>
</a>
</g>
</g>
<!-- Node22&#45;&gt;Node23 -->
<g id="edge36_Node000022_Node000023" class="edge">
<title>Node22&#45;&gt;Node23</title>
<g id="a_edge36_Node000022_Node000023"><a xlink:title=" ">
<path fill="none" stroke="#63b8ff" d="M1654.45,-136.13C1724.35,-123.6 1836.61,-103.49 1901.53,-91.86"/>
<polygon fill="#63b8ff" stroke="#63b8ff" points="1653.91,-132.67 1644.68,-137.88 1655.14,-139.56 1653.91,-132.67"/>
</a>
</g>
</g>
<!-- Node26 -->
<g id="Node000026" class="node">
<title>Node26</title>
<g id="a_Node000026"><a xlink:href="_electrode_table_8hpp.html" target="_top" xlink:title=" ">
<polygon fill="white" stroke="#666666" points="1986.62,-157.88 1834.12,-157.88 1834.12,-138.62 1986.62,-138.62 1986.62,-157.88"/>
<text text-anchor="middle" x="1910.38" y="-144.38" font-family="Helvetica,sans-Serif" font-size="10.00">src/nwb/file/ElectrodeTable.hpp</text>
</a>
</g>
</g>
<!-- Node25&#45;&gt;Node26 -->
<g id="edge40_Node000025_Node000026" class="edge">
<title>Node25&#45;&gt;Node26</title>
<g id="a_edge40_Node000025_Node000026"><a xlink:title=" ">
<path fill="none" stroke="#63b8ff" d="M1866.14,-191.21C1878.18,-179.78 1892.11,-166.57 1901.07,-158.07"/>
<polygon fill="#63b8ff" stroke="#63b8ff" points="1863.75,-188.65 1858.9,-198.07 1868.57,-193.73 1863.75,-188.65"/>
</a>
</g>
</g>
<!-- Node25&#45;&gt;Node28 -->
<g id="edge44_Node000025_Node000028" class="edge">
<title>Node25&#45;&gt;Node28</title>
<g id="a_edge44_Node000025_Node000028"><a xlink:title=" ">
<path fill="none" stroke="#63b8ff" d="M1814.1,-192.29C1801.78,-182.94 1787.66,-172.23 1776.59,-163.83"/>
<polygon fill="#63b8ff" stroke="#63b8ff" points="1811.8,-194.94 1821.88,-198.2 1816.03,-189.37 1811.8,-194.94"/>
</a>
</g>
</g>
<!-- Node26&#45;&gt;Node6 -->
<g id="edge41_Node000026_Node000006" class="edge">
<title>Node26&#45;&gt;Node6</title>
<g id="a_edge41_Node000026_Node000006"><a xlink:title=" ">
<path fill="none" stroke="#63b8ff" d="M1843.04,-136.53C1834.09,-135.26 1825.02,-134.04 1816.38,-133 1631.5,-110.76 1411.38,-93.88 1309.83,-86.64"/>
<polygon fill="#63b8ff" stroke="#63b8ff" points="1842.39,-139.97 1852.79,-137.95 1843.4,-133.05 1842.39,-139.97"/>
</a>
</g>
</g>
<!-- Node26&#45;&gt;Node15 -->
<g id="edge42_Node000026_Node000015" class="edge">
<title>Node26&#45;&gt;Node15</title>
<g id="a_edge42_Node000026_Node000015"><a xlink:title=" ">
<path fill="none" stroke="#63b8ff" d="M1883.34,-132.84C1863.46,-122.24 1836.55,-107.9 1816.63,-97.28"/>
<polygon fill="#63b8ff" stroke="#63b8ff" points="1881.49,-135.82 1891.96,-137.43 1884.78,-129.64 1881.49,-135.82"/>
</a>
</g>
</g>
<!-- Node26&#45;&gt;Node27 -->
<g id="edge43_Node000026_Node000027" class="edge">
<title>Node26&#45;&gt;Node27</title>
<g id="a_edge43_Node000026_Node000027"><a xlink:title=" ">
<path fill="none" stroke="#63b8ff" d="M1951.49,-134.86C1993.28,-122.26 2057.03,-103.05 2094.32,-91.81"/>
<polygon fill="#63b8ff" stroke="#63b8ff" points="1950.6,-131.47 1942.03,-137.71 1952.62,-138.17 1950.6,-131.47"/>
</a>
</g>
</g>
<!-- Node30 -->
<g id="Node000030" class="node">
<title>Node30</title>
<g id="a_Node000030"><a xlink:href="_data_8cpp.html" target="_top" xlink:title=" ">
<polygon fill="white" stroke="#666666" points="1762.38,-290.88 1620.38,-290.88 1620.38,-271.62 1762.38,-271.62 1762.38,-290.88"/>
<text text-anchor="middle" x="1691.38" y="-277.38" font-family="Helvetica,sans-Serif" font-size="10.00">src/nwb/hdmf/base/Data.cpp</text>
</a>
</g>
</g>
<!-- Node29&#45;&gt;Node30 -->
<g id="edge46_Node000029_Node000030" class="edge">
<title>Node29&#45;&gt;Node30</title>
<g id="a_edge46_Node000029_Node000030"><a xlink:title=" ">
<path fill="none" stroke="#63b8ff" d="M1739.59,-324.62C1727.3,-313.82 1711.72,-300.12 1701.65,-291.28"/>
<polygon fill="#63b8ff" stroke="#63b8ff" points="1737.24,-327.21 1747.06,-331.18 1741.86,-321.95 1737.24,-327.21"/>
</a>
</g>
</g>
<!-- Node31 -->
<g id="Node000031" class="node">
<title>Node31</title>
<g id="a_Node000031"><a xlink:href="_element_identifiers_8hpp.html" target="_top" xlink:title=" ">
<polygon fill="white" stroke="#666666" points="1896.62,-296.5 1780.12,-296.5 1780.12,-266 1896.62,-266 1896.62,-296.5"/>
<text text-anchor="start" x="1788.12" y="-283" font-family="Helvetica,sans-Serif" font-size="10.00">src/nwb/hdmf/table</text>
<text text-anchor="middle" x="1838.38" y="-271.75" font-family="Helvetica,sans-Serif" font-size="10.00">/ElementIdentifiers.hpp</text>
</a>
</g>
</g>
<!-- Node29&#45;&gt;Node31 -->
<g id="edge47_Node000029_Node000031" class="edge">
<title>Node29&#45;&gt;Node31</title>
<g id="a_edge47_Node000029_Node000031"><a xlink:title=" ">
<path fill="none" stroke="#63b8ff" d="M1779.49,-325.59C1791.61,-316.67 1806.74,-305.53 1818.63,-296.78"/>
<polygon fill="#63b8ff" stroke="#63b8ff" points="1777.72,-322.54 1771.74,-331.29 1781.87,-328.18 1777.72,-322.54"/>
</a>
</g>
</g>
<!-- Node29&#45;&gt;Node33 -->
<g id="edge51_Node000029_Node000033" class="edge">
<title>Node29&#45;&gt;Node33</title>
<g id="a_edge51_Node000029_Node000033"><a xlink:title=" ">
<path fill="none" stroke="#63b8ff" d="M1807.07,-329.38C1849.23,-319.2 1909.96,-304.55 1952.48,-294.29"/>
<polygon fill="#63b8ff" stroke="#63b8ff" points="1806.34,-325.95 1797.44,-331.7 1807.98,-332.76 1806.34,-325.95"/>
</a>
</g>
</g>
<!-- Node31&#45;&gt;Node25 -->
<g id="edge49_Node000031_Node000025" class="edge">
<title>Node31&#45;&gt;Node25</title>
<g id="a_edge49_Node000031_Node000025"><a xlink:title=" ">
<path fill="none" stroke="#63b8ff" d="M1839.98,-254.31C1840.49,-246.14 1841.03,-237.41 1841.47,-230.33"/>
<polygon fill="#63b8ff" stroke="#63b8ff" points="1836.5,-253.91 1839.38,-264.1 1843.49,-254.34 1836.5,-253.91"/>
</a>
</g>
</g>
<!-- Node31&#45;&gt;Node26 -->
<g id="edge48_Node000031_Node000026" class="edge">
<title>Node31&#45;&gt;Node26</title>
<g id="a_edge48_Node000031_Node000026"><a xlink:title=" ">
<path fill="none" stroke="#63b8ff" d="M1874.69,-259.03C1884.97,-251.22 1895.06,-241.44 1901.38,-230 1914.32,-206.53 1913.01,-173.42 1911.47,-157.91"/>
<polygon fill="#63b8ff" stroke="#63b8ff" points="1872.71,-256.15 1866.55,-264.77 1876.74,-261.87 1872.71,-256.15"/>
</a>
</g>
</g>
<!-- Node32 -->
<g id="Node000032" class="node">
<title>Node32</title>
<g id="a_Node000032"><a xlink:href="_element_identifiers_8cpp.html" target="_top" xlink:title=" ">
<polygon fill="white" stroke="#666666" points="1774.62,-230 1658.12,-230 1658.12,-199.5 1774.62,-199.5 1774.62,-230"/>
<text text-anchor="start" x="1666.12" y="-216.5" font-family="Helvetica,sans-Serif" font-size="10.00">src/nwb/hdmf/table</text>
<text text-anchor="middle" x="1716.38" y="-205.25" font-family="Helvetica,sans-Serif" font-size="10.00">/ElementIdentifiers.cpp</text>
</a>
</g>
</g>
<!-- Node31&#45;&gt;Node32 -->
<g id="edge50_Node000031_Node000032" class="edge">
<title>Node31&#45;&gt;Node32</title>
<g id="a_edge50_Node000031_Node000032"><a xlink:title=" ">
<path fill="none" stroke="#63b8ff" d="M1800.63,-260.29C1782.31,-250.61 1760.7,-239.18 1743.95,-230.33"/>
<polygon fill="#63b8ff" stroke="#63b8ff" points="1798.88,-263.33 1809.35,-264.91 1802.15,-257.14 1798.88,-263.33"/>
</a>
</g>
</g>
<!-- Node33&#45;&gt;Node25 -->
<g id="edge53_Node000033_Node000025" class="edge">
<title>Node33&#45;&gt;Node25</title>
<g id="a_edge53_Node000033_Node000025"><a xlink:title=" ">
<path fill="none" stroke="#63b8ff" d="M1955.57,-261.38C1931.09,-251.51 1901.57,-239.61 1878.81,-230.44"/>
<polygon fill="#63b8ff" stroke="#63b8ff" points="1954.08,-264.56 1964.66,-265.05 1956.7,-258.06 1954.08,-264.56"/>
</a>
</g>
</g>
<!-- Node33&#45;&gt;Node26 -->
<g id="edge52_Node000033_Node000026" class="edge">
<title>Node33&#45;&gt;Node26</title>
<g id="a_edge52_Node000033_Node000026"><a xlink:title=" ">
<path fill="none" stroke="#63b8ff" d="M2033.27,-258.5C2052.65,-242.14 2071.49,-219.24 2057.38,-199.5 2041.06,-176.68 2013.74,-164.11 1987.05,-157.23"/>
<polygon fill="#63b8ff" stroke="#63b8ff" points="2031.28,-255.61 2025.64,-264.58 2035.64,-261.09 2031.28,-255.61"/>
</a>
</g>
</g>
<!-- Node34 -->
<g id="Node000034" class="node">
<title>Node34</title>
<g id="a_Node000034"><a xlink:href="_vector_data_8cpp.html" target="_top" xlink:title=" ">
<polygon fill="white" stroke="#666666" points="2048,-230 1948.75,-230 1948.75,-199.5 2048,-199.5 2048,-230"/>
<text text-anchor="start" x="1956.75" y="-216.5" font-family="Helvetica,sans-Serif" font-size="10.00">src/nwb/hdmf/table</text>
<text text-anchor="middle" x="1998.38" y="-205.25" font-family="Helvetica,sans-Serif" font-size="10.00">/VectorData.cpp</text>
</a>
</g>
</g>
<!-- Node33&#45;&gt;Node34 -->
<g id="edge54_Node000033_Node000034" class="edge">
<title>Node33&#45;&gt;Node34</title>
<g id="a_edge54_Node000033_Node000034"><a xlink:title=" ">
<path fill="none" stroke="#63b8ff" d="M2000.77,-254.31C2000.26,-246.14 1999.72,-237.41 1999.28,-230.33"/>
<polygon fill="#63b8ff" stroke="#63b8ff" points="1997.26,-254.34 2001.37,-264.1 2004.25,-253.91 1997.26,-254.34"/>
</a>
</g>
</g>
</g>
</svg>
