<?xml version="1.0" encoding="UTF-8" standalone="no"?>
<!DOCTYPE svg PUBLIC "-//W3C//DTD SVG 1.1//EN"
 "http://www.w3.org/Graphics/SVG/1.1/DTD/svg11.dtd">
<!-- Generated by graphviz version 12.0.0 (20240704.0754)
 -->
<!-- Title: src/Utils.hpp Pages: 1 -->
<!--zoomable 260 -->

<svg id="main" version="1.1" xmlns="http://www.w3.org/2000/svg" xmlns:xlink="http://www.w3.org/1999/xlink" xml:space="preserve" onload="init(evt)">
<style type="text/css"><![CDATA[
.node, .edge {opacity: 0.7;}
.node.selected, .edge.selected {opacity: 1;}
.edge:hover path { stroke: red; }
.edge:hover polygon { stroke: red; fill: red; }
]]></style>

<defs>
  <circle id="rim" cx="0" cy="0" r="7"/>
  <circle id="rim2" cx="0" cy="0" r="3.5"/>
  <g id="zoomPlus">
    <use xlink:href="#rim" fill="#404040"><set attributeName="fill" to="#808080" begin="zoomplus.mouseover" end="zoomplus.mouseout"/></use>
    <path d="M-4,0h8M0,-4v8" fill="none" stroke="white" stroke-width="1.5" pointer-events="none"/>
  </g>
  <g id="zoomMin">
    <use xlink:href="#rim" fill="#404040"><set attributeName="fill" to="#808080" begin="zoomminus.mouseover" end="zoomminus.mouseout"/></use>
    <path d="M-4,0h8" fill="none" stroke="white" stroke-width="1.5" pointer-events="none"/>
  </g>
  <g id="arrowUp" transform="translate(30 24)">
    <use xlink:href="#rim"/>
    <path pointer-events="none" fill="none" stroke="white" stroke-width="1.5" d="M0,-3.0v7 M-2.5,-0.5L0,-3.0L2.5,-0.5"/>
  </g>
  <g id="arrowRight" transform="rotate(90) translate(36 -43)">
    <use xlink:href="#rim"/>
    <path pointer-events="none" fill="none" stroke="white" stroke-width="1.5" d="M0,-3.0v7 M-2.5,-0.5L0,-3.0L2.5,-0.5"/>
  </g>
  <g id="arrowDown" transform="rotate(180) translate(-30 -48)">
    <use xlink:href="#rim"/>
    <path pointer-events="none" fill="none" stroke="white" stroke-width="1.5" d="M0,-3.0v7 M-2.5,-0.5L0,-3.0L2.5,-0.5"/>
  </g>
  <g id="arrowLeft" transform="rotate(270) translate(-36 17)">
    <use xlink:href="#rim"/>
    <path pointer-events="none" fill="none" stroke="white" stroke-width="1.5" d="M0,-3.0v7 M-2.5,-0.5L0,-3.0L2.5,-0.5"/>
  </g>
  <g id="resetDef">
    <use xlink:href="#rim2" fill="#404040"><set attributeName="fill" to="#808080" begin="reset.mouseover" end="reset.mouseout"/></use>
  </g>
</defs>
<script type="application/ecmascript">
var viewWidth = 1079;
var viewHeight = 260;
var sectionId = 'dynsection-0';
</script>
<script type="application/ecmascript" xlink:href="svg.min.js"/>
<svg id="graph" class="graph">
<g id="viewport">
<title>src/Utils.hpp</title>
<!-- Node1 -->
<g id="Node000001" class="node">
<title>Node1</title>
<g id="a_Node000001"><a xlink:title=" ">
<polygon fill="#999999" stroke="#666666" points="468.38,-251.5 396.88,-251.5 396.88,-232.25 468.38,-232.25 468.38,-251.5"/>
<text text-anchor="middle" x="432.62" y="-238" font-family="Helvetica,sans-Serif" font-size="10.00">src/Utils.hpp</text>
</a>
</g>
</g>
<!-- Node2 -->
<g id="Node000002" class="node">
<title>Node2</title>
<g id="a_Node000002"><a xlink:title=" ">
<polygon fill="#e0e0e0" stroke="#999999" points="45.25,-190.62 0,-190.62 0,-171.38 45.25,-171.38 45.25,-190.62"/>
<text text-anchor="middle" x="22.62" y="-177.12" font-family="Helvetica,sans-Serif" font-size="10.00">chrono</text>
</a>
</g>
</g>
<!-- Node1&#45;&gt;Node2 -->
<g id="edge1_Node000001_Node000002" class="edge">
<title>Node1&#45;&gt;Node2</title>
<g id="a_edge1_Node000001_Node000002"><a xlink:title=" ">
<path fill="none" stroke="#63b8ff" d="M396.5,-240.21C328.42,-238.16 176.96,-229.88 54.62,-196.25 53.45,-195.93 52.27,-195.57 51.08,-195.18"/>
<polygon fill="#63b8ff" stroke="#63b8ff" points="52.55,-192 41.96,-191.66 50.03,-198.53 52.55,-192"/>
</a>
</g>
</g>
<!-- Node3 -->
<g id="Node000003" class="node">
<title>Node3</title>
<g id="a_Node000003"><a xlink:title=" ">
<polygon fill="#e0e0e0" stroke="#999999" points="103.62,-190.62 63.62,-190.62 63.62,-171.38 103.62,-171.38 103.62,-190.62"/>
<text text-anchor="middle" x="83.62" y="-177.12" font-family="Helvetica,sans-Serif" font-size="10.00">ctime</text>
</a>
</g>
</g>
<!-- Node1&#45;&gt;Node3 -->
<g id="edge2_Node000001_Node000003" class="edge">
<title>Node1&#45;&gt;Node3</title>
<g id="a_edge2_Node000001_Node000003"><a xlink:title=" ">
<path fill="none" stroke="#63b8ff" d="M396.79,-239.58C336.76,-236.59 212.64,-226.93 112.62,-196.25 111.82,-196 111.01,-195.74 110.2,-195.45"/>
<polygon fill="#63b8ff" stroke="#63b8ff" points="111.78,-192.32 101.21,-191.67 109.07,-198.77 111.78,-192.32"/>
</a>
</g>
</g>
<!-- Node4 -->
<g id="Node000004" class="node">
<title>Node4</title>
<g id="a_Node000004"><a xlink:title=" ">
<polygon fill="#e0e0e0" stroke="#999999" points="171.5,-190.62 121.75,-190.62 121.75,-171.38 171.5,-171.38 171.5,-190.62"/>
<text text-anchor="middle" x="146.62" y="-177.12" font-family="Helvetica,sans-Serif" font-size="10.00">iomanip</text>
</a>
</g>
</g>
<!-- Node1&#45;&gt;Node4 -->
<g id="edge3_Node000001_Node000004" class="edge">
<title>Node1&#45;&gt;Node4</title>
<g id="a_edge3_Node000001_Node000004"><a xlink:title=" ">
<path fill="none" stroke="#63b8ff" d="M396.58,-237.04C347.14,-231.21 255.86,-218.38 180.62,-196.25 179.28,-195.85 177.91,-195.42 176.54,-194.96"/>
<polygon fill="#63b8ff" stroke="#63b8ff" points="178.14,-191.82 167.55,-191.58 175.68,-198.37 178.14,-191.82"/>
</a>
</g>
</g>
<!-- Node5 -->
<g id="Node000005" class="node">
<title>Node5</title>
<g id="a_Node000005"><a xlink:title=" ">
<polygon fill="#e0e0e0" stroke="#999999" points="241.25,-190.62 190,-190.62 190,-171.38 241.25,-171.38 241.25,-190.62"/>
<text text-anchor="middle" x="215.62" y="-177.12" font-family="Helvetica,sans-Serif" font-size="10.00">sstream</text>
</a>
</g>
</g>
<!-- Node1&#45;&gt;Node5 -->
<g id="edge4_Node000001_Node000005" class="edge">
<title>Node1&#45;&gt;Node5</title>
<g id="a_edge4_Node000001_Node000005"><a xlink:title=" ">
<path fill="none" stroke="#63b8ff" d="M396.62,-233.67C359.59,-225.89 300.45,-212.41 250.62,-196.25 249.47,-195.88 248.3,-195.48 247.12,-195.07"/>
<polygon fill="#63b8ff" stroke="#63b8ff" points="248.55,-191.87 237.96,-191.63 246.09,-198.42 248.55,-191.87"/>
</a>
</g>
</g>
<!-- Node6 -->
<g id="Node000006" class="node">
<title>Node6</title>
<g id="a_Node000006"><a xlink:title=" ">
<polygon fill="#e0e0e0" stroke="#999999" points="363.88,-190.62 259.38,-190.62 259.38,-171.38 363.88,-171.38 363.88,-190.62"/>
<text text-anchor="middle" x="311.62" y="-177.12" font-family="Helvetica,sans-Serif" font-size="10.00">boost/date_time.hpp</text>
</a>
</g>
</g>
<!-- Node1&#45;&gt;Node6 -->
<g id="edge5_Node000001_Node000006" class="edge">
<title>Node1&#45;&gt;Node6</title>
<g id="a_edge5_Node000001_Node000006"><a xlink:title=" ">
<path fill="none" stroke="#63b8ff" d="M413.98,-231.8C394.3,-222.23 363.01,-207 340.21,-195.91"/>
<polygon fill="#63b8ff" stroke="#63b8ff" points="341.97,-192.87 331.45,-191.65 338.91,-199.17 341.97,-192.87"/>
</a>
</g>
</g>
<!-- Node7 -->
<g id="Node000007" class="node">
<title>Node7</title>
<g id="a_Node000007"><a xlink:title=" ">
<polygon fill="#e0e0e0" stroke="#999999" points="483,-190.62 382.25,-190.62 382.25,-171.38 483,-171.38 483,-190.62"/>
<text text-anchor="middle" x="432.62" y="-177.12" font-family="Helvetica,sans-Serif" font-size="10.00">boost/uuid/uuid.hpp</text>
</a>
</g>
</g>
<!-- Node1&#45;&gt;Node7 -->
<g id="edge6_Node000001_Node000007" class="edge">
<title>Node1&#45;&gt;Node7</title>
<g id="a_edge6_Node000001_Node000007"><a xlink:title=" ">
<path fill="none" stroke="#63b8ff" d="M432.62,-231.93C432.62,-224.15 432.62,-212.58 432.62,-202.53"/>
<polygon fill="#63b8ff" stroke="#63b8ff" points="436.13,-202.54 432.63,-192.54 429.13,-202.54 436.13,-202.54"/>
</a>
</g>
</g>
<!-- Node8 -->
<g id="Node000008" class="node">
<title>Node8</title>
<g id="a_Node000008"><a xlink:title=" ">
<polygon fill="#e0e0e0" stroke="#999999" points="652.5,-190.62 500.75,-190.62 500.75,-171.38 652.5,-171.38 652.5,-190.62"/>
<text text-anchor="middle" x="576.62" y="-177.12" font-family="Helvetica,sans-Serif" font-size="10.00">boost/uuid/uuid_generators.hpp</text>
</a>
</g>
</g>
<!-- Node1&#45;&gt;Node8 -->
<g id="edge7_Node000001_Node000008" class="edge">
<title>Node1&#45;&gt;Node8</title>
<g id="a_edge7_Node000001_Node000008"><a xlink:title=" ">
<path fill="none" stroke="#63b8ff" d="M454.81,-231.8C478.66,-222.05 516.82,-206.45 544.07,-195.31"/>
<polygon fill="#63b8ff" stroke="#63b8ff" points="545.32,-198.58 553.25,-191.56 542.67,-192.1 545.32,-198.58"/>
</a>
</g>
</g>
<!-- Node9 -->
<g id="Node000009" class="node">
<title>Node9</title>
<g id="a_Node000009"><a xlink:title=" ">
<polygon fill="#e0e0e0" stroke="#999999" points="784.38,-190.62 670.88,-190.62 670.88,-171.38 784.38,-171.38 784.38,-190.62"/>
<text text-anchor="middle" x="727.62" y="-177.12" font-family="Helvetica,sans-Serif" font-size="10.00">boost/uuid/uuid_io.hpp</text>
</a>
</g>
</g>
<!-- Node1&#45;&gt;Node9 -->
<g id="edge8_Node000001_Node000009" class="edge">
<title>Node1&#45;&gt;Node9</title>
<g id="a_edge8_Node000001_Node000009"><a xlink:title=" ">
<path fill="none" stroke="#63b8ff" d="M468.76,-234.07C513.93,-225.5 593.58,-210.22 661.62,-196.25 665.96,-195.36 670.45,-194.42 674.95,-193.47"/>
<polygon fill="#63b8ff" stroke="#63b8ff" points="675.57,-196.92 684.63,-191.41 674.12,-190.07 675.57,-196.92"/>
</a>
</g>
</g>
<!-- Node10 -->
<g id="Node000010" class="node">
<title>Node10</title>
<g id="a_Node000010"><a xlink:href="_base_i_o_8hpp.html" target="_top" xlink:title=" ">
<polygon fill="white" stroke="#666666" points="834.5,-129.75 766.75,-129.75 766.75,-110.5 834.5,-110.5 834.5,-129.75"/>
<text text-anchor="middle" x="800.62" y="-116.25" font-family="Helvetica,sans-Serif" font-size="10.00">BaseIO.hpp</text>
</a>
</g>
</g>
<!-- Node1&#45;&gt;Node10 -->
<g id="edge9_Node000001_Node000010" class="edge">
<title>Node1&#45;&gt;Node10</title>
<g id="a_edge9_Node000001_Node000010"><a xlink:title=" ">
<path fill="none" stroke="#63b8ff" d="M468.8,-238.94C555.8,-233.94 771.22,-219.34 793.62,-196.25 807.5,-181.95 807.36,-158.13 804.96,-141.14"/>
<polygon fill="#63b8ff" stroke="#63b8ff" points="808.48,-140.92 803.25,-131.71 801.59,-142.17 808.48,-140.92"/>
</a>
</g>
</g>
<!-- Node18 -->
<g id="Node000018" class="node">
<title>Node18</title>
<g id="a_Node000018"><a xlink:title=" ">
<polygon fill="#e0e0e0" stroke="#999999" points="1071.38,-196.25 951.88,-196.25 951.88,-165.75 1071.38,-165.75 1071.38,-196.25"/>
<text text-anchor="start" x="959.88" y="-182.75" font-family="Helvetica,sans-Serif" font-size="10.00">boost/date_time/c_local</text>
<text text-anchor="middle" x="1011.62" y="-171.5" font-family="Helvetica,sans-Serif" font-size="10.00">_time_adjustor.hpp</text>
</a>
</g>
</g>
<!-- Node1&#45;&gt;Node18 -->
<g id="edge18_Node000001_Node000018" class="edge">
<title>Node1&#45;&gt;Node18</title>
<g id="a_edge18_Node000001_Node000018"><a xlink:title=" ">
<path fill="none" stroke="#63b8ff" d="M468.73,-239.21C550.85,-235.1 758.04,-222.94 940.48,-196.61"/>
<polygon fill="#63b8ff" stroke="#63b8ff" points="940.74,-200.11 950.13,-195.2 939.73,-193.18 940.74,-200.11"/>
</a>
</g>
</g>
<!-- Node19 -->
<g id="Node000019" class="node">
<title>Node19</title>
<g id="a_Node000019"><a xlink:href="_h_d_f5_i_o_8hpp.html" target="_top" xlink:title=" ">
<polygon fill="white" stroke="#666666" points="934.25,-190.62 841,-190.62 841,-171.38 934.25,-171.38 934.25,-190.62"/>
<text text-anchor="middle" x="887.62" y="-177.12" font-family="Helvetica,sans-Serif" font-size="10.00">hdf5/HDF5IO.hpp</text>
</a>
</g>
</g>
<!-- Node1&#45;&gt;Node19 -->
<g id="edge19_Node000001_Node000019" class="edge">
<title>Node1&#45;&gt;Node19</title>
<g id="a_edge19_Node000001_Node000019"><a xlink:title=" ">
<path fill="none" stroke="#63b8ff" d="M468.68,-238.21C538.25,-232.75 695.7,-218.88 826.62,-196.25 831.27,-195.45 836.08,-194.51 840.88,-193.5"/>
<polygon fill="#63b8ff" stroke="#63b8ff" points="841.47,-196.96 850.49,-191.39 839.97,-190.12 841.47,-196.96"/>
</a>
</g>
</g>
<!-- Node11 -->
<g id="Node000011" class="node">
<title>Node11</title>
<g id="a_Node000011"><a xlink:title=" ">
<polygon fill="#e0e0e0" stroke="#999999" points="854.25,-74.5 809,-74.5 809,-55.25 854.25,-55.25 854.25,-74.5"/>
<text text-anchor="middle" x="831.62" y="-61" font-family="Helvetica,sans-Serif" font-size="10.00">cstdint</text>
</a>
</g>
</g>
<!-- Node10&#45;&gt;Node11 -->
<g id="edge10_Node000010_Node000011" class="edge">
<title>Node10&#45;&gt;Node11</title>
<g id="a_edge10_Node000010_Node000011"><a xlink:title=" ">
<path fill="none" stroke="#63b8ff" d="M805.74,-110.33C809.8,-103.36 815.62,-93.37 820.71,-84.62"/>
<polygon fill="#63b8ff" stroke="#63b8ff" points="823.63,-86.57 825.63,-76.17 817.58,-83.05 823.63,-86.57"/>
</a>
</g>
</g>
<!-- Node12 -->
<g id="Node000012" class="node">
<title>Node12</title>
<g id="a_Node000012"><a xlink:title=" ">
<polygon fill="#e0e0e0" stroke="#999999" points="925.38,-74.5 871.88,-74.5 871.88,-55.25 925.38,-55.25 925.38,-74.5"/>
<text text-anchor="middle" x="898.62" y="-61" font-family="Helvetica,sans-Serif" font-size="10.00">iostream</text>
</a>
</g>
</g>
<!-- Node10&#45;&gt;Node12 -->
<g id="edge11_Node000010_Node000012" class="edge">
<title>Node10&#45;&gt;Node12</title>
<g id="a_edge11_Node000010_Node000012"><a xlink:title=" ">
<path fill="none" stroke="#63b8ff" d="M817.25,-110.09C832.31,-101.91 854.77,-89.71 872.28,-80.19"/>
<polygon fill="#63b8ff" stroke="#63b8ff" points="873.47,-83.52 880.59,-75.68 870.13,-77.37 873.47,-83.52"/>
</a>
</g>
</g>
<!-- Node13 -->
<g id="Node000013" class="node">
<title>Node13</title>
<g id="a_Node000013"><a xlink:title=" ">
<polygon fill="#e0e0e0" stroke="#999999" points="994.25,-74.5 943,-74.5 943,-55.25 994.25,-55.25 994.25,-74.5"/>
<text text-anchor="middle" x="968.62" y="-61" font-family="Helvetica,sans-Serif" font-size="10.00">memory</text>
</a>
</g>
</g>
<!-- Node10&#45;&gt;Node13 -->
<g id="edge12_Node000010_Node000013" class="edge">
<title>Node10&#45;&gt;Node13</title>
<g id="a_edge12_Node000010_Node000013"><a xlink:title=" ">
<path fill="none" stroke="#63b8ff" d="M829.12,-110.09C857.47,-101.11 901.08,-87.28 931.99,-77.49"/>
<polygon fill="#63b8ff" stroke="#63b8ff" points="932.83,-80.89 941.31,-74.53 930.72,-74.22 932.83,-80.89"/>
</a>
</g>
</g>
<!-- Node14 -->
<g id="Node000014" class="node">
<title>Node14</title>
<g id="a_Node000014"><a xlink:title=" ">
<polygon fill="#e0e0e0" stroke="#999999" points="1052.62,-74.5 1012.62,-74.5 1012.62,-55.25 1052.62,-55.25 1052.62,-74.5"/>
<text text-anchor="middle" x="1032.62" y="-61" font-family="Helvetica,sans-Serif" font-size="10.00">string</text>
</a>
</g>
</g>
<!-- Node10&#45;&gt;Node14 -->
<g id="edge13_Node000010_Node000014" class="edge">
<title>Node10&#45;&gt;Node14</title>
<g id="a_edge13_Node000010_Node000014"><a xlink:title=" ">
<path fill="none" stroke="#63b8ff" d="M834.95,-111.9C879.98,-102.36 957.59,-85.75 1001.28,-74.92"/>
<polygon fill="#63b8ff" stroke="#63b8ff" points="1002.1,-78.32 1010.93,-72.47 1000.38,-71.54 1002.1,-78.32"/>
</a>
</g>
</g>
<!-- Node15 -->
<g id="Node000015" class="node">
<title>Node15</title>
<g id="a_Node000015"><a xlink:title=" ">
<polygon fill="#e0e0e0" stroke="#999999" points="802.12,-19.25 759.12,-19.25 759.12,0 802.12,0 802.12,-19.25"/>
<text text-anchor="middle" x="780.62" y="-5.75" font-family="Helvetica,sans-Serif" font-size="10.00">vector</text>
</a>
</g>
</g>
<!-- Node10&#45;&gt;Node15 -->
<g id="edge14_Node000010_Node000015" class="edge">
<title>Node10&#45;&gt;Node15</title>
<g id="a_edge14_Node000010_Node000015"><a xlink:title=" ">
<path fill="none" stroke="#63b8ff" d="M798.99,-110.25C795.81,-93 788.73,-54.58 784.35,-30.81"/>
<polygon fill="#63b8ff" stroke="#63b8ff" points="787.81,-30.31 782.56,-21.12 780.93,-31.58 787.81,-30.31"/>
</a>
</g>
</g>
<!-- Node16 -->
<g id="Node000016" class="node">
<title>Node16</title>
<g id="a_Node000016"><a xlink:href="_types_8hpp.html" target="_top" xlink:title=" ">
<polygon fill="white" stroke="#666666" points="752.12,-74.5 691.12,-74.5 691.12,-55.25 752.12,-55.25 752.12,-74.5"/>
<text text-anchor="middle" x="721.62" y="-61" font-family="Helvetica,sans-Serif" font-size="10.00">Types.hpp</text>
</a>
</g>
</g>
<!-- Node10&#45;&gt;Node16 -->
<g id="edge15_Node000010_Node000016" class="edge">
<title>Node10&#45;&gt;Node16</title>
<g id="a_edge15_Node000010_Node000016"><a xlink:title=" ">
<path fill="none" stroke="#63b8ff" d="M787.22,-110.09C775.53,-102.21 758.32,-90.61 744.46,-81.27"/>
<polygon fill="#63b8ff" stroke="#63b8ff" points="746.6,-78.49 736.35,-75.8 742.68,-84.29 746.6,-78.49"/>
</a>
</g>
</g>
<!-- Node16&#45;&gt;Node15 -->
<g id="edge17_Node000016_Node000015" class="edge">
<title>Node16&#45;&gt;Node15</title>
<g id="a_edge17_Node000016_Node000015"><a xlink:title=" ">
<path fill="none" stroke="#63b8ff" d="M731.63,-54.84C739.99,-47.3 752.12,-36.35 762.23,-27.23"/>
<polygon fill="#63b8ff" stroke="#63b8ff" points="764.56,-29.84 769.64,-20.54 759.87,-24.64 764.56,-29.84"/>
</a>
</g>
</g>
<!-- Node17 -->
<g id="Node000017" class="node">
<title>Node17</title>
<g id="a_Node000017"><a xlink:title=" ">
<polygon fill="#e0e0e0" stroke="#999999" points="740.75,-19.25 692.5,-19.25 692.5,0 740.75,0 740.75,-19.25"/>
<text text-anchor="middle" x="716.62" y="-5.75" font-family="Helvetica,sans-Serif" font-size="10.00">cstddef</text>
</a>
</g>
</g>
<!-- Node16&#45;&gt;Node17 -->
<g id="edge16_Node000016_Node000017" class="edge">
<title>Node16&#45;&gt;Node17</title>
<g id="a_edge16_Node000016_Node000017"><a xlink:title=" ">
<path fill="none" stroke="#63b8ff" d="M720.8,-55.08C720.18,-48.49 719.31,-39.21 718.52,-30.82"/>
<polygon fill="#63b8ff" stroke="#63b8ff" points="722.03,-30.75 717.61,-21.12 715.06,-31.4 722.03,-30.75"/>
</a>
</g>
</g>
<!-- Node19&#45;&gt;Node10 -->
<g id="edge24_Node000019_Node000010" class="edge">
<title>Node19&#45;&gt;Node10</title>
<g id="a_edge24_Node000019_Node000010"><a xlink:title=" ">
<path fill="none" stroke="#63b8ff" d="M874.41,-171.06C860.87,-161.89 839.55,-147.47 823.31,-136.48"/>
<polygon fill="#63b8ff" stroke="#63b8ff" points="825.46,-133.71 815.22,-131 821.54,-139.5 825.46,-133.71"/>
</a>
</g>
</g>
<!-- Node19&#45;&gt;Node12 -->
<g id="edge20_Node000019_Node000012" class="edge">
<title>Node19&#45;&gt;Node12</title>
<g id="a_edge20_Node000019_Node000012"><a xlink:title=" ">
<path fill="none" stroke="#63b8ff" d="M899.2,-171.09C909.93,-162.02 925.18,-146.9 931.62,-129.75 937.85,-113.2 927.08,-95.42 916.23,-82.82"/>
<polygon fill="#63b8ff" stroke="#63b8ff" points="918.98,-80.65 909.58,-75.77 913.89,-85.45 918.98,-80.65"/>
</a>
</g>
</g>
<!-- Node19&#45;&gt;Node13 -->
<g id="edge21_Node000019_Node000013" class="edge">
<title>Node19&#45;&gt;Node13</title>
<g id="a_edge21_Node000019_Node000013"><a xlink:title=" ">
<path fill="none" stroke="#63b8ff" d="M901.38,-171.18C914.41,-162.18 933.72,-147.11 945.62,-129.75 954.81,-116.36 960.77,-98.87 964.32,-85.58"/>
<polygon fill="#63b8ff" stroke="#63b8ff" points="967.62,-86.81 966.57,-76.27 960.82,-85.17 967.62,-86.81"/>
</a>
</g>
</g>
<!-- Node19&#45;&gt;Node14 -->
<g id="edge22_Node000019_Node000014" class="edge">
<title>Node19&#45;&gt;Node14</title>
<g id="a_edge22_Node000019_Node000014"><a xlink:title=" ">
<path fill="none" stroke="#63b8ff" d="M902.69,-171.05C918.39,-161.49 943.47,-145.57 963.62,-129.75 982.58,-114.87 1002.63,-95.9 1016.2,-82.52"/>
<polygon fill="#63b8ff" stroke="#63b8ff" points="1018.43,-85.24 1023.03,-75.69 1013.48,-80.28 1018.43,-85.24"/>
</a>
</g>
</g>
<!-- Node19&#45;&gt;Node16 -->
<g id="edge25_Node000019_Node000016" class="edge">
<title>Node19&#45;&gt;Node16</title>
<g id="a_edge25_Node000019_Node000016"><a xlink:title=" ">
<path fill="none" stroke="#63b8ff" d="M843.29,-170.93C816.1,-163.55 781.96,-150.81 757.62,-129.75 743.79,-117.78 734.14,-99.11 728.34,-85.04"/>
<polygon fill="#63b8ff" stroke="#63b8ff" points="731.72,-84.08 724.9,-75.97 725.17,-86.56 731.72,-84.08"/>
</a>
</g>
</g>
<!-- Node20 -->
<g id="Node000020" class="node">
<title>Node20</title>
<g id="a_Node000020"><a xlink:title=" ">
<polygon fill="#e0e0e0" stroke="#999999" points="922.62,-129.75 852.62,-129.75 852.62,-110.5 922.62,-110.5 922.62,-129.75"/>
<text text-anchor="middle" x="887.62" y="-116.25" font-family="Helvetica,sans-Serif" font-size="10.00">H5Opublic.h</text>
</a>
</g>
</g>
<!-- Node19&#45;&gt;Node20 -->
<g id="edge23_Node000019_Node000020" class="edge">
<title>Node19&#45;&gt;Node20</title>
<g id="a_edge23_Node000019_Node000020"><a xlink:title=" ">
<path fill="none" stroke="#63b8ff" d="M887.62,-171.06C887.62,-163.28 887.62,-151.7 887.62,-141.66"/>
<polygon fill="#63b8ff" stroke="#63b8ff" points="891.13,-141.66 887.63,-131.66 884.13,-141.66 891.13,-141.66"/>
</a>
</g>
</g>
</g>
</svg>

<g id="navigator" transform="translate(0 0)" fill="#404254">
  <rect fill="#f2f5e9" fill-opacity="0.5" stroke="#606060" stroke-width=".5" x="0" y="0" width="60" height="60"/>
  <use id="zoomplus" xlink:href="#zoomPlus" x="17" y="9" onmousedown="handleZoom(evt,'in')"/>
  <use id="zoomminus" xlink:href="#zoomMin" x="42" y="9" onmousedown="handleZoom(evt,'out')"/>
  <use id="reset" xlink:href="#resetDef" x="30" y="36" onmousedown="handleReset()"/>
   <use id="arrowup" xlink:href="#arrowUp" x="0" y="0" onmousedown="handlePan(0,-1)"/>
  <use id="arrowright" xlink:href="#arrowRight" x="0" y="0" onmousedown="handlePan(1,0)"/>
  <use id="arrowdown" xlink:href="#arrowDown" x="0" y="0" onmousedown="handlePan(0,1)"/>
  <use id="arrowleft" xlink:href="#arrowLeft" x="0" y="0" onmousedown="handlePan(-1,0)"/>
</g>
<svg viewBox="0 0 15 15" width="100%" height="30px" preserveAspectRatio="xMaxYMin meet">
 <g id="arrow_out" transform="scale(0.3 0.3)">
  <a xlink:href="_utils_8hpp__incl_org.svg" target="_base">
   <rect id="button" ry="5" rx="5" y="6" x="6" height="38" width="38"
        fill="#f2f5e9" fill-opacity="0.5" stroke="#606060" stroke-width="1.0"/>
   <path id="arrow"
     d="M 11.500037,31.436501 C 11.940474,20.09759 22.043105,11.32322 32.158766,21.979434 L 37.068811,17.246167 C 37.068811,17.246167 37.088388,32 37.088388,32 L 22.160133,31.978069 C 22.160133,31.978069 26.997745,27.140456 26.997745,27.140456 C 18.528582,18.264221 13.291696,25.230495 11.500037,31.436501 z"
     style="fill:#404040;"/>
  </a>
 </g>
</svg>

<style type='text/css'>
<![CDATA[
[data-mouse-over-selected='false'] { opacity: 0.7; }
[data-mouse-over-selected='true']  { opacity: 1.0; }
]]>
</style>
<script type="application/ecmascript"><![CDATA[
document.addEventListener('DOMContentLoaded', (event) => {
  highlightEdges();
  highlightAdjacentNodes();
});
]]></script>
</svg>
