<?xml version="1.0" encoding="UTF-8" standalone="no"?>
<!DOCTYPE svg PUBLIC "-//W3C//DTD SVG 1.1//EN"
 "http://www.w3.org/Graphics/SVG/1.1/DTD/svg11.dtd">
<!-- Generated by graphviz version 14.1.0 (20251206.1807)
 -->
<!-- Title: src/Utils.hpp Pages: 1 -->
<svg width="1780pt" height="315pt"
 viewBox="0.00 0.00 1780.00 315.00" xmlns="http://www.w3.org/2000/svg" xmlns:xlink="http://www.w3.org/1999/xlink">
<g id="graph0" class="graph" transform="scale(1 1) rotate(0) translate(4 310.75)">
<title>src/Utils.hpp</title>
<!-- Node1 -->
<g id="Node000001" class="node">
<title>Node1</title>
<g id="a_Node000001"><a xlink:title=" ">
<polygon fill="#999999" stroke="#666666" points="814.84,-306.75 743.34,-306.75 743.34,-287.5 814.84,-287.5 814.84,-306.75"/>
<text xml:space="preserve" text-anchor="middle" x="779.09" y="-293.25" font-family="Helvetica,sans-Serif" font-size="10.00">src/Utils.hpp</text>
</a>
</g>
</g>
<!-- Node2 -->
<g id="Node000002" class="node">
<title>Node2</title>
<g id="a_Node000002"><a xlink:title=" ">
<polygon fill="#e0e0e0" stroke="#999999" points="107.97,-245.88 52.22,-245.88 52.22,-226.62 107.97,-226.62 107.97,-245.88"/>
<text xml:space="preserve" text-anchor="middle" x="80.09" y="-232.38" font-family="Helvetica,sans-Serif" font-size="10.00">algorithm</text>
</a>
</g>
</g>
<!-- Node1&#45;&gt;Node2 -->
<g id="edge1_Node000001_Node000002" class="edge">
<title>Node1&#45;&gt;Node2</title>
<g id="a_edge1_Node000001_Node000002"><a xlink:title=" ">
<path fill="none" stroke="#63b8ff" d="M742.89,-295.11C622.75,-291.53 238,-278.22 117.09,-251.5 115.2,-251.08 113.27,-250.58 111.34,-250.03"/>
<polygon fill="#63b8ff" stroke="#63b8ff" points="112.52,-246.73 101.93,-246.85 110.28,-253.36 112.52,-246.73"/>
</a>
</g>
</g>
<!-- Node3 -->
<g id="Node000003" class="node">
<title>Node3</title>
<g id="a_Node000003"><a xlink:title=" ">
<polygon fill="#e0e0e0" stroke="#999999" points="171.72,-245.88 126.47,-245.88 126.47,-226.62 171.72,-226.62 171.72,-245.88"/>
<text xml:space="preserve" text-anchor="middle" x="149.09" y="-232.38" font-family="Helvetica,sans-Serif" font-size="10.00">chrono</text>
</a>
</g>
</g>
<!-- Node1&#45;&gt;Node3 -->
<g id="edge2_Node000001_Node000003" class="edge">
<title>Node1&#45;&gt;Node3</title>
<g id="a_edge2_Node000001_Node000003"><a xlink:title=" ">
<path fill="none" stroke="#63b8ff" d="M743.17,-295.12C630.89,-291.72 287.63,-279.26 180.09,-251.5 178.91,-251.2 177.73,-250.85 176.54,-250.47"/>
<polygon fill="#63b8ff" stroke="#63b8ff" points="178.07,-247.31 167.48,-246.92 175.51,-253.83 178.07,-247.31"/>
</a>
</g>
</g>
<!-- Node4 -->
<g id="Node000004" class="node">
<title>Node4</title>
<g id="a_Node000004"><a xlink:title=" ">
<polygon fill="#e0e0e0" stroke="#999999" points="232.59,-245.88 189.59,-245.88 189.59,-226.62 232.59,-226.62 232.59,-245.88"/>
<text xml:space="preserve" text-anchor="middle" x="211.09" y="-232.38" font-family="Helvetica,sans-Serif" font-size="10.00">cmath</text>
</a>
</g>
</g>
<!-- Node1&#45;&gt;Node4 -->
<g id="edge3_Node000001_Node000004" class="edge">
<title>Node1&#45;&gt;Node4</title>
<g id="a_edge3_Node000001_Node000004"><a xlink:title=" ">
<path fill="none" stroke="#63b8ff" d="M743.04,-296.71C656.34,-297.33 429.82,-294.34 247.09,-251.5 245.33,-251.09 243.54,-250.6 241.75,-250.07"/>
<polygon fill="#63b8ff" stroke="#63b8ff" points="242.96,-246.79 232.37,-246.8 240.66,-253.4 242.96,-246.79"/>
</a>
</g>
</g>
<!-- Node5 -->
<g id="Node000005" class="node">
<title>Node5</title>
<g id="a_Node000005"><a xlink:title=" ">
<polygon fill="#e0e0e0" stroke="#999999" points="58.72,-74.5 13.47,-74.5 13.47,-55.25 58.72,-55.25 58.72,-74.5"/>
<text xml:space="preserve" text-anchor="middle" x="36.09" y="-61" font-family="Helvetica,sans-Serif" font-size="10.00">cstdint</text>
</a>
</g>
</g>
<!-- Node1&#45;&gt;Node5 -->
<g id="edge4_Node000001_Node000005" class="edge">
<title>Node1&#45;&gt;Node5</title>
<g id="a_edge4_Node000001_Node000005"><a xlink:title=" ">
<path fill="none" stroke="#63b8ff" d="M743.1,-295.45C677.82,-293.38 536.09,-285.06 422.09,-251.5 277.07,-208.81 118.96,-116.86 60,-80.81"/>
<polygon fill="#63b8ff" stroke="#63b8ff" points="62.11,-78 51.76,-75.74 58.44,-83.96 62.11,-78"/>
</a>
</g>
</g>
<!-- Node6 -->
<g id="Node000006" class="node">
<title>Node6</title>
<g id="a_Node000006"><a xlink:title=" ">
<polygon fill="#e0e0e0" stroke="#999999" points="736.09,-245.88 696.09,-245.88 696.09,-226.62 736.09,-226.62 736.09,-245.88"/>
<text xml:space="preserve" text-anchor="middle" x="716.09" y="-232.38" font-family="Helvetica,sans-Serif" font-size="10.00">ctime</text>
</a>
</g>
</g>
<!-- Node1&#45;&gt;Node6 -->
<g id="edge5_Node000001_Node000006" class="edge">
<title>Node1&#45;&gt;Node6</title>
<g id="a_edge5_Node000001_Node000006"><a xlink:title=" ">
<path fill="none" stroke="#63b8ff" d="M769.52,-287.18C760.09,-278.37 745.44,-264.68 733.86,-253.86"/>
<polygon fill="#63b8ff" stroke="#63b8ff" points="736.55,-251.58 726.85,-247.31 731.77,-256.69 736.55,-251.58"/>
</a>
</g>
</g>
<!-- Node7 -->
<g id="Node000007" class="node">
<title>Node7</title>
<g id="a_Node000007"><a xlink:title=" ">
<polygon fill="#e0e0e0" stroke="#999999" points="803.97,-245.88 754.22,-245.88 754.22,-226.62 803.97,-226.62 803.97,-245.88"/>
<text xml:space="preserve" text-anchor="middle" x="779.09" y="-232.38" font-family="Helvetica,sans-Serif" font-size="10.00">iomanip</text>
</a>
</g>
</g>
<!-- Node1&#45;&gt;Node7 -->
<g id="edge6_Node000001_Node000007" class="edge">
<title>Node1&#45;&gt;Node7</title>
<g id="a_edge6_Node000001_Node000007"><a xlink:title=" ">
<path fill="none" stroke="#63b8ff" d="M779.09,-287.18C779.09,-279.4 779.09,-267.83 779.09,-257.78"/>
<polygon fill="#63b8ff" stroke="#63b8ff" points="782.59,-257.79 779.09,-247.79 775.59,-257.79 782.59,-257.79"/>
</a>
</g>
</g>
<!-- Node8 -->
<g id="Node000008" class="node">
<title>Node8</title>
<g id="a_Node000008"><a xlink:title=" ">
<polygon fill="#e0e0e0" stroke="#999999" points="862.09,-245.88 822.09,-245.88 822.09,-226.62 862.09,-226.62 862.09,-245.88"/>
<text xml:space="preserve" text-anchor="middle" x="842.09" y="-232.38" font-family="Helvetica,sans-Serif" font-size="10.00">regex</text>
</a>
</g>
</g>
<!-- Node1&#45;&gt;Node8 -->
<g id="edge7_Node000001_Node000008" class="edge">
<title>Node1&#45;&gt;Node8</title>
<g id="a_edge7_Node000001_Node000008"><a xlink:title=" ">
<path fill="none" stroke="#63b8ff" d="M788.66,-287.18C798.09,-278.37 812.74,-264.68 824.32,-253.86"/>
<polygon fill="#63b8ff" stroke="#63b8ff" points="826.41,-256.69 831.33,-247.31 821.63,-251.58 826.41,-256.69"/>
</a>
</g>
</g>
<!-- Node9 -->
<g id="Node000009" class="node">
<title>Node9</title>
<g id="a_Node000009"><a xlink:title=" ">
<polygon fill="#e0e0e0" stroke="#999999" points="931.72,-245.88 880.47,-245.88 880.47,-226.62 931.72,-226.62 931.72,-245.88"/>
<text xml:space="preserve" text-anchor="middle" x="906.09" y="-232.38" font-family="Helvetica,sans-Serif" font-size="10.00">sstream</text>
</a>
</g>
</g>
<!-- Node1&#45;&gt;Node9 -->
<g id="edge8_Node000001_Node000009" class="edge">
<title>Node1&#45;&gt;Node9</title>
<g id="a_edge8_Node000001_Node000009"><a xlink:title=" ">
<path fill="none" stroke="#63b8ff" d="M798.66,-287.05C819.41,-277.43 852.45,-262.12 876.42,-251.01"/>
<polygon fill="#63b8ff" stroke="#63b8ff" points="877.74,-254.25 885.34,-246.87 874.79,-247.9 877.74,-254.25"/>
</a>
</g>
</g>
<!-- Node10 -->
<g id="Node000010" class="node">
<title>Node10</title>
<g id="a_Node000010"><a xlink:title=" ">
<polygon fill="#e0e0e0" stroke="#999999" points="886.09,-74.5 846.09,-74.5 846.09,-55.25 886.09,-55.25 886.09,-74.5"/>
<text xml:space="preserve" text-anchor="middle" x="866.09" y="-61" font-family="Helvetica,sans-Serif" font-size="10.00">string</text>
</a>
</g>
</g>
<!-- Node1&#45;&gt;Node10 -->
<g id="edge9_Node000001_Node000010" class="edge">
<title>Node1&#45;&gt;Node10</title>
<g id="a_edge9_Node000001_Node000010"><a xlink:title=" ">
<path fill="none" stroke="#63b8ff" d="M743.07,-288.55C722.87,-282.26 699.34,-271.06 687.09,-251.5 679.89,-240.01 681.38,-233.3 687.09,-221 713.55,-164 747.73,-171.05 795.09,-129.75 813.34,-113.84 833.87,-95.3 848.14,-82.3"/>
<polygon fill="#63b8ff" stroke="#63b8ff" points="850.38,-85 855.41,-75.67 845.66,-79.82 850.38,-85"/>
</a>
</g>
</g>
<!-- Node11 -->
<g id="Node000011" class="node">
<title>Node11</title>
<g id="a_Node000011"><a xlink:title=" ">
<polygon fill="#e0e0e0" stroke="#999999" points="1054.34,-245.88 949.84,-245.88 949.84,-226.62 1054.34,-226.62 1054.34,-245.88"/>
<text xml:space="preserve" text-anchor="middle" x="1002.09" y="-232.38" font-family="Helvetica,sans-Serif" font-size="10.00">boost/date_time.hpp</text>
</a>
</g>
</g>
<!-- Node1&#45;&gt;Node11 -->
<g id="edge10_Node000001_Node000011" class="edge">
<title>Node1&#45;&gt;Node11</title>
<g id="a_edge10_Node000001_Node000011"><a xlink:title=" ">
<path fill="none" stroke="#63b8ff" d="M813.45,-287.05C851.83,-276.92 914.15,-260.47 956.56,-249.27"/>
<polygon fill="#63b8ff" stroke="#63b8ff" points="957.46,-252.65 966.23,-246.72 955.67,-245.89 957.46,-252.65"/>
</a>
</g>
</g>
<!-- Node12 -->
<g id="Node000012" class="node">
<title>Node12</title>
<g id="a_Node000012"><a xlink:title=" ">
<polygon fill="#e0e0e0" stroke="#999999" points="1213.34,-245.88 1072.84,-245.88 1072.84,-226.62 1213.34,-226.62 1213.34,-245.88"/>
<text xml:space="preserve" text-anchor="middle" x="1143.09" y="-232.38" font-family="Helvetica,sans-Serif" font-size="10.00">boost/endian/conversion.hpp</text>
</a>
</g>
</g>
<!-- Node1&#45;&gt;Node12 -->
<g id="edge11_Node000001_Node000012" class="edge">
<title>Node1&#45;&gt;Node12</title>
<g id="a_edge11_Node000001_Node000012"><a xlink:title=" ">
<path fill="none" stroke="#63b8ff" d="M814.99,-290.72C868.92,-282.56 974,-266.43 1063.09,-251.5 1069.18,-250.48 1075.52,-249.39 1081.85,-248.29"/>
<polygon fill="#63b8ff" stroke="#63b8ff" points="1082.45,-251.74 1091.7,-246.56 1081.24,-244.84 1082.45,-251.74"/>
</a>
</g>
</g>
<!-- Node13 -->
<g id="Node000013" class="node">
<title>Node13</title>
<g id="a_Node000013"><a xlink:title=" ">
<polygon fill="#e0e0e0" stroke="#999999" points="1332.47,-245.88 1231.72,-245.88 1231.72,-226.62 1332.47,-226.62 1332.47,-245.88"/>
<text xml:space="preserve" text-anchor="middle" x="1282.09" y="-232.38" font-family="Helvetica,sans-Serif" font-size="10.00">boost/uuid/uuid.hpp</text>
</a>
</g>
</g>
<!-- Node1&#45;&gt;Node13 -->
<g id="edge12_Node000001_Node000013" class="edge">
<title>Node1&#45;&gt;Node13</title>
<g id="a_edge12_Node000001_Node000013"><a xlink:title=" ">
<path fill="none" stroke="#63b8ff" d="M815.2,-294.12C891,-289.55 1072.12,-276.75 1222.09,-251.5 1226.72,-250.72 1231.53,-249.79 1236.32,-248.78"/>
<polygon fill="#63b8ff" stroke="#63b8ff" points="1236.87,-252.24 1245.87,-246.66 1235.35,-245.41 1236.87,-252.24"/>
</a>
</g>
</g>
<!-- Node14 -->
<g id="Node000014" class="node">
<title>Node14</title>
<g id="a_Node000014"><a xlink:title=" ">
<polygon fill="#e0e0e0" stroke="#999999" points="1501.97,-245.88 1350.22,-245.88 1350.22,-226.62 1501.97,-226.62 1501.97,-245.88"/>
<text xml:space="preserve" text-anchor="middle" x="1426.09" y="-232.38" font-family="Helvetica,sans-Serif" font-size="10.00">boost/uuid/uuid_generators.hpp</text>
</a>
</g>
</g>
<!-- Node1&#45;&gt;Node14 -->
<g id="edge13_Node000001_Node000014" class="edge">
<title>Node1&#45;&gt;Node14</title>
<g id="a_edge13_Node000001_Node000014"><a xlink:title=" ">
<path fill="none" stroke="#63b8ff" d="M815.03,-294.36C904.3,-289.73 1143.17,-275.9 1341.09,-251.5 1348.86,-250.54 1357.01,-249.38 1365.05,-248.14"/>
<polygon fill="#63b8ff" stroke="#63b8ff" points="1365.49,-251.61 1374.81,-246.58 1364.38,-244.7 1365.49,-251.61"/>
</a>
</g>
</g>
<!-- Node15 -->
<g id="Node000015" class="node">
<title>Node15</title>
<g id="a_Node000015"><a xlink:title=" ">
<polygon fill="#e0e0e0" stroke="#999999" points="1633.84,-245.88 1520.34,-245.88 1520.34,-226.62 1633.84,-226.62 1633.84,-245.88"/>
<text xml:space="preserve" text-anchor="middle" x="1577.09" y="-232.38" font-family="Helvetica,sans-Serif" font-size="10.00">boost/uuid/uuid_io.hpp</text>
</a>
</g>
</g>
<!-- Node1&#45;&gt;Node15 -->
<g id="edge14_Node000001_Node000015" class="edge">
<title>Node1&#45;&gt;Node15</title>
<g id="a_edge14_Node000001_Node000015"><a xlink:title=" ">
<path fill="none" stroke="#63b8ff" d="M815.08,-295.86C921.79,-294.66 1245.59,-288.04 1511.09,-251.5 1516.82,-250.71 1522.8,-249.7 1528.71,-248.57"/>
<polygon fill="#63b8ff" stroke="#63b8ff" points="1529.33,-252.02 1538.44,-246.61 1527.94,-245.16 1529.33,-252.02"/>
</a>
</g>
</g>
<!-- Node16 -->
<g id="Node000016" class="node">
<title>Node16</title>
<g id="a_Node000016"><a xlink:title=" ">
<polygon fill="#e0e0e0" stroke="#999999" points="1771.84,-251.5 1652.34,-251.5 1652.34,-221 1771.84,-221 1771.84,-251.5"/>
<text xml:space="preserve" text-anchor="start" x="1660.34" y="-238" font-family="Helvetica,sans-Serif" font-size="10.00">boost/date_time/c_local</text>
<text xml:space="preserve" text-anchor="middle" x="1712.09" y="-226.75" font-family="Helvetica,sans-Serif" font-size="10.00">_time_adjustor.hpp</text>
</a>
</g>
</g>
<!-- Node1&#45;&gt;Node16 -->
<g id="edge15_Node000001_Node000016" class="edge">
<title>Node1&#45;&gt;Node16</title>
<g id="a_edge15_Node000001_Node000016"><a xlink:title=" ">
<path fill="none" stroke="#63b8ff" d="M815.07,-296.22C932.48,-296.12 1315.18,-292.54 1640.89,-251.64"/>
<polygon fill="#63b8ff" stroke="#63b8ff" points="1640.99,-255.15 1650.47,-250.42 1640.11,-248.21 1640.99,-255.15"/>
</a>
</g>
</g>
<!-- Node17 -->
<g id="Node000017" class="node">
<title>Node17</title>
<g id="a_Node000017"><a xlink:href="_base_i_o_8hpp.html" target="_top" xlink:title=" ">
<polygon fill="white" stroke="#666666" points="464.22,-129.75 385.97,-129.75 385.97,-110.5 464.22,-110.5 464.22,-129.75"/>
<text xml:space="preserve" text-anchor="middle" x="425.09" y="-116.25" font-family="Helvetica,sans-Serif" font-size="10.00">io/BaseIO.hpp</text>
</a>
</g>
</g>
<!-- Node1&#45;&gt;Node17 -->
<g id="edge16_Node000001_Node000017" class="edge">
<title>Node1&#45;&gt;Node17</title>
<g id="a_edge16_Node000001_Node000017"><a xlink:title=" ">
<path fill="none" stroke="#63b8ff" d="M743.07,-292.14C652.14,-281.21 417.66,-247.37 377.09,-185 365.92,-167.83 383.61,-149.22 400.57,-136.54"/>
<polygon fill="#63b8ff" stroke="#63b8ff" points="402.29,-139.61 408.5,-131.02 398.29,-133.86 402.29,-139.61"/>
</a>
</g>
</g>
<!-- Node30 -->
<g id="Node000030" class="node">
<title>Node30</title>
<g id="a_Node000030"><a xlink:href="_h_d_f5_i_o_8hpp.html" target="_top" xlink:title=" ">
<polygon fill="white" stroke="#666666" points="639.97,-245.88 536.22,-245.88 536.22,-226.62 639.97,-226.62 639.97,-245.88"/>
<text xml:space="preserve" text-anchor="middle" x="588.09" y="-232.38" font-family="Helvetica,sans-Serif" font-size="10.00">io/hdf5/HDF5IO.hpp</text>
</a>
</g>
</g>
<!-- Node1&#45;&gt;Node30 -->
<g id="edge32_Node000001_Node000030" class="edge">
<title>Node1&#45;&gt;Node30</title>
<g id="a_edge32_Node000001_Node000030"><a xlink:title=" ">
<path fill="none" stroke="#63b8ff" d="M749.67,-287.05C717.14,-277.03 664.55,-260.82 628.25,-249.63"/>
<polygon fill="#63b8ff" stroke="#63b8ff" points="629.58,-246.38 619,-246.78 627.52,-253.07 629.58,-246.38"/>
</a>
</g>
</g>
<!-- Node17&#45;&gt;Node5 -->
<g id="edge18_Node000017_Node000005" class="edge">
<title>Node17&#45;&gt;Node5</title>
<g id="a_edge18_Node000017_Node000005"><a xlink:title=" ">
<path fill="none" stroke="#63b8ff" d="M385.72,-116C321.63,-110.54 190.64,-97.74 70.31,-74.67"/>
<polygon fill="#63b8ff" stroke="#63b8ff" points="71.04,-71.25 60.56,-72.77 69.7,-78.12 71.04,-71.25"/>
</a>
</g>
</g>
<!-- Node17&#45;&gt;Node10 -->
<g id="edge21_Node000017_Node000010" class="edge">
<title>Node17&#45;&gt;Node10</title>
<g id="a_edge21_Node000017_Node000010"><a xlink:title=" ">
<path fill="none" stroke="#63b8ff" d="M464.65,-117.23C536.61,-113.26 693.77,-102.25 834.64,-74.66"/>
<polygon fill="#63b8ff" stroke="#63b8ff" points="835.01,-78.15 844.13,-72.76 833.64,-71.29 835.01,-78.15"/>
</a>
</g>
</g>
<!-- Node18 -->
<g id="Node000018" class="node">
<title>Node18</title>
<g id="a_Node000018"><a xlink:title=" ">
<polygon fill="#e0e0e0" stroke="#999999" points="234.97,-74.5 203.22,-74.5 203.22,-55.25 234.97,-55.25 234.97,-74.5"/>
<text xml:space="preserve" text-anchor="middle" x="219.09" y="-61" font-family="Helvetica,sans-Serif" font-size="10.00">any</text>
</a>
</g>
</g>
<!-- Node17&#45;&gt;Node18 -->
<g id="edge17_Node000017_Node000018" class="edge">
<title>Node17&#45;&gt;Node18</title>
<g id="a_edge17_Node000017_Node000018"><a xlink:title=" ">
<path fill="none" stroke="#63b8ff" d="M385.62,-110.48C351.15,-102.69 299.55,-90.45 246.43,-74.99"/>
<polygon fill="#63b8ff" stroke="#63b8ff" points="247.46,-71.65 236.88,-72.18 245.48,-78.36 247.46,-71.65"/>
</a>
</g>
</g>
<!-- Node19 -->
<g id="Node000019" class="node">
<title>Node19</title>
<g id="a_Node000019"><a xlink:title=" ">
<polygon fill="#e0e0e0" stroke="#999999" points="679.84,-74.5 626.34,-74.5 626.34,-55.25 679.84,-55.25 679.84,-74.5"/>
<text xml:space="preserve" text-anchor="middle" x="653.09" y="-61" font-family="Helvetica,sans-Serif" font-size="10.00">iostream</text>
</a>
</g>
</g>
<!-- Node17&#45;&gt;Node19 -->
<g id="edge19_Node000017_Node000019" class="edge">
<title>Node17&#45;&gt;Node19</title>
<g id="a_edge19_Node000017_Node000019"><a xlink:title=" ">
<path fill="none" stroke="#63b8ff" d="M464.45,-110.06C500.93,-101.64 556.99,-88.65 614.78,-75.03"/>
<polygon fill="#63b8ff" stroke="#63b8ff" points="615.57,-78.44 624.5,-72.74 613.96,-71.63 615.57,-78.44"/>
</a>
</g>
</g>
<!-- Node20 -->
<g id="Node000020" class="node">
<title>Node20</title>
<g id="a_Node000020"><a xlink:title=" ">
<polygon fill="#e0e0e0" stroke="#999999" points="748.72,-74.5 697.47,-74.5 697.47,-55.25 748.72,-55.25 748.72,-74.5"/>
<text xml:space="preserve" text-anchor="middle" x="723.09" y="-61" font-family="Helvetica,sans-Serif" font-size="10.00">memory</text>
</a>
</g>
</g>
<!-- Node17&#45;&gt;Node20 -->
<g id="edge20_Node000017_Node000020" class="edge">
<title>Node17&#45;&gt;Node20</title>
<g id="a_edge20_Node000017_Node000020"><a xlink:title=" ">
<path fill="none" stroke="#63b8ff" d="M464.64,-113.46C514.26,-106.13 602.17,-92.41 686.14,-75"/>
<polygon fill="#63b8ff" stroke="#63b8ff" points="686.6,-78.48 695.67,-73 685.17,-71.62 686.6,-78.48"/>
</a>
</g>
</g>
<!-- Node21 -->
<g id="Node000021" class="node">
<title>Node21</title>
<g id="a_Node000021"><a xlink:title=" ">
<polygon fill="#e0e0e0" stroke="#999999" points="311.09,-74.5 253.09,-74.5 253.09,-55.25 311.09,-55.25 311.09,-74.5"/>
<text xml:space="preserve" text-anchor="middle" x="282.09" y="-61" font-family="Helvetica,sans-Serif" font-size="10.00">typeindex</text>
</a>
</g>
</g>
<!-- Node17&#45;&gt;Node21 -->
<g id="edge22_Node000017_Node000021" class="edge">
<title>Node17&#45;&gt;Node21</title>
<g id="a_edge22_Node000017_Node000021"><a xlink:title=" ">
<path fill="none" stroke="#63b8ff" d="M400.83,-110.09C377.82,-101.52 343,-88.56 317.01,-78.88"/>
<polygon fill="#63b8ff" stroke="#63b8ff" points="318.48,-75.69 307.89,-75.48 316.04,-82.25 318.48,-75.69"/>
</a>
</g>
</g>
<!-- Node22 -->
<g id="Node000022" class="node">
<title>Node22</title>
<g id="a_Node000022"><a xlink:title=" ">
<polygon fill="#e0e0e0" stroke="#999999" points="608.47,-74.5 525.72,-74.5 525.72,-55.25 608.47,-55.25 608.47,-74.5"/>
<text xml:space="preserve" text-anchor="middle" x="567.09" y="-61" font-family="Helvetica,sans-Serif" font-size="10.00">unordered_map</text>
</a>
</g>
</g>
<!-- Node17&#45;&gt;Node22 -->
<g id="edge23_Node000017_Node000022" class="edge">
<title>Node17&#45;&gt;Node22</title>
<g id="a_edge23_Node000017_Node000022"><a xlink:title=" ">
<path fill="none" stroke="#63b8ff" d="M449.18,-110.09C472.03,-101.52 506.61,-88.56 532.42,-78.88"/>
<polygon fill="#63b8ff" stroke="#63b8ff" points="533.33,-82.27 541.47,-75.48 530.87,-75.72 533.33,-82.27"/>
</a>
</g>
</g>
<!-- Node23 -->
<g id="Node000023" class="node">
<title>Node23</title>
<g id="a_Node000023"><a xlink:title=" ">
<polygon fill="#e0e0e0" stroke="#999999" points="444.84,-74.5 367.34,-74.5 367.34,-55.25 444.84,-55.25 444.84,-74.5"/>
<text xml:space="preserve" text-anchor="middle" x="406.09" y="-61" font-family="Helvetica,sans-Serif" font-size="10.00">unordered_set</text>
</a>
</g>
</g>
<!-- Node17&#45;&gt;Node23 -->
<g id="edge24_Node000017_Node000023" class="edge">
<title>Node17&#45;&gt;Node23</title>
<g id="a_edge24_Node000017_Node000023"><a xlink:title=" ">
<path fill="none" stroke="#63b8ff" d="M421.95,-110.33C419.55,-103.59 416.13,-94.02 413.09,-85.49"/>
<polygon fill="#63b8ff" stroke="#63b8ff" points="416.46,-84.53 409.8,-76.28 409.87,-86.88 416.46,-84.53"/>
</a>
</g>
</g>
<!-- Node24 -->
<g id="Node000024" class="node">
<title>Node24</title>
<g id="a_Node000024"><a xlink:title=" ">
<polygon fill="#e0e0e0" stroke="#999999" points="507.72,-74.5 462.47,-74.5 462.47,-55.25 507.72,-55.25 507.72,-74.5"/>
<text xml:space="preserve" text-anchor="middle" x="485.09" y="-61" font-family="Helvetica,sans-Serif" font-size="10.00">variant</text>
</a>
</g>
</g>
<!-- Node17&#45;&gt;Node24 -->
<g id="edge25_Node000017_Node000024" class="edge">
<title>Node17&#45;&gt;Node24</title>
<g id="a_edge25_Node000017_Node000024"><a xlink:title=" ">
<path fill="none" stroke="#63b8ff" d="M435.27,-110.09C443.85,-102.47 456.36,-91.37 466.69,-82.2"/>
<polygon fill="#63b8ff" stroke="#63b8ff" points="468.77,-85.04 473.93,-75.78 464.13,-79.8 468.77,-85.04"/>
</a>
</g>
</g>
<!-- Node25 -->
<g id="Node000025" class="node">
<title>Node25</title>
<g id="a_Node000025"><a xlink:title=" ">
<polygon fill="#e0e0e0" stroke="#999999" points="360.59,-19.25 317.59,-19.25 317.59,0 360.59,0 360.59,-19.25"/>
<text xml:space="preserve" text-anchor="middle" x="339.09" y="-5.75" font-family="Helvetica,sans-Serif" font-size="10.00">vector</text>
</a>
</g>
</g>
<!-- Node17&#45;&gt;Node25 -->
<g id="edge26_Node000017_Node000025" class="edge">
<title>Node17&#45;&gt;Node25</title>
<g id="a_edge26_Node000017_Node000025"><a xlink:title=" ">
<path fill="none" stroke="#63b8ff" d="M404.39,-110.11C389.48,-102.62 369.96,-90.58 358.09,-74.5 348.71,-61.81 343.94,-44.5 341.52,-31.11"/>
<polygon fill="#63b8ff" stroke="#63b8ff" points="344.98,-30.63 340.07,-21.24 338.06,-31.64 344.98,-30.63"/>
</a>
</g>
</g>
<!-- Node26 -->
<g id="Node000026" class="node">
<title>Node26</title>
<g id="a_Node000026"><a xlink:title=" ">
<polygon fill="#e0e0e0" stroke="#999999" points="185.22,-74.5 76.97,-74.5 76.97,-55.25 185.22,-55.25 185.22,-74.5"/>
<text xml:space="preserve" text-anchor="middle" x="131.09" y="-61" font-family="Helvetica,sans-Serif" font-size="10.00">boost/multi_array.hpp</text>
</a>
</g>
</g>
<!-- Node17&#45;&gt;Node26 -->
<g id="edge27_Node000017_Node000026" class="edge">
<title>Node17&#45;&gt;Node26</title>
<g id="a_edge27_Node000017_Node000026"><a xlink:title=" ">
<path fill="none" stroke="#63b8ff" d="M385.75,-112C336.24,-103.03 250.67,-87.53 192.51,-77"/>
<polygon fill="#63b8ff" stroke="#63b8ff" points="193.22,-73.57 182.76,-75.23 191.97,-80.46 193.22,-73.57"/>
</a>
</g>
</g>
<!-- Node27 -->
<g id="Node000027" class="node">
<title>Node27</title>
<g id="a_Node000027"><a xlink:href="_types_8hpp.html" target="_top" xlink:title=" ">
<polygon fill="white" stroke="#666666" points="827.59,-74.5 766.59,-74.5 766.59,-55.25 827.59,-55.25 827.59,-74.5"/>
<text xml:space="preserve" text-anchor="middle" x="797.09" y="-61" font-family="Helvetica,sans-Serif" font-size="10.00">Types.hpp</text>
</a>
</g>
</g>
<!-- Node17&#45;&gt;Node27 -->
<g id="edge28_Node000017_Node000027" class="edge">
<title>Node17&#45;&gt;Node27</title>
<g id="a_edge28_Node000017_Node000027"><a xlink:title=" ">
<path fill="none" stroke="#63b8ff" d="M464.47,-114.94C524.95,-108.27 644.53,-94.16 755.43,-74.85"/>
<polygon fill="#63b8ff" stroke="#63b8ff" points="755.75,-78.34 764.99,-73.16 754.54,-71.45 755.75,-78.34"/>
</a>
</g>
</g>
<!-- Node27&#45;&gt;Node25 -->
<g id="edge31_Node000027_Node000025" class="edge">
<title>Node27&#45;&gt;Node25</title>
<g id="a_edge31_Node000027_Node000025"><a xlink:title=" ">
<path fill="none" stroke="#63b8ff" d="M766.5,-56.77C763.66,-56.21 760.83,-55.7 758.09,-55.25 615.45,-31.96 443.42,-18.04 372.32,-12.9"/>
<polygon fill="#63b8ff" stroke="#63b8ff" points="372.75,-9.42 362.53,-12.2 372.25,-16.4 372.75,-9.42"/>
</a>
</g>
</g>
<!-- Node28 -->
<g id="Node000028" class="node">
<title>Node28</title>
<g id="a_Node000028"><a xlink:title=" ">
<polygon fill="#e0e0e0" stroke="#999999" points="852.22,-19.25 803.97,-19.25 803.97,0 852.22,0 852.22,-19.25"/>
<text xml:space="preserve" text-anchor="middle" x="828.09" y="-5.75" font-family="Helvetica,sans-Serif" font-size="10.00">cstddef</text>
</a>
</g>
</g>
<!-- Node27&#45;&gt;Node28 -->
<g id="edge29_Node000027_Node000028" class="edge">
<title>Node27&#45;&gt;Node28</title>
<g id="a_edge29_Node000027_Node000028"><a xlink:title=" ">
<path fill="none" stroke="#63b8ff" d="M802.21,-55.08C806.27,-48.11 812.09,-38.12 817.18,-29.37"/>
<polygon fill="#63b8ff" stroke="#63b8ff" points="820.09,-31.32 822.1,-20.92 814.04,-27.8 820.09,-31.32"/>
</a>
</g>
</g>
<!-- Node29 -->
<g id="Node000029" class="node">
<title>Node29</title>
<g id="a_Node000029"><a xlink:title=" ">
<polygon fill="#e0e0e0" stroke="#999999" points="785.72,-19.25 746.47,-19.25 746.47,0 785.72,0 785.72,-19.25"/>
<text xml:space="preserve" text-anchor="middle" x="766.09" y="-5.75" font-family="Helvetica,sans-Serif" font-size="10.00">limits</text>
</a>
</g>
</g>
<!-- Node27&#45;&gt;Node29 -->
<g id="edge30_Node000027_Node000029" class="edge">
<title>Node27&#45;&gt;Node29</title>
<g id="a_edge30_Node000027_Node000029"><a xlink:title=" ">
<path fill="none" stroke="#63b8ff" d="M791.97,-55.08C787.91,-48.11 782.1,-38.12 777,-29.37"/>
<polygon fill="#63b8ff" stroke="#63b8ff" points="780.14,-27.8 772.08,-20.92 774.09,-31.32 780.14,-27.8"/>
</a>
</g>
</g>
<!-- Node30&#45;&gt;Node10 -->
<g id="edge35_Node000030_Node000010" class="edge">
<title>Node30&#45;&gt;Node10</title>
<g id="a_edge35_Node000030_Node000010"><a xlink:title=" ">
<path fill="none" stroke="#63b8ff" d="M604.43,-226.19C622.18,-216.27 651.34,-199.82 676.09,-185 736.9,-148.6 807.3,-103.73 842.9,-80.85"/>
<polygon fill="#63b8ff" stroke="#63b8ff" points="844.6,-83.92 851.11,-75.56 840.81,-78.03 844.6,-83.92"/>
</a>
</g>
</g>
<!-- Node30&#45;&gt;Node17 -->
<g id="edge38_Node000030_Node000017" class="edge">
<title>Node30&#45;&gt;Node17</title>
<g id="a_edge38_Node000030_Node000017"><a xlink:title=" ">
<path fill="none" stroke="#63b8ff" d="M573.94,-226.19C558.58,-216.28 533.37,-199.83 512.09,-185 489.13,-169 463.35,-149.93 445.86,-136.82"/>
<polygon fill="#63b8ff" stroke="#63b8ff" points="448.37,-134.32 438.27,-131.11 444.16,-139.92 448.37,-134.32"/>
</a>
</g>
</g>
<!-- Node30&#45;&gt;Node19 -->
<g id="edge33_Node000030_Node000019" class="edge">
<title>Node30&#45;&gt;Node19</title>
<g id="a_edge33_Node000030_Node000019"><a xlink:title=" ">
<path fill="none" stroke="#63b8ff" d="M591.59,-226.14C601.77,-199.6 631.6,-121.86 645.63,-85.3"/>
<polygon fill="#63b8ff" stroke="#63b8ff" points="648.88,-86.62 649.19,-76.03 642.34,-84.11 648.88,-86.62"/>
</a>
</g>
</g>
<!-- Node30&#45;&gt;Node20 -->
<g id="edge34_Node000030_Node000020" class="edge">
<title>Node30&#45;&gt;Node20</title>
<g id="a_edge34_Node000030_Node000020"><a xlink:title=" ">
<path fill="none" stroke="#63b8ff" d="M595.35,-226.14C616.88,-199.14 680.63,-119.15 709.09,-83.43"/>
<polygon fill="#63b8ff" stroke="#63b8ff" points="711.68,-85.8 715.18,-75.8 706.21,-81.44 711.68,-85.8"/>
</a>
</g>
</g>
<!-- Node30&#45;&gt;Node27 -->
<g id="edge37_Node000030_Node000027" class="edge">
<title>Node30&#45;&gt;Node27</title>
<g id="a_edge37_Node000030_Node000027"><a xlink:title=" ">
<path fill="none" stroke="#63b8ff" d="M599.33,-226.14C633.14,-198.74 734.28,-116.78 777.33,-81.89"/>
<polygon fill="#63b8ff" stroke="#63b8ff" points="779.31,-84.79 784.88,-75.77 774.9,-79.35 779.31,-84.79"/>
</a>
</g>
</g>
<!-- Node31 -->
<g id="Node000031" class="node">
<title>Node31</title>
<g id="a_Node000031"><a xlink:title=" ">
<polygon fill="#e0e0e0" stroke="#999999" points="591.09,-185 521.09,-185 521.09,-165.75 591.09,-165.75 591.09,-185"/>
<text xml:space="preserve" text-anchor="middle" x="556.09" y="-171.5" font-family="Helvetica,sans-Serif" font-size="10.00">H5Opublic.h</text>
</a>
</g>
</g>
<!-- Node30&#45;&gt;Node31 -->
<g id="edge36_Node000030_Node000031" class="edge">
<title>Node30&#45;&gt;Node31</title>
<g id="a_edge36_Node000030_Node000031"><a xlink:title=" ">
<path fill="none" stroke="#63b8ff" d="M583.23,-226.31C578.77,-218.1 572.01,-205.66 566.35,-195.25"/>
<polygon fill="#63b8ff" stroke="#63b8ff" points="569.57,-193.85 561.72,-186.73 563.42,-197.19 569.57,-193.85"/>
</a>
</g>
</g>
<!-- Node32 -->
<g id="Node000032" class="node">
<title>Node32</title>
<g id="a_Node000032"><a xlink:href="_read_i_o_8hpp.html" target="_top" xlink:title=" ">
<polygon fill="white" stroke="#666666" points="464.59,-185 385.59,-185 385.59,-165.75 464.59,-165.75 464.59,-185"/>
<text xml:space="preserve" text-anchor="middle" x="425.09" y="-171.5" font-family="Helvetica,sans-Serif" font-size="10.00">io/ReadIO.hpp</text>
</a>
</g>
</g>
<!-- Node30&#45;&gt;Node32 -->
<g id="edge39_Node000030_Node000032" class="edge">
<title>Node30&#45;&gt;Node32</title>
<g id="a_edge39_Node000030_Node000032"><a xlink:title=" ">
<path fill="none" stroke="#63b8ff" d="M562.98,-226.18C535.7,-216.33 491.89,-200.5 460.98,-189.34"/>
<polygon fill="#63b8ff" stroke="#63b8ff" points="462.25,-186.08 451.65,-185.97 459.87,-192.66 462.25,-186.08"/>
</a>
</g>
</g>
<!-- Node32&#45;&gt;Node5 -->
<g id="edge41_Node000032_Node000005" class="edge">
<title>Node32&#45;&gt;Node5</title>
<g id="a_edge41_Node000032_Node000005"><a xlink:title=" ">
<path fill="none" stroke="#63b8ff" d="M389.74,-165.31C355.5,-156.46 302.15,-142.52 256.09,-129.75 190.09,-111.46 113.33,-88.87 70.15,-76.04"/>
<polygon fill="#63b8ff" stroke="#63b8ff" points="71.19,-72.7 60.61,-73.21 69.2,-79.41 71.19,-72.7"/>
</a>
</g>
</g>
<!-- Node32&#45;&gt;Node10 -->
<g id="edge44_Node000032_Node000010" class="edge">
<title>Node32&#45;&gt;Node10</title>
<g id="a_edge44_Node000032_Node000010"><a xlink:title=" ">
<path fill="none" stroke="#63b8ff" d="M464.91,-166.42C506.69,-157.92 574.21,-143.78 632.09,-129.75 720.3,-108.37 744.49,-100.81 834.78,-75.11"/>
<polygon fill="#63b8ff" stroke="#63b8ff" points="835.71,-78.49 844.37,-72.39 833.8,-71.76 835.71,-78.49"/>
</a>
</g>
</g>
<!-- Node32&#45;&gt;Node17 -->
<g id="edge48_Node000032_Node000017" class="edge">
<title>Node32&#45;&gt;Node17</title>
<g id="a_edge48_Node000032_Node000017"><a xlink:title=" ">
<path fill="none" stroke="#63b8ff" d="M425.09,-165.58C425.09,-159.07 425.09,-149.92 425.09,-141.62"/>
<polygon fill="#63b8ff" stroke="#63b8ff" points="428.59,-141.62 425.09,-131.62 421.59,-141.62 428.59,-141.62"/>
</a>
</g>
</g>
<!-- Node32&#45;&gt;Node18 -->
<g id="edge40_Node000032_Node000018" class="edge">
<title>Node32&#45;&gt;Node18</title>
<g id="a_edge40_Node000032_Node000018"><a xlink:title=" ">
<path fill="none" stroke="#63b8ff" d="M407.88,-165.31C371.78,-146.3 287.94,-102.14 245.18,-79.62"/>
<polygon fill="#63b8ff" stroke="#63b8ff" points="247.07,-76.65 236.59,-75.09 243.81,-82.85 247.07,-76.65"/>
</a>
</g>
</g>
<!-- Node32&#45;&gt;Node19 -->
<g id="edge42_Node000032_Node000019" class="edge">
<title>Node32&#45;&gt;Node19</title>
<g id="a_edge42_Node000032_Node000019"><a xlink:title=" ">
<path fill="none" stroke="#63b8ff" d="M442.94,-165.28C467.74,-152.7 514.1,-129.41 554.09,-110.5 576.71,-99.81 602.48,-88.21 622.05,-79.52"/>
<polygon fill="#63b8ff" stroke="#63b8ff" points="623.4,-82.75 631.13,-75.5 620.57,-76.35 623.4,-82.75"/>
</a>
</g>
</g>
<!-- Node32&#45;&gt;Node20 -->
<g id="edge43_Node000032_Node000020" class="edge">
<title>Node32&#45;&gt;Node20</title>
<g id="a_edge43_Node000032_Node000020"><a xlink:title=" ">
<path fill="none" stroke="#63b8ff" d="M450.07,-165.33C474.92,-156.32 514.15,-142.1 548.09,-129.75 596.36,-112.19 652.09,-91.83 687.44,-78.91"/>
<polygon fill="#63b8ff" stroke="#63b8ff" points="688.56,-82.23 696.75,-75.51 686.16,-75.65 688.56,-82.23"/>
</a>
</g>
</g>
<!-- Node32&#45;&gt;Node21 -->
<g id="edge45_Node000032_Node000021" class="edge">
<title>Node32&#45;&gt;Node21</title>
<g id="a_edge45_Node000032_Node000021"><a xlink:title=" ">
<path fill="none" stroke="#63b8ff" d="M413.39,-165.5C389.19,-147.14 333.38,-104.79 302.89,-81.66"/>
<polygon fill="#63b8ff" stroke="#63b8ff" points="305.24,-79.05 295.16,-75.79 301.01,-84.62 305.24,-79.05"/>
</a>
</g>
</g>
<!-- Node32&#45;&gt;Node25 -->
<g id="edge46_Node000032_Node000025" class="edge">
<title>Node32&#45;&gt;Node25</title>
<g id="a_edge46_Node000032_Node000025"><a xlink:title=" ">
<path fill="none" stroke="#63b8ff" d="M385.33,-171.28C289.36,-162.87 49.62,-136.01 4.09,-74.5 -1,-67.62 -1.55,-61.69 4.09,-55.25 23.81,-32.73 224.88,-17.76 305.71,-12.61"/>
<polygon fill="#63b8ff" stroke="#63b8ff" points="305.9,-16.11 315.66,-11.99 305.46,-9.12 305.9,-16.11"/>
</a>
</g>
</g>
<!-- Node32&#45;&gt;Node26 -->
<g id="edge47_Node000032_Node000026" class="edge">
<title>Node32&#45;&gt;Node26</title>
<g id="a_edge47_Node000032_Node000026"><a xlink:title=" ">
<path fill="none" stroke="#63b8ff" d="M400.53,-165.31C348.43,-146.08 226.68,-101.15 166.32,-78.87"/>
<polygon fill="#63b8ff" stroke="#63b8ff" points="167.8,-75.69 157.21,-75.51 165.38,-82.26 167.8,-75.69"/>
</a>
</g>
</g>
<!-- Node32&#45;&gt;Node27 -->
<g id="edge49_Node000032_Node000027" class="edge">
<title>Node32&#45;&gt;Node27</title>
<g id="a_edge49_Node000032_Node000027"><a xlink:title=" ">
<path fill="none" stroke="#63b8ff" d="M458.77,-165.29C491.39,-156.43 542.21,-142.47 586.09,-129.75 645.69,-112.47 714.43,-91.46 756.83,-78.37"/>
<polygon fill="#63b8ff" stroke="#63b8ff" points="757.83,-81.72 766.35,-75.43 755.77,-75.04 757.83,-81.72"/>
</a>
</g>
</g>
</g>
</svg>
