<?xml version="1.0" encoding="UTF-8" standalone="no"?>
<!DOCTYPE svg PUBLIC "-//W3C//DTD SVG 1.1//EN"
 "http://www.w3.org/Graphics/SVG/1.1/DTD/svg11.dtd">
<!-- Generated by graphviz version 14.1.2 (20260124.0452)
 -->
<!-- Title: src/Utils.hpp Pages: 1 -->
<svg width="1262pt" height="304pt"
 viewBox="0.00 0.00 1262.00 304.00" xmlns="http://www.w3.org/2000/svg" xmlns:xlink="http://www.w3.org/1999/xlink">
<g id="graph0" class="graph" transform="scale(1 1) rotate(0) translate(4 299.5)">
<title>src/Utils.hpp</title>
<!-- Node1 -->
<g id="Node000001" class="node">
<title>Node1</title>
<g id="a_Node000001"><a xlink:title=" ">
<polygon fill="#999999" stroke="#666666" points="347.75,-295.5 276.25,-295.5 276.25,-276.25 347.75,-276.25 347.75,-295.5"/>
<text xml:space="preserve" text-anchor="middle" x="312" y="-282" font-family="Helvetica,sans-Serif" font-size="10.00">src/Utils.hpp</text>
</a>
</g>
</g>
<!-- Node2 -->
<g id="Node000002" class="node">
<title>Node2</title>
<g id="a_Node000002"><a xlink:title=" ">
<polygon fill="#e0e0e0" stroke="#999999" points="222.88,-74.5 167.12,-74.5 167.12,-55.25 222.88,-55.25 222.88,-74.5"/>
<text xml:space="preserve" text-anchor="middle" x="195" y="-61" font-family="Helvetica,sans-Serif" font-size="10.00">algorithm</text>
</a>
</g>
</g>
<!-- Node1&#45;&gt;Node2 -->
<g id="edge1_Node000001_Node000002" class="edge">
<title>Node1&#45;&gt;Node2</title>
<g id="a_edge1_Node000001_Node000002"><a xlink:title=" ">
<path fill="none" stroke="#63b8ff" d="M275.87,-284.04C212.3,-281.73 84.54,-273.03 57,-240.25 8.22,-182.2 115.52,-110.58 168.12,-80.39"/>
<polygon fill="#63b8ff" stroke="#63b8ff" points="169.53,-83.61 176.53,-75.66 166.09,-77.51 169.53,-83.61"/>
</a>
</g>
</g>
<!-- Node3 -->
<g id="Node000003" class="node">
<title>Node3</title>
<g id="a_Node000003"><a xlink:title=" ">
<polygon fill="#e0e0e0" stroke="#999999" points="531.88,-129.75 494.12,-129.75 494.12,-110.5 531.88,-110.5 531.88,-129.75"/>
<text xml:space="preserve" text-anchor="middle" x="513" y="-116.25" font-family="Helvetica,sans-Serif" font-size="10.00">array</text>
</a>
</g>
</g>
<!-- Node1&#45;&gt;Node3 -->
<g id="edge2_Node000001_Node000003" class="edge">
<title>Node1&#45;&gt;Node3</title>
<g id="a_edge2_Node000001_Node000003"><a xlink:title=" ">
<path fill="none" stroke="#63b8ff" d="M276.79,-275.82C243.64,-265.51 201.61,-246.7 220,-221 281.43,-135.16 421.06,-122.25 482.75,-120.89"/>
<polygon fill="#63b8ff" stroke="#63b8ff" points="482.53,-124.39 492.48,-120.77 482.44,-117.39 482.53,-124.39"/>
</a>
</g>
</g>
<!-- Node4 -->
<g id="Node000004" class="node">
<title>Node4</title>
<g id="a_Node000004"><a xlink:title=" ">
<polygon fill="#e0e0e0" stroke="#999999" points="111.62,-240.25 66.38,-240.25 66.38,-221 111.62,-221 111.62,-240.25"/>
<text xml:space="preserve" text-anchor="middle" x="89" y="-226.75" font-family="Helvetica,sans-Serif" font-size="10.00">chrono</text>
</a>
</g>
</g>
<!-- Node1&#45;&gt;Node4 -->
<g id="edge3_Node000001_Node000004" class="edge">
<title>Node1&#45;&gt;Node4</title>
<g id="a_edge3_Node000001_Node000004"><a xlink:title=" ">
<path fill="none" stroke="#63b8ff" d="M275.79,-276.95C239.38,-268.87 181.36,-255.7 122.91,-240.92"/>
<polygon fill="#63b8ff" stroke="#63b8ff" points="124.01,-237.59 113.46,-238.51 122.29,-244.37 124.01,-237.59"/>
</a>
</g>
</g>
<!-- Node5 -->
<g id="Node000005" class="node">
<title>Node5</title>
<g id="a_Node000005"><a xlink:title=" ">
<polygon fill="#e0e0e0" stroke="#999999" points="172.5,-240.25 129.5,-240.25 129.5,-221 172.5,-221 172.5,-240.25"/>
<text xml:space="preserve" text-anchor="middle" x="151" y="-226.75" font-family="Helvetica,sans-Serif" font-size="10.00">cmath</text>
</a>
</g>
</g>
<!-- Node1&#45;&gt;Node5 -->
<g id="edge4_Node000001_Node000005" class="edge">
<title>Node1&#45;&gt;Node5</title>
<g id="a_edge4_Node000001_Node000005"><a xlink:title=" ">
<path fill="none" stroke="#63b8ff" d="M284.69,-275.84C256.69,-266.58 213.14,-252.18 183.41,-242.35"/>
<polygon fill="#63b8ff" stroke="#63b8ff" points="184.79,-239.11 174.19,-239.3 182.59,-245.76 184.79,-239.11"/>
</a>
</g>
</g>
<!-- Node6 -->
<g id="Node000006" class="node">
<title>Node6</title>
<g id="a_Node000006"><a xlink:title=" ">
<polygon fill="#e0e0e0" stroke="#999999" points="1239.62,-74.5 1194.38,-74.5 1194.38,-55.25 1239.62,-55.25 1239.62,-74.5"/>
<text xml:space="preserve" text-anchor="middle" x="1217" y="-61" font-family="Helvetica,sans-Serif" font-size="10.00">cstdint</text>
</a>
</g>
</g>
<!-- Node1&#45;&gt;Node6 -->
<g id="edge5_Node000001_Node000006" class="edge">
<title>Node1&#45;&gt;Node6</title>
<g id="a_edge5_Node000001_Node000006"><a xlink:title=" ">
<path fill="none" stroke="#63b8ff" d="M348.06,-285.36C460.95,-285.82 816.38,-279.18 1090,-185 1136.55,-168.98 1152.44,-165.76 1186,-129.75 1197.83,-117.06 1206.02,-99.01 1211,-85.33"/>
<polygon fill="#63b8ff" stroke="#63b8ff" points="1214.23,-86.72 1214.08,-76.12 1207.59,-84.5 1214.23,-86.72"/>
</a>
</g>
</g>
<!-- Node7 -->
<g id="Node000007" class="node">
<title>Node7</title>
<g id="a_Node000007"><a xlink:title=" ">
<polygon fill="#e0e0e0" stroke="#999999" points="269,-240.25 229,-240.25 229,-221 269,-221 269,-240.25"/>
<text xml:space="preserve" text-anchor="middle" x="249" y="-226.75" font-family="Helvetica,sans-Serif" font-size="10.00">ctime</text>
</a>
</g>
</g>
<!-- Node1&#45;&gt;Node7 -->
<g id="edge6_Node000001_Node000007" class="edge">
<title>Node1&#45;&gt;Node7</title>
<g id="a_edge6_Node000001_Node000007"><a xlink:title=" ">
<path fill="none" stroke="#63b8ff" d="M301.31,-275.84C292.3,-268.22 279.17,-257.12 268.32,-247.95"/>
<polygon fill="#63b8ff" stroke="#63b8ff" points="270.58,-245.28 260.69,-241.5 266.06,-250.63 270.58,-245.28"/>
</a>
</g>
</g>
<!-- Node8 -->
<g id="Node000008" class="node">
<title>Node8</title>
<g id="a_Node000008"><a xlink:title=" ">
<polygon fill="#e0e0e0" stroke="#999999" points="336.88,-240.25 287.12,-240.25 287.12,-221 336.88,-221 336.88,-240.25"/>
<text xml:space="preserve" text-anchor="middle" x="312" y="-226.75" font-family="Helvetica,sans-Serif" font-size="10.00">iomanip</text>
</a>
</g>
</g>
<!-- Node1&#45;&gt;Node8 -->
<g id="edge7_Node000001_Node000008" class="edge">
<title>Node1&#45;&gt;Node8</title>
<g id="a_edge7_Node000001_Node000008"><a xlink:title=" ">
<path fill="none" stroke="#63b8ff" d="M312,-276.08C312,-269.57 312,-260.42 312,-252.12"/>
<polygon fill="#63b8ff" stroke="#63b8ff" points="315.5,-252.12 312,-242.12 308.5,-252.12 315.5,-252.12"/>
</a>
</g>
</g>
<!-- Node9 -->
<g id="Node000009" class="node">
<title>Node9</title>
<g id="a_Node000009"><a xlink:title=" ">
<polygon fill="#e0e0e0" stroke="#999999" points="403.12,-240.25 354.88,-240.25 354.88,-221 403.12,-221 403.12,-240.25"/>
<text xml:space="preserve" text-anchor="middle" x="379" y="-226.75" font-family="Helvetica,sans-Serif" font-size="10.00">random</text>
</a>
</g>
</g>
<!-- Node1&#45;&gt;Node9 -->
<g id="edge8_Node000001_Node000009" class="edge">
<title>Node1&#45;&gt;Node9</title>
<g id="a_edge8_Node000001_Node000009"><a xlink:title=" ">
<path fill="none" stroke="#63b8ff" d="M323.37,-275.84C333.05,-268.15 347.2,-256.9 358.81,-247.68"/>
<polygon fill="#63b8ff" stroke="#63b8ff" points="360.97,-250.43 366.62,-241.47 356.61,-244.95 360.97,-250.43"/>
</a>
</g>
</g>
<!-- Node10 -->
<g id="Node000010" class="node">
<title>Node10</title>
<g id="a_Node000010"><a xlink:title=" ">
<polygon fill="#e0e0e0" stroke="#999999" points="461,-240.25 421,-240.25 421,-221 461,-221 461,-240.25"/>
<text xml:space="preserve" text-anchor="middle" x="441" y="-226.75" font-family="Helvetica,sans-Serif" font-size="10.00">regex</text>
</a>
</g>
</g>
<!-- Node1&#45;&gt;Node10 -->
<g id="edge9_Node000001_Node000010" class="edge">
<title>Node1&#45;&gt;Node10</title>
<g id="a_edge9_Node000001_Node000010"><a xlink:title=" ">
<path fill="none" stroke="#63b8ff" d="M333.88,-275.84C354.86,-267.18 386.72,-254.03 410.24,-244.32"/>
<polygon fill="#63b8ff" stroke="#63b8ff" points="411.41,-247.63 419.31,-240.58 408.73,-241.16 411.41,-247.63"/>
</a>
</g>
</g>
<!-- Node11 -->
<g id="Node000011" class="node">
<title>Node11</title>
<g id="a_Node000011"><a xlink:title=" ">
<polygon fill="#e0e0e0" stroke="#999999" points="530.62,-240.25 479.38,-240.25 479.38,-221 530.62,-221 530.62,-240.25"/>
<text xml:space="preserve" text-anchor="middle" x="505" y="-226.75" font-family="Helvetica,sans-Serif" font-size="10.00">sstream</text>
</a>
</g>
</g>
<!-- Node1&#45;&gt;Node11 -->
<g id="edge10_Node000001_Node000011" class="edge">
<title>Node1&#45;&gt;Node11</title>
<g id="a_edge10_Node000001_Node000011"><a xlink:title=" ">
<path fill="none" stroke="#63b8ff" d="M344.74,-275.84C378.9,-266.42 432.35,-251.67 468.01,-241.83"/>
<polygon fill="#63b8ff" stroke="#63b8ff" points="468.75,-245.26 477.46,-239.22 466.89,-238.51 468.75,-245.26"/>
</a>
</g>
</g>
<!-- Node12 -->
<g id="Node000012" class="node">
<title>Node12</title>
<g id="a_Node000012"><a xlink:title=" ">
<polygon fill="#e0e0e0" stroke="#999999" points="406,-19.25 366,-19.25 366,0 406,0 406,-19.25"/>
<text xml:space="preserve" text-anchor="middle" x="386" y="-5.75" font-family="Helvetica,sans-Serif" font-size="10.00">string</text>
</a>
</g>
</g>
<!-- Node1&#45;&gt;Node12 -->
<g id="edge11_Node000001_Node000012" class="edge">
<title>Node1&#45;&gt;Node12</title>
<g id="a_edge11_Node000001_Node000012"><a xlink:title=" ">
<path fill="none" stroke="#63b8ff" d="M275.88,-282.41C211.71,-277.47 80.98,-264.67 43,-240.25 14.21,-221.74 0,-210.6 0,-176.38 0,-176.38 0,-176.38 0,-119.12 0,-45.76 261.69,-19.65 354.13,-12.72"/>
<polygon fill="#63b8ff" stroke="#63b8ff" points="354.29,-16.22 364.01,-12.01 353.78,-9.23 354.29,-16.22"/>
</a>
</g>
</g>
<!-- Node13 -->
<g id="Node000013" class="node">
<title>Node13</title>
<g id="a_Node000013"><a xlink:href="_base_i_o_8hpp.html" target="_top" xlink:title=" ">
<polygon fill="white" stroke="#666666" points="666.12,-129.75 587.88,-129.75 587.88,-110.5 666.12,-110.5 666.12,-129.75"/>
<text xml:space="preserve" text-anchor="middle" x="627" y="-116.25" font-family="Helvetica,sans-Serif" font-size="10.00">io/BaseIO.hpp</text>
</a>
</g>
</g>
<!-- Node1&#45;&gt;Node13 -->
<g id="edge12_Node000001_Node000013" class="edge">
<title>Node1&#45;&gt;Node13</title>
<g id="a_edge12_Node000001_Node000013"><a xlink:title=" ">
<path fill="none" stroke="#63b8ff" d="M348.19,-281.23C404.32,-275.01 509.11,-260.99 540,-240.25 572.91,-218.16 565.22,-197.45 589,-165.75 595.93,-156.51 604.19,-146.68 611.24,-138.61"/>
<polygon fill="#63b8ff" stroke="#63b8ff" points="613.78,-141.02 617.79,-131.22 608.54,-136.38 613.78,-141.02"/>
</a>
</g>
</g>
<!-- Node26 -->
<g id="Node000026" class="node">
<title>Node26</title>
<g id="a_Node000026"><a xlink:href="_h_d_f5_i_o_8hpp.html" target="_top" xlink:title=" ">
<polygon fill="white" stroke="#666666" points="690.88,-240.25 587.12,-240.25 587.12,-221 690.88,-221 690.88,-240.25"/>
<text xml:space="preserve" text-anchor="middle" x="639" y="-226.75" font-family="Helvetica,sans-Serif" font-size="10.00">io/hdf5/HDF5IO.hpp</text>
</a>
</g>
</g>
<!-- Node1&#45;&gt;Node26 -->
<g id="edge30_Node000001_Node000026" class="edge">
<title>Node1&#45;&gt;Node26</title>
<g id="a_edge30_Node000001_Node000026"><a xlink:title=" ">
<path fill="none" stroke="#63b8ff" d="M348.24,-278.97C403.03,-270.05 507.69,-253.01 575.36,-241.99"/>
<polygon fill="#63b8ff" stroke="#63b8ff" points="575.91,-245.44 585.22,-240.38 574.79,-238.54 575.91,-245.44"/>
</a>
</g>
</g>
<!-- Node13&#45;&gt;Node2 -->
<g id="edge13_Node000013_Node000002" class="edge">
<title>Node13&#45;&gt;Node2</title>
<g id="a_edge13_Node000013_Node000002"><a xlink:title=" ">
<path fill="none" stroke="#63b8ff" d="M587.66,-114.94C501.02,-105.7 297.08,-83.74 234.58,-74.6"/>
<polygon fill="#63b8ff" stroke="#63b8ff" points="235.13,-71.15 224.71,-73.04 234.04,-78.06 235.13,-71.15"/>
</a>
</g>
</g>
<!-- Node13&#45;&gt;Node6 -->
<g id="edge15_Node000013_Node000006" class="edge">
<title>Node13&#45;&gt;Node6</title>
<g id="a_edge15_Node000013_Node000006"><a xlink:title=" ">
<path fill="none" stroke="#63b8ff" d="M666.17,-115.59C775.1,-105.76 1080.34,-78.21 1182.9,-68.95"/>
<polygon fill="#63b8ff" stroke="#63b8ff" points="1182.95,-72.46 1192.6,-68.08 1182.32,-65.49 1182.95,-72.46"/>
</a>
</g>
</g>
<!-- Node13&#45;&gt;Node12 -->
<g id="edge18_Node000013_Node000012" class="edge">
<title>Node13&#45;&gt;Node12</title>
<g id="a_edge18_Node000013_Node000012"><a xlink:title=" ">
<path fill="none" stroke="#63b8ff" d="M587.55,-112.28C525.58,-101.37 411.74,-80.65 405,-74.5 392.84,-63.4 388.33,-44.9 386.72,-30.66"/>
<polygon fill="#63b8ff" stroke="#63b8ff" points="390.24,-30.77 386.04,-21.04 383.25,-31.27 390.24,-30.77"/>
</a>
</g>
</g>
<!-- Node14 -->
<g id="Node000014" class="node">
<title>Node14</title>
<g id="a_Node000014"><a xlink:title=" ">
<polygon fill="#e0e0e0" stroke="#999999" points="679.88,-74.5 648.12,-74.5 648.12,-55.25 679.88,-55.25 679.88,-74.5"/>
<text xml:space="preserve" text-anchor="middle" x="664" y="-61" font-family="Helvetica,sans-Serif" font-size="10.00">any</text>
</a>
</g>
</g>
<!-- Node13&#45;&gt;Node14 -->
<g id="edge14_Node000013_Node000014" class="edge">
<title>Node13&#45;&gt;Node14</title>
<g id="a_edge14_Node000013_Node000014"><a xlink:title=" ">
<path fill="none" stroke="#63b8ff" d="M633.11,-110.33C638.06,-103.21 645.2,-92.93 651.37,-84.05"/>
<polygon fill="#63b8ff" stroke="#63b8ff" points="654.06,-86.31 656.89,-76.1 648.31,-82.32 654.06,-86.31"/>
</a>
</g>
</g>
<!-- Node15 -->
<g id="Node000015" class="node">
<title>Node15</title>
<g id="a_Node000015"><a xlink:title=" ">
<polygon fill="#e0e0e0" stroke="#999999" points="294.75,-74.5 241.25,-74.5 241.25,-55.25 294.75,-55.25 294.75,-74.5"/>
<text xml:space="preserve" text-anchor="middle" x="268" y="-61" font-family="Helvetica,sans-Serif" font-size="10.00">iostream</text>
</a>
</g>
</g>
<!-- Node13&#45;&gt;Node15 -->
<g id="edge16_Node000013_Node000015" class="edge">
<title>Node13&#45;&gt;Node15</title>
<g id="a_edge16_Node000013_Node000015"><a xlink:title=" ">
<path fill="none" stroke="#63b8ff" d="M587.66,-112.59C583.06,-111.87 578.43,-111.15 574,-110.5 457.44,-93.28 424.37,-96.83 306.37,-74.98"/>
<polygon fill="#63b8ff" stroke="#63b8ff" points="307.03,-71.54 296.56,-73.14 305.74,-78.42 307.03,-71.54"/>
</a>
</g>
</g>
<!-- Node16 -->
<g id="Node000016" class="node">
<title>Node16</title>
<g id="a_Node000016"><a xlink:title=" ">
<polygon fill="#e0e0e0" stroke="#999999" points="749.62,-74.5 698.38,-74.5 698.38,-55.25 749.62,-55.25 749.62,-74.5"/>
<text xml:space="preserve" text-anchor="middle" x="724" y="-61" font-family="Helvetica,sans-Serif" font-size="10.00">memory</text>
</a>
</g>
</g>
<!-- Node13&#45;&gt;Node16 -->
<g id="edge17_Node000013_Node000016" class="edge">
<title>Node13&#45;&gt;Node16</title>
<g id="a_edge17_Node000013_Node000016"><a xlink:title=" ">
<path fill="none" stroke="#63b8ff" d="M643.45,-110.09C658.23,-101.98 680.18,-89.93 697.43,-80.46"/>
<polygon fill="#63b8ff" stroke="#63b8ff" points="699.06,-83.56 706.14,-75.68 695.69,-77.43 699.06,-83.56"/>
</a>
</g>
</g>
<!-- Node17 -->
<g id="Node000017" class="node">
<title>Node17</title>
<g id="a_Node000017"><a xlink:title=" ">
<polygon fill="#e0e0e0" stroke="#999999" points="826,-74.5 768,-74.5 768,-55.25 826,-55.25 826,-74.5"/>
<text xml:space="preserve" text-anchor="middle" x="797" y="-61" font-family="Helvetica,sans-Serif" font-size="10.00">typeindex</text>
</a>
</g>
</g>
<!-- Node13&#45;&gt;Node17 -->
<g id="edge19_Node000013_Node000017" class="edge">
<title>Node13&#45;&gt;Node17</title>
<g id="a_edge19_Node000013_Node000017"><a xlink:title=" ">
<path fill="none" stroke="#63b8ff" d="M655.84,-110.09C683.68,-101.37 726.07,-88.09 757.14,-78.36"/>
<polygon fill="#63b8ff" stroke="#63b8ff" points="758.08,-81.73 766.58,-75.4 755.99,-75.05 758.08,-81.73"/>
</a>
</g>
</g>
<!-- Node18 -->
<g id="Node000018" class="node">
<title>Node18</title>
<g id="a_Node000018"><a xlink:title=" ">
<polygon fill="#e0e0e0" stroke="#999999" points="496.38,-74.5 413.62,-74.5 413.62,-55.25 496.38,-55.25 496.38,-74.5"/>
<text xml:space="preserve" text-anchor="middle" x="455" y="-61" font-family="Helvetica,sans-Serif" font-size="10.00">unordered_map</text>
</a>
</g>
</g>
<!-- Node13&#45;&gt;Node18 -->
<g id="edge20_Node000013_Node000018" class="edge">
<title>Node13&#45;&gt;Node18</title>
<g id="a_edge20_Node000013_Node000018"><a xlink:title=" ">
<path fill="none" stroke="#63b8ff" d="M597.82,-110.09C569.53,-101.33 526.39,-87.98 494.92,-78.23"/>
<polygon fill="#63b8ff" stroke="#63b8ff" points="496.35,-75.01 485.77,-75.4 494.28,-81.7 496.35,-75.01"/>
</a>
</g>
</g>
<!-- Node19 -->
<g id="Node000019" class="node">
<title>Node19</title>
<g id="a_Node000019"><a xlink:title=" ">
<polygon fill="#e0e0e0" stroke="#999999" points="591.75,-74.5 514.25,-74.5 514.25,-55.25 591.75,-55.25 591.75,-74.5"/>
<text xml:space="preserve" text-anchor="middle" x="553" y="-61" font-family="Helvetica,sans-Serif" font-size="10.00">unordered_set</text>
</a>
</g>
</g>
<!-- Node13&#45;&gt;Node19 -->
<g id="edge21_Node000013_Node000019" class="edge">
<title>Node13&#45;&gt;Node19</title>
<g id="a_edge21_Node000013_Node000019"><a xlink:title=" ">
<path fill="none" stroke="#63b8ff" d="M614.45,-110.09C603.54,-102.24 587.5,-90.7 574.54,-81.37"/>
<polygon fill="#63b8ff" stroke="#63b8ff" points="576.76,-78.66 566.6,-75.66 572.67,-84.34 576.76,-78.66"/>
</a>
</g>
</g>
<!-- Node20 -->
<g id="Node000020" class="node">
<title>Node20</title>
<g id="a_Node000020"><a xlink:title=" ">
<polygon fill="#e0e0e0" stroke="#999999" points="357.62,-74.5 312.38,-74.5 312.38,-55.25 357.62,-55.25 357.62,-74.5"/>
<text xml:space="preserve" text-anchor="middle" x="335" y="-61" font-family="Helvetica,sans-Serif" font-size="10.00">variant</text>
</a>
</g>
</g>
<!-- Node13&#45;&gt;Node20 -->
<g id="edge22_Node000013_Node000020" class="edge">
<title>Node13&#45;&gt;Node20</title>
<g id="a_edge22_Node000013_Node000020"><a xlink:title=" ">
<path fill="none" stroke="#63b8ff" d="M587.45,-112.48C526.52,-102.2 412.51,-82.76 372,-74.5 371.01,-74.3 370.01,-74.09 368.99,-73.88"/>
<polygon fill="#63b8ff" stroke="#63b8ff" points="370.05,-70.52 359.53,-71.78 368.54,-77.36 370.05,-70.52"/>
</a>
</g>
</g>
<!-- Node21 -->
<g id="Node000021" class="node">
<title>Node21</title>
<g id="a_Node000021"><a xlink:title=" ">
<polygon fill="#e0e0e0" stroke="#999999" points="908.5,-19.25 865.5,-19.25 865.5,0 908.5,0 908.5,-19.25"/>
<text xml:space="preserve" text-anchor="middle" x="887" y="-5.75" font-family="Helvetica,sans-Serif" font-size="10.00">vector</text>
</a>
</g>
</g>
<!-- Node13&#45;&gt;Node21 -->
<g id="edge23_Node000013_Node000021" class="edge">
<title>Node13&#45;&gt;Node21</title>
<g id="a_edge23_Node000013_Node000021"><a xlink:title=" ">
<path fill="none" stroke="#63b8ff" d="M625.82,-110.28C624.51,-96.47 624.26,-69.87 639,-55.25 668.84,-25.64 793.65,-15.34 854.02,-12.04"/>
<polygon fill="#63b8ff" stroke="#63b8ff" points="853.86,-15.55 863.67,-11.55 853.51,-8.56 853.86,-15.55"/>
</a>
</g>
</g>
<!-- Node22 -->
<g id="Node000022" class="node">
<title>Node22</title>
<g id="a_Node000022"><a xlink:href="_types_8hpp.html" target="_top" xlink:title=" ">
<polygon fill="white" stroke="#666666" points="981.5,-74.5 920.5,-74.5 920.5,-55.25 981.5,-55.25 981.5,-74.5"/>
<text xml:space="preserve" text-anchor="middle" x="951" y="-61" font-family="Helvetica,sans-Serif" font-size="10.00">Types.hpp</text>
</a>
</g>
</g>
<!-- Node13&#45;&gt;Node22 -->
<g id="edge24_Node000013_Node000022" class="edge">
<title>Node13&#45;&gt;Node22</title>
<g id="a_edge24_Node000013_Node000022"><a xlink:title=" ">
<path fill="none" stroke="#63b8ff" d="M666.4,-112.65C727.85,-102.55 845.95,-83.14 908.96,-72.78"/>
<polygon fill="#63b8ff" stroke="#63b8ff" points="909.27,-76.28 918.57,-71.2 908.13,-69.37 909.27,-76.28"/>
</a>
</g>
</g>
<!-- Node22&#45;&gt;Node12 -->
<g id="edge27_Node000022_Node000012" class="edge">
<title>Node22&#45;&gt;Node12</title>
<g id="a_edge27_Node000022_Node000012"><a xlink:title=" ">
<path fill="none" stroke="#63b8ff" d="M920.26,-60.6C904.62,-58.95 885.3,-56.95 868,-55.25 698.11,-38.56 494.35,-20.26 417.44,-13.41"/>
<polygon fill="#63b8ff" stroke="#63b8ff" points="417.99,-9.95 407.72,-12.55 417.37,-16.92 417.99,-9.95"/>
</a>
</g>
</g>
<!-- Node22&#45;&gt;Node21 -->
<g id="edge29_Node000022_Node000021" class="edge">
<title>Node22&#45;&gt;Node21</title>
<g id="a_edge29_Node000022_Node000021"><a xlink:title=" ">
<path fill="none" stroke="#63b8ff" d="M940.14,-54.84C930.89,-47.15 917.38,-35.9 906.29,-26.68"/>
<polygon fill="#63b8ff" stroke="#63b8ff" points="908.79,-24.2 898.86,-20.49 904.31,-29.58 908.79,-24.2"/>
</a>
</g>
</g>
<!-- Node23 -->
<g id="Node000023" class="node">
<title>Node23</title>
<g id="a_Node000023"><a xlink:title=" ">
<polygon fill="#e0e0e0" stroke="#999999" points="975.12,-19.25 926.88,-19.25 926.88,0 975.12,0 975.12,-19.25"/>
<text xml:space="preserve" text-anchor="middle" x="951" y="-5.75" font-family="Helvetica,sans-Serif" font-size="10.00">cstddef</text>
</a>
</g>
</g>
<!-- Node22&#45;&gt;Node23 -->
<g id="edge25_Node000022_Node000023" class="edge">
<title>Node22&#45;&gt;Node23</title>
<g id="a_edge25_Node000022_Node000023"><a xlink:title=" ">
<path fill="none" stroke="#63b8ff" d="M951,-55.08C951,-48.57 951,-39.42 951,-31.12"/>
<polygon fill="#63b8ff" stroke="#63b8ff" points="954.5,-31.12 951,-21.12 947.5,-31.12 954.5,-31.12"/>
</a>
</g>
</g>
<!-- Node24 -->
<g id="Node000024" class="node">
<title>Node24</title>
<g id="a_Node000024"><a xlink:title=" ">
<polygon fill="#e0e0e0" stroke="#999999" points="1032.62,-19.25 993.38,-19.25 993.38,0 1032.62,0 1032.62,-19.25"/>
<text xml:space="preserve" text-anchor="middle" x="1013" y="-5.75" font-family="Helvetica,sans-Serif" font-size="10.00">limits</text>
</a>
</g>
</g>
<!-- Node22&#45;&gt;Node24 -->
<g id="edge26_Node000022_Node000024" class="edge">
<title>Node22&#45;&gt;Node24</title>
<g id="a_edge26_Node000022_Node000024"><a xlink:title=" ">
<path fill="none" stroke="#63b8ff" d="M961.52,-54.84C970.39,-47.22 983.31,-36.12 993.99,-26.95"/>
<polygon fill="#63b8ff" stroke="#63b8ff" points="996.18,-29.68 1001.49,-20.51 991.62,-24.37 996.18,-29.68"/>
</a>
</g>
</g>
<!-- Node25 -->
<g id="Node000025" class="node">
<title>Node25</title>
<g id="a_Node000025"><a xlink:title=" ">
<polygon fill="#e0e0e0" stroke="#999999" points="1217.88,-19.25 1156.12,-19.25 1156.12,0 1217.88,0 1217.88,-19.25"/>
<text xml:space="preserve" text-anchor="middle" x="1187" y="-5.75" font-family="Helvetica,sans-Serif" font-size="10.00">type_traits</text>
</a>
</g>
</g>
<!-- Node22&#45;&gt;Node25 -->
<g id="edge28_Node000022_Node000025" class="edge">
<title>Node22&#45;&gt;Node25</title>
<g id="a_edge28_Node000022_Node000025"><a xlink:title=" ">
<path fill="none" stroke="#63b8ff" d="M981.85,-56.91C1023.52,-47.51 1097.95,-30.72 1144.78,-20.15"/>
<polygon fill="#63b8ff" stroke="#63b8ff" points="1145.3,-23.62 1154.29,-18.01 1143.76,-16.79 1145.3,-23.62"/>
</a>
</g>
</g>
<!-- Node26&#45;&gt;Node12 -->
<g id="edge33_Node000026_Node000012" class="edge">
<title>Node26&#45;&gt;Node12</title>
<g id="a_edge33_Node000026_Node000012"><a xlink:title=" ">
<path fill="none" stroke="#63b8ff" d="M586.99,-220.72C473.47,-200.11 209.48,-145.42 158,-74.5 152.97,-67.58 152.56,-61.86 158,-55.25 182.48,-25.51 297.33,-15.31 354.09,-12.04"/>
<polygon fill="#63b8ff" stroke="#63b8ff" points="354.28,-15.54 364.08,-11.51 353.9,-8.55 354.28,-15.54"/>
</a>
</g>
</g>
<!-- Node26&#45;&gt;Node13 -->
<g id="edge36_Node000026_Node000013" class="edge">
<title>Node26&#45;&gt;Node13</title>
<g id="a_edge36_Node000026_Node000013"><a xlink:title=" ">
<path fill="none" stroke="#63b8ff" d="M625.8,-220.77C615.23,-212.83 601.19,-200.1 595,-185 588.34,-168.75 598.84,-150.93 609.55,-138.25"/>
<polygon fill="#63b8ff" stroke="#63b8ff" points="611.91,-140.86 616.12,-131.13 606.77,-136.11 611.91,-140.86"/>
</a>
</g>
</g>
<!-- Node26&#45;&gt;Node15 -->
<g id="edge31_Node000026_Node000015" class="edge">
<title>Node26&#45;&gt;Node15</title>
<g id="a_edge31_Node000026_Node000015"><a xlink:title=" ">
<path fill="none" stroke="#63b8ff" d="M618.52,-220.59C556.83,-193.36 372.44,-111.97 298.84,-79.49"/>
<polygon fill="#63b8ff" stroke="#63b8ff" points="300.36,-76.33 289.8,-75.5 297.53,-82.74 300.36,-76.33"/>
</a>
</g>
</g>
<!-- Node26&#45;&gt;Node16 -->
<g id="edge32_Node000026_Node000016" class="edge">
<title>Node26&#45;&gt;Node16</title>
<g id="a_edge32_Node000026_Node000016"><a xlink:title=" ">
<path fill="none" stroke="#63b8ff" d="M650.18,-220.8C660.04,-212.5 674.17,-199.24 683,-185 702.72,-153.18 714.4,-110.66 719.97,-85.97"/>
<polygon fill="#63b8ff" stroke="#63b8ff" points="723.37,-86.82 722.03,-76.31 716.52,-85.37 723.37,-86.82"/>
</a>
</g>
</g>
<!-- Node26&#45;&gt;Node22 -->
<g id="edge35_Node000026_Node000022" class="edge">
<title>Node26&#45;&gt;Node22</title>
<g id="a_edge35_Node000026_Node000022"><a xlink:title=" ">
<path fill="none" stroke="#63b8ff" d="M690.96,-227.83C810.95,-222.46 1101.54,-202.11 1160,-129.75 1205.6,-73.3 1066.4,-65.55 993.08,-65.23"/>
<polygon fill="#63b8ff" stroke="#63b8ff" points="993.43,-61.73 983.43,-65.24 993.43,-68.73 993.43,-61.73"/>
</a>
</g>
</g>
<!-- Node27 -->
<g id="Node000027" class="node">
<title>Node27</title>
<g id="a_Node000027"><a xlink:title=" ">
<polygon fill="#e0e0e0" stroke="#999999" points="674,-185 604,-185 604,-165.75 674,-165.75 674,-185"/>
<text xml:space="preserve" text-anchor="middle" x="639" y="-171.5" font-family="Helvetica,sans-Serif" font-size="10.00">H5Opublic.h</text>
</a>
</g>
</g>
<!-- Node26&#45;&gt;Node27 -->
<g id="edge34_Node000026_Node000027" class="edge">
<title>Node26&#45;&gt;Node27</title>
<g id="a_edge34_Node000026_Node000027"><a xlink:title=" ">
<path fill="none" stroke="#63b8ff" d="M639,-220.83C639,-214.32 639,-205.17 639,-196.87"/>
<polygon fill="#63b8ff" stroke="#63b8ff" points="642.5,-196.87 639,-186.87 635.5,-196.87 642.5,-196.87"/>
</a>
</g>
</g>
<!-- Node28 -->
<g id="Node000028" class="node">
<title>Node28</title>
<g id="a_Node000028"><a xlink:href="_read_i_o_8hpp.html" target="_top" xlink:title=" ">
<polygon fill="white" stroke="#666666" points="893.5,-185 814.5,-185 814.5,-165.75 893.5,-165.75 893.5,-185"/>
<text xml:space="preserve" text-anchor="middle" x="854" y="-171.5" font-family="Helvetica,sans-Serif" font-size="10.00">io/ReadIO.hpp</text>
</a>
</g>
</g>
<!-- Node26&#45;&gt;Node28 -->
<g id="edge37_Node000026_Node000028" class="edge">
<title>Node26&#45;&gt;Node28</title>
<g id="a_edge37_Node000026_Node000028"><a xlink:title=" ">
<path fill="none" stroke="#63b8ff" d="M675.47,-220.59C711.53,-211.66 766.9,-197.95 806.4,-188.16"/>
<polygon fill="#63b8ff" stroke="#63b8ff" points="807.01,-191.62 815.88,-185.82 805.33,-184.82 807.01,-191.62"/>
</a>
</g>
</g>
<!-- Node28&#45;&gt;Node3 -->
<g id="edge39_Node000028_Node000003" class="edge">
<title>Node28&#45;&gt;Node3</title>
<g id="a_edge39_Node000028_Node000003"><a xlink:title=" ">
<path fill="none" stroke="#63b8ff" d="M814.37,-170.07C755.5,-163.35 641.59,-149.1 546,-129.75 545.01,-129.55 544,-129.34 542.99,-129.12"/>
<polygon fill="#63b8ff" stroke="#63b8ff" points="544.12,-125.79 533.58,-126.86 542.49,-132.6 544.12,-125.79"/>
</a>
</g>
</g>
<!-- Node28&#45;&gt;Node6 -->
<g id="edge41_Node000028_Node000006" class="edge">
<title>Node28&#45;&gt;Node6</title>
<g id="a_edge41_Node000028_Node000006"><a xlink:title=" ">
<path fill="none" stroke="#63b8ff" d="M893.87,-171.94C965.96,-166.99 1114.73,-154.1 1160,-129.75 1179.59,-119.21 1195.76,-99.16 1205.81,-84.33"/>
<polygon fill="#63b8ff" stroke="#63b8ff" points="1208.74,-86.24 1211.19,-75.93 1202.85,-82.46 1208.74,-86.24"/>
</a>
</g>
</g>
<!-- Node28&#45;&gt;Node12 -->
<g id="edge46_Node000028_Node000012" class="edge">
<title>Node28&#45;&gt;Node12</title>
<g id="a_edge46_Node000028_Node000012"><a xlink:title=" ">
<path fill="none" stroke="#63b8ff" d="M855.81,-165.25C859.7,-142.8 866.09,-84.55 835,-55.25 804.69,-26.68 514.91,-14.78 417.65,-11.57"/>
<polygon fill="#63b8ff" stroke="#63b8ff" points="417.88,-8.08 407.78,-11.26 417.66,-15.08 417.88,-8.08"/>
</a>
</g>
</g>
<!-- Node28&#45;&gt;Node13 -->
<g id="edge50_Node000028_Node000013" class="edge">
<title>Node28&#45;&gt;Node13</title>
<g id="a_edge50_Node000028_Node000013"><a xlink:title=" ">
<path fill="none" stroke="#63b8ff" d="M815.24,-165.28C776.96,-156.3 718.26,-142.53 676.6,-132.76"/>
<polygon fill="#63b8ff" stroke="#63b8ff" points="677.61,-129.4 667.08,-130.53 676.01,-136.22 677.61,-129.4"/>
</a>
</g>
</g>
<!-- Node28&#45;&gt;Node14 -->
<g id="edge38_Node000028_Node000014" class="edge">
<title>Node28&#45;&gt;Node14</title>
<g id="a_edge38_Node000028_Node000014"><a xlink:title=" ">
<path fill="none" stroke="#63b8ff" d="M838.13,-165.31C805.3,-146.56 729.67,-103.37 689.75,-80.58"/>
<polygon fill="#63b8ff" stroke="#63b8ff" points="691.69,-77.66 681.28,-75.74 688.22,-83.74 691.69,-77.66"/>
</a>
</g>
</g>
<!-- Node28&#45;&gt;Node15 -->
<g id="edge42_Node000028_Node000015" class="edge">
<title>Node28&#45;&gt;Node15</title>
<g id="a_edge42_Node000028_Node000015"><a xlink:title=" ">
<path fill="none" stroke="#63b8ff" d="M814.39,-171.79C760.14,-167.38 660.17,-156.19 579,-129.75 561,-123.89 559.03,-116.27 541,-110.5 442.59,-79.03 410.15,-94.19 306.37,-74.98"/>
<polygon fill="#63b8ff" stroke="#63b8ff" points="307.05,-71.55 296.56,-73.09 305.72,-78.42 307.05,-71.55"/>
</a>
</g>
</g>
<!-- Node28&#45;&gt;Node16 -->
<g id="edge43_Node000028_Node000016" class="edge">
<title>Node28&#45;&gt;Node16</title>
<g id="a_edge43_Node000028_Node000016"><a xlink:title=" ">
<path fill="none" stroke="#63b8ff" d="M843.36,-165.5C821.46,-147.22 771.06,-105.15 743.27,-81.96"/>
<polygon fill="#63b8ff" stroke="#63b8ff" points="745.87,-79.57 735.95,-75.85 741.38,-84.94 745.87,-79.57"/>
</a>
</g>
</g>
<!-- Node28&#45;&gt;Node17 -->
<g id="edge48_Node000028_Node000017" class="edge">
<title>Node28&#45;&gt;Node17</title>
<g id="a_edge48_Node000028_Node000017"><a xlink:title=" ">
<path fill="none" stroke="#63b8ff" d="M849.34,-165.5C840.11,-147.93 819.35,-108.41 806.92,-84.77"/>
<polygon fill="#63b8ff" stroke="#63b8ff" points="810.18,-83.44 802.43,-76.22 803.99,-86.7 810.18,-83.44"/>
</a>
</g>
</g>
<!-- Node28&#45;&gt;Node21 -->
<g id="edge49_Node000028_Node000021" class="edge">
<title>Node28&#45;&gt;Node21</title>
<g id="a_edge49_Node000028_Node000021"><a xlink:title=" ">
<path fill="none" stroke="#63b8ff" d="M857.29,-165.25C860.42,-156.31 865.06,-142.24 868,-129.75 876.05,-95.52 881.72,-54.95 884.66,-31.08"/>
<polygon fill="#63b8ff" stroke="#63b8ff" points="888.13,-31.52 885.83,-21.18 881.18,-30.7 888.13,-31.52"/>
</a>
</g>
</g>
<!-- Node28&#45;&gt;Node22 -->
<g id="edge51_Node000028_Node000022" class="edge">
<title>Node28&#45;&gt;Node22</title>
<g id="a_edge51_Node000028_Node000022"><a xlink:title=" ">
<path fill="none" stroke="#63b8ff" d="M865.89,-165.55C876.94,-157.05 893.52,-143.48 906,-129.75 918.96,-115.49 931.39,-97.39 939.89,-84.1"/>
<polygon fill="#63b8ff" stroke="#63b8ff" points="942.67,-86.26 945,-75.93 936.73,-82.55 942.67,-86.26"/>
</a>
</g>
</g>
<!-- Node28&#45;&gt;Node25 -->
<g id="edge47_Node000028_Node000025" class="edge">
<title>Node28&#45;&gt;Node25</title>
<g id="a_edge47_Node000028_Node000025"><a xlink:title=" ">
<path fill="none" stroke="#63b8ff" d="M893.95,-171.9C970.47,-166.69 1134.65,-153.1 1186,-129.75 1225.47,-111.8 1268.77,-93.84 1249,-55.25 1242.39,-42.34 1230.11,-32.32 1218.21,-25.07"/>
<polygon fill="#63b8ff" stroke="#63b8ff" points="1220.2,-22.17 1209.76,-20.37 1216.8,-28.29 1220.2,-22.17"/>
</a>
</g>
</g>
<!-- Node29 -->
<g id="Node000029" class="node">
<title>Node29</title>
<g id="a_Node000029"><a xlink:title=" ">
<polygon fill="#e0e0e0" stroke="#999999" points="1006.12,-129.75 957.88,-129.75 957.88,-110.5 1006.12,-110.5 1006.12,-129.75"/>
<text xml:space="preserve" text-anchor="middle" x="982" y="-116.25" font-family="Helvetica,sans-Serif" font-size="10.00">cassert</text>
</a>
</g>
</g>
<!-- Node28&#45;&gt;Node29 -->
<g id="edge40_Node000028_Node000029" class="edge">
<title>Node28&#45;&gt;Node29</title>
<g id="a_edge40_Node000028_Node000029"><a xlink:title=" ">
<path fill="none" stroke="#63b8ff" d="M875.71,-165.34C896.03,-156.89 926.65,-144.15 949.81,-134.52"/>
<polygon fill="#63b8ff" stroke="#63b8ff" points="950.89,-137.86 958.78,-130.78 948.21,-131.39 950.89,-137.86"/>
</a>
</g>
</g>
<!-- Node30 -->
<g id="Node000030" class="node">
<title>Node30</title>
<g id="a_Node000030"><a xlink:title=" ">
<polygon fill="#e0e0e0" stroke="#999999" points="1074.25,-129.75 1023.75,-129.75 1023.75,-110.5 1074.25,-110.5 1074.25,-129.75"/>
<text xml:space="preserve" text-anchor="middle" x="1049" y="-116.25" font-family="Helvetica,sans-Serif" font-size="10.00">numeric</text>
</a>
</g>
</g>
<!-- Node28&#45;&gt;Node30 -->
<g id="edge44_Node000028_Node000030" class="edge">
<title>Node28&#45;&gt;Node30</title>
<g id="a_edge44_Node000028_Node000030"><a xlink:title=" ">
<path fill="none" stroke="#63b8ff" d="M887.08,-165.34C921.89,-155.84 976.52,-140.92 1012.55,-131.08"/>
<polygon fill="#63b8ff" stroke="#63b8ff" points="1013.36,-134.49 1022.08,-128.48 1011.51,-127.73 1013.36,-134.49"/>
</a>
</g>
</g>
<!-- Node31 -->
<g id="Node000031" class="node">
<title>Node31</title>
<g id="a_Node000031"><a xlink:title=" ">
<polygon fill="#e0e0e0" stroke="#999999" points="1151.38,-129.75 1092.62,-129.75 1092.62,-110.5 1151.38,-110.5 1151.38,-129.75"/>
<text xml:space="preserve" text-anchor="middle" x="1122" y="-116.25" font-family="Helvetica,sans-Serif" font-size="10.00">stdexcept</text>
</a>
</g>
</g>
<!-- Node28&#45;&gt;Node31 -->
<g id="edge45_Node000028_Node000031" class="edge">
<title>Node28&#45;&gt;Node31</title>
<g id="a_edge45_Node000028_Node000031"><a xlink:title=" ">
<path fill="none" stroke="#63b8ff" d="M893.78,-166.94C937.27,-158.74 1009.3,-144.95 1081.15,-130.09"/>
<polygon fill="#63b8ff" stroke="#63b8ff" points="1081.64,-133.56 1090.72,-128.1 1080.22,-126.71 1081.64,-133.56"/>
</a>
</g>
</g>
</g>
</svg>
