<?xml version="1.0" encoding="UTF-8" standalone="no"?>
<!DOCTYPE svg PUBLIC "-//W3C//DTD SVG 1.1//EN"
 "http://www.w3.org/Graphics/SVG/1.1/DTD/svg11.dtd">
<!-- Generated by graphviz version 12.2.1 (20241206.2353)
 -->
<!-- Title: src/nwb/hdmf/table/VectorData.cpp Pages: 1 -->
<svg width="2034pt" height="492pt"
 viewBox="0.00 0.00 2034.38 491.75" xmlns="http://www.w3.org/2000/svg" xmlns:xlink="http://www.w3.org/1999/xlink">
<g id="graph0" class="graph" transform="scale(1 1) rotate(0) translate(4 487.75)">
<title>src/nwb/hdmf/table/VectorData.cpp</title>
<!-- Node1 -->
<g id="Node000001" class="node">
<title>Node1</title>
<g id="a_Node000001"><a xlink:title=" ">
<polygon fill="#999999" stroke="#666666" points="1314.62,-483.75 1215.38,-483.75 1215.38,-453.25 1314.62,-453.25 1314.62,-483.75"/>
<text text-anchor="start" x="1223.38" y="-470.25" font-family="Helvetica,sans-Serif" font-size="10.00">src/nwb/hdmf/table</text>
<text text-anchor="middle" x="1265" y="-459" font-family="Helvetica,sans-Serif" font-size="10.00">/VectorData.cpp</text>
</a>
</g>
</g>
<!-- Node2 -->
<g id="Node000002" class="node">
<title>Node2</title>
<g id="a_Node000002"><a xlink:href="_vector_data_8hpp.html" target="_top" xlink:title=" ">
<polygon fill="white" stroke="#666666" points="1342,-417.25 1188,-417.25 1188,-398 1342,-398 1342,-417.25"/>
<text text-anchor="middle" x="1265" y="-403.75" font-family="Helvetica,sans-Serif" font-size="10.00">nwb/hdmf/table/VectorData.hpp</text>
</a>
</g>
</g>
<!-- Node1&#45;&gt;Node2 -->
<g id="edge1_Node000001_Node000002" class="edge">
<title>Node1&#45;&gt;Node2</title>
<g id="a_edge1_Node000001_Node000002"><a xlink:title=" ">
<path fill="none" stroke="#63b8ff" d="M1265,-452.95C1265,-445.71 1265,-436.84 1265,-428.94"/>
<polygon fill="#63b8ff" stroke="#63b8ff" points="1268.5,-429.21 1265,-419.21 1261.5,-429.21 1268.5,-429.21"/>
</a>
</g>
</g>
<!-- Node3 -->
<g id="Node000003" class="node">
<title>Node3</title>
<g id="a_Node000003"><a xlink:title=" ">
<polygon fill="#e0e0e0" stroke="#999999" points="257,-74.5 217,-74.5 217,-55.25 257,-55.25 257,-74.5"/>
<text text-anchor="middle" x="237" y="-61" font-family="Helvetica,sans-Serif" font-size="10.00">string</text>
</a>
</g>
</g>
<!-- Node2&#45;&gt;Node3 -->
<g id="edge2_Node000002_Node000003" class="edge">
<title>Node2&#45;&gt;Node3</title>
<g id="a_edge2_Node000002_Node000003"><a xlink:title=" ">
<path fill="none" stroke="#63b8ff" d="M1187.77,-404.07C913.12,-394.47 0,-358.05 0,-298.12 0,-298.12 0,-298.12 0,-180 0,-89.9 140.75,-70.89 205.32,-66.91"/>
<polygon fill="#63b8ff" stroke="#63b8ff" points="205.48,-70.41 215.28,-66.39 205.11,-63.42 205.48,-70.41"/>
</a>
</g>
</g>
<!-- Node4 -->
<g id="Node000004" class="node">
<title>Node4</title>
<g id="a_Node000004"><a xlink:href="_utils_8hpp.html" target="_top" xlink:title=" ">
<polygon fill="white" stroke="#666666" points="754.5,-251.5 699.5,-251.5 699.5,-232.25 754.5,-232.25 754.5,-251.5"/>
<text text-anchor="middle" x="727" y="-238" font-family="Helvetica,sans-Serif" font-size="10.00">Utils.hpp</text>
</a>
</g>
</g>
<!-- Node2&#45;&gt;Node4 -->
<g id="edge3_Node000002_Node000004" class="edge">
<title>Node2&#45;&gt;Node4</title>
<g id="a_edge3_Node000002_Node000004"><a xlink:title=" ">
<path fill="none" stroke="#63b8ff" d="M1235.31,-397.59C1144.11,-369.83 868.08,-285.81 765.73,-254.66"/>
<polygon fill="#63b8ff" stroke="#63b8ff" points="767,-251.39 756.42,-251.83 764.97,-258.09 767,-251.39"/>
</a>
</g>
</g>
<!-- Node31 -->
<g id="Node000031" class="node">
<title>Node31</title>
<g id="a_Node000031"><a xlink:href="_read_i_o_8hpp.html" target="_top" xlink:title=" ">
<polygon fill="white" stroke="#666666" points="1468.5,-129.75 1389.5,-129.75 1389.5,-110.5 1468.5,-110.5 1468.5,-129.75"/>
<text text-anchor="middle" x="1429" y="-116.25" font-family="Helvetica,sans-Serif" font-size="10.00">io/ReadIO.hpp</text>
</a>
</g>
</g>
<!-- Node2&#45;&gt;Node31 -->
<g id="edge49_Node000002_Node000031" class="edge">
<title>Node2&#45;&gt;Node31</title>
<g id="a_edge49_Node000002_Node000031"><a xlink:title=" ">
<path fill="none" stroke="#63b8ff" d="M1319.49,-397.51C1372.47,-385.15 1445,-357.42 1445,-298.12 1445,-298.12 1445,-298.12 1445,-240.88 1445,-205.49 1438.05,-164.75 1433.31,-141.07"/>
<polygon fill="#63b8ff" stroke="#63b8ff" points="1436.8,-140.64 1431.34,-131.57 1429.95,-142.07 1436.8,-140.64"/>
</a>
</g>
</g>
<!-- Node33 -->
<g id="Node000033" class="node">
<title>Node33</title>
<g id="a_Node000033"><a xlink:href="_data_8hpp.html" target="_top" xlink:title=" ">
<polygon fill="white" stroke="#666666" points="1788.75,-362 1663.25,-362 1663.25,-342.75 1788.75,-342.75 1788.75,-362"/>
<text text-anchor="middle" x="1726" y="-348.5" font-family="Helvetica,sans-Serif" font-size="10.00">nwb/hdmf/base/Data.hpp</text>
</a>
</g>
</g>
<!-- Node2&#45;&gt;Node33 -->
<g id="edge50_Node000002_Node000033" class="edge">
<title>Node2&#45;&gt;Node33</title>
<g id="a_edge50_Node000002_Node000033"><a xlink:title=" ">
<path fill="none" stroke="#63b8ff" d="M1342.42,-397.68C1428.48,-387.74 1566.51,-371.8 1651.41,-361.99"/>
<polygon fill="#63b8ff" stroke="#63b8ff" points="1651.74,-365.48 1661.27,-360.85 1650.93,-358.52 1651.74,-365.48"/>
</a>
</g>
</g>
<!-- Node4&#45;&gt;Node3 -->
<g id="edge12_Node000004_Node000003" class="edge">
<title>Node4&#45;&gt;Node3</title>
<g id="a_edge12_Node000004_Node000003"><a xlink:title=" ">
<path fill="none" stroke="#63b8ff" d="M699.12,-241.08C582.33,-241.67 136.67,-240.96 95,-196.25 51.33,-149.39 152.32,-99.73 206.08,-77.64"/>
<polygon fill="#63b8ff" stroke="#63b8ff" points="207.38,-80.89 215.36,-73.92 204.78,-74.39 207.38,-80.89"/>
</a>
</g>
</g>
<!-- Node5 -->
<g id="Node000005" class="node">
<title>Node5</title>
<g id="a_Node000005"><a xlink:title=" ">
<polygon fill="#e0e0e0" stroke="#999999" points="159.88,-190.62 104.12,-190.62 104.12,-171.38 159.88,-171.38 159.88,-190.62"/>
<text text-anchor="middle" x="132" y="-177.12" font-family="Helvetica,sans-Serif" font-size="10.00">algorithm</text>
</a>
</g>
</g>
<!-- Node4&#45;&gt;Node5 -->
<g id="edge4_Node000004_Node000005" class="edge">
<title>Node4&#45;&gt;Node5</title>
<g id="a_edge4_Node000004_Node000005"><a xlink:title=" ">
<path fill="none" stroke="#63b8ff" d="M699.29,-241.45C617.18,-242.55 368.47,-241.64 169,-196.25 167.11,-195.82 165.18,-195.31 163.26,-194.75"/>
<polygon fill="#63b8ff" stroke="#63b8ff" points="164.44,-191.45 153.85,-191.55 162.19,-198.08 164.44,-191.45"/>
</a>
</g>
</g>
<!-- Node6 -->
<g id="Node000006" class="node">
<title>Node6</title>
<g id="a_Node000006"><a xlink:title=" ">
<polygon fill="#e0e0e0" stroke="#999999" points="223.62,-190.62 178.38,-190.62 178.38,-171.38 223.62,-171.38 223.62,-190.62"/>
<text text-anchor="middle" x="201" y="-177.12" font-family="Helvetica,sans-Serif" font-size="10.00">chrono</text>
</a>
</g>
</g>
<!-- Node4&#45;&gt;Node6 -->
<g id="edge5_Node000004_Node000006" class="edge">
<title>Node4&#45;&gt;Node6</title>
<g id="a_edge5_Node000004_Node000006"><a xlink:title=" ">
<path fill="none" stroke="#63b8ff" d="M699.15,-241.52C623.07,-242.61 405.93,-241.24 233,-196.25 231.64,-195.9 230.27,-195.49 228.9,-195.05"/>
<polygon fill="#63b8ff" stroke="#63b8ff" points="230.57,-191.94 219.98,-191.61 228.05,-198.47 230.57,-191.94"/>
</a>
</g>
</g>
<!-- Node7 -->
<g id="Node000007" class="node">
<title>Node7</title>
<g id="a_Node000007"><a xlink:title=" ">
<polygon fill="#e0e0e0" stroke="#999999" points="1416.5,-190.62 1373.5,-190.62 1373.5,-171.38 1416.5,-171.38 1416.5,-190.62"/>
<text text-anchor="middle" x="1395" y="-177.12" font-family="Helvetica,sans-Serif" font-size="10.00">cmath</text>
</a>
</g>
</g>
<!-- Node4&#45;&gt;Node7 -->
<g id="edge6_Node000004_Node000007" class="edge">
<title>Node4&#45;&gt;Node7</title>
<g id="a_edge6_Node000004_Node000007"><a xlink:title=" ">
<path fill="none" stroke="#63b8ff" d="M754.66,-240.31C861.47,-237.9 1247,-227.22 1365,-196.25 1366.17,-195.94 1367.35,-195.59 1368.53,-195.2"/>
<polygon fill="#63b8ff" stroke="#63b8ff" points="1369.56,-198.56 1377.51,-191.56 1366.93,-192.07 1369.56,-198.56"/>
</a>
</g>
</g>
<!-- Node8 -->
<g id="Node000008" class="node">
<title>Node8</title>
<g id="a_Node000008"><a xlink:title=" ">
<polygon fill="#e0e0e0" stroke="#999999" points="1355.62,-74.5 1310.38,-74.5 1310.38,-55.25 1355.62,-55.25 1355.62,-74.5"/>
<text text-anchor="middle" x="1333" y="-61" font-family="Helvetica,sans-Serif" font-size="10.00">cstdint</text>
</a>
</g>
</g>
<!-- Node4&#45;&gt;Node8 -->
<g id="edge7_Node000004_Node000008" class="edge">
<title>Node4&#45;&gt;Node8</title>
<g id="a_edge7_Node000004_Node000008"><a xlink:title=" ">
<path fill="none" stroke="#63b8ff" d="M699.04,-240.66C636.06,-239.51 486.13,-232.91 455,-196.25 446.22,-185.92 445.94,-175.84 455,-165.75 578.99,-27.67 1095.48,-106.3 1298.83,-74.45"/>
<polygon fill="#63b8ff" stroke="#63b8ff" points="1299.27,-77.93 1308.54,-72.78 1298.09,-71.03 1299.27,-77.93"/>
</a>
</g>
</g>
<!-- Node9 -->
<g id="Node000009" class="node">
<title>Node9</title>
<g id="a_Node000009"><a xlink:title=" ">
<polygon fill="#e0e0e0" stroke="#999999" points="282,-190.62 242,-190.62 242,-171.38 282,-171.38 282,-190.62"/>
<text text-anchor="middle" x="262" y="-177.12" font-family="Helvetica,sans-Serif" font-size="10.00">ctime</text>
</a>
</g>
</g>
<!-- Node4&#45;&gt;Node9 -->
<g id="edge8_Node000004_Node000009" class="edge">
<title>Node4&#45;&gt;Node9</title>
<g id="a_edge8_Node000004_Node000009"><a xlink:title=" ">
<path fill="none" stroke="#63b8ff" d="M699.07,-241.4C628.94,-241.98 440.39,-239.1 291,-196.25 290.03,-195.97 289.06,-195.66 288.08,-195.33"/>
<polygon fill="#63b8ff" stroke="#63b8ff" points="289.82,-192.26 279.25,-191.63 287.12,-198.72 289.82,-192.26"/>
</a>
</g>
</g>
<!-- Node10 -->
<g id="Node000010" class="node">
<title>Node10</title>
<g id="a_Node000010"><a xlink:title=" ">
<polygon fill="#e0e0e0" stroke="#999999" points="349.88,-190.62 300.12,-190.62 300.12,-171.38 349.88,-171.38 349.88,-190.62"/>
<text text-anchor="middle" x="325" y="-177.12" font-family="Helvetica,sans-Serif" font-size="10.00">iomanip</text>
</a>
</g>
</g>
<!-- Node4&#45;&gt;Node10 -->
<g id="edge9_Node000004_Node000010" class="edge">
<title>Node4&#45;&gt;Node10</title>
<g id="a_edge9_Node000004_Node000010"><a xlink:title=" ">
<path fill="none" stroke="#63b8ff" d="M699.27,-240.11C637.27,-237.85 483.12,-229.11 359,-196.25 357.61,-195.88 356.2,-195.47 354.78,-195.02"/>
<polygon fill="#63b8ff" stroke="#63b8ff" points="356.11,-191.78 345.52,-191.61 353.69,-198.35 356.11,-191.78"/>
</a>
</g>
</g>
<!-- Node11 -->
<g id="Node000011" class="node">
<title>Node11</title>
<g id="a_Node000011"><a xlink:title=" ">
<polygon fill="#e0e0e0" stroke="#999999" points="408,-190.62 368,-190.62 368,-171.38 408,-171.38 408,-190.62"/>
<text text-anchor="middle" x="388" y="-177.12" font-family="Helvetica,sans-Serif" font-size="10.00">regex</text>
</a>
</g>
</g>
<!-- Node4&#45;&gt;Node11 -->
<g id="edge10_Node000004_Node000011" class="edge">
<title>Node4&#45;&gt;Node11</title>
<g id="a_edge10_Node000004_Node000011"><a xlink:title=" ">
<path fill="none" stroke="#63b8ff" d="M699.18,-239.15C644.97,-235.28 521.77,-223.98 422,-196.25 420.61,-195.86 419.21,-195.44 417.8,-194.98"/>
<polygon fill="#63b8ff" stroke="#63b8ff" points="419.13,-191.74 408.54,-191.53 416.69,-198.3 419.13,-191.74"/>
</a>
</g>
</g>
<!-- Node12 -->
<g id="Node000012" class="node">
<title>Node12</title>
<g id="a_Node000012"><a xlink:title=" ">
<polygon fill="#e0e0e0" stroke="#999999" points="515.62,-190.62 464.38,-190.62 464.38,-171.38 515.62,-171.38 515.62,-190.62"/>
<text text-anchor="middle" x="490" y="-177.12" font-family="Helvetica,sans-Serif" font-size="10.00">sstream</text>
</a>
</g>
</g>
<!-- Node4&#45;&gt;Node12 -->
<g id="edge11_Node000004_Node000012" class="edge">
<title>Node4&#45;&gt;Node12</title>
<g id="a_edge11_Node000004_Node000012"><a xlink:title=" ">
<path fill="none" stroke="#63b8ff" d="M699.17,-236.27C659.85,-229.41 586.03,-215.27 525,-196.25 523.66,-195.83 522.3,-195.39 520.93,-194.92"/>
<polygon fill="#63b8ff" stroke="#63b8ff" points="522.53,-191.78 511.93,-191.56 520.08,-198.33 522.53,-191.78"/>
</a>
</g>
</g>
<!-- Node13 -->
<g id="Node000013" class="node">
<title>Node13</title>
<g id="a_Node000013"><a xlink:title=" ">
<polygon fill="#e0e0e0" stroke="#999999" points="638.25,-190.62 533.75,-190.62 533.75,-171.38 638.25,-171.38 638.25,-190.62"/>
<text text-anchor="middle" x="586" y="-177.12" font-family="Helvetica,sans-Serif" font-size="10.00">boost/date_time.hpp</text>
</a>
</g>
</g>
<!-- Node4&#45;&gt;Node13 -->
<g id="edge13_Node000004_Node000013" class="edge">
<title>Node4&#45;&gt;Node13</title>
<g id="a_edge13_Node000004_Node000013"><a xlink:title=" ">
<path fill="none" stroke="#63b8ff" d="M705.28,-231.8C681.92,-222.05 644.56,-206.45 617.87,-195.31"/>
<polygon fill="#63b8ff" stroke="#63b8ff" points="619.49,-192.19 608.91,-191.57 616.79,-198.65 619.49,-192.19"/>
</a>
</g>
</g>
<!-- Node14 -->
<g id="Node000014" class="node">
<title>Node14</title>
<g id="a_Node000014"><a xlink:title=" ">
<polygon fill="#e0e0e0" stroke="#999999" points="797.25,-190.62 656.75,-190.62 656.75,-171.38 797.25,-171.38 797.25,-190.62"/>
<text text-anchor="middle" x="727" y="-177.12" font-family="Helvetica,sans-Serif" font-size="10.00">boost/endian/conversion.hpp</text>
</a>
</g>
</g>
<!-- Node4&#45;&gt;Node14 -->
<g id="edge14_Node000004_Node000014" class="edge">
<title>Node4&#45;&gt;Node14</title>
<g id="a_edge14_Node000004_Node000014"><a xlink:title=" ">
<path fill="none" stroke="#63b8ff" d="M727,-231.93C727,-224.15 727,-212.58 727,-202.53"/>
<polygon fill="#63b8ff" stroke="#63b8ff" points="730.5,-202.54 727,-192.54 723.5,-202.54 730.5,-202.54"/>
</a>
</g>
</g>
<!-- Node15 -->
<g id="Node000015" class="node">
<title>Node15</title>
<g id="a_Node000015"><a xlink:title=" ">
<polygon fill="#e0e0e0" stroke="#999999" points="916.38,-190.62 815.62,-190.62 815.62,-171.38 916.38,-171.38 916.38,-190.62"/>
<text text-anchor="middle" x="866" y="-177.12" font-family="Helvetica,sans-Serif" font-size="10.00">boost/uuid/uuid.hpp</text>
</a>
</g>
</g>
<!-- Node4&#45;&gt;Node15 -->
<g id="edge15_Node000004_Node000015" class="edge">
<title>Node4&#45;&gt;Node15</title>
<g id="a_edge15_Node000004_Node000015"><a xlink:title=" ">
<path fill="none" stroke="#63b8ff" d="M748.41,-231.8C771.34,-222.1 807.95,-206.59 834.23,-195.46"/>
<polygon fill="#63b8ff" stroke="#63b8ff" points="835.55,-198.7 843.4,-191.57 832.82,-192.25 835.55,-198.7"/>
</a>
</g>
</g>
<!-- Node16 -->
<g id="Node000016" class="node">
<title>Node16</title>
<g id="a_Node000016"><a xlink:title=" ">
<polygon fill="#e0e0e0" stroke="#999999" points="1085.88,-190.62 934.12,-190.62 934.12,-171.38 1085.88,-171.38 1085.88,-190.62"/>
<text text-anchor="middle" x="1010" y="-177.12" font-family="Helvetica,sans-Serif" font-size="10.00">boost/uuid/uuid_generators.hpp</text>
</a>
</g>
</g>
<!-- Node4&#45;&gt;Node16 -->
<g id="edge16_Node000004_Node000016" class="edge">
<title>Node4&#45;&gt;Node16</title>
<g id="a_edge16_Node000004_Node000016"><a xlink:title=" ">
<path fill="none" stroke="#63b8ff" d="M754.91,-235.07C801.28,-225.42 895.04,-205.92 955.06,-193.43"/>
<polygon fill="#63b8ff" stroke="#63b8ff" points="955.66,-196.88 964.74,-191.42 954.23,-190.03 955.66,-196.88"/>
</a>
</g>
</g>
<!-- Node17 -->
<g id="Node000017" class="node">
<title>Node17</title>
<g id="a_Node000017"><a xlink:title=" ">
<polygon fill="#e0e0e0" stroke="#999999" points="1217.75,-190.62 1104.25,-190.62 1104.25,-171.38 1217.75,-171.38 1217.75,-190.62"/>
<text text-anchor="middle" x="1161" y="-177.12" font-family="Helvetica,sans-Serif" font-size="10.00">boost/uuid/uuid_io.hpp</text>
</a>
</g>
</g>
<!-- Node4&#45;&gt;Node17 -->
<g id="edge17_Node000004_Node000017" class="edge">
<title>Node4&#45;&gt;Node17</title>
<g id="a_edge17_Node000004_Node000017"><a xlink:title=" ">
<path fill="none" stroke="#63b8ff" d="M754.82,-238.38C816.39,-232.68 968.7,-217.5 1095,-196.25 1100.01,-195.41 1105.22,-194.44 1110.41,-193.42"/>
<polygon fill="#63b8ff" stroke="#63b8ff" points="1111.1,-196.85 1120.19,-191.41 1109.7,-189.99 1111.1,-196.85"/>
</a>
</g>
</g>
<!-- Node18 -->
<g id="Node000018" class="node">
<title>Node18</title>
<g id="a_Node000018"><a xlink:title=" ">
<polygon fill="#e0e0e0" stroke="#999999" points="1355.75,-196.25 1236.25,-196.25 1236.25,-165.75 1355.75,-165.75 1355.75,-196.25"/>
<text text-anchor="start" x="1244.25" y="-182.75" font-family="Helvetica,sans-Serif" font-size="10.00">boost/date_time/c_local</text>
<text text-anchor="middle" x="1296" y="-171.5" font-family="Helvetica,sans-Serif" font-size="10.00">_time_adjustor.hpp</text>
</a>
</g>
</g>
<!-- Node4&#45;&gt;Node18 -->
<g id="edge18_Node000004_Node000018" class="edge">
<title>Node4&#45;&gt;Node18</title>
<g id="a_edge18_Node000004_Node000018"><a xlink:title=" ">
<path fill="none" stroke="#63b8ff" d="M754.77,-239.52C829.2,-235.64 1039.45,-223.13 1224.55,-196.49"/>
<polygon fill="#63b8ff" stroke="#63b8ff" points="1224.97,-199.97 1234.36,-195.06 1223.96,-193.04 1224.97,-199.97"/>
</a>
</g>
</g>
<!-- Node19 -->
<g id="Node000019" class="node">
<title>Node19</title>
<g id="a_Node000019"><a xlink:href="_base_i_o_8hpp.html" target="_top" xlink:title=" ">
<polygon fill="white" stroke="#666666" points="1729.12,-129.75 1650.88,-129.75 1650.88,-110.5 1729.12,-110.5 1729.12,-129.75"/>
<text text-anchor="middle" x="1690" y="-116.25" font-family="Helvetica,sans-Serif" font-size="10.00">io/BaseIO.hpp</text>
</a>
</g>
</g>
<!-- Node4&#45;&gt;Node19 -->
<g id="edge19_Node000004_Node000019" class="edge">
<title>Node4&#45;&gt;Node19</title>
<g id="a_edge19_Node000004_Node000019"><a xlink:title=" ">
<path fill="none" stroke="#63b8ff" d="M754.91,-240.77C897.82,-240.08 1544.14,-234.81 1624,-196.25 1648.98,-184.19 1668.48,-157.93 1679.62,-139.88"/>
<polygon fill="#63b8ff" stroke="#63b8ff" points="1682.52,-141.85 1684.55,-131.45 1676.48,-138.32 1682.52,-141.85"/>
</a>
</g>
</g>
<!-- Node29 -->
<g id="Node000029" class="node">
<title>Node29</title>
<g id="a_Node000029"><a xlink:href="_h_d_f5_i_o_8hpp.html" target="_top" xlink:title=" ">
<polygon fill="white" stroke="#666666" points="1614.88,-190.62 1511.12,-190.62 1511.12,-171.38 1614.88,-171.38 1614.88,-190.62"/>
<text text-anchor="middle" x="1563" y="-177.12" font-family="Helvetica,sans-Serif" font-size="10.00">io/hdf5/HDF5IO.hpp</text>
</a>
</g>
</g>
<!-- Node4&#45;&gt;Node29 -->
<g id="edge32_Node000004_Node000029" class="edge">
<title>Node4&#45;&gt;Node29</title>
<g id="a_edge32_Node000004_Node000029"><a xlink:title=" ">
<path fill="none" stroke="#63b8ff" d="M755,-239.49C849.52,-234.73 1165.47,-218.11 1426,-196.25 1449.95,-194.24 1476.22,-191.61 1499.28,-189.16"/>
<polygon fill="#63b8ff" stroke="#63b8ff" points="1499.6,-192.65 1509.17,-188.1 1498.85,-185.69 1499.6,-192.65"/>
</a>
</g>
</g>
<!-- Node19&#45;&gt;Node3 -->
<g id="edge24_Node000019_Node000003" class="edge">
<title>Node19&#45;&gt;Node3</title>
<g id="a_edge24_Node000019_Node000003"><a xlink:title=" ">
<path fill="none" stroke="#63b8ff" d="M1650.65,-116.03C1626.28,-114.2 1594.34,-111.96 1566,-110.5 1047.99,-83.8 415.53,-69.59 268.54,-66.52"/>
<polygon fill="#63b8ff" stroke="#63b8ff" points="268.89,-63.02 258.82,-66.31 268.75,-70.02 268.89,-63.02"/>
</a>
</g>
</g>
<!-- Node19&#45;&gt;Node8 -->
<g id="edge21_Node000019_Node000008" class="edge">
<title>Node19&#45;&gt;Node8</title>
<g id="a_edge21_Node000019_Node000008"><a xlink:title=" ">
<path fill="none" stroke="#63b8ff" d="M1650.43,-113.22C1579.87,-102.7 1433.52,-80.87 1367.1,-70.96"/>
<polygon fill="#63b8ff" stroke="#63b8ff" points="1367.94,-67.55 1357.53,-69.53 1366.91,-74.47 1367.94,-67.55"/>
</a>
</g>
</g>
<!-- Node20 -->
<g id="Node000020" class="node">
<title>Node20</title>
<g id="a_Node000020"><a xlink:title=" ">
<polygon fill="#e0e0e0" stroke="#999999" points="1515.88,-74.5 1484.12,-74.5 1484.12,-55.25 1515.88,-55.25 1515.88,-74.5"/>
<text text-anchor="middle" x="1500" y="-61" font-family="Helvetica,sans-Serif" font-size="10.00">any</text>
</a>
</g>
</g>
<!-- Node19&#45;&gt;Node20 -->
<g id="edge20_Node000019_Node000020" class="edge">
<title>Node19&#45;&gt;Node20</title>
<g id="a_edge20_Node000019_Node000020"><a xlink:title=" ">
<path fill="none" stroke="#63b8ff" d="M1653.75,-110.08C1622.47,-102.11 1575.89,-89.84 1527.12,-75"/>
<polygon fill="#63b8ff" stroke="#63b8ff" points="1528.39,-71.73 1517.8,-72.14 1526.33,-78.42 1528.39,-71.73"/>
</a>
</g>
</g>
<!-- Node21 -->
<g id="Node000021" class="node">
<title>Node21</title>
<g id="a_Node000021"><a xlink:title=" ">
<polygon fill="#e0e0e0" stroke="#999999" points="1465.75,-74.5 1412.25,-74.5 1412.25,-55.25 1465.75,-55.25 1465.75,-74.5"/>
<text text-anchor="middle" x="1439" y="-61" font-family="Helvetica,sans-Serif" font-size="10.00">iostream</text>
</a>
</g>
</g>
<!-- Node19&#45;&gt;Node21 -->
<g id="edge22_Node000019_Node000021" class="edge">
<title>Node19&#45;&gt;Node21</title>
<g id="a_edge22_Node000019_Node000021"><a xlink:title=" ">
<path fill="none" stroke="#63b8ff" d="M1650.69,-111.34C1609.8,-103.16 1543.64,-89.69 1477.2,-74.94"/>
<polygon fill="#63b8ff" stroke="#63b8ff" points="1478.11,-71.55 1467.58,-72.79 1476.58,-78.39 1478.11,-71.55"/>
</a>
</g>
</g>
<!-- Node22 -->
<g id="Node000022" class="node">
<title>Node22</title>
<g id="a_Node000022"><a xlink:title=" ">
<polygon fill="#e0e0e0" stroke="#999999" points="1829.62,-74.5 1778.38,-74.5 1778.38,-55.25 1829.62,-55.25 1829.62,-74.5"/>
<text text-anchor="middle" x="1804" y="-61" font-family="Helvetica,sans-Serif" font-size="10.00">memory</text>
</a>
</g>
</g>
<!-- Node19&#45;&gt;Node22 -->
<g id="edge23_Node000019_Node000022" class="edge">
<title>Node19&#45;&gt;Node22</title>
<g id="a_edge23_Node000019_Node000022"><a xlink:title=" ">
<path fill="none" stroke="#63b8ff" d="M1709.34,-110.09C1727.11,-101.79 1753.72,-89.36 1774.2,-79.79"/>
<polygon fill="#63b8ff" stroke="#63b8ff" points="1775.62,-83 1783.2,-75.59 1772.65,-76.65 1775.62,-83"/>
</a>
</g>
</g>
<!-- Node23 -->
<g id="Node000023" class="node">
<title>Node23</title>
<g id="a_Node000023"><a xlink:title=" ">
<polygon fill="#e0e0e0" stroke="#999999" points="2026.38,-74.5 1943.62,-74.5 1943.62,-55.25 2026.38,-55.25 2026.38,-74.5"/>
<text text-anchor="middle" x="1985" y="-61" font-family="Helvetica,sans-Serif" font-size="10.00">unordered_map</text>
</a>
</g>
</g>
<!-- Node19&#45;&gt;Node23 -->
<g id="edge25_Node000019_Node000023" class="edge">
<title>Node19&#45;&gt;Node23</title>
<g id="a_edge25_Node000019_Node000023"><a xlink:title=" ">
<path fill="none" stroke="#63b8ff" d="M1729.48,-112C1781.73,-102.57 1874.02,-85.91 1932.22,-75.4"/>
<polygon fill="#63b8ff" stroke="#63b8ff" points="1932.67,-78.88 1941.89,-73.66 1931.43,-71.99 1932.67,-78.88"/>
</a>
</g>
</g>
<!-- Node24 -->
<g id="Node000024" class="node">
<title>Node24</title>
<g id="a_Node000024"><a xlink:title=" ">
<polygon fill="#e0e0e0" stroke="#999999" points="1925.75,-74.5 1848.25,-74.5 1848.25,-55.25 1925.75,-55.25 1925.75,-74.5"/>
<text text-anchor="middle" x="1887" y="-61" font-family="Helvetica,sans-Serif" font-size="10.00">unordered_set</text>
</a>
</g>
</g>
<!-- Node19&#45;&gt;Node24 -->
<g id="edge26_Node000019_Node000024" class="edge">
<title>Node19&#45;&gt;Node24</title>
<g id="a_edge26_Node000019_Node000024"><a xlink:title=" ">
<path fill="none" stroke="#63b8ff" d="M1723.42,-110.09C1756.25,-101.22 1806.54,-87.62 1842.69,-77.85"/>
<polygon fill="#63b8ff" stroke="#63b8ff" points="1843.22,-81.34 1851.96,-75.35 1841.39,-74.58 1843.22,-81.34"/>
</a>
</g>
</g>
<!-- Node25 -->
<g id="Node000025" class="node">
<title>Node25</title>
<g id="a_Node000025"><a xlink:title=" ">
<polygon fill="#e0e0e0" stroke="#999999" points="1680.5,-19.25 1637.5,-19.25 1637.5,0 1680.5,0 1680.5,-19.25"/>
<text text-anchor="middle" x="1659" y="-5.75" font-family="Helvetica,sans-Serif" font-size="10.00">vector</text>
</a>
</g>
</g>
<!-- Node19&#45;&gt;Node25 -->
<g id="edge27_Node000019_Node000025" class="edge">
<title>Node19&#45;&gt;Node25</title>
<g id="a_edge27_Node000019_Node000025"><a xlink:title=" ">
<path fill="none" stroke="#63b8ff" d="M1703.09,-110.04C1718.94,-97.85 1742.22,-75.4 1731,-55.25 1722.48,-39.95 1706.31,-29.22 1691.44,-22.13"/>
<polygon fill="#63b8ff" stroke="#63b8ff" points="1692.93,-18.97 1682.37,-18.2 1690.15,-25.39 1692.93,-18.97"/>
</a>
</g>
</g>
<!-- Node26 -->
<g id="Node000026" class="node">
<title>Node26</title>
<g id="a_Node000026"><a xlink:title=" ">
<polygon fill="#e0e0e0" stroke="#999999" points="1642.12,-74.5 1533.88,-74.5 1533.88,-55.25 1642.12,-55.25 1642.12,-74.5"/>
<text text-anchor="middle" x="1588" y="-61" font-family="Helvetica,sans-Serif" font-size="10.00">boost/multi_array.hpp</text>
</a>
</g>
</g>
<!-- Node19&#45;&gt;Node26 -->
<g id="edge28_Node000019_Node000026" class="edge">
<title>Node19&#45;&gt;Node26</title>
<g id="a_edge28_Node000019_Node000026"><a xlink:title=" ">
<path fill="none" stroke="#63b8ff" d="M1672.7,-110.09C1657.02,-101.91 1633.65,-89.71 1615.42,-80.19"/>
<polygon fill="#63b8ff" stroke="#63b8ff" points="1617.21,-77.18 1606.73,-75.65 1613.97,-83.38 1617.21,-77.18"/>
</a>
</g>
</g>
<!-- Node27 -->
<g id="Node000027" class="node">
<title>Node27</title>
<g id="a_Node000027"><a xlink:href="_types_8hpp.html" target="_top" xlink:title=" ">
<polygon fill="white" stroke="#666666" points="1721.5,-74.5 1660.5,-74.5 1660.5,-55.25 1721.5,-55.25 1721.5,-74.5"/>
<text text-anchor="middle" x="1691" y="-61" font-family="Helvetica,sans-Serif" font-size="10.00">Types.hpp</text>
</a>
</g>
</g>
<!-- Node19&#45;&gt;Node27 -->
<g id="edge29_Node000019_Node000027" class="edge">
<title>Node19&#45;&gt;Node27</title>
<g id="a_edge29_Node000019_Node000027"><a xlink:title=" ">
<path fill="none" stroke="#63b8ff" d="M1690.17,-110.33C1690.29,-103.82 1690.46,-94.67 1690.62,-86.37"/>
<polygon fill="#63b8ff" stroke="#63b8ff" points="1694.11,-86.44 1690.8,-76.37 1687.12,-86.3 1694.11,-86.44"/>
</a>
</g>
</g>
<!-- Node27&#45;&gt;Node25 -->
<g id="edge31_Node000027_Node000025" class="edge">
<title>Node27&#45;&gt;Node25</title>
<g id="a_edge31_Node000027_Node000025"><a xlink:title=" ">
<path fill="none" stroke="#63b8ff" d="M1685.72,-55.08C1681.53,-48.11 1675.52,-38.12 1670.27,-29.37"/>
<polygon fill="#63b8ff" stroke="#63b8ff" points="1673.33,-27.68 1665.18,-20.91 1667.33,-31.28 1673.33,-27.68"/>
</a>
</g>
</g>
<!-- Node28 -->
<g id="Node000028" class="node">
<title>Node28</title>
<g id="a_Node000028"><a xlink:title=" ">
<polygon fill="#e0e0e0" stroke="#999999" points="1747.12,-19.25 1698.88,-19.25 1698.88,0 1747.12,0 1747.12,-19.25"/>
<text text-anchor="middle" x="1723" y="-5.75" font-family="Helvetica,sans-Serif" font-size="10.00">cstddef</text>
</a>
</g>
</g>
<!-- Node27&#45;&gt;Node28 -->
<g id="edge30_Node000027_Node000028" class="edge">
<title>Node27&#45;&gt;Node28</title>
<g id="a_edge30_Node000027_Node000028"><a xlink:title=" ">
<path fill="none" stroke="#63b8ff" d="M1696.28,-55.08C1700.47,-48.11 1706.48,-38.12 1711.73,-29.37"/>
<polygon fill="#63b8ff" stroke="#63b8ff" points="1714.67,-31.28 1716.82,-20.91 1708.67,-27.68 1714.67,-31.28"/>
</a>
</g>
</g>
<!-- Node29&#45;&gt;Node3 -->
<g id="edge35_Node000029_Node000003" class="edge">
<title>Node29&#45;&gt;Node3</title>
<g id="a_edge35_Node000029_Node000003"><a xlink:title=" ">
<path fill="none" stroke="#63b8ff" d="M1510.65,-174.31C1485.13,-171.6 1453.97,-168.38 1426,-165.75 966.54,-122.56 406.33,-78.91 268.66,-68.3"/>
<polygon fill="#63b8ff" stroke="#63b8ff" points="269.12,-64.83 258.88,-67.55 268.58,-71.81 269.12,-64.83"/>
</a>
</g>
</g>
<!-- Node29&#45;&gt;Node19 -->
<g id="edge38_Node000029_Node000019" class="edge">
<title>Node29&#45;&gt;Node19</title>
<g id="a_edge38_Node000029_Node000019"><a xlink:title=" ">
<path fill="none" stroke="#63b8ff" d="M1582.57,-170.93C1603.32,-161.31 1636.36,-145.99 1660.33,-134.88"/>
<polygon fill="#63b8ff" stroke="#63b8ff" points="1661.65,-138.13 1669.25,-130.75 1658.7,-131.78 1661.65,-138.13"/>
</a>
</g>
</g>
<!-- Node29&#45;&gt;Node21 -->
<g id="edge33_Node000029_Node000021" class="edge">
<title>Node29&#45;&gt;Node21</title>
<g id="a_edge33_Node000029_Node000021"><a xlink:title=" ">
<path fill="none" stroke="#63b8ff" d="M1566.63,-170.9C1571.68,-156.6 1578.85,-128.63 1566,-110.5 1560.61,-102.89 1512.51,-87.4 1477.09,-76.83"/>
<polygon fill="#63b8ff" stroke="#63b8ff" points="1478.14,-73.49 1467.56,-74.02 1476.16,-80.21 1478.14,-73.49"/>
</a>
</g>
</g>
<!-- Node29&#45;&gt;Node22 -->
<g id="edge34_Node000029_Node000022" class="edge">
<title>Node29&#45;&gt;Node22</title>
<g id="a_edge34_Node000029_Node000022"><a xlink:title=" ">
<path fill="none" stroke="#63b8ff" d="M1615.02,-171.97C1651.29,-164.76 1699.83,-151.83 1738,-129.75 1758.83,-117.7 1778.04,-97.66 1790.3,-83.23"/>
<polygon fill="#63b8ff" stroke="#63b8ff" points="1792.7,-85.83 1796.34,-75.87 1787.29,-81.38 1792.7,-85.83"/>
</a>
</g>
</g>
<!-- Node29&#45;&gt;Node27 -->
<g id="edge37_Node000029_Node000027" class="edge">
<title>Node29&#45;&gt;Node27</title>
<g id="a_edge37_Node000029_Node000027"><a xlink:title=" ">
<path fill="none" stroke="#63b8ff" d="M1573.04,-171.04C1594.54,-151.88 1645.28,-106.64 1672.68,-82.21"/>
<polygon fill="#63b8ff" stroke="#63b8ff" points="1674.74,-85.06 1679.87,-75.8 1670.08,-79.84 1674.74,-85.06"/>
</a>
</g>
</g>
<!-- Node30 -->
<g id="Node000030" class="node">
<title>Node30</title>
<g id="a_Node000030"><a xlink:title=" ">
<polygon fill="#e0e0e0" stroke="#999999" points="1557,-129.75 1487,-129.75 1487,-110.5 1557,-110.5 1557,-129.75"/>
<text text-anchor="middle" x="1522" y="-116.25" font-family="Helvetica,sans-Serif" font-size="10.00">H5Opublic.h</text>
</a>
</g>
</g>
<!-- Node29&#45;&gt;Node30 -->
<g id="edge36_Node000029_Node000030" class="edge">
<title>Node29&#45;&gt;Node30</title>
<g id="a_edge36_Node000029_Node000030"><a xlink:title=" ">
<path fill="none" stroke="#63b8ff" d="M1556.77,-171.06C1550.93,-162.67 1542.03,-149.88 1534.69,-139.34"/>
<polygon fill="#63b8ff" stroke="#63b8ff" points="1537.74,-137.6 1529.15,-131.39 1531.99,-141.6 1537.74,-137.6"/>
</a>
</g>
</g>
<!-- Node29&#45;&gt;Node31 -->
<g id="edge39_Node000029_Node000031" class="edge">
<title>Node29&#45;&gt;Node31</title>
<g id="a_edge39_Node000029_Node000031"><a xlink:title=" ">
<path fill="none" stroke="#63b8ff" d="M1542.36,-170.93C1520.36,-161.26 1485.28,-145.85 1459.97,-134.73"/>
<polygon fill="#63b8ff" stroke="#63b8ff" points="1461.4,-131.54 1450.83,-130.72 1458.58,-137.94 1461.4,-131.54"/>
</a>
</g>
</g>
<!-- Node31&#45;&gt;Node3 -->
<g id="edge44_Node000031_Node000003" class="edge">
<title>Node31&#45;&gt;Node3</title>
<g id="a_edge44_Node000031_Node000003"><a xlink:title=" ">
<path fill="none" stroke="#63b8ff" d="M1389.34,-117.35C1205.1,-109.12 434.7,-74.71 268.63,-67.29"/>
<polygon fill="#63b8ff" stroke="#63b8ff" points="268.98,-63.8 258.83,-66.85 268.67,-70.79 268.98,-63.8"/>
</a>
</g>
</g>
<!-- Node31&#45;&gt;Node8 -->
<g id="edge41_Node000031_Node000008" class="edge">
<title>Node31&#45;&gt;Node8</title>
<g id="a_edge41_Node000031_Node000008"><a xlink:title=" ">
<path fill="none" stroke="#63b8ff" d="M1412.71,-110.09C1398.1,-101.98 1376.37,-89.93 1359.29,-80.46"/>
<polygon fill="#63b8ff" stroke="#63b8ff" points="1361.13,-77.48 1350.69,-75.69 1357.74,-83.6 1361.13,-77.48"/>
</a>
</g>
</g>
<!-- Node31&#45;&gt;Node20 -->
<g id="edge40_Node000031_Node000020" class="edge">
<title>Node31&#45;&gt;Node20</title>
<g id="a_edge40_Node000031_Node000020"><a xlink:title=" ">
<path fill="none" stroke="#63b8ff" d="M1441.04,-110.09C1451.41,-102.32 1466.6,-90.92 1478.97,-81.65"/>
<polygon fill="#63b8ff" stroke="#63b8ff" points="1481.02,-84.48 1486.92,-75.68 1476.82,-78.88 1481.02,-84.48"/>
</a>
</g>
</g>
<!-- Node31&#45;&gt;Node21 -->
<g id="edge42_Node000031_Node000021" class="edge">
<title>Node31&#45;&gt;Node21</title>
<g id="a_edge42_Node000031_Node000021"><a xlink:title=" ">
<path fill="none" stroke="#63b8ff" d="M1430.65,-110.33C1431.89,-103.74 1433.63,-94.46 1435.21,-86.07"/>
<polygon fill="#63b8ff" stroke="#63b8ff" points="1438.63,-86.82 1437.03,-76.35 1431.75,-85.53 1438.63,-86.82"/>
</a>
</g>
</g>
<!-- Node31&#45;&gt;Node22 -->
<g id="edge43_Node000031_Node000022" class="edge">
<title>Node31&#45;&gt;Node22</title>
<g id="a_edge43_Node000031_Node000022"><a xlink:title=" ">
<path fill="none" stroke="#63b8ff" d="M1468.82,-111.98C1471.93,-111.47 1475.01,-110.97 1478,-110.5 1582.5,-94.16 1706.37,-78.11 1766.93,-70.48"/>
<polygon fill="#63b8ff" stroke="#63b8ff" points="1767.18,-73.98 1776.67,-69.26 1766.31,-67.03 1767.18,-73.98"/>
</a>
</g>
</g>
<!-- Node31&#45;&gt;Node25 -->
<g id="edge46_Node000031_Node000025" class="edge">
<title>Node31&#45;&gt;Node25</title>
<g id="a_edge46_Node000031_Node000025"><a xlink:title=" ">
<path fill="none" stroke="#63b8ff" d="M1420.22,-110.38C1408.03,-97.18 1388.98,-71.93 1403,-55.25 1431.16,-21.75 1563.65,-13.4 1626.18,-11.32"/>
<polygon fill="#63b8ff" stroke="#63b8ff" points="1625.94,-14.82 1635.84,-11.03 1625.74,-7.83 1625.94,-14.82"/>
</a>
</g>
</g>
<!-- Node31&#45;&gt;Node26 -->
<g id="edge47_Node000031_Node000026" class="edge">
<title>Node31&#45;&gt;Node26</title>
<g id="a_edge47_Node000031_Node000026"><a xlink:title=" ">
<path fill="none" stroke="#63b8ff" d="M1455.97,-110.09C1481.9,-101.41 1521.31,-88.21 1550.33,-78.49"/>
<polygon fill="#63b8ff" stroke="#63b8ff" points="1551.09,-81.93 1559.46,-75.43 1548.87,-75.29 1551.09,-81.93"/>
</a>
</g>
</g>
<!-- Node31&#45;&gt;Node27 -->
<g id="edge48_Node000031_Node000027" class="edge">
<title>Node31&#45;&gt;Node27</title>
<g id="a_edge48_Node000031_Node000027"><a xlink:title=" ">
<path fill="none" stroke="#63b8ff" d="M1468.74,-111.31C1510.93,-102.98 1579.85,-89.25 1648.92,-74.91"/>
<polygon fill="#63b8ff" stroke="#63b8ff" points="1649.44,-78.38 1658.52,-72.91 1648.02,-71.52 1649.44,-78.38"/>
</a>
</g>
</g>
<!-- Node32 -->
<g id="Node000032" class="node">
<title>Node32</title>
<g id="a_Node000032"><a xlink:title=" ">
<polygon fill="#e0e0e0" stroke="#999999" points="1292,-74.5 1234,-74.5 1234,-55.25 1292,-55.25 1292,-74.5"/>
<text text-anchor="middle" x="1263" y="-61" font-family="Helvetica,sans-Serif" font-size="10.00">typeindex</text>
</a>
</g>
</g>
<!-- Node31&#45;&gt;Node32 -->
<g id="edge45_Node000031_Node000032" class="edge">
<title>Node31&#45;&gt;Node32</title>
<g id="a_edge45_Node000031_Node000032"><a xlink:title=" ">
<path fill="none" stroke="#63b8ff" d="M1400.84,-110.09C1373.65,-101.37 1332.26,-88.09 1301.93,-78.36"/>
<polygon fill="#63b8ff" stroke="#63b8ff" points="1303.33,-75.14 1292.74,-75.41 1301.19,-81.8 1303.33,-75.14"/>
</a>
</g>
</g>
<!-- Node33&#45;&gt;Node19 -->
<g id="edge52_Node000033_Node000019" class="edge">
<title>Node33&#45;&gt;Node19</title>
<g id="a_edge52_Node000033_Node000019"><a xlink:title=" ">
<path fill="none" stroke="#63b8ff" d="M1719.03,-342.4C1712.79,-333.79 1704.01,-320.15 1700,-306.75 1682.61,-248.63 1685.37,-175.77 1688.06,-141.16"/>
<polygon fill="#63b8ff" stroke="#63b8ff" points="1691.53,-141.66 1688.91,-131.39 1684.56,-141.05 1691.53,-141.66"/>
</a>
</g>
</g>
<!-- Node33&#45;&gt;Node22 -->
<g id="edge51_Node000033_Node000022" class="edge">
<title>Node33&#45;&gt;Node22</title>
<g id="a_edge51_Node000033_Node000022"><a xlink:title=" ">
<path fill="none" stroke="#63b8ff" d="M1764.99,-342.35C1807.04,-330.1 1870.57,-303.49 1890,-251.5 1912.68,-190.81 1889.88,-163.77 1853,-110.5 1845.53,-99.72 1835,-89.69 1825.61,-81.88"/>
<polygon fill="#63b8ff" stroke="#63b8ff" points="1827.96,-79.27 1817.95,-75.81 1823.61,-84.76 1827.96,-79.27"/>
</a>
</g>
</g>
<!-- Node34 -->
<g id="Node000034" class="node">
<title>Node34</title>
<g id="a_Node000034"><a xlink:href="_registered_type_8hpp.html" target="_top" xlink:title=" ">
<polygon fill="white" stroke="#666666" points="1833,-306.75 1709,-306.75 1709,-287.5 1833,-287.5 1833,-306.75"/>
<text text-anchor="middle" x="1771" y="-293.25" font-family="Helvetica,sans-Serif" font-size="10.00">nwb/RegisteredType.hpp</text>
</a>
</g>
</g>
<!-- Node33&#45;&gt;Node34 -->
<g id="edge53_Node000033_Node000034" class="edge">
<title>Node33&#45;&gt;Node34</title>
<g id="a_edge53_Node000033_Node000034"><a xlink:title=" ">
<path fill="none" stroke="#63b8ff" d="M1733.43,-342.58C1739.58,-335.3 1748.51,-324.73 1756.13,-315.73"/>
<polygon fill="#63b8ff" stroke="#63b8ff" points="1758.65,-318.16 1762.43,-308.27 1753.3,-313.64 1758.65,-318.16"/>
</a>
</g>
</g>
<!-- Node34&#45;&gt;Node3 -->
<g id="edge56_Node000034_Node000003" class="edge">
<title>Node34&#45;&gt;Node3</title>
<g id="a_edge56_Node000034_Node000003"><a xlink:title=" ">
<path fill="none" stroke="#63b8ff" d="M1708.65,-294.82C1411.41,-288.28 150.41,-257.04 95,-196.25 51.85,-148.91 152.59,-99.49 206.18,-77.55"/>
<polygon fill="#63b8ff" stroke="#63b8ff" points="207.44,-80.82 215.43,-73.86 204.84,-74.32 207.44,-80.82"/>
</a>
</g>
</g>
<!-- Node34&#45;&gt;Node4 -->
<g id="edge60_Node000034_Node000004" class="edge">
<title>Node34&#45;&gt;Node4</title>
<g id="a_edge60_Node000034_Node000004"><a xlink:title=" ">
<path fill="none" stroke="#63b8ff" d="M1708.82,-292.95C1514.8,-283.06 924.1,-252.93 766.17,-244.87"/>
<polygon fill="#63b8ff" stroke="#63b8ff" points="766.4,-241.38 756.24,-244.37 766.05,-248.37 766.4,-241.38"/>
</a>
</g>
</g>
<!-- Node34&#45;&gt;Node19 -->
<g id="edge61_Node000034_Node000019" class="edge">
<title>Node34&#45;&gt;Node19</title>
<g id="a_edge61_Node000034_Node000019"><a xlink:title=" ">
<path fill="none" stroke="#63b8ff" d="M1764.73,-287.17C1758.71,-278.35 1749.59,-264.36 1743,-251.5 1723.58,-213.58 1706.03,-166.82 1696.8,-140.87"/>
<polygon fill="#63b8ff" stroke="#63b8ff" points="1700.18,-139.93 1693.58,-131.65 1693.58,-142.24 1700.18,-139.93"/>
</a>
</g>
</g>
<!-- Node34&#45;&gt;Node22 -->
<g id="edge55_Node000034_Node000022" class="edge">
<title>Node34&#45;&gt;Node22</title>
<g id="a_edge55_Node000034_Node000022"><a xlink:title=" ">
<path fill="none" stroke="#63b8ff" d="M1803.66,-287.08C1821.3,-280.35 1841.55,-269.19 1852,-251.5 1884.68,-196.18 1840.79,-118.75 1817.22,-84"/>
<polygon fill="#63b8ff" stroke="#63b8ff" points="1820.14,-82.07 1811.53,-75.9 1814.41,-86.1 1820.14,-82.07"/>
</a>
</g>
</g>
<!-- Node34&#45;&gt;Node23 -->
<g id="edge57_Node000034_Node000023" class="edge">
<title>Node34&#45;&gt;Node23</title>
<g id="a_edge57_Node000034_Node000023"><a xlink:title=" ">
<path fill="none" stroke="#63b8ff" d="M1817.88,-287.05C1841.71,-280.48 1869.83,-269.49 1890,-251.5 1942.19,-204.96 1969.71,-122.97 1980.07,-85.52"/>
<polygon fill="#63b8ff" stroke="#63b8ff" points="1983.39,-86.67 1982.55,-76.11 1976.62,-84.89 1983.39,-86.67"/>
</a>
</g>
</g>
<!-- Node34&#45;&gt;Node24 -->
<g id="edge58_Node000034_Node000024" class="edge">
<title>Node34&#45;&gt;Node24</title>
<g id="a_edge58_Node000034_Node000024"><a xlink:title=" ">
<path fill="none" stroke="#63b8ff" d="M1814.78,-287.08C1834.86,-280.6 1857.03,-269.69 1870,-251.5 1905.96,-201.06 1897.65,-122.26 1891.16,-85.72"/>
<polygon fill="#63b8ff" stroke="#63b8ff" points="1894.65,-85.31 1889.31,-76.16 1887.78,-86.64 1894.65,-85.31"/>
</a>
</g>
</g>
<!-- Node34&#45;&gt;Node27 -->
<g id="edge59_Node000034_Node000027" class="edge">
<title>Node34&#45;&gt;Node27</title>
<g id="a_edge59_Node000034_Node000027"><a xlink:title=" ">
<path fill="none" stroke="#63b8ff" d="M1771.32,-287.37C1771.94,-259.63 1771.03,-171.9 1738,-110.5 1732.06,-99.47 1722.4,-89.59 1713.38,-81.95"/>
<polygon fill="#63b8ff" stroke="#63b8ff" points="1715.59,-79.24 1705.58,-75.79 1711.25,-84.73 1715.59,-79.24"/>
</a>
</g>
</g>
<!-- Node34&#45;&gt;Node31 -->
<g id="edge62_Node000034_Node000031" class="edge">
<title>Node34&#45;&gt;Node31</title>
<g id="a_edge62_Node000034_Node000031"><a xlink:title=" ">
<path fill="none" stroke="#63b8ff" d="M1730.6,-287.1C1675.62,-273.54 1575.66,-244.26 1502,-196.25 1477.8,-180.48 1455.53,-155.36 1442.11,-138.56"/>
<polygon fill="#63b8ff" stroke="#63b8ff" points="1445.11,-136.72 1436.21,-130.96 1439.58,-141.01 1445.11,-136.72"/>
</a>
</g>
</g>
<!-- Node35 -->
<g id="Node000035" class="node">
<title>Node35</title>
<g id="a_Node000035"><a xlink:title=" ">
<polygon fill="#e0e0e0" stroke="#999999" points="1843,-251.5 1785,-251.5 1785,-232.25 1843,-232.25 1843,-251.5"/>
<text text-anchor="middle" x="1814" y="-238" font-family="Helvetica,sans-Serif" font-size="10.00">functional</text>
</a>
</g>
</g>
<!-- Node34&#45;&gt;Node35 -->
<g id="edge54_Node000034_Node000035" class="edge">
<title>Node34&#45;&gt;Node35</title>
<g id="a_edge54_Node000034_Node000035"><a xlink:title=" ">
<path fill="none" stroke="#63b8ff" d="M1778.1,-287.33C1783.92,-280.13 1792.33,-269.71 1799.56,-260.76"/>
<polygon fill="#63b8ff" stroke="#63b8ff" points="1802.23,-263.02 1805.79,-253.04 1796.79,-258.62 1802.23,-263.02"/>
</a>
</g>
</g>
</g>
</svg>
