<?xml version="1.0" encoding="UTF-8" standalone="no"?>
<!DOCTYPE svg PUBLIC "-//W3C//DTD SVG 1.1//EN"
 "http://www.w3.org/Graphics/SVG/1.1/DTD/svg11.dtd">
<!-- Generated by graphviz version 13.1.0 (20250701.0955)
 -->
<!-- Title: src/nwb/hdmf/table/VectorData.cpp Pages: 1 -->
<!--zoomable 547 -->

<svg id="main" version="1.1" xmlns="http://www.w3.org/2000/svg" xmlns:xlink="http://www.w3.org/1999/xlink" xml:space="preserve" onload="init(evt)">

<style type="text/css"><![CDATA[
.node, .edge {opacity: 0.7;}
.node.selected, .edge.selected {opacity: 1;}
.edge:hover path { stroke: red; }
.edge:hover polygon { stroke: red; fill: red; }
]]></style>

<defs>
  <circle id="rim" cx="0" cy="0" r="7"/>
  <circle id="rim2" cx="0" cy="0" r="3.5"/>
  <g id="zoomPlus">
    <use xlink:href="#rim" fill="#404040"><set attributeName="fill" to="#808080" begin="zoomplus.mouseover" end="zoomplus.mouseout"/></use>
    <path d="M-4,0h8M0,-4v8" fill="none" stroke="white" stroke-width="1.5" pointer-events="none"/>
  </g>
  <g id="zoomMin">
    <use xlink:href="#rim" fill="#404040"><set attributeName="fill" to="#808080" begin="zoomminus.mouseover" end="zoomminus.mouseout"/></use>
    <path d="M-4,0h8" fill="none" stroke="white" stroke-width="1.5" pointer-events="none"/>
  </g>
  <g id="arrowUp" transform="translate(30 24)">
    <use xlink:href="#rim"/>
    <path pointer-events="none" fill="none" stroke="white" stroke-width="1.5" d="M0,-3.0v7 M-2.5,-0.5L0,-3.0L2.5,-0.5"/>
  </g>
  <g id="arrowRight" transform="rotate(90) translate(36 -43)">
    <use xlink:href="#rim"/>
    <path pointer-events="none" fill="none" stroke="white" stroke-width="1.5" d="M0,-3.0v7 M-2.5,-0.5L0,-3.0L2.5,-0.5"/>
  </g>
  <g id="arrowDown" transform="rotate(180) translate(-30 -48)">
    <use xlink:href="#rim"/>
    <path pointer-events="none" fill="none" stroke="white" stroke-width="1.5" d="M0,-3.0v7 M-2.5,-0.5L0,-3.0L2.5,-0.5"/>
  </g>
  <g id="arrowLeft" transform="rotate(270) translate(-36 17)">
    <use xlink:href="#rim"/>
    <path pointer-events="none" fill="none" stroke="white" stroke-width="1.5" d="M0,-3.0v7 M-2.5,-0.5L0,-3.0L2.5,-0.5"/>
  </g>
  <g id="resetDef">
    <use xlink:href="#rim2" fill="#404040"><set attributeName="fill" to="#808080" begin="reset.mouseover" end="reset.mouseout"/></use>
  </g>
</defs>
<script type="application/ecmascript">
var viewWidth = 2162;
var viewHeight = 547;
var sectionId = 'dynsection-0';
</script>
<script type="application/ecmascript" xlink:href="svg.min.js"/>
<svg id="graph" class="graph">
<g id="viewport">
<title>src/nwb/hdmf/table/VectorData.cpp</title>
<!-- Node1 -->
<g id="Node000001" class="node">
<title>Node1</title>
<g id="a_Node000001"><a xlink:title=" ">
<polygon fill="#999999" stroke="#666666" points="1402.62,-539 1303.38,-539 1303.38,-508.5 1402.62,-508.5 1402.62,-539"/>
<text xml:space="preserve" text-anchor="start" x="1311.38" y="-525.5" font-family="Helvetica,sans-Serif" font-size="10.00">src/nwb/hdmf/table</text>
<text xml:space="preserve" text-anchor="middle" x="1353" y="-514.25" font-family="Helvetica,sans-Serif" font-size="10.00">/VectorData.cpp</text>
</a>
</g>
</g>
<!-- Node2 -->
<g id="Node000002" class="node">
<title>Node2</title>
<g id="a_Node000002"><a xlink:href="_vector_data_8hpp.html" target="_top" xlink:title=" ">
<polygon fill="white" stroke="#666666" points="1430,-472.5 1276,-472.5 1276,-453.25 1430,-453.25 1430,-472.5"/>
<text xml:space="preserve" text-anchor="middle" x="1353" y="-459" font-family="Helvetica,sans-Serif" font-size="10.00">nwb/hdmf/table/VectorData.hpp</text>
</a>
</g>
</g>
<!-- Node1&#45;&gt;Node2 -->
<g id="edge1_Node000001_Node000002" class="edge">
<title>Node1&#45;&gt;Node2</title>
<g id="a_edge1_Node000001_Node000002"><a xlink:title=" ">
<path fill="none" stroke="#63b8ff" d="M1353,-508.2C1353,-500.96 1353,-492.09 1353,-484.19"/>
<polygon fill="#63b8ff" stroke="#63b8ff" points="1356.5,-484.46 1353,-474.46 1349.5,-484.46 1356.5,-484.46"/>
</a>
</g>
</g>
<!-- Node3 -->
<g id="Node000003" class="node">
<title>Node3</title>
<g id="a_Node000003"><a xlink:title=" ">
<polygon fill="#e0e0e0" stroke="#999999" points="894,-74.5 854,-74.5 854,-55.25 894,-55.25 894,-74.5"/>
<text xml:space="preserve" text-anchor="middle" x="874" y="-61" font-family="Helvetica,sans-Serif" font-size="10.00">string</text>
</a>
</g>
</g>
<!-- Node2&#45;&gt;Node3 -->
<g id="edge2_Node000002_Node000003" class="edge">
<title>Node2&#45;&gt;Node3</title>
<g id="a_edge2_Node000002_Node000003"><a xlink:title=" ">
<path fill="none" stroke="#63b8ff" d="M1275.89,-459.76C989.03,-451.39 0,-417.85 0,-353.38 0,-353.38 0,-353.38 0,-174.38 0,-113.56 62.43,-126.86 121,-110.5 260,-71.66 717.83,-66.62 842.45,-65.97"/>
<polygon fill="#63b8ff" stroke="#63b8ff" points="842.26,-69.47 852.25,-65.93 842.23,-62.47 842.26,-69.47"/>
</a>
</g>
</g>
<!-- Node4 -->
<g id="Node000004" class="node">
<title>Node4</title>
<g id="a_Node000004"><a xlink:href="_utils_8hpp.html" target="_top" xlink:title=" ">
<polygon fill="white" stroke="#666666" points="774.5,-306.75 719.5,-306.75 719.5,-287.5 774.5,-287.5 774.5,-306.75"/>
<text xml:space="preserve" text-anchor="middle" x="747" y="-293.25" font-family="Helvetica,sans-Serif" font-size="10.00">Utils.hpp</text>
</a>
</g>
</g>
<!-- Node2&#45;&gt;Node4 -->
<g id="edge3_Node000002_Node000004" class="edge">
<title>Node2&#45;&gt;Node4</title>
<g id="a_edge3_Node000002_Node000004"><a xlink:title=" ">
<path fill="none" stroke="#63b8ff" d="M1319.56,-452.84C1215.43,-424.7 897.36,-338.75 786,-308.66"/>
<polygon fill="#63b8ff" stroke="#63b8ff" points="787,-305.31 776.43,-306.08 785.18,-312.07 787,-305.31"/>
</a>
</g>
</g>
<!-- Node33 -->
<g id="Node000033" class="node">
<title>Node33</title>
<g id="a_Node000033"><a xlink:href="_read_i_o_8hpp.html" target="_top" xlink:title=" ">
<polygon fill="white" stroke="#666666" points="1613.5,-185 1534.5,-185 1534.5,-165.75 1613.5,-165.75 1613.5,-185"/>
<text xml:space="preserve" text-anchor="middle" x="1574" y="-171.5" font-family="Helvetica,sans-Serif" font-size="10.00">io/ReadIO.hpp</text>
</a>
</g>
</g>
<!-- Node2&#45;&gt;Node33 -->
<g id="edge52_Node000002_Node000033" class="edge">
<title>Node2&#45;&gt;Node33</title>
<g id="a_edge52_Node000002_Node000033"><a xlink:title=" ">
<path fill="none" stroke="#63b8ff" d="M1363.95,-453.01C1396.53,-426.09 1493.94,-341.61 1548,-251.5 1558.42,-234.13 1565.44,-211.98 1569.53,-196.25"/>
<polygon fill="#63b8ff" stroke="#63b8ff" points="1572.89,-197.23 1571.84,-186.69 1566.09,-195.59 1572.89,-197.23"/>
</a>
</g>
</g>
<!-- Node34 -->
<g id="Node000034" class="node">
<title>Node34</title>
<g id="a_Node000034"><a xlink:href="_data_8hpp.html" target="_top" xlink:title=" ">
<polygon fill="white" stroke="#666666" points="1908.75,-417.25 1783.25,-417.25 1783.25,-398 1908.75,-398 1908.75,-417.25"/>
<text xml:space="preserve" text-anchor="middle" x="1846" y="-403.75" font-family="Helvetica,sans-Serif" font-size="10.00">nwb/hdmf/base/Data.hpp</text>
</a>
</g>
</g>
<!-- Node2&#45;&gt;Node34 -->
<g id="edge53_Node000002_Node000034" class="edge">
<title>Node2&#45;&gt;Node34</title>
<g id="a_edge53_Node000002_Node000034"><a xlink:title=" ">
<path fill="none" stroke="#63b8ff" d="M1430.3,-453.53C1523.69,-443.44 1679.7,-426.59 1771.71,-416.65"/>
<polygon fill="#63b8ff" stroke="#63b8ff" points="1771.81,-420.16 1781.38,-415.6 1771.06,-413.2 1771.81,-420.16"/>
</a>
</g>
</g>
<!-- Node4&#45;&gt;Node3 -->
<g id="edge12_Node000004_Node000003" class="edge">
<title>Node4&#45;&gt;Node3</title>
<g id="a_edge12_Node000004_Node000003"><a xlink:title=" ">
<path fill="none" stroke="#63b8ff" d="M719.38,-295.55C658.39,-293.19 520.47,-281.24 558,-221 622.03,-118.24 776.19,-81.63 842.65,-70.32"/>
<polygon fill="#63b8ff" stroke="#63b8ff" points="842.82,-73.84 852.14,-68.79 841.71,-66.93 842.82,-73.84"/>
</a>
</g>
</g>
<!-- Node5 -->
<g id="Node000005" class="node">
<title>Node5</title>
<g id="a_Node000005"><a xlink:title=" ">
<polygon fill="#e0e0e0" stroke="#999999" points="259.88,-245.88 204.12,-245.88 204.12,-226.62 259.88,-226.62 259.88,-245.88"/>
<text xml:space="preserve" text-anchor="middle" x="232" y="-232.38" font-family="Helvetica,sans-Serif" font-size="10.00">algorithm</text>
</a>
</g>
</g>
<!-- Node4&#45;&gt;Node5 -->
<g id="edge4_Node000004_Node000005" class="edge">
<title>Node4&#45;&gt;Node5</title>
<g id="a_edge4_Node000004_Node000005"><a xlink:title=" ">
<path fill="none" stroke="#63b8ff" d="M719.09,-296.17C644.82,-295.73 436.57,-290.8 269,-251.5 267.11,-251.06 265.19,-250.54 263.27,-249.97"/>
<polygon fill="#63b8ff" stroke="#63b8ff" points="264.45,-246.67 253.86,-246.75 262.19,-253.3 264.45,-246.67"/>
</a>
</g>
</g>
<!-- Node6 -->
<g id="Node000006" class="node">
<title>Node6</title>
<g id="a_Node000006"><a xlink:title=" ">
<polygon fill="#e0e0e0" stroke="#999999" points="323.62,-245.88 278.38,-245.88 278.38,-226.62 323.62,-226.62 323.62,-245.88"/>
<text xml:space="preserve" text-anchor="middle" x="301" y="-232.38" font-family="Helvetica,sans-Serif" font-size="10.00">chrono</text>
</a>
</g>
</g>
<!-- Node4&#45;&gt;Node6 -->
<g id="edge5_Node000004_Node000006" class="edge">
<title>Node4&#45;&gt;Node6</title>
<g id="a_edge5_Node000004_Node000006"><a xlink:title=" ">
<path fill="none" stroke="#63b8ff" d="M719.24,-296.21C651.67,-295.75 473.81,-290.59 332,-251.5 330.83,-251.18 329.65,-250.81 328.46,-250.42"/>
<polygon fill="#63b8ff" stroke="#63b8ff" points="330,-247.26 319.41,-246.82 327.41,-253.77 330,-247.26"/>
</a>
</g>
</g>
<!-- Node7 -->
<g id="Node000007" class="node">
<title>Node7</title>
<g id="a_Node000007"><a xlink:title=" ">
<polygon fill="#e0e0e0" stroke="#999999" points="384.5,-245.88 341.5,-245.88 341.5,-226.62 384.5,-226.62 384.5,-245.88"/>
<text xml:space="preserve" text-anchor="middle" x="363" y="-232.38" font-family="Helvetica,sans-Serif" font-size="10.00">cmath</text>
</a>
</g>
</g>
<!-- Node4&#45;&gt;Node7 -->
<g id="edge6_Node000004_Node000007" class="edge">
<title>Node4&#45;&gt;Node7</title>
<g id="a_edge6_Node000004_Node000007"><a xlink:title=" ">
<path fill="none" stroke="#63b8ff" d="M719.42,-295.48C659.2,-293.46 511.9,-285.19 394,-251.5 393,-251.22 392,-250.9 390.99,-250.57"/>
<polygon fill="#63b8ff" stroke="#63b8ff" points="392.34,-247.34 381.76,-246.91 389.76,-253.85 392.34,-247.34"/>
</a>
</g>
</g>
<!-- Node8 -->
<g id="Node000008" class="node">
<title>Node8</title>
<g id="a_Node000008"><a xlink:title=" ">
<polygon fill="#e0e0e0" stroke="#999999" points="1385.62,-74.5 1340.38,-74.5 1340.38,-55.25 1385.62,-55.25 1385.62,-74.5"/>
<text xml:space="preserve" text-anchor="middle" x="1363" y="-61" font-family="Helvetica,sans-Serif" font-size="10.00">cstdint</text>
</a>
</g>
</g>
<!-- Node4&#45;&gt;Node8 -->
<g id="edge7_Node000004_Node000008" class="edge">
<title>Node4&#45;&gt;Node8</title>
<g id="a_edge7_Node000004_Node000008"><a xlink:title=" ">
<path fill="none" stroke="#63b8ff" d="M774.88,-296.36C892.71,-297.09 1345.67,-296.88 1388,-251.5 1397.25,-241.59 1392.29,-233.86 1388,-221 1381.68,-202.03 1367.32,-203.97 1361,-185 1349.91,-151.73 1354.39,-110.28 1358.67,-86.08"/>
<polygon fill="#63b8ff" stroke="#63b8ff" points="1362.1,-86.82 1360.59,-76.33 1355.23,-85.47 1362.1,-86.82"/>
</a>
</g>
</g>
<!-- Node9 -->
<g id="Node000009" class="node">
<title>Node9</title>
<g id="a_Node000009"><a xlink:title=" ">
<polygon fill="#e0e0e0" stroke="#999999" points="443,-245.88 403,-245.88 403,-226.62 443,-226.62 443,-245.88"/>
<text xml:space="preserve" text-anchor="middle" x="423" y="-232.38" font-family="Helvetica,sans-Serif" font-size="10.00">ctime</text>
</a>
</g>
</g>
<!-- Node4&#45;&gt;Node9 -->
<g id="edge8_Node000004_Node000009" class="edge">
<title>Node4&#45;&gt;Node9</title>
<g id="a_edge8_Node000004_Node000009"><a xlink:title=" ">
<path fill="none" stroke="#63b8ff" d="M719.12,-294.75C666.01,-291.51 547.16,-281.29 452,-251.5 451.2,-251.25 450.39,-250.98 449.58,-250.69"/>
<polygon fill="#63b8ff" stroke="#63b8ff" points="451.17,-247.56 440.59,-246.88 448.44,-254.01 451.17,-247.56"/>
</a>
</g>
</g>
<!-- Node10 -->
<g id="Node000010" class="node">
<title>Node10</title>
<g id="a_Node000010"><a xlink:title=" ">
<polygon fill="#e0e0e0" stroke="#999999" points="510.88,-245.88 461.12,-245.88 461.12,-226.62 510.88,-226.62 510.88,-245.88"/>
<text xml:space="preserve" text-anchor="middle" x="486" y="-232.38" font-family="Helvetica,sans-Serif" font-size="10.00">iomanip</text>
</a>
</g>
</g>
<!-- Node4&#45;&gt;Node10 -->
<g id="edge9_Node000004_Node000010" class="edge">
<title>Node4&#45;&gt;Node10</title>
<g id="a_edge9_Node000004_Node000010"><a xlink:title=" ">
<path fill="none" stroke="#63b8ff" d="M719.34,-291.95C677.02,-285.26 593.87,-270.88 525,-251.5 523.27,-251.01 521.51,-250.49 519.73,-249.93"/>
<polygon fill="#63b8ff" stroke="#63b8ff" points="520.94,-246.64 510.34,-246.76 518.7,-253.27 520.94,-246.64"/>
</a>
</g>
</g>
<!-- Node11 -->
<g id="Node000011" class="node">
<title>Node11</title>
<g id="a_Node000011"><a xlink:title=" ">
<polygon fill="#e0e0e0" stroke="#999999" points="607,-245.88 567,-245.88 567,-226.62 607,-226.62 607,-245.88"/>
<text xml:space="preserve" text-anchor="middle" x="587" y="-232.38" font-family="Helvetica,sans-Serif" font-size="10.00">regex</text>
</a>
</g>
</g>
<!-- Node4&#45;&gt;Node11 -->
<g id="edge10_Node000004_Node000011" class="edge">
<title>Node4&#45;&gt;Node11</title>
<g id="a_edge10_Node000004_Node000011"><a xlink:title=" ">
<path fill="none" stroke="#63b8ff" d="M719.02,-287.74C692.23,-279.44 650.85,-265.93 616,-251.5 615.65,-251.36 615.3,-251.21 614.95,-251.06"/>
<polygon fill="#63b8ff" stroke="#63b8ff" points="616.55,-247.95 606,-246.99 613.65,-254.32 616.55,-247.95"/>
</a>
</g>
</g>
<!-- Node12 -->
<g id="Node000012" class="node">
<title>Node12</title>
<g id="a_Node000012"><a xlink:title=" ">
<polygon fill="#e0e0e0" stroke="#999999" points="676.62,-245.88 625.38,-245.88 625.38,-226.62 676.62,-226.62 676.62,-245.88"/>
<text xml:space="preserve" text-anchor="middle" x="651" y="-232.38" font-family="Helvetica,sans-Serif" font-size="10.00">sstream</text>
</a>
</g>
</g>
<!-- Node4&#45;&gt;Node12 -->
<g id="edge11_Node000004_Node000012" class="edge">
<title>Node4&#45;&gt;Node12</title>
<g id="a_edge11_Node000004_Node000012"><a xlink:title=" ">
<path fill="none" stroke="#63b8ff" d="M732.42,-287.18C717.34,-277.93 693.51,-263.32 675.52,-252.29"/>
<polygon fill="#63b8ff" stroke="#63b8ff" points="677.36,-249.31 667.01,-247.07 673.7,-255.28 677.36,-249.31"/>
</a>
</g>
</g>
<!-- Node13 -->
<g id="Node000013" class="node">
<title>Node13</title>
<g id="a_Node000013"><a xlink:title=" ">
<polygon fill="#e0e0e0" stroke="#999999" points="799.25,-245.88 694.75,-245.88 694.75,-226.62 799.25,-226.62 799.25,-245.88"/>
<text xml:space="preserve" text-anchor="middle" x="747" y="-232.38" font-family="Helvetica,sans-Serif" font-size="10.00">boost/date_time.hpp</text>
</a>
</g>
</g>
<!-- Node4&#45;&gt;Node13 -->
<g id="edge13_Node000004_Node000013" class="edge">
<title>Node4&#45;&gt;Node13</title>
<g id="a_edge13_Node000004_Node000013"><a xlink:title=" ">
<path fill="none" stroke="#63b8ff" d="M747,-287.18C747,-279.4 747,-267.83 747,-257.78"/>
<polygon fill="#63b8ff" stroke="#63b8ff" points="750.5,-257.79 747,-247.79 743.5,-257.79 750.5,-257.79"/>
</a>
</g>
</g>
<!-- Node14 -->
<g id="Node000014" class="node">
<title>Node14</title>
<g id="a_Node000014"><a xlink:title=" ">
<polygon fill="#e0e0e0" stroke="#999999" points="958.25,-245.88 817.75,-245.88 817.75,-226.62 958.25,-226.62 958.25,-245.88"/>
<text xml:space="preserve" text-anchor="middle" x="888" y="-232.38" font-family="Helvetica,sans-Serif" font-size="10.00">boost/endian/conversion.hpp</text>
</a>
</g>
</g>
<!-- Node4&#45;&gt;Node14 -->
<g id="edge14_Node000004_Node000014" class="edge">
<title>Node4&#45;&gt;Node14</title>
<g id="a_edge14_Node000004_Node000014"><a xlink:title=" ">
<path fill="none" stroke="#63b8ff" d="M768.72,-287.05C792.08,-277.3 829.44,-261.7 856.13,-250.56"/>
<polygon fill="#63b8ff" stroke="#63b8ff" points="857.21,-253.9 865.09,-246.82 854.51,-247.44 857.21,-253.9"/>
</a>
</g>
</g>
<!-- Node15 -->
<g id="Node000015" class="node">
<title>Node15</title>
<g id="a_Node000015"><a xlink:title=" ">
<polygon fill="#e0e0e0" stroke="#999999" points="1077.38,-245.88 976.62,-245.88 976.62,-226.62 1077.38,-226.62 1077.38,-245.88"/>
<text xml:space="preserve" text-anchor="middle" x="1027" y="-232.38" font-family="Helvetica,sans-Serif" font-size="10.00">boost/uuid/uuid.hpp</text>
</a>
</g>
</g>
<!-- Node4&#45;&gt;Node15 -->
<g id="edge15_Node000004_Node000015" class="edge">
<title>Node4&#45;&gt;Node15</title>
<g id="a_edge15_Node000004_Node000015"><a xlink:title=" ">
<path fill="none" stroke="#63b8ff" d="M774.85,-290.78C816.66,-282.69 898.11,-266.66 967,-251.5 970.77,-250.67 974.68,-249.79 978.6,-248.89"/>
<polygon fill="#63b8ff" stroke="#63b8ff" points="979.17,-252.35 988.12,-246.68 977.59,-245.53 979.17,-252.35"/>
</a>
</g>
</g>
<!-- Node16 -->
<g id="Node000016" class="node">
<title>Node16</title>
<g id="a_Node000016"><a xlink:title=" ">
<polygon fill="#e0e0e0" stroke="#999999" points="1246.88,-245.88 1095.12,-245.88 1095.12,-226.62 1246.88,-226.62 1246.88,-245.88"/>
<text xml:space="preserve" text-anchor="middle" x="1171" y="-232.38" font-family="Helvetica,sans-Serif" font-size="10.00">boost/uuid/uuid_generators.hpp</text>
</a>
</g>
</g>
<!-- Node4&#45;&gt;Node16 -->
<g id="edge16_Node000004_Node000016" class="edge">
<title>Node4&#45;&gt;Node16</title>
<g id="a_edge16_Node000004_Node000016"><a xlink:title=" ">
<path fill="none" stroke="#63b8ff" d="M774.73,-292.81C832.64,-285.81 970.64,-268.76 1086,-251.5 1092.9,-250.47 1100.1,-249.34 1107.26,-248.19"/>
<polygon fill="#63b8ff" stroke="#63b8ff" points="1107.65,-251.67 1116.95,-246.6 1106.52,-244.76 1107.65,-251.67"/>
</a>
</g>
</g>
<!-- Node17 -->
<g id="Node000017" class="node">
<title>Node17</title>
<g id="a_Node000017"><a xlink:title=" ">
<polygon fill="#e0e0e0" stroke="#999999" points="1378.75,-245.88 1265.25,-245.88 1265.25,-226.62 1378.75,-226.62 1378.75,-245.88"/>
<text xml:space="preserve" text-anchor="middle" x="1322" y="-232.38" font-family="Helvetica,sans-Serif" font-size="10.00">boost/uuid/uuid_io.hpp</text>
</a>
</g>
</g>
<!-- Node4&#45;&gt;Node17 -->
<g id="edge17_Node000004_Node000017" class="edge">
<title>Node4&#45;&gt;Node17</title>
<g id="a_edge17_Node000004_Node000017"><a xlink:title=" ">
<path fill="none" stroke="#63b8ff" d="M774.73,-294.92C851.57,-291.3 1073.56,-279.08 1256,-251.5 1261.37,-250.69 1266.95,-249.7 1272.5,-248.64"/>
<polygon fill="#63b8ff" stroke="#63b8ff" points="1273.17,-252.07 1282.28,-246.66 1271.78,-245.21 1273.17,-252.07"/>
</a>
</g>
</g>
<!-- Node18 -->
<g id="Node000018" class="node">
<title>Node18</title>
<g id="a_Node000018"><a xlink:title=" ">
<polygon fill="#e0e0e0" stroke="#999999" points="185.75,-251.5 66.25,-251.5 66.25,-221 185.75,-221 185.75,-251.5"/>
<text xml:space="preserve" text-anchor="start" x="74.25" y="-238" font-family="Helvetica,sans-Serif" font-size="10.00">boost/date_time/c_local</text>
<text xml:space="preserve" text-anchor="middle" x="126" y="-226.75" font-family="Helvetica,sans-Serif" font-size="10.00">_time_adjustor.hpp</text>
</a>
</g>
</g>
<!-- Node4&#45;&gt;Node18 -->
<g id="edge18_Node000004_Node000018" class="edge">
<title>Node4&#45;&gt;Node18</title>
<g id="a_edge18_Node000004_Node000018"><a xlink:title=" ">
<path fill="none" stroke="#63b8ff" d="M719.01,-295.08C639.17,-291.84 403.36,-280.49 197.47,-251.73"/>
<polygon fill="#63b8ff" stroke="#63b8ff" points="198.02,-248.27 187.63,-250.34 197.04,-255.2 198.02,-248.27"/>
</a>
</g>
</g>
<!-- Node19 -->
<g id="Node000019" class="node">
<title>Node19</title>
<g id="a_Node000019"><a xlink:href="_base_i_o_8hpp.html" target="_top" xlink:title=" ">
<polygon fill="white" stroke="#666666" points="1749.12,-129.75 1670.88,-129.75 1670.88,-110.5 1749.12,-110.5 1749.12,-129.75"/>
<text xml:space="preserve" text-anchor="middle" x="1710" y="-116.25" font-family="Helvetica,sans-Serif" font-size="10.00">io/BaseIO.hpp</text>
</a>
</g>
</g>
<!-- Node4&#45;&gt;Node19 -->
<g id="edge19_Node000004_Node000019" class="edge">
<title>Node4&#45;&gt;Node19</title>
<g id="a_edge19_Node000004_Node000019"><a xlink:title=" ">
<path fill="none" stroke="#63b8ff" d="M774.87,-296.46C898.74,-297.65 1399.72,-299.37 1548,-251.5 1613.1,-230.48 1670.59,-169.15 1696.06,-138.7"/>
<polygon fill="#63b8ff" stroke="#63b8ff" points="1698.6,-141.12 1702.22,-131.16 1693.18,-136.69 1698.6,-141.12"/>
</a>
</g>
</g>
<!-- Node31 -->
<g id="Node000031" class="node">
<title>Node31</title>
<g id="a_Node000031"><a xlink:href="_h_d_f5_i_o_8hpp.html" target="_top" xlink:title=" ">
<polygon fill="white" stroke="#666666" points="1538.88,-245.88 1435.12,-245.88 1435.12,-226.62 1538.88,-226.62 1538.88,-245.88"/>
<text xml:space="preserve" text-anchor="middle" x="1487" y="-232.38" font-family="Helvetica,sans-Serif" font-size="10.00">io/hdf5/HDF5IO.hpp</text>
</a>
</g>
</g>
<!-- Node4&#45;&gt;Node31 -->
<g id="edge34_Node000004_Node000031" class="edge">
<title>Node4&#45;&gt;Node31</title>
<g id="a_edge34_Node000004_Node000031"><a xlink:title=" ">
<path fill="none" stroke="#63b8ff" d="M774.76,-295.74C867.05,-294.16 1171.9,-286.45 1421,-251.5 1426.66,-250.71 1432.56,-249.7 1438.4,-248.59"/>
<polygon fill="#63b8ff" stroke="#63b8ff" points="1438.88,-252.06 1447.99,-246.65 1437.5,-245.2 1438.88,-252.06"/>
</a>
</g>
</g>
<!-- Node19&#45;&gt;Node3 -->
<g id="edge24_Node000019_Node000003" class="edge">
<title>Node19&#45;&gt;Node3</title>
<g id="a_edge24_Node000019_Node000003"><a xlink:title=" ">
<path fill="none" stroke="#63b8ff" d="M1670.52,-116.61C1527.23,-107.48 1036.2,-76.21 905.94,-67.91"/>
<polygon fill="#63b8ff" stroke="#63b8ff" points="906.19,-64.42 895.99,-67.28 905.75,-71.4 906.19,-64.42"/>
</a>
</g>
</g>
<!-- Node19&#45;&gt;Node8 -->
<g id="edge21_Node000019_Node000008" class="edge">
<title>Node19&#45;&gt;Node8</title>
<g id="a_edge21_Node000019_Node000008"><a xlink:title=" ">
<path fill="none" stroke="#63b8ff" d="M1670.8,-115.26C1612.83,-109.18 1500.71,-96.05 1396.93,-74.89"/>
<polygon fill="#63b8ff" stroke="#63b8ff" points="1397.92,-71.53 1387.42,-72.93 1396.5,-78.38 1397.92,-71.53"/>
</a>
</g>
</g>
<!-- Node20 -->
<g id="Node000020" class="node">
<title>Node20</title>
<g id="a_Node000020"><a xlink:title=" ">
<polygon fill="#e0e0e0" stroke="#999999" points="1632.88,-74.5 1601.12,-74.5 1601.12,-55.25 1632.88,-55.25 1632.88,-74.5"/>
<text xml:space="preserve" text-anchor="middle" x="1617" y="-61" font-family="Helvetica,sans-Serif" font-size="10.00">any</text>
</a>
</g>
</g>
<!-- Node19&#45;&gt;Node20 -->
<g id="edge20_Node000019_Node000020" class="edge">
<title>Node19&#45;&gt;Node20</title>
<g id="a_edge20_Node000019_Node000020"><a xlink:title=" ">
<path fill="none" stroke="#63b8ff" d="M1694.22,-110.09C1680.06,-101.98 1659.02,-89.93 1642.47,-80.46"/>
<polygon fill="#63b8ff" stroke="#63b8ff" points="1644.58,-77.64 1634.17,-75.7 1641.11,-83.71 1644.58,-77.64"/>
</a>
</g>
</g>
<!-- Node21 -->
<g id="Node000021" class="node">
<title>Node21</title>
<g id="a_Node000021"><a xlink:title=" ">
<polygon fill="#e0e0e0" stroke="#999999" points="1456.75,-74.5 1403.25,-74.5 1403.25,-55.25 1456.75,-55.25 1456.75,-74.5"/>
<text xml:space="preserve" text-anchor="middle" x="1430" y="-61" font-family="Helvetica,sans-Serif" font-size="10.00">iostream</text>
</a>
</g>
</g>
<!-- Node19&#45;&gt;Node21 -->
<g id="edge22_Node000019_Node000021" class="edge">
<title>Node19&#45;&gt;Node21</title>
<g id="a_edge22_Node000019_Node000021"><a xlink:title=" ">
<path fill="none" stroke="#63b8ff" d="M1670.57,-112.59C1624.39,-104.79 1545.35,-90.98 1467.99,-74.83"/>
<polygon fill="#63b8ff" stroke="#63b8ff" points="1469.08,-71.48 1458.57,-72.84 1467.64,-78.33 1469.08,-71.48"/>
</a>
</g>
</g>
<!-- Node22 -->
<g id="Node000022" class="node">
<title>Node22</title>
<g id="a_Node000022"><a xlink:title=" ">
<polygon fill="#e0e0e0" stroke="#999999" points="1879.62,-74.5 1828.38,-74.5 1828.38,-55.25 1879.62,-55.25 1879.62,-74.5"/>
<text xml:space="preserve" text-anchor="middle" x="1854" y="-61" font-family="Helvetica,sans-Serif" font-size="10.00">memory</text>
</a>
</g>
</g>
<!-- Node19&#45;&gt;Node22 -->
<g id="edge23_Node000019_Node000022" class="edge">
<title>Node19&#45;&gt;Node22</title>
<g id="a_edge23_Node000019_Node000022"><a xlink:title=" ">
<path fill="none" stroke="#63b8ff" d="M1734.43,-110.09C1757.6,-101.52 1792.66,-88.56 1818.84,-78.88"/>
<polygon fill="#63b8ff" stroke="#63b8ff" points="1819.87,-82.23 1828.03,-75.48 1817.44,-75.66 1819.87,-82.23"/>
</a>
</g>
</g>
<!-- Node23 -->
<g id="Node000023" class="node">
<title>Node23</title>
<g id="a_Node000023"><a xlink:title=" ">
<polygon fill="#e0e0e0" stroke="#999999" points="1709,-74.5 1651,-74.5 1651,-55.25 1709,-55.25 1709,-74.5"/>
<text xml:space="preserve" text-anchor="middle" x="1680" y="-61" font-family="Helvetica,sans-Serif" font-size="10.00">typeindex</text>
</a>
</g>
</g>
<!-- Node19&#45;&gt;Node23 -->
<g id="edge25_Node000019_Node000023" class="edge">
<title>Node19&#45;&gt;Node23</title>
<g id="a_edge25_Node000019_Node000023"><a xlink:title=" ">
<path fill="none" stroke="#63b8ff" d="M1705.05,-110.33C1701.12,-103.36 1695.49,-93.37 1690.56,-84.62"/>
<polygon fill="#63b8ff" stroke="#63b8ff" points="1693.76,-83.17 1685.8,-76.18 1687.66,-86.61 1693.76,-83.17"/>
</a>
</g>
</g>
<!-- Node24 -->
<g id="Node000024" class="node">
<title>Node24</title>
<g id="a_Node000024"><a xlink:title=" ">
<polygon fill="#e0e0e0" stroke="#999999" points="2154.38,-74.5 2071.62,-74.5 2071.62,-55.25 2154.38,-55.25 2154.38,-74.5"/>
<text xml:space="preserve" text-anchor="middle" x="2113" y="-61" font-family="Helvetica,sans-Serif" font-size="10.00">unordered_map</text>
</a>
</g>
</g>
<!-- Node19&#45;&gt;Node24 -->
<g id="edge26_Node000019_Node000024" class="edge">
<title>Node19&#45;&gt;Node24</title>
<g id="a_edge26_Node000019_Node000024"><a xlink:title=" ">
<path fill="none" stroke="#63b8ff" d="M1749.52,-114.72C1812.89,-107.52 1941.43,-92.4 2060.19,-74.87"/>
<polygon fill="#63b8ff" stroke="#63b8ff" points="2060.41,-78.37 2069.78,-73.44 2059.38,-71.45 2060.41,-78.37"/>
</a>
</g>
</g>
<!-- Node25 -->
<g id="Node000025" class="node">
<title>Node25</title>
<g id="a_Node000025"><a xlink:title=" ">
<polygon fill="#e0e0e0" stroke="#999999" points="2053.75,-74.5 1976.25,-74.5 1976.25,-55.25 2053.75,-55.25 2053.75,-74.5"/>
<text xml:space="preserve" text-anchor="middle" x="2015" y="-61" font-family="Helvetica,sans-Serif" font-size="10.00">unordered_set</text>
</a>
</g>
</g>
<!-- Node19&#45;&gt;Node25 -->
<g id="edge27_Node000019_Node000025" class="edge">
<title>Node19&#45;&gt;Node25</title>
<g id="a_edge27_Node000019_Node000025"><a xlink:title=" ">
<path fill="none" stroke="#63b8ff" d="M1749.36,-112.45C1797.75,-104.21 1882.69,-89.65 1964.51,-75.11"/>
<polygon fill="#63b8ff" stroke="#63b8ff" points="1965.05,-78.57 1974.28,-73.37 1963.82,-71.68 1965.05,-78.57"/>
</a>
</g>
</g>
<!-- Node26 -->
<g id="Node000026" class="node">
<title>Node26</title>
<g id="a_Node000026"><a xlink:title=" ">
<polygon fill="#e0e0e0" stroke="#999999" points="1810.62,-74.5 1765.38,-74.5 1765.38,-55.25 1810.62,-55.25 1810.62,-74.5"/>
<text xml:space="preserve" text-anchor="middle" x="1788" y="-61" font-family="Helvetica,sans-Serif" font-size="10.00">variant</text>
</a>
</g>
</g>
<!-- Node19&#45;&gt;Node26 -->
<g id="edge28_Node000019_Node000026" class="edge">
<title>Node19&#45;&gt;Node26</title>
<g id="a_edge28_Node000019_Node000026"><a xlink:title=" ">
<path fill="none" stroke="#63b8ff" d="M1723.23,-110.09C1734.77,-102.21 1751.77,-90.61 1765.45,-81.27"/>
<polygon fill="#63b8ff" stroke="#63b8ff" points="1767.17,-84.33 1773.45,-75.81 1763.22,-78.55 1767.17,-84.33"/>
</a>
</g>
</g>
<!-- Node27 -->
<g id="Node000027" class="node">
<title>Node27</title>
<g id="a_Node000027"><a xlink:title=" ">
<polygon fill="#e0e0e0" stroke="#999999" points="1758.5,-19.25 1715.5,-19.25 1715.5,0 1758.5,0 1758.5,-19.25"/>
<text xml:space="preserve" text-anchor="middle" x="1737" y="-5.75" font-family="Helvetica,sans-Serif" font-size="10.00">vector</text>
</a>
</g>
</g>
<!-- Node19&#45;&gt;Node27 -->
<g id="edge29_Node000019_Node000027" class="edge">
<title>Node19&#45;&gt;Node27</title>
<g id="a_edge29_Node000019_Node000027"><a xlink:title=" ">
<path fill="none" stroke="#63b8ff" d="M1712.21,-110.25C1716.52,-92.92 1726.15,-54.23 1732.06,-30.49"/>
<polygon fill="#63b8ff" stroke="#63b8ff" points="1735.38,-31.64 1734.39,-21.1 1728.58,-29.95 1735.38,-31.64"/>
</a>
</g>
</g>
<!-- Node28 -->
<g id="Node000028" class="node">
<title>Node28</title>
<g id="a_Node000028"><a xlink:title=" ">
<polygon fill="#e0e0e0" stroke="#999999" points="1583.12,-74.5 1474.88,-74.5 1474.88,-55.25 1583.12,-55.25 1583.12,-74.5"/>
<text xml:space="preserve" text-anchor="middle" x="1529" y="-61" font-family="Helvetica,sans-Serif" font-size="10.00">boost/multi_array.hpp</text>
</a>
</g>
</g>
<!-- Node19&#45;&gt;Node28 -->
<g id="edge30_Node000019_Node000028" class="edge">
<title>Node19&#45;&gt;Node28</title>
<g id="a_edge30_Node000019_Node000028"><a xlink:title=" ">
<path fill="none" stroke="#63b8ff" d="M1679.3,-110.09C1649.39,-101.29 1603.72,-87.86 1570.58,-78.11"/>
<polygon fill="#63b8ff" stroke="#63b8ff" points="1571.89,-74.84 1561.31,-75.38 1569.91,-81.56 1571.89,-74.84"/>
</a>
</g>
</g>
<!-- Node29 -->
<g id="Node000029" class="node">
<title>Node29</title>
<g id="a_Node000029"><a xlink:href="_types_8hpp.html" target="_top" xlink:title=" ">
<polygon fill="white" stroke="#666666" points="1958.5,-74.5 1897.5,-74.5 1897.5,-55.25 1958.5,-55.25 1958.5,-74.5"/>
<text xml:space="preserve" text-anchor="middle" x="1928" y="-61" font-family="Helvetica,sans-Serif" font-size="10.00">Types.hpp</text>
</a>
</g>
</g>
<!-- Node19&#45;&gt;Node29 -->
<g id="edge31_Node000019_Node000029" class="edge">
<title>Node19&#45;&gt;Node29</title>
<g id="a_edge31_Node000019_Node000029"><a xlink:title=" ">
<path fill="none" stroke="#63b8ff" d="M1746.98,-110.09C1785.54,-100.67 1845.86,-85.94 1886.14,-76.1"/>
<polygon fill="#63b8ff" stroke="#63b8ff" points="1886.84,-79.53 1895.72,-73.76 1885.18,-72.73 1886.84,-79.53"/>
</a>
</g>
</g>
<!-- Node29&#45;&gt;Node27 -->
<g id="edge33_Node000029_Node000027" class="edge">
<title>Node29&#45;&gt;Node27</title>
<g id="a_edge33_Node000029_Node000027"><a xlink:title=" ">
<path fill="none" stroke="#63b8ff" d="M1897.31,-55.32C1862.39,-45.58 1805.58,-29.74 1769.8,-19.77"/>
<polygon fill="#63b8ff" stroke="#63b8ff" points="1771.01,-16.47 1760.44,-17.16 1769.13,-23.22 1771.01,-16.47"/>
</a>
</g>
</g>
<!-- Node30 -->
<g id="Node000030" class="node">
<title>Node30</title>
<g id="a_Node000030"><a xlink:title=" ">
<polygon fill="#e0e0e0" stroke="#999999" points="1952.12,-19.25 1903.88,-19.25 1903.88,0 1952.12,0 1952.12,-19.25"/>
<text xml:space="preserve" text-anchor="middle" x="1928" y="-5.75" font-family="Helvetica,sans-Serif" font-size="10.00">cstddef</text>
</a>
</g>
</g>
<!-- Node29&#45;&gt;Node30 -->
<g id="edge32_Node000029_Node000030" class="edge">
<title>Node29&#45;&gt;Node30</title>
<g id="a_edge32_Node000029_Node000030"><a xlink:title=" ">
<path fill="none" stroke="#63b8ff" d="M1928,-55.08C1928,-48.57 1928,-39.42 1928,-31.12"/>
<polygon fill="#63b8ff" stroke="#63b8ff" points="1931.5,-31.12 1928,-21.12 1924.5,-31.12 1931.5,-31.12"/>
</a>
</g>
</g>
<!-- Node31&#45;&gt;Node3 -->
<g id="edge37_Node000031_Node000003" class="edge">
<title>Node31&#45;&gt;Node3</title>
<g id="a_edge37_Node000031_Node000003"><a xlink:title=" ">
<path fill="none" stroke="#63b8ff" d="M1484.83,-226.33C1480.66,-211.23 1470.02,-180.8 1449,-165.75 1446.17,-163.73 1025.61,-91.77 905.62,-71.27"/>
<polygon fill="#63b8ff" stroke="#63b8ff" points="906.29,-67.84 895.84,-69.6 905.11,-74.74 906.29,-67.84"/>
</a>
</g>
</g>
<!-- Node31&#45;&gt;Node19 -->
<g id="edge40_Node000031_Node000019" class="edge">
<title>Node31&#45;&gt;Node19</title>
<g id="a_edge40_Node000031_Node000019"><a xlink:title=" ">
<path fill="none" stroke="#63b8ff" d="M1519.14,-226.17C1547.41,-217.54 1589.2,-203.19 1623,-185 1648.2,-171.44 1674.3,-151.33 1691.25,-137.31"/>
<polygon fill="#63b8ff" stroke="#63b8ff" points="1693.11,-140.31 1698.51,-131.2 1688.6,-134.96 1693.11,-140.31"/>
</a>
</g>
</g>
<!-- Node31&#45;&gt;Node21 -->
<g id="edge35_Node000031_Node000021" class="edge">
<title>Node31&#45;&gt;Node21</title>
<g id="a_edge35_Node000031_Node000021"><a xlink:title=" ">
<path fill="none" stroke="#63b8ff" d="M1487.49,-226.5C1487.99,-213.12 1488,-186.93 1482,-165.75 1473.42,-135.44 1455.03,-103.71 1442.59,-84.36"/>
<polygon fill="#63b8ff" stroke="#63b8ff" points="1445.65,-82.65 1437.22,-76.24 1439.81,-86.51 1445.65,-82.65"/>
</a>
</g>
</g>
<!-- Node31&#45;&gt;Node22 -->
<g id="edge36_Node000031_Node000022" class="edge">
<title>Node31&#45;&gt;Node22</title>
<g id="a_edge36_Node000031_Node000022"><a xlink:title=" ">
<path fill="none" stroke="#63b8ff" d="M1534.69,-226.13C1597.07,-212.59 1707.94,-182.86 1789,-129.75 1808.57,-116.93 1827.22,-97.61 1839.48,-83.57"/>
<polygon fill="#63b8ff" stroke="#63b8ff" points="1842.11,-85.89 1845.9,-76 1836.77,-81.36 1842.11,-85.89"/>
</a>
</g>
</g>
<!-- Node31&#45;&gt;Node29 -->
<g id="edge39_Node000031_Node000029" class="edge">
<title>Node31&#45;&gt;Node29</title>
<g id="a_edge39_Node000031_Node000029"><a xlink:title=" ">
<path fill="none" stroke="#63b8ff" d="M1539.07,-226.98C1585.06,-218.88 1653.55,-204.84 1711,-185 1764.98,-166.36 1777,-157.34 1827,-129.75 1854.69,-114.47 1885.21,-94.74 1905.38,-81.28"/>
<polygon fill="#63b8ff" stroke="#63b8ff" points="1907.31,-84.2 1913.65,-75.71 1903.4,-78.39 1907.31,-84.2"/>
</a>
</g>
</g>
<!-- Node32 -->
<g id="Node000032" class="node">
<title>Node32</title>
<g id="a_Node000032"><a xlink:title=" ">
<polygon fill="#e0e0e0" stroke="#999999" points="1440,-185 1370,-185 1370,-165.75 1440,-165.75 1440,-185"/>
<text xml:space="preserve" text-anchor="middle" x="1405" y="-171.5" font-family="Helvetica,sans-Serif" font-size="10.00">H5Opublic.h</text>
</a>
</g>
</g>
<!-- Node31&#45;&gt;Node32 -->
<g id="edge38_Node000031_Node000032" class="edge">
<title>Node31&#45;&gt;Node32</title>
<g id="a_edge38_Node000031_Node000032"><a xlink:title=" ">
<path fill="none" stroke="#63b8ff" d="M1474.55,-226.31C1461.9,-217.23 1442.07,-202.99 1426.81,-192.04"/>
<polygon fill="#63b8ff" stroke="#63b8ff" points="1428.97,-189.27 1418.8,-186.28 1424.88,-194.96 1428.97,-189.27"/>
</a>
</g>
</g>
<!-- Node31&#45;&gt;Node33 -->
<g id="edge41_Node000031_Node000033" class="edge">
<title>Node31&#45;&gt;Node33</title>
<g id="a_edge41_Node000031_Node000033"><a xlink:title=" ">
<path fill="none" stroke="#63b8ff" d="M1500.21,-226.31C1513.75,-217.14 1535.07,-202.72 1551.32,-191.73"/>
<polygon fill="#63b8ff" stroke="#63b8ff" points="1553.09,-194.75 1559.41,-186.25 1549.17,-188.96 1553.09,-194.75"/>
</a>
</g>
</g>
<!-- Node33&#45;&gt;Node3 -->
<g id="edge46_Node000033_Node000003" class="edge">
<title>Node33&#45;&gt;Node3</title>
<g id="a_edge46_Node000033_Node000003"><a xlink:title=" ">
<path fill="none" stroke="#63b8ff" d="M1534.1,-170.72C1479.9,-165.13 1380.31,-152.61 1298,-129.75 1275.85,-123.6 1272.27,-116.18 1250,-110.5 1124.98,-78.61 970.63,-69.39 905.42,-66.82"/>
<polygon fill="#63b8ff" stroke="#63b8ff" points="905.95,-63.34 895.83,-66.47 905.69,-70.33 905.95,-63.34"/>
</a>
</g>
</g>
<!-- Node33&#45;&gt;Node8 -->
<g id="edge43_Node000033_Node000008" class="edge">
<title>Node33&#45;&gt;Node8</title>
<g id="a_edge43_Node000033_Node000008"><a xlink:title=" ">
<path fill="none" stroke="#63b8ff" d="M1556.37,-165.31C1519.68,-146.44 1434.85,-102.82 1390.75,-80.15"/>
<polygon fill="#63b8ff" stroke="#63b8ff" points="1392.56,-77.14 1382.07,-75.68 1389.36,-83.37 1392.56,-77.14"/>
</a>
</g>
</g>
<!-- Node33&#45;&gt;Node19 -->
<g id="edge50_Node000033_Node000019" class="edge">
<title>Node33&#45;&gt;Node19</title>
<g id="a_edge50_Node000033_Node000019"><a xlink:title=" ">
<path fill="none" stroke="#63b8ff" d="M1597.07,-165.34C1618.76,-156.85 1651.48,-144.04 1676.13,-134.39"/>
<polygon fill="#63b8ff" stroke="#63b8ff" points="1677.37,-137.66 1685.41,-130.75 1674.82,-131.14 1677.37,-137.66"/>
</a>
</g>
</g>
<!-- Node33&#45;&gt;Node20 -->
<g id="edge42_Node000033_Node000020" class="edge">
<title>Node33&#45;&gt;Node20</title>
<g id="a_edge42_Node000033_Node000020"><a xlink:title=" ">
<path fill="none" stroke="#63b8ff" d="M1577.52,-165.5C1584.42,-148.09 1599.86,-109.12 1609.26,-85.41"/>
<polygon fill="#63b8ff" stroke="#63b8ff" points="1612.44,-86.87 1612.87,-76.28 1605.94,-84.29 1612.44,-86.87"/>
</a>
</g>
</g>
<!-- Node33&#45;&gt;Node21 -->
<g id="edge44_Node000033_Node000021" class="edge">
<title>Node33&#45;&gt;Node21</title>
<g id="a_edge44_Node000033_Node000021"><a xlink:title=" ">
<path fill="none" stroke="#63b8ff" d="M1565.59,-165.48C1553.09,-152.52 1528.54,-128.09 1505,-110.5 1490.06,-99.33 1472.14,-88.59 1457.57,-80.44"/>
<polygon fill="#63b8ff" stroke="#63b8ff" points="1459.41,-77.46 1448.96,-75.72 1456.05,-83.6 1459.41,-77.46"/>
</a>
</g>
</g>
<!-- Node33&#45;&gt;Node22 -->
<g id="edge45_Node000033_Node000022" class="edge">
<title>Node33&#45;&gt;Node22</title>
<g id="a_edge45_Node000033_Node000022"><a xlink:title=" ">
<path fill="none" stroke="#63b8ff" d="M1613.69,-168.86C1651.86,-162.61 1710.57,-150.51 1758,-129.75 1786.45,-117.3 1815.67,-96.49 1834.28,-82.01"/>
<polygon fill="#63b8ff" stroke="#63b8ff" points="1836.38,-84.81 1842.04,-75.85 1832.03,-79.33 1836.38,-84.81"/>
</a>
</g>
</g>
<!-- Node33&#45;&gt;Node23 -->
<g id="edge47_Node000033_Node000023" class="edge">
<title>Node33&#45;&gt;Node23</title>
<g id="a_edge47_Node000033_Node000023"><a xlink:title=" ">
<path fill="none" stroke="#63b8ff" d="M1582.67,-165.5C1600.3,-147.46 1640.56,-106.25 1663.39,-82.88"/>
<polygon fill="#63b8ff" stroke="#63b8ff" points="1665.66,-85.56 1670.15,-75.96 1660.66,-80.67 1665.66,-85.56"/>
</a>
</g>
</g>
<!-- Node33&#45;&gt;Node27 -->
<g id="edge48_Node000033_Node000027" class="edge">
<title>Node33&#45;&gt;Node27</title>
<g id="a_edge48_Node000033_Node000027"><a xlink:title=" ">
<path fill="none" stroke="#63b8ff" d="M1534.26,-169.69C1450.51,-158.32 1268.52,-124.97 1331,-55.25 1355.74,-27.64 1610.96,-15.36 1703.62,-11.79"/>
<polygon fill="#63b8ff" stroke="#63b8ff" points="1703.71,-15.29 1713.57,-11.42 1703.44,-8.29 1703.71,-15.29"/>
</a>
</g>
</g>
<!-- Node33&#45;&gt;Node28 -->
<g id="edge49_Node000033_Node000028" class="edge">
<title>Node33&#45;&gt;Node28</title>
<g id="a_edge49_Node000033_Node000028"><a xlink:title=" ">
<path fill="none" stroke="#63b8ff" d="M1570.32,-165.5C1563.1,-148.09 1546.94,-109.12 1537.1,-85.41"/>
<polygon fill="#63b8ff" stroke="#63b8ff" points="1540.38,-84.17 1533.31,-76.27 1533.91,-86.85 1540.38,-84.17"/>
</a>
</g>
</g>
<!-- Node33&#45;&gt;Node29 -->
<g id="edge51_Node000033_Node000029" class="edge">
<title>Node33&#45;&gt;Node29</title>
<g id="a_edge51_Node000033_Node000029"><a xlink:title=" ">
<path fill="none" stroke="#63b8ff" d="M1613.93,-168.86C1657.64,-162.18 1729.43,-149.34 1789,-129.75 1829.76,-116.35 1874.43,-94.42 1901.85,-80.07"/>
<polygon fill="#63b8ff" stroke="#63b8ff" points="1903.27,-83.28 1910.46,-75.5 1899.99,-77.09 1903.27,-83.28"/>
</a>
</g>
</g>
<!-- Node34&#45;&gt;Node19 -->
<g id="edge55_Node000034_Node000019" class="edge">
<title>Node34&#45;&gt;Node19</title>
<g id="a_edge55_Node000034_Node000019"><a xlink:title=" ">
<path fill="none" stroke="#63b8ff" d="M1852.64,-397.58C1865.16,-379.6 1891,-337.69 1891,-298.12 1891,-298.12 1891,-298.12 1891,-235.25 1891,-173.17 1813.87,-143.51 1760.31,-130.39"/>
<polygon fill="#63b8ff" stroke="#63b8ff" points="1761.28,-127.03 1750.75,-128.18 1759.7,-133.85 1761.28,-127.03"/>
</a>
</g>
</g>
<!-- Node34&#45;&gt;Node22 -->
<g id="edge54_Node000034_Node000022" class="edge">
<title>Node34&#45;&gt;Node22</title>
<g id="a_edge54_Node000034_Node000022"><a xlink:title=" ">
<path fill="none" stroke="#63b8ff" d="M1858.48,-397.8C1869.01,-389.69 1883.66,-376.71 1892,-362 1904.44,-340.06 1902.09,-331.81 1905,-306.75 1909.39,-268.89 1911.03,-258.63 1905,-221 1896.88,-170.32 1874.74,-113.73 1862.47,-84.94"/>
<polygon fill="#63b8ff" stroke="#63b8ff" points="1865.82,-83.88 1858.62,-76.1 1859.4,-86.67 1865.82,-83.88"/>
</a>
</g>
</g>
<!-- Node35 -->
<g id="Node000035" class="node">
<title>Node35</title>
<g id="a_Node000035"><a xlink:href="_registered_type_8hpp.html" target="_top" xlink:title=" ">
<polygon fill="white" stroke="#666666" points="1863,-362 1739,-362 1739,-342.75 1863,-342.75 1863,-362"/>
<text xml:space="preserve" text-anchor="middle" x="1801" y="-348.5" font-family="Helvetica,sans-Serif" font-size="10.00">nwb/RegisteredType.hpp</text>
</a>
</g>
</g>
<!-- Node34&#45;&gt;Node35 -->
<g id="edge56_Node000034_Node000035" class="edge">
<title>Node34&#45;&gt;Node35</title>
<g id="a_edge56_Node000034_Node000035"><a xlink:title=" ">
<path fill="none" stroke="#63b8ff" d="M1838.57,-397.83C1832.42,-390.55 1823.49,-379.98 1815.87,-370.98"/>
<polygon fill="#63b8ff" stroke="#63b8ff" points="1818.7,-368.89 1809.57,-363.52 1813.35,-373.41 1818.7,-368.89"/>
</a>
</g>
</g>
<!-- Node35&#45;&gt;Node3 -->
<g id="edge60_Node000035_Node000003" class="edge">
<title>Node35&#45;&gt;Node3</title>
<g id="a_edge60_Node000035_Node000003"><a xlink:title=" ">
<path fill="none" stroke="#63b8ff" d="M1738.51,-350.67C1424.96,-346.71 38,-324.3 38,-237.25 38,-237.25 38,-237.25 38,-174.38 38,-91.64 690.27,-70.41 842.5,-66.58"/>
<polygon fill="#63b8ff" stroke="#63b8ff" points="842.32,-70.09 852.24,-66.35 842.15,-63.09 842.32,-70.09"/>
</a>
</g>
</g>
<!-- Node35&#45;&gt;Node4 -->
<g id="edge64_Node000035_Node000004" class="edge">
<title>Node35&#45;&gt;Node4</title>
<g id="a_edge64_Node000035_Node000004"><a xlink:title=" ">
<path fill="none" stroke="#63b8ff" d="M1738.61,-348.22C1542.74,-338.33 943.69,-308.06 785.59,-300.07"/>
<polygon fill="#63b8ff" stroke="#63b8ff" points="786.24,-296.6 776.07,-299.59 785.89,-303.59 786.24,-296.6"/>
</a>
</g>
</g>
<!-- Node35&#45;&gt;Node19 -->
<g id="edge65_Node000035_Node000019" class="edge">
<title>Node35&#45;&gt;Node19</title>
<g id="a_edge65_Node000035_Node000019"><a xlink:title=" ">
<path fill="none" stroke="#63b8ff" d="M1801.4,-342.5C1801.72,-329.98 1801.43,-306.54 1796,-287.5 1779.57,-229.85 1742.2,-168.95 1722.58,-139.38"/>
<polygon fill="#63b8ff" stroke="#63b8ff" points="1725.56,-137.55 1717.07,-131.22 1719.76,-141.46 1725.56,-137.55"/>
</a>
</g>
</g>
<!-- Node35&#45;&gt;Node22 -->
<g id="edge59_Node000035_Node000022" class="edge">
<title>Node35&#45;&gt;Node22</title>
<g id="a_edge59_Node000035_Node000022"><a xlink:title=" ">
<path fill="none" stroke="#63b8ff" d="M1808.45,-342.26C1822.83,-323.7 1853,-279.71 1853,-237.25 1853,-237.25 1853,-237.25 1853,-174.38 1853,-143.65 1853.41,-108.04 1853.7,-86.24"/>
<polygon fill="#63b8ff" stroke="#63b8ff" points="1857.2,-86.44 1853.84,-76.39 1850.2,-86.34 1857.2,-86.44"/>
</a>
</g>
</g>
<!-- Node35&#45;&gt;Node24 -->
<g id="edge61_Node000035_Node000024" class="edge">
<title>Node35&#45;&gt;Node24</title>
<g id="a_edge61_Node000035_Node000024"><a xlink:title=" ">
<path fill="none" stroke="#63b8ff" d="M1863.49,-351.09C1911.99,-348.18 1979.13,-338.07 2029,-306.75 2061.67,-286.23 2081,-275.83 2081,-237.25 2081,-237.25 2081,-237.25 2081,-174.38 2081,-142.06 2094.22,-106.47 2103.66,-85.16"/>
<polygon fill="#63b8ff" stroke="#63b8ff" points="2106.75,-86.82 2107.78,-76.27 2100.4,-83.87 2106.75,-86.82"/>
</a>
</g>
</g>
<!-- Node35&#45;&gt;Node25 -->
<g id="edge62_Node000035_Node000025" class="edge">
<title>Node35&#45;&gt;Node25</title>
<g id="a_edge62_Node000035_Node000025"><a xlink:title=" ">
<path fill="none" stroke="#63b8ff" d="M1863.32,-348.26C1935.02,-340.92 2043,-316.68 2043,-237.25 2043,-237.25 2043,-237.25 2043,-174.38 2043,-142.52 2031.54,-107.02 2023.28,-85.57"/>
<polygon fill="#63b8ff" stroke="#63b8ff" points="2026.56,-84.33 2019.58,-76.36 2020.07,-86.95 2026.56,-84.33"/>
</a>
</g>
</g>
<!-- Node35&#45;&gt;Node29 -->
<g id="edge63_Node000035_Node000029" class="edge">
<title>Node35&#45;&gt;Node29</title>
<g id="a_edge63_Node000035_Node000029"><a xlink:title=" ">
<path fill="none" stroke="#63b8ff" d="M1863.32,-343.11C1923.31,-331.23 2005,-302.99 2005,-237.25 2005,-237.25 2005,-237.25 2005,-174.38 2005,-144.05 1998.5,-135.27 1981,-110.5 1973.11,-99.33 1961.78,-89.29 1951.61,-81.56"/>
<polygon fill="#63b8ff" stroke="#63b8ff" points="1953.77,-78.8 1943.61,-75.8 1949.68,-84.48 1953.77,-78.8"/>
</a>
</g>
</g>
<!-- Node35&#45;&gt;Node33 -->
<g id="edge66_Node000035_Node000033" class="edge">
<title>Node35&#45;&gt;Node33</title>
<g id="a_edge66_Node000035_Node000033"><a xlink:title=" ">
<path fill="none" stroke="#63b8ff" d="M1738.79,-348.62C1705.58,-343.93 1666.42,-332.71 1641,-306.75 1613.47,-278.64 1638.56,-255.14 1619,-221 1612.83,-210.23 1603.36,-200.29 1594.69,-192.53"/>
<polygon fill="#63b8ff" stroke="#63b8ff" points="1597.18,-190.05 1587.29,-186.28 1592.67,-195.4 1597.18,-190.05"/>
</a>
</g>
</g>
<!-- Node36 -->
<g id="Node000036" class="node">
<title>Node36</title>
<g id="a_Node000036"><a xlink:title=" ">
<polygon fill="#e0e0e0" stroke="#999999" points="1710.5,-306.75 1649.5,-306.75 1649.5,-287.5 1710.5,-287.5 1710.5,-306.75"/>
<text xml:space="preserve" text-anchor="middle" x="1680" y="-293.25" font-family="Helvetica,sans-Serif" font-size="10.00">filesystem</text>
</a>
</g>
</g>
<!-- Node35&#45;&gt;Node36 -->
<g id="edge57_Node000035_Node000036" class="edge">
<title>Node35&#45;&gt;Node36</title>
<g id="a_edge57_Node000035_Node000036"><a xlink:title=" ">
<path fill="none" stroke="#63b8ff" d="M1780.47,-342.34C1761.44,-333.97 1732.85,-321.38 1711.03,-311.78"/>
<polygon fill="#63b8ff" stroke="#63b8ff" points="1712.57,-308.64 1702.01,-307.81 1709.76,-315.04 1712.57,-308.64"/>
</a>
</g>
</g>
<!-- Node37 -->
<g id="Node000037" class="node">
<title>Node37</title>
<g id="a_Node000037"><a xlink:title=" ">
<polygon fill="#e0e0e0" stroke="#999999" points="1787,-306.75 1729,-306.75 1729,-287.5 1787,-287.5 1787,-306.75"/>
<text xml:space="preserve" text-anchor="middle" x="1758" y="-293.25" font-family="Helvetica,sans-Serif" font-size="10.00">functional</text>
</a>
</g>
</g>
<!-- Node35&#45;&gt;Node37 -->
<g id="edge58_Node000035_Node000037" class="edge">
<title>Node35&#45;&gt;Node37</title>
<g id="a_edge58_Node000035_Node000037"><a xlink:title=" ">
<path fill="none" stroke="#63b8ff" d="M1793.9,-342.58C1788.08,-335.38 1779.67,-324.96 1772.44,-316.01"/>
<polygon fill="#63b8ff" stroke="#63b8ff" points="1775.21,-313.87 1766.21,-308.29 1769.77,-318.27 1775.21,-313.87"/>
</a>
</g>
</g>
</g>
</svg>

<g id="navigator" transform="translate(0 0)" fill="#404254">
  <rect fill="#f2f5e9" fill-opacity="0.5" stroke="#606060" stroke-width=".5" x="0" y="0" width="60" height="60"/>
  <use id="zoomplus" xlink:href="#zoomPlus" x="17" y="9" onmousedown="handleZoom(evt,'in')"/>
  <use id="zoomminus" xlink:href="#zoomMin" x="42" y="9" onmousedown="handleZoom(evt,'out')"/>
  <use id="reset" xlink:href="#resetDef" x="30" y="36" onmousedown="handleReset()"/>
   <use id="arrowup" xlink:href="#arrowUp" x="0" y="0" onmousedown="handlePan(0,-1)"/>
  <use id="arrowright" xlink:href="#arrowRight" x="0" y="0" onmousedown="handlePan(1,0)"/>
  <use id="arrowdown" xlink:href="#arrowDown" x="0" y="0" onmousedown="handlePan(0,1)"/>
  <use id="arrowleft" xlink:href="#arrowLeft" x="0" y="0" onmousedown="handlePan(-1,0)"/>
</g>
<svg viewBox="0 0 15 15" width="100%" height="30px" preserveAspectRatio="xMaxYMin meet">
 <g id="arrow_out" transform="scale(0.3 0.3)">
  <a xlink:href="_vector_data_8cpp__incl_org.svg" target="_base">
   <rect id="button" ry="5" rx="5" y="6" x="6" height="38" width="38"
        fill="#f2f5e9" fill-opacity="0.5" stroke="#606060" stroke-width="1.0"/>
   <path id="arrow"
     d="M 11.500037,31.436501 C 11.940474,20.09759 22.043105,11.32322 32.158766,21.979434 L 37.068811,17.246167 C 37.068811,17.246167 37.088388,32 37.088388,32 L 22.160133,31.978069 C 22.160133,31.978069 26.997745,27.140456 26.997745,27.140456 C 18.528582,18.264221 13.291696,25.230495 11.500037,31.436501 z"
     style="fill:#404040;"/>
  </a>
 </g>
</svg>

<style type='text/css'>
<![CDATA[
[data-mouse-over-selected='false'] { opacity: 0.7; }
[data-mouse-over-selected='true']  { opacity: 1.0; }
]]>
</style>
<script type="application/ecmascript"><![CDATA[
document.addEventListener('DOMContentLoaded', (event) => {
  highlightEdges();
  highlightAdjacentNodes();
});
]]></script>
</svg>
