<?xml version="1.0" encoding="UTF-8" standalone="no"?>
<!DOCTYPE svg PUBLIC "-//W3C//DTD SVG 1.1//EN"
 "http://www.w3.org/Graphics/SVG/1.1/DTD/svg11.dtd">
<!-- Generated by graphviz version 12.2.1 (20241206.2353)
 -->
<!-- Title: src/nwb/hdmf/table/VectorData.hpp Pages: 1 -->
<!--zoomable 437 -->

<svg id="main" version="1.1" xmlns="http://www.w3.org/2000/svg" xmlns:xlink="http://www.w3.org/1999/xlink" xml:space="preserve" onload="init(evt)">

<style type="text/css"><![CDATA[
.node, .edge {opacity: 0.7;}
.node.selected, .edge.selected {opacity: 1;}
.edge:hover path { stroke: red; }
.edge:hover polygon { stroke: red; fill: red; }
]]></style>

<defs>
  <circle id="rim" cx="0" cy="0" r="7"/>
  <circle id="rim2" cx="0" cy="0" r="3.5"/>
  <g id="zoomPlus">
    <use xlink:href="#rim" fill="#404040"><set attributeName="fill" to="#808080" begin="zoomplus.mouseover" end="zoomplus.mouseout"/></use>
    <path d="M-4,0h8M0,-4v8" fill="none" stroke="white" stroke-width="1.5" pointer-events="none"/>
  </g>
  <g id="zoomMin">
    <use xlink:href="#rim" fill="#404040"><set attributeName="fill" to="#808080" begin="zoomminus.mouseover" end="zoomminus.mouseout"/></use>
    <path d="M-4,0h8" fill="none" stroke="white" stroke-width="1.5" pointer-events="none"/>
  </g>
  <g id="arrowUp" transform="translate(30 24)">
    <use xlink:href="#rim"/>
    <path pointer-events="none" fill="none" stroke="white" stroke-width="1.5" d="M0,-3.0v7 M-2.5,-0.5L0,-3.0L2.5,-0.5"/>
  </g>
  <g id="arrowRight" transform="rotate(90) translate(36 -43)">
    <use xlink:href="#rim"/>
    <path pointer-events="none" fill="none" stroke="white" stroke-width="1.5" d="M0,-3.0v7 M-2.5,-0.5L0,-3.0L2.5,-0.5"/>
  </g>
  <g id="arrowDown" transform="rotate(180) translate(-30 -48)">
    <use xlink:href="#rim"/>
    <path pointer-events="none" fill="none" stroke="white" stroke-width="1.5" d="M0,-3.0v7 M-2.5,-0.5L0,-3.0L2.5,-0.5"/>
  </g>
  <g id="arrowLeft" transform="rotate(270) translate(-36 17)">
    <use xlink:href="#rim"/>
    <path pointer-events="none" fill="none" stroke="white" stroke-width="1.5" d="M0,-3.0v7 M-2.5,-0.5L0,-3.0L2.5,-0.5"/>
  </g>
  <g id="resetDef">
    <use xlink:href="#rim2" fill="#404040"><set attributeName="fill" to="#808080" begin="reset.mouseover" end="reset.mouseout"/></use>
  </g>
</defs>
<script type="application/ecmascript">
var viewWidth = 2044;
var viewHeight = 437;
var sectionId = 'dynsection-0';
</script>
<script type="application/ecmascript" xlink:href="svg.min.js"/>
<svg id="graph" class="graph">
<g id="viewport">
<title>src/nwb/hdmf/table/VectorData.hpp</title>
<!-- Node1 -->
<g id="Node000001" class="node">
<title>Node1</title>
<g id="a_Node000001"><a xlink:title=" ">
<polygon fill="#999999" stroke="#666666" points="1449.62,-428.5 1350.38,-428.5 1350.38,-398 1449.62,-398 1449.62,-428.5"/>
<text text-anchor="start" x="1358.38" y="-415" font-family="Helvetica,sans-Serif" font-size="10.00">src/nwb/hdmf/table</text>
<text text-anchor="middle" x="1400" y="-403.75" font-family="Helvetica,sans-Serif" font-size="10.00">/VectorData.hpp</text>
</a>
</g>
</g>
<!-- Node2 -->
<g id="Node000002" class="node">
<title>Node2</title>
<g id="a_Node000002"><a xlink:title=" ">
<polygon fill="#e0e0e0" stroke="#999999" points="363,-74.5 323,-74.5 323,-55.25 363,-55.25 363,-74.5"/>
<text text-anchor="middle" x="343" y="-61" font-family="Helvetica,sans-Serif" font-size="10.00">string</text>
</a>
</g>
</g>
<!-- Node1&#45;&gt;Node2 -->
<g id="edge1_Node000001_Node000002" class="edge">
<title>Node1&#45;&gt;Node2</title>
<g id="a_edge1_Node000001_Node000002"><a xlink:title=" ">
<path fill="none" stroke="#63b8ff" d="M1350.17,-410.85C1100.78,-403.54 0,-367.32 0,-298.12 0,-298.12 0,-298.12 0,-180 0,-130.51 41.88,-130.83 87,-110.5 162.62,-76.43 261.65,-68.28 311.47,-66.39"/>
<polygon fill="#63b8ff" stroke="#63b8ff" points="311.35,-69.9 321.24,-66.09 311.13,-62.9 311.35,-69.9"/>
</a>
</g>
</g>
<!-- Node3 -->
<g id="Node000003" class="node">
<title>Node3</title>
<g id="a_Node000003"><a xlink:href="_utils_8hpp.html" target="_top" xlink:title=" ">
<polygon fill="white" stroke="#666666" points="1120.5,-251.5 1065.5,-251.5 1065.5,-232.25 1120.5,-232.25 1120.5,-251.5"/>
<text text-anchor="middle" x="1093" y="-238" font-family="Helvetica,sans-Serif" font-size="10.00">Utils.hpp</text>
</a>
</g>
</g>
<!-- Node1&#45;&gt;Node3 -->
<g id="edge2_Node000001_Node000003" class="edge">
<title>Node1&#45;&gt;Node3</title>
<g id="a_edge2_Node000001_Node000003"><a xlink:title=" ">
<path fill="none" stroke="#63b8ff" d="M1373.29,-397.52C1315.06,-365.39 1177.27,-289.37 1119.36,-257.42"/>
<polygon fill="#63b8ff" stroke="#63b8ff" points="1121.28,-254.48 1110.84,-252.72 1117.9,-260.61 1121.28,-254.48"/>
</a>
</g>
</g>
<!-- Node30 -->
<g id="Node000030" class="node">
<title>Node30</title>
<g id="a_Node000030"><a xlink:href="_read_i_o_8hpp.html" target="_top" xlink:title=" ">
<polygon fill="white" stroke="#666666" points="1558.5,-129.75 1479.5,-129.75 1479.5,-110.5 1558.5,-110.5 1558.5,-129.75"/>
<text text-anchor="middle" x="1519" y="-116.25" font-family="Helvetica,sans-Serif" font-size="10.00">io/ReadIO.hpp</text>
</a>
</g>
</g>
<!-- Node1&#45;&gt;Node30 -->
<g id="edge48_Node000001_Node000030" class="edge">
<title>Node1&#45;&gt;Node30</title>
<g id="a_edge48_Node000001_Node000030"><a xlink:title=" ">
<path fill="none" stroke="#63b8ff" d="M1414.76,-397.75C1446.65,-365.25 1521.24,-282.66 1548,-196.25 1552.01,-183.3 1551.85,-178.75 1548,-165.75 1545.19,-156.26 1539.66,-146.91 1534.17,-139.23"/>
<polygon fill="#63b8ff" stroke="#63b8ff" points="1537.03,-137.2 1528.14,-131.43 1531.49,-141.49 1537.03,-137.2"/>
</a>
</g>
</g>
<!-- Node32 -->
<g id="Node000032" class="node">
<title>Node32</title>
<g id="a_Node000032"><a xlink:href="_data_8hpp.html" target="_top" xlink:title=" ">
<polygon fill="white" stroke="#666666" points="1905.75,-362 1780.25,-362 1780.25,-342.75 1905.75,-342.75 1905.75,-362"/>
<text text-anchor="middle" x="1843" y="-348.5" font-family="Helvetica,sans-Serif" font-size="10.00">nwb/hdmf/base/Data.hpp</text>
</a>
</g>
</g>
<!-- Node1&#45;&gt;Node32 -->
<g id="edge49_Node000001_Node000032" class="edge">
<title>Node1&#45;&gt;Node32</title>
<g id="a_edge49_Node000001_Node000032"><a xlink:title=" ">
<path fill="none" stroke="#63b8ff" d="M1449.96,-405.61C1527.75,-395.27 1678.29,-375.27 1768.8,-363.24"/>
<polygon fill="#63b8ff" stroke="#63b8ff" points="1769.12,-366.72 1778.57,-361.94 1768.2,-359.79 1769.12,-366.72"/>
</a>
</g>
</g>
<!-- Node3&#45;&gt;Node2 -->
<g id="edge11_Node000003_Node000002" class="edge">
<title>Node3&#45;&gt;Node2</title>
<g id="a_edge11_Node000003_Node000002"><a xlink:title=" ">
<path fill="none" stroke="#63b8ff" d="M1065.02,-240.7C906.73,-239.58 129.44,-232.27 95,-196.25 25.38,-123.45 230.69,-83.11 311.68,-70.36"/>
<polygon fill="#63b8ff" stroke="#63b8ff" points="312.05,-73.85 321.4,-68.87 310.99,-66.93 312.05,-73.85"/>
</a>
</g>
</g>
<!-- Node4 -->
<g id="Node000004" class="node">
<title>Node4</title>
<g id="a_Node000004"><a xlink:title=" ">
<polygon fill="#e0e0e0" stroke="#999999" points="1226.88,-190.62 1171.12,-190.62 1171.12,-171.38 1226.88,-171.38 1226.88,-190.62"/>
<text text-anchor="middle" x="1199" y="-177.12" font-family="Helvetica,sans-Serif" font-size="10.00">algorithm</text>
</a>
</g>
</g>
<!-- Node3&#45;&gt;Node4 -->
<g id="edge3_Node000003_Node000004" class="edge">
<title>Node3&#45;&gt;Node4</title>
<g id="a_edge3_Node000003_Node000004"><a xlink:title=" ">
<path fill="none" stroke="#63b8ff" d="M1109.1,-231.93C1125.99,-222.55 1152.8,-207.66 1172.75,-196.58"/>
<polygon fill="#63b8ff" stroke="#63b8ff" points="1174.38,-199.68 1181.43,-191.76 1170.98,-193.56 1174.38,-199.68"/>
</a>
</g>
</g>
<!-- Node5 -->
<g id="Node000005" class="node">
<title>Node5</title>
<g id="a_Node000005"><a xlink:title=" ">
<polygon fill="#e0e0e0" stroke="#999999" points="1290.62,-190.62 1245.38,-190.62 1245.38,-171.38 1290.62,-171.38 1290.62,-190.62"/>
<text text-anchor="middle" x="1268" y="-177.12" font-family="Helvetica,sans-Serif" font-size="10.00">chrono</text>
</a>
</g>
</g>
<!-- Node3&#45;&gt;Node5 -->
<g id="edge4_Node000003_Node000005" class="edge">
<title>Node3&#45;&gt;Node5</title>
<g id="a_edge4_Node000003_Node000005"><a xlink:title=" ">
<path fill="none" stroke="#63b8ff" d="M1120.74,-233.26C1149.79,-225.04 1196.58,-211.12 1236,-196.25 1236.64,-196.01 1237.29,-195.76 1237.94,-195.51"/>
<polygon fill="#63b8ff" stroke="#63b8ff" points="1239.23,-198.76 1247.12,-191.69 1236.54,-192.3 1239.23,-198.76"/>
</a>
</g>
</g>
<!-- Node6 -->
<g id="Node000006" class="node">
<title>Node6</title>
<g id="a_Node000006"><a xlink:title=" ">
<polygon fill="#e0e0e0" stroke="#999999" points="1114.5,-190.62 1071.5,-190.62 1071.5,-171.38 1114.5,-171.38 1114.5,-190.62"/>
<text text-anchor="middle" x="1093" y="-177.12" font-family="Helvetica,sans-Serif" font-size="10.00">cmath</text>
</a>
</g>
</g>
<!-- Node3&#45;&gt;Node6 -->
<g id="edge5_Node000003_Node000006" class="edge">
<title>Node3&#45;&gt;Node6</title>
<g id="a_edge5_Node000003_Node000006"><a xlink:title=" ">
<path fill="none" stroke="#63b8ff" d="M1093,-231.93C1093,-224.15 1093,-212.58 1093,-202.53"/>
<polygon fill="#63b8ff" stroke="#63b8ff" points="1096.5,-202.54 1093,-192.54 1089.5,-202.54 1096.5,-202.54"/>
</a>
</g>
</g>
<!-- Node7 -->
<g id="Node000007" class="node">
<title>Node7</title>
<g id="a_Node000007"><a xlink:title=" ">
<polygon fill="#e0e0e0" stroke="#999999" points="1367.62,-74.5 1322.38,-74.5 1322.38,-55.25 1367.62,-55.25 1367.62,-74.5"/>
<text text-anchor="middle" x="1345" y="-61" font-family="Helvetica,sans-Serif" font-size="10.00">cstdint</text>
</a>
</g>
</g>
<!-- Node3&#45;&gt;Node7 -->
<g id="edge6_Node000003_Node000007" class="edge">
<title>Node3&#45;&gt;Node7</title>
<g id="a_edge6_Node000003_Node000007"><a xlink:title=" ">
<path fill="none" stroke="#63b8ff" d="M1099.47,-232.13C1110.86,-217.16 1135.78,-186.26 1162,-165.75 1210.27,-128 1274.72,-96.5 1312.85,-79.5"/>
<polygon fill="#63b8ff" stroke="#63b8ff" points="1314.2,-82.73 1321.94,-75.5 1311.38,-76.32 1314.2,-82.73"/>
</a>
</g>
</g>
<!-- Node8 -->
<g id="Node000008" class="node">
<title>Node8</title>
<g id="a_Node000008"><a xlink:title=" ">
<polygon fill="#e0e0e0" stroke="#999999" points="1349,-190.62 1309,-190.62 1309,-171.38 1349,-171.38 1349,-190.62"/>
<text text-anchor="middle" x="1329" y="-177.12" font-family="Helvetica,sans-Serif" font-size="10.00">ctime</text>
</a>
</g>
</g>
<!-- Node3&#45;&gt;Node8 -->
<g id="edge7_Node000003_Node000008" class="edge">
<title>Node3&#45;&gt;Node8</title>
<g id="a_edge7_Node000003_Node000008"><a xlink:title=" ">
<path fill="none" stroke="#63b8ff" d="M1120.71,-237.11C1160.98,-231.14 1237.67,-217.92 1300,-196.25 1300.65,-196.03 1301.3,-195.79 1301.95,-195.55"/>
<polygon fill="#63b8ff" stroke="#63b8ff" points="1303.26,-198.79 1311.04,-191.61 1300.47,-192.37 1303.26,-198.79"/>
</a>
</g>
</g>
<!-- Node9 -->
<g id="Node000009" class="node">
<title>Node9</title>
<g id="a_Node000009"><a xlink:title=" ">
<polygon fill="#e0e0e0" stroke="#999999" points="1416.88,-190.62 1367.12,-190.62 1367.12,-171.38 1416.88,-171.38 1416.88,-190.62"/>
<text text-anchor="middle" x="1392" y="-177.12" font-family="Helvetica,sans-Serif" font-size="10.00">iomanip</text>
</a>
</g>
</g>
<!-- Node3&#45;&gt;Node9 -->
<g id="edge8_Node000003_Node000009" class="edge">
<title>Node3&#45;&gt;Node9</title>
<g id="a_edge8_Node000003_Node000009"><a xlink:title=" ">
<path fill="none" stroke="#63b8ff" d="M1120.94,-238.31C1169.78,-233.34 1273.53,-220.71 1358,-196.25 1359.35,-195.86 1360.72,-195.43 1362.09,-194.97"/>
<polygon fill="#63b8ff" stroke="#63b8ff" points="1362.95,-198.39 1371.08,-191.6 1360.49,-191.84 1362.95,-198.39"/>
</a>
</g>
</g>
<!-- Node10 -->
<g id="Node000010" class="node">
<title>Node10</title>
<g id="a_Node000010"><a xlink:title=" ">
<polygon fill="#e0e0e0" stroke="#999999" points="144,-190.62 104,-190.62 104,-171.38 144,-171.38 144,-190.62"/>
<text text-anchor="middle" x="124" y="-177.12" font-family="Helvetica,sans-Serif" font-size="10.00">regex</text>
</a>
</g>
</g>
<!-- Node3&#45;&gt;Node10 -->
<g id="edge9_Node000003_Node000010" class="edge">
<title>Node3&#45;&gt;Node10</title>
<g id="a_edge9_Node000003_Node000010"><a xlink:title=" ">
<path fill="none" stroke="#63b8ff" d="M1065.12,-241.07C928.82,-241.82 331.98,-242.35 153,-196.25 152,-195.99 151,-195.7 149.99,-195.38"/>
<polygon fill="#63b8ff" stroke="#63b8ff" points="151.48,-192.2 140.9,-191.64 148.82,-198.68 151.48,-192.2"/>
</a>
</g>
</g>
<!-- Node11 -->
<g id="Node000011" class="node">
<title>Node11</title>
<g id="a_Node000011"><a xlink:title=" ">
<polygon fill="#e0e0e0" stroke="#999999" points="213.62,-190.62 162.38,-190.62 162.38,-171.38 213.62,-171.38 213.62,-190.62"/>
<text text-anchor="middle" x="188" y="-177.12" font-family="Helvetica,sans-Serif" font-size="10.00">sstream</text>
</a>
</g>
</g>
<!-- Node3&#45;&gt;Node11 -->
<g id="edge10_Node000003_Node000011" class="edge">
<title>Node3&#45;&gt;Node11</title>
<g id="a_edge10_Node000003_Node000011"><a xlink:title=" ">
<path fill="none" stroke="#63b8ff" d="M1065.12,-240.7C935.28,-239.67 389.08,-233.21 223,-196.25 221.23,-195.86 219.44,-195.38 217.65,-194.85"/>
<polygon fill="#63b8ff" stroke="#63b8ff" points="218.9,-191.58 208.31,-191.54 216.57,-198.18 218.9,-191.58"/>
</a>
</g>
</g>
<!-- Node12 -->
<g id="Node000012" class="node">
<title>Node12</title>
<g id="a_Node000012"><a xlink:title=" ">
<polygon fill="#e0e0e0" stroke="#999999" points="336.25,-190.62 231.75,-190.62 231.75,-171.38 336.25,-171.38 336.25,-190.62"/>
<text text-anchor="middle" x="284" y="-177.12" font-family="Helvetica,sans-Serif" font-size="10.00">boost/date_time.hpp</text>
</a>
</g>
</g>
<!-- Node3&#45;&gt;Node12 -->
<g id="edge12_Node000003_Node000012" class="edge">
<title>Node3&#45;&gt;Node12</title>
<g id="a_edge12_Node000003_Node000012"><a xlink:title=" ">
<path fill="none" stroke="#63b8ff" d="M1065.02,-240.87C966.18,-240.52 624.41,-236.28 346,-196.25 340.74,-195.49 335.27,-194.52 329.85,-193.43"/>
<polygon fill="#63b8ff" stroke="#63b8ff" points="330.88,-190.08 320.37,-191.41 329.42,-196.92 330.88,-190.08"/>
</a>
</g>
</g>
<!-- Node13 -->
<g id="Node000013" class="node">
<title>Node13</title>
<g id="a_Node000013"><a xlink:title=" ">
<polygon fill="#e0e0e0" stroke="#999999" points="495.25,-190.62 354.75,-190.62 354.75,-171.38 495.25,-171.38 495.25,-190.62"/>
<text text-anchor="middle" x="425" y="-177.12" font-family="Helvetica,sans-Serif" font-size="10.00">boost/endian/conversion.hpp</text>
</a>
</g>
</g>
<!-- Node3&#45;&gt;Node13 -->
<g id="edge13_Node000003_Node000013" class="edge">
<title>Node3&#45;&gt;Node13</title>
<g id="a_edge13_Node000003_Node000013"><a xlink:title=" ">
<path fill="none" stroke="#63b8ff" d="M1065.05,-239.75C980.41,-236.14 719.56,-223.43 505,-196.25 497.75,-195.33 490.16,-194.2 482.66,-192.98"/>
<polygon fill="#63b8ff" stroke="#63b8ff" points="483.35,-189.55 472.9,-191.33 482.18,-196.45 483.35,-189.55"/>
</a>
</g>
</g>
<!-- Node14 -->
<g id="Node000014" class="node">
<title>Node14</title>
<g id="a_Node000014"><a xlink:title=" ">
<polygon fill="#e0e0e0" stroke="#999999" points="614.38,-190.62 513.62,-190.62 513.62,-171.38 614.38,-171.38 614.38,-190.62"/>
<text text-anchor="middle" x="564" y="-177.12" font-family="Helvetica,sans-Serif" font-size="10.00">boost/uuid/uuid.hpp</text>
</a>
</g>
</g>
<!-- Node3&#45;&gt;Node14 -->
<g id="edge14_Node000003_Node000014" class="edge">
<title>Node3&#45;&gt;Node14</title>
<g id="a_edge14_Node000003_Node000014"><a xlink:title=" ">
<path fill="none" stroke="#63b8ff" d="M1065.01,-239.61C991.89,-236 789.33,-224.09 623,-196.25 618.44,-195.49 613.71,-194.57 609,-193.57"/>
<polygon fill="#63b8ff" stroke="#63b8ff" points="610.15,-190.24 599.62,-191.45 608.61,-197.07 610.15,-190.24"/>
</a>
</g>
</g>
<!-- Node15 -->
<g id="Node000015" class="node">
<title>Node15</title>
<g id="a_Node000015"><a xlink:title=" ">
<polygon fill="#e0e0e0" stroke="#999999" points="783.88,-190.62 632.12,-190.62 632.12,-171.38 783.88,-171.38 783.88,-190.62"/>
<text text-anchor="middle" x="708" y="-177.12" font-family="Helvetica,sans-Serif" font-size="10.00">boost/uuid/uuid_generators.hpp</text>
</a>
</g>
</g>
<!-- Node3&#45;&gt;Node15 -->
<g id="edge15_Node000003_Node000015" class="edge">
<title>Node3&#45;&gt;Node15</title>
<g id="a_edge15_Node000003_Node000015"><a xlink:title=" ">
<path fill="none" stroke="#63b8ff" d="M1065.26,-236.92C1012.3,-229.34 893.12,-212.09 793,-196.25 786.31,-195.19 779.32,-194.06 772.36,-192.92"/>
<polygon fill="#63b8ff" stroke="#63b8ff" points="773.41,-189.54 762.97,-191.37 772.27,-196.45 773.41,-189.54"/>
</a>
</g>
</g>
<!-- Node16 -->
<g id="Node000016" class="node">
<title>Node16</title>
<g id="a_Node000016"><a xlink:title=" ">
<polygon fill="#e0e0e0" stroke="#999999" points="915.75,-190.62 802.25,-190.62 802.25,-171.38 915.75,-171.38 915.75,-190.62"/>
<text text-anchor="middle" x="859" y="-177.12" font-family="Helvetica,sans-Serif" font-size="10.00">boost/uuid/uuid_io.hpp</text>
</a>
</g>
</g>
<!-- Node3&#45;&gt;Node16 -->
<g id="edge16_Node000003_Node000016" class="edge">
<title>Node3&#45;&gt;Node16</title>
<g id="a_edge16_Node000003_Node000016"><a xlink:title=" ">
<path fill="none" stroke="#63b8ff" d="M1065.24,-233.89C1026.01,-224.02 953.83,-205.86 906.12,-193.86"/>
<polygon fill="#63b8ff" stroke="#63b8ff" points="907.17,-190.51 896.62,-191.46 905.46,-197.3 907.17,-190.51"/>
</a>
</g>
</g>
<!-- Node17 -->
<g id="Node000017" class="node">
<title>Node17</title>
<g id="a_Node000017"><a xlink:title=" ">
<polygon fill="#e0e0e0" stroke="#999999" points="1053.75,-196.25 934.25,-196.25 934.25,-165.75 1053.75,-165.75 1053.75,-196.25"/>
<text text-anchor="start" x="942.25" y="-182.75" font-family="Helvetica,sans-Serif" font-size="10.00">boost/date_time/c_local</text>
<text text-anchor="middle" x="994" y="-171.5" font-family="Helvetica,sans-Serif" font-size="10.00">_time_adjustor.hpp</text>
</a>
</g>
</g>
<!-- Node3&#45;&gt;Node17 -->
<g id="edge17_Node000003_Node000017" class="edge">
<title>Node3&#45;&gt;Node17</title>
<g id="a_edge17_Node000003_Node000017"><a xlink:title=" ">
<path fill="none" stroke="#63b8ff" d="M1077.96,-231.93C1064.76,-224.08 1045.06,-212.37 1028.06,-202.26"/>
<polygon fill="#63b8ff" stroke="#63b8ff" points="1030.12,-199.41 1019.74,-197.31 1026.54,-205.43 1030.12,-199.41"/>
</a>
</g>
</g>
<!-- Node18 -->
<g id="Node000018" class="node">
<title>Node18</title>
<g id="a_Node000018"><a xlink:href="_base_i_o_8hpp.html" target="_top" xlink:title=" ">
<polygon fill="white" stroke="#666666" points="1714.12,-129.75 1635.88,-129.75 1635.88,-110.5 1714.12,-110.5 1714.12,-129.75"/>
<text text-anchor="middle" x="1675" y="-116.25" font-family="Helvetica,sans-Serif" font-size="10.00">io/BaseIO.hpp</text>
</a>
</g>
</g>
<!-- Node3&#45;&gt;Node18 -->
<g id="edge18_Node000003_Node000018" class="edge">
<title>Node3&#45;&gt;Node18</title>
<g id="a_edge18_Node000003_Node000018"><a xlink:title=" ">
<path fill="none" stroke="#63b8ff" d="M1120.7,-239.73C1206.64,-235.94 1467.75,-222.49 1548,-196.25 1588.91,-182.88 1630.82,-154.7 1654.8,-136.91"/>
<polygon fill="#63b8ff" stroke="#63b8ff" points="1656.86,-139.74 1662.72,-130.91 1652.63,-134.16 1656.86,-139.74"/>
</a>
</g>
</g>
<!-- Node28 -->
<g id="Node000028" class="node">
<title>Node28</title>
<g id="a_Node000028"><a xlink:href="_h_d_f5_i_o_8hpp.html" target="_top" xlink:title=" ">
<polygon fill="white" stroke="#666666" points="1538.88,-190.62 1435.12,-190.62 1435.12,-171.38 1538.88,-171.38 1538.88,-190.62"/>
<text text-anchor="middle" x="1487" y="-177.12" font-family="Helvetica,sans-Serif" font-size="10.00">io/hdf5/HDF5IO.hpp</text>
</a>
</g>
</g>
<!-- Node3&#45;&gt;Node28 -->
<g id="edge31_Node000003_Node000028" class="edge">
<title>Node3&#45;&gt;Node28</title>
<g id="a_edge31_Node000003_Node000028"><a xlink:title=" ">
<path fill="none" stroke="#63b8ff" d="M1120.77,-238.07C1178.09,-232.07 1313.55,-216.87 1426,-196.25 1430.39,-195.45 1434.93,-194.53 1439.48,-193.57"/>
<polygon fill="#63b8ff" stroke="#63b8ff" points="1440.19,-197 1449.19,-191.42 1438.67,-190.16 1440.19,-197"/>
</a>
</g>
</g>
<!-- Node18&#45;&gt;Node2 -->
<g id="edge23_Node000018_Node000002" class="edge">
<title>Node18&#45;&gt;Node2</title>
<g id="a_edge23_Node000018_Node000002"><a xlink:title=" ">
<path fill="none" stroke="#63b8ff" d="M1635.39,-115.51C1615.23,-113.78 1590.33,-111.81 1568,-110.5 1093.68,-82.76 514.96,-69.46 374.71,-66.52"/>
<polygon fill="#63b8ff" stroke="#63b8ff" points="374.8,-63.02 364.73,-66.31 374.66,-70.02 374.8,-63.02"/>
</a>
</g>
</g>
<!-- Node18&#45;&gt;Node7 -->
<g id="edge20_Node000018_Node000007" class="edge">
<title>Node18&#45;&gt;Node7</title>
<g id="a_edge20_Node000018_Node000007"><a xlink:title=" ">
<path fill="none" stroke="#63b8ff" d="M1635.52,-112.75C1570.11,-102.2 1440.37,-81.26 1378.87,-71.34"/>
<polygon fill="#63b8ff" stroke="#63b8ff" points="1379.78,-67.94 1369.35,-69.8 1378.67,-74.85 1379.78,-67.94"/>
</a>
</g>
</g>
<!-- Node19 -->
<g id="Node000019" class="node">
<title>Node19</title>
<g id="a_Node000019"><a xlink:title=" ">
<polygon fill="#e0e0e0" stroke="#999999" points="1527.88,-74.5 1496.12,-74.5 1496.12,-55.25 1527.88,-55.25 1527.88,-74.5"/>
<text text-anchor="middle" x="1512" y="-61" font-family="Helvetica,sans-Serif" font-size="10.00">any</text>
</a>
</g>
</g>
<!-- Node18&#45;&gt;Node19 -->
<g id="edge19_Node000018_Node000019" class="edge">
<title>Node18&#45;&gt;Node19</title>
<g id="a_edge19_Node000018_Node000019"><a xlink:title=" ">
<path fill="none" stroke="#63b8ff" d="M1646.4,-110.06C1620.64,-101.85 1581.47,-89.27 1538.99,-75.12"/>
<polygon fill="#63b8ff" stroke="#63b8ff" points="1540.15,-71.82 1529.56,-71.97 1537.93,-78.46 1540.15,-71.82"/>
</a>
</g>
</g>
<!-- Node20 -->
<g id="Node000020" class="node">
<title>Node20</title>
<g id="a_Node000020"><a xlink:title=" ">
<polygon fill="#e0e0e0" stroke="#999999" points="1477.75,-74.5 1424.25,-74.5 1424.25,-55.25 1477.75,-55.25 1477.75,-74.5"/>
<text text-anchor="middle" x="1451" y="-61" font-family="Helvetica,sans-Serif" font-size="10.00">iostream</text>
</a>
</g>
</g>
<!-- Node18&#45;&gt;Node20 -->
<g id="edge21_Node000018_Node000020" class="edge">
<title>Node18&#45;&gt;Node20</title>
<g id="a_edge21_Node000018_Node000020"><a xlink:title=" ">
<path fill="none" stroke="#63b8ff" d="M1636.47,-110C1600.76,-101.55 1545.87,-88.53 1489.12,-75"/>
<polygon fill="#63b8ff" stroke="#63b8ff" points="1490.14,-71.65 1479.6,-72.73 1488.51,-78.46 1490.14,-71.65"/>
</a>
</g>
</g>
<!-- Node21 -->
<g id="Node000021" class="node">
<title>Node21</title>
<g id="a_Node000021"><a xlink:title=" ">
<polygon fill="#e0e0e0" stroke="#999999" points="1935.62,-74.5 1884.38,-74.5 1884.38,-55.25 1935.62,-55.25 1935.62,-74.5"/>
<text text-anchor="middle" x="1910" y="-61" font-family="Helvetica,sans-Serif" font-size="10.00">memory</text>
</a>
</g>
</g>
<!-- Node18&#45;&gt;Node21 -->
<g id="edge22_Node000018_Node000021" class="edge">
<title>Node18&#45;&gt;Node21</title>
<g id="a_edge22_Node000018_Node000021"><a xlink:title=" ">
<path fill="none" stroke="#63b8ff" d="M1714.36,-110.75C1752.65,-102.53 1812.72,-89.41 1873.15,-75.13"/>
<polygon fill="#63b8ff" stroke="#63b8ff" points="1873.64,-78.61 1882.56,-72.9 1872.02,-71.8 1873.64,-78.61"/>
</a>
</g>
</g>
<!-- Node22 -->
<g id="Node000022" class="node">
<title>Node22</title>
<g id="a_Node000022"><a xlink:title=" ">
<polygon fill="#e0e0e0" stroke="#999999" points="2036.38,-74.5 1953.62,-74.5 1953.62,-55.25 2036.38,-55.25 2036.38,-74.5"/>
<text text-anchor="middle" x="1995" y="-61" font-family="Helvetica,sans-Serif" font-size="10.00">unordered_map</text>
</a>
</g>
</g>
<!-- Node18&#45;&gt;Node22 -->
<g id="edge24_Node000018_Node000022" class="edge">
<title>Node18&#45;&gt;Node22</title>
<g id="a_edge24_Node000018_Node000022"><a xlink:title=" ">
<path fill="none" stroke="#63b8ff" d="M1714.36,-112.71C1764.79,-104.47 1855.21,-89.63 1942.13,-74.98"/>
<polygon fill="#63b8ff" stroke="#63b8ff" points="1942.49,-78.46 1951.77,-73.35 1941.33,-71.56 1942.49,-78.46"/>
</a>
</g>
</g>
<!-- Node23 -->
<g id="Node000023" class="node">
<title>Node23</title>
<g id="a_Node000023"><a xlink:title=" ">
<polygon fill="#e0e0e0" stroke="#999999" points="1866.75,-74.5 1789.25,-74.5 1789.25,-55.25 1866.75,-55.25 1866.75,-74.5"/>
<text text-anchor="middle" x="1828" y="-61" font-family="Helvetica,sans-Serif" font-size="10.00">unordered_set</text>
</a>
</g>
</g>
<!-- Node18&#45;&gt;Node23 -->
<g id="edge25_Node000018_Node000023" class="edge">
<title>Node18&#45;&gt;Node23</title>
<g id="a_edge25_Node000018_Node000023"><a xlink:title=" ">
<path fill="none" stroke="#63b8ff" d="M1700.95,-110.09C1725.79,-101.45 1763.5,-88.32 1791.38,-78.62"/>
<polygon fill="#63b8ff" stroke="#63b8ff" points="1792.19,-82.04 1800.49,-75.45 1789.89,-75.43 1792.19,-82.04"/>
</a>
</g>
</g>
<!-- Node24 -->
<g id="Node000024" class="node">
<title>Node24</title>
<g id="a_Node000024"><a xlink:title=" ">
<polygon fill="#e0e0e0" stroke="#999999" points="1700.5,-19.25 1657.5,-19.25 1657.5,0 1700.5,0 1700.5,-19.25"/>
<text text-anchor="middle" x="1679" y="-5.75" font-family="Helvetica,sans-Serif" font-size="10.00">vector</text>
</a>
</g>
</g>
<!-- Node18&#45;&gt;Node24 -->
<g id="edge26_Node000018_Node000024" class="edge">
<title>Node18&#45;&gt;Node24</title>
<g id="a_edge26_Node000018_Node000024"><a xlink:title=" ">
<path fill="none" stroke="#63b8ff" d="M1675.33,-110.25C1675.96,-93 1677.38,-54.58 1678.26,-30.81"/>
<polygon fill="#63b8ff" stroke="#63b8ff" points="1681.74,-31.26 1678.61,-21.14 1674.75,-31 1681.74,-31.26"/>
</a>
</g>
</g>
<!-- Node25 -->
<g id="Node000025" class="node">
<title>Node25</title>
<g id="a_Node000025"><a xlink:title=" ">
<polygon fill="#e0e0e0" stroke="#999999" points="1654.12,-74.5 1545.88,-74.5 1545.88,-55.25 1654.12,-55.25 1654.12,-74.5"/>
<text text-anchor="middle" x="1600" y="-61" font-family="Helvetica,sans-Serif" font-size="10.00">boost/multi_array.hpp</text>
</a>
</g>
</g>
<!-- Node18&#45;&gt;Node25 -->
<g id="edge27_Node000018_Node000025" class="edge">
<title>Node18&#45;&gt;Node25</title>
<g id="a_edge27_Node000018_Node000025"><a xlink:title=" ">
<path fill="none" stroke="#63b8ff" d="M1662.28,-110.09C1651.29,-102.29 1635.16,-90.84 1622.07,-81.54"/>
<polygon fill="#63b8ff" stroke="#63b8ff" points="1624.2,-78.76 1614.02,-75.83 1620.15,-84.47 1624.2,-78.76"/>
</a>
</g>
</g>
<!-- Node26 -->
<g id="Node000026" class="node">
<title>Node26</title>
<g id="a_Node000026"><a xlink:href="_types_8hpp.html" target="_top" xlink:title=" ">
<polygon fill="white" stroke="#666666" points="1771.5,-74.5 1710.5,-74.5 1710.5,-55.25 1771.5,-55.25 1771.5,-74.5"/>
<text text-anchor="middle" x="1741" y="-61" font-family="Helvetica,sans-Serif" font-size="10.00">Types.hpp</text>
</a>
</g>
</g>
<!-- Node18&#45;&gt;Node26 -->
<g id="edge28_Node000018_Node000026" class="edge">
<title>Node18&#45;&gt;Node26</title>
<g id="a_edge28_Node000018_Node000026"><a xlink:title=" ">
<path fill="none" stroke="#63b8ff" d="M1686.2,-110.09C1695.74,-102.4 1709.67,-91.15 1721.11,-81.93"/>
<polygon fill="#63b8ff" stroke="#63b8ff" points="1723.21,-84.73 1728.79,-75.73 1718.81,-79.28 1723.21,-84.73"/>
</a>
</g>
</g>
<!-- Node26&#45;&gt;Node24 -->
<g id="edge30_Node000026_Node000024" class="edge">
<title>Node26&#45;&gt;Node24</title>
<g id="a_edge30_Node000026_Node000024"><a xlink:title=" ">
<path fill="none" stroke="#63b8ff" d="M1730.48,-54.84C1721.61,-47.22 1708.69,-36.12 1698.01,-26.95"/>
<polygon fill="#63b8ff" stroke="#63b8ff" points="1700.38,-24.37 1690.51,-20.51 1695.82,-29.68 1700.38,-24.37"/>
</a>
</g>
</g>
<!-- Node27 -->
<g id="Node000027" class="node">
<title>Node27</title>
<g id="a_Node000027"><a xlink:title=" ">
<polygon fill="#e0e0e0" stroke="#999999" points="1767.12,-19.25 1718.88,-19.25 1718.88,0 1767.12,0 1767.12,-19.25"/>
<text text-anchor="middle" x="1743" y="-5.75" font-family="Helvetica,sans-Serif" font-size="10.00">cstddef</text>
</a>
</g>
</g>
<!-- Node26&#45;&gt;Node27 -->
<g id="edge29_Node000026_Node000027" class="edge">
<title>Node26&#45;&gt;Node27</title>
<g id="a_edge29_Node000026_Node000027"><a xlink:title=" ">
<path fill="none" stroke="#63b8ff" d="M1741.33,-55.08C1741.58,-48.49 1741.93,-39.21 1742.24,-30.82"/>
<polygon fill="#63b8ff" stroke="#63b8ff" points="1745.73,-31.25 1742.61,-21.12 1738.73,-30.98 1745.73,-31.25"/>
</a>
</g>
</g>
<!-- Node28&#45;&gt;Node2 -->
<g id="edge34_Node000028_Node000002" class="edge">
<title>Node28&#45;&gt;Node2</title>
<g id="a_edge34_Node000028_Node000002"><a xlink:title=" ">
<path fill="none" stroke="#63b8ff" d="M1451.68,-170.88C1443.31,-168.96 1434.37,-167.11 1426,-165.75 1013.87,-98.93 505.72,-73.03 374.89,-67.21"/>
<polygon fill="#63b8ff" stroke="#63b8ff" points="375.08,-63.72 364.93,-66.78 374.77,-70.71 375.08,-63.72"/>
</a>
</g>
</g>
<!-- Node28&#45;&gt;Node18 -->
<g id="edge37_Node000028_Node000018" class="edge">
<title>Node28&#45;&gt;Node18</title>
<g id="a_edge37_Node000028_Node000018"><a xlink:title=" ">
<path fill="none" stroke="#63b8ff" d="M1515.96,-170.93C1547.98,-160.9 1599.74,-144.69 1635.47,-133.5"/>
<polygon fill="#63b8ff" stroke="#63b8ff" points="1636.06,-136.99 1644.56,-130.66 1633.97,-130.31 1636.06,-136.99"/>
</a>
</g>
</g>
<!-- Node28&#45;&gt;Node20 -->
<g id="edge32_Node000028_Node000020" class="edge">
<title>Node28&#45;&gt;Node20</title>
<g id="a_edge32_Node000028_Node000020"><a xlink:title=" ">
<path fill="none" stroke="#63b8ff" d="M1484.15,-171.11C1480.95,-161.07 1475.58,-144.24 1471,-129.75 1466.33,-114.97 1461.1,-98.25 1457.16,-85.63"/>
<polygon fill="#63b8ff" stroke="#63b8ff" points="1460.61,-84.92 1454.29,-76.42 1453.92,-87.01 1460.61,-84.92"/>
</a>
</g>
</g>
<!-- Node28&#45;&gt;Node21 -->
<g id="edge33_Node000028_Node000021" class="edge">
<title>Node28&#45;&gt;Node21</title>
<g id="a_edge33_Node000028_Node000021"><a xlink:title=" ">
<path fill="none" stroke="#63b8ff" d="M1538.06,-170.95C1586.15,-162 1660.01,-147.15 1723,-129.75 1777.09,-114.81 1838.41,-92.88 1875.63,-79"/>
<polygon fill="#63b8ff" stroke="#63b8ff" points="1876.83,-82.29 1884.96,-75.5 1874.36,-75.73 1876.83,-82.29"/>
</a>
</g>
</g>
<!-- Node28&#45;&gt;Node26 -->
<g id="edge36_Node000028_Node000026" class="edge">
<title>Node28&#45;&gt;Node26</title>
<g id="a_edge36_Node000028_Node000026"><a xlink:title=" ">
<path fill="none" stroke="#63b8ff" d="M1504.01,-170.95C1530.13,-157.19 1581.84,-130.5 1627,-110.5 1653.05,-98.96 1683.08,-87.27 1705.78,-78.75"/>
<polygon fill="#63b8ff" stroke="#63b8ff" points="1706.72,-82.14 1714.86,-75.36 1704.27,-75.58 1706.72,-82.14"/>
</a>
</g>
</g>
<!-- Node29 -->
<g id="Node000029" class="node">
<title>Node29</title>
<g id="a_Node000029"><a xlink:title=" ">
<polygon fill="#e0e0e0" stroke="#999999" points="1423,-129.75 1353,-129.75 1353,-110.5 1423,-110.5 1423,-129.75"/>
<text text-anchor="middle" x="1388" y="-116.25" font-family="Helvetica,sans-Serif" font-size="10.00">H5Opublic.h</text>
</a>
</g>
</g>
<!-- Node28&#45;&gt;Node29 -->
<g id="edge35_Node000028_Node000029" class="edge">
<title>Node28&#45;&gt;Node29</title>
<g id="a_edge35_Node000028_Node000029"><a xlink:title=" ">
<path fill="none" stroke="#63b8ff" d="M1471.96,-171.06C1456.34,-161.76 1431.61,-147.06 1413.03,-136.01"/>
<polygon fill="#63b8ff" stroke="#63b8ff" points="1414.86,-133.03 1404.48,-130.92 1411.28,-139.04 1414.86,-133.03"/>
</a>
</g>
</g>
<!-- Node28&#45;&gt;Node30 -->
<g id="edge38_Node000028_Node000030" class="edge">
<title>Node28&#45;&gt;Node30</title>
<g id="a_edge38_Node000028_Node000030"><a xlink:title=" ">
<path fill="none" stroke="#63b8ff" d="M1491.86,-171.06C1496.32,-162.85 1503.08,-150.41 1508.74,-140"/>
<polygon fill="#63b8ff" stroke="#63b8ff" points="1511.67,-141.94 1513.37,-131.48 1505.52,-138.6 1511.67,-141.94"/>
</a>
</g>
</g>
<!-- Node30&#45;&gt;Node2 -->
<g id="edge43_Node000030_Node000002" class="edge">
<title>Node30&#45;&gt;Node2</title>
<g id="a_edge43_Node000030_Node000002"><a xlink:title=" ">
<path fill="none" stroke="#63b8ff" d="M1479.19,-114.69C1464.39,-113.17 1447.44,-111.58 1432,-110.5 1014.62,-81.28 505.81,-69.25 374.9,-66.51"/>
<polygon fill="#63b8ff" stroke="#63b8ff" points="375.01,-63.01 364.94,-66.3 374.87,-70.01 375.01,-63.01"/>
</a>
</g>
</g>
<!-- Node30&#45;&gt;Node7 -->
<g id="edge40_Node000030_Node000007" class="edge">
<title>Node30&#45;&gt;Node7</title>
<g id="a_edge40_Node000030_Node000007"><a xlink:title=" ">
<path fill="none" stroke="#63b8ff" d="M1489.48,-110.09C1458.78,-100.7 1410.79,-86.01 1378.64,-76.17"/>
<polygon fill="#63b8ff" stroke="#63b8ff" points="1380.01,-72.93 1369.43,-73.35 1377.96,-79.62 1380.01,-72.93"/>
</a>
</g>
</g>
<!-- Node30&#45;&gt;Node19 -->
<g id="edge39_Node000030_Node000019" class="edge">
<title>Node30&#45;&gt;Node19</title>
<g id="a_edge39_Node000030_Node000019"><a xlink:title=" ">
<path fill="none" stroke="#63b8ff" d="M1517.84,-110.33C1516.98,-103.74 1515.76,-94.46 1514.66,-86.07"/>
<polygon fill="#63b8ff" stroke="#63b8ff" points="1518.15,-85.82 1513.38,-76.36 1511.21,-86.73 1518.15,-85.82"/>
</a>
</g>
</g>
<!-- Node30&#45;&gt;Node20 -->
<g id="edge41_Node000030_Node000020" class="edge">
<title>Node30&#45;&gt;Node20</title>
<g id="a_edge41_Node000030_Node000020"><a xlink:title=" ">
<path fill="none" stroke="#63b8ff" d="M1507.46,-110.09C1497.54,-102.32 1482.99,-90.92 1471.14,-81.65"/>
<polygon fill="#63b8ff" stroke="#63b8ff" points="1473.59,-79.12 1463.56,-75.71 1469.27,-84.63 1473.59,-79.12"/>
</a>
</g>
</g>
<!-- Node30&#45;&gt;Node21 -->
<g id="edge42_Node000030_Node000021" class="edge">
<title>Node30&#45;&gt;Node21</title>
<g id="a_edge42_Node000030_Node000021"><a xlink:title=" ">
<path fill="none" stroke="#63b8ff" d="M1558.87,-115.77C1623.1,-110.01 1753.62,-96.86 1872.94,-74.89"/>
<polygon fill="#63b8ff" stroke="#63b8ff" points="1873.41,-78.36 1882.6,-73.08 1872.12,-71.48 1873.41,-78.36"/>
</a>
</g>
</g>
<!-- Node30&#45;&gt;Node24 -->
<g id="edge45_Node000030_Node000024" class="edge">
<title>Node30&#45;&gt;Node24</title>
<g id="a_edge45_Node000030_Node000024"><a xlink:title=" ">
<path fill="none" stroke="#63b8ff" d="M1479.32,-110.5C1441.26,-100.43 1392.64,-81.71 1415,-55.25 1444.17,-20.73 1581.37,-12.9 1645.63,-11.14"/>
<polygon fill="#63b8ff" stroke="#63b8ff" points="1645.67,-14.64 1655.59,-10.9 1645.51,-7.64 1645.67,-14.64"/>
</a>
</g>
</g>
<!-- Node30&#45;&gt;Node25 -->
<g id="edge46_Node000030_Node000025" class="edge">
<title>Node30&#45;&gt;Node25</title>
<g id="a_edge46_Node000030_Node000025"><a xlink:title=" ">
<path fill="none" stroke="#63b8ff" d="M1532.74,-110.09C1544.73,-102.21 1562.37,-90.61 1576.58,-81.27"/>
<polygon fill="#63b8ff" stroke="#63b8ff" points="1578.49,-84.2 1584.93,-75.78 1574.65,-78.35 1578.49,-84.2"/>
</a>
</g>
</g>
<!-- Node30&#45;&gt;Node26 -->
<g id="edge47_Node000030_Node000026" class="edge">
<title>Node30&#45;&gt;Node26</title>
<g id="a_edge47_Node000030_Node000026"><a xlink:title=" ">
<path fill="none" stroke="#63b8ff" d="M1556.91,-110.03C1596.42,-100.56 1658.16,-85.75 1699.09,-75.93"/>
<polygon fill="#63b8ff" stroke="#63b8ff" points="1699.67,-79.39 1708.58,-73.65 1698.04,-72.58 1699.67,-79.39"/>
</a>
</g>
</g>
<!-- Node31 -->
<g id="Node000031" class="node">
<title>Node31</title>
<g id="a_Node000031"><a xlink:title=" ">
<polygon fill="#e0e0e0" stroke="#999999" points="1304,-74.5 1246,-74.5 1246,-55.25 1304,-55.25 1304,-74.5"/>
<text text-anchor="middle" x="1275" y="-61" font-family="Helvetica,sans-Serif" font-size="10.00">typeindex</text>
</a>
</g>
</g>
<!-- Node30&#45;&gt;Node31 -->
<g id="edge44_Node000030_Node000031" class="edge">
<title>Node30&#45;&gt;Node31</title>
<g id="a_edge44_Node000030_Node000031"><a xlink:title=" ">
<path fill="none" stroke="#63b8ff" d="M1479.1,-110.6C1439.85,-102.19 1377.94,-88.86 1315.32,-75"/>
<polygon fill="#63b8ff" stroke="#63b8ff" points="1316.45,-71.66 1305.93,-72.92 1314.94,-78.5 1316.45,-71.66"/>
</a>
</g>
</g>
<!-- Node32&#45;&gt;Node18 -->
<g id="edge51_Node000032_Node000018" class="edge">
<title>Node32&#45;&gt;Node18</title>
<g id="a_edge51_Node000032_Node000018"><a xlink:title=" ">
<path fill="none" stroke="#63b8ff" d="M1844.02,-342.28C1845.09,-329.51 1845.66,-305.76 1838,-287.5 1808.99,-218.36 1736.49,-162.09 1698.72,-136.32"/>
<polygon fill="#63b8ff" stroke="#63b8ff" points="1701,-133.64 1690.74,-131 1697.11,-139.46 1701,-133.64"/>
</a>
</g>
</g>
<!-- Node32&#45;&gt;Node21 -->
<g id="edge50_Node000032_Node000021" class="edge">
<title>Node32&#45;&gt;Node21</title>
<g id="a_edge50_Node000032_Node000021"><a xlink:title=" ">
<path fill="none" stroke="#63b8ff" d="M1845.49,-342.51C1847.99,-333.52 1851.9,-319.21 1855,-306.75 1875.3,-225.06 1896.8,-127.08 1905.73,-85.77"/>
<polygon fill="#63b8ff" stroke="#63b8ff" points="1909.12,-86.65 1907.8,-76.13 1902.28,-85.17 1909.12,-86.65"/>
</a>
</g>
</g>
<!-- Node33 -->
<g id="Node000033" class="node">
<title>Node33</title>
<g id="a_Node000033"><a xlink:href="_registered_type_8hpp.html" target="_top" xlink:title=" ">
<polygon fill="white" stroke="#666666" points="1829,-306.75 1705,-306.75 1705,-287.5 1829,-287.5 1829,-306.75"/>
<text text-anchor="middle" x="1767" y="-293.25" font-family="Helvetica,sans-Serif" font-size="10.00">nwb/RegisteredType.hpp</text>
</a>
</g>
</g>
<!-- Node32&#45;&gt;Node33 -->
<g id="edge52_Node000032_Node000033" class="edge">
<title>Node32&#45;&gt;Node33</title>
<g id="a_edge52_Node000032_Node000033"><a xlink:title=" ">
<path fill="none" stroke="#63b8ff" d="M1830.11,-342.34C1818.97,-334.54 1802.63,-323.09 1789.36,-313.79"/>
<polygon fill="#63b8ff" stroke="#63b8ff" points="1791.39,-310.94 1781.2,-308.07 1787.38,-316.68 1791.39,-310.94"/>
</a>
</g>
</g>
<!-- Node33&#45;&gt;Node2 -->
<g id="edge56_Node000033_Node000002" class="edge">
<title>Node33&#45;&gt;Node2</title>
<g id="a_edge56_Node000033_Node000002"><a xlink:title=" ">
<path fill="none" stroke="#63b8ff" d="M1704.67,-294.81C1406.05,-288.21 133.92,-256.64 77,-196.25 52.68,-170.45 103.34,-113.17 107,-110.5 139.17,-87.04 254.69,-73.75 311.29,-68.51"/>
<polygon fill="#63b8ff" stroke="#63b8ff" points="311.59,-72 321.24,-67.62 310.96,-65.02 311.59,-72"/>
</a>
</g>
</g>
<!-- Node33&#45;&gt;Node3 -->
<g id="edge60_Node000033_Node000003" class="edge">
<title>Node33&#45;&gt;Node3</title>
<g id="a_edge60_Node000033_Node000003"><a xlink:title=" ">
<path fill="none" stroke="#63b8ff" d="M1704.8,-291.21C1568.02,-280.4 1244.38,-254.83 1132.14,-245.97"/>
<polygon fill="#63b8ff" stroke="#63b8ff" points="1132.48,-242.48 1122.24,-245.19 1131.93,-249.46 1132.48,-242.48"/>
</a>
</g>
</g>
<!-- Node33&#45;&gt;Node18 -->
<g id="edge61_Node000033_Node000018" class="edge">
<title>Node33&#45;&gt;Node18</title>
<g id="a_edge61_Node000033_Node000018"><a xlink:title=" ">
<path fill="none" stroke="#63b8ff" d="M1765.2,-287.15C1762.48,-274.51 1756.68,-250.92 1748,-232.25 1731.69,-197.17 1705.45,-160.4 1689.27,-139.18"/>
<polygon fill="#63b8ff" stroke="#63b8ff" points="1692.05,-137.05 1683.15,-131.29 1686.52,-141.34 1692.05,-137.05"/>
</a>
</g>
</g>
<!-- Node33&#45;&gt;Node21 -->
<g id="edge55_Node000033_Node000021" class="edge">
<title>Node33&#45;&gt;Node21</title>
<g id="a_edge55_Node000033_Node000021"><a xlink:title=" ">
<path fill="none" stroke="#63b8ff" d="M1773.1,-287.31C1779.24,-278.37 1788.95,-264.08 1797,-251.5 1835.56,-191.26 1878.97,-118.45 1898.91,-84.72"/>
<polygon fill="#63b8ff" stroke="#63b8ff" points="1901.9,-86.55 1903.96,-76.15 1895.87,-82.99 1901.9,-86.55"/>
</a>
</g>
</g>
<!-- Node33&#45;&gt;Node22 -->
<g id="edge57_Node000033_Node000022" class="edge">
<title>Node33&#45;&gt;Node22</title>
<g id="a_edge57_Node000033_Node000022"><a xlink:title=" ">
<path fill="none" stroke="#63b8ff" d="M1777.31,-287.08C1787.35,-278.2 1802.96,-264.17 1816,-251.5 1877.92,-191.32 1948.14,-116.46 1979.01,-83.19"/>
<polygon fill="#63b8ff" stroke="#63b8ff" points="1981.38,-85.79 1985.6,-76.07 1976.24,-81.03 1981.38,-85.79"/>
</a>
</g>
</g>
<!-- Node33&#45;&gt;Node23 -->
<g id="edge58_Node000033_Node000023" class="edge">
<title>Node33&#45;&gt;Node23</title>
<g id="a_edge58_Node000033_Node000023"><a xlink:title=" ">
<path fill="none" stroke="#63b8ff" d="M1769.94,-287.28C1772.88,-278.31 1777.46,-264 1781,-251.5 1797.95,-191.66 1815.23,-120.14 1823.3,-85.97"/>
<polygon fill="#63b8ff" stroke="#63b8ff" points="1826.7,-86.82 1825.58,-76.28 1819.88,-85.22 1826.7,-86.82"/>
</a>
</g>
</g>
<!-- Node33&#45;&gt;Node26 -->
<g id="edge59_Node000033_Node000026" class="edge">
<title>Node33&#45;&gt;Node26</title>
<g id="a_edge59_Node000033_Node000026"><a xlink:title=" ">
<path fill="none" stroke="#63b8ff" d="M1767.24,-287.01C1767.48,-274.6 1767.61,-251.7 1766,-232.25 1761.6,-179.03 1750.74,-116.98 1744.88,-85.85"/>
<polygon fill="#63b8ff" stroke="#63b8ff" points="1748.38,-85.49 1743.06,-76.33 1741.5,-86.81 1748.38,-85.49"/>
</a>
</g>
</g>
<!-- Node33&#45;&gt;Node30 -->
<g id="edge62_Node000033_Node000030" class="edge">
<title>Node33&#45;&gt;Node30</title>
<g id="a_edge62_Node000033_Node000030"><a xlink:title=" ">
<path fill="none" stroke="#63b8ff" d="M1704.82,-287.59C1661.15,-280.27 1607.96,-268.24 1593,-251.5 1567.35,-222.81 1600.88,-198.7 1581,-165.75 1573.4,-153.15 1560.74,-143.09 1548.84,-135.74"/>
<polygon fill="#63b8ff" stroke="#63b8ff" points="1550.88,-132.87 1540.46,-130.95 1547.41,-138.95 1550.88,-132.87"/>
</a>
</g>
</g>
<!-- Node34 -->
<g id="Node000034" class="node">
<title>Node34</title>
<g id="a_Node000034"><a xlink:title=" ">
<polygon fill="#e0e0e0" stroke="#999999" points="1662.5,-251.5 1601.5,-251.5 1601.5,-232.25 1662.5,-232.25 1662.5,-251.5"/>
<text text-anchor="middle" x="1632" y="-238" font-family="Helvetica,sans-Serif" font-size="10.00">filesystem</text>
</a>
</g>
</g>
<!-- Node33&#45;&gt;Node34 -->
<g id="edge53_Node000033_Node000034" class="edge">
<title>Node33&#45;&gt;Node34</title>
<g id="a_edge53_Node000033_Node000034"><a xlink:title=" ">
<path fill="none" stroke="#63b8ff" d="M1744.1,-287.09C1722.57,-278.6 1690.09,-265.79 1665.62,-256.14"/>
<polygon fill="#63b8ff" stroke="#63b8ff" points="1667.01,-252.92 1656.42,-252.51 1664.44,-259.43 1667.01,-252.92"/>
</a>
</g>
</g>
<!-- Node35 -->
<g id="Node000035" class="node">
<title>Node35</title>
<g id="a_Node000035"><a xlink:title=" ">
<polygon fill="#e0e0e0" stroke="#999999" points="1739,-251.5 1681,-251.5 1681,-232.25 1739,-232.25 1739,-251.5"/>
<text text-anchor="middle" x="1710" y="-238" font-family="Helvetica,sans-Serif" font-size="10.00">functional</text>
</a>
</g>
</g>
<!-- Node33&#45;&gt;Node35 -->
<g id="edge54_Node000033_Node000035" class="edge">
<title>Node33&#45;&gt;Node35</title>
<g id="a_edge54_Node000033_Node000035"><a xlink:title=" ">
<path fill="none" stroke="#63b8ff" d="M1757.33,-287.09C1749.26,-279.55 1737.53,-268.6 1727.78,-259.48"/>
<polygon fill="#63b8ff" stroke="#63b8ff" points="1730.33,-257.08 1720.63,-252.81 1725.55,-262.19 1730.33,-257.08"/>
</a>
</g>
</g>
</g>
</svg>

<g id="navigator" transform="translate(0 0)" fill="#404254">
  <rect fill="#f2f5e9" fill-opacity="0.5" stroke="#606060" stroke-width=".5" x="0" y="0" width="60" height="60"/>
  <use id="zoomplus" xlink:href="#zoomPlus" x="17" y="9" onmousedown="handleZoom(evt,'in')"/>
  <use id="zoomminus" xlink:href="#zoomMin" x="42" y="9" onmousedown="handleZoom(evt,'out')"/>
  <use id="reset" xlink:href="#resetDef" x="30" y="36" onmousedown="handleReset()"/>
   <use id="arrowup" xlink:href="#arrowUp" x="0" y="0" onmousedown="handlePan(0,-1)"/>
  <use id="arrowright" xlink:href="#arrowRight" x="0" y="0" onmousedown="handlePan(1,0)"/>
  <use id="arrowdown" xlink:href="#arrowDown" x="0" y="0" onmousedown="handlePan(0,1)"/>
  <use id="arrowleft" xlink:href="#arrowLeft" x="0" y="0" onmousedown="handlePan(-1,0)"/>
</g>
<svg viewBox="0 0 15 15" width="100%" height="30px" preserveAspectRatio="xMaxYMin meet">
 <g id="arrow_out" transform="scale(0.3 0.3)">
  <a xlink:href="_vector_data_8hpp__incl_org.svg" target="_base">
   <rect id="button" ry="5" rx="5" y="6" x="6" height="38" width="38"
        fill="#f2f5e9" fill-opacity="0.5" stroke="#606060" stroke-width="1.0"/>
   <path id="arrow"
     d="M 11.500037,31.436501 C 11.940474,20.09759 22.043105,11.32322 32.158766,21.979434 L 37.068811,17.246167 C 37.068811,17.246167 37.088388,32 37.088388,32 L 22.160133,31.978069 C 22.160133,31.978069 26.997745,27.140456 26.997745,27.140456 C 18.528582,18.264221 13.291696,25.230495 11.500037,31.436501 z"
     style="fill:#404040;"/>
  </a>
 </g>
</svg>

<style type='text/css'>
<![CDATA[
[data-mouse-over-selected='false'] { opacity: 0.7; }
[data-mouse-over-selected='true']  { opacity: 1.0; }
]]>
</style>
<script type="application/ecmascript"><![CDATA[
document.addEventListener('DOMContentLoaded', (event) => {
  highlightEdges();
  highlightAdjacentNodes();
});
]]></script>
</svg>
