<?xml version="1.0" encoding="UTF-8" standalone="no"?>
<!DOCTYPE svg PUBLIC "-//W3C//DTD SVG 1.1//EN"
 "http://www.w3.org/Graphics/SVG/1.1/DTD/svg11.dtd">
<!-- Generated by graphviz version 12.0.0 (20240704.0754)
 -->
<!-- Title: AQNWB::NWB::Container Pages: 1 -->
<svg width="529pt" height="138pt"
 viewBox="0.00 0.00 528.50 138.25" xmlns="http://www.w3.org/2000/svg" xmlns:xlink="http://www.w3.org/1999/xlink">
<g id="graph0" class="graph" transform="scale(1 1) rotate(0) translate(4 134.25)">
<title>AQNWB::NWB::Container</title>
<!-- Node1 -->
<g id="Node000001" class="node">
<title>Node1</title>
<g id="a_Node000001"><a xlink:title="Abstract data type for a group storing collections of data and metadata.">
<polygon fill="#999999" stroke="#666666" points="132.25,-74.25 0,-74.25 0,-55 132.25,-55 132.25,-74.25"/>
<text text-anchor="middle" x="66.12" y="-60.75" font-family="Helvetica,sans-Serif" font-size="10.00">AQNWB::NWB::Container</text>
</a>
</g>
</g>
<!-- Node2 -->
<g id="Node000002" class="node">
<title>Node2</title>
<g id="a_Node000002"><a xlink:href="class_a_q_n_w_b_1_1_n_w_b_1_1_device.html" target="_top" xlink:title="Metadata about a data acquisition device, e.g., recording system, electrode, microscope.">
<polygon fill="white" stroke="#666666" points="307.62,-130.25 186.62,-130.25 186.62,-111 307.62,-111 307.62,-130.25"/>
<text text-anchor="middle" x="247.12" y="-116.75" font-family="Helvetica,sans-Serif" font-size="10.00">AQNWB::NWB::Device</text>
</a>
</g>
</g>
<!-- Node1&#45;&gt;Node2 -->
<g id="edge1_Node000001_Node000002" class="edge">
<title>Node1&#45;&gt;Node2</title>
<g id="a_edge1_Node000001_Node000002"><a xlink:title=" ">
<path fill="none" stroke="#63b8ff" d="M101.38,-78.79C120.79,-86.48 145.63,-95.79 168.25,-102.62 177.81,-105.51 188.16,-108.2 198.09,-110.57"/>
<polygon fill="#63b8ff" stroke="#63b8ff" points="102.92,-75.63 92.33,-75.16 100.31,-82.13 102.92,-75.63"/>
</a>
</g>
</g>
<!-- Node3 -->
<g id="Node000003" class="node">
<title>Node3</title>
<g id="a_Node000003"><a xlink:href="class_a_q_n_w_b_1_1_n_w_b_1_1_dynamic_table.html" target="_top" xlink:title="Represents a group containing multiple datasets that are aligned on the first dimension.">
<polygon fill="white" stroke="#666666" points="323.38,-93.25 170.88,-93.25 170.88,-74 323.38,-74 323.38,-93.25"/>
<text text-anchor="middle" x="247.12" y="-79.75" font-family="Helvetica,sans-Serif" font-size="10.00">AQNWB::NWB::DynamicTable</text>
</a>
</g>
</g>
<!-- Node1&#45;&gt;Node3 -->
<g id="edge2_Node000001_Node000003" class="edge">
<title>Node1&#45;&gt;Node3</title>
<g id="a_edge2_Node000001_Node000003"><a xlink:title=" ">
<path fill="none" stroke="#63b8ff" d="M143.69,-72.75C152.61,-73.7 161.7,-74.66 170.61,-75.61"/>
<polygon fill="#63b8ff" stroke="#63b8ff" points="144.33,-69.3 134.01,-71.72 143.59,-76.26 144.33,-69.3"/>
</a>
</g>
</g>
<!-- Node5 -->
<g id="Node000005" class="node">
<title>Node5</title>
<g id="a_Node000005"><a xlink:href="class_a_q_n_w_b_1_1_n_w_b_1_1_electrode_group.html" target="_top" xlink:title="The ElectrodeGroup class represents a physical grouping of electrodes, e.g. a shank of an array.">
<polygon fill="white" stroke="#666666" points="326,-56.25 168.25,-56.25 168.25,-37 326,-37 326,-56.25"/>
<text text-anchor="middle" x="247.12" y="-42.75" font-family="Helvetica,sans-Serif" font-size="10.00">AQNWB::NWB::ElectrodeGroup</text>
</a>
</g>
</g>
<!-- Node1&#45;&gt;Node5 -->
<g id="edge4_Node000001_Node000005" class="edge">
<title>Node1&#45;&gt;Node5</title>
<g id="a_edge4_Node000001_Node000005"><a xlink:title=" ">
<path fill="none" stroke="#63b8ff" d="M143.69,-56.93C151.69,-56.12 159.83,-55.3 167.84,-54.5"/>
<polygon fill="#63b8ff" stroke="#63b8ff" points="143.61,-53.42 134.01,-57.9 144.31,-60.38 143.61,-53.42"/>
</a>
</g>
</g>
<!-- Node6 -->
<g id="Node000006" class="node">
<title>Node6</title>
<g id="a_Node000006"><a xlink:href="class_a_q_n_w_b_1_1_n_w_b_1_1_time_series.html" target="_top" xlink:title="General purpose time series.">
<polygon fill="white" stroke="#666666" points="317,-19.25 177.25,-19.25 177.25,0 317,0 317,-19.25"/>
<text text-anchor="middle" x="247.12" y="-5.75" font-family="Helvetica,sans-Serif" font-size="10.00">AQNWB::NWB::TimeSeries</text>
</a>
</g>
</g>
<!-- Node1&#45;&gt;Node6 -->
<g id="edge5_Node000001_Node000006" class="edge">
<title>Node1&#45;&gt;Node6</title>
<g id="a_edge5_Node000001_Node000006"><a xlink:title=" ">
<path fill="none" stroke="#63b8ff" d="M102.46,-50.48C121.72,-43.08 146.08,-34.22 168.25,-27.62 177.83,-24.78 188.18,-22.11 198.11,-19.74"/>
<polygon fill="#63b8ff" stroke="#63b8ff" points="101.23,-47.2 93.18,-54.09 103.77,-53.72 101.23,-47.2"/>
</a>
</g>
</g>
<!-- Node4 -->
<g id="Node000004" class="node">
<title>Node4</title>
<g id="a_Node000004"><a xlink:href="class_a_q_n_w_b_1_1_n_w_b_1_1_electrode_table.html" target="_top" xlink:title="Represents a table containing electrode metadata.">
<polygon fill="white" stroke="#666666" points="518.62,-93.25 363.88,-93.25 363.88,-74 518.62,-74 518.62,-93.25"/>
<text text-anchor="middle" x="441.25" y="-79.75" font-family="Helvetica,sans-Serif" font-size="10.00">AQNWB::NWB::ElectrodeTable</text>
</a>
</g>
</g>
<!-- Node3&#45;&gt;Node4 -->
<g id="edge3_Node000003_Node000004" class="edge">
<title>Node3&#45;&gt;Node4</title>
<g id="a_edge3_Node000003_Node000004"><a xlink:title=" ">
<path fill="none" stroke="#63b8ff" d="M335.18,-83.62C344.59,-83.62 354.12,-83.62 363.4,-83.62"/>
<polygon fill="#63b8ff" stroke="#63b8ff" points="335.3,-80.13 325.3,-83.63 335.3,-87.13 335.3,-80.13"/>
</a>
</g>
</g>
<!-- Node7 -->
<g id="Node000007" class="node">
<title>Node7</title>
<g id="a_Node000007"><a xlink:href="class_a_q_n_w_b_1_1_n_w_b_1_1_electrical_series.html" target="_top" xlink:title="General purpose time series.">
<polygon fill="white" stroke="#666666" points="520.5,-19.25 362,-19.25 362,0 520.5,0 520.5,-19.25"/>
<text text-anchor="middle" x="441.25" y="-5.75" font-family="Helvetica,sans-Serif" font-size="10.00">AQNWB::NWB::ElectricalSeries</text>
</a>
</g>
</g>
<!-- Node6&#45;&gt;Node7 -->
<g id="edge6_Node000006_Node000007" class="edge">
<title>Node6&#45;&gt;Node7</title>
<g id="a_edge6_Node000006_Node000007"><a xlink:title=" ">
<path fill="none" stroke="#63b8ff" d="M328.69,-9.62C339.56,-9.62 350.7,-9.62 361.53,-9.62"/>
<polygon fill="#63b8ff" stroke="#63b8ff" points="329,-6.13 319,-9.63 329,-13.13 329,-6.13"/>
</a>
</g>
</g>
</g>
</svg>
