<?xml version="1.0" encoding="UTF-8" standalone="no"?>
<!DOCTYPE svg PUBLIC "-//W3C//DTD SVG 1.1//EN"
 "http://www.w3.org/Graphics/SVG/1.1/DTD/svg11.dtd">
<!-- Generated by graphviz version 13.1.2 (20250808.2320)
 -->
<!-- Title: AQNWB::NWB::ElectrodeTable::REGISTER_SUBCLASS_WITH_TYPENAME Pages: 1 -->
<!--zoomable 438 -->

<svg id="main" version="1.1" xmlns="http://www.w3.org/2000/svg" xmlns:xlink="http://www.w3.org/1999/xlink" xml:space="preserve" onload="init(evt)">

<style type="text/css"><![CDATA[
.node, .edge {opacity: 0.7;}
.node.selected, .edge.selected {opacity: 1;}
.edge:hover path { stroke: red; }
.edge:hover polygon { stroke: red; fill: red; }
]]></style>

<defs>
  <circle id="rim" cx="0" cy="0" r="7"/>
  <circle id="rim2" cx="0" cy="0" r="3.5"/>
  <g id="zoomPlus">
    <use xlink:href="#rim" fill="#404040"><set attributeName="fill" to="#808080" begin="zoomplus.mouseover" end="zoomplus.mouseout"/></use>
    <path d="M-4,0h8M0,-4v8" fill="none" stroke="white" stroke-width="1.5" pointer-events="none"/>
  </g>
  <g id="zoomMin">
    <use xlink:href="#rim" fill="#404040"><set attributeName="fill" to="#808080" begin="zoomminus.mouseover" end="zoomminus.mouseout"/></use>
    <path d="M-4,0h8" fill="none" stroke="white" stroke-width="1.5" pointer-events="none"/>
  </g>
  <g id="arrowUp" transform="translate(30 24)">
    <use xlink:href="#rim"/>
    <path pointer-events="none" fill="none" stroke="white" stroke-width="1.5" d="M0,-3.0v7 M-2.5,-0.5L0,-3.0L2.5,-0.5"/>
  </g>
  <g id="arrowRight" transform="rotate(90) translate(36 -43)">
    <use xlink:href="#rim"/>
    <path pointer-events="none" fill="none" stroke="white" stroke-width="1.5" d="M0,-3.0v7 M-2.5,-0.5L0,-3.0L2.5,-0.5"/>
  </g>
  <g id="arrowDown" transform="rotate(180) translate(-30 -48)">
    <use xlink:href="#rim"/>
    <path pointer-events="none" fill="none" stroke="white" stroke-width="1.5" d="M0,-3.0v7 M-2.5,-0.5L0,-3.0L2.5,-0.5"/>
  </g>
  <g id="arrowLeft" transform="rotate(270) translate(-36 17)">
    <use xlink:href="#rim"/>
    <path pointer-events="none" fill="none" stroke="white" stroke-width="1.5" d="M0,-3.0v7 M-2.5,-0.5L0,-3.0L2.5,-0.5"/>
  </g>
  <g id="resetDef">
    <use xlink:href="#rim2" fill="#404040"><set attributeName="fill" to="#808080" begin="reset.mouseover" end="reset.mouseout"/></use>
  </g>
</defs>
<script type="application/ecmascript">
var viewWidth = 941;
var viewHeight = 438;
var sectionId = 'dynsection-13';
</script>
<script type="application/ecmascript" xlink:href="svg.min.js"/>
<svg id="graph" class="graph">
<g id="viewport">
<title>AQNWB::NWB::ElectrodeTable::REGISTER_SUBCLASS_WITH_TYPENAME</title>
<!-- Node1 -->
<g id="Node000001" class="node">
<title>Node1</title>
<g id="a_Node000001"><a xlink:title=" ">
<polygon fill="#999999" stroke="#666666" points="164.5,-192.12 0,-192.12 0,-150.38 164.5,-150.38 164.5,-192.12"/>
<text xml:space="preserve" text-anchor="start" x="8" y="-178.62" font-family="Helvetica,sans-Serif" font-size="10.00">AQNWB::NWB::ElectrodeTable</text>
<text xml:space="preserve" text-anchor="start" x="8" y="-167.38" font-family="Helvetica,sans-Serif" font-size="10.00">::REGISTER_SUBCLASS_WITH</text>
<text xml:space="preserve" text-anchor="middle" x="82.25" y="-156.12" font-family="Helvetica,sans-Serif" font-size="10.00">_TYPENAME</text>
</a>
</g>
</g>
<!-- Node2 -->
<g id="Node000002" class="node">
<title>Node2</title>
<g id="a_Node000002"><a xlink:href="class_a_q_n_w_b_1_1_n_w_b_1_1_electrode_table.html#a41f29ce1a76fd932eac4a03e67d8268f" target="_top" xlink:title="Sets up the ElectrodeTable by adding electrodes and their metadata.">
<polygon fill="white" stroke="#666666" points="355.25,-162.5 200.5,-162.5 200.5,-132 355.25,-132 355.25,-162.5"/>
<text xml:space="preserve" text-anchor="start" x="208.5" y="-149" font-family="Helvetica,sans-Serif" font-size="10.00">AQNWB::NWB::ElectrodeTable</text>
<text xml:space="preserve" text-anchor="middle" x="277.88" y="-137.75" font-family="Helvetica,sans-Serif" font-size="10.00">::addElectrodes</text>
</a>
</g>
</g>
<!-- Node1&#45;&gt;Node2 -->
<g id="edge1_Node000001_Node000002" class="edge">
<title>Node1&#45;&gt;Node2</title>
<g id="a_edge1_Node000001_Node000002"><a xlink:title=" ">
<path fill="none" stroke="#63b8ff" d="M164.8,-161.14C172.74,-160.16 180.82,-159.16 188.82,-158.16"/>
<polygon fill="#63b8ff" stroke="#63b8ff" points="189.05,-161.66 198.55,-156.96 188.19,-154.72 189.05,-161.66"/>
</a>
</g>
</g>
<!-- Node4 -->
<g id="Node000004" class="node">
<title>Node4</title>
<g id="a_Node000004"><a xlink:href="class_a_q_n_w_b_1_1_n_w_b_1_1_electrode_table.html#a0d66d1ec3b341bb3132be86279d9f4c6" target="_top" xlink:title="Constructor.">
<polygon fill="white" stroke="#666666" points="355.25,-368.5 200.5,-368.5 200.5,-338 355.25,-338 355.25,-368.5"/>
<text xml:space="preserve" text-anchor="start" x="208.5" y="-355" font-family="Helvetica,sans-Serif" font-size="10.00">AQNWB::NWB::ElectrodeTable</text>
<text xml:space="preserve" text-anchor="middle" x="277.88" y="-343.75" font-family="Helvetica,sans-Serif" font-size="10.00">::ElectrodeTable</text>
</a>
</g>
</g>
<!-- Node1&#45;&gt;Node4 -->
<g id="edge3_Node000001_Node000004" class="edge">
<title>Node1&#45;&gt;Node4</title>
<g id="a_edge3_Node000001_Node000004"><a xlink:title=" ">
<path fill="none" stroke="#63b8ff" d="M105.84,-192.48C142.47,-226.92 214.54,-294.66 252.37,-330.22"/>
<polygon fill="#63b8ff" stroke="#63b8ff" points="249.55,-332.37 259.23,-336.67 254.34,-327.27 249.55,-332.37"/>
</a>
</g>
</g>
<!-- Node8 -->
<g id="Node000008" class="node">
<title>Node8</title>
<g id="a_Node000008"><a xlink:href="class_a_q_n_w_b_1_1_n_w_b_1_1_electrode_table.html#a9247849ca572bc6cbad24526e44d932c" target="_top" xlink:title="Finalizes the ElectrodeTable.">
<polygon fill="white" stroke="#666666" points="355.25,-227.5 200.5,-227.5 200.5,-197 355.25,-197 355.25,-227.5"/>
<text xml:space="preserve" text-anchor="start" x="208.5" y="-214" font-family="Helvetica,sans-Serif" font-size="10.00">AQNWB::NWB::ElectrodeTable</text>
<text xml:space="preserve" text-anchor="middle" x="277.88" y="-202.75" font-family="Helvetica,sans-Serif" font-size="10.00">::finalize</text>
</a>
</g>
</g>
<!-- Node1&#45;&gt;Node8 -->
<g id="edge11_Node000001_Node000008" class="edge">
<title>Node1&#45;&gt;Node8</title>
<g id="a_edge11_Node000001_Node000008"><a xlink:title=" ">
<path fill="none" stroke="#63b8ff" d="M164.8,-188.52C173.6,-190.38 182.56,-192.28 191.4,-194.15"/>
<polygon fill="#63b8ff" stroke="#63b8ff" points="190.51,-197.54 201.02,-196.19 191.96,-190.69 190.51,-197.54"/>
</a>
</g>
</g>
<!-- Node13 -->
<g id="Node000013" class="node">
<title>Node13</title>
<g id="a_Node000013"><a xlink:href="class_a_q_n_w_b_1_1_n_w_b_1_1_electrode_table.html#ac46ab239eea41a7f432fcbb559fa1b98" target="_top" xlink:title="Initializes the ElectrodeTable.">
<polygon fill="white" stroke="#666666" points="355.25,-97.5 200.5,-97.5 200.5,-67 355.25,-67 355.25,-97.5"/>
<text xml:space="preserve" text-anchor="start" x="208.5" y="-84" font-family="Helvetica,sans-Serif" font-size="10.00">AQNWB::NWB::ElectrodeTable</text>
<text xml:space="preserve" text-anchor="middle" x="277.88" y="-72.75" font-family="Helvetica,sans-Serif" font-size="10.00">::initialize</text>
</a>
</g>
</g>
<!-- Node1&#45;&gt;Node13 -->
<g id="edge18_Node000001_Node000013" class="edge">
<title>Node1&#45;&gt;Node13</title>
<g id="a_edge18_Node000001_Node000013"><a xlink:title=" ">
<path fill="none" stroke="#63b8ff" d="M129.63,-149.93C160.75,-135.63 201.53,-116.88 232.27,-102.75"/>
<polygon fill="#63b8ff" stroke="#63b8ff" points="233.7,-105.95 241.32,-98.59 230.78,-99.59 233.7,-105.95"/>
</a>
</g>
</g>
<!-- Node3 -->
<g id="Node000003" class="node">
<title>Node3</title>
<g id="a_Node000003"><a xlink:href="namespace_a_q_n_w_b.html#a31983dbaaa85c2e355b9687fc0ef1881" target="_top" xlink:title="Merge two paths into a single path, handling extra trailing and starting &quot;/&quot;.">
<polygon fill="white" stroke="#666666" points="715.38,-270.88 602.62,-270.88 602.62,-251.62 715.38,-251.62 715.38,-270.88"/>
<text xml:space="preserve" text-anchor="middle" x="659" y="-257.38" font-family="Helvetica,sans-Serif" font-size="10.00">AQNWB::mergePaths</text>
</a>
</g>
</g>
<!-- Node2&#45;&gt;Node3 -->
<g id="edge2_Node000002_Node000003" class="edge">
<title>Node2&#45;&gt;Node3</title>
<g id="a_edge2_Node000002_Node000003"><a xlink:title=" ">
<path fill="none" stroke="#63b8ff" d="M338.14,-131.53C393.68,-119.95 477.8,-110.66 543.75,-139.25 592.15,-160.23 629.42,-212.93 646.96,-241.72"/>
<polygon fill="#63b8ff" stroke="#63b8ff" points="643.84,-243.33 651.93,-250.17 649.88,-239.77 643.84,-243.33"/>
</a>
</g>
</g>
<!-- Node4&#45;&gt;Node3 -->
<g id="edge10_Node000004_Node000003" class="edge">
<title>Node4&#45;&gt;Node3</title>
<g id="a_edge10_Node000004_Node000003"><a xlink:title=" ">
<path fill="none" stroke="#63b8ff" d="M355.58,-357.6C409.54,-358.31 482.7,-354.49 543.75,-334.25 580.15,-322.19 616.48,-295.92 638.1,-278.41"/>
<polygon fill="#63b8ff" stroke="#63b8ff" points="640.06,-281.33 645.52,-272.25 635.59,-275.94 640.06,-281.33"/>
</a>
</g>
</g>
<!-- Node4&#45;&gt;Node4 -->
<g id="edge9_Node000004_Node000004" class="edge">
<title>Node4&#45;&gt;Node4</title>
<g id="a_edge9_Node000004_Node000004"><a xlink:title=" ">
<path fill="none" stroke="#63b8ff" d="M244.27,-368.99C237.42,-378.06 248.62,-386.5 277.88,-386.5 293.88,-386.5 304.48,-383.97 309.68,-380.2"/>
<polygon fill="#63b8ff" stroke="#63b8ff" points="313.11,-380.91 311.24,-370.48 306.2,-379.8 313.11,-380.91"/>
</a>
</g>
</g>
<!-- Node5 -->
<g id="Node000005" class="node">
<title>Node5</title>
<g id="a_Node000005"><a xlink:href="class_a_q_n_w_b_1_1_n_w_b_1_1_dynamic_table.html#a6b2079337b08a6e265eeb6e39889e55b" target="_top" xlink:title="Constructor.">
<polygon fill="white" stroke="#666666" points="543.75,-411.5 391.25,-411.5 391.25,-381 543.75,-381 543.75,-411.5"/>
<text xml:space="preserve" text-anchor="start" x="399.25" y="-398" font-family="Helvetica,sans-Serif" font-size="10.00">AQNWB::NWB::DynamicTable</text>
<text xml:space="preserve" text-anchor="middle" x="467.5" y="-386.75" font-family="Helvetica,sans-Serif" font-size="10.00">::DynamicTable</text>
</a>
</g>
</g>
<!-- Node4&#45;&gt;Node5 -->
<g id="edge4_Node000004_Node000005" class="edge">
<title>Node4&#45;&gt;Node5</title>
<g id="a_edge4_Node000004_Node000005"><a xlink:title=" ">
<path fill="none" stroke="#63b8ff" d="M347.41,-368.96C360.25,-371.9 373.77,-375 386.91,-378.01"/>
<polygon fill="#63b8ff" stroke="#63b8ff" points="385.83,-381.35 396.36,-380.18 387.4,-374.53 385.83,-381.35"/>
</a>
</g>
</g>
<!-- Node5&#45;&gt;Node5 -->
<g id="edge8_Node000005_Node000005" class="edge">
<title>Node5&#45;&gt;Node5</title>
<g id="a_edge8_Node000005_Node000005"><a xlink:title=" ">
<path fill="none" stroke="#63b8ff" d="M433.9,-411.99C427.04,-421.06 438.24,-429.5 467.5,-429.5 483.5,-429.5 494.1,-426.97 499.3,-423.2"/>
<polygon fill="#63b8ff" stroke="#63b8ff" points="502.73,-423.91 500.86,-413.48 495.82,-422.8 502.73,-423.91"/>
</a>
</g>
</g>
<!-- Node6 -->
<g id="Node000006" class="node">
<title>Node6</title>
<g id="a_Node000006"><a xlink:href="class_a_q_n_w_b_1_1_n_w_b_1_1_container.html#a0ec16ae5d28267ea37464ffe2c2c34e5" target="_top" xlink:title="Constructor.">
<polygon fill="white" stroke="#666666" points="725.12,-411.5 592.88,-411.5 592.88,-381 725.12,-381 725.12,-411.5"/>
<text xml:space="preserve" text-anchor="start" x="600.88" y="-398" font-family="Helvetica,sans-Serif" font-size="10.00">AQNWB::NWB::Container</text>
<text xml:space="preserve" text-anchor="middle" x="659" y="-386.75" font-family="Helvetica,sans-Serif" font-size="10.00">::Container</text>
</a>
</g>
</g>
<!-- Node5&#45;&gt;Node6 -->
<g id="edge5_Node000005_Node000006" class="edge">
<title>Node5&#45;&gt;Node6</title>
<g id="a_edge5_Node000005_Node000006"><a xlink:title=" ">
<path fill="none" stroke="#63b8ff" d="M544.21,-396.25C556.32,-396.25 568.86,-396.25 581,-396.25"/>
<polygon fill="#63b8ff" stroke="#63b8ff" points="580.98,-399.75 590.98,-396.25 580.98,-392.75 580.98,-399.75"/>
</a>
</g>
</g>
<!-- Node6&#45;&gt;Node6 -->
<g id="edge6_Node000006_Node000006" class="edge">
<title>Node6&#45;&gt;Node6</title>
<g id="a_edge6_Node000006_Node000006"><a xlink:title=" ">
<path fill="none" stroke="#63b8ff" d="M625.07,-411.99C618.14,-421.06 629.45,-429.5 659,-429.5 675.16,-429.5 685.86,-426.97 691.11,-423.2"/>
<polygon fill="#63b8ff" stroke="#63b8ff" points="694.55,-423.91 692.69,-413.48 687.64,-422.79 694.55,-423.91"/>
</a>
</g>
</g>
<!-- Node7 -->
<g id="Node000007" class="node">
<title>Node7</title>
<g id="a_Node000007"><a xlink:href="class_a_q_n_w_b_1_1_n_w_b_1_1_registered_type.html#aa1e04074725b7331d725bbda8156bc2d" target="_top" xlink:title="Constructor.">
<polygon fill="white" stroke="#666666" points="932.75,-411.5 774.25,-411.5 774.25,-381 932.75,-381 932.75,-411.5"/>
<text xml:space="preserve" text-anchor="start" x="782.25" y="-398" font-family="Helvetica,sans-Serif" font-size="10.00">AQNWB::NWB::RegisteredType</text>
<text xml:space="preserve" text-anchor="middle" x="853.5" y="-386.75" font-family="Helvetica,sans-Serif" font-size="10.00">::RegisteredType</text>
</a>
</g>
</g>
<!-- Node6&#45;&gt;Node7 -->
<g id="edge7_Node000006_Node000007" class="edge">
<title>Node6&#45;&gt;Node7</title>
<g id="a_edge7_Node000006_Node000007"><a xlink:title=" ">
<path fill="none" stroke="#63b8ff" d="M725.44,-396.25C737.37,-396.25 750.01,-396.25 762.51,-396.25"/>
<polygon fill="#63b8ff" stroke="#63b8ff" points="762.41,-399.75 772.41,-396.25 762.41,-392.75 762.41,-399.75"/>
</a>
</g>
</g>
<!-- Node9 -->
<g id="Node000009" class="node">
<title>Node9</title>
<g id="a_Node000009"><a xlink:href="class_a_q_n_w_b_1_1_n_w_b_1_1_dynamic_table.html#a916169b9c8b324833861df2af1b59c3f" target="_top" xlink:title="Adds a column of vector string data to the table.">
<polygon fill="white" stroke="#666666" points="543.75,-227.5 391.25,-227.5 391.25,-197 543.75,-197 543.75,-227.5"/>
<text xml:space="preserve" text-anchor="start" x="399.25" y="-214" font-family="Helvetica,sans-Serif" font-size="10.00">AQNWB::NWB::DynamicTable</text>
<text xml:space="preserve" text-anchor="middle" x="467.5" y="-202.75" font-family="Helvetica,sans-Serif" font-size="10.00">::addColumn</text>
</a>
</g>
</g>
<!-- Node8&#45;&gt;Node9 -->
<g id="edge12_Node000008_Node000009" class="edge">
<title>Node8&#45;&gt;Node9</title>
<g id="a_edge12_Node000008_Node000009"><a xlink:title=" ">
<path fill="none" stroke="#63b8ff" d="M355.73,-212.25C363.64,-212.25 371.72,-212.25 379.73,-212.25"/>
<polygon fill="#63b8ff" stroke="#63b8ff" points="379.46,-215.75 389.46,-212.25 379.46,-208.75 379.46,-215.75"/>
</a>
</g>
</g>
<!-- Node10 -->
<g id="Node000010" class="node">
<title>Node10</title>
<g id="a_Node000010"><a xlink:href="class_a_q_n_w_b_1_1_n_w_b_1_1_dynamic_table.html#ab5d214fb6eb95bcaf0f4988b12e2b2db" target="_top" xlink:title="Adds a column of references to the table.">
<polygon fill="white" stroke="#666666" points="543.75,-276.5 391.25,-276.5 391.25,-246 543.75,-246 543.75,-276.5"/>
<text xml:space="preserve" text-anchor="start" x="399.25" y="-263" font-family="Helvetica,sans-Serif" font-size="10.00">AQNWB::NWB::DynamicTable</text>
<text xml:space="preserve" text-anchor="middle" x="467.5" y="-251.75" font-family="Helvetica,sans-Serif" font-size="10.00">::addReferenceColumn</text>
</a>
</g>
</g>
<!-- Node8&#45;&gt;Node10 -->
<g id="edge13_Node000008_Node000010" class="edge">
<title>Node8&#45;&gt;Node10</title>
<g id="a_edge13_Node000008_Node000010"><a xlink:title=" ">
<path fill="none" stroke="#63b8ff" d="M339.01,-227.96C356.94,-232.64 376.76,-237.81 395.32,-242.66"/>
<polygon fill="#63b8ff" stroke="#63b8ff" points="394.35,-246.03 404.91,-245.17 396.12,-239.25 394.35,-246.03"/>
</a>
</g>
</g>
<!-- Node11 -->
<g id="Node000011" class="node">
<title>Node11</title>
<g id="a_Node000011"><a xlink:href="class_a_q_n_w_b_1_1_n_w_b_1_1_dynamic_table.html#a73d77bda3d8c609a93a9a26296d36af9" target="_top" xlink:title="Finalizes writing the DynamicTable.">
<polygon fill="white" stroke="#666666" points="543.75,-178.5 391.25,-178.5 391.25,-148 543.75,-148 543.75,-178.5"/>
<text xml:space="preserve" text-anchor="start" x="399.25" y="-165" font-family="Helvetica,sans-Serif" font-size="10.00">AQNWB::NWB::DynamicTable</text>
<text xml:space="preserve" text-anchor="middle" x="467.5" y="-153.75" font-family="Helvetica,sans-Serif" font-size="10.00">::finalize</text>
</a>
</g>
</g>
<!-- Node8&#45;&gt;Node11 -->
<g id="edge15_Node000008_Node000011" class="edge">
<title>Node8&#45;&gt;Node11</title>
<g id="a_edge15_Node000008_Node000011"><a xlink:title=" ">
<path fill="none" stroke="#63b8ff" d="M339.01,-196.54C356.94,-191.86 376.76,-186.69 395.32,-181.84"/>
<polygon fill="#63b8ff" stroke="#63b8ff" points="396.12,-185.25 404.91,-179.33 394.35,-178.47 396.12,-185.25"/>
</a>
</g>
</g>
<!-- Node12 -->
<g id="Node000012" class="node">
<title>Node12</title>
<g id="a_Node000012"><a xlink:href="class_a_q_n_w_b_1_1_n_w_b_1_1_dynamic_table.html#a041703ef385d58d2ccc7dc613b4a7de7" target="_top" xlink:title="Adds a column of element identifiers to the table.">
<polygon fill="white" stroke="#666666" points="543.75,-325.5 391.25,-325.5 391.25,-295 543.75,-295 543.75,-325.5"/>
<text xml:space="preserve" text-anchor="start" x="399.25" y="-312" font-family="Helvetica,sans-Serif" font-size="10.00">AQNWB::NWB::DynamicTable</text>
<text xml:space="preserve" text-anchor="middle" x="467.5" y="-300.75" font-family="Helvetica,sans-Serif" font-size="10.00">::setRowIDs</text>
</a>
</g>
</g>
<!-- Node8&#45;&gt;Node12 -->
<g id="edge16_Node000008_Node000012" class="edge">
<title>Node8&#45;&gt;Node12</title>
<g id="a_edge16_Node000008_Node000012"><a xlink:title=" ">
<path fill="none" stroke="#63b8ff" d="M299.46,-227.94C321.31,-244.02 357.29,-268.91 391.25,-285.25 395.01,-287.06 398.93,-288.79 402.92,-290.43"/>
<polygon fill="#63b8ff" stroke="#63b8ff" points="401.6,-293.67 412.19,-294.03 404.14,-287.15 401.6,-293.67"/>
</a>
</g>
</g>
<!-- Node10&#45;&gt;Node3 -->
<g id="edge14_Node000010_Node000003" class="edge">
<title>Node10&#45;&gt;Node3</title>
<g id="a_edge14_Node000010_Node000003"><a xlink:title=" ">
<path fill="none" stroke="#63b8ff" d="M544.21,-261.25C559.66,-261.25 575.81,-261.25 590.92,-261.25"/>
<polygon fill="#63b8ff" stroke="#63b8ff" points="590.74,-264.75 600.74,-261.25 590.74,-257.75 590.74,-264.75"/>
</a>
</g>
</g>
<!-- Node12&#45;&gt;Node3 -->
<g id="edge17_Node000012_Node000003" class="edge">
<title>Node12&#45;&gt;Node3</title>
<g id="a_edge17_Node000012_Node000003"><a xlink:title=" ">
<path fill="none" stroke="#63b8ff" d="M529.24,-294.54C554.66,-287.97 583.85,-280.42 608,-274.18"/>
<polygon fill="#63b8ff" stroke="#63b8ff" points="608.79,-277.59 617.59,-271.7 607.04,-270.81 608.79,-277.59"/>
</a>
</g>
</g>
<!-- Node13&#45;&gt;Node3 -->
<g id="edge22_Node000013_Node000003" class="edge">
<title>Node13&#45;&gt;Node3</title>
<g id="a_edge22_Node000013_Node000003"><a xlink:title=" ">
<path fill="none" stroke="#63b8ff" d="M355.6,-77.16C411.24,-76.88 486.47,-83.79 543.75,-116.25 595.63,-145.65 632.45,-208.91 648.69,-241.28"/>
<polygon fill="#63b8ff" stroke="#63b8ff" points="645.4,-242.5 652.91,-249.97 651.7,-239.45 645.4,-242.5"/>
</a>
</g>
</g>
<!-- Node14 -->
<g id="Node000014" class="node">
<title>Node14</title>
<g id="a_Node000014"><a xlink:href="class_a_q_n_w_b_1_1_n_w_b_1_1_container.html#a420424e52795b5212d7dcb728396af6a" target="_top" xlink:title="Initialize the container.">
<polygon fill="white" stroke="#666666" points="533.62,-54.5 401.38,-54.5 401.38,-24 533.62,-24 533.62,-54.5"/>
<text xml:space="preserve" text-anchor="start" x="409.38" y="-41" font-family="Helvetica,sans-Serif" font-size="10.00">AQNWB::NWB::Container</text>
<text xml:space="preserve" text-anchor="middle" x="467.5" y="-29.75" font-family="Helvetica,sans-Serif" font-size="10.00">::initialize</text>
</a>
</g>
</g>
<!-- Node13&#45;&gt;Node14 -->
<g id="edge19_Node000013_Node000014" class="edge">
<title>Node13&#45;&gt;Node14</title>
<g id="a_edge19_Node000013_Node000014"><a xlink:title=" ">
<path fill="none" stroke="#63b8ff" d="M347.41,-66.54C361.2,-63.38 375.79,-60.04 389.84,-56.82"/>
<polygon fill="#63b8ff" stroke="#63b8ff" points="390.53,-60.25 399.49,-54.61 388.96,-53.43 390.53,-60.25"/>
</a>
</g>
</g>
<!-- Node15 -->
<g id="Node000015" class="node">
<title>Node15</title>
<g id="a_Node000015"><a xlink:href="class_a_q_n_w_b_1_1_n_w_b_1_1_registered_type.html#a651f3d7e5cc28dc93888e8a821c5aa1c" target="_top" xlink:title="Get the schema namespace of the class type.">
<polygon fill="white" stroke="#666666" points="738.25,-79.5 579.75,-79.5 579.75,-49 738.25,-49 738.25,-79.5"/>
<text xml:space="preserve" text-anchor="start" x="587.75" y="-66" font-family="Helvetica,sans-Serif" font-size="10.00">AQNWB::NWB::RegisteredType</text>
<text xml:space="preserve" text-anchor="middle" x="659" y="-54.75" font-family="Helvetica,sans-Serif" font-size="10.00">::getNamespace</text>
</a>
</g>
</g>
<!-- Node14&#45;&gt;Node15 -->
<g id="edge20_Node000014_Node000015" class="edge">
<title>Node14&#45;&gt;Node15</title>
<g id="a_edge20_Node000014_Node000015"><a xlink:title=" ">
<path fill="none" stroke="#63b8ff" d="M533.98,-47.89C545.09,-49.35 556.79,-50.9 568.39,-52.43"/>
<polygon fill="#63b8ff" stroke="#63b8ff" points="567.58,-55.85 577.95,-53.69 568.5,-48.91 567.58,-55.85"/>
</a>
</g>
</g>
<!-- Node16 -->
<g id="Node000016" class="node">
<title>Node16</title>
<g id="a_Node000016"><a xlink:href="class_a_q_n_w_b_1_1_n_w_b_1_1_registered_type.html#a150f881ad61cb8352eea7ddba47bc6ad" target="_top" xlink:title="Get the name of the class type.">
<polygon fill="white" stroke="#666666" points="738.25,-30.5 579.75,-30.5 579.75,0 738.25,0 738.25,-30.5"/>
<text xml:space="preserve" text-anchor="start" x="587.75" y="-17" font-family="Helvetica,sans-Serif" font-size="10.00">AQNWB::NWB::RegisteredType</text>
<text xml:space="preserve" text-anchor="middle" x="659" y="-5.75" font-family="Helvetica,sans-Serif" font-size="10.00">::getTypeName</text>
</a>
</g>
</g>
<!-- Node14&#45;&gt;Node16 -->
<g id="edge21_Node000014_Node000016" class="edge">
<title>Node14&#45;&gt;Node16</title>
<g id="a_edge21_Node000014_Node000016"><a xlink:title=" ">
<path fill="none" stroke="#63b8ff" d="M533.98,-30.96C545.09,-29.55 556.79,-28.07 568.39,-26.6"/>
<polygon fill="#63b8ff" stroke="#63b8ff" points="568.47,-30.12 577.95,-25.39 567.59,-23.17 568.47,-30.12"/>
</a>
</g>
</g>
</g>
</svg>

<g id="navigator" transform="translate(0 0)" fill="#404254">
  <rect fill="#f2f5e9" fill-opacity="0.5" stroke="#606060" stroke-width=".5" x="0" y="0" width="60" height="60"/>
  <use id="zoomplus" xlink:href="#zoomPlus" x="17" y="9" onmousedown="handleZoom(evt,'in')"/>
  <use id="zoomminus" xlink:href="#zoomMin" x="42" y="9" onmousedown="handleZoom(evt,'out')"/>
  <use id="reset" xlink:href="#resetDef" x="30" y="36" onmousedown="handleReset()"/>
   <use id="arrowup" xlink:href="#arrowUp" x="0" y="0" onmousedown="handlePan(0,-1)"/>
  <use id="arrowright" xlink:href="#arrowRight" x="0" y="0" onmousedown="handlePan(1,0)"/>
  <use id="arrowdown" xlink:href="#arrowDown" x="0" y="0" onmousedown="handlePan(0,1)"/>
  <use id="arrowleft" xlink:href="#arrowLeft" x="0" y="0" onmousedown="handlePan(-1,0)"/>
</g>
<svg viewBox="0 0 15 15" width="100%" height="30px" preserveAspectRatio="xMaxYMin meet">
 <g id="arrow_out" transform="scale(0.3 0.3)">
  <a xlink:href="class_a_q_n_w_b_1_1_n_w_b_1_1_electrode_table_ae74ad52ad117c87770485020674fb8dd_cgraph_org.svg" target="_base">
   <rect id="button" ry="5" rx="5" y="6" x="6" height="38" width="38"
        fill="#f2f5e9" fill-opacity="0.5" stroke="#606060" stroke-width="1.0"/>
   <path id="arrow"
     d="M 11.500037,31.436501 C 11.940474,20.09759 22.043105,11.32322 32.158766,21.979434 L 37.068811,17.246167 C 37.068811,17.246167 37.088388,32 37.088388,32 L 22.160133,31.978069 C 22.160133,31.978069 26.997745,27.140456 26.997745,27.140456 C 18.528582,18.264221 13.291696,25.230495 11.500037,31.436501 z"
     style="fill:#404040;"/>
  </a>
 </g>
</svg>

<style type='text/css'>
<![CDATA[
[data-mouse-over-selected='false'] { opacity: 0.7; }
[data-mouse-over-selected='true']  { opacity: 1.0; }
]]>
</style>
<script type="application/ecmascript"><![CDATA[
document.addEventListener('DOMContentLoaded', (event) => {
  highlightEdges();
  highlightAdjacentNodes();
});
]]></script>
</svg>
