<?xml version="1.0" encoding="UTF-8" standalone="no"?>
<!DOCTYPE svg PUBLIC "-//W3C//DTD SVG 1.1//EN"
 "http://www.w3.org/Graphics/SVG/1.1/DTD/svg11.dtd">
<!-- Generated by graphviz version 12.2.1 (20241206.2353)
 -->
<!-- Title: AQNWB::NWB::ElectricalSeries::initialize Pages: 1 -->
<svg width="556pt" height="125pt"
 viewBox="0.00 0.00 555.50 124.88" xmlns="http://www.w3.org/2000/svg" xmlns:xlink="http://www.w3.org/1999/xlink">
<g id="graph0" class="graph" transform="scale(1 1) rotate(0) translate(4 120.88)">
<title>AQNWB::NWB::ElectricalSeries::initialize</title>
<!-- Node1 -->
<g id="Node000001" class="node">
<title>Node1</title>
<g id="a_Node000001"><a xlink:title="Initializes the Electrical Series.">
<polygon fill="#999999" stroke="#666666" points="158.5,-67.88 0,-67.88 0,-37.38 158.5,-37.38 158.5,-67.88"/>
<text text-anchor="start" x="8" y="-54.38" font-family="Helvetica,sans-Serif" font-size="10.00">AQNWB::NWB::ElectricalSeries</text>
<text text-anchor="middle" x="79.25" y="-43.12" font-family="Helvetica,sans-Serif" font-size="10.00">::initialize</text>
</a>
</g>
</g>
<!-- Node2 -->
<g id="Node000002" class="node">
<title>Node2</title>
<g id="a_Node000002"><a xlink:href="class_a_q_n_w_b_1_1_n_w_b_1_1_registered_type.html#ab3eec5d2a591356df25053a4159ab671" target="_top" xlink:title="Gets the path of the registered type.">
<polygon fill="white" stroke="#666666" points="353,-116.88 194.5,-116.88 194.5,-86.38 353,-86.38 353,-116.88"/>
<text text-anchor="start" x="202.5" y="-103.38" font-family="Helvetica,sans-Serif" font-size="10.00">AQNWB::NWB::RegisteredType</text>
<text text-anchor="middle" x="273.75" y="-92.12" font-family="Helvetica,sans-Serif" font-size="10.00">::getPath</text>
</a>
</g>
</g>
<!-- Node1&#45;&gt;Node2 -->
<g id="edge1_Node000001_Node000002" class="edge">
<title>Node1&#45;&gt;Node2</title>
<g id="a_edge1_Node000001_Node000002"><a xlink:title=" ">
<path fill="none" stroke="#63b8ff" d="M141.95,-68.33C160.43,-73.03 180.87,-78.24 199.99,-83.1"/>
<polygon fill="#63b8ff" stroke="#63b8ff" points="199.05,-86.48 209.6,-85.55 200.77,-79.69 199.05,-86.48"/>
</a>
</g>
</g>
<!-- Node3 -->
<g id="Node000003" class="node">
<title>Node3</title>
<g id="a_Node000003"><a xlink:href="class_a_q_n_w_b_1_1_n_w_b_1_1_container.html#a420424e52795b5212d7dcb728396af6a" target="_top" xlink:title="Initialize the container.">
<polygon fill="white" stroke="#666666" points="339.88,-67.88 207.62,-67.88 207.62,-37.38 339.88,-37.38 339.88,-67.88"/>
<text text-anchor="start" x="215.62" y="-54.38" font-family="Helvetica,sans-Serif" font-size="10.00">AQNWB::NWB::Container</text>
<text text-anchor="middle" x="273.75" y="-43.12" font-family="Helvetica,sans-Serif" font-size="10.00">::initialize</text>
</a>
</g>
</g>
<!-- Node1&#45;&gt;Node3 -->
<g id="edge2_Node000001_Node000003" class="edge">
<title>Node1&#45;&gt;Node3</title>
<g id="a_edge2_Node000001_Node000003"><a xlink:title=" ">
<path fill="none" stroke="#63b8ff" d="M158.82,-52.62C171.16,-52.62 183.9,-52.62 196.19,-52.62"/>
<polygon fill="#63b8ff" stroke="#63b8ff" points="195.82,-56.13 205.82,-52.63 195.82,-49.13 195.82,-56.13"/>
</a>
</g>
</g>
<!-- Node6 -->
<g id="Node000006" class="node">
<title>Node6</title>
<g id="a_Node000006"><a xlink:href="namespace_a_q_n_w_b.html#a31983dbaaa85c2e355b9687fc0ef1881" target="_top" xlink:title="Merge two paths into a single path, handling extra trailing and starting &quot;/&quot;.">
<polygon fill="white" stroke="#666666" points="330.12,-19.25 217.38,-19.25 217.38,0 330.12,0 330.12,-19.25"/>
<text text-anchor="middle" x="273.75" y="-5.75" font-family="Helvetica,sans-Serif" font-size="10.00">AQNWB::mergePaths</text>
</a>
</g>
</g>
<!-- Node1&#45;&gt;Node6 -->
<g id="edge5_Node000001_Node000006" class="edge">
<title>Node1&#45;&gt;Node6</title>
<g id="a_edge5_Node000001_Node000006"><a xlink:title=" ">
<path fill="none" stroke="#63b8ff" d="M150.56,-36.92C172.22,-32.08 195.77,-26.82 216.37,-22.22"/>
<polygon fill="#63b8ff" stroke="#63b8ff" points="217,-25.66 226,-20.07 215.47,-18.83 217,-25.66"/>
</a>
</g>
</g>
<!-- Node4 -->
<g id="Node000004" class="node">
<title>Node4</title>
<g id="a_Node000004"><a xlink:href="class_a_q_n_w_b_1_1_n_w_b_1_1_registered_type.html#a651f3d7e5cc28dc93888e8a821c5aa1c" target="_top" xlink:title="Get the schema namespace of the class type.">
<polygon fill="white" stroke="#666666" points="547.5,-91.88 389,-91.88 389,-61.38 547.5,-61.38 547.5,-91.88"/>
<text text-anchor="start" x="397" y="-78.38" font-family="Helvetica,sans-Serif" font-size="10.00">AQNWB::NWB::RegisteredType</text>
<text text-anchor="middle" x="468.25" y="-67.12" font-family="Helvetica,sans-Serif" font-size="10.00">::getNamespace</text>
</a>
</g>
</g>
<!-- Node3&#45;&gt;Node4 -->
<g id="edge3_Node000003_Node000004" class="edge">
<title>Node3&#45;&gt;Node4</title>
<g id="a_edge3_Node000003_Node000004"><a xlink:title=" ">
<path fill="none" stroke="#63b8ff" d="M340.19,-60.78C352.12,-62.27 364.76,-63.85 377.26,-65.41"/>
<polygon fill="#63b8ff" stroke="#63b8ff" points="376.82,-68.88 387.17,-66.64 377.68,-61.93 376.82,-68.88"/>
</a>
</g>
</g>
<!-- Node5 -->
<g id="Node000005" class="node">
<title>Node5</title>
<g id="a_Node000005"><a xlink:href="class_a_q_n_w_b_1_1_n_w_b_1_1_registered_type.html#a150f881ad61cb8352eea7ddba47bc6ad" target="_top" xlink:title="Get the name of the class type.">
<polygon fill="white" stroke="#666666" points="547.5,-42.88 389,-42.88 389,-12.37 547.5,-12.37 547.5,-42.88"/>
<text text-anchor="start" x="397" y="-29.38" font-family="Helvetica,sans-Serif" font-size="10.00">AQNWB::NWB::RegisteredType</text>
<text text-anchor="middle" x="468.25" y="-18.12" font-family="Helvetica,sans-Serif" font-size="10.00">::getTypeName</text>
</a>
</g>
</g>
<!-- Node3&#45;&gt;Node5 -->
<g id="edge4_Node000003_Node000005" class="edge">
<title>Node3&#45;&gt;Node5</title>
<g id="a_edge4_Node000003_Node000005"><a xlink:title=" ">
<path fill="none" stroke="#63b8ff" d="M340.19,-44.13C352.12,-42.58 364.76,-40.93 377.26,-39.31"/>
<polygon fill="#63b8ff" stroke="#63b8ff" points="377.71,-42.78 387.17,-38.02 376.81,-35.84 377.71,-42.78"/>
</a>
</g>
</g>
</g>
</svg>
