<?xml version="1.0" encoding="UTF-8" standalone="no"?>
<!DOCTYPE svg PUBLIC "-//W3C//DTD SVG 1.1//EN"
 "http://www.w3.org/Graphics/SVG/1.1/DTD/svg11.dtd">
<!-- Generated by graphviz version 12.2.1 (20241206.2353)
 -->
<!-- Title: AQNWB::IO::BaseIO::findTypes Pages: 1 -->
<svg width="441pt" height="272pt"
 viewBox="0.00 0.00 440.75 271.50" xmlns="http://www.w3.org/2000/svg" xmlns:xlink="http://www.w3.org/1999/xlink">
<g id="graph0" class="graph" transform="scale(1 1) rotate(0) translate(4 267.5)">
<title>AQNWB::IO::BaseIO::findTypes</title>
<!-- Node1 -->
<g id="Node000001" class="node">
<title>Node1</title>
<g id="a_Node000001"><a xlink:title="Finds all datasets and groups of the given types in the HDF5 file.">
<polygon fill="#999999" stroke="#666666" points="115.75,-143.5 0,-143.5 0,-113 115.75,-113 115.75,-143.5"/>
<text text-anchor="start" x="8" y="-130" font-family="Helvetica,sans-Serif" font-size="10.00">AQNWB::IO::BaseIO::</text>
<text text-anchor="middle" x="57.88" y="-118.75" font-family="Helvetica,sans-Serif" font-size="10.00">findTypes</text>
</a>
</g>
</g>
<!-- Node2 -->
<g id="Node000002" class="node">
<title>Node2</title>
<g id="a_Node000002"><a xlink:href="class_a_q_n_w_b_1_1_i_o_1_1_base_i_o.html#a06b5edf2bbd4c85adcafda13e7903873" target="_top" xlink:title="Checks whether an Attribute exists at the location in the file.">
<polygon fill="white" stroke="#666666" points="270.88,-263.5 155.12,-263.5 155.12,-233 270.88,-233 270.88,-263.5"/>
<text text-anchor="start" x="163.12" y="-250" font-family="Helvetica,sans-Serif" font-size="10.00">AQNWB::IO::BaseIO::</text>
<text text-anchor="middle" x="213" y="-238.75" font-family="Helvetica,sans-Serif" font-size="10.00">attributeExists</text>
</a>
</g>
</g>
<!-- Node1&#45;&gt;Node2 -->
<g id="edge1_Node000001_Node000002" class="edge">
<title>Node1&#45;&gt;Node2</title>
<g id="a_edge1_Node000001_Node000002"><a xlink:title=" ">
<path fill="none" stroke="#63b8ff" d="M70.85,-143.97C87.2,-164.54 118.32,-200.63 151.75,-223.25 153.81,-224.64 155.95,-225.98 158.16,-227.26"/>
<polygon fill="#63b8ff" stroke="#63b8ff" points="156.31,-230.24 166.78,-231.81 159.57,-224.05 156.31,-230.24"/>
</a>
</g>
</g>
<!-- Node3 -->
<g id="Node000003" class="node">
<title>Node3</title>
<g id="a_Node000003"><a xlink:href="class_a_q_n_w_b_1_1_i_o_1_1_data_block.html#a20df6af7d661de38f4b8cb3baba48339" target="_top" xlink:title="Factory method to create an DataBlock from a DataBlockGeneric.">
<polygon fill="white" stroke="#666666" points="274.25,-214.5 151.75,-214.5 151.75,-184 274.25,-184 274.25,-214.5"/>
<text text-anchor="start" x="159.75" y="-201" font-family="Helvetica,sans-Serif" font-size="10.00">AQNWB::IO::DataBlock</text>
<text text-anchor="middle" x="213" y="-189.75" font-family="Helvetica,sans-Serif" font-size="10.00">::fromGeneric</text>
</a>
</g>
</g>
<!-- Node1&#45;&gt;Node3 -->
<g id="edge2_Node000001_Node000003" class="edge">
<title>Node1&#45;&gt;Node3</title>
<g id="a_edge2_Node000001_Node000003"><a xlink:title=" ">
<path fill="none" stroke="#63b8ff" d="M89.17,-143.89C107.2,-153.04 130.62,-164.65 151.75,-174.25 155.31,-175.87 159.01,-177.51 162.74,-179.13"/>
<polygon fill="#63b8ff" stroke="#63b8ff" points="161.3,-182.32 171.87,-183.03 164.05,-175.88 161.3,-182.32"/>
</a>
</g>
</g>
<!-- Node5 -->
<g id="Node000005" class="node">
<title>Node5</title>
<g id="a_Node000005"><a xlink:href="class_a_q_n_w_b_1_1_i_o_1_1_base_i_o.html#a981d7a455b4c057f8ade5c511afbb2ba" target="_top" xlink:title="Gets the list of storage objects (groups, datasets, attributes) inside a group.">
<polygon fill="white" stroke="#666666" points="270.88,-165.5 155.12,-165.5 155.12,-135 270.88,-135 270.88,-165.5"/>
<text text-anchor="start" x="163.12" y="-152" font-family="Helvetica,sans-Serif" font-size="10.00">AQNWB::IO::BaseIO::</text>
<text text-anchor="middle" x="213" y="-140.75" font-family="Helvetica,sans-Serif" font-size="10.00">getStorageObjects</text>
</a>
</g>
</g>
<!-- Node1&#45;&gt;Node5 -->
<g id="edge4_Node000001_Node000005" class="edge">
<title>Node1&#45;&gt;Node5</title>
<g id="a_edge4_Node000001_Node000005"><a xlink:title=" ">
<path fill="none" stroke="#63b8ff" d="M115.89,-136.44C124.9,-137.74 134.29,-139.09 143.53,-140.41"/>
<polygon fill="#63b8ff" stroke="#63b8ff" points="142.78,-143.84 153.18,-141.8 143.78,-136.91 142.78,-143.84"/>
</a>
</g>
</g>
<!-- Node6 -->
<g id="Node000006" class="node">
<title>Node6</title>
<g id="a_Node000006"><a xlink:href="namespace_a_q_n_w_b.html#a31983dbaaa85c2e355b9687fc0ef1881" target="_top" xlink:title="Merge two paths into a single path, handling extra trailing and starting &quot;/&quot;.">
<polygon fill="white" stroke="#666666" points="269.38,-116.88 156.62,-116.88 156.62,-97.62 269.38,-97.62 269.38,-116.88"/>
<text text-anchor="middle" x="213" y="-103.38" font-family="Helvetica,sans-Serif" font-size="10.00">AQNWB::mergePaths</text>
</a>
</g>
</g>
<!-- Node1&#45;&gt;Node6 -->
<g id="edge5_Node000001_Node000006" class="edge">
<title>Node1&#45;&gt;Node6</title>
<g id="a_edge5_Node000001_Node000006"><a xlink:title=" ">
<path fill="none" stroke="#63b8ff" d="M115.89,-120.43C125.37,-119.13 135.27,-117.77 144.96,-116.44"/>
<polygon fill="#63b8ff" stroke="#63b8ff" points="145.28,-119.93 154.71,-115.11 144.32,-113 145.28,-119.93"/>
</a>
</g>
</g>
<!-- Node7 -->
<g id="Node000007" class="node">
<title>Node7</title>
<g id="a_Node000007"><a xlink:href="class_a_q_n_w_b_1_1_i_o_1_1_base_i_o.html#a01e6288db37a36dc4a160955e8f5b5b5" target="_top" xlink:title="Checks whether a Dataset, Group, or Link already exists at the location in the file.">
<polygon fill="white" stroke="#666666" points="270.88,-79.5 155.12,-79.5 155.12,-49 270.88,-49 270.88,-79.5"/>
<text text-anchor="start" x="163.12" y="-66" font-family="Helvetica,sans-Serif" font-size="10.00">AQNWB::IO::BaseIO::</text>
<text text-anchor="middle" x="213" y="-54.75" font-family="Helvetica,sans-Serif" font-size="10.00">objectExists</text>
</a>
</g>
</g>
<!-- Node1&#45;&gt;Node7 -->
<g id="edge6_Node000001_Node000007" class="edge">
<title>Node1&#45;&gt;Node7</title>
<g id="a_edge6_Node000001_Node000007"><a xlink:title=" ">
<path fill="none" stroke="#63b8ff" d="M94.5,-112.63C111.74,-105.14 132.77,-96.11 151.75,-88.25 154.92,-86.93 158.2,-85.59 161.5,-84.25"/>
<polygon fill="#63b8ff" stroke="#63b8ff" points="162.71,-87.53 170.67,-80.54 160.09,-81.04 162.71,-87.53"/>
</a>
</g>
</g>
<!-- Node8 -->
<g id="Node000008" class="node">
<title>Node8</title>
<g id="a_Node000008"><a xlink:href="class_a_q_n_w_b_1_1_i_o_1_1_base_i_o.html#aa9b3fc349e4149f6b1c75bb854deae07" target="_top" xlink:title="Reads a attribute and determines the data type.">
<polygon fill="white" stroke="#666666" points="270.88,-30.5 155.12,-30.5 155.12,0 270.88,0 270.88,-30.5"/>
<text text-anchor="start" x="163.12" y="-17" font-family="Helvetica,sans-Serif" font-size="10.00">AQNWB::IO::BaseIO::</text>
<text text-anchor="middle" x="213" y="-5.75" font-family="Helvetica,sans-Serif" font-size="10.00">readAttribute</text>
</a>
</g>
</g>
<!-- Node1&#45;&gt;Node8 -->
<g id="edge7_Node000001_Node000008" class="edge">
<title>Node1&#45;&gt;Node8</title>
<g id="a_edge7_Node000001_Node000008"><a xlink:title=" ">
<path fill="none" stroke="#63b8ff" d="M71.96,-112.76C88.8,-93.63 119.71,-61.06 151.75,-40.25 153.99,-38.79 156.34,-37.39 158.74,-36.05"/>
<polygon fill="#63b8ff" stroke="#63b8ff" points="160.22,-39.22 167.53,-31.55 157.03,-32.99 160.22,-39.22"/>
</a>
</g>
</g>
<!-- Node4 -->
<g id="Node000004" class="node">
<title>Node4</title>
<g id="a_Node000004"><a xlink:href="class_a_q_n_w_b_1_1_i_o_1_1_data_block.html#a19215d8fade24ca715da77a234766059" target="_top" xlink:title=" ">
<polygon fill="white" stroke="#666666" points="432.75,-214.5 310.25,-214.5 310.25,-184 432.75,-184 432.75,-214.5"/>
<text text-anchor="start" x="318.25" y="-201" font-family="Helvetica,sans-Serif" font-size="10.00">AQNWB::IO::DataBlock</text>
<text text-anchor="middle" x="371.5" y="-189.75" font-family="Helvetica,sans-Serif" font-size="10.00">::DataBlock</text>
</a>
</g>
</g>
<!-- Node3&#45;&gt;Node4 -->
<g id="edge3_Node000003_Node000004" class="edge">
<title>Node3&#45;&gt;Node4</title>
<g id="a_edge3_Node000003_Node000004"><a xlink:title=" ">
<path fill="none" stroke="#63b8ff" d="M274.51,-199.25C282.4,-199.25 290.55,-199.25 298.6,-199.25"/>
<polygon fill="#63b8ff" stroke="#63b8ff" points="298.38,-202.75 308.38,-199.25 298.38,-195.75 298.38,-202.75"/>
</a>
</g>
</g>
</g>
</svg>
