<?xml version="1.0" encoding="UTF-8" standalone="no"?>
<!DOCTYPE svg PUBLIC "-//W3C//DTD SVG 1.1//EN"
 "http://www.w3.org/Graphics/SVG/1.1/DTD/svg11.dtd">
<!-- Generated by graphviz version 14.1.2 (20260124.0452)
 -->
<!-- Title: AQNWB::NWB::VectorData::initialize Pages: 1 -->
<svg width="531pt" height="101pt"
 viewBox="0.00 0.00 531.00 101.00" xmlns="http://www.w3.org/2000/svg" xmlns:xlink="http://www.w3.org/1999/xlink">
<g id="graph0" class="graph" transform="scale(1 1) rotate(0) translate(4 96.5)">
<title>AQNWB::NWB::VectorData::initialize</title>
<!-- Node1 -->
<g id="Node000001" class="node">
<title>Node1</title>
<g id="a_Node000001"><a xlink:title="Initialize the dataset for the VectorData object.">
<polygon fill="#999999" stroke="#666666" points="139.75,-73.5 0,-73.5 0,-43 139.75,-43 139.75,-73.5"/>
<text xml:space="preserve" text-anchor="start" x="8" y="-60" font-family="Helvetica,sans-Serif" font-size="10.00">AQNWB::NWB::VectorData</text>
<text xml:space="preserve" text-anchor="middle" x="69.88" y="-48.75" font-family="Helvetica,sans-Serif" font-size="10.00">::initialize</text>
</a>
</g>
</g>
<!-- Node2 -->
<g id="Node000002" class="node">
<title>Node2</title>
<g id="a_Node000002"><a xlink:href="class_a_q_n_w_b_1_1_n_w_b_1_1_registered_type.html#ab614b1609f536e88ed1f32762dc3894b" target="_top" xlink:title="Get a shared pointer to the IO object.">
<polygon fill="white" stroke="#666666" points="522.75,-92.5 364.25,-92.5 364.25,-62 522.75,-62 522.75,-92.5"/>
<text xml:space="preserve" text-anchor="start" x="372.25" y="-79" font-family="Helvetica,sans-Serif" font-size="10.00">AQNWB::NWB::RegisteredType</text>
<text xml:space="preserve" text-anchor="middle" x="443.5" y="-67.75" font-family="Helvetica,sans-Serif" font-size="10.00">::getIO</text>
</a>
</g>
</g>
<!-- Node1&#45;&gt;Node2 -->
<g id="edge1_Node000001_Node000002" class="edge">
<title>Node1&#45;&gt;Node2</title>
<g id="a_edge1_Node000001_Node000002"><a xlink:title=" ">
<path fill="none" stroke="#63b8ff" d="M140.02,-72.59C151.89,-74.53 164.14,-76.21 175.75,-77.25 234.39,-82.52 300.58,-82.55 352.35,-81.26"/>
<polygon fill="#63b8ff" stroke="#63b8ff" points="352.43,-84.75 362.33,-80.98 352.23,-77.76 352.43,-84.75"/>
</a>
</g>
</g>
<!-- Node3 -->
<g id="Node000003" class="node">
<title>Node3</title>
<g id="a_Node000003"><a xlink:href="class_a_q_n_w_b_1_1_n_w_b_1_1_data.html#a811f11bd212eab51664e415740101f2b" target="_top" xlink:title="Initialize the dataset for the Data object.">
<polygon fill="white" stroke="#666666" points="328.25,-67.88 175.75,-67.88 175.75,-48.62 328.25,-48.62 328.25,-67.88"/>
<text xml:space="preserve" text-anchor="middle" x="252" y="-54.38" font-family="Helvetica,sans-Serif" font-size="10.00">AQNWB::NWB::Data::initialize</text>
</a>
</g>
</g>
<!-- Node1&#45;&gt;Node3 -->
<g id="edge2_Node000001_Node000003" class="edge">
<title>Node1&#45;&gt;Node3</title>
<g id="a_edge2_Node000001_Node000003"><a xlink:title=" ">
<path fill="none" stroke="#63b8ff" d="M140,-58.25C147.89,-58.25 156.01,-58.25 164.09,-58.25"/>
<polygon fill="#63b8ff" stroke="#63b8ff" points="163.95,-61.75 173.95,-58.25 163.95,-54.75 163.95,-61.75"/>
</a>
</g>
</g>
<!-- Node4 -->
<g id="Node000004" class="node">
<title>Node4</title>
<g id="a_Node000004"><a xlink:href="class_a_q_n_w_b_1_1_i_o_1_1_base_array_data_set_config.html#afa73e29e69f976fb0dda013ae85fabeb" target="_top" xlink:title="Checks if this configuration represents a link.">
<polygon fill="white" stroke="#666666" points="323.75,-30.5 180.25,-30.5 180.25,0 323.75,0 323.75,-30.5"/>
<text xml:space="preserve" text-anchor="start" x="188.25" y="-17" font-family="Helvetica,sans-Serif" font-size="10.00">AQNWB::IO::BaseArrayData</text>
<text xml:space="preserve" text-anchor="middle" x="252" y="-5.75" font-family="Helvetica,sans-Serif" font-size="10.00">SetConfig::isLink</text>
</a>
</g>
</g>
<!-- Node1&#45;&gt;Node4 -->
<g id="edge4_Node000001_Node000004" class="edge">
<title>Node1&#45;&gt;Node4</title>
<g id="a_edge4_Node000001_Node000004"><a xlink:title=" ">
<path fill="none" stroke="#63b8ff" d="M136.67,-42.54C148.87,-39.63 161.72,-36.56 174.22,-33.58"/>
<polygon fill="#63b8ff" stroke="#63b8ff" points="174.7,-37.06 183.61,-31.34 173.07,-30.26 174.7,-37.06"/>
</a>
</g>
</g>
<!-- Node3&#45;&gt;Node2 -->
<g id="edge3_Node000003_Node000002" class="edge">
<title>Node3&#45;&gt;Node2</title>
<g id="a_edge3_Node000003_Node000002"><a xlink:title=" ">
<path fill="none" stroke="#63b8ff" d="M328.71,-65.84C336.56,-66.63 344.59,-67.43 352.57,-68.23"/>
<polygon fill="#63b8ff" stroke="#63b8ff" points="352,-71.69 362.3,-69.21 352.7,-64.73 352,-71.69"/>
</a>
</g>
</g>
</g>
</svg>
