<?xml version="1.0" encoding="UTF-8" standalone="no"?>
<!DOCTYPE svg PUBLIC "-//W3C//DTD SVG 1.1//EN"
 "http://www.w3.org/Graphics/SVG/1.1/DTD/svg11.dtd">
<!-- Generated by graphviz version 12.1.0 (20240811.2233)
 -->
<!-- Title: AQNWB::HDF5::HDF5IO::getNativeType Pages: 1 -->
<svg width="502pt" height="112pt"
 viewBox="0.00 0.00 501.50 111.50" xmlns="http://www.w3.org/2000/svg" xmlns:xlink="http://www.w3.org/1999/xlink">
<g id="graph0" class="graph" transform="scale(1 1) rotate(0) translate(4 107.5)">
<title>AQNWB::HDF5::HDF5IO::getNativeType</title>
<!-- Node1 -->
<g id="Node000001" class="node">
<title>Node1</title>
<g id="a_Node000001"><a xlink:title="Returns the HDF5 native data type for a given base data type.">
<polygon fill="#999999" stroke="#666666" points="493.5,-54.5 364.25,-54.5 364.25,-24 493.5,-24 493.5,-54.5"/>
<text text-anchor="start" x="372.25" y="-41" font-family="Helvetica,sans-Serif" font-size="10.00">AQNWB::HDF5::HDF5IO</text>
<text text-anchor="middle" x="428.88" y="-29.75" font-family="Helvetica,sans-Serif" font-size="10.00">::getNativeType</text>
</a>
</g>
</g>
<!-- Node2 -->
<g id="Node000002" class="node">
<title>Node2</title>
<g id="a_Node000002"><a xlink:href="class_a_q_n_w_b_1_1_h_d_f5_1_1_h_d_f5_i_o.html#a41b29c0a44b9cf1778f8b0883834be36" target="_top" xlink:title="Creates an attribute at a given location in the file.">
<polygon fill="white" stroke="#666666" points="311.38,-79.5 182.12,-79.5 182.12,-49 311.38,-49 311.38,-79.5"/>
<text text-anchor="start" x="190.12" y="-66" font-family="Helvetica,sans-Serif" font-size="10.00">AQNWB::HDF5::HDF5IO</text>
<text text-anchor="middle" x="246.75" y="-54.75" font-family="Helvetica,sans-Serif" font-size="10.00">::createAttribute</text>
</a>
</g>
</g>
<!-- Node1&#45;&gt;Node2 -->
<g id="edge1_Node000001_Node000002" class="edge">
<title>Node1&#45;&gt;Node2</title>
<g id="a_edge1_Node000001_Node000002"><a xlink:title=" ">
<path fill="none" stroke="#63b8ff" d="M352.62,-49.7C339.07,-51.58 325.06,-53.52 311.86,-55.35"/>
<polygon fill="#63b8ff" stroke="#63b8ff" points="352.94,-53.18 362.36,-48.34 351.98,-46.25 352.94,-53.18"/>
</a>
</g>
</g>
<!-- Node5 -->
<g id="Node000005" class="node">
<title>Node5</title>
<g id="a_Node000005"><a xlink:href="class_a_q_n_w_b_1_1_h_d_f5_1_1_h_d_f5_recording_data.html#a80aa1d05df8cbdb7c4208c29f690e739" target="_top" xlink:title="Writes a block of data to the HDF5 dataset.">
<polygon fill="white" stroke="#666666" points="328.25,-30.5 165.25,-30.5 165.25,0 328.25,0 328.25,-30.5"/>
<text text-anchor="start" x="173.25" y="-17" font-family="Helvetica,sans-Serif" font-size="10.00">AQNWB::HDF5::HDF5Recording</text>
<text text-anchor="middle" x="246.75" y="-5.75" font-family="Helvetica,sans-Serif" font-size="10.00">Data::writeDataBlock</text>
</a>
</g>
</g>
<!-- Node1&#45;&gt;Node5 -->
<g id="edge4_Node000001_Node000005" class="edge">
<title>Node1&#45;&gt;Node5</title>
<g id="a_edge4_Node000001_Node000005"><a xlink:title=" ">
<path fill="none" stroke="#63b8ff" d="M352.72,-29.24C344.75,-28.17 336.61,-27.09 328.57,-26.02"/>
<polygon fill="#63b8ff" stroke="#63b8ff" points="351.99,-32.67 362.36,-30.52 352.91,-25.73 351.99,-32.67"/>
</a>
</g>
</g>
<!-- Node3 -->
<g id="Node000003" class="node">
<title>Node3</title>
<g id="a_Node000003"><a xlink:href="class_a_q_n_w_b_1_1_h_d_f5_1_1_h_d_f5_i_o.html#a30318320f3bea68d7efec05cb5562ccd" target="_top" xlink:title="Creates a string attribute at a given location in the file.">
<polygon fill="white" stroke="#666666" points="129.25,-103.5 0,-103.5 0,-73 129.25,-73 129.25,-103.5"/>
<text text-anchor="start" x="8" y="-90" font-family="Helvetica,sans-Serif" font-size="10.00">AQNWB::HDF5::HDF5IO</text>
<text text-anchor="middle" x="64.62" y="-78.75" font-family="Helvetica,sans-Serif" font-size="10.00">::createAttribute</text>
</a>
</g>
</g>
<!-- Node2&#45;&gt;Node3 -->
<g id="edge2_Node000002_Node000003" class="edge">
<title>Node2&#45;&gt;Node3</title>
<g id="a_edge2_Node000002_Node000003"><a xlink:title=" ">
<path fill="none" stroke="#63b8ff" d="M170.49,-74.28C156.94,-76.08 142.93,-77.95 129.73,-79.71"/>
<polygon fill="#63b8ff" stroke="#63b8ff" points="170.79,-77.77 180.24,-72.98 169.86,-70.83 170.79,-77.77"/>
</a>
</g>
</g>
<!-- Node4 -->
<g id="Node000004" class="node">
<title>Node4</title>
<g id="a_Node000004"><a xlink:href="class_a_q_n_w_b_1_1_h_d_f5_1_1_h_d_f5_i_o.html#a6dc62d49a1e15e8080d66fb7c10849ad" target="_top" xlink:title="Creates a string array attribute at a given location in the file.">
<polygon fill="white" stroke="#666666" points="129.25,-54.5 0,-54.5 0,-24 129.25,-24 129.25,-54.5"/>
<text text-anchor="start" x="8" y="-41" font-family="Helvetica,sans-Serif" font-size="10.00">AQNWB::HDF5::HDF5IO</text>
<text text-anchor="middle" x="64.62" y="-29.75" font-family="Helvetica,sans-Serif" font-size="10.00">::createAttribute</text>
</a>
</g>
</g>
<!-- Node2&#45;&gt;Node4 -->
<g id="edge3_Node000002_Node000004" class="edge">
<title>Node2&#45;&gt;Node4</title>
<g id="a_edge3_Node000002_Node000004"><a xlink:title=" ">
<path fill="none" stroke="#63b8ff" d="M170.49,-53.8C156.94,-51.92 142.93,-49.98 129.73,-48.15"/>
<polygon fill="#63b8ff" stroke="#63b8ff" points="169.85,-57.25 180.24,-55.16 170.81,-50.32 169.85,-57.25"/>
</a>
</g>
</g>
</g>
</svg>
