<?xml version="1.0" encoding="UTF-8" standalone="no"?>
<!DOCTYPE svg PUBLIC "-//W3C//DTD SVG 1.1//EN"
 "http://www.w3.org/Graphics/SVG/1.1/DTD/svg11.dtd">
<!-- Generated by graphviz version 14.1.0 (20251206.1807)
 -->
<!-- Title: AQNWB::NWB::RegisteredType::RegisteredType Pages: 1 -->
<!--zoomable 612 -->

<svg id="main" version="1.1" xmlns="http://www.w3.org/2000/svg" xmlns:xlink="http://www.w3.org/1999/xlink" xml:space="preserve" onload="init(evt)">

<style type="text/css"><![CDATA[
.node, .edge {opacity: 0.7;}
.node.selected, .edge.selected {opacity: 1;}
.edge:hover path { stroke: red; }
.edge:hover polygon { stroke: red; fill: red; }
]]></style>

<defs>
  <circle id="rim" cx="0" cy="0" r="7"/>
  <circle id="rim2" cx="0" cy="0" r="3.5"/>
  <g id="zoomPlus">
    <use xlink:href="#rim" fill="#404040"><set attributeName="fill" to="#808080" begin="zoomplus.mouseover" end="zoomplus.mouseout"/></use>
    <path d="M-4,0h8M0,-4v8" fill="none" stroke="white" stroke-width="1.5" pointer-events="none"/>
  </g>
  <g id="zoomMin">
    <use xlink:href="#rim" fill="#404040"><set attributeName="fill" to="#808080" begin="zoomminus.mouseover" end="zoomminus.mouseout"/></use>
    <path d="M-4,0h8" fill="none" stroke="white" stroke-width="1.5" pointer-events="none"/>
  </g>
  <g id="arrowUp" transform="translate(30 24)">
    <use xlink:href="#rim"/>
    <path pointer-events="none" fill="none" stroke="white" stroke-width="1.5" d="M0,-3.0v7 M-2.5,-0.5L0,-3.0L2.5,-0.5"/>
  </g>
  <g id="arrowRight" transform="rotate(90) translate(36 -43)">
    <use xlink:href="#rim"/>
    <path pointer-events="none" fill="none" stroke="white" stroke-width="1.5" d="M0,-3.0v7 M-2.5,-0.5L0,-3.0L2.5,-0.5"/>
  </g>
  <g id="arrowDown" transform="rotate(180) translate(-30 -48)">
    <use xlink:href="#rim"/>
    <path pointer-events="none" fill="none" stroke="white" stroke-width="1.5" d="M0,-3.0v7 M-2.5,-0.5L0,-3.0L2.5,-0.5"/>
  </g>
  <g id="arrowLeft" transform="rotate(270) translate(-36 17)">
    <use xlink:href="#rim"/>
    <path pointer-events="none" fill="none" stroke="white" stroke-width="1.5" d="M0,-3.0v7 M-2.5,-0.5L0,-3.0L2.5,-0.5"/>
  </g>
  <g id="resetDef">
    <use xlink:href="#rim2" fill="#404040"><set attributeName="fill" to="#808080" begin="reset.mouseover" end="reset.mouseout"/></use>
  </g>
</defs>
<script type="application/ecmascript">
var viewWidth = 1336;
var viewHeight = 612;
var sectionId = 'dynsection-1';
</script>
<script type="application/ecmascript" xlink:href="svg.min.js"/>
<svg id="graph" class="graph">
<g id="viewport">
<title>AQNWB::NWB::RegisteredType::RegisteredType</title>
<!-- Node1 -->
<g id="Node000001" class="node">
<title>Node1</title>
<g id="a_Node000001"><a xlink:title="Constructor.">
<polygon fill="#999999" stroke="#666666" points="1327.75,-287.5 1169.25,-287.5 1169.25,-257 1327.75,-257 1327.75,-287.5"/>
<text xml:space="preserve" text-anchor="start" x="1177.25" y="-274" font-family="Helvetica,sans-Serif" font-size="10.00">AQNWB::NWB::RegisteredType</text>
<text xml:space="preserve" text-anchor="middle" x="1248.5" y="-262.75" font-family="Helvetica,sans-Serif" font-size="10.00">::RegisteredType</text>
</a>
</g>
</g>
<!-- Node2 -->
<g id="Node000002" class="node">
<title>Node2</title>
<g id="a_Node000002"><a xlink:href="class_a_q_n_w_b_1_1_n_w_b_1_1_container.html#a0ec16ae5d28267ea37464ffe2c2c34e5" target="_top" xlink:title="Constructor.">
<polygon fill="white" stroke="#666666" points="1130.25,-369.5 998,-369.5 998,-339 1130.25,-339 1130.25,-369.5"/>
<text xml:space="preserve" text-anchor="start" x="1006" y="-356" font-family="Helvetica,sans-Serif" font-size="10.00">AQNWB::NWB::Container</text>
<text xml:space="preserve" text-anchor="middle" x="1064.12" y="-344.75" font-family="Helvetica,sans-Serif" font-size="10.00">::Container</text>
</a>
</g>
</g>
<!-- Node1&#45;&gt;Node2 -->
<g id="edge1_Node000001_Node000002" class="edge">
<title>Node1&#45;&gt;Node2</title>
<g id="a_edge1_Node000001_Node000002"><a xlink:title=" ">
<path fill="none" stroke="#63b8ff" d="M1202.46,-292.5C1170.84,-306.72 1129.15,-325.46 1100.04,-338.55"/>
<polygon fill="#63b8ff" stroke="#63b8ff" points="1203.7,-295.78 1211.39,-288.49 1200.83,-289.4 1203.7,-295.78"/>
</a>
</g>
</g>
<!-- Node20 -->
<g id="Node000020" class="node">
<title>Node20</title>
<g id="a_Node000020"><a xlink:href="class_a_q_n_w_b_1_1_n_w_b_1_1_data.html#ac0a68f39a709b9096ce797bce18c668f" target="_top" xlink:title="Constructor.">
<polygon fill="white" stroke="#666666" points="1133.25,-223.88 995,-223.88 995,-204.62 1133.25,-204.62 1133.25,-223.88"/>
<text xml:space="preserve" text-anchor="middle" x="1064.12" y="-210.38" font-family="Helvetica,sans-Serif" font-size="10.00">AQNWB::NWB::Data::Data</text>
</a>
</g>
</g>
<!-- Node1&#45;&gt;Node20 -->
<g id="edge30_Node000001_Node000020" class="edge">
<title>Node1&#45;&gt;Node20</title>
<g id="a_edge30_Node000001_Node000020"><a xlink:title=" ">
<path fill="none" stroke="#63b8ff" d="M1187.26,-253.09C1157.01,-243.47 1121.6,-232.21 1096.72,-224.3"/>
<polygon fill="#63b8ff" stroke="#63b8ff" points="1186.11,-256.4 1196.7,-256.1 1188.24,-249.73 1186.11,-256.4"/>
</a>
</g>
</g>
<!-- Node2&#45;&gt;Node2 -->
<g id="edge2_Node000002_Node000002" class="edge">
<title>Node2&#45;&gt;Node2</title>
<g id="a_edge2_Node000002_Node000002"><a xlink:title=" ">
<path fill="none" stroke="#63b8ff" d="M1095.04,-381.2C1089.99,-384.97 1079.68,-387.5 1064.12,-387.5 1035.68,-387.5 1024.79,-379.06 1031.45,-369.99"/>
<polygon fill="#63b8ff" stroke="#63b8ff" points="1098.48,-381.9 1096.56,-371.48 1091.56,-380.82 1098.48,-381.9"/>
</a>
</g>
</g>
<!-- Node3 -->
<g id="Node000003" class="node">
<title>Node3</title>
<g id="a_Node000003"><a xlink:href="class_a_q_n_w_b_1_1_n_w_b_1_1_dynamic_table.html#a6b2079337b08a6e265eeb6e39889e55b" target="_top" xlink:title="Constructor.">
<polygon fill="white" stroke="#666666" points="950.75,-536.5 798.25,-536.5 798.25,-506 950.75,-506 950.75,-536.5"/>
<text xml:space="preserve" text-anchor="start" x="806.25" y="-523" font-family="Helvetica,sans-Serif" font-size="10.00">AQNWB::NWB::DynamicTable</text>
<text xml:space="preserve" text-anchor="middle" x="874.5" y="-511.75" font-family="Helvetica,sans-Serif" font-size="10.00">::DynamicTable</text>
</a>
</g>
</g>
<!-- Node2&#45;&gt;Node3 -->
<g id="edge3_Node000002_Node000003" class="edge">
<title>Node2&#45;&gt;Node3</title>
<g id="a_edge3_Node000002_Node000003"><a xlink:title=" ">
<path fill="none" stroke="#63b8ff" d="M1037.27,-377.26C998.46,-411.81 926.15,-476.16 892.97,-505.7"/>
<polygon fill="#63b8ff" stroke="#63b8ff" points="1039.2,-380.23 1044.34,-370.97 1034.55,-375 1039.2,-380.23"/>
</a>
</g>
</g>
<!-- Node6 -->
<g id="Node000006" class="node">
<title>Node6</title>
<g id="a_Node000006"><a xlink:href="class_a_q_n_w_b_1_1_n_w_b_1_1_n_w_b_container.html#aadbde40c8c04d80d7b65a26e77f4cc20" target="_top" xlink:title="Constructor.">
<polygon fill="white" stroke="#666666" points="952.62,-369.5 796.38,-369.5 796.38,-339 952.62,-339 952.62,-369.5"/>
<text xml:space="preserve" text-anchor="start" x="804.38" y="-356" font-family="Helvetica,sans-Serif" font-size="10.00">AQNWB::NWB::NWBContainer</text>
<text xml:space="preserve" text-anchor="middle" x="874.5" y="-344.75" font-family="Helvetica,sans-Serif" font-size="10.00">::NWBContainer</text>
</a>
</g>
</g>
<!-- Node2&#45;&gt;Node6 -->
<g id="edge8_Node000002_Node000006" class="edge">
<title>Node2&#45;&gt;Node6</title>
<g id="a_edge8_Node000002_Node000006"><a xlink:title=" ">
<path fill="none" stroke="#63b8ff" d="M986.22,-354.25C975.26,-354.25 963.97,-354.25 953,-354.25"/>
<polygon fill="#63b8ff" stroke="#63b8ff" points="985.99,-357.75 995.99,-354.25 985.99,-350.75 985.99,-357.75"/>
</a>
</g>
</g>
<!-- Node3&#45;&gt;Node3 -->
<g id="edge4_Node000003_Node000003" class="edge">
<title>Node3&#45;&gt;Node3</title>
<g id="a_edge4_Node000003_Node000003"><a xlink:title=" ">
<path fill="none" stroke="#63b8ff" d="M906.3,-548.2C901.1,-551.97 890.5,-554.5 874.5,-554.5 845.24,-554.5 834.04,-546.06 840.9,-536.99"/>
<polygon fill="#63b8ff" stroke="#63b8ff" points="909.73,-548.91 907.86,-538.48 902.82,-547.8 909.73,-548.91"/>
</a>
</g>
</g>
<!-- Node4 -->
<g id="Node000004" class="node">
<title>Node4</title>
<g id="a_Node000004"><a xlink:href="class_a_q_n_w_b_1_1_n_w_b_1_1_electrodes_table.html#a619418bc86a44930589f2cfb8326bd22" target="_top" xlink:title=" ">
<polygon fill="white" stroke="#666666" points="747.25,-603.5 587.25,-603.5 587.25,-573 747.25,-573 747.25,-603.5"/>
<text xml:space="preserve" text-anchor="start" x="595.25" y="-590" font-family="Helvetica,sans-Serif" font-size="10.00">AQNWB::NWB::ElectrodesTable</text>
<text xml:space="preserve" text-anchor="middle" x="667.25" y="-578.75" font-family="Helvetica,sans-Serif" font-size="10.00">::ElectrodesTable</text>
</a>
</g>
</g>
<!-- Node3&#45;&gt;Node4 -->
<g id="edge5_Node000003_Node000004" class="edge">
<title>Node3&#45;&gt;Node4</title>
<g id="a_edge5_Node000003_Node000004"><a xlink:title=" ">
<path fill="none" stroke="#63b8ff" d="M819.82,-540.81C799.31,-548.1 775.65,-556.29 754,-563.25 744.26,-566.38 733.84,-569.56 723.74,-572.55"/>
<polygon fill="#63b8ff" stroke="#63b8ff" points="820.88,-544.15 829.12,-537.49 818.53,-537.56 820.88,-544.15"/>
</a>
</g>
</g>
<!-- Node5 -->
<g id="Node000005" class="node">
<title>Node5</title>
<g id="a_Node000005"><a xlink:href="class_a_q_n_w_b_1_1_n_w_b_1_1_electrodes_table.html#ac59e22d783a27642e78472f435943c9a" target="_top" xlink:title="Constructor.">
<polygon fill="white" stroke="#666666" points="747.25,-536.5 587.25,-536.5 587.25,-506 747.25,-506 747.25,-536.5"/>
<text xml:space="preserve" text-anchor="start" x="595.25" y="-523" font-family="Helvetica,sans-Serif" font-size="10.00">AQNWB::NWB::ElectrodesTable</text>
<text xml:space="preserve" text-anchor="middle" x="667.25" y="-511.75" font-family="Helvetica,sans-Serif" font-size="10.00">::ElectrodesTable</text>
</a>
</g>
</g>
<!-- Node3&#45;&gt;Node5 -->
<g id="edge6_Node000003_Node000005" class="edge">
<title>Node3&#45;&gt;Node5</title>
<g id="a_edge6_Node000003_Node000005"><a xlink:title=" ">
<path fill="none" stroke="#63b8ff" d="M786.63,-521.25C773.62,-521.25 760.27,-521.25 747.43,-521.25"/>
<polygon fill="#63b8ff" stroke="#63b8ff" points="786.43,-524.75 796.43,-521.25 786.43,-517.75 786.43,-524.75"/>
</a>
</g>
</g>
<!-- Node5&#45;&gt;Node5 -->
<g id="edge7_Node000005_Node000005" class="edge">
<title>Node5&#45;&gt;Node5</title>
<g id="a_edge7_Node000005_Node000005"><a xlink:title=" ">
<path fill="none" stroke="#63b8ff" d="M699.55,-548.2C694.27,-551.97 683.5,-554.5 667.25,-554.5 637.53,-554.5 626.15,-546.06 633.12,-536.99"/>
<polygon fill="#63b8ff" stroke="#63b8ff" points="702.98,-548.91 701.14,-538.48 696.08,-547.79 702.98,-548.91"/>
</a>
</g>
</g>
<!-- Node6&#45;&gt;Node6 -->
<g id="edge13_Node000006_Node000006" class="edge">
<title>Node6&#45;&gt;Node6</title>
<g id="a_edge13_Node000006_Node000006"><a xlink:title=" ">
<path fill="none" stroke="#63b8ff" d="M906.3,-381.2C901.1,-384.97 890.5,-387.5 874.5,-387.5 845.24,-387.5 834.04,-379.06 840.9,-369.99"/>
<polygon fill="#63b8ff" stroke="#63b8ff" points="909.73,-381.91 907.86,-371.48 902.82,-380.8 909.73,-381.91"/>
</a>
</g>
</g>
<!-- Node7 -->
<g id="Node000007" class="node">
<title>Node7</title>
<g id="a_Node000007"><a xlink:href="class_a_q_n_w_b_1_1_n_w_b_1_1_device.html#a2ad7fb2e8436a7accfce35978d962b74" target="_top" xlink:title="Constructor.">
<polygon fill="white" stroke="#666666" points="727.75,-469.5 606.75,-469.5 606.75,-439 727.75,-439 727.75,-469.5"/>
<text xml:space="preserve" text-anchor="start" x="614.75" y="-456" font-family="Helvetica,sans-Serif" font-size="10.00">AQNWB::NWB::Device</text>
<text xml:space="preserve" text-anchor="middle" x="667.25" y="-444.75" font-family="Helvetica,sans-Serif" font-size="10.00">::Device</text>
</a>
</g>
</g>
<!-- Node6&#45;&gt;Node7 -->
<g id="edge9_Node000006_Node000007" class="edge">
<title>Node6&#45;&gt;Node7</title>
<g id="a_edge9_Node000006_Node000007"><a xlink:title=" ">
<path fill="none" stroke="#63b8ff" d="M843.13,-376.63C819.73,-393.03 786.06,-414.85 754,-429.25 745.8,-432.93 736.91,-436.23 728.07,-439.13"/>
<polygon fill="#63b8ff" stroke="#63b8ff" points="845.14,-379.5 851.26,-370.85 841.08,-373.79 845.14,-379.5"/>
</a>
</g>
</g>
<!-- Node8 -->
<g id="Node000008" class="node">
<title>Node8</title>
<g id="a_Node000008"><a xlink:href="class_a_q_n_w_b_1_1_n_w_b_1_1_electrode_group.html#a7cfae9f37d17f90486921d0b6445a9cd" target="_top" xlink:title="Constructor.">
<polygon fill="white" stroke="#666666" points="746.12,-402.5 588.38,-402.5 588.38,-372 746.12,-372 746.12,-402.5"/>
<text xml:space="preserve" text-anchor="start" x="596.38" y="-389" font-family="Helvetica,sans-Serif" font-size="10.00">AQNWB::NWB::ElectrodeGroup</text>
<text xml:space="preserve" text-anchor="middle" x="667.25" y="-377.75" font-family="Helvetica,sans-Serif" font-size="10.00">::ElectrodeGroup</text>
</a>
</g>
</g>
<!-- Node6&#45;&gt;Node8 -->
<g id="edge11_Node000006_Node000008" class="edge">
<title>Node6&#45;&gt;Node8</title>
<g id="a_edge11_Node000006_Node000008"><a xlink:title=" ">
<path fill="none" stroke="#63b8ff" d="M784.75,-368.52C771.96,-370.58 758.87,-372.68 746.3,-374.7"/>
<polygon fill="#63b8ff" stroke="#63b8ff" points="785.09,-372.01 794.41,-366.97 783.98,-365.1 785.09,-372.01"/>
</a>
</g>
</g>
<!-- Node9 -->
<g id="Node000009" class="node">
<title>Node9</title>
<g id="a_Node000009"><a xlink:href="class_a_q_n_w_b_1_1_n_w_b_1_1_n_w_b_data_interface.html#ae4bdb41408c2564c06438e0c5aed3531" target="_top" xlink:title="Constructor.">
<polygon fill="white" stroke="#666666" points="754,-335.5 580.5,-335.5 580.5,-305 754,-305 754,-335.5"/>
<text xml:space="preserve" text-anchor="start" x="588.5" y="-322" font-family="Helvetica,sans-Serif" font-size="10.00">AQNWB::NWB::NWBDataInterface</text>
<text xml:space="preserve" text-anchor="middle" x="667.25" y="-310.75" font-family="Helvetica,sans-Serif" font-size="10.00">::NWBDataInterface</text>
</a>
</g>
</g>
<!-- Node6&#45;&gt;Node9 -->
<g id="edge14_Node000006_Node000009" class="edge">
<title>Node6&#45;&gt;Node9</title>
<g id="a_edge14_Node000006_Node000009"><a xlink:title=" ">
<path fill="none" stroke="#63b8ff" d="M784.61,-339.53C774.52,-337.85 764.25,-336.15 754.2,-334.49"/>
<polygon fill="#63b8ff" stroke="#63b8ff" points="783.97,-342.97 794.41,-341.15 785.12,-336.06 783.97,-342.97"/>
</a>
</g>
</g>
<!-- Node16 -->
<g id="Node000016" class="node">
<title>Node16</title>
<g id="a_Node000016"><a xlink:href="class_a_q_n_w_b_1_1_n_w_b_1_1_n_w_b_file.html#af62a01f10675b8fdd310f60f48cf23fe" target="_top" xlink:title="Required constructor so we can call RegisteredType::create but the path cannot be set.">
<polygon fill="white" stroke="#666666" points="732.25,-286.5 602.25,-286.5 602.25,-256 732.25,-256 732.25,-286.5"/>
<text xml:space="preserve" text-anchor="start" x="610.25" y="-273" font-family="Helvetica,sans-Serif" font-size="10.00">AQNWB::NWB::NWBFile</text>
<text xml:space="preserve" text-anchor="middle" x="667.25" y="-261.75" font-family="Helvetica,sans-Serif" font-size="10.00">::NWBFile</text>
</a>
</g>
</g>
<!-- Node6&#45;&gt;Node16 -->
<g id="edge25_Node000006_Node000016" class="edge">
<title>Node6&#45;&gt;Node16</title>
<g id="a_edge25_Node000006_Node000016"><a xlink:title=" ">
<path fill="none" stroke="#63b8ff" d="M799.85,-334.29C796.46,-332.72 793.16,-331.04 790,-329.25 771.13,-318.53 772.91,-306.9 754,-296.25 747.24,-292.45 739.86,-289.17 732.34,-286.37"/>
<polygon fill="#63b8ff" stroke="#63b8ff" points="798.25,-337.41 808.82,-338.07 800.97,-330.96 798.25,-337.41"/>
</a>
</g>
</g>
<!-- Node17 -->
<g id="Node000017" class="node">
<title>Node17</title>
<g id="a_Node000017"><a xlink:href="class_a_q_n_w_b_1_1_n_w_b_1_1_n_w_b_file.html#a277f89c64204a61491bb26ad309186f3" target="_top" xlink:title="Constructor for NWBFile class.">
<polygon fill="white" stroke="#666666" points="732.25,-219.5 602.25,-219.5 602.25,-189 732.25,-189 732.25,-219.5"/>
<text xml:space="preserve" text-anchor="start" x="610.25" y="-206" font-family="Helvetica,sans-Serif" font-size="10.00">AQNWB::NWB::NWBFile</text>
<text xml:space="preserve" text-anchor="middle" x="667.25" y="-194.75" font-family="Helvetica,sans-Serif" font-size="10.00">::NWBFile</text>
</a>
</g>
</g>
<!-- Node6&#45;&gt;Node17 -->
<g id="edge26_Node000006_Node000017" class="edge">
<title>Node6&#45;&gt;Node17</title>
<g id="a_edge26_Node000006_Node000017"><a xlink:title=" ">
<path fill="none" stroke="#63b8ff" d="M793.97,-332.48C792.6,-331.45 791.28,-330.38 790,-329.25 760.18,-302.89 781.42,-276.1 754,-247.25 742.87,-235.54 727.87,-226.53 713.52,-219.85"/>
<polygon fill="#63b8ff" stroke="#63b8ff" points="791.94,-335.34 802.26,-337.77 795.71,-329.44 791.94,-335.34"/>
</a>
</g>
</g>
<!-- Node7&#45;&gt;Node7 -->
<g id="edge10_Node000007_Node000007" class="edge">
<title>Node7&#45;&gt;Node7</title>
<g id="a_edge10_Node000007_Node000007"><a xlink:title=" ">
<path fill="none" stroke="#63b8ff" d="M699.55,-481.2C694.27,-484.97 683.5,-487.5 667.25,-487.5 637.53,-487.5 626.15,-479.06 633.12,-469.99"/>
<polygon fill="#63b8ff" stroke="#63b8ff" points="702.98,-481.91 701.14,-471.48 696.08,-480.79 702.98,-481.91"/>
</a>
</g>
</g>
<!-- Node8&#45;&gt;Node8 -->
<g id="edge12_Node000008_Node000008" class="edge">
<title>Node8&#45;&gt;Node8</title>
<g id="a_edge12_Node000008_Node000008"><a xlink:title=" ">
<path fill="none" stroke="#63b8ff" d="M699.55,-414.2C694.27,-417.97 683.5,-420.5 667.25,-420.5 637.53,-420.5 626.15,-412.06 633.12,-402.99"/>
<polygon fill="#63b8ff" stroke="#63b8ff" points="702.98,-414.91 701.14,-404.48 696.08,-413.79 702.98,-414.91"/>
</a>
</g>
</g>
<!-- Node9&#45;&gt;Node9 -->
<g id="edge15_Node000009_Node000009" class="edge">
<title>Node9&#45;&gt;Node9</title>
<g id="a_edge15_Node000009_Node000009"><a xlink:title=" ">
<path fill="none" stroke="#63b8ff" d="M699.55,-347.2C694.27,-350.97 683.5,-353.5 667.25,-353.5 637.53,-353.5 626.15,-345.06 633.12,-335.99"/>
<polygon fill="#63b8ff" stroke="#63b8ff" points="702.98,-347.91 701.14,-337.48 696.08,-346.79 702.98,-347.91"/>
</a>
</g>
</g>
<!-- Node10 -->
<g id="Node000010" class="node">
<title>Node10</title>
<g id="a_Node000010"><a xlink:href="class_a_q_n_w_b_1_1_n_w_b_1_1_time_series.html#a523738fd2da4b70707e4ee6844cdce02" target="_top" xlink:title="Constructor.">
<polygon fill="white" stroke="#666666" points="544.5,-335.5 404.75,-335.5 404.75,-305 544.5,-305 544.5,-335.5"/>
<text xml:space="preserve" text-anchor="start" x="412.75" y="-322" font-family="Helvetica,sans-Serif" font-size="10.00">AQNWB::NWB::TimeSeries</text>
<text xml:space="preserve" text-anchor="middle" x="474.62" y="-310.75" font-family="Helvetica,sans-Serif" font-size="10.00">::TimeSeries</text>
</a>
</g>
</g>
<!-- Node9&#45;&gt;Node10 -->
<g id="edge16_Node000009_Node000010" class="edge">
<title>Node9&#45;&gt;Node10</title>
<g id="a_edge16_Node000009_Node000010"><a xlink:title=" ">
<path fill="none" stroke="#63b8ff" d="M568.73,-320.25C560.65,-320.25 552.59,-320.25 544.79,-320.25"/>
<polygon fill="#63b8ff" stroke="#63b8ff" points="568.63,-323.75 578.63,-320.25 568.63,-316.75 568.63,-323.75"/>
</a>
</g>
</g>
<!-- Node11 -->
<g id="Node000011" class="node">
<title>Node11</title>
<g id="a_Node000011"><a xlink:href="class_a_q_n_w_b_1_1_n_w_b_1_1_annotation_series.html#ab98f231850a75a82fade2234e8606359" target="_top" xlink:title="Constructor.">
<polygon fill="white" stroke="#666666" points="368.75,-402.5 204.25,-402.5 204.25,-372 368.75,-372 368.75,-402.5"/>
<text xml:space="preserve" text-anchor="start" x="212.25" y="-389" font-family="Helvetica,sans-Serif" font-size="10.00">AQNWB::NWB::AnnotationSeries</text>
<text xml:space="preserve" text-anchor="middle" x="286.5" y="-377.75" font-family="Helvetica,sans-Serif" font-size="10.00">::AnnotationSeries</text>
</a>
</g>
</g>
<!-- Node10&#45;&gt;Node11 -->
<g id="edge17_Node000010_Node000011" class="edge">
<title>Node10&#45;&gt;Node11</title>
<g id="a_edge17_Node000010_Node000011"><a xlink:title=" ">
<path fill="none" stroke="#63b8ff" d="M426.09,-340.25C408.23,-347.51 387.68,-355.56 368.75,-362.25 359.71,-365.45 350.02,-368.63 340.59,-371.6"/>
<polygon fill="#63b8ff" stroke="#63b8ff" points="427.21,-343.57 435.13,-336.54 424.55,-337.1 427.21,-343.57"/>
</a>
</g>
</g>
<!-- Node12 -->
<g id="Node000012" class="node">
<title>Node12</title>
<g id="a_Node000012"><a xlink:href="class_a_q_n_w_b_1_1_n_w_b_1_1_electrical_series.html#a684a7b01cb955d7335f07d5eaab2250b" target="_top" xlink:title="Constructor.">
<polygon fill="white" stroke="#666666" points="365.75,-335.5 207.25,-335.5 207.25,-305 365.75,-305 365.75,-335.5"/>
<text xml:space="preserve" text-anchor="start" x="215.25" y="-322" font-family="Helvetica,sans-Serif" font-size="10.00">AQNWB::NWB::ElectricalSeries</text>
<text xml:space="preserve" text-anchor="middle" x="286.5" y="-310.75" font-family="Helvetica,sans-Serif" font-size="10.00">::ElectricalSeries</text>
</a>
</g>
</g>
<!-- Node10&#45;&gt;Node12 -->
<g id="edge19_Node000010_Node000012" class="edge">
<title>Node10&#45;&gt;Node12</title>
<g id="a_edge19_Node000010_Node000012"><a xlink:title=" ">
<path fill="none" stroke="#63b8ff" d="M393.04,-320.25C384.06,-320.25 374.91,-320.25 365.95,-320.25"/>
<polygon fill="#63b8ff" stroke="#63b8ff" points="392.81,-323.75 402.81,-320.25 392.81,-316.75 392.81,-323.75"/>
</a>
</g>
</g>
<!-- Node14 -->
<g id="Node000014" class="node">
<title>Node14</title>
<g id="a_Node000014"><a xlink:href="class_a_q_n_w_b_1_1_n_w_b_1_1_time_series.html#ab2eeb7e016b23097674627251e5e5ac7" target="_top" xlink:title=" ">
<polygon fill="white" stroke="#666666" points="356.38,-286.5 216.62,-286.5 216.62,-256 356.38,-256 356.38,-286.5"/>
<text xml:space="preserve" text-anchor="start" x="224.62" y="-273" font-family="Helvetica,sans-Serif" font-size="10.00">AQNWB::NWB::TimeSeries</text>
<text xml:space="preserve" text-anchor="middle" x="286.5" y="-261.75" font-family="Helvetica,sans-Serif" font-size="10.00">::readComments</text>
</a>
</g>
</g>
<!-- Node10&#45;&gt;Node14 -->
<g id="edge23_Node000010_Node000014" class="edge">
<title>Node10&#45;&gt;Node14</title>
<g id="a_edge23_Node000010_Node000014"><a xlink:title=" ">
<path fill="none" stroke="#63b8ff" d="M402.99,-301.66C384.58,-296.81 364.92,-291.63 347.14,-286.95"/>
<polygon fill="#63b8ff" stroke="#63b8ff" points="401.94,-305 412.5,-304.16 403.72,-298.23 401.94,-305"/>
</a>
</g>
</g>
<!-- Node11&#45;&gt;Node11 -->
<g id="edge18_Node000011_Node000011" class="edge">
<title>Node11&#45;&gt;Node11</title>
<g id="a_edge18_Node000011_Node000011"><a xlink:title=" ">
<path fill="none" stroke="#63b8ff" d="M318.05,-414.2C312.89,-417.97 302.37,-420.5 286.5,-420.5 257.47,-420.5 246.36,-412.06 253.16,-402.99"/>
<polygon fill="#63b8ff" stroke="#63b8ff" points="321.48,-414.91 319.6,-404.48 314.57,-413.81 321.48,-414.91"/>
</a>
</g>
</g>
<!-- Node12&#45;&gt;Node12 -->
<g id="edge20_Node000012_Node000012" class="edge">
<title>Node12&#45;&gt;Node12</title>
<g id="a_edge20_Node000012_Node000012"><a xlink:title=" ">
<path fill="none" stroke="#63b8ff" d="M318.05,-347.2C312.89,-350.97 302.37,-353.5 286.5,-353.5 257.47,-353.5 246.36,-345.06 253.16,-335.99"/>
<polygon fill="#63b8ff" stroke="#63b8ff" points="321.48,-347.91 319.6,-337.48 314.57,-346.81 321.48,-347.91"/>
</a>
</g>
</g>
<!-- Node13 -->
<g id="Node000013" class="node">
<title>Node13</title>
<g id="a_Node000013"><a xlink:href="class_a_q_n_w_b_1_1_n_w_b_1_1_spike_event_series.html#af5b323ae3afbdf308f151cf233b2c0db" target="_top" xlink:title="Constructor.">
<polygon fill="white" stroke="#666666" points="168.25,-335.5 0,-335.5 0,-305 168.25,-305 168.25,-335.5"/>
<text xml:space="preserve" text-anchor="start" x="8" y="-322" font-family="Helvetica,sans-Serif" font-size="10.00">AQNWB::NWB::SpikeEventSeries</text>
<text xml:space="preserve" text-anchor="middle" x="84.12" y="-310.75" font-family="Helvetica,sans-Serif" font-size="10.00">::SpikeEventSeries</text>
</a>
</g>
</g>
<!-- Node12&#45;&gt;Node13 -->
<g id="edge21_Node000012_Node000013" class="edge">
<title>Node12&#45;&gt;Node13</title>
<g id="a_edge21_Node000012_Node000013"><a xlink:title=" ">
<path fill="none" stroke="#63b8ff" d="M195.55,-320.25C186.54,-320.25 177.41,-320.25 168.47,-320.25"/>
<polygon fill="#63b8ff" stroke="#63b8ff" points="195.37,-323.75 205.37,-320.25 195.37,-316.75 195.37,-323.75"/>
</a>
</g>
</g>
<!-- Node13&#45;&gt;Node13 -->
<g id="edge22_Node000013_Node000013" class="edge">
<title>Node13&#45;&gt;Node13</title>
<g id="a_edge22_Node000013_Node000013"><a xlink:title=" ">
<path fill="none" stroke="#63b8ff" d="M118.06,-347.2C112.51,-350.97 101.2,-353.5 84.12,-353.5 52.9,-353.5 40.95,-345.06 48.26,-335.99"/>
<polygon fill="#63b8ff" stroke="#63b8ff" points="121.49,-347.93 119.73,-337.48 114.59,-346.74 121.49,-347.93"/>
</a>
</g>
</g>
<!-- Node15 -->
<g id="Node000015" class="node">
<title>Node15</title>
<g id="a_Node000015"><a xlink:href="class_a_q_n_w_b_1_1_n_w_b_1_1_time_series.html#ae2a561b2f5a56f86f8794bdfdd07f422" target="_top" xlink:title=" ">
<polygon fill="white" stroke="#666666" points="154,-286.5 14.25,-286.5 14.25,-256 154,-256 154,-286.5"/>
<text xml:space="preserve" text-anchor="start" x="22.25" y="-273" font-family="Helvetica,sans-Serif" font-size="10.00">AQNWB::NWB::TimeSeries</text>
<text xml:space="preserve" text-anchor="middle" x="84.12" y="-261.75" font-family="Helvetica,sans-Serif" font-size="10.00">::readDescription</text>
</a>
</g>
</g>
<!-- Node14&#45;&gt;Node15 -->
<g id="edge24_Node000014_Node000015" class="edge">
<title>Node14&#45;&gt;Node15</title>
<g id="a_edge24_Node000014_Node000015"><a xlink:title=" ">
<path fill="none" stroke="#63b8ff" d="M204.83,-271.25C188.11,-271.25 170.63,-271.25 154.37,-271.25"/>
<polygon fill="#63b8ff" stroke="#63b8ff" points="204.75,-274.75 214.75,-271.25 204.75,-267.75 204.75,-274.75"/>
</a>
</g>
</g>
<!-- Node17&#45;&gt;Node17 -->
<g id="edge28_Node000017_Node000017" class="edge">
<title>Node17&#45;&gt;Node17</title>
<g id="a_edge28_Node000017_Node000017"><a xlink:title=" ">
<path fill="none" stroke="#63b8ff" d="M699.55,-231.2C694.27,-234.97 683.5,-237.5 667.25,-237.5 637.53,-237.5 626.15,-229.06 633.12,-219.99"/>
<polygon fill="#63b8ff" stroke="#63b8ff" points="702.98,-231.91 701.14,-221.48 696.08,-230.79 702.98,-231.91"/>
</a>
</g>
</g>
<!-- Node18 -->
<g id="Node000018" class="node">
<title>Node18</title>
<g id="a_Node000018"><a xlink:href="class_a_q_n_w_b_1_1_n_w_b_1_1_n_w_b_file.html#a4639155769006a79b189cdb7634bbaa5" target="_top" xlink:title="Deleted copy constructor to prevent construction&#45;copying.">
<polygon fill="white" stroke="#666666" points="539.62,-243.5 409.62,-243.5 409.62,-213 539.62,-213 539.62,-243.5"/>
<text xml:space="preserve" text-anchor="start" x="417.62" y="-230" font-family="Helvetica,sans-Serif" font-size="10.00">AQNWB::NWB::NWBFile</text>
<text xml:space="preserve" text-anchor="middle" x="474.62" y="-218.75" font-family="Helvetica,sans-Serif" font-size="10.00">::NWBFile</text>
</a>
</g>
</g>
<!-- Node17&#45;&gt;Node18 -->
<g id="edge27_Node000017_Node000018" class="edge">
<title>Node17&#45;&gt;Node18</title>
<g id="a_edge27_Node000017_Node000018"><a xlink:title=" ">
<path fill="none" stroke="#63b8ff" d="M591.03,-213.72C574.13,-215.85 556.35,-218.09 539.94,-220.15"/>
<polygon fill="#63b8ff" stroke="#63b8ff" points="590.99,-217.25 600.48,-212.53 590.12,-210.31 590.99,-217.25"/>
</a>
</g>
</g>
<!-- Node19 -->
<g id="Node000019" class="node">
<title>Node19</title>
<g id="a_Node000019"><a xlink:href="class_a_q_n_w_b_1_1_n_w_b_1_1_n_w_b_file.html#a941d5b775441fac6c787cd55a8276461" target="_top" xlink:title="Deleted copy assignment operator to prevent copying.">
<polygon fill="white" stroke="#666666" points="539.62,-194.5 409.62,-194.5 409.62,-164 539.62,-164 539.62,-194.5"/>
<text xml:space="preserve" text-anchor="start" x="417.62" y="-181" font-family="Helvetica,sans-Serif" font-size="10.00">AQNWB::NWB::NWBFile</text>
<text xml:space="preserve" text-anchor="middle" x="474.62" y="-169.75" font-family="Helvetica,sans-Serif" font-size="10.00">::operator=</text>
</a>
</g>
</g>
<!-- Node17&#45;&gt;Node19 -->
<g id="edge29_Node000017_Node000019" class="edge">
<title>Node17&#45;&gt;Node19</title>
<g id="a_edge29_Node000017_Node000019"><a xlink:title=" ">
<path fill="none" stroke="#63b8ff" d="M591.03,-194.38C574.13,-192.17 556.35,-189.84 539.94,-187.68"/>
<polygon fill="#63b8ff" stroke="#63b8ff" points="590.11,-197.79 600.48,-195.62 591.02,-190.85 590.11,-197.79"/>
</a>
</g>
</g>
<!-- Node20&#45;&gt;Node20 -->
<g id="edge31_Node000020_Node000020" class="edge">
<title>Node20&#45;&gt;Node20</title>
<g id="a_edge31_Node000020_Node000020"><a xlink:title=" ">
<path fill="none" stroke="#63b8ff" d="M1097.49,-234.6C1093.98,-238.83 1082.86,-241.88 1064.12,-241.88 1031.72,-241.88 1022.09,-232.77 1035.26,-224.16"/>
<polygon fill="#63b8ff" stroke="#63b8ff" points="1100.76,-233.35 1093.59,-225.55 1094.33,-236.12 1100.76,-233.35"/>
</a>
</g>
</g>
<!-- Node21 -->
<g id="Node000021" class="node">
<title>Node21</title>
<g id="a_Node000021"><a xlink:href="class_a_q_n_w_b_1_1_n_w_b_1_1_data_typed.html#a3a4fcbb17231aaebae71044026f34c46" target="_top" xlink:title="Constructor.">
<polygon fill="white" stroke="#666666" points="943.25,-320.5 805.75,-320.5 805.75,-290 943.25,-290 943.25,-320.5"/>
<text xml:space="preserve" text-anchor="start" x="813.75" y="-307" font-family="Helvetica,sans-Serif" font-size="10.00">AQNWB::NWB::DataTyped</text>
<text xml:space="preserve" text-anchor="middle" x="874.5" y="-295.75" font-family="Helvetica,sans-Serif" font-size="10.00">::DataTyped</text>
</a>
</g>
</g>
<!-- Node20&#45;&gt;Node21 -->
<g id="edge32_Node000020_Node000021" class="edge">
<title>Node20&#45;&gt;Node21</title>
<g id="a_edge32_Node000020_Node000021"><a xlink:title=" ">
<path fill="none" stroke="#63b8ff" d="M1040.92,-230.87C1020.51,-245.51 988.95,-266.59 959,-280.25 951.43,-283.7 943.25,-286.83 935.09,-289.6"/>
<polygon fill="#63b8ff" stroke="#63b8ff" points="1042.75,-233.87 1048.77,-225.15 1038.63,-228.21 1042.75,-233.87"/>
</a>
</g>
</g>
<!-- Node22 -->
<g id="Node000022" class="node">
<title>Node22</title>
<g id="a_Node000022"><a xlink:href="class_a_q_n_w_b_1_1_n_w_b_1_1_element_identifiers.html#a40f8d890a3fd976858bedc91e08fd745" target="_top" xlink:title="Constructor.">
<polygon fill="white" stroke="#666666" points="959,-253.5 790,-253.5 790,-223 959,-223 959,-253.5"/>
<text xml:space="preserve" text-anchor="start" x="798" y="-240" font-family="Helvetica,sans-Serif" font-size="10.00">AQNWB::NWB::ElementIdentifiers</text>
<text xml:space="preserve" text-anchor="middle" x="874.5" y="-228.75" font-family="Helvetica,sans-Serif" font-size="10.00">::ElementIdentifiers</text>
</a>
</g>
</g>
<!-- Node20&#45;&gt;Node22 -->
<g id="edge33_Node000020_Node000022" class="edge">
<title>Node20&#45;&gt;Node22</title>
<g id="a_edge33_Node000020_Node000022"><a xlink:title=" ">
<path fill="none" stroke="#63b8ff" d="M983.21,-224.47C975.36,-225.48 967.38,-226.5 959.49,-227.51"/>
<polygon fill="#63b8ff" stroke="#63b8ff" points="983.62,-227.95 993.09,-223.21 982.73,-221.01 983.62,-227.95"/>
</a>
</g>
</g>
<!-- Node23 -->
<g id="Node000023" class="node">
<title>Node23</title>
<g id="a_Node000023"><a xlink:href="class_a_q_n_w_b_1_1_n_w_b_1_1_data_typed.html#a247e987f2485aa3dc1d3d0c482cf4160" target="_top" xlink:title="Create a DataTyped object from a Data object.">
<polygon fill="white" stroke="#666666" points="943.25,-204.5 805.75,-204.5 805.75,-174 943.25,-174 943.25,-204.5"/>
<text xml:space="preserve" text-anchor="start" x="813.75" y="-191" font-family="Helvetica,sans-Serif" font-size="10.00">AQNWB::NWB::DataTyped</text>
<text xml:space="preserve" text-anchor="middle" x="874.5" y="-179.75" font-family="Helvetica,sans-Serif" font-size="10.00">::fromData</text>
</a>
</g>
</g>
<!-- Node20&#45;&gt;Node23 -->
<g id="edge35_Node000020_Node000023" class="edge">
<title>Node20&#45;&gt;Node23</title>
<g id="a_edge35_Node000020_Node000023"><a xlink:title=" ">
<path fill="none" stroke="#63b8ff" d="M983.53,-203.64C970.22,-201.87 956.52,-200.05 943.53,-198.32"/>
<polygon fill="#63b8ff" stroke="#63b8ff" points="982.72,-207.07 993.09,-204.92 983.64,-200.13 982.72,-207.07"/>
</a>
</g>
</g>
<!-- Node24 -->
<g id="Node000024" class="node">
<title>Node24</title>
<g id="a_Node000024"><a xlink:href="class_a_q_n_w_b_1_1_n_w_b_1_1_n_w_b_data.html#af1e7242a1cdebd3235d105b77bfdb7d4" target="_top" xlink:title="Constructor.">
<polygon fill="white" stroke="#666666" points="942.12,-137.5 806.88,-137.5 806.88,-107 942.12,-107 942.12,-137.5"/>
<text xml:space="preserve" text-anchor="start" x="814.88" y="-124" font-family="Helvetica,sans-Serif" font-size="10.00">AQNWB::NWB::NWBData</text>
<text xml:space="preserve" text-anchor="middle" x="874.5" y="-112.75" font-family="Helvetica,sans-Serif" font-size="10.00">::NWBData</text>
</a>
</g>
</g>
<!-- Node20&#45;&gt;Node24 -->
<g id="edge36_Node000020_Node000024" class="edge">
<title>Node20&#45;&gt;Node24</title>
<g id="a_edge36_Node000020_Node000024"><a xlink:title=" ">
<path fill="none" stroke="#63b8ff" d="M1032.75,-199.35C998.34,-182.48 942.52,-155.11 907.47,-137.93"/>
<polygon fill="#63b8ff" stroke="#63b8ff" points="1030.81,-202.3 1041.33,-203.56 1033.89,-196.02 1030.81,-202.3"/>
</a>
</g>
</g>
<!-- Node26 -->
<g id="Node000026" class="node">
<title>Node26</title>
<g id="a_Node000026"><a xlink:href="class_a_q_n_w_b_1_1_n_w_b_1_1_vector_data.html#aaf127dfd1e590307b872ea785d578316" target="_top" xlink:title="Constructor.">
<polygon fill="white" stroke="#666666" points="944.38,-70.5 804.62,-70.5 804.62,-40 944.38,-40 944.38,-70.5"/>
<text xml:space="preserve" text-anchor="start" x="812.62" y="-57" font-family="Helvetica,sans-Serif" font-size="10.00">AQNWB::NWB::VectorData</text>
<text xml:space="preserve" text-anchor="middle" x="874.5" y="-45.75" font-family="Helvetica,sans-Serif" font-size="10.00">::VectorData</text>
</a>
</g>
</g>
<!-- Node20&#45;&gt;Node26 -->
<g id="edge39_Node000020_Node000026" class="edge">
<title>Node20&#45;&gt;Node26</title>
<g id="a_edge39_Node000020_Node000026"><a xlink:title=" ">
<path fill="none" stroke="#63b8ff" d="M1049.4,-195.04C1030.99,-170.28 996.28,-127.03 959,-98.25 945.06,-87.49 928.02,-78.15 912.98,-70.96"/>
<polygon fill="#63b8ff" stroke="#63b8ff" points="1046.42,-196.9 1055.15,-202.91 1052.08,-192.77 1046.42,-196.9"/>
</a>
</g>
</g>
<!-- Node22&#45;&gt;Node22 -->
<g id="edge34_Node000022_Node000022" class="edge">
<title>Node22&#45;&gt;Node22</title>
<g id="a_edge34_Node000022_Node000022"><a xlink:title=" ">
<path fill="none" stroke="#63b8ff" d="M906.3,-265.2C901.1,-268.97 890.5,-271.5 874.5,-271.5 845.24,-271.5 834.04,-263.06 840.9,-253.99"/>
<polygon fill="#63b8ff" stroke="#63b8ff" points="909.73,-265.91 907.86,-255.48 902.82,-264.8 909.73,-265.91"/>
</a>
</g>
</g>
<!-- Node24&#45;&gt;Node24 -->
<g id="edge37_Node000024_Node000024" class="edge">
<title>Node24&#45;&gt;Node24</title>
<g id="a_edge37_Node000024_Node000024"><a xlink:title=" ">
<path fill="none" stroke="#63b8ff" d="M906.3,-149.2C901.1,-152.97 890.5,-155.5 874.5,-155.5 845.24,-155.5 834.04,-147.06 840.9,-137.99"/>
<polygon fill="#63b8ff" stroke="#63b8ff" points="909.73,-149.91 907.86,-139.48 902.82,-148.8 909.73,-149.91"/>
</a>
</g>
</g>
<!-- Node25 -->
<g id="Node000025" class="node">
<title>Node25</title>
<g id="a_Node000025"><a xlink:href="class_a_q_n_w_b_1_1_n_w_b_1_1_n_w_b_data_typed.html#a18ff20ec573f8450149cf97b3869a0ed" target="_top" xlink:title="Constructor.">
<polygon fill="white" stroke="#666666" points="748,-137.5 586.5,-137.5 586.5,-107 748,-107 748,-137.5"/>
<text xml:space="preserve" text-anchor="start" x="594.5" y="-124" font-family="Helvetica,sans-Serif" font-size="10.00">AQNWB::NWB::NWBDataTyped</text>
<text xml:space="preserve" text-anchor="middle" x="667.25" y="-112.75" font-family="Helvetica,sans-Serif" font-size="10.00">::NWBDataTyped</text>
</a>
</g>
</g>
<!-- Node24&#45;&gt;Node25 -->
<g id="edge38_Node000024_Node000025" class="edge">
<title>Node24&#45;&gt;Node25</title>
<g id="a_edge38_Node000024_Node000025"><a xlink:title=" ">
<path fill="none" stroke="#63b8ff" d="M795.5,-122.25C780.06,-122.25 763.82,-122.25 748.32,-122.25"/>
<polygon fill="#63b8ff" stroke="#63b8ff" points="795.06,-125.75 805.06,-122.25 795.06,-118.75 795.06,-125.75"/>
</a>
</g>
</g>
<!-- Node26&#45;&gt;Node26 -->
<g id="edge41_Node000026_Node000026" class="edge">
<title>Node26&#45;&gt;Node26</title>
<g id="a_edge41_Node000026_Node000026"><a xlink:title=" ">
<path fill="none" stroke="#63b8ff" d="M906.3,-82.2C901.1,-85.97 890.5,-88.5 874.5,-88.5 845.24,-88.5 834.04,-80.06 840.9,-70.99"/>
<polygon fill="#63b8ff" stroke="#63b8ff" points="909.73,-82.91 907.86,-72.48 902.82,-81.8 909.73,-82.91"/>
</a>
</g>
</g>
<!-- Node27 -->
<g id="Node000027" class="node">
<title>Node27</title>
<g id="a_Node000027"><a xlink:href="class_a_q_n_w_b_1_1_n_w_b_1_1_vector_data_typed.html#a261537d26d0c1b0667780738d010906c" target="_top" xlink:title="Create a VectorDataTyped object from a Data object.">
<polygon fill="white" stroke="#666666" points="750.25,-79.5 584.25,-79.5 584.25,-49 750.25,-49 750.25,-79.5"/>
<text xml:space="preserve" text-anchor="start" x="592.25" y="-66" font-family="Helvetica,sans-Serif" font-size="10.00">AQNWB::NWB::VectorDataTyped</text>
<text xml:space="preserve" text-anchor="middle" x="667.25" y="-54.75" font-family="Helvetica,sans-Serif" font-size="10.00">::fromVectorData</text>
</a>
</g>
</g>
<!-- Node26&#45;&gt;Node27 -->
<g id="edge40_Node000026_Node000027" class="edge">
<title>Node26&#45;&gt;Node27</title>
<g id="a_edge40_Node000026_Node000027"><a xlink:title=" ">
<path fill="none" stroke="#63b8ff" d="M792.82,-58.79C778.96,-59.4 764.55,-60.03 750.65,-60.64"/>
<polygon fill="#63b8ff" stroke="#63b8ff" points="792.95,-62.29 802.79,-58.35 792.64,-55.29 792.95,-62.29"/>
</a>
</g>
</g>
<!-- Node28 -->
<g id="Node000028" class="node">
<title>Node28</title>
<g id="a_Node000028"><a xlink:href="class_a_q_n_w_b_1_1_n_w_b_1_1_vector_data_typed.html#ae1574fc67b4fc214d68267283d5b2dbf" target="_top" xlink:title="Constructor.">
<polygon fill="white" stroke="#666666" points="750.25,-30.5 584.25,-30.5 584.25,0 750.25,0 750.25,-30.5"/>
<text xml:space="preserve" text-anchor="start" x="592.25" y="-17" font-family="Helvetica,sans-Serif" font-size="10.00">AQNWB::NWB::VectorDataTyped</text>
<text xml:space="preserve" text-anchor="middle" x="667.25" y="-5.75" font-family="Helvetica,sans-Serif" font-size="10.00">::VectorDataTyped</text>
</a>
</g>
</g>
<!-- Node26&#45;&gt;Node28 -->
<g id="edge42_Node000026_Node000028" class="edge">
<title>Node26&#45;&gt;Node28</title>
<g id="a_edge42_Node000026_Node000028"><a xlink:title=" ">
<path fill="none" stroke="#63b8ff" d="M793.28,-39.62C778.69,-36.77 763.46,-33.8 748.85,-30.96"/>
<polygon fill="#63b8ff" stroke="#63b8ff" points="792.33,-43 802.81,-41.47 793.67,-36.13 792.33,-43"/>
</a>
</g>
</g>
</g>
</svg>

<g id="navigator" transform="translate(0 0)" fill="#404254">
  <rect fill="#f2f5e9" fill-opacity="0.5" stroke="#606060" stroke-width=".5" x="0" y="0" width="60" height="60"/>
  <use id="zoomplus" xlink:href="#zoomPlus" x="17" y="9" onmousedown="handleZoom(evt,'in')"/>
  <use id="zoomminus" xlink:href="#zoomMin" x="42" y="9" onmousedown="handleZoom(evt,'out')"/>
  <use id="reset" xlink:href="#resetDef" x="30" y="36" onmousedown="handleReset()"/>
   <use id="arrowup" xlink:href="#arrowUp" x="0" y="0" onmousedown="handlePan(0,-1)"/>
  <use id="arrowright" xlink:href="#arrowRight" x="0" y="0" onmousedown="handlePan(1,0)"/>
  <use id="arrowdown" xlink:href="#arrowDown" x="0" y="0" onmousedown="handlePan(0,1)"/>
  <use id="arrowleft" xlink:href="#arrowLeft" x="0" y="0" onmousedown="handlePan(-1,0)"/>
</g>
<svg viewBox="0 0 15 15" width="100%" height="30px" preserveAspectRatio="xMaxYMin meet">
 <g id="arrow_out" transform="scale(0.3 0.3)">
  <a xlink:href="class_a_q_n_w_b_1_1_n_w_b_1_1_registered_type_aa1e04074725b7331d725bbda8156bc2d_icgraph_org.svg" target="_base">
   <rect id="button" ry="5" rx="5" y="6" x="6" height="38" width="38"
        fill="#f2f5e9" fill-opacity="0.5" stroke="#606060" stroke-width="1.0"/>
   <path id="arrow"
     d="M 11.500037,31.436501 C 11.940474,20.09759 22.043105,11.32322 32.158766,21.979434 L 37.068811,17.246167 C 37.068811,17.246167 37.088388,32 37.088388,32 L 22.160133,31.978069 C 22.160133,31.978069 26.997745,27.140456 26.997745,27.140456 C 18.528582,18.264221 13.291696,25.230495 11.500037,31.436501 z"
     style="fill:#404040;"/>
  </a>
 </g>
</svg>

<style type='text/css'>
<![CDATA[
[data-mouse-over-selected='false'] { opacity: 0.7; }
[data-mouse-over-selected='true']  { opacity: 1.0; }
]]>
</style>
<script type="application/ecmascript"><![CDATA[
document.addEventListener('DOMContentLoaded', (event) => {
  highlightEdges();
  highlightAdjacentNodes();
});
]]></script>
</svg>
