<?xml version="1.0" encoding="UTF-8" standalone="no"?>
<!DOCTYPE svg PUBLIC "-//W3C//DTD SVG 1.1//EN"
 "http://www.w3.org/Graphics/SVG/1.1/DTD/svg11.dtd">
<!-- Generated by graphviz version 13.1.2 (20250808.2320)
 -->
<!-- Title: AQNWB::NWB::Device::initialize Pages: 1 -->
<svg width="492pt" height="97pt"
 viewBox="0.00 0.00 492.00 97.00" xmlns="http://www.w3.org/2000/svg" xmlns:xlink="http://www.w3.org/1999/xlink">
<g id="graph0" class="graph" transform="scale(1 1) rotate(0) translate(4 92.5)">
<title>AQNWB::NWB::Device::initialize</title>
<!-- Node1 -->
<g id="Node000001" class="node">
<title>Node1</title>
<g id="a_Node000001"><a xlink:title="Initializes the device by creating NWB related attributes and writing the manufactor and description ...">
<polygon fill="#999999" stroke="#666666" points="121,-55.5 0,-55.5 0,-25 121,-25 121,-55.5"/>
<text xml:space="preserve" text-anchor="start" x="8" y="-42" font-family="Helvetica,sans-Serif" font-size="10.00">AQNWB::NWB::Device</text>
<text xml:space="preserve" text-anchor="middle" x="60.5" y="-30.75" font-family="Helvetica,sans-Serif" font-size="10.00">::initialize</text>
</a>
</g>
</g>
<!-- Node2 -->
<g id="Node000002" class="node">
<title>Node2</title>
<g id="a_Node000002"><a xlink:href="class_a_q_n_w_b_1_1_n_w_b_1_1_registered_type.html#a651f3d7e5cc28dc93888e8a821c5aa1c" target="_top" xlink:title="Get the schema namespace of the class type.">
<polygon fill="white" stroke="#666666" points="483.75,-88.5 325.25,-88.5 325.25,-58 483.75,-58 483.75,-88.5"/>
<text xml:space="preserve" text-anchor="start" x="333.25" y="-75" font-family="Helvetica,sans-Serif" font-size="10.00">AQNWB::NWB::RegisteredType</text>
<text xml:space="preserve" text-anchor="middle" x="404.5" y="-63.75" font-family="Helvetica,sans-Serif" font-size="10.00">::getNamespace</text>
</a>
</g>
</g>
<!-- Node1&#45;&gt;Node2 -->
<g id="edge1_Node000001_Node000002" class="edge">
<title>Node1&#45;&gt;Node2</title>
<g id="a_edge1_Node000001_Node000002"><a xlink:title=" ">
<path fill="none" stroke="#63b8ff" d="M115.65,-55.95C129.06,-59.26 143.46,-62.32 157,-64.25 208.5,-71.58 266.64,-73.98 313.51,-74.48"/>
<polygon fill="#63b8ff" stroke="#63b8ff" points="313.32,-77.98 323.35,-74.55 313.38,-70.98 313.32,-77.98"/>
</a>
</g>
</g>
<!-- Node3 -->
<g id="Node000003" class="node">
<title>Node3</title>
<g id="a_Node000003"><a xlink:href="class_a_q_n_w_b_1_1_n_w_b_1_1_registered_type.html#a150f881ad61cb8352eea7ddba47bc6ad" target="_top" xlink:title="Get the name of the class type.">
<polygon fill="white" stroke="#666666" points="483.75,-30.5 325.25,-30.5 325.25,0 483.75,0 483.75,-30.5"/>
<text xml:space="preserve" text-anchor="start" x="333.25" y="-17" font-family="Helvetica,sans-Serif" font-size="10.00">AQNWB::NWB::RegisteredType</text>
<text xml:space="preserve" text-anchor="middle" x="404.5" y="-5.75" font-family="Helvetica,sans-Serif" font-size="10.00">::getTypeName</text>
</a>
</g>
</g>
<!-- Node1&#45;&gt;Node3 -->
<g id="edge2_Node000001_Node000003" class="edge">
<title>Node1&#45;&gt;Node3</title>
<g id="a_edge2_Node000001_Node000003"><a xlink:title=" ">
<path fill="none" stroke="#63b8ff" d="M114.36,-24.55C128.11,-21.13 143.01,-18.01 157,-16.25 208.58,-9.76 266.72,-9.21 313.57,-10.41"/>
<polygon fill="#63b8ff" stroke="#63b8ff" points="313.31,-13.91 323.41,-10.7 313.52,-6.91 313.31,-13.91"/>
</a>
</g>
</g>
<!-- Node4 -->
<g id="Node000004" class="node">
<title>Node4</title>
<g id="a_Node000004"><a xlink:href="class_a_q_n_w_b_1_1_n_w_b_1_1_container.html#a420424e52795b5212d7dcb728396af6a" target="_top" xlink:title="Initialize the container.">
<polygon fill="white" stroke="#666666" points="289.25,-55.5 157,-55.5 157,-25 289.25,-25 289.25,-55.5"/>
<text xml:space="preserve" text-anchor="start" x="165" y="-42" font-family="Helvetica,sans-Serif" font-size="10.00">AQNWB::NWB::Container</text>
<text xml:space="preserve" text-anchor="middle" x="223.12" y="-30.75" font-family="Helvetica,sans-Serif" font-size="10.00">::initialize</text>
</a>
</g>
</g>
<!-- Node1&#45;&gt;Node4 -->
<g id="edge3_Node000001_Node000004" class="edge">
<title>Node1&#45;&gt;Node4</title>
<g id="a_edge3_Node000001_Node000004"><a xlink:title=" ">
<path fill="none" stroke="#63b8ff" d="M121.31,-40.25C129.13,-40.25 137.23,-40.25 145.28,-40.25"/>
<polygon fill="#63b8ff" stroke="#63b8ff" points="145.09,-43.75 155.09,-40.25 145.09,-36.75 145.09,-43.75"/>
</a>
</g>
</g>
<!-- Node4&#45;&gt;Node2 -->
<g id="edge4_Node000004_Node000002" class="edge">
<title>Node4&#45;&gt;Node2</title>
<g id="a_edge4_Node000004_Node000002"><a xlink:title=" ">
<path fill="none" stroke="#63b8ff" d="M289.64,-52.3C297.56,-53.76 305.74,-55.27 313.92,-56.77"/>
<polygon fill="#63b8ff" stroke="#63b8ff" points="313.1,-60.18 323.57,-58.54 314.37,-53.29 313.1,-60.18"/>
</a>
</g>
</g>
<!-- Node4&#45;&gt;Node3 -->
<g id="edge5_Node000004_Node000003" class="edge">
<title>Node4&#45;&gt;Node3</title>
<g id="a_edge5_Node000004_Node000003"><a xlink:title=" ">
<path fill="none" stroke="#63b8ff" d="M289.64,-31.12C297.56,-30.02 305.74,-28.87 313.92,-27.73"/>
<polygon fill="#63b8ff" stroke="#63b8ff" points="314.14,-31.24 323.56,-26.39 313.17,-24.31 314.14,-31.24"/>
</a>
</g>
</g>
</g>
</svg>
