<?xml version="1.0" encoding="UTF-8" standalone="no"?>
<!DOCTYPE svg PUBLIC "-//W3C//DTD SVG 1.1//EN"
 "http://www.w3.org/Graphics/SVG/1.1/DTD/svg11.dtd">
<!-- Generated by graphviz version 13.1.2 (20250808.2320)
 -->
<!-- Title: AQNWB::NWB::TimeSeries::readStartingTime Pages: 1 -->
<svg width="1708pt" height="161pt"
 viewBox="0.00 0.00 1708.00 161.00" xmlns="http://www.w3.org/2000/svg" xmlns:xlink="http://www.w3.org/1999/xlink">
<g id="graph0" class="graph" transform="scale(1 1) rotate(0) translate(4 156.5)">
<title>AQNWB::NWB::TimeSeries::readStartingTime</title>
<!-- Node1 -->
<g id="Node000001" class="node">
<title>Node1</title>
<g id="a_Node000001"><a xlink:title=" ">
<polygon fill="#999999" stroke="#666666" points="139.75,-54.5 0,-54.5 0,-24 139.75,-24 139.75,-54.5"/>
<text xml:space="preserve" text-anchor="start" x="8" y="-41" font-family="Helvetica,sans-Serif" font-size="10.00">AQNWB::NWB::TimeSeries</text>
<text xml:space="preserve" text-anchor="middle" x="69.88" y="-29.75" font-family="Helvetica,sans-Serif" font-size="10.00">::readStartingTime</text>
</a>
</g>
</g>
<!-- Node2 -->
<g id="Node000002" class="node">
<title>Node2</title>
<g id="a_Node000002"><a xlink:href="class_a_q_n_w_b_1_1_n_w_b_1_1_time_series.html#a432eacaa5461a2adb7c74b8163109690" target="_top" xlink:title=" ">
<polygon fill="white" stroke="#666666" points="315.5,-54.5 175.75,-54.5 175.75,-24 315.5,-24 315.5,-54.5"/>
<text xml:space="preserve" text-anchor="start" x="183.75" y="-41" font-family="Helvetica,sans-Serif" font-size="10.00">AQNWB::NWB::TimeSeries</text>
<text xml:space="preserve" text-anchor="middle" x="245.62" y="-29.75" font-family="Helvetica,sans-Serif" font-size="10.00">::readStartingTimeRate</text>
</a>
</g>
</g>
<!-- Node1&#45;&gt;Node2 -->
<g id="edge1_Node000001_Node000002" class="edge">
<title>Node1&#45;&gt;Node2</title>
<g id="a_edge1_Node000001_Node000002"><a xlink:title=" ">
<path fill="none" stroke="#63b8ff" d="M140.04,-39.25C147.96,-39.25 156.07,-39.25 164.12,-39.25"/>
<polygon fill="#63b8ff" stroke="#63b8ff" points="163.9,-42.75 173.9,-39.25 163.9,-35.75 163.9,-42.75"/>
</a>
</g>
</g>
<!-- Node3 -->
<g id="Node000003" class="node">
<title>Node3</title>
<g id="a_Node000003"><a xlink:href="class_a_q_n_w_b_1_1_n_w_b_1_1_time_series.html#a10c42d7daf3209d828814549062ba43b" target="_top" xlink:title=" ">
<polygon fill="white" stroke="#666666" points="491.25,-54.5 351.5,-54.5 351.5,-24 491.25,-24 491.25,-54.5"/>
<text xml:space="preserve" text-anchor="start" x="359.5" y="-41" font-family="Helvetica,sans-Serif" font-size="10.00">AQNWB::NWB::TimeSeries</text>
<text xml:space="preserve" text-anchor="middle" x="421.38" y="-29.75" font-family="Helvetica,sans-Serif" font-size="10.00">::readStartingTimeUnit</text>
</a>
</g>
</g>
<!-- Node2&#45;&gt;Node3 -->
<g id="edge2_Node000002_Node000003" class="edge">
<title>Node2&#45;&gt;Node3</title>
<g id="a_edge2_Node000002_Node000003"><a xlink:title=" ">
<path fill="none" stroke="#63b8ff" d="M315.79,-39.25C323.71,-39.25 331.82,-39.25 339.87,-39.25"/>
<polygon fill="#63b8ff" stroke="#63b8ff" points="339.65,-42.75 349.65,-39.25 339.65,-35.75 339.65,-42.75"/>
</a>
</g>
</g>
<!-- Node4 -->
<g id="Node000004" class="node">
<title>Node4</title>
<g id="a_Node000004"><a xlink:href="class_a_q_n_w_b_1_1_n_w_b_1_1_time_series.html#aad84484dbd8b930702c8c8c5408694b1" target="_top" xlink:title=" ">
<polygon fill="white" stroke="#666666" points="667,-79.5 527.25,-79.5 527.25,-49 667,-49 667,-79.5"/>
<text xml:space="preserve" text-anchor="start" x="535.25" y="-66" font-family="Helvetica,sans-Serif" font-size="10.00">AQNWB::NWB::TimeSeries</text>
<text xml:space="preserve" text-anchor="middle" x="597.12" y="-54.75" font-family="Helvetica,sans-Serif" font-size="10.00">::readTimestamps</text>
</a>
</g>
</g>
<!-- Node3&#45;&gt;Node4 -->
<g id="edge3_Node000003_Node000004" class="edge">
<title>Node3&#45;&gt;Node4</title>
<g id="a_edge3_Node000003_Node000004"><a xlink:title=" ">
<path fill="none" stroke="#63b8ff" d="M491.54,-49.2C499.46,-50.34 507.57,-51.51 515.62,-52.67"/>
<polygon fill="#63b8ff" stroke="#63b8ff" points="515.01,-56.12 525.41,-54.08 516.01,-49.19 515.01,-56.12"/>
</a>
</g>
</g>
<!-- Node14 -->
<g id="Node000014" class="node">
<title>Node14</title>
<g id="a_Node000014"><a xlink:href="class_a_q_n_w_b_1_1_n_w_b_1_1_time_series.html#a15cdc18874a799e4196a58e2c2d51c31" target="_top" xlink:title=" ">
<polygon fill="white" stroke="#666666" points="667,-30.5 527.25,-30.5 527.25,0 667,0 667,-30.5"/>
<text xml:space="preserve" text-anchor="start" x="535.25" y="-17" font-family="Helvetica,sans-Serif" font-size="10.00">AQNWB::NWB::TimeSeries</text>
<text xml:space="preserve" text-anchor="middle" x="597.12" y="-5.75" font-family="Helvetica,sans-Serif" font-size="10.00">::recordTimestamps</text>
</a>
</g>
</g>
<!-- Node3&#45;&gt;Node14 -->
<g id="edge13_Node000003_Node000014" class="edge">
<title>Node3&#45;&gt;Node14</title>
<g id="a_edge13_Node000003_Node000014"><a xlink:title=" ">
<path fill="none" stroke="#63b8ff" d="M491.54,-29.7C499.46,-28.6 507.57,-27.48 515.62,-26.37"/>
<polygon fill="#63b8ff" stroke="#63b8ff" points="515.98,-29.85 525.41,-25.02 515.03,-22.92 515.98,-29.85"/>
</a>
</g>
</g>
<!-- Node5 -->
<g id="Node000005" class="node">
<title>Node5</title>
<g id="a_Node000005"><a xlink:href="class_a_q_n_w_b_1_1_n_w_b_1_1_time_series.html#a6bc9efa6381b6761d45493c1b2628e22" target="_top" xlink:title=" ">
<polygon fill="white" stroke="#666666" points="842.75,-79.5 703,-79.5 703,-49 842.75,-49 842.75,-79.5"/>
<text xml:space="preserve" text-anchor="start" x="711" y="-66" font-family="Helvetica,sans-Serif" font-size="10.00">AQNWB::NWB::TimeSeries</text>
<text xml:space="preserve" text-anchor="middle" x="772.88" y="-54.75" font-family="Helvetica,sans-Serif" font-size="10.00">::readTimestampsInterval</text>
</a>
</g>
</g>
<!-- Node4&#45;&gt;Node5 -->
<g id="edge4_Node000004_Node000005" class="edge">
<title>Node4&#45;&gt;Node5</title>
<g id="a_edge4_Node000004_Node000005"><a xlink:title=" ">
<path fill="none" stroke="#63b8ff" d="M667.29,-64.25C675.21,-64.25 683.32,-64.25 691.37,-64.25"/>
<polygon fill="#63b8ff" stroke="#63b8ff" points="691.15,-67.75 701.15,-64.25 691.15,-60.75 691.15,-67.75"/>
</a>
</g>
</g>
<!-- Node6 -->
<g id="Node000006" class="node">
<title>Node6</title>
<g id="a_Node000006"><a xlink:href="class_a_q_n_w_b_1_1_n_w_b_1_1_time_series.html#adf3f178d207453927ae6ede7a53ac7f7" target="_top" xlink:title=" ">
<polygon fill="white" stroke="#666666" points="1018.5,-79.5 878.75,-79.5 878.75,-49 1018.5,-49 1018.5,-79.5"/>
<text xml:space="preserve" text-anchor="start" x="886.75" y="-66" font-family="Helvetica,sans-Serif" font-size="10.00">AQNWB::NWB::TimeSeries</text>
<text xml:space="preserve" text-anchor="middle" x="948.62" y="-54.75" font-family="Helvetica,sans-Serif" font-size="10.00">::readTimestampsUnit</text>
</a>
</g>
</g>
<!-- Node5&#45;&gt;Node6 -->
<g id="edge5_Node000005_Node000006" class="edge">
<title>Node5&#45;&gt;Node6</title>
<g id="a_edge5_Node000005_Node000006"><a xlink:title=" ">
<path fill="none" stroke="#63b8ff" d="M843.04,-64.25C850.96,-64.25 859.07,-64.25 867.12,-64.25"/>
<polygon fill="#63b8ff" stroke="#63b8ff" points="866.9,-67.75 876.9,-64.25 866.9,-60.75 866.9,-67.75"/>
</a>
</g>
</g>
<!-- Node7 -->
<g id="Node000007" class="node">
<title>Node7</title>
<g id="a_Node000007"><a xlink:href="class_a_q_n_w_b_1_1_n_w_b_1_1_time_series.html#a0501cf1664c3ac781453e312aa3342b0" target="_top" xlink:title=" ">
<polygon fill="white" stroke="#666666" points="1194.25,-104.5 1054.5,-104.5 1054.5,-74 1194.25,-74 1194.25,-104.5"/>
<text xml:space="preserve" text-anchor="start" x="1062.5" y="-91" font-family="Helvetica,sans-Serif" font-size="10.00">AQNWB::NWB::TimeSeries</text>
<text xml:space="preserve" text-anchor="middle" x="1124.38" y="-79.75" font-family="Helvetica,sans-Serif" font-size="10.00">::readControl</text>
</a>
</g>
</g>
<!-- Node6&#45;&gt;Node7 -->
<g id="edge6_Node000006_Node000007" class="edge">
<title>Node6&#45;&gt;Node7</title>
<g id="a_edge6_Node000006_Node000007"><a xlink:title=" ">
<path fill="none" stroke="#63b8ff" d="M1018.79,-74.2C1026.71,-75.34 1034.82,-76.51 1042.87,-77.67"/>
<polygon fill="#63b8ff" stroke="#63b8ff" points="1042.26,-81.12 1052.66,-79.08 1043.26,-74.19 1042.26,-81.12"/>
</a>
</g>
</g>
<!-- Node13 -->
<g id="Node000013" class="node">
<title>Node13</title>
<g id="a_Node000013"><a xlink:href="class_a_q_n_w_b_1_1_n_w_b_1_1_time_series.html#a09ead45365072d1f2dbdfe5d628d1af4" target="_top" xlink:title=" ">
<polygon fill="white" stroke="#666666" points="1194.25,-55.5 1054.5,-55.5 1054.5,-25 1194.25,-25 1194.25,-55.5"/>
<text xml:space="preserve" text-anchor="start" x="1062.5" y="-42" font-family="Helvetica,sans-Serif" font-size="10.00">AQNWB::NWB::TimeSeries</text>
<text xml:space="preserve" text-anchor="middle" x="1124.38" y="-30.75" font-family="Helvetica,sans-Serif" font-size="10.00">::recordControl</text>
</a>
</g>
</g>
<!-- Node6&#45;&gt;Node13 -->
<g id="edge12_Node000006_Node000013" class="edge">
<title>Node6&#45;&gt;Node13</title>
<g id="a_edge12_Node000006_Node000013"><a xlink:title=" ">
<path fill="none" stroke="#63b8ff" d="M1018.79,-54.7C1026.71,-53.6 1034.82,-52.48 1042.87,-51.37"/>
<polygon fill="#63b8ff" stroke="#63b8ff" points="1043.23,-54.85 1052.66,-50.02 1042.28,-47.92 1043.23,-54.85"/>
</a>
</g>
</g>
<!-- Node8 -->
<g id="Node000008" class="node">
<title>Node8</title>
<g id="a_Node000008"><a xlink:href="class_a_q_n_w_b_1_1_n_w_b_1_1_time_series.html#a02d6ceb1f87f4a76906f00688708b8e9" target="_top" xlink:title=" ">
<polygon fill="white" stroke="#666666" points="1370,-128.5 1230.25,-128.5 1230.25,-98 1370,-98 1370,-128.5"/>
<text xml:space="preserve" text-anchor="start" x="1238.25" y="-115" font-family="Helvetica,sans-Serif" font-size="10.00">AQNWB::NWB::TimeSeries</text>
<text xml:space="preserve" text-anchor="middle" x="1300.12" y="-103.75" font-family="Helvetica,sans-Serif" font-size="10.00">::readControlDescription</text>
</a>
</g>
</g>
<!-- Node7&#45;&gt;Node8 -->
<g id="edge7_Node000007_Node000008" class="edge">
<title>Node7&#45;&gt;Node8</title>
<g id="a_edge7_Node000007_Node000008"><a xlink:title=" ">
<path fill="none" stroke="#63b8ff" d="M1194.54,-98.8C1202.46,-99.9 1210.57,-101.02 1218.62,-102.13"/>
<polygon fill="#63b8ff" stroke="#63b8ff" points="1218.03,-105.58 1228.41,-103.48 1218.98,-98.65 1218.03,-105.58"/>
</a>
</g>
</g>
<!-- Node12 -->
<g id="Node000012" class="node">
<title>Node12</title>
<g id="a_Node000012"><a xlink:href="class_a_q_n_w_b_1_1_n_w_b_1_1_time_series.html#a7e7da4174344eee6e143a39fc45cc014" target="_top" xlink:title=" ">
<polygon fill="white" stroke="#666666" points="1370,-79.5 1230.25,-79.5 1230.25,-49 1370,-49 1370,-79.5"/>
<text xml:space="preserve" text-anchor="start" x="1238.25" y="-66" font-family="Helvetica,sans-Serif" font-size="10.00">AQNWB::NWB::TimeSeries</text>
<text xml:space="preserve" text-anchor="middle" x="1300.12" y="-54.75" font-family="Helvetica,sans-Serif" font-size="10.00">::recordControlDescription</text>
</a>
</g>
</g>
<!-- Node7&#45;&gt;Node12 -->
<g id="edge11_Node000007_Node000012" class="edge">
<title>Node7&#45;&gt;Node12</title>
<g id="a_edge11_Node000007_Node000012"><a xlink:title=" ">
<path fill="none" stroke="#63b8ff" d="M1194.54,-79.3C1202.46,-78.16 1210.57,-76.99 1218.62,-75.83"/>
<polygon fill="#63b8ff" stroke="#63b8ff" points="1219.01,-79.31 1228.41,-74.42 1218.01,-72.38 1219.01,-79.31"/>
</a>
</g>
</g>
<!-- Node9 -->
<g id="Node000009" class="node">
<title>Node9</title>
<g id="a_Node000009"><a xlink:href="class_a_q_n_w_b_1_1_n_w_b_1_1_time_series.html#ad02a2c3803891f352dd2496b9ff1887b" target="_top" xlink:title="Convenience function for creating data related attributes.">
<polygon fill="white" stroke="#666666" points="1548.38,-152.5 1408.62,-152.5 1408.62,-122 1548.38,-122 1548.38,-152.5"/>
<text xml:space="preserve" text-anchor="start" x="1416.62" y="-139" font-family="Helvetica,sans-Serif" font-size="10.00">AQNWB::NWB::TimeSeries</text>
<text xml:space="preserve" text-anchor="middle" x="1478.5" y="-127.75" font-family="Helvetica,sans-Serif" font-size="10.00">::createDataAttributes</text>
</a>
</g>
</g>
<!-- Node8&#45;&gt;Node9 -->
<g id="edge8_Node000008_Node000009" class="edge">
<title>Node8&#45;&gt;Node9</title>
<g id="a_edge8_Node000008_Node000009"><a xlink:title=" ">
<path fill="none" stroke="#63b8ff" d="M1370.33,-122.67C1379.08,-123.86 1388.1,-125.08 1397.01,-126.3"/>
<polygon fill="#63b8ff" stroke="#63b8ff" points="1396.33,-129.74 1406.71,-127.62 1397.27,-122.8 1396.33,-129.74"/>
</a>
</g>
</g>
<!-- Node11 -->
<g id="Node000011" class="node">
<title>Node11</title>
<g id="a_Node000011"><a xlink:href="class_a_q_n_w_b_1_1_n_w_b_1_1_time_series.html#a682200d497af6051d0ef9189509084dd" target="_top" xlink:title="Convenience function for creating timestamp related attributes.">
<polygon fill="white" stroke="#666666" points="1551,-103.5 1406,-103.5 1406,-73 1551,-73 1551,-103.5"/>
<text xml:space="preserve" text-anchor="start" x="1414" y="-90" font-family="Helvetica,sans-Serif" font-size="10.00">AQNWB::NWB::TimeSeries</text>
<text xml:space="preserve" text-anchor="middle" x="1478.5" y="-78.75" font-family="Helvetica,sans-Serif" font-size="10.00">::createTimestampsAttributes</text>
</a>
</g>
</g>
<!-- Node8&#45;&gt;Node11 -->
<g id="edge10_Node000008_Node000011" class="edge">
<title>Node8&#45;&gt;Node11</title>
<g id="a_edge10_Node000008_Node000011"><a xlink:title=" ">
<path fill="none" stroke="#63b8ff" d="M1370.33,-103.44C1378.2,-102.33 1386.28,-101.18 1394.31,-100.04"/>
<polygon fill="#63b8ff" stroke="#63b8ff" points="1394.69,-103.52 1404.1,-98.65 1393.7,-96.59 1394.69,-103.52"/>
</a>
</g>
</g>
<!-- Node10 -->
<g id="Node000010" class="node">
<title>Node10</title>
<g id="a_Node000010"><a xlink:href="namespace_a_q_n_w_b.html#a31983dbaaa85c2e355b9687fc0ef1881" target="_top" xlink:title="Merge two paths into a single path, handling extra trailing and starting &quot;/&quot;.">
<polygon fill="white" stroke="#666666" points="1699.75,-146.88 1587,-146.88 1587,-127.62 1699.75,-127.62 1699.75,-146.88"/>
<text xml:space="preserve" text-anchor="middle" x="1643.38" y="-133.38" font-family="Helvetica,sans-Serif" font-size="10.00">AQNWB::mergePaths</text>
</a>
</g>
</g>
<!-- Node9&#45;&gt;Node10 -->
<g id="edge9_Node000009_Node000010" class="edge">
<title>Node9&#45;&gt;Node10</title>
<g id="a_edge9_Node000009_Node000010"><a xlink:title=" ">
<path fill="none" stroke="#63b8ff" d="M1548.57,-137.25C1557.38,-137.25 1566.37,-137.25 1575.15,-137.25"/>
<polygon fill="#63b8ff" stroke="#63b8ff" points="1575,-140.75 1585,-137.25 1575,-133.75 1575,-140.75"/>
</a>
</g>
</g>
</g>
</svg>
