<?xml version="1.0" encoding="UTF-8" standalone="no"?>
<!DOCTYPE svg PUBLIC "-//W3C//DTD SVG 1.1//EN"
 "http://www.w3.org/Graphics/SVG/1.1/DTD/svg11.dtd">
<!-- Generated by graphviz version 14.0.5 (20251129.0259)
 -->
<!-- Title: AQNWB::NWB::NWBFile::readNWBVersion Pages: 1 -->
<!--zoomable 235 -->

<svg id="main" version="1.1" xmlns="http://www.w3.org/2000/svg" xmlns:xlink="http://www.w3.org/1999/xlink" xml:space="preserve" onload="init(evt)">

<style type="text/css"><![CDATA[
.node, .edge {opacity: 0.7;}
.node.selected, .edge.selected {opacity: 1;}
.edge:hover path { stroke: red; }
.edge:hover polygon { stroke: red; fill: red; }
]]></style>

<defs>
  <circle id="rim" cx="0" cy="0" r="7"/>
  <circle id="rim2" cx="0" cy="0" r="3.5"/>
  <g id="zoomPlus">
    <use xlink:href="#rim" fill="#404040"><set attributeName="fill" to="#808080" begin="zoomplus.mouseover" end="zoomplus.mouseout"/></use>
    <path d="M-4,0h8M0,-4v8" fill="none" stroke="white" stroke-width="1.5" pointer-events="none"/>
  </g>
  <g id="zoomMin">
    <use xlink:href="#rim" fill="#404040"><set attributeName="fill" to="#808080" begin="zoomminus.mouseover" end="zoomminus.mouseout"/></use>
    <path d="M-4,0h8" fill="none" stroke="white" stroke-width="1.5" pointer-events="none"/>
  </g>
  <g id="arrowUp" transform="translate(30 24)">
    <use xlink:href="#rim"/>
    <path pointer-events="none" fill="none" stroke="white" stroke-width="1.5" d="M0,-3.0v7 M-2.5,-0.5L0,-3.0L2.5,-0.5"/>
  </g>
  <g id="arrowRight" transform="rotate(90) translate(36 -43)">
    <use xlink:href="#rim"/>
    <path pointer-events="none" fill="none" stroke="white" stroke-width="1.5" d="M0,-3.0v7 M-2.5,-0.5L0,-3.0L2.5,-0.5"/>
  </g>
  <g id="arrowDown" transform="rotate(180) translate(-30 -48)">
    <use xlink:href="#rim"/>
    <path pointer-events="none" fill="none" stroke="white" stroke-width="1.5" d="M0,-3.0v7 M-2.5,-0.5L0,-3.0L2.5,-0.5"/>
  </g>
  <g id="arrowLeft" transform="rotate(270) translate(-36 17)">
    <use xlink:href="#rim"/>
    <path pointer-events="none" fill="none" stroke="white" stroke-width="1.5" d="M0,-3.0v7 M-2.5,-0.5L0,-3.0L2.5,-0.5"/>
  </g>
  <g id="resetDef">
    <use xlink:href="#rim2" fill="#404040"><set attributeName="fill" to="#808080" begin="reset.mouseover" end="reset.mouseout"/></use>
  </g>
</defs>
<script type="application/ecmascript">
var viewWidth = 1546;
var viewHeight = 235;
var sectionId = 'dynsection-23';
</script>
<script type="application/ecmascript" xlink:href="svg.min.js"/>
<svg id="graph" class="graph">
<g id="viewport">
<title>AQNWB::NWB::NWBFile::readNWBVersion</title>
<!-- Node1 -->
<g id="Node000001" class="node">
<title>Node1</title>
<g id="a_Node000001"><a xlink:title=" ">
<polygon fill="#999999" stroke="#666666" points="130,-60.5 0,-60.5 0,-30 130,-30 130,-60.5"/>
<text xml:space="preserve" text-anchor="start" x="8" y="-47" font-family="Helvetica,sans-Serif" font-size="10.00">AQNWB::NWB::NWBFile</text>
<text xml:space="preserve" text-anchor="middle" x="65" y="-35.75" font-family="Helvetica,sans-Serif" font-size="10.00">::readNWBVersion</text>
</a>
</g>
</g>
<!-- Node2 -->
<g id="Node000002" class="node">
<title>Node2</title>
<g id="a_Node000002"><a xlink:href="class_a_q_n_w_b_1_1_n_w_b_1_1_n_w_b_file.html#aab50ade1916ed284389c29d44e8a3a28" target="_top" xlink:title=" ">
<polygon fill="white" stroke="#666666" points="296,-85.5 166,-85.5 166,-55 296,-55 296,-85.5"/>
<text xml:space="preserve" text-anchor="start" x="174" y="-72" font-family="Helvetica,sans-Serif" font-size="10.00">AQNWB::NWB::NWBFile</text>
<text xml:space="preserve" text-anchor="middle" x="231" y="-60.75" font-family="Helvetica,sans-Serif" font-size="10.00">::readFileCreateDate</text>
</a>
</g>
</g>
<!-- Node1&#45;&gt;Node2 -->
<g id="edge1_Node000001_Node000002" class="edge">
<title>Node1&#45;&gt;Node2</title>
<g id="a_edge1_Node000001_Node000002"><a xlink:title=" ">
<path fill="none" stroke="#63b8ff" d="M130.35,-55.06C138.21,-56.26 146.31,-57.49 154.33,-58.71"/>
<polygon fill="#63b8ff" stroke="#63b8ff" points="153.66,-62.15 164.07,-60.2 154.72,-55.23 153.66,-62.15"/>
</a>
</g>
</g>
<!-- Node18 -->
<g id="Node000018" class="node">
<title>Node18</title>
<g id="a_Node000018"><a xlink:href="class_a_q_n_w_b_1_1_n_w_b_1_1_n_w_b_file.html#a23d31fa8ae3cdffd8a31b05b309c8bc5" target="_top" xlink:title=" ">
<polygon fill="white" stroke="#666666" points="296,-36.5 166,-36.5 166,-6 296,-6 296,-36.5"/>
<text xml:space="preserve" text-anchor="start" x="174" y="-23" font-family="Helvetica,sans-Serif" font-size="10.00">AQNWB::NWB::NWBFile</text>
<text xml:space="preserve" text-anchor="middle" x="231" y="-11.75" font-family="Helvetica,sans-Serif" font-size="10.00">::recordFileCreateDate</text>
</a>
</g>
</g>
<!-- Node1&#45;&gt;Node18 -->
<g id="edge18_Node000001_Node000018" class="edge">
<title>Node1&#45;&gt;Node18</title>
<g id="a_edge18_Node000001_Node000018"><a xlink:title=" ">
<path fill="none" stroke="#63b8ff" d="M130.35,-35.83C138.21,-34.68 146.31,-33.5 154.33,-32.32"/>
<polygon fill="#63b8ff" stroke="#63b8ff" points="154.68,-35.81 164.07,-30.9 153.67,-28.88 154.68,-35.81"/>
</a>
</g>
</g>
<!-- Node3 -->
<g id="Node000003" class="node">
<title>Node3</title>
<g id="a_Node000003"><a xlink:href="class_a_q_n_w_b_1_1_n_w_b_1_1_n_w_b_file.html#abae17504e9ba927509296efaf5fc99e2" target="_top" xlink:title=" ">
<polygon fill="white" stroke="#666666" points="462,-109.5 332,-109.5 332,-79 462,-79 462,-109.5"/>
<text xml:space="preserve" text-anchor="start" x="340" y="-96" font-family="Helvetica,sans-Serif" font-size="10.00">AQNWB::NWB::NWBFile</text>
<text xml:space="preserve" text-anchor="middle" x="397" y="-84.75" font-family="Helvetica,sans-Serif" font-size="10.00">::readIdentifier</text>
</a>
</g>
</g>
<!-- Node2&#45;&gt;Node3 -->
<g id="edge2_Node000002_Node000003" class="edge">
<title>Node2&#45;&gt;Node3</title>
<g id="a_edge2_Node000002_Node000003"><a xlink:title=" ">
<path fill="none" stroke="#63b8ff" d="M296.35,-79.67C304.21,-80.82 312.31,-82 320.33,-83.18"/>
<polygon fill="#63b8ff" stroke="#63b8ff" points="319.67,-86.62 330.07,-84.6 320.68,-79.69 319.67,-86.62"/>
</a>
</g>
</g>
<!-- Node17 -->
<g id="Node000017" class="node">
<title>Node17</title>
<g id="a_Node000017"><a xlink:href="class_a_q_n_w_b_1_1_n_w_b_1_1_n_w_b_file.html#a407344117736e00a6f38459330af2bde" target="_top" xlink:title=" ">
<polygon fill="white" stroke="#666666" points="462,-60.5 332,-60.5 332,-30 462,-30 462,-60.5"/>
<text xml:space="preserve" text-anchor="start" x="340" y="-47" font-family="Helvetica,sans-Serif" font-size="10.00">AQNWB::NWB::NWBFile</text>
<text xml:space="preserve" text-anchor="middle" x="397" y="-35.75" font-family="Helvetica,sans-Serif" font-size="10.00">::recordIdentifier</text>
</a>
</g>
</g>
<!-- Node2&#45;&gt;Node17 -->
<g id="edge17_Node000002_Node000017" class="edge">
<title>Node2&#45;&gt;Node17</title>
<g id="a_edge17_Node000002_Node000017"><a xlink:title=" ">
<path fill="none" stroke="#63b8ff" d="M296.35,-60.44C304.21,-59.24 312.31,-58.01 320.33,-56.79"/>
<polygon fill="#63b8ff" stroke="#63b8ff" points="320.72,-60.27 330.07,-55.3 319.66,-53.35 320.72,-60.27"/>
</a>
</g>
</g>
<!-- Node4 -->
<g id="Node000004" class="node">
<title>Node4</title>
<g id="a_Node000004"><a xlink:href="class_a_q_n_w_b_1_1_n_w_b_1_1_n_w_b_file.html#a5b62d301f9653fcf0cf083300362b371" target="_top" xlink:title=" ">
<polygon fill="white" stroke="#666666" points="629.88,-133.5 499.88,-133.5 499.88,-103 629.88,-103 629.88,-133.5"/>
<text xml:space="preserve" text-anchor="start" x="507.88" y="-120" font-family="Helvetica,sans-Serif" font-size="10.00">AQNWB::NWB::NWBFile</text>
<text xml:space="preserve" text-anchor="middle" x="564.88" y="-108.75" font-family="Helvetica,sans-Serif" font-size="10.00">::readSessionDescription</text>
</a>
</g>
</g>
<!-- Node3&#45;&gt;Node4 -->
<g id="edge3_Node000003_Node000004" class="edge">
<title>Node3&#45;&gt;Node4</title>
<g id="a_edge3_Node000003_Node000004"><a xlink:title=" ">
<path fill="none" stroke="#63b8ff" d="M462.13,-103.53C470.69,-104.77 479.53,-106.05 488.26,-107.31"/>
<polygon fill="#63b8ff" stroke="#63b8ff" points="487.74,-110.77 498.14,-108.74 488.75,-103.84 487.74,-110.77"/>
</a>
</g>
</g>
<!-- Node16 -->
<g id="Node000016" class="node">
<title>Node16</title>
<g id="a_Node000016"><a xlink:href="class_a_q_n_w_b_1_1_n_w_b_1_1_n_w_b_file.html#aa3a0f1d0f63f8bf7160257186cd2273d" target="_top" xlink:title=" ">
<polygon fill="white" stroke="#666666" points="631.75,-84.5 498,-84.5 498,-54 631.75,-54 631.75,-84.5"/>
<text xml:space="preserve" text-anchor="start" x="506" y="-71" font-family="Helvetica,sans-Serif" font-size="10.00">AQNWB::NWB::NWBFile</text>
<text xml:space="preserve" text-anchor="middle" x="564.88" y="-59.75" font-family="Helvetica,sans-Serif" font-size="10.00">::recordSessionDescription</text>
</a>
</g>
</g>
<!-- Node3&#45;&gt;Node16 -->
<g id="edge16_Node000003_Node000016" class="edge">
<title>Node3&#45;&gt;Node16</title>
<g id="a_edge16_Node000003_Node000016"><a xlink:title=" ">
<path fill="none" stroke="#63b8ff" d="M462.13,-84.58C470.06,-83.39 478.24,-82.16 486.34,-80.94"/>
<polygon fill="#63b8ff" stroke="#63b8ff" points="486.86,-84.4 496.22,-79.45 485.81,-77.48 486.86,-84.4"/>
</a>
</g>
</g>
<!-- Node5 -->
<g id="Node000005" class="node">
<title>Node5</title>
<g id="a_Node000005"><a xlink:href="class_a_q_n_w_b_1_1_n_w_b_1_1_n_w_b_file.html#ac12eceea7bcebc1243eac9a64d4190b0" target="_top" xlink:title=" ">
<polygon fill="white" stroke="#666666" points="797.75,-157.5 667.75,-157.5 667.75,-127 797.75,-127 797.75,-157.5"/>
<text xml:space="preserve" text-anchor="start" x="675.75" y="-144" font-family="Helvetica,sans-Serif" font-size="10.00">AQNWB::NWB::NWBFile</text>
<text xml:space="preserve" text-anchor="middle" x="732.75" y="-132.75" font-family="Helvetica,sans-Serif" font-size="10.00">::readSessionStartTime</text>
</a>
</g>
</g>
<!-- Node4&#45;&gt;Node5 -->
<g id="edge4_Node000004_Node000005" class="edge">
<title>Node4&#45;&gt;Node5</title>
<g id="a_edge4_Node000004_Node000005"><a xlink:title=" ">
<path fill="none" stroke="#63b8ff" d="M630.01,-127.53C638.56,-128.77 647.4,-130.05 656.13,-131.31"/>
<polygon fill="#63b8ff" stroke="#63b8ff" points="655.62,-134.77 666.02,-132.74 656.62,-127.84 655.62,-134.77"/>
</a>
</g>
</g>
<!-- Node15 -->
<g id="Node000015" class="node">
<title>Node15</title>
<g id="a_Node000015"><a xlink:href="class_a_q_n_w_b_1_1_n_w_b_1_1_n_w_b_file.html#a3ecf0a3b95b16b509c2446fc7c4d40b0" target="_top" xlink:title=" ">
<polygon fill="white" stroke="#666666" points="797.75,-108.5 667.75,-108.5 667.75,-78 797.75,-78 797.75,-108.5"/>
<text xml:space="preserve" text-anchor="start" x="675.75" y="-95" font-family="Helvetica,sans-Serif" font-size="10.00">AQNWB::NWB::NWBFile</text>
<text xml:space="preserve" text-anchor="middle" x="732.75" y="-83.75" font-family="Helvetica,sans-Serif" font-size="10.00">::recordSessionStartTime</text>
</a>
</g>
</g>
<!-- Node4&#45;&gt;Node15 -->
<g id="edge15_Node000004_Node000015" class="edge">
<title>Node4&#45;&gt;Node15</title>
<g id="a_edge15_Node000004_Node000015"><a xlink:title=" ">
<path fill="none" stroke="#63b8ff" d="M630.01,-108.58C638.56,-107.29 647.4,-105.96 656.13,-104.65"/>
<polygon fill="#63b8ff" stroke="#63b8ff" points="656.65,-108.11 666.02,-103.16 655.61,-101.19 656.65,-108.11"/>
</a>
</g>
</g>
<!-- Node6 -->
<g id="Node000006" class="node">
<title>Node6</title>
<g id="a_Node000006"><a xlink:href="class_a_q_n_w_b_1_1_n_w_b_1_1_n_w_b_file.html#aa611b4def3f53c508ddd8ec71944ffe7" target="_top" xlink:title=" ">
<polygon fill="white" stroke="#666666" points="999.38,-181.5 837.88,-181.5 837.88,-151 999.38,-151 999.38,-181.5"/>
<text xml:space="preserve" text-anchor="start" x="845.88" y="-168" font-family="Helvetica,sans-Serif" font-size="10.00">AQNWB::NWB::NWBFile</text>
<text xml:space="preserve" text-anchor="middle" x="918.62" y="-156.75" font-family="Helvetica,sans-Serif" font-size="10.00">::readTimestampsReferenceTime</text>
</a>
</g>
</g>
<!-- Node5&#45;&gt;Node6 -->
<g id="edge5_Node000005_Node000006" class="edge">
<title>Node5&#45;&gt;Node6</title>
<g id="a_edge5_Node000005_Node000006"><a xlink:title=" ">
<path fill="none" stroke="#63b8ff" d="M798.06,-150.64C807.22,-151.84 816.77,-153.09 826.32,-154.33"/>
<polygon fill="#63b8ff" stroke="#63b8ff" points="825.64,-157.77 836,-155.6 826.54,-150.83 825.64,-157.77"/>
</a>
</g>
</g>
<!-- Node14 -->
<g id="Node000014" class="node">
<title>Node14</title>
<g id="a_Node000014"><a xlink:href="class_a_q_n_w_b_1_1_n_w_b_1_1_n_w_b_file.html#a36db3290c76301b9af8a030cb975d516" target="_top" xlink:title=" ">
<polygon fill="white" stroke="#666666" points="1003.5,-132.5 833.75,-132.5 833.75,-102 1003.5,-102 1003.5,-132.5"/>
<text xml:space="preserve" text-anchor="start" x="841.75" y="-119" font-family="Helvetica,sans-Serif" font-size="10.00">AQNWB::NWB::NWBFile</text>
<text xml:space="preserve" text-anchor="middle" x="918.62" y="-107.75" font-family="Helvetica,sans-Serif" font-size="10.00">::recordTimestampsReferenceTime</text>
</a>
</g>
</g>
<!-- Node5&#45;&gt;Node14 -->
<g id="edge14_Node000005_Node000014" class="edge">
<title>Node5&#45;&gt;Node14</title>
<g id="a_edge14_Node000005_Node000014"><a xlink:title=" ">
<path fill="none" stroke="#63b8ff" d="M798.06,-133.51C805.89,-132.44 814.02,-131.34 822.18,-130.23"/>
<polygon fill="#63b8ff" stroke="#63b8ff" points="822.38,-133.73 831.81,-128.92 821.43,-126.8 822.38,-133.73"/>
</a>
</g>
</g>
<!-- Node7 -->
<g id="Node000007" class="node">
<title>Node7</title>
<g id="a_Node000007"><a xlink:href="class_a_q_n_w_b_1_1_n_w_b_1_1_n_w_b_file.html#aaf2e07b4e912fc34ab052d38f92e6cdd" target="_top" xlink:title="Saves the specification files for the schema.">
<polygon fill="white" stroke="#666666" points="1362.12,-226.5 1232.12,-226.5 1232.12,-196 1362.12,-196 1362.12,-226.5"/>
<text xml:space="preserve" text-anchor="start" x="1240.12" y="-213" font-family="Helvetica,sans-Serif" font-size="10.00">AQNWB::NWB::NWBFile</text>
<text xml:space="preserve" text-anchor="middle" x="1297.12" y="-201.75" font-family="Helvetica,sans-Serif" font-size="10.00">::cacheSpecifications</text>
</a>
</g>
</g>
<!-- Node6&#45;&gt;Node7 -->
<g id="edge6_Node000006_Node000007" class="edge">
<title>Node6&#45;&gt;Node7</title>
<g id="a_edge6_Node000006_Node000007"><a xlink:title=" ">
<path fill="none" stroke="#63b8ff" d="M999.47,-175.79C1064.73,-183.59 1156.37,-194.55 1220.47,-202.21"/>
<polygon fill="#63b8ff" stroke="#63b8ff" points="1219.86,-205.66 1230.2,-203.37 1220.69,-198.71 1219.86,-205.66"/>
</a>
</g>
</g>
<!-- Node9 -->
<g id="Node000009" class="node">
<title>Node9</title>
<g id="a_Node000009"><a xlink:href="class_a_q_n_w_b_1_1_n_w_b_1_1_n_w_b_file.html#a71bd7b910a7ec89bdaf36304d67bfef1" target="_top" xlink:title="Creates the default file structure. Note, this function will fail if the file is in a mode where new ...">
<polygon fill="white" stroke="#666666" points="1169.5,-152.5 1039.5,-152.5 1039.5,-122 1169.5,-122 1169.5,-152.5"/>
<text xml:space="preserve" text-anchor="start" x="1047.5" y="-139" font-family="Helvetica,sans-Serif" font-size="10.00">AQNWB::NWB::NWBFile</text>
<text xml:space="preserve" text-anchor="middle" x="1104.5" y="-127.75" font-family="Helvetica,sans-Serif" font-size="10.00">::createFileStructure</text>
</a>
</g>
</g>
<!-- Node6&#45;&gt;Node9 -->
<g id="edge8_Node000006_Node000009" class="edge">
<title>Node6&#45;&gt;Node9</title>
<g id="a_edge8_Node000006_Node000009"><a xlink:title=" ">
<path fill="none" stroke="#63b8ff" d="M999.74,-153.61C1009.1,-152.14 1018.62,-150.64 1027.91,-149.17"/>
<polygon fill="#63b8ff" stroke="#63b8ff" points="1028.28,-152.66 1037.61,-147.64 1027.19,-145.74 1028.28,-152.66"/>
</a>
</g>
</g>
<!-- Node8 -->
<g id="Node000008" class="node">
<title>Node8</title>
<g id="a_Node000008"><a xlink:href="namespace_a_q_n_w_b.html#a31983dbaaa85c2e355b9687fc0ef1881" target="_top" xlink:title="Merge two paths into a single path, handling extra trailing and starting &quot;/&quot;.">
<polygon fill="white" stroke="#666666" points="1537.5,-220.88 1424.75,-220.88 1424.75,-201.62 1537.5,-201.62 1537.5,-220.88"/>
<text xml:space="preserve" text-anchor="middle" x="1481.12" y="-207.38" font-family="Helvetica,sans-Serif" font-size="10.00">AQNWB::mergePaths</text>
</a>
</g>
</g>
<!-- Node7&#45;&gt;Node8 -->
<g id="edge7_Node000007_Node000008" class="edge">
<title>Node7&#45;&gt;Node8</title>
<g id="a_edge7_Node000007_Node000008"><a xlink:title=" ">
<path fill="none" stroke="#63b8ff" d="M1362.55,-211.25C1379,-211.25 1396.72,-211.25 1413.29,-211.25"/>
<polygon fill="#63b8ff" stroke="#63b8ff" points="1413.03,-214.75 1423.03,-211.25 1413.03,-207.75 1413.03,-214.75"/>
</a>
</g>
</g>
<!-- Node9&#45;&gt;Node7 -->
<g id="edge9_Node000009_Node000007" class="edge">
<title>Node9&#45;&gt;Node7</title>
<g id="a_edge9_Node000009_Node000007"><a xlink:title=" ">
<path fill="none" stroke="#63b8ff" d="M1133.75,-152.86C1153.44,-163.29 1180.55,-176.79 1205.5,-186.25 1211.03,-188.35 1216.81,-190.35 1222.67,-192.25"/>
<polygon fill="#63b8ff" stroke="#63b8ff" points="1221.2,-195.46 1231.79,-195.09 1223.28,-188.77 1221.2,-195.46"/>
</a>
</g>
</g>
<!-- Node10 -->
<g id="Node000010" class="node">
<title>Node10</title>
<g id="a_Node000010"><a xlink:href="class_a_q_n_w_b_1_1_s_p_e_c_1_1_namespace_registry.html#aceded37c693bb2f6aa21a5945a13557c" target="_top" xlink:title="Get all registered namespaces.">
<polygon fill="white" stroke="#666666" points="1388.75,-177.5 1205.5,-177.5 1205.5,-147 1388.75,-147 1388.75,-177.5"/>
<text xml:space="preserve" text-anchor="start" x="1213.5" y="-164" font-family="Helvetica,sans-Serif" font-size="10.00">AQNWB::SPEC::NamespaceRegistry</text>
<text xml:space="preserve" text-anchor="middle" x="1297.12" y="-152.75" font-family="Helvetica,sans-Serif" font-size="10.00">::getAllNamespaces</text>
</a>
</g>
</g>
<!-- Node9&#45;&gt;Node10 -->
<g id="edge10_Node000009_Node000010" class="edge">
<title>Node9&#45;&gt;Node10</title>
<g id="a_edge10_Node000009_Node000010"><a xlink:title=" ">
<path fill="none" stroke="#63b8ff" d="M1169.77,-145.68C1177.57,-146.7 1185.69,-147.77 1193.87,-148.84"/>
<polygon fill="#63b8ff" stroke="#63b8ff" points="1193.18,-152.28 1203.55,-150.11 1194.09,-145.34 1193.18,-152.28"/>
</a>
</g>
</g>
<!-- Node11 -->
<g id="Node000011" class="node">
<title>Node11</title>
<g id="a_Node000011"><a xlink:href="class_a_q_n_w_b_1_1_n_w_b_1_1_registered_type.html#a651f3d7e5cc28dc93888e8a821c5aa1c" target="_top" xlink:title="Get the schema namespace of the class type.">
<polygon fill="white" stroke="#666666" points="1376.38,-128.5 1217.88,-128.5 1217.88,-98 1376.38,-98 1376.38,-128.5"/>
<text xml:space="preserve" text-anchor="start" x="1225.88" y="-115" font-family="Helvetica,sans-Serif" font-size="10.00">AQNWB::NWB::RegisteredType</text>
<text xml:space="preserve" text-anchor="middle" x="1297.12" y="-103.75" font-family="Helvetica,sans-Serif" font-size="10.00">::getNamespace</text>
</a>
</g>
</g>
<!-- Node9&#45;&gt;Node11 -->
<g id="edge11_Node000009_Node000011" class="edge">
<title>Node9&#45;&gt;Node11</title>
<g id="a_edge11_Node000009_Node000011"><a xlink:title=" ">
<path fill="none" stroke="#63b8ff" d="M1169.77,-129.16C1181.52,-127.68 1193.98,-126.11 1206.31,-124.56"/>
<polygon fill="#63b8ff" stroke="#63b8ff" points="1206.6,-128.05 1216.08,-123.33 1205.72,-121.1 1206.6,-128.05"/>
</a>
</g>
</g>
<!-- Node12 -->
<g id="Node000012" class="node">
<title>Node12</title>
<g id="a_Node000012"><a xlink:href="class_a_q_n_w_b_1_1_n_w_b_1_1_registered_type.html#a150f881ad61cb8352eea7ddba47bc6ad" target="_top" xlink:title="Get the name of the class type.">
<polygon fill="white" stroke="#666666" points="1376.38,-79.5 1217.88,-79.5 1217.88,-49 1376.38,-49 1376.38,-79.5"/>
<text xml:space="preserve" text-anchor="start" x="1225.88" y="-66" font-family="Helvetica,sans-Serif" font-size="10.00">AQNWB::NWB::RegisteredType</text>
<text xml:space="preserve" text-anchor="middle" x="1297.12" y="-54.75" font-family="Helvetica,sans-Serif" font-size="10.00">::getTypeName</text>
</a>
</g>
</g>
<!-- Node9&#45;&gt;Node12 -->
<g id="edge12_Node000009_Node000012" class="edge">
<title>Node9&#45;&gt;Node12</title>
<g id="a_edge12_Node000009_Node000012"><a xlink:title=" ">
<path fill="none" stroke="#63b8ff" d="M1134.65,-121.55C1154.28,-111.41 1180.97,-98.44 1205.5,-89.25 1211.14,-87.14 1217.03,-85.12 1222.99,-83.2"/>
<polygon fill="#63b8ff" stroke="#63b8ff" points="1223.78,-86.62 1232.3,-80.33 1221.71,-79.94 1223.78,-86.62"/>
</a>
</g>
</g>
<!-- Node13 -->
<g id="Node000013" class="node">
<title>Node13</title>
<g id="a_Node000013"><a xlink:href="class_a_q_n_w_b_1_1_s_p_e_c_1_1_namespace_registry.html#a15d9c6f869f0270ad91a2af8067f5a88" target="_top" xlink:title="Get the singleton instance of the NamespaceRegistry.">
<polygon fill="white" stroke="#666666" points="1388.75,-30.5 1205.5,-30.5 1205.5,0 1388.75,0 1388.75,-30.5"/>
<text xml:space="preserve" text-anchor="start" x="1213.5" y="-17" font-family="Helvetica,sans-Serif" font-size="10.00">AQNWB::SPEC::NamespaceRegistry</text>
<text xml:space="preserve" text-anchor="middle" x="1297.12" y="-5.75" font-family="Helvetica,sans-Serif" font-size="10.00">::instance</text>
</a>
</g>
</g>
<!-- Node9&#45;&gt;Node13 -->
<g id="edge13_Node000009_Node000013" class="edge">
<title>Node9&#45;&gt;Node13</title>
<g id="a_edge13_Node000009_Node000013"><a xlink:title=" ">
<path fill="none" stroke="#63b8ff" d="M1117.29,-121.68C1134.38,-100.17 1168.13,-61.63 1205.5,-40.25 1208.52,-38.52 1211.66,-36.91 1214.89,-35.4"/>
<polygon fill="#63b8ff" stroke="#63b8ff" points="1216.19,-38.65 1224.04,-31.54 1213.47,-32.21 1216.19,-38.65"/>
</a>
</g>
</g>
</g>
</svg>

<g id="navigator" transform="translate(0 0)" fill="#404254">
  <rect fill="#f2f5e9" fill-opacity="0.5" stroke="#606060" stroke-width=".5" x="0" y="0" width="60" height="60"/>
  <use id="zoomplus" xlink:href="#zoomPlus" x="17" y="9" onmousedown="handleZoom(evt,'in')"/>
  <use id="zoomminus" xlink:href="#zoomMin" x="42" y="9" onmousedown="handleZoom(evt,'out')"/>
  <use id="reset" xlink:href="#resetDef" x="30" y="36" onmousedown="handleReset()"/>
   <use id="arrowup" xlink:href="#arrowUp" x="0" y="0" onmousedown="handlePan(0,-1)"/>
  <use id="arrowright" xlink:href="#arrowRight" x="0" y="0" onmousedown="handlePan(1,0)"/>
  <use id="arrowdown" xlink:href="#arrowDown" x="0" y="0" onmousedown="handlePan(0,1)"/>
  <use id="arrowleft" xlink:href="#arrowLeft" x="0" y="0" onmousedown="handlePan(-1,0)"/>
</g>
<svg viewBox="0 0 15 15" width="100%" height="30px" preserveAspectRatio="xMaxYMin meet">
 <g id="arrow_out" transform="scale(0.3 0.3)">
  <a xlink:href="class_a_q_n_w_b_1_1_n_w_b_1_1_n_w_b_file_aabb1a926056f5d26944328e928e42651_cgraph_org.svg" target="_base">
   <rect id="button" ry="5" rx="5" y="6" x="6" height="38" width="38"
        fill="#f2f5e9" fill-opacity="0.5" stroke="#606060" stroke-width="1.0"/>
   <path id="arrow"
     d="M 11.500037,31.436501 C 11.940474,20.09759 22.043105,11.32322 32.158766,21.979434 L 37.068811,17.246167 C 37.068811,17.246167 37.088388,32 37.088388,32 L 22.160133,31.978069 C 22.160133,31.978069 26.997745,27.140456 26.997745,27.140456 C 18.528582,18.264221 13.291696,25.230495 11.500037,31.436501 z"
     style="fill:#404040;"/>
  </a>
 </g>
</svg>

<style type='text/css'>
<![CDATA[
[data-mouse-over-selected='false'] { opacity: 0.7; }
[data-mouse-over-selected='true']  { opacity: 1.0; }
]]>
</style>
<script type="application/ecmascript"><![CDATA[
document.addEventListener('DOMContentLoaded', (event) => {
  highlightEdges();
  highlightAdjacentNodes();
});
]]></script>
</svg>
