<?xml version="1.0" encoding="UTF-8" standalone="no"?>
<!DOCTYPE svg PUBLIC "-//W3C//DTD SVG 1.1//EN"
 "http://www.w3.org/Graphics/SVG/1.1/DTD/svg11.dtd">
<!-- Generated by graphviz version 12.2.1 (20241206.2353)
 -->
<!-- Title: AQNWB::NWB::RegisteredType::getNamespace Pages: 1 -->
<!--zoomable 529 -->

<svg id="main" version="1.1" xmlns="http://www.w3.org/2000/svg" xmlns:xlink="http://www.w3.org/1999/xlink" xml:space="preserve" onload="init(evt)">

<style type="text/css"><![CDATA[
.node, .edge {opacity: 0.7;}
.node.selected, .edge.selected {opacity: 1;}
.edge:hover path { stroke: red; }
.edge:hover polygon { stroke: red; fill: red; }
]]></style>

<defs>
  <circle id="rim" cx="0" cy="0" r="7"/>
  <circle id="rim2" cx="0" cy="0" r="3.5"/>
  <g id="zoomPlus">
    <use xlink:href="#rim" fill="#404040"><set attributeName="fill" to="#808080" begin="zoomplus.mouseover" end="zoomplus.mouseout"/></use>
    <path d="M-4,0h8M0,-4v8" fill="none" stroke="white" stroke-width="1.5" pointer-events="none"/>
  </g>
  <g id="zoomMin">
    <use xlink:href="#rim" fill="#404040"><set attributeName="fill" to="#808080" begin="zoomminus.mouseover" end="zoomminus.mouseout"/></use>
    <path d="M-4,0h8" fill="none" stroke="white" stroke-width="1.5" pointer-events="none"/>
  </g>
  <g id="arrowUp" transform="translate(30 24)">
    <use xlink:href="#rim"/>
    <path pointer-events="none" fill="none" stroke="white" stroke-width="1.5" d="M0,-3.0v7 M-2.5,-0.5L0,-3.0L2.5,-0.5"/>
  </g>
  <g id="arrowRight" transform="rotate(90) translate(36 -43)">
    <use xlink:href="#rim"/>
    <path pointer-events="none" fill="none" stroke="white" stroke-width="1.5" d="M0,-3.0v7 M-2.5,-0.5L0,-3.0L2.5,-0.5"/>
  </g>
  <g id="arrowDown" transform="rotate(180) translate(-30 -48)">
    <use xlink:href="#rim"/>
    <path pointer-events="none" fill="none" stroke="white" stroke-width="1.5" d="M0,-3.0v7 M-2.5,-0.5L0,-3.0L2.5,-0.5"/>
  </g>
  <g id="arrowLeft" transform="rotate(270) translate(-36 17)">
    <use xlink:href="#rim"/>
    <path pointer-events="none" fill="none" stroke="white" stroke-width="1.5" d="M0,-3.0v7 M-2.5,-0.5L0,-3.0L2.5,-0.5"/>
  </g>
  <g id="resetDef">
    <use xlink:href="#rim2" fill="#404040"><set attributeName="fill" to="#808080" begin="reset.mouseover" end="reset.mouseout"/></use>
  </g>
</defs>
<script type="application/ecmascript">
var viewWidth = 1727;
var viewHeight = 529;
var sectionId = 'dynsection-7';
</script>
<script type="application/ecmascript" xlink:href="svg.min.js"/>
<svg id="graph" class="graph">
<g id="viewport">
<title>AQNWB::NWB::RegisteredType::getNamespace</title>
<!-- Node1 -->
<g id="Node000001" class="node">
<title>Node1</title>
<g id="a_Node000001"><a xlink:title="Get the schema namespace of the class type.">
<polygon fill="#999999" stroke="#666666" points="1719.25,-349.5 1560.75,-349.5 1560.75,-319 1719.25,-319 1719.25,-349.5"/>
<text text-anchor="start" x="1568.75" y="-336" font-family="Helvetica,sans-Serif" font-size="10.00">AQNWB::NWB::RegisteredType</text>
<text text-anchor="middle" x="1640" y="-324.75" font-family="Helvetica,sans-Serif" font-size="10.00">::getNamespace</text>
</a>
</g>
</g>
<!-- Node2 -->
<g id="Node000002" class="node">
<title>Node2</title>
<g id="a_Node000002"><a xlink:href="class_a_q_n_w_b_1_1_n_w_b_1_1_n_w_b_file.html#a71bd7b910a7ec89bdaf36304d67bfef1" target="_top" xlink:title="Creates the default file structure. Note, this function will fail if the file is in a mode where new ...">
<polygon fill="white" stroke="#666666" points="1510.5,-471.5 1380.5,-471.5 1380.5,-441 1510.5,-441 1510.5,-471.5"/>
<text text-anchor="start" x="1388.5" y="-458" font-family="Helvetica,sans-Serif" font-size="10.00">AQNWB::NWB::NWBFile</text>
<text text-anchor="middle" x="1445.5" y="-446.75" font-family="Helvetica,sans-Serif" font-size="10.00">::createFileStructure</text>
</a>
</g>
</g>
<!-- Node1&#45;&gt;Node2 -->
<g id="edge1_Node000001_Node000002" class="edge">
<title>Node1&#45;&gt;Node2</title>
<g id="a_edge1_Node000001_Node000002"><a xlink:title=" ">
<path fill="none" stroke="#63b8ff" d="M1604.52,-356.1C1566.13,-380.43 1505.06,-419.14 1471.18,-440.61"/>
<polygon fill="#63b8ff" stroke="#63b8ff" points="1606.38,-359.07 1612.95,-350.76 1602.63,-353.16 1606.38,-359.07"/>
</a>
</g>
</g>
<!-- Node12 -->
<g id="Node000012" class="node">
<title>Node12</title>
<g id="a_Node000012"><a xlink:href="class_a_q_n_w_b_1_1_n_w_b_1_1_registered_type.html#a0e670647b466cb65a88b81f9fe4a6e37" target="_top" xlink:title="Get the full name of the type, i.e., namespace::typename">
<polygon fill="white" stroke="#666666" points="1524.75,-392.5 1366.25,-392.5 1366.25,-362 1524.75,-362 1524.75,-392.5"/>
<text text-anchor="start" x="1374.25" y="-379" font-family="Helvetica,sans-Serif" font-size="10.00">AQNWB::NWB::RegisteredType</text>
<text text-anchor="middle" x="1445.5" y="-367.75" font-family="Helvetica,sans-Serif" font-size="10.00">::getFullTypeName</text>
</a>
</g>
</g>
<!-- Node1&#45;&gt;Node12 -->
<g id="edge11_Node000001_Node000012" class="edge">
<title>Node1&#45;&gt;Node12</title>
<g id="a_edge11_Node000001_Node000012"><a xlink:title=" ">
<path fill="none" stroke="#63b8ff" d="M1557.48,-352.46C1544,-355.47 1530.12,-358.57 1516.95,-361.51"/>
<polygon fill="#63b8ff" stroke="#63b8ff" points="1558.21,-355.88 1567.21,-350.29 1556.69,-349.05 1558.21,-355.88"/>
</a>
</g>
</g>
<!-- Node13 -->
<g id="Node000013" class="node">
<title>Node13</title>
<g id="a_Node000013"><a xlink:href="class_a_q_n_w_b_1_1_n_w_b_1_1_container.html#a420424e52795b5212d7dcb728396af6a" target="_top" xlink:title="Initialize the container.">
<polygon fill="white" stroke="#666666" points="1511.62,-275.5 1379.38,-275.5 1379.38,-245 1511.62,-245 1511.62,-275.5"/>
<text text-anchor="start" x="1387.38" y="-262" font-family="Helvetica,sans-Serif" font-size="10.00">AQNWB::NWB::Container</text>
<text text-anchor="middle" x="1445.5" y="-250.75" font-family="Helvetica,sans-Serif" font-size="10.00">::initialize</text>
</a>
</g>
</g>
<!-- Node1&#45;&gt;Node13 -->
<g id="edge12_Node000001_Node000013" class="edge">
<title>Node1&#45;&gt;Node13</title>
<g id="a_edge12_Node000001_Node000013"><a xlink:title=" ">
<path fill="none" stroke="#63b8ff" d="M1587.44,-314.43C1556.04,-302.36 1516.47,-287.15 1487.27,-275.92"/>
<polygon fill="#63b8ff" stroke="#63b8ff" points="1586.17,-317.69 1596.76,-318.01 1588.68,-311.16 1586.17,-317.69"/>
</a>
</g>
</g>
<!-- Node15 -->
<g id="Node000015" class="node">
<title>Node15</title>
<g id="a_Node000015"><a xlink:href="class_a_q_n_w_b_1_1_n_w_b_1_1_device.html#ab9651ab77d0c1e46126178ea55cb0295" target="_top" xlink:title="Initializes the device by creating NWB related attributes and writing the manufactor and description ...">
<polygon fill="white" stroke="#666666" points="1306.62,-422.5 1185.62,-422.5 1185.62,-392 1306.62,-392 1306.62,-422.5"/>
<text text-anchor="start" x="1193.62" y="-409" font-family="Helvetica,sans-Serif" font-size="10.00">AQNWB::NWB::Device</text>
<text text-anchor="middle" x="1246.12" y="-397.75" font-family="Helvetica,sans-Serif" font-size="10.00">::initialize</text>
</a>
</g>
</g>
<!-- Node1&#45;&gt;Node15 -->
<g id="edge27_Node000001_Node000015" class="edge">
<title>Node1&#45;&gt;Node15</title>
<g id="a_edge27_Node000001_Node000015"><a xlink:title=" ">
<path fill="none" stroke="#63b8ff" d="M1549.04,-327.18C1494.38,-326.09 1424.21,-330.51 1366.25,-353.25 1347.12,-360.75 1348.42,-372.67 1330.25,-382.25 1322.92,-386.12 1314.9,-389.47 1306.83,-392.36"/>
<polygon fill="#63b8ff" stroke="#63b8ff" points="1548.85,-330.67 1558.94,-327.45 1549.04,-323.68 1548.85,-330.67"/>
</a>
</g>
</g>
<!-- Node24 -->
<g id="Node000024" class="node">
<title>Node24</title>
<g id="a_Node000024"><a xlink:href="class_a_q_n_w_b_1_1_n_w_b_1_1_data.html#a5b354d5a20095d2279adcdc0d84c944f" target="_top" xlink:title="Initialize the dataset for the Data object.">
<polygon fill="white" stroke="#666666" points="1521.75,-125.88 1369.25,-125.88 1369.25,-106.62 1521.75,-106.62 1521.75,-125.88"/>
<text text-anchor="middle" x="1445.5" y="-112.38" font-family="Helvetica,sans-Serif" font-size="10.00">AQNWB::NWB::Data::initialize</text>
</a>
</g>
</g>
<!-- Node1&#45;&gt;Node24 -->
<g id="edge25_Node000001_Node000024" class="edge">
<title>Node1&#45;&gt;Node24</title>
<g id="a_edge25_Node000001_Node000024"><a xlink:title=" ">
<path fill="none" stroke="#63b8ff" d="M1617.68,-310.1C1575.61,-262.46 1483.55,-158.21 1455.07,-125.96"/>
<polygon fill="#63b8ff" stroke="#63b8ff" points="1614.91,-312.26 1624.15,-317.44 1620.16,-307.62 1614.91,-312.26"/>
</a>
</g>
</g>
<!-- Node3 -->
<g id="Node000003" class="node">
<title>Node3</title>
<g id="a_Node000003"><a xlink:href="class_a_q_n_w_b_1_1_n_w_b_1_1_n_w_b_file.html#a5fe5d0aba7a050db86d5caa5b8cf4a04" target="_top" xlink:title="Initializes the NWB file by setting up the file structure.">
<polygon fill="white" stroke="#666666" points="1311.12,-471.5 1181.12,-471.5 1181.12,-441 1311.12,-441 1311.12,-471.5"/>
<text text-anchor="start" x="1189.12" y="-458" font-family="Helvetica,sans-Serif" font-size="10.00">AQNWB::NWB::NWBFile</text>
<text text-anchor="middle" x="1246.12" y="-446.75" font-family="Helvetica,sans-Serif" font-size="10.00">::initialize</text>
</a>
</g>
</g>
<!-- Node2&#45;&gt;Node3 -->
<g id="edge2_Node000002_Node000003" class="edge">
<title>Node2&#45;&gt;Node3</title>
<g id="a_edge2_Node000002_Node000003"><a xlink:title=" ">
<path fill="none" stroke="#63b8ff" d="M1368.84,-456.25C1349.89,-456.25 1329.73,-456.25 1311.39,-456.25"/>
<polygon fill="#63b8ff" stroke="#63b8ff" points="1368.63,-459.75 1378.63,-456.25 1368.63,-452.75 1368.63,-459.75"/>
</a>
</g>
</g>
<!-- Node4 -->
<g id="Node000004" class="node">
<title>Node4</title>
<g id="a_Node000004"><a xlink:href="class_a_q_n_w_b_1_1_n_w_b_1_1_n_w_b_file.html#aa611b4def3f53c508ddd8ec71944ffe7" target="_top" xlink:title=" ">
<polygon fill="white" stroke="#666666" points="1326.88,-520.5 1165.38,-520.5 1165.38,-490 1326.88,-490 1326.88,-520.5"/>
<text text-anchor="start" x="1173.38" y="-507" font-family="Helvetica,sans-Serif" font-size="10.00">AQNWB::NWB::NWBFile</text>
<text text-anchor="middle" x="1246.12" y="-495.75" font-family="Helvetica,sans-Serif" font-size="10.00">::readTimestampsReferenceTime</text>
</a>
</g>
</g>
<!-- Node2&#45;&gt;Node4 -->
<g id="edge3_Node000002_Node000004" class="edge">
<title>Node2&#45;&gt;Node4</title>
<g id="a_edge3_Node000002_Node000004"><a xlink:title=" ">
<path fill="none" stroke="#63b8ff" d="M1370.15,-474.71C1350.46,-479.6 1329.4,-484.82 1310.37,-489.55"/>
<polygon fill="#63b8ff" stroke="#63b8ff" points="1370.9,-478.13 1379.77,-472.32 1369.22,-471.33 1370.9,-478.13"/>
</a>
</g>
</g>
<!-- Node5 -->
<g id="Node000005" class="node">
<title>Node5</title>
<g id="a_Node000005"><a xlink:href="class_a_q_n_w_b_1_1_n_w_b_1_1_n_w_b_file.html#ac12eceea7bcebc1243eac9a64d4190b0" target="_top" xlink:title=" ">
<polygon fill="white" stroke="#666666" points="1126,-520.5 996,-520.5 996,-490 1126,-490 1126,-520.5"/>
<text text-anchor="start" x="1004" y="-507" font-family="Helvetica,sans-Serif" font-size="10.00">AQNWB::NWB::NWBFile</text>
<text text-anchor="middle" x="1061" y="-495.75" font-family="Helvetica,sans-Serif" font-size="10.00">::readSessionStartTime</text>
</a>
</g>
</g>
<!-- Node4&#45;&gt;Node5 -->
<g id="edge4_Node000004_Node000005" class="edge">
<title>Node4&#45;&gt;Node5</title>
<g id="a_edge4_Node000004_Node000005"><a xlink:title=" ">
<path fill="none" stroke="#63b8ff" d="M1153.83,-505.25C1144.6,-505.25 1135.36,-505.25 1126.5,-505.25"/>
<polygon fill="#63b8ff" stroke="#63b8ff" points="1153.56,-508.75 1163.56,-505.25 1153.56,-501.75 1153.56,-508.75"/>
</a>
</g>
</g>
<!-- Node6 -->
<g id="Node000006" class="node">
<title>Node6</title>
<g id="a_Node000006"><a xlink:href="class_a_q_n_w_b_1_1_n_w_b_1_1_n_w_b_file.html#a5b62d301f9653fcf0cf083300362b371" target="_top" xlink:title=" ">
<polygon fill="white" stroke="#666666" points="960,-520.5 830,-520.5 830,-490 960,-490 960,-520.5"/>
<text text-anchor="start" x="838" y="-507" font-family="Helvetica,sans-Serif" font-size="10.00">AQNWB::NWB::NWBFile</text>
<text text-anchor="middle" x="895" y="-495.75" font-family="Helvetica,sans-Serif" font-size="10.00">::readSessionDescription</text>
</a>
</g>
</g>
<!-- Node5&#45;&gt;Node6 -->
<g id="edge5_Node000005_Node000006" class="edge">
<title>Node5&#45;&gt;Node6</title>
<g id="a_edge5_Node000005_Node000006"><a xlink:title=" ">
<path fill="none" stroke="#63b8ff" d="M984.41,-505.25C976.4,-505.25 968.3,-505.25 960.43,-505.25"/>
<polygon fill="#63b8ff" stroke="#63b8ff" points="984.14,-508.75 994.14,-505.25 984.14,-501.75 984.14,-508.75"/>
</a>
</g>
</g>
<!-- Node7 -->
<g id="Node000007" class="node">
<title>Node7</title>
<g id="a_Node000007"><a xlink:href="class_a_q_n_w_b_1_1_n_w_b_1_1_n_w_b_file.html#abae17504e9ba927509296efaf5fc99e2" target="_top" xlink:title=" ">
<polygon fill="white" stroke="#666666" points="794,-520.5 664,-520.5 664,-490 794,-490 794,-520.5"/>
<text text-anchor="start" x="672" y="-507" font-family="Helvetica,sans-Serif" font-size="10.00">AQNWB::NWB::NWBFile</text>
<text text-anchor="middle" x="729" y="-495.75" font-family="Helvetica,sans-Serif" font-size="10.00">::readIdentifier</text>
</a>
</g>
</g>
<!-- Node6&#45;&gt;Node7 -->
<g id="edge6_Node000006_Node000007" class="edge">
<title>Node6&#45;&gt;Node7</title>
<g id="a_edge6_Node000006_Node000007"><a xlink:title=" ">
<path fill="none" stroke="#63b8ff" d="M818.41,-505.25C810.4,-505.25 802.3,-505.25 794.43,-505.25"/>
<polygon fill="#63b8ff" stroke="#63b8ff" points="818.14,-508.75 828.14,-505.25 818.14,-501.75 818.14,-508.75"/>
</a>
</g>
</g>
<!-- Node8 -->
<g id="Node000008" class="node">
<title>Node8</title>
<g id="a_Node000008"><a xlink:href="class_a_q_n_w_b_1_1_n_w_b_1_1_n_w_b_file.html#aab50ade1916ed284389c29d44e8a3a28" target="_top" xlink:title=" ">
<polygon fill="white" stroke="#666666" points="628,-520.5 498,-520.5 498,-490 628,-490 628,-520.5"/>
<text text-anchor="start" x="506" y="-507" font-family="Helvetica,sans-Serif" font-size="10.00">AQNWB::NWB::NWBFile</text>
<text text-anchor="middle" x="563" y="-495.75" font-family="Helvetica,sans-Serif" font-size="10.00">::readFileCreateDate</text>
</a>
</g>
</g>
<!-- Node7&#45;&gt;Node8 -->
<g id="edge7_Node000007_Node000008" class="edge">
<title>Node7&#45;&gt;Node8</title>
<g id="a_edge7_Node000007_Node000008"><a xlink:title=" ">
<path fill="none" stroke="#63b8ff" d="M652.41,-505.25C644.4,-505.25 636.3,-505.25 628.43,-505.25"/>
<polygon fill="#63b8ff" stroke="#63b8ff" points="652.14,-508.75 662.14,-505.25 652.14,-501.75 652.14,-508.75"/>
</a>
</g>
</g>
<!-- Node9 -->
<g id="Node000009" class="node">
<title>Node9</title>
<g id="a_Node000009"><a xlink:href="class_a_q_n_w_b_1_1_n_w_b_1_1_n_w_b_file.html#aabb1a926056f5d26944328e928e42651" target="_top" xlink:title=" ">
<polygon fill="white" stroke="#666666" points="462,-520.5 332,-520.5 332,-490 462,-490 462,-520.5"/>
<text text-anchor="start" x="340" y="-507" font-family="Helvetica,sans-Serif" font-size="10.00">AQNWB::NWB::NWBFile</text>
<text text-anchor="middle" x="397" y="-495.75" font-family="Helvetica,sans-Serif" font-size="10.00">::readNWBVersion</text>
</a>
</g>
</g>
<!-- Node8&#45;&gt;Node9 -->
<g id="edge8_Node000008_Node000009" class="edge">
<title>Node8&#45;&gt;Node9</title>
<g id="a_edge8_Node000008_Node000009"><a xlink:title=" ">
<path fill="none" stroke="#63b8ff" d="M486.41,-505.25C478.4,-505.25 470.3,-505.25 462.43,-505.25"/>
<polygon fill="#63b8ff" stroke="#63b8ff" points="486.14,-508.75 496.14,-505.25 486.14,-501.75 486.14,-508.75"/>
</a>
</g>
</g>
<!-- Node10 -->
<g id="Node000010" class="node">
<title>Node10</title>
<g id="a_Node000010"><a xlink:href="class_a_q_n_w_b_1_1_n_w_b_1_1_n_w_b_file.html#a9df4c1ed0ddceac775116b0377784a1b" target="_top" xlink:title=" ">
<polygon fill="white" stroke="#666666" points="296,-520.5 166,-520.5 166,-490 296,-490 296,-520.5"/>
<text text-anchor="start" x="174" y="-507" font-family="Helvetica,sans-Serif" font-size="10.00">AQNWB::NWB::NWBFile</text>
<text text-anchor="middle" x="231" y="-495.75" font-family="Helvetica,sans-Serif" font-size="10.00">::readElectrodeTable</text>
</a>
</g>
</g>
<!-- Node9&#45;&gt;Node10 -->
<g id="edge9_Node000009_Node000010" class="edge">
<title>Node9&#45;&gt;Node10</title>
<g id="a_edge9_Node000009_Node000010"><a xlink:title=" ">
<path fill="none" stroke="#63b8ff" d="M320.41,-505.25C312.4,-505.25 304.3,-505.25 296.43,-505.25"/>
<polygon fill="#63b8ff" stroke="#63b8ff" points="320.14,-508.75 330.14,-505.25 320.14,-501.75 320.14,-508.75"/>
</a>
</g>
</g>
<!-- Node11 -->
<g id="Node000011" class="node">
<title>Node11</title>
<g id="a_Node000011"><a xlink:href="class_a_q_n_w_b_1_1_n_w_b_1_1_n_w_b_file.html#a941d5b775441fac6c787cd55a8276461" target="_top" xlink:title="Deleted copy assignment operator to prevent copying.">
<polygon fill="white" stroke="#666666" points="130,-520.5 0,-520.5 0,-490 130,-490 130,-520.5"/>
<text text-anchor="start" x="8" y="-507" font-family="Helvetica,sans-Serif" font-size="10.00">AQNWB::NWB::NWBFile</text>
<text text-anchor="middle" x="65" y="-495.75" font-family="Helvetica,sans-Serif" font-size="10.00">::operator=</text>
</a>
</g>
</g>
<!-- Node10&#45;&gt;Node11 -->
<g id="edge10_Node000010_Node000011" class="edge">
<title>Node10&#45;&gt;Node11</title>
<g id="a_edge10_Node000010_Node000011"><a xlink:title=" ">
<path fill="none" stroke="#63b8ff" d="M154.41,-505.25C146.4,-505.25 138.3,-505.25 130.43,-505.25"/>
<polygon fill="#63b8ff" stroke="#63b8ff" points="154.14,-508.75 164.14,-505.25 154.14,-501.75 154.14,-508.75"/>
</a>
</g>
</g>
<!-- Node14 -->
<g id="Node000014" class="node">
<title>Node14</title>
<g id="a_Node000014"><a xlink:href="class_a_q_n_w_b_1_1_n_w_b_1_1_annotation_series.html#ae36801ce5709f9e59bf1fbb9622ad630" target="_top" xlink:title="Initializes the AnnotationSeries.">
<polygon fill="white" stroke="#666666" points="1328.38,-128.5 1163.88,-128.5 1163.88,-98 1328.38,-98 1328.38,-128.5"/>
<text text-anchor="start" x="1171.88" y="-115" font-family="Helvetica,sans-Serif" font-size="10.00">AQNWB::NWB::AnnotationSeries</text>
<text text-anchor="middle" x="1246.12" y="-103.75" font-family="Helvetica,sans-Serif" font-size="10.00">::initialize</text>
</a>
</g>
</g>
<!-- Node13&#45;&gt;Node14 -->
<g id="edge13_Node000013_Node000014" class="edge">
<title>Node13&#45;&gt;Node14</title>
<g id="a_edge13_Node000013_Node000014"><a xlink:title=" ">
<path fill="none" stroke="#63b8ff" d="M1427.44,-235.3C1407.31,-207.69 1371.32,-163.72 1330.25,-138.25 1324.49,-134.68 1318.18,-131.59 1311.7,-128.92"/>
<polygon fill="#63b8ff" stroke="#63b8ff" points="1424.59,-237.33 1433.25,-243.44 1430.29,-233.27 1424.59,-237.33"/>
</a>
</g>
</g>
<!-- Node13&#45;&gt;Node15 -->
<g id="edge14_Node000013_Node000015" class="edge">
<title>Node13&#45;&gt;Node15</title>
<g id="a_edge14_Node000013_Node000015"><a xlink:title=" ">
<path fill="none" stroke="#63b8ff" d="M1409.92,-282.3C1395.34,-292.67 1378.86,-305.91 1366.25,-320.25 1345.21,-344.18 1355.26,-362.5 1330.25,-382.25 1323.39,-387.67 1315.37,-391.91 1307.07,-395.24"/>
<polygon fill="#63b8ff" stroke="#63b8ff" points="1411.69,-285.34 1417.93,-276.78 1407.71,-279.58 1411.69,-285.34"/>
</a>
</g>
</g>
<!-- Node18 -->
<g id="Node000018" class="node">
<title>Node18</title>
<g id="a_Node000018"><a xlink:href="class_a_q_n_w_b_1_1_n_w_b_1_1_dynamic_table.html#a0dbbd098c716b08c986c58ee118c85e9" target="_top" xlink:title="Initializes the DynamicTable object by creating NWB attributes and column names.">
<polygon fill="white" stroke="#666666" points="1322.38,-373.5 1169.88,-373.5 1169.88,-343 1322.38,-343 1322.38,-373.5"/>
<text text-anchor="start" x="1177.88" y="-360" font-family="Helvetica,sans-Serif" font-size="10.00">AQNWB::NWB::DynamicTable</text>
<text text-anchor="middle" x="1246.12" y="-348.75" font-family="Helvetica,sans-Serif" font-size="10.00">::initialize</text>
</a>
</g>
</g>
<!-- Node13&#45;&gt;Node18 -->
<g id="edge17_Node000013_Node000018" class="edge">
<title>Node13&#45;&gt;Node18</title>
<g id="a_edge17_Node000013_Node000018"><a xlink:title=" ">
<path fill="none" stroke="#63b8ff" d="M1414.78,-282.49C1392.45,-298.37 1360.62,-319.31 1330.25,-333.25 1322.72,-336.71 1314.58,-339.83 1306.46,-342.61"/>
<polygon fill="#63b8ff" stroke="#63b8ff" points="1416.74,-285.39 1422.8,-276.7 1412.64,-279.72 1416.74,-285.39"/>
</a>
</g>
</g>
<!-- Node19 -->
<g id="Node000019" class="node">
<title>Node19</title>
<g id="a_Node000019"><a xlink:href="class_a_q_n_w_b_1_1_n_w_b_1_1_electrical_series.html#afd9ec215f016f5dda4aa13d4864f38e1" target="_top" xlink:title="Initializes the Electrical Series.">
<polygon fill="white" stroke="#666666" points="1325.38,-324.5 1166.88,-324.5 1166.88,-294 1325.38,-294 1325.38,-324.5"/>
<text text-anchor="start" x="1174.88" y="-311" font-family="Helvetica,sans-Serif" font-size="10.00">AQNWB::NWB::ElectricalSeries</text>
<text text-anchor="middle" x="1246.12" y="-299.75" font-family="Helvetica,sans-Serif" font-size="10.00">::initialize</text>
</a>
</g>
</g>
<!-- Node13&#45;&gt;Node19 -->
<g id="edge18_Node000013_Node000019" class="edge">
<title>Node13&#45;&gt;Node19</title>
<g id="a_edge18_Node000013_Node000019"><a xlink:title=" ">
<path fill="none" stroke="#63b8ff" d="M1370.15,-278.71C1350.46,-283.6 1329.4,-288.82 1310.37,-293.55"/>
<polygon fill="#63b8ff" stroke="#63b8ff" points="1370.9,-282.13 1379.77,-276.32 1369.22,-275.33 1370.9,-282.13"/>
</a>
</g>
</g>
<!-- Node20 -->
<g id="Node000020" class="node">
<title>Node20</title>
<g id="a_Node000020"><a xlink:href="class_a_q_n_w_b_1_1_n_w_b_1_1_electrode_group.html#ae1040ee51efcdfb2b4ba7ba046dd0a51" target="_top" xlink:title="Initializes the ElectrodeGroup object.">
<polygon fill="white" stroke="#666666" points="1325,-79.5 1167.25,-79.5 1167.25,-49 1325,-49 1325,-79.5"/>
<text text-anchor="start" x="1175.25" y="-66" font-family="Helvetica,sans-Serif" font-size="10.00">AQNWB::NWB::ElectrodeGroup</text>
<text text-anchor="middle" x="1246.12" y="-54.75" font-family="Helvetica,sans-Serif" font-size="10.00">::initialize</text>
</a>
</g>
</g>
<!-- Node13&#45;&gt;Node20 -->
<g id="edge19_Node000013_Node000020" class="edge">
<title>Node13&#45;&gt;Node20</title>
<g id="a_edge19_Node000013_Node000020"><a xlink:title=" ">
<path fill="none" stroke="#63b8ff" d="M1429.05,-235.15C1401.15,-190.13 1344,-99.42 1330.25,-89.25 1325.4,-85.66 1320.04,-82.59 1314.45,-79.95"/>
<polygon fill="#63b8ff" stroke="#63b8ff" points="1425.97,-236.82 1434.2,-243.48 1431.92,-233.14 1425.97,-236.82"/>
</a>
</g>
</g>
<!-- Node21 -->
<g id="Node000021" class="node">
<title>Node21</title>
<g id="a_Node000021"><a xlink:href="class_a_q_n_w_b_1_1_n_w_b_1_1_electrode_table.html#ac46ab239eea41a7f432fcbb559fa1b98" target="_top" xlink:title="Initializes the ElectrodeTable.">
<polygon fill="white" stroke="#666666" points="1323.5,-275.5 1168.75,-275.5 1168.75,-245 1323.5,-245 1323.5,-275.5"/>
<text text-anchor="start" x="1176.75" y="-262" font-family="Helvetica,sans-Serif" font-size="10.00">AQNWB::NWB::ElectrodeTable</text>
<text text-anchor="middle" x="1246.12" y="-250.75" font-family="Helvetica,sans-Serif" font-size="10.00">::initialize</text>
</a>
</g>
</g>
<!-- Node13&#45;&gt;Node21 -->
<g id="edge22_Node000013_Node000021" class="edge">
<title>Node13&#45;&gt;Node21</title>
<g id="a_edge22_Node000013_Node000021"><a xlink:title=" ">
<path fill="none" stroke="#63b8ff" d="M1367.64,-260.25C1353.21,-260.25 1338.11,-260.25 1323.69,-260.25"/>
<polygon fill="#63b8ff" stroke="#63b8ff" points="1367.54,-263.75 1377.54,-260.25 1367.54,-256.75 1367.54,-263.75"/>
</a>
</g>
</g>
<!-- Node22 -->
<g id="Node000022" class="node">
<title>Node22</title>
<g id="a_Node000022"><a xlink:href="class_a_q_n_w_b_1_1_n_w_b_1_1_spike_event_series.html#a8d9fdfd3be48a2829381969302d3063f" target="_top" xlink:title="Initializes the SpikeEventSeries.">
<polygon fill="white" stroke="#666666" points="1330.25,-226.5 1162,-226.5 1162,-196 1330.25,-196 1330.25,-226.5"/>
<text text-anchor="start" x="1170" y="-213" font-family="Helvetica,sans-Serif" font-size="10.00">AQNWB::NWB::SpikeEventSeries</text>
<text text-anchor="middle" x="1246.12" y="-201.75" font-family="Helvetica,sans-Serif" font-size="10.00">::initialize</text>
</a>
</g>
</g>
<!-- Node13&#45;&gt;Node22 -->
<g id="edge23_Node000013_Node000022" class="edge">
<title>Node13&#45;&gt;Node22</title>
<g id="a_edge23_Node000013_Node000022"><a xlink:title=" ">
<path fill="none" stroke="#63b8ff" d="M1370.15,-241.79C1350.46,-236.9 1329.4,-231.68 1310.37,-226.95"/>
<polygon fill="#63b8ff" stroke="#63b8ff" points="1369.22,-245.17 1379.77,-244.18 1370.9,-238.37 1369.22,-245.17"/>
</a>
</g>
</g>
<!-- Node23 -->
<g id="Node000023" class="node">
<title>Node23</title>
<g id="a_Node000023"><a xlink:href="class_a_q_n_w_b_1_1_n_w_b_1_1_time_series.html#a9be940f3782a051785f27636a004b79f" target="_top" xlink:title="Initializes the TimeSeries by creating NWB related attributes and writing the description and comment...">
<polygon fill="white" stroke="#666666" points="1316,-177.5 1176.25,-177.5 1176.25,-147 1316,-147 1316,-177.5"/>
<text text-anchor="start" x="1184.25" y="-164" font-family="Helvetica,sans-Serif" font-size="10.00">AQNWB::NWB::TimeSeries</text>
<text text-anchor="middle" x="1246.12" y="-152.75" font-family="Helvetica,sans-Serif" font-size="10.00">::initialize</text>
</a>
</g>
</g>
<!-- Node13&#45;&gt;Node23 -->
<g id="edge24_Node000013_Node000023" class="edge">
<title>Node13&#45;&gt;Node23</title>
<g id="a_edge24_Node000013_Node000023"><a xlink:title=" ">
<path fill="none" stroke="#63b8ff" d="M1414.78,-238.01C1392.45,-222.13 1360.62,-201.19 1330.25,-187.25 1322.72,-183.79 1314.58,-180.67 1306.46,-177.89"/>
<polygon fill="#63b8ff" stroke="#63b8ff" points="1412.64,-240.78 1422.8,-243.8 1416.74,-235.11 1412.64,-240.78"/>
</a>
</g>
</g>
<!-- Node16 -->
<g id="Node000016" class="node">
<title>Node16</title>
<g id="a_Node000016"><a xlink:href="class_a_q_n_w_b_1_1_n_w_b_1_1_n_w_b_file.html#a749bc45b2c60adf71b4d16ad247dc04d" target="_top" xlink:title="Create ElectrodesTable. Note, this function will fail if the file is in a mode where new objects cann...">
<polygon fill="white" stroke="#666666" points="1126,-153.5 996,-153.5 996,-123 1126,-123 1126,-153.5"/>
<text text-anchor="start" x="1004" y="-140" font-family="Helvetica,sans-Serif" font-size="10.00">AQNWB::NWB::NWBFile</text>
<text text-anchor="middle" x="1061" y="-128.75" font-family="Helvetica,sans-Serif" font-size="10.00">::createElectrodesTable</text>
</a>
</g>
</g>
<!-- Node15&#45;&gt;Node16 -->
<g id="edge15_Node000015_Node000016" class="edge">
<title>Node15&#45;&gt;Node16</title>
<g id="a_edge15_Node000015_Node000016"><a xlink:title=" ">
<path fill="none" stroke="#63b8ff" d="M1175.07,-392.49C1170.26,-389.65 1165.82,-386.27 1162,-382.25 1115.95,-333.82 1152.65,-297.54 1126,-236.25 1112.39,-204.94 1089.08,-172.52 1074.66,-153.93"/>
<polygon fill="#63b8ff" stroke="#63b8ff" points="1173.49,-395.62 1184,-396.93 1176.6,-389.35 1173.49,-395.62"/>
</a>
</g>
</g>
<!-- Node17 -->
<g id="Node000017" class="node">
<title>Node17</title>
<g id="a_Node000017"><a xlink:href="class_a_q_n_w_b_1_1_n_w_b_1_1_n_w_b_file.html#a1081999095a4a94f6a3c70cb17807799" target="_top" xlink:title="Create SpikeEventSeries objects to record data into. Created objects are stored in recordingContainer...">
<polygon fill="white" stroke="#666666" points="1126,-275.5 996,-275.5 996,-245 1126,-245 1126,-275.5"/>
<text text-anchor="start" x="1004" y="-262" font-family="Helvetica,sans-Serif" font-size="10.00">AQNWB::NWB::NWBFile</text>
<text text-anchor="middle" x="1061" y="-250.75" font-family="Helvetica,sans-Serif" font-size="10.00">::createSpikeEventSeries</text>
</a>
</g>
</g>
<!-- Node15&#45;&gt;Node17 -->
<g id="edge16_Node000015_Node000017" class="edge">
<title>Node15&#45;&gt;Node17</title>
<g id="a_edge16_Node000015_Node000017"><a xlink:title=" ">
<path fill="none" stroke="#63b8ff" d="M1175.19,-389.66C1170.58,-387.47 1166.13,-385.01 1162,-382.25 1119.39,-353.84 1085.67,-301.84 1070.59,-275.87"/>
<polygon fill="#63b8ff" stroke="#63b8ff" points="1173.52,-392.75 1184.09,-393.46 1176.27,-386.32 1173.52,-392.75"/>
</a>
</g>
</g>
<!-- Node20&#45;&gt;Node16 -->
<g id="edge20_Node000020_Node000016" class="edge">
<title>Node20&#45;&gt;Node16</title>
<g id="a_edge20_Node000020_Node000016"><a xlink:title=" ">
<path fill="none" stroke="#63b8ff" d="M1177.49,-83.57C1172.21,-85.39 1167,-87.29 1162,-89.25 1137.34,-98.92 1110.44,-112.28 1090.75,-122.6"/>
<polygon fill="#63b8ff" stroke="#63b8ff" points="1178.54,-86.91 1186.92,-80.44 1176.33,-80.27 1178.54,-86.91"/>
</a>
</g>
</g>
<!-- Node20&#45;&gt;Node17 -->
<g id="edge21_Node000020_Node000017" class="edge">
<title>Node20&#45;&gt;Node17</title>
<g id="a_edge21_Node000020_Node000017"><a xlink:title=" ">
<path fill="none" stroke="#63b8ff" d="M1166.56,-85.72C1164.99,-86.83 1163.46,-88.01 1162,-89.25 1134.39,-112.62 1143.92,-130.83 1126,-162.25 1108.89,-192.26 1086.28,-225.63 1073.02,-244.66"/>
<polygon fill="#63b8ff" stroke="#63b8ff" points="1168.05,-88.91 1174.76,-80.71 1164.4,-82.93 1168.05,-88.91"/>
</a>
</g>
</g>
<!-- Node25 -->
<g id="Node000025" class="node">
<title>Node25</title>
<g id="a_Node000025"><a xlink:href="class_a_q_n_w_b_1_1_n_w_b_1_1_vector_data.html#a189041602a933f1e000251dd72bbf185" target="_top" xlink:title="Initialize the dataset for the Data object.">
<polygon fill="white" stroke="#666666" points="1316,-30.5 1176.25,-30.5 1176.25,0 1316,0 1316,-30.5"/>
<text text-anchor="start" x="1184.25" y="-17" font-family="Helvetica,sans-Serif" font-size="10.00">AQNWB::NWB::VectorData</text>
<text text-anchor="middle" x="1246.12" y="-5.75" font-family="Helvetica,sans-Serif" font-size="10.00">::initialize</text>
</a>
</g>
</g>
<!-- Node24&#45;&gt;Node25 -->
<g id="edge26_Node000024_Node000025" class="edge">
<title>Node24&#45;&gt;Node25</title>
<g id="a_edge26_Node000024_Node000025"><a xlink:title=" ">
<path fill="none" stroke="#63b8ff" d="M1423.38,-99.41C1401.27,-82.47 1364.99,-56.59 1330.25,-40.25 1322.89,-36.79 1314.93,-33.67 1306.96,-30.91"/>
<polygon fill="#63b8ff" stroke="#63b8ff" points="1420.98,-101.98 1431.02,-105.35 1425.27,-96.45 1420.98,-101.98"/>
</a>
</g>
</g>
</g>
</svg>

<g id="navigator" transform="translate(0 0)" fill="#404254">
  <rect fill="#f2f5e9" fill-opacity="0.5" stroke="#606060" stroke-width=".5" x="0" y="0" width="60" height="60"/>
  <use id="zoomplus" xlink:href="#zoomPlus" x="17" y="9" onmousedown="handleZoom(evt,'in')"/>
  <use id="zoomminus" xlink:href="#zoomMin" x="42" y="9" onmousedown="handleZoom(evt,'out')"/>
  <use id="reset" xlink:href="#resetDef" x="30" y="36" onmousedown="handleReset()"/>
   <use id="arrowup" xlink:href="#arrowUp" x="0" y="0" onmousedown="handlePan(0,-1)"/>
  <use id="arrowright" xlink:href="#arrowRight" x="0" y="0" onmousedown="handlePan(1,0)"/>
  <use id="arrowdown" xlink:href="#arrowDown" x="0" y="0" onmousedown="handlePan(0,1)"/>
  <use id="arrowleft" xlink:href="#arrowLeft" x="0" y="0" onmousedown="handlePan(-1,0)"/>
</g>
<svg viewBox="0 0 15 15" width="100%" height="30px" preserveAspectRatio="xMaxYMin meet">
 <g id="arrow_out" transform="scale(0.3 0.3)">
  <a xlink:href="class_a_q_n_w_b_1_1_n_w_b_1_1_registered_type_a651f3d7e5cc28dc93888e8a821c5aa1c_icgraph_org.svg" target="_base">
   <rect id="button" ry="5" rx="5" y="6" x="6" height="38" width="38"
        fill="#f2f5e9" fill-opacity="0.5" stroke="#606060" stroke-width="1.0"/>
   <path id="arrow"
     d="M 11.500037,31.436501 C 11.940474,20.09759 22.043105,11.32322 32.158766,21.979434 L 37.068811,17.246167 C 37.068811,17.246167 37.088388,32 37.088388,32 L 22.160133,31.978069 C 22.160133,31.978069 26.997745,27.140456 26.997745,27.140456 C 18.528582,18.264221 13.291696,25.230495 11.500037,31.436501 z"
     style="fill:#404040;"/>
  </a>
 </g>
</svg>

<style type='text/css'>
<![CDATA[
[data-mouse-over-selected='false'] { opacity: 0.7; }
[data-mouse-over-selected='true']  { opacity: 1.0; }
]]>
</style>
<script type="application/ecmascript"><![CDATA[
document.addEventListener('DOMContentLoaded', (event) => {
  highlightEdges();
  highlightAdjacentNodes();
});
]]></script>
</svg>
