<?xml version="1.0" encoding="UTF-8" standalone="no"?>
<!DOCTYPE svg PUBLIC "-//W3C//DTD SVG 1.1//EN"
 "http://www.w3.org/Graphics/SVG/1.1/DTD/svg11.dtd">
<!-- Generated by graphviz version 14.1.0 (20251206.1807)
 -->
<!-- Title: AQNWB::NWB::VectorData::create Pages: 1 -->
<svg width="692pt" height="81pt"
 viewBox="0.00 0.00 692.00 81.00" xmlns="http://www.w3.org/2000/svg" xmlns:xlink="http://www.w3.org/1999/xlink">
<g id="graph0" class="graph" transform="scale(1 1) rotate(0) translate(4 76.88)">
<title>AQNWB::NWB::VectorData::create</title>
<!-- Node1 -->
<g id="Node000001" class="node">
<title>Node1</title>
<g id="a_Node000001"><a xlink:title=" ">
<polygon fill="#999999" stroke="#666666" points="139.75,-60.5 0,-60.5 0,-30 139.75,-30 139.75,-60.5"/>
<text xml:space="preserve" text-anchor="start" x="8" y="-47" font-family="Helvetica,sans-Serif" font-size="10.00">AQNWB::NWB::VectorData</text>
<text xml:space="preserve" text-anchor="middle" x="69.88" y="-35.75" font-family="Helvetica,sans-Serif" font-size="10.00">::create</text>
</a>
</g>
</g>
<!-- Node2 -->
<g id="Node000002" class="node">
<title>Node2</title>
<g id="a_Node000002"><a xlink:href="class_a_q_n_w_b_1_1_n_w_b_1_1_data.html#ac0a68f39a709b9096ce797bce18c668f" target="_top" xlink:title="Constructor.">
<polygon fill="white" stroke="#666666" points="489.75,-54.88 351.5,-54.88 351.5,-35.62 489.75,-35.62 489.75,-54.88"/>
<text xml:space="preserve" text-anchor="middle" x="420.62" y="-41.38" font-family="Helvetica,sans-Serif" font-size="10.00">AQNWB::NWB::Data::Data</text>
</a>
</g>
</g>
<!-- Node1&#45;&gt;Node2 -->
<g id="edge1_Node000001_Node000002" class="edge">
<title>Node1&#45;&gt;Node2</title>
<g id="a_edge1_Node000001_Node000002"><a xlink:title=" ">
<path fill="none" stroke="#63b8ff" d="M140.17,-54.31C152.02,-55.53 164.22,-56.59 175.75,-57.25 237.76,-60.79 253.49,-60.81 315.5,-57.25 323.43,-56.79 331.69,-56.15 339.92,-55.38"/>
<polygon fill="#63b8ff" stroke="#63b8ff" points="340,-58.89 349.6,-54.43 339.31,-51.93 340,-58.89"/>
</a>
</g>
</g>
<!-- Node4 -->
<g id="Node000004" class="node">
<title>Node4</title>
<g id="a_Node000004"><a xlink:href="class_a_q_n_w_b_1_1_n_w_b_1_1_vector_data.html#aaf127dfd1e590307b872ea785d578316" target="_top" xlink:title="Constructor.">
<polygon fill="white" stroke="#666666" points="315.5,-30.5 175.75,-30.5 175.75,0 315.5,0 315.5,-30.5"/>
<text xml:space="preserve" text-anchor="start" x="183.75" y="-17" font-family="Helvetica,sans-Serif" font-size="10.00">AQNWB::NWB::VectorData</text>
<text xml:space="preserve" text-anchor="middle" x="245.62" y="-5.75" font-family="Helvetica,sans-Serif" font-size="10.00">::VectorData</text>
</a>
</g>
</g>
<!-- Node1&#45;&gt;Node4 -->
<g id="edge4_Node000001_Node000004" class="edge">
<title>Node1&#45;&gt;Node4</title>
<g id="a_edge4_Node000001_Node000004"><a xlink:title=" ">
<path fill="none" stroke="#63b8ff" d="M140.04,-33.31C147.96,-31.94 156.07,-30.54 164.12,-29.15"/>
<polygon fill="#63b8ff" stroke="#63b8ff" points="164.66,-32.61 173.92,-27.46 163.47,-25.71 164.66,-32.61"/>
</a>
</g>
</g>
<!-- Node2&#45;&gt;Node2 -->
<g id="edge2_Node000002_Node000002" class="edge">
<title>Node2&#45;&gt;Node2</title>
<g id="a_edge2_Node000002_Node000002"><a xlink:title=" ">
<path fill="none" stroke="#63b8ff" d="M393.23,-55.16C380.73,-63.77 389.86,-72.88 420.62,-72.88 437.93,-72.88 448.39,-69.99 452,-65.94"/>
<polygon fill="#63b8ff" stroke="#63b8ff" points="455.3,-64.75 448.55,-56.58 448.73,-67.18 455.3,-64.75"/>
</a>
</g>
</g>
<!-- Node3 -->
<g id="Node000003" class="node">
<title>Node3</title>
<g id="a_Node000003"><a xlink:href="class_a_q_n_w_b_1_1_n_w_b_1_1_registered_type.html#aa1e04074725b7331d725bbda8156bc2d" target="_top" xlink:title="Constructor.">
<polygon fill="white" stroke="#666666" points="684.25,-60.5 525.75,-60.5 525.75,-30 684.25,-30 684.25,-60.5"/>
<text xml:space="preserve" text-anchor="start" x="533.75" y="-47" font-family="Helvetica,sans-Serif" font-size="10.00">AQNWB::NWB::RegisteredType</text>
<text xml:space="preserve" text-anchor="middle" x="605" y="-35.75" font-family="Helvetica,sans-Serif" font-size="10.00">::RegisteredType</text>
</a>
</g>
</g>
<!-- Node2&#45;&gt;Node3 -->
<g id="edge3_Node000002_Node000003" class="edge">
<title>Node2&#45;&gt;Node3</title>
<g id="a_edge3_Node000002_Node000003"><a xlink:title=" ">
<path fill="none" stroke="#63b8ff" d="M490.05,-45.25C497.89,-45.25 505.96,-45.25 514.01,-45.25"/>
<polygon fill="#63b8ff" stroke="#63b8ff" points="513.86,-48.75 523.86,-45.25 513.86,-41.75 513.86,-48.75"/>
</a>
</g>
</g>
<!-- Node4&#45;&gt;Node2 -->
<g id="edge5_Node000004_Node000002" class="edge">
<title>Node4&#45;&gt;Node2</title>
<g id="a_edge5_Node000004_Node000002"><a xlink:title=" ">
<path fill="none" stroke="#63b8ff" d="M315.99,-27.28C327.27,-29.24 338.96,-31.26 350.24,-33.22"/>
<polygon fill="#63b8ff" stroke="#63b8ff" points="349.41,-36.63 359.87,-34.89 350.61,-29.73 349.41,-36.63"/>
</a>
</g>
</g>
<!-- Node4&#45;&gt;Node4 -->
<g id="edge6_Node000004_Node000004" class="edge">
<title>Node4&#45;&gt;Node4</title>
<g id="a_edge6_Node000004_Node000004"><a xlink:title=" ">
<path fill="none" stroke="#63b8ff" d="M214.61,-30.99C208.29,-40.06 218.62,-48.5 245.62,-48.5 260.39,-48.5 270.17,-45.97 274.97,-42.2"/>
<polygon fill="#63b8ff" stroke="#63b8ff" points="278.41,-42.89 276.41,-32.48 271.48,-41.86 278.41,-42.89"/>
</a>
</g>
</g>
</g>
</svg>
