<?xml version="1.0" encoding="UTF-8" standalone="no"?>
<!DOCTYPE svg PUBLIC "-//W3C//DTD SVG 1.1//EN"
 "http://www.w3.org/Graphics/SVG/1.1/DTD/svg11.dtd">
<!-- Generated by graphviz version 14.0.5 (20251129.0259)
 -->
<!-- Title: AQNWB::NWB::ElectricalSeries Pages: 1 -->
<svg width="365pt" height="393pt"
 viewBox="0.00 0.00 365.00 393.00" xmlns="http://www.w3.org/2000/svg" xmlns:xlink="http://www.w3.org/1999/xlink">
<g id="graph0" class="graph" transform="scale(1 1) rotate(0) translate(4 389.25)">
<title>AQNWB::NWB::ElectricalSeries</title>
<!-- Node1 -->
<g id="Node000001" class="node">
<title>Node1</title>
<g id="a_Node000001"><a xlink:title="General purpose time series.">
<polygon fill="#999999" stroke="#666666" points="235.5,-19.25 77,-19.25 77,0 235.5,0 235.5,-19.25"/>
<text xml:space="preserve" text-anchor="middle" x="156.25" y="-5.75" font-family="Helvetica,sans-Serif" font-size="10.00">AQNWB::NWB::ElectricalSeries</text>
</a>
</g>
</g>
<!-- Node2 -->
<g id="Node000002" class="node">
<title>Node2</title>
<g id="a_Node000002"><a xlink:href="class_a_q_n_w_b_1_1_n_w_b_1_1_time_series.html" target="_top" xlink:title="General purpose time series.">
<polygon fill="white" stroke="#666666" points="226.12,-75.5 86.38,-75.5 86.38,-56.25 226.12,-56.25 226.12,-75.5"/>
<text xml:space="preserve" text-anchor="middle" x="156.25" y="-62" font-family="Helvetica,sans-Serif" font-size="10.00">AQNWB::NWB::TimeSeries</text>
</a>
</g>
</g>
<!-- Node2&#45;&gt;Node1 -->
<g id="edge1_Node000001_Node000002" class="edge">
<title>Node2&#45;&gt;Node1</title>
<g id="a_edge1_Node000001_Node000002"><a xlink:title=" ">
<path fill="none" stroke="#63b8ff" d="M156.25,-44.69C156.25,-35.98 156.25,-26.24 156.25,-19.42"/>
<polygon fill="#63b8ff" stroke="#63b8ff" points="152.75,-44.4 156.25,-54.4 159.75,-44.4 152.75,-44.4"/>
</a>
</g>
</g>
<!-- Node3 -->
<g id="Node000003" class="node">
<title>Node3</title>
<g id="a_Node000003"><a xlink:href="class_a_q_n_w_b_1_1_n_w_b_1_1_container.html" target="_top" xlink:title="Abstract data type for a group storing collections of data and metadata.">
<polygon fill="white" stroke="#666666" points="145.38,-253.75 13.12,-253.75 13.12,-234.5 145.38,-234.5 145.38,-253.75"/>
<text xml:space="preserve" text-anchor="middle" x="79.25" y="-240.25" font-family="Helvetica,sans-Serif" font-size="10.00">AQNWB::NWB::Container</text>
</a>
</g>
</g>
<!-- Node3&#45;&gt;Node2 -->
<g id="edge2_Node000002_Node000003" class="edge">
<title>Node3&#45;&gt;Node2</title>
<g id="a_edge2_Node000002_Node000003"><a xlink:title=" ">
<path fill="none" stroke="#63b8ff" d="M87.63,-223.94C104.2,-186.02 140.56,-102.78 152.42,-75.63"/>
<polygon fill="#63b8ff" stroke="#63b8ff" points="84.58,-222.19 83.78,-232.76 90.99,-224.99 84.58,-222.19"/>
</a>
</g>
</g>
<!-- Node4 -->
<g id="Node000004" class="node">
<title>Node4</title>
<g id="a_Node000004"><a xlink:href="class_a_q_n_w_b_1_1_n_w_b_1_1_registered_type.html" target="_top" xlink:title="Base class for types defined in the NWB schema.">
<polygon fill="white" stroke="#666666" points="158.5,-385.25 0,-385.25 0,-366 158.5,-366 158.5,-385.25"/>
<text xml:space="preserve" text-anchor="middle" x="79.25" y="-371.75" font-family="Helvetica,sans-Serif" font-size="10.00">AQNWB::NWB::RegisteredType</text>
</a>
</g>
</g>
<!-- Node4&#45;&gt;Node3 -->
<g id="edge3_Node000003_Node000004" class="edge">
<title>Node4&#45;&gt;Node3</title>
<g id="a_edge3_Node000003_Node000004"><a xlink:title=" ">
<path fill="none" stroke="#63b8ff" d="M79.25,-354.34C79.25,-325.71 79.25,-274.67 79.25,-254.09"/>
<polygon fill="#63b8ff" stroke="#63b8ff" points="75.75,-354.21 79.25,-364.21 82.75,-354.21 75.75,-354.21"/>
</a>
</g>
</g>
<!-- Node5 -->
<g id="Node000005" class="node">
<title>Node5</title>
<g id="a_Node000005"><a xlink:href="class_a_q_n_w_b_1_1_i_o_1_1_base_data_type.html" target="_top" xlink:title="Represents a base data type.">
<polygon fill="white" stroke="#666666" points="304.88,-253.75 163.62,-253.75 163.62,-234.5 304.88,-234.5 304.88,-253.75"/>
<text xml:space="preserve" text-anchor="middle" x="234.25" y="-240.25" font-family="Helvetica,sans-Serif" font-size="10.00">AQNWB::IO::BaseDataType</text>
</a>
</g>
</g>
<!-- Node5&#45;&gt;Node2 -->
<g id="edge4_Node000002_Node000005" class="edge">
<title>Node5&#45;&gt;Node2</title>
<g id="a_edge4_Node000002_Node000005"><a xlink:title=" ">
<path fill="none" stroke="#9a32cd" stroke-dasharray="5,2" d="M225.76,-223.94C208.98,-186.02 172.14,-102.78 160.12,-75.63"/>
<polygon fill="#9a32cd" stroke="#9a32cd" points="222.41,-225.03 229.66,-232.76 228.82,-222.2 222.41,-225.03"/>
</a>
</g>
<text xml:space="preserve" text-anchor="start" x="191.26" y="-128.75" font-family="Helvetica,sans-Serif" font-size="10.00" fill="grey">controlType</text>
<text xml:space="preserve" text-anchor="start" x="191.26" y="-113.5" font-family="Helvetica,sans-Serif" font-size="10.00" fill="grey">m_dataType</text>
<text xml:space="preserve" text-anchor="start" x="191.26" y="-98.25" font-family="Helvetica,sans-Serif" font-size="10.00" fill="grey">timestampsType</text>
</g>
<!-- Node5&#45;&gt;Node5 -->
<g id="edge5_Node000005_Node000005" class="edge">
<title>Node5&#45;&gt;Node5</title>
<g id="a_edge5_Node000005_Node000005"><a xlink:title=" ">
<path fill="none" stroke="#9a32cd" stroke-dasharray="5,2" d="M259.99,-258.47C289.2,-268.42 322.88,-263.64 322.88,-244.12 322.88,-222.22 280.42,-218.88 249.49,-234.11"/>
<polygon fill="#9a32cd" stroke="#9a32cd" points="261.47,-255.3 250.89,-254.71 258.8,-261.77 261.47,-255.3"/>
</a>
</g>
<text xml:space="preserve" text-anchor="start" x="325.88" y="-316.5" font-family="Helvetica,sans-Serif" font-size="10.00" fill="grey">DSTR</text>
<text xml:space="preserve" text-anchor="start" x="325.88" y="-301.25" font-family="Helvetica,sans-Serif" font-size="10.00" fill="grey">F32</text>
<text xml:space="preserve" text-anchor="start" x="325.88" y="-286" font-family="Helvetica,sans-Serif" font-size="10.00" fill="grey">F64</text>
<text xml:space="preserve" text-anchor="start" x="325.88" y="-270.75" font-family="Helvetica,sans-Serif" font-size="10.00" fill="grey">I16</text>
<text xml:space="preserve" text-anchor="start" x="325.88" y="-255.5" font-family="Helvetica,sans-Serif" font-size="10.00" fill="grey">I32</text>
<text xml:space="preserve" text-anchor="start" x="325.88" y="-240.25" font-family="Helvetica,sans-Serif" font-size="10.00" fill="grey">I64</text>
<text xml:space="preserve" text-anchor="start" x="325.88" y="-225" font-family="Helvetica,sans-Serif" font-size="10.00" fill="grey">I8</text>
<text xml:space="preserve" text-anchor="start" x="325.88" y="-209.75" font-family="Helvetica,sans-Serif" font-size="10.00" fill="grey">U16</text>
<text xml:space="preserve" text-anchor="start" x="325.88" y="-194.5" font-family="Helvetica,sans-Serif" font-size="10.00" fill="grey">U32</text>
<text xml:space="preserve" text-anchor="start" x="325.88" y="-179.25" font-family="Helvetica,sans-Serif" font-size="10.00" fill="grey">U64</text>
<text xml:space="preserve" text-anchor="start" x="325.88" y="-164" font-family="Helvetica,sans-Serif" font-size="10.00" fill="grey"> &#160;...</text>
</g>
</g>
</svg>
