<?xml version="1.0" encoding="UTF-8" standalone="no"?>
<!DOCTYPE svg PUBLIC "-//W3C//DTD SVG 1.1//EN"
 "http://www.w3.org/Graphics/SVG/1.1/DTD/svg11.dtd">
<!-- Generated by graphviz version 12.1.0 (20240811.2233)
 -->
<!-- Title: AQNWB::HDF5::HDF5IO::createStringDataSet Pages: 1 -->
<svg width="468pt" height="39pt"
 viewBox="0.00 0.00 467.75 38.50" xmlns="http://www.w3.org/2000/svg" xmlns:xlink="http://www.w3.org/1999/xlink">
<g id="graph0" class="graph" transform="scale(1 1) rotate(0) translate(4 34.5)">
<title>AQNWB::HDF5::HDF5IO::createStringDataSet</title>
<!-- Node1 -->
<g id="Node000001" class="node">
<title>Node1</title>
<g id="a_Node000001"><a xlink:title="Creates a dataset that holds an array of string values.">
<polygon fill="#999999" stroke="#666666" points="129.25,-30.5 0,-30.5 0,0 129.25,0 129.25,-30.5"/>
<text text-anchor="start" x="8" y="-17" font-family="Helvetica,sans-Serif" font-size="10.00">AQNWB::HDF5::HDF5IO</text>
<text text-anchor="middle" x="64.62" y="-5.75" font-family="Helvetica,sans-Serif" font-size="10.00">::createStringDataSet</text>
</a>
</g>
</g>
<!-- Node2 -->
<g id="Node000002" class="node">
<title>Node2</title>
<g id="a_Node000002"><a xlink:href="class_a_q_n_w_b_1_1_h_d_f5_1_1_h_d_f5_i_o.html#a2ed549816b5605817aa7ccc2e6c7c4cc" target="_top" xlink:title="Creates an extendable dataset with a given base data type, size, chunking, and path.">
<polygon fill="white" stroke="#666666" points="294.5,-30.5 165.25,-30.5 165.25,0 294.5,0 294.5,-30.5"/>
<text text-anchor="start" x="173.25" y="-17" font-family="Helvetica,sans-Serif" font-size="10.00">AQNWB::HDF5::HDF5IO</text>
<text text-anchor="middle" x="229.88" y="-5.75" font-family="Helvetica,sans-Serif" font-size="10.00">::createArrayDataSet</text>
</a>
</g>
</g>
<!-- Node1&#45;&gt;Node2 -->
<g id="edge1_Node000001_Node000002" class="edge">
<title>Node1&#45;&gt;Node2</title>
<g id="a_edge1_Node000001_Node000002"><a xlink:title=" ">
<path fill="none" stroke="#63b8ff" d="M129.68,-15.25C137.57,-15.25 145.69,-15.25 153.73,-15.25"/>
<polygon fill="#63b8ff" stroke="#63b8ff" points="153.49,-18.75 163.49,-15.25 153.49,-11.75 153.49,-18.75"/>
</a>
</g>
</g>
<!-- Node3 -->
<g id="Node000003" class="node">
<title>Node3</title>
<g id="a_Node000003"><a xlink:href="class_a_q_n_w_b_1_1_h_d_f5_1_1_h_d_f5_i_o.html#a8fdcc8d75fc9898ee77ff5d1dd55e888" target="_top" xlink:title="Returns the HDF5 data type for a given base data type.">
<polygon fill="white" stroke="#666666" points="459.75,-30.5 330.5,-30.5 330.5,0 459.75,0 459.75,-30.5"/>
<text text-anchor="start" x="338.5" y="-17" font-family="Helvetica,sans-Serif" font-size="10.00">AQNWB::HDF5::HDF5IO</text>
<text text-anchor="middle" x="395.12" y="-5.75" font-family="Helvetica,sans-Serif" font-size="10.00">::getH5Type</text>
</a>
</g>
</g>
<!-- Node2&#45;&gt;Node3 -->
<g id="edge2_Node000002_Node000003" class="edge">
<title>Node2&#45;&gt;Node3</title>
<g id="a_edge2_Node000002_Node000003"><a xlink:title=" ">
<path fill="none" stroke="#63b8ff" d="M294.93,-15.25C302.82,-15.25 310.94,-15.25 318.98,-15.25"/>
<polygon fill="#63b8ff" stroke="#63b8ff" points="318.74,-18.75 328.74,-15.25 318.74,-11.75 318.74,-18.75"/>
</a>
</g>
</g>
</g>
</svg>
