<?xml version="1.0" encoding="UTF-8" standalone="no"?>
<!DOCTYPE svg PUBLIC "-//W3C//DTD SVG 1.1//EN"
 "http://www.w3.org/Graphics/SVG/1.1/DTD/svg11.dtd">
<!-- Generated by graphviz version 14.1.5 (20260411.2331)
 -->
<!-- Title: AQNWB::NWB::TimeSeries::recordControl Pages: 1 -->
<svg width="2310pt" height="204pt"
 viewBox="0.00 0.00 2310.00 204.00" xmlns="http://www.w3.org/2000/svg" xmlns:xlink="http://www.w3.org/1999/xlink">
<g id="graph0" class="graph" transform="scale(1 1) rotate(0) translate(4 199.5)">
<title>AQNWB::NWB::TimeSeries::recordControl</title>
<!-- Node1 -->
<g id="Node000001" class="node">
<title>Node1</title>
<g id="a_Node000001"><a xlink:title=" ">
<polygon fill="#999999" stroke="#666666" points="2302,-128.5 2162.25,-128.5 2162.25,-98 2302,-98 2302,-128.5"/>
<text xml:space="preserve" text-anchor="start" x="2170.25" y="-115" font-family="Helvetica,sans-Serif" font-size="10.00">AQNWB::NWB::TimeSeries</text>
<text xml:space="preserve" text-anchor="middle" x="2232.12" y="-103.75" font-family="Helvetica,sans-Serif" font-size="10.00">::recordControl</text>
</a>
</g>
</g>
<!-- Node2 -->
<g id="Node000002" class="node">
<title>Node2</title>
<g id="a_Node000002"><a xlink:href="class_a_q_n_w_b_1_1_n_w_b_1_1_time_series.html#a6e74b051a3ea578a41ee33191f1ccf37" target="_top" xlink:title=" ">
<polygon fill="white" stroke="#666666" points="2113.88,-177.5 1974.12,-177.5 1974.12,-147 2113.88,-147 2113.88,-177.5"/>
<text xml:space="preserve" text-anchor="start" x="1982.12" y="-164" font-family="Helvetica,sans-Serif" font-size="10.00">AQNWB::NWB::TimeSeries</text>
<text xml:space="preserve" text-anchor="middle" x="2044" y="-152.75" font-family="Helvetica,sans-Serif" font-size="10.00">::readTimestampsUnit</text>
</a>
</g>
</g>
<!-- Node1&#45;&gt;Node2 -->
<g id="edge1_Node000001_Node000002" class="edge">
<title>Node1&#45;&gt;Node2</title>
<g id="a_edge1_Node000001_Node000002"><a xlink:title=" ">
<path fill="none" stroke="#63b8ff" d="M2160.49,-131.84C2142.08,-136.69 2122.42,-141.87 2104.64,-146.55"/>
<polygon fill="#63b8ff" stroke="#63b8ff" points="2161.22,-135.27 2170,-129.34 2159.44,-128.5 2161.22,-135.27"/>
</a>
</g>
</g>
<!-- Node14 -->
<g id="Node000014" class="node">
<title>Node14</title>
<g id="a_Node000014"><a xlink:href="class_a_q_n_w_b_1_1_n_w_b_1_1_annotation_series.html#a5d1ce0df68f30ea1d8111333a967d7f0" target="_top" xlink:title="Writes a channel to an AnnotationSeries dataset.">
<polygon fill="white" stroke="#666666" points="2126.25,-128.5 1961.75,-128.5 1961.75,-98 2126.25,-98 2126.25,-128.5"/>
<text xml:space="preserve" text-anchor="start" x="1969.75" y="-115" font-family="Helvetica,sans-Serif" font-size="10.00">AQNWB::NWB::AnnotationSeries</text>
<text xml:space="preserve" text-anchor="middle" x="2044" y="-103.75" font-family="Helvetica,sans-Serif" font-size="10.00">::writeAnnotation</text>
</a>
</g>
</g>
<!-- Node1&#45;&gt;Node14 -->
<g id="edge14_Node000001_Node000014" class="edge">
<title>Node1&#45;&gt;Node14</title>
<g id="a_edge14_Node000001_Node000014"><a xlink:title=" ">
<path fill="none" stroke="#63b8ff" d="M2150.39,-113.25C2142.51,-113.25 2134.51,-113.25 2126.62,-113.25"/>
<polygon fill="#63b8ff" stroke="#63b8ff" points="2150.31,-116.75 2160.31,-113.25 2150.31,-109.75 2150.31,-116.75"/>
</a>
</g>
</g>
<!-- Node15 -->
<g id="Node000015" class="node">
<title>Node15</title>
<g id="a_Node000015"><a xlink:href="class_a_q_n_w_b_1_1_n_w_b_1_1_time_series.html#afb05f2252df2fc23d938894eb0bc6984" target="_top" xlink:title="Writes a timeseries data block to the file.">
<polygon fill="white" stroke="#666666" points="2113.88,-79.5 1974.12,-79.5 1974.12,-49 2113.88,-49 2113.88,-79.5"/>
<text xml:space="preserve" text-anchor="start" x="1982.12" y="-66" font-family="Helvetica,sans-Serif" font-size="10.00">AQNWB::NWB::TimeSeries</text>
<text xml:space="preserve" text-anchor="middle" x="2044" y="-54.75" font-family="Helvetica,sans-Serif" font-size="10.00">::writeData</text>
</a>
</g>
</g>
<!-- Node1&#45;&gt;Node15 -->
<g id="edge15_Node000001_Node000015" class="edge">
<title>Node1&#45;&gt;Node15</title>
<g id="a_edge15_Node000001_Node000015"><a xlink:title=" ">
<path fill="none" stroke="#63b8ff" d="M2160.49,-94.66C2142.08,-89.81 2122.42,-84.63 2104.64,-79.95"/>
<polygon fill="#63b8ff" stroke="#63b8ff" points="2159.44,-98 2170,-97.16 2161.22,-91.23 2159.44,-98"/>
</a>
</g>
</g>
<!-- Node3 -->
<g id="Node000003" class="node">
<title>Node3</title>
<g id="a_Node000003"><a xlink:href="class_a_q_n_w_b_1_1_n_w_b_1_1_time_series.html#ab27f0f2b819123b27cf38ab0b6310fed" target="_top" xlink:title=" ">
<polygon fill="white" stroke="#666666" points="1911.5,-177.5 1771.75,-177.5 1771.75,-147 1911.5,-147 1911.5,-177.5"/>
<text xml:space="preserve" text-anchor="start" x="1779.75" y="-164" font-family="Helvetica,sans-Serif" font-size="10.00">AQNWB::NWB::TimeSeries</text>
<text xml:space="preserve" text-anchor="middle" x="1841.62" y="-152.75" font-family="Helvetica,sans-Serif" font-size="10.00">::readTimestampsInterval</text>
</a>
</g>
</g>
<!-- Node2&#45;&gt;Node3 -->
<g id="edge2_Node000002_Node000003" class="edge">
<title>Node2&#45;&gt;Node3</title>
<g id="a_edge2_Node000002_Node000003"><a xlink:title=" ">
<path fill="none" stroke="#63b8ff" d="M1962.33,-162.25C1945.61,-162.25 1928.13,-162.25 1911.87,-162.25"/>
<polygon fill="#63b8ff" stroke="#63b8ff" points="1962.25,-165.75 1972.25,-162.25 1962.25,-158.75 1962.25,-165.75"/>
</a>
</g>
</g>
<!-- Node4 -->
<g id="Node000004" class="node">
<title>Node4</title>
<g id="a_Node000004"><a xlink:href="class_a_q_n_w_b_1_1_n_w_b_1_1_time_series.html#ad6bc67f0ab42e8aeaeeef1b1b51c082d" target="_top" xlink:title=" ">
<polygon fill="white" stroke="#666666" points="1721.5,-177.5 1581.75,-177.5 1581.75,-147 1721.5,-147 1721.5,-177.5"/>
<text xml:space="preserve" text-anchor="start" x="1589.75" y="-164" font-family="Helvetica,sans-Serif" font-size="10.00">AQNWB::NWB::TimeSeries</text>
<text xml:space="preserve" text-anchor="middle" x="1651.62" y="-152.75" font-family="Helvetica,sans-Serif" font-size="10.00">::readTimestamps</text>
</a>
</g>
</g>
<!-- Node3&#45;&gt;Node4 -->
<g id="edge3_Node000003_Node000004" class="edge">
<title>Node3&#45;&gt;Node4</title>
<g id="a_edge3_Node000003_Node000004"><a xlink:title=" ">
<path fill="none" stroke="#63b8ff" d="M1759.94,-162.25C1747.31,-162.25 1734.35,-162.25 1722,-162.25"/>
<polygon fill="#63b8ff" stroke="#63b8ff" points="1759.91,-165.75 1769.91,-162.25 1759.91,-158.75 1759.91,-165.75"/>
</a>
</g>
</g>
<!-- Node5 -->
<g id="Node000005" class="node">
<title>Node5</title>
<g id="a_Node000005"><a xlink:href="class_a_q_n_w_b_1_1_n_w_b_1_1_time_series.html#a055a5a6a5b9bebbd3f517cdb59ebd65a" target="_top" xlink:title=" ">
<polygon fill="white" stroke="#666666" points="1545.75,-177.5 1406,-177.5 1406,-147 1545.75,-147 1545.75,-177.5"/>
<text xml:space="preserve" text-anchor="start" x="1414" y="-164" font-family="Helvetica,sans-Serif" font-size="10.00">AQNWB::NWB::TimeSeries</text>
<text xml:space="preserve" text-anchor="middle" x="1475.88" y="-152.75" font-family="Helvetica,sans-Serif" font-size="10.00">::readStartingTimeUnit</text>
</a>
</g>
</g>
<!-- Node4&#45;&gt;Node5 -->
<g id="edge4_Node000004_Node000005" class="edge">
<title>Node4&#45;&gt;Node5</title>
<g id="a_edge4_Node000004_Node000005"><a xlink:title=" ">
<path fill="none" stroke="#63b8ff" d="M1570.16,-162.25C1562.12,-162.25 1554,-162.25 1546.09,-162.25"/>
<polygon fill="#63b8ff" stroke="#63b8ff" points="1569.94,-165.75 1579.94,-162.25 1569.94,-158.75 1569.94,-165.75"/>
</a>
</g>
</g>
<!-- Node6 -->
<g id="Node000006" class="node">
<title>Node6</title>
<g id="a_Node000006"><a xlink:href="class_a_q_n_w_b_1_1_n_w_b_1_1_time_series.html#af32a022bd96207ee5eb2b26ac6ae8d2e" target="_top" xlink:title=" ">
<polygon fill="white" stroke="#666666" points="1370,-177.5 1230.25,-177.5 1230.25,-147 1370,-147 1370,-177.5"/>
<text xml:space="preserve" text-anchor="start" x="1238.25" y="-164" font-family="Helvetica,sans-Serif" font-size="10.00">AQNWB::NWB::TimeSeries</text>
<text xml:space="preserve" text-anchor="middle" x="1300.12" y="-152.75" font-family="Helvetica,sans-Serif" font-size="10.00">::readStartingTimeRate</text>
</a>
</g>
</g>
<!-- Node5&#45;&gt;Node6 -->
<g id="edge5_Node000005_Node000006" class="edge">
<title>Node5&#45;&gt;Node6</title>
<g id="a_edge5_Node000005_Node000006"><a xlink:title=" ">
<path fill="none" stroke="#63b8ff" d="M1394.41,-162.25C1386.37,-162.25 1378.25,-162.25 1370.34,-162.25"/>
<polygon fill="#63b8ff" stroke="#63b8ff" points="1394.19,-165.75 1404.19,-162.25 1394.19,-158.75 1394.19,-165.75"/>
</a>
</g>
</g>
<!-- Node7 -->
<g id="Node000007" class="node">
<title>Node7</title>
<g id="a_Node000007"><a xlink:href="class_a_q_n_w_b_1_1_n_w_b_1_1_time_series.html#a3a85691477ada29012a8cb1a2ab4fb5e" target="_top" xlink:title=" ">
<polygon fill="white" stroke="#666666" points="1194.25,-177.5 1054.5,-177.5 1054.5,-147 1194.25,-147 1194.25,-177.5"/>
<text xml:space="preserve" text-anchor="start" x="1062.5" y="-164" font-family="Helvetica,sans-Serif" font-size="10.00">AQNWB::NWB::TimeSeries</text>
<text xml:space="preserve" text-anchor="middle" x="1124.38" y="-152.75" font-family="Helvetica,sans-Serif" font-size="10.00">::readStartingTime</text>
</a>
</g>
</g>
<!-- Node6&#45;&gt;Node7 -->
<g id="edge6_Node000006_Node000007" class="edge">
<title>Node6&#45;&gt;Node7</title>
<g id="a_edge6_Node000006_Node000007"><a xlink:title=" ">
<path fill="none" stroke="#63b8ff" d="M1218.66,-162.25C1210.62,-162.25 1202.5,-162.25 1194.59,-162.25"/>
<polygon fill="#63b8ff" stroke="#63b8ff" points="1218.44,-165.75 1228.44,-162.25 1218.44,-158.75 1218.44,-165.75"/>
</a>
</g>
</g>
<!-- Node8 -->
<g id="Node000008" class="node">
<title>Node8</title>
<g id="a_Node000008"><a xlink:href="class_a_q_n_w_b_1_1_n_w_b_1_1_time_series.html#ade7280dcb98b4ce03104a3b9b7ee89d5" target="_top" xlink:title=" ">
<polygon fill="white" stroke="#666666" points="1018.5,-177.5 878.75,-177.5 878.75,-147 1018.5,-147 1018.5,-177.5"/>
<text xml:space="preserve" text-anchor="start" x="886.75" y="-164" font-family="Helvetica,sans-Serif" font-size="10.00">AQNWB::NWB::TimeSeries</text>
<text xml:space="preserve" text-anchor="middle" x="948.62" y="-152.75" font-family="Helvetica,sans-Serif" font-size="10.00">::readDataContinuity</text>
</a>
</g>
</g>
<!-- Node7&#45;&gt;Node8 -->
<g id="edge7_Node000007_Node000008" class="edge">
<title>Node7&#45;&gt;Node8</title>
<g id="a_edge7_Node000007_Node000008"><a xlink:title=" ">
<path fill="none" stroke="#63b8ff" d="M1042.91,-162.25C1034.87,-162.25 1026.75,-162.25 1018.84,-162.25"/>
<polygon fill="#63b8ff" stroke="#63b8ff" points="1042.69,-165.75 1052.69,-162.25 1042.69,-158.75 1042.69,-165.75"/>
</a>
</g>
</g>
<!-- Node9 -->
<g id="Node000009" class="node">
<title>Node9</title>
<g id="a_Node000009"><a xlink:href="class_a_q_n_w_b_1_1_n_w_b_1_1_time_series.html#aada7da514e40b99b1b7ff897c92f5b2d" target="_top" xlink:title=" ">
<polygon fill="white" stroke="#666666" points="842.75,-177.5 703,-177.5 703,-147 842.75,-147 842.75,-177.5"/>
<text xml:space="preserve" text-anchor="start" x="711" y="-164" font-family="Helvetica,sans-Serif" font-size="10.00">AQNWB::NWB::TimeSeries</text>
<text xml:space="preserve" text-anchor="middle" x="772.88" y="-152.75" font-family="Helvetica,sans-Serif" font-size="10.00">::readDataUnit</text>
</a>
</g>
</g>
<!-- Node8&#45;&gt;Node9 -->
<g id="edge8_Node000008_Node000009" class="edge">
<title>Node8&#45;&gt;Node9</title>
<g id="a_edge8_Node000008_Node000009"><a xlink:title=" ">
<path fill="none" stroke="#63b8ff" d="M867.16,-162.25C859.12,-162.25 851,-162.25 843.09,-162.25"/>
<polygon fill="#63b8ff" stroke="#63b8ff" points="866.94,-165.75 876.94,-162.25 866.94,-158.75 866.94,-165.75"/>
</a>
</g>
</g>
<!-- Node10 -->
<g id="Node000010" class="node">
<title>Node10</title>
<g id="a_Node000010"><a xlink:href="class_a_q_n_w_b_1_1_n_w_b_1_1_time_series.html#a05f88b4ef3d51fd24e79f8f61df60b5c" target="_top" xlink:title=" ">
<polygon fill="white" stroke="#666666" points="667,-177.5 527.25,-177.5 527.25,-147 667,-147 667,-177.5"/>
<text xml:space="preserve" text-anchor="start" x="535.25" y="-164" font-family="Helvetica,sans-Serif" font-size="10.00">AQNWB::NWB::TimeSeries</text>
<text xml:space="preserve" text-anchor="middle" x="597.12" y="-152.75" font-family="Helvetica,sans-Serif" font-size="10.00">::readDataResolution</text>
</a>
</g>
</g>
<!-- Node9&#45;&gt;Node10 -->
<g id="edge9_Node000009_Node000010" class="edge">
<title>Node9&#45;&gt;Node10</title>
<g id="a_edge9_Node000009_Node000010"><a xlink:title=" ">
<path fill="none" stroke="#63b8ff" d="M691.41,-162.25C683.37,-162.25 675.25,-162.25 667.34,-162.25"/>
<polygon fill="#63b8ff" stroke="#63b8ff" points="691.19,-165.75 701.19,-162.25 691.19,-158.75 691.19,-165.75"/>
</a>
</g>
</g>
<!-- Node11 -->
<g id="Node000011" class="node">
<title>Node11</title>
<g id="a_Node000011"><a xlink:href="class_a_q_n_w_b_1_1_n_w_b_1_1_time_series.html#a64808096931f82dbd378b2c21679ba03" target="_top" xlink:title=" ">
<polygon fill="white" stroke="#666666" points="491.25,-177.5 351.5,-177.5 351.5,-147 491.25,-147 491.25,-177.5"/>
<text xml:space="preserve" text-anchor="start" x="359.5" y="-164" font-family="Helvetica,sans-Serif" font-size="10.00">AQNWB::NWB::TimeSeries</text>
<text xml:space="preserve" text-anchor="middle" x="421.38" y="-152.75" font-family="Helvetica,sans-Serif" font-size="10.00">::readDataOffset</text>
</a>
</g>
</g>
<!-- Node10&#45;&gt;Node11 -->
<g id="edge10_Node000010_Node000011" class="edge">
<title>Node10&#45;&gt;Node11</title>
<g id="a_edge10_Node000010_Node000011"><a xlink:title=" ">
<path fill="none" stroke="#63b8ff" d="M515.66,-162.25C507.62,-162.25 499.5,-162.25 491.59,-162.25"/>
<polygon fill="#63b8ff" stroke="#63b8ff" points="515.44,-165.75 525.44,-162.25 515.44,-158.75 515.44,-165.75"/>
</a>
</g>
</g>
<!-- Node12 -->
<g id="Node000012" class="node">
<title>Node12</title>
<g id="a_Node000012"><a xlink:href="class_a_q_n_w_b_1_1_n_w_b_1_1_time_series.html#a32e11a8254db9fad8682fc8d8d118370" target="_top" xlink:title=" ">
<polygon fill="white" stroke="#666666" points="315.5,-177.5 175.75,-177.5 175.75,-147 315.5,-147 315.5,-177.5"/>
<text xml:space="preserve" text-anchor="start" x="183.75" y="-164" font-family="Helvetica,sans-Serif" font-size="10.00">AQNWB::NWB::TimeSeries</text>
<text xml:space="preserve" text-anchor="middle" x="245.62" y="-152.75" font-family="Helvetica,sans-Serif" font-size="10.00">::readDataConversion</text>
</a>
</g>
</g>
<!-- Node11&#45;&gt;Node12 -->
<g id="edge11_Node000011_Node000012" class="edge">
<title>Node11&#45;&gt;Node12</title>
<g id="a_edge11_Node000011_Node000012"><a xlink:title=" ">
<path fill="none" stroke="#63b8ff" d="M339.91,-162.25C331.87,-162.25 323.75,-162.25 315.84,-162.25"/>
<polygon fill="#63b8ff" stroke="#63b8ff" points="339.69,-165.75 349.69,-162.25 339.69,-158.75 339.69,-165.75"/>
</a>
</g>
</g>
<!-- Node13 -->
<g id="Node000013" class="node">
<title>Node13</title>
<g id="a_Node000013"><a xlink:href="class_a_q_n_w_b_1_1_n_w_b_1_1_time_series.html#a185cdbb22cb299862e950576a6c9ecab" target="_top" xlink:title=" ">
<polygon fill="white" stroke="#666666" points="139.75,-177.5 0,-177.5 0,-147 139.75,-147 139.75,-177.5"/>
<text xml:space="preserve" text-anchor="start" x="8" y="-164" font-family="Helvetica,sans-Serif" font-size="10.00">AQNWB::NWB::TimeSeries</text>
<text xml:space="preserve" text-anchor="middle" x="69.88" y="-152.75" font-family="Helvetica,sans-Serif" font-size="10.00">::readData</text>
</a>
</g>
</g>
<!-- Node12&#45;&gt;Node13 -->
<g id="edge12_Node000012_Node000013" class="edge">
<title>Node12&#45;&gt;Node13</title>
<g id="a_edge12_Node000012_Node000013"><a xlink:title=" ">
<path fill="none" stroke="#63b8ff" d="M164.16,-162.25C156.12,-162.25 148,-162.25 140.09,-162.25"/>
<polygon fill="#63b8ff" stroke="#63b8ff" points="163.94,-165.75 173.94,-162.25 163.94,-158.75 163.94,-165.75"/>
</a>
</g>
</g>
<!-- Node13&#45;&gt;Node13 -->
<g id="edge13_Node000013_Node000013" class="edge">
<title>Node13&#45;&gt;Node13</title>
<g id="a_edge13_Node000013_Node000013"><a xlink:title=" ">
<path fill="none" stroke="#63b8ff" d="M99.35,-189.2C94.53,-192.97 84.7,-195.5 69.88,-195.5 42.76,-195.5 32.38,-187.06 38.73,-177.99"/>
<polygon fill="#63b8ff" stroke="#63b8ff" points="102.78,-189.89 100.8,-179.48 95.86,-188.86 102.78,-189.89"/>
</a>
</g>
</g>
<!-- Node16 -->
<g id="Node000016" class="node">
<title>Node16</title>
<g id="a_Node000016"><a xlink:href="class_a_q_n_w_b_1_1_n_w_b_1_1_electrical_series.html#a3e3382ab70376c6e1307b53ec77c399f" target="_top" xlink:title="Writes a block of multichannel samples to an ElectricalSeries dataset in a single operation.">
<polygon fill="white" stroke="#666666" points="1920.88,-128.5 1762.38,-128.5 1762.38,-98 1920.88,-98 1920.88,-128.5"/>
<text xml:space="preserve" text-anchor="start" x="1770.38" y="-115" font-family="Helvetica,sans-Serif" font-size="10.00">AQNWB::NWB::ElectricalSeries</text>
<text xml:space="preserve" text-anchor="middle" x="1841.62" y="-103.75" font-family="Helvetica,sans-Serif" font-size="10.00">::writeAllChannels</text>
</a>
</g>
</g>
<!-- Node15&#45;&gt;Node16 -->
<g id="edge16_Node000015_Node000016" class="edge">
<title>Node15&#45;&gt;Node16</title>
<g id="a_edge16_Node000015_Node000016"><a xlink:title=" ">
<path fill="none" stroke="#63b8ff" d="M1967.8,-82.64C1947.73,-87.55 1926.24,-92.8 1906.83,-97.55"/>
<polygon fill="#63b8ff" stroke="#63b8ff" points="1968.42,-86.09 1977.3,-80.32 1966.76,-79.29 1968.42,-86.09"/>
</a>
</g>
</g>
<!-- Node17 -->
<g id="Node000017" class="node">
<title>Node17</title>
<g id="a_Node000017"><a xlink:href="class_a_q_n_w_b_1_1_n_w_b_1_1_electrical_series.html#abd499ff69952a61324f86034ea91111b" target="_top" xlink:title="Writes a channel to an ElectricalSeries dataset.">
<polygon fill="white" stroke="#666666" points="1920.88,-79.5 1762.38,-79.5 1762.38,-49 1920.88,-49 1920.88,-79.5"/>
<text xml:space="preserve" text-anchor="start" x="1770.38" y="-66" font-family="Helvetica,sans-Serif" font-size="10.00">AQNWB::NWB::ElectricalSeries</text>
<text xml:space="preserve" text-anchor="middle" x="1841.62" y="-54.75" font-family="Helvetica,sans-Serif" font-size="10.00">::writeChannel</text>
</a>
</g>
</g>
<!-- Node15&#45;&gt;Node17 -->
<g id="edge17_Node000015_Node000017" class="edge">
<title>Node15&#45;&gt;Node17</title>
<g id="a_edge17_Node000015_Node000017"><a xlink:title=" ">
<path fill="none" stroke="#63b8ff" d="M1962.46,-64.25C1948.84,-64.25 1934.71,-64.25 1921.14,-64.25"/>
<polygon fill="#63b8ff" stroke="#63b8ff" points="1962.25,-67.75 1972.25,-64.25 1962.25,-60.75 1962.25,-67.75"/>
</a>
</g>
</g>
<!-- Node18 -->
<g id="Node000018" class="node">
<title>Node18</title>
<g id="a_Node000018"><a xlink:href="class_a_q_n_w_b_1_1_n_w_b_1_1_spike_event_series.html#a5cfdd0f6bfdf9cec7e43219fb606a7e1" target="_top" xlink:title="Write a single spike series event.">
<polygon fill="white" stroke="#666666" points="1925.75,-30.5 1757.5,-30.5 1757.5,0 1925.75,0 1925.75,-30.5"/>
<text xml:space="preserve" text-anchor="start" x="1765.5" y="-17" font-family="Helvetica,sans-Serif" font-size="10.00">AQNWB::NWB::SpikeEventSeries</text>
<text xml:space="preserve" text-anchor="middle" x="1841.62" y="-5.75" font-family="Helvetica,sans-Serif" font-size="10.00">::writeSpike</text>
</a>
</g>
</g>
<!-- Node15&#45;&gt;Node18 -->
<g id="edge18_Node000015_Node000018" class="edge">
<title>Node15&#45;&gt;Node18</title>
<g id="a_edge18_Node000015_Node000018"><a xlink:title=" ">
<path fill="none" stroke="#63b8ff" d="M1967.8,-45.86C1947.73,-40.95 1926.24,-35.7 1906.83,-30.95"/>
<polygon fill="#63b8ff" stroke="#63b8ff" points="1966.76,-49.21 1977.3,-48.18 1968.42,-42.41 1966.76,-49.21"/>
</a>
</g>
</g>
</g>
</svg>
