<?xml version="1.0" encoding="UTF-8" standalone="no"?>
<!DOCTYPE svg PUBLIC "-//W3C//DTD SVG 1.1//EN"
 "http://www.w3.org/Graphics/SVG/1.1/DTD/svg11.dtd">
<!-- Generated by graphviz version 14.1.0 (20251206.1807)
 -->
<!-- Title: AQNWB::NWB::NWBContainer::initialize Pages: 1 -->
<!--zoomable 284 -->

<svg id="main" version="1.1" xmlns="http://www.w3.org/2000/svg" xmlns:xlink="http://www.w3.org/1999/xlink" xml:space="preserve" onload="init(evt)">

<style type="text/css"><![CDATA[
.node, .edge {opacity: 0.7;}
.node.selected, .edge.selected {opacity: 1;}
.edge:hover path { stroke: red; }
.edge:hover polygon { stroke: red; fill: red; }
]]></style>

<defs>
  <circle id="rim" cx="0" cy="0" r="7"/>
  <circle id="rim2" cx="0" cy="0" r="3.5"/>
  <g id="zoomPlus">
    <use xlink:href="#rim" fill="#404040"><set attributeName="fill" to="#808080" begin="zoomplus.mouseover" end="zoomplus.mouseout"/></use>
    <path d="M-4,0h8M0,-4v8" fill="none" stroke="white" stroke-width="1.5" pointer-events="none"/>
  </g>
  <g id="zoomMin">
    <use xlink:href="#rim" fill="#404040"><set attributeName="fill" to="#808080" begin="zoomminus.mouseover" end="zoomminus.mouseout"/></use>
    <path d="M-4,0h8" fill="none" stroke="white" stroke-width="1.5" pointer-events="none"/>
  </g>
  <g id="arrowUp" transform="translate(30 24)">
    <use xlink:href="#rim"/>
    <path pointer-events="none" fill="none" stroke="white" stroke-width="1.5" d="M0,-3.0v7 M-2.5,-0.5L0,-3.0L2.5,-0.5"/>
  </g>
  <g id="arrowRight" transform="rotate(90) translate(36 -43)">
    <use xlink:href="#rim"/>
    <path pointer-events="none" fill="none" stroke="white" stroke-width="1.5" d="M0,-3.0v7 M-2.5,-0.5L0,-3.0L2.5,-0.5"/>
  </g>
  <g id="arrowDown" transform="rotate(180) translate(-30 -48)">
    <use xlink:href="#rim"/>
    <path pointer-events="none" fill="none" stroke="white" stroke-width="1.5" d="M0,-3.0v7 M-2.5,-0.5L0,-3.0L2.5,-0.5"/>
  </g>
  <g id="arrowLeft" transform="rotate(270) translate(-36 17)">
    <use xlink:href="#rim"/>
    <path pointer-events="none" fill="none" stroke="white" stroke-width="1.5" d="M0,-3.0v7 M-2.5,-0.5L0,-3.0L2.5,-0.5"/>
  </g>
  <g id="resetDef">
    <use xlink:href="#rim2" fill="#404040"><set attributeName="fill" to="#808080" begin="reset.mouseover" end="reset.mouseout"/></use>
  </g>
</defs>
<script type="application/ecmascript">
var viewWidth = 550;
var viewHeight = 284;
var sectionId = 'dynsection-7';
</script>
<script type="application/ecmascript" xlink:href="svg.min.js"/>
<svg id="graph" class="graph">
<g id="viewport">
<title>AQNWB::NWB::NWBContainer::initialize</title>
<!-- Node1 -->
<g id="Node000001" class="node">
<title>Node1</title>
<g id="a_Node000001"><a xlink:title="Initialize the object.">
<polygon fill="#999999" stroke="#666666" points="541.5,-152.5 385.25,-152.5 385.25,-122 541.5,-122 541.5,-152.5"/>
<text xml:space="preserve" text-anchor="start" x="393.25" y="-139" font-family="Helvetica,sans-Serif" font-size="10.00">AQNWB::NWB::NWBContainer</text>
<text xml:space="preserve" text-anchor="middle" x="463.38" y="-127.75" font-family="Helvetica,sans-Serif" font-size="10.00">::initialize</text>
</a>
</g>
</g>
<!-- Node2 -->
<g id="Node000002" class="node">
<title>Node2</title>
<g id="a_Node000002"><a xlink:href="class_a_q_n_w_b_1_1_n_w_b_1_1_annotation_series.html#a5fe99ca6d3df9e31461dbee2340c9610" target="_top" xlink:title="Initializes the AnnotationSeries.">
<polygon fill="white" stroke="#666666" points="344.75,-275.5 180.25,-275.5 180.25,-245 344.75,-245 344.75,-275.5"/>
<text xml:space="preserve" text-anchor="start" x="188.25" y="-262" font-family="Helvetica,sans-Serif" font-size="10.00">AQNWB::NWB::AnnotationSeries</text>
<text xml:space="preserve" text-anchor="middle" x="262.5" y="-250.75" font-family="Helvetica,sans-Serif" font-size="10.00">::initialize</text>
</a>
</g>
</g>
<!-- Node1&#45;&gt;Node2 -->
<g id="edge1_Node000001_Node000002" class="edge">
<title>Node1&#45;&gt;Node2</title>
<g id="a_edge1_Node000001_Node000002"><a xlink:title=" ">
<path fill="none" stroke="#63b8ff" d="M440.84,-161.07C419.57,-183.24 385.11,-215.72 349.25,-235.25 342.71,-238.81 335.61,-241.91 328.39,-244.61"/>
<polygon fill="#63b8ff" stroke="#63b8ff" points="443.24,-163.62 447.54,-153.94 438.14,-158.82 443.24,-163.62"/>
</a>
</g>
</g>
<!-- Node3 -->
<g id="Node000003" class="node">
<title>Node3</title>
<g id="a_Node000003"><a xlink:href="class_a_q_n_w_b_1_1_n_w_b_1_1_device.html#ab8c9231e0dee0d723f0b9fbbf51829a7" target="_top" xlink:title="Initializes the device by creating NWB related attributes and writing the manufactor and description ...">
<polygon fill="white" stroke="#666666" points="323,-226.5 202,-226.5 202,-196 323,-196 323,-226.5"/>
<text xml:space="preserve" text-anchor="start" x="210" y="-213" font-family="Helvetica,sans-Serif" font-size="10.00">AQNWB::NWB::Device</text>
<text xml:space="preserve" text-anchor="middle" x="262.5" y="-201.75" font-family="Helvetica,sans-Serif" font-size="10.00">::initialize</text>
</a>
</g>
</g>
<!-- Node1&#45;&gt;Node3 -->
<g id="edge2_Node000001_Node000003" class="edge">
<title>Node1&#45;&gt;Node3</title>
<g id="a_edge2_Node000001_Node000003"><a xlink:title=" ">
<path fill="none" stroke="#63b8ff" d="M418.73,-157.67C397.94,-167.01 372.57,-177.84 349.25,-186.25 340.21,-189.51 330.51,-192.66 321.02,-195.56"/>
<polygon fill="#63b8ff" stroke="#63b8ff" points="420.12,-160.89 427.78,-153.57 417.23,-154.51 420.12,-160.89"/>
</a>
</g>
</g>
<!-- Node4 -->
<g id="Node000004" class="node">
<title>Node4</title>
<g id="a_Node000004"><a xlink:href="class_a_q_n_w_b_1_1_n_w_b_1_1_electrical_series.html#a68535ea0fcb4a74c63eb04217ef91f66" target="_top" xlink:title="Initializes the Electrical Series.">
<polygon fill="white" stroke="#666666" points="341.75,-177.5 183.25,-177.5 183.25,-147 341.75,-147 341.75,-177.5"/>
<text xml:space="preserve" text-anchor="start" x="191.25" y="-164" font-family="Helvetica,sans-Serif" font-size="10.00">AQNWB::NWB::ElectricalSeries</text>
<text xml:space="preserve" text-anchor="middle" x="262.5" y="-152.75" font-family="Helvetica,sans-Serif" font-size="10.00">::initialize</text>
</a>
</g>
</g>
<!-- Node1&#45;&gt;Node4 -->
<g id="edge3_Node000001_Node000004" class="edge">
<title>Node1&#45;&gt;Node4</title>
<g id="a_edge3_Node000001_Node000004"><a xlink:title=" ">
<path fill="none" stroke="#63b8ff" d="M373.6,-148.41C363.08,-149.73 352.41,-151.07 342.06,-152.37"/>
<polygon fill="#63b8ff" stroke="#63b8ff" points="373.93,-151.9 383.41,-147.18 373.06,-144.95 373.93,-151.9"/>
</a>
</g>
</g>
<!-- Node5 -->
<g id="Node000005" class="node">
<title>Node5</title>
<g id="a_Node000005"><a xlink:href="class_a_q_n_w_b_1_1_n_w_b_1_1_electrode_group.html#a4e6311727089b081d56bd9d948aeacb2" target="_top" xlink:title="Initializes the ElectrodeGroup object.">
<polygon fill="white" stroke="#666666" points="341.38,-128.5 183.62,-128.5 183.62,-98 341.38,-98 341.38,-128.5"/>
<text xml:space="preserve" text-anchor="start" x="191.62" y="-115" font-family="Helvetica,sans-Serif" font-size="10.00">AQNWB::NWB::ElectrodeGroup</text>
<text xml:space="preserve" text-anchor="middle" x="262.5" y="-103.75" font-family="Helvetica,sans-Serif" font-size="10.00">::initialize</text>
</a>
</g>
</g>
<!-- Node1&#45;&gt;Node5 -->
<g id="edge4_Node000001_Node000005" class="edge">
<title>Node1&#45;&gt;Node5</title>
<g id="a_edge4_Node000001_Node000005"><a xlink:title=" ">
<path fill="none" stroke="#63b8ff" d="M373.51,-126.53C362.91,-125.25 352.16,-123.95 341.73,-122.69"/>
<polygon fill="#63b8ff" stroke="#63b8ff" points="373.07,-130 383.41,-127.72 373.9,-123.05 373.07,-130"/>
</a>
</g>
</g>
<!-- Node6 -->
<g id="Node000006" class="node">
<title>Node6</title>
<g id="a_Node000006"><a xlink:href="class_a_q_n_w_b_1_1_n_w_b_1_1_n_w_b_data_interface.html#afdd98d5d90f8936bcc9f11eccd8d11e9" target="_top" xlink:title="Initialize the object.">
<polygon fill="white" stroke="#666666" points="349.25,-79.5 175.75,-79.5 175.75,-49 349.25,-49 349.25,-79.5"/>
<text xml:space="preserve" text-anchor="start" x="183.75" y="-66" font-family="Helvetica,sans-Serif" font-size="10.00">AQNWB::NWB::NWBDataInterface</text>
<text xml:space="preserve" text-anchor="middle" x="262.5" y="-54.75" font-family="Helvetica,sans-Serif" font-size="10.00">::initialize</text>
</a>
</g>
</g>
<!-- Node1&#45;&gt;Node6 -->
<g id="edge5_Node000001_Node000006" class="edge">
<title>Node1&#45;&gt;Node6</title>
<g id="a_edge5_Node000001_Node000006"><a xlink:title=" ">
<path fill="none" stroke="#63b8ff" d="M418.24,-117.1C397.52,-108.01 372.35,-97.49 349.25,-89.25 340.19,-86.02 330.49,-82.89 321,-80"/>
<polygon fill="#63b8ff" stroke="#63b8ff" points="416.69,-120.24 427.25,-121.09 419.52,-113.84 416.69,-120.24"/>
</a>
</g>
</g>
<!-- Node8 -->
<g id="Node000008" class="node">
<title>Node8</title>
<g id="a_Node000008"><a xlink:href="class_a_q_n_w_b_1_1_n_w_b_1_1_spike_event_series.html#ad000730145828ed5d2ed33079d48ed9e" target="_top" xlink:title="Initializes the SpikeEventSeries.">
<polygon fill="white" stroke="#666666" points="346.62,-30.5 178.38,-30.5 178.38,0 346.62,0 346.62,-30.5"/>
<text xml:space="preserve" text-anchor="start" x="186.38" y="-17" font-family="Helvetica,sans-Serif" font-size="10.00">AQNWB::NWB::SpikeEventSeries</text>
<text xml:space="preserve" text-anchor="middle" x="262.5" y="-5.75" font-family="Helvetica,sans-Serif" font-size="10.00">::initialize</text>
</a>
</g>
</g>
<!-- Node1&#45;&gt;Node8 -->
<g id="edge7_Node000001_Node000008" class="edge">
<title>Node1&#45;&gt;Node8</title>
<g id="a_edge7_Node000001_Node000008"><a xlink:title=" ">
<path fill="none" stroke="#63b8ff" d="M440.79,-113.69C419.49,-91.75 385,-59.61 349.25,-40.25 342.7,-36.71 335.6,-33.61 328.37,-30.92"/>
<polygon fill="#63b8ff" stroke="#63b8ff" points="438.07,-115.91 447.5,-120.73 443.14,-111.08 438.07,-115.91"/>
</a>
</g>
</g>
<!-- Node7 -->
<g id="Node000007" class="node">
<title>Node7</title>
<g id="a_Node000007"><a xlink:href="class_a_q_n_w_b_1_1_n_w_b_1_1_time_series.html#a82f1f4dae2debc649aa537974dc7f7a7" target="_top" xlink:title="Initializes the TimeSeries by creating NWB related attributes and writing the description and comment...">
<polygon fill="white" stroke="#666666" points="139.75,-79.5 0,-79.5 0,-49 139.75,-49 139.75,-79.5"/>
<text xml:space="preserve" text-anchor="start" x="8" y="-66" font-family="Helvetica,sans-Serif" font-size="10.00">AQNWB::NWB::TimeSeries</text>
<text xml:space="preserve" text-anchor="middle" x="69.88" y="-54.75" font-family="Helvetica,sans-Serif" font-size="10.00">::initialize</text>
</a>
</g>
</g>
<!-- Node6&#45;&gt;Node7 -->
<g id="edge6_Node000006_Node000007" class="edge">
<title>Node6&#45;&gt;Node7</title>
<g id="a_edge6_Node000006_Node000007"><a xlink:title=" ">
<path fill="none" stroke="#63b8ff" d="M163.98,-64.25C155.9,-64.25 147.84,-64.25 140.04,-64.25"/>
<polygon fill="#63b8ff" stroke="#63b8ff" points="163.88,-67.75 173.88,-64.25 163.88,-60.75 163.88,-67.75"/>
</a>
</g>
</g>
</g>
</svg>

<g id="navigator" transform="translate(0 0)" fill="#404254">
  <rect fill="#f2f5e9" fill-opacity="0.5" stroke="#606060" stroke-width=".5" x="0" y="0" width="60" height="60"/>
  <use id="zoomplus" xlink:href="#zoomPlus" x="17" y="9" onmousedown="handleZoom(evt,'in')"/>
  <use id="zoomminus" xlink:href="#zoomMin" x="42" y="9" onmousedown="handleZoom(evt,'out')"/>
  <use id="reset" xlink:href="#resetDef" x="30" y="36" onmousedown="handleReset()"/>
   <use id="arrowup" xlink:href="#arrowUp" x="0" y="0" onmousedown="handlePan(0,-1)"/>
  <use id="arrowright" xlink:href="#arrowRight" x="0" y="0" onmousedown="handlePan(1,0)"/>
  <use id="arrowdown" xlink:href="#arrowDown" x="0" y="0" onmousedown="handlePan(0,1)"/>
  <use id="arrowleft" xlink:href="#arrowLeft" x="0" y="0" onmousedown="handlePan(-1,0)"/>
</g>
<svg viewBox="0 0 15 15" width="100%" height="30px" preserveAspectRatio="xMaxYMin meet">
 <g id="arrow_out" transform="scale(0.3 0.3)">
  <a xlink:href="class_a_q_n_w_b_1_1_n_w_b_1_1_n_w_b_container_a80beeda4c4761fe414407e4cc0d4fe8c_icgraph_org.svg" target="_base">
   <rect id="button" ry="5" rx="5" y="6" x="6" height="38" width="38"
        fill="#f2f5e9" fill-opacity="0.5" stroke="#606060" stroke-width="1.0"/>
   <path id="arrow"
     d="M 11.500037,31.436501 C 11.940474,20.09759 22.043105,11.32322 32.158766,21.979434 L 37.068811,17.246167 C 37.068811,17.246167 37.088388,32 37.088388,32 L 22.160133,31.978069 C 22.160133,31.978069 26.997745,27.140456 26.997745,27.140456 C 18.528582,18.264221 13.291696,25.230495 11.500037,31.436501 z"
     style="fill:#404040;"/>
  </a>
 </g>
</svg>

<style type='text/css'>
<![CDATA[
[data-mouse-over-selected='false'] { opacity: 0.7; }
[data-mouse-over-selected='true']  { opacity: 1.0; }
]]>
</style>
<script type="application/ecmascript"><![CDATA[
document.addEventListener('DOMContentLoaded', (event) => {
  highlightEdges();
  highlightAdjacentNodes();
});
]]></script>
</svg>
