<?xml version="1.0" encoding="UTF-8" standalone="no"?>
<!DOCTYPE svg PUBLIC "-//W3C//DTD SVG 1.1//EN"
 "http://www.w3.org/Graphics/SVG/1.1/DTD/svg11.dtd">
<!-- Generated by graphviz version 13.1.2 (20250808.2320)
 -->
<!-- Title: AQNWB::NWB::TimeSeries::readDescription Pages: 1 -->
<!--zoomable 57 -->

<svg id="main" version="1.1" xmlns="http://www.w3.org/2000/svg" xmlns:xlink="http://www.w3.org/1999/xlink" xml:space="preserve" onload="init(evt)">

<style type="text/css"><![CDATA[
.node, .edge {opacity: 0.7;}
.node.selected, .edge.selected {opacity: 1;}
.edge:hover path { stroke: red; }
.edge:hover polygon { stroke: red; fill: red; }
]]></style>

<defs>
  <circle id="rim" cx="0" cy="0" r="7"/>
  <circle id="rim2" cx="0" cy="0" r="3.5"/>
  <g id="zoomPlus">
    <use xlink:href="#rim" fill="#404040"><set attributeName="fill" to="#808080" begin="zoomplus.mouseover" end="zoomplus.mouseout"/></use>
    <path d="M-4,0h8M0,-4v8" fill="none" stroke="white" stroke-width="1.5" pointer-events="none"/>
  </g>
  <g id="zoomMin">
    <use xlink:href="#rim" fill="#404040"><set attributeName="fill" to="#808080" begin="zoomminus.mouseover" end="zoomminus.mouseout"/></use>
    <path d="M-4,0h8" fill="none" stroke="white" stroke-width="1.5" pointer-events="none"/>
  </g>
  <g id="arrowUp" transform="translate(30 24)">
    <use xlink:href="#rim"/>
    <path pointer-events="none" fill="none" stroke="white" stroke-width="1.5" d="M0,-3.0v7 M-2.5,-0.5L0,-3.0L2.5,-0.5"/>
  </g>
  <g id="arrowRight" transform="rotate(90) translate(36 -43)">
    <use xlink:href="#rim"/>
    <path pointer-events="none" fill="none" stroke="white" stroke-width="1.5" d="M0,-3.0v7 M-2.5,-0.5L0,-3.0L2.5,-0.5"/>
  </g>
  <g id="arrowDown" transform="rotate(180) translate(-30 -48)">
    <use xlink:href="#rim"/>
    <path pointer-events="none" fill="none" stroke="white" stroke-width="1.5" d="M0,-3.0v7 M-2.5,-0.5L0,-3.0L2.5,-0.5"/>
  </g>
  <g id="arrowLeft" transform="rotate(270) translate(-36 17)">
    <use xlink:href="#rim"/>
    <path pointer-events="none" fill="none" stroke="white" stroke-width="1.5" d="M0,-3.0v7 M-2.5,-0.5L0,-3.0L2.5,-0.5"/>
  </g>
  <g id="resetDef">
    <use xlink:href="#rim2" fill="#404040"><set attributeName="fill" to="#808080" begin="reset.mouseover" end="reset.mouseout"/></use>
  </g>
</defs>
<script type="application/ecmascript">
var viewWidth = 862;
var viewHeight = 57;
var sectionId = 'dynsection-26';
</script>
<script type="application/ecmascript" xlink:href="svg.min.js"/>
<svg id="graph" class="graph">
<g id="viewport">
<title>AQNWB::NWB::TimeSeries::readDescription</title>
<!-- Node1 -->
<g id="Node000001" class="node">
<title>Node1</title>
<g id="a_Node000001"><a xlink:title=" ">
<polygon fill="#999999" stroke="#666666" points="139.75,-30.5 0,-30.5 0,0 139.75,0 139.75,-30.5"/>
<text xml:space="preserve" text-anchor="start" x="8" y="-17" font-family="Helvetica,sans-Serif" font-size="10.00">AQNWB::NWB::TimeSeries</text>
<text xml:space="preserve" text-anchor="middle" x="69.88" y="-5.75" font-family="Helvetica,sans-Serif" font-size="10.00">::readDescription</text>
</a>
</g>
</g>
<!-- Node2 -->
<g id="Node000002" class="node">
<title>Node2</title>
<g id="a_Node000002"><a xlink:href="class_a_q_n_w_b_1_1_n_w_b_1_1_time_series.html#ab2eeb7e016b23097674627251e5e5ac7" target="_top" xlink:title=" ">
<polygon fill="white" stroke="#666666" points="315.5,-30.5 175.75,-30.5 175.75,0 315.5,0 315.5,-30.5"/>
<text xml:space="preserve" text-anchor="start" x="183.75" y="-17" font-family="Helvetica,sans-Serif" font-size="10.00">AQNWB::NWB::TimeSeries</text>
<text xml:space="preserve" text-anchor="middle" x="245.62" y="-5.75" font-family="Helvetica,sans-Serif" font-size="10.00">::readComments</text>
</a>
</g>
</g>
<!-- Node1&#45;&gt;Node2 -->
<g id="edge1_Node000001_Node000002" class="edge">
<title>Node1&#45;&gt;Node2</title>
<g id="a_edge1_Node000001_Node000002"><a xlink:title=" ">
<path fill="none" stroke="#63b8ff" d="M140.04,-15.25C147.96,-15.25 156.07,-15.25 164.12,-15.25"/>
<polygon fill="#63b8ff" stroke="#63b8ff" points="163.9,-18.75 173.9,-15.25 163.9,-11.75 163.9,-18.75"/>
</a>
</g>
</g>
<!-- Node3 -->
<g id="Node000003" class="node">
<title>Node3</title>
<g id="a_Node000003"><a xlink:href="class_a_q_n_w_b_1_1_n_w_b_1_1_time_series.html#a523738fd2da4b70707e4ee6844cdce02" target="_top" xlink:title="Constructor.">
<polygon fill="white" stroke="#666666" points="491.25,-30.5 351.5,-30.5 351.5,0 491.25,0 491.25,-30.5"/>
<text xml:space="preserve" text-anchor="start" x="359.5" y="-17" font-family="Helvetica,sans-Serif" font-size="10.00">AQNWB::NWB::TimeSeries</text>
<text xml:space="preserve" text-anchor="middle" x="421.38" y="-5.75" font-family="Helvetica,sans-Serif" font-size="10.00">::TimeSeries</text>
</a>
</g>
</g>
<!-- Node2&#45;&gt;Node3 -->
<g id="edge2_Node000002_Node000003" class="edge">
<title>Node2&#45;&gt;Node3</title>
<g id="a_edge2_Node000002_Node000003"><a xlink:title=" ">
<path fill="none" stroke="#63b8ff" d="M315.79,-15.25C323.71,-15.25 331.82,-15.25 339.87,-15.25"/>
<polygon fill="#63b8ff" stroke="#63b8ff" points="339.65,-18.75 349.65,-15.25 339.65,-11.75 339.65,-18.75"/>
</a>
</g>
</g>
<!-- Node4 -->
<g id="Node000004" class="node">
<title>Node4</title>
<g id="a_Node000004"><a xlink:href="class_a_q_n_w_b_1_1_n_w_b_1_1_container.html#a0ec16ae5d28267ea37464ffe2c2c34e5" target="_top" xlink:title="Constructor.">
<polygon fill="white" stroke="#666666" points="659.5,-30.5 527.25,-30.5 527.25,0 659.5,0 659.5,-30.5"/>
<text xml:space="preserve" text-anchor="start" x="535.25" y="-17" font-family="Helvetica,sans-Serif" font-size="10.00">AQNWB::NWB::Container</text>
<text xml:space="preserve" text-anchor="middle" x="593.38" y="-5.75" font-family="Helvetica,sans-Serif" font-size="10.00">::Container</text>
</a>
</g>
</g>
<!-- Node3&#45;&gt;Node4 -->
<g id="edge3_Node000003_Node000004" class="edge">
<title>Node3&#45;&gt;Node4</title>
<g id="a_edge3_Node000003_Node000004"><a xlink:title=" ">
<path fill="none" stroke="#63b8ff" d="M491.52,-15.25C499.46,-15.25 507.58,-15.25 515.61,-15.25"/>
<polygon fill="#63b8ff" stroke="#63b8ff" points="515.35,-18.75 525.35,-15.25 515.35,-11.75 515.35,-18.75"/>
</a>
</g>
</g>
<!-- Node4&#45;&gt;Node4 -->
<g id="edge4_Node000004_Node000004" class="edge">
<title>Node4&#45;&gt;Node4</title>
<g id="a_edge4_Node000004_Node000004"><a xlink:title=" ">
<path fill="none" stroke="#63b8ff" d="M562.9,-30.99C556.68,-40.06 566.84,-48.5 593.38,-48.5 607.89,-48.5 617.5,-45.97 622.22,-42.2"/>
<polygon fill="#63b8ff" stroke="#63b8ff" points="625.66,-42.88 623.64,-32.48 618.73,-41.87 625.66,-42.88"/>
</a>
</g>
</g>
<!-- Node5 -->
<g id="Node000005" class="node">
<title>Node5</title>
<g id="a_Node000005"><a xlink:href="class_a_q_n_w_b_1_1_n_w_b_1_1_registered_type.html#aa1e04074725b7331d725bbda8156bc2d" target="_top" xlink:title="Constructor.">
<polygon fill="white" stroke="#666666" points="854,-30.5 695.5,-30.5 695.5,0 854,0 854,-30.5"/>
<text xml:space="preserve" text-anchor="start" x="703.5" y="-17" font-family="Helvetica,sans-Serif" font-size="10.00">AQNWB::NWB::RegisteredType</text>
<text xml:space="preserve" text-anchor="middle" x="774.75" y="-5.75" font-family="Helvetica,sans-Serif" font-size="10.00">::RegisteredType</text>
</a>
</g>
</g>
<!-- Node4&#45;&gt;Node5 -->
<g id="edge5_Node000004_Node000005" class="edge">
<title>Node4&#45;&gt;Node5</title>
<g id="a_edge5_Node000004_Node000005"><a xlink:title=" ">
<path fill="none" stroke="#63b8ff" d="M659.89,-15.25C667.72,-15.25 675.81,-15.25 683.89,-15.25"/>
<polygon fill="#63b8ff" stroke="#63b8ff" points="683.79,-18.75 693.79,-15.25 683.79,-11.75 683.79,-18.75"/>
</a>
</g>
</g>
</g>
</svg>

<g id="navigator" transform="translate(0 0)" fill="#404254">
  <rect fill="#f2f5e9" fill-opacity="0.5" stroke="#606060" stroke-width=".5" x="0" y="0" width="60" height="60"/>
  <use id="zoomplus" xlink:href="#zoomPlus" x="17" y="9" onmousedown="handleZoom(evt,'in')"/>
  <use id="zoomminus" xlink:href="#zoomMin" x="42" y="9" onmousedown="handleZoom(evt,'out')"/>
  <use id="reset" xlink:href="#resetDef" x="30" y="36" onmousedown="handleReset()"/>
   <use id="arrowup" xlink:href="#arrowUp" x="0" y="0" onmousedown="handlePan(0,-1)"/>
  <use id="arrowright" xlink:href="#arrowRight" x="0" y="0" onmousedown="handlePan(1,0)"/>
  <use id="arrowdown" xlink:href="#arrowDown" x="0" y="0" onmousedown="handlePan(0,1)"/>
  <use id="arrowleft" xlink:href="#arrowLeft" x="0" y="0" onmousedown="handlePan(-1,0)"/>
</g>
<svg viewBox="0 0 15 15" width="100%" height="30px" preserveAspectRatio="xMaxYMin meet">
 <g id="arrow_out" transform="scale(0.3 0.3)">
  <a xlink:href="class_a_q_n_w_b_1_1_n_w_b_1_1_time_series_ae2a561b2f5a56f86f8794bdfdd07f422_cgraph_org.svg" target="_base">
   <rect id="button" ry="5" rx="5" y="6" x="6" height="38" width="38"
        fill="#f2f5e9" fill-opacity="0.5" stroke="#606060" stroke-width="1.0"/>
   <path id="arrow"
     d="M 11.500037,31.436501 C 11.940474,20.09759 22.043105,11.32322 32.158766,21.979434 L 37.068811,17.246167 C 37.068811,17.246167 37.088388,32 37.088388,32 L 22.160133,31.978069 C 22.160133,31.978069 26.997745,27.140456 26.997745,27.140456 C 18.528582,18.264221 13.291696,25.230495 11.500037,31.436501 z"
     style="fill:#404040;"/>
  </a>
 </g>
</svg>

<style type='text/css'>
<![CDATA[
[data-mouse-over-selected='false'] { opacity: 0.7; }
[data-mouse-over-selected='true']  { opacity: 1.0; }
]]>
</style>
<script type="application/ecmascript"><![CDATA[
document.addEventListener('DOMContentLoaded', (event) => {
  highlightEdges();
  highlightAdjacentNodes();
});
]]></script>
</svg>
