<?xml version="1.0" encoding="UTF-8" standalone="no"?>
<!DOCTYPE svg PUBLIC "-//W3C//DTD SVG 1.1//EN"
 "http://www.w3.org/Graphics/SVG/1.1/DTD/svg11.dtd">
<!-- Generated by graphviz version 13.1.2 (20250808.2320)
 -->
<!-- Title: AQNWB::NWB::RecordingContainers::writeTimeseriesData Pages: 1 -->
<svg width="583pt" height="186pt"
 viewBox="0.00 0.00 583.00 186.00" xmlns="http://www.w3.org/2000/svg" xmlns:xlink="http://www.w3.org/1999/xlink">
<g id="graph0" class="graph" transform="scale(1 1) rotate(0) translate(4 181.5)">
<title>AQNWB::NWB::RecordingContainers::writeTimeseriesData</title>
<!-- Node1 -->
<g id="Node000001" class="node">
<title>Node1</title>
<g id="a_Node000001"><a xlink:title="Write timeseries data to a recordingContainer dataset.">
<polygon fill="#999999" stroke="#666666" points="181.75,-128.5 0,-128.5 0,-98 181.75,-98 181.75,-128.5"/>
<text xml:space="preserve" text-anchor="start" x="8" y="-115" font-family="Helvetica,sans-Serif" font-size="10.00">AQNWB::NWB::RecordingContainers</text>
<text xml:space="preserve" text-anchor="middle" x="90.88" y="-103.75" font-family="Helvetica,sans-Serif" font-size="10.00">::writeTimeseriesData</text>
</a>
</g>
</g>
<!-- Node2 -->
<g id="Node000002" class="node">
<title>Node2</title>
<g id="a_Node000002"><a xlink:href="class_a_q_n_w_b_1_1_n_w_b_1_1_recording_containers.html#a18d797f241cbd59fd77fa68fbd392111" target="_top" xlink:title="Gets the Container object from the recordingContainers.">
<polygon fill="white" stroke="#666666" points="399.5,-177.5 217.75,-177.5 217.75,-147 399.5,-147 399.5,-177.5"/>
<text xml:space="preserve" text-anchor="start" x="225.75" y="-164" font-family="Helvetica,sans-Serif" font-size="10.00">AQNWB::NWB::RecordingContainers</text>
<text xml:space="preserve" text-anchor="middle" x="308.62" y="-152.75" font-family="Helvetica,sans-Serif" font-size="10.00">::getContainer</text>
</a>
</g>
</g>
<!-- Node1&#45;&gt;Node2 -->
<g id="edge1_Node000001_Node000002" class="edge">
<title>Node1&#45;&gt;Node2</title>
<g id="a_edge1_Node000001_Node000002"><a xlink:title=" ">
<path fill="none" stroke="#63b8ff" d="M161.03,-128.96C182.13,-133.75 205.5,-139.06 227.27,-144"/>
<polygon fill="#63b8ff" stroke="#63b8ff" points="226.49,-147.41 237.02,-146.21 228.04,-140.59 226.49,-147.41"/>
</a>
</g>
</g>
<!-- Node3 -->
<g id="Node000003" class="node">
<title>Node3</title>
<g id="a_Node000003"><a xlink:href="class_a_q_n_w_b_1_1_channel.html#ac33ad4e1c2926b7be7b8ae15350ef401" target="_top" xlink:title="Get the index of the channel within the recording array.">
<polygon fill="white" stroke="#666666" points="378.12,-128.5 239.12,-128.5 239.12,-98 378.12,-98 378.12,-128.5"/>
<text xml:space="preserve" text-anchor="start" x="247.12" y="-115" font-family="Helvetica,sans-Serif" font-size="10.00">AQNWB::Channel::getLocal</text>
<text xml:space="preserve" text-anchor="middle" x="308.62" y="-103.75" font-family="Helvetica,sans-Serif" font-size="10.00">Index</text>
</a>
</g>
</g>
<!-- Node1&#45;&gt;Node3 -->
<g id="edge2_Node000001_Node000003" class="edge">
<title>Node1&#45;&gt;Node3</title>
<g id="a_edge2_Node000001_Node000003"><a xlink:title=" ">
<path fill="none" stroke="#63b8ff" d="M182.12,-113.25C197.21,-113.25 212.78,-113.25 227.59,-113.25"/>
<polygon fill="#63b8ff" stroke="#63b8ff" points="227.24,-116.75 237.24,-113.25 227.24,-109.75 227.24,-116.75"/>
</a>
</g>
</g>
<!-- Node4 -->
<g id="Node000004" class="node">
<title>Node4</title>
<g id="a_Node000004"><a xlink:href="class_a_q_n_w_b_1_1_n_w_b_1_1_time_series.html#a33c3c764fdf8a5db861beeabc48d78e7" target="_top" xlink:title="Writes a timeseries data block to the file.">
<polygon fill="white" stroke="#666666" points="378.5,-79.5 238.75,-79.5 238.75,-49 378.5,-49 378.5,-79.5"/>
<text xml:space="preserve" text-anchor="start" x="246.75" y="-66" font-family="Helvetica,sans-Serif" font-size="10.00">AQNWB::NWB::TimeSeries</text>
<text xml:space="preserve" text-anchor="middle" x="308.62" y="-54.75" font-family="Helvetica,sans-Serif" font-size="10.00">::writeData</text>
</a>
</g>
</g>
<!-- Node1&#45;&gt;Node4 -->
<g id="edge3_Node000001_Node000004" class="edge">
<title>Node1&#45;&gt;Node4</title>
<g id="a_edge3_Node000001_Node000004"><a xlink:title=" ">
<path fill="none" stroke="#63b8ff" d="M161.03,-97.54C182.13,-92.75 205.5,-87.44 227.27,-82.5"/>
<polygon fill="#63b8ff" stroke="#63b8ff" points="228.04,-85.91 237.02,-80.29 226.49,-79.09 228.04,-85.91"/>
</a>
</g>
</g>
<!-- Node5 -->
<g id="Node000005" class="node">
<title>Node5</title>
<g id="a_Node000005"><a xlink:href="class_a_q_n_w_b_1_1_n_w_b_1_1_time_series.html#a09ead45365072d1f2dbdfe5d628d1af4" target="_top" xlink:title=" ">
<polygon fill="white" stroke="#666666" points="575.25,-128.5 435.5,-128.5 435.5,-98 575.25,-98 575.25,-128.5"/>
<text xml:space="preserve" text-anchor="start" x="443.5" y="-115" font-family="Helvetica,sans-Serif" font-size="10.00">AQNWB::NWB::TimeSeries</text>
<text xml:space="preserve" text-anchor="middle" x="505.38" y="-103.75" font-family="Helvetica,sans-Serif" font-size="10.00">::recordControl</text>
</a>
</g>
</g>
<!-- Node4&#45;&gt;Node5 -->
<g id="edge4_Node000004_Node000005" class="edge">
<title>Node4&#45;&gt;Node5</title>
<g id="a_edge4_Node000004_Node000005"><a xlink:title=" ">
<path fill="none" stroke="#63b8ff" d="M372.05,-79.96C390.83,-84.68 411.61,-89.91 431.03,-94.8"/>
<polygon fill="#63b8ff" stroke="#63b8ff" points="429.95,-98.13 440.5,-97.18 431.66,-91.35 429.95,-98.13"/>
</a>
</g>
</g>
<!-- Node6 -->
<g id="Node000006" class="node">
<title>Node6</title>
<g id="a_Node000006"><a xlink:href="class_a_q_n_w_b_1_1_n_w_b_1_1_time_series.html#a39ca5510e7d73fbd1d2c1b34ae730027" target="_top" xlink:title=" ">
<polygon fill="white" stroke="#666666" points="575.25,-79.5 435.5,-79.5 435.5,-49 575.25,-49 575.25,-79.5"/>
<text xml:space="preserve" text-anchor="start" x="443.5" y="-66" font-family="Helvetica,sans-Serif" font-size="10.00">AQNWB::NWB::TimeSeries</text>
<text xml:space="preserve" text-anchor="middle" x="505.38" y="-54.75" font-family="Helvetica,sans-Serif" font-size="10.00">::recordData</text>
</a>
</g>
</g>
<!-- Node4&#45;&gt;Node6 -->
<g id="edge5_Node000004_Node000006" class="edge">
<title>Node4&#45;&gt;Node6</title>
<g id="a_edge5_Node000004_Node000006"><a xlink:title=" ">
<path fill="none" stroke="#63b8ff" d="M378.83,-64.25C393.38,-64.25 408.85,-64.25 423.78,-64.25"/>
<polygon fill="#63b8ff" stroke="#63b8ff" points="423.55,-67.75 433.55,-64.25 423.55,-60.75 423.55,-67.75"/>
</a>
</g>
</g>
<!-- Node7 -->
<g id="Node000007" class="node">
<title>Node7</title>
<g id="a_Node000007"><a xlink:href="class_a_q_n_w_b_1_1_n_w_b_1_1_time_series.html#a15cdc18874a799e4196a58e2c2d51c31" target="_top" xlink:title=" ">
<polygon fill="white" stroke="#666666" points="575.25,-30.5 435.5,-30.5 435.5,0 575.25,0 575.25,-30.5"/>
<text xml:space="preserve" text-anchor="start" x="443.5" y="-17" font-family="Helvetica,sans-Serif" font-size="10.00">AQNWB::NWB::TimeSeries</text>
<text xml:space="preserve" text-anchor="middle" x="505.38" y="-5.75" font-family="Helvetica,sans-Serif" font-size="10.00">::recordTimestamps</text>
</a>
</g>
</g>
<!-- Node4&#45;&gt;Node7 -->
<g id="edge6_Node000004_Node000007" class="edge">
<title>Node4&#45;&gt;Node7</title>
<g id="a_edge6_Node000004_Node000007"><a xlink:title=" ">
<path fill="none" stroke="#63b8ff" d="M372.05,-48.54C390.83,-43.82 411.61,-38.59 431.03,-33.7"/>
<polygon fill="#63b8ff" stroke="#63b8ff" points="431.66,-37.15 440.5,-31.32 429.95,-30.37 431.66,-37.15"/>
</a>
</g>
</g>
</g>
</svg>
