<?xml version="1.0" encoding="UTF-8" standalone="no"?>
<!DOCTYPE svg PUBLIC "-//W3C//DTD SVG 1.1//EN"
 "http://www.w3.org/Graphics/SVG/1.1/DTD/svg11.dtd">
<!-- Generated by graphviz version 14.1.2 (20260124.0452)
 -->
<!-- Title: AQNWB::NWB::NWBFile::createFileStructure Pages: 1 -->
<!--zoomable 186 -->

<svg id="main" version="1.1" xmlns="http://www.w3.org/2000/svg" xmlns:xlink="http://www.w3.org/1999/xlink" xml:space="preserve" onload="init(evt)">

<style type="text/css"><![CDATA[
.node, .edge {opacity: 0.7;}
.node.selected, .edge.selected {opacity: 1;}
.edge:hover path { stroke: red; }
.edge:hover polygon { stroke: red; fill: red; }
]]></style>

<defs>
  <circle id="rim" cx="0" cy="0" r="7"/>
  <circle id="rim2" cx="0" cy="0" r="3.5"/>
  <g id="zoomPlus">
    <use xlink:href="#rim" fill="#404040"><set attributeName="fill" to="#808080" begin="zoomplus.mouseover" end="zoomplus.mouseout"/></use>
    <path d="M-4,0h8M0,-4v8" fill="none" stroke="white" stroke-width="1.5" pointer-events="none"/>
  </g>
  <g id="zoomMin">
    <use xlink:href="#rim" fill="#404040"><set attributeName="fill" to="#808080" begin="zoomminus.mouseover" end="zoomminus.mouseout"/></use>
    <path d="M-4,0h8" fill="none" stroke="white" stroke-width="1.5" pointer-events="none"/>
  </g>
  <g id="arrowUp" transform="translate(30 24)">
    <use xlink:href="#rim"/>
    <path pointer-events="none" fill="none" stroke="white" stroke-width="1.5" d="M0,-3.0v7 M-2.5,-0.5L0,-3.0L2.5,-0.5"/>
  </g>
  <g id="arrowRight" transform="rotate(90) translate(36 -43)">
    <use xlink:href="#rim"/>
    <path pointer-events="none" fill="none" stroke="white" stroke-width="1.5" d="M0,-3.0v7 M-2.5,-0.5L0,-3.0L2.5,-0.5"/>
  </g>
  <g id="arrowDown" transform="rotate(180) translate(-30 -48)">
    <use xlink:href="#rim"/>
    <path pointer-events="none" fill="none" stroke="white" stroke-width="1.5" d="M0,-3.0v7 M-2.5,-0.5L0,-3.0L2.5,-0.5"/>
  </g>
  <g id="arrowLeft" transform="rotate(270) translate(-36 17)">
    <use xlink:href="#rim"/>
    <path pointer-events="none" fill="none" stroke="white" stroke-width="1.5" d="M0,-3.0v7 M-2.5,-0.5L0,-3.0L2.5,-0.5"/>
  </g>
  <g id="resetDef">
    <use xlink:href="#rim2" fill="#404040"><set attributeName="fill" to="#808080" begin="reset.mouseover" end="reset.mouseout"/></use>
  </g>
</defs>
<script type="application/ecmascript">
var viewWidth = 1664;
var viewHeight = 186;
var sectionId = 'dynsection-17';
</script>
<script type="application/ecmascript" xlink:href="svg.min.js"/>
<svg id="graph" class="graph">
<g id="viewport">
<title>AQNWB::NWB::NWBFile::createFileStructure</title>
<!-- Node1 -->
<g id="Node000001" class="node">
<title>Node1</title>
<g id="a_Node000001"><a xlink:title="Creates the default file structure. Note, this function will fail if the file is in a mode where new ...">
<polygon fill="#999999" stroke="#666666" points="1655.5,-78.5 1525.5,-78.5 1525.5,-48 1655.5,-48 1655.5,-78.5"/>
<text xml:space="preserve" text-anchor="start" x="1533.5" y="-65" font-family="Helvetica,sans-Serif" font-size="10.00">AQNWB::NWB::NWBFile</text>
<text xml:space="preserve" text-anchor="middle" x="1590.5" y="-53.75" font-family="Helvetica,sans-Serif" font-size="10.00">::createFileStructure</text>
</a>
</g>
</g>
<!-- Node2 -->
<g id="Node000002" class="node">
<title>Node2</title>
<g id="a_Node000002"><a xlink:href="class_a_q_n_w_b_1_1_n_w_b_1_1_n_w_b_file.html#a116bb371a6ef2fec0a442530ce4c5344" target="_top" xlink:title=" ">
<polygon fill="white" stroke="#666666" points="1489.5,-103.5 1359.5,-103.5 1359.5,-73 1489.5,-73 1489.5,-103.5"/>
<text xml:space="preserve" text-anchor="start" x="1367.5" y="-90" font-family="Helvetica,sans-Serif" font-size="10.00">AQNWB::NWB::NWBFile</text>
<text xml:space="preserve" text-anchor="middle" x="1424.5" y="-78.75" font-family="Helvetica,sans-Serif" font-size="10.00">::createAquisitionSeries</text>
</a>
</g>
</g>
<!-- Node1&#45;&gt;Node2 -->
<g id="edge1_Node000001_Node000002" class="edge">
<title>Node1&#45;&gt;Node2</title>
<g id="a_edge1_Node000001_Node000002"><a xlink:title=" ">
<path fill="none" stroke="#63b8ff" d="M1513.91,-74.77C1505.9,-75.99 1497.8,-77.23 1489.93,-78.43"/>
<polygon fill="#63b8ff" stroke="#63b8ff" points="1514.3,-78.25 1523.66,-73.29 1513.24,-71.33 1514.3,-78.25"/>
</a>
</g>
</g>
<!-- Node14 -->
<g id="Node000014" class="node">
<title>Node14</title>
<g id="a_Node000014"><a xlink:href="class_a_q_n_w_b_1_1_n_w_b_1_1_n_w_b_file.html#a5fe5d0aba7a050db86d5caa5b8cf4a04" target="_top" xlink:title="Initializes the NWB file by setting up the file structure.">
<polygon fill="white" stroke="#666666" points="1489.5,-54.5 1359.5,-54.5 1359.5,-24 1489.5,-24 1489.5,-54.5"/>
<text xml:space="preserve" text-anchor="start" x="1367.5" y="-41" font-family="Helvetica,sans-Serif" font-size="10.00">AQNWB::NWB::NWBFile</text>
<text xml:space="preserve" text-anchor="middle" x="1424.5" y="-29.75" font-family="Helvetica,sans-Serif" font-size="10.00">::initialize</text>
</a>
</g>
</g>
<!-- Node1&#45;&gt;Node14 -->
<g id="edge13_Node000001_Node000014" class="edge">
<title>Node1&#45;&gt;Node14</title>
<g id="a_edge13_Node000001_Node000014"><a xlink:title=" ">
<path fill="none" stroke="#63b8ff" d="M1513.91,-52.19C1505.9,-51.02 1497.8,-49.83 1489.93,-48.68"/>
<polygon fill="#63b8ff" stroke="#63b8ff" points="1513.25,-55.63 1523.66,-53.61 1514.27,-48.7 1513.25,-55.63"/>
</a>
</g>
</g>
<!-- Node3 -->
<g id="Node000003" class="node">
<title>Node3</title>
<g id="a_Node000003"><a xlink:href="class_a_q_n_w_b_1_1_n_w_b_1_1_n_w_b_file.html#aae7e93ae26ad836702d22c9339d7bbc4" target="_top" xlink:title="Create AnnotationSeries objects to record data into. Created objects are automatically added to the I...">
<polygon fill="white" stroke="#666666" points="1307.75,-177.5 1177.75,-177.5 1177.75,-147 1307.75,-147 1307.75,-177.5"/>
<text xml:space="preserve" text-anchor="start" x="1185.75" y="-164" font-family="Helvetica,sans-Serif" font-size="10.00">AQNWB::NWB::NWBFile</text>
<text xml:space="preserve" text-anchor="middle" x="1242.75" y="-152.75" font-family="Helvetica,sans-Serif" font-size="10.00">::createAnnotationSeries</text>
</a>
</g>
</g>
<!-- Node2&#45;&gt;Node3 -->
<g id="edge2_Node000002_Node000003" class="edge">
<title>Node2&#45;&gt;Node3</title>
<g id="a_edge2_Node000002_Node000003"><a xlink:title=" ">
<path fill="none" stroke="#63b8ff" d="M1384.73,-108.96C1366.45,-118.27 1344.16,-129.01 1323.5,-137.25 1315.28,-140.53 1306.45,-143.67 1297.76,-146.54"/>
<polygon fill="#63b8ff" stroke="#63b8ff" points="1386.08,-112.2 1393.37,-104.5 1382.87,-105.97 1386.08,-112.2"/>
</a>
</g>
</g>
<!-- Node4 -->
<g id="Node000004" class="node">
<title>Node4</title>
<g id="a_Node000004"><a xlink:href="class_a_q_n_w_b_1_1_n_w_b_1_1_n_w_b_file.html#ae81ae76dea35d15be25ac40b32926e93" target="_top" xlink:title="Create ElectricalSeries objects to record data into. Created objects are automatically added to the I...">
<polygon fill="white" stroke="#666666" points="1307.75,-128.5 1177.75,-128.5 1177.75,-98 1307.75,-98 1307.75,-128.5"/>
<text xml:space="preserve" text-anchor="start" x="1185.75" y="-115" font-family="Helvetica,sans-Serif" font-size="10.00">AQNWB::NWB::NWBFile</text>
<text xml:space="preserve" text-anchor="middle" x="1242.75" y="-103.75" font-family="Helvetica,sans-Serif" font-size="10.00">::createElectricalSeries</text>
</a>
</g>
</g>
<!-- Node2&#45;&gt;Node4 -->
<g id="edge3_Node000002_Node000004" class="edge">
<title>Node2&#45;&gt;Node4</title>
<g id="a_edge3_Node000002_Node000004"><a xlink:title=" ">
<path fill="none" stroke="#63b8ff" d="M1348.05,-98.74C1334.73,-100.6 1320.97,-102.51 1307.99,-104.32"/>
<polygon fill="#63b8ff" stroke="#63b8ff" points="1348.19,-102.26 1357.61,-97.41 1347.23,-95.32 1348.19,-102.26"/>
</a>
</g>
</g>
<!-- Node5 -->
<g id="Node000005" class="node">
<title>Node5</title>
<g id="a_Node000005"><a xlink:href="class_a_q_n_w_b_1_1_n_w_b_1_1_n_w_b_file.html#a0fa114190b0940cf54f44c626a69f550" target="_top" xlink:title="Create SpikeEventSeries objects to record data into. Created objects are automatically added to the I...">
<polygon fill="white" stroke="#666666" points="1307.75,-79.5 1177.75,-79.5 1177.75,-49 1307.75,-49 1307.75,-79.5"/>
<text xml:space="preserve" text-anchor="start" x="1185.75" y="-66" font-family="Helvetica,sans-Serif" font-size="10.00">AQNWB::NWB::NWBFile</text>
<text xml:space="preserve" text-anchor="middle" x="1242.75" y="-54.75" font-family="Helvetica,sans-Serif" font-size="10.00">::createSpikeEventSeries</text>
</a>
</g>
</g>
<!-- Node2&#45;&gt;Node5 -->
<g id="edge4_Node000002_Node000005" class="edge">
<title>Node2&#45;&gt;Node5</title>
<g id="a_edge4_Node000002_Node000005"><a xlink:title=" ">
<path fill="none" stroke="#63b8ff" d="M1348.05,-78.18C1334.73,-76.4 1320.97,-74.56 1307.99,-72.83"/>
<polygon fill="#63b8ff" stroke="#63b8ff" points="1347.24,-81.6 1357.61,-79.45 1348.16,-74.66 1347.24,-81.6"/>
</a>
</g>
</g>
<!-- Node6 -->
<g id="Node000006" class="node">
<title>Node6</title>
<g id="a_Node000006"><a xlink:href="class_a_q_n_w_b_1_1_n_w_b_1_1_n_w_b_file.html#a2a132886b5369537f717fdcc80bc9b49" target="_top" xlink:title=" ">
<polygon fill="white" stroke="#666666" points="1323.5,-30.5 1162,-30.5 1162,0 1323.5,0 1323.5,-30.5"/>
<text xml:space="preserve" text-anchor="start" x="1170" y="-17" font-family="Helvetica,sans-Serif" font-size="10.00">AQNWB::NWB::NWBFile</text>
<text xml:space="preserve" text-anchor="middle" x="1242.75" y="-5.75" font-family="Helvetica,sans-Serif" font-size="10.00">::readTimestampsReferenceTime</text>
</a>
</g>
</g>
<!-- Node2&#45;&gt;Node6 -->
<g id="edge5_Node000002_Node000006" class="edge">
<title>Node2&#45;&gt;Node6</title>
<g id="a_edge5_Node000002_Node000006"><a xlink:title=" ">
<path fill="none" stroke="#63b8ff" d="M1369.56,-68.07C1366.12,-66.51 1362.74,-64.9 1359.5,-63.25 1342.58,-54.64 1340.71,-48.27 1323.5,-40.25 1316.14,-36.82 1308.18,-33.69 1300.24,-30.9"/>
<polygon fill="#63b8ff" stroke="#63b8ff" points="1368,-71.21 1378.57,-71.97 1370.78,-64.79 1368,-71.21"/>
</a>
</g>
</g>
<!-- Node7 -->
<g id="Node000007" class="node">
<title>Node7</title>
<g id="a_Node000007"><a xlink:href="class_a_q_n_w_b_1_1_n_w_b_1_1_n_w_b_file.html#af515ce14c705e833c1ad96837cbe92d8" target="_top" xlink:title=" ">
<polygon fill="white" stroke="#666666" points="1126,-30.5 996,-30.5 996,0 1126,0 1126,-30.5"/>
<text xml:space="preserve" text-anchor="start" x="1004" y="-17" font-family="Helvetica,sans-Serif" font-size="10.00">AQNWB::NWB::NWBFile</text>
<text xml:space="preserve" text-anchor="middle" x="1061" y="-5.75" font-family="Helvetica,sans-Serif" font-size="10.00">::readSessionStartTime</text>
</a>
</g>
</g>
<!-- Node6&#45;&gt;Node7 -->
<g id="edge6_Node000006_Node000007" class="edge">
<title>Node6&#45;&gt;Node7</title>
<g id="a_edge6_Node000006_Node000007"><a xlink:title=" ">
<path fill="none" stroke="#63b8ff" d="M1150.22,-15.25C1142.16,-15.25 1134.12,-15.25 1126.36,-15.25"/>
<polygon fill="#63b8ff" stroke="#63b8ff" points="1150.09,-18.75 1160.09,-15.25 1150.09,-11.75 1150.09,-18.75"/>
</a>
</g>
</g>
<!-- Node8 -->
<g id="Node000008" class="node">
<title>Node8</title>
<g id="a_Node000008"><a xlink:href="class_a_q_n_w_b_1_1_n_w_b_1_1_n_w_b_file.html#a3cebcab2c5ed464414d3c566e08a5b7f" target="_top" xlink:title=" ">
<polygon fill="white" stroke="#666666" points="960,-30.5 830,-30.5 830,0 960,0 960,-30.5"/>
<text xml:space="preserve" text-anchor="start" x="838" y="-17" font-family="Helvetica,sans-Serif" font-size="10.00">AQNWB::NWB::NWBFile</text>
<text xml:space="preserve" text-anchor="middle" x="895" y="-5.75" font-family="Helvetica,sans-Serif" font-size="10.00">::readSessionDescription</text>
</a>
</g>
</g>
<!-- Node7&#45;&gt;Node8 -->
<g id="edge7_Node000007_Node000008" class="edge">
<title>Node7&#45;&gt;Node8</title>
<g id="a_edge7_Node000007_Node000008"><a xlink:title=" ">
<path fill="none" stroke="#63b8ff" d="M984.41,-15.25C976.4,-15.25 968.3,-15.25 960.43,-15.25"/>
<polygon fill="#63b8ff" stroke="#63b8ff" points="984.14,-18.75 994.14,-15.25 984.14,-11.75 984.14,-18.75"/>
</a>
</g>
</g>
<!-- Node9 -->
<g id="Node000009" class="node">
<title>Node9</title>
<g id="a_Node000009"><a xlink:href="class_a_q_n_w_b_1_1_n_w_b_1_1_n_w_b_file.html#aa928ef570b33a28a2ba83b8edff18d79" target="_top" xlink:title=" ">
<polygon fill="white" stroke="#666666" points="794,-30.5 664,-30.5 664,0 794,0 794,-30.5"/>
<text xml:space="preserve" text-anchor="start" x="672" y="-17" font-family="Helvetica,sans-Serif" font-size="10.00">AQNWB::NWB::NWBFile</text>
<text xml:space="preserve" text-anchor="middle" x="729" y="-5.75" font-family="Helvetica,sans-Serif" font-size="10.00">::readIdentifier</text>
</a>
</g>
</g>
<!-- Node8&#45;&gt;Node9 -->
<g id="edge8_Node000008_Node000009" class="edge">
<title>Node8&#45;&gt;Node9</title>
<g id="a_edge8_Node000008_Node000009"><a xlink:title=" ">
<path fill="none" stroke="#63b8ff" d="M818.41,-15.25C810.4,-15.25 802.3,-15.25 794.43,-15.25"/>
<polygon fill="#63b8ff" stroke="#63b8ff" points="818.14,-18.75 828.14,-15.25 818.14,-11.75 818.14,-18.75"/>
</a>
</g>
</g>
<!-- Node10 -->
<g id="Node000010" class="node">
<title>Node10</title>
<g id="a_Node000010"><a xlink:href="class_a_q_n_w_b_1_1_n_w_b_1_1_n_w_b_file.html#ad0a87b247b8b3ff2fe16a19eaad0767a" target="_top" xlink:title=" ">
<polygon fill="white" stroke="#666666" points="628,-30.5 498,-30.5 498,0 628,0 628,-30.5"/>
<text xml:space="preserve" text-anchor="start" x="506" y="-17" font-family="Helvetica,sans-Serif" font-size="10.00">AQNWB::NWB::NWBFile</text>
<text xml:space="preserve" text-anchor="middle" x="563" y="-5.75" font-family="Helvetica,sans-Serif" font-size="10.00">::readFileCreateDate</text>
</a>
</g>
</g>
<!-- Node9&#45;&gt;Node10 -->
<g id="edge9_Node000009_Node000010" class="edge">
<title>Node9&#45;&gt;Node10</title>
<g id="a_edge9_Node000009_Node000010"><a xlink:title=" ">
<path fill="none" stroke="#63b8ff" d="M652.41,-15.25C644.4,-15.25 636.3,-15.25 628.43,-15.25"/>
<polygon fill="#63b8ff" stroke="#63b8ff" points="652.14,-18.75 662.14,-15.25 652.14,-11.75 652.14,-18.75"/>
</a>
</g>
</g>
<!-- Node11 -->
<g id="Node000011" class="node">
<title>Node11</title>
<g id="a_Node000011"><a xlink:href="class_a_q_n_w_b_1_1_n_w_b_1_1_n_w_b_file.html#ac63d558546622aae6157a8ecd82cf446" target="_top" xlink:title=" ">
<polygon fill="white" stroke="#666666" points="462,-30.5 332,-30.5 332,0 462,0 462,-30.5"/>
<text xml:space="preserve" text-anchor="start" x="340" y="-17" font-family="Helvetica,sans-Serif" font-size="10.00">AQNWB::NWB::NWBFile</text>
<text xml:space="preserve" text-anchor="middle" x="397" y="-5.75" font-family="Helvetica,sans-Serif" font-size="10.00">::readNWBVersion</text>
</a>
</g>
</g>
<!-- Node10&#45;&gt;Node11 -->
<g id="edge10_Node000010_Node000011" class="edge">
<title>Node10&#45;&gt;Node11</title>
<g id="a_edge10_Node000010_Node000011"><a xlink:title=" ">
<path fill="none" stroke="#63b8ff" d="M486.41,-15.25C478.4,-15.25 470.3,-15.25 462.43,-15.25"/>
<polygon fill="#63b8ff" stroke="#63b8ff" points="486.14,-18.75 496.14,-15.25 486.14,-11.75 486.14,-18.75"/>
</a>
</g>
</g>
<!-- Node12 -->
<g id="Node000012" class="node">
<title>Node12</title>
<g id="a_Node000012"><a xlink:href="class_a_q_n_w_b_1_1_n_w_b_1_1_n_w_b_file.html#a65a36f2baf0b3bb7555b573295f97bf0" target="_top" xlink:title=" ">
<polygon fill="white" stroke="#666666" points="296,-30.5 166,-30.5 166,0 296,0 296,-30.5"/>
<text xml:space="preserve" text-anchor="start" x="174" y="-17" font-family="Helvetica,sans-Serif" font-size="10.00">AQNWB::NWB::NWBFile</text>
<text xml:space="preserve" text-anchor="middle" x="231" y="-5.75" font-family="Helvetica,sans-Serif" font-size="10.00">::readElectrodesTable</text>
</a>
</g>
</g>
<!-- Node11&#45;&gt;Node12 -->
<g id="edge11_Node000011_Node000012" class="edge">
<title>Node11&#45;&gt;Node12</title>
<g id="a_edge11_Node000011_Node000012"><a xlink:title=" ">
<path fill="none" stroke="#63b8ff" d="M320.41,-15.25C312.4,-15.25 304.3,-15.25 296.43,-15.25"/>
<polygon fill="#63b8ff" stroke="#63b8ff" points="320.14,-18.75 330.14,-15.25 320.14,-11.75 320.14,-18.75"/>
</a>
</g>
</g>
<!-- Node13 -->
<g id="Node000013" class="node">
<title>Node13</title>
<g id="a_Node000013"><a xlink:href="class_a_q_n_w_b_1_1_n_w_b_1_1_n_w_b_file.html#a941d5b775441fac6c787cd55a8276461" target="_top" xlink:title="Deleted copy assignment operator to prevent copying.">
<polygon fill="white" stroke="#666666" points="130,-30.5 0,-30.5 0,0 130,0 130,-30.5"/>
<text xml:space="preserve" text-anchor="start" x="8" y="-17" font-family="Helvetica,sans-Serif" font-size="10.00">AQNWB::NWB::NWBFile</text>
<text xml:space="preserve" text-anchor="middle" x="65" y="-5.75" font-family="Helvetica,sans-Serif" font-size="10.00">::operator=</text>
</a>
</g>
</g>
<!-- Node12&#45;&gt;Node13 -->
<g id="edge12_Node000012_Node000013" class="edge">
<title>Node12&#45;&gt;Node13</title>
<g id="a_edge12_Node000012_Node000013"><a xlink:title=" ">
<path fill="none" stroke="#63b8ff" d="M154.41,-15.25C146.4,-15.25 138.3,-15.25 130.43,-15.25"/>
<polygon fill="#63b8ff" stroke="#63b8ff" points="154.14,-18.75 164.14,-15.25 154.14,-11.75 154.14,-18.75"/>
</a>
</g>
</g>
</g>
</svg>

<g id="navigator" transform="translate(0 0)" fill="#404254">
  <rect fill="#f2f5e9" fill-opacity="0.5" stroke="#606060" stroke-width=".5" x="0" y="0" width="60" height="60"/>
  <use id="zoomplus" xlink:href="#zoomPlus" x="17" y="9" onmousedown="handleZoom(evt,'in')"/>
  <use id="zoomminus" xlink:href="#zoomMin" x="42" y="9" onmousedown="handleZoom(evt,'out')"/>
  <use id="reset" xlink:href="#resetDef" x="30" y="36" onmousedown="handleReset()"/>
   <use id="arrowup" xlink:href="#arrowUp" x="0" y="0" onmousedown="handlePan(0,-1)"/>
  <use id="arrowright" xlink:href="#arrowRight" x="0" y="0" onmousedown="handlePan(1,0)"/>
  <use id="arrowdown" xlink:href="#arrowDown" x="0" y="0" onmousedown="handlePan(0,1)"/>
  <use id="arrowleft" xlink:href="#arrowLeft" x="0" y="0" onmousedown="handlePan(-1,0)"/>
</g>
<svg viewBox="0 0 15 15" width="100%" height="30px" preserveAspectRatio="xMaxYMin meet">
 <g id="arrow_out" transform="scale(0.3 0.3)">
  <a xlink:href="class_a_q_n_w_b_1_1_n_w_b_1_1_n_w_b_file_a71bd7b910a7ec89bdaf36304d67bfef1_icgraph_org.svg" target="_base">
   <rect id="button" ry="5" rx="5" y="6" x="6" height="38" width="38"
        fill="#f2f5e9" fill-opacity="0.5" stroke="#606060" stroke-width="1.0"/>
   <path id="arrow"
     d="M 11.500037,31.436501 C 11.940474,20.09759 22.043105,11.32322 32.158766,21.979434 L 37.068811,17.246167 C 37.068811,17.246167 37.088388,32 37.088388,32 L 22.160133,31.978069 C 22.160133,31.978069 26.997745,27.140456 26.997745,27.140456 C 18.528582,18.264221 13.291696,25.230495 11.500037,31.436501 z"
     style="fill:#404040;"/>
  </a>
 </g>
</svg>

<style type='text/css'>
<![CDATA[
[data-mouse-over-selected='false'] { opacity: 0.7; }
[data-mouse-over-selected='true']  { opacity: 1.0; }
]]>
</style>
<script type="application/ecmascript"><![CDATA[
document.addEventListener('DOMContentLoaded', (event) => {
  highlightEdges();
  highlightAdjacentNodes();
});
]]></script>
</svg>
