<?xml version="1.0" encoding="UTF-8" standalone="no"?>
<!DOCTYPE svg PUBLIC "-//W3C//DTD SVG 1.1//EN"
 "http://www.w3.org/Graphics/SVG/1.1/DTD/svg11.dtd">
<!-- Generated by graphviz version 14.1.2 (20260124.0452)
 -->
<!-- Title: AQNWB::NWB::ElectricalSeries::recordElectrodes Pages: 1 -->
<svg width="556pt" height="88pt"
 viewBox="0.00 0.00 556.00 88.00" xmlns="http://www.w3.org/2000/svg" xmlns:xlink="http://www.w3.org/1999/xlink">
<g id="graph0" class="graph" transform="scale(1 1) rotate(0) translate(4 83.5)">
<title>AQNWB::NWB::ElectricalSeries::recordElectrodes</title>
<!-- Node1 -->
<g id="Node000001" class="node">
<title>Node1</title>
<g id="a_Node000001"><a xlink:title=" ">
<polygon fill="#999999" stroke="#666666" points="547.5,-54.5 389,-54.5 389,-24 547.5,-24 547.5,-54.5"/>
<text xml:space="preserve" text-anchor="start" x="397" y="-41" font-family="Helvetica,sans-Serif" font-size="10.00">AQNWB::NWB::ElectricalSeries</text>
<text xml:space="preserve" text-anchor="middle" x="468.25" y="-29.75" font-family="Helvetica,sans-Serif" font-size="10.00">::recordElectrodes</text>
</a>
</g>
</g>
<!-- Node2 -->
<g id="Node000002" class="node">
<title>Node2</title>
<g id="a_Node000002"><a xlink:href="class_a_q_n_w_b_1_1_n_w_b_1_1_electrical_series.html#a68535ea0fcb4a74c63eb04217ef91f66" target="_top" xlink:title="Initializes the Electrical Series.">
<polygon fill="white" stroke="#666666" points="353,-79.5 194.5,-79.5 194.5,-49 353,-49 353,-79.5"/>
<text xml:space="preserve" text-anchor="start" x="202.5" y="-66" font-family="Helvetica,sans-Serif" font-size="10.00">AQNWB::NWB::ElectricalSeries</text>
<text xml:space="preserve" text-anchor="middle" x="273.75" y="-54.75" font-family="Helvetica,sans-Serif" font-size="10.00">::initialize</text>
</a>
</g>
</g>
<!-- Node1&#45;&gt;Node2 -->
<g id="edge1_Node000001_Node000002" class="edge">
<title>Node1&#45;&gt;Node2</title>
<g id="a_edge1_Node000001_Node000002"><a xlink:title=" ">
<path fill="none" stroke="#63b8ff" d="M377.4,-50.92C369.38,-51.96 361.3,-53.01 353.39,-54.04"/>
<polygon fill="#63b8ff" stroke="#63b8ff" points="377.71,-54.41 387.17,-49.65 376.81,-47.47 377.71,-54.41"/>
</a>
</g>
</g>
<!-- Node3 -->
<g id="Node000003" class="node">
<title>Node3</title>
<g id="a_Node000003"><a xlink:href="class_a_q_n_w_b_1_1_n_w_b_1_1_electrical_series.html#a63ad1e4cb62f07d9323e90ffe6981c57" target="_top" xlink:title=" ">
<polygon fill="white" stroke="#666666" points="353,-30.5 194.5,-30.5 194.5,0 353,0 353,-30.5"/>
<text xml:space="preserve" text-anchor="start" x="202.5" y="-17" font-family="Helvetica,sans-Serif" font-size="10.00">AQNWB::NWB::ElectricalSeries</text>
<text xml:space="preserve" text-anchor="middle" x="273.75" y="-5.75" font-family="Helvetica,sans-Serif" font-size="10.00">::readDataUnit</text>
</a>
</g>
</g>
<!-- Node1&#45;&gt;Node3 -->
<g id="edge2_Node000001_Node000003" class="edge">
<title>Node1&#45;&gt;Node3</title>
<g id="a_edge2_Node000001_Node000003"><a xlink:title=" ">
<path fill="none" stroke="#63b8ff" d="M377.4,-28.05C369.38,-27.05 361.3,-26.04 353.39,-25.05"/>
<polygon fill="#63b8ff" stroke="#63b8ff" points="376.82,-31.5 387.17,-29.27 377.68,-24.56 376.82,-31.5"/>
</a>
</g>
</g>
<!-- Node4 -->
<g id="Node000004" class="node">
<title>Node4</title>
<g id="a_Node000004"><a xlink:href="class_a_q_n_w_b_1_1_n_w_b_1_1_electrical_series.html#afc2d2a161bde1584eeac0fbfa5685159" target="_top" xlink:title=" ">
<polygon fill="white" stroke="#666666" points="158.5,-30.5 0,-30.5 0,0 158.5,0 158.5,-30.5"/>
<text xml:space="preserve" text-anchor="start" x="8" y="-17" font-family="Helvetica,sans-Serif" font-size="10.00">AQNWB::NWB::ElectricalSeries</text>
<text xml:space="preserve" text-anchor="middle" x="79.25" y="-5.75" font-family="Helvetica,sans-Serif" font-size="10.00">::readData</text>
</a>
</g>
</g>
<!-- Node3&#45;&gt;Node4 -->
<g id="edge3_Node000003_Node000004" class="edge">
<title>Node3&#45;&gt;Node4</title>
<g id="a_edge3_Node000003_Node000004"><a xlink:title=" ">
<path fill="none" stroke="#63b8ff" d="M182.9,-15.25C174.88,-15.25 166.8,-15.25 158.89,-15.25"/>
<polygon fill="#63b8ff" stroke="#63b8ff" points="182.66,-18.75 192.66,-15.25 182.66,-11.75 182.66,-18.75"/>
</a>
</g>
</g>
<!-- Node4&#45;&gt;Node4 -->
<g id="edge4_Node000004_Node000004" class="edge">
<title>Node4&#45;&gt;Node4</title>
<g id="a_edge4_Node000004_Node000004"><a xlink:title=" ">
<path fill="none" stroke="#63b8ff" d="M111.87,-42.2C106.53,-45.97 95.66,-48.5 79.25,-48.5 49.24,-48.5 37.75,-40.06 44.78,-30.99"/>
<polygon fill="#63b8ff" stroke="#63b8ff" points="115.3,-42.92 113.47,-32.48 108.39,-41.78 115.3,-42.92"/>
</a>
</g>
</g>
</g>
</svg>
