<?xml version="1.0" encoding="UTF-8" standalone="no"?>
<!DOCTYPE svg PUBLIC "-//W3C//DTD SVG 1.1//EN"
 "http://www.w3.org/Graphics/SVG/1.1/DTD/svg11.dtd">
<!-- Generated by graphviz version 14.1.2 (20260124.0452)
 -->
<!-- Title: AQNWB::IO::HDF5::HDF5IO::canModifyObjects Pages: 1 -->
<!--zoomable 504 -->

<svg id="main" version="1.1" xmlns="http://www.w3.org/2000/svg" xmlns:xlink="http://www.w3.org/1999/xlink" xml:space="preserve" onload="init(evt)">

<style type="text/css"><![CDATA[
.node, .edge {opacity: 0.7;}
.node.selected, .edge.selected {opacity: 1;}
.edge:hover path { stroke: red; }
.edge:hover polygon { stroke: red; fill: red; }
]]></style>

<defs>
  <circle id="rim" cx="0" cy="0" r="7"/>
  <circle id="rim2" cx="0" cy="0" r="3.5"/>
  <g id="zoomPlus">
    <use xlink:href="#rim" fill="#404040"><set attributeName="fill" to="#808080" begin="zoomplus.mouseover" end="zoomplus.mouseout"/></use>
    <path d="M-4,0h8M0,-4v8" fill="none" stroke="white" stroke-width="1.5" pointer-events="none"/>
  </g>
  <g id="zoomMin">
    <use xlink:href="#rim" fill="#404040"><set attributeName="fill" to="#808080" begin="zoomminus.mouseover" end="zoomminus.mouseout"/></use>
    <path d="M-4,0h8" fill="none" stroke="white" stroke-width="1.5" pointer-events="none"/>
  </g>
  <g id="arrowUp" transform="translate(30 24)">
    <use xlink:href="#rim"/>
    <path pointer-events="none" fill="none" stroke="white" stroke-width="1.5" d="M0,-3.0v7 M-2.5,-0.5L0,-3.0L2.5,-0.5"/>
  </g>
  <g id="arrowRight" transform="rotate(90) translate(36 -43)">
    <use xlink:href="#rim"/>
    <path pointer-events="none" fill="none" stroke="white" stroke-width="1.5" d="M0,-3.0v7 M-2.5,-0.5L0,-3.0L2.5,-0.5"/>
  </g>
  <g id="arrowDown" transform="rotate(180) translate(-30 -48)">
    <use xlink:href="#rim"/>
    <path pointer-events="none" fill="none" stroke="white" stroke-width="1.5" d="M0,-3.0v7 M-2.5,-0.5L0,-3.0L2.5,-0.5"/>
  </g>
  <g id="arrowLeft" transform="rotate(270) translate(-36 17)">
    <use xlink:href="#rim"/>
    <path pointer-events="none" fill="none" stroke="white" stroke-width="1.5" d="M0,-3.0v7 M-2.5,-0.5L0,-3.0L2.5,-0.5"/>
  </g>
  <g id="resetDef">
    <use xlink:href="#rim2" fill="#404040"><set attributeName="fill" to="#808080" begin="reset.mouseover" end="reset.mouseout"/></use>
  </g>
</defs>
<script type="application/ecmascript">
var viewWidth = 699;
var viewHeight = 504;
var sectionId = 'dynsection-5';
</script>
<script type="application/ecmascript" xlink:href="svg.min.js"/>
<svg id="graph" class="graph">
<g id="viewport">
<title>AQNWB::IO::HDF5::HDF5IO::canModifyObjects</title>
<!-- Node1 -->
<g id="Node000001" class="node">
<title>Node1</title>
<g id="a_Node000001"><a xlink:title="Checks whether the file is in a mode where objects can be added or deleted. Note, this does not apply...">
<polygon fill="#999999" stroke="#666666" points="691,-263.5 545.25,-263.5 545.25,-233 691,-233 691,-263.5"/>
<text xml:space="preserve" text-anchor="start" x="553.25" y="-250" font-family="Helvetica,sans-Serif" font-size="10.00">AQNWB::IO::HDF5::HDF5IO</text>
<text xml:space="preserve" text-anchor="middle" x="618.12" y="-238.75" font-family="Helvetica,sans-Serif" font-size="10.00">::canModifyObjects</text>
</a>
</g>
</g>
<!-- Node2 -->
<g id="Node000002" class="node">
<title>Node2</title>
<g id="a_Node000002"><a xlink:href="class_a_q_n_w_b_1_1_i_o_1_1_h_d_f5_1_1_h_d_f5_i_o.html#a8fc6f7149f6266cbf83019d4d8970d0f" target="_top" xlink:title="Creates an extendable dataset with the given configuration and path.">
<polygon fill="white" stroke="#666666" points="327.5,-448.5 181.75,-448.5 181.75,-418 327.5,-418 327.5,-448.5"/>
<text xml:space="preserve" text-anchor="start" x="189.75" y="-435" font-family="Helvetica,sans-Serif" font-size="10.00">AQNWB::IO::HDF5::HDF5IO</text>
<text xml:space="preserve" text-anchor="middle" x="254.62" y="-423.75" font-family="Helvetica,sans-Serif" font-size="10.00">::createArrayDataSet</text>
</a>
</g>
</g>
<!-- Node1&#45;&gt;Node2 -->
<g id="edge1_Node000001_Node000002" class="edge">
<title>Node1&#45;&gt;Node2</title>
<g id="a_edge1_Node000001_Node000002"><a xlink:title=" ">
<path fill="none" stroke="#63b8ff" d="M609.12,-274.68C595.64,-314.02 564.35,-386.85 509.25,-419.25 454.7,-451.33 381.61,-451.84 327.91,-446.1"/>
<polygon fill="#63b8ff" stroke="#63b8ff" points="612.41,-275.88 612.2,-265.28 605.76,-273.7 612.41,-275.88"/>
</a>
</g>
</g>
<!-- Node3 -->
<g id="Node000003" class="node">
<title>Node3</title>
<g id="a_Node000003"><a xlink:href="class_a_q_n_w_b_1_1_i_o_1_1_h_d_f5_1_1_h_d_f5_i_o.html#a97653ad67ac314515362c7fe2b6fbaa1" target="_top" xlink:title="Creates a dataset that holds an array of string values.">
<polygon fill="white" stroke="#666666" points="145.75,-469.5 0,-469.5 0,-439 145.75,-439 145.75,-469.5"/>
<text xml:space="preserve" text-anchor="start" x="8" y="-456" font-family="Helvetica,sans-Serif" font-size="10.00">AQNWB::IO::HDF5::HDF5IO</text>
<text xml:space="preserve" text-anchor="middle" x="72.88" y="-444.75" font-family="Helvetica,sans-Serif" font-size="10.00">::createStringDataSet</text>
</a>
</g>
</g>
<!-- Node1&#45;&gt;Node3 -->
<g id="edge14_Node000001_Node000003" class="edge">
<title>Node1&#45;&gt;Node3</title>
<g id="a_edge14_Node000001_Node000003"><a xlink:title=" ">
<path fill="none" stroke="#63b8ff" d="M611.57,-274.87C600.69,-319.57 571.91,-408.72 509.25,-448.25 390.33,-523.27 214.39,-492.44 127.06,-469.98"/>
<polygon fill="#63b8ff" stroke="#63b8ff" points="614.96,-275.77 613.79,-265.24 608.14,-274.2 614.96,-275.77"/>
</a>
</g>
</g>
<!-- Node4 -->
<g id="Node000004" class="node">
<title>Node4</title>
<g id="a_Node000004"><a xlink:href="class_a_q_n_w_b_1_1_i_o_1_1_h_d_f5_1_1_h_d_f5_i_o.html#a7ce63eb864cc8678f4bacb5fbc695cbe" target="_top" xlink:title="Creates an attribute at a given location in the file.">
<polygon fill="white" stroke="#666666" points="509.25,-410.5 363.5,-410.5 363.5,-380 509.25,-380 509.25,-410.5"/>
<text xml:space="preserve" text-anchor="start" x="371.5" y="-397" font-family="Helvetica,sans-Serif" font-size="10.00">AQNWB::IO::HDF5::HDF5IO</text>
<text xml:space="preserve" text-anchor="middle" x="436.38" y="-385.75" font-family="Helvetica,sans-Serif" font-size="10.00">::createAttribute</text>
</a>
</g>
</g>
<!-- Node1&#45;&gt;Node4 -->
<g id="edge3_Node000001_Node000004" class="edge">
<title>Node1&#45;&gt;Node4</title>
<g id="a_edge3_Node000001_Node000004"><a xlink:title=" ">
<path fill="none" stroke="#63b8ff" d="M601.14,-272.92C582.24,-300.28 548.36,-344.02 509.25,-370.25 503.98,-373.78 498.16,-376.87 492.19,-379.55"/>
<polygon fill="#63b8ff" stroke="#63b8ff" points="603.86,-275.14 606.56,-264.9 598.06,-271.22 603.86,-275.14"/>
</a>
</g>
</g>
<!-- Node5 -->
<g id="Node000005" class="node">
<title>Node5</title>
<g id="a_Node000005"><a xlink:href="class_a_q_n_w_b_1_1_i_o_1_1_h_d_f5_1_1_h_d_f5_i_o.html#a9e25b2f9b7ea08f7ac0be2f5c3a5f123" target="_top" xlink:title="Creates a string attribute at a given location in the file.">
<polygon fill="white" stroke="#666666" points="509.25,-361.5 363.5,-361.5 363.5,-331 509.25,-331 509.25,-361.5"/>
<text xml:space="preserve" text-anchor="start" x="371.5" y="-348" font-family="Helvetica,sans-Serif" font-size="10.00">AQNWB::IO::HDF5::HDF5IO</text>
<text xml:space="preserve" text-anchor="middle" x="436.38" y="-336.75" font-family="Helvetica,sans-Serif" font-size="10.00">::createAttribute</text>
</a>
</g>
</g>
<!-- Node1&#45;&gt;Node5 -->
<g id="edge4_Node000001_Node000005" class="edge">
<title>Node1&#45;&gt;Node5</title>
<g id="a_edge4_Node000001_Node000005"><a xlink:title=" ">
<path fill="none" stroke="#63b8ff" d="M588.4,-270.73C567.36,-286.41 537.65,-307.01 509.25,-321.25 502.52,-324.63 495.22,-327.74 487.94,-330.54"/>
<polygon fill="#63b8ff" stroke="#63b8ff" points="590.35,-273.64 596.21,-264.82 586.12,-268.06 590.35,-273.64"/>
</a>
</g>
</g>
<!-- Node6 -->
<g id="Node000006" class="node">
<title>Node6</title>
<g id="a_Node000006"><a xlink:href="class_a_q_n_w_b_1_1_i_o_1_1_h_d_f5_1_1_h_d_f5_i_o.html#a6d212643870ac6b96ac08e7425a00a0a" target="_top" xlink:title="Creates an array of variable length strings attribute at a given location in the file.">
<polygon fill="white" stroke="#666666" points="509.25,-312.5 363.5,-312.5 363.5,-282 509.25,-282 509.25,-312.5"/>
<text xml:space="preserve" text-anchor="start" x="371.5" y="-299" font-family="Helvetica,sans-Serif" font-size="10.00">AQNWB::IO::HDF5::HDF5IO</text>
<text xml:space="preserve" text-anchor="middle" x="436.38" y="-287.75" font-family="Helvetica,sans-Serif" font-size="10.00">::createAttribute</text>
</a>
</g>
</g>
<!-- Node1&#45;&gt;Node6 -->
<g id="edge5_Node000001_Node000006" class="edge">
<title>Node1&#45;&gt;Node6</title>
<g id="a_edge5_Node000001_Node000006"><a xlink:title=" ">
<path fill="none" stroke="#63b8ff" d="M548.65,-266.92C531,-271.73 512.17,-276.86 495.12,-281.51"/>
<polygon fill="#63b8ff" stroke="#63b8ff" points="549.57,-270.29 558.3,-264.29 547.73,-263.54 549.57,-270.29"/>
</a>
</g>
</g>
<!-- Node7 -->
<g id="Node000007" class="node">
<title>Node7</title>
<g id="a_Node000007"><a xlink:href="class_a_q_n_w_b_1_1_i_o_1_1_h_d_f5_1_1_h_d_f5_i_o.html#a22f7fbb78b3b211669010cc05f61e0e4" target="_top" xlink:title="Creates a new group in the file.">
<polygon fill="white" stroke="#666666" points="509.25,-214.5 363.5,-214.5 363.5,-184 509.25,-184 509.25,-214.5"/>
<text xml:space="preserve" text-anchor="start" x="371.5" y="-201" font-family="Helvetica,sans-Serif" font-size="10.00">AQNWB::IO::HDF5::HDF5IO</text>
<text xml:space="preserve" text-anchor="middle" x="436.38" y="-189.75" font-family="Helvetica,sans-Serif" font-size="10.00">::createGroup</text>
</a>
</g>
</g>
<!-- Node1&#45;&gt;Node7 -->
<g id="edge6_Node000001_Node000007" class="edge">
<title>Node1&#45;&gt;Node7</title>
<g id="a_edge6_Node000001_Node000007"><a xlink:title=" ">
<path fill="none" stroke="#63b8ff" d="M548.65,-229.58C531,-224.77 512.17,-219.64 495.12,-214.99"/>
<polygon fill="#63b8ff" stroke="#63b8ff" points="547.73,-232.96 558.3,-232.21 549.57,-226.21 547.73,-232.96"/>
</a>
</g>
</g>
<!-- Node8 -->
<g id="Node000008" class="node">
<title>Node8</title>
<g id="a_Node000008"><a xlink:href="class_a_q_n_w_b_1_1_i_o_1_1_h_d_f5_1_1_h_d_f5_i_o.html#af3bc883205c98d08820bf234f42f4467" target="_top" xlink:title="Creates a new group if it does not exist.">
<polygon fill="white" stroke="#666666" points="327.5,-193.5 181.75,-193.5 181.75,-163 327.5,-163 327.5,-193.5"/>
<text xml:space="preserve" text-anchor="start" x="189.75" y="-180" font-family="Helvetica,sans-Serif" font-size="10.00">AQNWB::IO::HDF5::HDF5IO</text>
<text xml:space="preserve" text-anchor="middle" x="254.62" y="-168.75" font-family="Helvetica,sans-Serif" font-size="10.00">::createGroupIfDoesNotExist</text>
</a>
</g>
</g>
<!-- Node1&#45;&gt;Node8 -->
<g id="edge8_Node000001_Node000008" class="edge">
<title>Node1&#45;&gt;Node8</title>
<g id="a_edge8_Node000001_Node000008"><a xlink:title=" ">
<path fill="none" stroke="#63b8ff" d="M592.48,-225.19C571.97,-207.68 541.08,-185.01 509.25,-175.25 450.1,-157.12 379.48,-159.79 327.8,-165.9"/>
<polygon fill="#63b8ff" stroke="#63b8ff" points="589.92,-227.6 599.74,-231.57 594.54,-222.34 589.92,-227.6"/>
</a>
</g>
</g>
<!-- Node9 -->
<g id="Node000009" class="node">
<title>Node9</title>
<g id="a_Node000009"><a xlink:href="class_a_q_n_w_b_1_1_i_o_1_1_h_d_f5_1_1_h_d_f5_i_o.html#a351fa783e607e0840d5d28b3761d42ff" target="_top" xlink:title="Creates a soft link to another location in the file.">
<polygon fill="white" stroke="#666666" points="509.25,-263.5 363.5,-263.5 363.5,-233 509.25,-233 509.25,-263.5"/>
<text xml:space="preserve" text-anchor="start" x="371.5" y="-250" font-family="Helvetica,sans-Serif" font-size="10.00">AQNWB::IO::HDF5::HDF5IO</text>
<text xml:space="preserve" text-anchor="middle" x="436.38" y="-238.75" font-family="Helvetica,sans-Serif" font-size="10.00">::createLink</text>
</a>
</g>
</g>
<!-- Node1&#45;&gt;Node9 -->
<g id="edge9_Node000001_Node000009" class="edge">
<title>Node1&#45;&gt;Node9</title>
<g id="a_edge9_Node000001_Node000009"><a xlink:title=" ">
<path fill="none" stroke="#63b8ff" d="M533.54,-248.25C525.53,-248.25 517.45,-248.25 509.56,-248.25"/>
<polygon fill="#63b8ff" stroke="#63b8ff" points="533.28,-251.75 543.28,-248.25 533.28,-244.75 533.28,-251.75"/>
</a>
</g>
</g>
<!-- Node10 -->
<g id="Node000010" class="node">
<title>Node10</title>
<g id="a_Node000010"><a xlink:href="class_a_q_n_w_b_1_1_i_o_1_1_h_d_f5_1_1_h_d_f5_i_o.html#a9181a28c31a25698ca748b1dcb955daa" target="_top" xlink:title="Sets an object reference attribute for a given location in the file.">
<polygon fill="white" stroke="#666666" points="509.25,-128.5 363.5,-128.5 363.5,-98 509.25,-98 509.25,-128.5"/>
<text xml:space="preserve" text-anchor="start" x="371.5" y="-115" font-family="Helvetica,sans-Serif" font-size="10.00">AQNWB::IO::HDF5::HDF5IO</text>
<text xml:space="preserve" text-anchor="middle" x="436.38" y="-103.75" font-family="Helvetica,sans-Serif" font-size="10.00">::createReferenceAttribute</text>
</a>
</g>
</g>
<!-- Node1&#45;&gt;Node10 -->
<g id="edge11_Node000001_Node000010" class="edge">
<title>Node1&#45;&gt;Node10</title>
<g id="a_edge11_Node000001_Node000010"><a xlink:title=" ">
<path fill="none" stroke="#63b8ff" d="M597.4,-223.94C577.29,-200.44 544.15,-165.12 509.25,-142.25 501.48,-137.16 492.68,-132.71 483.97,-128.92"/>
<polygon fill="#63b8ff" stroke="#63b8ff" points="594.61,-226.06 603.73,-231.46 599.97,-221.55 594.61,-226.06"/>
</a>
</g>
</g>
<!-- Node11 -->
<g id="Node000011" class="node">
<title>Node11</title>
<g id="a_Node000011"><a xlink:href="class_a_q_n_w_b_1_1_i_o_1_1_h_d_f5_1_1_h_d_f5_i_o.html#a43cc98ba74643c5f93fcce3f30505e1f" target="_top" xlink:title="Creates a dataset that holds an array of references to groups within the file.">
<polygon fill="white" stroke="#666666" points="509.25,-79.5 363.5,-79.5 363.5,-49 509.25,-49 509.25,-79.5"/>
<text xml:space="preserve" text-anchor="start" x="371.5" y="-66" font-family="Helvetica,sans-Serif" font-size="10.00">AQNWB::IO::HDF5::HDF5IO</text>
<text xml:space="preserve" text-anchor="middle" x="436.38" y="-54.75" font-family="Helvetica,sans-Serif" font-size="10.00">::createReferenceDataSet</text>
</a>
</g>
</g>
<!-- Node1&#45;&gt;Node11 -->
<g id="edge12_Node000001_Node000011" class="edge">
<title>Node1&#45;&gt;Node11</title>
<g id="a_edge12_Node000001_Node000011"><a xlink:title=" ">
<path fill="none" stroke="#63b8ff" d="M605.99,-222.36C589.67,-187.35 556.05,-125.17 509.25,-89.25 504.53,-85.63 499.26,-82.51 493.76,-79.83"/>
<polygon fill="#63b8ff" stroke="#63b8ff" points="602.73,-223.66 610.05,-231.32 609.11,-220.77 602.73,-223.66"/>
</a>
</g>
</g>
<!-- Node12 -->
<g id="Node000012" class="node">
<title>Node12</title>
<g id="a_Node000012"><a xlink:href="class_a_q_n_w_b_1_1_i_o_1_1_h_d_f5_1_1_h_d_f5_i_o.html#abb3541720c4613adc1c273cbe54f66a9" target="_top" xlink:title="Creates a non&#45;modifiable dataset with a string value.">
<polygon fill="white" stroke="#666666" points="509.25,-30.5 363.5,-30.5 363.5,0 509.25,0 509.25,-30.5"/>
<text xml:space="preserve" text-anchor="start" x="371.5" y="-17" font-family="Helvetica,sans-Serif" font-size="10.00">AQNWB::IO::HDF5::HDF5IO</text>
<text xml:space="preserve" text-anchor="middle" x="436.38" y="-5.75" font-family="Helvetica,sans-Serif" font-size="10.00">::createStringDataSet</text>
</a>
</g>
</g>
<!-- Node1&#45;&gt;Node12 -->
<g id="edge13_Node000001_Node000012" class="edge">
<title>Node1&#45;&gt;Node12</title>
<g id="a_edge13_Node000001_Node000012"><a xlink:title=" ">
<path fill="none" stroke="#63b8ff" d="M610.35,-221.82C597.77,-177.95 566.72,-90 509.25,-40.25 505.05,-36.62 500.3,-33.51 495.29,-30.84"/>
<polygon fill="#63b8ff" stroke="#63b8ff" points="606.91,-222.54 612.94,-231.25 613.66,-220.68 606.91,-222.54"/>
</a>
</g>
</g>
<!-- Node2&#45;&gt;Node3 -->
<g id="edge2_Node000002_Node000003" class="edge">
<title>Node2&#45;&gt;Node3</title>
<g id="a_edge2_Node000002_Node000003"><a xlink:title=" ">
<path fill="none" stroke="#63b8ff" d="M170.04,-443.02C162.03,-443.95 153.95,-444.9 146.06,-445.82"/>
<polygon fill="#63b8ff" stroke="#63b8ff" points="170.26,-446.51 179.79,-441.88 169.45,-439.56 170.26,-446.51"/>
</a>
</g>
</g>
<!-- Node7&#45;&gt;Node8 -->
<g id="edge7_Node000007_Node000008" class="edge">
<title>Node7&#45;&gt;Node8</title>
<g id="a_edge7_Node000007_Node000008"><a xlink:title=" ">
<path fill="none" stroke="#63b8ff" d="M351.79,-189.48C343.78,-188.55 335.7,-187.6 327.81,-186.68"/>
<polygon fill="#63b8ff" stroke="#63b8ff" points="351.2,-192.94 361.54,-190.62 352.01,-185.99 351.2,-192.94"/>
</a>
</g>
</g>
<!-- Node9&#45;&gt;Node2 -->
<g id="edge10_Node000009_Node000002" class="edge">
<title>Node9&#45;&gt;Node2</title>
<g id="a_edge10_Node000009_Node000002"><a xlink:title=" ">
<path fill="none" stroke="#63b8ff" d="M368.89,-269.46C367.03,-270.66 365.23,-271.92 363.5,-273.25 311.47,-313.31 275.88,-385.82 262.05,-417.6"/>
<polygon fill="#63b8ff" stroke="#63b8ff" points="370.3,-272.69 377.3,-264.73 366.86,-266.58 370.3,-272.69"/>
</a>
</g>
</g>
</g>
</svg>

<g id="navigator" transform="translate(0 0)" fill="#404254">
  <rect fill="#f2f5e9" fill-opacity="0.5" stroke="#606060" stroke-width=".5" x="0" y="0" width="60" height="60"/>
  <use id="zoomplus" xlink:href="#zoomPlus" x="17" y="9" onmousedown="handleZoom(evt,'in')"/>
  <use id="zoomminus" xlink:href="#zoomMin" x="42" y="9" onmousedown="handleZoom(evt,'out')"/>
  <use id="reset" xlink:href="#resetDef" x="30" y="36" onmousedown="handleReset()"/>
   <use id="arrowup" xlink:href="#arrowUp" x="0" y="0" onmousedown="handlePan(0,-1)"/>
  <use id="arrowright" xlink:href="#arrowRight" x="0" y="0" onmousedown="handlePan(1,0)"/>
  <use id="arrowdown" xlink:href="#arrowDown" x="0" y="0" onmousedown="handlePan(0,1)"/>
  <use id="arrowleft" xlink:href="#arrowLeft" x="0" y="0" onmousedown="handlePan(-1,0)"/>
</g>
<svg viewBox="0 0 15 15" width="100%" height="30px" preserveAspectRatio="xMaxYMin meet">
 <g id="arrow_out" transform="scale(0.3 0.3)">
  <a xlink:href="class_a_q_n_w_b_1_1_i_o_1_1_h_d_f5_1_1_h_d_f5_i_o_a96d8d872b2b974ac79a20b82fd72c5c2_icgraph_org.svg" target="_base">
   <rect id="button" ry="5" rx="5" y="6" x="6" height="38" width="38"
        fill="#f2f5e9" fill-opacity="0.5" stroke="#606060" stroke-width="1.0"/>
   <path id="arrow"
     d="M 11.500037,31.436501 C 11.940474,20.09759 22.043105,11.32322 32.158766,21.979434 L 37.068811,17.246167 C 37.068811,17.246167 37.088388,32 37.088388,32 L 22.160133,31.978069 C 22.160133,31.978069 26.997745,27.140456 26.997745,27.140456 C 18.528582,18.264221 13.291696,25.230495 11.500037,31.436501 z"
     style="fill:#404040;"/>
  </a>
 </g>
</svg>

<style type='text/css'>
<![CDATA[
[data-mouse-over-selected='false'] { opacity: 0.7; }
[data-mouse-over-selected='true']  { opacity: 1.0; }
]]>
</style>
<script type="application/ecmascript"><![CDATA[
document.addEventListener('DOMContentLoaded', (event) => {
  highlightEdges();
  highlightAdjacentNodes();
});
]]></script>
</svg>
