<?xml version="1.0" encoding="UTF-8" standalone="no"?>
<!DOCTYPE svg PUBLIC "-//W3C//DTD SVG 1.1//EN"
 "http://www.w3.org/Graphics/SVG/1.1/DTD/svg11.dtd">
<!-- Generated by graphviz version 12.2.1 (20241206.2353)
 -->
<!-- Title: AQNWB::NWB::VectorData::initialize Pages: 1 -->
<svg width="531pt" height="88pt"
 viewBox="0.00 0.00 530.75 87.50" xmlns="http://www.w3.org/2000/svg" xmlns:xlink="http://www.w3.org/1999/xlink">
<g id="graph0" class="graph" transform="scale(1 1) rotate(0) translate(4 83.5)">
<title>AQNWB::NWB::VectorData::initialize</title>
<!-- Node1 -->
<g id="Node000001" class="node">
<title>Node1</title>
<g id="a_Node000001"><a xlink:title="Initialize the dataset for the Data object.">
<polygon fill="#999999" stroke="#666666" points="139.75,-54.5 0,-54.5 0,-24 139.75,-24 139.75,-54.5"/>
<text text-anchor="start" x="8" y="-41" font-family="Helvetica,sans-Serif" font-size="10.00">AQNWB::NWB::VectorData</text>
<text text-anchor="middle" x="69.88" y="-29.75" font-family="Helvetica,sans-Serif" font-size="10.00">::initialize</text>
</a>
</g>
</g>
<!-- Node2 -->
<g id="Node000002" class="node">
<title>Node2</title>
<g id="a_Node000002"><a xlink:href="class_a_q_n_w_b_1_1_n_w_b_1_1_data.html#a41af6f50bfd8c555eeebb21acf5b00c7" target="_top" xlink:title="Initialize the dataset for the Data object.">
<polygon fill="white" stroke="#666666" points="328.25,-48.88 175.75,-48.88 175.75,-29.62 328.25,-29.62 328.25,-48.88"/>
<text text-anchor="middle" x="252" y="-35.38" font-family="Helvetica,sans-Serif" font-size="10.00">AQNWB::NWB::Data::initialize</text>
</a>
</g>
</g>
<!-- Node1&#45;&gt;Node2 -->
<g id="edge1_Node000001_Node000002" class="edge">
<title>Node1&#45;&gt;Node2</title>
<g id="a_edge1_Node000001_Node000002"><a xlink:title=" ">
<path fill="none" stroke="#63b8ff" d="M140,-39.25C147.89,-39.25 156.01,-39.25 164.09,-39.25"/>
<polygon fill="#63b8ff" stroke="#63b8ff" points="163.95,-42.75 173.95,-39.25 163.95,-35.75 163.95,-42.75"/>
</a>
</g>
</g>
<!-- Node3 -->
<g id="Node000003" class="node">
<title>Node3</title>
<g id="a_Node000003"><a xlink:href="class_a_q_n_w_b_1_1_n_w_b_1_1_registered_type.html#a651f3d7e5cc28dc93888e8a821c5aa1c" target="_top" xlink:title="Get the schema namespace of the class type.">
<polygon fill="white" stroke="#666666" points="522.75,-79.5 364.25,-79.5 364.25,-49 522.75,-49 522.75,-79.5"/>
<text text-anchor="start" x="372.25" y="-66" font-family="Helvetica,sans-Serif" font-size="10.00">AQNWB::NWB::RegisteredType</text>
<text text-anchor="middle" x="443.5" y="-54.75" font-family="Helvetica,sans-Serif" font-size="10.00">::getNamespace</text>
</a>
</g>
</g>
<!-- Node2&#45;&gt;Node3 -->
<g id="edge2_Node000002_Node000003" class="edge">
<title>Node2&#45;&gt;Node3</title>
<g id="a_edge2_Node000002_Node000003"><a xlink:title=" ">
<path fill="none" stroke="#63b8ff" d="M328.71,-49.24C336.56,-50.27 344.59,-51.33 352.57,-52.39"/>
<polygon fill="#63b8ff" stroke="#63b8ff" points="351.93,-55.83 362.31,-53.67 352.85,-48.89 351.93,-55.83"/>
</a>
</g>
</g>
<!-- Node4 -->
<g id="Node000004" class="node">
<title>Node4</title>
<g id="a_Node000004"><a xlink:href="class_a_q_n_w_b_1_1_n_w_b_1_1_registered_type.html#a150f881ad61cb8352eea7ddba47bc6ad" target="_top" xlink:title="Get the name of the class type.">
<polygon fill="white" stroke="#666666" points="522.75,-30.5 364.25,-30.5 364.25,0 522.75,0 522.75,-30.5"/>
<text text-anchor="start" x="372.25" y="-17" font-family="Helvetica,sans-Serif" font-size="10.00">AQNWB::NWB::RegisteredType</text>
<text text-anchor="middle" x="443.5" y="-5.75" font-family="Helvetica,sans-Serif" font-size="10.00">::getTypeName</text>
</a>
</g>
</g>
<!-- Node2&#45;&gt;Node4 -->
<g id="edge3_Node000002_Node000004" class="edge">
<title>Node2&#45;&gt;Node4</title>
<g id="a_edge3_Node000002_Node000004"><a xlink:title=" ">
<path fill="none" stroke="#63b8ff" d="M328.71,-29.66C336.56,-28.67 344.59,-27.65 352.57,-26.64"/>
<polygon fill="#63b8ff" stroke="#63b8ff" points="352.82,-30.14 362.31,-25.41 351.94,-23.19 352.82,-30.14"/>
</a>
</g>
</g>
</g>
</svg>
