<?xml version="1.0" encoding="UTF-8" standalone="no"?>
<!DOCTYPE svg PUBLIC "-//W3C//DTD SVG 1.1//EN"
 "http://www.w3.org/Graphics/SVG/1.1/DTD/svg11.dtd">
<!-- Generated by graphviz version 14.1.5 (20260411.2331)
 -->
<!-- Title: AQNWB::NWB::TimeSeries::recordData Pages: 1 -->
<!--zoomable 155 -->

<svg id="main" version="1.1" xmlns="http://www.w3.org/2000/svg" xmlns:xlink="http://www.w3.org/1999/xlink" xml:space="preserve" onload="init(evt)">

<style type="text/css"><![CDATA[
.node, .edge {opacity: 0.7;}
.node.selected, .edge.selected {opacity: 1;}
.edge:hover path { stroke: red; }
.edge:hover polygon { stroke: red; fill: red; }
]]></style>

<defs>
  <circle id="rim" cx="0" cy="0" r="7"/>
  <circle id="rim2" cx="0" cy="0" r="3.5"/>
  <g id="zoomPlus">
    <use xlink:href="#rim" fill="#404040"><set attributeName="fill" to="#808080" begin="zoomplus.mouseover" end="zoomplus.mouseout"/></use>
    <path d="M-4,0h8M0,-4v8" fill="none" stroke="white" stroke-width="1.5" pointer-events="none"/>
  </g>
  <g id="zoomMin">
    <use xlink:href="#rim" fill="#404040"><set attributeName="fill" to="#808080" begin="zoomminus.mouseover" end="zoomminus.mouseout"/></use>
    <path d="M-4,0h8" fill="none" stroke="white" stroke-width="1.5" pointer-events="none"/>
  </g>
  <g id="arrowUp" transform="translate(30 24)">
    <use xlink:href="#rim"/>
    <path pointer-events="none" fill="none" stroke="white" stroke-width="1.5" d="M0,-3.0v7 M-2.5,-0.5L0,-3.0L2.5,-0.5"/>
  </g>
  <g id="arrowRight" transform="rotate(90) translate(36 -43)">
    <use xlink:href="#rim"/>
    <path pointer-events="none" fill="none" stroke="white" stroke-width="1.5" d="M0,-3.0v7 M-2.5,-0.5L0,-3.0L2.5,-0.5"/>
  </g>
  <g id="arrowDown" transform="rotate(180) translate(-30 -48)">
    <use xlink:href="#rim"/>
    <path pointer-events="none" fill="none" stroke="white" stroke-width="1.5" d="M0,-3.0v7 M-2.5,-0.5L0,-3.0L2.5,-0.5"/>
  </g>
  <g id="arrowLeft" transform="rotate(270) translate(-36 17)">
    <use xlink:href="#rim"/>
    <path pointer-events="none" fill="none" stroke="white" stroke-width="1.5" d="M0,-3.0v7 M-2.5,-0.5L0,-3.0L2.5,-0.5"/>
  </g>
  <g id="resetDef">
    <use xlink:href="#rim2" fill="#404040"><set attributeName="fill" to="#808080" begin="reset.mouseover" end="reset.mouseout"/></use>
  </g>
</defs>
<script type="application/ecmascript">
var viewWidth = 528;
var viewHeight = 155;
var sectionId = 'dynsection-42';
</script>
<script type="application/ecmascript" xlink:href="svg.min.js"/>
<svg id="graph" class="graph">
<g id="viewport">
<title>AQNWB::NWB::TimeSeries::recordData</title>
<!-- Node1 -->
<g id="Node000001" class="node">
<title>Node1</title>
<g id="a_Node000001"><a xlink:title=" ">
<polygon fill="#999999" stroke="#666666" points="519.75,-103.5 380,-103.5 380,-73 519.75,-73 519.75,-103.5"/>
<text xml:space="preserve" text-anchor="start" x="388" y="-90" font-family="Helvetica,sans-Serif" font-size="10.00">AQNWB::NWB::TimeSeries</text>
<text xml:space="preserve" text-anchor="middle" x="449.88" y="-78.75" font-family="Helvetica,sans-Serif" font-size="10.00">::recordData</text>
</a>
</g>
</g>
<!-- Node2 -->
<g id="Node000002" class="node">
<title>Node2</title>
<g id="a_Node000002"><a xlink:href="class_a_q_n_w_b_1_1_n_w_b_1_1_time_series.html#a185cdbb22cb299862e950576a6c9ecab" target="_top" xlink:title=" ">
<polygon fill="white" stroke="#666666" points="344,-128.5 204.25,-128.5 204.25,-98 344,-98 344,-128.5"/>
<text xml:space="preserve" text-anchor="start" x="212.25" y="-115" font-family="Helvetica,sans-Serif" font-size="10.00">AQNWB::NWB::TimeSeries</text>
<text xml:space="preserve" text-anchor="middle" x="274.12" y="-103.75" font-family="Helvetica,sans-Serif" font-size="10.00">::readData</text>
</a>
</g>
</g>
<!-- Node1&#45;&gt;Node2 -->
<g id="edge1_Node000001_Node000002" class="edge">
<title>Node1&#45;&gt;Node2</title>
<g id="a_edge1_Node000001_Node000002"><a xlink:title=" ">
<path fill="none" stroke="#63b8ff" d="M368.41,-99.83C360.37,-100.98 352.25,-102.15 344.34,-103.29"/>
<polygon fill="#63b8ff" stroke="#63b8ff" points="368.81,-103.31 378.21,-98.42 367.81,-96.38 368.81,-103.31"/>
</a>
</g>
</g>
<!-- Node3 -->
<g id="Node000003" class="node">
<title>Node3</title>
<g id="a_Node000003"><a xlink:href="class_a_q_n_w_b_1_1_n_w_b_1_1_time_series.html#afb05f2252df2fc23d938894eb0bc6984" target="_top" xlink:title="Writes a timeseries data block to the file.">
<polygon fill="white" stroke="#666666" points="344,-79.5 204.25,-79.5 204.25,-49 344,-49 344,-79.5"/>
<text xml:space="preserve" text-anchor="start" x="212.25" y="-66" font-family="Helvetica,sans-Serif" font-size="10.00">AQNWB::NWB::TimeSeries</text>
<text xml:space="preserve" text-anchor="middle" x="274.12" y="-54.75" font-family="Helvetica,sans-Serif" font-size="10.00">::writeData</text>
</a>
</g>
</g>
<!-- Node1&#45;&gt;Node3 -->
<g id="edge3_Node000001_Node000003" class="edge">
<title>Node1&#45;&gt;Node3</title>
<g id="a_edge3_Node000001_Node000003"><a xlink:title=" ">
<path fill="none" stroke="#63b8ff" d="M368.41,-77.14C360.37,-76.02 352.25,-74.9 344.34,-73.81"/>
<polygon fill="#63b8ff" stroke="#63b8ff" points="367.82,-80.59 378.21,-78.49 368.78,-73.65 367.82,-80.59"/>
</a>
</g>
</g>
<!-- Node2&#45;&gt;Node2 -->
<g id="edge2_Node000002_Node000002" class="edge">
<title>Node2&#45;&gt;Node2</title>
<g id="a_edge2_Node000002_Node000002"><a xlink:title=" ">
<path fill="none" stroke="#63b8ff" d="M303.6,-140.2C298.78,-143.97 288.95,-146.5 274.12,-146.5 247.01,-146.5 236.63,-138.06 242.98,-128.99"/>
<polygon fill="#63b8ff" stroke="#63b8ff" points="307.03,-140.89 305.05,-130.48 300.11,-139.86 307.03,-140.89"/>
</a>
</g>
</g>
<!-- Node4 -->
<g id="Node000004" class="node">
<title>Node4</title>
<g id="a_Node000004"><a xlink:href="class_a_q_n_w_b_1_1_n_w_b_1_1_electrical_series.html#a3e3382ab70376c6e1307b53ec77c399f" target="_top" xlink:title="Writes a block of multichannel samples to an ElectricalSeries dataset in a single operation.">
<polygon fill="white" stroke="#666666" points="163.38,-128.5 4.88,-128.5 4.88,-98 163.38,-98 163.38,-128.5"/>
<text xml:space="preserve" text-anchor="start" x="12.88" y="-115" font-family="Helvetica,sans-Serif" font-size="10.00">AQNWB::NWB::ElectricalSeries</text>
<text xml:space="preserve" text-anchor="middle" x="84.12" y="-103.75" font-family="Helvetica,sans-Serif" font-size="10.00">::writeAllChannels</text>
</a>
</g>
</g>
<!-- Node3&#45;&gt;Node4 -->
<g id="edge4_Node000003_Node000004" class="edge">
<title>Node3&#45;&gt;Node4</title>
<g id="a_edge4_Node000003_Node000004"><a xlink:title=" ">
<path fill="none" stroke="#63b8ff" d="M201.78,-82.84C183.18,-87.69 163.33,-92.87 145.37,-97.55"/>
<polygon fill="#63b8ff" stroke="#63b8ff" points="202.61,-86.25 211.4,-80.34 200.84,-79.47 202.61,-86.25"/>
</a>
</g>
</g>
<!-- Node5 -->
<g id="Node000005" class="node">
<title>Node5</title>
<g id="a_Node000005"><a xlink:href="class_a_q_n_w_b_1_1_n_w_b_1_1_electrical_series.html#abd499ff69952a61324f86034ea91111b" target="_top" xlink:title="Writes a channel to an ElectricalSeries dataset.">
<polygon fill="white" stroke="#666666" points="163.38,-79.5 4.88,-79.5 4.88,-49 163.38,-49 163.38,-79.5"/>
<text xml:space="preserve" text-anchor="start" x="12.88" y="-66" font-family="Helvetica,sans-Serif" font-size="10.00">AQNWB::NWB::ElectricalSeries</text>
<text xml:space="preserve" text-anchor="middle" x="84.12" y="-54.75" font-family="Helvetica,sans-Serif" font-size="10.00">::writeChannel</text>
</a>
</g>
</g>
<!-- Node3&#45;&gt;Node5 -->
<g id="edge5_Node000003_Node000005" class="edge">
<title>Node3&#45;&gt;Node5</title>
<g id="a_edge5_Node000003_Node000005"><a xlink:title=" ">
<path fill="none" stroke="#63b8ff" d="M192.43,-64.25C182.9,-64.25 173.2,-64.25 163.71,-64.25"/>
<polygon fill="#63b8ff" stroke="#63b8ff" points="192.41,-67.75 202.41,-64.25 192.41,-60.75 192.41,-67.75"/>
</a>
</g>
</g>
<!-- Node6 -->
<g id="Node000006" class="node">
<title>Node6</title>
<g id="a_Node000006"><a xlink:href="class_a_q_n_w_b_1_1_n_w_b_1_1_spike_event_series.html#a5cfdd0f6bfdf9cec7e43219fb606a7e1" target="_top" xlink:title="Write a single spike series event.">
<polygon fill="white" stroke="#666666" points="168.25,-30.5 0,-30.5 0,0 168.25,0 168.25,-30.5"/>
<text xml:space="preserve" text-anchor="start" x="8" y="-17" font-family="Helvetica,sans-Serif" font-size="10.00">AQNWB::NWB::SpikeEventSeries</text>
<text xml:space="preserve" text-anchor="middle" x="84.12" y="-5.75" font-family="Helvetica,sans-Serif" font-size="10.00">::writeSpike</text>
</a>
</g>
</g>
<!-- Node3&#45;&gt;Node6 -->
<g id="edge6_Node000003_Node000006" class="edge">
<title>Node3&#45;&gt;Node6</title>
<g id="a_edge6_Node000003_Node000006"><a xlink:title=" ">
<path fill="none" stroke="#63b8ff" d="M201.78,-45.66C183.18,-40.81 163.33,-35.63 145.37,-30.95"/>
<polygon fill="#63b8ff" stroke="#63b8ff" points="200.84,-49.03 211.4,-48.16 202.61,-42.25 200.84,-49.03"/>
</a>
</g>
</g>
</g>
</svg>

<g id="navigator" transform="translate(0 0)" fill="#404254">
  <rect fill="#f2f5e9" fill-opacity="0.5" stroke="#606060" stroke-width=".5" x="0" y="0" width="60" height="60"/>
  <use id="zoomplus" xlink:href="#zoomPlus" x="17" y="9" onmousedown="handleZoom(evt,'in')"/>
  <use id="zoomminus" xlink:href="#zoomMin" x="42" y="9" onmousedown="handleZoom(evt,'out')"/>
  <use id="reset" xlink:href="#resetDef" x="30" y="36" onmousedown="handleReset()"/>
   <use id="arrowup" xlink:href="#arrowUp" x="0" y="0" onmousedown="handlePan(0,-1)"/>
  <use id="arrowright" xlink:href="#arrowRight" x="0" y="0" onmousedown="handlePan(1,0)"/>
  <use id="arrowdown" xlink:href="#arrowDown" x="0" y="0" onmousedown="handlePan(0,1)"/>
  <use id="arrowleft" xlink:href="#arrowLeft" x="0" y="0" onmousedown="handlePan(-1,0)"/>
</g>
<svg viewBox="0 0 15 15" width="100%" height="30px" preserveAspectRatio="xMaxYMin meet">
 <g id="arrow_out" transform="scale(0.3 0.3)">
  <a xlink:href="class_a_q_n_w_b_1_1_n_w_b_1_1_time_series_a97d9f3aa32ab004532f45222dcd320e0_icgraph_org.svg" target="_base">
   <rect id="button" ry="5" rx="5" y="6" x="6" height="38" width="38"
        fill="#f2f5e9" fill-opacity="0.5" stroke="#606060" stroke-width="1.0"/>
   <path id="arrow"
     d="M 11.500037,31.436501 C 11.940474,20.09759 22.043105,11.32322 32.158766,21.979434 L 37.068811,17.246167 C 37.068811,17.246167 37.088388,32 37.088388,32 L 22.160133,31.978069 C 22.160133,31.978069 26.997745,27.140456 26.997745,27.140456 C 18.528582,18.264221 13.291696,25.230495 11.500037,31.436501 z"
     style="fill:#404040;"/>
  </a>
 </g>
</svg>

<style type='text/css'>
<![CDATA[
[data-mouse-over-selected='false'] { opacity: 0.7; }
[data-mouse-over-selected='true']  { opacity: 1.0; }
]]>
</style>
<script type="application/ecmascript"><![CDATA[
document.addEventListener('DOMContentLoaded', (event) => {
  highlightEdges();
  highlightAdjacentNodes();
});
]]></script>
</svg>
