<?xml version="1.0" encoding="UTF-8" standalone="no"?>
<!DOCTYPE svg PUBLIC "-//W3C//DTD SVG 1.1//EN"
 "http://www.w3.org/Graphics/SVG/1.1/DTD/svg11.dtd">
<!-- Generated by graphviz version 14.1.0 (20251206.1807)
 -->
<!-- Title: AQNWB::NWB::AnnotationSeries::initialize Pages: 1 -->
<svg width="728pt" height="88pt"
 viewBox="0.00 0.00 728.00 88.00" xmlns="http://www.w3.org/2000/svg" xmlns:xlink="http://www.w3.org/1999/xlink">
<g id="graph0" class="graph" transform="scale(1 1) rotate(0) translate(4 83.5)">
<title>AQNWB::NWB::AnnotationSeries::initialize</title>
<!-- Node1 -->
<g id="Node000001" class="node">
<title>Node1</title>
<g id="a_Node000001"><a xlink:title="Initializes the AnnotationSeries.">
<polygon fill="#999999" stroke="#666666" points="164.5,-54.5 0,-54.5 0,-24 164.5,-24 164.5,-54.5"/>
<text xml:space="preserve" text-anchor="start" x="8" y="-41" font-family="Helvetica,sans-Serif" font-size="10.00">AQNWB::NWB::AnnotationSeries</text>
<text xml:space="preserve" text-anchor="middle" x="82.25" y="-29.75" font-family="Helvetica,sans-Serif" font-size="10.00">::initialize</text>
</a>
</g>
</g>
<!-- Node2 -->
<g id="Node000002" class="node">
<title>Node2</title>
<g id="a_Node000002"><a xlink:href="class_a_q_n_w_b_1_1_n_w_b_1_1_n_w_b_container.html#a80beeda4c4761fe414407e4cc0d4fe8c" target="_top" xlink:title="Initialize the object.">
<polygon fill="white" stroke="#666666" points="356.75,-54.5 200.5,-54.5 200.5,-24 356.75,-24 356.75,-54.5"/>
<text xml:space="preserve" text-anchor="start" x="208.5" y="-41" font-family="Helvetica,sans-Serif" font-size="10.00">AQNWB::NWB::NWBContainer</text>
<text xml:space="preserve" text-anchor="middle" x="278.62" y="-29.75" font-family="Helvetica,sans-Serif" font-size="10.00">::initialize</text>
</a>
</g>
</g>
<!-- Node1&#45;&gt;Node2 -->
<g id="edge1_Node000001_Node000002" class="edge">
<title>Node1&#45;&gt;Node2</title>
<g id="a_edge1_Node000001_Node000002"><a xlink:title=" ">
<path fill="none" stroke="#63b8ff" d="M164.84,-39.25C172.82,-39.25 180.94,-39.25 188.99,-39.25"/>
<polygon fill="#63b8ff" stroke="#63b8ff" points="188.77,-42.75 198.77,-39.25 188.77,-35.75 188.77,-42.75"/>
</a>
</g>
</g>
<!-- Node3 -->
<g id="Node000003" class="node">
<title>Node3</title>
<g id="a_Node000003"><a xlink:href="class_a_q_n_w_b_1_1_n_w_b_1_1_container.html#a420424e52795b5212d7dcb728396af6a" target="_top" xlink:title="Initialize the container.">
<polygon fill="white" stroke="#666666" points="525,-54.5 392.75,-54.5 392.75,-24 525,-24 525,-54.5"/>
<text xml:space="preserve" text-anchor="start" x="400.75" y="-41" font-family="Helvetica,sans-Serif" font-size="10.00">AQNWB::NWB::Container</text>
<text xml:space="preserve" text-anchor="middle" x="458.88" y="-29.75" font-family="Helvetica,sans-Serif" font-size="10.00">::initialize</text>
</a>
</g>
</g>
<!-- Node2&#45;&gt;Node3 -->
<g id="edge2_Node000002_Node000003" class="edge">
<title>Node2&#45;&gt;Node3</title>
<g id="a_edge2_Node000002_Node000003"><a xlink:title=" ">
<path fill="none" stroke="#63b8ff" d="M357.03,-39.25C364.92,-39.25 372.94,-39.25 380.82,-39.25"/>
<polygon fill="#63b8ff" stroke="#63b8ff" points="380.74,-42.75 390.74,-39.25 380.74,-35.75 380.74,-42.75"/>
</a>
</g>
</g>
<!-- Node4 -->
<g id="Node000004" class="node">
<title>Node4</title>
<g id="a_Node000004"><a xlink:href="class_a_q_n_w_b_1_1_n_w_b_1_1_registered_type.html#a651f3d7e5cc28dc93888e8a821c5aa1c" target="_top" xlink:title="Get the schema namespace of the class type.">
<polygon fill="white" stroke="#666666" points="719.5,-79.5 561,-79.5 561,-49 719.5,-49 719.5,-79.5"/>
<text xml:space="preserve" text-anchor="start" x="569" y="-66" font-family="Helvetica,sans-Serif" font-size="10.00">AQNWB::NWB::RegisteredType</text>
<text xml:space="preserve" text-anchor="middle" x="640.25" y="-54.75" font-family="Helvetica,sans-Serif" font-size="10.00">::getNamespace</text>
</a>
</g>
</g>
<!-- Node3&#45;&gt;Node4 -->
<g id="edge3_Node000003_Node000004" class="edge">
<title>Node3&#45;&gt;Node4</title>
<g id="a_edge3_Node000003_Node000004"><a xlink:title=" ">
<path fill="none" stroke="#63b8ff" d="M525.39,-48.38C533.31,-49.48 541.49,-50.63 549.67,-51.77"/>
<polygon fill="#63b8ff" stroke="#63b8ff" points="548.92,-55.19 559.31,-53.11 549.89,-48.26 548.92,-55.19"/>
</a>
</g>
</g>
<!-- Node5 -->
<g id="Node000005" class="node">
<title>Node5</title>
<g id="a_Node000005"><a xlink:href="class_a_q_n_w_b_1_1_n_w_b_1_1_registered_type.html#a150f881ad61cb8352eea7ddba47bc6ad" target="_top" xlink:title="Get the name of the class type.">
<polygon fill="white" stroke="#666666" points="719.5,-30.5 561,-30.5 561,0 719.5,0 719.5,-30.5"/>
<text xml:space="preserve" text-anchor="start" x="569" y="-17" font-family="Helvetica,sans-Serif" font-size="10.00">AQNWB::NWB::RegisteredType</text>
<text xml:space="preserve" text-anchor="middle" x="640.25" y="-5.75" font-family="Helvetica,sans-Serif" font-size="10.00">::getTypeName</text>
</a>
</g>
</g>
<!-- Node3&#45;&gt;Node5 -->
<g id="edge4_Node000003_Node000005" class="edge">
<title>Node3&#45;&gt;Node5</title>
<g id="a_edge4_Node000003_Node000005"><a xlink:title=" ">
<path fill="none" stroke="#63b8ff" d="M525.39,-30.48C533.22,-29.44 541.31,-28.35 549.39,-27.27"/>
<polygon fill="#63b8ff" stroke="#63b8ff" points="549.86,-30.74 559.31,-25.95 548.93,-23.8 549.86,-30.74"/>
</a>
</g>
</g>
</g>
</svg>
