<?xml version="1.0" encoding="UTF-8" standalone="no"?>
<!DOCTYPE svg PUBLIC "-//W3C//DTD SVG 1.1//EN"
 "http://www.w3.org/Graphics/SVG/1.1/DTD/svg11.dtd">
<!-- Generated by graphviz version 15.1.0 (20260618.0150)
 -->
<!-- Title: AQNWB::NWB::TimestampVectorData::readResolution Pages: 1 -->
<svg width="1127pt" height="127pt"
 viewBox="0.00 0.00 1127.00 127.00" xmlns="http://www.w3.org/2000/svg" xmlns:xlink="http://www.w3.org/1999/xlink">
<g id="graph0" class="graph" transform="scale(1 1) rotate(0) translate(4 122.5)">
<title>AQNWB::NWB::TimestampVectorData::readResolution</title>
<!-- Node1 -->
<g id="Node000001" class="node">
<title>Node1</title>
<g id="a_Node000001"><a xlink:title=" ">
<polygon fill="#999999" stroke="#666666" points="167.5,-54.5 0,-54.5 0,-24 167.5,-24 167.5,-54.5"/>
<text xml:space="preserve" text-anchor="start" x="8" y="-41" font-family="Helvetica,sans-Serif" font-size="10.00">AQNWB::NWB::TimestampVector</text>
<text xml:space="preserve" text-anchor="middle" x="83.75" y="-29.75" font-family="Helvetica,sans-Serif" font-size="10.00">Data::readResolution</text>
</a>
</g>
</g>
<!-- Node2 -->
<g id="Node000002" class="node">
<title>Node2</title>
<g id="a_Node000002"><a xlink:href="class_a_q_n_w_b_1_1_n_w_b_1_1_timestamp_vector_data.html#ad7a6e9121bf75866c8e0823e60d2b349" target="_top" xlink:title=" ">
<polygon fill="white" stroke="#666666" points="371,-79.5 203.5,-79.5 203.5,-49 371,-49 371,-79.5"/>
<text xml:space="preserve" text-anchor="start" x="211.5" y="-66" font-family="Helvetica,sans-Serif" font-size="10.00">AQNWB::NWB::TimestampVector</text>
<text xml:space="preserve" text-anchor="middle" x="287.25" y="-54.75" font-family="Helvetica,sans-Serif" font-size="10.00">Data::readData</text>
</a>
</g>
</g>
<!-- Node1&#45;&gt;Node2 -->
<g id="edge1_Node000001_Node000002" class="edge">
<title>Node1&#45;&gt;Node2</title>
<g id="a_edge1_Node000001_Node000002"><a xlink:title=" ">
<path fill="none" stroke="#63b8ff" d="M167.87,-49.56C175.83,-50.55 183.94,-51.56 191.99,-52.56"/>
<polygon fill="#63b8ff" stroke="#63b8ff" points="191.46,-56.02 201.82,-53.77 192.32,-49.07 191.46,-56.02"/>
</a>
</g>
</g>
<!-- Node7 -->
<g id="Node000007" class="node">
<title>Node7</title>
<g id="a_Node000007"><a xlink:href="class_a_q_n_w_b_1_1_n_w_b_1_1_timestamp_vector_data.html#a473cf9fd8ad6bef0e45d8f6307de84cd" target="_top" xlink:title=" ">
<polygon fill="white" stroke="#666666" points="371,-30.5 203.5,-30.5 203.5,0 371,0 371,-30.5"/>
<text xml:space="preserve" text-anchor="start" x="211.5" y="-17" font-family="Helvetica,sans-Serif" font-size="10.00">AQNWB::NWB::TimestampVector</text>
<text xml:space="preserve" text-anchor="middle" x="287.25" y="-5.75" font-family="Helvetica,sans-Serif" font-size="10.00">Data::recordData</text>
</a>
</g>
</g>
<!-- Node1&#45;&gt;Node7 -->
<g id="edge10_Node000001_Node000007" class="edge">
<title>Node1&#45;&gt;Node7</title>
<g id="a_edge10_Node000001_Node000007"><a xlink:title=" ">
<path fill="none" stroke="#63b8ff" d="M167.87,-29.35C175.83,-28.4 183.94,-27.44 191.99,-26.48"/>
<polygon fill="#63b8ff" stroke="#63b8ff" points="192.3,-29.96 201.82,-25.31 191.47,-23.01 192.3,-29.96"/>
</a>
</g>
</g>
<!-- Node3 -->
<g id="Node000003" class="node">
<title>Node3</title>
<g id="a_Node000003"><a xlink:href="class_a_q_n_w_b_1_1_n_w_b_1_1_timestamp_vector_data.html#a60cbd64dbe3869e408306d75c4e50232" target="_top" xlink:title="Constructor.">
<polygon fill="white" stroke="#666666" points="574.5,-100.5 407,-100.5 407,-70 574.5,-70 574.5,-100.5"/>
<text xml:space="preserve" text-anchor="start" x="415" y="-87" font-family="Helvetica,sans-Serif" font-size="10.00">AQNWB::NWB::TimestampVector</text>
<text xml:space="preserve" text-anchor="middle" x="490.75" y="-75.75" font-family="Helvetica,sans-Serif" font-size="10.00">Data::TimestampVectorData</text>
</a>
</g>
</g>
<!-- Node2&#45;&gt;Node3 -->
<g id="edge2_Node000002_Node000003" class="edge">
<title>Node2&#45;&gt;Node3</title>
<g id="a_edge2_Node000002_Node000003"><a xlink:title=" ">
<path fill="none" stroke="#63b8ff" d="M371.37,-72.91C379.33,-73.74 387.44,-74.59 395.49,-75.43"/>
<polygon fill="#63b8ff" stroke="#63b8ff" points="395.01,-78.89 405.31,-76.45 395.73,-71.93 395.01,-78.89"/>
</a>
</g>
</g>
<!-- Node4 -->
<g id="Node000004" class="node">
<title>Node4</title>
<g id="a_Node000004"><a xlink:href="class_a_q_n_w_b_1_1_n_w_b_1_1_vector_data.html#aaf127dfd1e590307b872ea785d578316" target="_top" xlink:title="Constructor.">
<polygon fill="white" stroke="#666666" points="750.25,-78.5 610.5,-78.5 610.5,-48 750.25,-48 750.25,-78.5"/>
<text xml:space="preserve" text-anchor="start" x="618.5" y="-65" font-family="Helvetica,sans-Serif" font-size="10.00">AQNWB::NWB::VectorData</text>
<text xml:space="preserve" text-anchor="middle" x="680.38" y="-53.75" font-family="Helvetica,sans-Serif" font-size="10.00">::VectorData</text>
</a>
</g>
</g>
<!-- Node2&#45;&gt;Node4 -->
<g id="edge9_Node000002_Node000004" class="edge">
<title>Node2&#45;&gt;Node4</title>
<g id="a_edge9_Node000002_Node000004"><a xlink:title=" ">
<path fill="none" stroke="#63b8ff" d="M371.29,-61.88C383.27,-61.62 395.45,-61.4 407,-61.25 481.44,-60.31 500.06,-60.54 574.5,-61.25 582.45,-61.33 590.74,-61.43 599.02,-61.56"/>
<polygon fill="#63b8ff" stroke="#63b8ff" points="598.7,-65.06 608.76,-61.72 598.82,-58.06 598.7,-65.06"/>
</a>
</g>
</g>
<!-- Node3&#45;&gt;Node3 -->
<g id="edge3_Node000003_Node000003" class="edge">
<title>Node3&#45;&gt;Node3</title>
<g id="a_edge3_Node000003_Node000003"><a xlink:title=" ">
<path fill="none" stroke="#63b8ff" d="M457.15,-100.99C450.29,-110.06 461.49,-118.5 490.75,-118.5 506.75,-118.5 517.35,-115.97 522.55,-112.2"/>
<polygon fill="#63b8ff" stroke="#63b8ff" points="525.98,-112.91 524.11,-102.48 519.07,-111.8 525.98,-112.91"/>
</a>
</g>
</g>
<!-- Node3&#45;&gt;Node4 -->
<g id="edge4_Node000003_Node000004" class="edge">
<title>Node3&#45;&gt;Node4</title>
<g id="a_edge4_Node000003_Node000004"><a xlink:title=" ">
<path fill="none" stroke="#63b8ff" d="M574.86,-75.5C582.77,-74.58 590.77,-73.64 598.65,-72.72"/>
<polygon fill="#63b8ff" stroke="#63b8ff" points="599.05,-76.19 608.58,-71.55 598.24,-69.24 599.05,-76.19"/>
</a>
</g>
</g>
<!-- Node4&#45;&gt;Node4 -->
<g id="edge8_Node000004_Node000004" class="edge">
<title>Node4&#45;&gt;Node4</title>
<g id="a_edge8_Node000004_Node000004"><a xlink:title=" ">
<path fill="none" stroke="#63b8ff" d="M649.36,-78.99C643.04,-88.06 653.37,-96.5 680.38,-96.5 695.14,-96.5 704.92,-93.97 709.72,-90.2"/>
<polygon fill="#63b8ff" stroke="#63b8ff" points="713.16,-90.89 711.16,-80.48 706.23,-89.86 713.16,-90.89"/>
</a>
</g>
</g>
<!-- Node5 -->
<g id="Node000005" class="node">
<title>Node5</title>
<g id="a_Node000005"><a xlink:href="class_a_q_n_w_b_1_1_n_w_b_1_1_data.html#ac0a68f39a709b9096ce797bce18c668f" target="_top" xlink:title="Constructor.">
<polygon fill="white" stroke="#666666" points="924.5,-72.88 786.25,-72.88 786.25,-53.62 924.5,-53.62 924.5,-72.88"/>
<text xml:space="preserve" text-anchor="middle" x="855.38" y="-59.38" font-family="Helvetica,sans-Serif" font-size="10.00">AQNWB::NWB::Data::Data</text>
</a>
</g>
</g>
<!-- Node4&#45;&gt;Node5 -->
<g id="edge5_Node000004_Node000005" class="edge">
<title>Node4&#45;&gt;Node5</title>
<g id="a_edge5_Node000004_Node000005"><a xlink:title=" ">
<path fill="none" stroke="#63b8ff" d="M750.74,-63.25C758.51,-63.25 766.47,-63.25 774.36,-63.25"/>
<polygon fill="#63b8ff" stroke="#63b8ff" points="774.32,-66.75 784.32,-63.25 774.32,-59.75 774.32,-66.75"/>
</a>
</g>
</g>
<!-- Node5&#45;&gt;Node5 -->
<g id="edge6_Node000005_Node000005" class="edge">
<title>Node5&#45;&gt;Node5</title>
<g id="a_edge6_Node000005_Node000005"><a xlink:title=" ">
<path fill="none" stroke="#63b8ff" d="M827.98,-73.16C815.48,-81.77 824.61,-90.88 855.38,-90.88 872.68,-90.88 883.14,-87.99 886.75,-83.94"/>
<polygon fill="#63b8ff" stroke="#63b8ff" points="890.05,-82.75 883.3,-74.58 883.48,-85.18 890.05,-82.75"/>
</a>
</g>
</g>
<!-- Node6 -->
<g id="Node000006" class="node">
<title>Node6</title>
<g id="a_Node000006"><a xlink:href="class_a_q_n_w_b_1_1_n_w_b_1_1_registered_type.html#aa1e04074725b7331d725bbda8156bc2d" target="_top" xlink:title="Constructor.">
<polygon fill="white" stroke="#666666" points="1119,-78.5 960.5,-78.5 960.5,-48 1119,-48 1119,-78.5"/>
<text xml:space="preserve" text-anchor="start" x="968.5" y="-65" font-family="Helvetica,sans-Serif" font-size="10.00">AQNWB::NWB::RegisteredType</text>
<text xml:space="preserve" text-anchor="middle" x="1039.75" y="-53.75" font-family="Helvetica,sans-Serif" font-size="10.00">::RegisteredType</text>
</a>
</g>
</g>
<!-- Node5&#45;&gt;Node6 -->
<g id="edge7_Node000005_Node000006" class="edge">
<title>Node5&#45;&gt;Node6</title>
<g id="a_edge7_Node000005_Node000006"><a xlink:title=" ">
<path fill="none" stroke="#63b8ff" d="M924.8,-63.25C932.64,-63.25 940.71,-63.25 948.76,-63.25"/>
<polygon fill="#63b8ff" stroke="#63b8ff" points="948.61,-66.75 958.61,-63.25 948.61,-59.75 948.61,-66.75"/>
</a>
</g>
</g>
</g>
</svg>
