<?xml version="1.0" encoding="UTF-8" standalone="no"?>
<!DOCTYPE svg PUBLIC "-//W3C//DTD SVG 1.1//EN"
 "http://www.w3.org/Graphics/SVG/1.1/DTD/svg11.dtd">
<!-- Generated by graphviz version 14.1.2 (20260124.0452)
 -->
<!-- Title: AQNWB::NWB::RegisteredType Pages: 1 -->
<!--zoomable 313 -->

<svg id="main" version="1.1" xmlns="http://www.w3.org/2000/svg" xmlns:xlink="http://www.w3.org/1999/xlink" xml:space="preserve" onload="init(evt)">

<style type="text/css"><![CDATA[
.node, .edge {opacity: 0.7;}
.node.selected, .edge.selected {opacity: 1;}
.edge:hover path { stroke: red; }
.edge:hover polygon { stroke: red; fill: red; }
]]></style>

<defs>
  <circle id="rim" cx="0" cy="0" r="7"/>
  <circle id="rim2" cx="0" cy="0" r="3.5"/>
  <g id="zoomPlus">
    <use xlink:href="#rim" fill="#404040"><set attributeName="fill" to="#808080" begin="zoomplus.mouseover" end="zoomplus.mouseout"/></use>
    <path d="M-4,0h8M0,-4v8" fill="none" stroke="white" stroke-width="1.5" pointer-events="none"/>
  </g>
  <g id="zoomMin">
    <use xlink:href="#rim" fill="#404040"><set attributeName="fill" to="#808080" begin="zoomminus.mouseover" end="zoomminus.mouseout"/></use>
    <path d="M-4,0h8" fill="none" stroke="white" stroke-width="1.5" pointer-events="none"/>
  </g>
  <g id="arrowUp" transform="translate(30 24)">
    <use xlink:href="#rim"/>
    <path pointer-events="none" fill="none" stroke="white" stroke-width="1.5" d="M0,-3.0v7 M-2.5,-0.5L0,-3.0L2.5,-0.5"/>
  </g>
  <g id="arrowRight" transform="rotate(90) translate(36 -43)">
    <use xlink:href="#rim"/>
    <path pointer-events="none" fill="none" stroke="white" stroke-width="1.5" d="M0,-3.0v7 M-2.5,-0.5L0,-3.0L2.5,-0.5"/>
  </g>
  <g id="arrowDown" transform="rotate(180) translate(-30 -48)">
    <use xlink:href="#rim"/>
    <path pointer-events="none" fill="none" stroke="white" stroke-width="1.5" d="M0,-3.0v7 M-2.5,-0.5L0,-3.0L2.5,-0.5"/>
  </g>
  <g id="arrowLeft" transform="rotate(270) translate(-36 17)">
    <use xlink:href="#rim"/>
    <path pointer-events="none" fill="none" stroke="white" stroke-width="1.5" d="M0,-3.0v7 M-2.5,-0.5L0,-3.0L2.5,-0.5"/>
  </g>
  <g id="resetDef">
    <use xlink:href="#rim2" fill="#404040"><set attributeName="fill" to="#808080" begin="reset.mouseover" end="reset.mouseout"/></use>
  </g>
</defs>
<script type="application/ecmascript">
var viewWidth = 1514;
var viewHeight = 313;
var sectionId = 'dynsection-0';
</script>
<script type="application/ecmascript" xlink:href="svg.min.js"/>
<svg id="graph" class="graph">
<g id="viewport">
<title>AQNWB::NWB::RegisteredType</title>
<!-- Node1 -->
<g id="Node000001" class="node">
<title>Node1</title>
<g id="a_Node000001"><a xlink:title="Base class for types defined in the NWB schema.">
<polygon fill="#999999" stroke="#666666" points="342.5,-151.88 184,-151.88 184,-132.62 342.5,-132.62 342.5,-151.88"/>
<text xml:space="preserve" text-anchor="middle" x="263.25" y="-138.38" font-family="Helvetica,sans-Serif" font-size="10.00">AQNWB::NWB::RegisteredType</text>
</a>
</g>
</g>
<!-- Node3 -->
<g id="Node000003" class="node">
<title>Node3</title>
<g id="a_Node000003"><a xlink:href="class_a_q_n_w_b_1_1_n_w_b_1_1_container.html" target="_top" xlink:title="Abstract data type for a group storing collections of data and metadata.">
<polygon fill="white" stroke="#666666" points="510.75,-194.88 378.5,-194.88 378.5,-175.62 510.75,-175.62 510.75,-194.88"/>
<text xml:space="preserve" text-anchor="middle" x="444.62" y="-181.38" font-family="Helvetica,sans-Serif" font-size="10.00">AQNWB::NWB::Container</text>
</a>
</g>
</g>
<!-- Node1&#45;&gt;Node3 -->
<g id="edge2_Node000001_Node000003" class="edge">
<title>Node1&#45;&gt;Node3</title>
<g id="a_edge2_Node000001_Node000003"><a xlink:title=" ">
<path fill="none" stroke="#63b8ff" d="M317.46,-155C344.31,-161.44 376.42,-169.14 401.52,-175.16"/>
<polygon fill="#63b8ff" stroke="#63b8ff" points="318.32,-151.61 307.78,-152.68 316.69,-158.42 318.32,-151.61"/>
</a>
</g>
</g>
<!-- Node16 -->
<g id="Node000016" class="node">
<title>Node16</title>
<g id="a_Node000016"><a xlink:href="class_a_q_n_w_b_1_1_n_w_b_1_1_data.html" target="_top" xlink:title="An abstract data type for a dataset.">
<polygon fill="white" stroke="#666666" points="500.25,-108.88 389,-108.88 389,-89.62 500.25,-89.62 500.25,-108.88"/>
<text xml:space="preserve" text-anchor="middle" x="444.62" y="-95.38" font-family="Helvetica,sans-Serif" font-size="10.00">AQNWB::NWB::Data</text>
</a>
</g>
</g>
<!-- Node1&#45;&gt;Node16 -->
<g id="edge15_Node000001_Node000016" class="edge">
<title>Node1&#45;&gt;Node16</title>
<g id="a_edge15_Node000001_Node000016"><a xlink:title=" ">
<path fill="none" stroke="#63b8ff" d="M317.46,-129.5C344.31,-123.06 376.42,-115.36 401.52,-109.34"/>
<polygon fill="#63b8ff" stroke="#63b8ff" points="316.69,-126.08 307.78,-131.82 318.32,-132.89 316.69,-126.08"/>
</a>
</g>
</g>
<!-- Node2 -->
<g id="Node000002" class="node">
<title>Node2</title>
<g id="a_Node000002"><a xlink:title=" ">
<polygon fill="white" stroke="#666666" points="148,-157.5 0,-157.5 0,-127 148,-127 148,-157.5"/>
<text xml:space="preserve" text-anchor="start" x="8" y="-144" font-family="Helvetica,sans-Serif" font-size="10.00">std::enable_shared</text>
<text xml:space="preserve" text-anchor="middle" x="74" y="-132.75" font-family="Helvetica,sans-Serif" font-size="10.00">_from_this&lt; RegisteredType &gt;</text>
</a>
</g>
</g>
<!-- Node2&#45;&gt;Node1 -->
<g id="edge1_Node000001_Node000002" class="edge">
<title>Node2&#45;&gt;Node1</title>
<g id="a_edge1_Node000001_Node000002"><a xlink:title=" ">
<path fill="none" stroke="#63b8ff" d="M159.98,-142.25C167.89,-142.25 175.89,-142.25 183.74,-142.25"/>
<polygon fill="#63b8ff" stroke="#63b8ff" points="159.98,-138.75 149.98,-142.25 159.98,-145.75 159.98,-138.75"/>
</a>
</g>
</g>
<!-- Node4 -->
<g id="Node000004" class="node">
<title>Node4</title>
<g id="a_Node000004"><a xlink:href="class_a_q_n_w_b_1_1_n_w_b_1_1_dynamic_table.html" target="_top" xlink:title="Represents a group containing multiple datasets that are aligned on the first dimension.">
<polygon fill="white" stroke="#666666" points="707.5,-268.88 555,-268.88 555,-249.62 707.5,-249.62 707.5,-268.88"/>
<text xml:space="preserve" text-anchor="middle" x="631.25" y="-255.38" font-family="Helvetica,sans-Serif" font-size="10.00">AQNWB::NWB::DynamicTable</text>
</a>
</g>
</g>
<!-- Node3&#45;&gt;Node4 -->
<g id="edge3_Node000003_Node000004" class="edge">
<title>Node3&#45;&gt;Node4</title>
<g id="a_edge3_Node000003_Node000004"><a xlink:title=" ">
<path fill="none" stroke="#63b8ff" d="M481.15,-199.49C517.52,-214.07 573.13,-236.35 605.16,-249.19"/>
<polygon fill="#63b8ff" stroke="#63b8ff" points="482.51,-196.26 471.93,-195.79 479.91,-202.76 482.51,-196.26"/>
</a>
</g>
</g>
<!-- Node6 -->
<g id="Node000006" class="node">
<title>Node6</title>
<g id="a_Node000006"><a xlink:href="class_a_q_n_w_b_1_1_n_w_b_1_1_n_w_b_container.html" target="_top" xlink:title="An abstract data type for a generic container storing collections of data and metadata....">
<polygon fill="white" stroke="#666666" points="709.38,-194.88 553.12,-194.88 553.12,-175.62 709.38,-175.62 709.38,-194.88"/>
<text xml:space="preserve" text-anchor="middle" x="631.25" y="-181.38" font-family="Helvetica,sans-Serif" font-size="10.00">AQNWB::NWB::NWBContainer</text>
</a>
</g>
</g>
<!-- Node3&#45;&gt;Node6 -->
<g id="edge5_Node000003_Node000006" class="edge">
<title>Node3&#45;&gt;Node6</title>
<g id="a_edge5_Node000003_Node000006"><a xlink:title=" ">
<path fill="none" stroke="#63b8ff" d="M522.45,-185.25C532.5,-185.25 542.8,-185.25 552.86,-185.25"/>
<polygon fill="#63b8ff" stroke="#63b8ff" points="522.75,-181.75 512.75,-185.25 522.75,-188.75 522.75,-181.75"/>
</a>
</g>
</g>
<!-- Node5 -->
<g id="Node000005" class="node">
<title>Node5</title>
<g id="a_Node000005"><a xlink:href="class_a_q_n_w_b_1_1_n_w_b_1_1_electrodes_table.html" target="_top" xlink:title="Represents a table containing electrode metadata.">
<polygon fill="white" stroke="#666666" points="918.5,-304.88 758.5,-304.88 758.5,-285.62 918.5,-285.62 918.5,-304.88"/>
<text xml:space="preserve" text-anchor="middle" x="838.5" y="-291.38" font-family="Helvetica,sans-Serif" font-size="10.00">AQNWB::NWB::ElectrodesTable</text>
</a>
</g>
</g>
<!-- Node4&#45;&gt;Node5 -->
<g id="edge4_Node000004_Node000005" class="edge">
<title>Node4&#45;&gt;Node5</title>
<g id="a_edge4_Node000004_Node000005"><a xlink:title=" ">
<path fill="none" stroke="#63b8ff" d="M701.09,-271.32C726.67,-275.81 755.39,-280.85 779.86,-285.14"/>
<polygon fill="#63b8ff" stroke="#63b8ff" points="701.91,-267.92 691.46,-269.64 700.71,-274.81 701.91,-267.92"/>
</a>
</g>
</g>
<!-- Node7 -->
<g id="Node000007" class="node">
<title>Node7</title>
<g id="a_Node000007"><a xlink:href="class_a_q_n_w_b_1_1_n_w_b_1_1_device.html" target="_top" xlink:title="Metadata about a data acquisition device, e.g., recording system, electrode, microscope.">
<polygon fill="white" stroke="#666666" points="899,-267.88 778,-267.88 778,-248.62 899,-248.62 899,-267.88"/>
<text xml:space="preserve" text-anchor="middle" x="838.5" y="-254.38" font-family="Helvetica,sans-Serif" font-size="10.00">AQNWB::NWB::Device</text>
</a>
</g>
</g>
<!-- Node6&#45;&gt;Node7 -->
<g id="edge6_Node000006_Node000007" class="edge">
<title>Node6&#45;&gt;Node7</title>
<g id="a_edge6_Node000006_Node000007"><a xlink:title=" ">
<path fill="none" stroke="#63b8ff" d="M660.83,-200.62C684.59,-212.85 719.59,-229.62 751.75,-240.25 760.99,-243.3 770.98,-245.96 780.75,-248.22"/>
<polygon fill="#63b8ff" stroke="#63b8ff" points="662.59,-197.59 652.1,-196.06 659.35,-203.79 662.59,-197.59"/>
</a>
</g>
</g>
<!-- Node8 -->
<g id="Node000008" class="node">
<title>Node8</title>
<g id="a_Node000008"><a xlink:href="class_a_q_n_w_b_1_1_n_w_b_1_1_electrode_group.html" target="_top" xlink:title="The ElectrodeGroup class represents a physical grouping of electrodes, e.g. a shank of an array.">
<polygon fill="white" stroke="#666666" points="917.38,-230.88 759.62,-230.88 759.62,-211.62 917.38,-211.62 917.38,-230.88"/>
<text xml:space="preserve" text-anchor="middle" x="838.5" y="-217.38" font-family="Helvetica,sans-Serif" font-size="10.00">AQNWB::NWB::ElectrodeGroup</text>
</a>
</g>
</g>
<!-- Node6&#45;&gt;Node8 -->
<g id="edge7_Node000006_Node000008" class="edge">
<title>Node6&#45;&gt;Node8</title>
<g id="a_edge7_Node000006_Node000008"><a xlink:title=" ">
<path fill="none" stroke="#63b8ff" d="M701.09,-197.32C726.67,-201.81 755.39,-206.85 779.86,-211.14"/>
<polygon fill="#63b8ff" stroke="#63b8ff" points="701.91,-193.92 691.46,-195.64 700.71,-200.81 701.91,-193.92"/>
</a>
</g>
</g>
<!-- Node9 -->
<g id="Node000009" class="node">
<title>Node9</title>
<g id="a_Node000009"><a xlink:href="class_a_q_n_w_b_1_1_n_w_b_1_1_n_w_b_data_interface.html" target="_top" xlink:title="An abstract data type for a generic container storing collections of data, as opposed to metadata.">
<polygon fill="white" stroke="#666666" points="925.25,-193.88 751.75,-193.88 751.75,-174.62 925.25,-174.62 925.25,-193.88"/>
<text xml:space="preserve" text-anchor="middle" x="838.5" y="-180.38" font-family="Helvetica,sans-Serif" font-size="10.00">AQNWB::NWB::NWBDataInterface</text>
</a>
</g>
</g>
<!-- Node6&#45;&gt;Node9 -->
<g id="edge8_Node000006_Node000009" class="edge">
<title>Node6&#45;&gt;Node9</title>
<g id="a_edge8_Node000006_Node000009"><a xlink:title=" ">
<path fill="none" stroke="#63b8ff" d="M721.14,-184.82C731.23,-184.77 741.5,-184.72 751.55,-184.67"/>
<polygon fill="#63b8ff" stroke="#63b8ff" points="721.34,-181.32 711.36,-184.86 721.38,-188.32 721.34,-181.32"/>
</a>
</g>
</g>
<!-- Node14 -->
<g id="Node000014" class="node">
<title>Node14</title>
<g id="a_Node000014"><a xlink:href="class_a_q_n_w_b_1_1_n_w_b_1_1_n_w_b_file.html" target="_top" xlink:title="The NWBFile class provides an interface for setting up and managing the NWB file.">
<polygon fill="white" stroke="#666666" points="903.5,-156.88 773.5,-156.88 773.5,-137.62 903.5,-137.62 903.5,-156.88"/>
<text xml:space="preserve" text-anchor="middle" x="838.5" y="-143.38" font-family="Helvetica,sans-Serif" font-size="10.00">AQNWB::NWB::NWBFile</text>
</a>
</g>
</g>
<!-- Node6&#45;&gt;Node14 -->
<g id="edge13_Node000006_Node000014" class="edge">
<title>Node6&#45;&gt;Node14</title>
<g id="a_edge13_Node000006_Node000014"><a xlink:title=" ">
<path fill="none" stroke="#63b8ff" d="M697.83,-173.11C725.34,-168.02 756.95,-162.16 783.14,-157.31"/>
<polygon fill="#63b8ff" stroke="#63b8ff" points="697.4,-169.63 688.2,-174.89 698.67,-176.51 697.4,-169.63"/>
</a>
</g>
</g>
<!-- Node15 -->
<g id="Node000015" class="node">
<title>Node15</title>
<g id="a_Node000015"><a xlink:href="class_a_q_n_w_b_1_1_n_w_b_1_1_processing_module.html" target="_top" xlink:title="A collection of processed data.">
<polygon fill="white" stroke="#666666" points="923.75,-119.88 753.25,-119.88 753.25,-100.62 923.75,-100.62 923.75,-119.88"/>
<text xml:space="preserve" text-anchor="middle" x="838.5" y="-106.38" font-family="Helvetica,sans-Serif" font-size="10.00">AQNWB::NWB::ProcessingModule</text>
</a>
</g>
</g>
<!-- Node6&#45;&gt;Node15 -->
<g id="edge14_Node000006_Node000015" class="edge">
<title>Node6&#45;&gt;Node15</title>
<g id="a_edge14_Node000006_Node000015"><a xlink:title=" ">
<path fill="none" stroke="#63b8ff" d="M705.84,-171.16C709.26,-169.69 712.59,-168.05 715.75,-166.25 735.96,-154.73 731.44,-139.6 751.75,-128.25 757.46,-125.06 763.67,-122.43 770.05,-120.27"/>
<polygon fill="#63b8ff" stroke="#63b8ff" points="704.85,-167.79 696.74,-174.61 707.34,-174.34 704.85,-167.79"/>
</a>
</g>
</g>
<!-- Node10 -->
<g id="Node000010" class="node">
<title>Node10</title>
<g id="a_Node000010"><a xlink:href="class_a_q_n_w_b_1_1_n_w_b_1_1_time_series.html" target="_top" xlink:title="General purpose time series.">
<polygon fill="white" stroke="#666666" points="1101,-193.88 961.25,-193.88 961.25,-174.62 1101,-174.62 1101,-193.88"/>
<text xml:space="preserve" text-anchor="middle" x="1031.12" y="-180.38" font-family="Helvetica,sans-Serif" font-size="10.00">AQNWB::NWB::TimeSeries</text>
</a>
</g>
</g>
<!-- Node9&#45;&gt;Node10 -->
<g id="edge9_Node000009_Node000010" class="edge">
<title>Node9&#45;&gt;Node10</title>
<g id="a_edge9_Node000009_Node000010"><a xlink:title=" ">
<path fill="none" stroke="#63b8ff" d="M937.02,-184.25C945.1,-184.25 953.16,-184.25 960.96,-184.25"/>
<polygon fill="#63b8ff" stroke="#63b8ff" points="937.12,-180.75 927.12,-184.25 937.12,-187.75 937.12,-180.75"/>
</a>
</g>
</g>
<!-- Node11 -->
<g id="Node000011" class="node">
<title>Node11</title>
<g id="a_Node000011"><a xlink:href="class_a_q_n_w_b_1_1_n_w_b_1_1_annotation_series.html" target="_top" xlink:title="TimeSeries storing text&#45;based records about the experiment.">
<polygon fill="white" stroke="#666666" points="1301.5,-212.88 1137,-212.88 1137,-193.62 1301.5,-193.62 1301.5,-212.88"/>
<text xml:space="preserve" text-anchor="middle" x="1219.25" y="-199.38" font-family="Helvetica,sans-Serif" font-size="10.00">AQNWB::NWB::AnnotationSeries</text>
</a>
</g>
</g>
<!-- Node10&#45;&gt;Node11 -->
<g id="edge10_Node000010_Node000011" class="edge">
<title>Node10&#45;&gt;Node11</title>
<g id="a_edge10_Node000010_Node000011"><a xlink:title=" ">
<path fill="none" stroke="#63b8ff" d="M1112.86,-192.49C1120.74,-193.3 1128.74,-194.11 1136.63,-194.92"/>
<polygon fill="#63b8ff" stroke="#63b8ff" points="1113.24,-189.01 1102.94,-191.48 1112.53,-195.98 1113.24,-189.01"/>
</a>
</g>
</g>
<!-- Node12 -->
<g id="Node000012" class="node">
<title>Node12</title>
<g id="a_Node000012"><a xlink:href="class_a_q_n_w_b_1_1_n_w_b_1_1_electrical_series.html" target="_top" xlink:title="General purpose time series.">
<polygon fill="white" stroke="#666666" points="1298.5,-175.88 1140,-175.88 1140,-156.62 1298.5,-156.62 1298.5,-175.88"/>
<text xml:space="preserve" text-anchor="middle" x="1219.25" y="-162.38" font-family="Helvetica,sans-Serif" font-size="10.00">AQNWB::NWB::ElectricalSeries</text>
</a>
</g>
</g>
<!-- Node10&#45;&gt;Node12 -->
<g id="edge11_Node000010_Node000012" class="edge">
<title>Node10&#45;&gt;Node12</title>
<g id="a_edge11_Node000010_Node000012"><a xlink:title=" ">
<path fill="none" stroke="#63b8ff" d="M1112.71,-176.46C1121.69,-175.59 1130.84,-174.7 1139.8,-173.84"/>
<polygon fill="#63b8ff" stroke="#63b8ff" points="1112.55,-172.96 1102.94,-177.4 1113.23,-179.92 1112.55,-172.96"/>
</a>
</g>
</g>
<!-- Node13 -->
<g id="Node000013" class="node">
<title>Node13</title>
<g id="a_Node000013"><a xlink:href="class_a_q_n_w_b_1_1_n_w_b_1_1_spike_event_series.html" target="_top" xlink:title="Stores snapshots/snippets of recorded spike events (i.e., threshold crossings).">
<polygon fill="white" stroke="#666666" points="1505.75,-175.88 1337.5,-175.88 1337.5,-156.62 1505.75,-156.62 1505.75,-175.88"/>
<text xml:space="preserve" text-anchor="middle" x="1421.62" y="-162.38" font-family="Helvetica,sans-Serif" font-size="10.00">AQNWB::NWB::SpikeEventSeries</text>
</a>
</g>
</g>
<!-- Node12&#45;&gt;Node13 -->
<g id="edge12_Node000012_Node000013" class="edge">
<title>Node12&#45;&gt;Node13</title>
<g id="a_edge12_Node000012_Node000013"><a xlink:title=" ">
<path fill="none" stroke="#63b8ff" d="M1310.2,-166.25C1319.21,-166.25 1328.34,-166.25 1337.28,-166.25"/>
<polygon fill="#63b8ff" stroke="#63b8ff" points="1310.38,-162.75 1300.38,-166.25 1310.38,-169.75 1310.38,-162.75"/>
</a>
</g>
</g>
<!-- Node17 -->
<g id="Node000017" class="node">
<title>Node17</title>
<g id="a_Node000017"><a xlink:href="class_a_q_n_w_b_1_1_n_w_b_1_1_data_typed.html" target="_top" xlink:title="A typed data container for a dataset.">
<polygon fill="white" stroke="#666666" points="700,-157.5 562.5,-157.5 562.5,-127 700,-127 700,-157.5"/>
<text xml:space="preserve" text-anchor="start" x="570.5" y="-144" font-family="Helvetica,sans-Serif" font-size="10.00">AQNWB::NWB::DataTyped</text>
<text xml:space="preserve" text-anchor="middle" x="631.25" y="-132.75" font-family="Helvetica,sans-Serif" font-size="10.00">&lt; DTYPE &gt;</text>
</a>
</g>
</g>
<!-- Node16&#45;&gt;Node17 -->
<g id="edge16_Node000016_Node000017" class="edge">
<title>Node16&#45;&gt;Node17</title>
<g id="a_edge16_Node000016_Node000017"><a xlink:title=" ">
<path fill="none" stroke="#63b8ff" d="M500.1,-111.94C519.71,-116.51 542.08,-121.71 562.67,-126.51"/>
<polygon fill="#63b8ff" stroke="#63b8ff" points="500.92,-108.53 490.39,-109.67 499.33,-115.35 500.92,-108.53"/>
</a>
</g>
</g>
<!-- Node18 -->
<g id="Node000018" class="node">
<title>Node18</title>
<g id="a_Node000018"><a xlink:href="class_a_q_n_w_b_1_1_n_w_b_1_1_element_identifiers.html" target="_top" xlink:title="A list of unique identifiers for values within a dataset, e.g. rows of a DynamicTable.">
<polygon fill="white" stroke="#666666" points="715.75,-108.88 546.75,-108.88 546.75,-89.62 715.75,-89.62 715.75,-108.88"/>
<text xml:space="preserve" text-anchor="middle" x="631.25" y="-95.38" font-family="Helvetica,sans-Serif" font-size="10.00">AQNWB::NWB::ElementIdentifiers</text>
</a>
</g>
</g>
<!-- Node16&#45;&gt;Node18 -->
<g id="edge17_Node000016_Node000018" class="edge">
<title>Node16&#45;&gt;Node18</title>
<g id="a_edge17_Node000016_Node000018"><a xlink:title=" ">
<path fill="none" stroke="#63b8ff" d="M511.96,-99.25C523.17,-99.25 534.93,-99.25 546.5,-99.25"/>
<polygon fill="#63b8ff" stroke="#63b8ff" points="512.03,-95.75 502.03,-99.25 512.03,-102.75 512.03,-95.75"/>
</a>
</g>
</g>
<!-- Node19 -->
<g id="Node000019" class="node">
<title>Node19</title>
<g id="a_Node000019"><a xlink:href="class_a_q_n_w_b_1_1_n_w_b_1_1_n_w_b_data.html" target="_top" xlink:title="An abstract data type for a dataset.">
<polygon fill="white" stroke="#666666" points="698.88,-71.88 563.62,-71.88 563.62,-52.62 698.88,-52.62 698.88,-71.88"/>
<text xml:space="preserve" text-anchor="middle" x="631.25" y="-58.38" font-family="Helvetica,sans-Serif" font-size="10.00">AQNWB::NWB::NWBData</text>
</a>
</g>
</g>
<!-- Node16&#45;&gt;Node19 -->
<g id="edge18_Node000016_Node000019" class="edge">
<title>Node16&#45;&gt;Node19</title>
<g id="a_edge18_Node000016_Node000019"><a xlink:title=" ">
<path fill="none" stroke="#63b8ff" d="M507.05,-86.94C530.69,-82.2 557.38,-76.85 579.86,-72.35"/>
<polygon fill="#63b8ff" stroke="#63b8ff" points="506.68,-83.45 497.56,-88.84 508.05,-90.31 506.68,-83.45"/>
</a>
</g>
</g>
<!-- Node21 -->
<g id="Node000021" class="node">
<title>Node21</title>
<g id="a_Node000021"><a xlink:href="class_a_q_n_w_b_1_1_n_w_b_1_1_vector_data.html" target="_top" xlink:title="An n&#45;dimensional dataset representing a column of a DynamicTable.">
<polygon fill="white" stroke="#666666" points="701.12,-30.88 561.38,-30.88 561.38,-11.62 701.12,-11.62 701.12,-30.88"/>
<text xml:space="preserve" text-anchor="middle" x="631.25" y="-17.38" font-family="Helvetica,sans-Serif" font-size="10.00">AQNWB::NWB::VectorData</text>
</a>
</g>
</g>
<!-- Node16&#45;&gt;Node21 -->
<g id="edge20_Node000016_Node000021" class="edge">
<title>Node16&#45;&gt;Node21</title>
<g id="a_edge20_Node000016_Node000021"><a xlink:title=" ">
<path fill="none" stroke="#63b8ff" d="M470.34,-83.28C490.3,-70.95 519.47,-54.2 546.75,-43.25 558.44,-38.56 571.44,-34.58 583.65,-31.35"/>
<polygon fill="#63b8ff" stroke="#63b8ff" points="468.69,-80.19 462.08,-88.47 472.41,-86.11 468.69,-80.19"/>
</a>
</g>
</g>
<!-- Node20 -->
<g id="Node000020" class="node">
<title>Node20</title>
<g id="a_Node000020"><a xlink:href="class_a_q_n_w_b_1_1_n_w_b_1_1_n_w_b_data_typed.html" target="_top" xlink:title="A typed data container for a dataset.">
<polygon fill="white" stroke="#666666" points="919.25,-79.5 757.75,-79.5 757.75,-49 919.25,-49 919.25,-79.5"/>
<text xml:space="preserve" text-anchor="start" x="765.75" y="-66" font-family="Helvetica,sans-Serif" font-size="10.00">AQNWB::NWB::NWBDataTyped</text>
<text xml:space="preserve" text-anchor="middle" x="838.5" y="-54.75" font-family="Helvetica,sans-Serif" font-size="10.00">&lt; DTYPE &gt;</text>
</a>
</g>
</g>
<!-- Node19&#45;&gt;Node20 -->
<g id="edge19_Node000019_Node000020" class="edge">
<title>Node19&#45;&gt;Node20</title>
<g id="a_edge19_Node000019_Node000020"><a xlink:title=" ">
<path fill="none" stroke="#63b8ff" d="M710.25,-63.01C725.69,-63.16 741.93,-63.32 757.43,-63.47"/>
<polygon fill="#63b8ff" stroke="#63b8ff" points="710.72,-59.51 700.69,-62.92 710.65,-66.51 710.72,-59.51"/>
</a>
</g>
</g>
<!-- Node22 -->
<g id="Node000022" class="node">
<title>Node22</title>
<g id="a_Node000022"><a xlink:href="class_a_q_n_w_b_1_1_n_w_b_1_1_vector_data_typed.html" target="_top" xlink:title="A typed n&#45;dimensional dataset representing a column of a DynamicTable.">
<polygon fill="white" stroke="#666666" points="921.5,-30.5 755.5,-30.5 755.5,0 921.5,0 921.5,-30.5"/>
<text xml:space="preserve" text-anchor="start" x="763.5" y="-17" font-family="Helvetica,sans-Serif" font-size="10.00">AQNWB::NWB::VectorDataTyped</text>
<text xml:space="preserve" text-anchor="middle" x="838.5" y="-5.75" font-family="Helvetica,sans-Serif" font-size="10.00">&lt; DTYPE &gt;</text>
</a>
</g>
</g>
<!-- Node21&#45;&gt;Node22 -->
<g id="edge21_Node000021_Node000022" class="edge">
<title>Node21&#45;&gt;Node22</title>
<g id="a_edge21_Node000021_Node000022"><a xlink:title=" ">
<path fill="none" stroke="#63b8ff" d="M712.93,-18.89C726.79,-18.49 741.2,-18.07 755.1,-17.66"/>
<polygon fill="#63b8ff" stroke="#63b8ff" points="712.86,-15.39 702.97,-19.18 713.06,-22.39 712.86,-15.39"/>
</a>
</g>
</g>
</g>
</svg>

<g id="navigator" transform="translate(0 0)" fill="#404254">
  <rect fill="#f2f5e9" fill-opacity="0.5" stroke="#606060" stroke-width=".5" x="0" y="0" width="60" height="60"/>
  <use id="zoomplus" xlink:href="#zoomPlus" x="17" y="9" onmousedown="handleZoom(evt,'in')"/>
  <use id="zoomminus" xlink:href="#zoomMin" x="42" y="9" onmousedown="handleZoom(evt,'out')"/>
  <use id="reset" xlink:href="#resetDef" x="30" y="36" onmousedown="handleReset()"/>
   <use id="arrowup" xlink:href="#arrowUp" x="0" y="0" onmousedown="handlePan(0,-1)"/>
  <use id="arrowright" xlink:href="#arrowRight" x="0" y="0" onmousedown="handlePan(1,0)"/>
  <use id="arrowdown" xlink:href="#arrowDown" x="0" y="0" onmousedown="handlePan(0,1)"/>
  <use id="arrowleft" xlink:href="#arrowLeft" x="0" y="0" onmousedown="handlePan(-1,0)"/>
</g>
<svg viewBox="0 0 15 15" width="100%" height="30px" preserveAspectRatio="xMaxYMin meet">
 <g id="arrow_out" transform="scale(0.3 0.3)">
  <a xlink:href="class_a_q_n_w_b_1_1_n_w_b_1_1_registered_type__inherit__graph_org.svg" target="_base">
   <rect id="button" ry="5" rx="5" y="6" x="6" height="38" width="38"
        fill="#f2f5e9" fill-opacity="0.5" stroke="#606060" stroke-width="1.0"/>
   <path id="arrow"
     d="M 11.500037,31.436501 C 11.940474,20.09759 22.043105,11.32322 32.158766,21.979434 L 37.068811,17.246167 C 37.068811,17.246167 37.088388,32 37.088388,32 L 22.160133,31.978069 C 22.160133,31.978069 26.997745,27.140456 26.997745,27.140456 C 18.528582,18.264221 13.291696,25.230495 11.500037,31.436501 z"
     style="fill:#404040;"/>
  </a>
 </g>
</svg>

<style type='text/css'>
<![CDATA[
[data-mouse-over-selected='false'] { opacity: 0.7; }
[data-mouse-over-selected='true']  { opacity: 1.0; }
]]>
</style>
<script type="application/ecmascript"><![CDATA[
document.addEventListener('DOMContentLoaded', (event) => {
  highlightEdges();
  highlightAdjacentNodes();
});
]]></script>
</svg>
