<?xml version="1.0" encoding="UTF-8" standalone="no"?>
<!DOCTYPE svg PUBLIC "-//W3C//DTD SVG 1.1//EN"
 "http://www.w3.org/Graphics/SVG/1.1/DTD/svg11.dtd">
<!-- Generated by graphviz version 14.1.2 (20260124.0452)
 -->
<!-- Title: AQNWB::NWB::TimeSeries Pages: 1 -->
<svg width="354pt" height="425pt"
 viewBox="0.00 0.00 354.00 425.00" xmlns="http://www.w3.org/2000/svg" xmlns:xlink="http://www.w3.org/1999/xlink">

<svg id="main" version="1.1" xmlns="http://www.w3.org/2000/svg" xmlns:xlink="http://www.w3.org/1999/xlink" xml:space="preserve">

<style type="text/css"><![CDATA[
.node, .edge {opacity: 0.7;}
.node.selected, .edge.selected {opacity: 1;}
.edge:hover path { stroke: red; }
.edge:hover polygon { stroke: red; fill: red; }
]]></style>
<script type="application/ecmascript" xlink:href="svg.min.js"/>
<svg id="graph" class="graph">
<g id="graph0" class="graph" transform="scale(1 1) rotate(0) translate(4 421.25)">
<title>AQNWB::NWB::TimeSeries</title>
<!-- Node1 -->
<g id="Node000001" class="node">
<title>Node1</title>
<g id="a_Node000001"><a xlink:title="General purpose time series.">
<polygon fill="#999999" stroke="#666666" points="242.12,-129.75 102.38,-129.75 102.38,-110.5 242.12,-110.5 242.12,-129.75"/>
<text xml:space="preserve" text-anchor="middle" x="172.25" y="-116.25" font-family="Helvetica,sans-Serif" font-size="10.00">AQNWB::NWB::TimeSeries</text>
</a>
</g>
</g>
<!-- Node7 -->
<g id="Node000007" class="node">
<title>Node7</title>
<g id="a_Node000007"><a xlink:href="class_a_q_n_w_b_1_1_n_w_b_1_1_annotation_series.html" target="_top" xlink:title="TimeSeries storing text&#45;based records about the experiment.">
<polygon fill="white" stroke="#666666" points="164.5,-74.5 0,-74.5 0,-55.25 164.5,-55.25 164.5,-74.5"/>
<text xml:space="preserve" text-anchor="middle" x="82.25" y="-61" font-family="Helvetica,sans-Serif" font-size="10.00">AQNWB::NWB::AnnotationSeries</text>
</a>
</g>
</g>
<!-- Node1&#45;&gt;Node7 -->
<g id="edge6_Node000001_Node000007" class="edge">
<title>Node1&#45;&gt;Node7</title>
<g id="a_edge6_Node000001_Node000007"><a xlink:title=" ">
<path fill="none" stroke="#63b8ff" d="M147.23,-104.32C131.31,-94.9 111.19,-83 97.59,-74.95"/>
<polygon fill="#63b8ff" stroke="#63b8ff" points="145.29,-107.24 155.68,-109.32 148.86,-101.22 145.29,-107.24"/>
</a>
</g>
</g>
<!-- Node8 -->
<g id="Node000008" class="node">
<title>Node8</title>
<g id="a_Node000008"><a xlink:href="class_a_q_n_w_b_1_1_n_w_b_1_1_electrical_series.html" target="_top" xlink:title="General purpose time series.">
<polygon fill="white" stroke="#666666" points="341.5,-74.5 183,-74.5 183,-55.25 341.5,-55.25 341.5,-74.5"/>
<text xml:space="preserve" text-anchor="middle" x="262.25" y="-61" font-family="Helvetica,sans-Serif" font-size="10.00">AQNWB::NWB::ElectricalSeries</text>
</a>
</g>
</g>
<!-- Node1&#45;&gt;Node8 -->
<g id="edge7_Node000001_Node000008" class="edge">
<title>Node1&#45;&gt;Node8</title>
<g id="a_edge7_Node000001_Node000008"><a xlink:title=" ">
<path fill="none" stroke="#63b8ff" d="M197.27,-104.32C213.19,-94.9 233.31,-83 246.91,-74.95"/>
<polygon fill="#63b8ff" stroke="#63b8ff" points="195.64,-101.22 188.82,-109.32 199.21,-107.24 195.64,-101.22"/>
</a>
</g>
</g>
<!-- Node2 -->
<g id="Node000002" class="node">
<title>Node2</title>
<g id="a_Node000002"><a xlink:href="class_a_q_n_w_b_1_1_n_w_b_1_1_n_w_b_data_interface.html" target="_top" xlink:title="An abstract data type for a generic container storing collections of data, as opposed to metadata.">
<polygon fill="white" stroke="#666666" points="259,-185 85.5,-185 85.5,-165.75 259,-165.75 259,-185"/>
<text xml:space="preserve" text-anchor="middle" x="172.25" y="-171.5" font-family="Helvetica,sans-Serif" font-size="10.00">AQNWB::NWB::NWBDataInterface</text>
</a>
</g>
</g>
<!-- Node2&#45;&gt;Node1 -->
<g id="edge1_Node000001_Node000002" class="edge">
<title>Node2&#45;&gt;Node1</title>
<g id="a_edge1_Node000001_Node000002"><a xlink:title=" ">
<path fill="none" stroke="#63b8ff" d="M172.25,-154.13C172.25,-145.84 172.25,-136.67 172.25,-130.11"/>
<polygon fill="#63b8ff" stroke="#63b8ff" points="168.75,-154.07 172.25,-164.07 175.75,-154.07 168.75,-154.07"/>
</a>
</g>
</g>
<!-- Node3 -->
<g id="Node000003" class="node">
<title>Node3</title>
<g id="a_Node000003"><a xlink:href="class_a_q_n_w_b_1_1_n_w_b_1_1_n_w_b_container.html" target="_top" xlink:title="An abstract data type for a generic container storing collections of data and metadata....">
<polygon fill="white" stroke="#666666" points="250.38,-240.25 94.12,-240.25 94.12,-221 250.38,-221 250.38,-240.25"/>
<text xml:space="preserve" text-anchor="middle" x="172.25" y="-226.75" font-family="Helvetica,sans-Serif" font-size="10.00">AQNWB::NWB::NWBContainer</text>
</a>
</g>
</g>
<!-- Node3&#45;&gt;Node2 -->
<g id="edge2_Node000002_Node000003" class="edge">
<title>Node3&#45;&gt;Node2</title>
<g id="a_edge2_Node000002_Node000003"><a xlink:title=" ">
<path fill="none" stroke="#63b8ff" d="M172.25,-209.38C172.25,-201.09 172.25,-191.92 172.25,-185.36"/>
<polygon fill="#63b8ff" stroke="#63b8ff" points="168.75,-209.32 172.25,-219.32 175.75,-209.32 168.75,-209.32"/>
</a>
</g>
</g>
<!-- Node4 -->
<g id="Node000004" class="node">
<title>Node4</title>
<g id="a_Node000004"><a xlink:href="class_a_q_n_w_b_1_1_n_w_b_1_1_container.html" target="_top" xlink:title="Abstract data type for a group storing collections of data and metadata.">
<polygon fill="white" stroke="#666666" points="238.38,-295.5 106.12,-295.5 106.12,-276.25 238.38,-276.25 238.38,-295.5"/>
<text xml:space="preserve" text-anchor="middle" x="172.25" y="-282" font-family="Helvetica,sans-Serif" font-size="10.00">AQNWB::NWB::Container</text>
</a>
</g>
</g>
<!-- Node4&#45;&gt;Node3 -->
<g id="edge3_Node000003_Node000004" class="edge">
<title>Node4&#45;&gt;Node3</title>
<g id="a_edge3_Node000003_Node000004"><a xlink:title=" ">
<path fill="none" stroke="#63b8ff" d="M172.25,-264.63C172.25,-256.34 172.25,-247.17 172.25,-240.61"/>
<polygon fill="#63b8ff" stroke="#63b8ff" points="168.75,-264.57 172.25,-274.57 175.75,-264.57 168.75,-264.57"/>
</a>
</g>
</g>
<!-- Node5 -->
<g id="Node000005" class="node">
<title>Node5</title>
<g id="a_Node000005"><a xlink:href="class_a_q_n_w_b_1_1_n_w_b_1_1_registered_type.html" target="_top" xlink:title="Base class for types defined in the NWB schema.">
<polygon fill="white" stroke="#666666" points="251.5,-350.75 93,-350.75 93,-331.5 251.5,-331.5 251.5,-350.75"/>
<text xml:space="preserve" text-anchor="middle" x="172.25" y="-337.25" font-family="Helvetica,sans-Serif" font-size="10.00">AQNWB::NWB::RegisteredType</text>
</a>
</g>
</g>
<!-- Node5&#45;&gt;Node4 -->
<g id="edge4_Node000004_Node000005" class="edge">
<title>Node5&#45;&gt;Node4</title>
<g id="a_edge4_Node000004_Node000005"><a xlink:title=" ">
<path fill="none" stroke="#63b8ff" d="M172.25,-319.88C172.25,-311.59 172.25,-302.42 172.25,-295.86"/>
<polygon fill="#63b8ff" stroke="#63b8ff" points="168.75,-319.82 172.25,-329.82 175.75,-319.82 168.75,-319.82"/>
</a>
</g>
</g>
<!-- Node6 -->
<g id="Node000006" class="node">
<title>Node6</title>
<g id="a_Node000006"><a xlink:title=" ">
<polygon fill="white" stroke="#666666" points="246.25,-417.25 98.25,-417.25 98.25,-386.75 246.25,-386.75 246.25,-417.25"/>
<text xml:space="preserve" text-anchor="start" x="106.25" y="-403.75" font-family="Helvetica,sans-Serif" font-size="10.00">std::enable_shared</text>
<text xml:space="preserve" text-anchor="middle" x="172.25" y="-392.5" font-family="Helvetica,sans-Serif" font-size="10.00">_from_this&lt; RegisteredType &gt;</text>
</a>
</g>
</g>
<!-- Node6&#45;&gt;Node5 -->
<g id="edge5_Node000005_Node000006" class="edge">
<title>Node6&#45;&gt;Node5</title>
<g id="a_edge5_Node000005_Node000006"><a xlink:title=" ">
<path fill="none" stroke="#63b8ff" d="M172.25,-374.98C172.25,-366.48 172.25,-357.59 172.25,-351.2"/>
<polygon fill="#63b8ff" stroke="#63b8ff" points="168.75,-374.93 172.25,-384.93 175.75,-374.93 168.75,-374.93"/>
</a>
</g>
</g>
<!-- Node9 -->
<g id="Node000009" class="node">
<title>Node9</title>
<g id="a_Node000009"><a xlink:href="class_a_q_n_w_b_1_1_n_w_b_1_1_spike_event_series.html" target="_top" xlink:title="Stores snapshots/snippets of recorded spike events (i.e., threshold crossings).">
<polygon fill="white" stroke="#666666" points="346.38,-19.25 178.12,-19.25 178.12,0 346.38,0 346.38,-19.25"/>
<text xml:space="preserve" text-anchor="middle" x="262.25" y="-5.75" font-family="Helvetica,sans-Serif" font-size="10.00">AQNWB::NWB::SpikeEventSeries</text>
</a>
</g>
</g>
<!-- Node8&#45;&gt;Node9 -->
<g id="edge8_Node000008_Node000009" class="edge">
<title>Node8&#45;&gt;Node9</title>
<g id="a_edge8_Node000008_Node000009"><a xlink:title=" ">
<path fill="none" stroke="#63b8ff" d="M262.25,-43.63C262.25,-35.34 262.25,-26.17 262.25,-19.61"/>
<polygon fill="#63b8ff" stroke="#63b8ff" points="258.75,-43.57 262.25,-53.57 265.75,-43.57 258.75,-43.57"/>
</a>
</g>
</g>
</g>
</svg>
</svg>

<style type='text/css'>
<![CDATA[
[data-mouse-over-selected='false'] { opacity: 0.7; }
[data-mouse-over-selected='true']  { opacity: 1.0; }
]]>
</style>
<script type="application/ecmascript"><![CDATA[
document.addEventListener('DOMContentLoaded', (event) => {
  highlightEdges();
  highlightAdjacentNodes();
});
]]></script>
</svg>
