<?xml version="1.0" encoding="UTF-8" standalone="no"?>
<!DOCTYPE svg PUBLIC "-//W3C//DTD SVG 1.1//EN"
 "http://www.w3.org/Graphics/SVG/1.1/DTD/svg11.dtd">
<!-- Generated by graphviz version 14.1.2 (20260124.0452)
 -->
<!-- Title: AQNWB::NWB::ProcessingModule::~ProcessingModule Pages: 1 -->
<svg width="940pt" height="57pt"
 viewBox="0.00 0.00 940.00 57.00" xmlns="http://www.w3.org/2000/svg" xmlns:xlink="http://www.w3.org/1999/xlink">
<g id="graph0" class="graph" transform="scale(1 1) rotate(0) translate(4 52.5)">
<title>AQNWB::NWB::ProcessingModule::~ProcessingModule</title>
<!-- Node1 -->
<g id="Node000001" class="node">
<title>Node1</title>
<g id="a_Node000001"><a xlink:title="Virtual destructor.">
<polygon fill="#999999" stroke="#666666" points="170.5,-30.5 0,-30.5 0,0 170.5,0 170.5,-30.5"/>
<text xml:space="preserve" text-anchor="start" x="8" y="-17" font-family="Helvetica,sans-Serif" font-size="10.00">AQNWB::NWB::ProcessingModule</text>
<text xml:space="preserve" text-anchor="middle" x="85.25" y="-5.75" font-family="Helvetica,sans-Serif" font-size="10.00">::~ProcessingModule</text>
</a>
</g>
</g>
<!-- Node2 -->
<g id="Node000002" class="node">
<title>Node2</title>
<g id="a_Node000002"><a xlink:href="class_a_q_n_w_b_1_1_n_w_b_1_1_processing_module.html#a90ce77fe68db62eea776fa85276e35ab" target="_top" xlink:title="Constructor.">
<polygon fill="white" stroke="#666666" points="377,-30.5 206.5,-30.5 206.5,0 377,0 377,-30.5"/>
<text xml:space="preserve" text-anchor="start" x="214.5" y="-17" font-family="Helvetica,sans-Serif" font-size="10.00">AQNWB::NWB::ProcessingModule</text>
<text xml:space="preserve" text-anchor="middle" x="291.75" y="-5.75" font-family="Helvetica,sans-Serif" font-size="10.00">::ProcessingModule</text>
</a>
</g>
</g>
<!-- Node1&#45;&gt;Node2 -->
<g id="edge1_Node000001_Node000002" class="edge">
<title>Node1&#45;&gt;Node2</title>
<g id="a_edge1_Node000001_Node000002"><a xlink:title=" ">
<path fill="none" stroke="#63b8ff" d="M170.9,-15.25C178.82,-15.25 186.88,-15.25 194.89,-15.25"/>
<polygon fill="#63b8ff" stroke="#63b8ff" points="194.65,-18.75 204.65,-15.25 194.65,-11.75 194.65,-18.75"/>
</a>
</g>
</g>
<!-- Node2&#45;&gt;Node2 -->
<g id="edge7_Node000002_Node000002" class="edge">
<title>Node2&#45;&gt;Node2</title>
<g id="a_edge7_Node000002_Node000002"><a xlink:title=" ">
<path fill="none" stroke="#63b8ff" d="M256.42,-30.99C249.21,-40.06 260.99,-48.5 291.75,-48.5 308.57,-48.5 319.72,-45.97 325.19,-42.2"/>
<polygon fill="#63b8ff" stroke="#63b8ff" points="328.61,-42.92 326.83,-32.48 321.71,-41.76 328.61,-42.92"/>
</a>
</g>
</g>
<!-- Node3 -->
<g id="Node000003" class="node">
<title>Node3</title>
<g id="a_Node000003"><a xlink:href="class_a_q_n_w_b_1_1_n_w_b_1_1_n_w_b_container.html#aadbde40c8c04d80d7b65a26e77f4cc20" target="_top" xlink:title="Constructor.">
<polygon fill="white" stroke="#666666" points="569.25,-30.5 413,-30.5 413,0 569.25,0 569.25,-30.5"/>
<text xml:space="preserve" text-anchor="start" x="421" y="-17" font-family="Helvetica,sans-Serif" font-size="10.00">AQNWB::NWB::NWBContainer</text>
<text xml:space="preserve" text-anchor="middle" x="491.12" y="-5.75" font-family="Helvetica,sans-Serif" font-size="10.00">::NWBContainer</text>
</a>
</g>
</g>
<!-- Node2&#45;&gt;Node3 -->
<g id="edge2_Node000002_Node000003" class="edge">
<title>Node2&#45;&gt;Node3</title>
<g id="a_edge2_Node000002_Node000003"><a xlink:title=" ">
<path fill="none" stroke="#63b8ff" d="M377.31,-15.25C385.19,-15.25 393.18,-15.25 401.1,-15.25"/>
<polygon fill="#63b8ff" stroke="#63b8ff" points="401.09,-18.75 411.09,-15.25 401.09,-11.75 401.09,-18.75"/>
</a>
</g>
</g>
<!-- Node3&#45;&gt;Node3 -->
<g id="edge6_Node000003_Node000003" class="edge">
<title>Node3&#45;&gt;Node3</title>
<g id="a_edge6_Node000003_Node000003"><a xlink:title=" ">
<path fill="none" stroke="#63b8ff" d="M459.18,-30.99C452.67,-40.06 463.31,-48.5 491.12,-48.5 506.33,-48.5 516.41,-45.97 521.35,-42.2"/>
<polygon fill="#63b8ff" stroke="#63b8ff" points="524.79,-42.9 522.84,-32.48 517.87,-41.84 524.79,-42.9"/>
</a>
</g>
</g>
<!-- Node4 -->
<g id="Node000004" class="node">
<title>Node4</title>
<g id="a_Node000004"><a xlink:href="class_a_q_n_w_b_1_1_n_w_b_1_1_container.html#a0ec16ae5d28267ea37464ffe2c2c34e5" target="_top" xlink:title="Constructor.">
<polygon fill="white" stroke="#666666" points="737.5,-30.5 605.25,-30.5 605.25,0 737.5,0 737.5,-30.5"/>
<text xml:space="preserve" text-anchor="start" x="613.25" y="-17" font-family="Helvetica,sans-Serif" font-size="10.00">AQNWB::NWB::Container</text>
<text xml:space="preserve" text-anchor="middle" x="671.38" y="-5.75" font-family="Helvetica,sans-Serif" font-size="10.00">::Container</text>
</a>
</g>
</g>
<!-- Node3&#45;&gt;Node4 -->
<g id="edge3_Node000003_Node000004" class="edge">
<title>Node3&#45;&gt;Node4</title>
<g id="a_edge3_Node000003_Node000004"><a xlink:title=" ">
<path fill="none" stroke="#63b8ff" d="M569.53,-15.25C577.42,-15.25 585.44,-15.25 593.32,-15.25"/>
<polygon fill="#63b8ff" stroke="#63b8ff" points="593.24,-18.75 603.24,-15.25 593.24,-11.75 593.24,-18.75"/>
</a>
</g>
</g>
<!-- Node4&#45;&gt;Node4 -->
<g id="edge4_Node000004_Node000004" class="edge">
<title>Node4&#45;&gt;Node4</title>
<g id="a_edge4_Node000004_Node000004"><a xlink:title=" ">
<path fill="none" stroke="#63b8ff" d="M639.43,-30.99C632.92,-40.06 643.56,-48.5 671.38,-48.5 686.58,-48.5 696.66,-45.97 701.6,-42.2"/>
<polygon fill="#63b8ff" stroke="#63b8ff" points="705.04,-42.9 703.09,-32.48 698.12,-41.84 705.04,-42.9"/>
</a>
</g>
</g>
<!-- Node5 -->
<g id="Node000005" class="node">
<title>Node5</title>
<g id="a_Node000005"><a xlink:href="class_a_q_n_w_b_1_1_n_w_b_1_1_registered_type.html#aa1e04074725b7331d725bbda8156bc2d" target="_top" xlink:title="Constructor.">
<polygon fill="white" stroke="#666666" points="932,-30.5 773.5,-30.5 773.5,0 932,0 932,-30.5"/>
<text xml:space="preserve" text-anchor="start" x="781.5" y="-17" font-family="Helvetica,sans-Serif" font-size="10.00">AQNWB::NWB::RegisteredType</text>
<text xml:space="preserve" text-anchor="middle" x="852.75" y="-5.75" font-family="Helvetica,sans-Serif" font-size="10.00">::RegisteredType</text>
</a>
</g>
</g>
<!-- Node4&#45;&gt;Node5 -->
<g id="edge5_Node000004_Node000005" class="edge">
<title>Node4&#45;&gt;Node5</title>
<g id="a_edge5_Node000004_Node000005"><a xlink:title=" ">
<path fill="none" stroke="#63b8ff" d="M737.89,-15.25C745.72,-15.25 753.81,-15.25 761.89,-15.25"/>
<polygon fill="#63b8ff" stroke="#63b8ff" points="761.79,-18.75 771.79,-15.25 761.79,-11.75 761.79,-18.75"/>
</a>
</g>
</g>
</g>
</svg>
