<?xml version="1.0" encoding="UTF-8" standalone="no"?>
<!DOCTYPE svg PUBLIC "-//W3C//DTD SVG 1.1//EN"
 "http://www.w3.org/Graphics/SVG/1.1/DTD/svg11.dtd">
<!-- Generated by graphviz version 13.1.2 (20250808.2320)
 -->
<!-- Title: AQNWB::NWB::TimeSeries::TimeSeries Pages: 1 -->
<svg width="511pt" height="57pt"
 viewBox="0.00 0.00 511.00 57.00" xmlns="http://www.w3.org/2000/svg" xmlns:xlink="http://www.w3.org/1999/xlink">
<g id="graph0" class="graph" transform="scale(1 1) rotate(0) translate(4 52.5)">
<title>AQNWB::NWB::TimeSeries::TimeSeries</title>
<!-- Node1 -->
<g id="Node000001" class="node">
<title>Node1</title>
<g id="a_Node000001"><a xlink:title="Constructor.">
<polygon fill="#999999" stroke="#666666" points="139.75,-30.5 0,-30.5 0,0 139.75,0 139.75,-30.5"/>
<text xml:space="preserve" text-anchor="start" x="8" y="-17" font-family="Helvetica,sans-Serif" font-size="10.00">AQNWB::NWB::TimeSeries</text>
<text xml:space="preserve" text-anchor="middle" x="69.88" y="-5.75" font-family="Helvetica,sans-Serif" font-size="10.00">::TimeSeries</text>
</a>
</g>
</g>
<!-- Node2 -->
<g id="Node000002" class="node">
<title>Node2</title>
<g id="a_Node000002"><a xlink:href="class_a_q_n_w_b_1_1_n_w_b_1_1_container.html#a0ec16ae5d28267ea37464ffe2c2c34e5" target="_top" xlink:title="Constructor.">
<polygon fill="white" stroke="#666666" points="308,-30.5 175.75,-30.5 175.75,0 308,0 308,-30.5"/>
<text xml:space="preserve" text-anchor="start" x="183.75" y="-17" font-family="Helvetica,sans-Serif" font-size="10.00">AQNWB::NWB::Container</text>
<text xml:space="preserve" text-anchor="middle" x="241.88" y="-5.75" font-family="Helvetica,sans-Serif" font-size="10.00">::Container</text>
</a>
</g>
</g>
<!-- Node1&#45;&gt;Node2 -->
<g id="edge1_Node000001_Node000002" class="edge">
<title>Node1&#45;&gt;Node2</title>
<g id="a_edge1_Node000001_Node000002"><a xlink:title=" ">
<path fill="none" stroke="#63b8ff" d="M140.02,-15.25C147.96,-15.25 156.08,-15.25 164.11,-15.25"/>
<polygon fill="#63b8ff" stroke="#63b8ff" points="163.85,-18.75 173.85,-15.25 163.85,-11.75 163.85,-18.75"/>
</a>
</g>
</g>
<!-- Node2&#45;&gt;Node2 -->
<g id="edge2_Node000002_Node000002" class="edge">
<title>Node2&#45;&gt;Node2</title>
<g id="a_edge2_Node000002_Node000002"><a xlink:title=" ">
<path fill="none" stroke="#63b8ff" d="M211.4,-30.99C205.18,-40.06 215.34,-48.5 241.88,-48.5 256.39,-48.5 266,-45.97 270.72,-42.2"/>
<polygon fill="#63b8ff" stroke="#63b8ff" points="274.16,-42.88 272.14,-32.48 267.23,-41.87 274.16,-42.88"/>
</a>
</g>
</g>
<!-- Node3 -->
<g id="Node000003" class="node">
<title>Node3</title>
<g id="a_Node000003"><a xlink:href="class_a_q_n_w_b_1_1_n_w_b_1_1_registered_type.html#aa1e04074725b7331d725bbda8156bc2d" target="_top" xlink:title="Constructor.">
<polygon fill="white" stroke="#666666" points="502.5,-30.5 344,-30.5 344,0 502.5,0 502.5,-30.5"/>
<text xml:space="preserve" text-anchor="start" x="352" y="-17" font-family="Helvetica,sans-Serif" font-size="10.00">AQNWB::NWB::RegisteredType</text>
<text xml:space="preserve" text-anchor="middle" x="423.25" y="-5.75" font-family="Helvetica,sans-Serif" font-size="10.00">::RegisteredType</text>
</a>
</g>
</g>
<!-- Node2&#45;&gt;Node3 -->
<g id="edge3_Node000002_Node000003" class="edge">
<title>Node2&#45;&gt;Node3</title>
<g id="a_edge3_Node000002_Node000003"><a xlink:title=" ">
<path fill="none" stroke="#63b8ff" d="M308.39,-15.25C316.22,-15.25 324.31,-15.25 332.39,-15.25"/>
<polygon fill="#63b8ff" stroke="#63b8ff" points="332.29,-18.75 342.29,-15.25 332.29,-11.75 332.29,-18.75"/>
</a>
</g>
</g>
</g>
</svg>
