<?xml version="1.0" encoding="UTF-8" standalone="no"?>
<!DOCTYPE svg PUBLIC "-//W3C//DTD SVG 1.1//EN"
 "http://www.w3.org/Graphics/SVG/1.1/DTD/svg11.dtd">
<!-- Generated by graphviz version 12.1.0 (20240811.2233)
 -->
<!-- Title: AQNWB::NWB::NWBFile::initialize Pages: 1 -->
<svg width="468pt" height="39pt"
 viewBox="0.00 0.00 467.75 38.50" xmlns="http://www.w3.org/2000/svg" xmlns:xlink="http://www.w3.org/1999/xlink">
<g id="graph0" class="graph" transform="scale(1 1) rotate(0) translate(4 34.5)">
<title>AQNWB::NWB::NWBFile::initialize</title>
<!-- Node1 -->
<g id="Node000001" class="node">
<title>Node1</title>
<g id="a_Node000001"><a xlink:title="Initializes the NWB file by opening and setting up the file structure.">
<polygon fill="#999999" stroke="#666666" points="130,-30.5 0,-30.5 0,0 130,0 130,-30.5"/>
<text text-anchor="start" x="8" y="-17" font-family="Helvetica,sans-Serif" font-size="10.00">AQNWB::NWB::NWBFile</text>
<text text-anchor="middle" x="65" y="-5.75" font-family="Helvetica,sans-Serif" font-size="10.00">::initialize</text>
</a>
</g>
</g>
<!-- Node2 -->
<g id="Node000002" class="node">
<title>Node2</title>
<g id="a_Node000002"><a xlink:href="class_a_q_n_w_b_1_1_n_w_b_1_1_n_w_b_file.html#a56621b492c375ae3d2a36653016ed9d4" target="_top" xlink:title="Creates the default file structure. Note, this function will fail if the file is in a mode where new ...">
<polygon fill="white" stroke="#666666" points="296,-30.5 166,-30.5 166,0 296,0 296,-30.5"/>
<text text-anchor="start" x="174" y="-17" font-family="Helvetica,sans-Serif" font-size="10.00">AQNWB::NWB::NWBFile</text>
<text text-anchor="middle" x="231" y="-5.75" font-family="Helvetica,sans-Serif" font-size="10.00">::createFileStructure</text>
</a>
</g>
</g>
<!-- Node1&#45;&gt;Node2 -->
<g id="edge1_Node000001_Node000002" class="edge">
<title>Node1&#45;&gt;Node2</title>
<g id="a_edge1_Node000001_Node000002"><a xlink:title=" ">
<path fill="none" stroke="#63b8ff" d="M130.35,-15.25C138.21,-15.25 146.31,-15.25 154.33,-15.25"/>
<polygon fill="#63b8ff" stroke="#63b8ff" points="154.06,-18.75 164.06,-15.25 154.06,-11.75 154.06,-18.75"/>
</a>
</g>
</g>
<!-- Node3 -->
<g id="Node000003" class="node">
<title>Node3</title>
<g id="a_Node000003"><a xlink:href="namespace_a_q_n_w_b.html#af35129219599779d360a65570ff7d168" target="_top" xlink:title="Get the current time in ISO 8601 format with the UTC offset.">
<polygon fill="white" stroke="#666666" points="459.75,-24.88 332,-24.88 332,-5.63 459.75,-5.63 459.75,-24.88"/>
<text text-anchor="middle" x="395.88" y="-11.38" font-family="Helvetica,sans-Serif" font-size="10.00">AQNWB::getCurrentTime</text>
</a>
</g>
</g>
<!-- Node2&#45;&gt;Node3 -->
<g id="edge2_Node000002_Node000003" class="edge">
<title>Node2&#45;&gt;Node3</title>
<g id="a_edge2_Node000002_Node000003"><a xlink:title=" ">
<path fill="none" stroke="#63b8ff" d="M296.37,-15.25C304.14,-15.25 312.12,-15.25 320.02,-15.25"/>
<polygon fill="#63b8ff" stroke="#63b8ff" points="319.99,-18.75 329.99,-15.25 319.99,-11.75 319.99,-18.75"/>
</a>
</g>
</g>
</g>
</svg>
