<?xml version="1.0" encoding="UTF-8" standalone="no"?>
<!DOCTYPE svg PUBLIC "-//W3C//DTD SVG 1.1//EN"
 "http://www.w3.org/Graphics/SVG/1.1/DTD/svg11.dtd">
<!-- Generated by graphviz version 12.2.1 (20241206.2353)
 -->
<!-- Title: AQNWB::NWB::ElementIdentifiers::ElementIdentifiers Pages: 1 -->
<svg width="344pt" height="57pt"
 viewBox="0.00 0.00 343.75 56.50" xmlns="http://www.w3.org/2000/svg" xmlns:xlink="http://www.w3.org/1999/xlink">
<g id="graph0" class="graph" transform="scale(1 1) rotate(0) translate(4 52.5)">
<title>AQNWB::NWB::ElementIdentifiers::ElementIdentifiers</title>
<!-- Node1 -->
<g id="Node000001" class="node">
<title>Node1</title>
<g id="a_Node000001"><a xlink:title="Constructor.">
<polygon fill="#999999" stroke="#666666" points="169,-30.5 0,-30.5 0,0 169,0 169,-30.5"/>
<text text-anchor="start" x="8" y="-17" font-family="Helvetica,sans-Serif" font-size="10.00">AQNWB::NWB::ElementIdentifiers</text>
<text text-anchor="middle" x="84.5" y="-5.75" font-family="Helvetica,sans-Serif" font-size="10.00">::ElementIdentifiers</text>
</a>
</g>
</g>
<!-- Node1&#45;&gt;Node1 -->
<g id="edge2_Node000001_Node000001" class="edge">
<title>Node1&#45;&gt;Node1</title>
<g id="a_edge2_Node000001_Node000001"><a xlink:title=" ">
<path fill="none" stroke="#63b8ff" d="M51.56,-30.99C44.84,-40.06 55.82,-48.5 84.5,-48.5 100.18,-48.5 110.57,-45.97 115.67,-42.2"/>
<polygon fill="#63b8ff" stroke="#63b8ff" points="119.1,-42.9 117.2,-32.48 112.19,-41.82 119.1,-42.9"/>
</a>
</g>
</g>
<!-- Node2 -->
<g id="Node000002" class="node">
<title>Node2</title>
<g id="a_Node000002"><a xlink:href="class_a_q_n_w_b_1_1_n_w_b_1_1_data.html#ad1917750d0ee4cdd9801ccfc15084b84" target="_top" xlink:title=" ">
<polygon fill="white" stroke="#666666" points="335.75,-30.5 205,-30.5 205,0 335.75,0 335.75,-30.5"/>
<text text-anchor="start" x="213" y="-17" font-family="Helvetica,sans-Serif" font-size="10.00">AQNWB::NWB::Data&lt; int</text>
<text text-anchor="middle" x="270.38" y="-5.75" font-family="Helvetica,sans-Serif" font-size="10.00"> &gt;::Data</text>
</a>
</g>
</g>
<!-- Node1&#45;&gt;Node2 -->
<g id="edge1_Node000001_Node000002" class="edge">
<title>Node1&#45;&gt;Node2</title>
<g id="a_edge1_Node000001_Node000002"><a xlink:title=" ">
<path fill="none" stroke="#63b8ff" d="M169.37,-15.25C177.32,-15.25 185.36,-15.25 193.23,-15.25"/>
<polygon fill="#63b8ff" stroke="#63b8ff" points="193.12,-18.75 203.12,-15.25 193.12,-11.75 193.12,-18.75"/>
</a>
</g>
</g>
</g>
</svg>
