<?xml version="1.0" encoding="UTF-8" standalone="no"?>
<!DOCTYPE svg PUBLIC "-//W3C//DTD SVG 1.1//EN"
 "http://www.w3.org/Graphics/SVG/1.1/DTD/svg11.dtd">
<!-- Generated by graphviz version 12.2.1 (20241206.2353)
 -->
<!-- Title: AQNWB::IO::HDF5::HDF5IO::getNativeType Pages: 1 -->
<!--zoomable 161 -->

<svg id="main" version="1.1" xmlns="http://www.w3.org/2000/svg" xmlns:xlink="http://www.w3.org/1999/xlink" xml:space="preserve" onload="init(evt)">

<style type="text/css"><![CDATA[
.node, .edge {opacity: 0.7;}
.node.selected, .edge.selected {opacity: 1;}
.edge:hover path { stroke: red; }
.edge:hover polygon { stroke: red; fill: red; }
]]></style>

<defs>
  <circle id="rim" cx="0" cy="0" r="7"/>
  <circle id="rim2" cx="0" cy="0" r="3.5"/>
  <g id="zoomPlus">
    <use xlink:href="#rim" fill="#404040"><set attributeName="fill" to="#808080" begin="zoomplus.mouseover" end="zoomplus.mouseout"/></use>
    <path d="M-4,0h8M0,-4v8" fill="none" stroke="white" stroke-width="1.5" pointer-events="none"/>
  </g>
  <g id="zoomMin">
    <use xlink:href="#rim" fill="#404040"><set attributeName="fill" to="#808080" begin="zoomminus.mouseover" end="zoomminus.mouseout"/></use>
    <path d="M-4,0h8" fill="none" stroke="white" stroke-width="1.5" pointer-events="none"/>
  </g>
  <g id="arrowUp" transform="translate(30 24)">
    <use xlink:href="#rim"/>
    <path pointer-events="none" fill="none" stroke="white" stroke-width="1.5" d="M0,-3.0v7 M-2.5,-0.5L0,-3.0L2.5,-0.5"/>
  </g>
  <g id="arrowRight" transform="rotate(90) translate(36 -43)">
    <use xlink:href="#rim"/>
    <path pointer-events="none" fill="none" stroke="white" stroke-width="1.5" d="M0,-3.0v7 M-2.5,-0.5L0,-3.0L2.5,-0.5"/>
  </g>
  <g id="arrowDown" transform="rotate(180) translate(-30 -48)">
    <use xlink:href="#rim"/>
    <path pointer-events="none" fill="none" stroke="white" stroke-width="1.5" d="M0,-3.0v7 M-2.5,-0.5L0,-3.0L2.5,-0.5"/>
  </g>
  <g id="arrowLeft" transform="rotate(270) translate(-36 17)">
    <use xlink:href="#rim"/>
    <path pointer-events="none" fill="none" stroke="white" stroke-width="1.5" d="M0,-3.0v7 M-2.5,-0.5L0,-3.0L2.5,-0.5"/>
  </g>
  <g id="resetDef">
    <use xlink:href="#rim2" fill="#404040"><set attributeName="fill" to="#808080" begin="reset.mouseover" end="reset.mouseout"/></use>
  </g>
</defs>
<script type="application/ecmascript">
var viewWidth = 551;
var viewHeight = 161;
var sectionId = 'dynsection-30';
</script>
<script type="application/ecmascript" xlink:href="svg.min.js"/>
<svg id="graph" class="graph">
<g id="viewport">
<title>AQNWB::IO::HDF5::HDF5IO::getNativeType</title>
<!-- Node1 -->
<g id="Node000001" class="node">
<title>Node1</title>
<g id="a_Node000001"><a xlink:title="Returns the HDF5 native data type for a given base data type.">
<polygon fill="#999999" stroke="#666666" points="543,-79.5 397.25,-79.5 397.25,-49 543,-49 543,-79.5"/>
<text text-anchor="start" x="405.25" y="-66" font-family="Helvetica,sans-Serif" font-size="10.00">AQNWB::IO::HDF5::HDF5IO</text>
<text text-anchor="middle" x="470.12" y="-54.75" font-family="Helvetica,sans-Serif" font-size="10.00">::getNativeType</text>
</a>
</g>
</g>
<!-- Node2 -->
<g id="Node000002" class="node">
<title>Node2</title>
<g id="a_Node000002"><a xlink:href="class_a_q_n_w_b_1_1_i_o_1_1_h_d_f5_1_1_h_d_f5_i_o.html#a7ce63eb864cc8678f4bacb5fbc695cbe" target="_top" xlink:title="Creates an attribute at a given location in the file.">
<polygon fill="white" stroke="#666666" points="344.38,-128.5 198.62,-128.5 198.62,-98 344.38,-98 344.38,-128.5"/>
<text text-anchor="start" x="206.62" y="-115" font-family="Helvetica,sans-Serif" font-size="10.00">AQNWB::IO::HDF5::HDF5IO</text>
<text text-anchor="middle" x="271.5" y="-103.75" font-family="Helvetica,sans-Serif" font-size="10.00">::createAttribute</text>
</a>
</g>
</g>
<!-- Node1&#45;&gt;Node2 -->
<g id="edge1_Node000001_Node000002" class="edge">
<title>Node1&#45;&gt;Node2</title>
<g id="a_edge1_Node000001_Node000002"><a xlink:title=" ">
<path fill="none" stroke="#63b8ff" d="M395.06,-82.71C375.45,-87.6 354.47,-92.82 335.51,-97.55"/>
<polygon fill="#63b8ff" stroke="#63b8ff" points="395.77,-86.14 404.63,-80.32 394.08,-79.34 395.77,-86.14"/>
</a>
</g>
</g>
<!-- Node5 -->
<g id="Node000005" class="node">
<title>Node5</title>
<g id="a_Node000005"><a xlink:href="class_a_q_n_w_b_1_1_i_o_1_1_h_d_f5_1_1_h_d_f5_recording_data.html#a0a8b539f400e46e0093f4763983c81a8" target="_top" xlink:title="Writes a block of string data (any number of dimensions).">
<polygon fill="white" stroke="#666666" points="361.25,-79.5 181.75,-79.5 181.75,-49 361.25,-49 361.25,-79.5"/>
<text text-anchor="start" x="189.75" y="-66" font-family="Helvetica,sans-Serif" font-size="10.00">AQNWB::IO::HDF5::HDF5Recording</text>
<text text-anchor="middle" x="271.5" y="-54.75" font-family="Helvetica,sans-Serif" font-size="10.00">Data::writeDataBlock</text>
</a>
</g>
</g>
<!-- Node1&#45;&gt;Node5 -->
<g id="edge4_Node000001_Node000005" class="edge">
<title>Node1&#45;&gt;Node5</title>
<g id="a_edge4_Node000001_Node000005"><a xlink:title=" ">
<path fill="none" stroke="#63b8ff" d="M385.55,-64.25C377.64,-64.25 369.6,-64.25 361.65,-64.25"/>
<polygon fill="#63b8ff" stroke="#63b8ff" points="385.51,-67.75 395.51,-64.25 385.51,-60.75 385.51,-67.75"/>
</a>
</g>
</g>
<!-- Node6 -->
<g id="Node000006" class="node">
<title>Node6</title>
<g id="a_Node000006"><a xlink:href="class_a_q_n_w_b_1_1_i_o_1_1_h_d_f5_1_1_h_d_f5_recording_data.html#a78a67b8d9aaa53fa9e05da41f5c65559" target="_top" xlink:title="Writes a block of data to the HDF5 dataset.">
<polygon fill="white" stroke="#666666" points="361.25,-30.5 181.75,-30.5 181.75,0 361.25,0 361.25,-30.5"/>
<text text-anchor="start" x="189.75" y="-17" font-family="Helvetica,sans-Serif" font-size="10.00">AQNWB::IO::HDF5::HDF5Recording</text>
<text text-anchor="middle" x="271.5" y="-5.75" font-family="Helvetica,sans-Serif" font-size="10.00">Data::writeDataBlock</text>
</a>
</g>
</g>
<!-- Node1&#45;&gt;Node6 -->
<g id="edge5_Node000001_Node000006" class="edge">
<title>Node1&#45;&gt;Node6</title>
<g id="a_edge5_Node000001_Node000006"><a xlink:title=" ">
<path fill="none" stroke="#63b8ff" d="M395.06,-45.79C375.45,-40.9 354.47,-35.68 335.51,-30.95"/>
<polygon fill="#63b8ff" stroke="#63b8ff" points="394.08,-49.16 404.63,-48.18 395.77,-42.36 394.08,-49.16"/>
</a>
</g>
</g>
<!-- Node3 -->
<g id="Node000003" class="node">
<title>Node3</title>
<g id="a_Node000003"><a xlink:href="class_a_q_n_w_b_1_1_i_o_1_1_h_d_f5_1_1_h_d_f5_i_o.html#a30318320f3bea68d7efec05cb5562ccd" target="_top" xlink:title="Creates a string attribute at a given location in the file.">
<polygon fill="white" stroke="#666666" points="145.75,-152.5 0,-152.5 0,-122 145.75,-122 145.75,-152.5"/>
<text text-anchor="start" x="8" y="-139" font-family="Helvetica,sans-Serif" font-size="10.00">AQNWB::IO::HDF5::HDF5IO</text>
<text text-anchor="middle" x="72.88" y="-127.75" font-family="Helvetica,sans-Serif" font-size="10.00">::createAttribute</text>
</a>
</g>
</g>
<!-- Node2&#45;&gt;Node3 -->
<g id="edge2_Node000002_Node000003" class="edge">
<title>Node2&#45;&gt;Node3</title>
<g id="a_edge2_Node000002_Node000003"><a xlink:title=" ">
<path fill="none" stroke="#63b8ff" d="M187.04,-123.44C173.38,-125.1 159.32,-126.82 145.97,-128.45"/>
<polygon fill="#63b8ff" stroke="#63b8ff" points="187.4,-126.92 196.9,-122.23 186.55,-119.97 187.4,-126.92"/>
</a>
</g>
</g>
<!-- Node4 -->
<g id="Node000004" class="node">
<title>Node4</title>
<g id="a_Node000004"><a xlink:href="class_a_q_n_w_b_1_1_i_o_1_1_h_d_f5_1_1_h_d_f5_i_o.html#a6dc62d49a1e15e8080d66fb7c10849ad" target="_top" xlink:title="Creates a string array attribute at a given location in the file.">
<polygon fill="white" stroke="#666666" points="145.75,-103.5 0,-103.5 0,-73 145.75,-73 145.75,-103.5"/>
<text text-anchor="start" x="8" y="-90" font-family="Helvetica,sans-Serif" font-size="10.00">AQNWB::IO::HDF5::HDF5IO</text>
<text text-anchor="middle" x="72.88" y="-78.75" font-family="Helvetica,sans-Serif" font-size="10.00">::createAttribute</text>
</a>
</g>
</g>
<!-- Node2&#45;&gt;Node4 -->
<g id="edge3_Node000002_Node000004" class="edge">
<title>Node2&#45;&gt;Node4</title>
<g id="a_edge3_Node000002_Node000004"><a xlink:title=" ">
<path fill="none" stroke="#63b8ff" d="M187.04,-102.64C173.38,-100.9 159.32,-99.11 145.97,-97.42"/>
<polygon fill="#63b8ff" stroke="#63b8ff" points="186.54,-106.1 196.9,-103.89 187.42,-99.16 186.54,-106.1"/>
</a>
</g>
</g>
</g>
</svg>

<g id="navigator" transform="translate(0 0)" fill="#404254">
  <rect fill="#f2f5e9" fill-opacity="0.5" stroke="#606060" stroke-width=".5" x="0" y="0" width="60" height="60"/>
  <use id="zoomplus" xlink:href="#zoomPlus" x="17" y="9" onmousedown="handleZoom(evt,'in')"/>
  <use id="zoomminus" xlink:href="#zoomMin" x="42" y="9" onmousedown="handleZoom(evt,'out')"/>
  <use id="reset" xlink:href="#resetDef" x="30" y="36" onmousedown="handleReset()"/>
   <use id="arrowup" xlink:href="#arrowUp" x="0" y="0" onmousedown="handlePan(0,-1)"/>
  <use id="arrowright" xlink:href="#arrowRight" x="0" y="0" onmousedown="handlePan(1,0)"/>
  <use id="arrowdown" xlink:href="#arrowDown" x="0" y="0" onmousedown="handlePan(0,1)"/>
  <use id="arrowleft" xlink:href="#arrowLeft" x="0" y="0" onmousedown="handlePan(-1,0)"/>
</g>
<svg viewBox="0 0 15 15" width="100%" height="30px" preserveAspectRatio="xMaxYMin meet">
 <g id="arrow_out" transform="scale(0.3 0.3)">
  <a xlink:href="class_a_q_n_w_b_1_1_i_o_1_1_h_d_f5_1_1_h_d_f5_i_o_adad97dc270883ff2e21a01fc68d58bef_icgraph_org.svg" target="_base">
   <rect id="button" ry="5" rx="5" y="6" x="6" height="38" width="38"
        fill="#f2f5e9" fill-opacity="0.5" stroke="#606060" stroke-width="1.0"/>
   <path id="arrow"
     d="M 11.500037,31.436501 C 11.940474,20.09759 22.043105,11.32322 32.158766,21.979434 L 37.068811,17.246167 C 37.068811,17.246167 37.088388,32 37.088388,32 L 22.160133,31.978069 C 22.160133,31.978069 26.997745,27.140456 26.997745,27.140456 C 18.528582,18.264221 13.291696,25.230495 11.500037,31.436501 z"
     style="fill:#404040;"/>
  </a>
 </g>
</svg>

<style type='text/css'>
<![CDATA[
[data-mouse-over-selected='false'] { opacity: 0.7; }
[data-mouse-over-selected='true']  { opacity: 1.0; }
]]>
</style>
<script type="application/ecmascript"><![CDATA[
document.addEventListener('DOMContentLoaded', (event) => {
  highlightEdges();
  highlightAdjacentNodes();
});
]]></script>
</svg>
