<?xml version="1.0" encoding="UTF-8" standalone="no"?>
<!DOCTYPE svg PUBLIC "-//W3C//DTD SVG 1.1//EN"
 "http://www.w3.org/Graphics/SVG/1.1/DTD/svg11.dtd">
<!-- Generated by graphviz version 14.1.2 (20260124.0452)
 -->
<!-- Title: AQNWB::NWB::NWBFile::readFileCreateDate Pages: 1 -->
<svg width="1757pt" height="309pt"
 viewBox="0.00 0.00 1757.00 309.00" xmlns="http://www.w3.org/2000/svg" xmlns:xlink="http://www.w3.org/1999/xlink">
<g id="graph0" class="graph" transform="scale(1 1) rotate(0) translate(4 304.5)">
<title>AQNWB::NWB::NWBFile::readFileCreateDate</title>
<!-- Node1 -->
<g id="Node000001" class="node">
<title>Node1</title>
<g id="a_Node000001"><a xlink:title=" ">
<polygon fill="#999999" stroke="#666666" points="130,-83.5 0,-83.5 0,-53 130,-53 130,-83.5"/>
<text xml:space="preserve" text-anchor="start" x="8" y="-70" font-family="Helvetica,sans-Serif" font-size="10.00">AQNWB::NWB::NWBFile</text>
<text xml:space="preserve" text-anchor="middle" x="65" y="-58.75" font-family="Helvetica,sans-Serif" font-size="10.00">::readFileCreateDate</text>
</a>
</g>
</g>
<!-- Node2 -->
<g id="Node000002" class="node">
<title>Node2</title>
<g id="a_Node000002"><a xlink:href="class_a_q_n_w_b_1_1_n_w_b_1_1_n_w_b_file.html#aa928ef570b33a28a2ba83b8edff18d79" target="_top" xlink:title=" ">
<polygon fill="white" stroke="#666666" points="296,-108.5 166,-108.5 166,-78 296,-78 296,-108.5"/>
<text xml:space="preserve" text-anchor="start" x="174" y="-95" font-family="Helvetica,sans-Serif" font-size="10.00">AQNWB::NWB::NWBFile</text>
<text xml:space="preserve" text-anchor="middle" x="231" y="-83.75" font-family="Helvetica,sans-Serif" font-size="10.00">::readIdentifier</text>
</a>
</g>
</g>
<!-- Node1&#45;&gt;Node2 -->
<g id="edge1_Node000001_Node000002" class="edge">
<title>Node1&#45;&gt;Node2</title>
<g id="a_edge1_Node000001_Node000002"><a xlink:title=" ">
<path fill="none" stroke="#63b8ff" d="M130.35,-78.06C138.21,-79.26 146.31,-80.49 154.33,-81.71"/>
<polygon fill="#63b8ff" stroke="#63b8ff" points="153.66,-85.15 164.07,-83.2 154.72,-78.23 153.66,-85.15"/>
</a>
</g>
</g>
<!-- Node21 -->
<g id="Node000021" class="node">
<title>Node21</title>
<g id="a_Node000021"><a xlink:href="class_a_q_n_w_b_1_1_n_w_b_1_1_n_w_b_file.html#a46e3752c784f7c70b8273db48c30ee87" target="_top" xlink:title=" ">
<polygon fill="white" stroke="#666666" points="296,-59.5 166,-59.5 166,-29 296,-29 296,-59.5"/>
<text xml:space="preserve" text-anchor="start" x="174" y="-46" font-family="Helvetica,sans-Serif" font-size="10.00">AQNWB::NWB::NWBFile</text>
<text xml:space="preserve" text-anchor="middle" x="231" y="-34.75" font-family="Helvetica,sans-Serif" font-size="10.00">::recordIdentifier</text>
</a>
</g>
</g>
<!-- Node1&#45;&gt;Node21 -->
<g id="edge23_Node000001_Node000021" class="edge">
<title>Node1&#45;&gt;Node21</title>
<g id="a_edge23_Node000001_Node000021"><a xlink:title=" ">
<path fill="none" stroke="#63b8ff" d="M130.35,-58.83C138.21,-57.68 146.31,-56.5 154.33,-55.32"/>
<polygon fill="#63b8ff" stroke="#63b8ff" points="154.68,-58.81 164.07,-53.9 153.67,-51.88 154.68,-58.81"/>
</a>
</g>
</g>
<!-- Node3 -->
<g id="Node000003" class="node">
<title>Node3</title>
<g id="a_Node000003"><a xlink:href="class_a_q_n_w_b_1_1_n_w_b_1_1_n_w_b_file.html#a3cebcab2c5ed464414d3c566e08a5b7f" target="_top" xlink:title=" ">
<polygon fill="white" stroke="#666666" points="463.88,-132.5 333.88,-132.5 333.88,-102 463.88,-102 463.88,-132.5"/>
<text xml:space="preserve" text-anchor="start" x="341.88" y="-119" font-family="Helvetica,sans-Serif" font-size="10.00">AQNWB::NWB::NWBFile</text>
<text xml:space="preserve" text-anchor="middle" x="398.88" y="-107.75" font-family="Helvetica,sans-Serif" font-size="10.00">::readSessionDescription</text>
</a>
</g>
</g>
<!-- Node2&#45;&gt;Node3 -->
<g id="edge2_Node000002_Node000003" class="edge">
<title>Node2&#45;&gt;Node3</title>
<g id="a_edge2_Node000002_Node000003"><a xlink:title=" ">
<path fill="none" stroke="#63b8ff" d="M296.13,-102.53C304.69,-103.77 313.53,-105.05 322.26,-106.31"/>
<polygon fill="#63b8ff" stroke="#63b8ff" points="321.74,-109.77 332.14,-107.74 322.75,-102.84 321.74,-109.77"/>
</a>
</g>
</g>
<!-- Node20 -->
<g id="Node000020" class="node">
<title>Node20</title>
<g id="a_Node000020"><a xlink:href="class_a_q_n_w_b_1_1_n_w_b_1_1_n_w_b_file.html#afd4eeee1907693a825844471fc9856d1" target="_top" xlink:title=" ">
<polygon fill="white" stroke="#666666" points="465.75,-83.5 332,-83.5 332,-53 465.75,-53 465.75,-83.5"/>
<text xml:space="preserve" text-anchor="start" x="340" y="-70" font-family="Helvetica,sans-Serif" font-size="10.00">AQNWB::NWB::NWBFile</text>
<text xml:space="preserve" text-anchor="middle" x="398.88" y="-58.75" font-family="Helvetica,sans-Serif" font-size="10.00">::recordSessionDescription</text>
</a>
</g>
</g>
<!-- Node2&#45;&gt;Node20 -->
<g id="edge22_Node000002_Node000020" class="edge">
<title>Node2&#45;&gt;Node20</title>
<g id="a_edge22_Node000002_Node000020"><a xlink:title=" ">
<path fill="none" stroke="#63b8ff" d="M296.13,-83.58C304.06,-82.39 312.24,-81.16 320.34,-79.94"/>
<polygon fill="#63b8ff" stroke="#63b8ff" points="320.86,-83.4 330.22,-78.45 319.81,-76.48 320.86,-83.4"/>
</a>
</g>
</g>
<!-- Node4 -->
<g id="Node000004" class="node">
<title>Node4</title>
<g id="a_Node000004"><a xlink:href="class_a_q_n_w_b_1_1_n_w_b_1_1_n_w_b_file.html#af515ce14c705e833c1ad96837cbe92d8" target="_top" xlink:title=" ">
<polygon fill="white" stroke="#666666" points="631.75,-156.5 501.75,-156.5 501.75,-126 631.75,-126 631.75,-156.5"/>
<text xml:space="preserve" text-anchor="start" x="509.75" y="-143" font-family="Helvetica,sans-Serif" font-size="10.00">AQNWB::NWB::NWBFile</text>
<text xml:space="preserve" text-anchor="middle" x="566.75" y="-131.75" font-family="Helvetica,sans-Serif" font-size="10.00">::readSessionStartTime</text>
</a>
</g>
</g>
<!-- Node3&#45;&gt;Node4 -->
<g id="edge3_Node000003_Node000004" class="edge">
<title>Node3&#45;&gt;Node4</title>
<g id="a_edge3_Node000003_Node000004"><a xlink:title=" ">
<path fill="none" stroke="#63b8ff" d="M464.01,-126.53C472.56,-127.77 481.4,-129.05 490.13,-130.31"/>
<polygon fill="#63b8ff" stroke="#63b8ff" points="489.62,-133.77 500.02,-131.74 490.62,-126.84 489.62,-133.77"/>
</a>
</g>
</g>
<!-- Node19 -->
<g id="Node000019" class="node">
<title>Node19</title>
<g id="a_Node000019"><a xlink:href="class_a_q_n_w_b_1_1_n_w_b_1_1_n_w_b_file.html#a7cc3c4393f4ac760033be12538af05cd" target="_top" xlink:title=" ">
<polygon fill="white" stroke="#666666" points="631.75,-107.5 501.75,-107.5 501.75,-77 631.75,-77 631.75,-107.5"/>
<text xml:space="preserve" text-anchor="start" x="509.75" y="-94" font-family="Helvetica,sans-Serif" font-size="10.00">AQNWB::NWB::NWBFile</text>
<text xml:space="preserve" text-anchor="middle" x="566.75" y="-82.75" font-family="Helvetica,sans-Serif" font-size="10.00">::recordSessionStartTime</text>
</a>
</g>
</g>
<!-- Node3&#45;&gt;Node19 -->
<g id="edge21_Node000003_Node000019" class="edge">
<title>Node3&#45;&gt;Node19</title>
<g id="a_edge21_Node000003_Node000019"><a xlink:title=" ">
<path fill="none" stroke="#63b8ff" d="M464.01,-107.58C472.56,-106.29 481.4,-104.96 490.13,-103.65"/>
<polygon fill="#63b8ff" stroke="#63b8ff" points="490.65,-107.11 500.02,-102.16 489.61,-100.19 490.65,-107.11"/>
</a>
</g>
</g>
<!-- Node5 -->
<g id="Node000005" class="node">
<title>Node5</title>
<g id="a_Node000005"><a xlink:href="class_a_q_n_w_b_1_1_n_w_b_1_1_n_w_b_file.html#a2a132886b5369537f717fdcc80bc9b49" target="_top" xlink:title=" ">
<polygon fill="white" stroke="#666666" points="833.38,-180.5 671.88,-180.5 671.88,-150 833.38,-150 833.38,-180.5"/>
<text xml:space="preserve" text-anchor="start" x="679.88" y="-167" font-family="Helvetica,sans-Serif" font-size="10.00">AQNWB::NWB::NWBFile</text>
<text xml:space="preserve" text-anchor="middle" x="752.62" y="-155.75" font-family="Helvetica,sans-Serif" font-size="10.00">::readTimestampsReferenceTime</text>
</a>
</g>
</g>
<!-- Node4&#45;&gt;Node5 -->
<g id="edge4_Node000004_Node000005" class="edge">
<title>Node4&#45;&gt;Node5</title>
<g id="a_edge4_Node000004_Node000005"><a xlink:title=" ">
<path fill="none" stroke="#63b8ff" d="M632.06,-149.64C641.22,-150.84 650.77,-152.09 660.32,-153.33"/>
<polygon fill="#63b8ff" stroke="#63b8ff" points="659.64,-156.77 670,-154.6 660.54,-149.83 659.64,-156.77"/>
</a>
</g>
</g>
<!-- Node18 -->
<g id="Node000018" class="node">
<title>Node18</title>
<g id="a_Node000018"><a xlink:href="class_a_q_n_w_b_1_1_n_w_b_1_1_n_w_b_file.html#a0eda3212e6af58625670efc0c6ae81a3" target="_top" xlink:title=" ">
<polygon fill="white" stroke="#666666" points="837.5,-131.5 667.75,-131.5 667.75,-101 837.5,-101 837.5,-131.5"/>
<text xml:space="preserve" text-anchor="start" x="675.75" y="-118" font-family="Helvetica,sans-Serif" font-size="10.00">AQNWB::NWB::NWBFile</text>
<text xml:space="preserve" text-anchor="middle" x="752.62" y="-106.75" font-family="Helvetica,sans-Serif" font-size="10.00">::recordTimestampsReferenceTime</text>
</a>
</g>
</g>
<!-- Node4&#45;&gt;Node18 -->
<g id="edge20_Node000004_Node000018" class="edge">
<title>Node4&#45;&gt;Node18</title>
<g id="a_edge20_Node000004_Node000018"><a xlink:title=" ">
<path fill="none" stroke="#63b8ff" d="M632.06,-132.51C639.89,-131.44 648.02,-130.34 656.18,-129.23"/>
<polygon fill="#63b8ff" stroke="#63b8ff" points="656.38,-132.73 665.81,-127.92 655.43,-125.8 656.38,-132.73"/>
</a>
</g>
</g>
<!-- Node6 -->
<g id="Node000006" class="node">
<title>Node6</title>
<g id="a_Node000006"><a xlink:href="class_a_q_n_w_b_1_1_n_w_b_1_1_n_w_b_file.html#a116bb371a6ef2fec0a442530ce4c5344" target="_top" xlink:title=" ">
<polygon fill="white" stroke="#666666" points="1003.5,-204.5 873.5,-204.5 873.5,-174 1003.5,-174 1003.5,-204.5"/>
<text xml:space="preserve" text-anchor="start" x="881.5" y="-191" font-family="Helvetica,sans-Serif" font-size="10.00">AQNWB::NWB::NWBFile</text>
<text xml:space="preserve" text-anchor="middle" x="938.5" y="-179.75" font-family="Helvetica,sans-Serif" font-size="10.00">::createAquisitionSeries</text>
</a>
</g>
</g>
<!-- Node5&#45;&gt;Node6 -->
<g id="edge5_Node000005_Node000006" class="edge">
<title>Node5&#45;&gt;Node6</title>
<g id="a_edge5_Node000005_Node000006"><a xlink:title=" ">
<path fill="none" stroke="#63b8ff" d="M833.74,-175.71C843.1,-176.93 852.62,-178.17 861.91,-179.38"/>
<polygon fill="#63b8ff" stroke="#63b8ff" points="861.24,-182.83 871.61,-180.65 862.15,-175.88 861.24,-182.83"/>
</a>
</g>
</g>
<!-- Node17 -->
<g id="Node000017" class="node">
<title>Node17</title>
<g id="a_Node000017"><a xlink:href="class_a_q_n_w_b_1_1_n_w_b_1_1_n_w_b_file.html#a4c5e30290b87e858aea55a327e835e77" target="_top" xlink:title=" ">
<polygon fill="white" stroke="#666666" points="1003.5,-155.5 873.5,-155.5 873.5,-125 1003.5,-125 1003.5,-155.5"/>
<text xml:space="preserve" text-anchor="start" x="881.5" y="-142" font-family="Helvetica,sans-Serif" font-size="10.00">AQNWB::NWB::NWBFile</text>
<text xml:space="preserve" text-anchor="middle" x="938.5" y="-130.75" font-family="Helvetica,sans-Serif" font-size="10.00">::readAquisitionSeries</text>
</a>
</g>
</g>
<!-- Node5&#45;&gt;Node17 -->
<g id="edge19_Node000005_Node000017" class="edge">
<title>Node5&#45;&gt;Node17</title>
<g id="a_edge19_Node000005_Node000017"><a xlink:title=" ">
<path fill="none" stroke="#63b8ff" d="M833.74,-154.36C843.1,-153.09 852.62,-151.79 861.91,-150.53"/>
<polygon fill="#63b8ff" stroke="#63b8ff" points="862.17,-154.02 871.61,-149.21 861.23,-147.09 862.17,-154.02"/>
</a>
</g>
</g>
<!-- Node7 -->
<g id="Node000007" class="node">
<title>Node7</title>
<g id="a_Node000007"><a xlink:href="class_a_q_n_w_b_1_1_n_w_b_1_1_n_w_b_file.html#a1609e4048024fdbf5776df794cba91de" target="_top" xlink:title=" ">
<polygon fill="white" stroke="#666666" points="1169.5,-228.5 1039.5,-228.5 1039.5,-198 1169.5,-198 1169.5,-228.5"/>
<text xml:space="preserve" text-anchor="start" x="1047.5" y="-215" font-family="Helvetica,sans-Serif" font-size="10.00">AQNWB::NWB::NWBFile</text>
<text xml:space="preserve" text-anchor="middle" x="1104.5" y="-203.75" font-family="Helvetica,sans-Serif" font-size="10.00">::createProcessingModule</text>
</a>
</g>
</g>
<!-- Node6&#45;&gt;Node7 -->
<g id="edge6_Node000006_Node000007" class="edge">
<title>Node6&#45;&gt;Node7</title>
<g id="a_edge6_Node000006_Node000007"><a xlink:title=" ">
<path fill="none" stroke="#63b8ff" d="M1003.85,-198.67C1011.71,-199.82 1019.81,-201 1027.83,-202.18"/>
<polygon fill="#63b8ff" stroke="#63b8ff" points="1027.17,-205.62 1037.57,-203.6 1028.18,-198.69 1027.17,-205.62"/>
</a>
</g>
</g>
<!-- Node16 -->
<g id="Node000016" class="node">
<title>Node16</title>
<g id="a_Node000016"><a xlink:href="class_a_q_n_w_b_1_1_n_w_b_1_1_n_w_b_file.html#a8389d66680e64980ab23337029e75753" target="_top" xlink:title=" ">
<polygon fill="white" stroke="#666666" points="1169.5,-179.5 1039.5,-179.5 1039.5,-149 1169.5,-149 1169.5,-179.5"/>
<text xml:space="preserve" text-anchor="start" x="1047.5" y="-166" font-family="Helvetica,sans-Serif" font-size="10.00">AQNWB::NWB::NWBFile</text>
<text xml:space="preserve" text-anchor="middle" x="1104.5" y="-154.75" font-family="Helvetica,sans-Serif" font-size="10.00">::readProcessingModule</text>
</a>
</g>
</g>
<!-- Node6&#45;&gt;Node16 -->
<g id="edge18_Node000006_Node000016" class="edge">
<title>Node6&#45;&gt;Node16</title>
<g id="a_edge18_Node000006_Node000016"><a xlink:title=" ">
<path fill="none" stroke="#63b8ff" d="M1003.85,-179.44C1011.71,-178.24 1019.81,-177.01 1027.83,-175.79"/>
<polygon fill="#63b8ff" stroke="#63b8ff" points="1028.22,-179.27 1037.57,-174.3 1027.16,-172.35 1028.22,-179.27"/>
</a>
</g>
</g>
<!-- Node8 -->
<g id="Node000008" class="node">
<title>Node8</title>
<g id="a_Node000008"><a xlink:href="class_a_q_n_w_b_1_1_n_w_b_1_1_n_w_b_file.html#aaf2e07b4e912fc34ab052d38f92e6cdd" target="_top" xlink:title="Saves the specification files for the schema.">
<polygon fill="white" stroke="#666666" points="1528.12,-300.5 1398.12,-300.5 1398.12,-270 1528.12,-270 1528.12,-300.5"/>
<text xml:space="preserve" text-anchor="start" x="1406.12" y="-287" font-family="Helvetica,sans-Serif" font-size="10.00">AQNWB::NWB::NWBFile</text>
<text xml:space="preserve" text-anchor="middle" x="1463.12" y="-275.75" font-family="Helvetica,sans-Serif" font-size="10.00">::cacheSpecifications</text>
</a>
</g>
</g>
<!-- Node7&#45;&gt;Node8 -->
<g id="edge7_Node000007_Node000008" class="edge">
<title>Node7&#45;&gt;Node8</title>
<g id="a_edge7_Node000007_Node000008"><a xlink:title=" ">
<path fill="none" stroke="#63b8ff" d="M1169.67,-226.21C1230.71,-238.53 1322.54,-257.07 1386.97,-270.08"/>
<polygon fill="#63b8ff" stroke="#63b8ff" points="1385.89,-273.43 1396.39,-271.98 1387.28,-266.57 1385.89,-273.43"/>
</a>
</g>
</g>
<!-- Node11 -->
<g id="Node000011" class="node">
<title>Node11</title>
<g id="a_Node000011"><a xlink:href="class_a_q_n_w_b_1_1_n_w_b_1_1_n_w_b_file.html#a71bd7b910a7ec89bdaf36304d67bfef1" target="_top" xlink:title="Creates the default file structure. Note, this function will fail if the file is in a mode where new ...">
<polygon fill="white" stroke="#666666" points="1335.5,-189.5 1205.5,-189.5 1205.5,-159 1335.5,-159 1335.5,-189.5"/>
<text xml:space="preserve" text-anchor="start" x="1213.5" y="-176" font-family="Helvetica,sans-Serif" font-size="10.00">AQNWB::NWB::NWBFile</text>
<text xml:space="preserve" text-anchor="middle" x="1270.5" y="-164.75" font-family="Helvetica,sans-Serif" font-size="10.00">::createFileStructure</text>
</a>
</g>
</g>
<!-- Node7&#45;&gt;Node11 -->
<g id="edge10_Node000007_Node000011" class="edge">
<title>Node7&#45;&gt;Node11</title>
<g id="a_edge10_Node000007_Node000011"><a xlink:title=" ">
<path fill="none" stroke="#63b8ff" d="M1169.85,-197.95C1177.81,-196.06 1186,-194.11 1194.1,-192.18"/>
<polygon fill="#63b8ff" stroke="#63b8ff" points="1194.68,-195.64 1203.6,-189.92 1193.06,-188.83 1194.68,-195.64"/>
</a>
</g>
</g>
<!-- Node9 -->
<g id="Node000009" class="node">
<title>Node9</title>
<g id="a_Node000009"><a xlink:href="class_a_q_n_w_b_1_1_n_w_b_1_1_registered_type.html#ab614b1609f536e88ed1f32762dc3894b" target="_top" xlink:title="Get a shared pointer to the IO object.">
<polygon fill="white" stroke="#666666" points="1749.25,-278.5 1590.75,-278.5 1590.75,-248 1749.25,-248 1749.25,-278.5"/>
<text xml:space="preserve" text-anchor="start" x="1598.75" y="-265" font-family="Helvetica,sans-Serif" font-size="10.00">AQNWB::NWB::RegisteredType</text>
<text xml:space="preserve" text-anchor="middle" x="1670" y="-253.75" font-family="Helvetica,sans-Serif" font-size="10.00">::getIO</text>
</a>
</g>
</g>
<!-- Node8&#45;&gt;Node9 -->
<g id="edge8_Node000008_Node000009" class="edge">
<title>Node8&#45;&gt;Node9</title>
<g id="a_edge8_Node000008_Node000009"><a xlink:title=" ">
<path fill="none" stroke="#63b8ff" d="M1528.39,-278.35C1544.56,-276.61 1562.21,-274.72 1579.38,-272.87"/>
<polygon fill="#63b8ff" stroke="#63b8ff" points="1579.49,-276.38 1589.06,-271.83 1578.75,-269.42 1579.49,-276.38"/>
</a>
</g>
</g>
<!-- Node10 -->
<g id="Node000010" class="node">
<title>Node10</title>
<g id="a_Node000010"><a xlink:href="namespace_a_q_n_w_b.html#a31983dbaaa85c2e355b9687fc0ef1881" target="_top" xlink:title="Merge two paths into a single path, handling extra trailing and starting &quot;/&quot;.">
<polygon fill="white" stroke="#666666" points="1726.38,-159.88 1613.62,-159.88 1613.62,-140.62 1726.38,-140.62 1726.38,-159.88"/>
<text xml:space="preserve" text-anchor="middle" x="1670" y="-146.38" font-family="Helvetica,sans-Serif" font-size="10.00">AQNWB::mergePaths</text>
</a>
</g>
</g>
<!-- Node8&#45;&gt;Node10 -->
<g id="edge9_Node000008_Node000010" class="edge">
<title>Node8&#45;&gt;Node10</title>
<g id="a_edge9_Node000008_Node000010"><a xlink:title=" ">
<path fill="none" stroke="#63b8ff" d="M1487.63,-269.76C1526.69,-244.02 1604.61,-192.68 1644.39,-166.47"/>
<polygon fill="#63b8ff" stroke="#63b8ff" points="1646.17,-169.48 1652.6,-161.06 1642.32,-163.64 1646.17,-169.48"/>
</a>
</g>
</g>
<!-- Node11&#45;&gt;Node8 -->
<g id="edge11_Node000011_Node000008" class="edge">
<title>Node11&#45;&gt;Node8</title>
<g id="a_edge11_Node000011_Node000008"><a xlink:title=" ">
<path fill="none" stroke="#63b8ff" d="M1286.75,-189.94C1305.27,-208.19 1338.17,-238.12 1371.5,-256.25 1377.93,-259.75 1384.86,-262.91 1391.91,-265.74"/>
<polygon fill="#63b8ff" stroke="#63b8ff" points="1390.28,-268.86 1400.88,-269.12 1392.75,-262.31 1390.28,-268.86"/>
</a>
</g>
</g>
<!-- Node11&#45;&gt;Node9 -->
<g id="edge13_Node000011_Node000009" class="edge">
<title>Node11&#45;&gt;Node9</title>
<g id="a_edge13_Node000011_Node000009"><a xlink:title=" ">
<path fill="none" stroke="#63b8ff" d="M1297.29,-189.77C1316.94,-200.87 1345.04,-215.22 1371.5,-223.25 1439.43,-243.86 1519.3,-253.87 1579.17,-258.71"/>
<polygon fill="#63b8ff" stroke="#63b8ff" points="1578.74,-262.19 1588.98,-259.47 1579.28,-255.21 1578.74,-262.19"/>
</a>
</g>
</g>
<!-- Node11&#45;&gt;Node10 -->
<g id="edge17_Node000011_Node000010" class="edge">
<title>Node11&#45;&gt;Node10</title>
<g id="a_edge17_Node000011_Node000010"><a xlink:title=" ">
<path fill="none" stroke="#63b8ff" d="M1281.51,-158.77C1297.37,-135.84 1330.7,-93.79 1371.5,-77.25 1446.98,-46.66 1476.57,-54.41 1554.75,-77.25 1591.75,-88.06 1628.17,-114.91 1649.6,-132.86"/>
<polygon fill="#63b8ff" stroke="#63b8ff" points="1647.08,-135.31 1656.94,-139.17 1651.64,-130 1647.08,-135.31"/>
</a>
</g>
</g>
<!-- Node12 -->
<g id="Node000012" class="node">
<title>Node12</title>
<g id="a_Node000012"><a xlink:href="class_a_q_n_w_b_1_1_s_p_e_c_1_1_namespace_registry.html#aceded37c693bb2f6aa21a5945a13557c" target="_top" xlink:title="Get all registered namespaces.">
<polygon fill="white" stroke="#666666" points="1554.75,-30.5 1371.5,-30.5 1371.5,0 1554.75,0 1554.75,-30.5"/>
<text xml:space="preserve" text-anchor="start" x="1379.5" y="-17" font-family="Helvetica,sans-Serif" font-size="10.00">AQNWB::SPEC::NamespaceRegistry</text>
<text xml:space="preserve" text-anchor="middle" x="1463.12" y="-5.75" font-family="Helvetica,sans-Serif" font-size="10.00">::getAllNamespaces</text>
</a>
</g>
</g>
<!-- Node11&#45;&gt;Node12 -->
<g id="edge12_Node000011_Node000012" class="edge">
<title>Node11&#45;&gt;Node12</title>
<g id="a_edge12_Node000011_Node000012"><a xlink:title=" ">
<path fill="none" stroke="#63b8ff" d="M1279.41,-158.55C1293.94,-131.3 1327.46,-75.19 1371.5,-44.25 1376.11,-41.01 1381.11,-38.12 1386.3,-35.54"/>
<polygon fill="#63b8ff" stroke="#63b8ff" points="1387.41,-38.88 1395.09,-31.58 1384.54,-32.49 1387.41,-38.88"/>
</a>
</g>
</g>
<!-- Node13 -->
<g id="Node000013" class="node">
<title>Node13</title>
<g id="a_Node000013"><a xlink:href="class_a_q_n_w_b_1_1_n_w_b_1_1_n_w_b_file.html#a0b44558c283edd9db7d2fcf284c1a5ec" target="_top" xlink:title="Get the schema namespace of the class type.">
<polygon fill="white" stroke="#666666" points="1528.12,-214.5 1398.12,-214.5 1398.12,-184 1528.12,-184 1528.12,-214.5"/>
<text xml:space="preserve" text-anchor="start" x="1406.12" y="-201" font-family="Helvetica,sans-Serif" font-size="10.00">AQNWB::NWB::NWBFile</text>
<text xml:space="preserve" text-anchor="middle" x="1463.12" y="-189.75" font-family="Helvetica,sans-Serif" font-size="10.00">::getNamespace</text>
</a>
</g>
</g>
<!-- Node11&#45;&gt;Node13 -->
<g id="edge14_Node000011_Node000013" class="edge">
<title>Node11&#45;&gt;Node13</title>
<g id="a_edge14_Node000011_Node000013"><a xlink:title=" ">
<path fill="none" stroke="#63b8ff" d="M1335.77,-182.68C1352.17,-184.83 1369.95,-187.16 1386.85,-189.38"/>
<polygon fill="#63b8ff" stroke="#63b8ff" points="1385.94,-192.79 1396.31,-190.62 1386.85,-185.85 1385.94,-192.79"/>
</a>
</g>
</g>
<!-- Node14 -->
<g id="Node000014" class="node">
<title>Node14</title>
<g id="a_Node000014"><a xlink:href="class_a_q_n_w_b_1_1_n_w_b_1_1_n_w_b_file.html#ae22dafcb8cb963103fe0e2b4cbfd5dd8" target="_top" xlink:title="Get the name of the class type.">
<polygon fill="white" stroke="#666666" points="1528.12,-165.5 1398.12,-165.5 1398.12,-135 1528.12,-135 1528.12,-165.5"/>
<text xml:space="preserve" text-anchor="start" x="1406.12" y="-152" font-family="Helvetica,sans-Serif" font-size="10.00">AQNWB::NWB::NWBFile</text>
<text xml:space="preserve" text-anchor="middle" x="1463.12" y="-140.75" font-family="Helvetica,sans-Serif" font-size="10.00">::getTypeName</text>
</a>
</g>
</g>
<!-- Node11&#45;&gt;Node14 -->
<g id="edge15_Node000011_Node000014" class="edge">
<title>Node11&#45;&gt;Node14</title>
<g id="a_edge15_Node000011_Node000014"><a xlink:title=" ">
<path fill="none" stroke="#63b8ff" d="M1335.77,-166.16C1352.17,-164.09 1369.95,-161.85 1386.85,-159.73"/>
<polygon fill="#63b8ff" stroke="#63b8ff" points="1386.82,-163.26 1396.31,-158.54 1385.95,-156.31 1386.82,-163.26"/>
</a>
</g>
</g>
<!-- Node15 -->
<g id="Node000015" class="node">
<title>Node15</title>
<g id="a_Node000015"><a xlink:href="class_a_q_n_w_b_1_1_s_p_e_c_1_1_namespace_registry.html#a15d9c6f869f0270ad91a2af8067f5a88" target="_top" xlink:title="Get the singleton instance of the NamespaceRegistry.">
<polygon fill="white" stroke="#666666" points="1554.75,-116.5 1371.5,-116.5 1371.5,-86 1554.75,-86 1554.75,-116.5"/>
<text xml:space="preserve" text-anchor="start" x="1379.5" y="-103" font-family="Helvetica,sans-Serif" font-size="10.00">AQNWB::SPEC::NamespaceRegistry</text>
<text xml:space="preserve" text-anchor="middle" x="1463.12" y="-91.75" font-family="Helvetica,sans-Serif" font-size="10.00">::instance</text>
</a>
</g>
</g>
<!-- Node11&#45;&gt;Node15 -->
<g id="edge16_Node000011_Node000015" class="edge">
<title>Node11&#45;&gt;Node15</title>
<g id="a_edge16_Node000011_Node000015"><a xlink:title=" ">
<path fill="none" stroke="#63b8ff" d="M1300.65,-158.55C1320.28,-148.41 1346.97,-135.44 1371.5,-126.25 1377.14,-124.14 1383.03,-122.12 1388.99,-120.2"/>
<polygon fill="#63b8ff" stroke="#63b8ff" points="1389.78,-123.62 1398.3,-117.33 1387.71,-116.94 1389.78,-123.62"/>
</a>
</g>
</g>
</g>
</svg>
