<?xml version="1.0" encoding="UTF-8" standalone="no"?>
<!DOCTYPE svg PUBLIC "-//W3C//DTD SVG 1.1//EN"
 "http://www.w3.org/Graphics/SVG/1.1/DTD/svg11.dtd">
<!-- Generated by graphviz version 14.1.0 (20251206.1807)
 -->
<!-- Title: AQNWB::NWB::NWBFile::NWBFile Pages: 1 -->
<svg width="693pt" height="57pt"
 viewBox="0.00 0.00 693.00 57.00" xmlns="http://www.w3.org/2000/svg" xmlns:xlink="http://www.w3.org/1999/xlink">
<g id="graph0" class="graph" transform="scale(1 1) rotate(0) translate(4 52.5)">
<title>AQNWB::NWB::NWBFile::NWBFile</title>
<!-- Node1 -->
<g id="Node000001" class="node">
<title>Node1</title>
<g id="a_Node000001"><a xlink:title="Required constructor so we can call RegisteredType::create but the path cannot be set.">
<polygon fill="#999999" stroke="#666666" points="130,-30.5 0,-30.5 0,0 130,0 130,-30.5"/>
<text xml:space="preserve" text-anchor="start" x="8" y="-17" font-family="Helvetica,sans-Serif" font-size="10.00">AQNWB::NWB::NWBFile</text>
<text xml:space="preserve" text-anchor="middle" x="65" y="-5.75" font-family="Helvetica,sans-Serif" font-size="10.00">::NWBFile</text>
</a>
</g>
</g>
<!-- Node2 -->
<g id="Node000002" class="node">
<title>Node2</title>
<g id="a_Node000002"><a xlink:href="class_a_q_n_w_b_1_1_n_w_b_1_1_n_w_b_container.html#aadbde40c8c04d80d7b65a26e77f4cc20" target="_top" xlink:title="Constructor.">
<polygon fill="white" stroke="#666666" points="322.25,-30.5 166,-30.5 166,0 322.25,0 322.25,-30.5"/>
<text xml:space="preserve" text-anchor="start" x="174" y="-17" font-family="Helvetica,sans-Serif" font-size="10.00">AQNWB::NWB::NWBContainer</text>
<text xml:space="preserve" text-anchor="middle" x="244.12" y="-5.75" font-family="Helvetica,sans-Serif" font-size="10.00">::NWBContainer</text>
</a>
</g>
</g>
<!-- Node1&#45;&gt;Node2 -->
<g id="edge1_Node000001_Node000002" class="edge">
<title>Node1&#45;&gt;Node2</title>
<g id="a_edge1_Node000001_Node000002"><a xlink:title=" ">
<path fill="none" stroke="#63b8ff" d="M130.45,-15.25C138.25,-15.25 146.31,-15.25 154.39,-15.25"/>
<polygon fill="#63b8ff" stroke="#63b8ff" points="154.26,-18.75 164.26,-15.25 154.26,-11.75 154.26,-18.75"/>
</a>
</g>
</g>
<!-- Node2&#45;&gt;Node2 -->
<g id="edge5_Node000002_Node000002" class="edge">
<title>Node2&#45;&gt;Node2</title>
<g id="a_edge5_Node000002_Node000002"><a xlink:title=" ">
<path fill="none" stroke="#63b8ff" d="M212.38,-30.99C205.91,-40.06 216.49,-48.5 244.12,-48.5 259.24,-48.5 269.25,-45.97 274.16,-42.2"/>
<polygon fill="#63b8ff" stroke="#63b8ff" points="277.6,-42.89 275.64,-32.48 270.68,-41.84 277.6,-42.89"/>
</a>
</g>
</g>
<!-- Node3 -->
<g id="Node000003" class="node">
<title>Node3</title>
<g id="a_Node000003"><a xlink:href="class_a_q_n_w_b_1_1_n_w_b_1_1_container.html#a0ec16ae5d28267ea37464ffe2c2c34e5" target="_top" xlink:title="Constructor.">
<polygon fill="white" stroke="#666666" points="490.5,-30.5 358.25,-30.5 358.25,0 490.5,0 490.5,-30.5"/>
<text xml:space="preserve" text-anchor="start" x="366.25" y="-17" font-family="Helvetica,sans-Serif" font-size="10.00">AQNWB::NWB::Container</text>
<text xml:space="preserve" text-anchor="middle" x="424.38" y="-5.75" font-family="Helvetica,sans-Serif" font-size="10.00">::Container</text>
</a>
</g>
</g>
<!-- Node2&#45;&gt;Node3 -->
<g id="edge2_Node000002_Node000003" class="edge">
<title>Node2&#45;&gt;Node3</title>
<g id="a_edge2_Node000002_Node000003"><a xlink:title=" ">
<path fill="none" stroke="#63b8ff" d="M322.53,-15.25C330.42,-15.25 338.44,-15.25 346.32,-15.25"/>
<polygon fill="#63b8ff" stroke="#63b8ff" points="346.24,-18.75 356.24,-15.25 346.24,-11.75 346.24,-18.75"/>
</a>
</g>
</g>
<!-- Node3&#45;&gt;Node3 -->
<g id="edge3_Node000003_Node000003" class="edge">
<title>Node3&#45;&gt;Node3</title>
<g id="a_edge3_Node000003_Node000003"><a xlink:title=" ">
<path fill="none" stroke="#63b8ff" d="M392.43,-30.99C385.92,-40.06 396.56,-48.5 424.38,-48.5 439.58,-48.5 449.66,-45.97 454.6,-42.2"/>
<polygon fill="#63b8ff" stroke="#63b8ff" points="458.04,-42.9 456.09,-32.48 451.12,-41.84 458.04,-42.9"/>
</a>
</g>
</g>
<!-- Node4 -->
<g id="Node000004" class="node">
<title>Node4</title>
<g id="a_Node000004"><a xlink:href="class_a_q_n_w_b_1_1_n_w_b_1_1_registered_type.html#aa1e04074725b7331d725bbda8156bc2d" target="_top" xlink:title="Constructor.">
<polygon fill="white" stroke="#666666" points="685,-30.5 526.5,-30.5 526.5,0 685,0 685,-30.5"/>
<text xml:space="preserve" text-anchor="start" x="534.5" y="-17" font-family="Helvetica,sans-Serif" font-size="10.00">AQNWB::NWB::RegisteredType</text>
<text xml:space="preserve" text-anchor="middle" x="605.75" y="-5.75" font-family="Helvetica,sans-Serif" font-size="10.00">::RegisteredType</text>
</a>
</g>
</g>
<!-- Node3&#45;&gt;Node4 -->
<g id="edge4_Node000003_Node000004" class="edge">
<title>Node3&#45;&gt;Node4</title>
<g id="a_edge4_Node000003_Node000004"><a xlink:title=" ">
<path fill="none" stroke="#63b8ff" d="M490.89,-15.25C498.72,-15.25 506.81,-15.25 514.89,-15.25"/>
<polygon fill="#63b8ff" stroke="#63b8ff" points="514.79,-18.75 524.79,-15.25 514.79,-11.75 514.79,-18.75"/>
</a>
</g>
</g>
</g>
</svg>
