<?xml version="1.0" encoding="UTF-8" standalone="no"?>
<!DOCTYPE svg PUBLIC "-//W3C//DTD SVG 1.1//EN"
 "http://www.w3.org/Graphics/SVG/1.1/DTD/svg11.dtd">
<!-- Generated by graphviz version 14.0.5 (20251129.0259)
 -->
<!-- Title: AQNWB::NWB::TimeSeries::readStartingTimeRate Pages: 1 -->
<svg width="1532pt" height="161pt"
 viewBox="0.00 0.00 1532.00 161.00" xmlns="http://www.w3.org/2000/svg" xmlns:xlink="http://www.w3.org/1999/xlink">
<g id="graph0" class="graph" transform="scale(1 1) rotate(0) translate(4 156.5)">
<title>AQNWB::NWB::TimeSeries::readStartingTimeRate</title>
<!-- Node1 -->
<g id="Node000001" class="node">
<title>Node1</title>
<g id="a_Node000001"><a xlink:title=" ">
<polygon fill="#999999" stroke="#666666" points="139.75,-54.5 0,-54.5 0,-24 139.75,-24 139.75,-54.5"/>
<text xml:space="preserve" text-anchor="start" x="8" y="-41" font-family="Helvetica,sans-Serif" font-size="10.00">AQNWB::NWB::TimeSeries</text>
<text xml:space="preserve" text-anchor="middle" x="69.88" y="-29.75" font-family="Helvetica,sans-Serif" font-size="10.00">::readStartingTimeRate</text>
</a>
</g>
</g>
<!-- Node2 -->
<g id="Node000002" class="node">
<title>Node2</title>
<g id="a_Node000002"><a xlink:href="class_a_q_n_w_b_1_1_n_w_b_1_1_time_series.html#a10c42d7daf3209d828814549062ba43b" target="_top" xlink:title=" ">
<polygon fill="white" stroke="#666666" points="315.5,-54.5 175.75,-54.5 175.75,-24 315.5,-24 315.5,-54.5"/>
<text xml:space="preserve" text-anchor="start" x="183.75" y="-41" font-family="Helvetica,sans-Serif" font-size="10.00">AQNWB::NWB::TimeSeries</text>
<text xml:space="preserve" text-anchor="middle" x="245.62" y="-29.75" font-family="Helvetica,sans-Serif" font-size="10.00">::readStartingTimeUnit</text>
</a>
</g>
</g>
<!-- Node1&#45;&gt;Node2 -->
<g id="edge1_Node000001_Node000002" class="edge">
<title>Node1&#45;&gt;Node2</title>
<g id="a_edge1_Node000001_Node000002"><a xlink:title=" ">
<path fill="none" stroke="#63b8ff" d="M140.04,-39.25C147.96,-39.25 156.07,-39.25 164.12,-39.25"/>
<polygon fill="#63b8ff" stroke="#63b8ff" points="163.9,-42.75 173.9,-39.25 163.9,-35.75 163.9,-42.75"/>
</a>
</g>
</g>
<!-- Node3 -->
<g id="Node000003" class="node">
<title>Node3</title>
<g id="a_Node000003"><a xlink:href="class_a_q_n_w_b_1_1_n_w_b_1_1_time_series.html#aad84484dbd8b930702c8c8c5408694b1" target="_top" xlink:title=" ">
<polygon fill="white" stroke="#666666" points="491.25,-79.5 351.5,-79.5 351.5,-49 491.25,-49 491.25,-79.5"/>
<text xml:space="preserve" text-anchor="start" x="359.5" y="-66" font-family="Helvetica,sans-Serif" font-size="10.00">AQNWB::NWB::TimeSeries</text>
<text xml:space="preserve" text-anchor="middle" x="421.38" y="-54.75" font-family="Helvetica,sans-Serif" font-size="10.00">::readTimestamps</text>
</a>
</g>
</g>
<!-- Node2&#45;&gt;Node3 -->
<g id="edge2_Node000002_Node000003" class="edge">
<title>Node2&#45;&gt;Node3</title>
<g id="a_edge2_Node000002_Node000003"><a xlink:title=" ">
<path fill="none" stroke="#63b8ff" d="M315.79,-49.2C323.71,-50.34 331.82,-51.51 339.87,-52.67"/>
<polygon fill="#63b8ff" stroke="#63b8ff" points="339.26,-56.12 349.66,-54.08 340.26,-49.19 339.26,-56.12"/>
</a>
</g>
</g>
<!-- Node13 -->
<g id="Node000013" class="node">
<title>Node13</title>
<g id="a_Node000013"><a xlink:href="class_a_q_n_w_b_1_1_n_w_b_1_1_time_series.html#a15cdc18874a799e4196a58e2c2d51c31" target="_top" xlink:title=" ">
<polygon fill="white" stroke="#666666" points="491.25,-30.5 351.5,-30.5 351.5,0 491.25,0 491.25,-30.5"/>
<text xml:space="preserve" text-anchor="start" x="359.5" y="-17" font-family="Helvetica,sans-Serif" font-size="10.00">AQNWB::NWB::TimeSeries</text>
<text xml:space="preserve" text-anchor="middle" x="421.38" y="-5.75" font-family="Helvetica,sans-Serif" font-size="10.00">::recordTimestamps</text>
</a>
</g>
</g>
<!-- Node2&#45;&gt;Node13 -->
<g id="edge12_Node000002_Node000013" class="edge">
<title>Node2&#45;&gt;Node13</title>
<g id="a_edge12_Node000002_Node000013"><a xlink:title=" ">
<path fill="none" stroke="#63b8ff" d="M315.79,-29.7C323.71,-28.6 331.82,-27.48 339.87,-26.37"/>
<polygon fill="#63b8ff" stroke="#63b8ff" points="340.23,-29.85 349.66,-25.02 339.28,-22.92 340.23,-29.85"/>
</a>
</g>
</g>
<!-- Node4 -->
<g id="Node000004" class="node">
<title>Node4</title>
<g id="a_Node000004"><a xlink:href="class_a_q_n_w_b_1_1_n_w_b_1_1_time_series.html#a6bc9efa6381b6761d45493c1b2628e22" target="_top" xlink:title=" ">
<polygon fill="white" stroke="#666666" points="667,-79.5 527.25,-79.5 527.25,-49 667,-49 667,-79.5"/>
<text xml:space="preserve" text-anchor="start" x="535.25" y="-66" font-family="Helvetica,sans-Serif" font-size="10.00">AQNWB::NWB::TimeSeries</text>
<text xml:space="preserve" text-anchor="middle" x="597.12" y="-54.75" font-family="Helvetica,sans-Serif" font-size="10.00">::readTimestampsInterval</text>
</a>
</g>
</g>
<!-- Node3&#45;&gt;Node4 -->
<g id="edge3_Node000003_Node000004" class="edge">
<title>Node3&#45;&gt;Node4</title>
<g id="a_edge3_Node000003_Node000004"><a xlink:title=" ">
<path fill="none" stroke="#63b8ff" d="M491.54,-64.25C499.46,-64.25 507.57,-64.25 515.62,-64.25"/>
<polygon fill="#63b8ff" stroke="#63b8ff" points="515.4,-67.75 525.4,-64.25 515.4,-60.75 515.4,-67.75"/>
</a>
</g>
</g>
<!-- Node5 -->
<g id="Node000005" class="node">
<title>Node5</title>
<g id="a_Node000005"><a xlink:href="class_a_q_n_w_b_1_1_n_w_b_1_1_time_series.html#adf3f178d207453927ae6ede7a53ac7f7" target="_top" xlink:title=" ">
<polygon fill="white" stroke="#666666" points="842.75,-79.5 703,-79.5 703,-49 842.75,-49 842.75,-79.5"/>
<text xml:space="preserve" text-anchor="start" x="711" y="-66" font-family="Helvetica,sans-Serif" font-size="10.00">AQNWB::NWB::TimeSeries</text>
<text xml:space="preserve" text-anchor="middle" x="772.88" y="-54.75" font-family="Helvetica,sans-Serif" font-size="10.00">::readTimestampsUnit</text>
</a>
</g>
</g>
<!-- Node4&#45;&gt;Node5 -->
<g id="edge4_Node000004_Node000005" class="edge">
<title>Node4&#45;&gt;Node5</title>
<g id="a_edge4_Node000004_Node000005"><a xlink:title=" ">
<path fill="none" stroke="#63b8ff" d="M667.29,-64.25C675.21,-64.25 683.32,-64.25 691.37,-64.25"/>
<polygon fill="#63b8ff" stroke="#63b8ff" points="691.15,-67.75 701.15,-64.25 691.15,-60.75 691.15,-67.75"/>
</a>
</g>
</g>
<!-- Node6 -->
<g id="Node000006" class="node">
<title>Node6</title>
<g id="a_Node000006"><a xlink:href="class_a_q_n_w_b_1_1_n_w_b_1_1_time_series.html#a0501cf1664c3ac781453e312aa3342b0" target="_top" xlink:title=" ">
<polygon fill="white" stroke="#666666" points="1018.5,-104.5 878.75,-104.5 878.75,-74 1018.5,-74 1018.5,-104.5"/>
<text xml:space="preserve" text-anchor="start" x="886.75" y="-91" font-family="Helvetica,sans-Serif" font-size="10.00">AQNWB::NWB::TimeSeries</text>
<text xml:space="preserve" text-anchor="middle" x="948.62" y="-79.75" font-family="Helvetica,sans-Serif" font-size="10.00">::readControl</text>
</a>
</g>
</g>
<!-- Node5&#45;&gt;Node6 -->
<g id="edge5_Node000005_Node000006" class="edge">
<title>Node5&#45;&gt;Node6</title>
<g id="a_edge5_Node000005_Node000006"><a xlink:title=" ">
<path fill="none" stroke="#63b8ff" d="M843.04,-74.2C850.96,-75.34 859.07,-76.51 867.12,-77.67"/>
<polygon fill="#63b8ff" stroke="#63b8ff" points="866.51,-81.12 876.91,-79.08 867.51,-74.19 866.51,-81.12"/>
</a>
</g>
</g>
<!-- Node12 -->
<g id="Node000012" class="node">
<title>Node12</title>
<g id="a_Node000012"><a xlink:href="class_a_q_n_w_b_1_1_n_w_b_1_1_time_series.html#a09ead45365072d1f2dbdfe5d628d1af4" target="_top" xlink:title=" ">
<polygon fill="white" stroke="#666666" points="1018.5,-55.5 878.75,-55.5 878.75,-25 1018.5,-25 1018.5,-55.5"/>
<text xml:space="preserve" text-anchor="start" x="886.75" y="-42" font-family="Helvetica,sans-Serif" font-size="10.00">AQNWB::NWB::TimeSeries</text>
<text xml:space="preserve" text-anchor="middle" x="948.62" y="-30.75" font-family="Helvetica,sans-Serif" font-size="10.00">::recordControl</text>
</a>
</g>
</g>
<!-- Node5&#45;&gt;Node12 -->
<g id="edge11_Node000005_Node000012" class="edge">
<title>Node5&#45;&gt;Node12</title>
<g id="a_edge11_Node000005_Node000012"><a xlink:title=" ">
<path fill="none" stroke="#63b8ff" d="M843.04,-54.7C850.96,-53.6 859.07,-52.48 867.12,-51.37"/>
<polygon fill="#63b8ff" stroke="#63b8ff" points="867.48,-54.85 876.91,-50.02 866.53,-47.92 867.48,-54.85"/>
</a>
</g>
</g>
<!-- Node7 -->
<g id="Node000007" class="node">
<title>Node7</title>
<g id="a_Node000007"><a xlink:href="class_a_q_n_w_b_1_1_n_w_b_1_1_time_series.html#a02d6ceb1f87f4a76906f00688708b8e9" target="_top" xlink:title=" ">
<polygon fill="white" stroke="#666666" points="1194.25,-128.5 1054.5,-128.5 1054.5,-98 1194.25,-98 1194.25,-128.5"/>
<text xml:space="preserve" text-anchor="start" x="1062.5" y="-115" font-family="Helvetica,sans-Serif" font-size="10.00">AQNWB::NWB::TimeSeries</text>
<text xml:space="preserve" text-anchor="middle" x="1124.38" y="-103.75" font-family="Helvetica,sans-Serif" font-size="10.00">::readControlDescription</text>
</a>
</g>
</g>
<!-- Node6&#45;&gt;Node7 -->
<g id="edge6_Node000006_Node000007" class="edge">
<title>Node6&#45;&gt;Node7</title>
<g id="a_edge6_Node000006_Node000007"><a xlink:title=" ">
<path fill="none" stroke="#63b8ff" d="M1018.79,-98.8C1026.71,-99.9 1034.82,-101.02 1042.87,-102.13"/>
<polygon fill="#63b8ff" stroke="#63b8ff" points="1042.28,-105.58 1052.66,-103.48 1043.23,-98.65 1042.28,-105.58"/>
</a>
</g>
</g>
<!-- Node11 -->
<g id="Node000011" class="node">
<title>Node11</title>
<g id="a_Node000011"><a xlink:href="class_a_q_n_w_b_1_1_n_w_b_1_1_time_series.html#a7e7da4174344eee6e143a39fc45cc014" target="_top" xlink:title=" ">
<polygon fill="white" stroke="#666666" points="1194.25,-79.5 1054.5,-79.5 1054.5,-49 1194.25,-49 1194.25,-79.5"/>
<text xml:space="preserve" text-anchor="start" x="1062.5" y="-66" font-family="Helvetica,sans-Serif" font-size="10.00">AQNWB::NWB::TimeSeries</text>
<text xml:space="preserve" text-anchor="middle" x="1124.38" y="-54.75" font-family="Helvetica,sans-Serif" font-size="10.00">::recordControlDescription</text>
</a>
</g>
</g>
<!-- Node6&#45;&gt;Node11 -->
<g id="edge10_Node000006_Node000011" class="edge">
<title>Node6&#45;&gt;Node11</title>
<g id="a_edge10_Node000006_Node000011"><a xlink:title=" ">
<path fill="none" stroke="#63b8ff" d="M1018.79,-79.3C1026.71,-78.16 1034.82,-76.99 1042.87,-75.83"/>
<polygon fill="#63b8ff" stroke="#63b8ff" points="1043.26,-79.31 1052.66,-74.42 1042.26,-72.38 1043.26,-79.31"/>
</a>
</g>
</g>
<!-- Node8 -->
<g id="Node000008" class="node">
<title>Node8</title>
<g id="a_Node000008"><a xlink:href="class_a_q_n_w_b_1_1_n_w_b_1_1_time_series.html#ad02a2c3803891f352dd2496b9ff1887b" target="_top" xlink:title="Convenience function for creating data related attributes.">
<polygon fill="white" stroke="#666666" points="1372.62,-152.5 1232.88,-152.5 1232.88,-122 1372.62,-122 1372.62,-152.5"/>
<text xml:space="preserve" text-anchor="start" x="1240.88" y="-139" font-family="Helvetica,sans-Serif" font-size="10.00">AQNWB::NWB::TimeSeries</text>
<text xml:space="preserve" text-anchor="middle" x="1302.75" y="-127.75" font-family="Helvetica,sans-Serif" font-size="10.00">::createDataAttributes</text>
</a>
</g>
</g>
<!-- Node7&#45;&gt;Node8 -->
<g id="edge7_Node000007_Node000008" class="edge">
<title>Node7&#45;&gt;Node8</title>
<g id="a_edge7_Node000007_Node000008"><a xlink:title=" ">
<path fill="none" stroke="#63b8ff" d="M1194.58,-122.67C1203.33,-123.86 1212.35,-125.08 1221.26,-126.3"/>
<polygon fill="#63b8ff" stroke="#63b8ff" points="1220.58,-129.74 1230.96,-127.62 1221.52,-122.8 1220.58,-129.74"/>
</a>
</g>
</g>
<!-- Node10 -->
<g id="Node000010" class="node">
<title>Node10</title>
<g id="a_Node000010"><a xlink:href="class_a_q_n_w_b_1_1_n_w_b_1_1_time_series.html#a682200d497af6051d0ef9189509084dd" target="_top" xlink:title="Convenience function for creating timestamp related attributes.">
<polygon fill="white" stroke="#666666" points="1375.25,-103.5 1230.25,-103.5 1230.25,-73 1375.25,-73 1375.25,-103.5"/>
<text xml:space="preserve" text-anchor="start" x="1238.25" y="-90" font-family="Helvetica,sans-Serif" font-size="10.00">AQNWB::NWB::TimeSeries</text>
<text xml:space="preserve" text-anchor="middle" x="1302.75" y="-78.75" font-family="Helvetica,sans-Serif" font-size="10.00">::createTimestampsAttributes</text>
</a>
</g>
</g>
<!-- Node7&#45;&gt;Node10 -->
<g id="edge9_Node000007_Node000010" class="edge">
<title>Node7&#45;&gt;Node10</title>
<g id="a_edge9_Node000007_Node000010"><a xlink:title=" ">
<path fill="none" stroke="#63b8ff" d="M1194.58,-103.44C1202.45,-102.33 1210.53,-101.18 1218.56,-100.04"/>
<polygon fill="#63b8ff" stroke="#63b8ff" points="1218.94,-103.52 1228.35,-98.65 1217.95,-96.59 1218.94,-103.52"/>
</a>
</g>
</g>
<!-- Node9 -->
<g id="Node000009" class="node">
<title>Node9</title>
<g id="a_Node000009"><a xlink:href="namespace_a_q_n_w_b.html#a31983dbaaa85c2e355b9687fc0ef1881" target="_top" xlink:title="Merge two paths into a single path, handling extra trailing and starting &quot;/&quot;.">
<polygon fill="white" stroke="#666666" points="1524,-146.88 1411.25,-146.88 1411.25,-127.62 1524,-127.62 1524,-146.88"/>
<text xml:space="preserve" text-anchor="middle" x="1467.62" y="-133.38" font-family="Helvetica,sans-Serif" font-size="10.00">AQNWB::mergePaths</text>
</a>
</g>
</g>
<!-- Node8&#45;&gt;Node9 -->
<g id="edge8_Node000008_Node000009" class="edge">
<title>Node8&#45;&gt;Node9</title>
<g id="a_edge8_Node000008_Node000009"><a xlink:title=" ">
<path fill="none" stroke="#63b8ff" d="M1372.82,-137.25C1381.63,-137.25 1390.62,-137.25 1399.4,-137.25"/>
<polygon fill="#63b8ff" stroke="#63b8ff" points="1399.25,-140.75 1409.25,-137.25 1399.25,-133.75 1399.25,-140.75"/>
</a>
</g>
</g>
</g>
</svg>
