<?xml version="1.0" encoding="UTF-8" standalone="no"?>
<!DOCTYPE svg PUBLIC "-//W3C//DTD SVG 1.1//EN"
 "http://www.w3.org/Graphics/SVG/1.1/DTD/svg11.dtd">
<!-- Generated by graphviz version 13.1.0 (20250701.0955)
 -->
<!-- Title: AQNWB::NWB::VectorData::VectorData Pages: 1 -->
<svg width="350pt" height="88pt"
 viewBox="0.00 0.00 350.00 88.00" xmlns="http://www.w3.org/2000/svg" xmlns:xlink="http://www.w3.org/1999/xlink">
<g id="graph0" class="graph" transform="scale(1 1) rotate(0) translate(4 83.5)">
<title>AQNWB::NWB::VectorData::VectorData</title>
<!-- Node1 -->
<g id="Node000001" class="node">
<title>Node1</title>
<g id="a_Node000001"><a xlink:title="Constructor.">
<polygon fill="#999999" stroke="#666666" points="341.75,-54.5 202,-54.5 202,-24 341.75,-24 341.75,-54.5"/>
<text xml:space="preserve" text-anchor="start" x="210" y="-41" font-family="Helvetica,sans-Serif" font-size="10.00">AQNWB::NWB::VectorData</text>
<text xml:space="preserve" text-anchor="middle" x="271.88" y="-29.75" font-family="Helvetica,sans-Serif" font-size="10.00">::VectorData</text>
</a>
</g>
</g>
<!-- Node1&#45;&gt;Node1 -->
<g id="edge2_Node000001_Node000001" class="edge">
<title>Node1&#45;&gt;Node1</title>
<g id="a_edge2_Node000001_Node000001"><a xlink:title=" ">
<path fill="none" stroke="#63b8ff" d="M303.55,-66.2C298.37,-69.97 287.81,-72.5 271.88,-72.5 242.73,-72.5 231.58,-64.06 238.41,-54.99"/>
<polygon fill="#63b8ff" stroke="#63b8ff" points="306.98,-66.91 305.1,-56.48 300.07,-65.8 306.98,-66.91"/>
</a>
</g>
</g>
<!-- Node2 -->
<g id="Node000002" class="node">
<title>Node2</title>
<g id="a_Node000002"><a xlink:href="class_a_q_n_w_b_1_1_n_w_b_1_1_vector_data_typed.html#a261537d26d0c1b0667780738d010906c" target="_top" xlink:title="Create a VectorDataTyped object from a Data object.">
<polygon fill="white" stroke="#666666" points="166,-79.5 0,-79.5 0,-49 166,-49 166,-79.5"/>
<text xml:space="preserve" text-anchor="start" x="8" y="-66" font-family="Helvetica,sans-Serif" font-size="10.00">AQNWB::NWB::VectorDataTyped</text>
<text xml:space="preserve" text-anchor="middle" x="83" y="-54.75" font-family="Helvetica,sans-Serif" font-size="10.00">::fromVectorData</text>
</a>
</g>
</g>
<!-- Node1&#45;&gt;Node2 -->
<g id="edge1_Node000001_Node000002" class="edge">
<title>Node1&#45;&gt;Node2</title>
<g id="a_edge1_Node000001_Node000002"><a xlink:title=" ">
<path fill="none" stroke="#63b8ff" d="M190.17,-50.05C182.32,-51.1 174.34,-52.16 166.48,-53.22"/>
<polygon fill="#63b8ff" stroke="#63b8ff" points="190.61,-53.52 200.06,-48.72 189.68,-46.58 190.61,-53.52"/>
</a>
</g>
</g>
<!-- Node3 -->
<g id="Node000003" class="node">
<title>Node3</title>
<g id="a_Node000003"><a xlink:href="class_a_q_n_w_b_1_1_n_w_b_1_1_vector_data_typed.html#ae1574fc67b4fc214d68267283d5b2dbf" target="_top" xlink:title="Constructor.">
<polygon fill="white" stroke="#666666" points="166,-30.5 0,-30.5 0,0 166,0 166,-30.5"/>
<text xml:space="preserve" text-anchor="start" x="8" y="-17" font-family="Helvetica,sans-Serif" font-size="10.00">AQNWB::NWB::VectorDataTyped</text>
<text xml:space="preserve" text-anchor="middle" x="83" y="-5.75" font-family="Helvetica,sans-Serif" font-size="10.00">::VectorDataTyped</text>
</a>
</g>
</g>
<!-- Node1&#45;&gt;Node3 -->
<g id="edge3_Node000001_Node000003" class="edge">
<title>Node1&#45;&gt;Node3</title>
<g id="a_edge3_Node000001_Node000003"><a xlink:title=" ">
<path fill="none" stroke="#63b8ff" d="M190.17,-28.88C182.32,-27.88 174.34,-26.85 166.48,-25.84"/>
<polygon fill="#63b8ff" stroke="#63b8ff" points="189.69,-32.35 200.05,-30.15 190.58,-25.41 189.69,-32.35"/>
</a>
</g>
</g>
</g>
</svg>
