<?xml version="1.0" encoding="UTF-8" standalone="no"?>
<!DOCTYPE svg PUBLIC "-//W3C//DTD SVG 1.1//EN"
 "http://www.w3.org/Graphics/SVG/1.1/DTD/svg11.dtd">
<!-- Generated by graphviz version 14.1.2 (20260124.0452)
 -->
<!-- Title: AQNWB::IO::HDF5::HDF5IO::stopRecording Pages: 1 -->
<!--zoomable 131 -->

<svg id="main" version="1.1" xmlns="http://www.w3.org/2000/svg" xmlns:xlink="http://www.w3.org/1999/xlink" xml:space="preserve" onload="init(evt)">

<style type="text/css"><![CDATA[
.node, .edge {opacity: 0.7;}
.node.selected, .edge.selected {opacity: 1;}
.edge:hover path { stroke: red; }
.edge:hover polygon { stroke: red; fill: red; }
]]></style>

<defs>
  <circle id="rim" cx="0" cy="0" r="7"/>
  <circle id="rim2" cx="0" cy="0" r="3.5"/>
  <g id="zoomPlus">
    <use xlink:href="#rim" fill="#404040"><set attributeName="fill" to="#808080" begin="zoomplus.mouseover" end="zoomplus.mouseout"/></use>
    <path d="M-4,0h8M0,-4v8" fill="none" stroke="white" stroke-width="1.5" pointer-events="none"/>
  </g>
  <g id="zoomMin">
    <use xlink:href="#rim" fill="#404040"><set attributeName="fill" to="#808080" begin="zoomminus.mouseover" end="zoomminus.mouseout"/></use>
    <path d="M-4,0h8" fill="none" stroke="white" stroke-width="1.5" pointer-events="none"/>
  </g>
  <g id="arrowUp" transform="translate(30 24)">
    <use xlink:href="#rim"/>
    <path pointer-events="none" fill="none" stroke="white" stroke-width="1.5" d="M0,-3.0v7 M-2.5,-0.5L0,-3.0L2.5,-0.5"/>
  </g>
  <g id="arrowRight" transform="rotate(90) translate(36 -43)">
    <use xlink:href="#rim"/>
    <path pointer-events="none" fill="none" stroke="white" stroke-width="1.5" d="M0,-3.0v7 M-2.5,-0.5L0,-3.0L2.5,-0.5"/>
  </g>
  <g id="arrowDown" transform="rotate(180) translate(-30 -48)">
    <use xlink:href="#rim"/>
    <path pointer-events="none" fill="none" stroke="white" stroke-width="1.5" d="M0,-3.0v7 M-2.5,-0.5L0,-3.0L2.5,-0.5"/>
  </g>
  <g id="arrowLeft" transform="rotate(270) translate(-36 17)">
    <use xlink:href="#rim"/>
    <path pointer-events="none" fill="none" stroke="white" stroke-width="1.5" d="M0,-3.0v7 M-2.5,-0.5L0,-3.0L2.5,-0.5"/>
  </g>
  <g id="resetDef">
    <use xlink:href="#rim2" fill="#404040"><set attributeName="fill" to="#808080" begin="reset.mouseover" end="reset.mouseout"/></use>
  </g>
</defs>
<script type="application/ecmascript">
var viewWidth = 639;
var viewHeight = 131;
var sectionId = 'dynsection-49';
</script>
<script type="application/ecmascript" xlink:href="svg.min.js"/>
<svg id="graph" class="graph">
<g id="viewport">
<title>AQNWB::IO::HDF5::HDF5IO::stopRecording</title>
<!-- Node1 -->
<g id="Node000001" class="node">
<title>Node1</title>
<g id="a_Node000001"><a xlink:title="Stops the recording process.">
<polygon fill="#999999" stroke="#666666" points="145.75,-73.5 0,-73.5 0,-43 145.75,-43 145.75,-73.5"/>
<text xml:space="preserve" text-anchor="start" x="8" y="-60" font-family="Helvetica,sans-Serif" font-size="10.00">AQNWB::IO::HDF5::HDF5IO</text>
<text xml:space="preserve" text-anchor="middle" x="72.88" y="-48.75" font-family="Helvetica,sans-Serif" font-size="10.00">::stopRecording</text>
</a>
</g>
</g>
<!-- Node2 -->
<g id="Node000002" class="node">
<title>Node2</title>
<g id="a_Node000002"><a xlink:href="class_a_q_n_w_b_1_1_i_o_1_1_h_d_f5_1_1_h_d_f5_i_o.html#a969eb3d7ab2d93c5a83b58f27773e16f" target="_top" xlink:title="Closes the file.">
<polygon fill="white" stroke="#666666" points="327.5,-122.5 181.75,-122.5 181.75,-92 327.5,-92 327.5,-122.5"/>
<text xml:space="preserve" text-anchor="start" x="189.75" y="-109" font-family="Helvetica,sans-Serif" font-size="10.00">AQNWB::IO::HDF5::HDF5IO</text>
<text xml:space="preserve" text-anchor="middle" x="254.62" y="-97.75" font-family="Helvetica,sans-Serif" font-size="10.00">::close</text>
</a>
</g>
</g>
<!-- Node1&#45;&gt;Node2 -->
<g id="edge1_Node000001_Node000002" class="edge">
<title>Node1&#45;&gt;Node2</title>
<g id="a_edge1_Node000001_Node000002"><a xlink:title=" ">
<path fill="none" stroke="#63b8ff" d="M131.24,-73.89C148.35,-78.55 167.26,-83.71 185.01,-88.54"/>
<polygon fill="#63b8ff" stroke="#63b8ff" points="183.85,-91.86 194.42,-91.11 185.69,-85.1 183.85,-91.86"/>
</a>
</g>
</g>
<!-- Node5 -->
<g id="Node000005" class="node">
<title>Node5</title>
<g id="a_Node000005"><a xlink:href="class_a_q_n_w_b_1_1_i_o_1_1_h_d_f5_1_1_h_d_f5_i_o.html#af169224331c1c4f67ccf8521f5d778db" target="_top" xlink:title="Flush data to disk.">
<polygon fill="white" stroke="#666666" points="327.5,-73.5 181.75,-73.5 181.75,-43 327.5,-43 327.5,-73.5"/>
<text xml:space="preserve" text-anchor="start" x="189.75" y="-60" font-family="Helvetica,sans-Serif" font-size="10.00">AQNWB::IO::HDF5::HDF5IO</text>
<text xml:space="preserve" text-anchor="middle" x="254.62" y="-48.75" font-family="Helvetica,sans-Serif" font-size="10.00">::flush</text>
</a>
</g>
</g>
<!-- Node1&#45;&gt;Node5 -->
<g id="edge4_Node000001_Node000005" class="edge">
<title>Node1&#45;&gt;Node5</title>
<g id="a_edge4_Node000001_Node000005"><a xlink:title=" ">
<path fill="none" stroke="#63b8ff" d="M146.21,-58.25C154.1,-58.25 162.18,-58.25 170.19,-58.25"/>
<polygon fill="#63b8ff" stroke="#63b8ff" points="169.93,-61.75 179.93,-58.25 169.93,-54.75 169.93,-61.75"/>
</a>
</g>
</g>
<!-- Node7 -->
<g id="Node000007" class="node">
<title>Node7</title>
<g id="a_Node000007"><a xlink:href="class_a_q_n_w_b_1_1_i_o_1_1_base_i_o.html#a53a279ee9e1adf0d52d03185311ad91a" target="_top" xlink:title="Stops the recording process.">
<polygon fill="white" stroke="#666666" points="479.25,-30.5 363.5,-30.5 363.5,0 479.25,0 479.25,-30.5"/>
<text xml:space="preserve" text-anchor="start" x="371.5" y="-17" font-family="Helvetica,sans-Serif" font-size="10.00">AQNWB::IO::BaseIO::</text>
<text xml:space="preserve" text-anchor="middle" x="421.38" y="-5.75" font-family="Helvetica,sans-Serif" font-size="10.00">stopRecording</text>
</a>
</g>
</g>
<!-- Node1&#45;&gt;Node7 -->
<g id="edge6_Node000001_Node000007" class="edge">
<title>Node1&#45;&gt;Node7</title>
<g id="a_edge6_Node000001_Node000007"><a xlink:title=" ">
<path fill="none" stroke="#63b8ff" d="M137.49,-42.55C151.96,-39.41 167.33,-36.42 181.75,-34.25 238.7,-25.69 303.92,-20.83 351.76,-18.17"/>
<polygon fill="#63b8ff" stroke="#63b8ff" points="351.92,-21.67 361.72,-17.64 351.54,-14.68 351.92,-21.67"/>
</a>
</g>
</g>
<!-- Node3 -->
<g id="Node000003" class="node">
<title>Node3</title>
<g id="a_Node000003"><a xlink:href="class_a_q_n_w_b_1_1_i_o_1_1_base_i_o.html#a30d70064c9032688b1a1c961bfe01aa6" target="_top" xlink:title="Closes the file.">
<polygon fill="white" stroke="#666666" points="479.25,-119.5 363.5,-119.5 363.5,-89 479.25,-89 479.25,-119.5"/>
<text xml:space="preserve" text-anchor="start" x="371.5" y="-106" font-family="Helvetica,sans-Serif" font-size="10.00">AQNWB::IO::BaseIO::</text>
<text xml:space="preserve" text-anchor="middle" x="421.38" y="-94.75" font-family="Helvetica,sans-Serif" font-size="10.00">close</text>
</a>
</g>
</g>
<!-- Node2&#45;&gt;Node3 -->
<g id="edge2_Node000002_Node000003" class="edge">
<title>Node2&#45;&gt;Node3</title>
<g id="a_edge2_Node000002_Node000003"><a xlink:title=" ">
<path fill="none" stroke="#63b8ff" d="M327.89,-105.93C335.79,-105.79 343.81,-105.64 351.67,-105.5"/>
<polygon fill="#63b8ff" stroke="#63b8ff" points="351.57,-109 361.51,-105.32 351.45,-102 351.57,-109"/>
</a>
</g>
</g>
<!-- Node4 -->
<g id="Node000004" class="node">
<title>Node4</title>
<g id="a_Node000004"><a xlink:href="class_a_q_n_w_b_1_1_i_o_1_1_base_i_o.html#a942684d24e1384409abc2fa51b09a427" target="_top" xlink:title="Returns the recording objects container for this IO object.">
<polygon fill="white" stroke="#666666" points="631,-73.5 515.25,-73.5 515.25,-43 631,-43 631,-73.5"/>
<text xml:space="preserve" text-anchor="start" x="523.25" y="-60" font-family="Helvetica,sans-Serif" font-size="10.00">AQNWB::IO::BaseIO::</text>
<text xml:space="preserve" text-anchor="middle" x="573.12" y="-48.75" font-family="Helvetica,sans-Serif" font-size="10.00">getRecordingObjects</text>
</a>
</g>
</g>
<!-- Node3&#45;&gt;Node4 -->
<g id="edge3_Node000003_Node000004" class="edge">
<title>Node3&#45;&gt;Node4</title>
<g id="a_edge3_Node000003_Node000004"><a xlink:title=" ">
<path fill="none" stroke="#63b8ff" d="M473.49,-88.55C485.23,-84.94 497.84,-81.07 509.99,-77.34"/>
<polygon fill="#63b8ff" stroke="#63b8ff" points="511.01,-80.69 519.54,-74.4 508.95,-73.99 511.01,-80.69"/>
</a>
</g>
</g>
<!-- Node6 -->
<g id="Node000006" class="node">
<title>Node6</title>
<g id="a_Node000006"><a xlink:href="namespace_a_q_n_w_b.html#a09b9a48d0ec26fe72452788634ee12bb" target="_top" xlink:title="Convert an integer status code to a Types::Status enum value. Shorthand for return (status &lt; 0) ?...">
<polygon fill="white" stroke="#666666" points="476.25,-67.88 366.5,-67.88 366.5,-48.62 476.25,-48.62 476.25,-67.88"/>
<text xml:space="preserve" text-anchor="middle" x="421.38" y="-54.38" font-family="Helvetica,sans-Serif" font-size="10.00">AQNWB::intToStatus</text>
</a>
</g>
</g>
<!-- Node5&#45;&gt;Node6 -->
<g id="edge5_Node000005_Node000006" class="edge">
<title>Node5&#45;&gt;Node6</title>
<g id="a_edge5_Node000005_Node000006"><a xlink:title=" ">
<path fill="none" stroke="#63b8ff" d="M327.89,-58.25C336.78,-58.25 345.84,-58.25 354.63,-58.25"/>
<polygon fill="#63b8ff" stroke="#63b8ff" points="354.49,-61.75 364.49,-58.25 354.49,-54.75 354.49,-61.75"/>
</a>
</g>
</g>
<!-- Node7&#45;&gt;Node4 -->
<g id="edge7_Node000007_Node000004" class="edge">
<title>Node7&#45;&gt;Node4</title>
<g id="a_edge7_Node000007_Node000004"><a xlink:title=" ">
<path fill="none" stroke="#63b8ff" d="M476.86,-30.9C486.46,-33.65 496.55,-36.55 506.41,-39.38"/>
<polygon fill="#63b8ff" stroke="#63b8ff" points="505.4,-42.73 515.97,-42.13 507.33,-36 505.4,-42.73"/>
</a>
</g>
</g>
</g>
</svg>

<g id="navigator" transform="translate(0 0)" fill="#404254">
  <rect fill="#f2f5e9" fill-opacity="0.5" stroke="#606060" stroke-width=".5" x="0" y="0" width="60" height="60"/>
  <use id="zoomplus" xlink:href="#zoomPlus" x="17" y="9" onmousedown="handleZoom(evt,'in')"/>
  <use id="zoomminus" xlink:href="#zoomMin" x="42" y="9" onmousedown="handleZoom(evt,'out')"/>
  <use id="reset" xlink:href="#resetDef" x="30" y="36" onmousedown="handleReset()"/>
   <use id="arrowup" xlink:href="#arrowUp" x="0" y="0" onmousedown="handlePan(0,-1)"/>
  <use id="arrowright" xlink:href="#arrowRight" x="0" y="0" onmousedown="handlePan(1,0)"/>
  <use id="arrowdown" xlink:href="#arrowDown" x="0" y="0" onmousedown="handlePan(0,1)"/>
  <use id="arrowleft" xlink:href="#arrowLeft" x="0" y="0" onmousedown="handlePan(-1,0)"/>
</g>
<svg viewBox="0 0 15 15" width="100%" height="30px" preserveAspectRatio="xMaxYMin meet">
 <g id="arrow_out" transform="scale(0.3 0.3)">
  <a xlink:href="class_a_q_n_w_b_1_1_i_o_1_1_h_d_f5_1_1_h_d_f5_i_o_a0cfc2191ccfc122fa5098d4c4b4117b5_cgraph_org.svg" target="_base">
   <rect id="button" ry="5" rx="5" y="6" x="6" height="38" width="38"
        fill="#f2f5e9" fill-opacity="0.5" stroke="#606060" stroke-width="1.0"/>
   <path id="arrow"
     d="M 11.500037,31.436501 C 11.940474,20.09759 22.043105,11.32322 32.158766,21.979434 L 37.068811,17.246167 C 37.068811,17.246167 37.088388,32 37.088388,32 L 22.160133,31.978069 C 22.160133,31.978069 26.997745,27.140456 26.997745,27.140456 C 18.528582,18.264221 13.291696,25.230495 11.500037,31.436501 z"
     style="fill:#404040;"/>
  </a>
 </g>
</svg>

<style type='text/css'>
<![CDATA[
[data-mouse-over-selected='false'] { opacity: 0.7; }
[data-mouse-over-selected='true']  { opacity: 1.0; }
]]>
</style>
<script type="application/ecmascript"><![CDATA[
document.addEventListener('DOMContentLoaded', (event) => {
  highlightEdges();
  highlightAdjacentNodes();
});
]]></script>
</svg>
