<?xml version="1.0" encoding="UTF-8" standalone="no"?>
<!DOCTYPE svg PUBLIC "-//W3C//DTD SVG 1.1//EN"
 "http://www.w3.org/Graphics/SVG/1.1/DTD/svg11.dtd">
<!-- Generated by graphviz version 12.2.1 (20241206.2353)
 -->
<!-- Title: AQNWB::NWB::RegisteredType::RegisteredType Pages: 1 -->
<!--zoomable 490 -->

<svg id="main" version="1.1" xmlns="http://www.w3.org/2000/svg" xmlns:xlink="http://www.w3.org/1999/xlink" xml:space="preserve" onload="init(evt)">

<style type="text/css"><![CDATA[
.node, .edge {opacity: 0.7;}
.node.selected, .edge.selected {opacity: 1;}
.edge:hover path { stroke: red; }
.edge:hover polygon { stroke: red; fill: red; }
]]></style>

<defs>
  <circle id="rim" cx="0" cy="0" r="7"/>
  <circle id="rim2" cx="0" cy="0" r="3.5"/>
  <g id="zoomPlus">
    <use xlink:href="#rim" fill="#404040"><set attributeName="fill" to="#808080" begin="zoomplus.mouseover" end="zoomplus.mouseout"/></use>
    <path d="M-4,0h8M0,-4v8" fill="none" stroke="white" stroke-width="1.5" pointer-events="none"/>
  </g>
  <g id="zoomMin">
    <use xlink:href="#rim" fill="#404040"><set attributeName="fill" to="#808080" begin="zoomminus.mouseover" end="zoomminus.mouseout"/></use>
    <path d="M-4,0h8" fill="none" stroke="white" stroke-width="1.5" pointer-events="none"/>
  </g>
  <g id="arrowUp" transform="translate(30 24)">
    <use xlink:href="#rim"/>
    <path pointer-events="none" fill="none" stroke="white" stroke-width="1.5" d="M0,-3.0v7 M-2.5,-0.5L0,-3.0L2.5,-0.5"/>
  </g>
  <g id="arrowRight" transform="rotate(90) translate(36 -43)">
    <use xlink:href="#rim"/>
    <path pointer-events="none" fill="none" stroke="white" stroke-width="1.5" d="M0,-3.0v7 M-2.5,-0.5L0,-3.0L2.5,-0.5"/>
  </g>
  <g id="arrowDown" transform="rotate(180) translate(-30 -48)">
    <use xlink:href="#rim"/>
    <path pointer-events="none" fill="none" stroke="white" stroke-width="1.5" d="M0,-3.0v7 M-2.5,-0.5L0,-3.0L2.5,-0.5"/>
  </g>
  <g id="arrowLeft" transform="rotate(270) translate(-36 17)">
    <use xlink:href="#rim"/>
    <path pointer-events="none" fill="none" stroke="white" stroke-width="1.5" d="M0,-3.0v7 M-2.5,-0.5L0,-3.0L2.5,-0.5"/>
  </g>
  <g id="resetDef">
    <use xlink:href="#rim2" fill="#404040"><set attributeName="fill" to="#808080" begin="reset.mouseover" end="reset.mouseout"/></use>
  </g>
</defs>
<script type="application/ecmascript">
var viewWidth = 939;
var viewHeight = 490;
var sectionId = 'dynsection-1';
</script>
<script type="application/ecmascript" xlink:href="svg.min.js"/>
<svg id="graph" class="graph">
<g id="viewport">
<title>AQNWB::NWB::RegisteredType::RegisteredType</title>
<!-- Node1 -->
<g id="Node000001" class="node">
<title>Node1</title>
<g id="a_Node000001"><a xlink:title="Constructor.">
<polygon fill="#999999" stroke="#666666" points="931.25,-273.5 772.75,-273.5 772.75,-243 931.25,-243 931.25,-273.5"/>
<text text-anchor="start" x="780.75" y="-260" font-family="Helvetica,sans-Serif" font-size="10.00">AQNWB::NWB::RegisteredType</text>
<text text-anchor="middle" x="852" y="-248.75" font-family="Helvetica,sans-Serif" font-size="10.00">::RegisteredType</text>
</a>
</g>
</g>
<!-- Node2 -->
<g id="Node000002" class="node">
<title>Node2</title>
<g id="a_Node000002"><a xlink:href="class_a_q_n_w_b_1_1_n_w_b_1_1_container.html#a0ec16ae5d28267ea37464ffe2c2c34e5" target="_top" xlink:title="Constructor.">
<polygon fill="white" stroke="#666666" points="733.75,-304.5 601.5,-304.5 601.5,-274 733.75,-274 733.75,-304.5"/>
<text text-anchor="start" x="609.5" y="-291" font-family="Helvetica,sans-Serif" font-size="10.00">AQNWB::NWB::Container</text>
<text text-anchor="middle" x="667.62" y="-279.75" font-family="Helvetica,sans-Serif" font-size="10.00">::Container</text>
</a>
</g>
</g>
<!-- Node1&#45;&gt;Node2 -->
<g id="edge1_Node000001_Node000002" class="edge">
<title>Node1&#45;&gt;Node2</title>
<g id="a_edge1_Node000001_Node000002"><a xlink:title=" ">
<path fill="none" stroke="#63b8ff" d="M761.24,-273.51C752.12,-275.06 742.97,-276.61 734.18,-278.11"/>
<polygon fill="#63b8ff" stroke="#63b8ff" points="761.57,-277 770.84,-271.88 760.4,-270.1 761.57,-277"/>
</a>
</g>
</g>
<!-- Node18 -->
<g id="Node000018" class="node">
<title>Node18</title>
<g id="a_Node000018"><a xlink:href="class_a_q_n_w_b_1_1_n_w_b_1_1_data.html#ad1917750d0ee4cdd9801ccfc15084b84" target="_top" xlink:title="Constructor.">
<polygon fill="white" stroke="#666666" points="736.75,-237.88 598.5,-237.88 598.5,-218.62 736.75,-218.62 736.75,-237.88"/>
<text text-anchor="middle" x="667.62" y="-224.38" font-family="Helvetica,sans-Serif" font-size="10.00">AQNWB::NWB::Data::Data</text>
</a>
</g>
</g>
<!-- Node1&#45;&gt;Node18 -->
<g id="edge26_Node000001_Node000018" class="edge">
<title>Node1&#45;&gt;Node18</title>
<g id="a_edge26_Node000001_Node000018"><a xlink:title=" ">
<path fill="none" stroke="#63b8ff" d="M760.98,-243.44C750.48,-241.72 739.97,-239.99 729.99,-238.34"/>
<polygon fill="#63b8ff" stroke="#63b8ff" points="760.4,-246.89 770.84,-245.06 761.54,-239.99 760.4,-246.89"/>
</a>
</g>
</g>
<!-- Node2&#45;&gt;Node2 -->
<g id="edge2_Node000002_Node000002" class="edge">
<title>Node2&#45;&gt;Node2</title>
<g id="a_edge2_Node000002_Node000002"><a xlink:title=" ">
<path fill="none" stroke="#63b8ff" d="M698.48,-316.2C693.44,-319.97 683.15,-322.5 667.62,-322.5 639.23,-322.5 628.37,-314.06 635.02,-304.99"/>
<polygon fill="#63b8ff" stroke="#63b8ff" points="701.92,-316.9 700,-306.48 695,-315.82 701.92,-316.9"/>
</a>
</g>
</g>
<!-- Node3 -->
<g id="Node000003" class="node">
<title>Node3</title>
<g id="a_Node000003"><a xlink:href="class_a_q_n_w_b_1_1_n_w_b_1_1_device.html#a2ad7fb2e8436a7accfce35978d962b74" target="_top" xlink:title="Constructor.">
<polygon fill="white" stroke="#666666" points="544.12,-463.5 423.12,-463.5 423.12,-433 544.12,-433 544.12,-463.5"/>
<text text-anchor="start" x="431.12" y="-450" font-family="Helvetica,sans-Serif" font-size="10.00">AQNWB::NWB::Device</text>
<text text-anchor="middle" x="483.62" y="-438.75" font-family="Helvetica,sans-Serif" font-size="10.00">::Device</text>
</a>
</g>
</g>
<!-- Node2&#45;&gt;Node3 -->
<g id="edge3_Node000002_Node000003" class="edge">
<title>Node2&#45;&gt;Node3</title>
<g id="a_edge3_Node000002_Node000003"><a xlink:title=" ">
<path fill="none" stroke="#63b8ff" d="M653.15,-314.76C635.98,-344.89 603.53,-394.55 562.5,-423.25 556.92,-427.16 550.69,-430.48 544.25,-433.29"/>
<polygon fill="#63b8ff" stroke="#63b8ff" points="656.05,-316.74 657.84,-306.3 649.93,-313.35 656.05,-316.74"/>
</a>
</g>
</g>
<!-- Node4 -->
<g id="Node000004" class="node">
<title>Node4</title>
<g id="a_Node000004"><a xlink:href="class_a_q_n_w_b_1_1_n_w_b_1_1_dynamic_table.html#ae46dd68e349804a320408fc289048a10" target="_top" xlink:title="Constructor.">
<polygon fill="white" stroke="#666666" points="559.88,-396.5 407.38,-396.5 407.38,-366 559.88,-366 559.88,-396.5"/>
<text text-anchor="start" x="415.38" y="-383" font-family="Helvetica,sans-Serif" font-size="10.00">AQNWB::NWB::DynamicTable</text>
<text text-anchor="middle" x="483.62" y="-371.75" font-family="Helvetica,sans-Serif" font-size="10.00">::DynamicTable</text>
</a>
</g>
</g>
<!-- Node2&#45;&gt;Node4 -->
<g id="edge5_Node000002_Node000004" class="edge">
<title>Node2&#45;&gt;Node4</title>
<g id="a_edge5_Node000002_Node000004"><a xlink:title=" ">
<path fill="none" stroke="#63b8ff" d="M636.77,-311.45C616.58,-325.7 588.89,-343.79 562.5,-356.25 555.31,-359.65 547.54,-362.75 539.79,-365.53"/>
<polygon fill="#63b8ff" stroke="#63b8ff" points="638.71,-314.36 644.8,-305.69 634.64,-308.67 638.71,-314.36"/>
</a>
</g>
</g>
<!-- Node7 -->
<g id="Node000007" class="node">
<title>Node7</title>
<g id="a_Node000007"><a xlink:href="class_a_q_n_w_b_1_1_n_w_b_1_1_electrode_group.html#a7cfae9f37d17f90486921d0b6445a9cd" target="_top" xlink:title="Constructor.">
<polygon fill="white" stroke="#666666" points="562.5,-329.5 404.75,-329.5 404.75,-299 562.5,-299 562.5,-329.5"/>
<text text-anchor="start" x="412.75" y="-316" font-family="Helvetica,sans-Serif" font-size="10.00">AQNWB::NWB::ElectrodeGroup</text>
<text text-anchor="middle" x="483.62" y="-304.75" font-family="Helvetica,sans-Serif" font-size="10.00">::ElectrodeGroup</text>
</a>
</g>
</g>
<!-- Node2&#45;&gt;Node7 -->
<g id="edge10_Node000002_Node000007" class="edge">
<title>Node2&#45;&gt;Node7</title>
<g id="a_edge10_Node000002_Node000007"><a xlink:title=" ">
<path fill="none" stroke="#63b8ff" d="M589.95,-299.78C580.98,-301.01 571.82,-302.27 562.84,-303.51"/>
<polygon fill="#63b8ff" stroke="#63b8ff" points="590.25,-303.27 599.68,-298.45 589.29,-296.34 590.25,-303.27"/>
</a>
</g>
</g>
<!-- Node8 -->
<g id="Node000008" class="node">
<title>Node8</title>
<g id="a_Node000008"><a xlink:href="class_a_q_n_w_b_1_1_n_w_b_1_1_n_w_b_file.html#af62a01f10675b8fdd310f60f48cf23fe" target="_top" xlink:title="Required constructor so we can call RegisteredType::create but the path cannot be set.">
<polygon fill="white" stroke="#666666" points="548.62,-280.5 418.62,-280.5 418.62,-250 548.62,-250 548.62,-280.5"/>
<text text-anchor="start" x="426.62" y="-267" font-family="Helvetica,sans-Serif" font-size="10.00">AQNWB::NWB::NWBFile</text>
<text text-anchor="middle" x="483.62" y="-255.75" font-family="Helvetica,sans-Serif" font-size="10.00">::NWBFile</text>
</a>
</g>
</g>
<!-- Node2&#45;&gt;Node8 -->
<g id="edge12_Node000002_Node000008" class="edge">
<title>Node2&#45;&gt;Node8</title>
<g id="a_edge12_Node000002_Node000008"><a xlink:title=" ">
<path fill="none" stroke="#63b8ff" d="M589.85,-279.13C576.21,-277.33 562.13,-275.47 548.88,-273.72"/>
<polygon fill="#63b8ff" stroke="#63b8ff" points="589.3,-282.58 599.68,-280.42 590.22,-275.64 589.3,-282.58"/>
</a>
</g>
</g>
<!-- Node9 -->
<g id="Node000009" class="node">
<title>Node9</title>
<g id="a_Node000009"><a xlink:href="class_a_q_n_w_b_1_1_n_w_b_1_1_n_w_b_file.html#a277f89c64204a61491bb26ad309186f3" target="_top" xlink:title="Constructor for NWBFile class.">
<polygon fill="white" stroke="#666666" points="548.62,-213.5 418.62,-213.5 418.62,-183 548.62,-183 548.62,-213.5"/>
<text text-anchor="start" x="426.62" y="-200" font-family="Helvetica,sans-Serif" font-size="10.00">AQNWB::NWB::NWBFile</text>
<text text-anchor="middle" x="483.62" y="-188.75" font-family="Helvetica,sans-Serif" font-size="10.00">::NWBFile</text>
</a>
</g>
</g>
<!-- Node2&#45;&gt;Node9 -->
<g id="edge13_Node000002_Node000009" class="edge">
<title>Node2&#45;&gt;Node9</title>
<g id="a_edge13_Node000002_Node000009"><a xlink:title=" ">
<path fill="none" stroke="#63b8ff" d="M606.82,-269.16C603.98,-267.9 601.19,-266.6 598.5,-265.25 581.3,-256.66 578.93,-251.24 562.5,-241.25 546.8,-231.7 528.86,-221.74 514.17,-213.81"/>
<polygon fill="#63b8ff" stroke="#63b8ff" points="605.29,-272.31 615.87,-272.93 607.99,-265.85 605.29,-272.31"/>
</a>
</g>
</g>
<!-- Node12 -->
<g id="Node000012" class="node">
<title>Node12</title>
<g id="a_Node000012"><a xlink:href="class_a_q_n_w_b_1_1_n_w_b_1_1_time_series.html#a523738fd2da4b70707e4ee6844cdce02" target="_top" xlink:title="Constructor.">
<polygon fill="white" stroke="#666666" points="553.5,-113.5 413.75,-113.5 413.75,-83 553.5,-83 553.5,-113.5"/>
<text text-anchor="start" x="421.75" y="-100" font-family="Helvetica,sans-Serif" font-size="10.00">AQNWB::NWB::TimeSeries</text>
<text text-anchor="middle" x="483.62" y="-88.75" font-family="Helvetica,sans-Serif" font-size="10.00">::TimeSeries</text>
</a>
</g>
</g>
<!-- Node2&#45;&gt;Node12 -->
<g id="edge17_Node000002_Node000012" class="edge">
<title>Node2&#45;&gt;Node12</title>
<g id="a_edge17_Node000002_Node000012"><a xlink:title=" ">
<path fill="none" stroke="#63b8ff" d="M600.43,-267.02C599.77,-266.44 599.13,-265.85 598.5,-265.25 567.17,-235.08 586.6,-210.46 562.5,-174.25 546.59,-150.34 522.12,-128.03 504.86,-113.85"/>
<polygon fill="#63b8ff" stroke="#63b8ff" points="598.3,-269.8 608.47,-272.79 602.39,-264.11 598.3,-269.8"/>
</a>
</g>
</g>
<!-- Node3&#45;&gt;Node3 -->
<g id="edge4_Node000003_Node000003" class="edge">
<title>Node3&#45;&gt;Node3</title>
<g id="a_edge4_Node000003_Node000003"><a xlink:title=" ">
<path fill="none" stroke="#63b8ff" d="M514.48,-475.2C509.44,-478.97 499.15,-481.5 483.62,-481.5 455.23,-481.5 444.37,-473.06 451.02,-463.99"/>
<polygon fill="#63b8ff" stroke="#63b8ff" points="517.92,-475.9 516,-465.48 511,-474.82 517.92,-475.9"/>
</a>
</g>
</g>
<!-- Node4&#45;&gt;Node4 -->
<g id="edge6_Node000004_Node000004" class="edge">
<title>Node4&#45;&gt;Node4</title>
<g id="a_edge6_Node000004_Node000004"><a xlink:title=" ">
<path fill="none" stroke="#63b8ff" d="M514.48,-408.2C509.44,-411.97 499.15,-414.5 483.62,-414.5 455.23,-414.5 444.37,-406.06 451.02,-396.99"/>
<polygon fill="#63b8ff" stroke="#63b8ff" points="517.92,-408.9 516,-398.48 511,-407.82 517.92,-408.9"/>
</a>
</g>
</g>
<!-- Node5 -->
<g id="Node000005" class="node">
<title>Node5</title>
<g id="a_Node000005"><a xlink:href="class_a_q_n_w_b_1_1_n_w_b_1_1_electrode_table.html#ab1c5db466e0cb350012b03253dff424a" target="_top" xlink:title=" ">
<polygon fill="white" stroke="#666666" points="363.88,-430.5 209.12,-430.5 209.12,-400 363.88,-400 363.88,-430.5"/>
<text text-anchor="start" x="217.12" y="-417" font-family="Helvetica,sans-Serif" font-size="10.00">AQNWB::NWB::ElectrodeTable</text>
<text text-anchor="middle" x="286.5" y="-405.75" font-family="Helvetica,sans-Serif" font-size="10.00">::ElectrodeTable</text>
</a>
</g>
</g>
<!-- Node4&#45;&gt;Node5 -->
<g id="edge7_Node000004_Node000005" class="edge">
<title>Node4&#45;&gt;Node5</title>
<g id="a_edge7_Node000004_Node000005"><a xlink:title=" ">
<path fill="none" stroke="#63b8ff" d="M395.61,-396.41C385.12,-398.24 374.47,-400.1 364.14,-401.9"/>
<polygon fill="#63b8ff" stroke="#63b8ff" points="396.16,-399.87 405.41,-394.7 394.96,-392.97 396.16,-399.87"/>
</a>
</g>
</g>
<!-- Node6 -->
<g id="Node000006" class="node">
<title>Node6</title>
<g id="a_Node000006"><a xlink:href="class_a_q_n_w_b_1_1_n_w_b_1_1_electrode_table.html#a0d66d1ec3b341bb3132be86279d9f4c6" target="_top" xlink:title="Constructor.">
<polygon fill="white" stroke="#666666" points="363.88,-363.5 209.12,-363.5 209.12,-333 363.88,-333 363.88,-363.5"/>
<text text-anchor="start" x="217.12" y="-350" font-family="Helvetica,sans-Serif" font-size="10.00">AQNWB::NWB::ElectrodeTable</text>
<text text-anchor="middle" x="286.5" y="-338.75" font-family="Helvetica,sans-Serif" font-size="10.00">::ElectrodeTable</text>
</a>
</g>
</g>
<!-- Node4&#45;&gt;Node6 -->
<g id="edge8_Node000004_Node000006" class="edge">
<title>Node4&#45;&gt;Node6</title>
<g id="a_edge8_Node000004_Node000006"><a xlink:title=" ">
<path fill="none" stroke="#63b8ff" d="M395.61,-366.53C385.12,-364.76 374.47,-362.96 364.14,-361.21"/>
<polygon fill="#63b8ff" stroke="#63b8ff" points="394.97,-369.98 405.41,-368.19 396.14,-363.07 394.97,-369.98"/>
</a>
</g>
</g>
<!-- Node6&#45;&gt;Node6 -->
<g id="edge9_Node000006_Node000006" class="edge">
<title>Node6&#45;&gt;Node6</title>
<g id="a_edge9_Node000006_Node000006"><a xlink:title=" ">
<path fill="none" stroke="#63b8ff" d="M319.56,-375.2C314.15,-378.97 303.13,-381.5 286.5,-381.5 256.08,-381.5 244.44,-373.06 251.57,-363.99"/>
<polygon fill="#63b8ff" stroke="#63b8ff" points="322.99,-375.92 321.18,-365.48 316.08,-374.77 322.99,-375.92"/>
</a>
</g>
</g>
<!-- Node7&#45;&gt;Node7 -->
<g id="edge11_Node000007_Node000007" class="edge">
<title>Node7&#45;&gt;Node7</title>
<g id="a_edge11_Node000007_Node000007"><a xlink:title=" ">
<path fill="none" stroke="#63b8ff" d="M514.48,-341.2C509.44,-344.97 499.15,-347.5 483.62,-347.5 455.23,-347.5 444.37,-339.06 451.02,-329.99"/>
<polygon fill="#63b8ff" stroke="#63b8ff" points="517.92,-341.9 516,-331.48 511,-340.82 517.92,-341.9"/>
</a>
</g>
</g>
<!-- Node9&#45;&gt;Node9 -->
<g id="edge15_Node000009_Node000009" class="edge">
<title>Node9&#45;&gt;Node9</title>
<g id="a_edge15_Node000009_Node000009"><a xlink:title=" ">
<path fill="none" stroke="#63b8ff" d="M514.48,-225.2C509.44,-228.97 499.15,-231.5 483.62,-231.5 455.23,-231.5 444.37,-223.06 451.02,-213.99"/>
<polygon fill="#63b8ff" stroke="#63b8ff" points="517.92,-225.9 516,-215.48 511,-224.82 517.92,-225.9"/>
</a>
</g>
</g>
<!-- Node10 -->
<g id="Node000010" class="node">
<title>Node10</title>
<g id="a_Node000010"><a xlink:href="class_a_q_n_w_b_1_1_n_w_b_1_1_n_w_b_file.html#a4639155769006a79b189cdb7634bbaa5" target="_top" xlink:title="Deleted copy constructor to prevent construction&#45;copying.">
<polygon fill="white" stroke="#666666" points="351.5,-262.5 221.5,-262.5 221.5,-232 351.5,-232 351.5,-262.5"/>
<text text-anchor="start" x="229.5" y="-249" font-family="Helvetica,sans-Serif" font-size="10.00">AQNWB::NWB::NWBFile</text>
<text text-anchor="middle" x="286.5" y="-237.75" font-family="Helvetica,sans-Serif" font-size="10.00">::NWBFile</text>
</a>
</g>
</g>
<!-- Node9&#45;&gt;Node10 -->
<g id="edge14_Node000009_Node000010" class="edge">
<title>Node9&#45;&gt;Node10</title>
<g id="a_edge14_Node000009_Node000010"><a xlink:title=" ">
<path fill="none" stroke="#63b8ff" d="M409.12,-216.71C389.66,-221.6 368.84,-226.82 350.02,-231.55"/>
<polygon fill="#63b8ff" stroke="#63b8ff" points="409.77,-220.15 418.61,-214.32 408.06,-213.37 409.77,-220.15"/>
</a>
</g>
</g>
<!-- Node11 -->
<g id="Node000011" class="node">
<title>Node11</title>
<g id="a_Node000011"><a xlink:href="class_a_q_n_w_b_1_1_n_w_b_1_1_n_w_b_file.html#a941d5b775441fac6c787cd55a8276461" target="_top" xlink:title="Deleted copy assignment operator to prevent copying.">
<polygon fill="white" stroke="#666666" points="351.5,-213.5 221.5,-213.5 221.5,-183 351.5,-183 351.5,-213.5"/>
<text text-anchor="start" x="229.5" y="-200" font-family="Helvetica,sans-Serif" font-size="10.00">AQNWB::NWB::NWBFile</text>
<text text-anchor="middle" x="286.5" y="-188.75" font-family="Helvetica,sans-Serif" font-size="10.00">::operator=</text>
</a>
</g>
</g>
<!-- Node9&#45;&gt;Node11 -->
<g id="edge16_Node000009_Node000011" class="edge">
<title>Node9&#45;&gt;Node11</title>
<g id="a_edge16_Node000009_Node000011"><a xlink:title=" ">
<path fill="none" stroke="#63b8ff" d="M406.76,-198.25C388.62,-198.25 369.43,-198.25 351.86,-198.25"/>
<polygon fill="#63b8ff" stroke="#63b8ff" points="406.68,-201.75 416.68,-198.25 406.68,-194.75 406.68,-201.75"/>
</a>
</g>
</g>
<!-- Node13 -->
<g id="Node000013" class="node">
<title>Node13</title>
<g id="a_Node000013"><a xlink:href="class_a_q_n_w_b_1_1_n_w_b_1_1_annotation_series.html#ab98f231850a75a82fade2234e8606359" target="_top" xlink:title="Constructor.">
<polygon fill="white" stroke="#666666" points="368.75,-146.5 204.25,-146.5 204.25,-116 368.75,-116 368.75,-146.5"/>
<text text-anchor="start" x="212.25" y="-133" font-family="Helvetica,sans-Serif" font-size="10.00">AQNWB::NWB::AnnotationSeries</text>
<text text-anchor="middle" x="286.5" y="-121.75" font-family="Helvetica,sans-Serif" font-size="10.00">::AnnotationSeries</text>
</a>
</g>
</g>
<!-- Node12&#45;&gt;Node13 -->
<g id="edge18_Node000012_Node000013" class="edge">
<title>Node12&#45;&gt;Node13</title>
<g id="a_edge18_Node000012_Node000013"><a xlink:title=" ">
<path fill="none" stroke="#63b8ff" d="M402.03,-111.88C391.11,-113.73 379.89,-115.62 368.95,-117.47"/>
<polygon fill="#63b8ff" stroke="#63b8ff" points="402.51,-115.35 411.79,-110.23 401.35,-108.45 402.51,-115.35"/>
</a>
</g>
</g>
<!-- Node14 -->
<g id="Node000014" class="node">
<title>Node14</title>
<g id="a_Node000014"><a xlink:href="class_a_q_n_w_b_1_1_n_w_b_1_1_electrical_series.html#a684a7b01cb955d7335f07d5eaab2250b" target="_top" xlink:title="Constructor.">
<polygon fill="white" stroke="#666666" points="365.75,-79.5 207.25,-79.5 207.25,-49 365.75,-49 365.75,-79.5"/>
<text text-anchor="start" x="215.25" y="-66" font-family="Helvetica,sans-Serif" font-size="10.00">AQNWB::NWB::ElectricalSeries</text>
<text text-anchor="middle" x="286.5" y="-54.75" font-family="Helvetica,sans-Serif" font-size="10.00">::ElectricalSeries</text>
</a>
</g>
</g>
<!-- Node12&#45;&gt;Node14 -->
<g id="edge20_Node000012_Node000014" class="edge">
<title>Node12&#45;&gt;Node14</title>
<g id="a_edge20_Node000012_Node000014"><a xlink:title=" ">
<path fill="none" stroke="#63b8ff" d="M401.98,-84.2C390.07,-82.12 377.8,-79.98 365.92,-77.92"/>
<polygon fill="#63b8ff" stroke="#63b8ff" points="401.34,-87.64 411.79,-85.91 402.54,-80.74 401.34,-87.64"/>
</a>
</g>
</g>
<!-- Node16 -->
<g id="Node000016" class="node">
<title>Node16</title>
<g id="a_Node000016"><a xlink:href="class_a_q_n_w_b_1_1_n_w_b_1_1_time_series.html#ab2eeb7e016b23097674627251e5e5ac7" target="_top" xlink:title=" ">
<polygon fill="white" stroke="#666666" points="356.38,-30.5 216.62,-30.5 216.62,0 356.38,0 356.38,-30.5"/>
<text text-anchor="start" x="224.62" y="-17" font-family="Helvetica,sans-Serif" font-size="10.00">AQNWB::NWB::TimeSeries</text>
<text text-anchor="middle" x="286.5" y="-5.75" font-family="Helvetica,sans-Serif" font-size="10.00">::readComments</text>
</a>
</g>
</g>
<!-- Node12&#45;&gt;Node16 -->
<g id="edge24_Node000012_Node000016" class="edge">
<title>Node12&#45;&gt;Node16</title>
<g id="a_edge24_Node000012_Node000016"><a xlink:title=" ">
<path fill="none" stroke="#63b8ff" d="M445.31,-77.18C423.44,-65.36 395.02,-50.89 368.75,-40.25 360.54,-36.93 351.72,-33.79 343.02,-30.93"/>
<polygon fill="#63b8ff" stroke="#63b8ff" points="443.39,-80.12 453.85,-81.85 446.75,-73.98 443.39,-80.12"/>
</a>
</g>
</g>
<!-- Node13&#45;&gt;Node13 -->
<g id="edge19_Node000013_Node000013" class="edge">
<title>Node13&#45;&gt;Node13</title>
<g id="a_edge19_Node000013_Node000013"><a xlink:title=" ">
<path fill="none" stroke="#63b8ff" d="M319.56,-158.2C314.15,-161.97 303.13,-164.5 286.5,-164.5 256.08,-164.5 244.44,-156.06 251.57,-146.99"/>
<polygon fill="#63b8ff" stroke="#63b8ff" points="322.99,-158.92 321.18,-148.48 316.08,-157.77 322.99,-158.92"/>
</a>
</g>
</g>
<!-- Node14&#45;&gt;Node14 -->
<g id="edge21_Node000014_Node000014" class="edge">
<title>Node14&#45;&gt;Node14</title>
<g id="a_edge21_Node000014_Node000014"><a xlink:title=" ">
<path fill="none" stroke="#63b8ff" d="M319.56,-91.2C314.15,-94.97 303.13,-97.5 286.5,-97.5 256.08,-97.5 244.44,-89.06 251.57,-79.99"/>
<polygon fill="#63b8ff" stroke="#63b8ff" points="322.99,-91.92 321.18,-81.48 316.08,-90.77 322.99,-91.92"/>
</a>
</g>
</g>
<!-- Node15 -->
<g id="Node000015" class="node">
<title>Node15</title>
<g id="a_Node000015"><a xlink:href="class_a_q_n_w_b_1_1_n_w_b_1_1_spike_event_series.html#af5b323ae3afbdf308f151cf233b2c0db" target="_top" xlink:title="Constructor.">
<polygon fill="white" stroke="#666666" points="168.25,-79.5 0,-79.5 0,-49 168.25,-49 168.25,-79.5"/>
<text text-anchor="start" x="8" y="-66" font-family="Helvetica,sans-Serif" font-size="10.00">AQNWB::NWB::SpikeEventSeries</text>
<text text-anchor="middle" x="84.12" y="-54.75" font-family="Helvetica,sans-Serif" font-size="10.00">::SpikeEventSeries</text>
</a>
</g>
</g>
<!-- Node14&#45;&gt;Node15 -->
<g id="edge22_Node000014_Node000015" class="edge">
<title>Node14&#45;&gt;Node15</title>
<g id="a_edge22_Node000014_Node000015"><a xlink:title=" ">
<path fill="none" stroke="#63b8ff" d="M195.55,-64.25C186.54,-64.25 177.41,-64.25 168.47,-64.25"/>
<polygon fill="#63b8ff" stroke="#63b8ff" points="195.37,-67.75 205.37,-64.25 195.37,-60.75 195.37,-67.75"/>
</a>
</g>
</g>
<!-- Node15&#45;&gt;Node15 -->
<g id="edge23_Node000015_Node000015" class="edge">
<title>Node15&#45;&gt;Node15</title>
<g id="a_edge23_Node000015_Node000015"><a xlink:title=" ">
<path fill="none" stroke="#63b8ff" d="M118.06,-91.2C112.51,-94.97 101.2,-97.5 84.12,-97.5 52.9,-97.5 40.95,-89.06 48.26,-79.99"/>
<polygon fill="#63b8ff" stroke="#63b8ff" points="121.49,-91.93 119.73,-81.48 114.59,-90.74 121.49,-91.93"/>
</a>
</g>
</g>
<!-- Node17 -->
<g id="Node000017" class="node">
<title>Node17</title>
<g id="a_Node000017"><a xlink:href="class_a_q_n_w_b_1_1_n_w_b_1_1_time_series.html#ae2a561b2f5a56f86f8794bdfdd07f422" target="_top" xlink:title=" ">
<polygon fill="white" stroke="#666666" points="154,-30.5 14.25,-30.5 14.25,0 154,0 154,-30.5"/>
<text text-anchor="start" x="22.25" y="-17" font-family="Helvetica,sans-Serif" font-size="10.00">AQNWB::NWB::TimeSeries</text>
<text text-anchor="middle" x="84.12" y="-5.75" font-family="Helvetica,sans-Serif" font-size="10.00">::readDescription</text>
</a>
</g>
</g>
<!-- Node16&#45;&gt;Node17 -->
<g id="edge25_Node000016_Node000017" class="edge">
<title>Node16&#45;&gt;Node17</title>
<g id="a_edge25_Node000016_Node000017"><a xlink:title=" ">
<path fill="none" stroke="#63b8ff" d="M204.83,-15.25C188.11,-15.25 170.63,-15.25 154.37,-15.25"/>
<polygon fill="#63b8ff" stroke="#63b8ff" points="204.75,-18.75 214.75,-15.25 204.75,-11.75 204.75,-18.75"/>
</a>
</g>
</g>
<!-- Node18&#45;&gt;Node18 -->
<g id="edge27_Node000018_Node000018" class="edge">
<title>Node18&#45;&gt;Node18</title>
<g id="a_edge27_Node000018_Node000018"><a xlink:title=" ">
<path fill="none" stroke="#63b8ff" d="M700.92,-248.6C697.42,-252.83 686.32,-255.88 667.62,-255.88 635.28,-255.88 625.68,-246.77 638.82,-238.16"/>
<polygon fill="#63b8ff" stroke="#63b8ff" points="704.19,-247.36 697.03,-239.55 697.76,-250.12 704.19,-247.36"/>
</a>
</g>
</g>
</g>
</svg>

<g id="navigator" transform="translate(0 0)" fill="#404254">
  <rect fill="#f2f5e9" fill-opacity="0.5" stroke="#606060" stroke-width=".5" x="0" y="0" width="60" height="60"/>
  <use id="zoomplus" xlink:href="#zoomPlus" x="17" y="9" onmousedown="handleZoom(evt,'in')"/>
  <use id="zoomminus" xlink:href="#zoomMin" x="42" y="9" onmousedown="handleZoom(evt,'out')"/>
  <use id="reset" xlink:href="#resetDef" x="30" y="36" onmousedown="handleReset()"/>
   <use id="arrowup" xlink:href="#arrowUp" x="0" y="0" onmousedown="handlePan(0,-1)"/>
  <use id="arrowright" xlink:href="#arrowRight" x="0" y="0" onmousedown="handlePan(1,0)"/>
  <use id="arrowdown" xlink:href="#arrowDown" x="0" y="0" onmousedown="handlePan(0,1)"/>
  <use id="arrowleft" xlink:href="#arrowLeft" x="0" y="0" onmousedown="handlePan(-1,0)"/>
</g>
<svg viewBox="0 0 15 15" width="100%" height="30px" preserveAspectRatio="xMaxYMin meet">
 <g id="arrow_out" transform="scale(0.3 0.3)">
  <a xlink:href="class_a_q_n_w_b_1_1_n_w_b_1_1_registered_type_a4e2e5496f7c318307bfc2addfc68c859_icgraph_org.svg" target="_base">
   <rect id="button" ry="5" rx="5" y="6" x="6" height="38" width="38"
        fill="#f2f5e9" fill-opacity="0.5" stroke="#606060" stroke-width="1.0"/>
   <path id="arrow"
     d="M 11.500037,31.436501 C 11.940474,20.09759 22.043105,11.32322 32.158766,21.979434 L 37.068811,17.246167 C 37.068811,17.246167 37.088388,32 37.088388,32 L 22.160133,31.978069 C 22.160133,31.978069 26.997745,27.140456 26.997745,27.140456 C 18.528582,18.264221 13.291696,25.230495 11.500037,31.436501 z"
     style="fill:#404040;"/>
  </a>
 </g>
</svg>

<style type='text/css'>
<![CDATA[
[data-mouse-over-selected='false'] { opacity: 0.7; }
[data-mouse-over-selected='true']  { opacity: 1.0; }
]]>
</style>
<script type="application/ecmascript"><![CDATA[
document.addEventListener('DOMContentLoaded', (event) => {
  highlightEdges();
  highlightAdjacentNodes();
});
]]></script>
</svg>
