<?xml version="1.0" encoding="UTF-8" standalone="no"?>
<!DOCTYPE svg PUBLIC "-//W3C//DTD SVG 1.1//EN"
 "http://www.w3.org/Graphics/SVG/1.1/DTD/svg11.dtd">
<!-- Generated by graphviz version 12.2.1 (20241206.2353)
 -->
<!-- Title: AQNWB::NWB::RegisteredType::RegisteredType Pages: 1 -->
<!--zoomable 617 -->

<svg id="main" version="1.1" xmlns="http://www.w3.org/2000/svg" xmlns:xlink="http://www.w3.org/1999/xlink" xml:space="preserve" onload="init(evt)">

<style type="text/css"><![CDATA[
.node, .edge {opacity: 0.7;}
.node.selected, .edge.selected {opacity: 1;}
.edge:hover path { stroke: red; }
.edge:hover polygon { stroke: red; fill: red; }
]]></style>

<defs>
  <circle id="rim" cx="0" cy="0" r="7"/>
  <circle id="rim2" cx="0" cy="0" r="3.5"/>
  <g id="zoomPlus">
    <use xlink:href="#rim" fill="#404040"><set attributeName="fill" to="#808080" begin="zoomplus.mouseover" end="zoomplus.mouseout"/></use>
    <path d="M-4,0h8M0,-4v8" fill="none" stroke="white" stroke-width="1.5" pointer-events="none"/>
  </g>
  <g id="zoomMin">
    <use xlink:href="#rim" fill="#404040"><set attributeName="fill" to="#808080" begin="zoomminus.mouseover" end="zoomminus.mouseout"/></use>
    <path d="M-4,0h8" fill="none" stroke="white" stroke-width="1.5" pointer-events="none"/>
  </g>
  <g id="arrowUp" transform="translate(30 24)">
    <use xlink:href="#rim"/>
    <path pointer-events="none" fill="none" stroke="white" stroke-width="1.5" d="M0,-3.0v7 M-2.5,-0.5L0,-3.0L2.5,-0.5"/>
  </g>
  <g id="arrowRight" transform="rotate(90) translate(36 -43)">
    <use xlink:href="#rim"/>
    <path pointer-events="none" fill="none" stroke="white" stroke-width="1.5" d="M0,-3.0v7 M-2.5,-0.5L0,-3.0L2.5,-0.5"/>
  </g>
  <g id="arrowDown" transform="rotate(180) translate(-30 -48)">
    <use xlink:href="#rim"/>
    <path pointer-events="none" fill="none" stroke="white" stroke-width="1.5" d="M0,-3.0v7 M-2.5,-0.5L0,-3.0L2.5,-0.5"/>
  </g>
  <g id="arrowLeft" transform="rotate(270) translate(-36 17)">
    <use xlink:href="#rim"/>
    <path pointer-events="none" fill="none" stroke="white" stroke-width="1.5" d="M0,-3.0v7 M-2.5,-0.5L0,-3.0L2.5,-0.5"/>
  </g>
  <g id="resetDef">
    <use xlink:href="#rim2" fill="#404040"><set attributeName="fill" to="#808080" begin="reset.mouseover" end="reset.mouseout"/></use>
  </g>
</defs>
<script type="application/ecmascript">
var viewWidth = 952;
var viewHeight = 617;
var sectionId = 'dynsection-1';
</script>
<script type="application/ecmascript" xlink:href="svg.min.js"/>
<svg id="graph" class="graph">
<g id="viewport">
<title>AQNWB::NWB::RegisteredType::RegisteredType</title>
<!-- Node1 -->
<g id="Node000001" class="node">
<title>Node1</title>
<g id="a_Node000001"><a xlink:title="Constructor.">
<polygon fill="#999999" stroke="#666666" points="944,-286.5 785.5,-286.5 785.5,-256 944,-256 944,-286.5"/>
<text text-anchor="start" x="793.5" y="-273" font-family="Helvetica,sans-Serif" font-size="10.00">AQNWB::NWB::RegisteredType</text>
<text text-anchor="middle" x="864.75" y="-261.75" font-family="Helvetica,sans-Serif" font-size="10.00">::RegisteredType</text>
</a>
</g>
</g>
<!-- Node2 -->
<g id="Node000002" class="node">
<title>Node2</title>
<g id="a_Node000002"><a xlink:href="class_a_q_n_w_b_1_1_n_w_b_1_1_container.html#a0ec16ae5d28267ea37464ffe2c2c34e5" target="_top" xlink:title="Constructor.">
<polygon fill="white" stroke="#666666" points="746.5,-407.5 614.25,-407.5 614.25,-377 746.5,-377 746.5,-407.5"/>
<text text-anchor="start" x="622.25" y="-394" font-family="Helvetica,sans-Serif" font-size="10.00">AQNWB::NWB::Container</text>
<text text-anchor="middle" x="680.38" y="-382.75" font-family="Helvetica,sans-Serif" font-size="10.00">::Container</text>
</a>
</g>
</g>
<!-- Node1&#45;&gt;Node2 -->
<g id="edge1_Node000001_Node000002" class="edge">
<title>Node1&#45;&gt;Node2</title>
<g id="a_edge1_Node000001_Node000002"><a xlink:title=" ">
<path fill="none" stroke="#63b8ff" d="M831.11,-292.91C794.85,-316.96 737.21,-355.21 705.04,-376.55"/>
<polygon fill="#63b8ff" stroke="#63b8ff" points="832.62,-296.1 839.02,-287.66 828.75,-290.27 832.62,-296.1"/>
</a>
</g>
</g>
<!-- Node18 -->
<g id="Node000018" class="node">
<title>Node18</title>
<g id="a_Node000018"><a xlink:href="class_a_q_n_w_b_1_1_n_w_b_1_1_data.html#ac0a68f39a709b9096ce797bce18c668f" target="_top" xlink:title="Constructor.">
<polygon fill="white" stroke="#666666" points="749.5,-164.88 611.25,-164.88 611.25,-145.62 749.5,-145.62 749.5,-164.88"/>
<text text-anchor="middle" x="680.38" y="-151.38" font-family="Helvetica,sans-Serif" font-size="10.00">AQNWB::NWB::Data::Data</text>
</a>
</g>
</g>
<!-- Node1&#45;&gt;Node18 -->
<g id="edge26_Node000001_Node000018" class="edge">
<title>Node1&#45;&gt;Node18</title>
<g id="a_edge26_Node000001_Node000018"><a xlink:title=" ">
<path fill="none" stroke="#63b8ff" d="M829.63,-249.55C790,-224.34 726.32,-183.84 697.03,-165.21"/>
<polygon fill="#63b8ff" stroke="#63b8ff" points="827.56,-252.38 837.88,-254.79 831.32,-246.47 827.56,-252.38"/>
</a>
</g>
</g>
<!-- Node2&#45;&gt;Node2 -->
<g id="edge2_Node000002_Node000002" class="edge">
<title>Node2&#45;&gt;Node2</title>
<g id="a_edge2_Node000002_Node000002"><a xlink:title=" ">
<path fill="none" stroke="#63b8ff" d="M711.29,-419.2C706.24,-422.97 695.93,-425.5 680.38,-425.5 651.93,-425.5 641.04,-417.06 647.7,-407.99"/>
<polygon fill="#63b8ff" stroke="#63b8ff" points="714.73,-419.9 712.81,-409.48 707.81,-418.82 714.73,-419.9"/>
</a>
</g>
</g>
<!-- Node3 -->
<g id="Node000003" class="node">
<title>Node3</title>
<g id="a_Node000003"><a xlink:href="class_a_q_n_w_b_1_1_n_w_b_1_1_device.html#a2ad7fb2e8436a7accfce35978d962b74" target="_top" xlink:title="Constructor.">
<polygon fill="white" stroke="#666666" points="551.25,-590.5 430.25,-590.5 430.25,-560 551.25,-560 551.25,-590.5"/>
<text text-anchor="start" x="438.25" y="-577" font-family="Helvetica,sans-Serif" font-size="10.00">AQNWB::NWB::Device</text>
<text text-anchor="middle" x="490.75" y="-565.75" font-family="Helvetica,sans-Serif" font-size="10.00">::Device</text>
</a>
</g>
</g>
<!-- Node2&#45;&gt;Node3 -->
<g id="edge3_Node000002_Node000003" class="edge">
<title>Node2&#45;&gt;Node3</title>
<g id="a_edge3_Node000002_Node000003"><a xlink:title=" ">
<path fill="none" stroke="#63b8ff" d="M669.04,-418.27C653.77,-453.4 621.87,-515.58 575.25,-550.25 568.21,-555.49 560.07,-559.64 551.7,-562.92"/>
<polygon fill="#63b8ff" stroke="#63b8ff" points="672.17,-419.86 672.82,-409.28 665.72,-417.14 672.17,-419.86"/>
</a>
</g>
</g>
<!-- Node4 -->
<g id="Node000004" class="node">
<title>Node4</title>
<g id="a_Node000004"><a xlink:href="class_a_q_n_w_b_1_1_n_w_b_1_1_dynamic_table.html#a6b2079337b08a6e265eeb6e39889e55b" target="_top" xlink:title="Constructor.">
<polygon fill="white" stroke="#666666" points="567,-523.5 414.5,-523.5 414.5,-493 567,-493 567,-523.5"/>
<text text-anchor="start" x="422.5" y="-510" font-family="Helvetica,sans-Serif" font-size="10.00">AQNWB::NWB::DynamicTable</text>
<text text-anchor="middle" x="490.75" y="-498.75" font-family="Helvetica,sans-Serif" font-size="10.00">::DynamicTable</text>
</a>
</g>
</g>
<!-- Node2&#45;&gt;Node4 -->
<g id="edge5_Node000002_Node000004" class="edge">
<title>Node2&#45;&gt;Node4</title>
<g id="a_edge5_Node000002_Node000004"><a xlink:title=" ">
<path fill="none" stroke="#63b8ff" d="M658.04,-415.92C638.37,-436.41 607.43,-465.48 575.25,-483.25 568.89,-486.76 561.98,-489.83 554.95,-492.51"/>
<polygon fill="#63b8ff" stroke="#63b8ff" points="660.41,-418.5 664.71,-408.82 655.31,-413.71 660.41,-418.5"/>
</a>
</g>
</g>
<!-- Node7 -->
<g id="Node000007" class="node">
<title>Node7</title>
<g id="a_Node000007"><a xlink:href="class_a_q_n_w_b_1_1_n_w_b_1_1_electrode_group.html#a7cfae9f37d17f90486921d0b6445a9cd" target="_top" xlink:title="Constructor.">
<polygon fill="white" stroke="#666666" points="569.62,-456.5 411.88,-456.5 411.88,-426 569.62,-426 569.62,-456.5"/>
<text text-anchor="start" x="419.88" y="-443" font-family="Helvetica,sans-Serif" font-size="10.00">AQNWB::NWB::ElectrodeGroup</text>
<text text-anchor="middle" x="490.75" y="-431.75" font-family="Helvetica,sans-Serif" font-size="10.00">::ElectrodeGroup</text>
</a>
</g>
</g>
<!-- Node2&#45;&gt;Node7 -->
<g id="edge10_Node000002_Node000007" class="edge">
<title>Node2&#45;&gt;Node7</title>
<g id="a_edge10_Node000002_Node000007"><a xlink:title=" ">
<path fill="none" stroke="#63b8ff" d="M608.17,-410.84C589.61,-415.69 569.8,-420.87 551.87,-425.55"/>
<polygon fill="#63b8ff" stroke="#63b8ff" points="608.98,-414.25 617.77,-408.34 607.21,-407.48 608.98,-414.25"/>
</a>
</g>
</g>
<!-- Node8 -->
<g id="Node000008" class="node">
<title>Node8</title>
<g id="a_Node000008"><a xlink:href="class_a_q_n_w_b_1_1_n_w_b_1_1_n_w_b_file.html#af62a01f10675b8fdd310f60f48cf23fe" target="_top" xlink:title="Required constructor so we can call RegisteredType::create but the path cannot be set.">
<polygon fill="white" stroke="#666666" points="555.75,-407.5 425.75,-407.5 425.75,-377 555.75,-377 555.75,-407.5"/>
<text text-anchor="start" x="433.75" y="-394" font-family="Helvetica,sans-Serif" font-size="10.00">AQNWB::NWB::NWBFile</text>
<text text-anchor="middle" x="490.75" y="-382.75" font-family="Helvetica,sans-Serif" font-size="10.00">::NWBFile</text>
</a>
</g>
</g>
<!-- Node2&#45;&gt;Node8 -->
<g id="edge12_Node000002_Node000008" class="edge">
<title>Node2&#45;&gt;Node8</title>
<g id="a_edge12_Node000002_Node000008"><a xlink:title=" ">
<path fill="none" stroke="#63b8ff" d="M602.63,-392.25C587.16,-392.25 571.06,-392.25 556.07,-392.25"/>
<polygon fill="#63b8ff" stroke="#63b8ff" points="602.24,-395.75 612.24,-392.25 602.24,-388.75 602.24,-395.75"/>
</a>
</g>
</g>
<!-- Node9 -->
<g id="Node000009" class="node">
<title>Node9</title>
<g id="a_Node000009"><a xlink:href="class_a_q_n_w_b_1_1_n_w_b_1_1_n_w_b_file.html#a277f89c64204a61491bb26ad309186f3" target="_top" xlink:title="Constructor for NWBFile class.">
<polygon fill="white" stroke="#666666" points="555.75,-340.5 425.75,-340.5 425.75,-310 555.75,-310 555.75,-340.5"/>
<text text-anchor="start" x="433.75" y="-327" font-family="Helvetica,sans-Serif" font-size="10.00">AQNWB::NWB::NWBFile</text>
<text text-anchor="middle" x="490.75" y="-315.75" font-family="Helvetica,sans-Serif" font-size="10.00">::NWBFile</text>
</a>
</g>
</g>
<!-- Node2&#45;&gt;Node9 -->
<g id="edge13_Node000002_Node000009" class="edge">
<title>Node2&#45;&gt;Node9</title>
<g id="a_edge13_Node000002_Node000009"><a xlink:title=" ">
<path fill="none" stroke="#63b8ff" d="M624.85,-372.78C596.54,-362.67 562.4,-350.48 535.79,-340.98"/>
<polygon fill="#63b8ff" stroke="#63b8ff" points="623.37,-375.97 633.96,-376.03 625.72,-369.37 623.37,-375.97"/>
</a>
</g>
</g>
<!-- Node12 -->
<g id="Node000012" class="node">
<title>Node12</title>
<g id="a_Node000012"><a xlink:href="class_a_q_n_w_b_1_1_n_w_b_1_1_time_series.html#a523738fd2da4b70707e4ee6844cdce02" target="_top" xlink:title="Constructor.">
<polygon fill="white" stroke="#666666" points="560.62,-286.5 420.88,-286.5 420.88,-256 560.62,-256 560.62,-286.5"/>
<text text-anchor="start" x="428.88" y="-273" font-family="Helvetica,sans-Serif" font-size="10.00">AQNWB::NWB::TimeSeries</text>
<text text-anchor="middle" x="490.75" y="-261.75" font-family="Helvetica,sans-Serif" font-size="10.00">::TimeSeries</text>
</a>
</g>
</g>
<!-- Node2&#45;&gt;Node12 -->
<g id="edge17_Node000002_Node000012" class="edge">
<title>Node2&#45;&gt;Node12</title>
<g id="a_edge17_Node000002_Node000012"><a xlink:title=" ">
<path fill="none" stroke="#63b8ff" d="M657.46,-368.65C637.62,-348.45 606.76,-319.78 575.25,-301.25 565.82,-295.71 555.2,-290.93 544.77,-286.92"/>
<polygon fill="#63b8ff" stroke="#63b8ff" points="654.74,-370.88 664.2,-375.65 659.78,-366.02 654.74,-370.88"/>
</a>
</g>
</g>
<!-- Node3&#45;&gt;Node3 -->
<g id="edge4_Node000003_Node000003" class="edge">
<title>Node3&#45;&gt;Node3</title>
<g id="a_edge4_Node000003_Node000003"><a xlink:title=" ">
<path fill="none" stroke="#63b8ff" d="M522.55,-602.2C517.35,-605.97 506.75,-608.5 490.75,-608.5 461.49,-608.5 450.29,-600.06 457.15,-590.99"/>
<polygon fill="#63b8ff" stroke="#63b8ff" points="525.98,-602.91 524.11,-592.48 519.07,-601.8 525.98,-602.91"/>
</a>
</g>
</g>
<!-- Node4&#45;&gt;Node4 -->
<g id="edge6_Node000004_Node000004" class="edge">
<title>Node4&#45;&gt;Node4</title>
<g id="a_edge6_Node000004_Node000004"><a xlink:title=" ">
<path fill="none" stroke="#63b8ff" d="M522.55,-535.2C517.35,-538.97 506.75,-541.5 490.75,-541.5 461.49,-541.5 450.29,-533.06 457.15,-523.99"/>
<polygon fill="#63b8ff" stroke="#63b8ff" points="525.98,-535.91 524.11,-525.48 519.07,-534.8 525.98,-535.91"/>
</a>
</g>
</g>
<!-- Node5 -->
<g id="Node000005" class="node">
<title>Node5</title>
<g id="a_Node000005"><a xlink:href="class_a_q_n_w_b_1_1_n_w_b_1_1_electrode_table.html#ab1c5db466e0cb350012b03253dff424a" target="_top" xlink:title=" ">
<polygon fill="white" stroke="#666666" points="364.62,-527.5 209.88,-527.5 209.88,-497 364.62,-497 364.62,-527.5"/>
<text text-anchor="start" x="217.88" y="-514" font-family="Helvetica,sans-Serif" font-size="10.00">AQNWB::NWB::ElectrodeTable</text>
<text text-anchor="middle" x="287.25" y="-502.75" font-family="Helvetica,sans-Serif" font-size="10.00">::ElectrodeTable</text>
</a>
</g>
</g>
<!-- Node4&#45;&gt;Node5 -->
<g id="edge7_Node000004_Node000005" class="edge">
<title>Node4&#45;&gt;Node5</title>
<g id="a_edge7_Node000004_Node000005"><a xlink:title=" ">
<path fill="none" stroke="#63b8ff" d="M402.71,-509.98C390.15,-510.23 377.29,-510.48 364.95,-510.73"/>
<polygon fill="#63b8ff" stroke="#63b8ff" points="402.7,-513.48 412.63,-509.78 402.56,-506.48 402.7,-513.48"/>
</a>
</g>
</g>
<!-- Node6 -->
<g id="Node000006" class="node">
<title>Node6</title>
<g id="a_Node000006"><a xlink:href="class_a_q_n_w_b_1_1_n_w_b_1_1_electrode_table.html#a0d66d1ec3b341bb3132be86279d9f4c6" target="_top" xlink:title="Constructor.">
<polygon fill="white" stroke="#666666" points="364.62,-460.5 209.88,-460.5 209.88,-430 364.62,-430 364.62,-460.5"/>
<text text-anchor="start" x="217.88" y="-447" font-family="Helvetica,sans-Serif" font-size="10.00">AQNWB::NWB::ElectrodeTable</text>
<text text-anchor="middle" x="287.25" y="-435.75" font-family="Helvetica,sans-Serif" font-size="10.00">::ElectrodeTable</text>
</a>
</g>
</g>
<!-- Node4&#45;&gt;Node6 -->
<g id="edge8_Node000004_Node000006" class="edge">
<title>Node4&#45;&gt;Node6</title>
<g id="a_edge8_Node000004_Node000006"><a xlink:title=" ">
<path fill="none" stroke="#63b8ff" d="M425.69,-489.22C419.12,-487.22 412.55,-485.21 406.25,-483.25 383.13,-476.07 357.54,-467.86 336.12,-460.91"/>
<polygon fill="#63b8ff" stroke="#63b8ff" points="424.66,-492.56 435.24,-492.11 426.69,-485.86 424.66,-492.56"/>
</a>
</g>
</g>
<!-- Node6&#45;&gt;Node6 -->
<g id="edge9_Node000006_Node000006" class="edge">
<title>Node6&#45;&gt;Node6</title>
<g id="a_edge9_Node000006_Node000006"><a xlink:title=" ">
<path fill="none" stroke="#63b8ff" d="M321.31,-472.2C315.74,-475.97 304.39,-478.5 287.25,-478.5 255.91,-478.5 243.91,-470.06 251.26,-460.99"/>
<polygon fill="#63b8ff" stroke="#63b8ff" points="324.74,-472.93 322.99,-462.48 317.84,-471.74 324.74,-472.93"/>
</a>
</g>
</g>
<!-- Node7&#45;&gt;Node7 -->
<g id="edge11_Node000007_Node000007" class="edge">
<title>Node7&#45;&gt;Node7</title>
<g id="a_edge11_Node000007_Node000007"><a xlink:title=" ">
<path fill="none" stroke="#63b8ff" d="M522.55,-468.2C517.35,-471.97 506.75,-474.5 490.75,-474.5 461.49,-474.5 450.29,-466.06 457.15,-456.99"/>
<polygon fill="#63b8ff" stroke="#63b8ff" points="525.98,-468.91 524.11,-458.48 519.07,-467.8 525.98,-468.91"/>
</a>
</g>
</g>
<!-- Node9&#45;&gt;Node9 -->
<g id="edge15_Node000009_Node000009" class="edge">
<title>Node9&#45;&gt;Node9</title>
<g id="a_edge15_Node000009_Node000009"><a xlink:title=" ">
<path fill="none" stroke="#63b8ff" d="M522.55,-352.2C517.35,-355.97 506.75,-358.5 490.75,-358.5 461.49,-358.5 450.29,-350.06 457.15,-340.99"/>
<polygon fill="#63b8ff" stroke="#63b8ff" points="525.98,-352.91 524.11,-342.48 519.07,-351.8 525.98,-352.91"/>
</a>
</g>
</g>
<!-- Node10 -->
<g id="Node000010" class="node">
<title>Node10</title>
<g id="a_Node000010"><a xlink:href="class_a_q_n_w_b_1_1_n_w_b_1_1_n_w_b_file.html#a4639155769006a79b189cdb7634bbaa5" target="_top" xlink:title="Deleted copy constructor to prevent construction&#45;copying.">
<polygon fill="white" stroke="#666666" points="352.25,-402.5 222.25,-402.5 222.25,-372 352.25,-372 352.25,-402.5"/>
<text text-anchor="start" x="230.25" y="-389" font-family="Helvetica,sans-Serif" font-size="10.00">AQNWB::NWB::NWBFile</text>
<text text-anchor="middle" x="287.25" y="-377.75" font-family="Helvetica,sans-Serif" font-size="10.00">::NWBFile</text>
</a>
</g>
</g>
<!-- Node9&#45;&gt;Node10 -->
<g id="edge14_Node000009_Node000010" class="edge">
<title>Node9&#45;&gt;Node10</title>
<g id="a_edge14_Node000009_Node000010"><a xlink:title=" ">
<path fill="none" stroke="#63b8ff" d="M428.43,-344.29C409.76,-350.08 389.17,-356.44 370.25,-362.25 360.43,-365.27 349.95,-368.47 339.88,-371.55"/>
<polygon fill="#63b8ff" stroke="#63b8ff" points="429.22,-347.71 437.73,-341.41 427.14,-341.03 429.22,-347.71"/>
</a>
</g>
</g>
<!-- Node11 -->
<g id="Node000011" class="node">
<title>Node11</title>
<g id="a_Node000011"><a xlink:href="class_a_q_n_w_b_1_1_n_w_b_1_1_n_w_b_file.html#a941d5b775441fac6c787cd55a8276461" target="_top" xlink:title="Deleted copy assignment operator to prevent copying.">
<polygon fill="white" stroke="#666666" points="352.25,-353.5 222.25,-353.5 222.25,-323 352.25,-323 352.25,-353.5"/>
<text text-anchor="start" x="230.25" y="-340" font-family="Helvetica,sans-Serif" font-size="10.00">AQNWB::NWB::NWBFile</text>
<text text-anchor="middle" x="287.25" y="-328.75" font-family="Helvetica,sans-Serif" font-size="10.00">::operator=</text>
</a>
</g>
</g>
<!-- Node9&#45;&gt;Node11 -->
<g id="edge16_Node000009_Node000011" class="edge">
<title>Node9&#45;&gt;Node11</title>
<g id="a_edge16_Node000009_Node000011"><a xlink:title=" ">
<path fill="none" stroke="#63b8ff" d="M414.06,-330.13C393.84,-331.44 372.19,-332.83 352.64,-334.1"/>
<polygon fill="#63b8ff" stroke="#63b8ff" points="414.18,-333.63 423.93,-329.5 413.73,-326.65 414.18,-333.63"/>
</a>
</g>
</g>
<!-- Node13 -->
<g id="Node000013" class="node">
<title>Node13</title>
<g id="a_Node000013"><a xlink:href="class_a_q_n_w_b_1_1_n_w_b_1_1_annotation_series.html#ab98f231850a75a82fade2234e8606359" target="_top" xlink:title="Constructor.">
<polygon fill="white" stroke="#666666" points="369.5,-286.5 205,-286.5 205,-256 369.5,-256 369.5,-286.5"/>
<text text-anchor="start" x="213" y="-273" font-family="Helvetica,sans-Serif" font-size="10.00">AQNWB::NWB::AnnotationSeries</text>
<text text-anchor="middle" x="287.25" y="-261.75" font-family="Helvetica,sans-Serif" font-size="10.00">::AnnotationSeries</text>
</a>
</g>
</g>
<!-- Node12&#45;&gt;Node13 -->
<g id="edge18_Node000012_Node000013" class="edge">
<title>Node12&#45;&gt;Node13</title>
<g id="a_edge18_Node000012_Node000013"><a xlink:title=" ">
<path fill="none" stroke="#63b8ff" d="M409.18,-271.25C396.24,-271.25 382.83,-271.25 369.87,-271.25"/>
<polygon fill="#63b8ff" stroke="#63b8ff" points="408.89,-274.75 418.89,-271.25 408.89,-267.75 408.89,-274.75"/>
</a>
</g>
</g>
<!-- Node14 -->
<g id="Node000014" class="node">
<title>Node14</title>
<g id="a_Node000014"><a xlink:href="class_a_q_n_w_b_1_1_n_w_b_1_1_electrical_series.html#a684a7b01cb955d7335f07d5eaab2250b" target="_top" xlink:title="Constructor.">
<polygon fill="white" stroke="#666666" points="366.5,-219.5 208,-219.5 208,-189 366.5,-189 366.5,-219.5"/>
<text text-anchor="start" x="216" y="-206" font-family="Helvetica,sans-Serif" font-size="10.00">AQNWB::NWB::ElectricalSeries</text>
<text text-anchor="middle" x="287.25" y="-194.75" font-family="Helvetica,sans-Serif" font-size="10.00">::ElectricalSeries</text>
</a>
</g>
</g>
<!-- Node12&#45;&gt;Node14 -->
<g id="edge20_Node000012_Node000014" class="edge">
<title>Node12&#45;&gt;Node14</title>
<g id="a_edge20_Node000012_Node000014"><a xlink:title=" ">
<path fill="none" stroke="#63b8ff" d="M425.04,-252.23C418.68,-250.26 412.33,-248.24 406.25,-246.25 381.04,-237.99 353.06,-228.07 330.67,-219.94"/>
<polygon fill="#63b8ff" stroke="#63b8ff" points="423.69,-255.48 434.28,-255.07 425.75,-248.79 423.69,-255.48"/>
</a>
</g>
</g>
<!-- Node16 -->
<g id="Node000016" class="node">
<title>Node16</title>
<g id="a_Node000016"><a xlink:href="class_a_q_n_w_b_1_1_n_w_b_1_1_time_series.html#ab2eeb7e016b23097674627251e5e5ac7" target="_top" xlink:title=" ">
<polygon fill="white" stroke="#666666" points="357.12,-170.5 217.38,-170.5 217.38,-140 357.12,-140 357.12,-170.5"/>
<text text-anchor="start" x="225.38" y="-157" font-family="Helvetica,sans-Serif" font-size="10.00">AQNWB::NWB::TimeSeries</text>
<text text-anchor="middle" x="287.25" y="-145.75" font-family="Helvetica,sans-Serif" font-size="10.00">::readComments</text>
</a>
</g>
</g>
<!-- Node12&#45;&gt;Node16 -->
<g id="edge24_Node000012_Node000016" class="edge">
<title>Node12&#45;&gt;Node16</title>
<g id="a_edge24_Node000012_Node000016"><a xlink:title=" ">
<path fill="none" stroke="#63b8ff" d="M411.03,-249.8C409.38,-248.68 407.79,-247.49 406.25,-246.25 380.29,-225.21 396.15,-201.36 370.25,-180.25 365.87,-176.68 360.98,-173.61 355.83,-170.99"/>
<polygon fill="#63b8ff" stroke="#63b8ff" points="409.24,-252.81 419.64,-254.85 412.78,-246.77 409.24,-252.81"/>
</a>
</g>
</g>
<!-- Node13&#45;&gt;Node13 -->
<g id="edge19_Node000013_Node000013" class="edge">
<title>Node13&#45;&gt;Node13</title>
<g id="a_edge19_Node000013_Node000013"><a xlink:title=" ">
<path fill="none" stroke="#63b8ff" d="M321.31,-298.2C315.74,-301.97 304.39,-304.5 287.25,-304.5 255.91,-304.5 243.91,-296.06 251.26,-286.99"/>
<polygon fill="#63b8ff" stroke="#63b8ff" points="324.74,-298.93 322.99,-288.48 317.84,-297.74 324.74,-298.93"/>
</a>
</g>
</g>
<!-- Node14&#45;&gt;Node14 -->
<g id="edge21_Node000014_Node000014" class="edge">
<title>Node14&#45;&gt;Node14</title>
<g id="a_edge21_Node000014_Node000014"><a xlink:title=" ">
<path fill="none" stroke="#63b8ff" d="M321.31,-231.2C315.74,-234.97 304.39,-237.5 287.25,-237.5 255.91,-237.5 243.91,-229.06 251.26,-219.99"/>
<polygon fill="#63b8ff" stroke="#63b8ff" points="324.74,-231.93 322.99,-221.48 317.84,-230.74 324.74,-231.93"/>
</a>
</g>
</g>
<!-- Node15 -->
<g id="Node000015" class="node">
<title>Node15</title>
<g id="a_Node000015"><a xlink:href="class_a_q_n_w_b_1_1_n_w_b_1_1_spike_event_series.html#af5b323ae3afbdf308f151cf233b2c0db" target="_top" xlink:title="Constructor.">
<polygon fill="white" stroke="#666666" points="168.25,-219.5 0,-219.5 0,-189 168.25,-189 168.25,-219.5"/>
<text text-anchor="start" x="8" y="-206" font-family="Helvetica,sans-Serif" font-size="10.00">AQNWB::NWB::SpikeEventSeries</text>
<text text-anchor="middle" x="84.12" y="-194.75" font-family="Helvetica,sans-Serif" font-size="10.00">::SpikeEventSeries</text>
</a>
</g>
</g>
<!-- Node14&#45;&gt;Node15 -->
<g id="edge22_Node000014_Node000015" class="edge">
<title>Node14&#45;&gt;Node15</title>
<g id="a_edge22_Node000014_Node000015"><a xlink:title=" ">
<path fill="none" stroke="#63b8ff" d="M196.13,-204.25C187,-204.25 177.74,-204.25 168.68,-204.25"/>
<polygon fill="#63b8ff" stroke="#63b8ff" points="196.11,-207.75 206.11,-204.25 196.11,-200.75 196.11,-207.75"/>
</a>
</g>
</g>
<!-- Node15&#45;&gt;Node15 -->
<g id="edge23_Node000015_Node000015" class="edge">
<title>Node15&#45;&gt;Node15</title>
<g id="a_edge23_Node000015_Node000015"><a xlink:title=" ">
<path fill="none" stroke="#63b8ff" d="M118.19,-231.2C112.62,-234.97 101.26,-237.5 84.12,-237.5 52.78,-237.5 40.79,-229.06 48.13,-219.99"/>
<polygon fill="#63b8ff" stroke="#63b8ff" points="121.62,-231.93 119.86,-221.48 114.72,-230.74 121.62,-231.93"/>
</a>
</g>
</g>
<!-- Node17 -->
<g id="Node000017" class="node">
<title>Node17</title>
<g id="a_Node000017"><a xlink:href="class_a_q_n_w_b_1_1_n_w_b_1_1_time_series.html#ae2a561b2f5a56f86f8794bdfdd07f422" target="_top" xlink:title=" ">
<polygon fill="white" stroke="#666666" points="154,-170.5 14.25,-170.5 14.25,-140 154,-140 154,-170.5"/>
<text text-anchor="start" x="22.25" y="-157" font-family="Helvetica,sans-Serif" font-size="10.00">AQNWB::NWB::TimeSeries</text>
<text text-anchor="middle" x="84.12" y="-145.75" font-family="Helvetica,sans-Serif" font-size="10.00">::readDescription</text>
</a>
</g>
</g>
<!-- Node16&#45;&gt;Node17 -->
<g id="edge25_Node000016_Node000017" class="edge">
<title>Node16&#45;&gt;Node17</title>
<g id="a_edge25_Node000016_Node000017"><a xlink:title=" ">
<path fill="none" stroke="#63b8ff" d="M205.97,-155.25C188.92,-155.25 171.07,-155.25 154.47,-155.25"/>
<polygon fill="#63b8ff" stroke="#63b8ff" points="205.52,-158.75 215.52,-155.25 205.52,-151.75 205.52,-158.75"/>
</a>
</g>
</g>
<!-- Node18&#45;&gt;Node18 -->
<g id="edge27_Node000018_Node000018" class="edge">
<title>Node18&#45;&gt;Node18</title>
<g id="a_edge27_Node000018_Node000018"><a xlink:title=" ">
<path fill="none" stroke="#63b8ff" d="M713.74,-175.6C710.23,-179.83 699.11,-182.88 680.38,-182.88 647.97,-182.88 638.34,-173.77 651.51,-165.16"/>
<polygon fill="#63b8ff" stroke="#63b8ff" points="717.01,-174.35 709.84,-166.55 710.58,-177.12 717.01,-174.35"/>
</a>
</g>
</g>
<!-- Node19 -->
<g id="Node000019" class="node">
<title>Node19</title>
<g id="a_Node000019"><a xlink:href="class_a_q_n_w_b_1_1_n_w_b_1_1_data_typed.html#a3a4fcbb17231aaebae71044026f34c46" target="_top" xlink:title="Constructor.">
<polygon fill="white" stroke="#666666" points="559.5,-237.5 422,-237.5 422,-207 559.5,-207 559.5,-237.5"/>
<text text-anchor="start" x="430" y="-224" font-family="Helvetica,sans-Serif" font-size="10.00">AQNWB::NWB::DataTyped</text>
<text text-anchor="middle" x="490.75" y="-212.75" font-family="Helvetica,sans-Serif" font-size="10.00">::DataTyped</text>
</a>
</g>
</g>
<!-- Node18&#45;&gt;Node19 -->
<g id="edge28_Node000018_Node000019" class="edge">
<title>Node18&#45;&gt;Node19</title>
<g id="a_edge28_Node000018_Node000019"><a xlink:title=" ">
<path fill="none" stroke="#63b8ff" d="M645.88,-169.68C625.62,-178.18 599.15,-188.87 575.25,-197.25 566.11,-200.45 556.32,-203.62 546.78,-206.56"/>
<polygon fill="#63b8ff" stroke="#63b8ff" points="647.21,-172.92 655.05,-165.8 644.48,-166.47 647.21,-172.92"/>
</a>
</g>
</g>
<!-- Node20 -->
<g id="Node000020" class="node">
<title>Node20</title>
<g id="a_Node000020"><a xlink:href="class_a_q_n_w_b_1_1_n_w_b_1_1_element_identifiers.html#a40f8d890a3fd976858bedc91e08fd745" target="_top" xlink:title="Constructor.">
<polygon fill="white" stroke="#666666" points="575.25,-170.5 406.25,-170.5 406.25,-140 575.25,-140 575.25,-170.5"/>
<text text-anchor="start" x="414.25" y="-157" font-family="Helvetica,sans-Serif" font-size="10.00">AQNWB::NWB::ElementIdentifiers</text>
<text text-anchor="middle" x="490.75" y="-145.75" font-family="Helvetica,sans-Serif" font-size="10.00">::ElementIdentifiers</text>
</a>
</g>
</g>
<!-- Node18&#45;&gt;Node20 -->
<g id="edge29_Node000018_Node000020" class="edge">
<title>Node18&#45;&gt;Node20</title>
<g id="a_edge29_Node000018_Node000020"><a xlink:title=" ">
<path fill="none" stroke="#63b8ff" d="M599.46,-155.25C591.61,-155.25 583.63,-155.25 575.74,-155.25"/>
<polygon fill="#63b8ff" stroke="#63b8ff" points="599.33,-158.75 609.33,-155.25 599.33,-151.75 599.33,-158.75"/>
</a>
</g>
</g>
<!-- Node21 -->
<g id="Node000021" class="node">
<title>Node21</title>
<g id="a_Node000021"><a xlink:href="class_a_q_n_w_b_1_1_n_w_b_1_1_data_typed.html#a247e987f2485aa3dc1d3d0c482cf4160" target="_top" xlink:title="Create a DataTyped object from a Data object.">
<polygon fill="white" stroke="#666666" points="559.5,-121.5 422,-121.5 422,-91 559.5,-91 559.5,-121.5"/>
<text text-anchor="start" x="430" y="-108" font-family="Helvetica,sans-Serif" font-size="10.00">AQNWB::NWB::DataTyped</text>
<text text-anchor="middle" x="490.75" y="-96.75" font-family="Helvetica,sans-Serif" font-size="10.00">::fromData</text>
</a>
</g>
</g>
<!-- Node18&#45;&gt;Node21 -->
<g id="edge31_Node000018_Node000021" class="edge">
<title>Node18&#45;&gt;Node21</title>
<g id="a_edge31_Node000018_Node000021"><a xlink:title=" ">
<path fill="none" stroke="#63b8ff" d="M630,-142.35C606.07,-136.11 577.12,-128.55 551.92,-121.96"/>
<polygon fill="#63b8ff" stroke="#63b8ff" points="628.93,-145.69 639.49,-144.83 630.7,-138.92 628.93,-145.69"/>
</a>
</g>
</g>
<!-- Node22 -->
<g id="Node000022" class="node">
<title>Node22</title>
<g id="a_Node000022"><a xlink:href="class_a_q_n_w_b_1_1_n_w_b_1_1_vector_data.html#aaf127dfd1e590307b872ea785d578316" target="_top" xlink:title="Constructor.">
<polygon fill="white" stroke="#666666" points="560.62,-54.5 420.88,-54.5 420.88,-24 560.62,-24 560.62,-54.5"/>
<text text-anchor="start" x="428.88" y="-41" font-family="Helvetica,sans-Serif" font-size="10.00">AQNWB::NWB::VectorData</text>
<text text-anchor="middle" x="490.75" y="-29.75" font-family="Helvetica,sans-Serif" font-size="10.00">::VectorData</text>
</a>
</g>
</g>
<!-- Node18&#45;&gt;Node22 -->
<g id="edge32_Node000018_Node000022" class="edge">
<title>Node18&#45;&gt;Node22</title>
<g id="a_edge32_Node000018_Node000022"><a xlink:title=" ">
<path fill="none" stroke="#63b8ff" d="M657.09,-138.3C636.4,-122.88 604.48,-99.91 575.25,-82.25 559.06,-72.47 540.4,-62.72 524.83,-54.99"/>
<polygon fill="#63b8ff" stroke="#63b8ff" points="654.98,-141.09 665.08,-144.29 659.18,-135.49 654.98,-141.09"/>
</a>
</g>
</g>
<!-- Node20&#45;&gt;Node20 -->
<g id="edge30_Node000020_Node000020" class="edge">
<title>Node20&#45;&gt;Node20</title>
<g id="a_edge30_Node000020_Node000020"><a xlink:title=" ">
<path fill="none" stroke="#63b8ff" d="M522.55,-182.2C517.35,-185.97 506.75,-188.5 490.75,-188.5 461.49,-188.5 450.29,-180.06 457.15,-170.99"/>
<polygon fill="#63b8ff" stroke="#63b8ff" points="525.98,-182.91 524.11,-172.48 519.07,-181.8 525.98,-182.91"/>
</a>
</g>
</g>
<!-- Node22&#45;&gt;Node22 -->
<g id="edge34_Node000022_Node000022" class="edge">
<title>Node22&#45;&gt;Node22</title>
<g id="a_edge34_Node000022_Node000022"><a xlink:title=" ">
<path fill="none" stroke="#63b8ff" d="M522.55,-66.2C517.35,-69.97 506.75,-72.5 490.75,-72.5 461.49,-72.5 450.29,-64.06 457.15,-54.99"/>
<polygon fill="#63b8ff" stroke="#63b8ff" points="525.98,-66.91 524.11,-56.48 519.07,-65.8 525.98,-66.91"/>
</a>
</g>
</g>
<!-- Node23 -->
<g id="Node000023" class="node">
<title>Node23</title>
<g id="a_Node000023"><a xlink:href="class_a_q_n_w_b_1_1_n_w_b_1_1_vector_data_typed.html#a261537d26d0c1b0667780738d010906c" target="_top" xlink:title="Create a VectorDataTyped object from a Data object.">
<polygon fill="white" stroke="#666666" points="370.25,-79.5 204.25,-79.5 204.25,-49 370.25,-49 370.25,-79.5"/>
<text text-anchor="start" x="212.25" y="-66" font-family="Helvetica,sans-Serif" font-size="10.00">AQNWB::NWB::VectorDataTyped</text>
<text text-anchor="middle" x="287.25" y="-54.75" font-family="Helvetica,sans-Serif" font-size="10.00">::fromVectorData</text>
</a>
</g>
</g>
<!-- Node22&#45;&gt;Node23 -->
<g id="edge33_Node000022_Node000023" class="edge">
<title>Node22&#45;&gt;Node23</title>
<g id="a_edge33_Node000022_Node000023"><a xlink:title=" ">
<path fill="none" stroke="#63b8ff" d="M409.33,-49.23C396.58,-50.81 383.37,-52.45 370.57,-54.04"/>
<polygon fill="#63b8ff" stroke="#63b8ff" points="409.41,-52.74 418.9,-48.04 408.55,-45.8 409.41,-52.74"/>
</a>
</g>
</g>
<!-- Node24 -->
<g id="Node000024" class="node">
<title>Node24</title>
<g id="a_Node000024"><a xlink:href="class_a_q_n_w_b_1_1_n_w_b_1_1_vector_data_typed.html#ae1574fc67b4fc214d68267283d5b2dbf" target="_top" xlink:title="Constructor.">
<polygon fill="white" stroke="#666666" points="370.25,-30.5 204.25,-30.5 204.25,0 370.25,0 370.25,-30.5"/>
<text text-anchor="start" x="212.25" y="-17" font-family="Helvetica,sans-Serif" font-size="10.00">AQNWB::NWB::VectorDataTyped</text>
<text text-anchor="middle" x="287.25" y="-5.75" font-family="Helvetica,sans-Serif" font-size="10.00">::VectorDataTyped</text>
</a>
</g>
</g>
<!-- Node22&#45;&gt;Node24 -->
<g id="edge35_Node000022_Node000024" class="edge">
<title>Node22&#45;&gt;Node24</title>
<g id="a_edge35_Node000022_Node000024"><a xlink:title=" ">
<path fill="none" stroke="#63b8ff" d="M409.33,-29.67C396.58,-28.15 383.37,-26.58 370.57,-25.06"/>
<polygon fill="#63b8ff" stroke="#63b8ff" points="408.56,-33.1 418.9,-30.81 409.39,-26.15 408.56,-33.1"/>
</a>
</g>
</g>
</g>
</svg>

<g id="navigator" transform="translate(0 0)" fill="#404254">
  <rect fill="#f2f5e9" fill-opacity="0.5" stroke="#606060" stroke-width=".5" x="0" y="0" width="60" height="60"/>
  <use id="zoomplus" xlink:href="#zoomPlus" x="17" y="9" onmousedown="handleZoom(evt,'in')"/>
  <use id="zoomminus" xlink:href="#zoomMin" x="42" y="9" onmousedown="handleZoom(evt,'out')"/>
  <use id="reset" xlink:href="#resetDef" x="30" y="36" onmousedown="handleReset()"/>
   <use id="arrowup" xlink:href="#arrowUp" x="0" y="0" onmousedown="handlePan(0,-1)"/>
  <use id="arrowright" xlink:href="#arrowRight" x="0" y="0" onmousedown="handlePan(1,0)"/>
  <use id="arrowdown" xlink:href="#arrowDown" x="0" y="0" onmousedown="handlePan(0,1)"/>
  <use id="arrowleft" xlink:href="#arrowLeft" x="0" y="0" onmousedown="handlePan(-1,0)"/>
</g>
<svg viewBox="0 0 15 15" width="100%" height="30px" preserveAspectRatio="xMaxYMin meet">
 <g id="arrow_out" transform="scale(0.3 0.3)">
  <a xlink:href="class_a_q_n_w_b_1_1_n_w_b_1_1_registered_type_a4e2e5496f7c318307bfc2addfc68c859_icgraph_org.svg" target="_base">
   <rect id="button" ry="5" rx="5" y="6" x="6" height="38" width="38"
        fill="#f2f5e9" fill-opacity="0.5" stroke="#606060" stroke-width="1.0"/>
   <path id="arrow"
     d="M 11.500037,31.436501 C 11.940474,20.09759 22.043105,11.32322 32.158766,21.979434 L 37.068811,17.246167 C 37.068811,17.246167 37.088388,32 37.088388,32 L 22.160133,31.978069 C 22.160133,31.978069 26.997745,27.140456 26.997745,27.140456 C 18.528582,18.264221 13.291696,25.230495 11.500037,31.436501 z"
     style="fill:#404040;"/>
  </a>
 </g>
</svg>

<style type='text/css'>
<![CDATA[
[data-mouse-over-selected='false'] { opacity: 0.7; }
[data-mouse-over-selected='true']  { opacity: 1.0; }
]]>
</style>
<script type="application/ecmascript"><![CDATA[
document.addEventListener('DOMContentLoaded', (event) => {
  highlightEdges();
  highlightAdjacentNodes();
});
]]></script>
</svg>
