<?xml version="1.0" encoding="UTF-8" standalone="no"?>
<!DOCTYPE svg PUBLIC "-//W3C//DTD SVG 1.1//EN"
 "http://www.w3.org/Graphics/SVG/1.1/DTD/svg11.dtd">
<!-- Generated by graphviz version 14.1.0 (20251206.1807)
 -->
<!-- Title: AQNWB::NWB::Container::Container Pages: 1 -->
<!--zoomable 447 -->

<svg id="main" version="1.1" xmlns="http://www.w3.org/2000/svg" xmlns:xlink="http://www.w3.org/1999/xlink" xml:space="preserve" onload="init(evt)">

<style type="text/css"><![CDATA[
.node, .edge {opacity: 0.7;}
.node.selected, .edge.selected {opacity: 1;}
.edge:hover path { stroke: red; }
.edge:hover polygon { stroke: red; fill: red; }
]]></style>

<defs>
  <circle id="rim" cx="0" cy="0" r="7"/>
  <circle id="rim2" cx="0" cy="0" r="3.5"/>
  <g id="zoomPlus">
    <use xlink:href="#rim" fill="#404040"><set attributeName="fill" to="#808080" begin="zoomplus.mouseover" end="zoomplus.mouseout"/></use>
    <path d="M-4,0h8M0,-4v8" fill="none" stroke="white" stroke-width="1.5" pointer-events="none"/>
  </g>
  <g id="zoomMin">
    <use xlink:href="#rim" fill="#404040"><set attributeName="fill" to="#808080" begin="zoomminus.mouseover" end="zoomminus.mouseout"/></use>
    <path d="M-4,0h8" fill="none" stroke="white" stroke-width="1.5" pointer-events="none"/>
  </g>
  <g id="arrowUp" transform="translate(30 24)">
    <use xlink:href="#rim"/>
    <path pointer-events="none" fill="none" stroke="white" stroke-width="1.5" d="M0,-3.0v7 M-2.5,-0.5L0,-3.0L2.5,-0.5"/>
  </g>
  <g id="arrowRight" transform="rotate(90) translate(36 -43)">
    <use xlink:href="#rim"/>
    <path pointer-events="none" fill="none" stroke="white" stroke-width="1.5" d="M0,-3.0v7 M-2.5,-0.5L0,-3.0L2.5,-0.5"/>
  </g>
  <g id="arrowDown" transform="rotate(180) translate(-30 -48)">
    <use xlink:href="#rim"/>
    <path pointer-events="none" fill="none" stroke="white" stroke-width="1.5" d="M0,-3.0v7 M-2.5,-0.5L0,-3.0L2.5,-0.5"/>
  </g>
  <g id="arrowLeft" transform="rotate(270) translate(-36 17)">
    <use xlink:href="#rim"/>
    <path pointer-events="none" fill="none" stroke="white" stroke-width="1.5" d="M0,-3.0v7 M-2.5,-0.5L0,-3.0L2.5,-0.5"/>
  </g>
  <g id="resetDef">
    <use xlink:href="#rim2" fill="#404040"><set attributeName="fill" to="#808080" begin="reset.mouseover" end="reset.mouseout"/></use>
  </g>
</defs>
<script type="application/ecmascript">
var viewWidth = 1123;
var viewHeight = 447;
var sectionId = 'dynsection-3';
</script>
<script type="application/ecmascript" xlink:href="svg.min.js"/>
<svg id="graph" class="graph">
<g id="viewport">
<title>AQNWB::NWB::Container::Container</title>
<!-- Node1 -->
<g id="Node000001" class="node">
<title>Node1</title>
<g id="a_Node000001"><a xlink:title="Constructor.">
<polygon fill="#999999" stroke="#666666" points="1114.5,-271.5 982.25,-271.5 982.25,-241 1114.5,-241 1114.5,-271.5"/>
<text xml:space="preserve" text-anchor="start" x="990.25" y="-258" font-family="Helvetica,sans-Serif" font-size="10.00">AQNWB::NWB::Container</text>
<text xml:space="preserve" text-anchor="middle" x="1048.38" y="-246.75" font-family="Helvetica,sans-Serif" font-size="10.00">::Container</text>
</a>
</g>
</g>
<!-- Node1&#45;&gt;Node1 -->
<g id="edge1_Node000001_Node000001" class="edge">
<title>Node1&#45;&gt;Node1</title>
<g id="a_edge1_Node000001_Node000001"><a xlink:title=" ">
<path fill="none" stroke="#63b8ff" d="M1078.6,-283.2C1073.66,-286.97 1063.58,-289.5 1048.38,-289.5 1020.56,-289.5 1009.92,-281.06 1016.43,-271.99"/>
<polygon fill="#63b8ff" stroke="#63b8ff" points="1082.04,-283.9 1080.09,-273.48 1075.12,-282.84 1082.04,-283.9"/>
</a>
</g>
</g>
<!-- Node2 -->
<g id="Node000002" class="node">
<title>Node2</title>
<g id="a_Node000002"><a xlink:href="class_a_q_n_w_b_1_1_n_w_b_1_1_dynamic_table.html#a6b2079337b08a6e265eeb6e39889e55b" target="_top" xlink:title="Constructor.">
<polygon fill="white" stroke="#666666" points="944.38,-371.5 791.88,-371.5 791.88,-341 944.38,-341 944.38,-371.5"/>
<text xml:space="preserve" text-anchor="start" x="799.88" y="-358" font-family="Helvetica,sans-Serif" font-size="10.00">AQNWB::NWB::DynamicTable</text>
<text xml:space="preserve" text-anchor="middle" x="868.12" y="-346.75" font-family="Helvetica,sans-Serif" font-size="10.00">::DynamicTable</text>
</a>
</g>
</g>
<!-- Node1&#45;&gt;Node2 -->
<g id="edge2_Node000001_Node000002" class="edge">
<title>Node1&#45;&gt;Node2</title>
<g id="a_edge2_Node000001_Node000002"><a xlink:title=" ">
<path fill="none" stroke="#63b8ff" d="M1009.58,-277.45C975.9,-296.35 927.37,-323.57 897.07,-340.57"/>
<polygon fill="#63b8ff" stroke="#63b8ff" points="1011.19,-280.56 1018.2,-272.62 1007.77,-274.46 1011.19,-280.56"/>
</a>
</g>
</g>
<!-- Node5 -->
<g id="Node000005" class="node">
<title>Node5</title>
<g id="a_Node000005"><a xlink:href="class_a_q_n_w_b_1_1_n_w_b_1_1_n_w_b_container.html#aadbde40c8c04d80d7b65a26e77f4cc20" target="_top" xlink:title="Constructor.">
<polygon fill="white" stroke="#666666" points="946.25,-204.5 790,-204.5 790,-174 946.25,-174 946.25,-204.5"/>
<text xml:space="preserve" text-anchor="start" x="798" y="-191" font-family="Helvetica,sans-Serif" font-size="10.00">AQNWB::NWB::NWBContainer</text>
<text xml:space="preserve" text-anchor="middle" x="868.12" y="-179.75" font-family="Helvetica,sans-Serif" font-size="10.00">::NWBContainer</text>
</a>
</g>
</g>
<!-- Node1&#45;&gt;Node5 -->
<g id="edge7_Node000001_Node000005" class="edge">
<title>Node1&#45;&gt;Node5</title>
<g id="a_edge7_Node000001_Node000005"><a xlink:title=" ">
<path fill="none" stroke="#63b8ff" d="M994.86,-236.51C968.11,-226.45 936.02,-214.4 910.96,-204.98"/>
<polygon fill="#63b8ff" stroke="#63b8ff" points="993.57,-239.77 1004.17,-240.01 996.04,-233.21 993.57,-239.77"/>
</a>
</g>
</g>
<!-- Node2&#45;&gt;Node2 -->
<g id="edge3_Node000002_Node000002" class="edge">
<title>Node2&#45;&gt;Node2</title>
<g id="a_edge3_Node000002_Node000002"><a xlink:title=" ">
<path fill="none" stroke="#63b8ff" d="M898.35,-383.2C893.41,-386.97 883.33,-389.5 868.12,-389.5 840.31,-389.5 829.67,-381.06 836.18,-371.99"/>
<polygon fill="#63b8ff" stroke="#63b8ff" points="901.79,-383.9 899.84,-373.48 894.87,-382.84 901.79,-383.9"/>
</a>
</g>
</g>
<!-- Node3 -->
<g id="Node000003" class="node">
<title>Node3</title>
<g id="a_Node000003"><a xlink:href="class_a_q_n_w_b_1_1_n_w_b_1_1_electrodes_table.html#a619418bc86a44930589f2cfb8326bd22" target="_top" xlink:title=" ">
<polygon fill="white" stroke="#666666" points="747.25,-438.5 587.25,-438.5 587.25,-408 747.25,-408 747.25,-438.5"/>
<text xml:space="preserve" text-anchor="start" x="595.25" y="-425" font-family="Helvetica,sans-Serif" font-size="10.00">AQNWB::NWB::ElectrodesTable</text>
<text xml:space="preserve" text-anchor="middle" x="667.25" y="-413.75" font-family="Helvetica,sans-Serif" font-size="10.00">::ElectrodesTable</text>
</a>
</g>
</g>
<!-- Node2&#45;&gt;Node3 -->
<g id="edge4_Node000002_Node000003" class="edge">
<title>Node2&#45;&gt;Node3</title>
<g id="a_edge4_Node000002_Node000003"><a xlink:title=" ">
<path fill="none" stroke="#63b8ff" d="M816.32,-376C796.93,-383.3 774.55,-391.45 754,-398.25 744.43,-401.42 734.19,-404.59 724.24,-407.56"/>
<polygon fill="#63b8ff" stroke="#63b8ff" points="817.53,-379.28 825.64,-372.46 815.05,-372.73 817.53,-379.28"/>
</a>
</g>
</g>
<!-- Node4 -->
<g id="Node000004" class="node">
<title>Node4</title>
<g id="a_Node000004"><a xlink:href="class_a_q_n_w_b_1_1_n_w_b_1_1_electrodes_table.html#ac59e22d783a27642e78472f435943c9a" target="_top" xlink:title="Constructor.">
<polygon fill="white" stroke="#666666" points="747.25,-371.5 587.25,-371.5 587.25,-341 747.25,-341 747.25,-371.5"/>
<text xml:space="preserve" text-anchor="start" x="595.25" y="-358" font-family="Helvetica,sans-Serif" font-size="10.00">AQNWB::NWB::ElectrodesTable</text>
<text xml:space="preserve" text-anchor="middle" x="667.25" y="-346.75" font-family="Helvetica,sans-Serif" font-size="10.00">::ElectrodesTable</text>
</a>
</g>
</g>
<!-- Node2&#45;&gt;Node4 -->
<g id="edge5_Node000002_Node000004" class="edge">
<title>Node2&#45;&gt;Node4</title>
<g id="a_edge5_Node000002_Node000004"><a xlink:title=" ">
<path fill="none" stroke="#63b8ff" d="M780.4,-356.25C769.51,-356.25 758.41,-356.25 747.64,-356.25"/>
<polygon fill="#63b8ff" stroke="#63b8ff" points="780.14,-359.75 790.14,-356.25 780.14,-352.75 780.14,-359.75"/>
</a>
</g>
</g>
<!-- Node4&#45;&gt;Node4 -->
<g id="edge6_Node000004_Node000004" class="edge">
<title>Node4&#45;&gt;Node4</title>
<g id="a_edge6_Node000004_Node000004"><a xlink:title=" ">
<path fill="none" stroke="#63b8ff" d="M699.55,-383.2C694.27,-386.97 683.5,-389.5 667.25,-389.5 637.53,-389.5 626.15,-381.06 633.12,-371.99"/>
<polygon fill="#63b8ff" stroke="#63b8ff" points="702.98,-383.91 701.14,-373.48 696.08,-382.79 702.98,-383.91"/>
</a>
</g>
</g>
<!-- Node5&#45;&gt;Node5 -->
<g id="edge12_Node000005_Node000005" class="edge">
<title>Node5&#45;&gt;Node5</title>
<g id="a_edge12_Node000005_Node000005"><a xlink:title=" ">
<path fill="none" stroke="#63b8ff" d="M898.35,-216.2C893.41,-219.97 883.33,-222.5 868.12,-222.5 840.31,-222.5 829.67,-214.06 836.18,-204.99"/>
<polygon fill="#63b8ff" stroke="#63b8ff" points="901.79,-216.9 899.84,-206.48 894.87,-215.84 901.79,-216.9"/>
</a>
</g>
</g>
<!-- Node6 -->
<g id="Node000006" class="node">
<title>Node6</title>
<g id="a_Node000006"><a xlink:href="class_a_q_n_w_b_1_1_n_w_b_1_1_device.html#a2ad7fb2e8436a7accfce35978d962b74" target="_top" xlink:title="Constructor.">
<polygon fill="white" stroke="#666666" points="727.75,-304.5 606.75,-304.5 606.75,-274 727.75,-274 727.75,-304.5"/>
<text xml:space="preserve" text-anchor="start" x="614.75" y="-291" font-family="Helvetica,sans-Serif" font-size="10.00">AQNWB::NWB::Device</text>
<text xml:space="preserve" text-anchor="middle" x="667.25" y="-279.75" font-family="Helvetica,sans-Serif" font-size="10.00">::Device</text>
</a>
</g>
</g>
<!-- Node5&#45;&gt;Node6 -->
<g id="edge8_Node000005_Node000006" class="edge">
<title>Node5&#45;&gt;Node6</title>
<g id="a_edge8_Node000005_Node000006"><a xlink:title=" ">
<path fill="none" stroke="#63b8ff" d="M838.66,-211.64C816.6,-228.1 784.72,-249.99 754,-264.25 745.84,-268.04 736.98,-271.39 728.15,-274.31"/>
<polygon fill="#63b8ff" stroke="#63b8ff" points="840.71,-214.48 846.57,-205.65 836.48,-208.9 840.71,-214.48"/>
</a>
</g>
</g>
<!-- Node7 -->
<g id="Node000007" class="node">
<title>Node7</title>
<g id="a_Node000007"><a xlink:href="class_a_q_n_w_b_1_1_n_w_b_1_1_electrode_group.html#a7cfae9f37d17f90486921d0b6445a9cd" target="_top" xlink:title="Constructor.">
<polygon fill="white" stroke="#666666" points="746.12,-237.5 588.38,-237.5 588.38,-207 746.12,-207 746.12,-237.5"/>
<text xml:space="preserve" text-anchor="start" x="596.38" y="-224" font-family="Helvetica,sans-Serif" font-size="10.00">AQNWB::NWB::ElectrodeGroup</text>
<text xml:space="preserve" text-anchor="middle" x="667.25" y="-212.75" font-family="Helvetica,sans-Serif" font-size="10.00">::ElectrodeGroup</text>
</a>
</g>
</g>
<!-- Node5&#45;&gt;Node7 -->
<g id="edge10_Node000005_Node000007" class="edge">
<title>Node5&#45;&gt;Node7</title>
<g id="a_edge10_Node000005_Node000007"><a xlink:title=" ">
<path fill="none" stroke="#63b8ff" d="M778.6,-203.94C767.89,-205.72 757.02,-207.52 746.48,-209.27"/>
<polygon fill="#63b8ff" stroke="#63b8ff" points="778.88,-207.44 788.17,-202.35 777.73,-200.54 778.88,-207.44"/>
</a>
</g>
</g>
<!-- Node8 -->
<g id="Node000008" class="node">
<title>Node8</title>
<g id="a_Node000008"><a xlink:href="class_a_q_n_w_b_1_1_n_w_b_1_1_n_w_b_data_interface.html#ae4bdb41408c2564c06438e0c5aed3531" target="_top" xlink:title="Constructor.">
<polygon fill="white" stroke="#666666" points="754,-170.5 580.5,-170.5 580.5,-140 754,-140 754,-170.5"/>
<text xml:space="preserve" text-anchor="start" x="588.5" y="-157" font-family="Helvetica,sans-Serif" font-size="10.00">AQNWB::NWB::NWBDataInterface</text>
<text xml:space="preserve" text-anchor="middle" x="667.25" y="-145.75" font-family="Helvetica,sans-Serif" font-size="10.00">::NWBDataInterface</text>
</a>
</g>
</g>
<!-- Node5&#45;&gt;Node8 -->
<g id="edge13_Node000005_Node000008" class="edge">
<title>Node5&#45;&gt;Node8</title>
<g id="a_edge13_Node000005_Node000008"><a xlink:title=" ">
<path fill="none" stroke="#63b8ff" d="M778.45,-174.09C770.46,-172.72 762.37,-171.34 754.4,-169.98"/>
<polygon fill="#63b8ff" stroke="#63b8ff" points="777.73,-177.52 788.17,-175.75 778.91,-170.62 777.73,-177.52"/>
</a>
</g>
</g>
<!-- Node15 -->
<g id="Node000015" class="node">
<title>Node15</title>
<g id="a_Node000015"><a xlink:href="class_a_q_n_w_b_1_1_n_w_b_1_1_n_w_b_file.html#af62a01f10675b8fdd310f60f48cf23fe" target="_top" xlink:title="Required constructor so we can call RegisteredType::create but the path cannot be set.">
<polygon fill="white" stroke="#666666" points="732.25,-121.5 602.25,-121.5 602.25,-91 732.25,-91 732.25,-121.5"/>
<text xml:space="preserve" text-anchor="start" x="610.25" y="-108" font-family="Helvetica,sans-Serif" font-size="10.00">AQNWB::NWB::NWBFile</text>
<text xml:space="preserve" text-anchor="middle" x="667.25" y="-96.75" font-family="Helvetica,sans-Serif" font-size="10.00">::NWBFile</text>
</a>
</g>
</g>
<!-- Node5&#45;&gt;Node15 -->
<g id="edge24_Node000005_Node000015" class="edge">
<title>Node5&#45;&gt;Node15</title>
<g id="a_edge24_Node000005_Node000015"><a xlink:title=" ">
<path fill="none" stroke="#63b8ff" d="M830.57,-168.26C808.81,-156.34 780.38,-141.75 754,-131.25 745.5,-127.87 736.36,-124.72 727.33,-121.87"/>
<polygon fill="#63b8ff" stroke="#63b8ff" points="828.6,-171.17 839.05,-172.96 832,-165.05 828.6,-171.17"/>
</a>
</g>
</g>
<!-- Node16 -->
<g id="Node000016" class="node">
<title>Node16</title>
<g id="a_Node000016"><a xlink:href="class_a_q_n_w_b_1_1_n_w_b_1_1_n_w_b_file.html#a277f89c64204a61491bb26ad309186f3" target="_top" xlink:title="Constructor for NWBFile class.">
<polygon fill="white" stroke="#666666" points="732.25,-54.5 602.25,-54.5 602.25,-24 732.25,-24 732.25,-54.5"/>
<text xml:space="preserve" text-anchor="start" x="610.25" y="-41" font-family="Helvetica,sans-Serif" font-size="10.00">AQNWB::NWB::NWBFile</text>
<text xml:space="preserve" text-anchor="middle" x="667.25" y="-29.75" font-family="Helvetica,sans-Serif" font-size="10.00">::NWBFile</text>
</a>
</g>
</g>
<!-- Node5&#45;&gt;Node16 -->
<g id="edge25_Node000005_Node000016" class="edge">
<title>Node5&#45;&gt;Node16</title>
<g id="a_edge25_Node000005_Node000016"><a xlink:title=" ">
<path fill="none" stroke="#63b8ff" d="M845.76,-165.31C824.19,-142.09 789.14,-106.87 754,-82.25 739,-71.74 721.06,-62.32 705.47,-55"/>
<polygon fill="#63b8ff" stroke="#63b8ff" points="842.97,-167.45 852.31,-172.45 848.13,-162.72 842.97,-167.45"/>
</a>
</g>
</g>
<!-- Node6&#45;&gt;Node6 -->
<g id="edge9_Node000006_Node000006" class="edge">
<title>Node6&#45;&gt;Node6</title>
<g id="a_edge9_Node000006_Node000006"><a xlink:title=" ">
<path fill="none" stroke="#63b8ff" d="M699.55,-316.2C694.27,-319.97 683.5,-322.5 667.25,-322.5 637.53,-322.5 626.15,-314.06 633.12,-304.99"/>
<polygon fill="#63b8ff" stroke="#63b8ff" points="702.98,-316.91 701.14,-306.48 696.08,-315.79 702.98,-316.91"/>
</a>
</g>
</g>
<!-- Node7&#45;&gt;Node7 -->
<g id="edge11_Node000007_Node000007" class="edge">
<title>Node7&#45;&gt;Node7</title>
<g id="a_edge11_Node000007_Node000007"><a xlink:title=" ">
<path fill="none" stroke="#63b8ff" d="M699.55,-249.2C694.27,-252.97 683.5,-255.5 667.25,-255.5 637.53,-255.5 626.15,-247.06 633.12,-237.99"/>
<polygon fill="#63b8ff" stroke="#63b8ff" points="702.98,-249.91 701.14,-239.48 696.08,-248.79 702.98,-249.91"/>
</a>
</g>
</g>
<!-- Node8&#45;&gt;Node8 -->
<g id="edge14_Node000008_Node000008" class="edge">
<title>Node8&#45;&gt;Node8</title>
<g id="a_edge14_Node000008_Node000008"><a xlink:title=" ">
<path fill="none" stroke="#63b8ff" d="M699.55,-182.2C694.27,-185.97 683.5,-188.5 667.25,-188.5 637.53,-188.5 626.15,-180.06 633.12,-170.99"/>
<polygon fill="#63b8ff" stroke="#63b8ff" points="702.98,-182.91 701.14,-172.48 696.08,-181.79 702.98,-182.91"/>
</a>
</g>
</g>
<!-- Node9 -->
<g id="Node000009" class="node">
<title>Node9</title>
<g id="a_Node000009"><a xlink:href="class_a_q_n_w_b_1_1_n_w_b_1_1_time_series.html#a523738fd2da4b70707e4ee6844cdce02" target="_top" xlink:title="Constructor.">
<polygon fill="white" stroke="#666666" points="544.5,-170.5 404.75,-170.5 404.75,-140 544.5,-140 544.5,-170.5"/>
<text xml:space="preserve" text-anchor="start" x="412.75" y="-157" font-family="Helvetica,sans-Serif" font-size="10.00">AQNWB::NWB::TimeSeries</text>
<text xml:space="preserve" text-anchor="middle" x="474.62" y="-145.75" font-family="Helvetica,sans-Serif" font-size="10.00">::TimeSeries</text>
</a>
</g>
</g>
<!-- Node8&#45;&gt;Node9 -->
<g id="edge15_Node000008_Node000009" class="edge">
<title>Node8&#45;&gt;Node9</title>
<g id="a_edge15_Node000008_Node000009"><a xlink:title=" ">
<path fill="none" stroke="#63b8ff" d="M568.73,-155.25C560.65,-155.25 552.59,-155.25 544.79,-155.25"/>
<polygon fill="#63b8ff" stroke="#63b8ff" points="568.63,-158.75 578.63,-155.25 568.63,-151.75 568.63,-158.75"/>
</a>
</g>
</g>
<!-- Node10 -->
<g id="Node000010" class="node">
<title>Node10</title>
<g id="a_Node000010"><a xlink:href="class_a_q_n_w_b_1_1_n_w_b_1_1_annotation_series.html#ab98f231850a75a82fade2234e8606359" target="_top" xlink:title="Constructor.">
<polygon fill="white" stroke="#666666" points="368.75,-237.5 204.25,-237.5 204.25,-207 368.75,-207 368.75,-237.5"/>
<text xml:space="preserve" text-anchor="start" x="212.25" y="-224" font-family="Helvetica,sans-Serif" font-size="10.00">AQNWB::NWB::AnnotationSeries</text>
<text xml:space="preserve" text-anchor="middle" x="286.5" y="-212.75" font-family="Helvetica,sans-Serif" font-size="10.00">::AnnotationSeries</text>
</a>
</g>
</g>
<!-- Node9&#45;&gt;Node10 -->
<g id="edge16_Node000009_Node000010" class="edge">
<title>Node9&#45;&gt;Node10</title>
<g id="a_edge16_Node000009_Node000010"><a xlink:title=" ">
<path fill="none" stroke="#63b8ff" d="M426.09,-175.25C408.23,-182.51 387.68,-190.56 368.75,-197.25 359.71,-200.45 350.02,-203.63 340.59,-206.6"/>
<polygon fill="#63b8ff" stroke="#63b8ff" points="427.21,-178.57 435.13,-171.54 424.55,-172.1 427.21,-178.57"/>
</a>
</g>
</g>
<!-- Node11 -->
<g id="Node000011" class="node">
<title>Node11</title>
<g id="a_Node000011"><a xlink:href="class_a_q_n_w_b_1_1_n_w_b_1_1_electrical_series.html#a684a7b01cb955d7335f07d5eaab2250b" target="_top" xlink:title="Constructor.">
<polygon fill="white" stroke="#666666" points="365.75,-170.5 207.25,-170.5 207.25,-140 365.75,-140 365.75,-170.5"/>
<text xml:space="preserve" text-anchor="start" x="215.25" y="-157" font-family="Helvetica,sans-Serif" font-size="10.00">AQNWB::NWB::ElectricalSeries</text>
<text xml:space="preserve" text-anchor="middle" x="286.5" y="-145.75" font-family="Helvetica,sans-Serif" font-size="10.00">::ElectricalSeries</text>
</a>
</g>
</g>
<!-- Node9&#45;&gt;Node11 -->
<g id="edge18_Node000009_Node000011" class="edge">
<title>Node9&#45;&gt;Node11</title>
<g id="a_edge18_Node000009_Node000011"><a xlink:title=" ">
<path fill="none" stroke="#63b8ff" d="M393.04,-155.25C384.06,-155.25 374.91,-155.25 365.95,-155.25"/>
<polygon fill="#63b8ff" stroke="#63b8ff" points="392.81,-158.75 402.81,-155.25 392.81,-151.75 392.81,-158.75"/>
</a>
</g>
</g>
<!-- Node13 -->
<g id="Node000013" class="node">
<title>Node13</title>
<g id="a_Node000013"><a xlink:href="class_a_q_n_w_b_1_1_n_w_b_1_1_time_series.html#ab2eeb7e016b23097674627251e5e5ac7" target="_top" xlink:title=" ">
<polygon fill="white" stroke="#666666" points="356.38,-121.5 216.62,-121.5 216.62,-91 356.38,-91 356.38,-121.5"/>
<text xml:space="preserve" text-anchor="start" x="224.62" y="-108" font-family="Helvetica,sans-Serif" font-size="10.00">AQNWB::NWB::TimeSeries</text>
<text xml:space="preserve" text-anchor="middle" x="286.5" y="-96.75" font-family="Helvetica,sans-Serif" font-size="10.00">::readComments</text>
</a>
</g>
</g>
<!-- Node9&#45;&gt;Node13 -->
<g id="edge22_Node000009_Node000013" class="edge">
<title>Node9&#45;&gt;Node13</title>
<g id="a_edge22_Node000009_Node000013"><a xlink:title=" ">
<path fill="none" stroke="#63b8ff" d="M402.99,-136.66C384.58,-131.81 364.92,-126.63 347.14,-121.95"/>
<polygon fill="#63b8ff" stroke="#63b8ff" points="401.94,-140 412.5,-139.16 403.72,-133.23 401.94,-140"/>
</a>
</g>
</g>
<!-- Node10&#45;&gt;Node10 -->
<g id="edge17_Node000010_Node000010" class="edge">
<title>Node10&#45;&gt;Node10</title>
<g id="a_edge17_Node000010_Node000010"><a xlink:title=" ">
<path fill="none" stroke="#63b8ff" d="M318.05,-249.2C312.89,-252.97 302.37,-255.5 286.5,-255.5 257.47,-255.5 246.36,-247.06 253.16,-237.99"/>
<polygon fill="#63b8ff" stroke="#63b8ff" points="321.48,-249.91 319.6,-239.48 314.57,-248.81 321.48,-249.91"/>
</a>
</g>
</g>
<!-- Node11&#45;&gt;Node11 -->
<g id="edge19_Node000011_Node000011" class="edge">
<title>Node11&#45;&gt;Node11</title>
<g id="a_edge19_Node000011_Node000011"><a xlink:title=" ">
<path fill="none" stroke="#63b8ff" d="M318.05,-182.2C312.89,-185.97 302.37,-188.5 286.5,-188.5 257.47,-188.5 246.36,-180.06 253.16,-170.99"/>
<polygon fill="#63b8ff" stroke="#63b8ff" points="321.48,-182.91 319.6,-172.48 314.57,-181.81 321.48,-182.91"/>
</a>
</g>
</g>
<!-- Node12 -->
<g id="Node000012" class="node">
<title>Node12</title>
<g id="a_Node000012"><a xlink:href="class_a_q_n_w_b_1_1_n_w_b_1_1_spike_event_series.html#af5b323ae3afbdf308f151cf233b2c0db" target="_top" xlink:title="Constructor.">
<polygon fill="white" stroke="#666666" points="168.25,-170.5 0,-170.5 0,-140 168.25,-140 168.25,-170.5"/>
<text xml:space="preserve" text-anchor="start" x="8" y="-157" font-family="Helvetica,sans-Serif" font-size="10.00">AQNWB::NWB::SpikeEventSeries</text>
<text xml:space="preserve" text-anchor="middle" x="84.12" y="-145.75" font-family="Helvetica,sans-Serif" font-size="10.00">::SpikeEventSeries</text>
</a>
</g>
</g>
<!-- Node11&#45;&gt;Node12 -->
<g id="edge20_Node000011_Node000012" class="edge">
<title>Node11&#45;&gt;Node12</title>
<g id="a_edge20_Node000011_Node000012"><a xlink:title=" ">
<path fill="none" stroke="#63b8ff" d="M195.55,-155.25C186.54,-155.25 177.41,-155.25 168.47,-155.25"/>
<polygon fill="#63b8ff" stroke="#63b8ff" points="195.37,-158.75 205.37,-155.25 195.37,-151.75 195.37,-158.75"/>
</a>
</g>
</g>
<!-- Node12&#45;&gt;Node12 -->
<g id="edge21_Node000012_Node000012" class="edge">
<title>Node12&#45;&gt;Node12</title>
<g id="a_edge21_Node000012_Node000012"><a xlink:title=" ">
<path fill="none" stroke="#63b8ff" d="M118.06,-182.2C112.51,-185.97 101.2,-188.5 84.12,-188.5 52.9,-188.5 40.95,-180.06 48.26,-170.99"/>
<polygon fill="#63b8ff" stroke="#63b8ff" points="121.49,-182.93 119.73,-172.48 114.59,-181.74 121.49,-182.93"/>
</a>
</g>
</g>
<!-- Node14 -->
<g id="Node000014" class="node">
<title>Node14</title>
<g id="a_Node000014"><a xlink:href="class_a_q_n_w_b_1_1_n_w_b_1_1_time_series.html#ae2a561b2f5a56f86f8794bdfdd07f422" target="_top" xlink:title=" ">
<polygon fill="white" stroke="#666666" points="154,-121.5 14.25,-121.5 14.25,-91 154,-91 154,-121.5"/>
<text xml:space="preserve" text-anchor="start" x="22.25" y="-108" font-family="Helvetica,sans-Serif" font-size="10.00">AQNWB::NWB::TimeSeries</text>
<text xml:space="preserve" text-anchor="middle" x="84.12" y="-96.75" font-family="Helvetica,sans-Serif" font-size="10.00">::readDescription</text>
</a>
</g>
</g>
<!-- Node13&#45;&gt;Node14 -->
<g id="edge23_Node000013_Node000014" class="edge">
<title>Node13&#45;&gt;Node14</title>
<g id="a_edge23_Node000013_Node000014"><a xlink:title=" ">
<path fill="none" stroke="#63b8ff" d="M204.83,-106.25C188.11,-106.25 170.63,-106.25 154.37,-106.25"/>
<polygon fill="#63b8ff" stroke="#63b8ff" points="204.75,-109.75 214.75,-106.25 204.75,-102.75 204.75,-109.75"/>
</a>
</g>
</g>
<!-- Node16&#45;&gt;Node16 -->
<g id="edge27_Node000016_Node000016" class="edge">
<title>Node16&#45;&gt;Node16</title>
<g id="a_edge27_Node000016_Node000016"><a xlink:title=" ">
<path fill="none" stroke="#63b8ff" d="M699.55,-66.2C694.27,-69.97 683.5,-72.5 667.25,-72.5 637.53,-72.5 626.15,-64.06 633.12,-54.99"/>
<polygon fill="#63b8ff" stroke="#63b8ff" points="702.98,-66.91 701.14,-56.48 696.08,-65.79 702.98,-66.91"/>
</a>
</g>
</g>
<!-- Node17 -->
<g id="Node000017" class="node">
<title>Node17</title>
<g id="a_Node000017"><a xlink:href="class_a_q_n_w_b_1_1_n_w_b_1_1_n_w_b_file.html#a4639155769006a79b189cdb7634bbaa5" target="_top" xlink:title="Deleted copy constructor to prevent construction&#45;copying.">
<polygon fill="white" stroke="#666666" points="539.62,-79.5 409.62,-79.5 409.62,-49 539.62,-49 539.62,-79.5"/>
<text xml:space="preserve" text-anchor="start" x="417.62" y="-66" font-family="Helvetica,sans-Serif" font-size="10.00">AQNWB::NWB::NWBFile</text>
<text xml:space="preserve" text-anchor="middle" x="474.62" y="-54.75" font-family="Helvetica,sans-Serif" font-size="10.00">::NWBFile</text>
</a>
</g>
</g>
<!-- Node16&#45;&gt;Node17 -->
<g id="edge26_Node000016_Node000017" class="edge">
<title>Node16&#45;&gt;Node17</title>
<g id="a_edge26_Node000016_Node000017"><a xlink:title=" ">
<path fill="none" stroke="#63b8ff" d="M591.03,-49.12C574.13,-51.33 556.35,-53.66 539.94,-55.82"/>
<polygon fill="#63b8ff" stroke="#63b8ff" points="591.02,-52.65 600.48,-47.88 590.11,-45.71 591.02,-52.65"/>
</a>
</g>
</g>
<!-- Node18 -->
<g id="Node000018" class="node">
<title>Node18</title>
<g id="a_Node000018"><a xlink:href="class_a_q_n_w_b_1_1_n_w_b_1_1_n_w_b_file.html#a941d5b775441fac6c787cd55a8276461" target="_top" xlink:title="Deleted copy assignment operator to prevent copying.">
<polygon fill="white" stroke="#666666" points="539.62,-30.5 409.62,-30.5 409.62,0 539.62,0 539.62,-30.5"/>
<text xml:space="preserve" text-anchor="start" x="417.62" y="-17" font-family="Helvetica,sans-Serif" font-size="10.00">AQNWB::NWB::NWBFile</text>
<text xml:space="preserve" text-anchor="middle" x="474.62" y="-5.75" font-family="Helvetica,sans-Serif" font-size="10.00">::operator=</text>
</a>
</g>
</g>
<!-- Node16&#45;&gt;Node18 -->
<g id="edge28_Node000016_Node000018" class="edge">
<title>Node16&#45;&gt;Node18</title>
<g id="a_edge28_Node000016_Node000018"><a xlink:title=" ">
<path fill="none" stroke="#63b8ff" d="M591.03,-29.78C574.13,-27.65 556.35,-25.41 539.94,-23.35"/>
<polygon fill="#63b8ff" stroke="#63b8ff" points="590.12,-33.19 600.48,-30.97 590.99,-26.25 590.12,-33.19"/>
</a>
</g>
</g>
</g>
</svg>

<g id="navigator" transform="translate(0 0)" fill="#404254">
  <rect fill="#f2f5e9" fill-opacity="0.5" stroke="#606060" stroke-width=".5" x="0" y="0" width="60" height="60"/>
  <use id="zoomplus" xlink:href="#zoomPlus" x="17" y="9" onmousedown="handleZoom(evt,'in')"/>
  <use id="zoomminus" xlink:href="#zoomMin" x="42" y="9" onmousedown="handleZoom(evt,'out')"/>
  <use id="reset" xlink:href="#resetDef" x="30" y="36" onmousedown="handleReset()"/>
   <use id="arrowup" xlink:href="#arrowUp" x="0" y="0" onmousedown="handlePan(0,-1)"/>
  <use id="arrowright" xlink:href="#arrowRight" x="0" y="0" onmousedown="handlePan(1,0)"/>
  <use id="arrowdown" xlink:href="#arrowDown" x="0" y="0" onmousedown="handlePan(0,1)"/>
  <use id="arrowleft" xlink:href="#arrowLeft" x="0" y="0" onmousedown="handlePan(-1,0)"/>
</g>
<svg viewBox="0 0 15 15" width="100%" height="30px" preserveAspectRatio="xMaxYMin meet">
 <g id="arrow_out" transform="scale(0.3 0.3)">
  <a xlink:href="class_a_q_n_w_b_1_1_n_w_b_1_1_container_a0ec16ae5d28267ea37464ffe2c2c34e5_icgraph_org.svg" target="_base">
   <rect id="button" ry="5" rx="5" y="6" x="6" height="38" width="38"
        fill="#f2f5e9" fill-opacity="0.5" stroke="#606060" stroke-width="1.0"/>
   <path id="arrow"
     d="M 11.500037,31.436501 C 11.940474,20.09759 22.043105,11.32322 32.158766,21.979434 L 37.068811,17.246167 C 37.068811,17.246167 37.088388,32 37.088388,32 L 22.160133,31.978069 C 22.160133,31.978069 26.997745,27.140456 26.997745,27.140456 C 18.528582,18.264221 13.291696,25.230495 11.500037,31.436501 z"
     style="fill:#404040;"/>
  </a>
 </g>
</svg>

<style type='text/css'>
<![CDATA[
[data-mouse-over-selected='false'] { opacity: 0.7; }
[data-mouse-over-selected='true']  { opacity: 1.0; }
]]>
</style>
<script type="application/ecmascript"><![CDATA[
document.addEventListener('DOMContentLoaded', (event) => {
  highlightEdges();
  highlightAdjacentNodes();
});
]]></script>
</svg>
