<?xml version="1.0" encoding="UTF-8" standalone="no"?>
<!DOCTYPE svg PUBLIC "-//W3C//DTD SVG 1.1//EN"
 "http://www.w3.org/Graphics/SVG/1.1/DTD/svg11.dtd">
<!-- Generated by graphviz version 14.1.0 (20251206.1807)
 -->
<!-- Title: AQNWB::NWB::Data Pages: 1 -->
<!--zoomable 165 -->

<svg id="main" version="1.1" xmlns="http://www.w3.org/2000/svg" xmlns:xlink="http://www.w3.org/1999/xlink" xml:space="preserve" onload="init(evt)">

<style type="text/css"><![CDATA[
.node, .edge {opacity: 0.7;}
.node.selected, .edge.selected {opacity: 1;}
.edge:hover path { stroke: red; }
.edge:hover polygon { stroke: red; fill: red; }
]]></style>

<defs>
  <circle id="rim" cx="0" cy="0" r="7"/>
  <circle id="rim2" cx="0" cy="0" r="3.5"/>
  <g id="zoomPlus">
    <use xlink:href="#rim" fill="#404040"><set attributeName="fill" to="#808080" begin="zoomplus.mouseover" end="zoomplus.mouseout"/></use>
    <path d="M-4,0h8M0,-4v8" fill="none" stroke="white" stroke-width="1.5" pointer-events="none"/>
  </g>
  <g id="zoomMin">
    <use xlink:href="#rim" fill="#404040"><set attributeName="fill" to="#808080" begin="zoomminus.mouseover" end="zoomminus.mouseout"/></use>
    <path d="M-4,0h8" fill="none" stroke="white" stroke-width="1.5" pointer-events="none"/>
  </g>
  <g id="arrowUp" transform="translate(30 24)">
    <use xlink:href="#rim"/>
    <path pointer-events="none" fill="none" stroke="white" stroke-width="1.5" d="M0,-3.0v7 M-2.5,-0.5L0,-3.0L2.5,-0.5"/>
  </g>
  <g id="arrowRight" transform="rotate(90) translate(36 -43)">
    <use xlink:href="#rim"/>
    <path pointer-events="none" fill="none" stroke="white" stroke-width="1.5" d="M0,-3.0v7 M-2.5,-0.5L0,-3.0L2.5,-0.5"/>
  </g>
  <g id="arrowDown" transform="rotate(180) translate(-30 -48)">
    <use xlink:href="#rim"/>
    <path pointer-events="none" fill="none" stroke="white" stroke-width="1.5" d="M0,-3.0v7 M-2.5,-0.5L0,-3.0L2.5,-0.5"/>
  </g>
  <g id="arrowLeft" transform="rotate(270) translate(-36 17)">
    <use xlink:href="#rim"/>
    <path pointer-events="none" fill="none" stroke="white" stroke-width="1.5" d="M0,-3.0v7 M-2.5,-0.5L0,-3.0L2.5,-0.5"/>
  </g>
  <g id="resetDef">
    <use xlink:href="#rim2" fill="#404040"><set attributeName="fill" to="#808080" begin="reset.mouseover" end="reset.mouseout"/></use>
  </g>
</defs>
<script type="application/ecmascript">
var viewWidth = 905;
var viewHeight = 165;
var sectionId = 'dynsection-0';
</script>
<script type="application/ecmascript" xlink:href="svg.min.js"/>
<svg id="graph" class="graph">
<g id="viewport">
<title>AQNWB::NWB::Data</title>
<!-- Node1 -->
<g id="Node000001" class="node">
<title>Node1</title>
<g id="a_Node000001"><a xlink:title="An abstract data type for a dataset.">
<polygon fill="#999999" stroke="#666666" points="489.75,-88.88 378.5,-88.88 378.5,-69.62 489.75,-69.62 489.75,-88.88"/>
<text xml:space="preserve" text-anchor="middle" x="434.12" y="-75.38" font-family="Helvetica,sans-Serif" font-size="10.00">AQNWB::NWB::Data</text>
</a>
</g>
</g>
<!-- Node4 -->
<g id="Node000004" class="node">
<title>Node4</title>
<g id="a_Node000004"><a xlink:href="class_a_q_n_w_b_1_1_n_w_b_1_1_data_typed.html" target="_top" xlink:title="A typed data container for a dataset.">
<polygon fill="white" stroke="#666666" points="679,-156.5 541.5,-156.5 541.5,-126 679,-126 679,-156.5"/>
<text xml:space="preserve" text-anchor="start" x="549.5" y="-143" font-family="Helvetica,sans-Serif" font-size="10.00">AQNWB::NWB::DataTyped</text>
<text xml:space="preserve" text-anchor="middle" x="610.25" y="-131.75" font-family="Helvetica,sans-Serif" font-size="10.00">&lt; DTYPE &gt;</text>
</a>
</g>
</g>
<!-- Node1&#45;&gt;Node4 -->
<g id="edge3_Node000001_Node000004" class="edge">
<title>Node1&#45;&gt;Node4</title>
<g id="a_edge3_Node000001_Node000004"><a xlink:title=" ">
<path fill="none" stroke="#63b8ff" d="M467.25,-93.8C484.42,-101.3 506.03,-110.31 525.75,-117.25 534,-120.15 542.8,-122.98 551.48,-125.6"/>
<polygon fill="#63b8ff" stroke="#63b8ff" points="469.13,-90.81 458.57,-89.97 466.3,-97.21 469.13,-90.81"/>
</a>
</g>
</g>
<!-- Node5 -->
<g id="Node000005" class="node">
<title>Node5</title>
<g id="a_Node000005"><a xlink:href="class_a_q_n_w_b_1_1_n_w_b_1_1_element_identifiers.html" target="_top" xlink:title="A list of unique identifiers for values within a dataset, e.g. rows of a DynamicTable.">
<polygon fill="white" stroke="#666666" points="694.75,-107.88 525.75,-107.88 525.75,-88.62 694.75,-88.62 694.75,-107.88"/>
<text xml:space="preserve" text-anchor="middle" x="610.25" y="-94.38" font-family="Helvetica,sans-Serif" font-size="10.00">AQNWB::NWB::ElementIdentifiers</text>
</a>
</g>
</g>
<!-- Node1&#45;&gt;Node5 -->
<g id="edge4_Node000001_Node000005" class="edge">
<title>Node1&#45;&gt;Node5</title>
<g id="a_edge4_Node000001_Node000005"><a xlink:title=" ">
<path fill="none" stroke="#63b8ff" d="M501.54,-86.5C509.4,-87.35 517.5,-88.24 525.57,-89.12"/>
<polygon fill="#63b8ff" stroke="#63b8ff" points="502.04,-83.03 491.72,-85.43 501.29,-89.99 502.04,-83.03"/>
</a>
</g>
</g>
<!-- Node6 -->
<g id="Node000006" class="node">
<title>Node6</title>
<g id="a_Node000006"><a xlink:href="class_a_q_n_w_b_1_1_n_w_b_1_1_n_w_b_data.html" target="_top" xlink:title="An abstract data type for a dataset.">
<polygon fill="white" stroke="#666666" points="677.88,-70.88 542.62,-70.88 542.62,-51.62 677.88,-51.62 677.88,-70.88"/>
<text xml:space="preserve" text-anchor="middle" x="610.25" y="-57.38" font-family="Helvetica,sans-Serif" font-size="10.00">AQNWB::NWB::NWBData</text>
</a>
</g>
</g>
<!-- Node1&#45;&gt;Node6 -->
<g id="edge5_Node000001_Node000006" class="edge">
<title>Node1&#45;&gt;Node6</title>
<g id="a_edge5_Node000001_Node000006"><a xlink:title=" ">
<path fill="none" stroke="#63b8ff" d="M501.3,-72.41C514.72,-71.02 528.85,-69.56 542.3,-68.17"/>
<polygon fill="#63b8ff" stroke="#63b8ff" points="501.31,-68.89 491.72,-73.4 502.03,-75.85 501.31,-68.89"/>
</a>
</g>
</g>
<!-- Node8 -->
<g id="Node000008" class="node">
<title>Node8</title>
<g id="a_Node000008"><a xlink:href="class_a_q_n_w_b_1_1_n_w_b_1_1_vector_data.html" target="_top" xlink:title="An n&#45;dimensional dataset representing a column of a DynamicTable.">
<polygon fill="white" stroke="#666666" points="680.12,-30.88 540.38,-30.88 540.38,-11.62 680.12,-11.62 680.12,-30.88"/>
<text xml:space="preserve" text-anchor="middle" x="610.25" y="-17.38" font-family="Helvetica,sans-Serif" font-size="10.00">AQNWB::NWB::VectorData</text>
</a>
</g>
</g>
<!-- Node1&#45;&gt;Node8 -->
<g id="edge7_Node000001_Node000008" class="edge">
<title>Node1&#45;&gt;Node8</title>
<g id="a_edge7_Node000001_Node000008"><a xlink:title=" ">
<path fill="none" stroke="#63b8ff" d="M467.68,-64.66C484.75,-57.33 506.15,-48.68 525.75,-42.25 538.11,-38.2 551.71,-34.47 564.28,-31.32"/>
<polygon fill="#63b8ff" stroke="#63b8ff" points="466.31,-61.44 458.53,-68.63 469.1,-67.85 466.31,-61.44"/>
</a>
</g>
</g>
<!-- Node2 -->
<g id="Node000002" class="node">
<title>Node2</title>
<g id="a_Node000002"><a xlink:href="class_a_q_n_w_b_1_1_n_w_b_1_1_registered_type.html" target="_top" xlink:title="Base class for types defined in the NWB schema.">
<polygon fill="white" stroke="#666666" points="342.5,-88.88 184,-88.88 184,-69.62 342.5,-69.62 342.5,-88.88"/>
<text xml:space="preserve" text-anchor="middle" x="263.25" y="-75.38" font-family="Helvetica,sans-Serif" font-size="10.00">AQNWB::NWB::RegisteredType</text>
</a>
</g>
</g>
<!-- Node2&#45;&gt;Node1 -->
<g id="edge1_Node000001_Node000002" class="edge">
<title>Node2&#45;&gt;Node1</title>
<g id="a_edge1_Node000001_Node000002"><a xlink:title=" ">
<path fill="none" stroke="#63b8ff" d="M354.08,-79.25C362.37,-79.25 370.59,-79.25 378.43,-79.25"/>
<polygon fill="#63b8ff" stroke="#63b8ff" points="354.27,-75.75 344.27,-79.25 354.27,-82.75 354.27,-75.75"/>
</a>
</g>
</g>
<!-- Node3 -->
<g id="Node000003" class="node">
<title>Node3</title>
<g id="a_Node000003"><a xlink:title=" ">
<polygon fill="white" stroke="#666666" points="148,-94.5 0,-94.5 0,-64 148,-64 148,-94.5"/>
<text xml:space="preserve" text-anchor="start" x="8" y="-81" font-family="Helvetica,sans-Serif" font-size="10.00">std::enable_shared</text>
<text xml:space="preserve" text-anchor="middle" x="74" y="-69.75" font-family="Helvetica,sans-Serif" font-size="10.00">_from_this&lt; RegisteredType &gt;</text>
</a>
</g>
</g>
<!-- Node3&#45;&gt;Node2 -->
<g id="edge2_Node000002_Node000003" class="edge">
<title>Node3&#45;&gt;Node2</title>
<g id="a_edge2_Node000002_Node000003"><a xlink:title=" ">
<path fill="none" stroke="#63b8ff" d="M159.98,-79.25C167.89,-79.25 175.89,-79.25 183.74,-79.25"/>
<polygon fill="#63b8ff" stroke="#63b8ff" points="159.98,-75.75 149.98,-79.25 159.98,-82.75 159.98,-75.75"/>
</a>
</g>
</g>
<!-- Node7 -->
<g id="Node000007" class="node">
<title>Node7</title>
<g id="a_Node000007"><a xlink:href="class_a_q_n_w_b_1_1_n_w_b_1_1_n_w_b_data_typed.html" target="_top" xlink:title="A typed data container for a dataset.">
<polygon fill="white" stroke="#666666" points="894.5,-79.5 733,-79.5 733,-49 894.5,-49 894.5,-79.5"/>
<text xml:space="preserve" text-anchor="start" x="741" y="-66" font-family="Helvetica,sans-Serif" font-size="10.00">AQNWB::NWB::NWBDataTyped</text>
<text xml:space="preserve" text-anchor="middle" x="813.75" y="-54.75" font-family="Helvetica,sans-Serif" font-size="10.00">&lt; DTYPE &gt;</text>
</a>
</g>
</g>
<!-- Node6&#45;&gt;Node7 -->
<g id="edge6_Node000006_Node000007" class="edge">
<title>Node6&#45;&gt;Node7</title>
<g id="a_edge6_Node000006_Node000007"><a xlink:title=" ">
<path fill="none" stroke="#63b8ff" d="M689.54,-62.42C703.69,-62.63 718.46,-62.85 732.66,-63.06"/>
<polygon fill="#63b8ff" stroke="#63b8ff" points="689.91,-58.92 679.86,-62.27 689.81,-65.92 689.91,-58.92"/>
</a>
</g>
</g>
<!-- Node9 -->
<g id="Node000009" class="node">
<title>Node9</title>
<g id="a_Node000009"><a xlink:href="class_a_q_n_w_b_1_1_n_w_b_1_1_vector_data_typed.html" target="_top" xlink:title="A typed n&#45;dimensional dataset representing a column of a DynamicTable.">
<polygon fill="white" stroke="#666666" points="896.75,-30.5 730.75,-30.5 730.75,0 896.75,0 896.75,-30.5"/>
<text xml:space="preserve" text-anchor="start" x="738.75" y="-17" font-family="Helvetica,sans-Serif" font-size="10.00">AQNWB::NWB::VectorDataTyped</text>
<text xml:space="preserve" text-anchor="middle" x="813.75" y="-5.75" font-family="Helvetica,sans-Serif" font-size="10.00">&lt; DTYPE &gt;</text>
</a>
</g>
</g>
<!-- Node8&#45;&gt;Node9 -->
<g id="edge8_Node000008_Node000009" class="edge">
<title>Node8&#45;&gt;Node9</title>
<g id="a_edge8_Node000008_Node000009"><a xlink:title=" ">
<path fill="none" stroke="#63b8ff" d="M692.05,-18.84C704.69,-18.47 717.76,-18.08 730.43,-17.7"/>
<polygon fill="#63b8ff" stroke="#63b8ff" points="692,-15.34 682.11,-19.14 692.21,-22.34 692,-15.34"/>
</a>
</g>
</g>
</g>
</svg>

<g id="navigator" transform="translate(0 0)" fill="#404254">
  <rect fill="#f2f5e9" fill-opacity="0.5" stroke="#606060" stroke-width=".5" x="0" y="0" width="60" height="60"/>
  <use id="zoomplus" xlink:href="#zoomPlus" x="17" y="9" onmousedown="handleZoom(evt,'in')"/>
  <use id="zoomminus" xlink:href="#zoomMin" x="42" y="9" onmousedown="handleZoom(evt,'out')"/>
  <use id="reset" xlink:href="#resetDef" x="30" y="36" onmousedown="handleReset()"/>
   <use id="arrowup" xlink:href="#arrowUp" x="0" y="0" onmousedown="handlePan(0,-1)"/>
  <use id="arrowright" xlink:href="#arrowRight" x="0" y="0" onmousedown="handlePan(1,0)"/>
  <use id="arrowdown" xlink:href="#arrowDown" x="0" y="0" onmousedown="handlePan(0,1)"/>
  <use id="arrowleft" xlink:href="#arrowLeft" x="0" y="0" onmousedown="handlePan(-1,0)"/>
</g>
<svg viewBox="0 0 15 15" width="100%" height="30px" preserveAspectRatio="xMaxYMin meet">
 <g id="arrow_out" transform="scale(0.3 0.3)">
  <a xlink:href="class_a_q_n_w_b_1_1_n_w_b_1_1_data__inherit__graph_org.svg" target="_base">
   <rect id="button" ry="5" rx="5" y="6" x="6" height="38" width="38"
        fill="#f2f5e9" fill-opacity="0.5" stroke="#606060" stroke-width="1.0"/>
   <path id="arrow"
     d="M 11.500037,31.436501 C 11.940474,20.09759 22.043105,11.32322 32.158766,21.979434 L 37.068811,17.246167 C 37.068811,17.246167 37.088388,32 37.088388,32 L 22.160133,31.978069 C 22.160133,31.978069 26.997745,27.140456 26.997745,27.140456 C 18.528582,18.264221 13.291696,25.230495 11.500037,31.436501 z"
     style="fill:#404040;"/>
  </a>
 </g>
</svg>

<style type='text/css'>
<![CDATA[
[data-mouse-over-selected='false'] { opacity: 0.7; }
[data-mouse-over-selected='true']  { opacity: 1.0; }
]]>
</style>
<script type="application/ecmascript"><![CDATA[
document.addEventListener('DOMContentLoaded', (event) => {
  highlightEdges();
  highlightAdjacentNodes();
});
]]></script>
</svg>
