<?xml version="1.0" encoding="UTF-8" standalone="no"?>
<!DOCTYPE svg PUBLIC "-//W3C//DTD SVG 1.1//EN"
 "http://www.w3.org/Graphics/SVG/1.1/DTD/svg11.dtd">
<!-- Generated by graphviz version 12.2.1 (20241206.2353)
 -->
<!-- Title: AQNWB::NWB::Data::Data Pages: 1 -->
<svg width="351pt" height="124pt"
 viewBox="0.00 0.00 351.25 123.50" xmlns="http://www.w3.org/2000/svg" xmlns:xlink="http://www.w3.org/1999/xlink">

<svg id="main" version="1.1" xmlns="http://www.w3.org/2000/svg" xmlns:xlink="http://www.w3.org/1999/xlink" xml:space="preserve">

<style type="text/css"><![CDATA[
.node, .edge {opacity: 0.7;}
.node.selected, .edge.selected {opacity: 1;}
.edge:hover path { stroke: red; }
.edge:hover polygon { stroke: red; fill: red; }
]]></style>
<script type="application/ecmascript" xlink:href="svg.min.js"/>
<svg id="graph" class="graph">
<g id="graph0" class="graph" transform="scale(1 1) rotate(0) translate(4 119.5)">
<title>AQNWB::NWB::Data::Data</title>
<!-- Node1 -->
<g id="Node000001" class="node">
<title>Node1</title>
<g id="a_Node000001"><a xlink:title="Constructor.">
<polygon fill="#999999" stroke="#666666" points="343.25,-57.88 205,-57.88 205,-38.62 343.25,-38.62 343.25,-57.88"/>
<text text-anchor="middle" x="274.12" y="-44.38" font-family="Helvetica,sans-Serif" font-size="10.00">AQNWB::NWB::Data::Data</text>
</a>
</g>
</g>
<!-- Node1&#45;&gt;Node1 -->
<g id="edge1_Node000001_Node000001" class="edge">
<title>Node1&#45;&gt;Node1</title>
<g id="a_edge1_Node000001_Node000001"><a xlink:title=" ">
<path fill="none" stroke="#63b8ff" d="M308.44,-68.6C304.83,-72.83 293.4,-75.88 274.12,-75.88 240.79,-75.88 230.9,-66.77 244.44,-58.16"/>
<polygon fill="#63b8ff" stroke="#63b8ff" points="311.68,-67.27 304.42,-59.55 305.28,-70.11 311.68,-67.27"/>
</a>
</g>
</g>
<!-- Node2 -->
<g id="Node000002" class="node">
<title>Node2</title>
<g id="a_Node000002"><a xlink:href="class_a_q_n_w_b_1_1_n_w_b_1_1_element_identifiers.html#a40f8d890a3fd976858bedc91e08fd745" target="_top" xlink:title="Constructor.">
<polygon fill="white" stroke="#666666" points="169,-97.5 0,-97.5 0,-67 169,-67 169,-97.5"/>
<text text-anchor="start" x="8" y="-84" font-family="Helvetica,sans-Serif" font-size="10.00">AQNWB::NWB::ElementIdentifiers</text>
<text text-anchor="middle" x="84.5" y="-72.75" font-family="Helvetica,sans-Serif" font-size="10.00">::ElementIdentifiers</text>
</a>
</g>
</g>
<!-- Node1&#45;&gt;Node2 -->
<g id="edge2_Node000001_Node000002" class="edge">
<title>Node1&#45;&gt;Node2</title>
<g id="a_edge2_Node000001_Node000002"><a xlink:title=" ">
<path fill="none" stroke="#63b8ff" d="M206.1,-60.4C194.15,-62.56 181.56,-64.84 169.21,-67.08"/>
<polygon fill="#63b8ff" stroke="#63b8ff" points="206.63,-63.86 215.85,-58.63 205.39,-56.97 206.63,-63.86"/>
</a>
</g>
</g>
<!-- Node3 -->
<g id="Node000003" class="node">
<title>Node3</title>
<g id="a_Node000003"><a xlink:href="class_a_q_n_w_b_1_1_n_w_b_1_1_vector_data.html#aaf127dfd1e590307b872ea785d578316" target="_top" xlink:title="Constructor.">
<polygon fill="white" stroke="#666666" points="154.38,-30.5 14.62,-30.5 14.62,0 154.38,0 154.38,-30.5"/>
<text text-anchor="start" x="22.62" y="-17" font-family="Helvetica,sans-Serif" font-size="10.00">AQNWB::NWB::VectorData</text>
<text text-anchor="middle" x="84.5" y="-5.75" font-family="Helvetica,sans-Serif" font-size="10.00">::VectorData</text>
</a>
</g>
</g>
<!-- Node1&#45;&gt;Node3 -->
<g id="edge4_Node000001_Node000003" class="edge">
<title>Node1&#45;&gt;Node3</title>
<g id="a_edge4_Node000001_Node000003"><a xlink:title=" ">
<path fill="none" stroke="#63b8ff" d="M204.73,-36.22C188.43,-33.35 171.02,-30.29 154.69,-27.42"/>
<polygon fill="#63b8ff" stroke="#63b8ff" points="203.87,-39.62 214.32,-37.91 205.08,-32.73 203.87,-39.62"/>
</a>
</g>
</g>
<!-- Node2&#45;&gt;Node2 -->
<g id="edge3_Node000002_Node000002" class="edge">
<title>Node2&#45;&gt;Node2</title>
<g id="a_edge3_Node000002_Node000002"><a xlink:title=" ">
<path fill="none" stroke="#63b8ff" d="M116.3,-109.2C111.1,-112.97 100.5,-115.5 84.5,-115.5 55.24,-115.5 44.04,-107.06 50.9,-97.99"/>
<polygon fill="#63b8ff" stroke="#63b8ff" points="119.73,-109.91 117.86,-99.48 112.82,-108.8 119.73,-109.91"/>
</a>
</g>
</g>
<!-- Node3&#45;&gt;Node3 -->
<g id="edge5_Node000003_Node000003" class="edge">
<title>Node3&#45;&gt;Node3</title>
<g id="a_edge5_Node000003_Node000003"><a xlink:title=" ">
<path fill="none" stroke="#63b8ff" d="M116.3,-42.2C111.1,-45.97 100.5,-48.5 84.5,-48.5 55.24,-48.5 44.04,-40.06 50.9,-30.99"/>
<polygon fill="#63b8ff" stroke="#63b8ff" points="119.73,-42.91 117.86,-32.48 112.82,-41.8 119.73,-42.91"/>
</a>
</g>
</g>
</g>
</svg>
</svg>

<style type='text/css'>
<![CDATA[
[data-mouse-over-selected='false'] { opacity: 0.7; }
[data-mouse-over-selected='true']  { opacity: 1.0; }
]]>
</style>
<script type="application/ecmascript"><![CDATA[
document.addEventListener('DOMContentLoaded', (event) => {
  highlightEdges();
  highlightAdjacentNodes();
});
]]></script>
</svg>
