<?xml version="1.0" encoding="UTF-8" standalone="no"?>
<!DOCTYPE svg PUBLIC "-//W3C//DTD SVG 1.1//EN"
 "http://www.w3.org/Graphics/SVG/1.1/DTD/svg11.dtd">
<!-- Generated by graphviz version 14.1.2 (20260124.0452)
 -->
<!-- Title: AQNWB::NWB::ElectricalSeries Pages: 1 -->
<!--zoomable 573 -->

<svg id="main" version="1.1" xmlns="http://www.w3.org/2000/svg" xmlns:xlink="http://www.w3.org/1999/xlink" xml:space="preserve" onload="init(evt)">

<style type="text/css"><![CDATA[
.node, .edge {opacity: 0.7;}
.node.selected, .edge.selected {opacity: 1;}
.edge:hover path { stroke: red; }
.edge:hover polygon { stroke: red; fill: red; }
]]></style>

<defs>
  <circle id="rim" cx="0" cy="0" r="7"/>
  <circle id="rim2" cx="0" cy="0" r="3.5"/>
  <g id="zoomPlus">
    <use xlink:href="#rim" fill="#404040"><set attributeName="fill" to="#808080" begin="zoomplus.mouseover" end="zoomplus.mouseout"/></use>
    <path d="M-4,0h8M0,-4v8" fill="none" stroke="white" stroke-width="1.5" pointer-events="none"/>
  </g>
  <g id="zoomMin">
    <use xlink:href="#rim" fill="#404040"><set attributeName="fill" to="#808080" begin="zoomminus.mouseover" end="zoomminus.mouseout"/></use>
    <path d="M-4,0h8" fill="none" stroke="white" stroke-width="1.5" pointer-events="none"/>
  </g>
  <g id="arrowUp" transform="translate(30 24)">
    <use xlink:href="#rim"/>
    <path pointer-events="none" fill="none" stroke="white" stroke-width="1.5" d="M0,-3.0v7 M-2.5,-0.5L0,-3.0L2.5,-0.5"/>
  </g>
  <g id="arrowRight" transform="rotate(90) translate(36 -43)">
    <use xlink:href="#rim"/>
    <path pointer-events="none" fill="none" stroke="white" stroke-width="1.5" d="M0,-3.0v7 M-2.5,-0.5L0,-3.0L2.5,-0.5"/>
  </g>
  <g id="arrowDown" transform="rotate(180) translate(-30 -48)">
    <use xlink:href="#rim"/>
    <path pointer-events="none" fill="none" stroke="white" stroke-width="1.5" d="M0,-3.0v7 M-2.5,-0.5L0,-3.0L2.5,-0.5"/>
  </g>
  <g id="arrowLeft" transform="rotate(270) translate(-36 17)">
    <use xlink:href="#rim"/>
    <path pointer-events="none" fill="none" stroke="white" stroke-width="1.5" d="M0,-3.0v7 M-2.5,-0.5L0,-3.0L2.5,-0.5"/>
  </g>
  <g id="resetDef">
    <use xlink:href="#rim2" fill="#404040"><set attributeName="fill" to="#808080" begin="reset.mouseover" end="reset.mouseout"/></use>
  </g>
</defs>
<script type="application/ecmascript">
var viewWidth = 392;
var viewHeight = 573;
var sectionId = 'dynsection-1';
</script>
<script type="application/ecmascript" xlink:href="svg.min.js"/>
<svg id="graph" class="graph">
<g id="viewport">
<title>AQNWB::NWB::ElectricalSeries</title>
<!-- Node1 -->
<g id="Node000001" class="node">
<title>Node1</title>
<g id="a_Node000001"><a xlink:title="General purpose time series.">
<polygon fill="#999999" stroke="#666666" points="253,-19.25 94.5,-19.25 94.5,0 253,0 253,-19.25"/>
<text xml:space="preserve" text-anchor="middle" x="173.75" y="-5.75" font-family="Helvetica,sans-Serif" font-size="10.00">AQNWB::NWB::ElectricalSeries</text>
</a>
</g>
</g>
<!-- Node2 -->
<g id="Node000002" class="node">
<title>Node2</title>
<g id="a_Node000002"><a xlink:href="class_a_q_n_w_b_1_1_n_w_b_1_1_time_series.html" target="_top" xlink:title="General purpose time series.">
<polygon fill="white" stroke="#666666" points="243.62,-75.5 103.88,-75.5 103.88,-56.25 243.62,-56.25 243.62,-75.5"/>
<text xml:space="preserve" text-anchor="middle" x="173.75" y="-62" font-family="Helvetica,sans-Serif" font-size="10.00">AQNWB::NWB::TimeSeries</text>
</a>
</g>
</g>
<!-- Node2&#45;&gt;Node1 -->
<g id="edge1_Node000001_Node000002" class="edge">
<title>Node2&#45;&gt;Node1</title>
<g id="a_edge1_Node000001_Node000002"><a xlink:title=" ">
<path fill="none" stroke="#63b8ff" d="M173.75,-44.69C173.75,-35.98 173.75,-26.24 173.75,-19.42"/>
<polygon fill="#63b8ff" stroke="#63b8ff" points="170.25,-44.4 173.75,-54.4 177.25,-44.4 170.25,-44.4"/>
</a>
</g>
</g>
<!-- Node3 -->
<g id="Node000003" class="node">
<title>Node3</title>
<g id="a_Node000003"><a xlink:href="class_a_q_n_w_b_1_1_n_w_b_1_1_n_w_b_data_interface.html" target="_top" xlink:title="An abstract data type for a generic container storing collections of data, as opposed to metadata.">
<polygon fill="white" stroke="#666666" points="173.5,-253.75 0,-253.75 0,-234.5 173.5,-234.5 173.5,-253.75"/>
<text xml:space="preserve" text-anchor="middle" x="86.75" y="-240.25" font-family="Helvetica,sans-Serif" font-size="10.00">AQNWB::NWB::NWBDataInterface</text>
</a>
</g>
</g>
<!-- Node3&#45;&gt;Node2 -->
<g id="edge2_Node000002_Node000003" class="edge">
<title>Node3&#45;&gt;Node2</title>
<g id="a_edge2_Node000002_Node000003"><a xlink:title=" ">
<path fill="none" stroke="#63b8ff" d="M96.22,-223.94C114.94,-186.02 156.03,-102.78 169.43,-75.63"/>
<polygon fill="#63b8ff" stroke="#63b8ff" points="93.14,-222.27 91.85,-232.79 99.42,-225.37 93.14,-222.27"/>
</a>
</g>
</g>
<!-- Node4 -->
<g id="Node000004" class="node">
<title>Node4</title>
<g id="a_Node000004"><a xlink:href="class_a_q_n_w_b_1_1_n_w_b_1_1_n_w_b_container.html" target="_top" xlink:title="An abstract data type for a generic container storing collections of data and metadata....">
<polygon fill="white" stroke="#666666" points="164.88,-385.25 8.62,-385.25 8.62,-366 164.88,-366 164.88,-385.25"/>
<text xml:space="preserve" text-anchor="middle" x="86.75" y="-371.75" font-family="Helvetica,sans-Serif" font-size="10.00">AQNWB::NWB::NWBContainer</text>
</a>
</g>
</g>
<!-- Node4&#45;&gt;Node3 -->
<g id="edge3_Node000003_Node000004" class="edge">
<title>Node4&#45;&gt;Node3</title>
<g id="a_edge3_Node000003_Node000004"><a xlink:title=" ">
<path fill="none" stroke="#63b8ff" d="M86.75,-354.34C86.75,-325.71 86.75,-274.67 86.75,-254.09"/>
<polygon fill="#63b8ff" stroke="#63b8ff" points="83.25,-354.21 86.75,-364.21 90.25,-354.21 83.25,-354.21"/>
</a>
</g>
</g>
<!-- Node5 -->
<g id="Node000005" class="node">
<title>Node5</title>
<g id="a_Node000005"><a xlink:href="class_a_q_n_w_b_1_1_n_w_b_1_1_container.html" target="_top" xlink:title="Abstract data type for a group storing collections of data and metadata.">
<polygon fill="white" stroke="#666666" points="152.88,-441.5 20.62,-441.5 20.62,-422.25 152.88,-422.25 152.88,-441.5"/>
<text xml:space="preserve" text-anchor="middle" x="86.75" y="-428" font-family="Helvetica,sans-Serif" font-size="10.00">AQNWB::NWB::Container</text>
</a>
</g>
</g>
<!-- Node5&#45;&gt;Node4 -->
<g id="edge4_Node000004_Node000005" class="edge">
<title>Node5&#45;&gt;Node4</title>
<g id="a_edge4_Node000004_Node000005"><a xlink:title=" ">
<path fill="none" stroke="#63b8ff" d="M86.75,-410.69C86.75,-401.98 86.75,-392.24 86.75,-385.42"/>
<polygon fill="#63b8ff" stroke="#63b8ff" points="83.25,-410.4 86.75,-420.4 90.25,-410.4 83.25,-410.4"/>
</a>
</g>
</g>
<!-- Node6 -->
<g id="Node000006" class="node">
<title>Node6</title>
<g id="a_Node000006"><a xlink:href="class_a_q_n_w_b_1_1_n_w_b_1_1_registered_type.html" target="_top" xlink:title="Base class for types defined in the NWB schema.">
<polygon fill="white" stroke="#666666" points="166,-497.75 7.5,-497.75 7.5,-478.5 166,-478.5 166,-497.75"/>
<text xml:space="preserve" text-anchor="middle" x="86.75" y="-484.25" font-family="Helvetica,sans-Serif" font-size="10.00">AQNWB::NWB::RegisteredType</text>
</a>
</g>
</g>
<!-- Node6&#45;&gt;Node5 -->
<g id="edge5_Node000005_Node000006" class="edge">
<title>Node6&#45;&gt;Node5</title>
<g id="a_edge5_Node000005_Node000006"><a xlink:title=" ">
<path fill="none" stroke="#63b8ff" d="M86.75,-466.94C86.75,-458.23 86.75,-448.49 86.75,-441.67"/>
<polygon fill="#63b8ff" stroke="#63b8ff" points="83.25,-466.65 86.75,-476.65 90.25,-466.65 83.25,-466.65"/>
</a>
</g>
</g>
<!-- Node7 -->
<g id="Node000007" class="node">
<title>Node7</title>
<g id="a_Node000007"><a xlink:title=" ">
<polygon fill="white" stroke="#666666" points="160.75,-565.25 12.75,-565.25 12.75,-534.75 160.75,-534.75 160.75,-565.25"/>
<text xml:space="preserve" text-anchor="start" x="20.75" y="-551.75" font-family="Helvetica,sans-Serif" font-size="10.00">std::enable_shared</text>
<text xml:space="preserve" text-anchor="middle" x="86.75" y="-540.5" font-family="Helvetica,sans-Serif" font-size="10.00">_from_this&lt; RegisteredType &gt;</text>
</a>
</g>
</g>
<!-- Node7&#45;&gt;Node6 -->
<g id="edge6_Node000006_Node000007" class="edge">
<title>Node7&#45;&gt;Node6</title>
<g id="a_edge6_Node000006_Node000007"><a xlink:title=" ">
<path fill="none" stroke="#63b8ff" d="M86.75,-523.27C86.75,-514.29 86.75,-504.79 86.75,-498.1"/>
<polygon fill="#63b8ff" stroke="#63b8ff" points="83.25,-522.99 86.75,-532.99 90.25,-522.99 83.25,-522.99"/>
</a>
</g>
</g>
<!-- Node8 -->
<g id="Node000008" class="node">
<title>Node8</title>
<g id="a_Node000008"><a xlink:href="class_a_q_n_w_b_1_1_i_o_1_1_base_data_type.html" target="_top" xlink:title="Represents a base data type.">
<polygon fill="white" stroke="#666666" points="332.38,-253.75 191.12,-253.75 191.12,-234.5 332.38,-234.5 332.38,-253.75"/>
<text xml:space="preserve" text-anchor="middle" x="261.75" y="-240.25" font-family="Helvetica,sans-Serif" font-size="10.00">AQNWB::IO::BaseDataType</text>
</a>
</g>
</g>
<!-- Node8&#45;&gt;Node2 -->
<g id="edge7_Node000002_Node000008" class="edge">
<title>Node8&#45;&gt;Node2</title>
<g id="a_edge7_Node000002_Node000008"><a xlink:title=" ">
<path fill="none" stroke="#9a32cd" stroke-dasharray="5,2" d="M252.17,-223.94C233.24,-186.02 191.68,-102.78 178.12,-75.63"/>
<polygon fill="#9a32cd" stroke="#9a32cd" points="248.99,-225.4 256.59,-232.79 255.25,-222.28 248.99,-225.4"/>
</a>
</g>
<text xml:space="preserve" text-anchor="start" x="212.87" y="-128.75" font-family="Helvetica,sans-Serif" font-size="10.00" fill="grey">controlType</text>
<text xml:space="preserve" text-anchor="start" x="212.87" y="-113.5" font-family="Helvetica,sans-Serif" font-size="10.00" fill="grey">m_dataType</text>
<text xml:space="preserve" text-anchor="start" x="212.87" y="-98.25" font-family="Helvetica,sans-Serif" font-size="10.00" fill="grey">timestampsType</text>
</g>
<!-- Node8&#45;&gt;Node8 -->
<g id="edge8_Node000008_Node000008" class="edge">
<title>Node8&#45;&gt;Node8</title>
<g id="a_edge8_Node000008_Node000008"><a xlink:title=" ">
<path fill="none" stroke="#9a32cd" stroke-dasharray="5,2" d="M287.49,-258.47C316.7,-268.42 350.38,-263.64 350.38,-244.12 350.38,-222.22 307.92,-218.88 276.99,-234.11"/>
<polygon fill="#9a32cd" stroke="#9a32cd" points="288.97,-255.3 278.39,-254.71 286.3,-261.77 288.97,-255.3"/>
</a>
</g>
<text xml:space="preserve" text-anchor="start" x="353.38" y="-316.5" font-family="Helvetica,sans-Serif" font-size="10.00" fill="grey">DSTR</text>
<text xml:space="preserve" text-anchor="start" x="353.38" y="-301.25" font-family="Helvetica,sans-Serif" font-size="10.00" fill="grey">F32</text>
<text xml:space="preserve" text-anchor="start" x="353.38" y="-286" font-family="Helvetica,sans-Serif" font-size="10.00" fill="grey">F64</text>
<text xml:space="preserve" text-anchor="start" x="353.38" y="-270.75" font-family="Helvetica,sans-Serif" font-size="10.00" fill="grey">I16</text>
<text xml:space="preserve" text-anchor="start" x="353.38" y="-255.5" font-family="Helvetica,sans-Serif" font-size="10.00" fill="grey">I32</text>
<text xml:space="preserve" text-anchor="start" x="353.38" y="-240.25" font-family="Helvetica,sans-Serif" font-size="10.00" fill="grey">I64</text>
<text xml:space="preserve" text-anchor="start" x="353.38" y="-225" font-family="Helvetica,sans-Serif" font-size="10.00" fill="grey">I8</text>
<text xml:space="preserve" text-anchor="start" x="353.38" y="-209.75" font-family="Helvetica,sans-Serif" font-size="10.00" fill="grey">U16</text>
<text xml:space="preserve" text-anchor="start" x="353.38" y="-194.5" font-family="Helvetica,sans-Serif" font-size="10.00" fill="grey">U32</text>
<text xml:space="preserve" text-anchor="start" x="353.38" y="-179.25" font-family="Helvetica,sans-Serif" font-size="10.00" fill="grey">U64</text>
<text xml:space="preserve" text-anchor="start" x="353.38" y="-164" font-family="Helvetica,sans-Serif" font-size="10.00" fill="grey"> &#160;...</text>
</g>
</g>
</svg>

<g id="navigator" transform="translate(0 0)" fill="#404254">
  <rect fill="#f2f5e9" fill-opacity="0.5" stroke="#606060" stroke-width=".5" x="0" y="0" width="60" height="60"/>
  <use id="zoomplus" xlink:href="#zoomPlus" x="17" y="9" onmousedown="handleZoom(evt,'in')"/>
  <use id="zoomminus" xlink:href="#zoomMin" x="42" y="9" onmousedown="handleZoom(evt,'out')"/>
  <use id="reset" xlink:href="#resetDef" x="30" y="36" onmousedown="handleReset()"/>
   <use id="arrowup" xlink:href="#arrowUp" x="0" y="0" onmousedown="handlePan(0,-1)"/>
  <use id="arrowright" xlink:href="#arrowRight" x="0" y="0" onmousedown="handlePan(1,0)"/>
  <use id="arrowdown" xlink:href="#arrowDown" x="0" y="0" onmousedown="handlePan(0,1)"/>
  <use id="arrowleft" xlink:href="#arrowLeft" x="0" y="0" onmousedown="handlePan(-1,0)"/>
</g>
<svg viewBox="0 0 15 15" width="100%" height="30px" preserveAspectRatio="xMaxYMin meet">
 <g id="arrow_out" transform="scale(0.3 0.3)">
  <a xlink:href="class_a_q_n_w_b_1_1_n_w_b_1_1_electrical_series__coll__graph_org.svg" target="_base">
   <rect id="button" ry="5" rx="5" y="6" x="6" height="38" width="38"
        fill="#f2f5e9" fill-opacity="0.5" stroke="#606060" stroke-width="1.0"/>
   <path id="arrow"
     d="M 11.500037,31.436501 C 11.940474,20.09759 22.043105,11.32322 32.158766,21.979434 L 37.068811,17.246167 C 37.068811,17.246167 37.088388,32 37.088388,32 L 22.160133,31.978069 C 22.160133,31.978069 26.997745,27.140456 26.997745,27.140456 C 18.528582,18.264221 13.291696,25.230495 11.500037,31.436501 z"
     style="fill:#404040;"/>
  </a>
 </g>
</svg>

<style type='text/css'>
<![CDATA[
[data-mouse-over-selected='false'] { opacity: 0.7; }
[data-mouse-over-selected='true']  { opacity: 1.0; }
]]>
</style>
<script type="application/ecmascript"><![CDATA[
document.addEventListener('DOMContentLoaded', (event) => {
  highlightEdges();
  highlightAdjacentNodes();
});
]]></script>
</svg>
