<?xml version="1.0" encoding="UTF-8" standalone="no"?>
<!DOCTYPE svg PUBLIC "-//W3C//DTD SVG 1.1//EN"
 "http://www.w3.org/Graphics/SVG/1.1/DTD/svg11.dtd">
<!-- Generated by graphviz version 13.1.0 (20250701.0955)
 -->
<!-- Title: AQNWB::NWB::RegisteredType Pages: 1 -->
<svg width="946pt" height="304pt"
 viewBox="0.00 0.00 946.00 304.00" xmlns="http://www.w3.org/2000/svg" xmlns:xlink="http://www.w3.org/1999/xlink">
<g id="graph0" class="graph" transform="scale(1 1) rotate(0) translate(4 299.88)">
<title>AQNWB::NWB::RegisteredType</title>
<!-- Node1 -->
<g id="Node000001" class="node">
<title>Node1</title>
<g id="a_Node000001"><a xlink:title="Base class for types defined in the NWB schema.">
<polygon fill="#999999" stroke="#666666" points="158.5,-123.88 0,-123.88 0,-104.62 158.5,-104.62 158.5,-123.88"/>
<text xml:space="preserve" text-anchor="middle" x="79.25" y="-110.38" font-family="Helvetica,sans-Serif" font-size="10.00">AQNWB::NWB::RegisteredType</text>
</a>
</g>
</g>
<!-- Node2 -->
<g id="Node000002" class="node">
<title>Node2</title>
<g id="a_Node000002"><a xlink:href="class_a_q_n_w_b_1_1_n_w_b_1_1_container.html" target="_top" xlink:title="Abstract data type for a group storing collections of data and metadata.">
<polygon fill="white" stroke="#666666" points="326.75,-202.88 194.5,-202.88 194.5,-183.62 326.75,-183.62 326.75,-202.88"/>
<text xml:space="preserve" text-anchor="middle" x="260.62" y="-189.38" font-family="Helvetica,sans-Serif" font-size="10.00">AQNWB::NWB::Container</text>
</a>
</g>
</g>
<!-- Node1&#45;&gt;Node2 -->
<g id="edge1_Node000001_Node000002" class="edge">
<title>Node1&#45;&gt;Node2</title>
<g id="a_edge1_Node000001_Node000002"><a xlink:title=" ">
<path fill="none" stroke="#63b8ff" d="M113.4,-128.85C149.29,-144.66 205.57,-169.44 236.81,-183.2"/>
<polygon fill="#63b8ff" stroke="#63b8ff" points="114.92,-125.69 104.35,-124.87 112.09,-132.1 114.92,-125.69"/>
</a>
</g>
</g>
<!-- Node12 -->
<g id="Node000012" class="node">
<title>Node12</title>
<g id="a_Node000012"><a xlink:href="class_a_q_n_w_b_1_1_n_w_b_1_1_data.html" target="_top" xlink:title="An abstract data type for a dataset.">
<polygon fill="white" stroke="#666666" points="316.25,-83.88 205,-83.88 205,-64.62 316.25,-64.62 316.25,-83.88"/>
<text xml:space="preserve" text-anchor="middle" x="260.62" y="-70.38" font-family="Helvetica,sans-Serif" font-size="10.00">AQNWB::NWB::Data</text>
</a>
</g>
</g>
<!-- Node1&#45;&gt;Node12 -->
<g id="edge11_Node000001_Node000012" class="edge">
<title>Node1&#45;&gt;Node12</title>
<g id="a_edge11_Node000001_Node000012"><a xlink:title=" ">
<path fill="none" stroke="#63b8ff" d="M136.7,-101.66C161.74,-96.08 190.8,-89.6 214.38,-84.34"/>
<polygon fill="#63b8ff" stroke="#63b8ff" points="135.99,-98.23 126.99,-103.83 137.51,-105.07 135.99,-98.23"/>
</a>
</g>
</g>
<!-- Node3 -->
<g id="Node000003" class="node">
<title>Node3</title>
<g id="a_Node000003"><a xlink:href="class_a_q_n_w_b_1_1_n_w_b_1_1_device.html" target="_top" xlink:title="Metadata about a data acquisition device, e.g., recording system, electrode, microscope.">
<polygon fill="white" stroke="#666666" points="507.75,-295.88 386.75,-295.88 386.75,-276.62 507.75,-276.62 507.75,-295.88"/>
<text xml:space="preserve" text-anchor="middle" x="447.25" y="-282.38" font-family="Helvetica,sans-Serif" font-size="10.00">AQNWB::NWB::Device</text>
</a>
</g>
</g>
<!-- Node2&#45;&gt;Node3 -->
<g id="edge2_Node000002_Node000003" class="edge">
<title>Node2&#45;&gt;Node3</title>
<g id="a_edge2_Node000002_Node000003"><a xlink:title=" ">
<path fill="none" stroke="#63b8ff" d="M280.24,-210.94C299.42,-228.18 330.92,-253.84 362.75,-268.25 370.18,-271.61 378.27,-274.36 386.4,-276.61"/>
<polygon fill="#63b8ff" stroke="#63b8ff" points="282.71,-208.46 272.98,-204.27 277.97,-213.61 282.71,-208.46"/>
</a>
</g>
</g>
<!-- Node4 -->
<g id="Node000004" class="node">
<title>Node4</title>
<g id="a_Node000004"><a xlink:href="class_a_q_n_w_b_1_1_n_w_b_1_1_dynamic_table.html" target="_top" xlink:title="Represents a group containing multiple datasets that are aligned on the first dimension.">
<polygon fill="white" stroke="#666666" points="523.5,-258.88 371,-258.88 371,-239.62 523.5,-239.62 523.5,-258.88"/>
<text xml:space="preserve" text-anchor="middle" x="447.25" y="-245.38" font-family="Helvetica,sans-Serif" font-size="10.00">AQNWB::NWB::DynamicTable</text>
</a>
</g>
</g>
<!-- Node2&#45;&gt;Node4 -->
<g id="edge3_Node000002_Node000004" class="edge">
<title>Node2&#45;&gt;Node4</title>
<g id="a_edge3_Node000002_Node000004"><a xlink:title=" ">
<path fill="none" stroke="#63b8ff" d="M295.84,-207.54C315.24,-215.28 340.08,-224.59 362.75,-231.25 372.71,-234.18 383.47,-236.85 393.84,-239.19"/>
<polygon fill="#63b8ff" stroke="#63b8ff" points="297.38,-204.39 286.8,-203.89 294.76,-210.88 297.38,-204.39"/>
</a>
</g>
</g>
<!-- Node6 -->
<g id="Node000006" class="node">
<title>Node6</title>
<g id="a_Node000006"><a xlink:href="class_a_q_n_w_b_1_1_n_w_b_1_1_electrode_group.html" target="_top" xlink:title="The ElectrodeGroup class represents a physical grouping of electrodes, e.g. a shank of an array.">
<polygon fill="white" stroke="#666666" points="526.12,-221.88 368.38,-221.88 368.38,-202.62 526.12,-202.62 526.12,-221.88"/>
<text xml:space="preserve" text-anchor="middle" x="447.25" y="-208.38" font-family="Helvetica,sans-Serif" font-size="10.00">AQNWB::NWB::ElectrodeGroup</text>
</a>
</g>
</g>
<!-- Node2&#45;&gt;Node6 -->
<g id="edge5_Node000002_Node000006" class="edge">
<title>Node2&#45;&gt;Node6</title>
<g id="a_edge5_Node000002_Node000006"><a xlink:title=" ">
<path fill="none" stroke="#63b8ff" d="M338.5,-201.16C348.22,-202.16 358.16,-203.19 367.9,-204.19"/>
<polygon fill="#63b8ff" stroke="#63b8ff" points="339.05,-197.7 328.74,-200.16 338.33,-204.66 339.05,-197.7"/>
</a>
</g>
</g>
<!-- Node7 -->
<g id="Node000007" class="node">
<title>Node7</title>
<g id="a_Node000007"><a xlink:href="class_a_q_n_w_b_1_1_n_w_b_1_1_n_w_b_file.html" target="_top" xlink:title="The NWBFile class provides an interface for setting up and managing the NWB file.">
<polygon fill="white" stroke="#666666" points="512.25,-184.88 382.25,-184.88 382.25,-165.62 512.25,-165.62 512.25,-184.88"/>
<text xml:space="preserve" text-anchor="middle" x="447.25" y="-171.38" font-family="Helvetica,sans-Serif" font-size="10.00">AQNWB::NWB::NWBFile</text>
</a>
</g>
</g>
<!-- Node2&#45;&gt;Node7 -->
<g id="edge6_Node000002_Node000007" class="edge">
<title>Node2&#45;&gt;Node7</title>
<g id="a_edge6_Node000002_Node000007"><a xlink:title=" ">
<path fill="none" stroke="#63b8ff" d="M338.62,-185.74C352.98,-184.34 367.85,-182.89 381.78,-181.54"/>
<polygon fill="#63b8ff" stroke="#63b8ff" points="338.36,-182.25 328.74,-186.71 339.04,-189.22 338.36,-182.25"/>
</a>
</g>
</g>
<!-- Node8 -->
<g id="Node000008" class="node">
<title>Node8</title>
<g id="a_Node000008"><a xlink:href="class_a_q_n_w_b_1_1_n_w_b_1_1_time_series.html" target="_top" xlink:title="General purpose time series.">
<polygon fill="white" stroke="#666666" points="517.12,-147.88 377.38,-147.88 377.38,-128.62 517.12,-128.62 517.12,-147.88"/>
<text xml:space="preserve" text-anchor="middle" x="447.25" y="-134.38" font-family="Helvetica,sans-Serif" font-size="10.00">AQNWB::NWB::TimeSeries</text>
</a>
</g>
</g>
<!-- Node2&#45;&gt;Node8 -->
<g id="edge7_Node000002_Node000008" class="edge">
<title>Node2&#45;&gt;Node8</title>
<g id="a_edge7_Node000002_Node000008"><a xlink:title=" ">
<path fill="none" stroke="#63b8ff" d="M296.93,-178.97C316.17,-171.53 340.53,-162.68 362.75,-156.25 372.86,-153.32 383.79,-150.64 394.3,-148.28"/>
<polygon fill="#63b8ff" stroke="#63b8ff" points="295.69,-175.7 287.65,-182.6 298.24,-182.21 295.69,-175.7"/>
</a>
</g>
</g>
<!-- Node5 -->
<g id="Node000005" class="node">
<title>Node5</title>
<g id="a_Node000005"><a xlink:href="class_a_q_n_w_b_1_1_n_w_b_1_1_electrode_table.html" target="_top" xlink:title="Represents a table containing electrode metadata.">
<polygon fill="white" stroke="#666666" points="728.12,-258.88 573.38,-258.88 573.38,-239.62 728.12,-239.62 728.12,-258.88"/>
<text xml:space="preserve" text-anchor="middle" x="650.75" y="-245.38" font-family="Helvetica,sans-Serif" font-size="10.00">AQNWB::NWB::ElectrodeTable</text>
</a>
</g>
</g>
<!-- Node4&#45;&gt;Node5 -->
<g id="edge4_Node000004_Node000005" class="edge">
<title>Node4&#45;&gt;Node5</title>
<g id="a_edge4_Node000004_Node000005"><a xlink:title=" ">
<path fill="none" stroke="#63b8ff" d="M535.29,-249.25C547.85,-249.25 560.71,-249.25 573.05,-249.25"/>
<polygon fill="#63b8ff" stroke="#63b8ff" points="535.37,-245.75 525.37,-249.25 535.37,-252.75 535.37,-245.75"/>
</a>
</g>
</g>
<!-- Node9 -->
<g id="Node000009" class="node">
<title>Node9</title>
<g id="a_Node000009"><a xlink:href="class_a_q_n_w_b_1_1_n_w_b_1_1_annotation_series.html" target="_top" xlink:title="TimeSeries storing text&#45;based records about the experiment.">
<polygon fill="white" stroke="#666666" points="733,-165.88 568.5,-165.88 568.5,-146.62 733,-146.62 733,-165.88"/>
<text xml:space="preserve" text-anchor="middle" x="650.75" y="-152.38" font-family="Helvetica,sans-Serif" font-size="10.00">AQNWB::NWB::AnnotationSeries</text>
</a>
</g>
</g>
<!-- Node8&#45;&gt;Node9 -->
<g id="edge8_Node000008_Node000009" class="edge">
<title>Node8&#45;&gt;Node9</title>
<g id="a_edge8_Node000008_Node000009"><a xlink:title=" ">
<path fill="none" stroke="#63b8ff" d="M528.82,-145.45C541.76,-146.6 555.17,-147.8 568.13,-148.96"/>
<polygon fill="#63b8ff" stroke="#63b8ff" points="529.37,-141.98 519.1,-144.58 528.75,-148.96 529.37,-141.98"/>
</a>
</g>
</g>
<!-- Node10 -->
<g id="Node000010" class="node">
<title>Node10</title>
<g id="a_Node000010"><a xlink:href="class_a_q_n_w_b_1_1_n_w_b_1_1_electrical_series.html" target="_top" xlink:title="General purpose time series.">
<polygon fill="white" stroke="#666666" points="730,-128.88 571.5,-128.88 571.5,-109.62 730,-109.62 730,-128.88"/>
<text xml:space="preserve" text-anchor="middle" x="650.75" y="-115.38" font-family="Helvetica,sans-Serif" font-size="10.00">AQNWB::NWB::ElectricalSeries</text>
</a>
</g>
</g>
<!-- Node8&#45;&gt;Node10 -->
<g id="edge9_Node000008_Node000010" class="edge">
<title>Node8&#45;&gt;Node10</title>
<g id="a_edge9_Node000008_Node000010"><a xlink:title=" ">
<path fill="none" stroke="#63b8ff" d="M528.71,-130.66C542.74,-129.34 557.31,-127.97 571.29,-126.65"/>
<polygon fill="#63b8ff" stroke="#63b8ff" points="528.73,-127.15 519.1,-131.57 529.39,-134.11 528.73,-127.15"/>
</a>
</g>
</g>
<!-- Node11 -->
<g id="Node000011" class="node">
<title>Node11</title>
<g id="a_Node000011"><a xlink:href="class_a_q_n_w_b_1_1_n_w_b_1_1_spike_event_series.html" target="_top" xlink:title="Stores snapshots/snippets of recorded spike events (i.e., threshold crossings).">
<polygon fill="white" stroke="#666666" points="938,-128.88 769.75,-128.88 769.75,-109.62 938,-109.62 938,-128.88"/>
<text xml:space="preserve" text-anchor="middle" x="853.88" y="-115.38" font-family="Helvetica,sans-Serif" font-size="10.00">AQNWB::NWB::SpikeEventSeries</text>
</a>
</g>
</g>
<!-- Node10&#45;&gt;Node11 -->
<g id="edge10_Node000010_Node000011" class="edge">
<title>Node10&#45;&gt;Node11</title>
<g id="a_edge10_Node000010_Node000011"><a xlink:title=" ">
<path fill="none" stroke="#63b8ff" d="M741.87,-119.25C751,-119.25 760.26,-119.25 769.32,-119.25"/>
<polygon fill="#63b8ff" stroke="#63b8ff" points="741.89,-115.75 731.89,-119.25 741.89,-122.75 741.89,-115.75"/>
</a>
</g>
</g>
<!-- Node13 -->
<g id="Node000013" class="node">
<title>Node13</title>
<g id="a_Node000013"><a xlink:href="class_a_q_n_w_b_1_1_n_w_b_1_1_data_typed.html" target="_top" xlink:title="A typed data container for a dataset.">
<polygon fill="white" stroke="#666666" points="516,-110.5 378.5,-110.5 378.5,-80 516,-80 516,-110.5"/>
<text xml:space="preserve" text-anchor="start" x="386.5" y="-97" font-family="Helvetica,sans-Serif" font-size="10.00">AQNWB::NWB::DataTyped</text>
<text xml:space="preserve" text-anchor="middle" x="447.25" y="-85.75" font-family="Helvetica,sans-Serif" font-size="10.00">&lt; DTYPE &gt;</text>
</a>
</g>
</g>
<!-- Node12&#45;&gt;Node13 -->
<g id="edge12_Node000012_Node000013" class="edge">
<title>Node12&#45;&gt;Node13</title>
<g id="a_edge12_Node000012_Node000013"><a xlink:title=" ">
<path fill="none" stroke="#63b8ff" d="M327.65,-81.76C344.05,-83.63 361.66,-85.63 378.15,-87.5"/>
<polygon fill="#63b8ff" stroke="#63b8ff" points="328.35,-78.32 318.02,-80.66 327.56,-85.27 328.35,-78.32"/>
</a>
</g>
</g>
<!-- Node14 -->
<g id="Node000014" class="node">
<title>Node14</title>
<g id="a_Node000014"><a xlink:href="class_a_q_n_w_b_1_1_n_w_b_1_1_element_identifiers.html" target="_top" xlink:title="A list of unique identifiers for values within a dataset, e.g. rows of a DynamicTable.">
<polygon fill="white" stroke="#666666" points="531.75,-61.88 362.75,-61.88 362.75,-42.62 531.75,-42.62 531.75,-61.88"/>
<text xml:space="preserve" text-anchor="middle" x="447.25" y="-48.38" font-family="Helvetica,sans-Serif" font-size="10.00">AQNWB::NWB::ElementIdentifiers</text>
</a>
</g>
</g>
<!-- Node12&#45;&gt;Node14 -->
<g id="edge13_Node000012_Node000014" class="edge">
<title>Node12&#45;&gt;Node14</title>
<g id="a_edge13_Node000012_Node000014"><a xlink:title=" ">
<path fill="none" stroke="#63b8ff" d="M327.61,-66.39C338.92,-65.04 350.8,-63.62 362.5,-62.23"/>
<polygon fill="#63b8ff" stroke="#63b8ff" points="327.54,-62.87 318.02,-67.53 328.37,-69.82 327.54,-62.87"/>
</a>
</g>
</g>
<!-- Node15 -->
<g id="Node000015" class="node">
<title>Node15</title>
<g id="a_Node000015"><a xlink:href="class_a_q_n_w_b_1_1_n_w_b_1_1_vector_data.html" target="_top" xlink:title="An n&#45;dimensional dataset representing a column of a DynamicTable.">
<polygon fill="white" stroke="#666666" points="517.12,-24.88 377.38,-24.88 377.38,-5.63 517.12,-5.63 517.12,-24.88"/>
<text xml:space="preserve" text-anchor="middle" x="447.25" y="-11.38" font-family="Helvetica,sans-Serif" font-size="10.00">AQNWB::NWB::VectorData</text>
</a>
</g>
</g>
<!-- Node12&#45;&gt;Node15 -->
<g id="edge14_Node000012_Node000015" class="edge">
<title>Node12&#45;&gt;Node15</title>
<g id="a_edge14_Node000012_Node000015"><a xlink:title=" ">
<path fill="none" stroke="#63b8ff" d="M293.82,-59.53C313.43,-50.99 339.18,-40.51 362.75,-33.25 372.39,-30.28 382.8,-27.62 392.89,-25.31"/>
<polygon fill="#63b8ff" stroke="#63b8ff" points="292.44,-56.32 284.71,-63.56 295.27,-62.72 292.44,-56.32"/>
</a>
</g>
</g>
<!-- Node16 -->
<g id="Node000016" class="node">
<title>Node16</title>
<g id="a_Node000016"><a xlink:href="class_a_q_n_w_b_1_1_n_w_b_1_1_vector_data_typed.html" target="_top" xlink:title="A typed n&#45;dimensional dataset representing a column of a DynamicTable.">
<polygon fill="white" stroke="#666666" points="733.75,-30.5 567.75,-30.5 567.75,0 733.75,0 733.75,-30.5"/>
<text xml:space="preserve" text-anchor="start" x="575.75" y="-17" font-family="Helvetica,sans-Serif" font-size="10.00">AQNWB::NWB::VectorDataTyped</text>
<text xml:space="preserve" text-anchor="middle" x="650.75" y="-5.75" font-family="Helvetica,sans-Serif" font-size="10.00">&lt; DTYPE &gt;</text>
</a>
</g>
</g>
<!-- Node15&#45;&gt;Node16 -->
<g id="edge15_Node000015_Node000016" class="edge">
<title>Node15&#45;&gt;Node16</title>
<g id="a_edge15_Node000015_Node000016"><a xlink:title=" ">
<path fill="none" stroke="#63b8ff" d="M529.05,-15.25C541.69,-15.25 554.76,-15.25 567.43,-15.25"/>
<polygon fill="#63b8ff" stroke="#63b8ff" points="529.11,-11.75 519.11,-15.25 529.11,-18.75 529.11,-11.75"/>
</a>
</g>
</g>
</g>
</svg>
