<?xml version="1.0" encoding="UTF-8" standalone="no"?>
<!DOCTYPE svg PUBLIC "-//W3C//DTD SVG 1.1//EN"
 "http://www.w3.org/Graphics/SVG/1.1/DTD/svg11.dtd">
<!-- Generated by graphviz version 14.1.2 (20260124.0452)
 -->
<!-- Title: AQNWB::NWB::Device::readManufacturer Pages: 1 -->
<svg width="609pt" height="88pt"
 viewBox="0.00 0.00 609.00 88.00" xmlns="http://www.w3.org/2000/svg" xmlns:xlink="http://www.w3.org/1999/xlink">
<g id="graph0" class="graph" transform="scale(1 1) rotate(0) translate(4 83.5)">
<title>AQNWB::NWB::Device::readManufacturer</title>
<!-- Node1 -->
<g id="Node000001" class="node">
<title>Node1</title>
<g id="a_Node000001"><a xlink:title=" ">
<polygon fill="#999999" stroke="#666666" points="601,-54.5 480,-54.5 480,-24 601,-24 601,-54.5"/>
<text xml:space="preserve" text-anchor="start" x="488" y="-41" font-family="Helvetica,sans-Serif" font-size="10.00">AQNWB::NWB::Device</text>
<text xml:space="preserve" text-anchor="middle" x="540.5" y="-29.75" font-family="Helvetica,sans-Serif" font-size="10.00">::readManufacturer</text>
</a>
</g>
</g>
<!-- Node2 -->
<g id="Node000002" class="node">
<title>Node2</title>
<g id="a_Node000002"><a xlink:href="class_a_q_n_w_b_1_1_n_w_b_1_1_device.html#aa2e15ae872eefc1ea0a3b43204a9af80" target="_top" xlink:title=" ">
<polygon fill="white" stroke="#666666" points="444,-54.5 323,-54.5 323,-24 444,-24 444,-54.5"/>
<text xml:space="preserve" text-anchor="start" x="331" y="-41" font-family="Helvetica,sans-Serif" font-size="10.00">AQNWB::NWB::Device</text>
<text xml:space="preserve" text-anchor="middle" x="383.5" y="-29.75" font-family="Helvetica,sans-Serif" font-size="10.00">::readDescription</text>
</a>
</g>
</g>
<!-- Node1&#45;&gt;Node2 -->
<g id="edge1_Node000001_Node000002" class="edge">
<title>Node1&#45;&gt;Node2</title>
<g id="a_edge1_Node000001_Node000002"><a xlink:title=" ">
<path fill="none" stroke="#63b8ff" d="M468.31,-39.25C460.27,-39.25 452.14,-39.25 444.27,-39.25"/>
<polygon fill="#63b8ff" stroke="#63b8ff" points="468.06,-42.75 478.06,-39.25 468.06,-35.75 468.06,-42.75"/>
</a>
</g>
</g>
<!-- Node3 -->
<g id="Node000003" class="node">
<title>Node3</title>
<g id="a_Node000003"><a xlink:href="class_a_q_n_w_b_1_1_n_w_b_1_1_device.html#ae296afaa5f71f00f29a7e213297d0d27" target="_top" xlink:title=" ">
<polygon fill="white" stroke="#666666" points="287,-54.5 166,-54.5 166,-24 287,-24 287,-54.5"/>
<text xml:space="preserve" text-anchor="start" x="174" y="-41" font-family="Helvetica,sans-Serif" font-size="10.00">AQNWB::NWB::Device</text>
<text xml:space="preserve" text-anchor="middle" x="226.5" y="-29.75" font-family="Helvetica,sans-Serif" font-size="10.00">::create</text>
</a>
</g>
</g>
<!-- Node2&#45;&gt;Node3 -->
<g id="edge2_Node000002_Node000003" class="edge">
<title>Node2&#45;&gt;Node3</title>
<g id="a_edge2_Node000002_Node000003"><a xlink:title=" ">
<path fill="none" stroke="#63b8ff" d="M311.31,-39.25C303.27,-39.25 295.14,-39.25 287.27,-39.25"/>
<polygon fill="#63b8ff" stroke="#63b8ff" points="311.06,-42.75 321.06,-39.25 311.06,-35.75 311.06,-42.75"/>
</a>
</g>
</g>
<!-- Node4 -->
<g id="Node000004" class="node">
<title>Node4</title>
<g id="a_Node000004"><a xlink:href="class_a_q_n_w_b_1_1_n_w_b_1_1_n_w_b_file.html#a1dfa71717131843ff964e55ee37ceb23" target="_top" xlink:title="Create ElectrodesTable. Note, this function will fail if the file is in a mode where new objects cann...">
<polygon fill="white" stroke="#666666" points="130,-79.5 0,-79.5 0,-49 130,-49 130,-79.5"/>
<text xml:space="preserve" text-anchor="start" x="8" y="-66" font-family="Helvetica,sans-Serif" font-size="10.00">AQNWB::NWB::NWBFile</text>
<text xml:space="preserve" text-anchor="middle" x="65" y="-54.75" font-family="Helvetica,sans-Serif" font-size="10.00">::createElectrodesTable</text>
</a>
</g>
</g>
<!-- Node3&#45;&gt;Node4 -->
<g id="edge3_Node000003_Node000004" class="edge">
<title>Node3&#45;&gt;Node4</title>
<g id="a_edge3_Node000003_Node000004"><a xlink:title=" ">
<path fill="none" stroke="#63b8ff" d="M154.46,-50.38C146.47,-51.64 138.36,-52.91 130.45,-54.15"/>
<polygon fill="#63b8ff" stroke="#63b8ff" points="154.82,-53.87 164.16,-48.86 153.74,-46.96 154.82,-53.87"/>
</a>
</g>
</g>
<!-- Node5 -->
<g id="Node000005" class="node">
<title>Node5</title>
<g id="a_Node000005"><a xlink:href="class_a_q_n_w_b_1_1_n_w_b_1_1_n_w_b_file.html#a0fa114190b0940cf54f44c626a69f550" target="_top" xlink:title="Create SpikeEventSeries objects to record data into. Created objects are automatically added to the I...">
<polygon fill="white" stroke="#666666" points="130,-30.5 0,-30.5 0,0 130,0 130,-30.5"/>
<text xml:space="preserve" text-anchor="start" x="8" y="-17" font-family="Helvetica,sans-Serif" font-size="10.00">AQNWB::NWB::NWBFile</text>
<text xml:space="preserve" text-anchor="middle" x="65" y="-5.75" font-family="Helvetica,sans-Serif" font-size="10.00">::createSpikeEventSeries</text>
</a>
</g>
</g>
<!-- Node3&#45;&gt;Node5 -->
<g id="edge4_Node000003_Node000005" class="edge">
<title>Node3&#45;&gt;Node5</title>
<g id="a_edge4_Node000003_Node000005"><a xlink:title=" ">
<path fill="none" stroke="#63b8ff" d="M154.46,-28.56C146.47,-27.36 138.36,-26.14 130.45,-24.95"/>
<polygon fill="#63b8ff" stroke="#63b8ff" points="153.75,-31.99 164.16,-30.02 154.79,-25.07 153.75,-31.99"/>
</a>
</g>
</g>
</g>
</svg>
