<?xml version="1.0" encoding="UTF-8" standalone="no"?>
<!DOCTYPE svg PUBLIC "-//W3C//DTD SVG 1.1//EN"
 "http://www.w3.org/Graphics/SVG/1.1/DTD/svg11.dtd">
<!-- Generated by graphviz version 12.1.0 (20240811.2233)
 -->
<!-- Title: AQNWB::BaseDataType::BaseDataType Pages: 1 -->
<svg width="865pt" height="110pt"
 viewBox="0.00 0.00 865.00 109.50" xmlns="http://www.w3.org/2000/svg" xmlns:xlink="http://www.w3.org/1999/xlink">
<g id="graph0" class="graph" transform="scale(1 1) rotate(0) translate(4 105.5)">
<title>AQNWB::BaseDataType::BaseDataType</title>
<!-- Node1 -->
<g id="Node000001" class="node">
<title>Node1</title>
<g id="a_Node000001"><a xlink:title="Constructs a BaseDataType object with the specified type and size.">
<polygon fill="#999999" stroke="#666666" points="857,-52.5 732.25,-52.5 732.25,-22 857,-22 857,-52.5"/>
<text text-anchor="start" x="740.25" y="-39" font-family="Helvetica,sans-Serif" font-size="10.00">AQNWB::BaseDataType</text>
<text text-anchor="middle" x="794.62" y="-27.75" font-family="Helvetica,sans-Serif" font-size="10.00">::BaseDataType</text>
</a>
</g>
</g>
<!-- Node2 -->
<g id="Node000002" class="node">
<title>Node2</title>
<g id="a_Node000002"><a xlink:href="class_a_q_n_w_b_1_1_base_data_type.html#a18d42dba7074fb4cdac771deef6c051b" target="_top" xlink:title="Accessor for string with specified size.">
<polygon fill="white" stroke="#666666" points="696.25,-46.88 545.25,-46.88 545.25,-27.62 696.25,-27.62 696.25,-46.88"/>
<text text-anchor="middle" x="620.75" y="-33.38" font-family="Helvetica,sans-Serif" font-size="10.00">AQNWB::BaseDataType::STR</text>
</a>
</g>
</g>
<!-- Node1&#45;&gt;Node2 -->
<g id="edge1_Node000001_Node000002" class="edge">
<title>Node1&#45;&gt;Node2</title>
<g id="a_edge1_Node000001_Node000002"><a xlink:title=" ">
<path fill="none" stroke="#63b8ff" d="M720.6,-37.25C712.69,-37.25 704.63,-37.25 696.69,-37.25"/>
<polygon fill="#63b8ff" stroke="#63b8ff" points="720.55,-40.75 730.55,-37.25 720.55,-33.75 720.55,-40.75"/>
</a>
</g>
</g>
<!-- Node3 -->
<g id="Node000003" class="node">
<title>Node3</title>
<g id="a_Node000003"><a xlink:href="class_a_q_n_w_b_1_1_n_w_b_1_1_dynamic_table.html#a76fea09d6ebe8047d7fe9878f49888d9" target="_top" xlink:title="Adds a column of vector string data to the table.">
<polygon fill="white" stroke="#666666" points="509.25,-101.5 356.75,-101.5 356.75,-71 509.25,-71 509.25,-101.5"/>
<text text-anchor="start" x="364.75" y="-88" font-family="Helvetica,sans-Serif" font-size="10.00">AQNWB::NWB::DynamicTable</text>
<text text-anchor="middle" x="433" y="-76.75" font-family="Helvetica,sans-Serif" font-size="10.00">::addColumn</text>
</a>
</g>
</g>
<!-- Node2&#45;&gt;Node3 -->
<g id="edge2_Node000002_Node000003" class="edge">
<title>Node2&#45;&gt;Node3</title>
<g id="a_edge2_Node000002_Node000003"><a xlink:title=" ">
<path fill="none" stroke="#63b8ff" d="M570.87,-50.15C547.18,-56.39 518.52,-63.95 493.57,-70.54"/>
<polygon fill="#63b8ff" stroke="#63b8ff" points="571.47,-53.61 580.25,-47.67 569.69,-46.84 571.47,-53.61"/>
</a>
</g>
</g>
<!-- Node6 -->
<g id="Node000006" class="node">
<title>Node6</title>
<g id="a_Node000006"><a xlink:href="class_a_q_n_w_b_1_1_h_d_f5_1_1_h_d_f5_i_o.html#abb3541720c4613adc1c273cbe54f66a9" target="_top" xlink:title="Creates a non&#45;modifiable dataset with a string value.">
<polygon fill="white" stroke="#666666" points="497.62,-52.5 368.38,-52.5 368.38,-22 497.62,-22 497.62,-52.5"/>
<text text-anchor="start" x="376.38" y="-39" font-family="Helvetica,sans-Serif" font-size="10.00">AQNWB::HDF5::HDF5IO</text>
<text text-anchor="middle" x="433" y="-27.75" font-family="Helvetica,sans-Serif" font-size="10.00">::createStringDataSet</text>
</a>
</g>
</g>
<!-- Node2&#45;&gt;Node6 -->
<g id="edge5_Node000002_Node000006" class="edge">
<title>Node2&#45;&gt;Node6</title>
<g id="a_edge5_Node000002_Node000006"><a xlink:title=" ">
<path fill="none" stroke="#63b8ff" d="M533.55,-37.25C521.53,-37.25 509.36,-37.25 497.85,-37.25"/>
<polygon fill="#63b8ff" stroke="#63b8ff" points="533.49,-40.75 543.49,-37.25 533.49,-33.75 533.49,-40.75"/>
</a>
</g>
</g>
<!-- Node7 -->
<g id="Node000007" class="node">
<title>Node7</title>
<g id="a_Node000007"><a xlink:href="class_a_q_n_w_b_1_1_n_w_b_1_1_electrode_table.html#af125b9b5d7a79d414b75998c6b52156b" target="_top" xlink:title="Initializes the ElectrodeTable.">
<polygon fill="white" stroke="#666666" points="320.75,-30.5 166,-30.5 166,0 320.75,0 320.75,-30.5"/>
<text text-anchor="start" x="174" y="-17" font-family="Helvetica,sans-Serif" font-size="10.00">AQNWB::NWB::ElectrodeTable</text>
<text text-anchor="middle" x="243.38" y="-5.75" font-family="Helvetica,sans-Serif" font-size="10.00">::initialize</text>
</a>
</g>
</g>
<!-- Node2&#45;&gt;Node7 -->
<g id="edge6_Node000002_Node000007" class="edge">
<title>Node2&#45;&gt;Node7</title>
<g id="a_edge6_Node000002_Node000007"><a xlink:title=" ">
<path fill="none" stroke="#63b8ff" d="M571.8,-24.5C552.51,-19.98 529.97,-15.47 509.25,-13.25 446.15,-6.48 374.11,-7.59 321.11,-10.05"/>
<polygon fill="#63b8ff" stroke="#63b8ff" points="570.72,-27.84 581.26,-26.78 572.37,-21.03 570.72,-27.84"/>
</a>
</g>
</g>
<!-- Node4 -->
<g id="Node000004" class="node">
<title>Node4</title>
<g id="a_Node000004"><a xlink:href="class_a_q_n_w_b_1_1_n_w_b_1_1_electrode_table.html#ab91b67e0f0a5dbe34d8f86efecf35de8" target="_top" xlink:title="Finalizes the ElectrodeTable.">
<polygon fill="white" stroke="#666666" points="320.75,-90.5 166,-90.5 166,-60 320.75,-60 320.75,-90.5"/>
<text text-anchor="start" x="174" y="-77" font-family="Helvetica,sans-Serif" font-size="10.00">AQNWB::NWB::ElectrodeTable</text>
<text text-anchor="middle" x="243.38" y="-65.75" font-family="Helvetica,sans-Serif" font-size="10.00">::finalize</text>
</a>
</g>
</g>
<!-- Node3&#45;&gt;Node4 -->
<g id="edge3_Node000003_Node000004" class="edge">
<title>Node3&#45;&gt;Node4</title>
<g id="a_edge3_Node000003_Node000004"><a xlink:title=" ">
<path fill="none" stroke="#63b8ff" d="M345.15,-81.16C337.07,-80.68 328.92,-80.21 320.95,-79.74"/>
<polygon fill="#63b8ff" stroke="#63b8ff" points="344.8,-84.64 354.99,-81.73 345.21,-77.66 344.8,-84.64"/>
</a>
</g>
</g>
<!-- Node5 -->
<g id="Node000005" class="node">
<title>Node5</title>
<g id="a_Node000005"><a xlink:href="class_a_q_n_w_b_1_1_n_w_b_1_1_n_w_b_file.html#ae0f515c91174c210a7aaad32a14c4f10" target="_top" xlink:title="Create ElectricalSeries objects to record data into. Created objects are stored in recordingContainer...">
<polygon fill="white" stroke="#666666" points="130,-54.5 0,-54.5 0,-24 130,-24 130,-54.5"/>
<text text-anchor="start" x="8" y="-41" font-family="Helvetica,sans-Serif" font-size="10.00">AQNWB::NWB::NWBFile</text>
<text text-anchor="middle" x="65" y="-29.75" font-family="Helvetica,sans-Serif" font-size="10.00">::createElectricalSeries</text>
</a>
</g>
</g>
<!-- Node4&#45;&gt;Node5 -->
<g id="edge4_Node000004_Node000005" class="edge">
<title>Node4&#45;&gt;Node5</title>
<g id="a_edge4_Node000004_Node000005"><a xlink:title=" ">
<path fill="none" stroke="#63b8ff" d="M154.51,-57.32C146.41,-55.66 138.3,-54.01 130.47,-52.41"/>
<polygon fill="#63b8ff" stroke="#63b8ff" points="153.55,-60.69 164.04,-59.26 154.95,-53.83 153.55,-60.69"/>
</a>
</g>
</g>
<!-- Node7&#45;&gt;Node5 -->
<g id="edge7_Node000007_Node000005" class="edge">
<title>Node7&#45;&gt;Node5</title>
<g id="a_edge7_Node000007_Node000005"><a xlink:title=" ">
<path fill="none" stroke="#63b8ff" d="M154.23,-27.24C146.22,-28.33 138.21,-29.42 130.47,-30.48"/>
<polygon fill="#63b8ff" stroke="#63b8ff" points="154.59,-30.73 164.03,-25.91 153.65,-23.79 154.59,-30.73"/>
</a>
</g>
</g>
</g>
</svg>
