<?xml version="1.0" encoding="UTF-8" standalone="no"?>
<!DOCTYPE svg PUBLIC "-//W3C//DTD SVG 1.1//EN"
 "http://www.w3.org/Graphics/SVG/1.1/DTD/svg11.dtd">
<!-- Generated by graphviz version 14.1.0 (20251206.1807)
 -->
<!-- Title: AQNWB::NWB::NWBFile::initialize Pages: 1 -->
<svg width="672pt" height="260pt"
 viewBox="0.00 0.00 672.00 260.00" xmlns="http://www.w3.org/2000/svg" xmlns:xlink="http://www.w3.org/1999/xlink">
<g id="graph0" class="graph" transform="scale(1 1) rotate(0) translate(4 255.88)">
<title>AQNWB::NWB::NWBFile::initialize</title>
<!-- Node1 -->
<g id="Node000001" class="node">
<title>Node1</title>
<g id="a_Node000001"><a xlink:title="Initializes the NWB file by setting up the file structure.">
<polygon fill="#999999" stroke="#666666" points="130,-88.88 0,-88.88 0,-58.38 130,-58.38 130,-88.88"/>
<text xml:space="preserve" text-anchor="start" x="8" y="-75.38" font-family="Helvetica,sans-Serif" font-size="10.00">AQNWB::NWB::NWBFile</text>
<text xml:space="preserve" text-anchor="middle" x="65" y="-64.12" font-family="Helvetica,sans-Serif" font-size="10.00">::initialize</text>
</a>
</g>
</g>
<!-- Node2 -->
<g id="Node000002" class="node">
<title>Node2</title>
<g id="a_Node000002"><a xlink:href="class_a_q_n_w_b_1_1_n_w_b_1_1_n_w_b_file.html#a71bd7b910a7ec89bdaf36304d67bfef1" target="_top" xlink:title="Creates the default file structure. Note, this function will fail if the file is in a mode where new ...">
<polygon fill="white" stroke="#666666" points="296,-153.88 166,-153.88 166,-123.38 296,-123.38 296,-153.88"/>
<text xml:space="preserve" text-anchor="start" x="174" y="-140.38" font-family="Helvetica,sans-Serif" font-size="10.00">AQNWB::NWB::NWBFile</text>
<text xml:space="preserve" text-anchor="middle" x="231" y="-129.12" font-family="Helvetica,sans-Serif" font-size="10.00">::createFileStructure</text>
</a>
</g>
</g>
<!-- Node1&#45;&gt;Node2 -->
<g id="edge1_Node000001_Node000002" class="edge">
<title>Node1&#45;&gt;Node2</title>
<g id="a_edge1_Node000001_Node000002"><a xlink:title=" ">
<path fill="none" stroke="#63b8ff" d="M103.41,-89.28C122.14,-97.04 145.21,-106.47 166,-114.62 169.59,-116.03 173.3,-117.47 177.04,-118.91"/>
<polygon fill="#63b8ff" stroke="#63b8ff" points="175.58,-122.1 186.17,-122.39 178.07,-115.56 175.58,-122.1"/>
</a>
</g>
</g>
<!-- Node9 -->
<g id="Node000009" class="node">
<title>Node9</title>
<g id="a_Node000009"><a xlink:href="namespace_a_q_n_w_b.html#ac436d136125307ef8158115a2296b3e9" target="_top" xlink:title="Get the current time in ISO 8601 format with the UTC offset.">
<polygon fill="white" stroke="#666666" points="294.88,-105.25 167.12,-105.25 167.12,-86 294.88,-86 294.88,-105.25"/>
<text xml:space="preserve" text-anchor="middle" x="231" y="-91.75" font-family="Helvetica,sans-Serif" font-size="10.00">AQNWB::getCurrentTime</text>
</a>
</g>
</g>
<!-- Node1&#45;&gt;Node9 -->
<g id="edge8_Node000001_Node000009" class="edge">
<title>Node1&#45;&gt;Node9</title>
<g id="a_edge8_Node000001_Node000009"><a xlink:title=" ">
<path fill="none" stroke="#63b8ff" d="M130.35,-82.26C138.55,-83.36 147,-84.49 155.36,-85.61"/>
<polygon fill="#63b8ff" stroke="#63b8ff" points="154.77,-89.06 165.15,-86.92 155.7,-82.13 154.77,-89.06"/>
</a>
</g>
</g>
<!-- Node10 -->
<g id="Node000010" class="node">
<title>Node10</title>
<g id="a_Node000010"><a xlink:href="class_a_q_n_w_b_1_1_n_w_b_1_1_n_w_b_file.html#aba967059704c8c81446775bd7beda42b" target="_top" xlink:title="Check if the NWB file is initialized.">
<polygon fill="white" stroke="#666666" points="296,-67.88 166,-67.88 166,-37.38 296,-37.38 296,-67.88"/>
<text xml:space="preserve" text-anchor="start" x="174" y="-54.38" font-family="Helvetica,sans-Serif" font-size="10.00">AQNWB::NWB::NWBFile</text>
<text xml:space="preserve" text-anchor="middle" x="231" y="-43.12" font-family="Helvetica,sans-Serif" font-size="10.00">::isInitialized</text>
</a>
</g>
</g>
<!-- Node1&#45;&gt;Node10 -->
<g id="edge9_Node000001_Node000010" class="edge">
<title>Node1&#45;&gt;Node10</title>
<g id="a_edge9_Node000001_Node000010"><a xlink:title=" ">
<path fill="none" stroke="#63b8ff" d="M130.35,-65.39C138.21,-64.38 146.31,-63.34 154.33,-62.32"/>
<polygon fill="#63b8ff" stroke="#63b8ff" points="154.59,-65.81 164.07,-61.07 153.71,-58.87 154.59,-65.81"/>
</a>
</g>
</g>
<!-- Node11 -->
<g id="Node000011" class="node">
<title>Node11</title>
<g id="a_Node000011"><a xlink:href="namespace_a_q_n_w_b.html#a4aacc6b82eca3064a8afe0070c44cde4" target="_top" xlink:title="Check that a string is formatted in ISO8601 format.">
<polygon fill="white" stroke="#666666" points="294.5,-19.25 167.5,-19.25 167.5,0 294.5,0 294.5,-19.25"/>
<text xml:space="preserve" text-anchor="middle" x="231" y="-5.75" font-family="Helvetica,sans-Serif" font-size="10.00">AQNWB::isISO8601Date</text>
</a>
</g>
</g>
<!-- Node1&#45;&gt;Node11 -->
<g id="edge10_Node000001_Node000011" class="edge">
<title>Node1&#45;&gt;Node11</title>
<g id="a_edge10_Node000001_Node000011"><a xlink:title=" ">
<path fill="none" stroke="#63b8ff" d="M97.97,-57.92C117.38,-48.71 142.8,-37.24 166,-28.62 171.1,-26.73 176.47,-24.89 181.86,-23.16"/>
<polygon fill="#63b8ff" stroke="#63b8ff" points="182.88,-26.5 191.39,-20.19 180.8,-19.82 182.88,-26.5"/>
</a>
</g>
</g>
<!-- Node3 -->
<g id="Node000003" class="node">
<title>Node3</title>
<g id="a_Node000003"><a xlink:href="class_a_q_n_w_b_1_1_n_w_b_1_1_n_w_b_file.html#aaf2e07b4e912fc34ab052d38f92e6cdd" target="_top" xlink:title="Saves the specification files for the schema.">
<polygon fill="white" stroke="#666666" points="488.62,-251.88 358.62,-251.88 358.62,-221.38 488.62,-221.38 488.62,-251.88"/>
<text xml:space="preserve" text-anchor="start" x="366.62" y="-238.38" font-family="Helvetica,sans-Serif" font-size="10.00">AQNWB::NWB::NWBFile</text>
<text xml:space="preserve" text-anchor="middle" x="423.62" y="-227.12" font-family="Helvetica,sans-Serif" font-size="10.00">::cacheSpecifications</text>
</a>
</g>
</g>
<!-- Node2&#45;&gt;Node3 -->
<g id="edge2_Node000002_Node000003" class="edge">
<title>Node2&#45;&gt;Node3</title>
<g id="a_edge2_Node000002_Node000003"><a xlink:title=" ">
<path fill="none" stroke="#63b8ff" d="M249.16,-154.19C268.14,-170.65 300.26,-196.3 332,-211.62 337.02,-214.05 342.3,-216.27 347.7,-218.3"/>
<polygon fill="#63b8ff" stroke="#63b8ff" points="346.16,-221.46 356.75,-221.47 348.47,-214.86 346.16,-221.46"/>
</a>
</g>
</g>
<!-- Node5 -->
<g id="Node000005" class="node">
<title>Node5</title>
<g id="a_Node000005"><a xlink:href="class_a_q_n_w_b_1_1_s_p_e_c_1_1_namespace_registry.html#aceded37c693bb2f6aa21a5945a13557c" target="_top" xlink:title="Get all registered namespaces.">
<polygon fill="white" stroke="#666666" points="515.25,-202.88 332,-202.88 332,-172.38 515.25,-172.38 515.25,-202.88"/>
<text xml:space="preserve" text-anchor="start" x="340" y="-189.38" font-family="Helvetica,sans-Serif" font-size="10.00">AQNWB::SPEC::NamespaceRegistry</text>
<text xml:space="preserve" text-anchor="middle" x="423.62" y="-178.12" font-family="Helvetica,sans-Serif" font-size="10.00">::getAllNamespaces</text>
</a>
</g>
</g>
<!-- Node2&#45;&gt;Node5 -->
<g id="edge4_Node000002_Node000005" class="edge">
<title>Node2&#45;&gt;Node5</title>
<g id="a_edge4_Node000002_Node000005"><a xlink:title=" ">
<path fill="none" stroke="#63b8ff" d="M293.1,-154.33C311.4,-159.03 331.64,-164.24 350.57,-169.1"/>
<polygon fill="#63b8ff" stroke="#63b8ff" points="349.52,-172.45 360.08,-171.55 351.26,-165.67 349.52,-172.45"/>
</a>
</g>
</g>
<!-- Node6 -->
<g id="Node000006" class="node">
<title>Node6</title>
<g id="a_Node000006"><a xlink:href="class_a_q_n_w_b_1_1_n_w_b_1_1_registered_type.html#a651f3d7e5cc28dc93888e8a821c5aa1c" target="_top" xlink:title="Get the schema namespace of the class type.">
<polygon fill="white" stroke="#666666" points="502.88,-153.88 344.38,-153.88 344.38,-123.38 502.88,-123.38 502.88,-153.88"/>
<text xml:space="preserve" text-anchor="start" x="352.38" y="-140.38" font-family="Helvetica,sans-Serif" font-size="10.00">AQNWB::NWB::RegisteredType</text>
<text xml:space="preserve" text-anchor="middle" x="423.62" y="-129.12" font-family="Helvetica,sans-Serif" font-size="10.00">::getNamespace</text>
</a>
</g>
</g>
<!-- Node2&#45;&gt;Node6 -->
<g id="edge5_Node000002_Node000006" class="edge">
<title>Node2&#45;&gt;Node6</title>
<g id="a_edge5_Node000002_Node000006"><a xlink:title=" ">
<path fill="none" stroke="#63b8ff" d="M296.27,-138.62C308.02,-138.62 320.48,-138.62 332.81,-138.62"/>
<polygon fill="#63b8ff" stroke="#63b8ff" points="332.57,-142.13 342.57,-138.63 332.57,-135.13 332.57,-142.13"/>
</a>
</g>
</g>
<!-- Node7 -->
<g id="Node000007" class="node">
<title>Node7</title>
<g id="a_Node000007"><a xlink:href="class_a_q_n_w_b_1_1_n_w_b_1_1_registered_type.html#a150f881ad61cb8352eea7ddba47bc6ad" target="_top" xlink:title="Get the name of the class type.">
<polygon fill="white" stroke="#666666" points="502.88,-104.88 344.38,-104.88 344.38,-74.38 502.88,-74.38 502.88,-104.88"/>
<text xml:space="preserve" text-anchor="start" x="352.38" y="-91.38" font-family="Helvetica,sans-Serif" font-size="10.00">AQNWB::NWB::RegisteredType</text>
<text xml:space="preserve" text-anchor="middle" x="423.62" y="-80.12" font-family="Helvetica,sans-Serif" font-size="10.00">::getTypeName</text>
</a>
</g>
</g>
<!-- Node2&#45;&gt;Node7 -->
<g id="edge6_Node000002_Node000007" class="edge">
<title>Node2&#45;&gt;Node7</title>
<g id="a_edge6_Node000002_Node000007"><a xlink:title=" ">
<path fill="none" stroke="#63b8ff" d="M293.1,-122.92C311.4,-118.22 331.64,-113.01 350.57,-108.15"/>
<polygon fill="#63b8ff" stroke="#63b8ff" points="351.26,-111.58 360.08,-105.7 349.52,-104.8 351.26,-111.58"/>
</a>
</g>
</g>
<!-- Node8 -->
<g id="Node000008" class="node">
<title>Node8</title>
<g id="a_Node000008"><a xlink:href="class_a_q_n_w_b_1_1_s_p_e_c_1_1_namespace_registry.html#a15d9c6f869f0270ad91a2af8067f5a88" target="_top" xlink:title="Get the singleton instance of the NamespaceRegistry.">
<polygon fill="white" stroke="#666666" points="515.25,-55.88 332,-55.88 332,-25.38 515.25,-25.38 515.25,-55.88"/>
<text xml:space="preserve" text-anchor="start" x="340" y="-42.38" font-family="Helvetica,sans-Serif" font-size="10.00">AQNWB::SPEC::NamespaceRegistry</text>
<text xml:space="preserve" text-anchor="middle" x="423.62" y="-31.12" font-family="Helvetica,sans-Serif" font-size="10.00">::instance</text>
</a>
</g>
</g>
<!-- Node2&#45;&gt;Node8 -->
<g id="edge7_Node000002_Node000008" class="edge">
<title>Node2&#45;&gt;Node8</title>
<g id="a_edge7_Node000002_Node000008"><a xlink:title=" ">
<path fill="none" stroke="#63b8ff" d="M282.41,-122.99C287.21,-120.55 291.84,-117.78 296,-114.62 317.55,-98.31 309.74,-80.95 332,-65.62 334.21,-64.1 336.51,-62.67 338.88,-61.33"/>
<polygon fill="#63b8ff" stroke="#63b8ff" points="340.24,-64.56 347.62,-56.96 337.11,-58.3 340.24,-64.56"/>
</a>
</g>
</g>
<!-- Node4 -->
<g id="Node000004" class="node">
<title>Node4</title>
<g id="a_Node000004"><a xlink:href="namespace_a_q_n_w_b.html#a31983dbaaa85c2e355b9687fc0ef1881" target="_top" xlink:title="Merge two paths into a single path, handling extra trailing and starting &quot;/&quot;.">
<polygon fill="white" stroke="#666666" points="664,-246.25 551.25,-246.25 551.25,-227 664,-227 664,-246.25"/>
<text xml:space="preserve" text-anchor="middle" x="607.62" y="-232.75" font-family="Helvetica,sans-Serif" font-size="10.00">AQNWB::mergePaths</text>
</a>
</g>
</g>
<!-- Node3&#45;&gt;Node4 -->
<g id="edge3_Node000003_Node000004" class="edge">
<title>Node3&#45;&gt;Node4</title>
<g id="a_edge3_Node000003_Node000004"><a xlink:title=" ">
<path fill="none" stroke="#63b8ff" d="M489.05,-236.62C505.5,-236.62 523.22,-236.62 539.79,-236.62"/>
<polygon fill="#63b8ff" stroke="#63b8ff" points="539.53,-240.13 549.53,-236.63 539.53,-233.13 539.53,-240.13"/>
</a>
</g>
</g>
</g>
</svg>
