<?xml version="1.0" encoding="UTF-8" standalone="no"?>
<!DOCTYPE svg PUBLIC "-//W3C//DTD SVG 1.1//EN"
 "http://www.w3.org/Graphics/SVG/1.1/DTD/svg11.dtd">
<!-- Generated by graphviz version 14.1.0 (20251206.1807)
 -->
<!-- Title: AQNWB::NWB::Device::initialize Pages: 1 -->
<svg width="684pt" height="97pt"
 viewBox="0.00 0.00 684.00 97.00" xmlns="http://www.w3.org/2000/svg" xmlns:xlink="http://www.w3.org/1999/xlink">
<g id="graph0" class="graph" transform="scale(1 1) rotate(0) translate(4 92.5)">
<title>AQNWB::NWB::Device::initialize</title>
<!-- Node1 -->
<g id="Node000001" class="node">
<title>Node1</title>
<g id="a_Node000001"><a xlink:title="Initializes the device by creating NWB related attributes and writing the manufactor and description ...">
<polygon fill="#999999" stroke="#666666" points="121,-55.5 0,-55.5 0,-25 121,-25 121,-55.5"/>
<text xml:space="preserve" text-anchor="start" x="8" y="-42" font-family="Helvetica,sans-Serif" font-size="10.00">AQNWB::NWB::Device</text>
<text xml:space="preserve" text-anchor="middle" x="60.5" y="-30.75" font-family="Helvetica,sans-Serif" font-size="10.00">::initialize</text>
</a>
</g>
</g>
<!-- Node2 -->
<g id="Node000002" class="node">
<title>Node2</title>
<g id="a_Node000002"><a xlink:href="class_a_q_n_w_b_1_1_n_w_b_1_1_registered_type.html#a651f3d7e5cc28dc93888e8a821c5aa1c" target="_top" xlink:title="Get the schema namespace of the class type.">
<polygon fill="white" stroke="#666666" points="676,-88.5 517.5,-88.5 517.5,-58 676,-58 676,-88.5"/>
<text xml:space="preserve" text-anchor="start" x="525.5" y="-75" font-family="Helvetica,sans-Serif" font-size="10.00">AQNWB::NWB::RegisteredType</text>
<text xml:space="preserve" text-anchor="middle" x="596.75" y="-63.75" font-family="Helvetica,sans-Serif" font-size="10.00">::getNamespace</text>
</a>
</g>
</g>
<!-- Node1&#45;&gt;Node2 -->
<g id="edge1_Node000001_Node000002" class="edge">
<title>Node1&#45;&gt;Node2</title>
<g id="a_edge1_Node000001_Node000002"><a xlink:title=" ">
<path fill="none" stroke="#63b8ff" d="M115.13,-55.98C128.68,-59.33 143.28,-62.41 157,-64.25 276.9,-80.34 416.87,-79.93 505.87,-77.3"/>
<polygon fill="#63b8ff" stroke="#63b8ff" points="505.88,-80.8 515.76,-76.99 505.66,-73.81 505.88,-80.8"/>
</a>
</g>
</g>
<!-- Node3 -->
<g id="Node000003" class="node">
<title>Node3</title>
<g id="a_Node000003"><a xlink:href="class_a_q_n_w_b_1_1_n_w_b_1_1_registered_type.html#a150f881ad61cb8352eea7ddba47bc6ad" target="_top" xlink:title="Get the name of the class type.">
<polygon fill="white" stroke="#666666" points="676,-30.5 517.5,-30.5 517.5,0 676,0 676,-30.5"/>
<text xml:space="preserve" text-anchor="start" x="525.5" y="-17" font-family="Helvetica,sans-Serif" font-size="10.00">AQNWB::NWB::RegisteredType</text>
<text xml:space="preserve" text-anchor="middle" x="596.75" y="-5.75" font-family="Helvetica,sans-Serif" font-size="10.00">::getTypeName</text>
</a>
</g>
</g>
<!-- Node1&#45;&gt;Node3 -->
<g id="edge2_Node000001_Node000003" class="edge">
<title>Node1&#45;&gt;Node3</title>
<g id="a_edge2_Node000001_Node000003"><a xlink:title=" ">
<path fill="none" stroke="#63b8ff" d="M114.35,-24.53C128.11,-21.11 143.01,-18 157,-16.25 277.02,-1.26 416.95,-4.48 505.92,-9.09"/>
<polygon fill="#63b8ff" stroke="#63b8ff" points="505.64,-12.58 515.81,-9.62 506.01,-5.59 505.64,-12.58"/>
</a>
</g>
</g>
<!-- Node4 -->
<g id="Node000004" class="node">
<title>Node4</title>
<g id="a_Node000004"><a xlink:href="class_a_q_n_w_b_1_1_n_w_b_1_1_n_w_b_container.html#a80beeda4c4761fe414407e4cc0d4fe8c" target="_top" xlink:title="Initialize the object.">
<polygon fill="white" stroke="#666666" points="313.25,-55.5 157,-55.5 157,-25 313.25,-25 313.25,-55.5"/>
<text xml:space="preserve" text-anchor="start" x="165" y="-42" font-family="Helvetica,sans-Serif" font-size="10.00">AQNWB::NWB::NWBContainer</text>
<text xml:space="preserve" text-anchor="middle" x="235.12" y="-30.75" font-family="Helvetica,sans-Serif" font-size="10.00">::initialize</text>
</a>
</g>
</g>
<!-- Node1&#45;&gt;Node4 -->
<g id="edge3_Node000001_Node000004" class="edge">
<title>Node1&#45;&gt;Node4</title>
<g id="a_edge3_Node000001_Node000004"><a xlink:title=" ">
<path fill="none" stroke="#63b8ff" d="M121.39,-40.25C129.14,-40.25 137.19,-40.25 145.28,-40.25"/>
<polygon fill="#63b8ff" stroke="#63b8ff" points="145.19,-43.75 155.19,-40.25 145.19,-36.75 145.19,-43.75"/>
</a>
</g>
</g>
<!-- Node5 -->
<g id="Node000005" class="node">
<title>Node5</title>
<g id="a_Node000005"><a xlink:href="class_a_q_n_w_b_1_1_n_w_b_1_1_container.html#a420424e52795b5212d7dcb728396af6a" target="_top" xlink:title="Initialize the container.">
<polygon fill="white" stroke="#666666" points="481.5,-55.5 349.25,-55.5 349.25,-25 481.5,-25 481.5,-55.5"/>
<text xml:space="preserve" text-anchor="start" x="357.25" y="-42" font-family="Helvetica,sans-Serif" font-size="10.00">AQNWB::NWB::Container</text>
<text xml:space="preserve" text-anchor="middle" x="415.38" y="-30.75" font-family="Helvetica,sans-Serif" font-size="10.00">::initialize</text>
</a>
</g>
</g>
<!-- Node4&#45;&gt;Node5 -->
<g id="edge4_Node000004_Node000005" class="edge">
<title>Node4&#45;&gt;Node5</title>
<g id="a_edge4_Node000004_Node000005"><a xlink:title=" ">
<path fill="none" stroke="#63b8ff" d="M313.53,-40.25C321.42,-40.25 329.44,-40.25 337.32,-40.25"/>
<polygon fill="#63b8ff" stroke="#63b8ff" points="337.24,-43.75 347.24,-40.25 337.24,-36.75 337.24,-43.75"/>
</a>
</g>
</g>
<!-- Node5&#45;&gt;Node2 -->
<g id="edge5_Node000005_Node000002" class="edge">
<title>Node5&#45;&gt;Node2</title>
<g id="a_edge5_Node000005_Node000002"><a xlink:title=" ">
<path fill="none" stroke="#63b8ff" d="M481.89,-52.3C489.81,-53.76 497.99,-55.27 506.17,-56.77"/>
<polygon fill="#63b8ff" stroke="#63b8ff" points="505.35,-60.18 515.82,-58.54 506.62,-53.29 505.35,-60.18"/>
</a>
</g>
</g>
<!-- Node5&#45;&gt;Node3 -->
<g id="edge6_Node000005_Node000003" class="edge">
<title>Node5&#45;&gt;Node3</title>
<g id="a_edge6_Node000005_Node000003"><a xlink:title=" ">
<path fill="none" stroke="#63b8ff" d="M481.89,-31.12C489.81,-30.02 497.99,-28.87 506.17,-27.73"/>
<polygon fill="#63b8ff" stroke="#63b8ff" points="506.39,-31.24 515.81,-26.39 505.42,-24.31 506.39,-31.24"/>
</a>
</g>
</g>
</g>
</svg>
