<?xml version="1.0" encoding="UTF-8" standalone="no"?>
<!DOCTYPE svg PUBLIC "-//W3C//DTD SVG 1.1//EN"
 "http://www.w3.org/Graphics/SVG/1.1/DTD/svg11.dtd">
<!-- Generated by graphviz version 12.2.1 (20241206.2353)
 -->
<!-- Title: AQNWB::IO::HDF5::HDF5IO::getH5ObjectType Pages: 1 -->
<!--zoomable 296 -->

<svg id="main" version="1.1" xmlns="http://www.w3.org/2000/svg" xmlns:xlink="http://www.w3.org/1999/xlink" xml:space="preserve" onload="init(evt)">

<style type="text/css"><![CDATA[
.node, .edge {opacity: 0.7;}
.node.selected, .edge.selected {opacity: 1;}
.edge:hover path { stroke: red; }
.edge:hover polygon { stroke: red; fill: red; }
]]></style>

<defs>
  <circle id="rim" cx="0" cy="0" r="7"/>
  <circle id="rim2" cx="0" cy="0" r="3.5"/>
  <g id="zoomPlus">
    <use xlink:href="#rim" fill="#404040"><set attributeName="fill" to="#808080" begin="zoomplus.mouseover" end="zoomplus.mouseout"/></use>
    <path d="M-4,0h8M0,-4v8" fill="none" stroke="white" stroke-width="1.5" pointer-events="none"/>
  </g>
  <g id="zoomMin">
    <use xlink:href="#rim" fill="#404040"><set attributeName="fill" to="#808080" begin="zoomminus.mouseover" end="zoomminus.mouseout"/></use>
    <path d="M-4,0h8" fill="none" stroke="white" stroke-width="1.5" pointer-events="none"/>
  </g>
  <g id="arrowUp" transform="translate(30 24)">
    <use xlink:href="#rim"/>
    <path pointer-events="none" fill="none" stroke="white" stroke-width="1.5" d="M0,-3.0v7 M-2.5,-0.5L0,-3.0L2.5,-0.5"/>
  </g>
  <g id="arrowRight" transform="rotate(90) translate(36 -43)">
    <use xlink:href="#rim"/>
    <path pointer-events="none" fill="none" stroke="white" stroke-width="1.5" d="M0,-3.0v7 M-2.5,-0.5L0,-3.0L2.5,-0.5"/>
  </g>
  <g id="arrowDown" transform="rotate(180) translate(-30 -48)">
    <use xlink:href="#rim"/>
    <path pointer-events="none" fill="none" stroke="white" stroke-width="1.5" d="M0,-3.0v7 M-2.5,-0.5L0,-3.0L2.5,-0.5"/>
  </g>
  <g id="arrowLeft" transform="rotate(270) translate(-36 17)">
    <use xlink:href="#rim"/>
    <path pointer-events="none" fill="none" stroke="white" stroke-width="1.5" d="M0,-3.0v7 M-2.5,-0.5L0,-3.0L2.5,-0.5"/>
  </g>
  <g id="resetDef">
    <use xlink:href="#rim2" fill="#404040"><set attributeName="fill" to="#808080" begin="reset.mouseover" end="reset.mouseout"/></use>
  </g>
</defs>
<script type="application/ecmascript">
var viewWidth = 517;
var viewHeight = 296;
var sectionId = 'dynsection-28';
</script>
<script type="application/ecmascript" xlink:href="svg.min.js"/>
<svg id="graph" class="graph">
<g id="viewport">
<title>AQNWB::IO::HDF5::HDF5IO::getH5ObjectType</title>
<!-- Node1 -->
<g id="Node000001" class="node">
<title>Node1</title>
<g id="a_Node000001"><a xlink:title="Returns the HDF5 type of object at a given path.">
<polygon fill="#999999" stroke="#666666" points="509.25,-140.5 363.5,-140.5 363.5,-110 509.25,-110 509.25,-140.5"/>
<text text-anchor="start" x="371.5" y="-127" font-family="Helvetica,sans-Serif" font-size="10.00">AQNWB::IO::HDF5::HDF5IO</text>
<text text-anchor="middle" x="436.38" y="-115.75" font-family="Helvetica,sans-Serif" font-size="10.00">::getH5ObjectType</text>
</a>
</g>
</g>
<!-- Node2 -->
<g id="Node000002" class="node">
<title>Node2</title>
<g id="a_Node000002"><a xlink:href="class_a_q_n_w_b_1_1_i_o_1_1_h_d_f5_1_1_h_d_f5_i_o.html#a7ce63eb864cc8678f4bacb5fbc695cbe" target="_top" xlink:title="Creates an attribute at a given location in the file.">
<polygon fill="white" stroke="#666666" points="327.5,-263.5 181.75,-263.5 181.75,-233 327.5,-233 327.5,-263.5"/>
<text text-anchor="start" x="189.75" y="-250" font-family="Helvetica,sans-Serif" font-size="10.00">AQNWB::IO::HDF5::HDF5IO</text>
<text text-anchor="middle" x="254.62" y="-238.75" font-family="Helvetica,sans-Serif" font-size="10.00">::createAttribute</text>
</a>
</g>
</g>
<!-- Node1&#45;&gt;Node2 -->
<g id="edge1_Node000001_Node000002" class="edge">
<title>Node1&#45;&gt;Node2</title>
<g id="a_edge1_Node000001_Node000002"><a xlink:title=" ">
<path fill="none" stroke="#63b8ff" d="M414.22,-149.38C393.89,-171.29 361.34,-203.14 327.5,-223.25 321.59,-226.76 315.12,-229.87 308.56,-232.61"/>
<polygon fill="#63b8ff" stroke="#63b8ff" points="416.73,-151.82 420.88,-142.07 411.56,-147.11 416.73,-151.82"/>
</a>
</g>
</g>
<!-- Node5 -->
<g id="Node000005" class="node">
<title>Node5</title>
<g id="a_Node000005"><a xlink:href="class_a_q_n_w_b_1_1_i_o_1_1_h_d_f5_1_1_h_d_f5_i_o.html#a01251dd7756ef0e57f25b8beb17ae2e6" target="_top" xlink:title="Creates a string array attribute at a given location in the file.">
<polygon fill="white" stroke="#666666" points="327.5,-214.5 181.75,-214.5 181.75,-184 327.5,-184 327.5,-214.5"/>
<text text-anchor="start" x="189.75" y="-201" font-family="Helvetica,sans-Serif" font-size="10.00">AQNWB::IO::HDF5::HDF5IO</text>
<text text-anchor="middle" x="254.62" y="-189.75" font-family="Helvetica,sans-Serif" font-size="10.00">::createAttribute</text>
</a>
</g>
</g>
<!-- Node1&#45;&gt;Node5 -->
<g id="edge4_Node000001_Node000005" class="edge">
<title>Node1&#45;&gt;Node5</title>
<g id="a_edge4_Node000001_Node000005"><a xlink:title=" ">
<path fill="none" stroke="#63b8ff" d="M392.94,-145.61C373.23,-154.79 349.35,-165.51 327.5,-174.25 319.53,-177.44 310.97,-180.62 302.64,-183.59"/>
<polygon fill="#63b8ff" stroke="#63b8ff" points="394.2,-148.89 401.77,-141.47 391.23,-142.55 394.2,-148.89"/>
</a>
</g>
</g>
<!-- Node6 -->
<g id="Node000006" class="node">
<title>Node6</title>
<g id="a_Node000006"><a xlink:href="class_a_q_n_w_b_1_1_i_o_1_1_h_d_f5_1_1_h_d_f5_i_o.html#a9181a28c31a25698ca748b1dcb955daa" target="_top" xlink:title="Sets an object reference attribute for a given location in the file.">
<polygon fill="white" stroke="#666666" points="327.5,-165.5 181.75,-165.5 181.75,-135 327.5,-135 327.5,-165.5"/>
<text text-anchor="start" x="189.75" y="-152" font-family="Helvetica,sans-Serif" font-size="10.00">AQNWB::IO::HDF5::HDF5IO</text>
<text text-anchor="middle" x="254.62" y="-140.75" font-family="Helvetica,sans-Serif" font-size="10.00">::createReferenceAttribute</text>
</a>
</g>
</g>
<!-- Node1&#45;&gt;Node6 -->
<g id="edge5_Node000001_Node000006" class="edge">
<title>Node1&#45;&gt;Node6</title>
<g id="a_edge5_Node000001_Node000006"><a xlink:title=" ">
<path fill="none" stroke="#63b8ff" d="M351.79,-136.88C343.78,-137.99 335.7,-139.11 327.81,-140.21"/>
<polygon fill="#63b8ff" stroke="#63b8ff" points="352.12,-140.36 361.54,-135.52 351.15,-133.43 352.12,-140.36"/>
</a>
</g>
</g>
<!-- Node7 -->
<g id="Node000007" class="node">
<title>Node7</title>
<g id="a_Node000007"><a xlink:href="class_a_q_n_w_b_1_1_i_o_1_1_h_d_f5_1_1_h_d_f5_i_o.html#a87d9b4075fd30c5ec692738985ae294c" target="_top" xlink:title=" ">
<polygon fill="white" stroke="#666666" points="327.5,-116.5 181.75,-116.5 181.75,-86 327.5,-86 327.5,-116.5"/>
<text text-anchor="start" x="189.75" y="-103" font-family="Helvetica,sans-Serif" font-size="10.00">AQNWB::IO::HDF5::HDF5IO</text>
<text text-anchor="middle" x="254.62" y="-91.75" font-family="Helvetica,sans-Serif" font-size="10.00">::getAttribute</text>
</a>
</g>
</g>
<!-- Node1&#45;&gt;Node7 -->
<g id="edge6_Node000001_Node000007" class="edge">
<title>Node1&#45;&gt;Node7</title>
<g id="a_edge6_Node000001_Node000007"><a xlink:title=" ">
<path fill="none" stroke="#63b8ff" d="M351.79,-114.09C343.78,-113.02 335.7,-111.94 327.81,-110.89"/>
<polygon fill="#63b8ff" stroke="#63b8ff" points="351.17,-117.54 361.54,-115.39 352.09,-110.6 351.17,-117.54"/>
</a>
</g>
</g>
<!-- Node9 -->
<g id="Node000009" class="node">
<title>Node9</title>
<g id="a_Node000009"><a xlink:href="class_a_q_n_w_b_1_1_i_o_1_1_h_d_f5_1_1_h_d_f5_i_o.html#a5fb171a91ef8134baf224115f0dcf8bc" target="_top" xlink:title="Get the storage type (Group, Dataset, Attribute) of the object at path.">
<polygon fill="white" stroke="#666666" points="145.75,-67.5 0,-67.5 0,-37 145.75,-37 145.75,-67.5"/>
<text text-anchor="start" x="8" y="-54" font-family="Helvetica,sans-Serif" font-size="10.00">AQNWB::IO::HDF5::HDF5IO</text>
<text text-anchor="middle" x="72.88" y="-42.75" font-family="Helvetica,sans-Serif" font-size="10.00">::getStorageObjectType</text>
</a>
</g>
</g>
<!-- Node1&#45;&gt;Node9 -->
<g id="edge11_Node000001_Node000009" class="edge">
<title>Node1&#45;&gt;Node9</title>
<g id="a_edge11_Node000001_Node000009"><a xlink:title=" ">
<path fill="none" stroke="#63b8ff" d="M396.98,-104.55C376.86,-94.65 351.46,-83.59 327.5,-77.25 267.61,-61.42 197.38,-55.43 146.02,-53.25"/>
<polygon fill="#63b8ff" stroke="#63b8ff" points="395.14,-107.54 405.64,-108.92 398.29,-101.29 395.14,-107.54"/>
</a>
</g>
</g>
<!-- Node11 -->
<g id="Node000011" class="node">
<title>Node11</title>
<g id="a_Node000011"><a xlink:href="class_a_q_n_w_b_1_1_i_o_1_1_h_d_f5_1_1_h_d_f5_i_o.html#a54b2e3341ef695c712a9670c4a781c81" target="_top" xlink:title="Gets the list of storage objects (groups, datasets, attributes) inside a group.">
<polygon fill="white" stroke="#666666" points="327.5,-30.5 181.75,-30.5 181.75,0 327.5,0 327.5,-30.5"/>
<text text-anchor="start" x="189.75" y="-17" font-family="Helvetica,sans-Serif" font-size="10.00">AQNWB::IO::HDF5::HDF5IO</text>
<text text-anchor="middle" x="254.62" y="-5.75" font-family="Helvetica,sans-Serif" font-size="10.00">::getStorageObjects</text>
</a>
</g>
</g>
<!-- Node1&#45;&gt;Node11 -->
<g id="edge10_Node000001_Node000011" class="edge">
<title>Node1&#45;&gt;Node11</title>
<g id="a_edge10_Node000001_Node000011"><a xlink:title=" ">
<path fill="none" stroke="#63b8ff" d="M409.01,-102.35C387.95,-84.86 357.17,-60.99 327.5,-44.25 318.83,-39.36 309.16,-34.87 299.81,-30.96"/>
<polygon fill="#63b8ff" stroke="#63b8ff" points="406.62,-104.92 416.52,-108.68 411.12,-99.56 406.62,-104.92"/>
</a>
</g>
</g>
<!-- Node3 -->
<g id="Node000003" class="node">
<title>Node3</title>
<g id="a_Node000003"><a xlink:href="class_a_q_n_w_b_1_1_i_o_1_1_h_d_f5_1_1_h_d_f5_i_o.html#a30318320f3bea68d7efec05cb5562ccd" target="_top" xlink:title="Creates a string attribute at a given location in the file.">
<polygon fill="white" stroke="#666666" points="145.75,-287.5 0,-287.5 0,-257 145.75,-257 145.75,-287.5"/>
<text text-anchor="start" x="8" y="-274" font-family="Helvetica,sans-Serif" font-size="10.00">AQNWB::IO::HDF5::HDF5IO</text>
<text text-anchor="middle" x="72.88" y="-262.75" font-family="Helvetica,sans-Serif" font-size="10.00">::createAttribute</text>
</a>
</g>
</g>
<!-- Node2&#45;&gt;Node3 -->
<g id="edge2_Node000002_Node000003" class="edge">
<title>Node2&#45;&gt;Node3</title>
<g id="a_edge2_Node000002_Node000003"><a xlink:title=" ">
<path fill="none" stroke="#63b8ff" d="M170.04,-259.41C162.03,-260.48 153.95,-261.56 146.06,-262.61"/>
<polygon fill="#63b8ff" stroke="#63b8ff" points="170.34,-262.9 179.79,-258.11 169.42,-255.96 170.34,-262.9"/>
</a>
</g>
</g>
<!-- Node4 -->
<g id="Node000004" class="node">
<title>Node4</title>
<g id="a_Node000004"><a xlink:href="class_a_q_n_w_b_1_1_i_o_1_1_h_d_f5_1_1_h_d_f5_i_o.html#a6dc62d49a1e15e8080d66fb7c10849ad" target="_top" xlink:title="Creates a string array attribute at a given location in the file.">
<polygon fill="white" stroke="#666666" points="145.75,-238.5 0,-238.5 0,-208 145.75,-208 145.75,-238.5"/>
<text text-anchor="start" x="8" y="-225" font-family="Helvetica,sans-Serif" font-size="10.00">AQNWB::IO::HDF5::HDF5IO</text>
<text text-anchor="middle" x="72.88" y="-213.75" font-family="Helvetica,sans-Serif" font-size="10.00">::createAttribute</text>
</a>
</g>
</g>
<!-- Node2&#45;&gt;Node4 -->
<g id="edge3_Node000002_Node000004" class="edge">
<title>Node2&#45;&gt;Node4</title>
<g id="a_edge3_Node000002_Node000004"><a xlink:title=" ">
<path fill="none" stroke="#63b8ff" d="M170.04,-236.62C162.03,-235.51 153.95,-234.39 146.06,-233.29"/>
<polygon fill="#63b8ff" stroke="#63b8ff" points="169.4,-240.07 179.79,-237.98 170.37,-233.14 169.4,-240.07"/>
</a>
</g>
</g>
<!-- Node8 -->
<g id="Node000008" class="node">
<title>Node8</title>
<g id="a_Node000008"><a xlink:href="class_a_q_n_w_b_1_1_i_o_1_1_h_d_f5_1_1_h_d_f5_i_o.html#a53bfbbdbf24afdd97ea45294b65c1e37" target="_top" xlink:title="Checks whether an Attribute exists at the location in the file.">
<polygon fill="white" stroke="#666666" points="145.75,-165.5 0,-165.5 0,-135 145.75,-135 145.75,-165.5"/>
<text text-anchor="start" x="8" y="-152" font-family="Helvetica,sans-Serif" font-size="10.00">AQNWB::IO::HDF5::HDF5IO</text>
<text text-anchor="middle" x="72.88" y="-140.75" font-family="Helvetica,sans-Serif" font-size="10.00">::attributeExists</text>
</a>
</g>
</g>
<!-- Node7&#45;&gt;Node8 -->
<g id="edge7_Node000007_Node000008" class="edge">
<title>Node7&#45;&gt;Node8</title>
<g id="a_edge7_Node000007_Node000008"><a xlink:title=" ">
<path fill="none" stroke="#63b8ff" d="M185.15,-119.92C167.5,-124.73 148.67,-129.86 131.62,-134.51"/>
<polygon fill="#63b8ff" stroke="#63b8ff" points="186.07,-123.29 194.8,-117.29 184.23,-116.54 186.07,-123.29"/>
</a>
</g>
</g>
<!-- Node7&#45;&gt;Node9 -->
<g id="edge8_Node000007_Node000009" class="edge">
<title>Node7&#45;&gt;Node9</title>
<g id="a_edge8_Node000007_Node000009"><a xlink:title=" ">
<path fill="none" stroke="#63b8ff" d="M185.15,-82.58C167.5,-77.77 148.67,-72.64 131.62,-67.99"/>
<polygon fill="#63b8ff" stroke="#63b8ff" points="184.23,-85.96 194.8,-85.21 186.07,-79.21 184.23,-85.96"/>
</a>
</g>
</g>
<!-- Node10 -->
<g id="Node000010" class="node">
<title>Node10</title>
<g id="a_Node000010"><a xlink:href="class_a_q_n_w_b_1_1_i_o_1_1_h_d_f5_1_1_h_d_f5_i_o.html#a7535b7fcc607fe1f47703f21b25ae5de" target="_top" xlink:title="Reads a attribute and determines the data type.">
<polygon fill="white" stroke="#666666" points="145.75,-116.5 0,-116.5 0,-86 145.75,-86 145.75,-116.5"/>
<text text-anchor="start" x="8" y="-103" font-family="Helvetica,sans-Serif" font-size="10.00">AQNWB::IO::HDF5::HDF5IO</text>
<text text-anchor="middle" x="72.88" y="-91.75" font-family="Helvetica,sans-Serif" font-size="10.00">::readAttribute</text>
</a>
</g>
</g>
<!-- Node7&#45;&gt;Node10 -->
<g id="edge9_Node000007_Node000010" class="edge">
<title>Node7&#45;&gt;Node10</title>
<g id="a_edge9_Node000007_Node000010"><a xlink:title=" ">
<path fill="none" stroke="#63b8ff" d="M170.04,-101.25C162.03,-101.25 153.95,-101.25 146.06,-101.25"/>
<polygon fill="#63b8ff" stroke="#63b8ff" points="169.78,-104.75 179.78,-101.25 169.78,-97.75 169.78,-104.75"/>
</a>
</g>
</g>
</g>
</svg>

<g id="navigator" transform="translate(0 0)" fill="#404254">
  <rect fill="#f2f5e9" fill-opacity="0.5" stroke="#606060" stroke-width=".5" x="0" y="0" width="60" height="60"/>
  <use id="zoomplus" xlink:href="#zoomPlus" x="17" y="9" onmousedown="handleZoom(evt,'in')"/>
  <use id="zoomminus" xlink:href="#zoomMin" x="42" y="9" onmousedown="handleZoom(evt,'out')"/>
  <use id="reset" xlink:href="#resetDef" x="30" y="36" onmousedown="handleReset()"/>
   <use id="arrowup" xlink:href="#arrowUp" x="0" y="0" onmousedown="handlePan(0,-1)"/>
  <use id="arrowright" xlink:href="#arrowRight" x="0" y="0" onmousedown="handlePan(1,0)"/>
  <use id="arrowdown" xlink:href="#arrowDown" x="0" y="0" onmousedown="handlePan(0,1)"/>
  <use id="arrowleft" xlink:href="#arrowLeft" x="0" y="0" onmousedown="handlePan(-1,0)"/>
</g>
<svg viewBox="0 0 15 15" width="100%" height="30px" preserveAspectRatio="xMaxYMin meet">
 <g id="arrow_out" transform="scale(0.3 0.3)">
  <a xlink:href="class_a_q_n_w_b_1_1_i_o_1_1_h_d_f5_1_1_h_d_f5_i_o_ab665700f5c67a74022c82353ec3d73ef_icgraph_org.svg" target="_base">
   <rect id="button" ry="5" rx="5" y="6" x="6" height="38" width="38"
        fill="#f2f5e9" fill-opacity="0.5" stroke="#606060" stroke-width="1.0"/>
   <path id="arrow"
     d="M 11.500037,31.436501 C 11.940474,20.09759 22.043105,11.32322 32.158766,21.979434 L 37.068811,17.246167 C 37.068811,17.246167 37.088388,32 37.088388,32 L 22.160133,31.978069 C 22.160133,31.978069 26.997745,27.140456 26.997745,27.140456 C 18.528582,18.264221 13.291696,25.230495 11.500037,31.436501 z"
     style="fill:#404040;"/>
  </a>
 </g>
</svg>

<style type='text/css'>
<![CDATA[
[data-mouse-over-selected='false'] { opacity: 0.7; }
[data-mouse-over-selected='true']  { opacity: 1.0; }
]]>
</style>
<script type="application/ecmascript"><![CDATA[
document.addEventListener('DOMContentLoaded', (event) => {
  highlightEdges();
  highlightAdjacentNodes();
});
]]></script>
</svg>
