<?xml version="1.0" encoding="UTF-8" standalone="no"?>
<!DOCTYPE svg PUBLIC "-//W3C//DTD SVG 1.1//EN"
 "http://www.w3.org/Graphics/SVG/1.1/DTD/svg11.dtd">
<!-- Generated by graphviz version 14.1.2 (20260124.0452)
 -->
<!-- Title: AQNWB::NWB::NWBDataInterface::NWBDataInterface Pages: 1 -->
<svg width="737pt" height="57pt"
 viewBox="0.00 0.00 737.00 57.00" xmlns="http://www.w3.org/2000/svg" xmlns:xlink="http://www.w3.org/1999/xlink">
<g id="graph0" class="graph" transform="scale(1 1) rotate(0) translate(4 52.5)">
<title>AQNWB::NWB::NWBDataInterface::NWBDataInterface</title>
<!-- Node1 -->
<g id="Node000001" class="node">
<title>Node1</title>
<g id="a_Node000001"><a xlink:title="Constructor.">
<polygon fill="#999999" stroke="#666666" points="173.5,-30.5 0,-30.5 0,0 173.5,0 173.5,-30.5"/>
<text xml:space="preserve" text-anchor="start" x="8" y="-17" font-family="Helvetica,sans-Serif" font-size="10.00">AQNWB::NWB::NWBDataInterface</text>
<text xml:space="preserve" text-anchor="middle" x="86.75" y="-5.75" font-family="Helvetica,sans-Serif" font-size="10.00">::NWBDataInterface</text>
</a>
</g>
</g>
<!-- Node1&#45;&gt;Node1 -->
<g id="edge6_Node000001_Node000001" class="edge">
<title>Node1&#45;&gt;Node1</title>
<g id="a_edge6_Node000001_Node000001"><a xlink:title=" ">
<path fill="none" stroke="#63b8ff" d="M51.15,-30.99C43.89,-40.06 55.76,-48.5 86.75,-48.5 103.7,-48.5 114.93,-45.97 120.44,-42.2"/>
<polygon fill="#63b8ff" stroke="#63b8ff" points="123.86,-42.92 122.09,-32.48 116.96,-41.75 123.86,-42.92"/>
</a>
</g>
</g>
<!-- Node2 -->
<g id="Node000002" class="node">
<title>Node2</title>
<g id="a_Node000002"><a xlink:href="class_a_q_n_w_b_1_1_n_w_b_1_1_n_w_b_container.html#aadbde40c8c04d80d7b65a26e77f4cc20" target="_top" xlink:title="Constructor.">
<polygon fill="white" stroke="#666666" points="365.75,-30.5 209.5,-30.5 209.5,0 365.75,0 365.75,-30.5"/>
<text xml:space="preserve" text-anchor="start" x="217.5" y="-17" font-family="Helvetica,sans-Serif" font-size="10.00">AQNWB::NWB::NWBContainer</text>
<text xml:space="preserve" text-anchor="middle" x="287.62" y="-5.75" font-family="Helvetica,sans-Serif" font-size="10.00">::NWBContainer</text>
</a>
</g>
</g>
<!-- Node1&#45;&gt;Node2 -->
<g id="edge1_Node000001_Node000002" class="edge">
<title>Node1&#45;&gt;Node2</title>
<g id="a_edge1_Node000001_Node000002"><a xlink:title=" ">
<path fill="none" stroke="#63b8ff" d="M173.82,-15.25C181.81,-15.25 189.92,-15.25 197.94,-15.25"/>
<polygon fill="#63b8ff" stroke="#63b8ff" points="197.67,-18.75 207.67,-15.25 197.67,-11.75 197.67,-18.75"/>
</a>
</g>
</g>
<!-- Node2&#45;&gt;Node2 -->
<g id="edge5_Node000002_Node000002" class="edge">
<title>Node2&#45;&gt;Node2</title>
<g id="a_edge5_Node000002_Node000002"><a xlink:title=" ">
<path fill="none" stroke="#63b8ff" d="M255.68,-30.99C249.17,-40.06 259.81,-48.5 287.62,-48.5 302.83,-48.5 312.91,-45.97 317.85,-42.2"/>
<polygon fill="#63b8ff" stroke="#63b8ff" points="321.29,-42.9 319.34,-32.48 314.37,-41.84 321.29,-42.9"/>
</a>
</g>
</g>
<!-- Node3 -->
<g id="Node000003" class="node">
<title>Node3</title>
<g id="a_Node000003"><a xlink:href="class_a_q_n_w_b_1_1_n_w_b_1_1_container.html#a0ec16ae5d28267ea37464ffe2c2c34e5" target="_top" xlink:title="Constructor.">
<polygon fill="white" stroke="#666666" points="534,-30.5 401.75,-30.5 401.75,0 534,0 534,-30.5"/>
<text xml:space="preserve" text-anchor="start" x="409.75" y="-17" font-family="Helvetica,sans-Serif" font-size="10.00">AQNWB::NWB::Container</text>
<text xml:space="preserve" text-anchor="middle" x="467.88" y="-5.75" font-family="Helvetica,sans-Serif" font-size="10.00">::Container</text>
</a>
</g>
</g>
<!-- Node2&#45;&gt;Node3 -->
<g id="edge2_Node000002_Node000003" class="edge">
<title>Node2&#45;&gt;Node3</title>
<g id="a_edge2_Node000002_Node000003"><a xlink:title=" ">
<path fill="none" stroke="#63b8ff" d="M366.03,-15.25C373.92,-15.25 381.94,-15.25 389.82,-15.25"/>
<polygon fill="#63b8ff" stroke="#63b8ff" points="389.74,-18.75 399.74,-15.25 389.74,-11.75 389.74,-18.75"/>
</a>
</g>
</g>
<!-- Node3&#45;&gt;Node3 -->
<g id="edge3_Node000003_Node000003" class="edge">
<title>Node3&#45;&gt;Node3</title>
<g id="a_edge3_Node000003_Node000003"><a xlink:title=" ">
<path fill="none" stroke="#63b8ff" d="M435.93,-30.99C429.42,-40.06 440.06,-48.5 467.88,-48.5 483.08,-48.5 493.16,-45.97 498.1,-42.2"/>
<polygon fill="#63b8ff" stroke="#63b8ff" points="501.54,-42.9 499.59,-32.48 494.62,-41.84 501.54,-42.9"/>
</a>
</g>
</g>
<!-- Node4 -->
<g id="Node000004" class="node">
<title>Node4</title>
<g id="a_Node000004"><a xlink:href="class_a_q_n_w_b_1_1_n_w_b_1_1_registered_type.html#aa1e04074725b7331d725bbda8156bc2d" target="_top" xlink:title="Constructor.">
<polygon fill="white" stroke="#666666" points="728.5,-30.5 570,-30.5 570,0 728.5,0 728.5,-30.5"/>
<text xml:space="preserve" text-anchor="start" x="578" y="-17" font-family="Helvetica,sans-Serif" font-size="10.00">AQNWB::NWB::RegisteredType</text>
<text xml:space="preserve" text-anchor="middle" x="649.25" y="-5.75" font-family="Helvetica,sans-Serif" font-size="10.00">::RegisteredType</text>
</a>
</g>
</g>
<!-- Node3&#45;&gt;Node4 -->
<g id="edge4_Node000003_Node000004" class="edge">
<title>Node3&#45;&gt;Node4</title>
<g id="a_edge4_Node000003_Node000004"><a xlink:title=" ">
<path fill="none" stroke="#63b8ff" d="M534.39,-15.25C542.22,-15.25 550.31,-15.25 558.39,-15.25"/>
<polygon fill="#63b8ff" stroke="#63b8ff" points="558.29,-18.75 568.29,-15.25 558.29,-11.75 558.29,-18.75"/>
</a>
</g>
</g>
</g>
</svg>
