<?xml version="1.0" encoding="UTF-8" standalone="no"?>
<!DOCTYPE svg PUBLIC "-//W3C//DTD SVG 1.1//EN"
 "http://www.w3.org/Graphics/SVG/1.1/DTD/svg11.dtd">
<!-- Generated by graphviz version 12.2.1 (20241206.2353)
 -->
<!-- Title: AQNWB::NWB::NWBFile::NWBFile Pages: 1 -->
<svg width="304pt" height="88pt"
 viewBox="0.00 0.00 304.00 87.50" xmlns="http://www.w3.org/2000/svg" xmlns:xlink="http://www.w3.org/1999/xlink">
<g id="graph0" class="graph" transform="scale(1 1) rotate(0) translate(4 83.5)">
<title>AQNWB::NWB::NWBFile::NWBFile</title>
<!-- Node1 -->
<g id="Node000001" class="node">
<title>Node1</title>
<g id="a_Node000001"><a xlink:title="Constructor for NWBFile class.">
<polygon fill="#999999" stroke="#666666" points="296,-54.5 166,-54.5 166,-24 296,-24 296,-54.5"/>
<text text-anchor="start" x="174" y="-41" font-family="Helvetica,sans-Serif" font-size="10.00">AQNWB::NWB::NWBFile</text>
<text text-anchor="middle" x="231" y="-29.75" font-family="Helvetica,sans-Serif" font-size="10.00">::NWBFile</text>
</a>
</g>
</g>
<!-- Node1&#45;&gt;Node1 -->
<g id="edge2_Node000001_Node000001" class="edge">
<title>Node1&#45;&gt;Node1</title>
<g id="a_edge2_Node000001_Node000001"><a xlink:title=" ">
<path fill="none" stroke="#63b8ff" d="M258.84,-66.2C254.29,-69.97 245.01,-72.5 231,-72.5 205.39,-72.5 195.58,-64.06 201.58,-54.99"/>
<polygon fill="#63b8ff" stroke="#63b8ff" points="262.28,-66.87 260.2,-56.48 255.35,-65.9 262.28,-66.87"/>
</a>
</g>
</g>
<!-- Node2 -->
<g id="Node000002" class="node">
<title>Node2</title>
<g id="a_Node000002"><a xlink:href="class_a_q_n_w_b_1_1_n_w_b_1_1_n_w_b_file.html#a4639155769006a79b189cdb7634bbaa5" target="_top" xlink:title="Deleted copy constructor to prevent construction&#45;copying.">
<polygon fill="white" stroke="#666666" points="130,-79.5 0,-79.5 0,-49 130,-49 130,-79.5"/>
<text text-anchor="start" x="8" y="-66" font-family="Helvetica,sans-Serif" font-size="10.00">AQNWB::NWB::NWBFile</text>
<text text-anchor="middle" x="65" y="-54.75" font-family="Helvetica,sans-Serif" font-size="10.00">::NWBFile</text>
</a>
</g>
</g>
<!-- Node1&#45;&gt;Node2 -->
<g id="edge1_Node000001_Node000002" class="edge">
<title>Node1&#45;&gt;Node2</title>
<g id="a_edge1_Node000001_Node000002"><a xlink:title=" ">
<path fill="none" stroke="#63b8ff" d="M154.41,-50.77C146.4,-51.99 138.3,-53.23 130.43,-54.43"/>
<polygon fill="#63b8ff" stroke="#63b8ff" points="154.8,-54.25 164.16,-49.29 153.74,-47.33 154.8,-54.25"/>
</a>
</g>
</g>
<!-- Node3 -->
<g id="Node000003" class="node">
<title>Node3</title>
<g id="a_Node000003"><a xlink:href="class_a_q_n_w_b_1_1_n_w_b_1_1_n_w_b_file.html#a941d5b775441fac6c787cd55a8276461" target="_top" xlink:title="Deleted copy assignment operator to prevent copying.">
<polygon fill="white" stroke="#666666" points="130,-30.5 0,-30.5 0,0 130,0 130,-30.5"/>
<text text-anchor="start" x="8" y="-17" font-family="Helvetica,sans-Serif" font-size="10.00">AQNWB::NWB::NWBFile</text>
<text text-anchor="middle" x="65" y="-5.75" font-family="Helvetica,sans-Serif" font-size="10.00">::operator=</text>
</a>
</g>
</g>
<!-- Node1&#45;&gt;Node3 -->
<g id="edge3_Node000001_Node000003" class="edge">
<title>Node1&#45;&gt;Node3</title>
<g id="a_edge3_Node000001_Node000003"><a xlink:title=" ">
<path fill="none" stroke="#63b8ff" d="M154.41,-28.19C146.4,-27.02 138.3,-25.83 130.43,-24.68"/>
<polygon fill="#63b8ff" stroke="#63b8ff" points="153.75,-31.63 164.16,-29.61 154.77,-24.7 153.75,-31.63"/>
</a>
</g>
</g>
</g>
</svg>
