<?xml version="1.0" encoding="UTF-8" standalone="no"?>
<!DOCTYPE svg PUBLIC "-//W3C//DTD SVG 1.1//EN"
 "http://www.w3.org/Graphics/SVG/1.1/DTD/svg11.dtd">
<!-- Generated by graphviz version 14.1.2 (20260124.0452)
 -->
<!-- Title: AQNWB::NWB::NWBContainer::NWBContainer Pages: 1 -->
<svg width="3097pt" height="479pt"
 viewBox="0.00 0.00 3097.00 479.00" xmlns="http://www.w3.org/2000/svg" xmlns:xlink="http://www.w3.org/1999/xlink">
<g id="graph0" class="graph" transform="scale(1 1) rotate(0) translate(4 474.5)">
<title>AQNWB::NWB::NWBContainer::NWBContainer</title>
<!-- Node1 -->
<g id="Node000001" class="node">
<title>Node1</title>
<g id="a_Node000001"><a xlink:title="Constructor.">
<polygon fill="#999999" stroke="#666666" points="3089,-232.5 2932.75,-232.5 2932.75,-202 3089,-202 3089,-232.5"/>
<text xml:space="preserve" text-anchor="start" x="2940.75" y="-219" font-family="Helvetica,sans-Serif" font-size="10.00">AQNWB::NWB::NWBContainer</text>
<text xml:space="preserve" text-anchor="middle" x="3010.88" y="-207.75" font-family="Helvetica,sans-Serif" font-size="10.00">::NWBContainer</text>
</a>
</g>
</g>
<!-- Node1&#45;&gt;Node1 -->
<g id="edge12_Node000001_Node000001" class="edge">
<title>Node1&#45;&gt;Node1</title>
<g id="a_edge12_Node000001_Node000001"><a xlink:title=" ">
<path fill="none" stroke="#63b8ff" d="M3044.56,-244.2C3039.05,-247.97 3027.83,-250.5 3010.88,-250.5 2979.88,-250.5 2968.02,-242.06 2975.28,-232.99"/>
<polygon fill="#63b8ff" stroke="#63b8ff" points="3047.99,-244.92 3046.22,-234.48 3041.09,-243.75 3047.99,-244.92"/>
</a>
</g>
</g>
<!-- Node2 -->
<g id="Node000002" class="node">
<title>Node2</title>
<g id="a_Node000002"><a xlink:href="class_a_q_n_w_b_1_1_n_w_b_1_1_device.html#ae296afaa5f71f00f29a7e213297d0d27" target="_top" xlink:title=" ">
<polygon fill="white" stroke="#666666" points="2661,-445.5 2540,-445.5 2540,-415 2661,-415 2661,-445.5"/>
<text xml:space="preserve" text-anchor="start" x="2548" y="-432" font-family="Helvetica,sans-Serif" font-size="10.00">AQNWB::NWB::Device</text>
<text xml:space="preserve" text-anchor="middle" x="2600.5" y="-420.75" font-family="Helvetica,sans-Serif" font-size="10.00">::create</text>
</a>
</g>
</g>
<!-- Node1&#45;&gt;Node2 -->
<g id="edge1_Node000001_Node000002" class="edge">
<title>Node1&#45;&gt;Node2</title>
<g id="a_edge1_Node000001_Node000002"><a xlink:title=" ">
<path fill="none" stroke="#63b8ff" d="M2991.51,-241.58C2971.16,-266.75 2935.99,-305.26 2896.75,-326.25 2827.15,-363.49 2797.23,-336.72 2723.25,-364.25 2687.42,-377.58 2649.13,-399.81 2625.26,-414.75"/>
<polygon fill="#63b8ff" stroke="#63b8ff" points="2994.17,-243.85 2997.63,-233.84 2988.68,-239.52 2994.17,-243.85"/>
</a>
</g>
</g>
<!-- Node5 -->
<g id="Node000005" class="node">
<title>Node5</title>
<g id="a_Node000005"><a xlink:href="class_a_q_n_w_b_1_1_n_w_b_1_1_n_w_b_container.html#a0c82d89ad96ec1324f307ac9b5474731" target="_top" xlink:title=" ">
<polygon fill="white" stroke="#666666" points="2888.12,-403.5 2731.88,-403.5 2731.88,-373 2888.12,-373 2888.12,-403.5"/>
<text xml:space="preserve" text-anchor="start" x="2739.88" y="-390" font-family="Helvetica,sans-Serif" font-size="10.00">AQNWB::NWB::NWBContainer</text>
<text xml:space="preserve" text-anchor="middle" x="2810" y="-378.75" font-family="Helvetica,sans-Serif" font-size="10.00">::create</text>
</a>
</g>
</g>
<!-- Node1&#45;&gt;Node5 -->
<g id="edge4_Node000001_Node000005" class="edge">
<title>Node1&#45;&gt;Node5</title>
<g id="a_edge4_Node000001_Node000005"><a xlink:title=" ">
<path fill="none" stroke="#63b8ff" d="M2995.82,-242.75C2977.14,-274.4 2941.25,-328.01 2896.75,-359.25 2889.16,-364.58 2880.52,-368.99 2871.7,-372.63"/>
<polygon fill="#63b8ff" stroke="#63b8ff" points="2998.77,-244.64 3000.73,-234.23 2992.71,-241.15 2998.77,-244.64"/>
</a>
</g>
</g>
<!-- Node6 -->
<g id="Node000006" class="node">
<title>Node6</title>
<g id="a_Node000006"><a xlink:href="class_a_q_n_w_b_1_1_n_w_b_1_1_n_w_b_file.html#a84f0f21cd7bd9745b1eeb508b747fb4b" target="_top" xlink:title=" ">
<polygon fill="white" stroke="#666666" points="2665.5,-73.5 2535.5,-73.5 2535.5,-43 2665.5,-43 2665.5,-73.5"/>
<text xml:space="preserve" text-anchor="start" x="2543.5" y="-60" font-family="Helvetica,sans-Serif" font-size="10.00">AQNWB::NWB::NWBFile</text>
<text xml:space="preserve" text-anchor="middle" x="2600.5" y="-48.75" font-family="Helvetica,sans-Serif" font-size="10.00">::create</text>
</a>
</g>
</g>
<!-- Node1&#45;&gt;Node6 -->
<g id="edge5_Node000001_Node000006" class="edge">
<title>Node1&#45;&gt;Node6</title>
<g id="a_edge5_Node000001_Node000006"><a xlink:title=" ">
<path fill="none" stroke="#63b8ff" d="M2997.71,-191.73C2980.42,-158.71 2945.37,-102.42 2896.75,-77.25 2824.45,-39.82 2728.5,-41.46 2665.9,-48.13"/>
<polygon fill="#63b8ff" stroke="#63b8ff" points="2994.56,-193.27 3002.2,-200.61 3000.81,-190.11 2994.56,-193.27"/>
</a>
</g>
</g>
<!-- Node8 -->
<g id="Node000008" class="node">
<title>Node8</title>
<g id="a_Node000008"><a xlink:href="class_a_q_n_w_b_1_1_n_w_b_1_1_device.html#a2ad7fb2e8436a7accfce35978d962b74" target="_top" xlink:title="Constructor.">
<polygon fill="white" stroke="#666666" points="2870.5,-452.5 2749.5,-452.5 2749.5,-422 2870.5,-422 2870.5,-452.5"/>
<text xml:space="preserve" text-anchor="start" x="2757.5" y="-439" font-family="Helvetica,sans-Serif" font-size="10.00">AQNWB::NWB::Device</text>
<text xml:space="preserve" text-anchor="middle" x="2810" y="-427.75" font-family="Helvetica,sans-Serif" font-size="10.00">::Device</text>
</a>
</g>
</g>
<!-- Node1&#45;&gt;Node8 -->
<g id="edge7_Node000001_Node000008" class="edge">
<title>Node1&#45;&gt;Node8</title>
<g id="a_edge7_Node000001_Node000008"><a xlink:title=" ">
<path fill="none" stroke="#63b8ff" d="M3001.77,-243.56C2987.48,-285.56 2953.78,-367.58 2896.75,-412.25 2889.06,-418.27 2879.96,-422.85 2870.61,-426.32"/>
<polygon fill="#63b8ff" stroke="#63b8ff" points="3005.03,-244.87 3004.82,-234.28 2998.38,-242.68 3005.03,-244.87"/>
</a>
</g>
</g>
<!-- Node9 -->
<g id="Node000009" class="node">
<title>Node9</title>
<g id="a_Node000009"><a xlink:href="class_a_q_n_w_b_1_1_n_w_b_1_1_electrode_group.html#a7cfae9f37d17f90486921d0b6445a9cd" target="_top" xlink:title="Constructor.">
<polygon fill="white" stroke="#666666" points="2888.88,-232.5 2731.12,-232.5 2731.12,-202 2888.88,-202 2888.88,-232.5"/>
<text xml:space="preserve" text-anchor="start" x="2739.12" y="-219" font-family="Helvetica,sans-Serif" font-size="10.00">AQNWB::NWB::ElectrodeGroup</text>
<text xml:space="preserve" text-anchor="middle" x="2810" y="-207.75" font-family="Helvetica,sans-Serif" font-size="10.00">::ElectrodeGroup</text>
</a>
</g>
</g>
<!-- Node1&#45;&gt;Node9 -->
<g id="edge10_Node000001_Node000009" class="edge">
<title>Node1&#45;&gt;Node9</title>
<g id="a_edge10_Node000001_Node000009"><a xlink:title=" ">
<path fill="none" stroke="#63b8ff" d="M2921.01,-217.25C2910.41,-217.25 2899.66,-217.25 2889.23,-217.25"/>
<polygon fill="#63b8ff" stroke="#63b8ff" points="2920.9,-220.75 2930.9,-217.25 2920.9,-213.75 2920.9,-220.75"/>
</a>
</g>
</g>
<!-- Node10 -->
<g id="Node000010" class="node">
<title>Node10</title>
<g id="a_Node000010"><a xlink:href="class_a_q_n_w_b_1_1_n_w_b_1_1_n_w_b_data_interface.html#ae4bdb41408c2564c06438e0c5aed3531" target="_top" xlink:title="Constructor.">
<polygon fill="white" stroke="#666666" points="2896.75,-299.5 2723.25,-299.5 2723.25,-269 2896.75,-269 2896.75,-299.5"/>
<text xml:space="preserve" text-anchor="start" x="2731.25" y="-286" font-family="Helvetica,sans-Serif" font-size="10.00">AQNWB::NWB::NWBDataInterface</text>
<text xml:space="preserve" text-anchor="middle" x="2810" y="-274.75" font-family="Helvetica,sans-Serif" font-size="10.00">::NWBDataInterface</text>
</a>
</g>
</g>
<!-- Node1&#45;&gt;Node10 -->
<g id="edge13_Node000001_Node000010" class="edge">
<title>Node1&#45;&gt;Node10</title>
<g id="a_edge13_Node000001_Node000010"><a xlink:title=" ">
<path fill="none" stroke="#63b8ff" d="M2959.07,-237C2939.68,-244.3 2917.3,-252.45 2896.75,-259.25 2887.18,-262.42 2876.94,-265.59 2866.99,-268.56"/>
<polygon fill="#63b8ff" stroke="#63b8ff" points="2960.28,-240.28 2968.39,-233.46 2957.8,-233.73 2960.28,-240.28"/>
</a>
</g>
</g>
<!-- Node32 -->
<g id="Node000032" class="node">
<title>Node32</title>
<g id="a_Node000032"><a xlink:href="class_a_q_n_w_b_1_1_n_w_b_1_1_n_w_b_file.html#af62a01f10675b8fdd310f60f48cf23fe" target="_top" xlink:title="Required constructor so we can call RegisteredType::create but the path cannot be set.">
<polygon fill="white" stroke="#666666" points="2875,-116.5 2745,-116.5 2745,-86 2875,-86 2875,-116.5"/>
<text xml:space="preserve" text-anchor="start" x="2753" y="-103" font-family="Helvetica,sans-Serif" font-size="10.00">AQNWB::NWB::NWBFile</text>
<text xml:space="preserve" text-anchor="middle" x="2810" y="-91.75" font-family="Helvetica,sans-Serif" font-size="10.00">::NWBFile</text>
</a>
</g>
</g>
<!-- Node1&#45;&gt;Node32 -->
<g id="edge40_Node000001_Node000032" class="edge">
<title>Node1&#45;&gt;Node32</title>
<g id="a_edge40_Node000001_Node000032"><a xlink:title=" ">
<path fill="none" stroke="#63b8ff" d="M2986.62,-193.89C2965.03,-173.41 2931.13,-144.17 2896.75,-126.25 2890.01,-122.74 2882.71,-119.65 2875.31,-116.96"/>
<polygon fill="#63b8ff" stroke="#63b8ff" points="2984.1,-196.32 2993.72,-200.76 2988.97,-191.29 2984.1,-196.32"/>
</a>
</g>
</g>
<!-- Node33 -->
<g id="Node000033" class="node">
<title>Node33</title>
<g id="a_Node000033"><a xlink:href="class_a_q_n_w_b_1_1_n_w_b_1_1_n_w_b_file.html#a277f89c64204a61491bb26ad309186f3" target="_top" xlink:title="Constructor for NWBFile class.">
<polygon fill="white" stroke="#666666" points="2875,-165.5 2745,-165.5 2745,-135 2875,-135 2875,-165.5"/>
<text xml:space="preserve" text-anchor="start" x="2753" y="-152" font-family="Helvetica,sans-Serif" font-size="10.00">AQNWB::NWB::NWBFile</text>
<text xml:space="preserve" text-anchor="middle" x="2810" y="-140.75" font-family="Helvetica,sans-Serif" font-size="10.00">::NWBFile</text>
</a>
</g>
</g>
<!-- Node1&#45;&gt;Node33 -->
<g id="edge41_Node000001_Node000033" class="edge">
<title>Node1&#45;&gt;Node33</title>
<g id="a_edge41_Node000001_Node000033"><a xlink:title=" ">
<path fill="none" stroke="#63b8ff" d="M2952.47,-197.91C2922.39,-187.78 2886.01,-175.52 2857.68,-165.98"/>
<polygon fill="#63b8ff" stroke="#63b8ff" points="2951.22,-201.18 2961.81,-201.06 2953.45,-194.55 2951.22,-201.18"/>
</a>
</g>
</g>
<!-- Node36 -->
<g id="Node000036" class="node">
<title>Node36</title>
<g id="a_Node000036"><a xlink:href="class_a_q_n_w_b_1_1_n_w_b_1_1_n_w_b_container.html#a3da15cf481cf8fbcbaab3970014f8ca4" target="_top" xlink:title="Virtual destructor.">
<polygon fill="white" stroke="#666666" points="2888.12,-30.5 2731.88,-30.5 2731.88,0 2888.12,0 2888.12,-30.5"/>
<text xml:space="preserve" text-anchor="start" x="2739.88" y="-17" font-family="Helvetica,sans-Serif" font-size="10.00">AQNWB::NWB::NWBContainer</text>
<text xml:space="preserve" text-anchor="middle" x="2810" y="-5.75" font-family="Helvetica,sans-Serif" font-size="10.00">::~NWBContainer</text>
</a>
</g>
</g>
<!-- Node1&#45;&gt;Node36 -->
<g id="edge47_Node000001_Node000036" class="edge">
<title>Node1&#45;&gt;Node36</title>
<g id="a_edge47_Node000001_Node000036"><a xlink:title=" ">
<path fill="none" stroke="#63b8ff" d="M2999.57,-191.44C2983.26,-153.77 2948.01,-83.94 2896.75,-44.25 2889.79,-38.86 2881.77,-34.44 2873.49,-30.83"/>
<polygon fill="#63b8ff" stroke="#63b8ff" points="2996.15,-192.33 3003.25,-200.19 3002.6,-189.62 2996.15,-192.33"/>
</a>
</g>
</g>
<!-- Node3 -->
<g id="Node000003" class="node">
<title>Node3</title>
<g id="a_Node000003"><a xlink:href="class_a_q_n_w_b_1_1_n_w_b_1_1_n_w_b_file.html#a1dfa71717131843ff964e55ee37ceb23" target="_top" xlink:title="Create ElectrodesTable. Note, this function will fail if the file is in a mode where new objects cann...">
<polygon fill="white" stroke="#666666" points="2460.5,-421.5 2330.5,-421.5 2330.5,-391 2460.5,-391 2460.5,-421.5"/>
<text xml:space="preserve" text-anchor="start" x="2338.5" y="-408" font-family="Helvetica,sans-Serif" font-size="10.00">AQNWB::NWB::NWBFile</text>
<text xml:space="preserve" text-anchor="middle" x="2395.5" y="-396.75" font-family="Helvetica,sans-Serif" font-size="10.00">::createElectrodesTable</text>
</a>
</g>
</g>
<!-- Node2&#45;&gt;Node3 -->
<g id="edge2_Node000002_Node000003" class="edge">
<title>Node2&#45;&gt;Node3</title>
<g id="a_edge2_Node000002_Node000003"><a xlink:title=" ">
<path fill="none" stroke="#63b8ff" d="M2528.41,-421.85C2506.42,-419.25 2482.34,-416.4 2460.84,-413.86"/>
<polygon fill="#63b8ff" stroke="#63b8ff" points="2527.85,-425.3 2538.19,-423 2528.67,-418.35 2527.85,-425.3"/>
</a>
</g>
</g>
<!-- Node4 -->
<g id="Node000004" class="node">
<title>Node4</title>
<g id="a_Node000004"><a xlink:href="class_a_q_n_w_b_1_1_n_w_b_1_1_n_w_b_file.html#a0fa114190b0940cf54f44c626a69f550" target="_top" xlink:title="Create SpikeEventSeries objects to record data into. Created objects are automatically added to the I...">
<polygon fill="white" stroke="#666666" points="2460.5,-470.5 2330.5,-470.5 2330.5,-440 2460.5,-440 2460.5,-470.5"/>
<text xml:space="preserve" text-anchor="start" x="2338.5" y="-457" font-family="Helvetica,sans-Serif" font-size="10.00">AQNWB::NWB::NWBFile</text>
<text xml:space="preserve" text-anchor="middle" x="2395.5" y="-445.75" font-family="Helvetica,sans-Serif" font-size="10.00">::createSpikeEventSeries</text>
</a>
</g>
</g>
<!-- Node2&#45;&gt;Node4 -->
<g id="edge3_Node000002_Node000004" class="edge">
<title>Node2&#45;&gt;Node4</title>
<g id="a_edge3_Node000002_Node000004"><a xlink:title=" ">
<path fill="none" stroke="#63b8ff" d="M2528.41,-439.01C2506.42,-441.71 2482.34,-444.68 2460.84,-447.33"/>
<polygon fill="#63b8ff" stroke="#63b8ff" points="2528.69,-442.5 2538.19,-437.8 2527.84,-435.55 2528.69,-442.5"/>
</a>
</g>
</g>
<!-- Node7 -->
<g id="Node000007" class="node">
<title>Node7</title>
<g id="a_Node000007"><a xlink:href="class_a_q_n_w_b_1_1_n_w_b_1_1_n_w_b_file.html#a31a9458cf3b5ad8ef6e3346f995deb12" target="_top" xlink:title="Convenience factor method since the path is fixed to &#39;/&#39;.">
<polygon fill="white" stroke="#666666" points="2460.5,-104.5 2330.5,-104.5 2330.5,-74 2460.5,-74 2460.5,-104.5"/>
<text xml:space="preserve" text-anchor="start" x="2338.5" y="-91" font-family="Helvetica,sans-Serif" font-size="10.00">AQNWB::NWB::NWBFile</text>
<text xml:space="preserve" text-anchor="middle" x="2395.5" y="-79.75" font-family="Helvetica,sans-Serif" font-size="10.00">::create</text>
</a>
</g>
</g>
<!-- Node6&#45;&gt;Node7 -->
<g id="edge6_Node000006_Node000007" class="edge">
<title>Node6&#45;&gt;Node7</title>
<g id="a_edge6_Node000006_Node000007"><a xlink:title=" ">
<path fill="none" stroke="#63b8ff" d="M2523.9,-69.79C2503.1,-72.97 2480.75,-76.38 2460.66,-79.45"/>
<polygon fill="#63b8ff" stroke="#63b8ff" points="2524.42,-73.26 2533.77,-68.29 2523.36,-66.34 2524.42,-73.26"/>
</a>
</g>
</g>
<!-- Node8&#45;&gt;Node2 -->
<g id="edge8_Node000008_Node000002" class="edge">
<title>Node8&#45;&gt;Node2</title>
<g id="a_edge8_Node000008_Node000002"><a xlink:title=" ">
<path fill="none" stroke="#63b8ff" d="M2737.99,-434.85C2712.99,-434.01 2685.15,-433.07 2661.18,-432.26"/>
<polygon fill="#63b8ff" stroke="#63b8ff" points="2737.64,-438.34 2747.75,-435.18 2737.87,-431.35 2737.64,-438.34"/>
</a>
</g>
</g>
<!-- Node8&#45;&gt;Node8 -->
<g id="edge9_Node000008_Node000008" class="edge">
<title>Node8&#45;&gt;Node8</title>
<g id="a_edge9_Node000008_Node000008"><a xlink:title=" ">
<path fill="none" stroke="#63b8ff" d="M2843.69,-464.2C2838.18,-467.97 2826.95,-470.5 2810,-470.5 2779.01,-470.5 2767.14,-462.06 2774.4,-452.99"/>
<polygon fill="#63b8ff" stroke="#63b8ff" points="2847.11,-464.92 2845.34,-454.48 2840.21,-463.75 2847.11,-464.92"/>
</a>
</g>
</g>
<!-- Node9&#45;&gt;Node9 -->
<g id="edge11_Node000009_Node000009" class="edge">
<title>Node9&#45;&gt;Node9</title>
<g id="a_edge11_Node000009_Node000009"><a xlink:title=" ">
<path fill="none" stroke="#63b8ff" d="M2843.69,-244.2C2838.18,-247.97 2826.95,-250.5 2810,-250.5 2779.01,-250.5 2767.14,-242.06 2774.4,-232.99"/>
<polygon fill="#63b8ff" stroke="#63b8ff" points="2847.11,-244.92 2845.34,-234.48 2840.21,-243.75 2847.11,-244.92"/>
</a>
</g>
</g>
<!-- Node10&#45;&gt;Node10 -->
<g id="edge14_Node000010_Node000010" class="edge">
<title>Node10&#45;&gt;Node10</title>
<g id="a_edge14_Node000010_Node000010"><a xlink:title=" ">
<path fill="none" stroke="#63b8ff" d="M2843.69,-311.2C2838.18,-314.97 2826.95,-317.5 2810,-317.5 2779.01,-317.5 2767.14,-309.06 2774.4,-299.99"/>
<polygon fill="#63b8ff" stroke="#63b8ff" points="2847.11,-311.92 2845.34,-301.48 2840.21,-310.75 2847.11,-311.92"/>
</a>
</g>
</g>
<!-- Node11 -->
<g id="Node000011" class="node">
<title>Node11</title>
<g id="a_Node000011"><a xlink:href="class_a_q_n_w_b_1_1_n_w_b_1_1_time_series.html#a523738fd2da4b70707e4ee6844cdce02" target="_top" xlink:title="Constructor.">
<polygon fill="white" stroke="#666666" points="2670.38,-271.5 2530.62,-271.5 2530.62,-241 2670.38,-241 2670.38,-271.5"/>
<text xml:space="preserve" text-anchor="start" x="2538.62" y="-258" font-family="Helvetica,sans-Serif" font-size="10.00">AQNWB::NWB::TimeSeries</text>
<text xml:space="preserve" text-anchor="middle" x="2600.5" y="-246.75" font-family="Helvetica,sans-Serif" font-size="10.00">::TimeSeries</text>
</a>
</g>
</g>
<!-- Node10&#45;&gt;Node11 -->
<g id="edge15_Node000010_Node000011" class="edge">
<title>Node10&#45;&gt;Node11</title>
<g id="a_edge15_Node000010_Node000011"><a xlink:title=" ">
<path fill="none" stroke="#63b8ff" d="M2711.74,-271.13C2697.88,-269.26 2683.86,-267.36 2670.69,-265.59"/>
<polygon fill="#63b8ff" stroke="#63b8ff" points="2710.93,-274.55 2721.3,-272.42 2711.86,-267.61 2710.93,-274.55"/>
</a>
</g>
</g>
<!-- Node31 -->
<g id="Node000031" class="node">
<title>Node31</title>
<g id="a_Node000031"><a xlink:href="class_a_q_n_w_b_1_1_n_w_b_1_1_n_w_b_data_interface.html#a5ed099481e29aa261ff513bd27f8dc90" target="_top" xlink:title="Virtual destructor.">
<polygon fill="white" stroke="#666666" points="2687.25,-320.5 2513.75,-320.5 2513.75,-290 2687.25,-290 2687.25,-320.5"/>
<text xml:space="preserve" text-anchor="start" x="2521.75" y="-307" font-family="Helvetica,sans-Serif" font-size="10.00">AQNWB::NWB::NWBDataInterface</text>
<text xml:space="preserve" text-anchor="middle" x="2600.5" y="-295.75" font-family="Helvetica,sans-Serif" font-size="10.00">::~NWBDataInterface</text>
</a>
</g>
</g>
<!-- Node10&#45;&gt;Node31 -->
<g id="edge39_Node000010_Node000031" class="edge">
<title>Node10&#45;&gt;Node31</title>
<g id="a_edge39_Node000010_Node000031"><a xlink:title=" ">
<path fill="none" stroke="#63b8ff" d="M2711.5,-294.12C2703.46,-294.93 2695.37,-295.75 2687.43,-296.55"/>
<polygon fill="#63b8ff" stroke="#63b8ff" points="2711.7,-297.62 2721.3,-293.13 2711,-290.65 2711.7,-297.62"/>
</a>
</g>
</g>
<!-- Node12 -->
<g id="Node000012" class="node">
<title>Node12</title>
<g id="a_Node000012"><a xlink:href="class_a_q_n_w_b_1_1_n_w_b_1_1_annotation_series.html#ab98f231850a75a82fade2234e8606359" target="_top" xlink:title="Constructor.">
<polygon fill="white" stroke="#666666" points="2477.75,-162.5 2313.25,-162.5 2313.25,-132 2477.75,-132 2477.75,-162.5"/>
<text xml:space="preserve" text-anchor="start" x="2321.25" y="-149" font-family="Helvetica,sans-Serif" font-size="10.00">AQNWB::NWB::AnnotationSeries</text>
<text xml:space="preserve" text-anchor="middle" x="2395.5" y="-137.75" font-family="Helvetica,sans-Serif" font-size="10.00">::AnnotationSeries</text>
</a>
</g>
</g>
<!-- Node11&#45;&gt;Node12 -->
<g id="edge16_Node000011_Node000012" class="edge">
<title>Node11&#45;&gt;Node12</title>
<g id="a_edge16_Node000011_Node000012"><a xlink:title=" ">
<path fill="none" stroke="#63b8ff" d="M2556.31,-235.68C2542.55,-228.84 2527.37,-220.99 2513.75,-213.25 2497.24,-203.87 2494.15,-199.81 2477.75,-190.25 2461.48,-180.77 2442.95,-170.89 2427.69,-163"/>
<polygon fill="#63b8ff" stroke="#63b8ff" points="2554.63,-238.76 2565.15,-240.03 2557.72,-232.48 2554.63,-238.76"/>
</a>
</g>
</g>
<!-- Node13 -->
<g id="Node000013" class="node">
<title>Node13</title>
<g id="a_Node000013"><a xlink:href="class_a_q_n_w_b_1_1_n_w_b_1_1_electrical_series.html#a684a7b01cb955d7335f07d5eaab2250b" target="_top" xlink:title="Constructor.">
<polygon fill="white" stroke="#666666" points="2474.75,-327.5 2316.25,-327.5 2316.25,-297 2474.75,-297 2474.75,-327.5"/>
<text xml:space="preserve" text-anchor="start" x="2324.25" y="-314" font-family="Helvetica,sans-Serif" font-size="10.00">AQNWB::NWB::ElectricalSeries</text>
<text xml:space="preserve" text-anchor="middle" x="2395.5" y="-302.75" font-family="Helvetica,sans-Serif" font-size="10.00">::ElectricalSeries</text>
</a>
</g>
</g>
<!-- Node11&#45;&gt;Node13 -->
<g id="edge18_Node000011_Node000013" class="edge">
<title>Node11&#45;&gt;Node13</title>
<g id="a_edge18_Node000011_Node000013"><a xlink:title=" ">
<path fill="none" stroke="#63b8ff" d="M2531.41,-275.03C2506.12,-282.01 2477.71,-289.85 2453.51,-296.52"/>
<polygon fill="#63b8ff" stroke="#63b8ff" points="2532.24,-278.43 2540.95,-272.4 2530.38,-271.69 2532.24,-278.43"/>
</a>
</g>
</g>
<!-- Node15 -->
<g id="Node000015" class="node">
<title>Node15</title>
<g id="a_Node000015"><a xlink:href="class_a_q_n_w_b_1_1_n_w_b_1_1_time_series.html#a6b1836b8e50dca20add6f46936c1dab0" target="_top" xlink:title=" ">
<polygon fill="white" stroke="#666666" points="2465.38,-278.5 2325.62,-278.5 2325.62,-248 2465.38,-248 2465.38,-278.5"/>
<text xml:space="preserve" text-anchor="start" x="2333.62" y="-265" font-family="Helvetica,sans-Serif" font-size="10.00">AQNWB::NWB::TimeSeries</text>
<text xml:space="preserve" text-anchor="middle" x="2395.5" y="-253.75" font-family="Helvetica,sans-Serif" font-size="10.00">::readComments</text>
</a>
</g>
</g>
<!-- Node11&#45;&gt;Node15 -->
<g id="edge22_Node000011_Node000015" class="edge">
<title>Node11&#45;&gt;Node15</title>
<g id="a_edge22_Node000011_Node000015"><a xlink:title=" ">
<path fill="none" stroke="#63b8ff" d="M2518.83,-259.03C2501.29,-259.64 2482.88,-260.27 2465.83,-260.86"/>
<polygon fill="#63b8ff" stroke="#63b8ff" points="2518.82,-262.53 2528.69,-258.69 2518.58,-255.54 2518.82,-262.53"/>
</a>
</g>
</g>
<!-- Node17 -->
<g id="Node000017" class="node">
<title>Node17</title>
<g id="a_Node000017"><a xlink:href="class_a_q_n_w_b_1_1_n_w_b_1_1_time_series.html#a87984ba6f9d5f86a3ba8a8c30e760683" target="_top" xlink:title=" ">
<polygon fill="white" stroke="#666666" points="2465.38,-229.5 2325.62,-229.5 2325.62,-199 2465.38,-199 2465.38,-229.5"/>
<text xml:space="preserve" text-anchor="start" x="2333.62" y="-216" font-family="Helvetica,sans-Serif" font-size="10.00">AQNWB::NWB::TimeSeries</text>
<text xml:space="preserve" text-anchor="middle" x="2395.5" y="-204.75" font-family="Helvetica,sans-Serif" font-size="10.00">::readControlDescription</text>
</a>
</g>
</g>
<!-- Node11&#45;&gt;Node17 -->
<g id="edge24_Node000011_Node000017" class="edge">
<title>Node11&#45;&gt;Node17</title>
<g id="a_edge24_Node000011_Node000017"><a xlink:title=" ">
<path fill="none" stroke="#63b8ff" d="M2519.08,-239.61C2501.46,-235.97 2482.96,-232.14 2465.83,-228.59"/>
<polygon fill="#63b8ff" stroke="#63b8ff" points="2518.22,-243.01 2528.72,-241.61 2519.64,-236.15 2518.22,-243.01"/>
</a>
</g>
</g>
<!-- Node12&#45;&gt;Node12 -->
<g id="edge17_Node000012_Node000012" class="edge">
<title>Node12&#45;&gt;Node12</title>
<g id="a_edge17_Node000012_Node000012"><a xlink:title=" ">
<path fill="none" stroke="#63b8ff" d="M2429.44,-174.2C2423.89,-177.97 2412.58,-180.5 2395.5,-180.5 2364.27,-180.5 2352.32,-172.06 2359.64,-162.99"/>
<polygon fill="#63b8ff" stroke="#63b8ff" points="2432.87,-174.93 2431.11,-164.48 2425.97,-173.74 2432.87,-174.93"/>
</a>
</g>
</g>
<!-- Node13&#45;&gt;Node13 -->
<g id="edge19_Node000013_Node000013" class="edge">
<title>Node13&#45;&gt;Node13</title>
<g id="a_edge19_Node000013_Node000013"><a xlink:title=" ">
<path fill="none" stroke="#63b8ff" d="M2429.44,-339.2C2423.89,-342.97 2412.58,-345.5 2395.5,-345.5 2364.27,-345.5 2352.32,-337.06 2359.64,-327.99"/>
<polygon fill="#63b8ff" stroke="#63b8ff" points="2432.87,-339.93 2431.11,-329.48 2425.97,-338.74 2432.87,-339.93"/>
</a>
</g>
</g>
<!-- Node14 -->
<g id="Node000014" class="node">
<title>Node14</title>
<g id="a_Node000014"><a xlink:href="class_a_q_n_w_b_1_1_n_w_b_1_1_spike_event_series.html#af5b323ae3afbdf308f151cf233b2c0db" target="_top" xlink:title="Constructor.">
<polygon fill="white" stroke="#666666" points="2277.25,-327.5 2109,-327.5 2109,-297 2277.25,-297 2277.25,-327.5"/>
<text xml:space="preserve" text-anchor="start" x="2117" y="-314" font-family="Helvetica,sans-Serif" font-size="10.00">AQNWB::NWB::SpikeEventSeries</text>
<text xml:space="preserve" text-anchor="middle" x="2193.12" y="-302.75" font-family="Helvetica,sans-Serif" font-size="10.00">::SpikeEventSeries</text>
</a>
</g>
</g>
<!-- Node13&#45;&gt;Node14 -->
<g id="edge20_Node000013_Node000014" class="edge">
<title>Node13&#45;&gt;Node14</title>
<g id="a_edge20_Node000013_Node000014"><a xlink:title=" ">
<path fill="none" stroke="#63b8ff" d="M2304.55,-312.25C2295.54,-312.25 2286.41,-312.25 2277.47,-312.25"/>
<polygon fill="#63b8ff" stroke="#63b8ff" points="2304.37,-315.75 2314.37,-312.25 2304.37,-308.75 2304.37,-315.75"/>
</a>
</g>
</g>
<!-- Node14&#45;&gt;Node14 -->
<g id="edge21_Node000014_Node000014" class="edge">
<title>Node14&#45;&gt;Node14</title>
<g id="a_edge21_Node000014_Node000014"><a xlink:title=" ">
<path fill="none" stroke="#63b8ff" d="M2224.99,-339.2C2219.78,-342.97 2209.16,-345.5 2193.12,-345.5 2163.81,-345.5 2152.59,-337.06 2159.46,-327.99"/>
<polygon fill="#63b8ff" stroke="#63b8ff" points="2228.42,-339.91 2226.55,-329.48 2221.51,-338.8 2228.42,-339.91"/>
</a>
</g>
</g>
<!-- Node16 -->
<g id="Node000016" class="node">
<title>Node16</title>
<g id="a_Node000016"><a xlink:href="class_a_q_n_w_b_1_1_n_w_b_1_1_time_series.html#ae06186c303282828d9f764f8cc6559ec" target="_top" xlink:title=" ">
<polygon fill="white" stroke="#666666" points="2263,-278.5 2123.25,-278.5 2123.25,-248 2263,-248 2263,-278.5"/>
<text xml:space="preserve" text-anchor="start" x="2131.25" y="-265" font-family="Helvetica,sans-Serif" font-size="10.00">AQNWB::NWB::TimeSeries</text>
<text xml:space="preserve" text-anchor="middle" x="2193.12" y="-253.75" font-family="Helvetica,sans-Serif" font-size="10.00">::readDescription</text>
</a>
</g>
</g>
<!-- Node15&#45;&gt;Node16 -->
<g id="edge23_Node000015_Node000016" class="edge">
<title>Node15&#45;&gt;Node16</title>
<g id="a_edge23_Node000015_Node000016"><a xlink:title=" ">
<path fill="none" stroke="#63b8ff" d="M2313.83,-263.25C2297.11,-263.25 2279.63,-263.25 2263.37,-263.25"/>
<polygon fill="#63b8ff" stroke="#63b8ff" points="2313.75,-266.75 2323.75,-263.25 2313.75,-259.75 2313.75,-266.75"/>
</a>
</g>
</g>
<!-- Node18 -->
<g id="Node000018" class="node">
<title>Node18</title>
<g id="a_Node000018"><a xlink:href="class_a_q_n_w_b_1_1_n_w_b_1_1_time_series.html#af265a39e34b4fcf8b9db260775c6d73f" target="_top" xlink:title=" ">
<polygon fill="white" stroke="#666666" points="2263,-229.5 2123.25,-229.5 2123.25,-199 2263,-199 2263,-229.5"/>
<text xml:space="preserve" text-anchor="start" x="2131.25" y="-216" font-family="Helvetica,sans-Serif" font-size="10.00">AQNWB::NWB::TimeSeries</text>
<text xml:space="preserve" text-anchor="middle" x="2193.12" y="-204.75" font-family="Helvetica,sans-Serif" font-size="10.00">::readControl</text>
</a>
</g>
</g>
<!-- Node17&#45;&gt;Node18 -->
<g id="edge25_Node000017_Node000018" class="edge">
<title>Node17&#45;&gt;Node18</title>
<g id="a_edge25_Node000017_Node000018"><a xlink:title=" ">
<path fill="none" stroke="#63b8ff" d="M2313.83,-214.25C2297.11,-214.25 2279.63,-214.25 2263.37,-214.25"/>
<polygon fill="#63b8ff" stroke="#63b8ff" points="2313.75,-217.75 2323.75,-214.25 2313.75,-210.75 2313.75,-217.75"/>
</a>
</g>
</g>
<!-- Node19 -->
<g id="Node000019" class="node">
<title>Node19</title>
<g id="a_Node000019"><a xlink:href="class_a_q_n_w_b_1_1_n_w_b_1_1_time_series.html#a6e74b051a3ea578a41ee33191f1ccf37" target="_top" xlink:title=" ">
<polygon fill="white" stroke="#666666" points="2073,-229.5 1933.25,-229.5 1933.25,-199 2073,-199 2073,-229.5"/>
<text xml:space="preserve" text-anchor="start" x="1941.25" y="-216" font-family="Helvetica,sans-Serif" font-size="10.00">AQNWB::NWB::TimeSeries</text>
<text xml:space="preserve" text-anchor="middle" x="2003.12" y="-204.75" font-family="Helvetica,sans-Serif" font-size="10.00">::readTimestampsUnit</text>
</a>
</g>
</g>
<!-- Node18&#45;&gt;Node19 -->
<g id="edge26_Node000018_Node000019" class="edge">
<title>Node18&#45;&gt;Node19</title>
<g id="a_edge26_Node000018_Node000019"><a xlink:title=" ">
<path fill="none" stroke="#63b8ff" d="M2111.44,-214.25C2098.81,-214.25 2085.85,-214.25 2073.5,-214.25"/>
<polygon fill="#63b8ff" stroke="#63b8ff" points="2111.41,-217.75 2121.41,-214.25 2111.41,-210.75 2111.41,-217.75"/>
</a>
</g>
</g>
<!-- Node20 -->
<g id="Node000020" class="node">
<title>Node20</title>
<g id="a_Node000020"><a xlink:href="class_a_q_n_w_b_1_1_n_w_b_1_1_time_series.html#ab27f0f2b819123b27cf38ab0b6310fed" target="_top" xlink:title=" ">
<polygon fill="white" stroke="#666666" points="1897.25,-229.5 1757.5,-229.5 1757.5,-199 1897.25,-199 1897.25,-229.5"/>
<text xml:space="preserve" text-anchor="start" x="1765.5" y="-216" font-family="Helvetica,sans-Serif" font-size="10.00">AQNWB::NWB::TimeSeries</text>
<text xml:space="preserve" text-anchor="middle" x="1827.38" y="-204.75" font-family="Helvetica,sans-Serif" font-size="10.00">::readTimestampsInterval</text>
</a>
</g>
</g>
<!-- Node19&#45;&gt;Node20 -->
<g id="edge27_Node000019_Node000020" class="edge">
<title>Node19&#45;&gt;Node20</title>
<g id="a_edge27_Node000019_Node000020"><a xlink:title=" ">
<path fill="none" stroke="#63b8ff" d="M1921.66,-214.25C1913.62,-214.25 1905.5,-214.25 1897.59,-214.25"/>
<polygon fill="#63b8ff" stroke="#63b8ff" points="1921.44,-217.75 1931.44,-214.25 1921.44,-210.75 1921.44,-217.75"/>
</a>
</g>
</g>
<!-- Node21 -->
<g id="Node000021" class="node">
<title>Node21</title>
<g id="a_Node000021"><a xlink:href="class_a_q_n_w_b_1_1_n_w_b_1_1_time_series.html#ad6bc67f0ab42e8aeaeeef1b1b51c082d" target="_top" xlink:title=" ">
<polygon fill="white" stroke="#666666" points="1721.5,-229.5 1581.75,-229.5 1581.75,-199 1721.5,-199 1721.5,-229.5"/>
<text xml:space="preserve" text-anchor="start" x="1589.75" y="-216" font-family="Helvetica,sans-Serif" font-size="10.00">AQNWB::NWB::TimeSeries</text>
<text xml:space="preserve" text-anchor="middle" x="1651.62" y="-204.75" font-family="Helvetica,sans-Serif" font-size="10.00">::readTimestamps</text>
</a>
</g>
</g>
<!-- Node20&#45;&gt;Node21 -->
<g id="edge28_Node000020_Node000021" class="edge">
<title>Node20&#45;&gt;Node21</title>
<g id="a_edge28_Node000020_Node000021"><a xlink:title=" ">
<path fill="none" stroke="#63b8ff" d="M1745.91,-214.25C1737.87,-214.25 1729.75,-214.25 1721.84,-214.25"/>
<polygon fill="#63b8ff" stroke="#63b8ff" points="1745.69,-217.75 1755.69,-214.25 1745.69,-210.75 1745.69,-217.75"/>
</a>
</g>
</g>
<!-- Node22 -->
<g id="Node000022" class="node">
<title>Node22</title>
<g id="a_Node000022"><a xlink:href="class_a_q_n_w_b_1_1_n_w_b_1_1_time_series.html#a055a5a6a5b9bebbd3f517cdb59ebd65a" target="_top" xlink:title=" ">
<polygon fill="white" stroke="#666666" points="1545.75,-229.5 1406,-229.5 1406,-199 1545.75,-199 1545.75,-229.5"/>
<text xml:space="preserve" text-anchor="start" x="1414" y="-216" font-family="Helvetica,sans-Serif" font-size="10.00">AQNWB::NWB::TimeSeries</text>
<text xml:space="preserve" text-anchor="middle" x="1475.88" y="-204.75" font-family="Helvetica,sans-Serif" font-size="10.00">::readStartingTimeUnit</text>
</a>
</g>
</g>
<!-- Node21&#45;&gt;Node22 -->
<g id="edge29_Node000021_Node000022" class="edge">
<title>Node21&#45;&gt;Node22</title>
<g id="a_edge29_Node000021_Node000022"><a xlink:title=" ">
<path fill="none" stroke="#63b8ff" d="M1570.16,-214.25C1562.12,-214.25 1554,-214.25 1546.09,-214.25"/>
<polygon fill="#63b8ff" stroke="#63b8ff" points="1569.94,-217.75 1579.94,-214.25 1569.94,-210.75 1569.94,-217.75"/>
</a>
</g>
</g>
<!-- Node23 -->
<g id="Node000023" class="node">
<title>Node23</title>
<g id="a_Node000023"><a xlink:href="class_a_q_n_w_b_1_1_n_w_b_1_1_time_series.html#af32a022bd96207ee5eb2b26ac6ae8d2e" target="_top" xlink:title=" ">
<polygon fill="white" stroke="#666666" points="1370,-229.5 1230.25,-229.5 1230.25,-199 1370,-199 1370,-229.5"/>
<text xml:space="preserve" text-anchor="start" x="1238.25" y="-216" font-family="Helvetica,sans-Serif" font-size="10.00">AQNWB::NWB::TimeSeries</text>
<text xml:space="preserve" text-anchor="middle" x="1300.12" y="-204.75" font-family="Helvetica,sans-Serif" font-size="10.00">::readStartingTimeRate</text>
</a>
</g>
</g>
<!-- Node22&#45;&gt;Node23 -->
<g id="edge30_Node000022_Node000023" class="edge">
<title>Node22&#45;&gt;Node23</title>
<g id="a_edge30_Node000022_Node000023"><a xlink:title=" ">
<path fill="none" stroke="#63b8ff" d="M1394.41,-214.25C1386.37,-214.25 1378.25,-214.25 1370.34,-214.25"/>
<polygon fill="#63b8ff" stroke="#63b8ff" points="1394.19,-217.75 1404.19,-214.25 1394.19,-210.75 1394.19,-217.75"/>
</a>
</g>
</g>
<!-- Node24 -->
<g id="Node000024" class="node">
<title>Node24</title>
<g id="a_Node000024"><a xlink:href="class_a_q_n_w_b_1_1_n_w_b_1_1_time_series.html#a3a85691477ada29012a8cb1a2ab4fb5e" target="_top" xlink:title=" ">
<polygon fill="white" stroke="#666666" points="1194.25,-229.5 1054.5,-229.5 1054.5,-199 1194.25,-199 1194.25,-229.5"/>
<text xml:space="preserve" text-anchor="start" x="1062.5" y="-216" font-family="Helvetica,sans-Serif" font-size="10.00">AQNWB::NWB::TimeSeries</text>
<text xml:space="preserve" text-anchor="middle" x="1124.38" y="-204.75" font-family="Helvetica,sans-Serif" font-size="10.00">::readStartingTime</text>
</a>
</g>
</g>
<!-- Node23&#45;&gt;Node24 -->
<g id="edge31_Node000023_Node000024" class="edge">
<title>Node23&#45;&gt;Node24</title>
<g id="a_edge31_Node000023_Node000024"><a xlink:title=" ">
<path fill="none" stroke="#63b8ff" d="M1218.66,-214.25C1210.62,-214.25 1202.5,-214.25 1194.59,-214.25"/>
<polygon fill="#63b8ff" stroke="#63b8ff" points="1218.44,-217.75 1228.44,-214.25 1218.44,-210.75 1218.44,-217.75"/>
</a>
</g>
</g>
<!-- Node25 -->
<g id="Node000025" class="node">
<title>Node25</title>
<g id="a_Node000025"><a xlink:href="class_a_q_n_w_b_1_1_n_w_b_1_1_time_series.html#ade7280dcb98b4ce03104a3b9b7ee89d5" target="_top" xlink:title=" ">
<polygon fill="white" stroke="#666666" points="1018.5,-229.5 878.75,-229.5 878.75,-199 1018.5,-199 1018.5,-229.5"/>
<text xml:space="preserve" text-anchor="start" x="886.75" y="-216" font-family="Helvetica,sans-Serif" font-size="10.00">AQNWB::NWB::TimeSeries</text>
<text xml:space="preserve" text-anchor="middle" x="948.62" y="-204.75" font-family="Helvetica,sans-Serif" font-size="10.00">::readDataContinuity</text>
</a>
</g>
</g>
<!-- Node24&#45;&gt;Node25 -->
<g id="edge32_Node000024_Node000025" class="edge">
<title>Node24&#45;&gt;Node25</title>
<g id="a_edge32_Node000024_Node000025"><a xlink:title=" ">
<path fill="none" stroke="#63b8ff" d="M1042.91,-214.25C1034.87,-214.25 1026.75,-214.25 1018.84,-214.25"/>
<polygon fill="#63b8ff" stroke="#63b8ff" points="1042.69,-217.75 1052.69,-214.25 1042.69,-210.75 1042.69,-217.75"/>
</a>
</g>
</g>
<!-- Node26 -->
<g id="Node000026" class="node">
<title>Node26</title>
<g id="a_Node000026"><a xlink:href="class_a_q_n_w_b_1_1_n_w_b_1_1_time_series.html#aada7da514e40b99b1b7ff897c92f5b2d" target="_top" xlink:title=" ">
<polygon fill="white" stroke="#666666" points="842.75,-229.5 703,-229.5 703,-199 842.75,-199 842.75,-229.5"/>
<text xml:space="preserve" text-anchor="start" x="711" y="-216" font-family="Helvetica,sans-Serif" font-size="10.00">AQNWB::NWB::TimeSeries</text>
<text xml:space="preserve" text-anchor="middle" x="772.88" y="-204.75" font-family="Helvetica,sans-Serif" font-size="10.00">::readDataUnit</text>
</a>
</g>
</g>
<!-- Node25&#45;&gt;Node26 -->
<g id="edge33_Node000025_Node000026" class="edge">
<title>Node25&#45;&gt;Node26</title>
<g id="a_edge33_Node000025_Node000026"><a xlink:title=" ">
<path fill="none" stroke="#63b8ff" d="M867.16,-214.25C859.12,-214.25 851,-214.25 843.09,-214.25"/>
<polygon fill="#63b8ff" stroke="#63b8ff" points="866.94,-217.75 876.94,-214.25 866.94,-210.75 866.94,-217.75"/>
</a>
</g>
</g>
<!-- Node27 -->
<g id="Node000027" class="node">
<title>Node27</title>
<g id="a_Node000027"><a xlink:href="class_a_q_n_w_b_1_1_n_w_b_1_1_time_series.html#a05f88b4ef3d51fd24e79f8f61df60b5c" target="_top" xlink:title=" ">
<polygon fill="white" stroke="#666666" points="667,-229.5 527.25,-229.5 527.25,-199 667,-199 667,-229.5"/>
<text xml:space="preserve" text-anchor="start" x="535.25" y="-216" font-family="Helvetica,sans-Serif" font-size="10.00">AQNWB::NWB::TimeSeries</text>
<text xml:space="preserve" text-anchor="middle" x="597.12" y="-204.75" font-family="Helvetica,sans-Serif" font-size="10.00">::readDataResolution</text>
</a>
</g>
</g>
<!-- Node26&#45;&gt;Node27 -->
<g id="edge34_Node000026_Node000027" class="edge">
<title>Node26&#45;&gt;Node27</title>
<g id="a_edge34_Node000026_Node000027"><a xlink:title=" ">
<path fill="none" stroke="#63b8ff" d="M691.41,-214.25C683.37,-214.25 675.25,-214.25 667.34,-214.25"/>
<polygon fill="#63b8ff" stroke="#63b8ff" points="691.19,-217.75 701.19,-214.25 691.19,-210.75 691.19,-217.75"/>
</a>
</g>
</g>
<!-- Node28 -->
<g id="Node000028" class="node">
<title>Node28</title>
<g id="a_Node000028"><a xlink:href="class_a_q_n_w_b_1_1_n_w_b_1_1_time_series.html#a64808096931f82dbd378b2c21679ba03" target="_top" xlink:title=" ">
<polygon fill="white" stroke="#666666" points="491.25,-229.5 351.5,-229.5 351.5,-199 491.25,-199 491.25,-229.5"/>
<text xml:space="preserve" text-anchor="start" x="359.5" y="-216" font-family="Helvetica,sans-Serif" font-size="10.00">AQNWB::NWB::TimeSeries</text>
<text xml:space="preserve" text-anchor="middle" x="421.38" y="-204.75" font-family="Helvetica,sans-Serif" font-size="10.00">::readDataOffset</text>
</a>
</g>
</g>
<!-- Node27&#45;&gt;Node28 -->
<g id="edge35_Node000027_Node000028" class="edge">
<title>Node27&#45;&gt;Node28</title>
<g id="a_edge35_Node000027_Node000028"><a xlink:title=" ">
<path fill="none" stroke="#63b8ff" d="M515.66,-214.25C507.62,-214.25 499.5,-214.25 491.59,-214.25"/>
<polygon fill="#63b8ff" stroke="#63b8ff" points="515.44,-217.75 525.44,-214.25 515.44,-210.75 515.44,-217.75"/>
</a>
</g>
</g>
<!-- Node29 -->
<g id="Node000029" class="node">
<title>Node29</title>
<g id="a_Node000029"><a xlink:href="class_a_q_n_w_b_1_1_n_w_b_1_1_time_series.html#a32e11a8254db9fad8682fc8d8d118370" target="_top" xlink:title=" ">
<polygon fill="white" stroke="#666666" points="315.5,-229.5 175.75,-229.5 175.75,-199 315.5,-199 315.5,-229.5"/>
<text xml:space="preserve" text-anchor="start" x="183.75" y="-216" font-family="Helvetica,sans-Serif" font-size="10.00">AQNWB::NWB::TimeSeries</text>
<text xml:space="preserve" text-anchor="middle" x="245.62" y="-204.75" font-family="Helvetica,sans-Serif" font-size="10.00">::readDataConversion</text>
</a>
</g>
</g>
<!-- Node28&#45;&gt;Node29 -->
<g id="edge36_Node000028_Node000029" class="edge">
<title>Node28&#45;&gt;Node29</title>
<g id="a_edge36_Node000028_Node000029"><a xlink:title=" ">
<path fill="none" stroke="#63b8ff" d="M339.91,-214.25C331.87,-214.25 323.75,-214.25 315.84,-214.25"/>
<polygon fill="#63b8ff" stroke="#63b8ff" points="339.69,-217.75 349.69,-214.25 339.69,-210.75 339.69,-217.75"/>
</a>
</g>
</g>
<!-- Node30 -->
<g id="Node000030" class="node">
<title>Node30</title>
<g id="a_Node000030"><a xlink:href="class_a_q_n_w_b_1_1_n_w_b_1_1_time_series.html#a185cdbb22cb299862e950576a6c9ecab" target="_top" xlink:title=" ">
<polygon fill="white" stroke="#666666" points="139.75,-229.5 0,-229.5 0,-199 139.75,-199 139.75,-229.5"/>
<text xml:space="preserve" text-anchor="start" x="8" y="-216" font-family="Helvetica,sans-Serif" font-size="10.00">AQNWB::NWB::TimeSeries</text>
<text xml:space="preserve" text-anchor="middle" x="69.88" y="-204.75" font-family="Helvetica,sans-Serif" font-size="10.00">::readData</text>
</a>
</g>
</g>
<!-- Node29&#45;&gt;Node30 -->
<g id="edge37_Node000029_Node000030" class="edge">
<title>Node29&#45;&gt;Node30</title>
<g id="a_edge37_Node000029_Node000030"><a xlink:title=" ">
<path fill="none" stroke="#63b8ff" d="M164.16,-214.25C156.12,-214.25 148,-214.25 140.09,-214.25"/>
<polygon fill="#63b8ff" stroke="#63b8ff" points="163.94,-217.75 173.94,-214.25 163.94,-210.75 163.94,-217.75"/>
</a>
</g>
</g>
<!-- Node30&#45;&gt;Node30 -->
<g id="edge38_Node000030_Node000030" class="edge">
<title>Node30&#45;&gt;Node30</title>
<g id="a_edge38_Node000030_Node000030"><a xlink:title=" ">
<path fill="none" stroke="#63b8ff" d="M99.35,-241.2C94.53,-244.97 84.7,-247.5 69.88,-247.5 42.76,-247.5 32.38,-239.06 38.73,-229.99"/>
<polygon fill="#63b8ff" stroke="#63b8ff" points="102.78,-241.89 100.8,-231.48 95.86,-240.86 102.78,-241.89"/>
</a>
</g>
</g>
<!-- Node33&#45;&gt;Node6 -->
<g id="edge42_Node000033_Node000006" class="edge">
<title>Node33&#45;&gt;Node6</title>
<g id="a_edge42_Node000033_Node000006"><a xlink:title=" ">
<path fill="none" stroke="#63b8ff" d="M2734.4,-131.49C2730.52,-129.6 2726.78,-127.53 2723.25,-125.25 2702.59,-111.92 2707.91,-96.58 2687.25,-83.25 2680.6,-78.96 2673.2,-75.39 2665.61,-72.42"/>
<polygon fill="#63b8ff" stroke="#63b8ff" points="2732.94,-134.68 2743.5,-135.47 2735.74,-128.26 2732.94,-134.68"/>
</a>
</g>
</g>
<!-- Node33&#45;&gt;Node7 -->
<g id="edge43_Node000033_Node000007" class="edge">
<title>Node33&#45;&gt;Node7</title>
<g id="a_edge43_Node000033_Node000007"><a xlink:title=" ">
<path fill="none" stroke="#63b8ff" d="M2763.72,-170.06C2702.86,-193.45 2593.14,-224.01 2513.75,-180.25 2487.51,-165.79 2500.63,-142.6 2477.75,-123.25 2468.88,-115.75 2458.11,-109.7 2447.36,-104.91"/>
<polygon fill="#63b8ff" stroke="#63b8ff" points="2764.72,-173.43 2772.73,-166.5 2762.15,-166.92 2764.72,-173.43"/>
</a>
</g>
</g>
<!-- Node33&#45;&gt;Node33 -->
<g id="edge45_Node000033_Node000033" class="edge">
<title>Node33&#45;&gt;Node33</title>
<g id="a_edge45_Node000033_Node000033"><a xlink:title=" ">
<path fill="none" stroke="#63b8ff" d="M2843.69,-177.2C2838.18,-180.97 2826.95,-183.5 2810,-183.5 2779.01,-183.5 2767.14,-175.06 2774.4,-165.99"/>
<polygon fill="#63b8ff" stroke="#63b8ff" points="2847.11,-177.92 2845.34,-167.48 2840.21,-176.75 2847.11,-177.92"/>
</a>
</g>
</g>
<!-- Node34 -->
<g id="Node000034" class="node">
<title>Node34</title>
<g id="a_Node000034"><a xlink:href="class_a_q_n_w_b_1_1_n_w_b_1_1_n_w_b_file.html#a4639155769006a79b189cdb7634bbaa5" target="_top" xlink:title="Deleted copy constructor to prevent construction&#45;copying.">
<polygon fill="white" stroke="#666666" points="2665.5,-122.5 2535.5,-122.5 2535.5,-92 2665.5,-92 2665.5,-122.5"/>
<text xml:space="preserve" text-anchor="start" x="2543.5" y="-109" font-family="Helvetica,sans-Serif" font-size="10.00">AQNWB::NWB::NWBFile</text>
<text xml:space="preserve" text-anchor="middle" x="2600.5" y="-97.75" font-family="Helvetica,sans-Serif" font-size="10.00">::NWBFile</text>
</a>
</g>
</g>
<!-- Node33&#45;&gt;Node34 -->
<g id="edge44_Node000033_Node000034" class="edge">
<title>Node33&#45;&gt;Node34</title>
<g id="a_edge44_Node000033_Node000034"><a xlink:title=" ">
<path fill="none" stroke="#63b8ff" d="M2733.67,-134.64C2711.42,-130.03 2687.28,-125.03 2665.79,-120.57"/>
<polygon fill="#63b8ff" stroke="#63b8ff" points="2732.78,-138.03 2743.28,-136.63 2734.2,-131.18 2732.78,-138.03"/>
</a>
</g>
</g>
<!-- Node35 -->
<g id="Node000035" class="node">
<title>Node35</title>
<g id="a_Node000035"><a xlink:href="class_a_q_n_w_b_1_1_n_w_b_1_1_n_w_b_file.html#a941d5b775441fac6c787cd55a8276461" target="_top" xlink:title="Deleted copy assignment operator to prevent copying.">
<polygon fill="white" stroke="#666666" points="2665.5,-171.5 2535.5,-171.5 2535.5,-141 2665.5,-141 2665.5,-171.5"/>
<text xml:space="preserve" text-anchor="start" x="2543.5" y="-158" font-family="Helvetica,sans-Serif" font-size="10.00">AQNWB::NWB::NWBFile</text>
<text xml:space="preserve" text-anchor="middle" x="2600.5" y="-146.75" font-family="Helvetica,sans-Serif" font-size="10.00">::operator=</text>
</a>
</g>
</g>
<!-- Node33&#45;&gt;Node35 -->
<g id="edge46_Node000033_Node000035" class="edge">
<title>Node33&#45;&gt;Node35</title>
<g id="a_edge46_Node000033_Node000035"><a xlink:title=" ">
<path fill="none" stroke="#63b8ff" d="M2733.37,-152.44C2711.2,-153.08 2687.18,-153.77 2665.79,-154.39"/>
<polygon fill="#63b8ff" stroke="#63b8ff" points="2733.36,-155.94 2743.25,-152.15 2733.16,-148.94 2733.36,-155.94"/>
</a>
</g>
</g>
</g>
</svg>
