<?xml version="1.0" encoding="UTF-8" standalone="no"?>
<!DOCTYPE svg PUBLIC "-//W3C//DTD SVG 1.1//EN"
 "http://www.w3.org/Graphics/SVG/1.1/DTD/svg11.dtd">
<!-- Generated by graphviz version 14.1.2 (20260124.0452)
 -->
<!-- Title: AQNWB::NWB::ProcessingModule::initialize Pages: 1 -->
<svg width="734pt" height="137pt"
 viewBox="0.00 0.00 734.00 137.00" xmlns="http://www.w3.org/2000/svg" xmlns:xlink="http://www.w3.org/1999/xlink">
<g id="graph0" class="graph" transform="scale(1 1) rotate(0) translate(4 132.5)">
<title>AQNWB::NWB::ProcessingModule::initialize</title>
<!-- Node1 -->
<g id="Node000001" class="node">
<title>Node1</title>
<g id="a_Node000001"><a xlink:title="Initialize the object.">
<polygon fill="#999999" stroke="#666666" points="170.5,-104.5 0,-104.5 0,-74 170.5,-74 170.5,-104.5"/>
<text xml:space="preserve" text-anchor="start" x="8" y="-91" font-family="Helvetica,sans-Serif" font-size="10.00">AQNWB::NWB::ProcessingModule</text>
<text xml:space="preserve" text-anchor="middle" x="85.25" y="-79.75" font-family="Helvetica,sans-Serif" font-size="10.00">::initialize</text>
</a>
</g>
</g>
<!-- Node2 -->
<g id="Node000002" class="node">
<title>Node2</title>
<g id="a_Node000002"><a xlink:href="class_a_q_n_w_b_1_1_n_w_b_1_1_registered_type.html#ab614b1609f536e88ed1f32762dc3894b" target="_top" xlink:title="Get a shared pointer to the IO object.">
<polygon fill="white" stroke="#666666" points="725.5,-128.5 567,-128.5 567,-98 725.5,-98 725.5,-128.5"/>
<text xml:space="preserve" text-anchor="start" x="575" y="-115" font-family="Helvetica,sans-Serif" font-size="10.00">AQNWB::NWB::RegisteredType</text>
<text xml:space="preserve" text-anchor="middle" x="646.25" y="-103.75" font-family="Helvetica,sans-Serif" font-size="10.00">::getIO</text>
</a>
</g>
</g>
<!-- Node1&#45;&gt;Node2 -->
<g id="edge1_Node000001_Node000002" class="edge">
<title>Node1&#45;&gt;Node2</title>
<g id="a_edge1_Node000001_Node000002"><a xlink:title=" ">
<path fill="none" stroke="#63b8ff" d="M170.85,-92.88C274.51,-97.33 449.38,-104.84 555.39,-109.39"/>
<polygon fill="#63b8ff" stroke="#63b8ff" points="555.04,-112.88 565.18,-109.81 555.34,-105.89 555.04,-112.88"/>
</a>
</g>
</g>
<!-- Node3 -->
<g id="Node000003" class="node">
<title>Node3</title>
<g id="a_Node000003"><a xlink:href="class_a_q_n_w_b_1_1_n_w_b_1_1_n_w_b_container.html#a80beeda4c4761fe414407e4cc0d4fe8c" target="_top" xlink:title="Initialize the object.">
<polygon fill="white" stroke="#666666" points="362.75,-83.5 206.5,-83.5 206.5,-53 362.75,-53 362.75,-83.5"/>
<text xml:space="preserve" text-anchor="start" x="214.5" y="-70" font-family="Helvetica,sans-Serif" font-size="10.00">AQNWB::NWB::NWBContainer</text>
<text xml:space="preserve" text-anchor="middle" x="284.62" y="-58.75" font-family="Helvetica,sans-Serif" font-size="10.00">::initialize</text>
</a>
</g>
</g>
<!-- Node1&#45;&gt;Node3 -->
<g id="edge2_Node000001_Node000003" class="edge">
<title>Node1&#45;&gt;Node3</title>
<g id="a_edge2_Node000001_Node000003"><a xlink:title=" ">
<path fill="none" stroke="#63b8ff" d="M170.81,-80.25C178.78,-79.41 186.87,-78.54 194.87,-77.69"/>
<polygon fill="#63b8ff" stroke="#63b8ff" points="195.03,-81.2 204.6,-76.66 194.28,-74.24 195.03,-81.2"/>
</a>
</g>
</g>
<!-- Node4 -->
<g id="Node000004" class="node">
<title>Node4</title>
<g id="a_Node000004"><a xlink:href="class_a_q_n_w_b_1_1_n_w_b_1_1_container.html#a420424e52795b5212d7dcb728396af6a" target="_top" xlink:title="Initialize the container.">
<polygon fill="white" stroke="#666666" points="531,-82.5 398.75,-82.5 398.75,-52 531,-52 531,-82.5"/>
<text xml:space="preserve" text-anchor="start" x="406.75" y="-69" font-family="Helvetica,sans-Serif" font-size="10.00">AQNWB::NWB::Container</text>
<text xml:space="preserve" text-anchor="middle" x="464.88" y="-57.75" font-family="Helvetica,sans-Serif" font-size="10.00">::initialize</text>
</a>
</g>
</g>
<!-- Node3&#45;&gt;Node4 -->
<g id="edge3_Node000003_Node000004" class="edge">
<title>Node3&#45;&gt;Node4</title>
<g id="a_edge3_Node000003_Node000004"><a xlink:title=" ">
<path fill="none" stroke="#63b8ff" d="M363.03,-67.82C370.92,-67.77 378.94,-67.73 386.82,-67.68"/>
<polygon fill="#63b8ff" stroke="#63b8ff" points="386.76,-71.18 396.74,-67.63 386.72,-64.18 386.76,-71.18"/>
</a>
</g>
</g>
<!-- Node4&#45;&gt;Node2 -->
<g id="edge4_Node000004_Node000002" class="edge">
<title>Node4&#45;&gt;Node2</title>
<g id="a_edge4_Node000004_Node000002"><a xlink:title=" ">
<path fill="none" stroke="#63b8ff" d="M527.1,-82.95C541.89,-86.74 557.82,-90.83 573.05,-94.73"/>
<polygon fill="#63b8ff" stroke="#63b8ff" points="571.97,-98.07 582.53,-97.16 573.71,-91.29 571.97,-98.07"/>
</a>
</g>
</g>
<!-- Node5 -->
<g id="Node000005" class="node">
<title>Node5</title>
<g id="a_Node000005"><a xlink:href="class_a_q_n_w_b_1_1_n_w_b_1_1_container.html#a1a8f53595eb2637e32e816a3ff99a230" target="_top" xlink:title="Get the schema namespace of the class type.">
<polygon fill="white" stroke="#666666" points="712.38,-79.5 580.12,-79.5 580.12,-49 712.38,-49 712.38,-79.5"/>
<text xml:space="preserve" text-anchor="start" x="588.12" y="-66" font-family="Helvetica,sans-Serif" font-size="10.00">AQNWB::NWB::Container</text>
<text xml:space="preserve" text-anchor="middle" x="646.25" y="-54.75" font-family="Helvetica,sans-Serif" font-size="10.00">::getNamespace</text>
</a>
</g>
</g>
<!-- Node4&#45;&gt;Node5 -->
<g id="edge5_Node000004_Node000005" class="edge">
<title>Node4&#45;&gt;Node5</title>
<g id="a_edge5_Node000004_Node000005"><a xlink:title=" ">
<path fill="none" stroke="#63b8ff" d="M531.39,-66.15C543.5,-65.95 556.24,-65.74 568.64,-65.53"/>
<polygon fill="#63b8ff" stroke="#63b8ff" points="568.45,-69.03 578.39,-65.37 568.34,-62.04 568.45,-69.03"/>
</a>
</g>
</g>
<!-- Node6 -->
<g id="Node000006" class="node">
<title>Node6</title>
<g id="a_Node000006"><a xlink:href="class_a_q_n_w_b_1_1_n_w_b_1_1_container.html#a21e3abbea48e9455731f2859c7954c97" target="_top" xlink:title="Get the name of the class type.">
<polygon fill="white" stroke="#666666" points="712.38,-30.5 580.12,-30.5 580.12,0 712.38,0 712.38,-30.5"/>
<text xml:space="preserve" text-anchor="start" x="588.12" y="-17" font-family="Helvetica,sans-Serif" font-size="10.00">AQNWB::NWB::Container</text>
<text xml:space="preserve" text-anchor="middle" x="646.25" y="-5.75" font-family="Helvetica,sans-Serif" font-size="10.00">::getTypeName</text>
</a>
</g>
</g>
<!-- Node4&#45;&gt;Node6 -->
<g id="edge6_Node000004_Node000006" class="edge">
<title>Node4&#45;&gt;Node6</title>
<g id="a_edge6_Node000004_Node000006"><a xlink:title=" ">
<path fill="none" stroke="#63b8ff" d="M520.18,-51.51C539.06,-46.03 560.43,-39.84 580.09,-34.14"/>
<polygon fill="#63b8ff" stroke="#63b8ff" points="581.05,-37.51 589.68,-31.36 579.1,-30.78 581.05,-37.51"/>
</a>
</g>
</g>
</g>
</svg>
