<?xml version="1.0" encoding="UTF-8" standalone="no"?>
<!DOCTYPE svg PUBLIC "-//W3C//DTD SVG 1.1//EN"
 "http://www.w3.org/Graphics/SVG/1.1/DTD/svg11.dtd">
<!-- Generated by graphviz version 14.1.0 (20251206.1807)
 -->
<!-- Title: AQNWB::NWB::Data::recordData Pages: 1 -->
<svg width="568pt" height="45pt"
 viewBox="0.00 0.00 568.00 45.00" xmlns="http://www.w3.org/2000/svg" xmlns:xlink="http://www.w3.org/1999/xlink">
<g id="graph0" class="graph" transform="scale(1 1) rotate(0) translate(4 41.25)">
<title>AQNWB::NWB::Data::recordData</title>
<!-- Node1 -->
<g id="Node000001" class="node">
<title>Node1</title>
<g id="a_Node000001"><a xlink:title=" ">
<polygon fill="#999999" stroke="#666666" points="560.25,-19.25 395,-19.25 395,0 560.25,0 560.25,-19.25"/>
<text xml:space="preserve" text-anchor="middle" x="477.62" y="-5.75" font-family="Helvetica,sans-Serif" font-size="10.00">AQNWB::NWB::Data::recordData</text>
</a>
</g>
</g>
<!-- Node2 -->
<g id="Node000002" class="node">
<title>Node2</title>
<g id="a_Node000002"><a xlink:href="class_a_q_n_w_b_1_1_n_w_b_1_1_data.html#a7dad9d54ec248dda4cc9a168659382bf" target="_top" xlink:title=" ">
<polygon fill="white" stroke="#666666" points="359,-19.25 202,-19.25 202,0 359,0 359,-19.25"/>
<text xml:space="preserve" text-anchor="middle" x="280.5" y="-5.75" font-family="Helvetica,sans-Serif" font-size="10.00">AQNWB::NWB::Data::readData</text>
</a>
</g>
</g>
<!-- Node1&#45;&gt;Node2 -->
<g id="edge1_Node000001_Node000002" class="edge">
<title>Node1&#45;&gt;Node2</title>
<g id="a_edge1_Node000001_Node000002"><a xlink:title=" ">
<path fill="none" stroke="#63b8ff" d="M383.43,-9.62C375.4,-9.62 367.34,-9.62 359.45,-9.62"/>
<polygon fill="#63b8ff" stroke="#63b8ff" points="383.21,-13.13 393.21,-9.63 383.21,-6.13 383.21,-13.13"/>
</a>
</g>
</g>
<!-- Node2&#45;&gt;Node2 -->
<g id="edge3_Node000002_Node000002" class="edge">
<title>Node2&#45;&gt;Node2</title>
<g id="a_edge3_Node000002_Node000002"><a xlink:title=" ">
<path fill="none" stroke="#63b8ff" d="M316.17,-29.98C312.42,-34.21 300.53,-37.25 280.5,-37.25 245.85,-37.25 235.56,-28.15 249.64,-19.54"/>
<polygon fill="#63b8ff" stroke="#63b8ff" points="319.36,-28.53 311.99,-20.91 313,-31.46 319.36,-28.53"/>
</a>
</g>
</g>
<!-- Node3 -->
<g id="Node000003" class="node">
<title>Node3</title>
<g id="a_Node000003"><a xlink:href="class_a_q_n_w_b_1_1_n_w_b_1_1_data.html#a28976115b55b66fb89efb43a412a587e" target="_top" xlink:title="Check whether the dataset has been initialized.">
<polygon fill="white" stroke="#666666" points="166,-19.25 0,-19.25 0,0 166,0 166,-19.25"/>
<text xml:space="preserve" text-anchor="middle" x="83" y="-5.75" font-family="Helvetica,sans-Serif" font-size="10.00">AQNWB::NWB::Data::isInitialized</text>
</a>
</g>
</g>
<!-- Node2&#45;&gt;Node3 -->
<g id="edge2_Node000002_Node000003" class="edge">
<title>Node2&#45;&gt;Node3</title>
<g id="a_edge2_Node000002_Node000003"><a xlink:title=" ">
<path fill="none" stroke="#63b8ff" d="M190.42,-9.62C182.41,-9.62 174.32,-9.62 166.37,-9.62"/>
<polygon fill="#63b8ff" stroke="#63b8ff" points="190.16,-13.13 200.16,-9.63 190.16,-6.13 190.16,-13.13"/>
</a>
</g>
</g>
</g>
</svg>
