<?xml version="1.0" encoding="UTF-8" standalone="no"?>
<!DOCTYPE svg PUBLIC "-//W3C//DTD SVG 1.1//EN"
 "http://www.w3.org/Graphics/SVG/1.1/DTD/svg11.dtd">
<!-- Generated by graphviz version 14.1.2 (20260124.0452)
 -->
<!-- Title: AQNWB::IO::HDF5::HDF5IO::closeFileImpl Pages: 1 -->
<svg width="517pt" height="88pt"
 viewBox="0.00 0.00 517.00 88.00" xmlns="http://www.w3.org/2000/svg" xmlns:xlink="http://www.w3.org/1999/xlink">
<g id="graph0" class="graph" transform="scale(1 1) rotate(0) translate(4 83.5)">
<title>AQNWB::IO::HDF5::HDF5IO::closeFileImpl</title>
<!-- Node1 -->
<g id="Node000001" class="node">
<title>Node1</title>
<g id="a_Node000001"><a xlink:title="Non&#45;virtual helper that performs the actual HDF5 file close.">
<polygon fill="#999999" stroke="#666666" points="509.25,-54.5 363.5,-54.5 363.5,-24 509.25,-24 509.25,-54.5"/>
<text xml:space="preserve" text-anchor="start" x="371.5" y="-41" font-family="Helvetica,sans-Serif" font-size="10.00">AQNWB::IO::HDF5::HDF5IO</text>
<text xml:space="preserve" text-anchor="middle" x="436.38" y="-29.75" font-family="Helvetica,sans-Serif" font-size="10.00">::closeFileImpl</text>
</a>
</g>
</g>
<!-- Node2 -->
<g id="Node000002" class="node">
<title>Node2</title>
<g id="a_Node000002"><a xlink:href="class_a_q_n_w_b_1_1_i_o_1_1_h_d_f5_1_1_h_d_f5_i_o.html#a969eb3d7ab2d93c5a83b58f27773e16f" target="_top" xlink:title="Closes the file.">
<polygon fill="white" stroke="#666666" points="327.5,-79.5 181.75,-79.5 181.75,-49 327.5,-49 327.5,-79.5"/>
<text xml:space="preserve" text-anchor="start" x="189.75" y="-66" font-family="Helvetica,sans-Serif" font-size="10.00">AQNWB::IO::HDF5::HDF5IO</text>
<text xml:space="preserve" text-anchor="middle" x="254.62" y="-54.75" font-family="Helvetica,sans-Serif" font-size="10.00">::close</text>
</a>
</g>
</g>
<!-- Node1&#45;&gt;Node2 -->
<g id="edge1_Node000001_Node000002" class="edge">
<title>Node1&#45;&gt;Node2</title>
<g id="a_edge1_Node000001_Node000002"><a xlink:title=" ">
<path fill="none" stroke="#63b8ff" d="M351.79,-50.88C343.78,-51.99 335.7,-53.11 327.81,-54.21"/>
<polygon fill="#63b8ff" stroke="#63b8ff" points="352.12,-54.36 361.54,-49.52 351.15,-47.43 352.12,-54.36"/>
</a>
</g>
</g>
<!-- Node4 -->
<g id="Node000004" class="node">
<title>Node4</title>
<g id="a_Node000004"><a xlink:href="class_a_q_n_w_b_1_1_i_o_1_1_h_d_f5_1_1_h_d_f5_i_o.html#af492eb7675c4418ac4670e1c7fc9c9c2" target="_top" xlink:title="Destructor.">
<polygon fill="white" stroke="#666666" points="327.5,-30.5 181.75,-30.5 181.75,0 327.5,0 327.5,-30.5"/>
<text xml:space="preserve" text-anchor="start" x="189.75" y="-17" font-family="Helvetica,sans-Serif" font-size="10.00">AQNWB::IO::HDF5::HDF5IO</text>
<text xml:space="preserve" text-anchor="middle" x="254.62" y="-5.75" font-family="Helvetica,sans-Serif" font-size="10.00">::~HDF5IO</text>
</a>
</g>
</g>
<!-- Node1&#45;&gt;Node4 -->
<g id="edge3_Node000001_Node000004" class="edge">
<title>Node1&#45;&gt;Node4</title>
<g id="a_edge3_Node000001_Node000004"><a xlink:title=" ">
<path fill="none" stroke="#63b8ff" d="M351.79,-28.09C343.78,-27.02 335.7,-25.94 327.81,-24.89"/>
<polygon fill="#63b8ff" stroke="#63b8ff" points="351.17,-31.54 361.54,-29.39 352.09,-24.6 351.17,-31.54"/>
</a>
</g>
</g>
<!-- Node3 -->
<g id="Node000003" class="node">
<title>Node3</title>
<g id="a_Node000003"><a xlink:href="class_a_q_n_w_b_1_1_i_o_1_1_h_d_f5_1_1_h_d_f5_i_o.html#a0cfc2191ccfc122fa5098d4c4b4117b5" target="_top" xlink:title="Stops the recording process.">
<polygon fill="white" stroke="#666666" points="145.75,-79.5 0,-79.5 0,-49 145.75,-49 145.75,-79.5"/>
<text xml:space="preserve" text-anchor="start" x="8" y="-66" font-family="Helvetica,sans-Serif" font-size="10.00">AQNWB::IO::HDF5::HDF5IO</text>
<text xml:space="preserve" text-anchor="middle" x="72.88" y="-54.75" font-family="Helvetica,sans-Serif" font-size="10.00">::stopRecording</text>
</a>
</g>
</g>
<!-- Node2&#45;&gt;Node3 -->
<g id="edge2_Node000002_Node000003" class="edge">
<title>Node2&#45;&gt;Node3</title>
<g id="a_edge2_Node000002_Node000003"><a xlink:title=" ">
<path fill="none" stroke="#63b8ff" d="M170.04,-64.25C162.03,-64.25 153.95,-64.25 146.06,-64.25"/>
<polygon fill="#63b8ff" stroke="#63b8ff" points="169.78,-67.75 179.78,-64.25 169.78,-60.75 169.78,-67.75"/>
</a>
</g>
</g>
</g>
</svg>
