<?xml version="1.0" encoding="UTF-8" standalone="no"?>
<!DOCTYPE svg PUBLIC "-//W3C//DTD SVG 1.1//EN"
 "http://www.w3.org/Graphics/SVG/1.1/DTD/svg11.dtd">
<!-- Generated by graphviz version 14.1.2 (20260124.0452)
 -->
<!-- Title: AQNWB::NWB::NWBFile::readFileCreateDate Pages: 1 -->
<svg width="1591pt" height="272pt"
 viewBox="0.00 0.00 1591.00 272.00" xmlns="http://www.w3.org/2000/svg" xmlns:xlink="http://www.w3.org/1999/xlink">
<g id="graph0" class="graph" transform="scale(1 1) rotate(0) translate(4 267.5)">
<title>AQNWB::NWB::NWBFile::readFileCreateDate</title>
<!-- Node1 -->
<g id="Node000001" class="node">
<title>Node1</title>
<g id="a_Node000001"><a xlink:title=" ">
<polygon fill="#999999" stroke="#666666" points="130,-88.5 0,-88.5 0,-58 130,-58 130,-88.5"/>
<text xml:space="preserve" text-anchor="start" x="8" y="-75" font-family="Helvetica,sans-Serif" font-size="10.00">AQNWB::NWB::NWBFile</text>
<text xml:space="preserve" text-anchor="middle" x="65" y="-63.75" font-family="Helvetica,sans-Serif" font-size="10.00">::readFileCreateDate</text>
</a>
</g>
</g>
<!-- Node2 -->
<g id="Node000002" class="node">
<title>Node2</title>
<g id="a_Node000002"><a xlink:href="class_a_q_n_w_b_1_1_n_w_b_1_1_n_w_b_file.html#aa928ef570b33a28a2ba83b8edff18d79" target="_top" xlink:title=" ">
<polygon fill="white" stroke="#666666" points="296,-113.5 166,-113.5 166,-83 296,-83 296,-113.5"/>
<text xml:space="preserve" text-anchor="start" x="174" y="-100" font-family="Helvetica,sans-Serif" font-size="10.00">AQNWB::NWB::NWBFile</text>
<text xml:space="preserve" text-anchor="middle" x="231" y="-88.75" font-family="Helvetica,sans-Serif" font-size="10.00">::readIdentifier</text>
</a>
</g>
</g>
<!-- Node1&#45;&gt;Node2 -->
<g id="edge1_Node000001_Node000002" class="edge">
<title>Node1&#45;&gt;Node2</title>
<g id="a_edge1_Node000001_Node000002"><a xlink:title=" ">
<path fill="none" stroke="#63b8ff" d="M130.35,-83.06C138.21,-84.26 146.31,-85.49 154.33,-86.71"/>
<polygon fill="#63b8ff" stroke="#63b8ff" points="153.66,-90.15 164.07,-88.2 154.72,-83.23 153.66,-90.15"/>
</a>
</g>
</g>
<!-- Node19 -->
<g id="Node000019" class="node">
<title>Node19</title>
<g id="a_Node000019"><a xlink:href="class_a_q_n_w_b_1_1_n_w_b_1_1_n_w_b_file.html#a46e3752c784f7c70b8273db48c30ee87" target="_top" xlink:title=" ">
<polygon fill="white" stroke="#666666" points="296,-64.5 166,-64.5 166,-34 296,-34 296,-64.5"/>
<text xml:space="preserve" text-anchor="start" x="174" y="-51" font-family="Helvetica,sans-Serif" font-size="10.00">AQNWB::NWB::NWBFile</text>
<text xml:space="preserve" text-anchor="middle" x="231" y="-39.75" font-family="Helvetica,sans-Serif" font-size="10.00">::recordIdentifier</text>
</a>
</g>
</g>
<!-- Node1&#45;&gt;Node19 -->
<g id="edge20_Node000001_Node000019" class="edge">
<title>Node1&#45;&gt;Node19</title>
<g id="a_edge20_Node000001_Node000019"><a xlink:title=" ">
<path fill="none" stroke="#63b8ff" d="M130.35,-63.83C138.21,-62.68 146.31,-61.5 154.33,-60.32"/>
<polygon fill="#63b8ff" stroke="#63b8ff" points="154.68,-63.81 164.07,-58.9 153.67,-56.88 154.68,-63.81"/>
</a>
</g>
</g>
<!-- Node3 -->
<g id="Node000003" class="node">
<title>Node3</title>
<g id="a_Node000003"><a xlink:href="class_a_q_n_w_b_1_1_n_w_b_1_1_n_w_b_file.html#a3cebcab2c5ed464414d3c566e08a5b7f" target="_top" xlink:title=" ">
<polygon fill="white" stroke="#666666" points="463.88,-137.5 333.88,-137.5 333.88,-107 463.88,-107 463.88,-137.5"/>
<text xml:space="preserve" text-anchor="start" x="341.88" y="-124" font-family="Helvetica,sans-Serif" font-size="10.00">AQNWB::NWB::NWBFile</text>
<text xml:space="preserve" text-anchor="middle" x="398.88" y="-112.75" font-family="Helvetica,sans-Serif" font-size="10.00">::readSessionDescription</text>
</a>
</g>
</g>
<!-- Node2&#45;&gt;Node3 -->
<g id="edge2_Node000002_Node000003" class="edge">
<title>Node2&#45;&gt;Node3</title>
<g id="a_edge2_Node000002_Node000003"><a xlink:title=" ">
<path fill="none" stroke="#63b8ff" d="M296.13,-107.53C304.69,-108.77 313.53,-110.05 322.26,-111.31"/>
<polygon fill="#63b8ff" stroke="#63b8ff" points="321.74,-114.77 332.14,-112.74 322.75,-107.84 321.74,-114.77"/>
</a>
</g>
</g>
<!-- Node18 -->
<g id="Node000018" class="node">
<title>Node18</title>
<g id="a_Node000018"><a xlink:href="class_a_q_n_w_b_1_1_n_w_b_1_1_n_w_b_file.html#afd4eeee1907693a825844471fc9856d1" target="_top" xlink:title=" ">
<polygon fill="white" stroke="#666666" points="465.75,-88.5 332,-88.5 332,-58 465.75,-58 465.75,-88.5"/>
<text xml:space="preserve" text-anchor="start" x="340" y="-75" font-family="Helvetica,sans-Serif" font-size="10.00">AQNWB::NWB::NWBFile</text>
<text xml:space="preserve" text-anchor="middle" x="398.88" y="-63.75" font-family="Helvetica,sans-Serif" font-size="10.00">::recordSessionDescription</text>
</a>
</g>
</g>
<!-- Node2&#45;&gt;Node18 -->
<g id="edge19_Node000002_Node000018" class="edge">
<title>Node2&#45;&gt;Node18</title>
<g id="a_edge19_Node000002_Node000018"><a xlink:title=" ">
<path fill="none" stroke="#63b8ff" d="M296.13,-88.58C304.06,-87.39 312.24,-86.16 320.34,-84.94"/>
<polygon fill="#63b8ff" stroke="#63b8ff" points="320.86,-88.4 330.22,-83.45 319.81,-81.48 320.86,-88.4"/>
</a>
</g>
</g>
<!-- Node4 -->
<g id="Node000004" class="node">
<title>Node4</title>
<g id="a_Node000004"><a xlink:href="class_a_q_n_w_b_1_1_n_w_b_1_1_n_w_b_file.html#af515ce14c705e833c1ad96837cbe92d8" target="_top" xlink:title=" ">
<polygon fill="white" stroke="#666666" points="631.75,-161.5 501.75,-161.5 501.75,-131 631.75,-131 631.75,-161.5"/>
<text xml:space="preserve" text-anchor="start" x="509.75" y="-148" font-family="Helvetica,sans-Serif" font-size="10.00">AQNWB::NWB::NWBFile</text>
<text xml:space="preserve" text-anchor="middle" x="566.75" y="-136.75" font-family="Helvetica,sans-Serif" font-size="10.00">::readSessionStartTime</text>
</a>
</g>
</g>
<!-- Node3&#45;&gt;Node4 -->
<g id="edge3_Node000003_Node000004" class="edge">
<title>Node3&#45;&gt;Node4</title>
<g id="a_edge3_Node000003_Node000004"><a xlink:title=" ">
<path fill="none" stroke="#63b8ff" d="M464.01,-131.53C472.56,-132.77 481.4,-134.05 490.13,-135.31"/>
<polygon fill="#63b8ff" stroke="#63b8ff" points="489.62,-138.77 500.02,-136.74 490.62,-131.84 489.62,-138.77"/>
</a>
</g>
</g>
<!-- Node17 -->
<g id="Node000017" class="node">
<title>Node17</title>
<g id="a_Node000017"><a xlink:href="class_a_q_n_w_b_1_1_n_w_b_1_1_n_w_b_file.html#a7cc3c4393f4ac760033be12538af05cd" target="_top" xlink:title=" ">
<polygon fill="white" stroke="#666666" points="631.75,-112.5 501.75,-112.5 501.75,-82 631.75,-82 631.75,-112.5"/>
<text xml:space="preserve" text-anchor="start" x="509.75" y="-99" font-family="Helvetica,sans-Serif" font-size="10.00">AQNWB::NWB::NWBFile</text>
<text xml:space="preserve" text-anchor="middle" x="566.75" y="-87.75" font-family="Helvetica,sans-Serif" font-size="10.00">::recordSessionStartTime</text>
</a>
</g>
</g>
<!-- Node3&#45;&gt;Node17 -->
<g id="edge18_Node000003_Node000017" class="edge">
<title>Node3&#45;&gt;Node17</title>
<g id="a_edge18_Node000003_Node000017"><a xlink:title=" ">
<path fill="none" stroke="#63b8ff" d="M464.01,-112.58C472.56,-111.29 481.4,-109.96 490.13,-108.65"/>
<polygon fill="#63b8ff" stroke="#63b8ff" points="490.65,-112.11 500.02,-107.16 489.61,-105.19 490.65,-112.11"/>
</a>
</g>
</g>
<!-- Node5 -->
<g id="Node000005" class="node">
<title>Node5</title>
<g id="a_Node000005"><a xlink:href="class_a_q_n_w_b_1_1_n_w_b_1_1_n_w_b_file.html#a2a132886b5369537f717fdcc80bc9b49" target="_top" xlink:title=" ">
<polygon fill="white" stroke="#666666" points="833.38,-185.5 671.88,-185.5 671.88,-155 833.38,-155 833.38,-185.5"/>
<text xml:space="preserve" text-anchor="start" x="679.88" y="-172" font-family="Helvetica,sans-Serif" font-size="10.00">AQNWB::NWB::NWBFile</text>
<text xml:space="preserve" text-anchor="middle" x="752.62" y="-160.75" font-family="Helvetica,sans-Serif" font-size="10.00">::readTimestampsReferenceTime</text>
</a>
</g>
</g>
<!-- Node4&#45;&gt;Node5 -->
<g id="edge4_Node000004_Node000005" class="edge">
<title>Node4&#45;&gt;Node5</title>
<g id="a_edge4_Node000004_Node000005"><a xlink:title=" ">
<path fill="none" stroke="#63b8ff" d="M632.06,-154.64C641.22,-155.84 650.77,-157.09 660.32,-158.33"/>
<polygon fill="#63b8ff" stroke="#63b8ff" points="659.64,-161.77 670,-159.6 660.54,-154.83 659.64,-161.77"/>
</a>
</g>
</g>
<!-- Node16 -->
<g id="Node000016" class="node">
<title>Node16</title>
<g id="a_Node000016"><a xlink:href="class_a_q_n_w_b_1_1_n_w_b_1_1_n_w_b_file.html#a0eda3212e6af58625670efc0c6ae81a3" target="_top" xlink:title=" ">
<polygon fill="white" stroke="#666666" points="837.5,-136.5 667.75,-136.5 667.75,-106 837.5,-106 837.5,-136.5"/>
<text xml:space="preserve" text-anchor="start" x="675.75" y="-123" font-family="Helvetica,sans-Serif" font-size="10.00">AQNWB::NWB::NWBFile</text>
<text xml:space="preserve" text-anchor="middle" x="752.62" y="-111.75" font-family="Helvetica,sans-Serif" font-size="10.00">::recordTimestampsReferenceTime</text>
</a>
</g>
</g>
<!-- Node4&#45;&gt;Node16 -->
<g id="edge17_Node000004_Node000016" class="edge">
<title>Node4&#45;&gt;Node16</title>
<g id="a_edge17_Node000004_Node000016"><a xlink:title=" ">
<path fill="none" stroke="#63b8ff" d="M632.06,-137.51C639.89,-136.44 648.02,-135.34 656.18,-134.23"/>
<polygon fill="#63b8ff" stroke="#63b8ff" points="656.38,-137.73 665.81,-132.92 655.43,-130.8 656.38,-137.73"/>
</a>
</g>
</g>
<!-- Node6 -->
<g id="Node000006" class="node">
<title>Node6</title>
<g id="a_Node000006"><a xlink:href="class_a_q_n_w_b_1_1_n_w_b_1_1_n_w_b_file.html#a116bb371a6ef2fec0a442530ce4c5344" target="_top" xlink:title=" ">
<polygon fill="white" stroke="#666666" points="1003.5,-209.5 873.5,-209.5 873.5,-179 1003.5,-179 1003.5,-209.5"/>
<text xml:space="preserve" text-anchor="start" x="881.5" y="-196" font-family="Helvetica,sans-Serif" font-size="10.00">AQNWB::NWB::NWBFile</text>
<text xml:space="preserve" text-anchor="middle" x="938.5" y="-184.75" font-family="Helvetica,sans-Serif" font-size="10.00">::createAquisitionSeries</text>
</a>
</g>
</g>
<!-- Node5&#45;&gt;Node6 -->
<g id="edge5_Node000005_Node000006" class="edge">
<title>Node5&#45;&gt;Node6</title>
<g id="a_edge5_Node000005_Node000006"><a xlink:title=" ">
<path fill="none" stroke="#63b8ff" d="M833.74,-180.71C843.1,-181.93 852.62,-183.17 861.91,-184.38"/>
<polygon fill="#63b8ff" stroke="#63b8ff" points="861.24,-187.83 871.61,-185.65 862.15,-180.88 861.24,-187.83"/>
</a>
</g>
</g>
<!-- Node15 -->
<g id="Node000015" class="node">
<title>Node15</title>
<g id="a_Node000015"><a xlink:href="class_a_q_n_w_b_1_1_n_w_b_1_1_n_w_b_file.html#a4c5e30290b87e858aea55a327e835e77" target="_top" xlink:title=" ">
<polygon fill="white" stroke="#666666" points="1003.5,-160.5 873.5,-160.5 873.5,-130 1003.5,-130 1003.5,-160.5"/>
<text xml:space="preserve" text-anchor="start" x="881.5" y="-147" font-family="Helvetica,sans-Serif" font-size="10.00">AQNWB::NWB::NWBFile</text>
<text xml:space="preserve" text-anchor="middle" x="938.5" y="-135.75" font-family="Helvetica,sans-Serif" font-size="10.00">::readAquisitionSeries</text>
</a>
</g>
</g>
<!-- Node5&#45;&gt;Node15 -->
<g id="edge16_Node000005_Node000015" class="edge">
<title>Node5&#45;&gt;Node15</title>
<g id="a_edge16_Node000005_Node000015"><a xlink:title=" ">
<path fill="none" stroke="#63b8ff" d="M833.74,-159.36C843.1,-158.09 852.62,-156.79 861.91,-155.53"/>
<polygon fill="#63b8ff" stroke="#63b8ff" points="862.17,-159.02 871.61,-154.21 861.23,-152.09 862.17,-159.02"/>
</a>
</g>
</g>
<!-- Node7 -->
<g id="Node000007" class="node">
<title>Node7</title>
<g id="a_Node000007"><a xlink:href="class_a_q_n_w_b_1_1_n_w_b_1_1_n_w_b_file.html#aaf2e07b4e912fc34ab052d38f92e6cdd" target="_top" xlink:title="Saves the specification files for the schema.">
<polygon fill="white" stroke="#666666" points="1362.12,-263.5 1232.12,-263.5 1232.12,-233 1362.12,-233 1362.12,-263.5"/>
<text xml:space="preserve" text-anchor="start" x="1240.12" y="-250" font-family="Helvetica,sans-Serif" font-size="10.00">AQNWB::NWB::NWBFile</text>
<text xml:space="preserve" text-anchor="middle" x="1297.12" y="-238.75" font-family="Helvetica,sans-Serif" font-size="10.00">::cacheSpecifications</text>
</a>
</g>
</g>
<!-- Node6&#45;&gt;Node7 -->
<g id="edge6_Node000006_Node000007" class="edge">
<title>Node6&#45;&gt;Node7</title>
<g id="a_edge6_Node000006_Node000007"><a xlink:title=" ">
<path fill="none" stroke="#63b8ff" d="M1003.67,-203.97C1064.58,-213.19 1156.16,-227.06 1220.57,-236.81"/>
<polygon fill="#63b8ff" stroke="#63b8ff" points="1219.96,-240.26 1230.37,-238.29 1221.01,-233.34 1219.96,-240.26"/>
</a>
</g>
</g>
<!-- Node10 -->
<g id="Node000010" class="node">
<title>Node10</title>
<g id="a_Node000010"><a xlink:href="class_a_q_n_w_b_1_1_n_w_b_1_1_n_w_b_file.html#a71bd7b910a7ec89bdaf36304d67bfef1" target="_top" xlink:title="Creates the default file structure. Note, this function will fail if the file is in a mode where new ...">
<polygon fill="white" stroke="#666666" points="1169.5,-177.5 1039.5,-177.5 1039.5,-147 1169.5,-147 1169.5,-177.5"/>
<text xml:space="preserve" text-anchor="start" x="1047.5" y="-164" font-family="Helvetica,sans-Serif" font-size="10.00">AQNWB::NWB::NWBFile</text>
<text xml:space="preserve" text-anchor="middle" x="1104.5" y="-152.75" font-family="Helvetica,sans-Serif" font-size="10.00">::createFileStructure</text>
</a>
</g>
</g>
<!-- Node6&#45;&gt;Node10 -->
<g id="edge9_Node000006_Node000010" class="edge">
<title>Node6&#45;&gt;Node10</title>
<g id="a_edge9_Node000006_Node000010"><a xlink:title=" ">
<path fill="none" stroke="#63b8ff" d="M1003.85,-181.69C1011.71,-180.16 1019.81,-178.58 1027.83,-177.02"/>
<polygon fill="#63b8ff" stroke="#63b8ff" points="1028.44,-180.46 1037.58,-175.11 1027.1,-173.59 1028.44,-180.46"/>
</a>
</g>
</g>
<!-- Node8 -->
<g id="Node000008" class="node">
<title>Node8</title>
<g id="a_Node000008"><a xlink:href="class_a_q_n_w_b_1_1_n_w_b_1_1_registered_type.html#ab614b1609f536e88ed1f32762dc3894b" target="_top" xlink:title="Get a shared pointer to the IO object.">
<polygon fill="white" stroke="#666666" points="1583.25,-220.5 1424.75,-220.5 1424.75,-190 1583.25,-190 1583.25,-220.5"/>
<text xml:space="preserve" text-anchor="start" x="1432.75" y="-207" font-family="Helvetica,sans-Serif" font-size="10.00">AQNWB::NWB::RegisteredType</text>
<text xml:space="preserve" text-anchor="middle" x="1504" y="-195.75" font-family="Helvetica,sans-Serif" font-size="10.00">::getIO</text>
</a>
</g>
</g>
<!-- Node7&#45;&gt;Node8 -->
<g id="edge7_Node000007_Node000008" class="edge">
<title>Node7&#45;&gt;Node8</title>
<g id="a_edge7_Node000007_Node000008"><a xlink:title=" ">
<path fill="none" stroke="#63b8ff" d="M1362.39,-234.76C1379.68,-231.13 1398.68,-227.15 1416.96,-223.31"/>
<polygon fill="#63b8ff" stroke="#63b8ff" points="1417.67,-226.74 1426.74,-221.26 1416.24,-219.88 1417.67,-226.74"/>
</a>
</g>
</g>
<!-- Node9 -->
<g id="Node000009" class="node">
<title>Node9</title>
<g id="a_Node000009"><a xlink:href="namespace_a_q_n_w_b.html#a31983dbaaa85c2e355b9687fc0ef1881" target="_top" xlink:title="Merge two paths into a single path, handling extra trailing and starting &quot;/&quot;.">
<polygon fill="white" stroke="#666666" points="1560.38,-257.88 1447.62,-257.88 1447.62,-238.62 1560.38,-238.62 1560.38,-257.88"/>
<text xml:space="preserve" text-anchor="middle" x="1504" y="-244.38" font-family="Helvetica,sans-Serif" font-size="10.00">AQNWB::mergePaths</text>
</a>
</g>
</g>
<!-- Node7&#45;&gt;Node9 -->
<g id="edge8_Node000007_Node000009" class="edge">
<title>Node7&#45;&gt;Node9</title>
<g id="a_edge8_Node000007_Node000009"><a xlink:title=" ">
<path fill="none" stroke="#63b8ff" d="M1362.39,-248.25C1385.78,-248.25 1412.28,-248.25 1435.92,-248.25"/>
<polygon fill="#63b8ff" stroke="#63b8ff" points="1435.75,-251.75 1445.75,-248.25 1435.75,-244.75 1435.75,-251.75"/>
</a>
</g>
</g>
<!-- Node10&#45;&gt;Node7 -->
<g id="edge10_Node000010_Node000007" class="edge">
<title>Node10&#45;&gt;Node7</title>
<g id="a_edge10_Node000010_Node000007"><a xlink:title=" ">
<path fill="none" stroke="#63b8ff" d="M1129.42,-177.77C1149.23,-190.16 1178.42,-207.36 1205.5,-219.25 1213.37,-222.71 1221.78,-225.96 1230.2,-228.94"/>
<polygon fill="#63b8ff" stroke="#63b8ff" points="1228.78,-232.16 1239.38,-232.08 1231.05,-225.53 1228.78,-232.16"/>
</a>
</g>
</g>
<!-- Node10&#45;&gt;Node8 -->
<g id="edge12_Node000010_Node000008" class="edge">
<title>Node10&#45;&gt;Node8</title>
<g id="a_edge12_Node000010_Node000008"><a xlink:title=" ">
<path fill="none" stroke="#63b8ff" d="M1163.6,-177.97C1177.25,-181.17 1191.82,-184.19 1205.5,-186.25 1274.73,-196.69 1353.87,-201.4 1413.11,-203.52"/>
<polygon fill="#63b8ff" stroke="#63b8ff" points="1412.69,-207.01 1422.8,-203.85 1412.92,-200.02 1412.69,-207.01"/>
</a>
</g>
</g>
<!-- Node11 -->
<g id="Node000011" class="node">
<title>Node11</title>
<g id="a_Node000011"><a xlink:href="class_a_q_n_w_b_1_1_s_p_e_c_1_1_namespace_registry.html#aceded37c693bb2f6aa21a5945a13557c" target="_top" xlink:title="Get all registered namespaces.">
<polygon fill="white" stroke="#666666" points="1388.75,-177.5 1205.5,-177.5 1205.5,-147 1388.75,-147 1388.75,-177.5"/>
<text xml:space="preserve" text-anchor="start" x="1213.5" y="-164" font-family="Helvetica,sans-Serif" font-size="10.00">AQNWB::SPEC::NamespaceRegistry</text>
<text xml:space="preserve" text-anchor="middle" x="1297.12" y="-152.75" font-family="Helvetica,sans-Serif" font-size="10.00">::getAllNamespaces</text>
</a>
</g>
</g>
<!-- Node10&#45;&gt;Node11 -->
<g id="edge11_Node000010_Node000011" class="edge">
<title>Node10&#45;&gt;Node11</title>
<g id="a_edge11_Node000010_Node000011"><a xlink:title=" ">
<path fill="none" stroke="#63b8ff" d="M1169.77,-162.25C1177.49,-162.25 1185.5,-162.25 1193.59,-162.25"/>
<polygon fill="#63b8ff" stroke="#63b8ff" points="1193.53,-165.75 1203.53,-162.25 1193.53,-158.75 1193.53,-165.75"/>
</a>
</g>
</g>
<!-- Node12 -->
<g id="Node000012" class="node">
<title>Node12</title>
<g id="a_Node000012"><a xlink:href="class_a_q_n_w_b_1_1_n_w_b_1_1_n_w_b_file.html#a0b44558c283edd9db7d2fcf284c1a5ec" target="_top" xlink:title="Get the schema namespace of the class type.">
<polygon fill="white" stroke="#666666" points="1362.12,-128.5 1232.12,-128.5 1232.12,-98 1362.12,-98 1362.12,-128.5"/>
<text xml:space="preserve" text-anchor="start" x="1240.12" y="-115" font-family="Helvetica,sans-Serif" font-size="10.00">AQNWB::NWB::NWBFile</text>
<text xml:space="preserve" text-anchor="middle" x="1297.12" y="-103.75" font-family="Helvetica,sans-Serif" font-size="10.00">::getNamespace</text>
</a>
</g>
</g>
<!-- Node10&#45;&gt;Node12 -->
<g id="edge13_Node000010_Node000012" class="edge">
<title>Node10&#45;&gt;Node12</title>
<g id="a_edge13_Node000010_Node000012"><a xlink:title=" ">
<path fill="none" stroke="#63b8ff" d="M1166.6,-146.54C1184.9,-141.84 1205.14,-136.64 1224.07,-131.77"/>
<polygon fill="#63b8ff" stroke="#63b8ff" points="1224.76,-135.21 1233.58,-129.33 1223.02,-128.43 1224.76,-135.21"/>
</a>
</g>
</g>
<!-- Node13 -->
<g id="Node000013" class="node">
<title>Node13</title>
<g id="a_Node000013"><a xlink:href="class_a_q_n_w_b_1_1_n_w_b_1_1_n_w_b_file.html#ae22dafcb8cb963103fe0e2b4cbfd5dd8" target="_top" xlink:title="Get the name of the class type.">
<polygon fill="white" stroke="#666666" points="1362.12,-79.5 1232.12,-79.5 1232.12,-49 1362.12,-49 1362.12,-79.5"/>
<text xml:space="preserve" text-anchor="start" x="1240.12" y="-66" font-family="Helvetica,sans-Serif" font-size="10.00">AQNWB::NWB::NWBFile</text>
<text xml:space="preserve" text-anchor="middle" x="1297.12" y="-54.75" font-family="Helvetica,sans-Serif" font-size="10.00">::getTypeName</text>
</a>
</g>
</g>
<!-- Node10&#45;&gt;Node13 -->
<g id="edge14_Node000010_Node000013" class="edge">
<title>Node10&#45;&gt;Node13</title>
<g id="a_edge14_Node000010_Node000013"><a xlink:title=" ">
<path fill="none" stroke="#63b8ff" d="M1122.66,-146.68C1141.64,-130.23 1173.76,-104.58 1205.5,-89.25 1210.52,-86.83 1215.8,-84.61 1221.2,-82.58"/>
<polygon fill="#63b8ff" stroke="#63b8ff" points="1221.97,-86.02 1230.25,-79.41 1219.66,-79.41 1221.97,-86.02"/>
</a>
</g>
</g>
<!-- Node14 -->
<g id="Node000014" class="node">
<title>Node14</title>
<g id="a_Node000014"><a xlink:href="class_a_q_n_w_b_1_1_s_p_e_c_1_1_namespace_registry.html#a15d9c6f869f0270ad91a2af8067f5a88" target="_top" xlink:title="Get the singleton instance of the NamespaceRegistry.">
<polygon fill="white" stroke="#666666" points="1388.75,-30.5 1205.5,-30.5 1205.5,0 1388.75,0 1388.75,-30.5"/>
<text xml:space="preserve" text-anchor="start" x="1213.5" y="-17" font-family="Helvetica,sans-Serif" font-size="10.00">AQNWB::SPEC::NamespaceRegistry</text>
<text xml:space="preserve" text-anchor="middle" x="1297.12" y="-5.75" font-family="Helvetica,sans-Serif" font-size="10.00">::instance</text>
</a>
</g>
</g>
<!-- Node10&#45;&gt;Node14 -->
<g id="edge15_Node000010_Node000014" class="edge">
<title>Node10&#45;&gt;Node14</title>
<g id="a_edge15_Node000010_Node000014"><a xlink:title=" ">
<path fill="none" stroke="#63b8ff" d="M1114.02,-146.52C1129,-120.4 1162.57,-68.17 1205.5,-40.25 1208.04,-38.6 1210.69,-37.05 1213.42,-35.61"/>
<polygon fill="#63b8ff" stroke="#63b8ff" points="1214.68,-38.89 1222.23,-31.46 1211.69,-32.55 1214.68,-38.89"/>
</a>
</g>
</g>
</g>
</svg>
