<?xml version="1.0" encoding="UTF-8" standalone="no"?>
<!DOCTYPE svg PUBLIC "-//W3C//DTD SVG 1.1//EN"
 "http://www.w3.org/Graphics/SVG/1.1/DTD/svg11.dtd">
<!-- Generated by graphviz version 12.2.1 (20241206.2353)
 -->
<!-- Title: AQNWB::IO::HDF5::HDF5IO::getAttribute Pages: 1 -->
<svg width="336pt" height="186pt"
 viewBox="0.00 0.00 335.50 185.50" xmlns="http://www.w3.org/2000/svg" xmlns:xlink="http://www.w3.org/1999/xlink">
<g id="graph0" class="graph" transform="scale(1 1) rotate(0) translate(4 181.5)">
<title>AQNWB::IO::HDF5::HDF5IO::getAttribute</title>
<!-- Node1 -->
<g id="Node000001" class="node">
<title>Node1</title>
<g id="a_Node000001"><a xlink:title=" ">
<polygon fill="#999999" stroke="#666666" points="327.5,-103.5 181.75,-103.5 181.75,-73 327.5,-73 327.5,-103.5"/>
<text text-anchor="start" x="189.75" y="-90" font-family="Helvetica,sans-Serif" font-size="10.00">AQNWB::IO::HDF5::HDF5IO</text>
<text text-anchor="middle" x="254.62" y="-78.75" font-family="Helvetica,sans-Serif" font-size="10.00">::getAttribute</text>
</a>
</g>
</g>
<!-- Node2 -->
<g id="Node000002" class="node">
<title>Node2</title>
<g id="a_Node000002"><a xlink:href="class_a_q_n_w_b_1_1_i_o_1_1_h_d_f5_1_1_h_d_f5_i_o.html#a53bfbbdbf24afdd97ea45294b65c1e37" target="_top" xlink:title="Checks whether an Attribute exists at the location in the file.">
<polygon fill="white" stroke="#666666" points="145.75,-177.5 0,-177.5 0,-147 145.75,-147 145.75,-177.5"/>
<text text-anchor="start" x="8" y="-164" font-family="Helvetica,sans-Serif" font-size="10.00">AQNWB::IO::HDF5::HDF5IO</text>
<text text-anchor="middle" x="72.88" y="-152.75" font-family="Helvetica,sans-Serif" font-size="10.00">::attributeExists</text>
</a>
</g>
</g>
<!-- Node1&#45;&gt;Node2 -->
<g id="edge1_Node000001_Node000002" class="edge">
<title>Node1&#45;&gt;Node2</title>
<g id="a_edge1_Node000001_Node000002"><a xlink:title=" ">
<path fill="none" stroke="#63b8ff" d="M211.19,-108.61C191.48,-117.79 167.6,-128.51 145.75,-137.25 137.78,-140.44 129.22,-143.62 120.89,-146.59"/>
<polygon fill="#63b8ff" stroke="#63b8ff" points="212.45,-111.89 220.02,-104.47 209.48,-105.55 212.45,-111.89"/>
</a>
</g>
</g>
<!-- Node3 -->
<g id="Node000003" class="node">
<title>Node3</title>
<g id="a_Node000003"><a xlink:href="class_a_q_n_w_b_1_1_i_o_1_1_h_d_f5_1_1_h_d_f5_i_o.html#a5fb171a91ef8134baf224115f0dcf8bc" target="_top" xlink:title="Get the storage type (Group, Dataset, Attribute) of the object at path.">
<polygon fill="white" stroke="#666666" points="145.75,-128.5 0,-128.5 0,-98 145.75,-98 145.75,-128.5"/>
<text text-anchor="start" x="8" y="-115" font-family="Helvetica,sans-Serif" font-size="10.00">AQNWB::IO::HDF5::HDF5IO</text>
<text text-anchor="middle" x="72.88" y="-103.75" font-family="Helvetica,sans-Serif" font-size="10.00">::getStorageObjectType</text>
</a>
</g>
</g>
<!-- Node1&#45;&gt;Node3 -->
<g id="edge2_Node000001_Node000003" class="edge">
<title>Node1&#45;&gt;Node3</title>
<g id="a_edge2_Node000001_Node000003"><a xlink:title=" ">
<path fill="none" stroke="#63b8ff" d="M170.04,-99.88C162.03,-100.99 153.95,-102.11 146.06,-103.21"/>
<polygon fill="#63b8ff" stroke="#63b8ff" points="170.37,-103.36 179.79,-98.52 169.4,-96.43 170.37,-103.36"/>
</a>
</g>
</g>
<!-- Node4 -->
<g id="Node000004" class="node">
<title>Node4</title>
<g id="a_Node000004"><a xlink:href="class_a_q_n_w_b_1_1_i_o_1_1_h_d_f5_1_1_h_d_f5_i_o.html#a7535b7fcc607fe1f47703f21b25ae5de" target="_top" xlink:title="Reads a attribute and determines the data type.">
<polygon fill="white" stroke="#666666" points="145.75,-79.5 0,-79.5 0,-49 145.75,-49 145.75,-79.5"/>
<text text-anchor="start" x="8" y="-66" font-family="Helvetica,sans-Serif" font-size="10.00">AQNWB::IO::HDF5::HDF5IO</text>
<text text-anchor="middle" x="72.88" y="-54.75" font-family="Helvetica,sans-Serif" font-size="10.00">::readAttribute</text>
</a>
</g>
</g>
<!-- Node1&#45;&gt;Node4 -->
<g id="edge3_Node000001_Node000004" class="edge">
<title>Node1&#45;&gt;Node4</title>
<g id="a_edge3_Node000001_Node000004"><a xlink:title=" ">
<path fill="none" stroke="#63b8ff" d="M170.04,-77.09C162.03,-76.02 153.95,-74.94 146.06,-73.89"/>
<polygon fill="#63b8ff" stroke="#63b8ff" points="169.42,-80.54 179.79,-78.39 170.34,-73.6 169.42,-80.54"/>
</a>
</g>
</g>
<!-- Node5 -->
<g id="Node000005" class="node">
<title>Node5</title>
<g id="a_Node000005"><a xlink:href="class_a_q_n_w_b_1_1_i_o_1_1_h_d_f5_1_1_h_d_f5_i_o.html#a4074db2a2a9f186d1016c94329573421" target="_top" xlink:title="Reads a reference attribute and returns the path to the referenced object.">
<polygon fill="white" stroke="#666666" points="145.75,-30.5 0,-30.5 0,0 145.75,0 145.75,-30.5"/>
<text text-anchor="start" x="8" y="-17" font-family="Helvetica,sans-Serif" font-size="10.00">AQNWB::IO::HDF5::HDF5IO</text>
<text text-anchor="middle" x="72.88" y="-5.75" font-family="Helvetica,sans-Serif" font-size="10.00">::readReferenceAttribute</text>
</a>
</g>
</g>
<!-- Node1&#45;&gt;Node5 -->
<g id="edge4_Node000001_Node000005" class="edge">
<title>Node1&#45;&gt;Node5</title>
<g id="a_edge4_Node000001_Node000005"><a xlink:title=" ">
<path fill="none" stroke="#63b8ff" d="M210.01,-67.84C190.51,-58.98 167.14,-48.71 145.75,-40.25 137.76,-37.09 129.2,-33.92 120.87,-30.96"/>
<polygon fill="#63b8ff" stroke="#63b8ff" points="208.48,-70.99 219.03,-71.97 211.39,-64.63 208.48,-70.99"/>
</a>
</g>
</g>
</g>
</svg>
