<?xml version="1.0" encoding="UTF-8" standalone="no"?>
<!DOCTYPE svg PUBLIC "-//W3C//DTD SVG 1.1//EN"
 "http://www.w3.org/Graphics/SVG/1.1/DTD/svg11.dtd">
<!-- Generated by graphviz version 14.1.2 (20260124.0452)
 -->
<!-- Title: AQNWB::IO::HDF5::HDF5IO::createStringDataSet Pages: 1 -->
<!--zoomable 426 -->

<svg id="main" version="1.1" xmlns="http://www.w3.org/2000/svg" xmlns:xlink="http://www.w3.org/1999/xlink" xml:space="preserve" onload="init(evt)">

<style type="text/css"><![CDATA[
.node, .edge {opacity: 0.7;}
.node.selected, .edge.selected {opacity: 1;}
.edge:hover path { stroke: red; }
.edge:hover polygon { stroke: red; fill: red; }
]]></style>

<defs>
  <circle id="rim" cx="0" cy="0" r="7"/>
  <circle id="rim2" cx="0" cy="0" r="3.5"/>
  <g id="zoomPlus">
    <use xlink:href="#rim" fill="#404040"><set attributeName="fill" to="#808080" begin="zoomplus.mouseover" end="zoomplus.mouseout"/></use>
    <path d="M-4,0h8M0,-4v8" fill="none" stroke="white" stroke-width="1.5" pointer-events="none"/>
  </g>
  <g id="zoomMin">
    <use xlink:href="#rim" fill="#404040"><set attributeName="fill" to="#808080" begin="zoomminus.mouseover" end="zoomminus.mouseout"/></use>
    <path d="M-4,0h8" fill="none" stroke="white" stroke-width="1.5" pointer-events="none"/>
  </g>
  <g id="arrowUp" transform="translate(30 24)">
    <use xlink:href="#rim"/>
    <path pointer-events="none" fill="none" stroke="white" stroke-width="1.5" d="M0,-3.0v7 M-2.5,-0.5L0,-3.0L2.5,-0.5"/>
  </g>
  <g id="arrowRight" transform="rotate(90) translate(36 -43)">
    <use xlink:href="#rim"/>
    <path pointer-events="none" fill="none" stroke="white" stroke-width="1.5" d="M0,-3.0v7 M-2.5,-0.5L0,-3.0L2.5,-0.5"/>
  </g>
  <g id="arrowDown" transform="rotate(180) translate(-30 -48)">
    <use xlink:href="#rim"/>
    <path pointer-events="none" fill="none" stroke="white" stroke-width="1.5" d="M0,-3.0v7 M-2.5,-0.5L0,-3.0L2.5,-0.5"/>
  </g>
  <g id="arrowLeft" transform="rotate(270) translate(-36 17)">
    <use xlink:href="#rim"/>
    <path pointer-events="none" fill="none" stroke="white" stroke-width="1.5" d="M0,-3.0v7 M-2.5,-0.5L0,-3.0L2.5,-0.5"/>
  </g>
  <g id="resetDef">
    <use xlink:href="#rim2" fill="#404040"><set attributeName="fill" to="#808080" begin="reset.mouseover" end="reset.mouseout"/></use>
  </g>
</defs>
<script type="application/ecmascript">
var viewWidth = 718;
var viewHeight = 426;
var sectionId = 'dynsection-23';
</script>
<script type="application/ecmascript" xlink:href="svg.min.js"/>
<svg id="graph" class="graph">
<g id="viewport">
<title>AQNWB::IO::HDF5::HDF5IO::createStringDataSet</title>
<!-- Node1 -->
<g id="Node000001" class="node">
<title>Node1</title>
<g id="a_Node000001"><a xlink:title="Creates a dataset that holds an array of string values.">
<polygon fill="#999999" stroke="#666666" points="145.75,-340.5 0,-340.5 0,-310 145.75,-310 145.75,-340.5"/>
<text xml:space="preserve" text-anchor="start" x="8" y="-327" font-family="Helvetica,sans-Serif" font-size="10.00">AQNWB::IO::HDF5::HDF5IO</text>
<text xml:space="preserve" text-anchor="middle" x="72.88" y="-315.75" font-family="Helvetica,sans-Serif" font-size="10.00">::createStringDataSet</text>
</a>
</g>
</g>
<!-- Node2 -->
<g id="Node000002" class="node">
<title>Node2</title>
<g id="a_Node000002"><a xlink:href="class_a_q_n_w_b_1_1_i_o_1_1_h_d_f5_1_1_h_d_f5_i_o.html#a96d8d872b2b974ac79a20b82fd72c5c2" target="_top" xlink:title="Checks whether the file is in a mode where objects can be added or deleted. Note, this does not apply...">
<polygon fill="white" stroke="#666666" points="709.75,-416.5 564,-416.5 564,-386 709.75,-386 709.75,-416.5"/>
<text xml:space="preserve" text-anchor="start" x="572" y="-403" font-family="Helvetica,sans-Serif" font-size="10.00">AQNWB::IO::HDF5::HDF5IO</text>
<text xml:space="preserve" text-anchor="middle" x="636.88" y="-391.75" font-family="Helvetica,sans-Serif" font-size="10.00">::canModifyObjects</text>
</a>
</g>
</g>
<!-- Node1&#45;&gt;Node2 -->
<g id="edge1_Node000001_Node000002" class="edge">
<title>Node1&#45;&gt;Node2</title>
<g id="a_edge1_Node000001_Node000002"><a xlink:title=" ">
<path fill="none" stroke="#63b8ff" d="M112.86,-340.95C167.72,-362.12 271.3,-398.7 363.5,-412.25 435.83,-422.88 454.98,-415.96 528,-412.25 535.95,-411.85 544.22,-411.27 552.48,-410.6"/>
<polygon fill="#63b8ff" stroke="#63b8ff" points="552.54,-414.11 562.2,-409.76 551.94,-407.14 552.54,-414.11"/>
</a>
</g>
</g>
<!-- Node3 -->
<g id="Node000003" class="node">
<title>Node3</title>
<g id="a_Node000003"><a xlink:href="class_a_q_n_w_b_1_1_i_o_1_1_h_d_f5_1_1_h_d_f5_i_o.html#a8fc6f7149f6266cbf83019d4d8970d0f" target="_top" xlink:title="Creates an extendable dataset with the given configuration and path.">
<polygon fill="white" stroke="#666666" points="327.5,-251.5 181.75,-251.5 181.75,-221 327.5,-221 327.5,-251.5"/>
<text xml:space="preserve" text-anchor="start" x="189.75" y="-238" font-family="Helvetica,sans-Serif" font-size="10.00">AQNWB::IO::HDF5::HDF5IO</text>
<text xml:space="preserve" text-anchor="middle" x="254.62" y="-226.75" font-family="Helvetica,sans-Serif" font-size="10.00">::createArrayDataSet</text>
</a>
</g>
</g>
<!-- Node1&#45;&gt;Node3 -->
<g id="edge2_Node000001_Node000003" class="edge">
<title>Node1&#45;&gt;Node3</title>
<g id="a_edge2_Node000001_Node000003"><a xlink:title=" ">
<path fill="none" stroke="#63b8ff" d="M105.6,-309.54C135.15,-294.91 179.42,-272.99 211.84,-256.94"/>
<polygon fill="#63b8ff" stroke="#63b8ff" points="213.15,-260.19 220.56,-252.62 210.05,-253.92 213.15,-260.19"/>
</a>
</g>
</g>
<!-- Node3&#45;&gt;Node2 -->
<g id="edge3_Node000003_Node000002" class="edge">
<title>Node3&#45;&gt;Node2</title>
<g id="a_edge3_Node000003_Node000002"><a xlink:title=" ">
<path fill="none" stroke="#63b8ff" d="M261.7,-251.65C274.88,-282.73 309.35,-352.52 363.5,-382.25 420.84,-413.73 495.5,-416.79 552.16,-412.93"/>
<polygon fill="#63b8ff" stroke="#63b8ff" points="552.39,-416.42 562.09,-412.15 551.85,-409.44 552.39,-416.42"/>
</a>
</g>
</g>
<!-- Node4 -->
<g id="Node000004" class="node">
<title>Node4</title>
<g id="a_Node000004"><a xlink:href="class_a_q_n_w_b_1_1_i_o_1_1_h_d_f5_1_1_h_d_f5_i_o.html#a351fa783e607e0840d5d28b3761d42ff" target="_top" xlink:title="Creates a soft link to another location in the file.">
<polygon fill="white" stroke="#666666" points="518.62,-373.5 372.88,-373.5 372.88,-343 518.62,-343 518.62,-373.5"/>
<text xml:space="preserve" text-anchor="start" x="380.88" y="-360" font-family="Helvetica,sans-Serif" font-size="10.00">AQNWB::IO::HDF5::HDF5IO</text>
<text xml:space="preserve" text-anchor="middle" x="445.75" y="-348.75" font-family="Helvetica,sans-Serif" font-size="10.00">::createLink</text>
</a>
</g>
</g>
<!-- Node3&#45;&gt;Node4 -->
<g id="edge4_Node000003_Node000004" class="edge">
<title>Node3&#45;&gt;Node4</title>
<g id="a_edge4_Node000003_Node000004"><a xlink:title=" ">
<path fill="none" stroke="#63b8ff" d="M269.02,-251.98C287.99,-273.32 324.71,-311.28 363.5,-333.25 366.65,-335.03 369.93,-336.7 373.31,-338.27"/>
<polygon fill="#63b8ff" stroke="#63b8ff" points="371.67,-341.37 382.24,-342.05 374.4,-334.93 371.67,-341.37"/>
</a>
</g>
</g>
<!-- Node7 -->
<g id="Node000007" class="node">
<title>Node7</title>
<g id="a_Node000007"><a xlink:href="class_a_q_n_w_b_1_1_i_o_1_1_array_data_set_config.html#a5dac455ed4c11e464730fd2d7f69138f" target="_top" xlink:title="Returns the chunking of the dataset.">
<polygon fill="white" stroke="#666666" points="528,-324.5 363.5,-324.5 363.5,-294 528,-294 528,-324.5"/>
<text xml:space="preserve" text-anchor="start" x="371.5" y="-311" font-family="Helvetica,sans-Serif" font-size="10.00">AQNWB::IO::ArrayDataSetConfig</text>
<text xml:space="preserve" text-anchor="middle" x="445.75" y="-299.75" font-family="Helvetica,sans-Serif" font-size="10.00">::getChunking</text>
</a>
</g>
</g>
<!-- Node3&#45;&gt;Node7 -->
<g id="edge8_Node000003_Node000007" class="edge">
<title>Node3&#45;&gt;Node7</title>
<g id="a_edge8_Node000003_Node000007"><a xlink:title=" ">
<path fill="none" stroke="#63b8ff" d="M288.25,-252C309.43,-261.91 337.78,-274.61 363.5,-284.25 368.81,-286.24 374.35,-288.19 379.93,-290.08"/>
<polygon fill="#63b8ff" stroke="#63b8ff" points="378.66,-293.34 389.25,-293.14 380.84,-286.69 378.66,-293.34"/>
</a>
</g>
</g>
<!-- Node8 -->
<g id="Node000008" class="node">
<title>Node8</title>
<g id="a_Node000008"><a xlink:href="class_a_q_n_w_b_1_1_i_o_1_1_h_d_f5_1_1_h_d_f5_array_data_set_config.html#ac9d01b29e8fa7809e183ff0b82673df5" target="_top" xlink:title="Returns the filters of the dataset.">
<polygon fill="white" stroke="#666666" points="525,-275.5 366.5,-275.5 366.5,-245 525,-245 525,-275.5"/>
<text xml:space="preserve" text-anchor="start" x="374.5" y="-262" font-family="Helvetica,sans-Serif" font-size="10.00">AQNWB::IO::HDF5::HDF5Array</text>
<text xml:space="preserve" text-anchor="middle" x="445.75" y="-250.75" font-family="Helvetica,sans-Serif" font-size="10.00">DataSetConfig::getFilters</text>
</a>
</g>
</g>
<!-- Node3&#45;&gt;Node8 -->
<g id="edge9_Node000003_Node000008" class="edge">
<title>Node3&#45;&gt;Node8</title>
<g id="a_edge9_Node000003_Node000008"><a xlink:title=" ">
<path fill="none" stroke="#63b8ff" d="M327.93,-245.43C336.73,-246.54 345.8,-247.69 354.82,-248.84"/>
<polygon fill="#63b8ff" stroke="#63b8ff" points="354.32,-252.3 364.68,-250.09 355.2,-245.36 354.32,-252.3"/>
</a>
</g>
</g>
<!-- Node9 -->
<g id="Node000009" class="node">
<title>Node9</title>
<g id="a_Node000009"><a xlink:href="class_a_q_n_w_b_1_1_i_o_1_1_h_d_f5_1_1_h_d_f5_i_o.html#acdb9d079f684ceb29d16ebc5e7e57127" target="_top" xlink:title="Returns the HDF5 data type for a given base data type.">
<polygon fill="white" stroke="#666666" points="518.62,-226.5 372.88,-226.5 372.88,-196 518.62,-196 518.62,-226.5"/>
<text xml:space="preserve" text-anchor="start" x="380.88" y="-213" font-family="Helvetica,sans-Serif" font-size="10.00">AQNWB::IO::HDF5::HDF5IO</text>
<text xml:space="preserve" text-anchor="middle" x="445.75" y="-201.75" font-family="Helvetica,sans-Serif" font-size="10.00">::getH5Type</text>
</a>
</g>
</g>
<!-- Node3&#45;&gt;Node9 -->
<g id="edge10_Node000003_Node000009" class="edge">
<title>Node3&#45;&gt;Node9</title>
<g id="a_edge10_Node000003_Node000009"><a xlink:title=" ">
<path fill="none" stroke="#63b8ff" d="M327.93,-226.69C338.88,-225.24 350.26,-223.74 361.41,-222.27"/>
<polygon fill="#63b8ff" stroke="#63b8ff" points="361.52,-225.78 370.98,-221 360.61,-218.84 361.52,-225.78"/>
</a>
</g>
</g>
<!-- Node10 -->
<g id="Node000010" class="node">
<title>Node10</title>
<g id="a_Node000010"><a xlink:href="class_a_q_n_w_b_1_1_i_o_1_1_array_data_set_config.html#a5764612791b79bd4375b6eafae7de28f" target="_top" xlink:title="Returns the shape of the dataset.">
<polygon fill="white" stroke="#666666" points="528,-177.5 363.5,-177.5 363.5,-147 528,-147 528,-177.5"/>
<text xml:space="preserve" text-anchor="start" x="371.5" y="-164" font-family="Helvetica,sans-Serif" font-size="10.00">AQNWB::IO::ArrayDataSetConfig</text>
<text xml:space="preserve" text-anchor="middle" x="445.75" y="-152.75" font-family="Helvetica,sans-Serif" font-size="10.00">::getShape</text>
</a>
</g>
</g>
<!-- Node3&#45;&gt;Node10 -->
<g id="edge11_Node000003_Node000010" class="edge">
<title>Node3&#45;&gt;Node10</title>
<g id="a_edge11_Node000003_Node000010"><a xlink:title=" ">
<path fill="none" stroke="#63b8ff" d="M287.27,-220.58C308.53,-210.38 337.34,-197.17 363.5,-187.25 368.71,-185.27 374.16,-183.34 379.65,-181.47"/>
<polygon fill="#63b8ff" stroke="#63b8ff" points="380.4,-184.91 388.79,-178.45 378.2,-178.26 380.4,-184.91"/>
</a>
</g>
</g>
<!-- Node11 -->
<g id="Node000011" class="node">
<title>Node11</title>
<g id="a_Node000011"><a xlink:href="class_a_q_n_w_b_1_1_i_o_1_1_link_array_data_set_config.html#a52c365749901a7239932500a3671ea8c" target="_top" xlink:title="Returns the path to the target dataset.">
<polygon fill="white" stroke="#666666" points="515.25,-128.5 376.25,-128.5 376.25,-98 515.25,-98 515.25,-128.5"/>
<text xml:space="preserve" text-anchor="start" x="384.25" y="-115" font-family="Helvetica,sans-Serif" font-size="10.00">AQNWB::IO::LinkArrayData</text>
<text xml:space="preserve" text-anchor="middle" x="445.75" y="-103.75" font-family="Helvetica,sans-Serif" font-size="10.00">SetConfig::getTargetPath</text>
</a>
</g>
</g>
<!-- Node3&#45;&gt;Node11 -->
<g id="edge12_Node000003_Node000011" class="edge">
<title>Node3&#45;&gt;Node11</title>
<g id="a_edge12_Node000003_Node000011"><a xlink:title=" ">
<path fill="none" stroke="#63b8ff" d="M268.67,-220.71C287.5,-199.22 324.37,-160.55 363.5,-138.25 366.48,-136.55 369.59,-134.95 372.78,-133.46"/>
<polygon fill="#63b8ff" stroke="#63b8ff" points="373.98,-136.75 381.8,-129.59 371.23,-130.31 373.98,-136.75"/>
</a>
</g>
</g>
<!-- Node12 -->
<g id="Node000012" class="node">
<title>Node12</title>
<g id="a_Node000012"><a xlink:href="class_a_q_n_w_b_1_1_i_o_1_1_array_data_set_config.html#ad7fc70070109360904cb624d4a2d7f92" target="_top" xlink:title="Returns the data type of the dataset.">
<polygon fill="white" stroke="#666666" points="528,-79.5 363.5,-79.5 363.5,-49 528,-49 528,-79.5"/>
<text xml:space="preserve" text-anchor="start" x="371.5" y="-66" font-family="Helvetica,sans-Serif" font-size="10.00">AQNWB::IO::ArrayDataSetConfig</text>
<text xml:space="preserve" text-anchor="middle" x="445.75" y="-54.75" font-family="Helvetica,sans-Serif" font-size="10.00">::getType</text>
</a>
</g>
</g>
<!-- Node3&#45;&gt;Node12 -->
<g id="edge13_Node000003_Node000012" class="edge">
<title>Node3&#45;&gt;Node12</title>
<g id="a_edge13_Node000003_Node000012"><a xlink:title=" ">
<path fill="none" stroke="#63b8ff" d="M262.74,-220.82C277.31,-190.91 313.45,-124.84 363.5,-89.25 365.55,-87.79 367.69,-86.41 369.9,-85.12"/>
<polygon fill="#63b8ff" stroke="#63b8ff" points="371.32,-88.32 378.59,-80.62 368.1,-82.11 371.32,-88.32"/>
</a>
</g>
</g>
<!-- Node13 -->
<g id="Node000013" class="node">
<title>Node13</title>
<g id="a_Node000013"><a xlink:href="class_a_q_n_w_b_1_1_i_o_1_1_base_array_data_set_config.html#afa73e29e69f976fb0dda013ae85fabeb" target="_top" xlink:title="Checks if this configuration represents a link.">
<polygon fill="white" stroke="#666666" points="517.5,-30.5 374,-30.5 374,0 517.5,0 517.5,-30.5"/>
<text xml:space="preserve" text-anchor="start" x="382" y="-17" font-family="Helvetica,sans-Serif" font-size="10.00">AQNWB::IO::BaseArrayData</text>
<text xml:space="preserve" text-anchor="middle" x="445.75" y="-5.75" font-family="Helvetica,sans-Serif" font-size="10.00">SetConfig::isLink</text>
</a>
</g>
</g>
<!-- Node3&#45;&gt;Node13 -->
<g id="edge14_Node000003_Node000013" class="edge">
<title>Node3&#45;&gt;Node13</title>
<g id="a_edge14_Node000003_Node000013"><a xlink:title=" ">
<path fill="none" stroke="#63b8ff" d="M259.8,-220.65C270.5,-183.64 302.49,-89.89 363.5,-40.25 365.03,-39 366.63,-37.81 368.28,-36.69"/>
<polygon fill="#63b8ff" stroke="#63b8ff" points="370.05,-39.71 376.9,-31.62 366.51,-33.67 370.05,-39.71"/>
</a>
</g>
</g>
<!-- Node4&#45;&gt;Node2 -->
<g id="edge5_Node000004_Node000002" class="edge">
<title>Node4&#45;&gt;Node2</title>
<g id="a_edge5_Node000004_Node000002"><a xlink:title=" ">
<path fill="none" stroke="#63b8ff" d="M515.83,-373.96C528.77,-376.9 542.4,-380 555.65,-383.01"/>
<polygon fill="#63b8ff" stroke="#63b8ff" points="554.66,-386.37 565.19,-385.18 556.21,-379.55 554.66,-386.37"/>
</a>
</g>
</g>
<!-- Node5 -->
<g id="Node000005" class="node">
<title>Node5</title>
<g id="a_Node000005"><a xlink:href="namespace_a_q_n_w_b.html#a09b9a48d0ec26fe72452788634ee12bb" target="_top" xlink:title="Convert an integer status code to a Types::Status enum value. Shorthand for return (status &lt; 0) ?...">
<polygon fill="white" stroke="#666666" points="691.75,-367.88 582,-367.88 582,-348.62 691.75,-348.62 691.75,-367.88"/>
<text xml:space="preserve" text-anchor="middle" x="636.88" y="-354.38" font-family="Helvetica,sans-Serif" font-size="10.00">AQNWB::intToStatus</text>
</a>
</g>
</g>
<!-- Node4&#45;&gt;Node5 -->
<g id="edge6_Node000004_Node000005" class="edge">
<title>Node4&#45;&gt;Node5</title>
<g id="a_edge6_Node000004_Node000005"><a xlink:title=" ">
<path fill="none" stroke="#63b8ff" d="M519.06,-358.25C535.92,-358.25 553.78,-358.25 570.33,-358.25"/>
<polygon fill="#63b8ff" stroke="#63b8ff" points="570.03,-361.75 580.03,-358.25 570.03,-354.75 570.03,-361.75"/>
</a>
</g>
</g>
<!-- Node6 -->
<g id="Node000006" class="node">
<title>Node6</title>
<g id="a_Node000006"><a xlink:href="class_a_q_n_w_b_1_1_i_o_1_1_h_d_f5_1_1_h_d_f5_i_o.html#ad384fb7900056f833e217252d3bfc41b" target="_top" xlink:title="Checks whether a Dataset, Group, or Link already exists at the location in the file.">
<polygon fill="white" stroke="#666666" points="709.75,-330.5 564,-330.5 564,-300 709.75,-300 709.75,-330.5"/>
<text xml:space="preserve" text-anchor="start" x="572" y="-317" font-family="Helvetica,sans-Serif" font-size="10.00">AQNWB::IO::HDF5::HDF5IO</text>
<text xml:space="preserve" text-anchor="middle" x="636.88" y="-305.75" font-family="Helvetica,sans-Serif" font-size="10.00">::objectExists</text>
</a>
</g>
</g>
<!-- Node4&#45;&gt;Node6 -->
<g id="edge7_Node000004_Node000006" class="edge">
<title>Node4&#45;&gt;Node6</title>
<g id="a_edge7_Node000004_Node000006"><a xlink:title=" ">
<path fill="none" stroke="#63b8ff" d="M515.83,-342.54C528.77,-339.6 542.4,-336.5 555.65,-333.49"/>
<polygon fill="#63b8ff" stroke="#63b8ff" points="556.21,-336.95 565.19,-331.32 554.66,-330.13 556.21,-336.95"/>
</a>
</g>
</g>
</g>
</svg>

<g id="navigator" transform="translate(0 0)" fill="#404254">
  <rect fill="#f2f5e9" fill-opacity="0.5" stroke="#606060" stroke-width=".5" x="0" y="0" width="60" height="60"/>
  <use id="zoomplus" xlink:href="#zoomPlus" x="17" y="9" onmousedown="handleZoom(evt,'in')"/>
  <use id="zoomminus" xlink:href="#zoomMin" x="42" y="9" onmousedown="handleZoom(evt,'out')"/>
  <use id="reset" xlink:href="#resetDef" x="30" y="36" onmousedown="handleReset()"/>
   <use id="arrowup" xlink:href="#arrowUp" x="0" y="0" onmousedown="handlePan(0,-1)"/>
  <use id="arrowright" xlink:href="#arrowRight" x="0" y="0" onmousedown="handlePan(1,0)"/>
  <use id="arrowdown" xlink:href="#arrowDown" x="0" y="0" onmousedown="handlePan(0,1)"/>
  <use id="arrowleft" xlink:href="#arrowLeft" x="0" y="0" onmousedown="handlePan(-1,0)"/>
</g>
<svg viewBox="0 0 15 15" width="100%" height="30px" preserveAspectRatio="xMaxYMin meet">
 <g id="arrow_out" transform="scale(0.3 0.3)">
  <a xlink:href="class_a_q_n_w_b_1_1_i_o_1_1_h_d_f5_1_1_h_d_f5_i_o_a97653ad67ac314515362c7fe2b6fbaa1_cgraph_org.svg" target="_base">
   <rect id="button" ry="5" rx="5" y="6" x="6" height="38" width="38"
        fill="#f2f5e9" fill-opacity="0.5" stroke="#606060" stroke-width="1.0"/>
   <path id="arrow"
     d="M 11.500037,31.436501 C 11.940474,20.09759 22.043105,11.32322 32.158766,21.979434 L 37.068811,17.246167 C 37.068811,17.246167 37.088388,32 37.088388,32 L 22.160133,31.978069 C 22.160133,31.978069 26.997745,27.140456 26.997745,27.140456 C 18.528582,18.264221 13.291696,25.230495 11.500037,31.436501 z"
     style="fill:#404040;"/>
  </a>
 </g>
</svg>

<style type='text/css'>
<![CDATA[
[data-mouse-over-selected='false'] { opacity: 0.7; }
[data-mouse-over-selected='true']  { opacity: 1.0; }
]]>
</style>
<script type="application/ecmascript"><![CDATA[
document.addEventListener('DOMContentLoaded', (event) => {
  highlightEdges();
  highlightAdjacentNodes();
});
]]></script>
</svg>
