<?xml version="1.0" encoding="UTF-8" standalone="no"?>
<!DOCTYPE svg PUBLIC "-//W3C//DTD SVG 1.1//EN"
 "http://www.w3.org/Graphics/SVG/1.1/DTD/svg11.dtd">
<!-- Generated by graphviz version 12.2.1 (20241206.2353)
 -->
<!-- Title: AQNWB::NWB::ElectrodeGroup::ElectrodeGroup Pages: 1 -->
<svg width="529pt" height="57pt"
 viewBox="0.00 0.00 528.50 56.50" xmlns="http://www.w3.org/2000/svg" xmlns:xlink="http://www.w3.org/1999/xlink">
<g id="graph0" class="graph" transform="scale(1 1) rotate(0) translate(4 52.5)">
<title>AQNWB::NWB::ElectrodeGroup::ElectrodeGroup</title>
<!-- Node1 -->
<g id="Node000001" class="node">
<title>Node1</title>
<g id="a_Node000001"><a xlink:title="Constructor.">
<polygon fill="#999999" stroke="#666666" points="157.75,-30.5 0,-30.5 0,0 157.75,0 157.75,-30.5"/>
<text text-anchor="start" x="8" y="-17" font-family="Helvetica,sans-Serif" font-size="10.00">AQNWB::NWB::ElectrodeGroup</text>
<text text-anchor="middle" x="78.88" y="-5.75" font-family="Helvetica,sans-Serif" font-size="10.00">::ElectrodeGroup</text>
</a>
</g>
</g>
<!-- Node1&#45;&gt;Node1 -->
<g id="edge4_Node000001_Node000001" class="edge">
<title>Node1&#45;&gt;Node1</title>
<g id="a_edge4_Node000001_Node000001"><a xlink:title=" ">
<path fill="none" stroke="#63b8ff" d="M46.8,-30.99C40.26,-40.06 50.95,-48.5 78.88,-48.5 94.15,-48.5 104.27,-45.97 109.23,-42.2"/>
<polygon fill="#63b8ff" stroke="#63b8ff" points="112.66,-42.9 110.72,-32.48 105.74,-41.84 112.66,-42.9"/>
</a>
</g>
</g>
<!-- Node2 -->
<g id="Node000002" class="node">
<title>Node2</title>
<g id="a_Node000002"><a xlink:href="class_a_q_n_w_b_1_1_n_w_b_1_1_container.html#a0ec16ae5d28267ea37464ffe2c2c34e5" target="_top" xlink:title="Constructor.">
<polygon fill="white" stroke="#666666" points="326,-30.5 193.75,-30.5 193.75,0 326,0 326,-30.5"/>
<text text-anchor="start" x="201.75" y="-17" font-family="Helvetica,sans-Serif" font-size="10.00">AQNWB::NWB::Container</text>
<text text-anchor="middle" x="259.88" y="-5.75" font-family="Helvetica,sans-Serif" font-size="10.00">::Container</text>
</a>
</g>
</g>
<!-- Node1&#45;&gt;Node2 -->
<g id="edge1_Node000001_Node000002" class="edge">
<title>Node1&#45;&gt;Node2</title>
<g id="a_edge1_Node000001_Node000002"><a xlink:title=" ">
<path fill="none" stroke="#63b8ff" d="M158.13,-15.25C166.03,-15.25 174.05,-15.25 181.93,-15.25"/>
<polygon fill="#63b8ff" stroke="#63b8ff" points="181.85,-18.75 191.85,-15.25 181.85,-11.75 181.85,-18.75"/>
</a>
</g>
</g>
<!-- Node2&#45;&gt;Node2 -->
<g id="edge2_Node000002_Node000002" class="edge">
<title>Node2&#45;&gt;Node2</title>
<g id="a_edge2_Node000002_Node000002"><a xlink:title=" ">
<path fill="none" stroke="#63b8ff" d="M227.8,-30.99C221.26,-40.06 231.95,-48.5 259.88,-48.5 275.15,-48.5 285.27,-45.97 290.23,-42.2"/>
<polygon fill="#63b8ff" stroke="#63b8ff" points="293.66,-42.9 291.72,-32.48 286.74,-41.84 293.66,-42.9"/>
</a>
</g>
</g>
<!-- Node3 -->
<g id="Node000003" class="node">
<title>Node3</title>
<g id="a_Node000003"><a xlink:href="class_a_q_n_w_b_1_1_n_w_b_1_1_registered_type.html#a4e2e5496f7c318307bfc2addfc68c859" target="_top" xlink:title="Constructor.">
<polygon fill="white" stroke="#666666" points="520.5,-30.5 362,-30.5 362,0 520.5,0 520.5,-30.5"/>
<text text-anchor="start" x="370" y="-17" font-family="Helvetica,sans-Serif" font-size="10.00">AQNWB::NWB::RegisteredType</text>
<text text-anchor="middle" x="441.25" y="-5.75" font-family="Helvetica,sans-Serif" font-size="10.00">::RegisteredType</text>
</a>
</g>
</g>
<!-- Node2&#45;&gt;Node3 -->
<g id="edge3_Node000002_Node000003" class="edge">
<title>Node2&#45;&gt;Node3</title>
<g id="a_edge3_Node000002_Node000003"><a xlink:title=" ">
<path fill="none" stroke="#63b8ff" d="M326.39,-15.25C334.22,-15.25 342.31,-15.25 350.39,-15.25"/>
<polygon fill="#63b8ff" stroke="#63b8ff" points="350.29,-18.75 360.29,-15.25 350.29,-11.75 350.29,-18.75"/>
</a>
</g>
</g>
</g>
</svg>
