<?xml version="1.0" encoding="UTF-8" standalone="no"?>
<!DOCTYPE svg PUBLIC "-//W3C//DTD SVG 1.1//EN"
 "http://www.w3.org/Graphics/SVG/1.1/DTD/svg11.dtd">
<!-- Generated by graphviz version 13.1.0 (20250701.0955)
 -->
<!-- Title: AQNWB::NWB::TimeSeries::readDataConversion Pages: 1 -->
<!--zoomable 88 -->

<svg id="main" version="1.1" xmlns="http://www.w3.org/2000/svg" xmlns:xlink="http://www.w3.org/1999/xlink" xml:space="preserve" onload="init(evt)">

<style type="text/css"><![CDATA[
.node, .edge {opacity: 0.7;}
.node.selected, .edge.selected {opacity: 1;}
.edge:hover path { stroke: red; }
.edge:hover polygon { stroke: red; fill: red; }
]]></style>

<defs>
  <circle id="rim" cx="0" cy="0" r="7"/>
  <circle id="rim2" cx="0" cy="0" r="3.5"/>
  <g id="zoomPlus">
    <use xlink:href="#rim" fill="#404040"><set attributeName="fill" to="#808080" begin="zoomplus.mouseover" end="zoomplus.mouseout"/></use>
    <path d="M-4,0h8M0,-4v8" fill="none" stroke="white" stroke-width="1.5" pointer-events="none"/>
  </g>
  <g id="zoomMin">
    <use xlink:href="#rim" fill="#404040"><set attributeName="fill" to="#808080" begin="zoomminus.mouseover" end="zoomminus.mouseout"/></use>
    <path d="M-4,0h8" fill="none" stroke="white" stroke-width="1.5" pointer-events="none"/>
  </g>
  <g id="arrowUp" transform="translate(30 24)">
    <use xlink:href="#rim"/>
    <path pointer-events="none" fill="none" stroke="white" stroke-width="1.5" d="M0,-3.0v7 M-2.5,-0.5L0,-3.0L2.5,-0.5"/>
  </g>
  <g id="arrowRight" transform="rotate(90) translate(36 -43)">
    <use xlink:href="#rim"/>
    <path pointer-events="none" fill="none" stroke="white" stroke-width="1.5" d="M0,-3.0v7 M-2.5,-0.5L0,-3.0L2.5,-0.5"/>
  </g>
  <g id="arrowDown" transform="rotate(180) translate(-30 -48)">
    <use xlink:href="#rim"/>
    <path pointer-events="none" fill="none" stroke="white" stroke-width="1.5" d="M0,-3.0v7 M-2.5,-0.5L0,-3.0L2.5,-0.5"/>
  </g>
  <g id="arrowLeft" transform="rotate(270) translate(-36 17)">
    <use xlink:href="#rim"/>
    <path pointer-events="none" fill="none" stroke="white" stroke-width="1.5" d="M0,-3.0v7 M-2.5,-0.5L0,-3.0L2.5,-0.5"/>
  </g>
  <g id="resetDef">
    <use xlink:href="#rim2" fill="#404040"><set attributeName="fill" to="#808080" begin="reset.mouseover" end="reset.mouseout"/></use>
  </g>
</defs>
<script type="application/ecmascript">
var viewWidth = 2587;
var viewHeight = 88;
var sectionId = 'dynsection-18';
</script>
<script type="application/ecmascript" xlink:href="svg.min.js"/>
<svg id="graph" class="graph">
<g id="viewport">
<title>AQNWB::NWB::TimeSeries::readDataConversion</title>
<!-- Node1 -->
<g id="Node000001" class="node">
<title>Node1</title>
<g id="a_Node000001"><a xlink:title=" ">
<polygon fill="#999999" stroke="#666666" points="139.75,-54.5 0,-54.5 0,-24 139.75,-24 139.75,-54.5"/>
<text xml:space="preserve" text-anchor="start" x="8" y="-41" font-family="Helvetica,sans-Serif" font-size="10.00">AQNWB::NWB::TimeSeries</text>
<text xml:space="preserve" text-anchor="middle" x="69.88" y="-29.75" font-family="Helvetica,sans-Serif" font-size="10.00">::readDataConversion</text>
</a>
</g>
</g>
<!-- Node2 -->
<g id="Node000002" class="node">
<title>Node2</title>
<g id="a_Node000002"><a xlink:href="class_a_q_n_w_b_1_1_n_w_b_1_1_time_series.html#a8e935bfd8eea957ae42d5ea752d802b4" target="_top" xlink:title=" ">
<polygon fill="white" stroke="#666666" points="315.5,-54.5 175.75,-54.5 175.75,-24 315.5,-24 315.5,-54.5"/>
<text xml:space="preserve" text-anchor="start" x="183.75" y="-41" font-family="Helvetica,sans-Serif" font-size="10.00">AQNWB::NWB::TimeSeries</text>
<text xml:space="preserve" text-anchor="middle" x="245.62" y="-29.75" font-family="Helvetica,sans-Serif" font-size="10.00">::readDataOffset</text>
</a>
</g>
</g>
<!-- Node1&#45;&gt;Node2 -->
<g id="edge1_Node000001_Node000002" class="edge">
<title>Node1&#45;&gt;Node2</title>
<g id="a_edge1_Node000001_Node000002"><a xlink:title=" ">
<path fill="none" stroke="#63b8ff" d="M140.04,-39.25C147.96,-39.25 156.07,-39.25 164.12,-39.25"/>
<polygon fill="#63b8ff" stroke="#63b8ff" points="163.9,-42.75 173.9,-39.25 163.9,-35.75 163.9,-42.75"/>
</a>
</g>
</g>
<!-- Node3 -->
<g id="Node000003" class="node">
<title>Node3</title>
<g id="a_Node000003"><a xlink:href="class_a_q_n_w_b_1_1_n_w_b_1_1_time_series.html#adf83d074710318ecd17f056deecf6f73" target="_top" xlink:title=" ">
<polygon fill="white" stroke="#666666" points="491.25,-54.5 351.5,-54.5 351.5,-24 491.25,-24 491.25,-54.5"/>
<text xml:space="preserve" text-anchor="start" x="359.5" y="-41" font-family="Helvetica,sans-Serif" font-size="10.00">AQNWB::NWB::TimeSeries</text>
<text xml:space="preserve" text-anchor="middle" x="421.38" y="-29.75" font-family="Helvetica,sans-Serif" font-size="10.00">::readDataResolution</text>
</a>
</g>
</g>
<!-- Node2&#45;&gt;Node3 -->
<g id="edge2_Node000002_Node000003" class="edge">
<title>Node2&#45;&gt;Node3</title>
<g id="a_edge2_Node000002_Node000003"><a xlink:title=" ">
<path fill="none" stroke="#63b8ff" d="M315.79,-39.25C323.71,-39.25 331.82,-39.25 339.87,-39.25"/>
<polygon fill="#63b8ff" stroke="#63b8ff" points="339.65,-42.75 349.65,-39.25 339.65,-35.75 339.65,-42.75"/>
</a>
</g>
</g>
<!-- Node4 -->
<g id="Node000004" class="node">
<title>Node4</title>
<g id="a_Node000004"><a xlink:href="class_a_q_n_w_b_1_1_n_w_b_1_1_time_series.html#a5d7201b7efb3109e03172a7d383c8b45" target="_top" xlink:title=" ">
<polygon fill="white" stroke="#666666" points="667,-54.5 527.25,-54.5 527.25,-24 667,-24 667,-54.5"/>
<text xml:space="preserve" text-anchor="start" x="535.25" y="-41" font-family="Helvetica,sans-Serif" font-size="10.00">AQNWB::NWB::TimeSeries</text>
<text xml:space="preserve" text-anchor="middle" x="597.12" y="-29.75" font-family="Helvetica,sans-Serif" font-size="10.00">::readDataUnit</text>
</a>
</g>
</g>
<!-- Node3&#45;&gt;Node4 -->
<g id="edge3_Node000003_Node000004" class="edge">
<title>Node3&#45;&gt;Node4</title>
<g id="a_edge3_Node000003_Node000004"><a xlink:title=" ">
<path fill="none" stroke="#63b8ff" d="M491.54,-39.25C499.46,-39.25 507.57,-39.25 515.62,-39.25"/>
<polygon fill="#63b8ff" stroke="#63b8ff" points="515.4,-42.75 525.4,-39.25 515.4,-35.75 515.4,-42.75"/>
</a>
</g>
</g>
<!-- Node5 -->
<g id="Node000005" class="node">
<title>Node5</title>
<g id="a_Node000005"><a xlink:href="class_a_q_n_w_b_1_1_n_w_b_1_1_time_series.html#a7b9e5f855ab7ae45e6b9d66e8c21cacb" target="_top" xlink:title=" ">
<polygon fill="white" stroke="#666666" points="842.75,-54.5 703,-54.5 703,-24 842.75,-24 842.75,-54.5"/>
<text xml:space="preserve" text-anchor="start" x="711" y="-41" font-family="Helvetica,sans-Serif" font-size="10.00">AQNWB::NWB::TimeSeries</text>
<text xml:space="preserve" text-anchor="middle" x="772.88" y="-29.75" font-family="Helvetica,sans-Serif" font-size="10.00">::readDataContinuity</text>
</a>
</g>
</g>
<!-- Node4&#45;&gt;Node5 -->
<g id="edge4_Node000004_Node000005" class="edge">
<title>Node4&#45;&gt;Node5</title>
<g id="a_edge4_Node000004_Node000005"><a xlink:title=" ">
<path fill="none" stroke="#63b8ff" d="M667.29,-39.25C675.21,-39.25 683.32,-39.25 691.37,-39.25"/>
<polygon fill="#63b8ff" stroke="#63b8ff" points="691.15,-42.75 701.15,-39.25 691.15,-35.75 691.15,-42.75"/>
</a>
</g>
</g>
<!-- Node6 -->
<g id="Node000006" class="node">
<title>Node6</title>
<g id="a_Node000006"><a xlink:href="class_a_q_n_w_b_1_1_n_w_b_1_1_time_series.html#a0d48a3a5d1f7468ae1e48226969f30c3" target="_top" xlink:title=" ">
<polygon fill="white" stroke="#666666" points="1018.5,-54.5 878.75,-54.5 878.75,-24 1018.5,-24 1018.5,-54.5"/>
<text xml:space="preserve" text-anchor="start" x="886.75" y="-41" font-family="Helvetica,sans-Serif" font-size="10.00">AQNWB::NWB::TimeSeries</text>
<text xml:space="preserve" text-anchor="middle" x="948.62" y="-29.75" font-family="Helvetica,sans-Serif" font-size="10.00">::readStartingTime</text>
</a>
</g>
</g>
<!-- Node5&#45;&gt;Node6 -->
<g id="edge5_Node000005_Node000006" class="edge">
<title>Node5&#45;&gt;Node6</title>
<g id="a_edge5_Node000005_Node000006"><a xlink:title=" ">
<path fill="none" stroke="#63b8ff" d="M843.04,-39.25C850.96,-39.25 859.07,-39.25 867.12,-39.25"/>
<polygon fill="#63b8ff" stroke="#63b8ff" points="866.9,-42.75 876.9,-39.25 866.9,-35.75 866.9,-42.75"/>
</a>
</g>
</g>
<!-- Node7 -->
<g id="Node000007" class="node">
<title>Node7</title>
<g id="a_Node000007"><a xlink:href="class_a_q_n_w_b_1_1_n_w_b_1_1_time_series.html#a432eacaa5461a2adb7c74b8163109690" target="_top" xlink:title=" ">
<polygon fill="white" stroke="#666666" points="1194.25,-54.5 1054.5,-54.5 1054.5,-24 1194.25,-24 1194.25,-54.5"/>
<text xml:space="preserve" text-anchor="start" x="1062.5" y="-41" font-family="Helvetica,sans-Serif" font-size="10.00">AQNWB::NWB::TimeSeries</text>
<text xml:space="preserve" text-anchor="middle" x="1124.38" y="-29.75" font-family="Helvetica,sans-Serif" font-size="10.00">::readStartingTimeRate</text>
</a>
</g>
</g>
<!-- Node6&#45;&gt;Node7 -->
<g id="edge6_Node000006_Node000007" class="edge">
<title>Node6&#45;&gt;Node7</title>
<g id="a_edge6_Node000006_Node000007"><a xlink:title=" ">
<path fill="none" stroke="#63b8ff" d="M1018.79,-39.25C1026.71,-39.25 1034.82,-39.25 1042.87,-39.25"/>
<polygon fill="#63b8ff" stroke="#63b8ff" points="1042.65,-42.75 1052.65,-39.25 1042.65,-35.75 1042.65,-42.75"/>
</a>
</g>
</g>
<!-- Node8 -->
<g id="Node000008" class="node">
<title>Node8</title>
<g id="a_Node000008"><a xlink:href="class_a_q_n_w_b_1_1_n_w_b_1_1_time_series.html#a10c42d7daf3209d828814549062ba43b" target="_top" xlink:title=" ">
<polygon fill="white" stroke="#666666" points="1370,-54.5 1230.25,-54.5 1230.25,-24 1370,-24 1370,-54.5"/>
<text xml:space="preserve" text-anchor="start" x="1238.25" y="-41" font-family="Helvetica,sans-Serif" font-size="10.00">AQNWB::NWB::TimeSeries</text>
<text xml:space="preserve" text-anchor="middle" x="1300.12" y="-29.75" font-family="Helvetica,sans-Serif" font-size="10.00">::readStartingTimeUnit</text>
</a>
</g>
</g>
<!-- Node7&#45;&gt;Node8 -->
<g id="edge7_Node000007_Node000008" class="edge">
<title>Node7&#45;&gt;Node8</title>
<g id="a_edge7_Node000007_Node000008"><a xlink:title=" ">
<path fill="none" stroke="#63b8ff" d="M1194.54,-39.25C1202.46,-39.25 1210.57,-39.25 1218.62,-39.25"/>
<polygon fill="#63b8ff" stroke="#63b8ff" points="1218.4,-42.75 1228.4,-39.25 1218.4,-35.75 1218.4,-42.75"/>
</a>
</g>
</g>
<!-- Node9 -->
<g id="Node000009" class="node">
<title>Node9</title>
<g id="a_Node000009"><a xlink:href="class_a_q_n_w_b_1_1_n_w_b_1_1_time_series.html#aad84484dbd8b930702c8c8c5408694b1" target="_top" xlink:title=" ">
<polygon fill="white" stroke="#666666" points="1545.75,-54.5 1406,-54.5 1406,-24 1545.75,-24 1545.75,-54.5"/>
<text xml:space="preserve" text-anchor="start" x="1414" y="-41" font-family="Helvetica,sans-Serif" font-size="10.00">AQNWB::NWB::TimeSeries</text>
<text xml:space="preserve" text-anchor="middle" x="1475.88" y="-29.75" font-family="Helvetica,sans-Serif" font-size="10.00">::readTimestamps</text>
</a>
</g>
</g>
<!-- Node8&#45;&gt;Node9 -->
<g id="edge8_Node000008_Node000009" class="edge">
<title>Node8&#45;&gt;Node9</title>
<g id="a_edge8_Node000008_Node000009"><a xlink:title=" ">
<path fill="none" stroke="#63b8ff" d="M1370.29,-39.25C1378.21,-39.25 1386.32,-39.25 1394.37,-39.25"/>
<polygon fill="#63b8ff" stroke="#63b8ff" points="1394.15,-42.75 1404.15,-39.25 1394.15,-35.75 1394.15,-42.75"/>
</a>
</g>
</g>
<!-- Node10 -->
<g id="Node000010" class="node">
<title>Node10</title>
<g id="a_Node000010"><a xlink:href="class_a_q_n_w_b_1_1_n_w_b_1_1_time_series.html#a6bc9efa6381b6761d45493c1b2628e22" target="_top" xlink:title=" ">
<polygon fill="white" stroke="#666666" points="1721.5,-54.5 1581.75,-54.5 1581.75,-24 1721.5,-24 1721.5,-54.5"/>
<text xml:space="preserve" text-anchor="start" x="1589.75" y="-41" font-family="Helvetica,sans-Serif" font-size="10.00">AQNWB::NWB::TimeSeries</text>
<text xml:space="preserve" text-anchor="middle" x="1651.62" y="-29.75" font-family="Helvetica,sans-Serif" font-size="10.00">::readTimestampsInterval</text>
</a>
</g>
</g>
<!-- Node9&#45;&gt;Node10 -->
<g id="edge9_Node000009_Node000010" class="edge">
<title>Node9&#45;&gt;Node10</title>
<g id="a_edge9_Node000009_Node000010"><a xlink:title=" ">
<path fill="none" stroke="#63b8ff" d="M1546.04,-39.25C1553.96,-39.25 1562.07,-39.25 1570.12,-39.25"/>
<polygon fill="#63b8ff" stroke="#63b8ff" points="1569.9,-42.75 1579.9,-39.25 1569.9,-35.75 1569.9,-42.75"/>
</a>
</g>
</g>
<!-- Node11 -->
<g id="Node000011" class="node">
<title>Node11</title>
<g id="a_Node000011"><a xlink:href="class_a_q_n_w_b_1_1_n_w_b_1_1_time_series.html#adf3f178d207453927ae6ede7a53ac7f7" target="_top" xlink:title=" ">
<polygon fill="white" stroke="#666666" points="1897.25,-54.5 1757.5,-54.5 1757.5,-24 1897.25,-24 1897.25,-54.5"/>
<text xml:space="preserve" text-anchor="start" x="1765.5" y="-41" font-family="Helvetica,sans-Serif" font-size="10.00">AQNWB::NWB::TimeSeries</text>
<text xml:space="preserve" text-anchor="middle" x="1827.38" y="-29.75" font-family="Helvetica,sans-Serif" font-size="10.00">::readTimestampsUnit</text>
</a>
</g>
</g>
<!-- Node10&#45;&gt;Node11 -->
<g id="edge10_Node000010_Node000011" class="edge">
<title>Node10&#45;&gt;Node11</title>
<g id="a_edge10_Node000010_Node000011"><a xlink:title=" ">
<path fill="none" stroke="#63b8ff" d="M1721.79,-39.25C1729.71,-39.25 1737.82,-39.25 1745.87,-39.25"/>
<polygon fill="#63b8ff" stroke="#63b8ff" points="1745.65,-42.75 1755.65,-39.25 1745.65,-35.75 1745.65,-42.75"/>
</a>
</g>
</g>
<!-- Node12 -->
<g id="Node000012" class="node">
<title>Node12</title>
<g id="a_Node000012"><a xlink:href="class_a_q_n_w_b_1_1_n_w_b_1_1_time_series.html#a0501cf1664c3ac781453e312aa3342b0" target="_top" xlink:title=" ">
<polygon fill="white" stroke="#666666" points="2073,-54.5 1933.25,-54.5 1933.25,-24 2073,-24 2073,-54.5"/>
<text xml:space="preserve" text-anchor="start" x="1941.25" y="-41" font-family="Helvetica,sans-Serif" font-size="10.00">AQNWB::NWB::TimeSeries</text>
<text xml:space="preserve" text-anchor="middle" x="2003.12" y="-29.75" font-family="Helvetica,sans-Serif" font-size="10.00">::readControl</text>
</a>
</g>
</g>
<!-- Node11&#45;&gt;Node12 -->
<g id="edge11_Node000011_Node000012" class="edge">
<title>Node11&#45;&gt;Node12</title>
<g id="a_edge11_Node000011_Node000012"><a xlink:title=" ">
<path fill="none" stroke="#63b8ff" d="M1897.54,-39.25C1905.46,-39.25 1913.57,-39.25 1921.62,-39.25"/>
<polygon fill="#63b8ff" stroke="#63b8ff" points="1921.4,-42.75 1931.4,-39.25 1921.4,-35.75 1921.4,-42.75"/>
</a>
</g>
</g>
<!-- Node13 -->
<g id="Node000013" class="node">
<title>Node13</title>
<g id="a_Node000013"><a xlink:href="class_a_q_n_w_b_1_1_n_w_b_1_1_time_series.html#a02d6ceb1f87f4a76906f00688708b8e9" target="_top" xlink:title=" ">
<polygon fill="white" stroke="#666666" points="2248.75,-54.5 2109,-54.5 2109,-24 2248.75,-24 2248.75,-54.5"/>
<text xml:space="preserve" text-anchor="start" x="2117" y="-41" font-family="Helvetica,sans-Serif" font-size="10.00">AQNWB::NWB::TimeSeries</text>
<text xml:space="preserve" text-anchor="middle" x="2178.88" y="-29.75" font-family="Helvetica,sans-Serif" font-size="10.00">::readControlDescription</text>
</a>
</g>
</g>
<!-- Node12&#45;&gt;Node13 -->
<g id="edge12_Node000012_Node000013" class="edge">
<title>Node12&#45;&gt;Node13</title>
<g id="a_edge12_Node000012_Node000013"><a xlink:title=" ">
<path fill="none" stroke="#63b8ff" d="M2073.29,-39.25C2081.21,-39.25 2089.32,-39.25 2097.37,-39.25"/>
<polygon fill="#63b8ff" stroke="#63b8ff" points="2097.15,-42.75 2107.15,-39.25 2097.15,-35.75 2097.15,-42.75"/>
</a>
</g>
</g>
<!-- Node14 -->
<g id="Node000014" class="node">
<title>Node14</title>
<g id="a_Node000014"><a xlink:href="class_a_q_n_w_b_1_1_n_w_b_1_1_time_series.html#ad02a2c3803891f352dd2496b9ff1887b" target="_top" xlink:title="Convenience function for creating data related attributes.">
<polygon fill="white" stroke="#666666" points="2427.12,-79.5 2287.38,-79.5 2287.38,-49 2427.12,-49 2427.12,-79.5"/>
<text xml:space="preserve" text-anchor="start" x="2295.38" y="-66" font-family="Helvetica,sans-Serif" font-size="10.00">AQNWB::NWB::TimeSeries</text>
<text xml:space="preserve" text-anchor="middle" x="2357.25" y="-54.75" font-family="Helvetica,sans-Serif" font-size="10.00">::createDataAttributes</text>
</a>
</g>
</g>
<!-- Node13&#45;&gt;Node14 -->
<g id="edge13_Node000013_Node000014" class="edge">
<title>Node13&#45;&gt;Node14</title>
<g id="a_edge13_Node000013_Node000014"><a xlink:title=" ">
<path fill="none" stroke="#63b8ff" d="M2249.08,-49.06C2257.83,-50.3 2266.85,-51.58 2275.76,-52.84"/>
<polygon fill="#63b8ff" stroke="#63b8ff" points="2275.07,-56.28 2285.46,-54.22 2276.05,-49.35 2275.07,-56.28"/>
</a>
</g>
</g>
<!-- Node16 -->
<g id="Node000016" class="node">
<title>Node16</title>
<g id="a_Node000016"><a xlink:href="class_a_q_n_w_b_1_1_n_w_b_1_1_time_series.html#a682200d497af6051d0ef9189509084dd" target="_top" xlink:title="Convenience function for creating timestamp related attributes.">
<polygon fill="white" stroke="#666666" points="2429.75,-30.5 2284.75,-30.5 2284.75,0 2429.75,0 2429.75,-30.5"/>
<text xml:space="preserve" text-anchor="start" x="2292.75" y="-17" font-family="Helvetica,sans-Serif" font-size="10.00">AQNWB::NWB::TimeSeries</text>
<text xml:space="preserve" text-anchor="middle" x="2357.25" y="-5.75" font-family="Helvetica,sans-Serif" font-size="10.00">::createTimestampsAttributes</text>
</a>
</g>
</g>
<!-- Node13&#45;&gt;Node16 -->
<g id="edge15_Node000013_Node000016" class="edge">
<title>Node13&#45;&gt;Node16</title>
<g id="a_edge15_Node000013_Node000016"><a xlink:title=" ">
<path fill="none" stroke="#63b8ff" d="M2249.08,-29.83C2256.95,-28.76 2265.03,-27.66 2273.06,-26.57"/>
<polygon fill="#63b8ff" stroke="#63b8ff" points="2273.41,-30.05 2282.84,-25.24 2272.46,-23.12 2273.41,-30.05"/>
</a>
</g>
</g>
<!-- Node15 -->
<g id="Node000015" class="node">
<title>Node15</title>
<g id="a_Node000015"><a xlink:href="namespace_a_q_n_w_b.html#a31983dbaaa85c2e355b9687fc0ef1881" target="_top" xlink:title="Merge two paths into a single path, handling extra trailing and starting &quot;/&quot;.">
<polygon fill="white" stroke="#666666" points="2578.5,-73.88 2465.75,-73.88 2465.75,-54.62 2578.5,-54.62 2578.5,-73.88"/>
<text xml:space="preserve" text-anchor="middle" x="2522.12" y="-60.38" font-family="Helvetica,sans-Serif" font-size="10.00">AQNWB::mergePaths</text>
</a>
</g>
</g>
<!-- Node14&#45;&gt;Node15 -->
<g id="edge14_Node000014_Node000015" class="edge">
<title>Node14&#45;&gt;Node15</title>
<g id="a_edge14_Node000014_Node000015"><a xlink:title=" ">
<path fill="none" stroke="#63b8ff" d="M2427.32,-64.25C2436.13,-64.25 2445.12,-64.25 2453.9,-64.25"/>
<polygon fill="#63b8ff" stroke="#63b8ff" points="2453.75,-67.75 2463.75,-64.25 2453.75,-60.75 2453.75,-67.75"/>
</a>
</g>
</g>
</g>
</svg>

<g id="navigator" transform="translate(0 0)" fill="#404254">
  <rect fill="#f2f5e9" fill-opacity="0.5" stroke="#606060" stroke-width=".5" x="0" y="0" width="60" height="60"/>
  <use id="zoomplus" xlink:href="#zoomPlus" x="17" y="9" onmousedown="handleZoom(evt,'in')"/>
  <use id="zoomminus" xlink:href="#zoomMin" x="42" y="9" onmousedown="handleZoom(evt,'out')"/>
  <use id="reset" xlink:href="#resetDef" x="30" y="36" onmousedown="handleReset()"/>
   <use id="arrowup" xlink:href="#arrowUp" x="0" y="0" onmousedown="handlePan(0,-1)"/>
  <use id="arrowright" xlink:href="#arrowRight" x="0" y="0" onmousedown="handlePan(1,0)"/>
  <use id="arrowdown" xlink:href="#arrowDown" x="0" y="0" onmousedown="handlePan(0,1)"/>
  <use id="arrowleft" xlink:href="#arrowLeft" x="0" y="0" onmousedown="handlePan(-1,0)"/>
</g>
<svg viewBox="0 0 15 15" width="100%" height="30px" preserveAspectRatio="xMaxYMin meet">
 <g id="arrow_out" transform="scale(0.3 0.3)">
  <a xlink:href="class_a_q_n_w_b_1_1_n_w_b_1_1_time_series_af65664bc3483cb62388ccada3b0cb304_cgraph_org.svg" target="_base">
   <rect id="button" ry="5" rx="5" y="6" x="6" height="38" width="38"
        fill="#f2f5e9" fill-opacity="0.5" stroke="#606060" stroke-width="1.0"/>
   <path id="arrow"
     d="M 11.500037,31.436501 C 11.940474,20.09759 22.043105,11.32322 32.158766,21.979434 L 37.068811,17.246167 C 37.068811,17.246167 37.088388,32 37.088388,32 L 22.160133,31.978069 C 22.160133,31.978069 26.997745,27.140456 26.997745,27.140456 C 18.528582,18.264221 13.291696,25.230495 11.500037,31.436501 z"
     style="fill:#404040;"/>
  </a>
 </g>
</svg>

<style type='text/css'>
<![CDATA[
[data-mouse-over-selected='false'] { opacity: 0.7; }
[data-mouse-over-selected='true']  { opacity: 1.0; }
]]>
</style>
<script type="application/ecmascript"><![CDATA[
document.addEventListener('DOMContentLoaded', (event) => {
  highlightEdges();
  highlightAdjacentNodes();
});
]]></script>
</svg>
