<?xml version="1.0" encoding="UTF-8" standalone="no"?>
<!DOCTYPE svg PUBLIC "-//W3C//DTD SVG 1.1//EN"
 "http://www.w3.org/Graphics/SVG/1.1/DTD/svg11.dtd">
<!-- Generated by graphviz version 14.1.2 (20260124.0452)
 -->
<!-- Title: AQNWB::NWB::NWBFile::createFileStructure Pages: 1 -->
<svg width="552pt" height="304pt"
 viewBox="0.00 0.00 552.00 304.00" xmlns="http://www.w3.org/2000/svg" xmlns:xlink="http://www.w3.org/1999/xlink">
<g id="graph0" class="graph" transform="scale(1 1) rotate(0) translate(4 299.64)">
<title>AQNWB::NWB::NWBFile::createFileStructure</title>
<!-- Node1 -->
<g id="Node000001" class="node">
<title>Node1</title>
<g id="a_Node000001"><a xlink:title="Creates the default file structure. Note, this function will fail if the file is in a mode where new ...">
<polygon fill="#999999" stroke="#666666" points="130,-177.5 0,-177.5 0,-147 130,-147 130,-177.5"/>
<text xml:space="preserve" text-anchor="start" x="8" y="-164" font-family="Helvetica,sans-Serif" font-size="10.00">AQNWB::NWB::NWBFile</text>
<text xml:space="preserve" text-anchor="middle" x="65" y="-152.75" font-family="Helvetica,sans-Serif" font-size="10.00">::createFileStructure</text>
</a>
</g>
</g>
<!-- Node2 -->
<g id="Node000002" class="node">
<title>Node2</title>
<g id="a_Node000002"><a xlink:href="class_a_q_n_w_b_1_1_n_w_b_1_1_n_w_b_file.html#aaf2e07b4e912fc34ab052d38f92e6cdd" target="_top" xlink:title="Saves the specification files for the schema.">
<polygon fill="white" stroke="#666666" points="322.62,-263.5 192.62,-263.5 192.62,-233 322.62,-233 322.62,-263.5"/>
<text xml:space="preserve" text-anchor="start" x="200.62" y="-250" font-family="Helvetica,sans-Serif" font-size="10.00">AQNWB::NWB::NWBFile</text>
<text xml:space="preserve" text-anchor="middle" x="257.62" y="-238.75" font-family="Helvetica,sans-Serif" font-size="10.00">::cacheSpecifications</text>
</a>
</g>
</g>
<!-- Node1&#45;&gt;Node2 -->
<g id="edge1_Node000001_Node000002" class="edge">
<title>Node1&#45;&gt;Node2</title>
<g id="a_edge1_Node000001_Node000002"><a xlink:title=" ">
<path fill="none" stroke="#63b8ff" d="M89.92,-177.77C109.73,-190.16 138.92,-207.36 166,-219.25 173.87,-222.71 182.28,-225.96 190.7,-228.94"/>
<polygon fill="#63b8ff" stroke="#63b8ff" points="189.28,-232.16 199.88,-232.08 191.55,-225.53 189.28,-232.16"/>
</a>
</g>
</g>
<!-- Node3 -->
<g id="Node000003" class="node">
<title>Node3</title>
<g id="a_Node000003"><a xlink:href="class_a_q_n_w_b_1_1_n_w_b_1_1_registered_type.html#ab614b1609f536e88ed1f32762dc3894b" target="_top" xlink:title="Get a shared pointer to the IO object.">
<polygon fill="white" stroke="#666666" points="543.75,-284.5 385.25,-284.5 385.25,-254 543.75,-254 543.75,-284.5"/>
<text xml:space="preserve" text-anchor="start" x="393.25" y="-271" font-family="Helvetica,sans-Serif" font-size="10.00">AQNWB::NWB::RegisteredType</text>
<text xml:space="preserve" text-anchor="middle" x="464.5" y="-259.75" font-family="Helvetica,sans-Serif" font-size="10.00">::getIO</text>
</a>
</g>
</g>
<!-- Node1&#45;&gt;Node3 -->
<g id="edge5_Node000001_Node000003" class="edge">
<title>Node1&#45;&gt;Node3</title>
<g id="a_edge5_Node000001_Node000003"><a xlink:title=" ">
<path fill="none" stroke="#63b8ff" d="M74.26,-177.66C88.85,-203.03 121.86,-252.72 166,-272.25 235.82,-303.13 324.18,-297.36 386.41,-286.96"/>
<polygon fill="#63b8ff" stroke="#63b8ff" points="386.98,-290.41 396.22,-285.23 385.76,-283.52 386.98,-290.41"/>
</a>
</g>
</g>
<!-- Node4 -->
<g id="Node000004" class="node">
<title>Node4</title>
<g id="a_Node000004"><a xlink:href="namespace_a_q_n_w_b.html#a31983dbaaa85c2e355b9687fc0ef1881" target="_top" xlink:title="Merge two paths into a single path, handling extra trailing and starting &quot;/&quot;.">
<polygon fill="white" stroke="#666666" points="520.88,-235.88 408.12,-235.88 408.12,-216.62 520.88,-216.62 520.88,-235.88"/>
<text xml:space="preserve" text-anchor="middle" x="464.5" y="-222.38" font-family="Helvetica,sans-Serif" font-size="10.00">AQNWB::mergePaths</text>
</a>
</g>
</g>
<!-- Node1&#45;&gt;Node4 -->
<g id="edge9_Node000001_Node000004" class="edge">
<title>Node1&#45;&gt;Node4</title>
<g id="a_edge9_Node000001_Node000004"><a xlink:title=" ">
<path fill="none" stroke="#63b8ff" d="M127.13,-177.97C139.92,-180.96 153.36,-183.89 166,-186.25 244.69,-200.94 336.05,-212.4 396.55,-219.22"/>
<polygon fill="#63b8ff" stroke="#63b8ff" points="396.02,-222.69 406.35,-220.31 396.8,-215.73 396.02,-222.69"/>
</a>
</g>
</g>
<!-- Node5 -->
<g id="Node000005" class="node">
<title>Node5</title>
<g id="a_Node000005"><a xlink:href="class_a_q_n_w_b_1_1_s_p_e_c_1_1_namespace_registry.html#aceded37c693bb2f6aa21a5945a13557c" target="_top" xlink:title="Get all registered namespaces.">
<polygon fill="white" stroke="#666666" points="349.25,-177.5 166,-177.5 166,-147 349.25,-147 349.25,-177.5"/>
<text xml:space="preserve" text-anchor="start" x="174" y="-164" font-family="Helvetica,sans-Serif" font-size="10.00">AQNWB::SPEC::NamespaceRegistry</text>
<text xml:space="preserve" text-anchor="middle" x="257.62" y="-152.75" font-family="Helvetica,sans-Serif" font-size="10.00">::getAllNamespaces</text>
</a>
</g>
</g>
<!-- Node1&#45;&gt;Node5 -->
<g id="edge4_Node000001_Node000005" class="edge">
<title>Node1&#45;&gt;Node5</title>
<g id="a_edge4_Node000001_Node000005"><a xlink:title=" ">
<path fill="none" stroke="#63b8ff" d="M130.27,-162.25C137.99,-162.25 146,-162.25 154.09,-162.25"/>
<polygon fill="#63b8ff" stroke="#63b8ff" points="154.03,-165.75 164.03,-162.25 154.03,-158.75 154.03,-165.75"/>
</a>
</g>
</g>
<!-- Node6 -->
<g id="Node000006" class="node">
<title>Node6</title>
<g id="a_Node000006"><a xlink:href="class_a_q_n_w_b_1_1_n_w_b_1_1_n_w_b_file.html#a0b44558c283edd9db7d2fcf284c1a5ec" target="_top" xlink:title="Get the schema namespace of the class type.">
<polygon fill="white" stroke="#666666" points="322.62,-128.5 192.62,-128.5 192.62,-98 322.62,-98 322.62,-128.5"/>
<text xml:space="preserve" text-anchor="start" x="200.62" y="-115" font-family="Helvetica,sans-Serif" font-size="10.00">AQNWB::NWB::NWBFile</text>
<text xml:space="preserve" text-anchor="middle" x="257.62" y="-103.75" font-family="Helvetica,sans-Serif" font-size="10.00">::getNamespace</text>
</a>
</g>
</g>
<!-- Node1&#45;&gt;Node6 -->
<g id="edge6_Node000001_Node000006" class="edge">
<title>Node1&#45;&gt;Node6</title>
<g id="a_edge6_Node000001_Node000006"><a xlink:title=" ">
<path fill="none" stroke="#63b8ff" d="M127.1,-146.54C145.4,-141.84 165.64,-136.64 184.57,-131.77"/>
<polygon fill="#63b8ff" stroke="#63b8ff" points="185.26,-135.21 194.08,-129.33 183.52,-128.43 185.26,-135.21"/>
</a>
</g>
</g>
<!-- Node7 -->
<g id="Node000007" class="node">
<title>Node7</title>
<g id="a_Node000007"><a xlink:href="class_a_q_n_w_b_1_1_n_w_b_1_1_n_w_b_file.html#ae22dafcb8cb963103fe0e2b4cbfd5dd8" target="_top" xlink:title="Get the name of the class type.">
<polygon fill="white" stroke="#666666" points="322.62,-79.5 192.62,-79.5 192.62,-49 322.62,-49 322.62,-79.5"/>
<text xml:space="preserve" text-anchor="start" x="200.62" y="-66" font-family="Helvetica,sans-Serif" font-size="10.00">AQNWB::NWB::NWBFile</text>
<text xml:space="preserve" text-anchor="middle" x="257.62" y="-54.75" font-family="Helvetica,sans-Serif" font-size="10.00">::getTypeName</text>
</a>
</g>
</g>
<!-- Node1&#45;&gt;Node7 -->
<g id="edge7_Node000001_Node000007" class="edge">
<title>Node1&#45;&gt;Node7</title>
<g id="a_edge7_Node000001_Node000007"><a xlink:title=" ">
<path fill="none" stroke="#63b8ff" d="M83.16,-146.68C102.14,-130.23 134.26,-104.58 166,-89.25 171.02,-86.83 176.3,-84.61 181.7,-82.58"/>
<polygon fill="#63b8ff" stroke="#63b8ff" points="182.47,-86.02 190.75,-79.41 180.16,-79.41 182.47,-86.02"/>
</a>
</g>
</g>
<!-- Node8 -->
<g id="Node000008" class="node">
<title>Node8</title>
<g id="a_Node000008"><a xlink:href="class_a_q_n_w_b_1_1_s_p_e_c_1_1_namespace_registry.html#a15d9c6f869f0270ad91a2af8067f5a88" target="_top" xlink:title="Get the singleton instance of the NamespaceRegistry.">
<polygon fill="white" stroke="#666666" points="349.25,-30.5 166,-30.5 166,0 349.25,0 349.25,-30.5"/>
<text xml:space="preserve" text-anchor="start" x="174" y="-17" font-family="Helvetica,sans-Serif" font-size="10.00">AQNWB::SPEC::NamespaceRegistry</text>
<text xml:space="preserve" text-anchor="middle" x="257.62" y="-5.75" font-family="Helvetica,sans-Serif" font-size="10.00">::instance</text>
</a>
</g>
</g>
<!-- Node1&#45;&gt;Node8 -->
<g id="edge8_Node000001_Node000008" class="edge">
<title>Node1&#45;&gt;Node8</title>
<g id="a_edge8_Node000001_Node000008"><a xlink:title=" ">
<path fill="none" stroke="#63b8ff" d="M74.52,-146.52C89.5,-120.4 123.07,-68.17 166,-40.25 168.54,-38.6 171.19,-37.05 173.92,-35.61"/>
<polygon fill="#63b8ff" stroke="#63b8ff" points="175.18,-38.89 182.73,-31.46 172.19,-32.55 175.18,-38.89"/>
</a>
</g>
</g>
<!-- Node2&#45;&gt;Node3 -->
<g id="edge2_Node000002_Node000003" class="edge">
<title>Node2&#45;&gt;Node3</title>
<g id="a_edge2_Node000002_Node000003"><a xlink:title=" ">
<path fill="none" stroke="#63b8ff" d="M322.89,-254.84C339.06,-256.49 356.71,-258.3 373.88,-260.06"/>
<polygon fill="#63b8ff" stroke="#63b8ff" points="373.26,-263.52 383.56,-261.06 373.97,-256.55 373.26,-263.52"/>
</a>
</g>
</g>
<!-- Node2&#45;&gt;Node4 -->
<g id="edge3_Node000002_Node000004" class="edge">
<title>Node2&#45;&gt;Node4</title>
<g id="a_edge3_Node000002_Node000004"><a xlink:title=" ">
<path fill="none" stroke="#63b8ff" d="M322.89,-241.35C346.28,-238.84 372.78,-235.99 396.42,-233.45"/>
<polygon fill="#63b8ff" stroke="#63b8ff" points="396.69,-236.94 406.26,-232.4 395.94,-229.98 396.69,-236.94"/>
</a>
</g>
</g>
</g>
</svg>
