<?xml version="1.0" encoding="UTF-8" standalone="no"?>
<!DOCTYPE svg PUBLIC "-//W3C//DTD SVG 1.1//EN"
 "http://www.w3.org/Graphics/SVG/1.1/DTD/svg11.dtd">
<!-- Generated by graphviz version 14.1.2 (20260124.0452)
 -->
<!-- Title: AQNWB::IO::LinkArrayDataSetConfig::validateTarget Pages: 1 -->
<!--zoomable 223 -->

<svg id="main" version="1.1" xmlns="http://www.w3.org/2000/svg" xmlns:xlink="http://www.w3.org/1999/xlink" xml:space="preserve" onload="init(evt)">

<style type="text/css"><![CDATA[
.node, .edge {opacity: 0.7;}
.node.selected, .edge.selected {opacity: 1;}
.edge:hover path { stroke: red; }
.edge:hover polygon { stroke: red; fill: red; }
]]></style>

<defs>
  <circle id="rim" cx="0" cy="0" r="7"/>
  <circle id="rim2" cx="0" cy="0" r="3.5"/>
  <g id="zoomPlus">
    <use xlink:href="#rim" fill="#404040"><set attributeName="fill" to="#808080" begin="zoomplus.mouseover" end="zoomplus.mouseout"/></use>
    <path d="M-4,0h8M0,-4v8" fill="none" stroke="white" stroke-width="1.5" pointer-events="none"/>
  </g>
  <g id="zoomMin">
    <use xlink:href="#rim" fill="#404040"><set attributeName="fill" to="#808080" begin="zoomminus.mouseover" end="zoomminus.mouseout"/></use>
    <path d="M-4,0h8" fill="none" stroke="white" stroke-width="1.5" pointer-events="none"/>
  </g>
  <g id="arrowUp" transform="translate(30 24)">
    <use xlink:href="#rim"/>
    <path pointer-events="none" fill="none" stroke="white" stroke-width="1.5" d="M0,-3.0v7 M-2.5,-0.5L0,-3.0L2.5,-0.5"/>
  </g>
  <g id="arrowRight" transform="rotate(90) translate(36 -43)">
    <use xlink:href="#rim"/>
    <path pointer-events="none" fill="none" stroke="white" stroke-width="1.5" d="M0,-3.0v7 M-2.5,-0.5L0,-3.0L2.5,-0.5"/>
  </g>
  <g id="arrowDown" transform="rotate(180) translate(-30 -48)">
    <use xlink:href="#rim"/>
    <path pointer-events="none" fill="none" stroke="white" stroke-width="1.5" d="M0,-3.0v7 M-2.5,-0.5L0,-3.0L2.5,-0.5"/>
  </g>
  <g id="arrowLeft" transform="rotate(270) translate(-36 17)">
    <use xlink:href="#rim"/>
    <path pointer-events="none" fill="none" stroke="white" stroke-width="1.5" d="M0,-3.0v7 M-2.5,-0.5L0,-3.0L2.5,-0.5"/>
  </g>
  <g id="resetDef">
    <use xlink:href="#rim2" fill="#404040"><set attributeName="fill" to="#808080" begin="reset.mouseover" end="reset.mouseout"/></use>
  </g>
</defs>
<script type="application/ecmascript">
var viewWidth = 501;
var viewHeight = 223;
var sectionId = 'dynsection-12';
</script>
<script type="application/ecmascript" xlink:href="svg.min.js"/>
<svg id="graph" class="graph">
<g id="viewport">
<title>AQNWB::IO::LinkArrayDataSetConfig::validateTarget</title>
<!-- Node1 -->
<g id="Node000001" class="node">
<title>Node1</title>
<g id="a_Node000001"><a xlink:title="Validates the target dataset against expected requirements.">
<polygon fill="#999999" stroke="#666666" points="139,-116.5 0,-116.5 0,-86 139,-86 139,-116.5"/>
<text xml:space="preserve" text-anchor="start" x="8" y="-103" font-family="Helvetica,sans-Serif" font-size="10.00">AQNWB::IO::LinkArrayData</text>
<text xml:space="preserve" text-anchor="middle" x="69.5" y="-91.75" font-family="Helvetica,sans-Serif" font-size="10.00">SetConfig::validateTarget</text>
</a>
</g>
</g>
<!-- Node2 -->
<g id="Node000002" class="node">
<title>Node2</title>
<g id="a_Node000002"><a xlink:href="class_a_q_n_w_b_1_1_i_o_1_1_base_i_o.html#a06b5edf2bbd4c85adcafda13e7903873" target="_top" xlink:title="Checks whether an Attribute exists at the location in the file.">
<polygon fill="white" stroke="#666666" points="306.88,-214.5 191.12,-214.5 191.12,-184 306.88,-184 306.88,-214.5"/>
<text xml:space="preserve" text-anchor="start" x="199.12" y="-201" font-family="Helvetica,sans-Serif" font-size="10.00">AQNWB::IO::BaseIO::</text>
<text xml:space="preserve" text-anchor="middle" x="249" y="-189.75" font-family="Helvetica,sans-Serif" font-size="10.00">attributeExists</text>
</a>
</g>
</g>
<!-- Node1&#45;&gt;Node2 -->
<g id="edge1_Node000001_Node000002" class="edge">
<title>Node1&#45;&gt;Node2</title>
<g id="a_edge1_Node000001_Node000002"><a xlink:title=" ">
<path fill="none" stroke="#63b8ff" d="M89.49,-116.98C109.68,-133.1 143.03,-158.02 175,-174.25 178.45,-176 182.05,-177.68 185.72,-179.27"/>
<polygon fill="#63b8ff" stroke="#63b8ff" points="184.22,-182.43 194.8,-182.96 186.86,-175.95 184.22,-182.43"/>
</a>
</g>
</g>
<!-- Node3 -->
<g id="Node000003" class="node">
<title>Node3</title>
<g id="a_Node000003"><a xlink:href="class_a_q_n_w_b_1_1_i_o_1_1_link_array_data_set_config.html#a9db9ebc82f025b9aef92bf53c5e86146" target="_top" xlink:title="Gets the BaseDataType of the target dataset.">
<polygon fill="white" stroke="#666666" points="323,-165.5 175,-165.5 175,-135 323,-135 323,-165.5"/>
<text xml:space="preserve" text-anchor="start" x="183" y="-152" font-family="Helvetica,sans-Serif" font-size="10.00">AQNWB::IO::LinkArrayData</text>
<text xml:space="preserve" text-anchor="middle" x="249" y="-140.75" font-family="Helvetica,sans-Serif" font-size="10.00">SetConfig::getTargetDataType</text>
</a>
</g>
</g>
<!-- Node1&#45;&gt;Node3 -->
<g id="edge2_Node000001_Node000003" class="edge">
<title>Node1&#45;&gt;Node3</title>
<g id="a_edge2_Node000001_Node000003"><a xlink:title=" ">
<path fill="none" stroke="#63b8ff" d="M127.15,-116.89C144.04,-121.55 162.72,-126.71 180.24,-131.54"/>
<polygon fill="#63b8ff" stroke="#63b8ff" points="178.94,-134.82 189.52,-134.11 180.81,-128.07 178.94,-134.82"/>
</a>
</g>
</g>
<!-- Node5 -->
<g id="Node000005" class="node">
<title>Node5</title>
<g id="a_Node000005"><a xlink:href="class_a_q_n_w_b_1_1_i_o_1_1_link_array_data_set_config.html#a2823f37d4929cb55cc8697a58516a9b4" target="_top" xlink:title="Queries and returns the shape of the linked target dataset.">
<polygon fill="white" stroke="#666666" points="318.5,-116.5 179.5,-116.5 179.5,-86 318.5,-86 318.5,-116.5"/>
<text xml:space="preserve" text-anchor="start" x="187.5" y="-103" font-family="Helvetica,sans-Serif" font-size="10.00">AQNWB::IO::LinkArrayData</text>
<text xml:space="preserve" text-anchor="middle" x="249" y="-91.75" font-family="Helvetica,sans-Serif" font-size="10.00">SetConfig::getTargetShape</text>
</a>
</g>
</g>
<!-- Node1&#45;&gt;Node5 -->
<g id="edge4_Node000001_Node000005" class="edge">
<title>Node1&#45;&gt;Node5</title>
<g id="a_edge4_Node000001_Node000005"><a xlink:title=" ">
<path fill="none" stroke="#63b8ff" d="M139.38,-101.25C148.66,-101.25 158.25,-101.25 167.71,-101.25"/>
<polygon fill="#63b8ff" stroke="#63b8ff" points="167.65,-104.75 177.64,-101.25 167.64,-97.75 167.65,-104.75"/>
</a>
</g>
</g>
<!-- Node7 -->
<g id="Node000007" class="node">
<title>Node7</title>
<g id="a_Node000007"><a xlink:href="namespace_a_q_n_w_b.html#a31983dbaaa85c2e355b9687fc0ef1881" target="_top" xlink:title="Merge two paths into a single path, handling extra trailing and starting &quot;/&quot;.">
<polygon fill="white" stroke="#666666" points="305.38,-67.88 192.62,-67.88 192.62,-48.62 305.38,-48.62 305.38,-67.88"/>
<text xml:space="preserve" text-anchor="middle" x="249" y="-54.38" font-family="Helvetica,sans-Serif" font-size="10.00">AQNWB::mergePaths</text>
</a>
</g>
</g>
<!-- Node1&#45;&gt;Node7 -->
<g id="edge6_Node000001_Node000007" class="edge">
<title>Node1&#45;&gt;Node7</title>
<g id="a_edge6_Node000001_Node000007"><a xlink:title=" ">
<path fill="none" stroke="#63b8ff" d="M135.34,-85.54C155.03,-80.77 176.42,-75.59 195.22,-71.04"/>
<polygon fill="#63b8ff" stroke="#63b8ff" points="195.89,-74.48 204.78,-68.72 194.24,-67.67 195.89,-74.48"/>
</a>
</g>
</g>
<!-- Node8 -->
<g id="Node000008" class="node">
<title>Node8</title>
<g id="a_Node000008"><a xlink:href="class_a_q_n_w_b_1_1_i_o_1_1_link_array_data_set_config.html#a7fccfbd5c0deb82ff9383627d3cf0477" target="_top" xlink:title="Checks if the target path exists in the file. This is a convenience method to check if the link targe...">
<polygon fill="white" stroke="#666666" points="318.5,-30.5 179.5,-30.5 179.5,0 318.5,0 318.5,-30.5"/>
<text xml:space="preserve" text-anchor="start" x="187.5" y="-17" font-family="Helvetica,sans-Serif" font-size="10.00">AQNWB::IO::LinkArrayData</text>
<text xml:space="preserve" text-anchor="middle" x="249" y="-5.75" font-family="Helvetica,sans-Serif" font-size="10.00">SetConfig::targetExists</text>
</a>
</g>
</g>
<!-- Node1&#45;&gt;Node8 -->
<g id="edge7_Node000001_Node000008" class="edge">
<title>Node1&#45;&gt;Node8</title>
<g id="a_edge7_Node000001_Node000008"><a xlink:title=" ">
<path fill="none" stroke="#63b8ff" d="M93.37,-85.7C114.03,-72.14 145.62,-52.6 175,-39.25 178.28,-37.76 181.68,-36.32 185.14,-34.93"/>
<polygon fill="#63b8ff" stroke="#63b8ff" points="186.11,-38.3 194.21,-31.47 183.62,-31.76 186.11,-38.3"/>
</a>
</g>
</g>
<!-- Node4 -->
<g id="Node000004" class="node">
<title>Node4</title>
<g id="a_Node000004"><a xlink:href="class_a_q_n_w_b_1_1_i_o_1_1_base_i_o.html#aa3f2c6871009254b8e3168de14b3c53f" target="_top" xlink:title="Gets the BaseDataType of a dataset or attribute.">
<polygon fill="white" stroke="#666666" points="492.75,-165.5 359,-165.5 359,-135 492.75,-135 492.75,-165.5"/>
<text xml:space="preserve" text-anchor="start" x="367" y="-152" font-family="Helvetica,sans-Serif" font-size="10.00">AQNWB::IO::BaseIO::</text>
<text xml:space="preserve" text-anchor="middle" x="425.88" y="-140.75" font-family="Helvetica,sans-Serif" font-size="10.00">getStorageObjectDataType</text>
</a>
</g>
</g>
<!-- Node3&#45;&gt;Node4 -->
<g id="edge3_Node000003_Node000004" class="edge">
<title>Node3&#45;&gt;Node4</title>
<g id="a_edge3_Node000003_Node000004"><a xlink:title=" ">
<path fill="none" stroke="#63b8ff" d="M323.4,-150.25C331.25,-150.25 339.26,-150.25 347.16,-150.25"/>
<polygon fill="#63b8ff" stroke="#63b8ff" points="347.11,-153.75 357.11,-150.25 347.11,-146.75 347.11,-153.75"/>
</a>
</g>
</g>
<!-- Node6 -->
<g id="Node000006" class="node">
<title>Node6</title>
<g id="a_Node000006"><a xlink:href="class_a_q_n_w_b_1_1_i_o_1_1_base_i_o.html#ade0c2d3b4f9ae88212d948d8c3421f48" target="_top" xlink:title="Returns the size of the dataset or attribute for each dimension.">
<polygon fill="white" stroke="#666666" points="485.62,-116.5 366.12,-116.5 366.12,-86 485.62,-86 485.62,-116.5"/>
<text xml:space="preserve" text-anchor="start" x="374.12" y="-103" font-family="Helvetica,sans-Serif" font-size="10.00">AQNWB::IO::BaseIO::</text>
<text xml:space="preserve" text-anchor="middle" x="425.88" y="-91.75" font-family="Helvetica,sans-Serif" font-size="10.00">getStorageObjectShape</text>
</a>
</g>
</g>
<!-- Node5&#45;&gt;Node6 -->
<g id="edge5_Node000005_Node000006" class="edge">
<title>Node5&#45;&gt;Node6</title>
<g id="a_edge5_Node000005_Node000006"><a xlink:title=" ">
<path fill="none" stroke="#63b8ff" d="M318.86,-101.25C330.48,-101.25 342.55,-101.25 354.21,-101.25"/>
<polygon fill="#63b8ff" stroke="#63b8ff" points="354.18,-104.75 364.18,-101.25 354.18,-97.75 354.18,-104.75"/>
</a>
</g>
</g>
<!-- Node9 -->
<g id="Node000009" class="node">
<title>Node9</title>
<g id="a_Node000009"><a xlink:href="class_a_q_n_w_b_1_1_i_o_1_1_base_i_o.html#a01e6288db37a36dc4a160955e8f5b5b5" target="_top" xlink:title="Checks whether a Dataset, Group, or Link already exists at the location in the file.">
<polygon fill="white" stroke="#666666" points="483.75,-30.5 368,-30.5 368,0 483.75,0 483.75,-30.5"/>
<text xml:space="preserve" text-anchor="start" x="376" y="-17" font-family="Helvetica,sans-Serif" font-size="10.00">AQNWB::IO::BaseIO::</text>
<text xml:space="preserve" text-anchor="middle" x="425.88" y="-5.75" font-family="Helvetica,sans-Serif" font-size="10.00">objectExists</text>
</a>
</g>
</g>
<!-- Node8&#45;&gt;Node9 -->
<g id="edge8_Node000008_Node000009" class="edge">
<title>Node8&#45;&gt;Node9</title>
<g id="a_edge8_Node000008_Node000009"><a xlink:title=" ">
<path fill="none" stroke="#63b8ff" d="M318.86,-15.25C331.23,-15.25 344.12,-15.25 356.47,-15.25"/>
<polygon fill="#63b8ff" stroke="#63b8ff" points="356.12,-18.75 366.12,-15.25 356.12,-11.75 356.12,-18.75"/>
</a>
</g>
</g>
</g>
</svg>

<g id="navigator" transform="translate(0 0)" fill="#404254">
  <rect fill="#f2f5e9" fill-opacity="0.5" stroke="#606060" stroke-width=".5" x="0" y="0" width="60" height="60"/>
  <use id="zoomplus" xlink:href="#zoomPlus" x="17" y="9" onmousedown="handleZoom(evt,'in')"/>
  <use id="zoomminus" xlink:href="#zoomMin" x="42" y="9" onmousedown="handleZoom(evt,'out')"/>
  <use id="reset" xlink:href="#resetDef" x="30" y="36" onmousedown="handleReset()"/>
   <use id="arrowup" xlink:href="#arrowUp" x="0" y="0" onmousedown="handlePan(0,-1)"/>
  <use id="arrowright" xlink:href="#arrowRight" x="0" y="0" onmousedown="handlePan(1,0)"/>
  <use id="arrowdown" xlink:href="#arrowDown" x="0" y="0" onmousedown="handlePan(0,1)"/>
  <use id="arrowleft" xlink:href="#arrowLeft" x="0" y="0" onmousedown="handlePan(-1,0)"/>
</g>
<svg viewBox="0 0 15 15" width="100%" height="30px" preserveAspectRatio="xMaxYMin meet">
 <g id="arrow_out" transform="scale(0.3 0.3)">
  <a xlink:href="class_a_q_n_w_b_1_1_i_o_1_1_link_array_data_set_config_a005446a702308bafc732b3c4b9520a94_cgraph_org.svg" target="_base">
   <rect id="button" ry="5" rx="5" y="6" x="6" height="38" width="38"
        fill="#f2f5e9" fill-opacity="0.5" stroke="#606060" stroke-width="1.0"/>
   <path id="arrow"
     d="M 11.500037,31.436501 C 11.940474,20.09759 22.043105,11.32322 32.158766,21.979434 L 37.068811,17.246167 C 37.068811,17.246167 37.088388,32 37.088388,32 L 22.160133,31.978069 C 22.160133,31.978069 26.997745,27.140456 26.997745,27.140456 C 18.528582,18.264221 13.291696,25.230495 11.500037,31.436501 z"
     style="fill:#404040;"/>
  </a>
 </g>
</svg>

<style type='text/css'>
<![CDATA[
[data-mouse-over-selected='false'] { opacity: 0.7; }
[data-mouse-over-selected='true']  { opacity: 1.0; }
]]>
</style>
<script type="application/ecmascript"><![CDATA[
document.addEventListener('DOMContentLoaded', (event) => {
  highlightEdges();
  highlightAdjacentNodes();
});
]]></script>
</svg>
