<?xml version="1.0" encoding="UTF-8" standalone="no"?>
<!DOCTYPE svg PUBLIC "-//W3C//DTD SVG 1.1//EN"
 "http://www.w3.org/Graphics/SVG/1.1/DTD/svg11.dtd">
<!-- Generated by graphviz version 15.1.0 (20260618.0150)
 -->
<!-- Title: AQNWB::NWB::DurationVectorData::readData Pages: 1 -->
<svg width="547pt" height="39pt"
 viewBox="0.00 0.00 547.00 39.00" xmlns="http://www.w3.org/2000/svg" xmlns:xlink="http://www.w3.org/1999/xlink">
<g id="graph0" class="graph" transform="scale(1 1) rotate(0) translate(4 34.5)">
<title>AQNWB::NWB::DurationVectorData::readData</title>
<!-- Node1 -->
<g id="Node000001" class="node">
<title>Node1</title>
<g id="a_Node000001"><a xlink:title=" ">
<polygon fill="#999999" stroke="#666666" points="538.5,-30.5 383,-30.5 383,0 538.5,0 538.5,-30.5"/>
<text xml:space="preserve" text-anchor="start" x="391" y="-17" font-family="Helvetica,sans-Serif" font-size="10.00">AQNWB::NWB::DurationVector</text>
<text xml:space="preserve" text-anchor="middle" x="460.75" y="-5.75" font-family="Helvetica,sans-Serif" font-size="10.00">Data::readData</text>
</a>
</g>
</g>
<!-- Node2 -->
<g id="Node000002" class="node">
<title>Node2</title>
<g id="a_Node000002"><a xlink:href="class_a_q_n_w_b_1_1_n_w_b_1_1_duration_vector_data.html#a9c20fe74a7a838071c2848b533d26fbb" target="_top" xlink:title=" ">
<polygon fill="white" stroke="#666666" points="347,-30.5 191.5,-30.5 191.5,0 347,0 347,-30.5"/>
<text xml:space="preserve" text-anchor="start" x="199.5" y="-17" font-family="Helvetica,sans-Serif" font-size="10.00">AQNWB::NWB::DurationVector</text>
<text xml:space="preserve" text-anchor="middle" x="269.25" y="-5.75" font-family="Helvetica,sans-Serif" font-size="10.00">Data::readResolution</text>
</a>
</g>
</g>
<!-- Node1&#45;&gt;Node2 -->
<g id="edge1_Node000001_Node000002" class="edge">
<title>Node1&#45;&gt;Node2</title>
<g id="a_edge1_Node000001_Node000002"><a xlink:title=" ">
<path fill="none" stroke="#63b8ff" d="M371.36,-15.25C363.31,-15.25 355.2,-15.25 347.26,-15.25"/>
<polygon fill="#63b8ff" stroke="#63b8ff" points="371.16,-18.75 381.16,-15.25 371.16,-11.75 371.16,-18.75"/>
</a>
</g>
</g>
<!-- Node3 -->
<g id="Node000003" class="node">
<title>Node3</title>
<g id="a_Node000003"><a xlink:href="class_a_q_n_w_b_1_1_n_w_b_1_1_duration_vector_data.html#ac30347a728b2a335fa6ee43941a315fd" target="_top" xlink:title=" ">
<polygon fill="white" stroke="#666666" points="155.5,-30.5 0,-30.5 0,0 155.5,0 155.5,-30.5"/>
<text xml:space="preserve" text-anchor="start" x="8" y="-17" font-family="Helvetica,sans-Serif" font-size="10.00">AQNWB::NWB::DurationVector</text>
<text xml:space="preserve" text-anchor="middle" x="77.75" y="-5.75" font-family="Helvetica,sans-Serif" font-size="10.00">Data::readUnit</text>
</a>
</g>
</g>
<!-- Node2&#45;&gt;Node3 -->
<g id="edge2_Node000002_Node000003" class="edge">
<title>Node2&#45;&gt;Node3</title>
<g id="a_edge2_Node000002_Node000003"><a xlink:title=" ">
<path fill="none" stroke="#63b8ff" d="M179.86,-15.25C171.81,-15.25 163.7,-15.25 155.76,-15.25"/>
<polygon fill="#63b8ff" stroke="#63b8ff" points="179.66,-18.75 189.66,-15.25 179.66,-11.75 179.66,-18.75"/>
</a>
</g>
</g>
</g>
</svg>
