<?xml version="1.0" encoding="UTF-8" standalone="no"?>
<!DOCTYPE svg PUBLIC "-//W3C//DTD SVG 1.1//EN"
 "http://www.w3.org/Graphics/SVG/1.1/DTD/svg11.dtd">
<!-- Generated by graphviz version 12.1.0 (20240811.2233)
 -->
<!-- Title: AQNWB::NWB::Container::initialize Pages: 1 -->
<svg width="695pt" height="180pt"
 viewBox="0.00 0.00 694.50 179.50" xmlns="http://www.w3.org/2000/svg" xmlns:xlink="http://www.w3.org/1999/xlink">
<g id="graph0" class="graph" transform="scale(1 1) rotate(0) translate(4 175.5)">
<title>AQNWB::NWB::Container::initialize</title>
<!-- Node1 -->
<g id="Node000001" class="node">
<title>Node1</title>
<g id="a_Node000001"><a xlink:title="Initialize the container.">
<polygon fill="#999999" stroke="#666666" points="686.5,-103.5 554.25,-103.5 554.25,-73 686.5,-73 686.5,-103.5"/>
<text text-anchor="start" x="562.25" y="-90" font-family="Helvetica,sans-Serif" font-size="10.00">AQNWB::NWB::Container</text>
<text text-anchor="middle" x="620.38" y="-78.75" font-family="Helvetica,sans-Serif" font-size="10.00">::initialize</text>
</a>
</g>
</g>
<!-- Node2 -->
<g id="Node000002" class="node">
<title>Node2</title>
<g id="a_Node000002"><a xlink:href="class_a_q_n_w_b_1_1_n_w_b_1_1_device.html#a098d0a2980c918e19988f58a4c46edfb" target="_top" xlink:title="Initializes the device by creating NWB related attributes and writing the manufactor and description ...">
<polygon fill="white" stroke="#666666" points="305.75,-171.5 184.75,-171.5 184.75,-141 305.75,-141 305.75,-171.5"/>
<text text-anchor="start" x="192.75" y="-158" font-family="Helvetica,sans-Serif" font-size="10.00">AQNWB::NWB::Device</text>
<text text-anchor="middle" x="245.25" y="-146.75" font-family="Helvetica,sans-Serif" font-size="10.00">::initialize</text>
</a>
</g>
</g>
<!-- Node1&#45;&gt;Node2 -->
<g id="edge1_Node000001_Node000002" class="edge">
<title>Node1&#45;&gt;Node2</title>
<g id="a_edge1_Node000001_Node000002"><a xlink:title=" ">
<path fill="none" stroke="#63b8ff" d="M584.32,-109.35C565.43,-119.64 541.31,-131.1 518.25,-137.25 447.12,-156.21 362.05,-159.14 306.21,-158.53"/>
<polygon fill="#63b8ff" stroke="#63b8ff" points="585.91,-112.47 592.92,-104.53 582.49,-106.36 585.91,-112.47"/>
</a>
</g>
</g>
<!-- Node4 -->
<g id="Node000004" class="node">
<title>Node4</title>
<g id="a_Node000004"><a xlink:href="class_a_q_n_w_b_1_1_n_w_b_1_1_dynamic_table.html#a1a860166b728cc0c841631aaf92052f2" target="_top" xlink:title="Initializes the DynamicTable object by creating NWB attributes and column names.">
<polygon fill="white" stroke="#666666" points="515.62,-128.5 363.12,-128.5 363.12,-98 515.62,-98 515.62,-128.5"/>
<text text-anchor="start" x="371.12" y="-115" font-family="Helvetica,sans-Serif" font-size="10.00">AQNWB::NWB::DynamicTable</text>
<text text-anchor="middle" x="439.38" y="-103.75" font-family="Helvetica,sans-Serif" font-size="10.00">::initialize</text>
</a>
</g>
</g>
<!-- Node1&#45;&gt;Node4 -->
<g id="edge3_Node000001_Node000004" class="edge">
<title>Node1&#45;&gt;Node4</title>
<g id="a_edge3_Node000001_Node000004"><a xlink:title=" ">
<path fill="none" stroke="#63b8ff" d="M542.81,-98.94C533.89,-100.19 524.8,-101.46 515.89,-102.7"/>
<polygon fill="#63b8ff" stroke="#63b8ff" points="543.07,-102.44 552.49,-97.59 542.11,-95.51 543.07,-102.44"/>
</a>
</g>
</g>
<!-- Node6 -->
<g id="Node000006" class="node">
<title>Node6</title>
<g id="a_Node000006"><a xlink:href="class_a_q_n_w_b_1_1_n_w_b_1_1_electrode_group.html#a55c55ad12966365b31ba6b292db9cf92" target="_top" xlink:title="Initializes the ElectrodeGroup object.">
<polygon fill="white" stroke="#666666" points="518.25,-79.5 360.5,-79.5 360.5,-49 518.25,-49 518.25,-79.5"/>
<text text-anchor="start" x="368.5" y="-66" font-family="Helvetica,sans-Serif" font-size="10.00">AQNWB::NWB::ElectrodeGroup</text>
<text text-anchor="middle" x="439.38" y="-54.75" font-family="Helvetica,sans-Serif" font-size="10.00">::initialize</text>
</a>
</g>
</g>
<!-- Node1&#45;&gt;Node6 -->
<g id="edge6_Node000001_Node000006" class="edge">
<title>Node1&#45;&gt;Node6</title>
<g id="a_edge6_Node000001_Node000006"><a xlink:title=" ">
<path fill="none" stroke="#63b8ff" d="M542.81,-77.98C534.81,-76.91 526.67,-75.82 518.66,-74.75"/>
<polygon fill="#63b8ff" stroke="#63b8ff" points="542.12,-81.42 552.49,-79.28 543.05,-74.48 542.12,-81.42"/>
</a>
</g>
</g>
<!-- Node7 -->
<g id="Node000007" class="node">
<title>Node7</title>
<g id="a_Node000007"><a xlink:href="class_a_q_n_w_b_1_1_n_w_b_1_1_time_series.html#a927fb3e7da8259f175bdb19820e52471" target="_top" xlink:title="Initializes the TimeSeries by creating NWB related attributes and writing the description and comment...">
<polygon fill="white" stroke="#666666" points="509.25,-30.5 369.5,-30.5 369.5,0 509.25,0 509.25,-30.5"/>
<text text-anchor="start" x="377.5" y="-17" font-family="Helvetica,sans-Serif" font-size="10.00">AQNWB::NWB::TimeSeries</text>
<text text-anchor="middle" x="439.38" y="-5.75" font-family="Helvetica,sans-Serif" font-size="10.00">::initialize</text>
</a>
</g>
</g>
<!-- Node1&#45;&gt;Node7 -->
<g id="edge8_Node000001_Node000007" class="edge">
<title>Node1&#45;&gt;Node7</title>
<g id="a_edge8_Node000001_Node000007"><a xlink:title=" ">
<path fill="none" stroke="#63b8ff" d="M579.01,-67.58C560.71,-58.6 538.64,-48.32 518.25,-40.25 510.06,-37.01 501.28,-33.87 492.66,-30.98"/>
<polygon fill="#63b8ff" stroke="#63b8ff" points="577.44,-70.71 587.95,-72.02 580.55,-64.44 577.44,-70.71"/>
</a>
</g>
</g>
<!-- Node3 -->
<g id="Node000003" class="node">
<title>Node3</title>
<g id="a_Node000003"><a xlink:href="class_a_q_n_w_b_1_1_n_w_b_1_1_n_w_b_file.html#ae0f515c91174c210a7aaad32a14c4f10" target="_top" xlink:title="Create ElectricalSeries objects to record data into. Created objects are stored in recordingContainer...">
<polygon fill="white" stroke="#666666" points="130,-122.5 0,-122.5 0,-92 130,-92 130,-122.5"/>
<text text-anchor="start" x="8" y="-109" font-family="Helvetica,sans-Serif" font-size="10.00">AQNWB::NWB::NWBFile</text>
<text text-anchor="middle" x="65" y="-97.75" font-family="Helvetica,sans-Serif" font-size="10.00">::createElectricalSeries</text>
</a>
</g>
</g>
<!-- Node2&#45;&gt;Node3 -->
<g id="edge2_Node000002_Node000003" class="edge">
<title>Node2&#45;&gt;Node3</title>
<g id="a_edge2_Node000002_Node000003"><a xlink:title=" ">
<path fill="none" stroke="#63b8ff" d="M176.59,-137.65C159.02,-132.82 140.25,-127.66 123.27,-122.99"/>
<polygon fill="#63b8ff" stroke="#63b8ff" points="175.33,-140.93 185.9,-140.21 177.19,-134.18 175.33,-140.93"/>
</a>
</g>
</g>
<!-- Node5 -->
<g id="Node000005" class="node">
<title>Node5</title>
<g id="a_Node000005"><a xlink:href="class_a_q_n_w_b_1_1_n_w_b_1_1_electrode_table.html#af125b9b5d7a79d414b75998c6b52156b" target="_top" xlink:title="Initializes the ElectrodeTable.">
<polygon fill="white" stroke="#666666" points="322.62,-122.5 167.88,-122.5 167.88,-92 322.62,-92 322.62,-122.5"/>
<text text-anchor="start" x="175.88" y="-109" font-family="Helvetica,sans-Serif" font-size="10.00">AQNWB::NWB::ElectrodeTable</text>
<text text-anchor="middle" x="245.25" y="-97.75" font-family="Helvetica,sans-Serif" font-size="10.00">::initialize</text>
</a>
</g>
</g>
<!-- Node4&#45;&gt;Node5 -->
<g id="edge4_Node000004_Node000005" class="edge">
<title>Node4&#45;&gt;Node5</title>
<g id="a_edge4_Node000004_Node000005"><a xlink:title=" ">
<path fill="none" stroke="#63b8ff" d="M351.32,-110.53C341.91,-110.24 332.38,-109.94 323.1,-109.65"/>
<polygon fill="#63b8ff" stroke="#63b8ff" points="351.1,-114.03 361.21,-110.84 351.32,-107.03 351.1,-114.03"/>
</a>
</g>
</g>
<!-- Node5&#45;&gt;Node3 -->
<g id="edge5_Node000005_Node000003" class="edge">
<title>Node5&#45;&gt;Node3</title>
<g id="a_edge5_Node000005_Node000003"><a xlink:title=" ">
<path fill="none" stroke="#63b8ff" d="M156.17,-107.25C147.44,-107.25 138.69,-107.25 130.26,-107.25"/>
<polygon fill="#63b8ff" stroke="#63b8ff" points="156.11,-110.75 166.11,-107.25 156.11,-103.75 156.11,-110.75"/>
</a>
</g>
</g>
<!-- Node6&#45;&gt;Node3 -->
<g id="edge7_Node000006_Node000003" class="edge">
<title>Node6&#45;&gt;Node3</title>
<g id="a_edge7_Node000006_Node000003"><a xlink:title=" ">
<path fill="none" stroke="#63b8ff" d="M348.73,-66.76C295.41,-69.18 226.56,-73.94 166,-83.25 152.41,-85.34 137.95,-88.34 124.37,-91.52"/>
<polygon fill="#63b8ff" stroke="#63b8ff" points="348.86,-70.26 358.7,-66.33 348.56,-63.27 348.86,-70.26"/>
</a>
</g>
</g>
<!-- Node8 -->
<g id="Node000008" class="node">
<title>Node8</title>
<g id="a_Node000008"><a xlink:href="class_a_q_n_w_b_1_1_n_w_b_1_1_electrical_series.html#a59ecd5ceca61b33a77a11579369e596e" target="_top" xlink:title="Initializes the Electrical Series.">
<polygon fill="white" stroke="#666666" points="324.5,-30.5 166,-30.5 166,0 324.5,0 324.5,-30.5"/>
<text text-anchor="start" x="174" y="-17" font-family="Helvetica,sans-Serif" font-size="10.00">AQNWB::NWB::ElectricalSeries</text>
<text text-anchor="middle" x="245.25" y="-5.75" font-family="Helvetica,sans-Serif" font-size="10.00">::initialize</text>
</a>
</g>
</g>
<!-- Node7&#45;&gt;Node8 -->
<g id="edge9_Node000007_Node000008" class="edge">
<title>Node7&#45;&gt;Node8</title>
<g id="a_edge9_Node000007_Node000008"><a xlink:title=" ">
<path fill="none" stroke="#63b8ff" d="M357.81,-15.25C346.94,-15.25 335.8,-15.25 324.97,-15.25"/>
<polygon fill="#63b8ff" stroke="#63b8ff" points="357.5,-18.75 367.5,-15.25 357.5,-11.75 357.5,-18.75"/>
</a>
</g>
</g>
</g>
</svg>
