<?xml version="1.0" encoding="UTF-8" standalone="no"?>
<!DOCTYPE svg PUBLIC "-//W3C//DTD SVG 1.1//EN"
 "http://www.w3.org/Graphics/SVG/1.1/DTD/svg11.dtd">
<!-- Generated by graphviz version 14.1.0 (20251206.1807)
 -->
<!-- Title: AQNWB::NWB::DataTyped::fromData Pages: 1 -->
<svg width="708pt" height="57pt"
 viewBox="0.00 0.00 708.00 57.00" xmlns="http://www.w3.org/2000/svg" xmlns:xlink="http://www.w3.org/1999/xlink">
<g id="graph0" class="graph" transform="scale(1 1) rotate(0) translate(4 52.5)">
<title>AQNWB::NWB::DataTyped::fromData</title>
<!-- Node1 -->
<g id="Node000001" class="node">
<title>Node1</title>
<g id="a_Node000001"><a xlink:title="Create a DataTyped object from a Data object.">
<polygon fill="#999999" stroke="#666666" points="137.5,-30.5 0,-30.5 0,0 137.5,0 137.5,-30.5"/>
<text xml:space="preserve" text-anchor="start" x="8" y="-17" font-family="Helvetica,sans-Serif" font-size="10.00">AQNWB::NWB::DataTyped</text>
<text xml:space="preserve" text-anchor="middle" x="68.75" y="-5.75" font-family="Helvetica,sans-Serif" font-size="10.00">::fromData</text>
</a>
</g>
</g>
<!-- Node2 -->
<g id="Node000002" class="node">
<title>Node2</title>
<g id="a_Node000002"><a xlink:href="class_a_q_n_w_b_1_1_n_w_b_1_1_data_typed.html#a960ffd9d6060c5acef094e54273446cf" target="_top" xlink:title="Factor method to create a DataTyped object.">
<polygon fill="white" stroke="#666666" points="311,-30.5 173.5,-30.5 173.5,0 311,0 311,-30.5"/>
<text xml:space="preserve" text-anchor="start" x="181.5" y="-17" font-family="Helvetica,sans-Serif" font-size="10.00">AQNWB::NWB::DataTyped</text>
<text xml:space="preserve" text-anchor="middle" x="242.25" y="-5.75" font-family="Helvetica,sans-Serif" font-size="10.00">::create</text>
</a>
</g>
</g>
<!-- Node1&#45;&gt;Node2 -->
<g id="edge1_Node000001_Node000002" class="edge">
<title>Node1&#45;&gt;Node2</title>
<g id="a_edge1_Node000001_Node000002"><a xlink:title=" ">
<path fill="none" stroke="#63b8ff" d="M137.53,-15.25C145.49,-15.25 153.66,-15.25 161.75,-15.25"/>
<polygon fill="#63b8ff" stroke="#63b8ff" points="161.6,-18.75 171.6,-15.25 161.6,-11.75 161.6,-18.75"/>
</a>
</g>
</g>
<!-- Node3 -->
<g id="Node000003" class="node">
<title>Node3</title>
<g id="a_Node000003"><a xlink:href="class_a_q_n_w_b_1_1_n_w_b_1_1_registered_type.html#a6f7d3d6d30763215c823452176ed876a" target="_top" xlink:title="Create an instance of a registered subclass by name.">
<polygon fill="white" stroke="#666666" points="505.5,-30.5 347,-30.5 347,0 505.5,0 505.5,-30.5"/>
<text xml:space="preserve" text-anchor="start" x="355" y="-17" font-family="Helvetica,sans-Serif" font-size="10.00">AQNWB::NWB::RegisteredType</text>
<text xml:space="preserve" text-anchor="middle" x="426.25" y="-5.75" font-family="Helvetica,sans-Serif" font-size="10.00">::create</text>
</a>
</g>
</g>
<!-- Node2&#45;&gt;Node3 -->
<g id="edge2_Node000002_Node000003" class="edge">
<title>Node2&#45;&gt;Node3</title>
<g id="a_edge2_Node000002_Node000003"><a xlink:title=" ">
<path fill="none" stroke="#63b8ff" d="M311.28,-15.25C319.1,-15.25 327.17,-15.25 335.22,-15.25"/>
<polygon fill="#63b8ff" stroke="#63b8ff" points="335.07,-18.75 345.07,-15.25 335.07,-11.75 335.07,-18.75"/>
</a>
</g>
</g>
<!-- Node3&#45;&gt;Node3 -->
<g id="edge3_Node000003_Node000003" class="edge">
<title>Node3&#45;&gt;Node3</title>
<g id="a_edge3_Node000003_Node000003"><a xlink:title=" ">
<path fill="none" stroke="#63b8ff" d="M393.65,-30.99C386.99,-40.06 397.86,-48.5 426.25,-48.5 441.78,-48.5 452.06,-45.97 457.11,-42.2"/>
<polygon fill="#63b8ff" stroke="#63b8ff" points="460.54,-42.9 458.62,-32.48 453.62,-41.82 460.54,-42.9"/>
</a>
</g>
</g>
<!-- Node4 -->
<g id="Node000004" class="node">
<title>Node4</title>
<g id="a_Node000004"><a xlink:href="class_a_q_n_w_b_1_1_n_w_b_1_1_registered_type.html#ac83aa589b9c3ab5a00bab462e58fdbd5" target="_top" xlink:title="Get the factory map for creating instances of subclasses.">
<polygon fill="white" stroke="#666666" points="700,-30.5 541.5,-30.5 541.5,0 700,0 700,-30.5"/>
<text xml:space="preserve" text-anchor="start" x="549.5" y="-17" font-family="Helvetica,sans-Serif" font-size="10.00">AQNWB::NWB::RegisteredType</text>
<text xml:space="preserve" text-anchor="middle" x="620.75" y="-5.75" font-family="Helvetica,sans-Serif" font-size="10.00">::getFactoryMap</text>
</a>
</g>
</g>
<!-- Node3&#45;&gt;Node4 -->
<g id="edge4_Node000003_Node000004" class="edge">
<title>Node3&#45;&gt;Node4</title>
<g id="a_edge4_Node000003_Node000004"><a xlink:title=" ">
<path fill="none" stroke="#63b8ff" d="M505.82,-15.25C513.74,-15.25 521.82,-15.25 529.84,-15.25"/>
<polygon fill="#63b8ff" stroke="#63b8ff" points="529.6,-18.75 539.6,-15.25 529.6,-11.75 529.6,-18.75"/>
</a>
</g>
</g>
</g>
</svg>
