<?xml version="1.0" encoding="UTF-8" standalone="no"?>
<!DOCTYPE svg PUBLIC "-//W3C//DTD SVG 1.1//EN"
 "http://www.w3.org/Graphics/SVG/1.1/DTD/svg11.dtd">
<!-- Generated by graphviz version 14.1.0 (20251206.1807)
 -->
<!-- Title: AQNWB::NWB::VectorData::createReferenceVectorData Pages: 1 -->
<svg width="872pt" height="81pt"
 viewBox="0.00 0.00 872.00 81.00" xmlns="http://www.w3.org/2000/svg" xmlns:xlink="http://www.w3.org/1999/xlink">
<g id="graph0" class="graph" transform="scale(1 1) rotate(0) translate(4 76.88)">
<title>AQNWB::NWB::VectorData::createReferenceVectorData</title>
<!-- Node1 -->
<g id="Node000001" class="node">
<title>Node1</title>
<g id="a_Node000001"><a xlink:title="Create a VectorData object with a reference dataset.">
<polygon fill="#999999" stroke="#666666" points="143.5,-60.5 0,-60.5 0,-30 143.5,-30 143.5,-60.5"/>
<text xml:space="preserve" text-anchor="start" x="8" y="-47" font-family="Helvetica,sans-Serif" font-size="10.00">AQNWB::NWB::VectorData</text>
<text xml:space="preserve" text-anchor="middle" x="71.75" y="-35.75" font-family="Helvetica,sans-Serif" font-size="10.00">::createReferenceVectorData</text>
</a>
</g>
</g>
<!-- Node2 -->
<g id="Node000002" class="node">
<title>Node2</title>
<g id="a_Node000002"><a xlink:href="class_a_q_n_w_b_1_1_n_w_b_1_1_vector_data.html#a1896987cb4ab1c22d10ca3a3ff94f60b" target="_top" xlink:title=" ">
<polygon fill="white" stroke="#666666" points="319.25,-60.5 179.5,-60.5 179.5,-30 319.25,-30 319.25,-60.5"/>
<text xml:space="preserve" text-anchor="start" x="187.5" y="-47" font-family="Helvetica,sans-Serif" font-size="10.00">AQNWB::NWB::VectorData</text>
<text xml:space="preserve" text-anchor="middle" x="249.38" y="-35.75" font-family="Helvetica,sans-Serif" font-size="10.00">::create</text>
</a>
</g>
</g>
<!-- Node1&#45;&gt;Node2 -->
<g id="edge1_Node000001_Node000002" class="edge">
<title>Node1&#45;&gt;Node2</title>
<g id="a_edge1_Node000001_Node000002"><a xlink:title=" ">
<path fill="none" stroke="#63b8ff" d="M143.93,-45.25C151.72,-45.25 159.7,-45.25 167.6,-45.25"/>
<polygon fill="#63b8ff" stroke="#63b8ff" points="167.57,-48.75 177.57,-45.25 167.57,-41.75 167.57,-48.75"/>
</a>
</g>
</g>
<!-- Node3 -->
<g id="Node000003" class="node">
<title>Node3</title>
<g id="a_Node000003"><a xlink:href="class_a_q_n_w_b_1_1_n_w_b_1_1_data.html#ac0a68f39a709b9096ce797bce18c668f" target="_top" xlink:title="Constructor.">
<polygon fill="white" stroke="#666666" points="669.25,-54.88 531,-54.88 531,-35.62 669.25,-35.62 669.25,-54.88"/>
<text xml:space="preserve" text-anchor="middle" x="600.12" y="-41.38" font-family="Helvetica,sans-Serif" font-size="10.00">AQNWB::NWB::Data::Data</text>
</a>
</g>
</g>
<!-- Node2&#45;&gt;Node3 -->
<g id="edge2_Node000002_Node000003" class="edge">
<title>Node2&#45;&gt;Node3</title>
<g id="a_edge2_Node000002_Node000003"><a xlink:title=" ">
<path fill="none" stroke="#63b8ff" d="M319.67,-54.31C331.52,-55.53 343.72,-56.59 355.25,-57.25 417.26,-60.79 432.99,-60.81 495,-57.25 502.93,-56.79 511.19,-56.15 519.42,-55.38"/>
<polygon fill="#63b8ff" stroke="#63b8ff" points="519.5,-58.89 529.1,-54.43 518.81,-51.93 519.5,-58.89"/>
</a>
</g>
</g>
<!-- Node5 -->
<g id="Node000005" class="node">
<title>Node5</title>
<g id="a_Node000005"><a xlink:href="class_a_q_n_w_b_1_1_n_w_b_1_1_vector_data.html#aaf127dfd1e590307b872ea785d578316" target="_top" xlink:title="Constructor.">
<polygon fill="white" stroke="#666666" points="495,-30.5 355.25,-30.5 355.25,0 495,0 495,-30.5"/>
<text xml:space="preserve" text-anchor="start" x="363.25" y="-17" font-family="Helvetica,sans-Serif" font-size="10.00">AQNWB::NWB::VectorData</text>
<text xml:space="preserve" text-anchor="middle" x="425.12" y="-5.75" font-family="Helvetica,sans-Serif" font-size="10.00">::VectorData</text>
</a>
</g>
</g>
<!-- Node2&#45;&gt;Node5 -->
<g id="edge5_Node000002_Node000005" class="edge">
<title>Node2&#45;&gt;Node5</title>
<g id="a_edge5_Node000002_Node000005"><a xlink:title=" ">
<path fill="none" stroke="#63b8ff" d="M319.54,-33.31C327.46,-31.94 335.57,-30.54 343.62,-29.15"/>
<polygon fill="#63b8ff" stroke="#63b8ff" points="344.16,-32.61 353.42,-27.46 342.97,-25.71 344.16,-32.61"/>
</a>
</g>
</g>
<!-- Node3&#45;&gt;Node3 -->
<g id="edge3_Node000003_Node000003" class="edge">
<title>Node3&#45;&gt;Node3</title>
<g id="a_edge3_Node000003_Node000003"><a xlink:title=" ">
<path fill="none" stroke="#63b8ff" d="M572.73,-55.16C560.23,-63.77 569.36,-72.88 600.12,-72.88 617.43,-72.88 627.89,-69.99 631.5,-65.94"/>
<polygon fill="#63b8ff" stroke="#63b8ff" points="634.8,-64.75 628.05,-56.58 628.23,-67.18 634.8,-64.75"/>
</a>
</g>
</g>
<!-- Node4 -->
<g id="Node000004" class="node">
<title>Node4</title>
<g id="a_Node000004"><a xlink:href="class_a_q_n_w_b_1_1_n_w_b_1_1_registered_type.html#aa1e04074725b7331d725bbda8156bc2d" target="_top" xlink:title="Constructor.">
<polygon fill="white" stroke="#666666" points="863.75,-60.5 705.25,-60.5 705.25,-30 863.75,-30 863.75,-60.5"/>
<text xml:space="preserve" text-anchor="start" x="713.25" y="-47" font-family="Helvetica,sans-Serif" font-size="10.00">AQNWB::NWB::RegisteredType</text>
<text xml:space="preserve" text-anchor="middle" x="784.5" y="-35.75" font-family="Helvetica,sans-Serif" font-size="10.00">::RegisteredType</text>
</a>
</g>
</g>
<!-- Node3&#45;&gt;Node4 -->
<g id="edge4_Node000003_Node000004" class="edge">
<title>Node3&#45;&gt;Node4</title>
<g id="a_edge4_Node000003_Node000004"><a xlink:title=" ">
<path fill="none" stroke="#63b8ff" d="M669.55,-45.25C677.39,-45.25 685.46,-45.25 693.51,-45.25"/>
<polygon fill="#63b8ff" stroke="#63b8ff" points="693.36,-48.75 703.36,-45.25 693.36,-41.75 693.36,-48.75"/>
</a>
</g>
</g>
<!-- Node5&#45;&gt;Node3 -->
<g id="edge6_Node000005_Node000003" class="edge">
<title>Node5&#45;&gt;Node3</title>
<g id="a_edge6_Node000005_Node000003"><a xlink:title=" ">
<path fill="none" stroke="#63b8ff" d="M495.49,-27.28C506.77,-29.24 518.46,-31.26 529.74,-33.22"/>
<polygon fill="#63b8ff" stroke="#63b8ff" points="528.91,-36.63 539.37,-34.89 530.11,-29.73 528.91,-36.63"/>
</a>
</g>
</g>
<!-- Node5&#45;&gt;Node5 -->
<g id="edge7_Node000005_Node000005" class="edge">
<title>Node5&#45;&gt;Node5</title>
<g id="a_edge7_Node000005_Node000005"><a xlink:title=" ">
<path fill="none" stroke="#63b8ff" d="M394.11,-30.99C387.79,-40.06 398.12,-48.5 425.12,-48.5 439.89,-48.5 449.67,-45.97 454.47,-42.2"/>
<polygon fill="#63b8ff" stroke="#63b8ff" points="457.91,-42.89 455.91,-32.48 450.98,-41.86 457.91,-42.89"/>
</a>
</g>
</g>
</g>
</svg>
