<?xml version="1.0" encoding="UTF-8" standalone="no"?>
<!DOCTYPE svg PUBLIC "-//W3C//DTD SVG 1.1//EN"
 "http://www.w3.org/Graphics/SVG/1.1/DTD/svg11.dtd">
<!-- Generated by graphviz version 12.1.1 (20240910.0053)
 -->
<!-- Title: AQNWB::NWB::ElectrodeTable::finalize Pages: 1 -->
<svg width="699pt" height="88pt"
 viewBox="0.00 0.00 699.00 87.50" xmlns="http://www.w3.org/2000/svg" xmlns:xlink="http://www.w3.org/1999/xlink">
<g id="graph0" class="graph" transform="scale(1 1) rotate(0) translate(4 83.5)">
<title>AQNWB::NWB::ElectrodeTable::finalize</title>
<!-- Node1 -->
<g id="Node000001" class="node">
<title>Node1</title>
<g id="a_Node000001"><a xlink:title="Finalizes the ElectrodeTable.">
<polygon fill="#999999" stroke="#666666" points="154.75,-54.5 0,-54.5 0,-24 154.75,-24 154.75,-54.5"/>
<text text-anchor="start" x="8" y="-41" font-family="Helvetica,sans-Serif" font-size="10.00">AQNWB::NWB::ElectrodeTable</text>
<text text-anchor="middle" x="77.38" y="-29.75" font-family="Helvetica,sans-Serif" font-size="10.00">::finalize</text>
</a>
</g>
</g>
<!-- Node2 -->
<g id="Node000002" class="node">
<title>Node2</title>
<g id="a_Node000002"><a xlink:href="class_a_q_n_w_b_1_1_n_w_b_1_1_dynamic_table.html#a76fea09d6ebe8047d7fe9878f49888d9" target="_top" xlink:title="Adds a column of vector string data to the table.">
<polygon fill="white" stroke="#666666" points="343.25,-79.5 190.75,-79.5 190.75,-49 343.25,-49 343.25,-79.5"/>
<text text-anchor="start" x="198.75" y="-66" font-family="Helvetica,sans-Serif" font-size="10.00">AQNWB::NWB::DynamicTable</text>
<text text-anchor="middle" x="267" y="-54.75" font-family="Helvetica,sans-Serif" font-size="10.00">::addColumn</text>
</a>
</g>
</g>
<!-- Node1&#45;&gt;Node2 -->
<g id="edge1_Node000001_Node000002" class="edge">
<title>Node1&#45;&gt;Node2</title>
<g id="a_edge1_Node000001_Node000002"><a xlink:title=" ">
<path fill="none" stroke="#63b8ff" d="M155.23,-49.49C163.14,-50.54 171.22,-51.62 179.23,-52.69"/>
<polygon fill="#63b8ff" stroke="#63b8ff" points="178.6,-56.14 188.98,-53.99 179.53,-49.2 178.6,-56.14"/>
</a>
</g>
</g>
<!-- Node5 -->
<g id="Node000005" class="node">
<title>Node5</title>
<g id="a_Node000005"><a xlink:href="class_a_q_n_w_b_1_1_n_w_b_1_1_dynamic_table.html#a8156a75027331f019d0ffa22389e6d8d" target="_top" xlink:title="Adds a column of element identifiers to the table.">
<polygon fill="white" stroke="#666666" points="343.25,-30.5 190.75,-30.5 190.75,0 343.25,0 343.25,-30.5"/>
<text text-anchor="start" x="198.75" y="-17" font-family="Helvetica,sans-Serif" font-size="10.00">AQNWB::NWB::DynamicTable</text>
<text text-anchor="middle" x="267" y="-5.75" font-family="Helvetica,sans-Serif" font-size="10.00">::setRowIDs</text>
</a>
</g>
</g>
<!-- Node1&#45;&gt;Node5 -->
<g id="edge4_Node000001_Node000005" class="edge">
<title>Node1&#45;&gt;Node5</title>
<g id="a_edge4_Node000001_Node000005"><a xlink:title=" ">
<path fill="none" stroke="#63b8ff" d="M155.23,-29.42C163.14,-28.41 171.22,-27.37 179.23,-26.35"/>
<polygon fill="#63b8ff" stroke="#63b8ff" points="179.5,-29.84 188.98,-25.1 178.61,-22.9 179.5,-29.84"/>
</a>
</g>
</g>
<!-- Node3 -->
<g id="Node000003" class="node">
<title>Node3</title>
<g id="a_Node000003"><a xlink:href="class_a_q_n_w_b_1_1_base_data_type.html#a18d42dba7074fb4cdac771deef6c051b" target="_top" xlink:title="Accessor for string with specified size.">
<polygon fill="white" stroke="#666666" points="530.25,-73.88 379.25,-73.88 379.25,-54.62 530.25,-54.62 530.25,-73.88"/>
<text text-anchor="middle" x="454.75" y="-60.38" font-family="Helvetica,sans-Serif" font-size="10.00">AQNWB::BaseDataType::STR</text>
</a>
</g>
</g>
<!-- Node2&#45;&gt;Node3 -->
<g id="edge2_Node000002_Node000003" class="edge">
<title>Node2&#45;&gt;Node3</title>
<g id="a_edge2_Node000002_Node000003"><a xlink:title=" ">
<path fill="none" stroke="#63b8ff" d="M343.55,-64.25C351.47,-64.25 359.56,-64.25 367.59,-64.25"/>
<polygon fill="#63b8ff" stroke="#63b8ff" points="367.35,-67.75 377.35,-64.25 367.35,-60.75 367.35,-67.75"/>
</a>
</g>
</g>
<!-- Node4 -->
<g id="Node000004" class="node">
<title>Node4</title>
<g id="a_Node000004"><a xlink:href="class_a_q_n_w_b_1_1_base_data_type.html#abb1e4b6b662308e48b6b4a7ad989d157" target="_top" xlink:title="Constructs a BaseDataType object with the specified type and size.">
<polygon fill="white" stroke="#666666" points="691,-79.5 566.25,-79.5 566.25,-49 691,-49 691,-79.5"/>
<text text-anchor="start" x="574.25" y="-66" font-family="Helvetica,sans-Serif" font-size="10.00">AQNWB::BaseDataType</text>
<text text-anchor="middle" x="628.62" y="-54.75" font-family="Helvetica,sans-Serif" font-size="10.00">::BaseDataType</text>
</a>
</g>
</g>
<!-- Node3&#45;&gt;Node4 -->
<g id="edge3_Node000003_Node000004" class="edge">
<title>Node3&#45;&gt;Node4</title>
<g id="a_edge3_Node000003_Node000004"><a xlink:title=" ">
<path fill="none" stroke="#63b8ff" d="M530.64,-64.25C538.54,-64.25 546.57,-64.25 554.45,-64.25"/>
<polygon fill="#63b8ff" stroke="#63b8ff" points="554.35,-67.75 564.35,-64.25 554.35,-60.75 554.35,-67.75"/>
</a>
</g>
</g>
</g>
</svg>
