<?xml version="1.0" encoding="UTF-8" standalone="no"?>
<!DOCTYPE svg PUBLIC "-//W3C//DTD SVG 1.1//EN"
 "http://www.w3.org/Graphics/SVG/1.1/DTD/svg11.dtd">
<!-- Generated by graphviz version 14.1.0 (20251206.1807)
 -->
<!-- Title: AQNWB::NWB::TimeSeries::recordTimestamps Pages: 1 -->
<svg width="1783pt" height="179pt"
 viewBox="0.00 0.00 1783.00 179.00" xmlns="http://www.w3.org/2000/svg" xmlns:xlink="http://www.w3.org/1999/xlink">
<g id="graph0" class="graph" transform="scale(1 1) rotate(0) translate(4 174.5)">
<title>AQNWB::NWB::TimeSeries::recordTimestamps</title>
<!-- Node1 -->
<g id="Node000001" class="node">
<title>Node1</title>
<g id="a_Node000001"><a xlink:title=" ">
<polygon fill="#999999" stroke="#666666" points="1774.75,-103.5 1635,-103.5 1635,-73 1774.75,-73 1774.75,-103.5"/>
<text xml:space="preserve" text-anchor="start" x="1643" y="-90" font-family="Helvetica,sans-Serif" font-size="10.00">AQNWB::NWB::TimeSeries</text>
<text xml:space="preserve" text-anchor="middle" x="1704.88" y="-78.75" font-family="Helvetica,sans-Serif" font-size="10.00">::recordTimestamps</text>
</a>
</g>
</g>
<!-- Node2 -->
<g id="Node000002" class="node">
<title>Node2</title>
<g id="a_Node000002"><a xlink:href="class_a_q_n_w_b_1_1_n_w_b_1_1_time_series.html#a055a5a6a5b9bebbd3f517cdb59ebd65a" target="_top" xlink:title=" ">
<polygon fill="white" stroke="#666666" points="1586.62,-152.5 1446.88,-152.5 1446.88,-122 1586.62,-122 1586.62,-152.5"/>
<text xml:space="preserve" text-anchor="start" x="1454.88" y="-139" font-family="Helvetica,sans-Serif" font-size="10.00">AQNWB::NWB::TimeSeries</text>
<text xml:space="preserve" text-anchor="middle" x="1516.75" y="-127.75" font-family="Helvetica,sans-Serif" font-size="10.00">::readStartingTimeUnit</text>
</a>
</g>
</g>
<!-- Node1&#45;&gt;Node2 -->
<g id="edge1_Node000001_Node000002" class="edge">
<title>Node1&#45;&gt;Node2</title>
<g id="a_edge1_Node000001_Node000002"><a xlink:title=" ">
<path fill="none" stroke="#63b8ff" d="M1633.24,-106.84C1614.83,-111.69 1595.17,-116.87 1577.39,-121.55"/>
<polygon fill="#63b8ff" stroke="#63b8ff" points="1633.97,-110.27 1642.75,-104.34 1632.19,-103.5 1633.97,-110.27"/>
</a>
</g>
</g>
<!-- Node11 -->
<g id="Node000011" class="node">
<title>Node11</title>
<g id="a_Node000011"><a xlink:href="class_a_q_n_w_b_1_1_n_w_b_1_1_annotation_series.html#a02132ab3ba47c34556ea08abcfbf70bc" target="_top" xlink:title="Writes a channel to an AnnotationSeries dataset.">
<polygon fill="white" stroke="#666666" points="1599,-103.5 1434.5,-103.5 1434.5,-73 1599,-73 1599,-103.5"/>
<text xml:space="preserve" text-anchor="start" x="1442.5" y="-90" font-family="Helvetica,sans-Serif" font-size="10.00">AQNWB::NWB::AnnotationSeries</text>
<text xml:space="preserve" text-anchor="middle" x="1516.75" y="-78.75" font-family="Helvetica,sans-Serif" font-size="10.00">::writeAnnotation</text>
</a>
</g>
</g>
<!-- Node1&#45;&gt;Node11 -->
<g id="edge11_Node000001_Node000011" class="edge">
<title>Node1&#45;&gt;Node11</title>
<g id="a_edge11_Node000001_Node000011"><a xlink:title=" ">
<path fill="none" stroke="#63b8ff" d="M1623.14,-88.25C1615.26,-88.25 1607.26,-88.25 1599.37,-88.25"/>
<polygon fill="#63b8ff" stroke="#63b8ff" points="1623.06,-91.75 1633.06,-88.25 1623.06,-84.75 1623.06,-91.75"/>
</a>
</g>
</g>
<!-- Node12 -->
<g id="Node000012" class="node">
<title>Node12</title>
<g id="a_Node000012"><a xlink:href="class_a_q_n_w_b_1_1_n_w_b_1_1_time_series.html#a33c3c764fdf8a5db861beeabc48d78e7" target="_top" xlink:title="Writes a timeseries data block to the file.">
<polygon fill="white" stroke="#666666" points="1586.62,-54.5 1446.88,-54.5 1446.88,-24 1586.62,-24 1586.62,-54.5"/>
<text xml:space="preserve" text-anchor="start" x="1454.88" y="-41" font-family="Helvetica,sans-Serif" font-size="10.00">AQNWB::NWB::TimeSeries</text>
<text xml:space="preserve" text-anchor="middle" x="1516.75" y="-29.75" font-family="Helvetica,sans-Serif" font-size="10.00">::writeData</text>
</a>
</g>
</g>
<!-- Node1&#45;&gt;Node12 -->
<g id="edge12_Node000001_Node000012" class="edge">
<title>Node1&#45;&gt;Node12</title>
<g id="a_edge12_Node000001_Node000012"><a xlink:title=" ">
<path fill="none" stroke="#63b8ff" d="M1633.24,-69.66C1614.83,-64.81 1595.17,-59.63 1577.39,-54.95"/>
<polygon fill="#63b8ff" stroke="#63b8ff" points="1632.19,-73 1642.75,-72.16 1633.97,-66.23 1632.19,-73"/>
</a>
</g>
</g>
<!-- Node3 -->
<g id="Node000003" class="node">
<title>Node3</title>
<g id="a_Node000003"><a xlink:href="class_a_q_n_w_b_1_1_n_w_b_1_1_time_series.html#af32a022bd96207ee5eb2b26ac6ae8d2e" target="_top" xlink:title=" ">
<polygon fill="white" stroke="#666666" points="1384.25,-152.5 1244.5,-152.5 1244.5,-122 1384.25,-122 1384.25,-152.5"/>
<text xml:space="preserve" text-anchor="start" x="1252.5" y="-139" font-family="Helvetica,sans-Serif" font-size="10.00">AQNWB::NWB::TimeSeries</text>
<text xml:space="preserve" text-anchor="middle" x="1314.38" y="-127.75" font-family="Helvetica,sans-Serif" font-size="10.00">::readStartingTimeRate</text>
</a>
</g>
</g>
<!-- Node2&#45;&gt;Node3 -->
<g id="edge2_Node000002_Node000003" class="edge">
<title>Node2&#45;&gt;Node3</title>
<g id="a_edge2_Node000002_Node000003"><a xlink:title=" ">
<path fill="none" stroke="#63b8ff" d="M1435.08,-137.25C1418.36,-137.25 1400.88,-137.25 1384.62,-137.25"/>
<polygon fill="#63b8ff" stroke="#63b8ff" points="1435,-140.75 1445,-137.25 1435,-133.75 1435,-140.75"/>
</a>
</g>
</g>
<!-- Node4 -->
<g id="Node000004" class="node">
<title>Node4</title>
<g id="a_Node000004"><a xlink:href="class_a_q_n_w_b_1_1_n_w_b_1_1_time_series.html#a3a85691477ada29012a8cb1a2ab4fb5e" target="_top" xlink:title=" ">
<polygon fill="white" stroke="#666666" points="1194.25,-152.5 1054.5,-152.5 1054.5,-122 1194.25,-122 1194.25,-152.5"/>
<text xml:space="preserve" text-anchor="start" x="1062.5" y="-139" font-family="Helvetica,sans-Serif" font-size="10.00">AQNWB::NWB::TimeSeries</text>
<text xml:space="preserve" text-anchor="middle" x="1124.38" y="-127.75" font-family="Helvetica,sans-Serif" font-size="10.00">::readStartingTime</text>
</a>
</g>
</g>
<!-- Node3&#45;&gt;Node4 -->
<g id="edge3_Node000003_Node000004" class="edge">
<title>Node3&#45;&gt;Node4</title>
<g id="a_edge3_Node000003_Node000004"><a xlink:title=" ">
<path fill="none" stroke="#63b8ff" d="M1232.69,-137.25C1220.06,-137.25 1207.1,-137.25 1194.75,-137.25"/>
<polygon fill="#63b8ff" stroke="#63b8ff" points="1232.66,-140.75 1242.66,-137.25 1232.66,-133.75 1232.66,-140.75"/>
</a>
</g>
</g>
<!-- Node5 -->
<g id="Node000005" class="node">
<title>Node5</title>
<g id="a_Node000005"><a xlink:href="class_a_q_n_w_b_1_1_n_w_b_1_1_time_series.html#ade7280dcb98b4ce03104a3b9b7ee89d5" target="_top" xlink:title=" ">
<polygon fill="white" stroke="#666666" points="1018.5,-152.5 878.75,-152.5 878.75,-122 1018.5,-122 1018.5,-152.5"/>
<text xml:space="preserve" text-anchor="start" x="886.75" y="-139" font-family="Helvetica,sans-Serif" font-size="10.00">AQNWB::NWB::TimeSeries</text>
<text xml:space="preserve" text-anchor="middle" x="948.62" y="-127.75" font-family="Helvetica,sans-Serif" font-size="10.00">::readDataContinuity</text>
</a>
</g>
</g>
<!-- Node4&#45;&gt;Node5 -->
<g id="edge4_Node000004_Node000005" class="edge">
<title>Node4&#45;&gt;Node5</title>
<g id="a_edge4_Node000004_Node000005"><a xlink:title=" ">
<path fill="none" stroke="#63b8ff" d="M1042.91,-137.25C1034.87,-137.25 1026.75,-137.25 1018.84,-137.25"/>
<polygon fill="#63b8ff" stroke="#63b8ff" points="1042.69,-140.75 1052.69,-137.25 1042.69,-133.75 1042.69,-140.75"/>
</a>
</g>
</g>
<!-- Node6 -->
<g id="Node000006" class="node">
<title>Node6</title>
<g id="a_Node000006"><a xlink:href="class_a_q_n_w_b_1_1_n_w_b_1_1_time_series.html#aada7da514e40b99b1b7ff897c92f5b2d" target="_top" xlink:title=" ">
<polygon fill="white" stroke="#666666" points="842.75,-152.5 703,-152.5 703,-122 842.75,-122 842.75,-152.5"/>
<text xml:space="preserve" text-anchor="start" x="711" y="-139" font-family="Helvetica,sans-Serif" font-size="10.00">AQNWB::NWB::TimeSeries</text>
<text xml:space="preserve" text-anchor="middle" x="772.88" y="-127.75" font-family="Helvetica,sans-Serif" font-size="10.00">::readDataUnit</text>
</a>
</g>
</g>
<!-- Node5&#45;&gt;Node6 -->
<g id="edge5_Node000005_Node000006" class="edge">
<title>Node5&#45;&gt;Node6</title>
<g id="a_edge5_Node000005_Node000006"><a xlink:title=" ">
<path fill="none" stroke="#63b8ff" d="M867.16,-137.25C859.12,-137.25 851,-137.25 843.09,-137.25"/>
<polygon fill="#63b8ff" stroke="#63b8ff" points="866.94,-140.75 876.94,-137.25 866.94,-133.75 866.94,-140.75"/>
</a>
</g>
</g>
<!-- Node7 -->
<g id="Node000007" class="node">
<title>Node7</title>
<g id="a_Node000007"><a xlink:href="class_a_q_n_w_b_1_1_n_w_b_1_1_time_series.html#a05f88b4ef3d51fd24e79f8f61df60b5c" target="_top" xlink:title=" ">
<polygon fill="white" stroke="#666666" points="667,-152.5 527.25,-152.5 527.25,-122 667,-122 667,-152.5"/>
<text xml:space="preserve" text-anchor="start" x="535.25" y="-139" font-family="Helvetica,sans-Serif" font-size="10.00">AQNWB::NWB::TimeSeries</text>
<text xml:space="preserve" text-anchor="middle" x="597.12" y="-127.75" font-family="Helvetica,sans-Serif" font-size="10.00">::readDataResolution</text>
</a>
</g>
</g>
<!-- Node6&#45;&gt;Node7 -->
<g id="edge6_Node000006_Node000007" class="edge">
<title>Node6&#45;&gt;Node7</title>
<g id="a_edge6_Node000006_Node000007"><a xlink:title=" ">
<path fill="none" stroke="#63b8ff" d="M691.41,-137.25C683.37,-137.25 675.25,-137.25 667.34,-137.25"/>
<polygon fill="#63b8ff" stroke="#63b8ff" points="691.19,-140.75 701.19,-137.25 691.19,-133.75 691.19,-140.75"/>
</a>
</g>
</g>
<!-- Node8 -->
<g id="Node000008" class="node">
<title>Node8</title>
<g id="a_Node000008"><a xlink:href="class_a_q_n_w_b_1_1_n_w_b_1_1_time_series.html#a64808096931f82dbd378b2c21679ba03" target="_top" xlink:title=" ">
<polygon fill="white" stroke="#666666" points="491.25,-152.5 351.5,-152.5 351.5,-122 491.25,-122 491.25,-152.5"/>
<text xml:space="preserve" text-anchor="start" x="359.5" y="-139" font-family="Helvetica,sans-Serif" font-size="10.00">AQNWB::NWB::TimeSeries</text>
<text xml:space="preserve" text-anchor="middle" x="421.38" y="-127.75" font-family="Helvetica,sans-Serif" font-size="10.00">::readDataOffset</text>
</a>
</g>
</g>
<!-- Node7&#45;&gt;Node8 -->
<g id="edge7_Node000007_Node000008" class="edge">
<title>Node7&#45;&gt;Node8</title>
<g id="a_edge7_Node000007_Node000008"><a xlink:title=" ">
<path fill="none" stroke="#63b8ff" d="M515.66,-137.25C507.62,-137.25 499.5,-137.25 491.59,-137.25"/>
<polygon fill="#63b8ff" stroke="#63b8ff" points="515.44,-140.75 525.44,-137.25 515.44,-133.75 515.44,-140.75"/>
</a>
</g>
</g>
<!-- Node9 -->
<g id="Node000009" class="node">
<title>Node9</title>
<g id="a_Node000009"><a xlink:href="class_a_q_n_w_b_1_1_n_w_b_1_1_time_series.html#a32e11a8254db9fad8682fc8d8d118370" target="_top" xlink:title=" ">
<polygon fill="white" stroke="#666666" points="315.5,-152.5 175.75,-152.5 175.75,-122 315.5,-122 315.5,-152.5"/>
<text xml:space="preserve" text-anchor="start" x="183.75" y="-139" font-family="Helvetica,sans-Serif" font-size="10.00">AQNWB::NWB::TimeSeries</text>
<text xml:space="preserve" text-anchor="middle" x="245.62" y="-127.75" font-family="Helvetica,sans-Serif" font-size="10.00">::readDataConversion</text>
</a>
</g>
</g>
<!-- Node8&#45;&gt;Node9 -->
<g id="edge8_Node000008_Node000009" class="edge">
<title>Node8&#45;&gt;Node9</title>
<g id="a_edge8_Node000008_Node000009"><a xlink:title=" ">
<path fill="none" stroke="#63b8ff" d="M339.91,-137.25C331.87,-137.25 323.75,-137.25 315.84,-137.25"/>
<polygon fill="#63b8ff" stroke="#63b8ff" points="339.69,-140.75 349.69,-137.25 339.69,-133.75 339.69,-140.75"/>
</a>
</g>
</g>
<!-- Node10 -->
<g id="Node000010" class="node">
<title>Node10</title>
<g id="a_Node000010"><a xlink:href="class_a_q_n_w_b_1_1_n_w_b_1_1_time_series.html#a185cdbb22cb299862e950576a6c9ecab" target="_top" xlink:title=" ">
<polygon fill="white" stroke="#666666" points="139.75,-152.5 0,-152.5 0,-122 139.75,-122 139.75,-152.5"/>
<text xml:space="preserve" text-anchor="start" x="8" y="-139" font-family="Helvetica,sans-Serif" font-size="10.00">AQNWB::NWB::TimeSeries</text>
<text xml:space="preserve" text-anchor="middle" x="69.88" y="-127.75" font-family="Helvetica,sans-Serif" font-size="10.00">::readData</text>
</a>
</g>
</g>
<!-- Node9&#45;&gt;Node10 -->
<g id="edge9_Node000009_Node000010" class="edge">
<title>Node9&#45;&gt;Node10</title>
<g id="a_edge9_Node000009_Node000010"><a xlink:title=" ">
<path fill="none" stroke="#63b8ff" d="M164.16,-137.25C156.12,-137.25 148,-137.25 140.09,-137.25"/>
<polygon fill="#63b8ff" stroke="#63b8ff" points="163.94,-140.75 173.94,-137.25 163.94,-133.75 163.94,-140.75"/>
</a>
</g>
</g>
<!-- Node10&#45;&gt;Node10 -->
<g id="edge10_Node000010_Node000010" class="edge">
<title>Node10&#45;&gt;Node10</title>
<g id="a_edge10_Node000010_Node000010"><a xlink:title=" ">
<path fill="none" stroke="#63b8ff" d="M99.35,-164.2C94.53,-167.97 84.7,-170.5 69.88,-170.5 42.76,-170.5 32.38,-162.06 38.73,-152.99"/>
<polygon fill="#63b8ff" stroke="#63b8ff" points="102.78,-164.89 100.8,-154.48 95.86,-163.86 102.78,-164.89"/>
</a>
</g>
</g>
<!-- Node13 -->
<g id="Node000013" class="node">
<title>Node13</title>
<g id="a_Node000013"><a xlink:href="class_a_q_n_w_b_1_1_n_w_b_1_1_electrical_series.html#abd499ff69952a61324f86034ea91111b" target="_top" xlink:title="Writes a channel to an ElectricalSeries dataset.">
<polygon fill="white" stroke="#666666" points="1393.62,-79.5 1235.12,-79.5 1235.12,-49 1393.62,-49 1393.62,-79.5"/>
<text xml:space="preserve" text-anchor="start" x="1243.12" y="-66" font-family="Helvetica,sans-Serif" font-size="10.00">AQNWB::NWB::ElectricalSeries</text>
<text xml:space="preserve" text-anchor="middle" x="1314.38" y="-54.75" font-family="Helvetica,sans-Serif" font-size="10.00">::writeChannel</text>
</a>
</g>
</g>
<!-- Node12&#45;&gt;Node13 -->
<g id="edge13_Node000012_Node000013" class="edge">
<title>Node12&#45;&gt;Node13</title>
<g id="a_edge13_Node000012_Node000013"><a xlink:title=" ">
<path fill="none" stroke="#63b8ff" d="M1435.21,-49.3C1421.59,-51 1407.46,-52.76 1393.89,-54.45"/>
<polygon fill="#63b8ff" stroke="#63b8ff" points="1435.52,-52.79 1445.01,-48.08 1434.65,-45.84 1435.52,-52.79"/>
</a>
</g>
</g>
<!-- Node14 -->
<g id="Node000014" class="node">
<title>Node14</title>
<g id="a_Node000014"><a xlink:href="class_a_q_n_w_b_1_1_n_w_b_1_1_spike_event_series.html#a5cfdd0f6bfdf9cec7e43219fb606a7e1" target="_top" xlink:title="Write a single spike series event.">
<polygon fill="white" stroke="#666666" points="1398.5,-30.5 1230.25,-30.5 1230.25,0 1398.5,0 1398.5,-30.5"/>
<text xml:space="preserve" text-anchor="start" x="1238.25" y="-17" font-family="Helvetica,sans-Serif" font-size="10.00">AQNWB::NWB::SpikeEventSeries</text>
<text xml:space="preserve" text-anchor="middle" x="1314.38" y="-5.75" font-family="Helvetica,sans-Serif" font-size="10.00">::writeSpike</text>
</a>
</g>
</g>
<!-- Node12&#45;&gt;Node14 -->
<g id="edge14_Node000012_Node000014" class="edge">
<title>Node12&#45;&gt;Node14</title>
<g id="a_edge14_Node000012_Node000014"><a xlink:title=" ">
<path fill="none" stroke="#63b8ff" d="M1435.17,-29.6C1423.19,-28.16 1410.82,-26.68 1398.78,-25.24"/>
<polygon fill="#63b8ff" stroke="#63b8ff" points="1434.66,-33.06 1445.01,-30.78 1435.5,-26.11 1434.66,-33.06"/>
</a>
</g>
</g>
</g>
</svg>
