<?xml version="1.0" encoding="UTF-8" standalone="no"?>
<!DOCTYPE svg PUBLIC "-//W3C//DTD SVG 1.1//EN"
 "http://www.w3.org/Graphics/SVG/1.1/DTD/svg11.dtd">
<!-- Generated by graphviz version 12.1.1 (20240910.0053)
 -->
<!-- Title: AQNWB::NWB::Container::getPath Pages: 1 -->
<svg width="539pt" height="137pt"
 viewBox="0.00 0.00 539.00 136.50" xmlns="http://www.w3.org/2000/svg" xmlns:xlink="http://www.w3.org/1999/xlink">
<g id="graph0" class="graph" transform="scale(1 1) rotate(0) translate(4 132.5)">
<title>AQNWB::NWB::Container::getPath</title>
<!-- Node1 -->
<g id="Node000001" class="node">
<title>Node1</title>
<g id="a_Node000001"><a xlink:title="Gets the path of the container.">
<polygon fill="#999999" stroke="#666666" points="531,-103.5 398.75,-103.5 398.75,-73 531,-73 531,-103.5"/>
<text text-anchor="start" x="406.75" y="-90" font-family="Helvetica,sans-Serif" font-size="10.00">AQNWB::NWB::Container</text>
<text text-anchor="middle" x="464.88" y="-78.75" font-family="Helvetica,sans-Serif" font-size="10.00">::getPath</text>
</a>
</g>
</g>
<!-- Node2 -->
<g id="Node000002" class="node">
<title>Node2</title>
<g id="a_Node000002"><a xlink:href="class_a_q_n_w_b_1_1_n_w_b_1_1_electrical_series.html#a59ecd5ceca61b33a77a11579369e596e" target="_top" xlink:title="Initializes the Electrical Series.">
<polygon fill="white" stroke="#666666" points="362.75,-128.5 204.25,-128.5 204.25,-98 362.75,-98 362.75,-128.5"/>
<text text-anchor="start" x="212.25" y="-115" font-family="Helvetica,sans-Serif" font-size="10.00">AQNWB::NWB::ElectricalSeries</text>
<text text-anchor="middle" x="283.5" y="-103.75" font-family="Helvetica,sans-Serif" font-size="10.00">::initialize</text>
</a>
</g>
</g>
<!-- Node1&#45;&gt;Node2 -->
<g id="edge1_Node000001_Node000002" class="edge">
<title>Node1&#45;&gt;Node2</title>
<g id="a_edge1_Node000001_Node000002"><a xlink:title=" ">
<path fill="none" stroke="#63b8ff" d="M387.15,-98.94C379.13,-100.06 370.98,-101.2 362.94,-102.32"/>
<polygon fill="#63b8ff" stroke="#63b8ff" points="387.43,-102.44 396.86,-97.59 386.47,-95.5 387.43,-102.44"/>
</a>
</g>
</g>
<!-- Node4 -->
<g id="Node000004" class="node">
<title>Node4</title>
<g id="a_Node000004"><a xlink:href="class_a_q_n_w_b_1_1_n_w_b_1_1_electrode_group.html#a55c55ad12966365b31ba6b292db9cf92" target="_top" xlink:title="Initializes the ElectrodeGroup object.">
<polygon fill="white" stroke="#666666" points="362.38,-79.5 204.62,-79.5 204.62,-49 362.38,-49 362.38,-79.5"/>
<text text-anchor="start" x="212.62" y="-66" font-family="Helvetica,sans-Serif" font-size="10.00">AQNWB::NWB::ElectrodeGroup</text>
<text text-anchor="middle" x="283.5" y="-54.75" font-family="Helvetica,sans-Serif" font-size="10.00">::initialize</text>
</a>
</g>
</g>
<!-- Node1&#45;&gt;Node4 -->
<g id="edge3_Node000001_Node000004" class="edge">
<title>Node1&#45;&gt;Node4</title>
<g id="a_edge3_Node000001_Node000004"><a xlink:title=" ">
<path fill="none" stroke="#63b8ff" d="M387.05,-77.97C378.96,-76.89 370.74,-75.79 362.64,-74.7"/>
<polygon fill="#63b8ff" stroke="#63b8ff" points="386.48,-81.43 396.85,-79.28 387.41,-74.49 386.48,-81.43"/>
</a>
</g>
</g>
<!-- Node3 -->
<g id="Node000003" class="node">
<title>Node3</title>
<g id="a_Node000003"><a xlink:href="class_a_q_n_w_b_1_1_n_w_b_1_1_spike_event_series.html#a7d3c4e9c731f330c2c2eda928f9c453f" target="_top" xlink:title="Initializes the Electrical Series.">
<polygon fill="white" stroke="#666666" points="168.25,-128.5 0,-128.5 0,-98 168.25,-98 168.25,-128.5"/>
<text text-anchor="start" x="8" y="-115" font-family="Helvetica,sans-Serif" font-size="10.00">AQNWB::NWB::SpikeEventSeries</text>
<text text-anchor="middle" x="84.12" y="-103.75" font-family="Helvetica,sans-Serif" font-size="10.00">::initialize</text>
</a>
</g>
</g>
<!-- Node2&#45;&gt;Node3 -->
<g id="edge2_Node000002_Node000003" class="edge">
<title>Node2&#45;&gt;Node3</title>
<g id="a_edge2_Node000002_Node000003"><a xlink:title=" ">
<path fill="none" stroke="#63b8ff" d="M192.67,-113.25C184.66,-113.25 176.57,-113.25 168.61,-113.25"/>
<polygon fill="#63b8ff" stroke="#63b8ff" points="192.41,-116.75 202.41,-113.25 192.41,-109.75 192.41,-116.75"/>
</a>
</g>
</g>
<!-- Node5 -->
<g id="Node000005" class="node">
<title>Node5</title>
<g id="a_Node000005"><a xlink:href="class_a_q_n_w_b_1_1_n_w_b_1_1_n_w_b_file.html#a5cb71b4353e1d5d764a6f5cf02a53981" target="_top" xlink:title="Create ElectricalSeries objects to record data into. Created objects are stored in recordingContainer...">
<polygon fill="white" stroke="#666666" points="149.12,-79.5 19.12,-79.5 19.12,-49 149.12,-49 149.12,-79.5"/>
<text text-anchor="start" x="27.12" y="-66" font-family="Helvetica,sans-Serif" font-size="10.00">AQNWB::NWB::NWBFile</text>
<text text-anchor="middle" x="84.12" y="-54.75" font-family="Helvetica,sans-Serif" font-size="10.00">::createElectricalSeries</text>
</a>
</g>
</g>
<!-- Node4&#45;&gt;Node5 -->
<g id="edge4_Node000004_Node000005" class="edge">
<title>Node4&#45;&gt;Node5</title>
<g id="a_edge4_Node000004_Node000005"><a xlink:title=" ">
<path fill="none" stroke="#63b8ff" d="M193.03,-64.25C178.31,-64.25 163.31,-64.25 149.36,-64.25"/>
<polygon fill="#63b8ff" stroke="#63b8ff" points="192.7,-67.75 202.7,-64.25 192.7,-60.75 192.7,-67.75"/>
</a>
</g>
</g>
<!-- Node6 -->
<g id="Node000006" class="node">
<title>Node6</title>
<g id="a_Node000006"><a xlink:href="class_a_q_n_w_b_1_1_n_w_b_1_1_n_w_b_file.html#a109f4656270a194464ac9287bc4f0b6c" target="_top" xlink:title="Create SpikeEventSeries objects to record data into. Created objects are stored in recordingContainer...">
<polygon fill="white" stroke="#666666" points="149.12,-30.5 19.12,-30.5 19.12,0 149.12,0 149.12,-30.5"/>
<text text-anchor="start" x="27.12" y="-17" font-family="Helvetica,sans-Serif" font-size="10.00">AQNWB::NWB::NWBFile</text>
<text text-anchor="middle" x="84.12" y="-5.75" font-family="Helvetica,sans-Serif" font-size="10.00">::createSpikeEventSeries</text>
</a>
</g>
</g>
<!-- Node4&#45;&gt;Node6 -->
<g id="edge5_Node000004_Node000006" class="edge">
<title>Node4&#45;&gt;Node6</title>
<g id="a_edge5_Node000004_Node000006"><a xlink:title=" ">
<path fill="none" stroke="#63b8ff" d="M208.15,-45.79C188.46,-40.9 167.4,-35.68 148.37,-30.95"/>
<polygon fill="#63b8ff" stroke="#63b8ff" points="207.22,-49.17 217.77,-48.18 208.9,-42.37 207.22,-49.17"/>
</a>
</g>
</g>
</g>
</svg>
