<?xml version="1.0" encoding="UTF-8" standalone="no"?>
<!DOCTYPE svg PUBLIC "-//W3C//DTD SVG 1.1//EN"
 "http://www.w3.org/Graphics/SVG/1.1/DTD/svg11.dtd">
<!-- Generated by graphviz version 14.1.2 (20260124.0452)
 -->
<!-- Title: AQNWB::NWB::ElectricalSeries::initialize Pages: 1 -->
<svg width="730pt" height="309pt"
 viewBox="0.00 0.00 730.00 309.00" xmlns="http://www.w3.org/2000/svg" xmlns:xlink="http://www.w3.org/1999/xlink">
<g id="graph0" class="graph" transform="scale(1 1) rotate(0) translate(4 304.5)">
<title>AQNWB::NWB::ElectricalSeries::initialize</title>
<!-- Node1 -->
<g id="Node000001" class="node">
<title>Node1</title>
<g id="a_Node000001"><a xlink:title="Initializes the Electrical Series.">
<polygon fill="#999999" stroke="#666666" points="158.5,-165.5 0,-165.5 0,-135 158.5,-135 158.5,-165.5"/>
<text xml:space="preserve" text-anchor="start" x="8" y="-152" font-family="Helvetica,sans-Serif" font-size="10.00">AQNWB::NWB::ElectricalSeries</text>
<text xml:space="preserve" text-anchor="middle" x="79.25" y="-140.75" font-family="Helvetica,sans-Serif" font-size="10.00">::initialize</text>
</a>
</g>
</g>
<!-- Node2 -->
<g id="Node000002" class="node">
<title>Node2</title>
<g id="a_Node000002"><a xlink:href="class_a_q_n_w_b_1_1_i_o_1_1_array_data_set_config.html#aead95752724335677d8e3cee6afe97bb" target="_top" xlink:title="Returns the chunking of the dataset.">
<polygon fill="white" stroke="#666666" points="359,-300.5 194.5,-300.5 194.5,-270 359,-270 359,-300.5"/>
<text xml:space="preserve" text-anchor="start" x="202.5" y="-287" font-family="Helvetica,sans-Serif" font-size="10.00">AQNWB::IO::ArrayDataSetConfig</text>
<text xml:space="preserve" text-anchor="middle" x="276.75" y="-275.75" font-family="Helvetica,sans-Serif" font-size="10.00">::getChunking</text>
</a>
</g>
</g>
<!-- Node1&#45;&gt;Node2 -->
<g id="edge1_Node000001_Node000002" class="edge">
<title>Node1&#45;&gt;Node2</title>
<g id="a_edge1_Node000001_Node000002"><a xlink:title=" ">
<path fill="none" stroke="#63b8ff" d="M93.14,-165.67C112.85,-188.38 152.63,-230.84 194.5,-256.25 199.78,-259.45 205.47,-262.38 211.3,-265.03"/>
<polygon fill="#63b8ff" stroke="#63b8ff" points="209.92,-268.25 220.49,-268.92 212.64,-261.8 209.92,-268.25"/>
</a>
</g>
</g>
<!-- Node3 -->
<g id="Node000003" class="node">
<title>Node3</title>
<g id="a_Node000003"><a xlink:href="class_a_q_n_w_b_1_1_n_w_b_1_1_registered_type.html#ab614b1609f536e88ed1f32762dc3894b" target="_top" xlink:title="Get a shared pointer to the IO object.">
<polygon fill="white" stroke="#666666" points="721.75,-252.5 563.25,-252.5 563.25,-222 721.75,-222 721.75,-252.5"/>
<text xml:space="preserve" text-anchor="start" x="571.25" y="-239" font-family="Helvetica,sans-Serif" font-size="10.00">AQNWB::NWB::RegisteredType</text>
<text xml:space="preserve" text-anchor="middle" x="642.5" y="-227.75" font-family="Helvetica,sans-Serif" font-size="10.00">::getIO</text>
</a>
</g>
</g>
<!-- Node1&#45;&gt;Node3 -->
<g id="edge2_Node000001_Node000003" class="edge">
<title>Node1&#45;&gt;Node3</title>
<g id="a_edge2_Node000001_Node000003"><a xlink:title=" ">
<path fill="none" stroke="#63b8ff" d="M97.7,-165.74C118.88,-183.45 156.5,-211.5 194.5,-223.25 313.95,-260.19 459.99,-256.2 551.91,-248.15"/>
<polygon fill="#63b8ff" stroke="#63b8ff" points="551.98,-251.66 561.62,-247.26 551.34,-244.69 551.98,-251.66"/>
</a>
</g>
</g>
<!-- Node4 -->
<g id="Node000004" class="node">
<title>Node4</title>
<g id="a_Node000004"><a xlink:href="class_a_q_n_w_b_1_1_n_w_b_1_1_registered_type.html#ab3eec5d2a591356df25053a4159ab671" target="_top" xlink:title="Gets the path of the registered type.">
<polygon fill="white" stroke="#666666" points="356,-214.5 197.5,-214.5 197.5,-184 356,-184 356,-214.5"/>
<text xml:space="preserve" text-anchor="start" x="205.5" y="-201" font-family="Helvetica,sans-Serif" font-size="10.00">AQNWB::NWB::RegisteredType</text>
<text xml:space="preserve" text-anchor="middle" x="276.75" y="-189.75" font-family="Helvetica,sans-Serif" font-size="10.00">::getPath</text>
</a>
</g>
</g>
<!-- Node1&#45;&gt;Node4 -->
<g id="edge3_Node000001_Node000004" class="edge">
<title>Node1&#45;&gt;Node4</title>
<g id="a_edge3_Node000001_Node000004"><a xlink:title=" ">
<path fill="none" stroke="#63b8ff" d="M142.91,-165.96C161.77,-170.68 182.63,-175.91 202.12,-180.8"/>
<polygon fill="#63b8ff" stroke="#63b8ff" points="201.09,-184.14 211.64,-183.18 202.79,-177.35 201.09,-184.14"/>
</a>
</g>
</g>
<!-- Node5 -->
<g id="Node000005" class="node">
<title>Node5</title>
<g id="a_Node000005"><a xlink:href="class_a_q_n_w_b_1_1_n_w_b_1_1_n_w_b_container.html#a80beeda4c4761fe414407e4cc0d4fe8c" target="_top" xlink:title="Initialize the object.">
<polygon fill="white" stroke="#666666" points="354.88,-165.5 198.62,-165.5 198.62,-135 354.88,-135 354.88,-165.5"/>
<text xml:space="preserve" text-anchor="start" x="206.62" y="-152" font-family="Helvetica,sans-Serif" font-size="10.00">AQNWB::NWB::NWBContainer</text>
<text xml:space="preserve" text-anchor="middle" x="276.75" y="-140.75" font-family="Helvetica,sans-Serif" font-size="10.00">::initialize</text>
</a>
</g>
</g>
<!-- Node1&#45;&gt;Node5 -->
<g id="edge4_Node000001_Node000005" class="edge">
<title>Node1&#45;&gt;Node5</title>
<g id="a_edge4_Node000001_Node000005"><a xlink:title=" ">
<path fill="none" stroke="#63b8ff" d="M158.92,-150.25C168.12,-150.25 177.56,-150.25 186.89,-150.25"/>
<polygon fill="#63b8ff" stroke="#63b8ff" points="186.68,-153.75 196.68,-150.25 186.68,-146.75 186.68,-153.75"/>
</a>
</g>
</g>
<!-- Node9 -->
<g id="Node000009" class="node">
<title>Node9</title>
<g id="a_Node000009"><a xlink:href="namespace_a_q_n_w_b.html#a31983dbaaa85c2e355b9687fc0ef1881" target="_top" xlink:title="Merge two paths into a single path, handling extra trailing and starting &quot;/&quot;.">
<polygon fill="white" stroke="#666666" points="333.12,-116.88 220.38,-116.88 220.38,-97.62 333.12,-97.62 333.12,-116.88"/>
<text xml:space="preserve" text-anchor="middle" x="276.75" y="-103.38" font-family="Helvetica,sans-Serif" font-size="10.00">AQNWB::mergePaths</text>
</a>
</g>
</g>
<!-- Node1&#45;&gt;Node9 -->
<g id="edge9_Node000001_Node000009" class="edge">
<title>Node1&#45;&gt;Node9</title>
<g id="a_edge9_Node000001_Node000009"><a xlink:title=" ">
<path fill="none" stroke="#63b8ff" d="M151.66,-134.54C173.76,-129.68 197.8,-124.4 218.78,-119.78"/>
<polygon fill="#63b8ff" stroke="#63b8ff" points="219.28,-123.26 228.29,-117.69 217.77,-116.42 219.28,-123.26"/>
</a>
</g>
</g>
<!-- Node10 -->
<g id="Node000010" class="node">
<title>Node10</title>
<g id="a_Node000010"><a xlink:href="class_a_q_n_w_b_1_1_n_w_b_1_1_electrical_series.html#a117ae499b45dbf07845f9132bb15345d" target="_top" xlink:title=" ">
<polygon fill="white" stroke="#666666" points="356,-79.5 197.5,-79.5 197.5,-49 356,-49 356,-79.5"/>
<text xml:space="preserve" text-anchor="start" x="205.5" y="-66" font-family="Helvetica,sans-Serif" font-size="10.00">AQNWB::NWB::ElectricalSeries</text>
<text xml:space="preserve" text-anchor="middle" x="276.75" y="-54.75" font-family="Helvetica,sans-Serif" font-size="10.00">::recordChannelConversion</text>
</a>
</g>
</g>
<!-- Node1&#45;&gt;Node10 -->
<g id="edge10_Node000001_Node000010" class="edge">
<title>Node1&#45;&gt;Node10</title>
<g id="a_edge10_Node000001_Node000010"><a xlink:title=" ">
<path fill="none" stroke="#63b8ff" d="M105.36,-134.63C128.02,-121.02 162.59,-101.45 194.5,-88.25 198.33,-86.67 202.29,-85.14 206.33,-83.68"/>
<polygon fill="#63b8ff" stroke="#63b8ff" points="207.35,-87.03 215.66,-80.46 205.07,-80.41 207.35,-87.03"/>
</a>
</g>
</g>
<!-- Node11 -->
<g id="Node000011" class="node">
<title>Node11</title>
<g id="a_Node000011"><a xlink:href="class_a_q_n_w_b_1_1_n_w_b_1_1_electrical_series.html#a6daa722cb1854b448b0eb67012f17573" target="_top" xlink:title=" ">
<polygon fill="white" stroke="#666666" points="356,-30.5 197.5,-30.5 197.5,0 356,0 356,-30.5"/>
<text xml:space="preserve" text-anchor="start" x="205.5" y="-17" font-family="Helvetica,sans-Serif" font-size="10.00">AQNWB::NWB::ElectricalSeries</text>
<text xml:space="preserve" text-anchor="middle" x="276.75" y="-5.75" font-family="Helvetica,sans-Serif" font-size="10.00">::recordElectrodes</text>
</a>
</g>
</g>
<!-- Node1&#45;&gt;Node11 -->
<g id="edge11_Node000001_Node000011" class="edge">
<title>Node1&#45;&gt;Node11</title>
<g id="a_edge11_Node000001_Node000011"><a xlink:title=" ">
<path fill="none" stroke="#63b8ff" d="M92.23,-134.76C111.36,-111.05 151.09,-65.83 194.5,-40.25 197.3,-38.6 200.22,-37.05 203.22,-35.59"/>
<polygon fill="#63b8ff" stroke="#63b8ff" points="204.54,-38.84 212.28,-31.6 201.71,-32.43 204.54,-38.84"/>
</a>
</g>
</g>
<!-- Node6 -->
<g id="Node000006" class="node">
<title>Node6</title>
<g id="a_Node000006"><a xlink:href="class_a_q_n_w_b_1_1_n_w_b_1_1_container.html#a420424e52795b5212d7dcb728396af6a" target="_top" xlink:title="Initialize the container.">
<polygon fill="white" stroke="#666666" points="527.25,-186.5 395,-186.5 395,-156 527.25,-156 527.25,-186.5"/>
<text xml:space="preserve" text-anchor="start" x="403" y="-173" font-family="Helvetica,sans-Serif" font-size="10.00">AQNWB::NWB::Container</text>
<text xml:space="preserve" text-anchor="middle" x="461.12" y="-161.75" font-family="Helvetica,sans-Serif" font-size="10.00">::initialize</text>
</a>
</g>
</g>
<!-- Node5&#45;&gt;Node6 -->
<g id="edge5_Node000005_Node000006" class="edge">
<title>Node5&#45;&gt;Node6</title>
<g id="a_edge5_Node000005_Node000006"><a xlink:title=" ">
<path fill="none" stroke="#63b8ff" d="M355.36,-159.19C364.66,-160.26 374.16,-161.35 383.45,-162.42"/>
<polygon fill="#63b8ff" stroke="#63b8ff" points="382.82,-165.87 393.15,-163.54 383.62,-158.92 382.82,-165.87"/>
</a>
</g>
</g>
<!-- Node6&#45;&gt;Node3 -->
<g id="edge6_Node000006_Node000003" class="edge">
<title>Node6&#45;&gt;Node3</title>
<g id="a_edge6_Node000006_Node000003"><a xlink:title=" ">
<path fill="none" stroke="#63b8ff" d="M504.63,-186.89C529.67,-196.1 561.57,-207.84 588.28,-217.67"/>
<polygon fill="#63b8ff" stroke="#63b8ff" points="586.97,-220.92 597.56,-221.08 589.39,-214.35 586.97,-220.92"/>
</a>
</g>
</g>
<!-- Node7 -->
<g id="Node000007" class="node">
<title>Node7</title>
<g id="a_Node000007"><a xlink:href="class_a_q_n_w_b_1_1_n_w_b_1_1_container.html#a1a8f53595eb2637e32e816a3ff99a230" target="_top" xlink:title="Get the schema namespace of the class type.">
<polygon fill="white" stroke="#666666" points="708.62,-192.5 576.38,-192.5 576.38,-162 708.62,-162 708.62,-192.5"/>
<text xml:space="preserve" text-anchor="start" x="584.38" y="-179" font-family="Helvetica,sans-Serif" font-size="10.00">AQNWB::NWB::Container</text>
<text xml:space="preserve" text-anchor="middle" x="642.5" y="-167.75" font-family="Helvetica,sans-Serif" font-size="10.00">::getNamespace</text>
</a>
</g>
</g>
<!-- Node6&#45;&gt;Node7 -->
<g id="edge7_Node000006_Node000007" class="edge">
<title>Node6&#45;&gt;Node7</title>
<g id="a_edge7_Node000006_Node000007"><a xlink:title=" ">
<path fill="none" stroke="#63b8ff" d="M527.64,-173.44C539.75,-173.85 552.49,-174.27 564.89,-174.69"/>
<polygon fill="#63b8ff" stroke="#63b8ff" points="564.53,-178.18 574.65,-175.01 564.77,-171.18 564.53,-178.18"/>
</a>
</g>
</g>
<!-- Node8 -->
<g id="Node000008" class="node">
<title>Node8</title>
<g id="a_Node000008"><a xlink:href="class_a_q_n_w_b_1_1_n_w_b_1_1_container.html#a21e3abbea48e9455731f2859c7954c97" target="_top" xlink:title="Get the name of the class type.">
<polygon fill="white" stroke="#666666" points="708.62,-143.5 576.38,-143.5 576.38,-113 708.62,-113 708.62,-143.5"/>
<text xml:space="preserve" text-anchor="start" x="584.38" y="-130" font-family="Helvetica,sans-Serif" font-size="10.00">AQNWB::NWB::Container</text>
<text xml:space="preserve" text-anchor="middle" x="642.5" y="-118.75" font-family="Helvetica,sans-Serif" font-size="10.00">::getTypeName</text>
</a>
</g>
</g>
<!-- Node6&#45;&gt;Node8 -->
<g id="edge8_Node000006_Node000008" class="edge">
<title>Node6&#45;&gt;Node8</title>
<g id="a_edge8_Node000006_Node000008"><a xlink:title=" ">
<path fill="none" stroke="#63b8ff" d="M527.64,-155.54C539.87,-152.61 552.75,-149.52 565.27,-146.52"/>
<polygon fill="#63b8ff" stroke="#63b8ff" points="565.78,-150 574.69,-144.27 564.15,-143.19 565.78,-150"/>
</a>
</g>
</g>
</g>
</svg>
