<?xml version="1.0" encoding="UTF-8" standalone="no"?>
<!DOCTYPE svg PUBLIC "-//W3C//DTD SVG 1.1//EN"
 "http://www.w3.org/Graphics/SVG/1.1/DTD/svg11.dtd">
<!-- Generated by graphviz version 12.1.2 (20240928.0832)
 -->
<!-- Title: AQNWB::NWB::Container::initialize Pages: 1 -->
<svg width="733pt" height="186pt"
 viewBox="0.00 0.00 732.75 185.50" xmlns="http://www.w3.org/2000/svg" xmlns:xlink="http://www.w3.org/1999/xlink">
<g id="graph0" class="graph" transform="scale(1 1) rotate(0) translate(4 181.5)">
<title>AQNWB::NWB::Container::initialize</title>
<!-- Node1 -->
<g id="Node000001" class="node">
<title>Node1</title>
<g id="a_Node000001"><a xlink:title="Initialize the container.">
<polygon fill="#999999" stroke="#666666" points="724.75,-103.5 592.5,-103.5 592.5,-73 724.75,-73 724.75,-103.5"/>
<text text-anchor="start" x="600.5" y="-90" font-family="Helvetica,sans-Serif" font-size="10.00">AQNWB::NWB::Container</text>
<text text-anchor="middle" x="658.62" y="-78.75" font-family="Helvetica,sans-Serif" font-size="10.00">::initialize</text>
</a>
</g>
</g>
<!-- Node2 -->
<g id="Node000002" class="node">
<title>Node2</title>
<g id="a_Node000002"><a xlink:href="class_a_q_n_w_b_1_1_n_w_b_1_1_device.html#a098d0a2980c918e19988f58a4c46edfb" target="_top" xlink:title="Initializes the device by creating NWB related attributes and writing the manufactor and description ...">
<polygon fill="white" stroke="#666666" points="538.12,-177.5 417.12,-177.5 417.12,-147 538.12,-147 538.12,-177.5"/>
<text text-anchor="start" x="425.12" y="-164" font-family="Helvetica,sans-Serif" font-size="10.00">AQNWB::NWB::Device</text>
<text text-anchor="middle" x="477.62" y="-152.75" font-family="Helvetica,sans-Serif" font-size="10.00">::initialize</text>
</a>
</g>
</g>
<!-- Node1&#45;&gt;Node2 -->
<g id="edge1_Node000001_Node000002" class="edge">
<title>Node1&#45;&gt;Node2</title>
<g id="a_edge1_Node000001_Node000002"><a xlink:title=" ">
<path fill="none" stroke="#63b8ff" d="M617.96,-109.07C599.54,-118.32 577.19,-128.97 556.5,-137.25 548.33,-140.52 539.55,-143.68 530.93,-146.58"/>
<polygon fill="#63b8ff" stroke="#63b8ff" points="619.35,-112.29 626.68,-104.64 616.18,-106.05 619.35,-112.29"/>
</a>
</g>
</g>
<!-- Node5 -->
<g id="Node000005" class="node">
<title>Node5</title>
<g id="a_Node000005"><a xlink:href="class_a_q_n_w_b_1_1_n_w_b_1_1_dynamic_table.html#a1a860166b728cc0c841631aaf92052f2" target="_top" xlink:title="Initializes the DynamicTable object by creating NWB attributes and column names.">
<polygon fill="white" stroke="#666666" points="553.88,-79.5 401.38,-79.5 401.38,-49 553.88,-49 553.88,-79.5"/>
<text text-anchor="start" x="409.38" y="-66" font-family="Helvetica,sans-Serif" font-size="10.00">AQNWB::NWB::DynamicTable</text>
<text text-anchor="middle" x="477.62" y="-54.75" font-family="Helvetica,sans-Serif" font-size="10.00">::initialize</text>
</a>
</g>
</g>
<!-- Node1&#45;&gt;Node5 -->
<g id="edge4_Node000001_Node000005" class="edge">
<title>Node1&#45;&gt;Node5</title>
<g id="a_edge4_Node000001_Node000005"><a xlink:title=" ">
<path fill="none" stroke="#63b8ff" d="M581.06,-77.98C572.14,-76.79 563.05,-75.57 554.14,-74.38"/>
<polygon fill="#63b8ff" stroke="#63b8ff" points="580.37,-81.42 590.74,-79.28 581.3,-74.48 580.37,-81.42"/>
</a>
</g>
</g>
<!-- Node7 -->
<g id="Node000007" class="node">
<title>Node7</title>
<g id="a_Node000007"><a xlink:href="class_a_q_n_w_b_1_1_n_w_b_1_1_electrode_group.html#a55c55ad12966365b31ba6b292db9cf92" target="_top" xlink:title="Initializes the ElectrodeGroup object.">
<polygon fill="white" stroke="#666666" points="556.5,-128.5 398.75,-128.5 398.75,-98 556.5,-98 556.5,-128.5"/>
<text text-anchor="start" x="406.75" y="-115" font-family="Helvetica,sans-Serif" font-size="10.00">AQNWB::NWB::ElectrodeGroup</text>
<text text-anchor="middle" x="477.62" y="-103.75" font-family="Helvetica,sans-Serif" font-size="10.00">::initialize</text>
</a>
</g>
</g>
<!-- Node1&#45;&gt;Node7 -->
<g id="edge6_Node000001_Node000007" class="edge">
<title>Node1&#45;&gt;Node7</title>
<g id="a_edge6_Node000001_Node000007"><a xlink:title=" ">
<path fill="none" stroke="#63b8ff" d="M581.06,-98.94C573.06,-100.06 564.92,-101.2 556.91,-102.32"/>
<polygon fill="#63b8ff" stroke="#63b8ff" points="581.32,-102.44 590.74,-97.59 580.36,-95.51 581.32,-102.44"/>
</a>
</g>
</g>
<!-- Node8 -->
<g id="Node000008" class="node">
<title>Node8</title>
<g id="a_Node000008"><a xlink:href="class_a_q_n_w_b_1_1_n_w_b_1_1_time_series.html#a927fb3e7da8259f175bdb19820e52471" target="_top" xlink:title="Initializes the TimeSeries by creating NWB related attributes and writing the description and comment...">
<polygon fill="white" stroke="#666666" points="547.5,-30.5 407.75,-30.5 407.75,0 547.5,0 547.5,-30.5"/>
<text text-anchor="start" x="415.75" y="-17" font-family="Helvetica,sans-Serif" font-size="10.00">AQNWB::NWB::TimeSeries</text>
<text text-anchor="middle" x="477.62" y="-5.75" font-family="Helvetica,sans-Serif" font-size="10.00">::initialize</text>
</a>
</g>
</g>
<!-- Node1&#45;&gt;Node8 -->
<g id="edge9_Node000001_Node000008" class="edge">
<title>Node1&#45;&gt;Node8</title>
<g id="a_edge9_Node000001_Node000008"><a xlink:title=" ">
<path fill="none" stroke="#63b8ff" d="M617.26,-67.58C598.96,-58.6 576.89,-48.32 556.5,-40.25 548.31,-37.01 539.53,-33.87 530.91,-30.98"/>
<polygon fill="#63b8ff" stroke="#63b8ff" points="615.69,-70.71 626.2,-72.02 618.8,-64.44 615.69,-70.71"/>
</a>
</g>
</g>
<!-- Node3 -->
<g id="Node000003" class="node">
<title>Node3</title>
<g id="a_Node000003"><a xlink:href="class_a_q_n_w_b_1_1_n_w_b_1_1_n_w_b_file.html#a5cb71b4353e1d5d764a6f5cf02a53981" target="_top" xlink:title="Create ElectricalSeries objects to record data into. Created objects are stored in recordingContainer...">
<polygon fill="white" stroke="#666666" points="348.5,-177.5 218.5,-177.5 218.5,-147 348.5,-147 348.5,-177.5"/>
<text text-anchor="start" x="226.5" y="-164" font-family="Helvetica,sans-Serif" font-size="10.00">AQNWB::NWB::NWBFile</text>
<text text-anchor="middle" x="283.5" y="-152.75" font-family="Helvetica,sans-Serif" font-size="10.00">::createElectricalSeries</text>
</a>
</g>
</g>
<!-- Node2&#45;&gt;Node3 -->
<g id="edge2_Node000002_Node000003" class="edge">
<title>Node2&#45;&gt;Node3</title>
<g id="a_edge2_Node000002_Node000003"><a xlink:title=" ">
<path fill="none" stroke="#63b8ff" d="M405.27,-162.25C386.73,-162.25 366.86,-162.25 348.7,-162.25"/>
<polygon fill="#63b8ff" stroke="#63b8ff" points="405.11,-165.75 415.11,-162.25 405.11,-158.75 405.11,-165.75"/>
</a>
</g>
</g>
<!-- Node4 -->
<g id="Node000004" class="node">
<title>Node4</title>
<g id="a_Node000004"><a xlink:href="class_a_q_n_w_b_1_1_n_w_b_1_1_n_w_b_file.html#a109f4656270a194464ac9287bc4f0b6c" target="_top" xlink:title="Create SpikeEventSeries objects to record data into. Created objects are stored in recordingContainer...">
<polygon fill="white" stroke="#666666" points="348.5,-128.5 218.5,-128.5 218.5,-98 348.5,-98 348.5,-128.5"/>
<text text-anchor="start" x="226.5" y="-115" font-family="Helvetica,sans-Serif" font-size="10.00">AQNWB::NWB::NWBFile</text>
<text text-anchor="middle" x="283.5" y="-103.75" font-family="Helvetica,sans-Serif" font-size="10.00">::createSpikeEventSeries</text>
</a>
</g>
</g>
<!-- Node2&#45;&gt;Node4 -->
<g id="edge3_Node000002_Node000004" class="edge">
<title>Node2&#45;&gt;Node4</title>
<g id="a_edge3_Node000002_Node000004"><a xlink:title=" ">
<path fill="none" stroke="#63b8ff" d="M405.62,-144.14C386.06,-139.15 365.01,-133.78 346.03,-128.94"/>
<polygon fill="#63b8ff" stroke="#63b8ff" points="404.6,-147.49 415.16,-146.57 406.33,-140.71 404.6,-147.49"/>
</a>
</g>
</g>
<!-- Node6 -->
<g id="Node000006" class="node">
<title>Node6</title>
<g id="a_Node000006"><a xlink:href="class_a_q_n_w_b_1_1_n_w_b_1_1_electrode_table.html#af125b9b5d7a79d414b75998c6b52156b" target="_top" xlink:title="Initializes the ElectrodeTable.">
<polygon fill="white" stroke="#666666" points="360.88,-79.5 206.12,-79.5 206.12,-49 360.88,-49 360.88,-79.5"/>
<text text-anchor="start" x="214.12" y="-66" font-family="Helvetica,sans-Serif" font-size="10.00">AQNWB::NWB::ElectrodeTable</text>
<text text-anchor="middle" x="283.5" y="-54.75" font-family="Helvetica,sans-Serif" font-size="10.00">::initialize</text>
</a>
</g>
</g>
<!-- Node5&#45;&gt;Node6 -->
<g id="edge5_Node000005_Node000006" class="edge">
<title>Node5&#45;&gt;Node6</title>
<g id="a_edge5_Node000005_Node000006"><a xlink:title=" ">
<path fill="none" stroke="#63b8ff" d="M389.57,-64.25C380.16,-64.25 370.63,-64.25 361.35,-64.25"/>
<polygon fill="#63b8ff" stroke="#63b8ff" points="389.45,-67.75 399.45,-64.25 389.45,-60.75 389.45,-67.75"/>
</a>
</g>
</g>
<!-- Node7&#45;&gt;Node3 -->
<g id="edge7_Node000007_Node000003" class="edge">
<title>Node7&#45;&gt;Node3</title>
<g id="a_edge7_Node000007_Node000003"><a xlink:title=" ">
<path fill="none" stroke="#63b8ff" d="M403.98,-131.78C384.9,-136.64 364.5,-141.85 346.06,-146.55"/>
<polygon fill="#63b8ff" stroke="#63b8ff" points="404.75,-135.19 413.58,-129.33 403.02,-128.41 404.75,-135.19"/>
</a>
</g>
</g>
<!-- Node7&#45;&gt;Node4 -->
<g id="edge8_Node000007_Node000004" class="edge">
<title>Node7&#45;&gt;Node4</title>
<g id="a_edge8_Node000007_Node000004"><a xlink:title=" ">
<path fill="none" stroke="#63b8ff" d="M387.16,-113.25C374.21,-113.25 361.1,-113.25 348.78,-113.25"/>
<polygon fill="#63b8ff" stroke="#63b8ff" points="386.97,-116.75 396.97,-113.25 386.97,-109.75 386.97,-116.75"/>
</a>
</g>
</g>
<!-- Node9 -->
<g id="Node000009" class="node">
<title>Node9</title>
<g id="a_Node000009"><a xlink:href="class_a_q_n_w_b_1_1_n_w_b_1_1_electrical_series.html#a59ecd5ceca61b33a77a11579369e596e" target="_top" xlink:title="Initializes the Electrical Series.">
<polygon fill="white" stroke="#666666" points="362.75,-30.5 204.25,-30.5 204.25,0 362.75,0 362.75,-30.5"/>
<text text-anchor="start" x="212.25" y="-17" font-family="Helvetica,sans-Serif" font-size="10.00">AQNWB::NWB::ElectricalSeries</text>
<text text-anchor="middle" x="283.5" y="-5.75" font-family="Helvetica,sans-Serif" font-size="10.00">::initialize</text>
</a>
</g>
</g>
<!-- Node8&#45;&gt;Node9 -->
<g id="edge10_Node000008_Node000009" class="edge">
<title>Node8&#45;&gt;Node9</title>
<g id="a_edge10_Node000008_Node000009"><a xlink:title=" ">
<path fill="none" stroke="#63b8ff" d="M396.06,-15.25C385.19,-15.25 374.05,-15.25 363.22,-15.25"/>
<polygon fill="#63b8ff" stroke="#63b8ff" points="395.75,-18.75 405.75,-15.25 395.75,-11.75 395.75,-18.75"/>
</a>
</g>
</g>
<!-- Node10 -->
<g id="Node000010" class="node">
<title>Node10</title>
<g id="a_Node000010"><a xlink:href="class_a_q_n_w_b_1_1_n_w_b_1_1_spike_event_series.html#a7d3c4e9c731f330c2c2eda928f9c453f" target="_top" xlink:title="Initializes the Electrical Series.">
<polygon fill="white" stroke="#666666" points="168.25,-30.5 0,-30.5 0,0 168.25,0 168.25,-30.5"/>
<text text-anchor="start" x="8" y="-17" font-family="Helvetica,sans-Serif" font-size="10.00">AQNWB::NWB::SpikeEventSeries</text>
<text text-anchor="middle" x="84.12" y="-5.75" font-family="Helvetica,sans-Serif" font-size="10.00">::initialize</text>
</a>
</g>
</g>
<!-- Node9&#45;&gt;Node10 -->
<g id="edge11_Node000009_Node000010" class="edge">
<title>Node9&#45;&gt;Node10</title>
<g id="a_edge11_Node000009_Node000010"><a xlink:title=" ">
<path fill="none" stroke="#63b8ff" d="M192.67,-15.25C184.66,-15.25 176.57,-15.25 168.61,-15.25"/>
<polygon fill="#63b8ff" stroke="#63b8ff" points="192.41,-18.75 202.41,-15.25 192.41,-11.75 192.41,-18.75"/>
</a>
</g>
</g>
</g>
</svg>
