<?xml version="1.0" encoding="UTF-8" standalone="no"?>
<!DOCTYPE svg PUBLIC "-//W3C//DTD SVG 1.1//EN"
 "http://www.w3.org/Graphics/SVG/1.1/DTD/svg11.dtd">
<!-- Generated by graphviz version 14.1.0 (20251206.1807)
 -->
<!-- Title: AQNWB::NWB::NWBFile::readNWBVersion Pages: 1 -->
<!--zoomable 253 -->

<svg id="main" version="1.1" xmlns="http://www.w3.org/2000/svg" xmlns:xlink="http://www.w3.org/1999/xlink" xml:space="preserve" onload="init(evt)">

<style type="text/css"><![CDATA[
.node, .edge {opacity: 0.7;}
.node.selected, .edge.selected {opacity: 1;}
.edge:hover path { stroke: red; }
.edge:hover polygon { stroke: red; fill: red; }
]]></style>

<defs>
  <circle id="rim" cx="0" cy="0" r="7"/>
  <circle id="rim2" cx="0" cy="0" r="3.5"/>
  <g id="zoomPlus">
    <use xlink:href="#rim" fill="#404040"><set attributeName="fill" to="#808080" begin="zoomplus.mouseover" end="zoomplus.mouseout"/></use>
    <path d="M-4,0h8M0,-4v8" fill="none" stroke="white" stroke-width="1.5" pointer-events="none"/>
  </g>
  <g id="zoomMin">
    <use xlink:href="#rim" fill="#404040"><set attributeName="fill" to="#808080" begin="zoomminus.mouseover" end="zoomminus.mouseout"/></use>
    <path d="M-4,0h8" fill="none" stroke="white" stroke-width="1.5" pointer-events="none"/>
  </g>
  <g id="arrowUp" transform="translate(30 24)">
    <use xlink:href="#rim"/>
    <path pointer-events="none" fill="none" stroke="white" stroke-width="1.5" d="M0,-3.0v7 M-2.5,-0.5L0,-3.0L2.5,-0.5"/>
  </g>
  <g id="arrowRight" transform="rotate(90) translate(36 -43)">
    <use xlink:href="#rim"/>
    <path pointer-events="none" fill="none" stroke="white" stroke-width="1.5" d="M0,-3.0v7 M-2.5,-0.5L0,-3.0L2.5,-0.5"/>
  </g>
  <g id="arrowDown" transform="rotate(180) translate(-30 -48)">
    <use xlink:href="#rim"/>
    <path pointer-events="none" fill="none" stroke="white" stroke-width="1.5" d="M0,-3.0v7 M-2.5,-0.5L0,-3.0L2.5,-0.5"/>
  </g>
  <g id="arrowLeft" transform="rotate(270) translate(-36 17)">
    <use xlink:href="#rim"/>
    <path pointer-events="none" fill="none" stroke="white" stroke-width="1.5" d="M0,-3.0v7 M-2.5,-0.5L0,-3.0L2.5,-0.5"/>
  </g>
  <g id="resetDef">
    <use xlink:href="#rim2" fill="#404040"><set attributeName="fill" to="#808080" begin="reset.mouseover" end="reset.mouseout"/></use>
  </g>
</defs>
<script type="application/ecmascript">
var viewWidth = 1712;
var viewHeight = 253;
var sectionId = 'dynsection-26';
</script>
<script type="application/ecmascript" xlink:href="svg.min.js"/>
<svg id="graph" class="graph">
<g id="viewport">
<title>AQNWB::NWB::NWBFile::readNWBVersion</title>
<!-- Node1 -->
<g id="Node000001" class="node">
<title>Node1</title>
<g id="a_Node000001"><a xlink:title=" ">
<polygon fill="#999999" stroke="#666666" points="130,-54.5 0,-54.5 0,-24 130,-24 130,-54.5"/>
<text xml:space="preserve" text-anchor="start" x="8" y="-41" font-family="Helvetica,sans-Serif" font-size="10.00">AQNWB::NWB::NWBFile</text>
<text xml:space="preserve" text-anchor="middle" x="65" y="-29.75" font-family="Helvetica,sans-Serif" font-size="10.00">::readNWBVersion</text>
</a>
</g>
</g>
<!-- Node2 -->
<g id="Node000002" class="node">
<title>Node2</title>
<g id="a_Node000002"><a xlink:href="class_a_q_n_w_b_1_1_n_w_b_1_1_n_w_b_file.html#aab50ade1916ed284389c29d44e8a3a28" target="_top" xlink:title=" ">
<polygon fill="white" stroke="#666666" points="296,-79.5 166,-79.5 166,-49 296,-49 296,-79.5"/>
<text xml:space="preserve" text-anchor="start" x="174" y="-66" font-family="Helvetica,sans-Serif" font-size="10.00">AQNWB::NWB::NWBFile</text>
<text xml:space="preserve" text-anchor="middle" x="231" y="-54.75" font-family="Helvetica,sans-Serif" font-size="10.00">::readFileCreateDate</text>
</a>
</g>
</g>
<!-- Node1&#45;&gt;Node2 -->
<g id="edge1_Node000001_Node000002" class="edge">
<title>Node1&#45;&gt;Node2</title>
<g id="a_edge1_Node000001_Node000002"><a xlink:title=" ">
<path fill="none" stroke="#63b8ff" d="M130.35,-49.06C138.21,-50.26 146.31,-51.49 154.33,-52.71"/>
<polygon fill="#63b8ff" stroke="#63b8ff" points="153.66,-56.15 164.07,-54.2 154.72,-49.23 153.66,-56.15"/>
</a>
</g>
</g>
<!-- Node20 -->
<g id="Node000020" class="node">
<title>Node20</title>
<g id="a_Node000020"><a xlink:href="class_a_q_n_w_b_1_1_n_w_b_1_1_n_w_b_file.html#a23d31fa8ae3cdffd8a31b05b309c8bc5" target="_top" xlink:title=" ">
<polygon fill="white" stroke="#666666" points="296,-30.5 166,-30.5 166,0 296,0 296,-30.5"/>
<text xml:space="preserve" text-anchor="start" x="174" y="-17" font-family="Helvetica,sans-Serif" font-size="10.00">AQNWB::NWB::NWBFile</text>
<text xml:space="preserve" text-anchor="middle" x="231" y="-5.75" font-family="Helvetica,sans-Serif" font-size="10.00">::recordFileCreateDate</text>
</a>
</g>
</g>
<!-- Node1&#45;&gt;Node20 -->
<g id="edge20_Node000001_Node000020" class="edge">
<title>Node1&#45;&gt;Node20</title>
<g id="a_edge20_Node000001_Node000020"><a xlink:title=" ">
<path fill="none" stroke="#63b8ff" d="M130.35,-29.83C138.21,-28.68 146.31,-27.5 154.33,-26.32"/>
<polygon fill="#63b8ff" stroke="#63b8ff" points="154.68,-29.81 164.07,-24.9 153.67,-22.88 154.68,-29.81"/>
</a>
</g>
</g>
<!-- Node3 -->
<g id="Node000003" class="node">
<title>Node3</title>
<g id="a_Node000003"><a xlink:href="class_a_q_n_w_b_1_1_n_w_b_1_1_n_w_b_file.html#abae17504e9ba927509296efaf5fc99e2" target="_top" xlink:title=" ">
<polygon fill="white" stroke="#666666" points="462,-103.5 332,-103.5 332,-73 462,-73 462,-103.5"/>
<text xml:space="preserve" text-anchor="start" x="340" y="-90" font-family="Helvetica,sans-Serif" font-size="10.00">AQNWB::NWB::NWBFile</text>
<text xml:space="preserve" text-anchor="middle" x="397" y="-78.75" font-family="Helvetica,sans-Serif" font-size="10.00">::readIdentifier</text>
</a>
</g>
</g>
<!-- Node2&#45;&gt;Node3 -->
<g id="edge2_Node000002_Node000003" class="edge">
<title>Node2&#45;&gt;Node3</title>
<g id="a_edge2_Node000002_Node000003"><a xlink:title=" ">
<path fill="none" stroke="#63b8ff" d="M296.35,-73.67C304.21,-74.82 312.31,-76 320.33,-77.18"/>
<polygon fill="#63b8ff" stroke="#63b8ff" points="319.67,-80.62 330.07,-78.6 320.68,-73.69 319.67,-80.62"/>
</a>
</g>
</g>
<!-- Node19 -->
<g id="Node000019" class="node">
<title>Node19</title>
<g id="a_Node000019"><a xlink:href="class_a_q_n_w_b_1_1_n_w_b_1_1_n_w_b_file.html#a407344117736e00a6f38459330af2bde" target="_top" xlink:title=" ">
<polygon fill="white" stroke="#666666" points="462,-54.5 332,-54.5 332,-24 462,-24 462,-54.5"/>
<text xml:space="preserve" text-anchor="start" x="340" y="-41" font-family="Helvetica,sans-Serif" font-size="10.00">AQNWB::NWB::NWBFile</text>
<text xml:space="preserve" text-anchor="middle" x="397" y="-29.75" font-family="Helvetica,sans-Serif" font-size="10.00">::recordIdentifier</text>
</a>
</g>
</g>
<!-- Node2&#45;&gt;Node19 -->
<g id="edge19_Node000002_Node000019" class="edge">
<title>Node2&#45;&gt;Node19</title>
<g id="a_edge19_Node000002_Node000019"><a xlink:title=" ">
<path fill="none" stroke="#63b8ff" d="M296.35,-54.44C304.21,-53.24 312.31,-52.01 320.33,-50.79"/>
<polygon fill="#63b8ff" stroke="#63b8ff" points="320.72,-54.27 330.07,-49.3 319.66,-47.35 320.72,-54.27"/>
</a>
</g>
</g>
<!-- Node4 -->
<g id="Node000004" class="node">
<title>Node4</title>
<g id="a_Node000004"><a xlink:href="class_a_q_n_w_b_1_1_n_w_b_1_1_n_w_b_file.html#a5b62d301f9653fcf0cf083300362b371" target="_top" xlink:title=" ">
<polygon fill="white" stroke="#666666" points="629.88,-127.5 499.88,-127.5 499.88,-97 629.88,-97 629.88,-127.5"/>
<text xml:space="preserve" text-anchor="start" x="507.88" y="-114" font-family="Helvetica,sans-Serif" font-size="10.00">AQNWB::NWB::NWBFile</text>
<text xml:space="preserve" text-anchor="middle" x="564.88" y="-102.75" font-family="Helvetica,sans-Serif" font-size="10.00">::readSessionDescription</text>
</a>
</g>
</g>
<!-- Node3&#45;&gt;Node4 -->
<g id="edge3_Node000003_Node000004" class="edge">
<title>Node3&#45;&gt;Node4</title>
<g id="a_edge3_Node000003_Node000004"><a xlink:title=" ">
<path fill="none" stroke="#63b8ff" d="M462.13,-97.53C470.69,-98.77 479.53,-100.05 488.26,-101.31"/>
<polygon fill="#63b8ff" stroke="#63b8ff" points="487.74,-104.77 498.14,-102.74 488.75,-97.84 487.74,-104.77"/>
</a>
</g>
</g>
<!-- Node18 -->
<g id="Node000018" class="node">
<title>Node18</title>
<g id="a_Node000018"><a xlink:href="class_a_q_n_w_b_1_1_n_w_b_1_1_n_w_b_file.html#aa3a0f1d0f63f8bf7160257186cd2273d" target="_top" xlink:title=" ">
<polygon fill="white" stroke="#666666" points="631.75,-78.5 498,-78.5 498,-48 631.75,-48 631.75,-78.5"/>
<text xml:space="preserve" text-anchor="start" x="506" y="-65" font-family="Helvetica,sans-Serif" font-size="10.00">AQNWB::NWB::NWBFile</text>
<text xml:space="preserve" text-anchor="middle" x="564.88" y="-53.75" font-family="Helvetica,sans-Serif" font-size="10.00">::recordSessionDescription</text>
</a>
</g>
</g>
<!-- Node3&#45;&gt;Node18 -->
<g id="edge18_Node000003_Node000018" class="edge">
<title>Node3&#45;&gt;Node18</title>
<g id="a_edge18_Node000003_Node000018"><a xlink:title=" ">
<path fill="none" stroke="#63b8ff" d="M462.13,-78.58C470.06,-77.39 478.24,-76.16 486.34,-74.94"/>
<polygon fill="#63b8ff" stroke="#63b8ff" points="486.86,-78.4 496.22,-73.45 485.81,-71.48 486.86,-78.4"/>
</a>
</g>
</g>
<!-- Node5 -->
<g id="Node000005" class="node">
<title>Node5</title>
<g id="a_Node000005"><a xlink:href="class_a_q_n_w_b_1_1_n_w_b_1_1_n_w_b_file.html#ac12eceea7bcebc1243eac9a64d4190b0" target="_top" xlink:title=" ">
<polygon fill="white" stroke="#666666" points="797.75,-151.5 667.75,-151.5 667.75,-121 797.75,-121 797.75,-151.5"/>
<text xml:space="preserve" text-anchor="start" x="675.75" y="-138" font-family="Helvetica,sans-Serif" font-size="10.00">AQNWB::NWB::NWBFile</text>
<text xml:space="preserve" text-anchor="middle" x="732.75" y="-126.75" font-family="Helvetica,sans-Serif" font-size="10.00">::readSessionStartTime</text>
</a>
</g>
</g>
<!-- Node4&#45;&gt;Node5 -->
<g id="edge4_Node000004_Node000005" class="edge">
<title>Node4&#45;&gt;Node5</title>
<g id="a_edge4_Node000004_Node000005"><a xlink:title=" ">
<path fill="none" stroke="#63b8ff" d="M630.01,-121.53C638.56,-122.77 647.4,-124.05 656.13,-125.31"/>
<polygon fill="#63b8ff" stroke="#63b8ff" points="655.62,-128.77 666.02,-126.74 656.62,-121.84 655.62,-128.77"/>
</a>
</g>
</g>
<!-- Node17 -->
<g id="Node000017" class="node">
<title>Node17</title>
<g id="a_Node000017"><a xlink:href="class_a_q_n_w_b_1_1_n_w_b_1_1_n_w_b_file.html#a3ecf0a3b95b16b509c2446fc7c4d40b0" target="_top" xlink:title=" ">
<polygon fill="white" stroke="#666666" points="797.75,-102.5 667.75,-102.5 667.75,-72 797.75,-72 797.75,-102.5"/>
<text xml:space="preserve" text-anchor="start" x="675.75" y="-89" font-family="Helvetica,sans-Serif" font-size="10.00">AQNWB::NWB::NWBFile</text>
<text xml:space="preserve" text-anchor="middle" x="732.75" y="-77.75" font-family="Helvetica,sans-Serif" font-size="10.00">::recordSessionStartTime</text>
</a>
</g>
</g>
<!-- Node4&#45;&gt;Node17 -->
<g id="edge17_Node000004_Node000017" class="edge">
<title>Node4&#45;&gt;Node17</title>
<g id="a_edge17_Node000004_Node000017"><a xlink:title=" ">
<path fill="none" stroke="#63b8ff" d="M630.01,-102.58C638.56,-101.29 647.4,-99.96 656.13,-98.65"/>
<polygon fill="#63b8ff" stroke="#63b8ff" points="656.65,-102.11 666.02,-97.16 655.61,-95.19 656.65,-102.11"/>
</a>
</g>
</g>
<!-- Node6 -->
<g id="Node000006" class="node">
<title>Node6</title>
<g id="a_Node000006"><a xlink:href="class_a_q_n_w_b_1_1_n_w_b_1_1_n_w_b_file.html#aa611b4def3f53c508ddd8ec71944ffe7" target="_top" xlink:title=" ">
<polygon fill="white" stroke="#666666" points="999.38,-175.5 837.88,-175.5 837.88,-145 999.38,-145 999.38,-175.5"/>
<text xml:space="preserve" text-anchor="start" x="845.88" y="-162" font-family="Helvetica,sans-Serif" font-size="10.00">AQNWB::NWB::NWBFile</text>
<text xml:space="preserve" text-anchor="middle" x="918.62" y="-150.75" font-family="Helvetica,sans-Serif" font-size="10.00">::readTimestampsReferenceTime</text>
</a>
</g>
</g>
<!-- Node5&#45;&gt;Node6 -->
<g id="edge5_Node000005_Node000006" class="edge">
<title>Node5&#45;&gt;Node6</title>
<g id="a_edge5_Node000005_Node000006"><a xlink:title=" ">
<path fill="none" stroke="#63b8ff" d="M798.06,-144.64C807.22,-145.84 816.77,-147.09 826.32,-148.33"/>
<polygon fill="#63b8ff" stroke="#63b8ff" points="825.64,-151.77 836,-149.6 826.54,-144.83 825.64,-151.77"/>
</a>
</g>
</g>
<!-- Node16 -->
<g id="Node000016" class="node">
<title>Node16</title>
<g id="a_Node000016"><a xlink:href="class_a_q_n_w_b_1_1_n_w_b_1_1_n_w_b_file.html#a36db3290c76301b9af8a030cb975d516" target="_top" xlink:title=" ">
<polygon fill="white" stroke="#666666" points="1003.5,-126.5 833.75,-126.5 833.75,-96 1003.5,-96 1003.5,-126.5"/>
<text xml:space="preserve" text-anchor="start" x="841.75" y="-113" font-family="Helvetica,sans-Serif" font-size="10.00">AQNWB::NWB::NWBFile</text>
<text xml:space="preserve" text-anchor="middle" x="918.62" y="-101.75" font-family="Helvetica,sans-Serif" font-size="10.00">::recordTimestampsReferenceTime</text>
</a>
</g>
</g>
<!-- Node5&#45;&gt;Node16 -->
<g id="edge16_Node000005_Node000016" class="edge">
<title>Node5&#45;&gt;Node16</title>
<g id="a_edge16_Node000005_Node000016"><a xlink:title=" ">
<path fill="none" stroke="#63b8ff" d="M798.06,-127.51C805.89,-126.44 814.02,-125.34 822.18,-124.23"/>
<polygon fill="#63b8ff" stroke="#63b8ff" points="822.38,-127.73 831.81,-122.92 821.43,-120.8 822.38,-127.73"/>
</a>
</g>
</g>
<!-- Node7 -->
<g id="Node000007" class="node">
<title>Node7</title>
<g id="a_Node000007"><a xlink:href="class_a_q_n_w_b_1_1_n_w_b_1_1_n_w_b_file.html#a116bb371a6ef2fec0a442530ce4c5344" target="_top" xlink:title=" ">
<polygon fill="white" stroke="#666666" points="1169.5,-199.5 1039.5,-199.5 1039.5,-169 1169.5,-169 1169.5,-199.5"/>
<text xml:space="preserve" text-anchor="start" x="1047.5" y="-186" font-family="Helvetica,sans-Serif" font-size="10.00">AQNWB::NWB::NWBFile</text>
<text xml:space="preserve" text-anchor="middle" x="1104.5" y="-174.75" font-family="Helvetica,sans-Serif" font-size="10.00">::createAquisitionSeries</text>
</a>
</g>
</g>
<!-- Node6&#45;&gt;Node7 -->
<g id="edge6_Node000006_Node000007" class="edge">
<title>Node6&#45;&gt;Node7</title>
<g id="a_edge6_Node000006_Node000007"><a xlink:title=" ">
<path fill="none" stroke="#63b8ff" d="M999.74,-170.71C1009.1,-171.93 1018.62,-173.17 1027.91,-174.38"/>
<polygon fill="#63b8ff" stroke="#63b8ff" points="1027.24,-177.83 1037.61,-175.65 1028.15,-170.88 1027.24,-177.83"/>
</a>
</g>
</g>
<!-- Node15 -->
<g id="Node000015" class="node">
<title>Node15</title>
<g id="a_Node000015"><a xlink:href="class_a_q_n_w_b_1_1_n_w_b_1_1_n_w_b_file.html#a4c5e30290b87e858aea55a327e835e77" target="_top" xlink:title=" ">
<polygon fill="white" stroke="#666666" points="1169.5,-150.5 1039.5,-150.5 1039.5,-120 1169.5,-120 1169.5,-150.5"/>
<text xml:space="preserve" text-anchor="start" x="1047.5" y="-137" font-family="Helvetica,sans-Serif" font-size="10.00">AQNWB::NWB::NWBFile</text>
<text xml:space="preserve" text-anchor="middle" x="1104.5" y="-125.75" font-family="Helvetica,sans-Serif" font-size="10.00">::readAquisitionSeries</text>
</a>
</g>
</g>
<!-- Node6&#45;&gt;Node15 -->
<g id="edge15_Node000006_Node000015" class="edge">
<title>Node6&#45;&gt;Node15</title>
<g id="a_edge15_Node000006_Node000015"><a xlink:title=" ">
<path fill="none" stroke="#63b8ff" d="M999.74,-149.36C1009.1,-148.09 1018.62,-146.79 1027.91,-145.53"/>
<polygon fill="#63b8ff" stroke="#63b8ff" points="1028.17,-149.02 1037.61,-144.21 1027.23,-142.09 1028.17,-149.02"/>
</a>
</g>
</g>
<!-- Node8 -->
<g id="Node000008" class="node">
<title>Node8</title>
<g id="a_Node000008"><a xlink:href="class_a_q_n_w_b_1_1_n_w_b_1_1_n_w_b_file.html#aaf2e07b4e912fc34ab052d38f92e6cdd" target="_top" xlink:title="Saves the specification files for the schema.">
<polygon fill="white" stroke="#666666" points="1528.12,-244.5 1398.12,-244.5 1398.12,-214 1528.12,-214 1528.12,-244.5"/>
<text xml:space="preserve" text-anchor="start" x="1406.12" y="-231" font-family="Helvetica,sans-Serif" font-size="10.00">AQNWB::NWB::NWBFile</text>
<text xml:space="preserve" text-anchor="middle" x="1463.12" y="-219.75" font-family="Helvetica,sans-Serif" font-size="10.00">::cacheSpecifications</text>
</a>
</g>
</g>
<!-- Node7&#45;&gt;Node8 -->
<g id="edge7_Node000007_Node000008" class="edge">
<title>Node7&#45;&gt;Node8</title>
<g id="a_edge7_Node000007_Node000008"><a xlink:title=" ">
<path fill="none" stroke="#63b8ff" d="M1169.67,-192.35C1230.58,-200.03 1322.16,-211.59 1386.57,-219.72"/>
<polygon fill="#63b8ff" stroke="#63b8ff" points="1386.01,-223.17 1396.37,-220.95 1386.89,-216.23 1386.01,-223.17"/>
</a>
</g>
</g>
<!-- Node10 -->
<g id="Node000010" class="node">
<title>Node10</title>
<g id="a_Node000010"><a xlink:href="class_a_q_n_w_b_1_1_n_w_b_1_1_n_w_b_file.html#a71bd7b910a7ec89bdaf36304d67bfef1" target="_top" xlink:title="Creates the default file structure. Note, this function will fail if the file is in a mode where new ...">
<polygon fill="white" stroke="#666666" points="1335.5,-170.5 1205.5,-170.5 1205.5,-140 1335.5,-140 1335.5,-170.5"/>
<text xml:space="preserve" text-anchor="start" x="1213.5" y="-157" font-family="Helvetica,sans-Serif" font-size="10.00">AQNWB::NWB::NWBFile</text>
<text xml:space="preserve" text-anchor="middle" x="1270.5" y="-145.75" font-family="Helvetica,sans-Serif" font-size="10.00">::createFileStructure</text>
</a>
</g>
</g>
<!-- Node7&#45;&gt;Node10 -->
<g id="edge9_Node000007_Node000010" class="edge">
<title>Node7&#45;&gt;Node10</title>
<g id="a_edge9_Node000007_Node000010"><a xlink:title=" ">
<path fill="none" stroke="#63b8ff" d="M1169.85,-172.87C1177.71,-171.48 1185.81,-170.05 1193.83,-168.63"/>
<polygon fill="#63b8ff" stroke="#63b8ff" points="1194.34,-172.09 1203.58,-166.91 1193.12,-165.2 1194.34,-172.09"/>
</a>
</g>
</g>
<!-- Node9 -->
<g id="Node000009" class="node">
<title>Node9</title>
<g id="a_Node000009"><a xlink:href="namespace_a_q_n_w_b.html#a31983dbaaa85c2e355b9687fc0ef1881" target="_top" xlink:title="Merge two paths into a single path, handling extra trailing and starting &quot;/&quot;.">
<polygon fill="white" stroke="#666666" points="1703.5,-238.88 1590.75,-238.88 1590.75,-219.62 1703.5,-219.62 1703.5,-238.88"/>
<text xml:space="preserve" text-anchor="middle" x="1647.12" y="-225.38" font-family="Helvetica,sans-Serif" font-size="10.00">AQNWB::mergePaths</text>
</a>
</g>
</g>
<!-- Node8&#45;&gt;Node9 -->
<g id="edge8_Node000008_Node000009" class="edge">
<title>Node8&#45;&gt;Node9</title>
<g id="a_edge8_Node000008_Node000009"><a xlink:title=" ">
<path fill="none" stroke="#63b8ff" d="M1528.55,-229.25C1545,-229.25 1562.72,-229.25 1579.29,-229.25"/>
<polygon fill="#63b8ff" stroke="#63b8ff" points="1579.03,-232.75 1589.03,-229.25 1579.03,-225.75 1579.03,-232.75"/>
</a>
</g>
</g>
<!-- Node10&#45;&gt;Node8 -->
<g id="edge10_Node000010_Node000008" class="edge">
<title>Node10&#45;&gt;Node8</title>
<g id="a_edge10_Node000010_Node000008"><a xlink:title=" ">
<path fill="none" stroke="#63b8ff" d="M1299.75,-170.86C1319.44,-181.29 1346.55,-194.79 1371.5,-204.25 1377.03,-206.35 1382.81,-208.35 1388.67,-210.25"/>
<polygon fill="#63b8ff" stroke="#63b8ff" points="1387.2,-213.46 1397.79,-213.09 1389.28,-206.77 1387.2,-213.46"/>
</a>
</g>
</g>
<!-- Node11 -->
<g id="Node000011" class="node">
<title>Node11</title>
<g id="a_Node000011"><a xlink:href="class_a_q_n_w_b_1_1_s_p_e_c_1_1_namespace_registry.html#aceded37c693bb2f6aa21a5945a13557c" target="_top" xlink:title="Get all registered namespaces.">
<polygon fill="white" stroke="#666666" points="1554.75,-195.5 1371.5,-195.5 1371.5,-165 1554.75,-165 1554.75,-195.5"/>
<text xml:space="preserve" text-anchor="start" x="1379.5" y="-182" font-family="Helvetica,sans-Serif" font-size="10.00">AQNWB::SPEC::NamespaceRegistry</text>
<text xml:space="preserve" text-anchor="middle" x="1463.12" y="-170.75" font-family="Helvetica,sans-Serif" font-size="10.00">::getAllNamespaces</text>
</a>
</g>
</g>
<!-- Node10&#45;&gt;Node11 -->
<g id="edge11_Node000010_Node000011" class="edge">
<title>Node10&#45;&gt;Node11</title>
<g id="a_edge11_Node000010_Node000011"><a xlink:title=" ">
<path fill="none" stroke="#63b8ff" d="M1335.77,-163.68C1343.57,-164.7 1351.69,-165.77 1359.87,-166.84"/>
<polygon fill="#63b8ff" stroke="#63b8ff" points="1359.18,-170.28 1369.55,-168.11 1360.09,-163.34 1359.18,-170.28"/>
</a>
</g>
</g>
<!-- Node12 -->
<g id="Node000012" class="node">
<title>Node12</title>
<g id="a_Node000012"><a xlink:href="class_a_q_n_w_b_1_1_n_w_b_1_1_registered_type.html#a651f3d7e5cc28dc93888e8a821c5aa1c" target="_top" xlink:title="Get the schema namespace of the class type.">
<polygon fill="white" stroke="#666666" points="1542.38,-146.5 1383.88,-146.5 1383.88,-116 1542.38,-116 1542.38,-146.5"/>
<text xml:space="preserve" text-anchor="start" x="1391.88" y="-133" font-family="Helvetica,sans-Serif" font-size="10.00">AQNWB::NWB::RegisteredType</text>
<text xml:space="preserve" text-anchor="middle" x="1463.12" y="-121.75" font-family="Helvetica,sans-Serif" font-size="10.00">::getNamespace</text>
</a>
</g>
</g>
<!-- Node10&#45;&gt;Node12 -->
<g id="edge12_Node000010_Node000012" class="edge">
<title>Node10&#45;&gt;Node12</title>
<g id="a_edge12_Node000010_Node000012"><a xlink:title=" ">
<path fill="none" stroke="#63b8ff" d="M1335.77,-147.16C1347.52,-145.68 1359.98,-144.11 1372.31,-142.56"/>
<polygon fill="#63b8ff" stroke="#63b8ff" points="1372.6,-146.05 1382.08,-141.33 1371.72,-139.1 1372.6,-146.05"/>
</a>
</g>
</g>
<!-- Node13 -->
<g id="Node000013" class="node">
<title>Node13</title>
<g id="a_Node000013"><a xlink:href="class_a_q_n_w_b_1_1_n_w_b_1_1_registered_type.html#a150f881ad61cb8352eea7ddba47bc6ad" target="_top" xlink:title="Get the name of the class type.">
<polygon fill="white" stroke="#666666" points="1542.38,-97.5 1383.88,-97.5 1383.88,-67 1542.38,-67 1542.38,-97.5"/>
<text xml:space="preserve" text-anchor="start" x="1391.88" y="-84" font-family="Helvetica,sans-Serif" font-size="10.00">AQNWB::NWB::RegisteredType</text>
<text xml:space="preserve" text-anchor="middle" x="1463.12" y="-72.75" font-family="Helvetica,sans-Serif" font-size="10.00">::getTypeName</text>
</a>
</g>
</g>
<!-- Node10&#45;&gt;Node13 -->
<g id="edge13_Node000010_Node000013" class="edge">
<title>Node10&#45;&gt;Node13</title>
<g id="a_edge13_Node000010_Node000013"><a xlink:title=" ">
<path fill="none" stroke="#63b8ff" d="M1300.65,-139.55C1320.28,-129.41 1346.97,-116.44 1371.5,-107.25 1377.14,-105.14 1383.03,-103.12 1388.99,-101.2"/>
<polygon fill="#63b8ff" stroke="#63b8ff" points="1389.78,-104.62 1398.3,-98.33 1387.71,-97.94 1389.78,-104.62"/>
</a>
</g>
</g>
<!-- Node14 -->
<g id="Node000014" class="node">
<title>Node14</title>
<g id="a_Node000014"><a xlink:href="class_a_q_n_w_b_1_1_s_p_e_c_1_1_namespace_registry.html#a15d9c6f869f0270ad91a2af8067f5a88" target="_top" xlink:title="Get the singleton instance of the NamespaceRegistry.">
<polygon fill="white" stroke="#666666" points="1554.75,-48.5 1371.5,-48.5 1371.5,-18 1554.75,-18 1554.75,-48.5"/>
<text xml:space="preserve" text-anchor="start" x="1379.5" y="-35" font-family="Helvetica,sans-Serif" font-size="10.00">AQNWB::SPEC::NamespaceRegistry</text>
<text xml:space="preserve" text-anchor="middle" x="1463.12" y="-23.75" font-family="Helvetica,sans-Serif" font-size="10.00">::instance</text>
</a>
</g>
</g>
<!-- Node10&#45;&gt;Node14 -->
<g id="edge14_Node000010_Node000014" class="edge">
<title>Node10&#45;&gt;Node14</title>
<g id="a_edge14_Node000010_Node000014"><a xlink:title=" ">
<path fill="none" stroke="#63b8ff" d="M1283.29,-139.68C1300.38,-118.17 1334.13,-79.63 1371.5,-58.25 1374.52,-56.52 1377.66,-54.91 1380.89,-53.4"/>
<polygon fill="#63b8ff" stroke="#63b8ff" points="1382.19,-56.65 1390.04,-49.54 1379.47,-50.21 1382.19,-56.65"/>
</a>
</g>
</g>
</g>
</svg>

<g id="navigator" transform="translate(0 0)" fill="#404254">
  <rect fill="#f2f5e9" fill-opacity="0.5" stroke="#606060" stroke-width=".5" x="0" y="0" width="60" height="60"/>
  <use id="zoomplus" xlink:href="#zoomPlus" x="17" y="9" onmousedown="handleZoom(evt,'in')"/>
  <use id="zoomminus" xlink:href="#zoomMin" x="42" y="9" onmousedown="handleZoom(evt,'out')"/>
  <use id="reset" xlink:href="#resetDef" x="30" y="36" onmousedown="handleReset()"/>
   <use id="arrowup" xlink:href="#arrowUp" x="0" y="0" onmousedown="handlePan(0,-1)"/>
  <use id="arrowright" xlink:href="#arrowRight" x="0" y="0" onmousedown="handlePan(1,0)"/>
  <use id="arrowdown" xlink:href="#arrowDown" x="0" y="0" onmousedown="handlePan(0,1)"/>
  <use id="arrowleft" xlink:href="#arrowLeft" x="0" y="0" onmousedown="handlePan(-1,0)"/>
</g>
<svg viewBox="0 0 15 15" width="100%" height="30px" preserveAspectRatio="xMaxYMin meet">
 <g id="arrow_out" transform="scale(0.3 0.3)">
  <a xlink:href="class_a_q_n_w_b_1_1_n_w_b_1_1_n_w_b_file_aabb1a926056f5d26944328e928e42651_cgraph_org.svg" target="_base">
   <rect id="button" ry="5" rx="5" y="6" x="6" height="38" width="38"
        fill="#f2f5e9" fill-opacity="0.5" stroke="#606060" stroke-width="1.0"/>
   <path id="arrow"
     d="M 11.500037,31.436501 C 11.940474,20.09759 22.043105,11.32322 32.158766,21.979434 L 37.068811,17.246167 C 37.068811,17.246167 37.088388,32 37.088388,32 L 22.160133,31.978069 C 22.160133,31.978069 26.997745,27.140456 26.997745,27.140456 C 18.528582,18.264221 13.291696,25.230495 11.500037,31.436501 z"
     style="fill:#404040;"/>
  </a>
 </g>
</svg>

<style type='text/css'>
<![CDATA[
[data-mouse-over-selected='false'] { opacity: 0.7; }
[data-mouse-over-selected='true']  { opacity: 1.0; }
]]>
</style>
<script type="application/ecmascript"><![CDATA[
document.addEventListener('DOMContentLoaded', (event) => {
  highlightEdges();
  highlightAdjacentNodes();
});
]]></script>
</svg>
