<?xml version="1.0" encoding="UTF-8" standalone="no"?>
<!DOCTYPE svg PUBLIC "-//W3C//DTD SVG 1.1//EN"
 "http://www.w3.org/Graphics/SVG/1.1/DTD/svg11.dtd">
<!-- Generated by graphviz version 13.1.2 (20250808.2320)
 -->
<!-- Title: AQNWB::NWB::ElectrodeTable::initialize Pages: 1 -->
<svg width="526pt" height="88pt"
 viewBox="0.00 0.00 526.00 88.00" xmlns="http://www.w3.org/2000/svg" xmlns:xlink="http://www.w3.org/1999/xlink">
<g id="graph0" class="graph" transform="scale(1 1) rotate(0) translate(4 83.5)">
<title>AQNWB::NWB::ElectrodeTable::initialize</title>
<!-- Node1 -->
<g id="Node000001" class="node">
<title>Node1</title>
<g id="a_Node000001"><a xlink:title="Initializes the ElectrodeTable.">
<polygon fill="#999999" stroke="#666666" points="154.75,-54.5 0,-54.5 0,-24 154.75,-24 154.75,-54.5"/>
<text xml:space="preserve" text-anchor="start" x="8" y="-41" font-family="Helvetica,sans-Serif" font-size="10.00">AQNWB::NWB::ElectrodeTable</text>
<text xml:space="preserve" text-anchor="middle" x="77.38" y="-29.75" font-family="Helvetica,sans-Serif" font-size="10.00">::initialize</text>
</a>
</g>
</g>
<!-- Node2 -->
<g id="Node000002" class="node">
<title>Node2</title>
<g id="a_Node000002"><a xlink:href="class_a_q_n_w_b_1_1_n_w_b_1_1_container.html#a420424e52795b5212d7dcb728396af6a" target="_top" xlink:title="Initialize the container.">
<polygon fill="white" stroke="#666666" points="323,-54.5 190.75,-54.5 190.75,-24 323,-24 323,-54.5"/>
<text xml:space="preserve" text-anchor="start" x="198.75" y="-41" font-family="Helvetica,sans-Serif" font-size="10.00">AQNWB::NWB::Container</text>
<text xml:space="preserve" text-anchor="middle" x="256.88" y="-29.75" font-family="Helvetica,sans-Serif" font-size="10.00">::initialize</text>
</a>
</g>
</g>
<!-- Node1&#45;&gt;Node2 -->
<g id="edge1_Node000001_Node000002" class="edge">
<title>Node1&#45;&gt;Node2</title>
<g id="a_edge1_Node000001_Node000002"><a xlink:title=" ">
<path fill="none" stroke="#63b8ff" d="M155.2,-39.25C163.07,-39.25 171.06,-39.25 178.93,-39.25"/>
<polygon fill="#63b8ff" stroke="#63b8ff" points="178.83,-42.75 188.83,-39.25 178.83,-35.75 178.83,-42.75"/>
</a>
</g>
</g>
<!-- Node3 -->
<g id="Node000003" class="node">
<title>Node3</title>
<g id="a_Node000003"><a xlink:href="class_a_q_n_w_b_1_1_n_w_b_1_1_registered_type.html#a651f3d7e5cc28dc93888e8a821c5aa1c" target="_top" xlink:title="Get the schema namespace of the class type.">
<polygon fill="white" stroke="#666666" points="517.5,-79.5 359,-79.5 359,-49 517.5,-49 517.5,-79.5"/>
<text xml:space="preserve" text-anchor="start" x="367" y="-66" font-family="Helvetica,sans-Serif" font-size="10.00">AQNWB::NWB::RegisteredType</text>
<text xml:space="preserve" text-anchor="middle" x="438.25" y="-54.75" font-family="Helvetica,sans-Serif" font-size="10.00">::getNamespace</text>
</a>
</g>
</g>
<!-- Node2&#45;&gt;Node3 -->
<g id="edge2_Node000002_Node000003" class="edge">
<title>Node2&#45;&gt;Node3</title>
<g id="a_edge2_Node000002_Node000003"><a xlink:title=" ">
<path fill="none" stroke="#63b8ff" d="M323.39,-48.38C331.31,-49.48 339.49,-50.63 347.67,-51.77"/>
<polygon fill="#63b8ff" stroke="#63b8ff" points="346.92,-55.19 357.31,-53.11 347.89,-48.26 346.92,-55.19"/>
</a>
</g>
</g>
<!-- Node4 -->
<g id="Node000004" class="node">
<title>Node4</title>
<g id="a_Node000004"><a xlink:href="class_a_q_n_w_b_1_1_n_w_b_1_1_registered_type.html#a150f881ad61cb8352eea7ddba47bc6ad" target="_top" xlink:title="Get the name of the class type.">
<polygon fill="white" stroke="#666666" points="517.5,-30.5 359,-30.5 359,0 517.5,0 517.5,-30.5"/>
<text xml:space="preserve" text-anchor="start" x="367" y="-17" font-family="Helvetica,sans-Serif" font-size="10.00">AQNWB::NWB::RegisteredType</text>
<text xml:space="preserve" text-anchor="middle" x="438.25" y="-5.75" font-family="Helvetica,sans-Serif" font-size="10.00">::getTypeName</text>
</a>
</g>
</g>
<!-- Node2&#45;&gt;Node4 -->
<g id="edge3_Node000002_Node000004" class="edge">
<title>Node2&#45;&gt;Node4</title>
<g id="a_edge3_Node000002_Node000004"><a xlink:title=" ">
<path fill="none" stroke="#63b8ff" d="M323.39,-30.48C331.22,-29.44 339.31,-28.35 347.39,-27.27"/>
<polygon fill="#63b8ff" stroke="#63b8ff" points="347.86,-30.74 357.31,-25.95 346.93,-23.8 347.86,-30.74"/>
</a>
</g>
</g>
</g>
</svg>
