<?xml version="1.0" encoding="UTF-8" standalone="no"?>
<!DOCTYPE svg PUBLIC "-//W3C//DTD SVG 1.1//EN"
 "http://www.w3.org/Graphics/SVG/1.1/DTD/svg11.dtd">
<!-- Generated by graphviz version 14.0.5 (20251129.0259)
 -->
<!-- Title: AQNWB::NWB::ElectrodesTable::finalize Pages: 1 -->
<svg width="536pt" height="186pt"
 viewBox="0.00 0.00 536.00 186.00" xmlns="http://www.w3.org/2000/svg" xmlns:xlink="http://www.w3.org/1999/xlink">
<g id="graph0" class="graph" transform="scale(1 1) rotate(0) translate(4 181.5)">
<title>AQNWB::NWB::ElectrodesTable::finalize</title>
<!-- Node1 -->
<g id="Node000001" class="node">
<title>Node1</title>
<g id="a_Node000001"><a xlink:title="Finalizes the ElectrodesTable.">
<polygon fill="#999999" stroke="#666666" points="160,-103.5 0,-103.5 0,-73 160,-73 160,-103.5"/>
<text xml:space="preserve" text-anchor="start" x="8" y="-90" font-family="Helvetica,sans-Serif" font-size="10.00">AQNWB::NWB::ElectrodesTable</text>
<text xml:space="preserve" text-anchor="middle" x="80" y="-78.75" font-family="Helvetica,sans-Serif" font-size="10.00">::finalize</text>
</a>
</g>
</g>
<!-- Node2 -->
<g id="Node000002" class="node">
<title>Node2</title>
<g id="a_Node000002"><a xlink:href="class_a_q_n_w_b_1_1_n_w_b_1_1_dynamic_table.html#a916169b9c8b324833861df2af1b59c3f" target="_top" xlink:title="Adds a column of vector string data to the table.">
<polygon fill="white" stroke="#666666" points="348.5,-177.5 196,-177.5 196,-147 348.5,-147 348.5,-177.5"/>
<text xml:space="preserve" text-anchor="start" x="204" y="-164" font-family="Helvetica,sans-Serif" font-size="10.00">AQNWB::NWB::DynamicTable</text>
<text xml:space="preserve" text-anchor="middle" x="272.25" y="-152.75" font-family="Helvetica,sans-Serif" font-size="10.00">::addColumn</text>
</a>
</g>
</g>
<!-- Node1&#45;&gt;Node2 -->
<g id="edge1_Node000001_Node000002" class="edge">
<title>Node1&#45;&gt;Node2</title>
<g id="a_edge1_Node000001_Node000002"><a xlink:title=" ">
<path fill="none" stroke="#63b8ff" d="M115.68,-103.9C138.34,-113.92 168.7,-126.92 196,-137.25 200.97,-139.13 206.15,-141.01 211.37,-142.85"/>
<polygon fill="#63b8ff" stroke="#63b8ff" points="210.04,-146.1 220.64,-146.06 212.33,-139.48 210.04,-146.1"/>
</a>
</g>
</g>
<!-- Node3 -->
<g id="Node000003" class="node">
<title>Node3</title>
<g id="a_Node000003"><a xlink:href="class_a_q_n_w_b_1_1_n_w_b_1_1_dynamic_table.html#ab5d214fb6eb95bcaf0f4988b12e2b2db" target="_top" xlink:title="Adds a column of references to the table.">
<polygon fill="white" stroke="#666666" points="348.5,-128.5 196,-128.5 196,-98 348.5,-98 348.5,-128.5"/>
<text xml:space="preserve" text-anchor="start" x="204" y="-115" font-family="Helvetica,sans-Serif" font-size="10.00">AQNWB::NWB::DynamicTable</text>
<text xml:space="preserve" text-anchor="middle" x="272.25" y="-103.75" font-family="Helvetica,sans-Serif" font-size="10.00">::addReferenceColumn</text>
</a>
</g>
</g>
<!-- Node1&#45;&gt;Node3 -->
<g id="edge2_Node000001_Node000003" class="edge">
<title>Node1&#45;&gt;Node3</title>
<g id="a_edge2_Node000001_Node000003"><a xlink:title=" ">
<path fill="none" stroke="#63b8ff" d="M160.31,-98.67C168.27,-99.72 176.4,-100.79 184.44,-101.84"/>
<polygon fill="#63b8ff" stroke="#63b8ff" points="183.86,-105.3 194.23,-103.13 184.77,-98.36 183.86,-105.3"/>
</a>
</g>
</g>
<!-- Node6 -->
<g id="Node000006" class="node">
<title>Node6</title>
<g id="a_Node000006"><a xlink:href="class_a_q_n_w_b_1_1_n_w_b_1_1_dynamic_table.html#a73d77bda3d8c609a93a9a26296d36af9" target="_top" xlink:title="Finalizes writing the DynamicTable.">
<polygon fill="white" stroke="#666666" points="348.5,-79.5 196,-79.5 196,-49 348.5,-49 348.5,-79.5"/>
<text xml:space="preserve" text-anchor="start" x="204" y="-66" font-family="Helvetica,sans-Serif" font-size="10.00">AQNWB::NWB::DynamicTable</text>
<text xml:space="preserve" text-anchor="middle" x="272.25" y="-54.75" font-family="Helvetica,sans-Serif" font-size="10.00">::finalize</text>
</a>
</g>
</g>
<!-- Node1&#45;&gt;Node6 -->
<g id="edge5_Node000001_Node000006" class="edge">
<title>Node1&#45;&gt;Node6</title>
<g id="a_edge5_Node000001_Node000006"><a xlink:title=" ">
<path fill="none" stroke="#63b8ff" d="M160.31,-78.25C168.27,-77.24 176.4,-76.22 184.44,-75.2"/>
<polygon fill="#63b8ff" stroke="#63b8ff" points="184.75,-78.69 194.23,-73.97 183.87,-71.75 184.75,-78.69"/>
</a>
</g>
</g>
<!-- Node7 -->
<g id="Node000007" class="node">
<title>Node7</title>
<g id="a_Node000007"><a xlink:href="class_a_q_n_w_b_1_1_n_w_b_1_1_dynamic_table.html#a041703ef385d58d2ccc7dc613b4a7de7" target="_top" xlink:title="Adds a column of element identifiers to the table.">
<polygon fill="white" stroke="#666666" points="348.5,-30.5 196,-30.5 196,0 348.5,0 348.5,-30.5"/>
<text xml:space="preserve" text-anchor="start" x="204" y="-17" font-family="Helvetica,sans-Serif" font-size="10.00">AQNWB::NWB::DynamicTable</text>
<text xml:space="preserve" text-anchor="middle" x="272.25" y="-5.75" font-family="Helvetica,sans-Serif" font-size="10.00">::setRowIDs</text>
</a>
</g>
</g>
<!-- Node1&#45;&gt;Node7 -->
<g id="edge6_Node000001_Node000007" class="edge">
<title>Node1&#45;&gt;Node7</title>
<g id="a_edge6_Node000001_Node000007"><a xlink:title=" ">
<path fill="none" stroke="#63b8ff" d="M116.72,-72.53C139.29,-62.8 169.15,-50.3 196,-40.25 200.98,-38.39 206.16,-36.52 211.38,-34.69"/>
<polygon fill="#63b8ff" stroke="#63b8ff" points="212.34,-38.06 220.65,-31.49 210.06,-31.44 212.34,-38.06"/>
</a>
</g>
</g>
<!-- Node4 -->
<g id="Node000004" class="node">
<title>Node4</title>
<g id="a_Node000004"><a xlink:href="class_a_q_n_w_b_1_1_n_w_b_1_1_vector_data.html#abe2327fa906124532478a13abcee1ea4" target="_top" xlink:title="Create a VectorData object with a reference dataset.">
<polygon fill="white" stroke="#666666" points="528,-128.5 384.5,-128.5 384.5,-98 528,-98 528,-128.5"/>
<text xml:space="preserve" text-anchor="start" x="392.5" y="-115" font-family="Helvetica,sans-Serif" font-size="10.00">AQNWB::NWB::VectorData</text>
<text xml:space="preserve" text-anchor="middle" x="456.25" y="-103.75" font-family="Helvetica,sans-Serif" font-size="10.00">::createReferenceVectorData</text>
</a>
</g>
</g>
<!-- Node3&#45;&gt;Node4 -->
<g id="edge3_Node000003_Node000004" class="edge">
<title>Node3&#45;&gt;Node4</title>
<g id="a_edge3_Node000003_Node000004"><a xlink:title=" ">
<path fill="none" stroke="#63b8ff" d="M348.85,-113.25C356.82,-113.25 364.95,-113.25 372.98,-113.25"/>
<polygon fill="#63b8ff" stroke="#63b8ff" points="372.74,-116.75 382.74,-113.25 372.74,-109.75 372.74,-116.75"/>
</a>
</g>
</g>
<!-- Node5 -->
<g id="Node000005" class="node">
<title>Node5</title>
<g id="a_Node000005"><a xlink:href="namespace_a_q_n_w_b.html#a31983dbaaa85c2e355b9687fc0ef1881" target="_top" xlink:title="Merge two paths into a single path, handling extra trailing and starting &quot;/&quot;.">
<polygon fill="white" stroke="#666666" points="512.62,-52.88 399.88,-52.88 399.88,-33.62 512.62,-33.62 512.62,-52.88"/>
<text xml:space="preserve" text-anchor="middle" x="456.25" y="-39.38" font-family="Helvetica,sans-Serif" font-size="10.00">AQNWB::mergePaths</text>
</a>
</g>
</g>
<!-- Node3&#45;&gt;Node5 -->
<g id="edge4_Node000003_Node000005" class="edge">
<title>Node3&#45;&gt;Node5</title>
<g id="a_edge4_Node000003_Node000005"><a xlink:title=" ">
<path fill="none" stroke="#63b8ff" d="M322.42,-97.53C331.15,-94.56 340.12,-91.4 348.5,-88.25 373.67,-78.78 401.66,-66.93 422.67,-57.77"/>
<polygon fill="#63b8ff" stroke="#63b8ff" points="423.83,-61.08 431.58,-53.85 421.01,-54.67 423.83,-61.08"/>
</a>
</g>
</g>
<!-- Node7&#45;&gt;Node5 -->
<g id="edge7_Node000007_Node000005" class="edge">
<title>Node7&#45;&gt;Node5</title>
<g id="a_edge7_Node000007_Node000005"><a xlink:title=" ">
<path fill="none" stroke="#63b8ff" d="M348.85,-26.88C362,-28.9 375.58,-30.99 388.47,-32.98"/>
<polygon fill="#63b8ff" stroke="#63b8ff" points="387.67,-36.39 398.09,-34.46 388.74,-29.48 387.67,-36.39"/>
</a>
</g>
</g>
</g>
</svg>
