<?xml version="1.0" encoding="UTF-8" standalone="no"?>
<!DOCTYPE svg PUBLIC "-//W3C//DTD SVG 1.1//EN"
 "http://www.w3.org/Graphics/SVG/1.1/DTD/svg11.dtd">
<!-- Generated by graphviz version 14.1.0 (20251206.1807)
 -->
<!-- Title: AQNWB::NWB::ElectricalSeries::initialize Pages: 1 -->
<svg width="730pt" height="272pt"
 viewBox="0.00 0.00 730.00 272.00" xmlns="http://www.w3.org/2000/svg" xmlns:xlink="http://www.w3.org/1999/xlink">
<g id="graph0" class="graph" transform="scale(1 1) rotate(0) translate(4 267.5)">
<title>AQNWB::NWB::ElectricalSeries::initialize</title>
<!-- Node1 -->
<g id="Node000001" class="node">
<title>Node1</title>
<g id="a_Node000001"><a xlink:title="Initializes the Electrical Series.">
<polygon fill="#999999" stroke="#666666" points="158.5,-143.5 0,-143.5 0,-113 158.5,-113 158.5,-143.5"/>
<text xml:space="preserve" text-anchor="start" x="8" y="-130" font-family="Helvetica,sans-Serif" font-size="10.00">AQNWB::NWB::ElectricalSeries</text>
<text xml:space="preserve" text-anchor="middle" x="79.25" y="-118.75" font-family="Helvetica,sans-Serif" font-size="10.00">::initialize</text>
</a>
</g>
</g>
<!-- Node2 -->
<g id="Node000002" class="node">
<title>Node2</title>
<g id="a_Node000002"><a xlink:href="class_a_q_n_w_b_1_1_i_o_1_1_array_data_set_config.html#aead95752724335677d8e3cee6afe97bb" target="_top" xlink:title="Returns the chunking of the dataset.">
<polygon fill="white" stroke="#666666" points="359,-263.5 194.5,-263.5 194.5,-233 359,-233 359,-263.5"/>
<text xml:space="preserve" text-anchor="start" x="202.5" y="-250" font-family="Helvetica,sans-Serif" font-size="10.00">AQNWB::IO::ArrayDataSetConfig</text>
<text xml:space="preserve" text-anchor="middle" x="276.75" y="-238.75" font-family="Helvetica,sans-Serif" font-size="10.00">::getChunking</text>
</a>
</g>
</g>
<!-- Node1&#45;&gt;Node2 -->
<g id="edge1_Node000001_Node000002" class="edge">
<title>Node1&#45;&gt;Node2</title>
<g id="a_edge1_Node000001_Node000002"><a xlink:title=" ">
<path fill="none" stroke="#63b8ff" d="M95.05,-143.95C115.54,-164.84 154.57,-201.64 194.5,-223.25 197.74,-225.01 201.13,-226.66 204.6,-228.21"/>
<polygon fill="#63b8ff" stroke="#63b8ff" points="203.21,-231.42 213.79,-231.99 205.87,-224.95 203.21,-231.42"/>
</a>
</g>
</g>
<!-- Node3 -->
<g id="Node000003" class="node">
<title>Node3</title>
<g id="a_Node000003"><a xlink:href="class_a_q_n_w_b_1_1_n_w_b_1_1_registered_type.html#ab3eec5d2a591356df25053a4159ab671" target="_top" xlink:title="Gets the path of the registered type.">
<polygon fill="white" stroke="#666666" points="356,-214.5 197.5,-214.5 197.5,-184 356,-184 356,-214.5"/>
<text xml:space="preserve" text-anchor="start" x="205.5" y="-201" font-family="Helvetica,sans-Serif" font-size="10.00">AQNWB::NWB::RegisteredType</text>
<text xml:space="preserve" text-anchor="middle" x="276.75" y="-189.75" font-family="Helvetica,sans-Serif" font-size="10.00">::getPath</text>
</a>
</g>
</g>
<!-- Node1&#45;&gt;Node3 -->
<g id="edge2_Node000001_Node000003" class="edge">
<title>Node1&#45;&gt;Node3</title>
<g id="a_edge2_Node000001_Node000003"><a xlink:title=" ">
<path fill="none" stroke="#63b8ff" d="M117,-143.96C139.25,-153.25 168.3,-164.96 194.5,-174.25 200.15,-176.25 206.05,-178.25 211.99,-180.19"/>
<polygon fill="#63b8ff" stroke="#63b8ff" points="210.62,-183.43 221.21,-183.16 212.76,-176.76 210.62,-183.43"/>
</a>
</g>
</g>
<!-- Node4 -->
<g id="Node000004" class="node">
<title>Node4</title>
<g id="a_Node000004"><a xlink:href="class_a_q_n_w_b_1_1_n_w_b_1_1_n_w_b_container.html#a80beeda4c4761fe414407e4cc0d4fe8c" target="_top" xlink:title="Initialize the object.">
<polygon fill="white" stroke="#666666" points="354.88,-165.5 198.62,-165.5 198.62,-135 354.88,-135 354.88,-165.5"/>
<text xml:space="preserve" text-anchor="start" x="206.62" y="-152" font-family="Helvetica,sans-Serif" font-size="10.00">AQNWB::NWB::NWBContainer</text>
<text xml:space="preserve" text-anchor="middle" x="276.75" y="-140.75" font-family="Helvetica,sans-Serif" font-size="10.00">::initialize</text>
</a>
</g>
</g>
<!-- Node1&#45;&gt;Node4 -->
<g id="edge3_Node000001_Node000004" class="edge">
<title>Node1&#45;&gt;Node4</title>
<g id="a_edge3_Node000001_Node000004"><a xlink:title=" ">
<path fill="none" stroke="#63b8ff" d="M158.92,-137.1C168.12,-138.14 177.56,-139.2 186.89,-140.25"/>
<polygon fill="#63b8ff" stroke="#63b8ff" points="186.36,-143.71 196.69,-141.35 187.14,-136.76 186.36,-143.71"/>
</a>
</g>
</g>
<!-- Node8 -->
<g id="Node000008" class="node">
<title>Node8</title>
<g id="a_Node000008"><a xlink:href="namespace_a_q_n_w_b.html#a31983dbaaa85c2e355b9687fc0ef1881" target="_top" xlink:title="Merge two paths into a single path, handling extra trailing and starting &quot;/&quot;.">
<polygon fill="white" stroke="#666666" points="333.12,-116.88 220.38,-116.88 220.38,-97.62 333.12,-97.62 333.12,-116.88"/>
<text xml:space="preserve" text-anchor="middle" x="276.75" y="-103.38" font-family="Helvetica,sans-Serif" font-size="10.00">AQNWB::mergePaths</text>
</a>
</g>
</g>
<!-- Node1&#45;&gt;Node8 -->
<g id="edge7_Node000001_Node000008" class="edge">
<title>Node1&#45;&gt;Node8</title>
<g id="a_edge7_Node000001_Node000008"><a xlink:title=" ">
<path fill="none" stroke="#63b8ff" d="M158.92,-119.8C175.4,-118.03 192.63,-116.18 208.64,-114.46"/>
<polygon fill="#63b8ff" stroke="#63b8ff" points="208.98,-117.94 218.55,-113.39 208.23,-110.98 208.98,-117.94"/>
</a>
</g>
</g>
<!-- Node9 -->
<g id="Node000009" class="node">
<title>Node9</title>
<g id="a_Node000009"><a xlink:href="class_a_q_n_w_b_1_1_n_w_b_1_1_electrical_series.html#ab91599ee8b562b5fd1505733ff823b72" target="_top" xlink:title=" ">
<polygon fill="white" stroke="#666666" points="356,-79.5 197.5,-79.5 197.5,-49 356,-49 356,-79.5"/>
<text xml:space="preserve" text-anchor="start" x="205.5" y="-66" font-family="Helvetica,sans-Serif" font-size="10.00">AQNWB::NWB::ElectricalSeries</text>
<text xml:space="preserve" text-anchor="middle" x="276.75" y="-54.75" font-family="Helvetica,sans-Serif" font-size="10.00">::recordChannelConversion</text>
</a>
</g>
</g>
<!-- Node1&#45;&gt;Node9 -->
<g id="edge8_Node000001_Node000009" class="edge">
<title>Node1&#45;&gt;Node9</title>
<g id="a_edge8_Node000001_Node000009"><a xlink:title=" ">
<path fill="none" stroke="#63b8ff" d="M123.48,-112.55C144.78,-104.96 170.9,-95.86 194.5,-88.25 199.79,-86.54 205.29,-84.82 210.82,-83.12"/>
<polygon fill="#63b8ff" stroke="#63b8ff" points="211.44,-86.58 219.99,-80.33 209.41,-79.89 211.44,-86.58"/>
</a>
</g>
</g>
<!-- Node10 -->
<g id="Node000010" class="node">
<title>Node10</title>
<g id="a_Node000010"><a xlink:href="class_a_q_n_w_b_1_1_n_w_b_1_1_electrical_series.html#aba56c00f2ba3844dac940092c8440d0d" target="_top" xlink:title=" ">
<polygon fill="white" stroke="#666666" points="356,-30.5 197.5,-30.5 197.5,0 356,0 356,-30.5"/>
<text xml:space="preserve" text-anchor="start" x="205.5" y="-17" font-family="Helvetica,sans-Serif" font-size="10.00">AQNWB::NWB::ElectricalSeries</text>
<text xml:space="preserve" text-anchor="middle" x="276.75" y="-5.75" font-family="Helvetica,sans-Serif" font-size="10.00">::recordElectrodes</text>
</a>
</g>
</g>
<!-- Node1&#45;&gt;Node10 -->
<g id="edge9_Node000001_Node000010" class="edge">
<title>Node1&#45;&gt;Node10</title>
<g id="a_edge9_Node000001_Node000010"><a xlink:title=" ">
<path fill="none" stroke="#63b8ff" d="M96.36,-112.77C117.38,-93.34 156.03,-60.15 194.5,-40.25 198.12,-38.38 201.91,-36.62 205.78,-34.97"/>
<polygon fill="#63b8ff" stroke="#63b8ff" points="206.76,-38.34 214.77,-31.41 204.19,-31.83 206.76,-38.34"/>
</a>
</g>
</g>
<!-- Node5 -->
<g id="Node000005" class="node">
<title>Node5</title>
<g id="a_Node000005"><a xlink:href="class_a_q_n_w_b_1_1_n_w_b_1_1_container.html#a420424e52795b5212d7dcb728396af6a" target="_top" xlink:title="Initialize the container.">
<polygon fill="white" stroke="#666666" points="527.25,-165.5 395,-165.5 395,-135 527.25,-135 527.25,-165.5"/>
<text xml:space="preserve" text-anchor="start" x="403" y="-152" font-family="Helvetica,sans-Serif" font-size="10.00">AQNWB::NWB::Container</text>
<text xml:space="preserve" text-anchor="middle" x="461.12" y="-140.75" font-family="Helvetica,sans-Serif" font-size="10.00">::initialize</text>
</a>
</g>
</g>
<!-- Node4&#45;&gt;Node5 -->
<g id="edge4_Node000004_Node000005" class="edge">
<title>Node4&#45;&gt;Node5</title>
<g id="a_edge4_Node000004_Node000005"><a xlink:title=" ">
<path fill="none" stroke="#63b8ff" d="M355.36,-150.25C364.56,-150.25 373.95,-150.25 383.15,-150.25"/>
<polygon fill="#63b8ff" stroke="#63b8ff" points="383.14,-153.75 393.14,-150.25 383.14,-146.75 383.14,-153.75"/>
</a>
</g>
</g>
<!-- Node6 -->
<g id="Node000006" class="node">
<title>Node6</title>
<g id="a_Node000006"><a xlink:href="class_a_q_n_w_b_1_1_n_w_b_1_1_registered_type.html#a651f3d7e5cc28dc93888e8a821c5aa1c" target="_top" xlink:title="Get the schema namespace of the class type.">
<polygon fill="white" stroke="#666666" points="721.75,-190.5 563.25,-190.5 563.25,-160 721.75,-160 721.75,-190.5"/>
<text xml:space="preserve" text-anchor="start" x="571.25" y="-177" font-family="Helvetica,sans-Serif" font-size="10.00">AQNWB::NWB::RegisteredType</text>
<text xml:space="preserve" text-anchor="middle" x="642.5" y="-165.75" font-family="Helvetica,sans-Serif" font-size="10.00">::getNamespace</text>
</a>
</g>
</g>
<!-- Node5&#45;&gt;Node6 -->
<g id="edge5_Node000005_Node000006" class="edge">
<title>Node5&#45;&gt;Node6</title>
<g id="a_edge5_Node000005_Node000006"><a xlink:title=" ">
<path fill="none" stroke="#63b8ff" d="M527.64,-159.38C535.56,-160.48 543.74,-161.63 551.92,-162.77"/>
<polygon fill="#63b8ff" stroke="#63b8ff" points="551.17,-166.19 561.56,-164.11 552.14,-159.26 551.17,-166.19"/>
</a>
</g>
</g>
<!-- Node7 -->
<g id="Node000007" class="node">
<title>Node7</title>
<g id="a_Node000007"><a xlink:href="class_a_q_n_w_b_1_1_n_w_b_1_1_registered_type.html#a150f881ad61cb8352eea7ddba47bc6ad" target="_top" xlink:title="Get the name of the class type.">
<polygon fill="white" stroke="#666666" points="721.75,-141.5 563.25,-141.5 563.25,-111 721.75,-111 721.75,-141.5"/>
<text xml:space="preserve" text-anchor="start" x="571.25" y="-128" font-family="Helvetica,sans-Serif" font-size="10.00">AQNWB::NWB::RegisteredType</text>
<text xml:space="preserve" text-anchor="middle" x="642.5" y="-116.75" font-family="Helvetica,sans-Serif" font-size="10.00">::getTypeName</text>
</a>
</g>
</g>
<!-- Node5&#45;&gt;Node7 -->
<g id="edge6_Node000005_Node000007" class="edge">
<title>Node5&#45;&gt;Node7</title>
<g id="a_edge6_Node000005_Node000007"><a xlink:title=" ">
<path fill="none" stroke="#63b8ff" d="M527.64,-141.48C535.47,-140.44 543.56,-139.35 551.64,-138.27"/>
<polygon fill="#63b8ff" stroke="#63b8ff" points="552.11,-141.74 561.56,-136.95 551.18,-134.8 552.11,-141.74"/>
</a>
</g>
</g>
</g>
</svg>
