<?xml version="1.0" encoding="UTF-8" standalone="no"?>
<!DOCTYPE svg PUBLIC "-//W3C//DTD SVG 1.1//EN"
 "http://www.w3.org/Graphics/SVG/1.1/DTD/svg11.dtd">
<!-- Generated by graphviz version 14.1.0 (20251206.1807)
 -->
<!-- Title: AQNWB::NWB::VectorDataTyped::fromVectorData Pages: 1 -->
<svg width="765pt" height="57pt"
 viewBox="0.00 0.00 765.00 57.00" xmlns="http://www.w3.org/2000/svg" xmlns:xlink="http://www.w3.org/1999/xlink">
<g id="graph0" class="graph" transform="scale(1 1) rotate(0) translate(4 52.5)">
<title>AQNWB::NWB::VectorDataTyped::fromVectorData</title>
<!-- Node1 -->
<g id="Node000001" class="node">
<title>Node1</title>
<g id="a_Node000001"><a xlink:title="Create a VectorDataTyped object from a Data object.">
<polygon fill="#999999" stroke="#666666" points="166,-30.5 0,-30.5 0,0 166,0 166,-30.5"/>
<text xml:space="preserve" text-anchor="start" x="8" y="-17" font-family="Helvetica,sans-Serif" font-size="10.00">AQNWB::NWB::VectorDataTyped</text>
<text xml:space="preserve" text-anchor="middle" x="83" y="-5.75" font-family="Helvetica,sans-Serif" font-size="10.00">::fromVectorData</text>
</a>
</g>
</g>
<!-- Node2 -->
<g id="Node000002" class="node">
<title>Node2</title>
<g id="a_Node000002"><a xlink:href="class_a_q_n_w_b_1_1_n_w_b_1_1_vector_data_typed.html#af685f8c0dea09f2c03059a0c498b8cc3" target="_top" xlink:title="Factor method to create a VectorDataTyped object.">
<polygon fill="white" stroke="#666666" points="368,-30.5 202,-30.5 202,0 368,0 368,-30.5"/>
<text xml:space="preserve" text-anchor="start" x="210" y="-17" font-family="Helvetica,sans-Serif" font-size="10.00">AQNWB::NWB::VectorDataTyped</text>
<text xml:space="preserve" text-anchor="middle" x="285" y="-5.75" font-family="Helvetica,sans-Serif" font-size="10.00">::create</text>
</a>
</g>
</g>
<!-- Node1&#45;&gt;Node2 -->
<g id="edge1_Node000001_Node000002" class="edge">
<title>Node1&#45;&gt;Node2</title>
<g id="a_edge1_Node000001_Node000002"><a xlink:title=" ">
<path fill="none" stroke="#63b8ff" d="M166.21,-15.25C174.2,-15.25 182.33,-15.25 190.42,-15.25"/>
<polygon fill="#63b8ff" stroke="#63b8ff" points="190.27,-18.75 200.27,-15.25 190.27,-11.75 190.27,-18.75"/>
</a>
</g>
</g>
<!-- Node3 -->
<g id="Node000003" class="node">
<title>Node3</title>
<g id="a_Node000003"><a xlink:href="class_a_q_n_w_b_1_1_n_w_b_1_1_registered_type.html#a6f7d3d6d30763215c823452176ed876a" target="_top" xlink:title="Create an instance of a registered subclass by name.">
<polygon fill="white" stroke="#666666" points="562.5,-30.5 404,-30.5 404,0 562.5,0 562.5,-30.5"/>
<text xml:space="preserve" text-anchor="start" x="412" y="-17" font-family="Helvetica,sans-Serif" font-size="10.00">AQNWB::NWB::RegisteredType</text>
<text xml:space="preserve" text-anchor="middle" x="483.25" y="-5.75" font-family="Helvetica,sans-Serif" font-size="10.00">::create</text>
</a>
</g>
</g>
<!-- Node2&#45;&gt;Node3 -->
<g id="edge2_Node000002_Node000003" class="edge">
<title>Node2&#45;&gt;Node3</title>
<g id="a_edge2_Node000002_Node000003"><a xlink:title=" ">
<path fill="none" stroke="#63b8ff" d="M368.37,-15.25C376.2,-15.25 384.16,-15.25 392.05,-15.25"/>
<polygon fill="#63b8ff" stroke="#63b8ff" points="392.02,-18.75 402.02,-15.25 392.02,-11.75 392.02,-18.75"/>
</a>
</g>
</g>
<!-- Node3&#45;&gt;Node3 -->
<g id="edge3_Node000003_Node000003" class="edge">
<title>Node3&#45;&gt;Node3</title>
<g id="a_edge3_Node000003_Node000003"><a xlink:title=" ">
<path fill="none" stroke="#63b8ff" d="M448.78,-30.99C441.75,-40.06 453.24,-48.5 483.25,-48.5 499.66,-48.5 510.53,-45.97 515.87,-42.2"/>
<polygon fill="#63b8ff" stroke="#63b8ff" points="519.3,-42.92 517.47,-32.48 512.39,-41.78 519.3,-42.92"/>
</a>
</g>
</g>
<!-- Node4 -->
<g id="Node000004" class="node">
<title>Node4</title>
<g id="a_Node000004"><a xlink:href="class_a_q_n_w_b_1_1_n_w_b_1_1_registered_type.html#ac83aa589b9c3ab5a00bab462e58fdbd5" target="_top" xlink:title="Get the factory map for creating instances of subclasses.">
<polygon fill="white" stroke="#666666" points="757,-30.5 598.5,-30.5 598.5,0 757,0 757,-30.5"/>
<text xml:space="preserve" text-anchor="start" x="606.5" y="-17" font-family="Helvetica,sans-Serif" font-size="10.00">AQNWB::NWB::RegisteredType</text>
<text xml:space="preserve" text-anchor="middle" x="677.75" y="-5.75" font-family="Helvetica,sans-Serif" font-size="10.00">::getFactoryMap</text>
</a>
</g>
</g>
<!-- Node3&#45;&gt;Node4 -->
<g id="edge4_Node000003_Node000004" class="edge">
<title>Node3&#45;&gt;Node4</title>
<g id="a_edge4_Node000003_Node000004"><a xlink:title=" ">
<path fill="none" stroke="#63b8ff" d="M562.82,-15.25C570.74,-15.25 578.82,-15.25 586.84,-15.25"/>
<polygon fill="#63b8ff" stroke="#63b8ff" points="586.6,-18.75 596.6,-15.25 586.6,-11.75 586.6,-18.75"/>
</a>
</g>
</g>
</g>
</svg>
