<?xml version="1.0" encoding="UTF-8" standalone="no"?>
<!DOCTYPE svg PUBLIC "-//W3C//DTD SVG 1.1//EN"
 "http://www.w3.org/Graphics/SVG/1.1/DTD/svg11.dtd">
<!-- Generated by graphviz version 14.1.2 (20260124.0452)
 -->
<!-- Title: AQNWB::IO::LinkArrayDataSetConfig::getProperties Pages: 1 -->
<!--zoomable 137 -->

<svg id="main" version="1.1" xmlns="http://www.w3.org/2000/svg" xmlns:xlink="http://www.w3.org/1999/xlink" xml:space="preserve" onload="init(evt)">

<style type="text/css"><![CDATA[
.node, .edge {opacity: 0.7;}
.node.selected, .edge.selected {opacity: 1;}
.edge:hover path { stroke: red; }
.edge:hover polygon { stroke: red; fill: red; }
]]></style>

<defs>
  <circle id="rim" cx="0" cy="0" r="7"/>
  <circle id="rim2" cx="0" cy="0" r="3.5"/>
  <g id="zoomPlus">
    <use xlink:href="#rim" fill="#404040"><set attributeName="fill" to="#808080" begin="zoomplus.mouseover" end="zoomplus.mouseout"/></use>
    <path d="M-4,0h8M0,-4v8" fill="none" stroke="white" stroke-width="1.5" pointer-events="none"/>
  </g>
  <g id="zoomMin">
    <use xlink:href="#rim" fill="#404040"><set attributeName="fill" to="#808080" begin="zoomminus.mouseover" end="zoomminus.mouseout"/></use>
    <path d="M-4,0h8" fill="none" stroke="white" stroke-width="1.5" pointer-events="none"/>
  </g>
  <g id="arrowUp" transform="translate(30 24)">
    <use xlink:href="#rim"/>
    <path pointer-events="none" fill="none" stroke="white" stroke-width="1.5" d="M0,-3.0v7 M-2.5,-0.5L0,-3.0L2.5,-0.5"/>
  </g>
  <g id="arrowRight" transform="rotate(90) translate(36 -43)">
    <use xlink:href="#rim"/>
    <path pointer-events="none" fill="none" stroke="white" stroke-width="1.5" d="M0,-3.0v7 M-2.5,-0.5L0,-3.0L2.5,-0.5"/>
  </g>
  <g id="arrowDown" transform="rotate(180) translate(-30 -48)">
    <use xlink:href="#rim"/>
    <path pointer-events="none" fill="none" stroke="white" stroke-width="1.5" d="M0,-3.0v7 M-2.5,-0.5L0,-3.0L2.5,-0.5"/>
  </g>
  <g id="arrowLeft" transform="rotate(270) translate(-36 17)">
    <use xlink:href="#rim"/>
    <path pointer-events="none" fill="none" stroke="white" stroke-width="1.5" d="M0,-3.0v7 M-2.5,-0.5L0,-3.0L2.5,-0.5"/>
  </g>
  <g id="resetDef">
    <use xlink:href="#rim2" fill="#404040"><set attributeName="fill" to="#808080" begin="reset.mouseover" end="reset.mouseout"/></use>
  </g>
</defs>
<script type="application/ecmascript">
var viewWidth = 501;
var viewHeight = 137;
var sectionId = 'dynsection-2';
</script>
<script type="application/ecmascript" xlink:href="svg.min.js"/>
<svg id="graph" class="graph">
<g id="viewport">
<title>AQNWB::IO::LinkArrayDataSetConfig::getProperties</title>
<!-- Node1 -->
<g id="Node000001" class="node">
<title>Node1</title>
<g id="a_Node000001"><a xlink:title="Gets the shape, chunking, and data type from the linked target dataset.">
<polygon fill="#999999" stroke="#666666" points="139,-79.5 0,-79.5 0,-49 139,-49 139,-79.5"/>
<text xml:space="preserve" text-anchor="start" x="8" y="-66" font-family="Helvetica,sans-Serif" font-size="10.00">AQNWB::IO::LinkArrayData</text>
<text xml:space="preserve" text-anchor="middle" x="69.5" y="-54.75" font-family="Helvetica,sans-Serif" font-size="10.00">SetConfig::getProperties</text>
</a>
</g>
</g>
<!-- Node2 -->
<g id="Node000002" class="node">
<title>Node2</title>
<g id="a_Node000002"><a xlink:href="class_a_q_n_w_b_1_1_i_o_1_1_link_array_data_set_config.html#a82e64d0c76fbce3f1ccdd7ad9048bc57" target="_top" xlink:title="Gets the actual chunking configuration of the target dataset.">
<polygon fill="white" stroke="#666666" points="322.62,-128.5 175.38,-128.5 175.38,-98 322.62,-98 322.62,-128.5"/>
<text xml:space="preserve" text-anchor="start" x="183.38" y="-115" font-family="Helvetica,sans-Serif" font-size="10.00">AQNWB::IO::LinkArrayData</text>
<text xml:space="preserve" text-anchor="middle" x="249" y="-103.75" font-family="Helvetica,sans-Serif" font-size="10.00">SetConfig::getTargetChunking</text>
</a>
</g>
</g>
<!-- Node1&#45;&gt;Node2 -->
<g id="edge1_Node000001_Node000002" class="edge">
<title>Node1&#45;&gt;Node2</title>
<g id="a_edge1_Node000001_Node000002"><a xlink:title=" ">
<path fill="none" stroke="#63b8ff" d="M127.15,-79.89C144.04,-84.55 162.72,-89.71 180.24,-94.54"/>
<polygon fill="#63b8ff" stroke="#63b8ff" points="178.94,-97.82 189.52,-97.11 180.81,-91.07 178.94,-97.82"/>
</a>
</g>
</g>
<!-- Node4 -->
<g id="Node000004" class="node">
<title>Node4</title>
<g id="a_Node000004"><a xlink:href="class_a_q_n_w_b_1_1_i_o_1_1_link_array_data_set_config.html#a9db9ebc82f025b9aef92bf53c5e86146" target="_top" xlink:title="Gets the BaseDataType of the target dataset.">
<polygon fill="white" stroke="#666666" points="323,-79.5 175,-79.5 175,-49 323,-49 323,-79.5"/>
<text xml:space="preserve" text-anchor="start" x="183" y="-66" font-family="Helvetica,sans-Serif" font-size="10.00">AQNWB::IO::LinkArrayData</text>
<text xml:space="preserve" text-anchor="middle" x="249" y="-54.75" font-family="Helvetica,sans-Serif" font-size="10.00">SetConfig::getTargetDataType</text>
</a>
</g>
</g>
<!-- Node1&#45;&gt;Node4 -->
<g id="edge3_Node000001_Node000004" class="edge">
<title>Node1&#45;&gt;Node4</title>
<g id="a_edge3_Node000001_Node000004"><a xlink:title=" ">
<path fill="none" stroke="#63b8ff" d="M139.38,-64.25C147.26,-64.25 155.36,-64.25 163.42,-64.25"/>
<polygon fill="#63b8ff" stroke="#63b8ff" points="163.24,-67.75 173.24,-64.25 163.24,-60.75 163.24,-67.75"/>
</a>
</g>
</g>
<!-- Node6 -->
<g id="Node000006" class="node">
<title>Node6</title>
<g id="a_Node000006"><a xlink:href="class_a_q_n_w_b_1_1_i_o_1_1_link_array_data_set_config.html#a2823f37d4929cb55cc8697a58516a9b4" target="_top" xlink:title="Queries and returns the shape of the linked target dataset.">
<polygon fill="white" stroke="#666666" points="318.5,-30.5 179.5,-30.5 179.5,0 318.5,0 318.5,-30.5"/>
<text xml:space="preserve" text-anchor="start" x="187.5" y="-17" font-family="Helvetica,sans-Serif" font-size="10.00">AQNWB::IO::LinkArrayData</text>
<text xml:space="preserve" text-anchor="middle" x="249" y="-5.75" font-family="Helvetica,sans-Serif" font-size="10.00">SetConfig::getTargetShape</text>
</a>
</g>
</g>
<!-- Node1&#45;&gt;Node6 -->
<g id="edge5_Node000001_Node000006" class="edge">
<title>Node1&#45;&gt;Node6</title>
<g id="a_edge5_Node000001_Node000006"><a xlink:title=" ">
<path fill="none" stroke="#63b8ff" d="M127.15,-48.61C144.04,-43.95 162.72,-38.79 180.24,-33.96"/>
<polygon fill="#63b8ff" stroke="#63b8ff" points="180.81,-37.43 189.52,-31.39 178.94,-30.68 180.81,-37.43"/>
</a>
</g>
</g>
<!-- Node3 -->
<g id="Node000003" class="node">
<title>Node3</title>
<g id="a_Node000003"><a xlink:href="class_a_q_n_w_b_1_1_i_o_1_1_base_i_o.html#a67bb097eefc2ebe5ab1b45ed00859c0b" target="_top" xlink:title="Gets the chunking configuration of a dataset.">
<polygon fill="white" stroke="#666666" points="492.38,-128.5 359.38,-128.5 359.38,-98 492.38,-98 492.38,-128.5"/>
<text xml:space="preserve" text-anchor="start" x="367.38" y="-115" font-family="Helvetica,sans-Serif" font-size="10.00">AQNWB::IO::BaseIO::</text>
<text xml:space="preserve" text-anchor="middle" x="425.88" y="-103.75" font-family="Helvetica,sans-Serif" font-size="10.00">getStorageObjectChunking</text>
</a>
</g>
</g>
<!-- Node2&#45;&gt;Node3 -->
<g id="edge2_Node000002_Node000003" class="edge">
<title>Node2&#45;&gt;Node3</title>
<g id="a_edge2_Node000002_Node000003"><a xlink:title=" ">
<path fill="none" stroke="#63b8ff" d="M322.9,-113.25C331.05,-113.25 339.38,-113.25 347.58,-113.25"/>
<polygon fill="#63b8ff" stroke="#63b8ff" points="347.56,-116.75 357.56,-113.25 347.56,-109.75 347.56,-116.75"/>
</a>
</g>
</g>
<!-- Node5 -->
<g id="Node000005" class="node">
<title>Node5</title>
<g id="a_Node000005"><a xlink:href="class_a_q_n_w_b_1_1_i_o_1_1_base_i_o.html#aa3f2c6871009254b8e3168de14b3c53f" target="_top" xlink:title="Gets the BaseDataType of a dataset or attribute.">
<polygon fill="white" stroke="#666666" points="492.75,-79.5 359,-79.5 359,-49 492.75,-49 492.75,-79.5"/>
<text xml:space="preserve" text-anchor="start" x="367" y="-66" font-family="Helvetica,sans-Serif" font-size="10.00">AQNWB::IO::BaseIO::</text>
<text xml:space="preserve" text-anchor="middle" x="425.88" y="-54.75" font-family="Helvetica,sans-Serif" font-size="10.00">getStorageObjectDataType</text>
</a>
</g>
</g>
<!-- Node4&#45;&gt;Node5 -->
<g id="edge4_Node000004_Node000005" class="edge">
<title>Node4&#45;&gt;Node5</title>
<g id="a_edge4_Node000004_Node000005"><a xlink:title=" ">
<path fill="none" stroke="#63b8ff" d="M323.4,-64.25C331.25,-64.25 339.26,-64.25 347.16,-64.25"/>
<polygon fill="#63b8ff" stroke="#63b8ff" points="347.11,-67.75 357.11,-64.25 347.11,-60.75 347.11,-67.75"/>
</a>
</g>
</g>
<!-- Node7 -->
<g id="Node000007" class="node">
<title>Node7</title>
<g id="a_Node000007"><a xlink:href="class_a_q_n_w_b_1_1_i_o_1_1_base_i_o.html#ade0c2d3b4f9ae88212d948d8c3421f48" target="_top" xlink:title="Returns the size of the dataset or attribute for each dimension.">
<polygon fill="white" stroke="#666666" points="485.62,-30.5 366.12,-30.5 366.12,0 485.62,0 485.62,-30.5"/>
<text xml:space="preserve" text-anchor="start" x="374.12" y="-17" font-family="Helvetica,sans-Serif" font-size="10.00">AQNWB::IO::BaseIO::</text>
<text xml:space="preserve" text-anchor="middle" x="425.88" y="-5.75" font-family="Helvetica,sans-Serif" font-size="10.00">getStorageObjectShape</text>
</a>
</g>
</g>
<!-- Node6&#45;&gt;Node7 -->
<g id="edge6_Node000006_Node000007" class="edge">
<title>Node6&#45;&gt;Node7</title>
<g id="a_edge6_Node000006_Node000007"><a xlink:title=" ">
<path fill="none" stroke="#63b8ff" d="M318.86,-15.25C330.48,-15.25 342.55,-15.25 354.21,-15.25"/>
<polygon fill="#63b8ff" stroke="#63b8ff" points="354.18,-18.75 364.18,-15.25 354.18,-11.75 354.18,-18.75"/>
</a>
</g>
</g>
</g>
</svg>

<g id="navigator" transform="translate(0 0)" fill="#404254">
  <rect fill="#f2f5e9" fill-opacity="0.5" stroke="#606060" stroke-width=".5" x="0" y="0" width="60" height="60"/>
  <use id="zoomplus" xlink:href="#zoomPlus" x="17" y="9" onmousedown="handleZoom(evt,'in')"/>
  <use id="zoomminus" xlink:href="#zoomMin" x="42" y="9" onmousedown="handleZoom(evt,'out')"/>
  <use id="reset" xlink:href="#resetDef" x="30" y="36" onmousedown="handleReset()"/>
   <use id="arrowup" xlink:href="#arrowUp" x="0" y="0" onmousedown="handlePan(0,-1)"/>
  <use id="arrowright" xlink:href="#arrowRight" x="0" y="0" onmousedown="handlePan(1,0)"/>
  <use id="arrowdown" xlink:href="#arrowDown" x="0" y="0" onmousedown="handlePan(0,1)"/>
  <use id="arrowleft" xlink:href="#arrowLeft" x="0" y="0" onmousedown="handlePan(-1,0)"/>
</g>
<svg viewBox="0 0 15 15" width="100%" height="30px" preserveAspectRatio="xMaxYMin meet">
 <g id="arrow_out" transform="scale(0.3 0.3)">
  <a xlink:href="class_a_q_n_w_b_1_1_i_o_1_1_link_array_data_set_config_a13d7f50781e50fbe565b133a13cf3647_cgraph_org.svg" target="_base">
   <rect id="button" ry="5" rx="5" y="6" x="6" height="38" width="38"
        fill="#f2f5e9" fill-opacity="0.5" stroke="#606060" stroke-width="1.0"/>
   <path id="arrow"
     d="M 11.500037,31.436501 C 11.940474,20.09759 22.043105,11.32322 32.158766,21.979434 L 37.068811,17.246167 C 37.068811,17.246167 37.088388,32 37.088388,32 L 22.160133,31.978069 C 22.160133,31.978069 26.997745,27.140456 26.997745,27.140456 C 18.528582,18.264221 13.291696,25.230495 11.500037,31.436501 z"
     style="fill:#404040;"/>
  </a>
 </g>
</svg>

<style type='text/css'>
<![CDATA[
[data-mouse-over-selected='false'] { opacity: 0.7; }
[data-mouse-over-selected='true']  { opacity: 1.0; }
]]>
</style>
<script type="application/ecmascript"><![CDATA[
document.addEventListener('DOMContentLoaded', (event) => {
  highlightEdges();
  highlightAdjacentNodes();
});
]]></script>
</svg>
