<?xml version="1.0" encoding="UTF-8" standalone="no"?>
<!DOCTYPE svg PUBLIC "-//W3C//DTD SVG 1.1//EN"
 "http://www.w3.org/Graphics/SVG/1.1/DTD/svg11.dtd">
<!-- Generated by graphviz version 14.1.0 (20251206.1807)
 -->
<!-- Title: AQNWB::NWB::NWBFile::readSessionStartTime Pages: 1 -->
<!--zoomable 235 -->

<svg id="main" version="1.1" xmlns="http://www.w3.org/2000/svg" xmlns:xlink="http://www.w3.org/1999/xlink" xml:space="preserve" onload="init(evt)">

<style type="text/css"><![CDATA[
.node, .edge {opacity: 0.7;}
.node.selected, .edge.selected {opacity: 1;}
.edge:hover path { stroke: red; }
.edge:hover polygon { stroke: red; fill: red; }
]]></style>

<defs>
  <circle id="rim" cx="0" cy="0" r="7"/>
  <circle id="rim2" cx="0" cy="0" r="3.5"/>
  <g id="zoomPlus">
    <use xlink:href="#rim" fill="#404040"><set attributeName="fill" to="#808080" begin="zoomplus.mouseover" end="zoomplus.mouseout"/></use>
    <path d="M-4,0h8M0,-4v8" fill="none" stroke="white" stroke-width="1.5" pointer-events="none"/>
  </g>
  <g id="zoomMin">
    <use xlink:href="#rim" fill="#404040"><set attributeName="fill" to="#808080" begin="zoomminus.mouseover" end="zoomminus.mouseout"/></use>
    <path d="M-4,0h8" fill="none" stroke="white" stroke-width="1.5" pointer-events="none"/>
  </g>
  <g id="arrowUp" transform="translate(30 24)">
    <use xlink:href="#rim"/>
    <path pointer-events="none" fill="none" stroke="white" stroke-width="1.5" d="M0,-3.0v7 M-2.5,-0.5L0,-3.0L2.5,-0.5"/>
  </g>
  <g id="arrowRight" transform="rotate(90) translate(36 -43)">
    <use xlink:href="#rim"/>
    <path pointer-events="none" fill="none" stroke="white" stroke-width="1.5" d="M0,-3.0v7 M-2.5,-0.5L0,-3.0L2.5,-0.5"/>
  </g>
  <g id="arrowDown" transform="rotate(180) translate(-30 -48)">
    <use xlink:href="#rim"/>
    <path pointer-events="none" fill="none" stroke="white" stroke-width="1.5" d="M0,-3.0v7 M-2.5,-0.5L0,-3.0L2.5,-0.5"/>
  </g>
  <g id="arrowLeft" transform="rotate(270) translate(-36 17)">
    <use xlink:href="#rim"/>
    <path pointer-events="none" fill="none" stroke="white" stroke-width="1.5" d="M0,-3.0v7 M-2.5,-0.5L0,-3.0L2.5,-0.5"/>
  </g>
  <g id="resetDef">
    <use xlink:href="#rim2" fill="#404040"><set attributeName="fill" to="#808080" begin="reset.mouseover" end="reset.mouseout"/></use>
  </g>
</defs>
<script type="application/ecmascript">
var viewWidth = 1044;
var viewHeight = 235;
var sectionId = 'dynsection-30';
</script>
<script type="application/ecmascript" xlink:href="svg.min.js"/>
<svg id="graph" class="graph">
<g id="viewport">
<title>AQNWB::NWB::NWBFile::readSessionStartTime</title>
<!-- Node1 -->
<g id="Node000001" class="node">
<title>Node1</title>
<g id="a_Node000001"><a xlink:title=" ">
<polygon fill="#999999" stroke="#666666" points="130,-132.5 0,-132.5 0,-102 130,-102 130,-132.5"/>
<text xml:space="preserve" text-anchor="start" x="8" y="-119" font-family="Helvetica,sans-Serif" font-size="10.00">AQNWB::NWB::NWBFile</text>
<text xml:space="preserve" text-anchor="middle" x="65" y="-107.75" font-family="Helvetica,sans-Serif" font-size="10.00">::readSessionStartTime</text>
</a>
</g>
</g>
<!-- Node2 -->
<g id="Node000002" class="node">
<title>Node2</title>
<g id="a_Node000002"><a xlink:href="class_a_q_n_w_b_1_1_n_w_b_1_1_n_w_b_file.html#aa611b4def3f53c508ddd8ec71944ffe7" target="_top" xlink:title=" ">
<polygon fill="white" stroke="#666666" points="331.62,-157.5 170.12,-157.5 170.12,-127 331.62,-127 331.62,-157.5"/>
<text xml:space="preserve" text-anchor="start" x="178.12" y="-144" font-family="Helvetica,sans-Serif" font-size="10.00">AQNWB::NWB::NWBFile</text>
<text xml:space="preserve" text-anchor="middle" x="250.88" y="-132.75" font-family="Helvetica,sans-Serif" font-size="10.00">::readTimestampsReferenceTime</text>
</a>
</g>
</g>
<!-- Node1&#45;&gt;Node2 -->
<g id="edge1_Node000001_Node000002" class="edge">
<title>Node1&#45;&gt;Node2</title>
<g id="a_edge1_Node000001_Node000002"><a xlink:title=" ">
<path fill="none" stroke="#63b8ff" d="M130.31,-125.99C139.47,-127.24 149.02,-128.54 158.57,-129.84"/>
<polygon fill="#63b8ff" stroke="#63b8ff" points="157.88,-133.27 168.26,-131.15 158.82,-126.34 157.88,-133.27"/>
</a>
</g>
</g>
<!-- Node12 -->
<g id="Node000012" class="node">
<title>Node12</title>
<g id="a_Node000012"><a xlink:href="class_a_q_n_w_b_1_1_n_w_b_1_1_n_w_b_file.html#a36db3290c76301b9af8a030cb975d516" target="_top" xlink:title=" ">
<polygon fill="white" stroke="#666666" points="335.75,-108.5 166,-108.5 166,-78 335.75,-78 335.75,-108.5"/>
<text xml:space="preserve" text-anchor="start" x="174" y="-95" font-family="Helvetica,sans-Serif" font-size="10.00">AQNWB::NWB::NWBFile</text>
<text xml:space="preserve" text-anchor="middle" x="250.88" y="-83.75" font-family="Helvetica,sans-Serif" font-size="10.00">::recordTimestampsReferenceTime</text>
</a>
</g>
</g>
<!-- Node1&#45;&gt;Node12 -->
<g id="edge12_Node000001_Node000012" class="edge">
<title>Node1&#45;&gt;Node12</title>
<g id="a_edge12_Node000001_Node000012"><a xlink:title=" ">
<path fill="none" stroke="#63b8ff" d="M130.31,-108.86C138.05,-107.85 146.08,-106.8 154.15,-105.74"/>
<polygon fill="#63b8ff" stroke="#63b8ff" points="154.6,-109.22 164.06,-104.45 153.69,-102.27 154.6,-109.22"/>
</a>
</g>
</g>
<!-- Node3 -->
<g id="Node000003" class="node">
<title>Node3</title>
<g id="a_Node000003"><a xlink:href="class_a_q_n_w_b_1_1_n_w_b_1_1_n_w_b_file.html#a116bb371a6ef2fec0a442530ce4c5344" target="_top" xlink:title=" ">
<polygon fill="white" stroke="#666666" points="501.75,-181.5 371.75,-181.5 371.75,-151 501.75,-151 501.75,-181.5"/>
<text xml:space="preserve" text-anchor="start" x="379.75" y="-168" font-family="Helvetica,sans-Serif" font-size="10.00">AQNWB::NWB::NWBFile</text>
<text xml:space="preserve" text-anchor="middle" x="436.75" y="-156.75" font-family="Helvetica,sans-Serif" font-size="10.00">::createAquisitionSeries</text>
</a>
</g>
</g>
<!-- Node2&#45;&gt;Node3 -->
<g id="edge2_Node000002_Node000003" class="edge">
<title>Node2&#45;&gt;Node3</title>
<g id="a_edge2_Node000002_Node000003"><a xlink:title=" ">
<path fill="none" stroke="#63b8ff" d="M331.99,-152.71C341.35,-153.93 350.87,-155.17 360.16,-156.38"/>
<polygon fill="#63b8ff" stroke="#63b8ff" points="359.49,-159.83 369.86,-157.65 360.4,-152.88 359.49,-159.83"/>
</a>
</g>
</g>
<!-- Node11 -->
<g id="Node000011" class="node">
<title>Node11</title>
<g id="a_Node000011"><a xlink:href="class_a_q_n_w_b_1_1_n_w_b_1_1_n_w_b_file.html#a4c5e30290b87e858aea55a327e835e77" target="_top" xlink:title=" ">
<polygon fill="white" stroke="#666666" points="501.75,-132.5 371.75,-132.5 371.75,-102 501.75,-102 501.75,-132.5"/>
<text xml:space="preserve" text-anchor="start" x="379.75" y="-119" font-family="Helvetica,sans-Serif" font-size="10.00">AQNWB::NWB::NWBFile</text>
<text xml:space="preserve" text-anchor="middle" x="436.75" y="-107.75" font-family="Helvetica,sans-Serif" font-size="10.00">::readAquisitionSeries</text>
</a>
</g>
</g>
<!-- Node2&#45;&gt;Node11 -->
<g id="edge11_Node000002_Node000011" class="edge">
<title>Node2&#45;&gt;Node11</title>
<g id="a_edge11_Node000002_Node000011"><a xlink:title=" ">
<path fill="none" stroke="#63b8ff" d="M331.99,-131.36C341.35,-130.09 350.87,-128.79 360.16,-127.53"/>
<polygon fill="#63b8ff" stroke="#63b8ff" points="360.42,-131.02 369.86,-126.21 359.48,-124.09 360.42,-131.02"/>
</a>
</g>
</g>
<!-- Node4 -->
<g id="Node000004" class="node">
<title>Node4</title>
<g id="a_Node000004"><a xlink:href="class_a_q_n_w_b_1_1_n_w_b_1_1_n_w_b_file.html#aaf2e07b4e912fc34ab052d38f92e6cdd" target="_top" xlink:title="Saves the specification files for the schema.">
<polygon fill="white" stroke="#666666" points="860.38,-226.5 730.38,-226.5 730.38,-196 860.38,-196 860.38,-226.5"/>
<text xml:space="preserve" text-anchor="start" x="738.38" y="-213" font-family="Helvetica,sans-Serif" font-size="10.00">AQNWB::NWB::NWBFile</text>
<text xml:space="preserve" text-anchor="middle" x="795.38" y="-201.75" font-family="Helvetica,sans-Serif" font-size="10.00">::cacheSpecifications</text>
</a>
</g>
</g>
<!-- Node3&#45;&gt;Node4 -->
<g id="edge3_Node000003_Node000004" class="edge">
<title>Node3&#45;&gt;Node4</title>
<g id="a_edge3_Node000003_Node000004"><a xlink:title=" ">
<path fill="none" stroke="#63b8ff" d="M501.92,-174.35C562.83,-182.03 654.41,-193.59 718.82,-201.72"/>
<polygon fill="#63b8ff" stroke="#63b8ff" points="718.26,-205.17 728.62,-202.95 719.14,-198.23 718.26,-205.17"/>
</a>
</g>
</g>
<!-- Node6 -->
<g id="Node000006" class="node">
<title>Node6</title>
<g id="a_Node000006"><a xlink:href="class_a_q_n_w_b_1_1_n_w_b_1_1_n_w_b_file.html#a71bd7b910a7ec89bdaf36304d67bfef1" target="_top" xlink:title="Creates the default file structure. Note, this function will fail if the file is in a mode where new ...">
<polygon fill="white" stroke="#666666" points="667.75,-152.5 537.75,-152.5 537.75,-122 667.75,-122 667.75,-152.5"/>
<text xml:space="preserve" text-anchor="start" x="545.75" y="-139" font-family="Helvetica,sans-Serif" font-size="10.00">AQNWB::NWB::NWBFile</text>
<text xml:space="preserve" text-anchor="middle" x="602.75" y="-127.75" font-family="Helvetica,sans-Serif" font-size="10.00">::createFileStructure</text>
</a>
</g>
</g>
<!-- Node3&#45;&gt;Node6 -->
<g id="edge5_Node000003_Node000006" class="edge">
<title>Node3&#45;&gt;Node6</title>
<g id="a_edge5_Node000003_Node000006"><a xlink:title=" ">
<path fill="none" stroke="#63b8ff" d="M502.1,-154.87C509.96,-153.48 518.06,-152.05 526.08,-150.63"/>
<polygon fill="#63b8ff" stroke="#63b8ff" points="526.59,-154.09 535.83,-148.91 525.37,-147.2 526.59,-154.09"/>
</a>
</g>
</g>
<!-- Node5 -->
<g id="Node000005" class="node">
<title>Node5</title>
<g id="a_Node000005"><a xlink:href="namespace_a_q_n_w_b.html#a31983dbaaa85c2e355b9687fc0ef1881" target="_top" xlink:title="Merge two paths into a single path, handling extra trailing and starting &quot;/&quot;.">
<polygon fill="white" stroke="#666666" points="1035.75,-220.88 923,-220.88 923,-201.62 1035.75,-201.62 1035.75,-220.88"/>
<text xml:space="preserve" text-anchor="middle" x="979.38" y="-207.38" font-family="Helvetica,sans-Serif" font-size="10.00">AQNWB::mergePaths</text>
</a>
</g>
</g>
<!-- Node4&#45;&gt;Node5 -->
<g id="edge4_Node000004_Node000005" class="edge">
<title>Node4&#45;&gt;Node5</title>
<g id="a_edge4_Node000004_Node000005"><a xlink:title=" ">
<path fill="none" stroke="#63b8ff" d="M860.8,-211.25C877.25,-211.25 894.97,-211.25 911.54,-211.25"/>
<polygon fill="#63b8ff" stroke="#63b8ff" points="911.28,-214.75 921.28,-211.25 911.28,-207.75 911.28,-214.75"/>
</a>
</g>
</g>
<!-- Node6&#45;&gt;Node4 -->
<g id="edge6_Node000006_Node000004" class="edge">
<title>Node6&#45;&gt;Node4</title>
<g id="a_edge6_Node000006_Node000004"><a xlink:title=" ">
<path fill="none" stroke="#63b8ff" d="M632,-152.86C651.69,-163.29 678.8,-176.79 703.75,-186.25 709.28,-188.35 715.06,-190.35 720.92,-192.25"/>
<polygon fill="#63b8ff" stroke="#63b8ff" points="719.45,-195.46 730.04,-195.09 721.53,-188.77 719.45,-195.46"/>
</a>
</g>
</g>
<!-- Node7 -->
<g id="Node000007" class="node">
<title>Node7</title>
<g id="a_Node000007"><a xlink:href="class_a_q_n_w_b_1_1_s_p_e_c_1_1_namespace_registry.html#aceded37c693bb2f6aa21a5945a13557c" target="_top" xlink:title="Get all registered namespaces.">
<polygon fill="white" stroke="#666666" points="887,-177.5 703.75,-177.5 703.75,-147 887,-147 887,-177.5"/>
<text xml:space="preserve" text-anchor="start" x="711.75" y="-164" font-family="Helvetica,sans-Serif" font-size="10.00">AQNWB::SPEC::NamespaceRegistry</text>
<text xml:space="preserve" text-anchor="middle" x="795.38" y="-152.75" font-family="Helvetica,sans-Serif" font-size="10.00">::getAllNamespaces</text>
</a>
</g>
</g>
<!-- Node6&#45;&gt;Node7 -->
<g id="edge7_Node000006_Node000007" class="edge">
<title>Node6&#45;&gt;Node7</title>
<g id="a_edge7_Node000006_Node000007"><a xlink:title=" ">
<path fill="none" stroke="#63b8ff" d="M668.02,-145.68C675.82,-146.7 683.94,-147.77 692.12,-148.84"/>
<polygon fill="#63b8ff" stroke="#63b8ff" points="691.43,-152.28 701.8,-150.11 692.34,-145.34 691.43,-152.28"/>
</a>
</g>
</g>
<!-- Node8 -->
<g id="Node000008" class="node">
<title>Node8</title>
<g id="a_Node000008"><a xlink:href="class_a_q_n_w_b_1_1_n_w_b_1_1_registered_type.html#a651f3d7e5cc28dc93888e8a821c5aa1c" target="_top" xlink:title="Get the schema namespace of the class type.">
<polygon fill="white" stroke="#666666" points="874.62,-128.5 716.12,-128.5 716.12,-98 874.62,-98 874.62,-128.5"/>
<text xml:space="preserve" text-anchor="start" x="724.12" y="-115" font-family="Helvetica,sans-Serif" font-size="10.00">AQNWB::NWB::RegisteredType</text>
<text xml:space="preserve" text-anchor="middle" x="795.38" y="-103.75" font-family="Helvetica,sans-Serif" font-size="10.00">::getNamespace</text>
</a>
</g>
</g>
<!-- Node6&#45;&gt;Node8 -->
<g id="edge8_Node000006_Node000008" class="edge">
<title>Node6&#45;&gt;Node8</title>
<g id="a_edge8_Node000006_Node000008"><a xlink:title=" ">
<path fill="none" stroke="#63b8ff" d="M668.02,-129.16C679.77,-127.68 692.23,-126.11 704.56,-124.56"/>
<polygon fill="#63b8ff" stroke="#63b8ff" points="704.85,-128.05 714.33,-123.33 703.97,-121.1 704.85,-128.05"/>
</a>
</g>
</g>
<!-- Node9 -->
<g id="Node000009" class="node">
<title>Node9</title>
<g id="a_Node000009"><a xlink:href="class_a_q_n_w_b_1_1_n_w_b_1_1_registered_type.html#a150f881ad61cb8352eea7ddba47bc6ad" target="_top" xlink:title="Get the name of the class type.">
<polygon fill="white" stroke="#666666" points="874.62,-79.5 716.12,-79.5 716.12,-49 874.62,-49 874.62,-79.5"/>
<text xml:space="preserve" text-anchor="start" x="724.12" y="-66" font-family="Helvetica,sans-Serif" font-size="10.00">AQNWB::NWB::RegisteredType</text>
<text xml:space="preserve" text-anchor="middle" x="795.38" y="-54.75" font-family="Helvetica,sans-Serif" font-size="10.00">::getTypeName</text>
</a>
</g>
</g>
<!-- Node6&#45;&gt;Node9 -->
<g id="edge9_Node000006_Node000009" class="edge">
<title>Node6&#45;&gt;Node9</title>
<g id="a_edge9_Node000006_Node000009"><a xlink:title=" ">
<path fill="none" stroke="#63b8ff" d="M632.9,-121.55C652.53,-111.41 679.22,-98.44 703.75,-89.25 709.39,-87.14 715.28,-85.12 721.24,-83.2"/>
<polygon fill="#63b8ff" stroke="#63b8ff" points="722.03,-86.62 730.55,-80.33 719.96,-79.94 722.03,-86.62"/>
</a>
</g>
</g>
<!-- Node10 -->
<g id="Node000010" class="node">
<title>Node10</title>
<g id="a_Node000010"><a xlink:href="class_a_q_n_w_b_1_1_s_p_e_c_1_1_namespace_registry.html#a15d9c6f869f0270ad91a2af8067f5a88" target="_top" xlink:title="Get the singleton instance of the NamespaceRegistry.">
<polygon fill="white" stroke="#666666" points="887,-30.5 703.75,-30.5 703.75,0 887,0 887,-30.5"/>
<text xml:space="preserve" text-anchor="start" x="711.75" y="-17" font-family="Helvetica,sans-Serif" font-size="10.00">AQNWB::SPEC::NamespaceRegistry</text>
<text xml:space="preserve" text-anchor="middle" x="795.38" y="-5.75" font-family="Helvetica,sans-Serif" font-size="10.00">::instance</text>
</a>
</g>
</g>
<!-- Node6&#45;&gt;Node10 -->
<g id="edge10_Node000006_Node000010" class="edge">
<title>Node6&#45;&gt;Node10</title>
<g id="a_edge10_Node000006_Node000010"><a xlink:title=" ">
<path fill="none" stroke="#63b8ff" d="M615.54,-121.68C632.63,-100.17 666.38,-61.63 703.75,-40.25 706.77,-38.52 709.91,-36.91 713.14,-35.4"/>
<polygon fill="#63b8ff" stroke="#63b8ff" points="714.44,-38.65 722.29,-31.54 711.72,-32.21 714.44,-38.65"/>
</a>
</g>
</g>
</g>
</svg>

<g id="navigator" transform="translate(0 0)" fill="#404254">
  <rect fill="#f2f5e9" fill-opacity="0.5" stroke="#606060" stroke-width=".5" x="0" y="0" width="60" height="60"/>
  <use id="zoomplus" xlink:href="#zoomPlus" x="17" y="9" onmousedown="handleZoom(evt,'in')"/>
  <use id="zoomminus" xlink:href="#zoomMin" x="42" y="9" onmousedown="handleZoom(evt,'out')"/>
  <use id="reset" xlink:href="#resetDef" x="30" y="36" onmousedown="handleReset()"/>
   <use id="arrowup" xlink:href="#arrowUp" x="0" y="0" onmousedown="handlePan(0,-1)"/>
  <use id="arrowright" xlink:href="#arrowRight" x="0" y="0" onmousedown="handlePan(1,0)"/>
  <use id="arrowdown" xlink:href="#arrowDown" x="0" y="0" onmousedown="handlePan(0,1)"/>
  <use id="arrowleft" xlink:href="#arrowLeft" x="0" y="0" onmousedown="handlePan(-1,0)"/>
</g>
<svg viewBox="0 0 15 15" width="100%" height="30px" preserveAspectRatio="xMaxYMin meet">
 <g id="arrow_out" transform="scale(0.3 0.3)">
  <a xlink:href="class_a_q_n_w_b_1_1_n_w_b_1_1_n_w_b_file_ac12eceea7bcebc1243eac9a64d4190b0_cgraph_org.svg" target="_base">
   <rect id="button" ry="5" rx="5" y="6" x="6" height="38" width="38"
        fill="#f2f5e9" fill-opacity="0.5" stroke="#606060" stroke-width="1.0"/>
   <path id="arrow"
     d="M 11.500037,31.436501 C 11.940474,20.09759 22.043105,11.32322 32.158766,21.979434 L 37.068811,17.246167 C 37.068811,17.246167 37.088388,32 37.088388,32 L 22.160133,31.978069 C 22.160133,31.978069 26.997745,27.140456 26.997745,27.140456 C 18.528582,18.264221 13.291696,25.230495 11.500037,31.436501 z"
     style="fill:#404040;"/>
  </a>
 </g>
</svg>

<style type='text/css'>
<![CDATA[
[data-mouse-over-selected='false'] { opacity: 0.7; }
[data-mouse-over-selected='true']  { opacity: 1.0; }
]]>
</style>
<script type="application/ecmascript"><![CDATA[
document.addEventListener('DOMContentLoaded', (event) => {
  highlightEdges();
  highlightAdjacentNodes();
});
]]></script>
</svg>
