<?xml version="1.0" encoding="UTF-8" standalone="no"?>
<!DOCTYPE svg PUBLIC "-//W3C//DTD SVG 1.1//EN"
 "http://www.w3.org/Graphics/SVG/1.1/DTD/svg11.dtd">
<!-- Generated by graphviz version 14.1.0 (20251206.1807)
 -->
<!-- Title: AQNWB::NWB::SpikeEventSeries Pages: 1 -->
<svg width="182pt" height="425pt"
 viewBox="0.00 0.00 182.00 425.00" xmlns="http://www.w3.org/2000/svg" xmlns:xlink="http://www.w3.org/1999/xlink">

<svg id="main" version="1.1" xmlns="http://www.w3.org/2000/svg" xmlns:xlink="http://www.w3.org/1999/xlink" xml:space="preserve">

<style type="text/css"><![CDATA[
.node, .edge {opacity: 0.7;}
.node.selected, .edge.selected {opacity: 1;}
.edge:hover path { stroke: red; }
.edge:hover polygon { stroke: red; fill: red; }
]]></style>
<script type="application/ecmascript" xlink:href="svg.min.js"/>
<svg id="graph" class="graph">
<g id="graph0" class="graph" transform="scale(1 1) rotate(0) translate(4 421.25)">
<title>AQNWB::NWB::SpikeEventSeries</title>
<!-- Node1 -->
<g id="Node000001" class="node">
<title>Node1</title>
<g id="a_Node000001"><a xlink:title="Stores snapshots/snippets of recorded spike events (i.e., threshold crossings).">
<polygon fill="#999999" stroke="#666666" points="170.88,-19.25 2.62,-19.25 2.62,0 170.88,0 170.88,-19.25"/>
<text xml:space="preserve" text-anchor="middle" x="86.75" y="-5.75" font-family="Helvetica,sans-Serif" font-size="10.00">AQNWB::NWB::SpikeEventSeries</text>
</a>
</g>
</g>
<!-- Node2 -->
<g id="Node000002" class="node">
<title>Node2</title>
<g id="a_Node000002"><a xlink:href="class_a_q_n_w_b_1_1_n_w_b_1_1_electrical_series.html" target="_top" xlink:title="General purpose time series.">
<polygon fill="white" stroke="#666666" points="166,-74.5 7.5,-74.5 7.5,-55.25 166,-55.25 166,-74.5"/>
<text xml:space="preserve" text-anchor="middle" x="86.75" y="-61" font-family="Helvetica,sans-Serif" font-size="10.00">AQNWB::NWB::ElectricalSeries</text>
</a>
</g>
</g>
<!-- Node2&#45;&gt;Node1 -->
<g id="edge1_Node000001_Node000002" class="edge">
<title>Node2&#45;&gt;Node1</title>
<g id="a_edge1_Node000001_Node000002"><a xlink:title=" ">
<path fill="none" stroke="#63b8ff" d="M86.75,-43.63C86.75,-35.34 86.75,-26.17 86.75,-19.61"/>
<polygon fill="#63b8ff" stroke="#63b8ff" points="83.25,-43.57 86.75,-53.57 90.25,-43.57 83.25,-43.57"/>
</a>
</g>
</g>
<!-- Node3 -->
<g id="Node000003" class="node">
<title>Node3</title>
<g id="a_Node000003"><a xlink:href="class_a_q_n_w_b_1_1_n_w_b_1_1_time_series.html" target="_top" xlink:title="General purpose time series.">
<polygon fill="white" stroke="#666666" points="156.62,-129.75 16.88,-129.75 16.88,-110.5 156.62,-110.5 156.62,-129.75"/>
<text xml:space="preserve" text-anchor="middle" x="86.75" y="-116.25" font-family="Helvetica,sans-Serif" font-size="10.00">AQNWB::NWB::TimeSeries</text>
</a>
</g>
</g>
<!-- Node3&#45;&gt;Node2 -->
<g id="edge2_Node000002_Node000003" class="edge">
<title>Node3&#45;&gt;Node2</title>
<g id="a_edge2_Node000002_Node000003"><a xlink:title=" ">
<path fill="none" stroke="#63b8ff" d="M86.75,-98.88C86.75,-90.59 86.75,-81.42 86.75,-74.86"/>
<polygon fill="#63b8ff" stroke="#63b8ff" points="83.25,-98.82 86.75,-108.82 90.25,-98.82 83.25,-98.82"/>
</a>
</g>
</g>
<!-- Node4 -->
<g id="Node000004" class="node">
<title>Node4</title>
<g id="a_Node000004"><a xlink:href="class_a_q_n_w_b_1_1_n_w_b_1_1_n_w_b_data_interface.html" target="_top" xlink:title="An abstract data type for a generic container storing collections of data, as opposed to metadata.">
<polygon fill="white" stroke="#666666" points="173.5,-185 0,-185 0,-165.75 173.5,-165.75 173.5,-185"/>
<text xml:space="preserve" text-anchor="middle" x="86.75" y="-171.5" font-family="Helvetica,sans-Serif" font-size="10.00">AQNWB::NWB::NWBDataInterface</text>
</a>
</g>
</g>
<!-- Node4&#45;&gt;Node3 -->
<g id="edge3_Node000003_Node000004" class="edge">
<title>Node4&#45;&gt;Node3</title>
<g id="a_edge3_Node000003_Node000004"><a xlink:title=" ">
<path fill="none" stroke="#63b8ff" d="M86.75,-154.13C86.75,-145.84 86.75,-136.67 86.75,-130.11"/>
<polygon fill="#63b8ff" stroke="#63b8ff" points="83.25,-154.07 86.75,-164.07 90.25,-154.07 83.25,-154.07"/>
</a>
</g>
</g>
<!-- Node5 -->
<g id="Node000005" class="node">
<title>Node5</title>
<g id="a_Node000005"><a xlink:href="class_a_q_n_w_b_1_1_n_w_b_1_1_n_w_b_container.html" target="_top" xlink:title="An abstract data type for a generic container storing collections of data and metadata....">
<polygon fill="white" stroke="#666666" points="164.88,-240.25 8.62,-240.25 8.62,-221 164.88,-221 164.88,-240.25"/>
<text xml:space="preserve" text-anchor="middle" x="86.75" y="-226.75" font-family="Helvetica,sans-Serif" font-size="10.00">AQNWB::NWB::NWBContainer</text>
</a>
</g>
</g>
<!-- Node5&#45;&gt;Node4 -->
<g id="edge4_Node000004_Node000005" class="edge">
<title>Node5&#45;&gt;Node4</title>
<g id="a_edge4_Node000004_Node000005"><a xlink:title=" ">
<path fill="none" stroke="#63b8ff" d="M86.75,-209.38C86.75,-201.09 86.75,-191.92 86.75,-185.36"/>
<polygon fill="#63b8ff" stroke="#63b8ff" points="83.25,-209.32 86.75,-219.32 90.25,-209.32 83.25,-209.32"/>
</a>
</g>
</g>
<!-- Node6 -->
<g id="Node000006" class="node">
<title>Node6</title>
<g id="a_Node000006"><a xlink:href="class_a_q_n_w_b_1_1_n_w_b_1_1_container.html" target="_top" xlink:title="Abstract data type for a group storing collections of data and metadata.">
<polygon fill="white" stroke="#666666" points="152.88,-295.5 20.62,-295.5 20.62,-276.25 152.88,-276.25 152.88,-295.5"/>
<text xml:space="preserve" text-anchor="middle" x="86.75" y="-282" font-family="Helvetica,sans-Serif" font-size="10.00">AQNWB::NWB::Container</text>
</a>
</g>
</g>
<!-- Node6&#45;&gt;Node5 -->
<g id="edge5_Node000005_Node000006" class="edge">
<title>Node6&#45;&gt;Node5</title>
<g id="a_edge5_Node000005_Node000006"><a xlink:title=" ">
<path fill="none" stroke="#63b8ff" d="M86.75,-264.63C86.75,-256.34 86.75,-247.17 86.75,-240.61"/>
<polygon fill="#63b8ff" stroke="#63b8ff" points="83.25,-264.57 86.75,-274.57 90.25,-264.57 83.25,-264.57"/>
</a>
</g>
</g>
<!-- Node7 -->
<g id="Node000007" class="node">
<title>Node7</title>
<g id="a_Node000007"><a xlink:href="class_a_q_n_w_b_1_1_n_w_b_1_1_registered_type.html" target="_top" xlink:title="Base class for types defined in the NWB schema.">
<polygon fill="white" stroke="#666666" points="166,-350.75 7.5,-350.75 7.5,-331.5 166,-331.5 166,-350.75"/>
<text xml:space="preserve" text-anchor="middle" x="86.75" y="-337.25" font-family="Helvetica,sans-Serif" font-size="10.00">AQNWB::NWB::RegisteredType</text>
</a>
</g>
</g>
<!-- Node7&#45;&gt;Node6 -->
<g id="edge6_Node000006_Node000007" class="edge">
<title>Node7&#45;&gt;Node6</title>
<g id="a_edge6_Node000006_Node000007"><a xlink:title=" ">
<path fill="none" stroke="#63b8ff" d="M86.75,-319.88C86.75,-311.59 86.75,-302.42 86.75,-295.86"/>
<polygon fill="#63b8ff" stroke="#63b8ff" points="83.25,-319.82 86.75,-329.82 90.25,-319.82 83.25,-319.82"/>
</a>
</g>
</g>
<!-- Node8 -->
<g id="Node000008" class="node">
<title>Node8</title>
<g id="a_Node000008"><a xlink:title=" ">
<polygon fill="white" stroke="#666666" points="160.75,-417.25 12.75,-417.25 12.75,-386.75 160.75,-386.75 160.75,-417.25"/>
<text xml:space="preserve" text-anchor="start" x="20.75" y="-403.75" font-family="Helvetica,sans-Serif" font-size="10.00">std::enable_shared</text>
<text xml:space="preserve" text-anchor="middle" x="86.75" y="-392.5" font-family="Helvetica,sans-Serif" font-size="10.00">_from_this&lt; RegisteredType &gt;</text>
</a>
</g>
</g>
<!-- Node8&#45;&gt;Node7 -->
<g id="edge7_Node000007_Node000008" class="edge">
<title>Node8&#45;&gt;Node7</title>
<g id="a_edge7_Node000007_Node000008"><a xlink:title=" ">
<path fill="none" stroke="#63b8ff" d="M86.75,-374.98C86.75,-366.48 86.75,-357.59 86.75,-351.2"/>
<polygon fill="#63b8ff" stroke="#63b8ff" points="83.25,-374.93 86.75,-384.93 90.25,-374.93 83.25,-374.93"/>
</a>
</g>
</g>
</g>
</svg>
</svg>

<style type='text/css'>
<![CDATA[
[data-mouse-over-selected='false'] { opacity: 0.7; }
[data-mouse-over-selected='true']  { opacity: 1.0; }
]]>
</style>
<script type="application/ecmascript"><![CDATA[
document.addEventListener('DOMContentLoaded', (event) => {
  highlightEdges();
  highlightAdjacentNodes();
});
]]></script>
</svg>
