<?xml version="1.0" encoding="UTF-8" standalone="no"?>
<!DOCTYPE svg PUBLIC "-//W3C//DTD SVG 1.1//EN"
 "http://www.w3.org/Graphics/SVG/1.1/DTD/svg11.dtd">
<!-- Generated by graphviz version 14.1.2 (20260124.0452)
 -->
<!-- Title: AQNWB::NWB::RegisteredType::create Pages: 1 -->
<svg width="361pt" height="57pt"
 viewBox="0.00 0.00 361.00 57.00" xmlns="http://www.w3.org/2000/svg" xmlns:xlink="http://www.w3.org/1999/xlink">
<g id="graph0" class="graph" transform="scale(1 1) rotate(0) translate(4 52.5)">
<title>AQNWB::NWB::RegisteredType::create</title>
<!-- Node1 -->
<g id="Node000001" class="node">
<title>Node1</title>
<g id="a_Node000001"><a xlink:title="Create an instance of a registered subclass by name.">
<polygon fill="#999999" stroke="#666666" points="158.5,-30.5 0,-30.5 0,0 158.5,0 158.5,-30.5"/>
<text xml:space="preserve" text-anchor="start" x="8" y="-17" font-family="Helvetica,sans-Serif" font-size="10.00">AQNWB::NWB::RegisteredType</text>
<text xml:space="preserve" text-anchor="middle" x="79.25" y="-5.75" font-family="Helvetica,sans-Serif" font-size="10.00">::create</text>
</a>
</g>
</g>
<!-- Node1&#45;&gt;Node1 -->
<g id="edge1_Node000001_Node000001" class="edge">
<title>Node1&#45;&gt;Node1</title>
<g id="a_edge1_Node000001_Node000001"><a xlink:title=" ">
<path fill="none" stroke="#63b8ff" d="M44.78,-30.99C37.75,-40.06 49.24,-48.5 79.25,-48.5 95.66,-48.5 106.53,-45.97 111.87,-42.2"/>
<polygon fill="#63b8ff" stroke="#63b8ff" points="115.3,-42.92 113.47,-32.48 108.39,-41.78 115.3,-42.92"/>
</a>
</g>
</g>
<!-- Node2 -->
<g id="Node000002" class="node">
<title>Node2</title>
<g id="a_Node000002"><a xlink:href="class_a_q_n_w_b_1_1_n_w_b_1_1_registered_type.html#ac83aa589b9c3ab5a00bab462e58fdbd5" target="_top" xlink:title="Get the factory map for creating instances of subclasses.">
<polygon fill="white" stroke="#666666" points="353,-30.5 194.5,-30.5 194.5,0 353,0 353,-30.5"/>
<text xml:space="preserve" text-anchor="start" x="202.5" y="-17" font-family="Helvetica,sans-Serif" font-size="10.00">AQNWB::NWB::RegisteredType</text>
<text xml:space="preserve" text-anchor="middle" x="273.75" y="-5.75" font-family="Helvetica,sans-Serif" font-size="10.00">::getFactoryMap</text>
</a>
</g>
</g>
<!-- Node1&#45;&gt;Node2 -->
<g id="edge2_Node000001_Node000002" class="edge">
<title>Node1&#45;&gt;Node2</title>
<g id="a_edge2_Node000001_Node000002"><a xlink:title=" ">
<path fill="none" stroke="#63b8ff" d="M158.82,-15.25C166.74,-15.25 174.82,-15.25 182.84,-15.25"/>
<polygon fill="#63b8ff" stroke="#63b8ff" points="182.6,-18.75 192.6,-15.25 182.6,-11.75 182.6,-18.75"/>
</a>
</g>
</g>
</g>
</svg>
