<?xml version="1.0" encoding="UTF-8" standalone="no"?>
<!DOCTYPE svg PUBLIC "-//W3C//DTD SVG 1.1//EN"
 "http://www.w3.org/Graphics/SVG/1.1/DTD/svg11.dtd">
<!-- Generated by graphviz version 14.1.2 (20260124.0452)
 -->
<!-- Title: AQNWB::IO::HDF5::HDF5IO::getStorageObjectShape Pages: 1 -->
<svg width="699pt" height="82pt"
 viewBox="0.00 0.00 699.00 82.00" xmlns="http://www.w3.org/2000/svg" xmlns:xlink="http://www.w3.org/1999/xlink">
<g id="graph0" class="graph" transform="scale(1 1) rotate(0) translate(4 77.5)">
<title>AQNWB::IO::HDF5::HDF5IO::getStorageObjectShape</title>
<!-- Node1 -->
<g id="Node000001" class="node">
<title>Node1</title>
<g id="a_Node000001"><a xlink:title="Returns the size of the dataset or attribute for each dimension.">
<polygon fill="#999999" stroke="#666666" points="145.75,-51.5 0,-51.5 0,-21 145.75,-21 145.75,-51.5"/>
<text xml:space="preserve" text-anchor="start" x="8" y="-38" font-family="Helvetica,sans-Serif" font-size="10.00">AQNWB::IO::HDF5::HDF5IO</text>
<text xml:space="preserve" text-anchor="middle" x="72.88" y="-26.75" font-family="Helvetica,sans-Serif" font-size="10.00">::getStorageObjectShape</text>
</a>
</g>
</g>
<!-- Node2 -->
<g id="Node000002" class="node">
<title>Node2</title>
<g id="a_Node000002"><a xlink:href="class_a_q_n_w_b_1_1_i_o_1_1_h_d_f5_1_1_h_d_f5_i_o.html#a87d9b4075fd30c5ec692738985ae294c" target="_top" xlink:title=" ">
<polygon fill="white" stroke="#666666" points="509.25,-73.5 363.5,-73.5 363.5,-43 509.25,-43 509.25,-73.5"/>
<text xml:space="preserve" text-anchor="start" x="371.5" y="-60" font-family="Helvetica,sans-Serif" font-size="10.00">AQNWB::IO::HDF5::HDF5IO</text>
<text xml:space="preserve" text-anchor="middle" x="436.38" y="-48.75" font-family="Helvetica,sans-Serif" font-size="10.00">::getAttribute</text>
</a>
</g>
</g>
<!-- Node1&#45;&gt;Node2 -->
<g id="edge1_Node000001_Node000002" class="edge">
<title>Node1&#45;&gt;Node2</title>
<g id="a_edge1_Node000001_Node000002"><a xlink:title=" ">
<path fill="none" stroke="#63b8ff" d="M146.16,-40.65C205.52,-44.26 289.63,-49.38 351.86,-53.17"/>
<polygon fill="#63b8ff" stroke="#63b8ff" points="351.51,-56.65 361.7,-53.77 351.93,-49.67 351.51,-56.65"/>
</a>
</g>
</g>
<!-- Node4 -->
<g id="Node000004" class="node">
<title>Node4</title>
<g id="a_Node000004"><a xlink:href="class_a_q_n_w_b_1_1_i_o_1_1_h_d_f5_1_1_h_d_f5_i_o.html#a5fb171a91ef8134baf224115f0dcf8bc" target="_top" xlink:title="Get the storage type (Group, Dataset, Attribute) of the object at path.">
<polygon fill="white" stroke="#666666" points="327.5,-30.5 181.75,-30.5 181.75,0 327.5,0 327.5,-30.5"/>
<text xml:space="preserve" text-anchor="start" x="189.75" y="-17" font-family="Helvetica,sans-Serif" font-size="10.00">AQNWB::IO::HDF5::HDF5IO</text>
<text xml:space="preserve" text-anchor="middle" x="254.62" y="-5.75" font-family="Helvetica,sans-Serif" font-size="10.00">::getStorageObjectType</text>
</a>
</g>
</g>
<!-- Node1&#45;&gt;Node4 -->
<g id="edge3_Node000001_Node000004" class="edge">
<title>Node1&#45;&gt;Node4</title>
<g id="a_edge3_Node000001_Node000004"><a xlink:title=" ">
<path fill="none" stroke="#63b8ff" d="M146.21,-27.8C154.1,-26.88 162.18,-25.93 170.19,-25"/>
<polygon fill="#63b8ff" stroke="#63b8ff" points="170.41,-28.5 179.94,-23.86 169.6,-21.54 170.41,-28.5"/>
</a>
</g>
</g>
<!-- Node3 -->
<g id="Node000003" class="node">
<title>Node3</title>
<g id="a_Node000003"><a xlink:href="class_a_q_n_w_b_1_1_i_o_1_1_h_d_f5_1_1_h_d_f5_i_o.html#ab665700f5c67a74022c82353ec3d73ef" target="_top" xlink:title="Returns the HDF5 type of object at a given path.">
<polygon fill="white" stroke="#666666" points="691,-51.5 545.25,-51.5 545.25,-21 691,-21 691,-51.5"/>
<text xml:space="preserve" text-anchor="start" x="553.25" y="-38" font-family="Helvetica,sans-Serif" font-size="10.00">AQNWB::IO::HDF5::HDF5IO</text>
<text xml:space="preserve" text-anchor="middle" x="618.12" y="-26.75" font-family="Helvetica,sans-Serif" font-size="10.00">::getH5ObjectType</text>
</a>
</g>
</g>
<!-- Node2&#45;&gt;Node3 -->
<g id="edge2_Node000002_Node000003" class="edge">
<title>Node2&#45;&gt;Node3</title>
<g id="a_edge2_Node000002_Node000003"><a xlink:title=" ">
<path fill="none" stroke="#63b8ff" d="M509.71,-49.4C517.6,-48.43 525.68,-47.44 533.69,-46.46"/>
<polygon fill="#63b8ff" stroke="#63b8ff" points="533.94,-49.96 543.44,-45.27 533.09,-43.01 533.94,-49.96"/>
</a>
</g>
</g>
<!-- Node4&#45;&gt;Node2 -->
<g id="edge4_Node000004_Node000002" class="edge">
<title>Node4&#45;&gt;Node2</title>
<g id="a_edge4_Node000004_Node000002"><a xlink:title=" ">
<path fill="none" stroke="#63b8ff" d="M321.28,-30.96C333.46,-33.87 346.28,-36.94 358.75,-39.92"/>
<polygon fill="#63b8ff" stroke="#63b8ff" points="357.58,-43.24 368.12,-42.16 359.21,-36.43 357.58,-43.24"/>
</a>
</g>
</g>
<!-- Node4&#45;&gt;Node3 -->
<g id="edge5_Node000004_Node000003" class="edge">
<title>Node4&#45;&gt;Node3</title>
<g id="a_edge5_Node000004_Node000003"><a xlink:title=" ">
<path fill="none" stroke="#63b8ff" d="M327.91,-19.45C387.27,-22.9 471.38,-27.78 533.61,-31.4"/>
<polygon fill="#63b8ff" stroke="#63b8ff" points="533.27,-34.88 543.45,-31.97 533.67,-27.9 533.27,-34.88"/>
</a>
</g>
</g>
</g>
</svg>
