<?xml version="1.0" encoding="UTF-8" standalone="no"?>
<!DOCTYPE svg PUBLIC "-//W3C//DTD SVG 1.1//EN"
 "http://www.w3.org/Graphics/SVG/1.1/DTD/svg11.dtd">
<!-- Generated by graphviz version 13.1.0 (20250701.0955)
 -->
<!-- Title: AQNWB::NWB::Data::initialize Pages: 1 -->
<svg width="355pt" height="88pt"
 viewBox="0.00 0.00 355.00 88.00" xmlns="http://www.w3.org/2000/svg" xmlns:xlink="http://www.w3.org/1999/xlink">
<g id="graph0" class="graph" transform="scale(1 1) rotate(0) translate(4 83.5)">
<title>AQNWB::NWB::Data::initialize</title>
<!-- Node1 -->
<g id="Node000001" class="node">
<title>Node1</title>
<g id="a_Node000001"><a xlink:title="Initialize the dataset for the Data object.">
<polygon fill="#999999" stroke="#666666" points="152.5,-48.88 0,-48.88 0,-29.62 152.5,-29.62 152.5,-48.88"/>
<text xml:space="preserve" text-anchor="middle" x="76.25" y="-35.38" font-family="Helvetica,sans-Serif" font-size="10.00">AQNWB::NWB::Data::initialize</text>
</a>
</g>
</g>
<!-- Node2 -->
<g id="Node000002" class="node">
<title>Node2</title>
<g id="a_Node000002"><a xlink:href="class_a_q_n_w_b_1_1_n_w_b_1_1_registered_type.html#a651f3d7e5cc28dc93888e8a821c5aa1c" target="_top" xlink:title="Get the schema namespace of the class type.">
<polygon fill="white" stroke="#666666" points="347,-79.5 188.5,-79.5 188.5,-49 347,-49 347,-79.5"/>
<text xml:space="preserve" text-anchor="start" x="196.5" y="-66" font-family="Helvetica,sans-Serif" font-size="10.00">AQNWB::NWB::RegisteredType</text>
<text xml:space="preserve" text-anchor="middle" x="267.75" y="-54.75" font-family="Helvetica,sans-Serif" font-size="10.00">::getNamespace</text>
</a>
</g>
</g>
<!-- Node1&#45;&gt;Node2 -->
<g id="edge1_Node000001_Node000002" class="edge">
<title>Node1&#45;&gt;Node2</title>
<g id="a_edge1_Node000001_Node000002"><a xlink:title=" ">
<path fill="none" stroke="#63b8ff" d="M152.96,-49.24C160.81,-50.27 168.84,-51.33 176.82,-52.39"/>
<polygon fill="#63b8ff" stroke="#63b8ff" points="176.18,-55.83 186.56,-53.67 177.1,-48.89 176.18,-55.83"/>
</a>
</g>
</g>
<!-- Node3 -->
<g id="Node000003" class="node">
<title>Node3</title>
<g id="a_Node000003"><a xlink:href="class_a_q_n_w_b_1_1_n_w_b_1_1_registered_type.html#a150f881ad61cb8352eea7ddba47bc6ad" target="_top" xlink:title="Get the name of the class type.">
<polygon fill="white" stroke="#666666" points="347,-30.5 188.5,-30.5 188.5,0 347,0 347,-30.5"/>
<text xml:space="preserve" text-anchor="start" x="196.5" y="-17" font-family="Helvetica,sans-Serif" font-size="10.00">AQNWB::NWB::RegisteredType</text>
<text xml:space="preserve" text-anchor="middle" x="267.75" y="-5.75" font-family="Helvetica,sans-Serif" font-size="10.00">::getTypeName</text>
</a>
</g>
</g>
<!-- Node1&#45;&gt;Node3 -->
<g id="edge2_Node000001_Node000003" class="edge">
<title>Node1&#45;&gt;Node3</title>
<g id="a_edge2_Node000001_Node000003"><a xlink:title=" ">
<path fill="none" stroke="#63b8ff" d="M152.96,-29.66C160.81,-28.67 168.84,-27.65 176.82,-26.64"/>
<polygon fill="#63b8ff" stroke="#63b8ff" points="177.07,-30.14 186.56,-25.41 176.19,-23.19 177.07,-30.14"/>
</a>
</g>
</g>
</g>
</svg>
