<?xml version="1.0" encoding="UTF-8" standalone="no"?>
<!DOCTYPE svg PUBLIC "-//W3C//DTD SVG 1.1//EN"
 "http://www.w3.org/Graphics/SVG/1.1/DTD/svg11.dtd">
<!-- Generated by graphviz version 14.1.5 (20260411.2331)
 -->
<!-- Title: AQNWB::NWB::TimeSeries::recordTimestamps Pages: 1 -->
<!--zoomable 204 -->

<svg id="main" version="1.1" xmlns="http://www.w3.org/2000/svg" xmlns:xlink="http://www.w3.org/1999/xlink" xml:space="preserve" onload="init(evt)">

<style type="text/css"><![CDATA[
.node, .edge {opacity: 0.7;}
.node.selected, .edge.selected {opacity: 1;}
.edge:hover path { stroke: red; }
.edge:hover polygon { stroke: red; fill: red; }
]]></style>

<defs>
  <circle id="rim" cx="0" cy="0" r="7"/>
  <circle id="rim2" cx="0" cy="0" r="3.5"/>
  <g id="zoomPlus">
    <use xlink:href="#rim" fill="#404040"><set attributeName="fill" to="#808080" begin="zoomplus.mouseover" end="zoomplus.mouseout"/></use>
    <path d="M-4,0h8M0,-4v8" fill="none" stroke="white" stroke-width="1.5" pointer-events="none"/>
  </g>
  <g id="zoomMin">
    <use xlink:href="#rim" fill="#404040"><set attributeName="fill" to="#808080" begin="zoomminus.mouseover" end="zoomminus.mouseout"/></use>
    <path d="M-4,0h8" fill="none" stroke="white" stroke-width="1.5" pointer-events="none"/>
  </g>
  <g id="arrowUp" transform="translate(30 24)">
    <use xlink:href="#rim"/>
    <path pointer-events="none" fill="none" stroke="white" stroke-width="1.5" d="M0,-3.0v7 M-2.5,-0.5L0,-3.0L2.5,-0.5"/>
  </g>
  <g id="arrowRight" transform="rotate(90) translate(36 -43)">
    <use xlink:href="#rim"/>
    <path pointer-events="none" fill="none" stroke="white" stroke-width="1.5" d="M0,-3.0v7 M-2.5,-0.5L0,-3.0L2.5,-0.5"/>
  </g>
  <g id="arrowDown" transform="rotate(180) translate(-30 -48)">
    <use xlink:href="#rim"/>
    <path pointer-events="none" fill="none" stroke="white" stroke-width="1.5" d="M0,-3.0v7 M-2.5,-0.5L0,-3.0L2.5,-0.5"/>
  </g>
  <g id="arrowLeft" transform="rotate(270) translate(-36 17)">
    <use xlink:href="#rim"/>
    <path pointer-events="none" fill="none" stroke="white" stroke-width="1.5" d="M0,-3.0v7 M-2.5,-0.5L0,-3.0L2.5,-0.5"/>
  </g>
  <g id="resetDef">
    <use xlink:href="#rim2" fill="#404040"><set attributeName="fill" to="#808080" begin="reset.mouseover" end="reset.mouseout"/></use>
  </g>
</defs>
<script type="application/ecmascript">
var viewWidth = 1783;
var viewHeight = 204;
var sectionId = 'dynsection-44';
</script>
<script type="application/ecmascript" xlink:href="svg.min.js"/>
<svg id="graph" class="graph">
<g id="viewport">
<title>AQNWB::NWB::TimeSeries::recordTimestamps</title>
<!-- Node1 -->
<g id="Node000001" class="node">
<title>Node1</title>
<g id="a_Node000001"><a xlink:title=" ">
<polygon fill="#999999" stroke="#666666" points="1774.75,-128.5 1635,-128.5 1635,-98 1774.75,-98 1774.75,-128.5"/>
<text xml:space="preserve" text-anchor="start" x="1643" y="-115" font-family="Helvetica,sans-Serif" font-size="10.00">AQNWB::NWB::TimeSeries</text>
<text xml:space="preserve" text-anchor="middle" x="1704.88" y="-103.75" font-family="Helvetica,sans-Serif" font-size="10.00">::recordTimestamps</text>
</a>
</g>
</g>
<!-- Node2 -->
<g id="Node000002" class="node">
<title>Node2</title>
<g id="a_Node000002"><a xlink:href="class_a_q_n_w_b_1_1_n_w_b_1_1_time_series.html#a055a5a6a5b9bebbd3f517cdb59ebd65a" target="_top" xlink:title=" ">
<polygon fill="white" stroke="#666666" points="1586.62,-177.5 1446.88,-177.5 1446.88,-147 1586.62,-147 1586.62,-177.5"/>
<text xml:space="preserve" text-anchor="start" x="1454.88" y="-164" font-family="Helvetica,sans-Serif" font-size="10.00">AQNWB::NWB::TimeSeries</text>
<text xml:space="preserve" text-anchor="middle" x="1516.75" y="-152.75" font-family="Helvetica,sans-Serif" font-size="10.00">::readStartingTimeUnit</text>
</a>
</g>
</g>
<!-- Node1&#45;&gt;Node2 -->
<g id="edge1_Node000001_Node000002" class="edge">
<title>Node1&#45;&gt;Node2</title>
<g id="a_edge1_Node000001_Node000002"><a xlink:title=" ">
<path fill="none" stroke="#63b8ff" d="M1633.24,-131.84C1614.83,-136.69 1595.17,-141.87 1577.39,-146.55"/>
<polygon fill="#63b8ff" stroke="#63b8ff" points="1633.97,-135.27 1642.75,-129.34 1632.19,-128.5 1633.97,-135.27"/>
</a>
</g>
</g>
<!-- Node11 -->
<g id="Node000011" class="node">
<title>Node11</title>
<g id="a_Node000011"><a xlink:href="class_a_q_n_w_b_1_1_n_w_b_1_1_annotation_series.html#a5d1ce0df68f30ea1d8111333a967d7f0" target="_top" xlink:title="Writes a channel to an AnnotationSeries dataset.">
<polygon fill="white" stroke="#666666" points="1599,-128.5 1434.5,-128.5 1434.5,-98 1599,-98 1599,-128.5"/>
<text xml:space="preserve" text-anchor="start" x="1442.5" y="-115" font-family="Helvetica,sans-Serif" font-size="10.00">AQNWB::NWB::AnnotationSeries</text>
<text xml:space="preserve" text-anchor="middle" x="1516.75" y="-103.75" font-family="Helvetica,sans-Serif" font-size="10.00">::writeAnnotation</text>
</a>
</g>
</g>
<!-- Node1&#45;&gt;Node11 -->
<g id="edge11_Node000001_Node000011" class="edge">
<title>Node1&#45;&gt;Node11</title>
<g id="a_edge11_Node000001_Node000011"><a xlink:title=" ">
<path fill="none" stroke="#63b8ff" d="M1623.14,-113.25C1615.26,-113.25 1607.26,-113.25 1599.37,-113.25"/>
<polygon fill="#63b8ff" stroke="#63b8ff" points="1623.06,-116.75 1633.06,-113.25 1623.06,-109.75 1623.06,-116.75"/>
</a>
</g>
</g>
<!-- Node12 -->
<g id="Node000012" class="node">
<title>Node12</title>
<g id="a_Node000012"><a xlink:href="class_a_q_n_w_b_1_1_n_w_b_1_1_time_series.html#afb05f2252df2fc23d938894eb0bc6984" target="_top" xlink:title="Writes a timeseries data block to the file.">
<polygon fill="white" stroke="#666666" points="1586.62,-79.5 1446.88,-79.5 1446.88,-49 1586.62,-49 1586.62,-79.5"/>
<text xml:space="preserve" text-anchor="start" x="1454.88" y="-66" font-family="Helvetica,sans-Serif" font-size="10.00">AQNWB::NWB::TimeSeries</text>
<text xml:space="preserve" text-anchor="middle" x="1516.75" y="-54.75" font-family="Helvetica,sans-Serif" font-size="10.00">::writeData</text>
</a>
</g>
</g>
<!-- Node1&#45;&gt;Node12 -->
<g id="edge12_Node000001_Node000012" class="edge">
<title>Node1&#45;&gt;Node12</title>
<g id="a_edge12_Node000001_Node000012"><a xlink:title=" ">
<path fill="none" stroke="#63b8ff" d="M1633.24,-94.66C1614.83,-89.81 1595.17,-84.63 1577.39,-79.95"/>
<polygon fill="#63b8ff" stroke="#63b8ff" points="1632.19,-98 1642.75,-97.16 1633.97,-91.23 1632.19,-98"/>
</a>
</g>
</g>
<!-- Node3 -->
<g id="Node000003" class="node">
<title>Node3</title>
<g id="a_Node000003"><a xlink:href="class_a_q_n_w_b_1_1_n_w_b_1_1_time_series.html#af32a022bd96207ee5eb2b26ac6ae8d2e" target="_top" xlink:title=" ">
<polygon fill="white" stroke="#666666" points="1384.25,-177.5 1244.5,-177.5 1244.5,-147 1384.25,-147 1384.25,-177.5"/>
<text xml:space="preserve" text-anchor="start" x="1252.5" y="-164" font-family="Helvetica,sans-Serif" font-size="10.00">AQNWB::NWB::TimeSeries</text>
<text xml:space="preserve" text-anchor="middle" x="1314.38" y="-152.75" font-family="Helvetica,sans-Serif" font-size="10.00">::readStartingTimeRate</text>
</a>
</g>
</g>
<!-- Node2&#45;&gt;Node3 -->
<g id="edge2_Node000002_Node000003" class="edge">
<title>Node2&#45;&gt;Node3</title>
<g id="a_edge2_Node000002_Node000003"><a xlink:title=" ">
<path fill="none" stroke="#63b8ff" d="M1435.08,-162.25C1418.36,-162.25 1400.88,-162.25 1384.62,-162.25"/>
<polygon fill="#63b8ff" stroke="#63b8ff" points="1435,-165.75 1445,-162.25 1435,-158.75 1435,-165.75"/>
</a>
</g>
</g>
<!-- Node4 -->
<g id="Node000004" class="node">
<title>Node4</title>
<g id="a_Node000004"><a xlink:href="class_a_q_n_w_b_1_1_n_w_b_1_1_time_series.html#a3a85691477ada29012a8cb1a2ab4fb5e" target="_top" xlink:title=" ">
<polygon fill="white" stroke="#666666" points="1194.25,-177.5 1054.5,-177.5 1054.5,-147 1194.25,-147 1194.25,-177.5"/>
<text xml:space="preserve" text-anchor="start" x="1062.5" y="-164" font-family="Helvetica,sans-Serif" font-size="10.00">AQNWB::NWB::TimeSeries</text>
<text xml:space="preserve" text-anchor="middle" x="1124.38" y="-152.75" font-family="Helvetica,sans-Serif" font-size="10.00">::readStartingTime</text>
</a>
</g>
</g>
<!-- Node3&#45;&gt;Node4 -->
<g id="edge3_Node000003_Node000004" class="edge">
<title>Node3&#45;&gt;Node4</title>
<g id="a_edge3_Node000003_Node000004"><a xlink:title=" ">
<path fill="none" stroke="#63b8ff" d="M1232.69,-162.25C1220.06,-162.25 1207.1,-162.25 1194.75,-162.25"/>
<polygon fill="#63b8ff" stroke="#63b8ff" points="1232.66,-165.75 1242.66,-162.25 1232.66,-158.75 1232.66,-165.75"/>
</a>
</g>
</g>
<!-- Node5 -->
<g id="Node000005" class="node">
<title>Node5</title>
<g id="a_Node000005"><a xlink:href="class_a_q_n_w_b_1_1_n_w_b_1_1_time_series.html#ade7280dcb98b4ce03104a3b9b7ee89d5" target="_top" xlink:title=" ">
<polygon fill="white" stroke="#666666" points="1018.5,-177.5 878.75,-177.5 878.75,-147 1018.5,-147 1018.5,-177.5"/>
<text xml:space="preserve" text-anchor="start" x="886.75" y="-164" font-family="Helvetica,sans-Serif" font-size="10.00">AQNWB::NWB::TimeSeries</text>
<text xml:space="preserve" text-anchor="middle" x="948.62" y="-152.75" font-family="Helvetica,sans-Serif" font-size="10.00">::readDataContinuity</text>
</a>
</g>
</g>
<!-- Node4&#45;&gt;Node5 -->
<g id="edge4_Node000004_Node000005" class="edge">
<title>Node4&#45;&gt;Node5</title>
<g id="a_edge4_Node000004_Node000005"><a xlink:title=" ">
<path fill="none" stroke="#63b8ff" d="M1042.91,-162.25C1034.87,-162.25 1026.75,-162.25 1018.84,-162.25"/>
<polygon fill="#63b8ff" stroke="#63b8ff" points="1042.69,-165.75 1052.69,-162.25 1042.69,-158.75 1042.69,-165.75"/>
</a>
</g>
</g>
<!-- Node6 -->
<g id="Node000006" class="node">
<title>Node6</title>
<g id="a_Node000006"><a xlink:href="class_a_q_n_w_b_1_1_n_w_b_1_1_time_series.html#aada7da514e40b99b1b7ff897c92f5b2d" target="_top" xlink:title=" ">
<polygon fill="white" stroke="#666666" points="842.75,-177.5 703,-177.5 703,-147 842.75,-147 842.75,-177.5"/>
<text xml:space="preserve" text-anchor="start" x="711" y="-164" font-family="Helvetica,sans-Serif" font-size="10.00">AQNWB::NWB::TimeSeries</text>
<text xml:space="preserve" text-anchor="middle" x="772.88" y="-152.75" font-family="Helvetica,sans-Serif" font-size="10.00">::readDataUnit</text>
</a>
</g>
</g>
<!-- Node5&#45;&gt;Node6 -->
<g id="edge5_Node000005_Node000006" class="edge">
<title>Node5&#45;&gt;Node6</title>
<g id="a_edge5_Node000005_Node000006"><a xlink:title=" ">
<path fill="none" stroke="#63b8ff" d="M867.16,-162.25C859.12,-162.25 851,-162.25 843.09,-162.25"/>
<polygon fill="#63b8ff" stroke="#63b8ff" points="866.94,-165.75 876.94,-162.25 866.94,-158.75 866.94,-165.75"/>
</a>
</g>
</g>
<!-- Node7 -->
<g id="Node000007" class="node">
<title>Node7</title>
<g id="a_Node000007"><a xlink:href="class_a_q_n_w_b_1_1_n_w_b_1_1_time_series.html#a05f88b4ef3d51fd24e79f8f61df60b5c" target="_top" xlink:title=" ">
<polygon fill="white" stroke="#666666" points="667,-177.5 527.25,-177.5 527.25,-147 667,-147 667,-177.5"/>
<text xml:space="preserve" text-anchor="start" x="535.25" y="-164" font-family="Helvetica,sans-Serif" font-size="10.00">AQNWB::NWB::TimeSeries</text>
<text xml:space="preserve" text-anchor="middle" x="597.12" y="-152.75" font-family="Helvetica,sans-Serif" font-size="10.00">::readDataResolution</text>
</a>
</g>
</g>
<!-- Node6&#45;&gt;Node7 -->
<g id="edge6_Node000006_Node000007" class="edge">
<title>Node6&#45;&gt;Node7</title>
<g id="a_edge6_Node000006_Node000007"><a xlink:title=" ">
<path fill="none" stroke="#63b8ff" d="M691.41,-162.25C683.37,-162.25 675.25,-162.25 667.34,-162.25"/>
<polygon fill="#63b8ff" stroke="#63b8ff" points="691.19,-165.75 701.19,-162.25 691.19,-158.75 691.19,-165.75"/>
</a>
</g>
</g>
<!-- Node8 -->
<g id="Node000008" class="node">
<title>Node8</title>
<g id="a_Node000008"><a xlink:href="class_a_q_n_w_b_1_1_n_w_b_1_1_time_series.html#a64808096931f82dbd378b2c21679ba03" target="_top" xlink:title=" ">
<polygon fill="white" stroke="#666666" points="491.25,-177.5 351.5,-177.5 351.5,-147 491.25,-147 491.25,-177.5"/>
<text xml:space="preserve" text-anchor="start" x="359.5" y="-164" font-family="Helvetica,sans-Serif" font-size="10.00">AQNWB::NWB::TimeSeries</text>
<text xml:space="preserve" text-anchor="middle" x="421.38" y="-152.75" font-family="Helvetica,sans-Serif" font-size="10.00">::readDataOffset</text>
</a>
</g>
</g>
<!-- Node7&#45;&gt;Node8 -->
<g id="edge7_Node000007_Node000008" class="edge">
<title>Node7&#45;&gt;Node8</title>
<g id="a_edge7_Node000007_Node000008"><a xlink:title=" ">
<path fill="none" stroke="#63b8ff" d="M515.66,-162.25C507.62,-162.25 499.5,-162.25 491.59,-162.25"/>
<polygon fill="#63b8ff" stroke="#63b8ff" points="515.44,-165.75 525.44,-162.25 515.44,-158.75 515.44,-165.75"/>
</a>
</g>
</g>
<!-- Node9 -->
<g id="Node000009" class="node">
<title>Node9</title>
<g id="a_Node000009"><a xlink:href="class_a_q_n_w_b_1_1_n_w_b_1_1_time_series.html#a32e11a8254db9fad8682fc8d8d118370" target="_top" xlink:title=" ">
<polygon fill="white" stroke="#666666" points="315.5,-177.5 175.75,-177.5 175.75,-147 315.5,-147 315.5,-177.5"/>
<text xml:space="preserve" text-anchor="start" x="183.75" y="-164" font-family="Helvetica,sans-Serif" font-size="10.00">AQNWB::NWB::TimeSeries</text>
<text xml:space="preserve" text-anchor="middle" x="245.62" y="-152.75" font-family="Helvetica,sans-Serif" font-size="10.00">::readDataConversion</text>
</a>
</g>
</g>
<!-- Node8&#45;&gt;Node9 -->
<g id="edge8_Node000008_Node000009" class="edge">
<title>Node8&#45;&gt;Node9</title>
<g id="a_edge8_Node000008_Node000009"><a xlink:title=" ">
<path fill="none" stroke="#63b8ff" d="M339.91,-162.25C331.87,-162.25 323.75,-162.25 315.84,-162.25"/>
<polygon fill="#63b8ff" stroke="#63b8ff" points="339.69,-165.75 349.69,-162.25 339.69,-158.75 339.69,-165.75"/>
</a>
</g>
</g>
<!-- Node10 -->
<g id="Node000010" class="node">
<title>Node10</title>
<g id="a_Node000010"><a xlink:href="class_a_q_n_w_b_1_1_n_w_b_1_1_time_series.html#a185cdbb22cb299862e950576a6c9ecab" target="_top" xlink:title=" ">
<polygon fill="white" stroke="#666666" points="139.75,-177.5 0,-177.5 0,-147 139.75,-147 139.75,-177.5"/>
<text xml:space="preserve" text-anchor="start" x="8" y="-164" font-family="Helvetica,sans-Serif" font-size="10.00">AQNWB::NWB::TimeSeries</text>
<text xml:space="preserve" text-anchor="middle" x="69.88" y="-152.75" font-family="Helvetica,sans-Serif" font-size="10.00">::readData</text>
</a>
</g>
</g>
<!-- Node9&#45;&gt;Node10 -->
<g id="edge9_Node000009_Node000010" class="edge">
<title>Node9&#45;&gt;Node10</title>
<g id="a_edge9_Node000009_Node000010"><a xlink:title=" ">
<path fill="none" stroke="#63b8ff" d="M164.16,-162.25C156.12,-162.25 148,-162.25 140.09,-162.25"/>
<polygon fill="#63b8ff" stroke="#63b8ff" points="163.94,-165.75 173.94,-162.25 163.94,-158.75 163.94,-165.75"/>
</a>
</g>
</g>
<!-- Node10&#45;&gt;Node10 -->
<g id="edge10_Node000010_Node000010" class="edge">
<title>Node10&#45;&gt;Node10</title>
<g id="a_edge10_Node000010_Node000010"><a xlink:title=" ">
<path fill="none" stroke="#63b8ff" d="M99.35,-189.2C94.53,-192.97 84.7,-195.5 69.88,-195.5 42.76,-195.5 32.38,-187.06 38.73,-177.99"/>
<polygon fill="#63b8ff" stroke="#63b8ff" points="102.78,-189.89 100.8,-179.48 95.86,-188.86 102.78,-189.89"/>
</a>
</g>
</g>
<!-- Node13 -->
<g id="Node000013" class="node">
<title>Node13</title>
<g id="a_Node000013"><a xlink:href="class_a_q_n_w_b_1_1_n_w_b_1_1_electrical_series.html#a3e3382ab70376c6e1307b53ec77c399f" target="_top" xlink:title="Writes a block of multichannel samples to an ElectricalSeries dataset in a single operation.">
<polygon fill="white" stroke="#666666" points="1393.62,-128.5 1235.12,-128.5 1235.12,-98 1393.62,-98 1393.62,-128.5"/>
<text xml:space="preserve" text-anchor="start" x="1243.12" y="-115" font-family="Helvetica,sans-Serif" font-size="10.00">AQNWB::NWB::ElectricalSeries</text>
<text xml:space="preserve" text-anchor="middle" x="1314.38" y="-103.75" font-family="Helvetica,sans-Serif" font-size="10.00">::writeAllChannels</text>
</a>
</g>
</g>
<!-- Node12&#45;&gt;Node13 -->
<g id="edge13_Node000012_Node000013" class="edge">
<title>Node12&#45;&gt;Node13</title>
<g id="a_edge13_Node000012_Node000013"><a xlink:title=" ">
<path fill="none" stroke="#63b8ff" d="M1440.55,-82.64C1420.48,-87.55 1398.99,-92.8 1379.58,-97.55"/>
<polygon fill="#63b8ff" stroke="#63b8ff" points="1441.17,-86.09 1450.05,-80.32 1439.51,-79.29 1441.17,-86.09"/>
</a>
</g>
</g>
<!-- Node14 -->
<g id="Node000014" class="node">
<title>Node14</title>
<g id="a_Node000014"><a xlink:href="class_a_q_n_w_b_1_1_n_w_b_1_1_electrical_series.html#abd499ff69952a61324f86034ea91111b" target="_top" xlink:title="Writes a channel to an ElectricalSeries dataset.">
<polygon fill="white" stroke="#666666" points="1393.62,-79.5 1235.12,-79.5 1235.12,-49 1393.62,-49 1393.62,-79.5"/>
<text xml:space="preserve" text-anchor="start" x="1243.12" y="-66" font-family="Helvetica,sans-Serif" font-size="10.00">AQNWB::NWB::ElectricalSeries</text>
<text xml:space="preserve" text-anchor="middle" x="1314.38" y="-54.75" font-family="Helvetica,sans-Serif" font-size="10.00">::writeChannel</text>
</a>
</g>
</g>
<!-- Node12&#45;&gt;Node14 -->
<g id="edge14_Node000012_Node000014" class="edge">
<title>Node12&#45;&gt;Node14</title>
<g id="a_edge14_Node000012_Node000014"><a xlink:title=" ">
<path fill="none" stroke="#63b8ff" d="M1435.21,-64.25C1421.59,-64.25 1407.46,-64.25 1393.89,-64.25"/>
<polygon fill="#63b8ff" stroke="#63b8ff" points="1435,-67.75 1445,-64.25 1435,-60.75 1435,-67.75"/>
</a>
</g>
</g>
<!-- Node15 -->
<g id="Node000015" class="node">
<title>Node15</title>
<g id="a_Node000015"><a xlink:href="class_a_q_n_w_b_1_1_n_w_b_1_1_spike_event_series.html#a5cfdd0f6bfdf9cec7e43219fb606a7e1" target="_top" xlink:title="Write a single spike series event.">
<polygon fill="white" stroke="#666666" points="1398.5,-30.5 1230.25,-30.5 1230.25,0 1398.5,0 1398.5,-30.5"/>
<text xml:space="preserve" text-anchor="start" x="1238.25" y="-17" font-family="Helvetica,sans-Serif" font-size="10.00">AQNWB::NWB::SpikeEventSeries</text>
<text xml:space="preserve" text-anchor="middle" x="1314.38" y="-5.75" font-family="Helvetica,sans-Serif" font-size="10.00">::writeSpike</text>
</a>
</g>
</g>
<!-- Node12&#45;&gt;Node15 -->
<g id="edge15_Node000012_Node000015" class="edge">
<title>Node12&#45;&gt;Node15</title>
<g id="a_edge15_Node000012_Node000015"><a xlink:title=" ">
<path fill="none" stroke="#63b8ff" d="M1440.55,-45.86C1420.48,-40.95 1398.99,-35.7 1379.58,-30.95"/>
<polygon fill="#63b8ff" stroke="#63b8ff" points="1439.51,-49.21 1450.05,-48.18 1441.17,-42.41 1439.51,-49.21"/>
</a>
</g>
</g>
</g>
</svg>

<g id="navigator" transform="translate(0 0)" fill="#404254">
  <rect fill="#f2f5e9" fill-opacity="0.5" stroke="#606060" stroke-width=".5" x="0" y="0" width="60" height="60"/>
  <use id="zoomplus" xlink:href="#zoomPlus" x="17" y="9" onmousedown="handleZoom(evt,'in')"/>
  <use id="zoomminus" xlink:href="#zoomMin" x="42" y="9" onmousedown="handleZoom(evt,'out')"/>
  <use id="reset" xlink:href="#resetDef" x="30" y="36" onmousedown="handleReset()"/>
   <use id="arrowup" xlink:href="#arrowUp" x="0" y="0" onmousedown="handlePan(0,-1)"/>
  <use id="arrowright" xlink:href="#arrowRight" x="0" y="0" onmousedown="handlePan(1,0)"/>
  <use id="arrowdown" xlink:href="#arrowDown" x="0" y="0" onmousedown="handlePan(0,1)"/>
  <use id="arrowleft" xlink:href="#arrowLeft" x="0" y="0" onmousedown="handlePan(-1,0)"/>
</g>
<svg viewBox="0 0 15 15" width="100%" height="30px" preserveAspectRatio="xMaxYMin meet">
 <g id="arrow_out" transform="scale(0.3 0.3)">
  <a xlink:href="class_a_q_n_w_b_1_1_n_w_b_1_1_time_series_a42a04e2e5af03b642fb3af958115e1ef_icgraph_org.svg" target="_base">
   <rect id="button" ry="5" rx="5" y="6" x="6" height="38" width="38"
        fill="#f2f5e9" fill-opacity="0.5" stroke="#606060" stroke-width="1.0"/>
   <path id="arrow"
     d="M 11.500037,31.436501 C 11.940474,20.09759 22.043105,11.32322 32.158766,21.979434 L 37.068811,17.246167 C 37.068811,17.246167 37.088388,32 37.088388,32 L 22.160133,31.978069 C 22.160133,31.978069 26.997745,27.140456 26.997745,27.140456 C 18.528582,18.264221 13.291696,25.230495 11.500037,31.436501 z"
     style="fill:#404040;"/>
  </a>
 </g>
</svg>

<style type='text/css'>
<![CDATA[
[data-mouse-over-selected='false'] { opacity: 0.7; }
[data-mouse-over-selected='true']  { opacity: 1.0; }
]]>
</style>
<script type="application/ecmascript"><![CDATA[
document.addEventListener('DOMContentLoaded', (event) => {
  highlightEdges();
  highlightAdjacentNodes();
});
]]></script>
</svg>
