<?xml version="1.0" encoding="UTF-8" standalone="no"?>
<!DOCTYPE svg PUBLIC "-//W3C//DTD SVG 1.1//EN"
 "http://www.w3.org/Graphics/SVG/1.1/DTD/svg11.dtd">
<!-- Generated by graphviz version 13.1.2 (20250808.2320)
 -->
<!-- Title: AQNWB::NWB::TimeSeries::readTimestampsInterval Pages: 1 -->
<!--zoomable 136 -->

<svg id="main" version="1.1" xmlns="http://www.w3.org/2000/svg" xmlns:xlink="http://www.w3.org/1999/xlink" xml:space="preserve" onload="init(evt)">

<style type="text/css"><![CDATA[
.node, .edge {opacity: 0.7;}
.node.selected, .edge.selected {opacity: 1;}
.edge:hover path { stroke: red; }
.edge:hover polygon { stroke: red; fill: red; }
]]></style>

<defs>
  <circle id="rim" cx="0" cy="0" r="7"/>
  <circle id="rim2" cx="0" cy="0" r="3.5"/>
  <g id="zoomPlus">
    <use xlink:href="#rim" fill="#404040"><set attributeName="fill" to="#808080" begin="zoomplus.mouseover" end="zoomplus.mouseout"/></use>
    <path d="M-4,0h8M0,-4v8" fill="none" stroke="white" stroke-width="1.5" pointer-events="none"/>
  </g>
  <g id="zoomMin">
    <use xlink:href="#rim" fill="#404040"><set attributeName="fill" to="#808080" begin="zoomminus.mouseover" end="zoomminus.mouseout"/></use>
    <path d="M-4,0h8" fill="none" stroke="white" stroke-width="1.5" pointer-events="none"/>
  </g>
  <g id="arrowUp" transform="translate(30 24)">
    <use xlink:href="#rim"/>
    <path pointer-events="none" fill="none" stroke="white" stroke-width="1.5" d="M0,-3.0v7 M-2.5,-0.5L0,-3.0L2.5,-0.5"/>
  </g>
  <g id="arrowRight" transform="rotate(90) translate(36 -43)">
    <use xlink:href="#rim"/>
    <path pointer-events="none" fill="none" stroke="white" stroke-width="1.5" d="M0,-3.0v7 M-2.5,-0.5L0,-3.0L2.5,-0.5"/>
  </g>
  <g id="arrowDown" transform="rotate(180) translate(-30 -48)">
    <use xlink:href="#rim"/>
    <path pointer-events="none" fill="none" stroke="white" stroke-width="1.5" d="M0,-3.0v7 M-2.5,-0.5L0,-3.0L2.5,-0.5"/>
  </g>
  <g id="arrowLeft" transform="rotate(270) translate(-36 17)">
    <use xlink:href="#rim"/>
    <path pointer-events="none" fill="none" stroke="white" stroke-width="1.5" d="M0,-3.0v7 M-2.5,-0.5L0,-3.0L2.5,-0.5"/>
  </g>
  <g id="resetDef">
    <use xlink:href="#rim2" fill="#404040"><set attributeName="fill" to="#808080" begin="reset.mouseover" end="reset.mouseout"/></use>
  </g>
</defs>
<script type="application/ecmascript">
var viewWidth = 1005;
var viewHeight = 136;
var sectionId = 'dynsection-35';
</script>
<script type="application/ecmascript" xlink:href="svg.min.js"/>
<svg id="graph" class="graph">
<g id="viewport">
<title>AQNWB::NWB::TimeSeries::readTimestampsInterval</title>
<!-- Node1 -->
<g id="Node000001" class="node">
<title>Node1</title>
<g id="a_Node000001"><a xlink:title=" ">
<polygon fill="#999999" stroke="#666666" points="139.75,-54.5 0,-54.5 0,-24 139.75,-24 139.75,-54.5"/>
<text xml:space="preserve" text-anchor="start" x="8" y="-41" font-family="Helvetica,sans-Serif" font-size="10.00">AQNWB::NWB::TimeSeries</text>
<text xml:space="preserve" text-anchor="middle" x="69.88" y="-29.75" font-family="Helvetica,sans-Serif" font-size="10.00">::readTimestampsInterval</text>
</a>
</g>
</g>
<!-- Node2 -->
<g id="Node000002" class="node">
<title>Node2</title>
<g id="a_Node000002"><a xlink:href="class_a_q_n_w_b_1_1_n_w_b_1_1_time_series.html#adf3f178d207453927ae6ede7a53ac7f7" target="_top" xlink:title=" ">
<polygon fill="white" stroke="#666666" points="315.5,-54.5 175.75,-54.5 175.75,-24 315.5,-24 315.5,-54.5"/>
<text xml:space="preserve" text-anchor="start" x="183.75" y="-41" font-family="Helvetica,sans-Serif" font-size="10.00">AQNWB::NWB::TimeSeries</text>
<text xml:space="preserve" text-anchor="middle" x="245.62" y="-29.75" font-family="Helvetica,sans-Serif" font-size="10.00">::readTimestampsUnit</text>
</a>
</g>
</g>
<!-- Node1&#45;&gt;Node2 -->
<g id="edge1_Node000001_Node000002" class="edge">
<title>Node1&#45;&gt;Node2</title>
<g id="a_edge1_Node000001_Node000002"><a xlink:title=" ">
<path fill="none" stroke="#63b8ff" d="M140.04,-39.25C147.96,-39.25 156.07,-39.25 164.12,-39.25"/>
<polygon fill="#63b8ff" stroke="#63b8ff" points="163.9,-42.75 173.9,-39.25 163.9,-35.75 163.9,-42.75"/>
</a>
</g>
</g>
<!-- Node3 -->
<g id="Node000003" class="node">
<title>Node3</title>
<g id="a_Node000003"><a xlink:href="class_a_q_n_w_b_1_1_n_w_b_1_1_time_series.html#a0501cf1664c3ac781453e312aa3342b0" target="_top" xlink:title=" ">
<polygon fill="white" stroke="#666666" points="491.25,-79.5 351.5,-79.5 351.5,-49 491.25,-49 491.25,-79.5"/>
<text xml:space="preserve" text-anchor="start" x="359.5" y="-66" font-family="Helvetica,sans-Serif" font-size="10.00">AQNWB::NWB::TimeSeries</text>
<text xml:space="preserve" text-anchor="middle" x="421.38" y="-54.75" font-family="Helvetica,sans-Serif" font-size="10.00">::readControl</text>
</a>
</g>
</g>
<!-- Node2&#45;&gt;Node3 -->
<g id="edge2_Node000002_Node000003" class="edge">
<title>Node2&#45;&gt;Node3</title>
<g id="a_edge2_Node000002_Node000003"><a xlink:title=" ">
<path fill="none" stroke="#63b8ff" d="M315.79,-49.2C323.71,-50.34 331.82,-51.51 339.87,-52.67"/>
<polygon fill="#63b8ff" stroke="#63b8ff" points="339.26,-56.12 349.66,-54.08 340.26,-49.19 339.26,-56.12"/>
</a>
</g>
</g>
<!-- Node9 -->
<g id="Node000009" class="node">
<title>Node9</title>
<g id="a_Node000009"><a xlink:href="class_a_q_n_w_b_1_1_n_w_b_1_1_time_series.html#a09ead45365072d1f2dbdfe5d628d1af4" target="_top" xlink:title=" ">
<polygon fill="white" stroke="#666666" points="491.25,-30.5 351.5,-30.5 351.5,0 491.25,0 491.25,-30.5"/>
<text xml:space="preserve" text-anchor="start" x="359.5" y="-17" font-family="Helvetica,sans-Serif" font-size="10.00">AQNWB::NWB::TimeSeries</text>
<text xml:space="preserve" text-anchor="middle" x="421.38" y="-5.75" font-family="Helvetica,sans-Serif" font-size="10.00">::recordControl</text>
</a>
</g>
</g>
<!-- Node2&#45;&gt;Node9 -->
<g id="edge8_Node000002_Node000009" class="edge">
<title>Node2&#45;&gt;Node9</title>
<g id="a_edge8_Node000002_Node000009"><a xlink:title=" ">
<path fill="none" stroke="#63b8ff" d="M315.79,-29.7C323.71,-28.6 331.82,-27.48 339.87,-26.37"/>
<polygon fill="#63b8ff" stroke="#63b8ff" points="340.23,-29.85 349.66,-25.02 339.28,-22.92 340.23,-29.85"/>
</a>
</g>
</g>
<!-- Node4 -->
<g id="Node000004" class="node">
<title>Node4</title>
<g id="a_Node000004"><a xlink:href="class_a_q_n_w_b_1_1_n_w_b_1_1_time_series.html#a02d6ceb1f87f4a76906f00688708b8e9" target="_top" xlink:title=" ">
<polygon fill="white" stroke="#666666" points="667,-103.5 527.25,-103.5 527.25,-73 667,-73 667,-103.5"/>
<text xml:space="preserve" text-anchor="start" x="535.25" y="-90" font-family="Helvetica,sans-Serif" font-size="10.00">AQNWB::NWB::TimeSeries</text>
<text xml:space="preserve" text-anchor="middle" x="597.12" y="-78.75" font-family="Helvetica,sans-Serif" font-size="10.00">::readControlDescription</text>
</a>
</g>
</g>
<!-- Node3&#45;&gt;Node4 -->
<g id="edge3_Node000003_Node000004" class="edge">
<title>Node3&#45;&gt;Node4</title>
<g id="a_edge3_Node000003_Node000004"><a xlink:title=" ">
<path fill="none" stroke="#63b8ff" d="M491.54,-73.8C499.46,-74.9 507.57,-76.02 515.62,-77.13"/>
<polygon fill="#63b8ff" stroke="#63b8ff" points="515.03,-80.58 525.41,-78.48 515.98,-73.65 515.03,-80.58"/>
</a>
</g>
</g>
<!-- Node8 -->
<g id="Node000008" class="node">
<title>Node8</title>
<g id="a_Node000008"><a xlink:href="class_a_q_n_w_b_1_1_n_w_b_1_1_time_series.html#a7e7da4174344eee6e143a39fc45cc014" target="_top" xlink:title=" ">
<polygon fill="white" stroke="#666666" points="667,-54.5 527.25,-54.5 527.25,-24 667,-24 667,-54.5"/>
<text xml:space="preserve" text-anchor="start" x="535.25" y="-41" font-family="Helvetica,sans-Serif" font-size="10.00">AQNWB::NWB::TimeSeries</text>
<text xml:space="preserve" text-anchor="middle" x="597.12" y="-29.75" font-family="Helvetica,sans-Serif" font-size="10.00">::recordControlDescription</text>
</a>
</g>
</g>
<!-- Node3&#45;&gt;Node8 -->
<g id="edge7_Node000003_Node000008" class="edge">
<title>Node3&#45;&gt;Node8</title>
<g id="a_edge7_Node000003_Node000008"><a xlink:title=" ">
<path fill="none" stroke="#63b8ff" d="M491.54,-54.3C499.46,-53.16 507.57,-51.99 515.62,-50.83"/>
<polygon fill="#63b8ff" stroke="#63b8ff" points="516.01,-54.31 525.41,-49.42 515.01,-47.38 516.01,-54.31"/>
</a>
</g>
</g>
<!-- Node5 -->
<g id="Node000005" class="node">
<title>Node5</title>
<g id="a_Node000005"><a xlink:href="class_a_q_n_w_b_1_1_n_w_b_1_1_time_series.html#ad02a2c3803891f352dd2496b9ff1887b" target="_top" xlink:title="Convenience function for creating data related attributes.">
<polygon fill="white" stroke="#666666" points="845.38,-127.5 705.62,-127.5 705.62,-97 845.38,-97 845.38,-127.5"/>
<text xml:space="preserve" text-anchor="start" x="713.62" y="-114" font-family="Helvetica,sans-Serif" font-size="10.00">AQNWB::NWB::TimeSeries</text>
<text xml:space="preserve" text-anchor="middle" x="775.5" y="-102.75" font-family="Helvetica,sans-Serif" font-size="10.00">::createDataAttributes</text>
</a>
</g>
</g>
<!-- Node4&#45;&gt;Node5 -->
<g id="edge4_Node000004_Node000005" class="edge">
<title>Node4&#45;&gt;Node5</title>
<g id="a_edge4_Node000004_Node000005"><a xlink:title=" ">
<path fill="none" stroke="#63b8ff" d="M667.33,-97.67C676.08,-98.86 685.1,-100.08 694.01,-101.3"/>
<polygon fill="#63b8ff" stroke="#63b8ff" points="693.33,-104.74 703.71,-102.62 694.27,-97.8 693.33,-104.74"/>
</a>
</g>
</g>
<!-- Node7 -->
<g id="Node000007" class="node">
<title>Node7</title>
<g id="a_Node000007"><a xlink:href="class_a_q_n_w_b_1_1_n_w_b_1_1_time_series.html#a682200d497af6051d0ef9189509084dd" target="_top" xlink:title="Convenience function for creating timestamp related attributes.">
<polygon fill="white" stroke="#666666" points="848,-78.5 703,-78.5 703,-48 848,-48 848,-78.5"/>
<text xml:space="preserve" text-anchor="start" x="711" y="-65" font-family="Helvetica,sans-Serif" font-size="10.00">AQNWB::NWB::TimeSeries</text>
<text xml:space="preserve" text-anchor="middle" x="775.5" y="-53.75" font-family="Helvetica,sans-Serif" font-size="10.00">::createTimestampsAttributes</text>
</a>
</g>
</g>
<!-- Node4&#45;&gt;Node7 -->
<g id="edge6_Node000004_Node000007" class="edge">
<title>Node4&#45;&gt;Node7</title>
<g id="a_edge6_Node000004_Node000007"><a xlink:title=" ">
<path fill="none" stroke="#63b8ff" d="M667.33,-78.44C675.2,-77.33 683.28,-76.18 691.31,-75.04"/>
<polygon fill="#63b8ff" stroke="#63b8ff" points="691.69,-78.52 701.1,-73.65 690.7,-71.59 691.69,-78.52"/>
</a>
</g>
</g>
<!-- Node6 -->
<g id="Node000006" class="node">
<title>Node6</title>
<g id="a_Node000006"><a xlink:href="namespace_a_q_n_w_b.html#a31983dbaaa85c2e355b9687fc0ef1881" target="_top" xlink:title="Merge two paths into a single path, handling extra trailing and starting &quot;/&quot;.">
<polygon fill="white" stroke="#666666" points="996.75,-121.88 884,-121.88 884,-102.62 996.75,-102.62 996.75,-121.88"/>
<text xml:space="preserve" text-anchor="middle" x="940.38" y="-108.38" font-family="Helvetica,sans-Serif" font-size="10.00">AQNWB::mergePaths</text>
</a>
</g>
</g>
<!-- Node5&#45;&gt;Node6 -->
<g id="edge5_Node000005_Node000006" class="edge">
<title>Node5&#45;&gt;Node6</title>
<g id="a_edge5_Node000005_Node000006"><a xlink:title=" ">
<path fill="none" stroke="#63b8ff" d="M845.57,-112.25C854.38,-112.25 863.37,-112.25 872.15,-112.25"/>
<polygon fill="#63b8ff" stroke="#63b8ff" points="872,-115.75 882,-112.25 872,-108.75 872,-115.75"/>
</a>
</g>
</g>
</g>
</svg>

<g id="navigator" transform="translate(0 0)" fill="#404254">
  <rect fill="#f2f5e9" fill-opacity="0.5" stroke="#606060" stroke-width=".5" x="0" y="0" width="60" height="60"/>
  <use id="zoomplus" xlink:href="#zoomPlus" x="17" y="9" onmousedown="handleZoom(evt,'in')"/>
  <use id="zoomminus" xlink:href="#zoomMin" x="42" y="9" onmousedown="handleZoom(evt,'out')"/>
  <use id="reset" xlink:href="#resetDef" x="30" y="36" onmousedown="handleReset()"/>
   <use id="arrowup" xlink:href="#arrowUp" x="0" y="0" onmousedown="handlePan(0,-1)"/>
  <use id="arrowright" xlink:href="#arrowRight" x="0" y="0" onmousedown="handlePan(1,0)"/>
  <use id="arrowdown" xlink:href="#arrowDown" x="0" y="0" onmousedown="handlePan(0,1)"/>
  <use id="arrowleft" xlink:href="#arrowLeft" x="0" y="0" onmousedown="handlePan(-1,0)"/>
</g>
<svg viewBox="0 0 15 15" width="100%" height="30px" preserveAspectRatio="xMaxYMin meet">
 <g id="arrow_out" transform="scale(0.3 0.3)">
  <a xlink:href="class_a_q_n_w_b_1_1_n_w_b_1_1_time_series_a6bc9efa6381b6761d45493c1b2628e22_cgraph_org.svg" target="_base">
   <rect id="button" ry="5" rx="5" y="6" x="6" height="38" width="38"
        fill="#f2f5e9" fill-opacity="0.5" stroke="#606060" stroke-width="1.0"/>
   <path id="arrow"
     d="M 11.500037,31.436501 C 11.940474,20.09759 22.043105,11.32322 32.158766,21.979434 L 37.068811,17.246167 C 37.068811,17.246167 37.088388,32 37.088388,32 L 22.160133,31.978069 C 22.160133,31.978069 26.997745,27.140456 26.997745,27.140456 C 18.528582,18.264221 13.291696,25.230495 11.500037,31.436501 z"
     style="fill:#404040;"/>
  </a>
 </g>
</svg>

<style type='text/css'>
<![CDATA[
[data-mouse-over-selected='false'] { opacity: 0.7; }
[data-mouse-over-selected='true']  { opacity: 1.0; }
]]>
</style>
<script type="application/ecmascript"><![CDATA[
document.addEventListener('DOMContentLoaded', (event) => {
  highlightEdges();
  highlightAdjacentNodes();
});
]]></script>
</svg>
