<?xml version="1.0" encoding="UTF-8" standalone="no"?>
<!DOCTYPE svg PUBLIC "-//W3C//DTD SVG 1.1//EN"
 "http://www.w3.org/Graphics/SVG/1.1/DTD/svg11.dtd">
<!-- Generated by graphviz version 14.1.0 (20251206.1807)
 -->
<!-- Title: AQNWB::NWB::RegisteredType::create Pages: 1 -->
<svg width="556pt" height="57pt"
 viewBox="0.00 0.00 556.00 57.00" xmlns="http://www.w3.org/2000/svg" xmlns:xlink="http://www.w3.org/1999/xlink">
<g id="graph0" class="graph" transform="scale(1 1) rotate(0) translate(4 52.5)">
<title>AQNWB::NWB::RegisteredType::create</title>
<!-- Node1 -->
<g id="Node000001" class="node">
<title>Node1</title>
<g id="a_Node000001"><a xlink:title="Factory method to create an instance of a subclass of RegisteredType from file.">
<polygon fill="#999999" stroke="#666666" points="158.5,-30.5 0,-30.5 0,0 158.5,0 158.5,-30.5"/>
<text xml:space="preserve" text-anchor="start" x="8" y="-17" font-family="Helvetica,sans-Serif" font-size="10.00">AQNWB::NWB::RegisteredType</text>
<text xml:space="preserve" text-anchor="middle" x="79.25" y="-5.75" font-family="Helvetica,sans-Serif" font-size="10.00">::create</text>
</a>
</g>
</g>
<!-- Node2 -->
<g id="Node000002" class="node">
<title>Node2</title>
<g id="a_Node000002"><a xlink:href="class_a_q_n_w_b_1_1_n_w_b_1_1_registered_type.html#a6f7d3d6d30763215c823452176ed876a" target="_top" xlink:title="Create an instance of a registered subclass by name.">
<polygon fill="white" stroke="#666666" points="353,-30.5 194.5,-30.5 194.5,0 353,0 353,-30.5"/>
<text xml:space="preserve" text-anchor="start" x="202.5" y="-17" font-family="Helvetica,sans-Serif" font-size="10.00">AQNWB::NWB::RegisteredType</text>
<text xml:space="preserve" text-anchor="middle" x="273.75" y="-5.75" font-family="Helvetica,sans-Serif" font-size="10.00">::create</text>
</a>
</g>
</g>
<!-- Node1&#45;&gt;Node2 -->
<g id="edge1_Node000001_Node000002" class="edge">
<title>Node1&#45;&gt;Node2</title>
<g id="a_edge1_Node000001_Node000002"><a xlink:title=" ">
<path fill="none" stroke="#63b8ff" d="M158.82,-15.25C166.74,-15.25 174.82,-15.25 182.84,-15.25"/>
<polygon fill="#63b8ff" stroke="#63b8ff" points="182.6,-18.75 192.6,-15.25 182.6,-11.75 182.6,-18.75"/>
</a>
</g>
</g>
<!-- Node2&#45;&gt;Node2 -->
<g id="edge2_Node000002_Node000002" class="edge">
<title>Node2&#45;&gt;Node2</title>
<g id="a_edge2_Node000002_Node000002"><a xlink:title=" ">
<path fill="none" stroke="#63b8ff" d="M239.28,-30.99C232.25,-40.06 243.74,-48.5 273.75,-48.5 290.16,-48.5 301.03,-45.97 306.37,-42.2"/>
<polygon fill="#63b8ff" stroke="#63b8ff" points="309.8,-42.92 307.97,-32.48 302.89,-41.78 309.8,-42.92"/>
</a>
</g>
</g>
<!-- Node3 -->
<g id="Node000003" class="node">
<title>Node3</title>
<g id="a_Node000003"><a xlink:href="class_a_q_n_w_b_1_1_n_w_b_1_1_registered_type.html#ac83aa589b9c3ab5a00bab462e58fdbd5" target="_top" xlink:title="Get the factory map for creating instances of subclasses.">
<polygon fill="white" stroke="#666666" points="547.5,-30.5 389,-30.5 389,0 547.5,0 547.5,-30.5"/>
<text xml:space="preserve" text-anchor="start" x="397" y="-17" font-family="Helvetica,sans-Serif" font-size="10.00">AQNWB::NWB::RegisteredType</text>
<text xml:space="preserve" text-anchor="middle" x="468.25" y="-5.75" font-family="Helvetica,sans-Serif" font-size="10.00">::getFactoryMap</text>
</a>
</g>
</g>
<!-- Node2&#45;&gt;Node3 -->
<g id="edge3_Node000002_Node000003" class="edge">
<title>Node2&#45;&gt;Node3</title>
<g id="a_edge3_Node000002_Node000003"><a xlink:title=" ">
<path fill="none" stroke="#63b8ff" d="M353.32,-15.25C361.24,-15.25 369.32,-15.25 377.34,-15.25"/>
<polygon fill="#63b8ff" stroke="#63b8ff" points="377.1,-18.75 387.1,-15.25 377.1,-11.75 377.1,-18.75"/>
</a>
</g>
</g>
</g>
</svg>
