<?xml version="1.0" encoding="UTF-8" standalone="no"?>
<!DOCTYPE svg PUBLIC "-//W3C//DTD SVG 1.1//EN"
 "http://www.w3.org/Graphics/SVG/1.1/DTD/svg11.dtd">
<!-- Generated by graphviz version 14.1.2 (20260124.0452)
 -->
<!-- Title: AQNWB::NWB::ProcessingModule::ProcessingModule Pages: 1 -->
<svg width="385pt" height="57pt"
 viewBox="0.00 0.00 385.00 57.00" xmlns="http://www.w3.org/2000/svg" xmlns:xlink="http://www.w3.org/1999/xlink">
<g id="graph0" class="graph" transform="scale(1 1) rotate(0) translate(4 52.5)">
<title>AQNWB::NWB::ProcessingModule::ProcessingModule</title>
<!-- Node1 -->
<g id="Node000001" class="node">
<title>Node1</title>
<g id="a_Node000001"><a xlink:title="Constructor.">
<polygon fill="#999999" stroke="#666666" points="377,-30.5 206.5,-30.5 206.5,0 377,0 377,-30.5"/>
<text xml:space="preserve" text-anchor="start" x="214.5" y="-17" font-family="Helvetica,sans-Serif" font-size="10.00">AQNWB::NWB::ProcessingModule</text>
<text xml:space="preserve" text-anchor="middle" x="291.75" y="-5.75" font-family="Helvetica,sans-Serif" font-size="10.00">::ProcessingModule</text>
</a>
</g>
</g>
<!-- Node1&#45;&gt;Node1 -->
<g id="edge1_Node000001_Node000001" class="edge">
<title>Node1&#45;&gt;Node1</title>
<g id="a_edge1_Node000001_Node000001"><a xlink:title=" ">
<path fill="none" stroke="#63b8ff" d="M326.38,-42.2C320.72,-45.97 309.17,-48.5 291.75,-48.5 259.89,-48.5 247.69,-40.06 255.16,-30.99"/>
<polygon fill="#63b8ff" stroke="#63b8ff" points="329.81,-42.93 328.08,-32.48 322.91,-41.72 329.81,-42.93"/>
</a>
</g>
</g>
<!-- Node2 -->
<g id="Node000002" class="node">
<title>Node2</title>
<g id="a_Node000002"><a xlink:href="class_a_q_n_w_b_1_1_n_w_b_1_1_processing_module.html#a9507cf4785babc73b1608295330676b8" target="_top" xlink:title="Virtual destructor.">
<polygon fill="white" stroke="#666666" points="170.5,-30.5 0,-30.5 0,0 170.5,0 170.5,-30.5"/>
<text xml:space="preserve" text-anchor="start" x="8" y="-17" font-family="Helvetica,sans-Serif" font-size="10.00">AQNWB::NWB::ProcessingModule</text>
<text xml:space="preserve" text-anchor="middle" x="85.25" y="-5.75" font-family="Helvetica,sans-Serif" font-size="10.00">::~ProcessingModule</text>
</a>
</g>
</g>
<!-- Node1&#45;&gt;Node2 -->
<g id="edge2_Node000001_Node000002" class="edge">
<title>Node1&#45;&gt;Node2</title>
<g id="a_edge2_Node000001_Node000002"><a xlink:title=" ">
<path fill="none" stroke="#63b8ff" d="M194.83,-15.25C186.82,-15.25 178.76,-15.25 170.84,-15.25"/>
<polygon fill="#63b8ff" stroke="#63b8ff" points="194.58,-18.75 204.58,-15.25 194.58,-11.75 194.58,-18.75"/>
</a>
</g>
</g>
</g>
</svg>
