<?xml version="1.0" encoding="UTF-8" standalone="no"?>
<!DOCTYPE svg PUBLIC "-//W3C//DTD SVG 1.1//EN"
 "http://www.w3.org/Graphics/SVG/1.1/DTD/svg11.dtd">
<!-- Generated by graphviz version 14.1.2 (20260124.0452)
 -->
<!-- Title: AQNWB::NWB::NWBFile::operator= Pages: 1 -->
<svg width="2312pt" height="272pt"
 viewBox="0.00 0.00 2312.00 272.00" xmlns="http://www.w3.org/2000/svg" xmlns:xlink="http://www.w3.org/1999/xlink">
<g id="graph0" class="graph" transform="scale(1 1) rotate(0) translate(4 267.5)">
<title>AQNWB::NWB::NWBFile::operator=</title>
<!-- Node1 -->
<g id="Node000001" class="node">
<title>Node1</title>
<g id="a_Node000001"><a xlink:title="Deleted copy assignment operator to prevent copying.">
<polygon fill="#999999" stroke="#666666" points="130,-113.5 0,-113.5 0,-83 130,-83 130,-113.5"/>
<text xml:space="preserve" text-anchor="start" x="8" y="-100" font-family="Helvetica,sans-Serif" font-size="10.00">AQNWB::NWB::NWBFile</text>
<text xml:space="preserve" text-anchor="middle" x="65" y="-88.75" font-family="Helvetica,sans-Serif" font-size="10.00">::operator=</text>
</a>
</g>
</g>
<!-- Node2 -->
<g id="Node000002" class="node">
<title>Node2</title>
<g id="a_Node000002"><a xlink:href="class_a_q_n_w_b_1_1_n_w_b_1_1_n_w_b_file.html#a277f89c64204a61491bb26ad309186f3" target="_top" xlink:title="Constructor for NWBFile class.">
<polygon fill="white" stroke="#666666" points="296,-138.5 166,-138.5 166,-108 296,-108 296,-138.5"/>
<text xml:space="preserve" text-anchor="start" x="174" y="-125" font-family="Helvetica,sans-Serif" font-size="10.00">AQNWB::NWB::NWBFile</text>
<text xml:space="preserve" text-anchor="middle" x="231" y="-113.75" font-family="Helvetica,sans-Serif" font-size="10.00">::NWBFile</text>
</a>
</g>
</g>
<!-- Node1&#45;&gt;Node2 -->
<g id="edge1_Node000001_Node000002" class="edge">
<title>Node1&#45;&gt;Node2</title>
<g id="a_edge1_Node000001_Node000002"><a xlink:title=" ">
<path fill="none" stroke="#63b8ff" d="M130.35,-108.06C138.21,-109.26 146.31,-110.49 154.33,-111.71"/>
<polygon fill="#63b8ff" stroke="#63b8ff" points="153.66,-115.15 164.07,-113.2 154.72,-108.23 153.66,-115.15"/>
</a>
</g>
</g>
<!-- Node6 -->
<g id="Node000006" class="node">
<title>Node6</title>
<g id="a_Node000006"><a xlink:href="class_a_q_n_w_b_1_1_n_w_b_1_1_n_w_b_file.html#a65a36f2baf0b3bb7555b573295f97bf0" target="_top" xlink:title=" ">
<polygon fill="white" stroke="#666666" points="296,-89.5 166,-89.5 166,-59 296,-59 296,-89.5"/>
<text xml:space="preserve" text-anchor="start" x="174" y="-76" font-family="Helvetica,sans-Serif" font-size="10.00">AQNWB::NWB::NWBFile</text>
<text xml:space="preserve" text-anchor="middle" x="231" y="-64.75" font-family="Helvetica,sans-Serif" font-size="10.00">::readElectrodesTable</text>
</a>
</g>
</g>
<!-- Node1&#45;&gt;Node6 -->
<g id="edge8_Node000001_Node000006" class="edge">
<title>Node1&#45;&gt;Node6</title>
<g id="a_edge8_Node000001_Node000006"><a xlink:title=" ">
<path fill="none" stroke="#63b8ff" d="M130.35,-88.83C138.21,-87.68 146.31,-86.5 154.33,-85.32"/>
<polygon fill="#63b8ff" stroke="#63b8ff" points="154.68,-88.81 164.07,-83.9 153.67,-81.88 154.68,-88.81"/>
</a>
</g>
</g>
<!-- Node2&#45;&gt;Node2 -->
<g id="edge7_Node000002_Node000002" class="edge">
<title>Node2&#45;&gt;Node2</title>
<g id="a_edge7_Node000002_Node000002"><a xlink:title=" ">
<path fill="none" stroke="#63b8ff" d="M201.58,-138.99C195.58,-148.06 205.39,-156.5 231,-156.5 245.01,-156.5 254.29,-153.97 258.84,-150.2"/>
<polygon fill="#63b8ff" stroke="#63b8ff" points="262.28,-150.87 260.2,-140.48 255.35,-149.9 262.28,-150.87"/>
</a>
</g>
</g>
<!-- Node3 -->
<g id="Node000003" class="node">
<title>Node3</title>
<g id="a_Node000003"><a xlink:href="class_a_q_n_w_b_1_1_n_w_b_1_1_n_w_b_container.html#aadbde40c8c04d80d7b65a26e77f4cc20" target="_top" xlink:title="Constructor.">
<polygon fill="white" stroke="#666666" points="488.25,-138.5 332,-138.5 332,-108 488.25,-108 488.25,-138.5"/>
<text xml:space="preserve" text-anchor="start" x="340" y="-125" font-family="Helvetica,sans-Serif" font-size="10.00">AQNWB::NWB::NWBContainer</text>
<text xml:space="preserve" text-anchor="middle" x="410.12" y="-113.75" font-family="Helvetica,sans-Serif" font-size="10.00">::NWBContainer</text>
</a>
</g>
</g>
<!-- Node2&#45;&gt;Node3 -->
<g id="edge2_Node000002_Node000003" class="edge">
<title>Node2&#45;&gt;Node3</title>
<g id="a_edge2_Node000002_Node000003"><a xlink:title=" ">
<path fill="none" stroke="#63b8ff" d="M296.45,-123.25C304.25,-123.25 312.31,-123.25 320.39,-123.25"/>
<polygon fill="#63b8ff" stroke="#63b8ff" points="320.26,-126.75 330.26,-123.25 320.26,-119.75 320.26,-126.75"/>
</a>
</g>
</g>
<!-- Node3&#45;&gt;Node3 -->
<g id="edge6_Node000003_Node000003" class="edge">
<title>Node3&#45;&gt;Node3</title>
<g id="a_edge6_Node000003_Node000003"><a xlink:title=" ">
<path fill="none" stroke="#63b8ff" d="M378.38,-138.99C371.91,-148.06 382.49,-156.5 410.12,-156.5 425.24,-156.5 435.25,-153.97 440.16,-150.2"/>
<polygon fill="#63b8ff" stroke="#63b8ff" points="443.6,-150.89 441.64,-140.48 436.68,-149.84 443.6,-150.89"/>
</a>
</g>
</g>
<!-- Node4 -->
<g id="Node000004" class="node">
<title>Node4</title>
<g id="a_Node000004"><a xlink:href="class_a_q_n_w_b_1_1_n_w_b_1_1_container.html#a0ec16ae5d28267ea37464ffe2c2c34e5" target="_top" xlink:title="Constructor.">
<polygon fill="white" stroke="#666666" points="656.5,-138.5 524.25,-138.5 524.25,-108 656.5,-108 656.5,-138.5"/>
<text xml:space="preserve" text-anchor="start" x="532.25" y="-125" font-family="Helvetica,sans-Serif" font-size="10.00">AQNWB::NWB::Container</text>
<text xml:space="preserve" text-anchor="middle" x="590.38" y="-113.75" font-family="Helvetica,sans-Serif" font-size="10.00">::Container</text>
</a>
</g>
</g>
<!-- Node3&#45;&gt;Node4 -->
<g id="edge3_Node000003_Node000004" class="edge">
<title>Node3&#45;&gt;Node4</title>
<g id="a_edge3_Node000003_Node000004"><a xlink:title=" ">
<path fill="none" stroke="#63b8ff" d="M488.53,-123.25C496.42,-123.25 504.44,-123.25 512.32,-123.25"/>
<polygon fill="#63b8ff" stroke="#63b8ff" points="512.24,-126.75 522.24,-123.25 512.24,-119.75 512.24,-126.75"/>
</a>
</g>
</g>
<!-- Node4&#45;&gt;Node4 -->
<g id="edge4_Node000004_Node000004" class="edge">
<title>Node4&#45;&gt;Node4</title>
<g id="a_edge4_Node000004_Node000004"><a xlink:title=" ">
<path fill="none" stroke="#63b8ff" d="M558.43,-138.99C551.92,-148.06 562.56,-156.5 590.38,-156.5 605.58,-156.5 615.66,-153.97 620.6,-150.2"/>
<polygon fill="#63b8ff" stroke="#63b8ff" points="624.04,-150.9 622.09,-140.48 617.12,-149.84 624.04,-150.9"/>
</a>
</g>
</g>
<!-- Node5 -->
<g id="Node000005" class="node">
<title>Node5</title>
<g id="a_Node000005"><a xlink:href="class_a_q_n_w_b_1_1_n_w_b_1_1_registered_type.html#aa1e04074725b7331d725bbda8156bc2d" target="_top" xlink:title="Constructor.">
<polygon fill="white" stroke="#666666" points="851,-138.5 692.5,-138.5 692.5,-108 851,-108 851,-138.5"/>
<text xml:space="preserve" text-anchor="start" x="700.5" y="-125" font-family="Helvetica,sans-Serif" font-size="10.00">AQNWB::NWB::RegisteredType</text>
<text xml:space="preserve" text-anchor="middle" x="771.75" y="-113.75" font-family="Helvetica,sans-Serif" font-size="10.00">::RegisteredType</text>
</a>
</g>
</g>
<!-- Node4&#45;&gt;Node5 -->
<g id="edge5_Node000004_Node000005" class="edge">
<title>Node4&#45;&gt;Node5</title>
<g id="a_edge5_Node000004_Node000005"><a xlink:title=" ">
<path fill="none" stroke="#63b8ff" d="M656.89,-123.25C664.72,-123.25 672.81,-123.25 680.89,-123.25"/>
<polygon fill="#63b8ff" stroke="#63b8ff" points="680.79,-126.75 690.79,-123.25 680.79,-119.75 680.79,-126.75"/>
</a>
</g>
</g>
<!-- Node7 -->
<g id="Node000007" class="node">
<title>Node7</title>
<g id="a_Node000007"><a xlink:href="class_a_q_n_w_b_1_1_n_w_b_1_1_n_w_b_file.html#ac63d558546622aae6157a8ecd82cf446" target="_top" xlink:title=" ">
<polygon fill="white" stroke="#666666" points="475.12,-89.5 345.12,-89.5 345.12,-59 475.12,-59 475.12,-89.5"/>
<text xml:space="preserve" text-anchor="start" x="353.12" y="-76" font-family="Helvetica,sans-Serif" font-size="10.00">AQNWB::NWB::NWBFile</text>
<text xml:space="preserve" text-anchor="middle" x="410.12" y="-64.75" font-family="Helvetica,sans-Serif" font-size="10.00">::readNWBVersion</text>
</a>
</g>
</g>
<!-- Node6&#45;&gt;Node7 -->
<g id="edge9_Node000006_Node000007" class="edge">
<title>Node6&#45;&gt;Node7</title>
<g id="a_edge9_Node000006_Node000007"><a xlink:title=" ">
<path fill="none" stroke="#63b8ff" d="M296.45,-74.25C308.49,-74.25 321.17,-74.25 333.52,-74.25"/>
<polygon fill="#63b8ff" stroke="#63b8ff" points="333.21,-77.75 343.21,-74.25 333.21,-70.75 333.21,-77.75"/>
</a>
</g>
</g>
<!-- Node8 -->
<g id="Node000008" class="node">
<title>Node8</title>
<g id="a_Node000008"><a xlink:href="class_a_q_n_w_b_1_1_n_w_b_1_1_n_w_b_file.html#ad0a87b247b8b3ff2fe16a19eaad0767a" target="_top" xlink:title=" ">
<polygon fill="white" stroke="#666666" points="655.38,-89.5 525.38,-89.5 525.38,-59 655.38,-59 655.38,-89.5"/>
<text xml:space="preserve" text-anchor="start" x="533.38" y="-76" font-family="Helvetica,sans-Serif" font-size="10.00">AQNWB::NWB::NWBFile</text>
<text xml:space="preserve" text-anchor="middle" x="590.38" y="-64.75" font-family="Helvetica,sans-Serif" font-size="10.00">::readFileCreateDate</text>
</a>
</g>
</g>
<!-- Node7&#45;&gt;Node8 -->
<g id="edge10_Node000007_Node000008" class="edge">
<title>Node7&#45;&gt;Node8</title>
<g id="a_edge10_Node000007_Node000008"><a xlink:title=" ">
<path fill="none" stroke="#63b8ff" d="M475.48,-74.25C487.97,-74.25 501.17,-74.25 513.99,-74.25"/>
<polygon fill="#63b8ff" stroke="#63b8ff" points="513.6,-77.75 523.6,-74.25 513.6,-70.75 513.6,-77.75"/>
</a>
</g>
</g>
<!-- Node29 -->
<g id="Node000029" class="node">
<title>Node29</title>
<g id="a_Node000029"><a xlink:href="class_a_q_n_w_b_1_1_n_w_b_1_1_n_w_b_file.html#a1c79147de0b57b4bcef21a3972ad17b4" target="_top" xlink:title=" ">
<polygon fill="white" stroke="#666666" points="655.38,-40.5 525.38,-40.5 525.38,-10 655.38,-10 655.38,-40.5"/>
<text xml:space="preserve" text-anchor="start" x="533.38" y="-27" font-family="Helvetica,sans-Serif" font-size="10.00">AQNWB::NWB::NWBFile</text>
<text xml:space="preserve" text-anchor="middle" x="590.38" y="-15.75" font-family="Helvetica,sans-Serif" font-size="10.00">::recordFileCreateDate</text>
</a>
</g>
</g>
<!-- Node7&#45;&gt;Node29 -->
<g id="edge33_Node000007_Node000029" class="edge">
<title>Node7&#45;&gt;Node29</title>
<g id="a_edge33_Node000007_Node000029"><a xlink:title=" ">
<path fill="none" stroke="#63b8ff" d="M468.01,-58.61C484.97,-53.95 503.73,-48.79 521.33,-43.96"/>
<polygon fill="#63b8ff" stroke="#63b8ff" points="521.93,-47.42 530.65,-41.39 520.08,-40.67 521.93,-47.42"/>
</a>
</g>
</g>
<!-- Node9 -->
<g id="Node000009" class="node">
<title>Node9</title>
<g id="a_Node000009"><a xlink:href="class_a_q_n_w_b_1_1_n_w_b_1_1_n_w_b_file.html#aa928ef570b33a28a2ba83b8edff18d79" target="_top" xlink:title=" ">
<polygon fill="white" stroke="#666666" points="836.75,-89.5 706.75,-89.5 706.75,-59 836.75,-59 836.75,-89.5"/>
<text xml:space="preserve" text-anchor="start" x="714.75" y="-76" font-family="Helvetica,sans-Serif" font-size="10.00">AQNWB::NWB::NWBFile</text>
<text xml:space="preserve" text-anchor="middle" x="771.75" y="-64.75" font-family="Helvetica,sans-Serif" font-size="10.00">::readIdentifier</text>
</a>
</g>
</g>
<!-- Node8&#45;&gt;Node9 -->
<g id="edge11_Node000008_Node000009" class="edge">
<title>Node8&#45;&gt;Node9</title>
<g id="a_edge11_Node000008_Node000009"><a xlink:title=" ">
<path fill="none" stroke="#63b8ff" d="M655.63,-74.25C668.38,-74.25 681.88,-74.25 694.97,-74.25"/>
<polygon fill="#63b8ff" stroke="#63b8ff" points="694.83,-77.75 704.83,-74.25 694.83,-70.75 694.83,-77.75"/>
</a>
</g>
</g>
<!-- Node28 -->
<g id="Node000028" class="node">
<title>Node28</title>
<g id="a_Node000028"><a xlink:href="class_a_q_n_w_b_1_1_n_w_b_1_1_n_w_b_file.html#a46e3752c784f7c70b8273db48c30ee87" target="_top" xlink:title=" ">
<polygon fill="white" stroke="#666666" points="836.75,-40.5 706.75,-40.5 706.75,-10 836.75,-10 836.75,-40.5"/>
<text xml:space="preserve" text-anchor="start" x="714.75" y="-27" font-family="Helvetica,sans-Serif" font-size="10.00">AQNWB::NWB::NWBFile</text>
<text xml:space="preserve" text-anchor="middle" x="771.75" y="-15.75" font-family="Helvetica,sans-Serif" font-size="10.00">::recordIdentifier</text>
</a>
</g>
</g>
<!-- Node8&#45;&gt;Node28 -->
<g id="edge32_Node000008_Node000028" class="edge">
<title>Node8&#45;&gt;Node28</title>
<g id="a_edge32_Node000008_Node000028"><a xlink:title=" ">
<path fill="none" stroke="#63b8ff" d="M648.62,-58.61C665.61,-53.97 684.39,-48.84 702.02,-44.02"/>
<polygon fill="#63b8ff" stroke="#63b8ff" points="702.94,-47.4 711.66,-41.39 701.09,-40.65 702.94,-47.4"/>
</a>
</g>
</g>
<!-- Node10 -->
<g id="Node000010" class="node">
<title>Node10</title>
<g id="a_Node000010"><a xlink:href="class_a_q_n_w_b_1_1_n_w_b_1_1_n_w_b_file.html#a3cebcab2c5ed464414d3c566e08a5b7f" target="_top" xlink:title=" ">
<polygon fill="white" stroke="#666666" points="1018.88,-113.5 888.88,-113.5 888.88,-83 1018.88,-83 1018.88,-113.5"/>
<text xml:space="preserve" text-anchor="start" x="896.88" y="-100" font-family="Helvetica,sans-Serif" font-size="10.00">AQNWB::NWB::NWBFile</text>
<text xml:space="preserve" text-anchor="middle" x="953.88" y="-88.75" font-family="Helvetica,sans-Serif" font-size="10.00">::readSessionDescription</text>
</a>
</g>
</g>
<!-- Node9&#45;&gt;Node10 -->
<g id="edge12_Node000009_Node000010" class="edge">
<title>Node9&#45;&gt;Node10</title>
<g id="a_edge12_Node000009_Node000010"><a xlink:title=" ">
<path fill="none" stroke="#63b8ff" d="M837.02,-82.81C850.12,-84.56 864.02,-86.41 877.47,-88.2"/>
<polygon fill="#63b8ff" stroke="#63b8ff" points="876.76,-91.64 887.13,-89.49 877.68,-84.7 876.76,-91.64"/>
</a>
</g>
</g>
<!-- Node27 -->
<g id="Node000027" class="node">
<title>Node27</title>
<g id="a_Node000027"><a xlink:href="class_a_q_n_w_b_1_1_n_w_b_1_1_n_w_b_file.html#afd4eeee1907693a825844471fc9856d1" target="_top" xlink:title=" ">
<polygon fill="white" stroke="#666666" points="1020.75,-64.5 887,-64.5 887,-34 1020.75,-34 1020.75,-64.5"/>
<text xml:space="preserve" text-anchor="start" x="895" y="-51" font-family="Helvetica,sans-Serif" font-size="10.00">AQNWB::NWB::NWBFile</text>
<text xml:space="preserve" text-anchor="middle" x="953.88" y="-39.75" font-family="Helvetica,sans-Serif" font-size="10.00">::recordSessionDescription</text>
</a>
</g>
</g>
<!-- Node9&#45;&gt;Node27 -->
<g id="edge31_Node000009_Node000027" class="edge">
<title>Node9&#45;&gt;Node27</title>
<g id="a_edge31_Node000009_Node000027"><a xlink:title=" ">
<path fill="none" stroke="#63b8ff" d="M837.02,-65.33C849.44,-63.61 862.58,-61.78 875.38,-60.01"/>
<polygon fill="#63b8ff" stroke="#63b8ff" points="875.58,-63.51 885.01,-58.67 874.62,-56.58 875.58,-63.51"/>
</a>
</g>
</g>
<!-- Node11 -->
<g id="Node000011" class="node">
<title>Node11</title>
<g id="a_Node000011"><a xlink:href="class_a_q_n_w_b_1_1_n_w_b_1_1_n_w_b_file.html#af515ce14c705e833c1ad96837cbe92d8" target="_top" xlink:title=" ">
<polygon fill="white" stroke="#666666" points="1186.75,-137.5 1056.75,-137.5 1056.75,-107 1186.75,-107 1186.75,-137.5"/>
<text xml:space="preserve" text-anchor="start" x="1064.75" y="-124" font-family="Helvetica,sans-Serif" font-size="10.00">AQNWB::NWB::NWBFile</text>
<text xml:space="preserve" text-anchor="middle" x="1121.75" y="-112.75" font-family="Helvetica,sans-Serif" font-size="10.00">::readSessionStartTime</text>
</a>
</g>
</g>
<!-- Node10&#45;&gt;Node11 -->
<g id="edge13_Node000010_Node000011" class="edge">
<title>Node10&#45;&gt;Node11</title>
<g id="a_edge13_Node000010_Node000011"><a xlink:title=" ">
<path fill="none" stroke="#63b8ff" d="M1019.01,-107.53C1027.56,-108.77 1036.4,-110.05 1045.13,-111.31"/>
<polygon fill="#63b8ff" stroke="#63b8ff" points="1044.62,-114.77 1055.02,-112.74 1045.62,-107.84 1044.62,-114.77"/>
</a>
</g>
</g>
<!-- Node26 -->
<g id="Node000026" class="node">
<title>Node26</title>
<g id="a_Node000026"><a xlink:href="class_a_q_n_w_b_1_1_n_w_b_1_1_n_w_b_file.html#a7cc3c4393f4ac760033be12538af05cd" target="_top" xlink:title=" ">
<polygon fill="white" stroke="#666666" points="1186.75,-88.5 1056.75,-88.5 1056.75,-58 1186.75,-58 1186.75,-88.5"/>
<text xml:space="preserve" text-anchor="start" x="1064.75" y="-75" font-family="Helvetica,sans-Serif" font-size="10.00">AQNWB::NWB::NWBFile</text>
<text xml:space="preserve" text-anchor="middle" x="1121.75" y="-63.75" font-family="Helvetica,sans-Serif" font-size="10.00">::recordSessionStartTime</text>
</a>
</g>
</g>
<!-- Node10&#45;&gt;Node26 -->
<g id="edge30_Node000010_Node000026" class="edge">
<title>Node10&#45;&gt;Node26</title>
<g id="a_edge30_Node000010_Node000026"><a xlink:title=" ">
<path fill="none" stroke="#63b8ff" d="M1019.01,-88.58C1027.56,-87.29 1036.4,-85.96 1045.13,-84.65"/>
<polygon fill="#63b8ff" stroke="#63b8ff" points="1045.65,-88.11 1055.02,-83.16 1044.61,-81.19 1045.65,-88.11"/>
</a>
</g>
</g>
<!-- Node12 -->
<g id="Node000012" class="node">
<title>Node12</title>
<g id="a_Node000012"><a xlink:href="class_a_q_n_w_b_1_1_n_w_b_1_1_n_w_b_file.html#a2a132886b5369537f717fdcc80bc9b49" target="_top" xlink:title=" ">
<polygon fill="white" stroke="#666666" points="1388.38,-161.5 1226.88,-161.5 1226.88,-131 1388.38,-131 1388.38,-161.5"/>
<text xml:space="preserve" text-anchor="start" x="1234.88" y="-148" font-family="Helvetica,sans-Serif" font-size="10.00">AQNWB::NWB::NWBFile</text>
<text xml:space="preserve" text-anchor="middle" x="1307.62" y="-136.75" font-family="Helvetica,sans-Serif" font-size="10.00">::readTimestampsReferenceTime</text>
</a>
</g>
</g>
<!-- Node11&#45;&gt;Node12 -->
<g id="edge14_Node000011_Node000012" class="edge">
<title>Node11&#45;&gt;Node12</title>
<g id="a_edge14_Node000011_Node000012"><a xlink:title=" ">
<path fill="none" stroke="#63b8ff" d="M1187.06,-130.64C1196.22,-131.84 1205.77,-133.09 1215.32,-134.33"/>
<polygon fill="#63b8ff" stroke="#63b8ff" points="1214.64,-137.77 1225,-135.6 1215.54,-130.83 1214.64,-137.77"/>
</a>
</g>
</g>
<!-- Node25 -->
<g id="Node000025" class="node">
<title>Node25</title>
<g id="a_Node000025"><a xlink:href="class_a_q_n_w_b_1_1_n_w_b_1_1_n_w_b_file.html#a0eda3212e6af58625670efc0c6ae81a3" target="_top" xlink:title=" ">
<polygon fill="white" stroke="#666666" points="1392.5,-112.5 1222.75,-112.5 1222.75,-82 1392.5,-82 1392.5,-112.5"/>
<text xml:space="preserve" text-anchor="start" x="1230.75" y="-99" font-family="Helvetica,sans-Serif" font-size="10.00">AQNWB::NWB::NWBFile</text>
<text xml:space="preserve" text-anchor="middle" x="1307.62" y="-87.75" font-family="Helvetica,sans-Serif" font-size="10.00">::recordTimestampsReferenceTime</text>
</a>
</g>
</g>
<!-- Node11&#45;&gt;Node25 -->
<g id="edge29_Node000011_Node000025" class="edge">
<title>Node11&#45;&gt;Node25</title>
<g id="a_edge29_Node000011_Node000025"><a xlink:title=" ">
<path fill="none" stroke="#63b8ff" d="M1187.06,-113.51C1194.89,-112.44 1203.02,-111.34 1211.18,-110.23"/>
<polygon fill="#63b8ff" stroke="#63b8ff" points="1211.38,-113.73 1220.81,-108.92 1210.43,-106.8 1211.38,-113.73"/>
</a>
</g>
</g>
<!-- Node13 -->
<g id="Node000013" class="node">
<title>Node13</title>
<g id="a_Node000013"><a xlink:href="class_a_q_n_w_b_1_1_n_w_b_1_1_n_w_b_file.html#a116bb371a6ef2fec0a442530ce4c5344" target="_top" xlink:title=" ">
<polygon fill="white" stroke="#666666" points="1558.5,-185.5 1428.5,-185.5 1428.5,-155 1558.5,-155 1558.5,-185.5"/>
<text xml:space="preserve" text-anchor="start" x="1436.5" y="-172" font-family="Helvetica,sans-Serif" font-size="10.00">AQNWB::NWB::NWBFile</text>
<text xml:space="preserve" text-anchor="middle" x="1493.5" y="-160.75" font-family="Helvetica,sans-Serif" font-size="10.00">::createAquisitionSeries</text>
</a>
</g>
</g>
<!-- Node12&#45;&gt;Node13 -->
<g id="edge15_Node000012_Node000013" class="edge">
<title>Node12&#45;&gt;Node13</title>
<g id="a_edge15_Node000012_Node000013"><a xlink:title=" ">
<path fill="none" stroke="#63b8ff" d="M1388.74,-156.71C1398.1,-157.93 1407.62,-159.17 1416.91,-160.38"/>
<polygon fill="#63b8ff" stroke="#63b8ff" points="1416.24,-163.83 1426.61,-161.65 1417.15,-156.88 1416.24,-163.83"/>
</a>
</g>
</g>
<!-- Node24 -->
<g id="Node000024" class="node">
<title>Node24</title>
<g id="a_Node000024"><a xlink:href="class_a_q_n_w_b_1_1_n_w_b_1_1_n_w_b_file.html#a4c5e30290b87e858aea55a327e835e77" target="_top" xlink:title=" ">
<polygon fill="white" stroke="#666666" points="1558.5,-136.5 1428.5,-136.5 1428.5,-106 1558.5,-106 1558.5,-136.5"/>
<text xml:space="preserve" text-anchor="start" x="1436.5" y="-123" font-family="Helvetica,sans-Serif" font-size="10.00">AQNWB::NWB::NWBFile</text>
<text xml:space="preserve" text-anchor="middle" x="1493.5" y="-111.75" font-family="Helvetica,sans-Serif" font-size="10.00">::readAquisitionSeries</text>
</a>
</g>
</g>
<!-- Node12&#45;&gt;Node24 -->
<g id="edge28_Node000012_Node000024" class="edge">
<title>Node12&#45;&gt;Node24</title>
<g id="a_edge28_Node000012_Node000024"><a xlink:title=" ">
<path fill="none" stroke="#63b8ff" d="M1388.74,-135.36C1398.1,-134.09 1407.62,-132.79 1416.91,-131.53"/>
<polygon fill="#63b8ff" stroke="#63b8ff" points="1417.17,-135.02 1426.61,-130.21 1416.23,-128.09 1417.17,-135.02"/>
</a>
</g>
</g>
<!-- Node14 -->
<g id="Node000014" class="node">
<title>Node14</title>
<g id="a_Node000014"><a xlink:href="class_a_q_n_w_b_1_1_n_w_b_1_1_n_w_b_file.html#a1609e4048024fdbf5776df794cba91de" target="_top" xlink:title=" ">
<polygon fill="white" stroke="#666666" points="1724.5,-209.5 1594.5,-209.5 1594.5,-179 1724.5,-179 1724.5,-209.5"/>
<text xml:space="preserve" text-anchor="start" x="1602.5" y="-196" font-family="Helvetica,sans-Serif" font-size="10.00">AQNWB::NWB::NWBFile</text>
<text xml:space="preserve" text-anchor="middle" x="1659.5" y="-184.75" font-family="Helvetica,sans-Serif" font-size="10.00">::createProcessingModule</text>
</a>
</g>
</g>
<!-- Node13&#45;&gt;Node14 -->
<g id="edge16_Node000013_Node000014" class="edge">
<title>Node13&#45;&gt;Node14</title>
<g id="a_edge16_Node000013_Node000014"><a xlink:title=" ">
<path fill="none" stroke="#63b8ff" d="M1558.85,-179.67C1566.71,-180.82 1574.81,-182 1582.83,-183.18"/>
<polygon fill="#63b8ff" stroke="#63b8ff" points="1582.17,-186.62 1592.57,-184.6 1583.18,-179.69 1582.17,-186.62"/>
</a>
</g>
</g>
<!-- Node23 -->
<g id="Node000023" class="node">
<title>Node23</title>
<g id="a_Node000023"><a xlink:href="class_a_q_n_w_b_1_1_n_w_b_1_1_n_w_b_file.html#a8389d66680e64980ab23337029e75753" target="_top" xlink:title=" ">
<polygon fill="white" stroke="#666666" points="1724.5,-160.5 1594.5,-160.5 1594.5,-130 1724.5,-130 1724.5,-160.5"/>
<text xml:space="preserve" text-anchor="start" x="1602.5" y="-147" font-family="Helvetica,sans-Serif" font-size="10.00">AQNWB::NWB::NWBFile</text>
<text xml:space="preserve" text-anchor="middle" x="1659.5" y="-135.75" font-family="Helvetica,sans-Serif" font-size="10.00">::readProcessingModule</text>
</a>
</g>
</g>
<!-- Node13&#45;&gt;Node23 -->
<g id="edge27_Node000013_Node000023" class="edge">
<title>Node13&#45;&gt;Node23</title>
<g id="a_edge27_Node000013_Node000023"><a xlink:title=" ">
<path fill="none" stroke="#63b8ff" d="M1558.85,-160.44C1566.71,-159.24 1574.81,-158.01 1582.83,-156.79"/>
<polygon fill="#63b8ff" stroke="#63b8ff" points="1583.22,-160.27 1592.57,-155.3 1582.16,-153.35 1583.22,-160.27"/>
</a>
</g>
</g>
<!-- Node15 -->
<g id="Node000015" class="node">
<title>Node15</title>
<g id="a_Node000015"><a xlink:href="class_a_q_n_w_b_1_1_n_w_b_1_1_n_w_b_file.html#aaf2e07b4e912fc34ab052d38f92e6cdd" target="_top" xlink:title="Saves the specification files for the schema.">
<polygon fill="white" stroke="#666666" points="2083.12,-263.5 1953.12,-263.5 1953.12,-233 2083.12,-233 2083.12,-263.5"/>
<text xml:space="preserve" text-anchor="start" x="1961.12" y="-250" font-family="Helvetica,sans-Serif" font-size="10.00">AQNWB::NWB::NWBFile</text>
<text xml:space="preserve" text-anchor="middle" x="2018.12" y="-238.75" font-family="Helvetica,sans-Serif" font-size="10.00">::cacheSpecifications</text>
</a>
</g>
</g>
<!-- Node14&#45;&gt;Node15 -->
<g id="edge17_Node000014_Node000015" class="edge">
<title>Node14&#45;&gt;Node15</title>
<g id="a_edge17_Node000014_Node000015"><a xlink:title=" ">
<path fill="none" stroke="#63b8ff" d="M1724.67,-203.97C1785.58,-213.19 1877.16,-227.06 1941.57,-236.81"/>
<polygon fill="#63b8ff" stroke="#63b8ff" points="1940.96,-240.26 1951.37,-238.29 1942.01,-233.34 1940.96,-240.26"/>
</a>
</g>
</g>
<!-- Node18 -->
<g id="Node000018" class="node">
<title>Node18</title>
<g id="a_Node000018"><a xlink:href="class_a_q_n_w_b_1_1_n_w_b_1_1_n_w_b_file.html#a71bd7b910a7ec89bdaf36304d67bfef1" target="_top" xlink:title="Creates the default file structure. Note, this function will fail if the file is in a mode where new ...">
<polygon fill="white" stroke="#666666" points="1890.5,-177.5 1760.5,-177.5 1760.5,-147 1890.5,-147 1890.5,-177.5"/>
<text xml:space="preserve" text-anchor="start" x="1768.5" y="-164" font-family="Helvetica,sans-Serif" font-size="10.00">AQNWB::NWB::NWBFile</text>
<text xml:space="preserve" text-anchor="middle" x="1825.5" y="-152.75" font-family="Helvetica,sans-Serif" font-size="10.00">::createFileStructure</text>
</a>
</g>
</g>
<!-- Node14&#45;&gt;Node18 -->
<g id="edge20_Node000014_Node000018" class="edge">
<title>Node14&#45;&gt;Node18</title>
<g id="a_edge20_Node000014_Node000018"><a xlink:title=" ">
<path fill="none" stroke="#63b8ff" d="M1724.85,-181.69C1732.71,-180.16 1740.81,-178.58 1748.83,-177.02"/>
<polygon fill="#63b8ff" stroke="#63b8ff" points="1749.44,-180.46 1758.58,-175.11 1748.1,-173.59 1749.44,-180.46"/>
</a>
</g>
</g>
<!-- Node16 -->
<g id="Node000016" class="node">
<title>Node16</title>
<g id="a_Node000016"><a xlink:href="class_a_q_n_w_b_1_1_n_w_b_1_1_registered_type.html#ab614b1609f536e88ed1f32762dc3894b" target="_top" xlink:title="Get a shared pointer to the IO object.">
<polygon fill="white" stroke="#666666" points="2304.25,-220.5 2145.75,-220.5 2145.75,-190 2304.25,-190 2304.25,-220.5"/>
<text xml:space="preserve" text-anchor="start" x="2153.75" y="-207" font-family="Helvetica,sans-Serif" font-size="10.00">AQNWB::NWB::RegisteredType</text>
<text xml:space="preserve" text-anchor="middle" x="2225" y="-195.75" font-family="Helvetica,sans-Serif" font-size="10.00">::getIO</text>
</a>
</g>
</g>
<!-- Node15&#45;&gt;Node16 -->
<g id="edge18_Node000015_Node000016" class="edge">
<title>Node15&#45;&gt;Node16</title>
<g id="a_edge18_Node000015_Node000016"><a xlink:title=" ">
<path fill="none" stroke="#63b8ff" d="M2083.39,-234.76C2100.68,-231.13 2119.68,-227.15 2137.96,-223.31"/>
<polygon fill="#63b8ff" stroke="#63b8ff" points="2138.67,-226.74 2147.74,-221.26 2137.24,-219.88 2138.67,-226.74"/>
</a>
</g>
</g>
<!-- Node17 -->
<g id="Node000017" class="node">
<title>Node17</title>
<g id="a_Node000017"><a xlink:href="namespace_a_q_n_w_b.html#a31983dbaaa85c2e355b9687fc0ef1881" target="_top" xlink:title="Merge two paths into a single path, handling extra trailing and starting &quot;/&quot;.">
<polygon fill="white" stroke="#666666" points="2281.38,-257.88 2168.62,-257.88 2168.62,-238.62 2281.38,-238.62 2281.38,-257.88"/>
<text xml:space="preserve" text-anchor="middle" x="2225" y="-244.38" font-family="Helvetica,sans-Serif" font-size="10.00">AQNWB::mergePaths</text>
</a>
</g>
</g>
<!-- Node15&#45;&gt;Node17 -->
<g id="edge19_Node000015_Node000017" class="edge">
<title>Node15&#45;&gt;Node17</title>
<g id="a_edge19_Node000015_Node000017"><a xlink:title=" ">
<path fill="none" stroke="#63b8ff" d="M2083.39,-248.25C2106.78,-248.25 2133.28,-248.25 2156.92,-248.25"/>
<polygon fill="#63b8ff" stroke="#63b8ff" points="2156.75,-251.75 2166.75,-248.25 2156.75,-244.75 2156.75,-251.75"/>
</a>
</g>
</g>
<!-- Node18&#45;&gt;Node15 -->
<g id="edge21_Node000018_Node000015" class="edge">
<title>Node18&#45;&gt;Node15</title>
<g id="a_edge21_Node000018_Node000015"><a xlink:title=" ">
<path fill="none" stroke="#63b8ff" d="M1850.42,-177.77C1870.23,-190.16 1899.42,-207.36 1926.5,-219.25 1934.37,-222.71 1942.78,-225.96 1951.2,-228.94"/>
<polygon fill="#63b8ff" stroke="#63b8ff" points="1949.78,-232.16 1960.38,-232.08 1952.05,-225.53 1949.78,-232.16"/>
</a>
</g>
</g>
<!-- Node18&#45;&gt;Node16 -->
<g id="edge23_Node000018_Node000016" class="edge">
<title>Node18&#45;&gt;Node16</title>
<g id="a_edge23_Node000018_Node000016"><a xlink:title=" ">
<path fill="none" stroke="#63b8ff" d="M1884.6,-177.97C1898.25,-181.17 1912.82,-184.19 1926.5,-186.25 1995.73,-196.69 2074.87,-201.4 2134.11,-203.52"/>
<polygon fill="#63b8ff" stroke="#63b8ff" points="2133.69,-207.01 2143.8,-203.85 2133.92,-200.02 2133.69,-207.01"/>
</a>
</g>
</g>
<!-- Node19 -->
<g id="Node000019" class="node">
<title>Node19</title>
<g id="a_Node000019"><a xlink:href="class_a_q_n_w_b_1_1_s_p_e_c_1_1_namespace_registry.html#aceded37c693bb2f6aa21a5945a13557c" target="_top" xlink:title="Get all registered namespaces.">
<polygon fill="white" stroke="#666666" points="2109.75,-177.5 1926.5,-177.5 1926.5,-147 2109.75,-147 2109.75,-177.5"/>
<text xml:space="preserve" text-anchor="start" x="1934.5" y="-164" font-family="Helvetica,sans-Serif" font-size="10.00">AQNWB::SPEC::NamespaceRegistry</text>
<text xml:space="preserve" text-anchor="middle" x="2018.12" y="-152.75" font-family="Helvetica,sans-Serif" font-size="10.00">::getAllNamespaces</text>
</a>
</g>
</g>
<!-- Node18&#45;&gt;Node19 -->
<g id="edge22_Node000018_Node000019" class="edge">
<title>Node18&#45;&gt;Node19</title>
<g id="a_edge22_Node000018_Node000019"><a xlink:title=" ">
<path fill="none" stroke="#63b8ff" d="M1890.77,-162.25C1898.49,-162.25 1906.5,-162.25 1914.59,-162.25"/>
<polygon fill="#63b8ff" stroke="#63b8ff" points="1914.53,-165.75 1924.53,-162.25 1914.53,-158.75 1914.53,-165.75"/>
</a>
</g>
</g>
<!-- Node20 -->
<g id="Node000020" class="node">
<title>Node20</title>
<g id="a_Node000020"><a xlink:href="class_a_q_n_w_b_1_1_n_w_b_1_1_n_w_b_file.html#a0b44558c283edd9db7d2fcf284c1a5ec" target="_top" xlink:title="Get the schema namespace of the class type.">
<polygon fill="white" stroke="#666666" points="2083.12,-128.5 1953.12,-128.5 1953.12,-98 2083.12,-98 2083.12,-128.5"/>
<text xml:space="preserve" text-anchor="start" x="1961.12" y="-115" font-family="Helvetica,sans-Serif" font-size="10.00">AQNWB::NWB::NWBFile</text>
<text xml:space="preserve" text-anchor="middle" x="2018.12" y="-103.75" font-family="Helvetica,sans-Serif" font-size="10.00">::getNamespace</text>
</a>
</g>
</g>
<!-- Node18&#45;&gt;Node20 -->
<g id="edge24_Node000018_Node000020" class="edge">
<title>Node18&#45;&gt;Node20</title>
<g id="a_edge24_Node000018_Node000020"><a xlink:title=" ">
<path fill="none" stroke="#63b8ff" d="M1887.6,-146.54C1905.9,-141.84 1926.14,-136.64 1945.07,-131.77"/>
<polygon fill="#63b8ff" stroke="#63b8ff" points="1945.76,-135.21 1954.58,-129.33 1944.02,-128.43 1945.76,-135.21"/>
</a>
</g>
</g>
<!-- Node21 -->
<g id="Node000021" class="node">
<title>Node21</title>
<g id="a_Node000021"><a xlink:href="class_a_q_n_w_b_1_1_n_w_b_1_1_n_w_b_file.html#ae22dafcb8cb963103fe0e2b4cbfd5dd8" target="_top" xlink:title="Get the name of the class type.">
<polygon fill="white" stroke="#666666" points="2083.12,-79.5 1953.12,-79.5 1953.12,-49 2083.12,-49 2083.12,-79.5"/>
<text xml:space="preserve" text-anchor="start" x="1961.12" y="-66" font-family="Helvetica,sans-Serif" font-size="10.00">AQNWB::NWB::NWBFile</text>
<text xml:space="preserve" text-anchor="middle" x="2018.12" y="-54.75" font-family="Helvetica,sans-Serif" font-size="10.00">::getTypeName</text>
</a>
</g>
</g>
<!-- Node18&#45;&gt;Node21 -->
<g id="edge25_Node000018_Node000021" class="edge">
<title>Node18&#45;&gt;Node21</title>
<g id="a_edge25_Node000018_Node000021"><a xlink:title=" ">
<path fill="none" stroke="#63b8ff" d="M1843.66,-146.68C1862.64,-130.23 1894.76,-104.58 1926.5,-89.25 1931.52,-86.83 1936.8,-84.61 1942.2,-82.58"/>
<polygon fill="#63b8ff" stroke="#63b8ff" points="1942.97,-86.02 1951.25,-79.41 1940.66,-79.41 1942.97,-86.02"/>
</a>
</g>
</g>
<!-- Node22 -->
<g id="Node000022" class="node">
<title>Node22</title>
<g id="a_Node000022"><a xlink:href="class_a_q_n_w_b_1_1_s_p_e_c_1_1_namespace_registry.html#a15d9c6f869f0270ad91a2af8067f5a88" target="_top" xlink:title="Get the singleton instance of the NamespaceRegistry.">
<polygon fill="white" stroke="#666666" points="2109.75,-30.5 1926.5,-30.5 1926.5,0 2109.75,0 2109.75,-30.5"/>
<text xml:space="preserve" text-anchor="start" x="1934.5" y="-17" font-family="Helvetica,sans-Serif" font-size="10.00">AQNWB::SPEC::NamespaceRegistry</text>
<text xml:space="preserve" text-anchor="middle" x="2018.12" y="-5.75" font-family="Helvetica,sans-Serif" font-size="10.00">::instance</text>
</a>
</g>
</g>
<!-- Node18&#45;&gt;Node22 -->
<g id="edge26_Node000018_Node000022" class="edge">
<title>Node18&#45;&gt;Node22</title>
<g id="a_edge26_Node000018_Node000022"><a xlink:title=" ">
<path fill="none" stroke="#63b8ff" d="M1835.02,-146.52C1850,-120.4 1883.57,-68.17 1926.5,-40.25 1929.04,-38.6 1931.69,-37.05 1934.42,-35.61"/>
<polygon fill="#63b8ff" stroke="#63b8ff" points="1935.68,-38.89 1943.23,-31.46 1932.69,-32.55 1935.68,-38.89"/>
</a>
</g>
</g>
</g>
</svg>
