<?xml version="1.0" encoding="UTF-8" standalone="no"?>
<!DOCTYPE svg PUBLIC "-//W3C//DTD SVG 1.1//EN"
 "http://www.w3.org/Graphics/SVG/1.1/DTD/svg11.dtd">
<!-- Generated by graphviz version 12.2.1 (20241206.2353)
 -->
<!-- Title: AQNWB::IO::HDF5::HDF5IO::createStringDataSet Pages: 1 -->
<svg width="536pt" height="284pt"
 viewBox="0.00 0.00 536.00 283.50" xmlns="http://www.w3.org/2000/svg" xmlns:xlink="http://www.w3.org/1999/xlink">
<g id="graph0" class="graph" transform="scale(1 1) rotate(0) translate(4 279.5)">
<title>AQNWB::IO::HDF5::HDF5IO::createStringDataSet</title>
<!-- Node1 -->
<g id="Node000001" class="node">
<title>Node1</title>
<g id="a_Node000001"><a xlink:title="Creates a dataset that holds an array of string values.">
<polygon fill="#999999" stroke="#666666" points="145.75,-198.5 0,-198.5 0,-168 145.75,-168 145.75,-198.5"/>
<text text-anchor="start" x="8" y="-185" font-family="Helvetica,sans-Serif" font-size="10.00">AQNWB::IO::HDF5::HDF5IO</text>
<text text-anchor="middle" x="72.88" y="-173.75" font-family="Helvetica,sans-Serif" font-size="10.00">::createStringDataSet</text>
</a>
</g>
</g>
<!-- Node2 -->
<g id="Node000002" class="node">
<title>Node2</title>
<g id="a_Node000002"><a xlink:href="class_a_q_n_w_b_1_1_i_o_1_1_h_d_f5_1_1_h_d_f5_i_o.html#a96d8d872b2b974ac79a20b82fd72c5c2" target="_top" xlink:title="Checks whether the file is in a mode where objects can be added or deleted. Note, this does not apply...">
<polygon fill="white" stroke="#666666" points="518.62,-275.5 372.88,-275.5 372.88,-245 518.62,-245 518.62,-275.5"/>
<text text-anchor="start" x="380.88" y="-262" font-family="Helvetica,sans-Serif" font-size="10.00">AQNWB::IO::HDF5::HDF5IO</text>
<text text-anchor="middle" x="445.75" y="-250.75" font-family="Helvetica,sans-Serif" font-size="10.00">::canModifyObjects</text>
</a>
</g>
</g>
<!-- Node1&#45;&gt;Node2 -->
<g id="edge1_Node000001_Node000002" class="edge">
<title>Node1&#45;&gt;Node2</title>
<g id="a_edge1_Node000001_Node000002"><a xlink:title=" ">
<path fill="none" stroke="#63b8ff" d="M145.82,-198.19C207.65,-211.02 296.83,-229.54 361.69,-243"/>
<polygon fill="#63b8ff" stroke="#63b8ff" points="360.7,-246.37 371.2,-244.98 362.12,-239.52 360.7,-246.37"/>
</a>
</g>
</g>
<!-- Node3 -->
<g id="Node000003" class="node">
<title>Node3</title>
<g id="a_Node000003"><a xlink:href="class_a_q_n_w_b_1_1_i_o_1_1_h_d_f5_1_1_h_d_f5_i_o.html#a0b301f91a26412d2f1a36f233f7099db" target="_top" xlink:title="Creates an extendable dataset with the given configuration and path.">
<polygon fill="white" stroke="#666666" points="327.5,-177.5 181.75,-177.5 181.75,-147 327.5,-147 327.5,-177.5"/>
<text text-anchor="start" x="189.75" y="-164" font-family="Helvetica,sans-Serif" font-size="10.00">AQNWB::IO::HDF5::HDF5IO</text>
<text text-anchor="middle" x="254.62" y="-152.75" font-family="Helvetica,sans-Serif" font-size="10.00">::createArrayDataSet</text>
</a>
</g>
</g>
<!-- Node1&#45;&gt;Node3 -->
<g id="edge2_Node000001_Node000003" class="edge">
<title>Node1&#45;&gt;Node3</title>
<g id="a_edge2_Node000001_Node000003"><a xlink:title=" ">
<path fill="none" stroke="#63b8ff" d="M146.21,-174.8C154.1,-173.88 162.18,-172.93 170.19,-172"/>
<polygon fill="#63b8ff" stroke="#63b8ff" points="170.41,-175.5 179.94,-170.86 169.6,-168.54 170.41,-175.5"/>
</a>
</g>
</g>
<!-- Node3&#45;&gt;Node2 -->
<g id="edge3_Node000003_Node000002" class="edge">
<title>Node3&#45;&gt;Node2</title>
<g id="a_edge3_Node000003_Node000002"><a xlink:title=" ">
<path fill="none" stroke="#63b8ff" d="M274.83,-177.85C295.61,-194.09 330.26,-219.33 363.5,-235.25 367.43,-237.13 371.54,-238.91 375.72,-240.59"/>
<polygon fill="#63b8ff" stroke="#63b8ff" points="374.24,-243.77 384.83,-244.02 376.7,-237.22 374.24,-243.77"/>
</a>
</g>
</g>
<!-- Node4 -->
<g id="Node000004" class="node">
<title>Node4</title>
<g id="a_Node000004"><a xlink:href="class_a_q_n_w_b_1_1_i_o_1_1_array_data_set_config.html#aead95752724335677d8e3cee6afe97bb" target="_top" xlink:title="Returns the chunking of the dataset.">
<polygon fill="white" stroke="#666666" points="528,-226.5 363.5,-226.5 363.5,-196 528,-196 528,-226.5"/>
<text text-anchor="start" x="371.5" y="-213" font-family="Helvetica,sans-Serif" font-size="10.00">AQNWB::IO::ArrayDataSetConfig</text>
<text text-anchor="middle" x="445.75" y="-201.75" font-family="Helvetica,sans-Serif" font-size="10.00">::getChunking</text>
</a>
</g>
</g>
<!-- Node3&#45;&gt;Node4 -->
<g id="edge4_Node000003_Node000004" class="edge">
<title>Node3&#45;&gt;Node4</title>
<g id="a_edge4_Node000003_Node000004"><a xlink:title=" ">
<path fill="none" stroke="#63b8ff" d="M316.25,-177.96C334.4,-182.66 354.48,-187.86 373.26,-192.73"/>
<polygon fill="#63b8ff" stroke="#63b8ff" points="372.12,-196.05 382.68,-195.17 373.88,-189.27 372.12,-196.05"/>
</a>
</g>
</g>
<!-- Node5 -->
<g id="Node000005" class="node">
<title>Node5</title>
<g id="a_Node000005"><a xlink:href="class_a_q_n_w_b_1_1_i_o_1_1_h_d_f5_1_1_h_d_f5_array_data_set_config.html#ac9d01b29e8fa7809e183ff0b82673df5" target="_top" xlink:title="Returns the filters of the dataset.">
<polygon fill="white" stroke="#666666" points="525,-177.5 366.5,-177.5 366.5,-147 525,-147 525,-177.5"/>
<text text-anchor="start" x="374.5" y="-164" font-family="Helvetica,sans-Serif" font-size="10.00">AQNWB::IO::HDF5::HDF5Array</text>
<text text-anchor="middle" x="445.75" y="-152.75" font-family="Helvetica,sans-Serif" font-size="10.00">DataSetConfig::getFilters</text>
</a>
</g>
</g>
<!-- Node3&#45;&gt;Node5 -->
<g id="edge5_Node000003_Node000005" class="edge">
<title>Node3&#45;&gt;Node5</title>
<g id="a_edge5_Node000003_Node000005"><a xlink:title=" ">
<path fill="none" stroke="#63b8ff" d="M327.93,-162.25C336.73,-162.25 345.8,-162.25 354.82,-162.25"/>
<polygon fill="#63b8ff" stroke="#63b8ff" points="354.67,-165.75 364.67,-162.25 354.67,-158.75 354.67,-165.75"/>
</a>
</g>
</g>
<!-- Node6 -->
<g id="Node000006" class="node">
<title>Node6</title>
<g id="a_Node000006"><a xlink:href="class_a_q_n_w_b_1_1_i_o_1_1_h_d_f5_1_1_h_d_f5_i_o.html#acdb9d079f684ceb29d16ebc5e7e57127" target="_top" xlink:title="Returns the HDF5 data type for a given base data type.">
<polygon fill="white" stroke="#666666" points="518.62,-128.5 372.88,-128.5 372.88,-98 518.62,-98 518.62,-128.5"/>
<text text-anchor="start" x="380.88" y="-115" font-family="Helvetica,sans-Serif" font-size="10.00">AQNWB::IO::HDF5::HDF5IO</text>
<text text-anchor="middle" x="445.75" y="-103.75" font-family="Helvetica,sans-Serif" font-size="10.00">::getH5Type</text>
</a>
</g>
</g>
<!-- Node3&#45;&gt;Node6 -->
<g id="edge6_Node000003_Node000006" class="edge">
<title>Node3&#45;&gt;Node6</title>
<g id="a_edge6_Node000003_Node000006"><a xlink:title=" ">
<path fill="none" stroke="#63b8ff" d="M316.25,-146.54C334.4,-141.84 354.48,-136.64 373.26,-131.77"/>
<polygon fill="#63b8ff" stroke="#63b8ff" points="373.88,-135.23 382.68,-129.33 372.12,-128.45 373.88,-135.23"/>
</a>
</g>
</g>
<!-- Node7 -->
<g id="Node000007" class="node">
<title>Node7</title>
<g id="a_Node000007"><a xlink:href="class_a_q_n_w_b_1_1_i_o_1_1_array_data_set_config.html#a565a46d8e1e48dffeb948964d5f51168" target="_top" xlink:title="Returns the shape of the dataset.">
<polygon fill="white" stroke="#666666" points="528,-79.5 363.5,-79.5 363.5,-49 528,-49 528,-79.5"/>
<text text-anchor="start" x="371.5" y="-66" font-family="Helvetica,sans-Serif" font-size="10.00">AQNWB::IO::ArrayDataSetConfig</text>
<text text-anchor="middle" x="445.75" y="-54.75" font-family="Helvetica,sans-Serif" font-size="10.00">::getShape</text>
</a>
</g>
</g>
<!-- Node3&#45;&gt;Node7 -->
<g id="edge7_Node000003_Node000007" class="edge">
<title>Node3&#45;&gt;Node7</title>
<g id="a_edge7_Node000003_Node000007"><a xlink:title=" ">
<path fill="none" stroke="#63b8ff" d="M274.83,-146.65C295.61,-130.41 330.26,-105.17 363.5,-89.25 367.43,-87.37 371.54,-85.59 375.72,-83.91"/>
<polygon fill="#63b8ff" stroke="#63b8ff" points="376.7,-87.28 384.83,-80.48 374.24,-80.73 376.7,-87.28"/>
</a>
</g>
</g>
<!-- Node8 -->
<g id="Node000008" class="node">
<title>Node8</title>
<g id="a_Node000008"><a xlink:href="class_a_q_n_w_b_1_1_i_o_1_1_array_data_set_config.html#ad7fc70070109360904cb624d4a2d7f92" target="_top" xlink:title="Returns the data type of the dataset.">
<polygon fill="white" stroke="#666666" points="528,-30.5 363.5,-30.5 363.5,0 528,0 528,-30.5"/>
<text text-anchor="start" x="371.5" y="-17" font-family="Helvetica,sans-Serif" font-size="10.00">AQNWB::IO::ArrayDataSetConfig</text>
<text text-anchor="middle" x="445.75" y="-5.75" font-family="Helvetica,sans-Serif" font-size="10.00">::getType</text>
</a>
</g>
</g>
<!-- Node3&#45;&gt;Node8 -->
<g id="edge8_Node000003_Node000008" class="edge">
<title>Node3&#45;&gt;Node8</title>
<g id="a_edge8_Node000003_Node000008"><a xlink:title=" ">
<path fill="none" stroke="#63b8ff" d="M265.23,-146.68C281.99,-120.79 319.06,-68.9 363.5,-40.25 366.03,-38.62 368.67,-37.09 371.39,-35.66"/>
<polygon fill="#63b8ff" stroke="#63b8ff" points="372.61,-38.95 380.16,-31.52 369.62,-32.62 372.61,-38.95"/>
</a>
</g>
</g>
</g>
</svg>
