<?xml version="1.0" encoding="UTF-8" standalone="no"?>
<!DOCTYPE svg PUBLIC "-//W3C//DTD SVG 1.1//EN"
 "http://www.w3.org/Graphics/SVG/1.1/DTD/svg11.dtd">
<!-- Generated by graphviz version 14.1.0 (20251206.1807)
 -->
<!-- Title: AQNWB::NWB::VectorDataTyped::recordData Pages: 1 -->
<svg width="376pt" height="57pt"
 viewBox="0.00 0.00 376.00 57.00" xmlns="http://www.w3.org/2000/svg" xmlns:xlink="http://www.w3.org/1999/xlink">
<g id="graph0" class="graph" transform="scale(1 1) rotate(0) translate(4 52.5)">
<title>AQNWB::NWB::VectorDataTyped::recordData</title>
<!-- Node1 -->
<g id="Node000001" class="node">
<title>Node1</title>
<g id="a_Node000001"><a xlink:title=" ">
<polygon fill="#999999" stroke="#666666" points="368,-30.5 202,-30.5 202,0 368,0 368,-30.5"/>
<text xml:space="preserve" text-anchor="start" x="210" y="-17" font-family="Helvetica,sans-Serif" font-size="10.00">AQNWB::NWB::VectorDataTyped</text>
<text xml:space="preserve" text-anchor="middle" x="285" y="-5.75" font-family="Helvetica,sans-Serif" font-size="10.00">::recordData</text>
</a>
</g>
</g>
<!-- Node2 -->
<g id="Node000002" class="node">
<title>Node2</title>
<g id="a_Node000002"><a xlink:href="class_a_q_n_w_b_1_1_n_w_b_1_1_vector_data_typed.html#a4a43dd61083829cc550d3570d46e0640" target="_top" xlink:title=" ">
<polygon fill="white" stroke="#666666" points="166,-30.5 0,-30.5 0,0 166,0 166,-30.5"/>
<text xml:space="preserve" text-anchor="start" x="8" y="-17" font-family="Helvetica,sans-Serif" font-size="10.00">AQNWB::NWB::VectorDataTyped</text>
<text xml:space="preserve" text-anchor="middle" x="83" y="-5.75" font-family="Helvetica,sans-Serif" font-size="10.00">::readData</text>
</a>
</g>
</g>
<!-- Node1&#45;&gt;Node2 -->
<g id="edge1_Node000001_Node000002" class="edge">
<title>Node1&#45;&gt;Node2</title>
<g id="a_edge1_Node000001_Node000002"><a xlink:title=" ">
<path fill="none" stroke="#63b8ff" d="M190.42,-15.25C182.34,-15.25 174.2,-15.25 166.22,-15.25"/>
<polygon fill="#63b8ff" stroke="#63b8ff" points="190.27,-18.75 200.27,-15.25 190.27,-11.75 190.27,-18.75"/>
</a>
</g>
</g>
<!-- Node2&#45;&gt;Node2 -->
<g id="edge2_Node000002_Node000002" class="edge">
<title>Node2&#45;&gt;Node2</title>
<g id="a_edge2_Node000002_Node000002"><a xlink:title=" ">
<path fill="none" stroke="#63b8ff" d="M116.88,-42.2C111.34,-45.97 100.04,-48.5 83,-48.5 51.83,-48.5 39.9,-40.06 47.21,-30.99"/>
<polygon fill="#63b8ff" stroke="#63b8ff" points="120.3,-42.92 118.54,-32.48 113.4,-41.74 120.3,-42.92"/>
</a>
</g>
</g>
</g>
</svg>
