<?xml version="1.0" encoding="UTF-8" standalone="no"?>
<!DOCTYPE svg PUBLIC "-//W3C//DTD SVG 1.1//EN"
 "http://www.w3.org/Graphics/SVG/1.1/DTD/svg11.dtd">
<!-- Generated by graphviz version 15.1.0 (20260618.0150)
 -->
<!-- Title: AQNWB::NWB::DynamicTable::readColumn Pages: 1 -->
<svg width="943pt" height="137pt"
 viewBox="0.00 0.00 943.00 137.00" xmlns="http://www.w3.org/2000/svg" xmlns:xlink="http://www.w3.org/1999/xlink">
<g id="graph0" class="graph" transform="scale(1 1) rotate(0) translate(4 132.5)">
<title>AQNWB::NWB::DynamicTable::readColumn</title>
<!-- Node1 -->
<g id="Node000001" class="node">
<title>Node1</title>
<g id="a_Node000001"><a xlink:title="Read an arbitrary column of the DynamicTable.">
<polygon fill="#999999" stroke="#666666" points="935,-79.5 782.5,-79.5 782.5,-49 935,-49 935,-79.5"/>
<text xml:space="preserve" text-anchor="start" x="790.5" y="-66" font-family="Helvetica,sans-Serif" font-size="10.00">AQNWB::NWB::DynamicTable</text>
<text xml:space="preserve" text-anchor="middle" x="858.75" y="-54.75" font-family="Helvetica,sans-Serif" font-size="10.00">::readColumn</text>
</a>
</g>
</g>
<!-- Node2 -->
<g id="Node000002" class="node">
<title>Node2</title>
<g id="a_Node000002"><a xlink:href="class_a_q_n_w_b_1_1_n_w_b_1_1_dynamic_table.html#a79ccf333480f9a5440c594b34d0ef282" target="_top" xlink:title="Create a MeaningsTable for a specific VectorData column in this DynamicTable.">
<polygon fill="white" stroke="#666666" points="740.5,-128.5 588,-128.5 588,-98 740.5,-98 740.5,-128.5"/>
<text xml:space="preserve" text-anchor="start" x="596" y="-115" font-family="Helvetica,sans-Serif" font-size="10.00">AQNWB::NWB::DynamicTable</text>
<text xml:space="preserve" text-anchor="middle" x="664.25" y="-103.75" font-family="Helvetica,sans-Serif" font-size="10.00">::createMeaningsTable</text>
</a>
</g>
</g>
<!-- Node1&#45;&gt;Node2 -->
<g id="edge1_Node000001_Node000002" class="edge">
<title>Node1&#45;&gt;Node2</title>
<g id="a_edge1_Node000001_Node000002"><a xlink:title=" ">
<path fill="none" stroke="#63b8ff" d="M784.97,-82.78C765.85,-87.64 745.41,-92.85 726.93,-97.55"/>
<polygon fill="#63b8ff" stroke="#63b8ff" points="785.75,-86.19 794.58,-80.33 784.03,-79.4 785.75,-86.19"/>
</a>
</g>
</g>
<!-- Node3 -->
<g id="Node000003" class="node">
<title>Node3</title>
<g id="a_Node000003"><a xlink:href="class_a_q_n_w_b_1_1_n_w_b_1_1_dynamic_table.html#a9538766579a7b74e216d450f9abb17e1" target="_top" xlink:title="Load all configured columns and row element identifiers from the file.">
<polygon fill="white" stroke="#666666" points="746.5,-79.5 582,-79.5 582,-49 746.5,-49 746.5,-79.5"/>
<text xml:space="preserve" text-anchor="start" x="590" y="-66" font-family="Helvetica,sans-Serif" font-size="10.00">AQNWB::NWB::DynamicTable</text>
<text xml:space="preserve" text-anchor="middle" x="664.25" y="-54.75" font-family="Helvetica,sans-Serif" font-size="10.00">::loadConfiguredColumnsFromFile</text>
</a>
</g>
</g>
<!-- Node1&#45;&gt;Node3 -->
<g id="edge2_Node000001_Node000003" class="edge">
<title>Node1&#45;&gt;Node3</title>
<g id="a_edge2_Node000001_Node000003"><a xlink:title=" ">
<path fill="none" stroke="#63b8ff" d="M770.98,-64.25C762.97,-64.25 754.88,-64.25 746.92,-64.25"/>
<polygon fill="#63b8ff" stroke="#63b8ff" points="770.71,-67.75 780.71,-64.25 770.71,-60.75 770.71,-67.75"/>
</a>
</g>
</g>
<!-- Node7 -->
<g id="Node000007" class="node">
<title>Node7</title>
<g id="a_Node000007"><a xlink:href="class_a_q_n_w_b_1_1_n_w_b_1_1_dynamic_table.html#ad2623ad55b9abf7df29b39b85ea970da" target="_top" xlink:title="Read rows from the table.">
<polygon fill="white" stroke="#666666" points="740.5,-30.5 588,-30.5 588,0 740.5,0 740.5,-30.5"/>
<text xml:space="preserve" text-anchor="start" x="596" y="-17" font-family="Helvetica,sans-Serif" font-size="10.00">AQNWB::NWB::DynamicTable</text>
<text xml:space="preserve" text-anchor="middle" x="664.25" y="-5.75" font-family="Helvetica,sans-Serif" font-size="10.00">::readRows</text>
</a>
</g>
</g>
<!-- Node1&#45;&gt;Node7 -->
<g id="edge6_Node000001_Node000007" class="edge">
<title>Node1&#45;&gt;Node7</title>
<g id="a_edge6_Node000001_Node000007"><a xlink:title=" ">
<path fill="none" stroke="#63b8ff" d="M784.97,-45.72C765.85,-40.86 745.41,-35.65 726.93,-30.95"/>
<polygon fill="#63b8ff" stroke="#63b8ff" points="784.03,-49.1 794.58,-48.17 785.75,-42.31 784.03,-49.1"/>
</a>
</g>
</g>
<!-- Node4 -->
<g id="Node000004" class="node">
<title>Node4</title>
<g id="a_Node000004"><a xlink:href="class_a_q_n_w_b_1_1_n_w_b_1_1_dynamic_table.html#ac43e333295fe72f2d87f0e88ced5be55" target="_top" xlink:title="Ensure that all configured columns are loaded from the file.">
<polygon fill="white" stroke="#666666" points="546,-79.5 377,-79.5 377,-49 546,-49 546,-79.5"/>
<text xml:space="preserve" text-anchor="start" x="385" y="-66" font-family="Helvetica,sans-Serif" font-size="10.00">AQNWB::NWB::DynamicTable</text>
<text xml:space="preserve" text-anchor="middle" x="461.5" y="-54.75" font-family="Helvetica,sans-Serif" font-size="10.00">::ensureConfiguredColumnsLoaded</text>
</a>
</g>
</g>
<!-- Node3&#45;&gt;Node4 -->
<g id="edge3_Node000003_Node000004" class="edge">
<title>Node3&#45;&gt;Node4</title>
<g id="a_edge3_Node000003_Node000004"><a xlink:title=" ">
<path fill="none" stroke="#63b8ff" d="M570.35,-64.25C562.35,-64.25 554.29,-64.25 546.36,-64.25"/>
<polygon fill="#63b8ff" stroke="#63b8ff" points="570.08,-67.75 580.08,-64.25 570.08,-60.75 570.08,-67.75"/>
</a>
</g>
</g>
<!-- Node5 -->
<g id="Node000005" class="node">
<title>Node5</title>
<g id="a_Node000005"><a xlink:href="class_a_q_n_w_b_1_1_n_w_b_1_1_dynamic_table.html#a2541ab21f542dfd45cfbcfe50314afd6" target="_top" xlink:title="Adds multiple rows to the table.">
<polygon fill="white" stroke="#666666" points="341,-79.5 188.5,-79.5 188.5,-49 341,-49 341,-79.5"/>
<text xml:space="preserve" text-anchor="start" x="196.5" y="-66" font-family="Helvetica,sans-Serif" font-size="10.00">AQNWB::NWB::DynamicTable</text>
<text xml:space="preserve" text-anchor="middle" x="264.75" y="-54.75" font-family="Helvetica,sans-Serif" font-size="10.00">::addRows</text>
</a>
</g>
</g>
<!-- Node4&#45;&gt;Node5 -->
<g id="edge4_Node000004_Node000005" class="edge">
<title>Node4&#45;&gt;Node5</title>
<g id="a_edge4_Node000004_Node000005"><a xlink:title=" ">
<path fill="none" stroke="#63b8ff" d="M365.42,-64.25C357.37,-64.25 349.29,-64.25 341.41,-64.25"/>
<polygon fill="#63b8ff" stroke="#63b8ff" points="365.26,-67.75 375.26,-64.25 365.26,-60.75 365.26,-67.75"/>
</a>
</g>
</g>
<!-- Node6 -->
<g id="Node000006" class="node">
<title>Node6</title>
<g id="a_Node000006"><a xlink:href="class_a_q_n_w_b_1_1_n_w_b_1_1_dynamic_table.html#a7fb6730f68879bbba07b968cdecac4ba" target="_top" xlink:title="Adds a single row to the table.">
<polygon fill="white" stroke="#666666" points="152.5,-79.5 0,-79.5 0,-49 152.5,-49 152.5,-79.5"/>
<text xml:space="preserve" text-anchor="start" x="8" y="-66" font-family="Helvetica,sans-Serif" font-size="10.00">AQNWB::NWB::DynamicTable</text>
<text xml:space="preserve" text-anchor="middle" x="76.25" y="-54.75" font-family="Helvetica,sans-Serif" font-size="10.00">::addRow</text>
</a>
</g>
</g>
<!-- Node5&#45;&gt;Node6 -->
<g id="edge5_Node000005_Node000006" class="edge">
<title>Node5&#45;&gt;Node6</title>
<g id="a_edge5_Node000005_Node000006"><a xlink:title=" ">
<path fill="none" stroke="#63b8ff" d="M176.91,-64.25C168.91,-64.25 160.84,-64.25 152.95,-64.25"/>
<polygon fill="#63b8ff" stroke="#63b8ff" points="176.65,-67.75 186.65,-64.25 176.65,-60.75 176.65,-67.75"/>
</a>
</g>
</g>
<!-- Node8 -->
<g id="Node000008" class="node">
<title>Node8</title>
<g id="a_Node000008"><a xlink:href="class_a_q_n_w_b_1_1_n_w_b_1_1_dynamic_table.html#ad9af4140c83b8dd49b842879be66a2f5" target="_top" xlink:title="Convert the table to a string representation.">
<polygon fill="white" stroke="#666666" points="537.75,-30.5 385.25,-30.5 385.25,0 537.75,0 537.75,-30.5"/>
<text xml:space="preserve" text-anchor="start" x="393.25" y="-17" font-family="Helvetica,sans-Serif" font-size="10.00">AQNWB::NWB::DynamicTable</text>
<text xml:space="preserve" text-anchor="middle" x="461.5" y="-5.75" font-family="Helvetica,sans-Serif" font-size="10.00">::toString</text>
</a>
</g>
</g>
<!-- Node7&#45;&gt;Node8 -->
<g id="edge7_Node000007_Node000008" class="edge">
<title>Node7&#45;&gt;Node8</title>
<g id="a_edge7_Node000007_Node000008"><a xlink:title=" ">
<path fill="none" stroke="#63b8ff" d="M576.49,-15.25C563.69,-15.25 550.59,-15.25 538.04,-15.25"/>
<polygon fill="#63b8ff" stroke="#63b8ff" points="576.13,-18.75 586.13,-15.25 576.13,-11.75 576.13,-18.75"/>
</a>
</g>
</g>
</g>
</svg>
