<?xml version="1.0" encoding="UTF-8" standalone="no"?>
<!DOCTYPE svg PUBLIC "-//W3C//DTD SVG 1.1//EN"
 "http://www.w3.org/Graphics/SVG/1.1/DTD/svg11.dtd">
<!-- Generated by graphviz version 14.1.2 (20260124.0452)
 -->
<!-- Title: AQNWB::NWB::NWBFile::create Pages: 1 -->
<svg width="1082pt" height="148pt"
 viewBox="0.00 0.00 1082.00 148.00" xmlns="http://www.w3.org/2000/svg" xmlns:xlink="http://www.w3.org/1999/xlink">
<g id="graph0" class="graph" transform="scale(1 1) rotate(0) translate(4 143.5)">
<title>AQNWB::NWB::NWBFile::create</title>
<!-- Node1 -->
<g id="Node000001" class="node">
<title>Node1</title>
<g id="a_Node000001"><a xlink:title="Convenience factor method since the path is fixed to &#39;/&#39;.">
<polygon fill="#999999" stroke="#666666" points="130,-91.5 0,-91.5 0,-61 130,-61 130,-91.5"/>
<text xml:space="preserve" text-anchor="start" x="8" y="-78" font-family="Helvetica,sans-Serif" font-size="10.00">AQNWB::NWB::NWBFile</text>
<text xml:space="preserve" text-anchor="middle" x="65" y="-66.75" font-family="Helvetica,sans-Serif" font-size="10.00">::create</text>
</a>
</g>
</g>
<!-- Node2 -->
<g id="Node000002" class="node">
<title>Node2</title>
<g id="a_Node000002"><a xlink:href="class_a_q_n_w_b_1_1_n_w_b_1_1_n_w_b_file.html#a84f0f21cd7bd9745b1eeb508b747fb4b" target="_top" xlink:title=" ">
<polygon fill="white" stroke="#666666" points="310.25,-134.5 180.25,-134.5 180.25,-104 310.25,-104 310.25,-134.5"/>
<text xml:space="preserve" text-anchor="start" x="188.25" y="-121" font-family="Helvetica,sans-Serif" font-size="10.00">AQNWB::NWB::NWBFile</text>
<text xml:space="preserve" text-anchor="middle" x="245.25" y="-109.75" font-family="Helvetica,sans-Serif" font-size="10.00">::create</text>
</a>
</g>
</g>
<!-- Node1&#45;&gt;Node2 -->
<g id="edge1_Node000001_Node000002" class="edge">
<title>Node1&#45;&gt;Node2</title>
<g id="a_edge1_Node000001_Node000002"><a xlink:title=" ">
<path fill="none" stroke="#63b8ff" d="M130.35,-91.77C142.85,-94.79 156.05,-97.97 168.86,-101.06"/>
<polygon fill="#63b8ff" stroke="#63b8ff" points="167.98,-104.45 178.52,-103.39 169.62,-97.65 167.98,-104.45"/>
</a>
</g>
</g>
<!-- Node6 -->
<g id="Node000006" class="node">
<title>Node6</title>
<g id="a_Node000006"><a xlink:href="class_a_q_n_w_b_1_1_n_w_b_1_1_n_w_b_file.html#a277f89c64204a61491bb26ad309186f3" target="_top" xlink:title="Constructor for NWBFile class.">
<polygon fill="white" stroke="#666666" points="504.75,-91.5 374.75,-91.5 374.75,-61 504.75,-61 504.75,-91.5"/>
<text xml:space="preserve" text-anchor="start" x="382.75" y="-78" font-family="Helvetica,sans-Serif" font-size="10.00">AQNWB::NWB::NWBFile</text>
<text xml:space="preserve" text-anchor="middle" x="439.75" y="-66.75" font-family="Helvetica,sans-Serif" font-size="10.00">::NWBFile</text>
</a>
</g>
</g>
<!-- Node1&#45;&gt;Node6 -->
<g id="edge13_Node000001_Node000006" class="edge">
<title>Node1&#45;&gt;Node6</title>
<g id="a_edge13_Node000001_Node000006"><a xlink:title=" ">
<path fill="none" stroke="#63b8ff" d="M130.08,-76.25C194.75,-76.25 294.6,-76.25 363.12,-76.25"/>
<polygon fill="#63b8ff" stroke="#63b8ff" points="362.75,-79.75 372.75,-76.25 362.75,-72.75 362.75,-79.75"/>
</a>
</g>
</g>
<!-- Node7 -->
<g id="Node000007" class="node">
<title>Node7</title>
<g id="a_Node000007"><a xlink:href="class_a_q_n_w_b_1_1_n_w_b_1_1_registered_type.html#a6f7d3d6d30763215c823452176ed876a" target="_top" xlink:title="Create an instance of a registered subclass by name.">
<polygon fill="white" stroke="#666666" points="324.5,-30.5 166,-30.5 166,0 324.5,0 324.5,-30.5"/>
<text xml:space="preserve" text-anchor="start" x="174" y="-17" font-family="Helvetica,sans-Serif" font-size="10.00">AQNWB::NWB::RegisteredType</text>
<text xml:space="preserve" text-anchor="middle" x="245.25" y="-5.75" font-family="Helvetica,sans-Serif" font-size="10.00">::create</text>
</a>
</g>
</g>
<!-- Node1&#45;&gt;Node7 -->
<g id="edge10_Node000001_Node000007" class="edge">
<title>Node1&#45;&gt;Node7</title>
<g id="a_edge10_Node000001_Node000007"><a xlink:title=" ">
<path fill="none" stroke="#63b8ff" d="M111.9,-60.54C135.09,-52.61 163.42,-42.91 187.91,-34.53"/>
<polygon fill="#63b8ff" stroke="#63b8ff" points="188.74,-37.95 197.07,-31.4 186.48,-31.32 188.74,-37.95"/>
</a>
</g>
</g>
<!-- Node3 -->
<g id="Node000003" class="node">
<title>Node3</title>
<g id="a_Node000003"><a xlink:href="class_a_q_n_w_b_1_1_n_w_b_1_1_n_w_b_container.html#aadbde40c8c04d80d7b65a26e77f4cc20" target="_top" xlink:title="Constructor.">
<polygon fill="white" stroke="#666666" points="711.25,-121.5 555,-121.5 555,-91 711.25,-91 711.25,-121.5"/>
<text xml:space="preserve" text-anchor="start" x="563" y="-108" font-family="Helvetica,sans-Serif" font-size="10.00">AQNWB::NWB::NWBContainer</text>
<text xml:space="preserve" text-anchor="middle" x="633.12" y="-96.75" font-family="Helvetica,sans-Serif" font-size="10.00">::NWBContainer</text>
</a>
</g>
</g>
<!-- Node2&#45;&gt;Node3 -->
<g id="edge2_Node000002_Node000003" class="edge">
<title>Node2&#45;&gt;Node3</title>
<g id="a_edge2_Node000002_Node000003"><a xlink:title=" ">
<path fill="none" stroke="#63b8ff" d="M310.51,-120.86C365.81,-121.8 447.72,-122.15 519,-118.25 526.93,-117.82 535.16,-117.22 543.4,-116.53"/>
<polygon fill="#63b8ff" stroke="#63b8ff" points="543.46,-120.04 553.11,-115.66 542.84,-113.07 543.46,-120.04"/>
</a>
</g>
</g>
<!-- Node2&#45;&gt;Node6 -->
<g id="edge7_Node000002_Node000006" class="edge">
<title>Node2&#45;&gt;Node6</title>
<g id="a_edge7_Node000002_Node000006"><a xlink:title=" ">
<path fill="none" stroke="#63b8ff" d="M310.62,-104.87C327.63,-101.07 346.15,-96.93 363.68,-93.02"/>
<polygon fill="#63b8ff" stroke="#63b8ff" points="363.97,-96.54 372.97,-90.94 362.44,-89.71 363.97,-96.54"/>
</a>
</g>
</g>
<!-- Node3&#45;&gt;Node3 -->
<g id="edge6_Node000003_Node000003" class="edge">
<title>Node3&#45;&gt;Node3</title>
<g id="a_edge6_Node000003_Node000003"><a xlink:title=" ">
<path fill="none" stroke="#63b8ff" d="M601.18,-121.99C594.67,-131.06 605.31,-139.5 633.12,-139.5 648.33,-139.5 658.41,-136.97 663.35,-133.2"/>
<polygon fill="#63b8ff" stroke="#63b8ff" points="666.79,-133.9 664.84,-123.48 659.87,-132.84 666.79,-133.9"/>
</a>
</g>
</g>
<!-- Node4 -->
<g id="Node000004" class="node">
<title>Node4</title>
<g id="a_Node000004"><a xlink:href="class_a_q_n_w_b_1_1_n_w_b_1_1_container.html#a0ec16ae5d28267ea37464ffe2c2c34e5" target="_top" xlink:title="Constructor.">
<polygon fill="white" stroke="#666666" points="879.5,-121.5 747.25,-121.5 747.25,-91 879.5,-91 879.5,-121.5"/>
<text xml:space="preserve" text-anchor="start" x="755.25" y="-108" font-family="Helvetica,sans-Serif" font-size="10.00">AQNWB::NWB::Container</text>
<text xml:space="preserve" text-anchor="middle" x="813.38" y="-96.75" font-family="Helvetica,sans-Serif" font-size="10.00">::Container</text>
</a>
</g>
</g>
<!-- Node3&#45;&gt;Node4 -->
<g id="edge3_Node000003_Node000004" class="edge">
<title>Node3&#45;&gt;Node4</title>
<g id="a_edge3_Node000003_Node000004"><a xlink:title=" ">
<path fill="none" stroke="#63b8ff" d="M711.53,-106.25C719.42,-106.25 727.44,-106.25 735.32,-106.25"/>
<polygon fill="#63b8ff" stroke="#63b8ff" points="735.24,-109.75 745.24,-106.25 735.24,-102.75 735.24,-109.75"/>
</a>
</g>
</g>
<!-- Node4&#45;&gt;Node4 -->
<g id="edge4_Node000004_Node000004" class="edge">
<title>Node4&#45;&gt;Node4</title>
<g id="a_edge4_Node000004_Node000004"><a xlink:title=" ">
<path fill="none" stroke="#63b8ff" d="M781.43,-121.99C774.92,-131.06 785.56,-139.5 813.38,-139.5 828.58,-139.5 838.66,-136.97 843.6,-133.2"/>
<polygon fill="#63b8ff" stroke="#63b8ff" points="847.04,-133.9 845.09,-123.48 840.12,-132.84 847.04,-133.9"/>
</a>
</g>
</g>
<!-- Node5 -->
<g id="Node000005" class="node">
<title>Node5</title>
<g id="a_Node000005"><a xlink:href="class_a_q_n_w_b_1_1_n_w_b_1_1_registered_type.html#aa1e04074725b7331d725bbda8156bc2d" target="_top" xlink:title="Constructor.">
<polygon fill="white" stroke="#666666" points="1074,-121.5 915.5,-121.5 915.5,-91 1074,-91 1074,-121.5"/>
<text xml:space="preserve" text-anchor="start" x="923.5" y="-108" font-family="Helvetica,sans-Serif" font-size="10.00">AQNWB::NWB::RegisteredType</text>
<text xml:space="preserve" text-anchor="middle" x="994.75" y="-96.75" font-family="Helvetica,sans-Serif" font-size="10.00">::RegisteredType</text>
</a>
</g>
</g>
<!-- Node4&#45;&gt;Node5 -->
<g id="edge5_Node000004_Node000005" class="edge">
<title>Node4&#45;&gt;Node5</title>
<g id="a_edge5_Node000004_Node000005"><a xlink:title=" ">
<path fill="none" stroke="#63b8ff" d="M879.89,-106.25C887.72,-106.25 895.81,-106.25 903.89,-106.25"/>
<polygon fill="#63b8ff" stroke="#63b8ff" points="903.79,-109.75 913.79,-106.25 903.79,-102.75 903.79,-109.75"/>
</a>
</g>
</g>
<!-- Node6&#45;&gt;Node3 -->
<g id="edge8_Node000006_Node000003" class="edge">
<title>Node6&#45;&gt;Node3</title>
<g id="a_edge8_Node000006_Node000003"><a xlink:title=" ">
<path fill="none" stroke="#63b8ff" d="M505.01,-86.32C517.35,-88.26 530.48,-90.32 543.44,-92.35"/>
<polygon fill="#63b8ff" stroke="#63b8ff" points="542.85,-95.8 553.27,-93.89 543.93,-88.88 542.85,-95.8"/>
</a>
</g>
</g>
<!-- Node6&#45;&gt;Node6 -->
<g id="edge9_Node000006_Node000006" class="edge">
<title>Node6&#45;&gt;Node6</title>
<g id="a_edge9_Node000006_Node000006"><a xlink:title=" ">
<path fill="none" stroke="#63b8ff" d="M405.48,-91.99C398.49,-101.06 409.91,-109.5 439.75,-109.5 456.07,-109.5 466.88,-106.97 472.18,-103.2"/>
<polygon fill="#63b8ff" stroke="#63b8ff" points="475.61,-103.91 473.77,-93.48 468.7,-102.78 475.61,-103.91"/>
</a>
</g>
</g>
<!-- Node7&#45;&gt;Node7 -->
<g id="edge11_Node000007_Node000007" class="edge">
<title>Node7&#45;&gt;Node7</title>
<g id="a_edge11_Node000007_Node000007"><a xlink:title=" ">
<path fill="none" stroke="#63b8ff" d="M213.31,-30.99C206.79,-40.06 217.44,-48.5 245.25,-48.5 260.46,-48.5 270.54,-45.97 275.48,-42.2"/>
<polygon fill="#63b8ff" stroke="#63b8ff" points="278.91,-42.9 276.96,-32.48 271.99,-41.84 278.91,-42.9"/>
</a>
</g>
</g>
<!-- Node8 -->
<g id="Node000008" class="node">
<title>Node8</title>
<g id="a_Node000008"><a xlink:href="class_a_q_n_w_b_1_1_n_w_b_1_1_registered_type.html#ac83aa589b9c3ab5a00bab462e58fdbd5" target="_top" xlink:title="Get the factory map for creating instances of subclasses.">
<polygon fill="white" stroke="#666666" points="519,-30.5 360.5,-30.5 360.5,0 519,0 519,-30.5"/>
<text xml:space="preserve" text-anchor="start" x="368.5" y="-17" font-family="Helvetica,sans-Serif" font-size="10.00">AQNWB::NWB::RegisteredType</text>
<text xml:space="preserve" text-anchor="middle" x="439.75" y="-5.75" font-family="Helvetica,sans-Serif" font-size="10.00">::getFactoryMap</text>
</a>
</g>
</g>
<!-- Node7&#45;&gt;Node8 -->
<g id="edge12_Node000007_Node000008" class="edge">
<title>Node7&#45;&gt;Node8</title>
<g id="a_edge12_Node000007_Node000008"><a xlink:title=" ">
<path fill="none" stroke="#63b8ff" d="M324.82,-15.25C332.74,-15.25 340.82,-15.25 348.84,-15.25"/>
<polygon fill="#63b8ff" stroke="#63b8ff" points="348.6,-18.75 358.6,-15.25 348.6,-11.75 348.6,-18.75"/>
</a>
</g>
</g>
</g>
</svg>
