<?xml version="1.0" encoding="UTF-8" standalone="no"?>
<!DOCTYPE svg PUBLIC "-//W3C//DTD SVG 1.1//EN"
 "http://www.w3.org/Graphics/SVG/1.1/DTD/svg11.dtd">
<!-- Generated by graphviz version 14.1.0 (20251206.1807)
 -->
<!-- Title: AQNWB::NWB::NWBFile::createAquisitionSeries Pages: 1 -->
<!--zoomable 235 -->

<svg id="main" version="1.1" xmlns="http://www.w3.org/2000/svg" xmlns:xlink="http://www.w3.org/1999/xlink" xml:space="preserve" onload="init(evt)">

<style type="text/css"><![CDATA[
.node, .edge {opacity: 0.7;}
.node.selected, .edge.selected {opacity: 1;}
.edge:hover path { stroke: red; }
.edge:hover polygon { stroke: red; fill: red; }
]]></style>

<defs>
  <circle id="rim" cx="0" cy="0" r="7"/>
  <circle id="rim2" cx="0" cy="0" r="3.5"/>
  <g id="zoomPlus">
    <use xlink:href="#rim" fill="#404040"><set attributeName="fill" to="#808080" begin="zoomplus.mouseover" end="zoomplus.mouseout"/></use>
    <path d="M-4,0h8M0,-4v8" fill="none" stroke="white" stroke-width="1.5" pointer-events="none"/>
  </g>
  <g id="zoomMin">
    <use xlink:href="#rim" fill="#404040"><set attributeName="fill" to="#808080" begin="zoomminus.mouseover" end="zoomminus.mouseout"/></use>
    <path d="M-4,0h8" fill="none" stroke="white" stroke-width="1.5" pointer-events="none"/>
  </g>
  <g id="arrowUp" transform="translate(30 24)">
    <use xlink:href="#rim"/>
    <path pointer-events="none" fill="none" stroke="white" stroke-width="1.5" d="M0,-3.0v7 M-2.5,-0.5L0,-3.0L2.5,-0.5"/>
  </g>
  <g id="arrowRight" transform="rotate(90) translate(36 -43)">
    <use xlink:href="#rim"/>
    <path pointer-events="none" fill="none" stroke="white" stroke-width="1.5" d="M0,-3.0v7 M-2.5,-0.5L0,-3.0L2.5,-0.5"/>
  </g>
  <g id="arrowDown" transform="rotate(180) translate(-30 -48)">
    <use xlink:href="#rim"/>
    <path pointer-events="none" fill="none" stroke="white" stroke-width="1.5" d="M0,-3.0v7 M-2.5,-0.5L0,-3.0L2.5,-0.5"/>
  </g>
  <g id="arrowLeft" transform="rotate(270) translate(-36 17)">
    <use xlink:href="#rim"/>
    <path pointer-events="none" fill="none" stroke="white" stroke-width="1.5" d="M0,-3.0v7 M-2.5,-0.5L0,-3.0L2.5,-0.5"/>
  </g>
  <g id="resetDef">
    <use xlink:href="#rim2" fill="#404040"><set attributeName="fill" to="#808080" begin="reset.mouseover" end="reset.mouseout"/></use>
  </g>
</defs>
<script type="application/ecmascript">
var viewWidth = 672;
var viewHeight = 235;
var sectionId = 'dynsection-9';
</script>
<script type="application/ecmascript" xlink:href="svg.min.js"/>
<svg id="graph" class="graph">
<g id="viewport">
<title>AQNWB::NWB::NWBFile::createAquisitionSeries</title>
<!-- Node1 -->
<g id="Node000001" class="node">
<title>Node1</title>
<g id="a_Node000001"><a xlink:title=" ">
<polygon fill="#999999" stroke="#666666" points="130,-173.5 0,-173.5 0,-143 130,-143 130,-173.5"/>
<text xml:space="preserve" text-anchor="start" x="8" y="-160" font-family="Helvetica,sans-Serif" font-size="10.00">AQNWB::NWB::NWBFile</text>
<text xml:space="preserve" text-anchor="middle" x="65" y="-148.75" font-family="Helvetica,sans-Serif" font-size="10.00">::createAquisitionSeries</text>
</a>
</g>
</g>
<!-- Node2 -->
<g id="Node000002" class="node">
<title>Node2</title>
<g id="a_Node000002"><a xlink:href="class_a_q_n_w_b_1_1_n_w_b_1_1_n_w_b_file.html#aaf2e07b4e912fc34ab052d38f92e6cdd" target="_top" xlink:title="Saves the specification files for the schema.">
<polygon fill="white" stroke="#666666" points="488.62,-226.5 358.62,-226.5 358.62,-196 488.62,-196 488.62,-226.5"/>
<text xml:space="preserve" text-anchor="start" x="366.62" y="-213" font-family="Helvetica,sans-Serif" font-size="10.00">AQNWB::NWB::NWBFile</text>
<text xml:space="preserve" text-anchor="middle" x="423.62" y="-201.75" font-family="Helvetica,sans-Serif" font-size="10.00">::cacheSpecifications</text>
</a>
</g>
</g>
<!-- Node1&#45;&gt;Node2 -->
<g id="edge1_Node000001_Node000002" class="edge">
<title>Node1&#45;&gt;Node2</title>
<g id="a_edge1_Node000001_Node000002"><a xlink:title=" ">
<path fill="none" stroke="#63b8ff" d="M130.17,-167.79C191.08,-176.84 282.66,-190.45 347.07,-200.02"/>
<polygon fill="#63b8ff" stroke="#63b8ff" points="346.47,-203.47 356.87,-201.48 347.5,-196.55 346.47,-203.47"/>
</a>
</g>
</g>
<!-- Node4 -->
<g id="Node000004" class="node">
<title>Node4</title>
<g id="a_Node000004"><a xlink:href="class_a_q_n_w_b_1_1_n_w_b_1_1_n_w_b_file.html#a71bd7b910a7ec89bdaf36304d67bfef1" target="_top" xlink:title="Creates the default file structure. Note, this function will fail if the file is in a mode where new ...">
<polygon fill="white" stroke="#666666" points="296,-152.5 166,-152.5 166,-122 296,-122 296,-152.5"/>
<text xml:space="preserve" text-anchor="start" x="174" y="-139" font-family="Helvetica,sans-Serif" font-size="10.00">AQNWB::NWB::NWBFile</text>
<text xml:space="preserve" text-anchor="middle" x="231" y="-127.75" font-family="Helvetica,sans-Serif" font-size="10.00">::createFileStructure</text>
</a>
</g>
</g>
<!-- Node1&#45;&gt;Node4 -->
<g id="edge3_Node000001_Node000004" class="edge">
<title>Node1&#45;&gt;Node4</title>
<g id="a_edge3_Node000001_Node000004"><a xlink:title=" ">
<path fill="none" stroke="#63b8ff" d="M130.35,-150.01C138.21,-149 146.31,-147.97 154.33,-146.94"/>
<polygon fill="#63b8ff" stroke="#63b8ff" points="154.59,-150.43 164.07,-145.69 153.71,-143.49 154.59,-150.43"/>
</a>
</g>
</g>
<!-- Node3 -->
<g id="Node000003" class="node">
<title>Node3</title>
<g id="a_Node000003"><a xlink:href="namespace_a_q_n_w_b.html#a31983dbaaa85c2e355b9687fc0ef1881" target="_top" xlink:title="Merge two paths into a single path, handling extra trailing and starting &quot;/&quot;.">
<polygon fill="white" stroke="#666666" points="664,-220.88 551.25,-220.88 551.25,-201.62 664,-201.62 664,-220.88"/>
<text xml:space="preserve" text-anchor="middle" x="607.62" y="-207.38" font-family="Helvetica,sans-Serif" font-size="10.00">AQNWB::mergePaths</text>
</a>
</g>
</g>
<!-- Node2&#45;&gt;Node3 -->
<g id="edge2_Node000002_Node000003" class="edge">
<title>Node2&#45;&gt;Node3</title>
<g id="a_edge2_Node000002_Node000003"><a xlink:title=" ">
<path fill="none" stroke="#63b8ff" d="M489.05,-211.25C505.5,-211.25 523.22,-211.25 539.79,-211.25"/>
<polygon fill="#63b8ff" stroke="#63b8ff" points="539.53,-214.75 549.53,-211.25 539.53,-207.75 539.53,-214.75"/>
</a>
</g>
</g>
<!-- Node4&#45;&gt;Node2 -->
<g id="edge4_Node000004_Node000002" class="edge">
<title>Node4&#45;&gt;Node2</title>
<g id="a_edge4_Node000004_Node000002"><a xlink:title=" ">
<path fill="none" stroke="#63b8ff" d="M260.25,-152.86C279.94,-163.29 307.05,-176.79 332,-186.25 337.53,-188.35 343.31,-190.35 349.17,-192.25"/>
<polygon fill="#63b8ff" stroke="#63b8ff" points="347.7,-195.46 358.29,-195.09 349.78,-188.77 347.7,-195.46"/>
</a>
</g>
</g>
<!-- Node5 -->
<g id="Node000005" class="node">
<title>Node5</title>
<g id="a_Node000005"><a xlink:href="class_a_q_n_w_b_1_1_s_p_e_c_1_1_namespace_registry.html#aceded37c693bb2f6aa21a5945a13557c" target="_top" xlink:title="Get all registered namespaces.">
<polygon fill="white" stroke="#666666" points="515.25,-177.5 332,-177.5 332,-147 515.25,-147 515.25,-177.5"/>
<text xml:space="preserve" text-anchor="start" x="340" y="-164" font-family="Helvetica,sans-Serif" font-size="10.00">AQNWB::SPEC::NamespaceRegistry</text>
<text xml:space="preserve" text-anchor="middle" x="423.62" y="-152.75" font-family="Helvetica,sans-Serif" font-size="10.00">::getAllNamespaces</text>
</a>
</g>
</g>
<!-- Node4&#45;&gt;Node5 -->
<g id="edge5_Node000004_Node000005" class="edge">
<title>Node4&#45;&gt;Node5</title>
<g id="a_edge5_Node000004_Node000005"><a xlink:title=" ">
<path fill="none" stroke="#63b8ff" d="M296.27,-145.68C304.07,-146.7 312.19,-147.77 320.37,-148.84"/>
<polygon fill="#63b8ff" stroke="#63b8ff" points="319.68,-152.28 330.05,-150.11 320.59,-145.34 319.68,-152.28"/>
</a>
</g>
</g>
<!-- Node6 -->
<g id="Node000006" class="node">
<title>Node6</title>
<g id="a_Node000006"><a xlink:href="class_a_q_n_w_b_1_1_n_w_b_1_1_registered_type.html#a651f3d7e5cc28dc93888e8a821c5aa1c" target="_top" xlink:title="Get the schema namespace of the class type.">
<polygon fill="white" stroke="#666666" points="502.88,-128.5 344.38,-128.5 344.38,-98 502.88,-98 502.88,-128.5"/>
<text xml:space="preserve" text-anchor="start" x="352.38" y="-115" font-family="Helvetica,sans-Serif" font-size="10.00">AQNWB::NWB::RegisteredType</text>
<text xml:space="preserve" text-anchor="middle" x="423.62" y="-103.75" font-family="Helvetica,sans-Serif" font-size="10.00">::getNamespace</text>
</a>
</g>
</g>
<!-- Node4&#45;&gt;Node6 -->
<g id="edge6_Node000004_Node000006" class="edge">
<title>Node4&#45;&gt;Node6</title>
<g id="a_edge6_Node000004_Node000006"><a xlink:title=" ">
<path fill="none" stroke="#63b8ff" d="M296.27,-129.16C308.02,-127.68 320.48,-126.11 332.81,-124.56"/>
<polygon fill="#63b8ff" stroke="#63b8ff" points="333.1,-128.05 342.58,-123.33 332.22,-121.1 333.1,-128.05"/>
</a>
</g>
</g>
<!-- Node7 -->
<g id="Node000007" class="node">
<title>Node7</title>
<g id="a_Node000007"><a xlink:href="class_a_q_n_w_b_1_1_n_w_b_1_1_registered_type.html#a150f881ad61cb8352eea7ddba47bc6ad" target="_top" xlink:title="Get the name of the class type.">
<polygon fill="white" stroke="#666666" points="502.88,-79.5 344.38,-79.5 344.38,-49 502.88,-49 502.88,-79.5"/>
<text xml:space="preserve" text-anchor="start" x="352.38" y="-66" font-family="Helvetica,sans-Serif" font-size="10.00">AQNWB::NWB::RegisteredType</text>
<text xml:space="preserve" text-anchor="middle" x="423.62" y="-54.75" font-family="Helvetica,sans-Serif" font-size="10.00">::getTypeName</text>
</a>
</g>
</g>
<!-- Node4&#45;&gt;Node7 -->
<g id="edge7_Node000004_Node000007" class="edge">
<title>Node4&#45;&gt;Node7</title>
<g id="a_edge7_Node000004_Node000007"><a xlink:title=" ">
<path fill="none" stroke="#63b8ff" d="M261.15,-121.55C280.78,-111.41 307.47,-98.44 332,-89.25 337.64,-87.14 343.53,-85.12 349.49,-83.2"/>
<polygon fill="#63b8ff" stroke="#63b8ff" points="350.28,-86.62 358.8,-80.33 348.21,-79.94 350.28,-86.62"/>
</a>
</g>
</g>
<!-- Node8 -->
<g id="Node000008" class="node">
<title>Node8</title>
<g id="a_Node000008"><a xlink:href="class_a_q_n_w_b_1_1_s_p_e_c_1_1_namespace_registry.html#a15d9c6f869f0270ad91a2af8067f5a88" target="_top" xlink:title="Get the singleton instance of the NamespaceRegistry.">
<polygon fill="white" stroke="#666666" points="515.25,-30.5 332,-30.5 332,0 515.25,0 515.25,-30.5"/>
<text xml:space="preserve" text-anchor="start" x="340" y="-17" font-family="Helvetica,sans-Serif" font-size="10.00">AQNWB::SPEC::NamespaceRegistry</text>
<text xml:space="preserve" text-anchor="middle" x="423.62" y="-5.75" font-family="Helvetica,sans-Serif" font-size="10.00">::instance</text>
</a>
</g>
</g>
<!-- Node4&#45;&gt;Node8 -->
<g id="edge8_Node000004_Node000008" class="edge">
<title>Node4&#45;&gt;Node8</title>
<g id="a_edge8_Node000004_Node000008"><a xlink:title=" ">
<path fill="none" stroke="#63b8ff" d="M243.79,-121.68C260.88,-100.17 294.63,-61.63 332,-40.25 335.02,-38.52 338.16,-36.91 341.39,-35.4"/>
<polygon fill="#63b8ff" stroke="#63b8ff" points="342.69,-38.65 350.54,-31.54 339.97,-32.21 342.69,-38.65"/>
</a>
</g>
</g>
</g>
</svg>

<g id="navigator" transform="translate(0 0)" fill="#404254">
  <rect fill="#f2f5e9" fill-opacity="0.5" stroke="#606060" stroke-width=".5" x="0" y="0" width="60" height="60"/>
  <use id="zoomplus" xlink:href="#zoomPlus" x="17" y="9" onmousedown="handleZoom(evt,'in')"/>
  <use id="zoomminus" xlink:href="#zoomMin" x="42" y="9" onmousedown="handleZoom(evt,'out')"/>
  <use id="reset" xlink:href="#resetDef" x="30" y="36" onmousedown="handleReset()"/>
   <use id="arrowup" xlink:href="#arrowUp" x="0" y="0" onmousedown="handlePan(0,-1)"/>
  <use id="arrowright" xlink:href="#arrowRight" x="0" y="0" onmousedown="handlePan(1,0)"/>
  <use id="arrowdown" xlink:href="#arrowDown" x="0" y="0" onmousedown="handlePan(0,1)"/>
  <use id="arrowleft" xlink:href="#arrowLeft" x="0" y="0" onmousedown="handlePan(-1,0)"/>
</g>
<svg viewBox="0 0 15 15" width="100%" height="30px" preserveAspectRatio="xMaxYMin meet">
 <g id="arrow_out" transform="scale(0.3 0.3)">
  <a xlink:href="class_a_q_n_w_b_1_1_n_w_b_1_1_n_w_b_file_a116bb371a6ef2fec0a442530ce4c5344_cgraph_org.svg" target="_base">
   <rect id="button" ry="5" rx="5" y="6" x="6" height="38" width="38"
        fill="#f2f5e9" fill-opacity="0.5" stroke="#606060" stroke-width="1.0"/>
   <path id="arrow"
     d="M 11.500037,31.436501 C 11.940474,20.09759 22.043105,11.32322 32.158766,21.979434 L 37.068811,17.246167 C 37.068811,17.246167 37.088388,32 37.088388,32 L 22.160133,31.978069 C 22.160133,31.978069 26.997745,27.140456 26.997745,27.140456 C 18.528582,18.264221 13.291696,25.230495 11.500037,31.436501 z"
     style="fill:#404040;"/>
  </a>
 </g>
</svg>

<style type='text/css'>
<![CDATA[
[data-mouse-over-selected='false'] { opacity: 0.7; }
[data-mouse-over-selected='true']  { opacity: 1.0; }
]]>
</style>
<script type="application/ecmascript"><![CDATA[
document.addEventListener('DOMContentLoaded', (event) => {
  highlightEdges();
  highlightAdjacentNodes();
});
]]></script>
</svg>
