<?xml version="1.0" encoding="UTF-8" standalone="no"?>
<!DOCTYPE svg PUBLIC "-//W3C//DTD SVG 1.1//EN"
 "http://www.w3.org/Graphics/SVG/1.1/DTD/svg11.dtd">
<!-- Generated by graphviz version 13.1.2 (20250808.2320)
 -->
<!-- Title: AQNWB::IO::HDF5::HDF5IO::createStringDataSet Pages: 1 -->
<svg width="535pt" height="131pt"
 viewBox="0.00 0.00 535.00 131.00" xmlns="http://www.w3.org/2000/svg" xmlns:xlink="http://www.w3.org/1999/xlink">
<g id="graph0" class="graph" transform="scale(1 1) rotate(0) translate(4 126.5)">
<title>AQNWB::IO::HDF5::HDF5IO::createStringDataSet</title>
<!-- Node1 -->
<g id="Node000001" class="node">
<title>Node1</title>
<g id="a_Node000001"><a xlink:title="Creates a non&#45;modifiable dataset with a string value.">
<polygon fill="#999999" stroke="#666666" points="145.75,-73.5 0,-73.5 0,-43 145.75,-43 145.75,-73.5"/>
<text xml:space="preserve" text-anchor="start" x="8" y="-60" font-family="Helvetica,sans-Serif" font-size="10.00">AQNWB::IO::HDF5::HDF5IO</text>
<text xml:space="preserve" text-anchor="middle" x="72.88" y="-48.75" font-family="Helvetica,sans-Serif" font-size="10.00">::createStringDataSet</text>
</a>
</g>
</g>
<!-- Node2 -->
<g id="Node000002" class="node">
<title>Node2</title>
<g id="a_Node000002"><a xlink:href="class_a_q_n_w_b_1_1_i_o_1_1_h_d_f5_1_1_h_d_f5_i_o.html#a96d8d872b2b974ac79a20b82fd72c5c2" target="_top" xlink:title="Checks whether the file is in a mode where objects can be added or deleted. Note, this does not apply...">
<polygon fill="white" stroke="#666666" points="338.38,-122.5 192.62,-122.5 192.62,-92 338.38,-92 338.38,-122.5"/>
<text xml:space="preserve" text-anchor="start" x="200.62" y="-109" font-family="Helvetica,sans-Serif" font-size="10.00">AQNWB::IO::HDF5::HDF5IO</text>
<text xml:space="preserve" text-anchor="middle" x="265.5" y="-97.75" font-family="Helvetica,sans-Serif" font-size="10.00">::canModifyObjects</text>
</a>
</g>
</g>
<!-- Node1&#45;&gt;Node2 -->
<g id="edge1_Node000001_Node000002" class="edge">
<title>Node1&#45;&gt;Node2</title>
<g id="a_edge1_Node000001_Node000002"><a xlink:title=" ">
<path fill="none" stroke="#63b8ff" d="M134.98,-73.96C153.27,-78.66 173.51,-83.86 192.45,-88.73"/>
<polygon fill="#63b8ff" stroke="#63b8ff" points="191.4,-92.07 201.95,-91.17 193.14,-85.29 191.4,-92.07"/>
</a>
</g>
</g>
<!-- Node3 -->
<g id="Node000003" class="node">
<title>Node3</title>
<g id="a_Node000003"><a xlink:href="class_a_q_n_w_b_1_1_i_o_1_1_h_d_f5_1_1_h_d_f5_i_o.html#acdb9d079f684ceb29d16ebc5e7e57127" target="_top" xlink:title="Returns the HDF5 data type for a given base data type.">
<polygon fill="white" stroke="#666666" points="338.38,-73.5 192.62,-73.5 192.62,-43 338.38,-43 338.38,-73.5"/>
<text xml:space="preserve" text-anchor="start" x="200.62" y="-60" font-family="Helvetica,sans-Serif" font-size="10.00">AQNWB::IO::HDF5::HDF5IO</text>
<text xml:space="preserve" text-anchor="middle" x="265.5" y="-48.75" font-family="Helvetica,sans-Serif" font-size="10.00">::getH5Type</text>
</a>
</g>
</g>
<!-- Node1&#45;&gt;Node3 -->
<g id="edge2_Node000001_Node000003" class="edge">
<title>Node1&#45;&gt;Node3</title>
<g id="a_edge2_Node000001_Node000003"><a xlink:title=" ">
<path fill="none" stroke="#63b8ff" d="M146.21,-58.25C157.51,-58.25 169.26,-58.25 180.79,-58.25"/>
<polygon fill="#63b8ff" stroke="#63b8ff" points="180.7,-61.75 190.7,-58.25 180.7,-54.75 180.7,-61.75"/>
</a>
</g>
</g>
<!-- Node4 -->
<g id="Node000004" class="node">
<title>Node4</title>
<g id="a_Node000004"><a xlink:href="class_a_q_n_w_b_1_1_i_o_1_1_base_data_type.html#a18d42dba7074fb4cdac771deef6c051b" target="_top" xlink:title="Accessor for string with specified size.">
<polygon fill="white" stroke="#666666" points="349.25,-24.88 181.75,-24.88 181.75,-5.63 349.25,-5.63 349.25,-24.88"/>
<text xml:space="preserve" text-anchor="middle" x="265.5" y="-11.38" font-family="Helvetica,sans-Serif" font-size="10.00">AQNWB::IO::BaseDataType::STR</text>
</a>
</g>
</g>
<!-- Node1&#45;&gt;Node4 -->
<g id="edge3_Node000001_Node000004" class="edge">
<title>Node1&#45;&gt;Node4</title>
<g id="a_edge3_Node000001_Node000004"><a xlink:title=" ">
<path fill="none" stroke="#63b8ff" d="M143.5,-42.54C164.95,-37.71 188.27,-32.44 208.67,-27.84"/>
<polygon fill="#63b8ff" stroke="#63b8ff" points="209.2,-31.31 218.19,-25.7 207.66,-24.48 209.2,-31.31"/>
</a>
</g>
</g>
<!-- Node5 -->
<g id="Node000005" class="node">
<title>Node5</title>
<g id="a_Node000005"><a xlink:href="class_a_q_n_w_b_1_1_i_o_1_1_base_data_type.html#abb1e4b6b662308e48b6b4a7ad989d157" target="_top" xlink:title="Constructs a BaseDataType object with the specified type and size.">
<polygon fill="white" stroke="#666666" points="526.5,-30.5 385.25,-30.5 385.25,0 526.5,0 526.5,-30.5"/>
<text xml:space="preserve" text-anchor="start" x="393.25" y="-17" font-family="Helvetica,sans-Serif" font-size="10.00">AQNWB::IO::BaseDataType</text>
<text xml:space="preserve" text-anchor="middle" x="455.88" y="-5.75" font-family="Helvetica,sans-Serif" font-size="10.00">::BaseDataType</text>
</a>
</g>
</g>
<!-- Node4&#45;&gt;Node5 -->
<g id="edge4_Node000004_Node000005" class="edge">
<title>Node4&#45;&gt;Node5</title>
<g id="a_edge4_Node000004_Node000005"><a xlink:title=" ">
<path fill="none" stroke="#63b8ff" d="M349.67,-15.25C357.55,-15.25 365.54,-15.25 373.4,-15.25"/>
<polygon fill="#63b8ff" stroke="#63b8ff" points="373.3,-18.75 383.3,-15.25 373.3,-11.75 373.3,-18.75"/>
</a>
</g>
</g>
</g>
</svg>
