<?xml version="1.0" encoding="UTF-8" standalone="no"?>
<!DOCTYPE svg PUBLIC "-//W3C//DTD SVG 1.1//EN"
 "http://www.w3.org/Graphics/SVG/1.1/DTD/svg11.dtd">
<!-- Generated by graphviz version 14.0.5 (20251129.0259)
 -->
<!-- Title: AQNWB::IO::HDF5::HDF5IO::canModifyObjects Pages: 1 -->
<svg width="517pt" height="505pt"
 viewBox="0.00 0.00 517.00 505.00" xmlns="http://www.w3.org/2000/svg" xmlns:xlink="http://www.w3.org/1999/xlink">
<g id="graph0" class="graph" transform="scale(1 1) rotate(0) translate(4 500.5)">
<title>AQNWB::IO::HDF5::HDF5IO::canModifyObjects</title>
<!-- Node1 -->
<g id="Node000001" class="node">
<title>Node1</title>
<g id="a_Node000001"><a xlink:title="Checks whether the file is in a mode where objects can be added or deleted. Note, this does not apply...">
<polygon fill="#999999" stroke="#666666" points="509.25,-263.5 363.5,-263.5 363.5,-233 509.25,-233 509.25,-263.5"/>
<text xml:space="preserve" text-anchor="start" x="371.5" y="-250" font-family="Helvetica,sans-Serif" font-size="10.00">AQNWB::IO::HDF5::HDF5IO</text>
<text xml:space="preserve" text-anchor="middle" x="436.38" y="-238.75" font-family="Helvetica,sans-Serif" font-size="10.00">::canModifyObjects</text>
</a>
</g>
</g>
<!-- Node2 -->
<g id="Node000002" class="node">
<title>Node2</title>
<g id="a_Node000002"><a xlink:href="class_a_q_n_w_b_1_1_i_o_1_1_h_d_f5_1_1_h_d_f5_i_o.html#a0b301f91a26412d2f1a36f233f7099db" target="_top" xlink:title="Creates an extendable dataset with the given configuration and path.">
<polygon fill="white" stroke="#666666" points="327.5,-496.5 181.75,-496.5 181.75,-466 327.5,-466 327.5,-496.5"/>
<text xml:space="preserve" text-anchor="start" x="189.75" y="-483" font-family="Helvetica,sans-Serif" font-size="10.00">AQNWB::IO::HDF5::HDF5IO</text>
<text xml:space="preserve" text-anchor="middle" x="254.62" y="-471.75" font-family="Helvetica,sans-Serif" font-size="10.00">::createArrayDataSet</text>
</a>
</g>
</g>
<!-- Node1&#45;&gt;Node2 -->
<g id="edge1_Node000001_Node000002" class="edge">
<title>Node1&#45;&gt;Node2</title>
<g id="a_edge1_Node000001_Node000002"><a xlink:title=" ">
<path fill="none" stroke="#63b8ff" d="M427.9,-274.78C414.55,-317.67 382.7,-402.46 327.5,-452.25 321.61,-457.57 314.61,-461.97 307.33,-465.61"/>
<polygon fill="#63b8ff" stroke="#63b8ff" points="431.23,-275.89 430.75,-265.31 424.52,-273.88 431.23,-275.89"/>
</a>
</g>
</g>
<!-- Node3 -->
<g id="Node000003" class="node">
<title>Node3</title>
<g id="a_Node000003"><a xlink:href="class_a_q_n_w_b_1_1_i_o_1_1_h_d_f5_1_1_h_d_f5_i_o.html#a97653ad67ac314515362c7fe2b6fbaa1" target="_top" xlink:title="Creates a dataset that holds an array of string values.">
<polygon fill="white" stroke="#666666" points="145.75,-474.5 0,-474.5 0,-444 145.75,-444 145.75,-474.5"/>
<text xml:space="preserve" text-anchor="start" x="8" y="-461" font-family="Helvetica,sans-Serif" font-size="10.00">AQNWB::IO::HDF5::HDF5IO</text>
<text xml:space="preserve" text-anchor="middle" x="72.88" y="-449.75" font-family="Helvetica,sans-Serif" font-size="10.00">::createStringDataSet</text>
</a>
</g>
</g>
<!-- Node1&#45;&gt;Node3 -->
<g id="edge13_Node000001_Node000003" class="edge">
<title>Node1&#45;&gt;Node3</title>
<g id="a_edge13_Node000001_Node000003"><a xlink:title=" ">
<path fill="none" stroke="#63b8ff" d="M426.82,-274.32C412.72,-312.85 380.73,-384.2 327.5,-419.25 298.41,-438.4 210.35,-449.07 146.14,-454.49"/>
<polygon fill="#63b8ff" stroke="#63b8ff" points="429.96,-275.96 429.98,-265.36 423.35,-273.63 429.96,-275.96"/>
</a>
</g>
</g>
<!-- Node4 -->
<g id="Node000004" class="node">
<title>Node4</title>
<g id="a_Node000004"><a xlink:href="class_a_q_n_w_b_1_1_i_o_1_1_h_d_f5_1_1_h_d_f5_i_o.html#a7ce63eb864cc8678f4bacb5fbc695cbe" target="_top" xlink:title="Creates an attribute at a given location in the file.">
<polygon fill="white" stroke="#666666" points="327.5,-410.5 181.75,-410.5 181.75,-380 327.5,-380 327.5,-410.5"/>
<text xml:space="preserve" text-anchor="start" x="189.75" y="-397" font-family="Helvetica,sans-Serif" font-size="10.00">AQNWB::IO::HDF5::HDF5IO</text>
<text xml:space="preserve" text-anchor="middle" x="254.62" y="-385.75" font-family="Helvetica,sans-Serif" font-size="10.00">::createAttribute</text>
</a>
</g>
</g>
<!-- Node1&#45;&gt;Node4 -->
<g id="edge3_Node000001_Node000004" class="edge">
<title>Node1&#45;&gt;Node4</title>
<g id="a_edge3_Node000001_Node000004"><a xlink:title=" ">
<path fill="none" stroke="#63b8ff" d="M419.39,-272.92C400.49,-300.28 366.61,-344.02 327.5,-370.25 322.23,-373.78 316.41,-376.87 310.44,-379.55"/>
<polygon fill="#63b8ff" stroke="#63b8ff" points="422.11,-275.14 424.81,-264.9 416.31,-271.22 422.11,-275.14"/>
</a>
</g>
</g>
<!-- Node5 -->
<g id="Node000005" class="node">
<title>Node5</title>
<g id="a_Node000005"><a xlink:href="class_a_q_n_w_b_1_1_i_o_1_1_h_d_f5_1_1_h_d_f5_i_o.html#a9e25b2f9b7ea08f7ac0be2f5c3a5f123" target="_top" xlink:title="Creates a string attribute at a given location in the file.">
<polygon fill="white" stroke="#666666" points="327.5,-361.5 181.75,-361.5 181.75,-331 327.5,-331 327.5,-361.5"/>
<text xml:space="preserve" text-anchor="start" x="189.75" y="-348" font-family="Helvetica,sans-Serif" font-size="10.00">AQNWB::IO::HDF5::HDF5IO</text>
<text xml:space="preserve" text-anchor="middle" x="254.62" y="-336.75" font-family="Helvetica,sans-Serif" font-size="10.00">::createAttribute</text>
</a>
</g>
</g>
<!-- Node1&#45;&gt;Node5 -->
<g id="edge4_Node000001_Node000005" class="edge">
<title>Node1&#45;&gt;Node5</title>
<g id="a_edge4_Node000001_Node000005"><a xlink:title=" ">
<path fill="none" stroke="#63b8ff" d="M406.65,-270.73C385.61,-286.41 355.9,-307.01 327.5,-321.25 320.77,-324.63 313.47,-327.74 306.19,-330.54"/>
<polygon fill="#63b8ff" stroke="#63b8ff" points="408.6,-273.64 414.46,-264.82 404.37,-268.06 408.6,-273.64"/>
</a>
</g>
</g>
<!-- Node6 -->
<g id="Node000006" class="node">
<title>Node6</title>
<g id="a_Node000006"><a xlink:href="class_a_q_n_w_b_1_1_i_o_1_1_h_d_f5_1_1_h_d_f5_i_o.html#a6d212643870ac6b96ac08e7425a00a0a" target="_top" xlink:title="Creates an array of variable length strings attribute at a given location in the file.">
<polygon fill="white" stroke="#666666" points="327.5,-312.5 181.75,-312.5 181.75,-282 327.5,-282 327.5,-312.5"/>
<text xml:space="preserve" text-anchor="start" x="189.75" y="-299" font-family="Helvetica,sans-Serif" font-size="10.00">AQNWB::IO::HDF5::HDF5IO</text>
<text xml:space="preserve" text-anchor="middle" x="254.62" y="-287.75" font-family="Helvetica,sans-Serif" font-size="10.00">::createAttribute</text>
</a>
</g>
</g>
<!-- Node1&#45;&gt;Node6 -->
<g id="edge5_Node000001_Node000006" class="edge">
<title>Node1&#45;&gt;Node6</title>
<g id="a_edge5_Node000001_Node000006"><a xlink:title=" ">
<path fill="none" stroke="#63b8ff" d="M366.9,-266.92C349.25,-271.73 330.42,-276.86 313.37,-281.51"/>
<polygon fill="#63b8ff" stroke="#63b8ff" points="367.82,-270.29 376.55,-264.29 365.98,-263.54 367.82,-270.29"/>
</a>
</g>
</g>
<!-- Node7 -->
<g id="Node000007" class="node">
<title>Node7</title>
<g id="a_Node000007"><a xlink:href="class_a_q_n_w_b_1_1_i_o_1_1_h_d_f5_1_1_h_d_f5_i_o.html#a22f7fbb78b3b211669010cc05f61e0e4" target="_top" xlink:title="Creates a new group in the file.">
<polygon fill="white" stroke="#666666" points="327.5,-263.5 181.75,-263.5 181.75,-233 327.5,-233 327.5,-263.5"/>
<text xml:space="preserve" text-anchor="start" x="189.75" y="-250" font-family="Helvetica,sans-Serif" font-size="10.00">AQNWB::IO::HDF5::HDF5IO</text>
<text xml:space="preserve" text-anchor="middle" x="254.62" y="-238.75" font-family="Helvetica,sans-Serif" font-size="10.00">::createGroup</text>
</a>
</g>
</g>
<!-- Node1&#45;&gt;Node7 -->
<g id="edge6_Node000001_Node000007" class="edge">
<title>Node1&#45;&gt;Node7</title>
<g id="a_edge6_Node000001_Node000007"><a xlink:title=" ">
<path fill="none" stroke="#63b8ff" d="M351.79,-248.25C343.78,-248.25 335.7,-248.25 327.81,-248.25"/>
<polygon fill="#63b8ff" stroke="#63b8ff" points="351.53,-251.75 361.53,-248.25 351.53,-244.75 351.53,-251.75"/>
</a>
</g>
</g>
<!-- Node8 -->
<g id="Node000008" class="node">
<title>Node8</title>
<g id="a_Node000008"><a xlink:href="class_a_q_n_w_b_1_1_i_o_1_1_h_d_f5_1_1_h_d_f5_i_o.html#af3bc883205c98d08820bf234f42f4467" target="_top" xlink:title="Creates a new group if it does not exist.">
<polygon fill="white" stroke="#666666" points="145.75,-242.5 0,-242.5 0,-212 145.75,-212 145.75,-242.5"/>
<text xml:space="preserve" text-anchor="start" x="8" y="-229" font-family="Helvetica,sans-Serif" font-size="10.00">AQNWB::IO::HDF5::HDF5IO</text>
<text xml:space="preserve" text-anchor="middle" x="72.88" y="-217.75" font-family="Helvetica,sans-Serif" font-size="10.00">::createGroupIfDoesNotExist</text>
</a>
</g>
</g>
<!-- Node1&#45;&gt;Node8 -->
<g id="edge8_Node000001_Node000008" class="edge">
<title>Node1&#45;&gt;Node8</title>
<g id="a_edge8_Node000001_Node000008"><a xlink:title=" ">
<path fill="none" stroke="#63b8ff" d="M364.47,-230.17C352.22,-227.71 339.55,-225.57 327.5,-224.25 266.55,-217.55 196.86,-219.03 145.98,-221.77"/>
<polygon fill="#63b8ff" stroke="#63b8ff" points="363.58,-233.56 374.09,-232.19 365.02,-226.71 363.58,-233.56"/>
</a>
</g>
</g>
<!-- Node9 -->
<g id="Node000009" class="node">
<title>Node9</title>
<g id="a_Node000009"><a xlink:href="class_a_q_n_w_b_1_1_i_o_1_1_h_d_f5_1_1_h_d_f5_i_o.html#a351fa783e607e0840d5d28b3761d42ff" target="_top" xlink:title="Creates a soft link to another location in the file.">
<polygon fill="white" stroke="#666666" points="327.5,-177.5 181.75,-177.5 181.75,-147 327.5,-147 327.5,-177.5"/>
<text xml:space="preserve" text-anchor="start" x="189.75" y="-164" font-family="Helvetica,sans-Serif" font-size="10.00">AQNWB::IO::HDF5::HDF5IO</text>
<text xml:space="preserve" text-anchor="middle" x="254.62" y="-152.75" font-family="Helvetica,sans-Serif" font-size="10.00">::createLink</text>
</a>
</g>
</g>
<!-- Node1&#45;&gt;Node9 -->
<g id="edge9_Node000001_Node000009" class="edge">
<title>Node1&#45;&gt;Node9</title>
<g id="a_edge9_Node000001_Node000009"><a xlink:title=" ">
<path fill="none" stroke="#63b8ff" d="M397.93,-227.25C377.39,-216.04 351.33,-202.32 327.5,-191.25 317.61,-186.66 306.79,-182.07 296.61,-177.94"/>
<polygon fill="#63b8ff" stroke="#63b8ff" points="396.05,-230.21 406.5,-231.96 399.43,-224.08 396.05,-230.21"/>
</a>
</g>
</g>
<!-- Node10 -->
<g id="Node000010" class="node">
<title>Node10</title>
<g id="a_Node000010"><a xlink:href="class_a_q_n_w_b_1_1_i_o_1_1_h_d_f5_1_1_h_d_f5_i_o.html#a9181a28c31a25698ca748b1dcb955daa" target="_top" xlink:title="Sets an object reference attribute for a given location in the file.">
<polygon fill="white" stroke="#666666" points="327.5,-128.5 181.75,-128.5 181.75,-98 327.5,-98 327.5,-128.5"/>
<text xml:space="preserve" text-anchor="start" x="189.75" y="-115" font-family="Helvetica,sans-Serif" font-size="10.00">AQNWB::IO::HDF5::HDF5IO</text>
<text xml:space="preserve" text-anchor="middle" x="254.62" y="-103.75" font-family="Helvetica,sans-Serif" font-size="10.00">::createReferenceAttribute</text>
</a>
</g>
</g>
<!-- Node1&#45;&gt;Node10 -->
<g id="edge10_Node000001_Node000010" class="edge">
<title>Node1&#45;&gt;Node10</title>
<g id="a_edge10_Node000001_Node000010"><a xlink:title=" ">
<path fill="none" stroke="#63b8ff" d="M417,-223.75C397.32,-199.05 363.96,-161.36 327.5,-138.25 321.92,-134.71 315.78,-131.6 309.51,-128.89"/>
<polygon fill="#63b8ff" stroke="#63b8ff" points="414.01,-225.6 422.92,-231.33 419.52,-221.29 414.01,-225.6"/>
</a>
</g>
</g>
<!-- Node11 -->
<g id="Node000011" class="node">
<title>Node11</title>
<g id="a_Node000011"><a xlink:href="class_a_q_n_w_b_1_1_i_o_1_1_h_d_f5_1_1_h_d_f5_i_o.html#a43cc98ba74643c5f93fcce3f30505e1f" target="_top" xlink:title="Creates a dataset that holds an array of references to groups within the file.">
<polygon fill="white" stroke="#666666" points="327.5,-79.5 181.75,-79.5 181.75,-49 327.5,-49 327.5,-79.5"/>
<text xml:space="preserve" text-anchor="start" x="189.75" y="-66" font-family="Helvetica,sans-Serif" font-size="10.00">AQNWB::IO::HDF5::HDF5IO</text>
<text xml:space="preserve" text-anchor="middle" x="254.62" y="-54.75" font-family="Helvetica,sans-Serif" font-size="10.00">::createReferenceDataSet</text>
</a>
</g>
</g>
<!-- Node1&#45;&gt;Node11 -->
<g id="edge11_Node000001_Node000011" class="edge">
<title>Node1&#45;&gt;Node11</title>
<g id="a_edge11_Node000001_Node000011"><a xlink:title=" ">
<path fill="none" stroke="#63b8ff" d="M424.24,-222.36C407.92,-187.35 374.3,-125.17 327.5,-89.25 322.78,-85.63 317.51,-82.51 312.01,-79.83"/>
<polygon fill="#63b8ff" stroke="#63b8ff" points="420.98,-223.66 428.3,-231.32 427.36,-220.77 420.98,-223.66"/>
</a>
</g>
</g>
<!-- Node12 -->
<g id="Node000012" class="node">
<title>Node12</title>
<g id="a_Node000012"><a xlink:href="class_a_q_n_w_b_1_1_i_o_1_1_h_d_f5_1_1_h_d_f5_i_o.html#abb3541720c4613adc1c273cbe54f66a9" target="_top" xlink:title="Creates a non&#45;modifiable dataset with a string value.">
<polygon fill="white" stroke="#666666" points="327.5,-30.5 181.75,-30.5 181.75,0 327.5,0 327.5,-30.5"/>
<text xml:space="preserve" text-anchor="start" x="189.75" y="-17" font-family="Helvetica,sans-Serif" font-size="10.00">AQNWB::IO::HDF5::HDF5IO</text>
<text xml:space="preserve" text-anchor="middle" x="254.62" y="-5.75" font-family="Helvetica,sans-Serif" font-size="10.00">::createStringDataSet</text>
</a>
</g>
</g>
<!-- Node1&#45;&gt;Node12 -->
<g id="edge12_Node000001_Node000012" class="edge">
<title>Node1&#45;&gt;Node12</title>
<g id="a_edge12_Node000001_Node000012"><a xlink:title=" ">
<path fill="none" stroke="#63b8ff" d="M428.6,-221.82C416.02,-177.95 384.97,-90 327.5,-40.25 323.3,-36.62 318.55,-33.51 313.54,-30.84"/>
<polygon fill="#63b8ff" stroke="#63b8ff" points="425.16,-222.54 431.19,-231.25 431.91,-220.68 425.16,-222.54"/>
</a>
</g>
</g>
<!-- Node2&#45;&gt;Node3 -->
<g id="edge2_Node000002_Node000003" class="edge">
<title>Node2&#45;&gt;Node3</title>
<g id="a_edge2_Node000002_Node000003"><a xlink:title=" ">
<path fill="none" stroke="#63b8ff" d="M170.04,-471.02C162.03,-470.04 153.95,-469.05 146.06,-468.09"/>
<polygon fill="#63b8ff" stroke="#63b8ff" points="169.44,-474.47 179.79,-472.21 170.29,-467.52 169.44,-474.47"/>
</a>
</g>
</g>
<!-- Node7&#45;&gt;Node8 -->
<g id="edge7_Node000007_Node000008" class="edge">
<title>Node7&#45;&gt;Node8</title>
<g id="a_edge7_Node000007_Node000008"><a xlink:title=" ">
<path fill="none" stroke="#63b8ff" d="M170.04,-238.48C162.03,-237.55 153.95,-236.6 146.06,-235.68"/>
<polygon fill="#63b8ff" stroke="#63b8ff" points="169.45,-241.94 179.79,-239.62 170.26,-234.99 169.45,-241.94"/>
</a>
</g>
</g>
</g>
</svg>
