<?xml version="1.0" encoding="UTF-8" standalone="no"?>
<!DOCTYPE svg PUBLIC "-//W3C//DTD SVG 1.1//EN"
 "http://www.w3.org/Graphics/SVG/1.1/DTD/svg11.dtd">
<!-- Generated by graphviz version 13.1.2 (20250808.2320)
 -->
<!-- Title: AQNWB::NWB::RecordingContainers::writeElectricalSeriesData Pages: 1 -->
<svg width="759pt" height="186pt"
 viewBox="0.00 0.00 759.00 186.00" xmlns="http://www.w3.org/2000/svg" xmlns:xlink="http://www.w3.org/1999/xlink">
<g id="graph0" class="graph" transform="scale(1 1) rotate(0) translate(4 181.5)">
<title>AQNWB::NWB::RecordingContainers::writeElectricalSeriesData</title>
<!-- Node1 -->
<g id="Node000001" class="node">
<title>Node1</title>
<g id="a_Node000001"><a xlink:title="Write ElectricalSeries data to a recordingContainer dataset.">
<polygon fill="#999999" stroke="#666666" points="181.75,-128.5 0,-128.5 0,-98 181.75,-98 181.75,-128.5"/>
<text xml:space="preserve" text-anchor="start" x="8" y="-115" font-family="Helvetica,sans-Serif" font-size="10.00">AQNWB::NWB::RecordingContainers</text>
<text xml:space="preserve" text-anchor="middle" x="90.88" y="-103.75" font-family="Helvetica,sans-Serif" font-size="10.00">::writeElectricalSeriesData</text>
</a>
</g>
</g>
<!-- Node2 -->
<g id="Node000002" class="node">
<title>Node2</title>
<g id="a_Node000002"><a xlink:href="class_a_q_n_w_b_1_1_n_w_b_1_1_recording_containers.html#a18d797f241cbd59fd77fa68fbd392111" target="_top" xlink:title="Gets the Container object from the recordingContainers.">
<polygon fill="white" stroke="#666666" points="399.5,-177.5 217.75,-177.5 217.75,-147 399.5,-147 399.5,-177.5"/>
<text xml:space="preserve" text-anchor="start" x="225.75" y="-164" font-family="Helvetica,sans-Serif" font-size="10.00">AQNWB::NWB::RecordingContainers</text>
<text xml:space="preserve" text-anchor="middle" x="308.62" y="-152.75" font-family="Helvetica,sans-Serif" font-size="10.00">::getContainer</text>
</a>
</g>
</g>
<!-- Node1&#45;&gt;Node2 -->
<g id="edge1_Node000001_Node000002" class="edge">
<title>Node1&#45;&gt;Node2</title>
<g id="a_edge1_Node000001_Node000002"><a xlink:title=" ">
<path fill="none" stroke="#63b8ff" d="M161.03,-128.96C182.13,-133.75 205.5,-139.06 227.27,-144"/>
<polygon fill="#63b8ff" stroke="#63b8ff" points="226.49,-147.41 237.02,-146.21 228.04,-140.59 226.49,-147.41"/>
</a>
</g>
</g>
<!-- Node3 -->
<g id="Node000003" class="node">
<title>Node3</title>
<g id="a_Node000003"><a xlink:href="class_a_q_n_w_b_1_1_channel.html#ac33ad4e1c2926b7be7b8ae15350ef401" target="_top" xlink:title="Get the index of the channel within the recording array.">
<polygon fill="white" stroke="#666666" points="378.12,-128.5 239.12,-128.5 239.12,-98 378.12,-98 378.12,-128.5"/>
<text xml:space="preserve" text-anchor="start" x="247.12" y="-115" font-family="Helvetica,sans-Serif" font-size="10.00">AQNWB::Channel::getLocal</text>
<text xml:space="preserve" text-anchor="middle" x="308.62" y="-103.75" font-family="Helvetica,sans-Serif" font-size="10.00">Index</text>
</a>
</g>
</g>
<!-- Node1&#45;&gt;Node3 -->
<g id="edge2_Node000001_Node000003" class="edge">
<title>Node1&#45;&gt;Node3</title>
<g id="a_edge2_Node000001_Node000003"><a xlink:title=" ">
<path fill="none" stroke="#63b8ff" d="M182.12,-113.25C197.21,-113.25 212.78,-113.25 227.59,-113.25"/>
<polygon fill="#63b8ff" stroke="#63b8ff" points="227.24,-116.75 237.24,-113.25 227.24,-109.75 227.24,-116.75"/>
</a>
</g>
</g>
<!-- Node4 -->
<g id="Node000004" class="node">
<title>Node4</title>
<g id="a_Node000004"><a xlink:href="class_a_q_n_w_b_1_1_n_w_b_1_1_electrical_series.html#abd499ff69952a61324f86034ea91111b" target="_top" xlink:title="Writes a channel to an ElectricalSeries dataset.">
<polygon fill="white" stroke="#666666" points="387.88,-79.5 229.38,-79.5 229.38,-49 387.88,-49 387.88,-79.5"/>
<text xml:space="preserve" text-anchor="start" x="237.38" y="-66" font-family="Helvetica,sans-Serif" font-size="10.00">AQNWB::NWB::ElectricalSeries</text>
<text xml:space="preserve" text-anchor="middle" x="308.62" y="-54.75" font-family="Helvetica,sans-Serif" font-size="10.00">::writeChannel</text>
</a>
</g>
</g>
<!-- Node1&#45;&gt;Node4 -->
<g id="edge3_Node000001_Node000004" class="edge">
<title>Node1&#45;&gt;Node4</title>
<g id="a_edge3_Node000001_Node000004"><a xlink:title=" ">
<path fill="none" stroke="#63b8ff" d="M161.03,-97.54C182.13,-92.75 205.5,-87.44 227.27,-82.5"/>
<polygon fill="#63b8ff" stroke="#63b8ff" points="228.04,-85.91 237.02,-80.29 226.49,-79.09 228.04,-85.91"/>
</a>
</g>
</g>
<!-- Node5 -->
<g id="Node000005" class="node">
<title>Node5</title>
<g id="a_Node000005"><a xlink:href="class_a_q_n_w_b_1_1_n_w_b_1_1_time_series.html#a33c3c764fdf8a5db861beeabc48d78e7" target="_top" xlink:title="Writes a timeseries data block to the file.">
<polygon fill="white" stroke="#666666" points="575.25,-79.5 435.5,-79.5 435.5,-49 575.25,-49 575.25,-79.5"/>
<text xml:space="preserve" text-anchor="start" x="443.5" y="-66" font-family="Helvetica,sans-Serif" font-size="10.00">AQNWB::NWB::TimeSeries</text>
<text xml:space="preserve" text-anchor="middle" x="505.38" y="-54.75" font-family="Helvetica,sans-Serif" font-size="10.00">::writeData</text>
</a>
</g>
</g>
<!-- Node4&#45;&gt;Node5 -->
<g id="edge4_Node000004_Node000005" class="edge">
<title>Node4&#45;&gt;Node5</title>
<g id="a_edge4_Node000004_Node000005"><a xlink:title=" ">
<path fill="none" stroke="#63b8ff" d="M388.28,-64.25C400.04,-64.25 412.17,-64.25 423.97,-64.25"/>
<polygon fill="#63b8ff" stroke="#63b8ff" points="423.64,-67.75 433.64,-64.25 423.64,-60.75 423.64,-67.75"/>
</a>
</g>
</g>
<!-- Node6 -->
<g id="Node000006" class="node">
<title>Node6</title>
<g id="a_Node000006"><a xlink:href="class_a_q_n_w_b_1_1_n_w_b_1_1_time_series.html#a09ead45365072d1f2dbdfe5d628d1af4" target="_top" xlink:title=" ">
<polygon fill="white" stroke="#666666" points="751,-128.5 611.25,-128.5 611.25,-98 751,-98 751,-128.5"/>
<text xml:space="preserve" text-anchor="start" x="619.25" y="-115" font-family="Helvetica,sans-Serif" font-size="10.00">AQNWB::NWB::TimeSeries</text>
<text xml:space="preserve" text-anchor="middle" x="681.12" y="-103.75" font-family="Helvetica,sans-Serif" font-size="10.00">::recordControl</text>
</a>
</g>
</g>
<!-- Node5&#45;&gt;Node6 -->
<g id="edge5_Node000005_Node000006" class="edge">
<title>Node5&#45;&gt;Node6</title>
<g id="a_edge5_Node000005_Node000006"><a xlink:title=" ">
<path fill="none" stroke="#63b8ff" d="M561.83,-79.89C578.2,-84.51 596.3,-89.61 613.31,-94.41"/>
<polygon fill="#63b8ff" stroke="#63b8ff" points="612.27,-97.75 622.85,-97.1 614.17,-91.01 612.27,-97.75"/>
</a>
</g>
</g>
<!-- Node7 -->
<g id="Node000007" class="node">
<title>Node7</title>
<g id="a_Node000007"><a xlink:href="class_a_q_n_w_b_1_1_n_w_b_1_1_time_series.html#a39ca5510e7d73fbd1d2c1b34ae730027" target="_top" xlink:title=" ">
<polygon fill="white" stroke="#666666" points="751,-79.5 611.25,-79.5 611.25,-49 751,-49 751,-79.5"/>
<text xml:space="preserve" text-anchor="start" x="619.25" y="-66" font-family="Helvetica,sans-Serif" font-size="10.00">AQNWB::NWB::TimeSeries</text>
<text xml:space="preserve" text-anchor="middle" x="681.12" y="-54.75" font-family="Helvetica,sans-Serif" font-size="10.00">::recordData</text>
</a>
</g>
</g>
<!-- Node5&#45;&gt;Node7 -->
<g id="edge6_Node000005_Node000007" class="edge">
<title>Node5&#45;&gt;Node7</title>
<g id="a_edge6_Node000005_Node000007"><a xlink:title=" ">
<path fill="none" stroke="#63b8ff" d="M575.54,-64.25C583.46,-64.25 591.57,-64.25 599.62,-64.25"/>
<polygon fill="#63b8ff" stroke="#63b8ff" points="599.4,-67.75 609.4,-64.25 599.4,-60.75 599.4,-67.75"/>
</a>
</g>
</g>
<!-- Node8 -->
<g id="Node000008" class="node">
<title>Node8</title>
<g id="a_Node000008"><a xlink:href="class_a_q_n_w_b_1_1_n_w_b_1_1_time_series.html#a15cdc18874a799e4196a58e2c2d51c31" target="_top" xlink:title=" ">
<polygon fill="white" stroke="#666666" points="751,-30.5 611.25,-30.5 611.25,0 751,0 751,-30.5"/>
<text xml:space="preserve" text-anchor="start" x="619.25" y="-17" font-family="Helvetica,sans-Serif" font-size="10.00">AQNWB::NWB::TimeSeries</text>
<text xml:space="preserve" text-anchor="middle" x="681.12" y="-5.75" font-family="Helvetica,sans-Serif" font-size="10.00">::recordTimestamps</text>
</a>
</g>
</g>
<!-- Node5&#45;&gt;Node8 -->
<g id="edge7_Node000005_Node000008" class="edge">
<title>Node5&#45;&gt;Node8</title>
<g id="a_edge7_Node000005_Node000008"><a xlink:title=" ">
<path fill="none" stroke="#63b8ff" d="M561.83,-48.61C578.2,-43.99 596.3,-38.89 613.31,-34.09"/>
<polygon fill="#63b8ff" stroke="#63b8ff" points="614.17,-37.49 622.85,-31.4 612.27,-30.75 614.17,-37.49"/>
</a>
</g>
</g>
</g>
</svg>
