<?xml version="1.0" encoding="UTF-8" standalone="no"?>
<!DOCTYPE svg PUBLIC "-//W3C//DTD SVG 1.1//EN"
 "http://www.w3.org/Graphics/SVG/1.1/DTD/svg11.dtd">
<!-- Generated by graphviz version 14.1.0 (20251206.1807)
 -->
<!-- Title: AQNWB::NWB::NWBFile::readTimestampsReferenceTime Pages: 1 -->
<svg width="915pt" height="272pt"
 viewBox="0.00 0.00 915.00 272.00" xmlns="http://www.w3.org/2000/svg" xmlns:xlink="http://www.w3.org/1999/xlink">
<g id="graph0" class="graph" transform="scale(1 1) rotate(0) translate(4 267.5)">
<title>AQNWB::NWB::NWBFile::readTimestampsReferenceTime</title>
<!-- Node1 -->
<g id="Node000001" class="node">
<title>Node1</title>
<g id="a_Node000001"><a xlink:title=" ">
<polygon fill="#999999" stroke="#666666" points="161.5,-184.5 0,-184.5 0,-154 161.5,-154 161.5,-184.5"/>
<text xml:space="preserve" text-anchor="start" x="8" y="-171" font-family="Helvetica,sans-Serif" font-size="10.00">AQNWB::NWB::NWBFile</text>
<text xml:space="preserve" text-anchor="middle" x="80.75" y="-159.75" font-family="Helvetica,sans-Serif" font-size="10.00">::readTimestampsReferenceTime</text>
</a>
</g>
</g>
<!-- Node2 -->
<g id="Node000002" class="node">
<title>Node2</title>
<g id="a_Node000002"><a xlink:href="class_a_q_n_w_b_1_1_n_w_b_1_1_n_w_b_file.html#a116bb371a6ef2fec0a442530ce4c5344" target="_top" xlink:title=" ">
<polygon fill="white" stroke="#666666" points="327.5,-209.5 197.5,-209.5 197.5,-179 327.5,-179 327.5,-209.5"/>
<text xml:space="preserve" text-anchor="start" x="205.5" y="-196" font-family="Helvetica,sans-Serif" font-size="10.00">AQNWB::NWB::NWBFile</text>
<text xml:space="preserve" text-anchor="middle" x="262.5" y="-184.75" font-family="Helvetica,sans-Serif" font-size="10.00">::createAquisitionSeries</text>
</a>
</g>
</g>
<!-- Node1&#45;&gt;Node2 -->
<g id="edge1_Node000001_Node000002" class="edge">
<title>Node1&#45;&gt;Node2</title>
<g id="a_edge1_Node000001_Node000002"><a xlink:title=" ">
<path fill="none" stroke="#63b8ff" d="M161.9,-180.4C169.92,-181.51 178.04,-182.64 186.01,-183.75"/>
<polygon fill="#63b8ff" stroke="#63b8ff" points="185.25,-187.18 195.64,-185.09 186.22,-180.25 185.25,-187.18"/>
</a>
</g>
</g>
<!-- Node11 -->
<g id="Node000011" class="node">
<title>Node11</title>
<g id="a_Node000011"><a xlink:href="class_a_q_n_w_b_1_1_n_w_b_1_1_n_w_b_file.html#a4c5e30290b87e858aea55a327e835e77" target="_top" xlink:title=" ">
<polygon fill="white" stroke="#666666" points="327.5,-160.5 197.5,-160.5 197.5,-130 327.5,-130 327.5,-160.5"/>
<text xml:space="preserve" text-anchor="start" x="205.5" y="-147" font-family="Helvetica,sans-Serif" font-size="10.00">AQNWB::NWB::NWBFile</text>
<text xml:space="preserve" text-anchor="middle" x="262.5" y="-135.75" font-family="Helvetica,sans-Serif" font-size="10.00">::readAquisitionSeries</text>
</a>
</g>
</g>
<!-- Node1&#45;&gt;Node11 -->
<g id="edge12_Node000001_Node000011" class="edge">
<title>Node1&#45;&gt;Node11</title>
<g id="a_edge12_Node000001_Node000011"><a xlink:title=" ">
<path fill="none" stroke="#63b8ff" d="M161.9,-158.55C169.83,-157.49 177.85,-156.42 185.73,-155.37"/>
<polygon fill="#63b8ff" stroke="#63b8ff" points="186.19,-158.84 195.64,-154.04 185.27,-151.9 186.19,-158.84"/>
</a>
</g>
</g>
<!-- Node3 -->
<g id="Node000003" class="node">
<title>Node3</title>
<g id="a_Node000003"><a xlink:href="class_a_q_n_w_b_1_1_n_w_b_1_1_n_w_b_file.html#aaf2e07b4e912fc34ab052d38f92e6cdd" target="_top" xlink:title="Saves the specification files for the schema.">
<polygon fill="white" stroke="#666666" points="686.12,-263.5 556.12,-263.5 556.12,-233 686.12,-233 686.12,-263.5"/>
<text xml:space="preserve" text-anchor="start" x="564.12" y="-250" font-family="Helvetica,sans-Serif" font-size="10.00">AQNWB::NWB::NWBFile</text>
<text xml:space="preserve" text-anchor="middle" x="621.12" y="-238.75" font-family="Helvetica,sans-Serif" font-size="10.00">::cacheSpecifications</text>
</a>
</g>
</g>
<!-- Node2&#45;&gt;Node3 -->
<g id="edge2_Node000002_Node000003" class="edge">
<title>Node2&#45;&gt;Node3</title>
<g id="a_edge2_Node000002_Node000003"><a xlink:title=" ">
<path fill="none" stroke="#63b8ff" d="M327.67,-203.97C388.58,-213.19 480.16,-227.06 544.57,-236.81"/>
<polygon fill="#63b8ff" stroke="#63b8ff" points="543.96,-240.26 554.37,-238.29 545.01,-233.34 543.96,-240.26"/>
</a>
</g>
</g>
<!-- Node6 -->
<g id="Node000006" class="node">
<title>Node6</title>
<g id="a_Node000006"><a xlink:href="class_a_q_n_w_b_1_1_n_w_b_1_1_n_w_b_file.html#a71bd7b910a7ec89bdaf36304d67bfef1" target="_top" xlink:title="Creates the default file structure. Note, this function will fail if the file is in a mode where new ...">
<polygon fill="white" stroke="#666666" points="493.5,-177.5 363.5,-177.5 363.5,-147 493.5,-147 493.5,-177.5"/>
<text xml:space="preserve" text-anchor="start" x="371.5" y="-164" font-family="Helvetica,sans-Serif" font-size="10.00">AQNWB::NWB::NWBFile</text>
<text xml:space="preserve" text-anchor="middle" x="428.5" y="-152.75" font-family="Helvetica,sans-Serif" font-size="10.00">::createFileStructure</text>
</a>
</g>
</g>
<!-- Node2&#45;&gt;Node6 -->
<g id="edge5_Node000002_Node000006" class="edge">
<title>Node2&#45;&gt;Node6</title>
<g id="a_edge5_Node000002_Node000006"><a xlink:title=" ">
<path fill="none" stroke="#63b8ff" d="M327.85,-181.69C335.71,-180.16 343.81,-178.58 351.83,-177.02"/>
<polygon fill="#63b8ff" stroke="#63b8ff" points="352.44,-180.46 361.58,-175.11 351.1,-173.59 352.44,-180.46"/>
</a>
</g>
</g>
<!-- Node4 -->
<g id="Node000004" class="node">
<title>Node4</title>
<g id="a_Node000004"><a xlink:href="class_a_q_n_w_b_1_1_n_w_b_1_1_registered_type.html#ab614b1609f536e88ed1f32762dc3894b" target="_top" xlink:title="Get a shared pointer to the IO object.">
<polygon fill="white" stroke="#666666" points="907.25,-220.5 748.75,-220.5 748.75,-190 907.25,-190 907.25,-220.5"/>
<text xml:space="preserve" text-anchor="start" x="756.75" y="-207" font-family="Helvetica,sans-Serif" font-size="10.00">AQNWB::NWB::RegisteredType</text>
<text xml:space="preserve" text-anchor="middle" x="828" y="-195.75" font-family="Helvetica,sans-Serif" font-size="10.00">::getIO</text>
</a>
</g>
</g>
<!-- Node3&#45;&gt;Node4 -->
<g id="edge3_Node000003_Node000004" class="edge">
<title>Node3&#45;&gt;Node4</title>
<g id="a_edge3_Node000003_Node000004"><a xlink:title=" ">
<path fill="none" stroke="#63b8ff" d="M686.39,-234.76C703.68,-231.13 722.68,-227.15 740.96,-223.31"/>
<polygon fill="#63b8ff" stroke="#63b8ff" points="741.67,-226.74 750.74,-221.26 740.24,-219.88 741.67,-226.74"/>
</a>
</g>
</g>
<!-- Node5 -->
<g id="Node000005" class="node">
<title>Node5</title>
<g id="a_Node000005"><a xlink:href="namespace_a_q_n_w_b.html#a31983dbaaa85c2e355b9687fc0ef1881" target="_top" xlink:title="Merge two paths into a single path, handling extra trailing and starting &quot;/&quot;.">
<polygon fill="white" stroke="#666666" points="884.38,-257.88 771.62,-257.88 771.62,-238.62 884.38,-238.62 884.38,-257.88"/>
<text xml:space="preserve" text-anchor="middle" x="828" y="-244.38" font-family="Helvetica,sans-Serif" font-size="10.00">AQNWB::mergePaths</text>
</a>
</g>
</g>
<!-- Node3&#45;&gt;Node5 -->
<g id="edge4_Node000003_Node000005" class="edge">
<title>Node3&#45;&gt;Node5</title>
<g id="a_edge4_Node000003_Node000005"><a xlink:title=" ">
<path fill="none" stroke="#63b8ff" d="M686.39,-248.25C709.78,-248.25 736.28,-248.25 759.92,-248.25"/>
<polygon fill="#63b8ff" stroke="#63b8ff" points="759.75,-251.75 769.75,-248.25 759.75,-244.75 759.75,-251.75"/>
</a>
</g>
</g>
<!-- Node6&#45;&gt;Node3 -->
<g id="edge6_Node000006_Node000003" class="edge">
<title>Node6&#45;&gt;Node3</title>
<g id="a_edge6_Node000006_Node000003"><a xlink:title=" ">
<path fill="none" stroke="#63b8ff" d="M453.42,-177.77C473.23,-190.16 502.42,-207.36 529.5,-219.25 537.37,-222.71 545.78,-225.96 554.2,-228.94"/>
<polygon fill="#63b8ff" stroke="#63b8ff" points="552.78,-232.16 563.38,-232.08 555.05,-225.53 552.78,-232.16"/>
</a>
</g>
</g>
<!-- Node6&#45;&gt;Node4 -->
<g id="edge8_Node000006_Node000004" class="edge">
<title>Node6&#45;&gt;Node4</title>
<g id="a_edge8_Node000006_Node000004"><a xlink:title=" ">
<path fill="none" stroke="#63b8ff" d="M487.6,-177.97C501.25,-181.17 515.82,-184.19 529.5,-186.25 598.73,-196.69 677.87,-201.4 737.11,-203.52"/>
<polygon fill="#63b8ff" stroke="#63b8ff" points="736.69,-207.01 746.8,-203.85 736.92,-200.02 736.69,-207.01"/>
</a>
</g>
</g>
<!-- Node7 -->
<g id="Node000007" class="node">
<title>Node7</title>
<g id="a_Node000007"><a xlink:href="class_a_q_n_w_b_1_1_s_p_e_c_1_1_namespace_registry.html#aceded37c693bb2f6aa21a5945a13557c" target="_top" xlink:title="Get all registered namespaces.">
<polygon fill="white" stroke="#666666" points="712.75,-177.5 529.5,-177.5 529.5,-147 712.75,-147 712.75,-177.5"/>
<text xml:space="preserve" text-anchor="start" x="537.5" y="-164" font-family="Helvetica,sans-Serif" font-size="10.00">AQNWB::SPEC::NamespaceRegistry</text>
<text xml:space="preserve" text-anchor="middle" x="621.12" y="-152.75" font-family="Helvetica,sans-Serif" font-size="10.00">::getAllNamespaces</text>
</a>
</g>
</g>
<!-- Node6&#45;&gt;Node7 -->
<g id="edge7_Node000006_Node000007" class="edge">
<title>Node6&#45;&gt;Node7</title>
<g id="a_edge7_Node000006_Node000007"><a xlink:title=" ">
<path fill="none" stroke="#63b8ff" d="M493.77,-162.25C501.49,-162.25 509.5,-162.25 517.59,-162.25"/>
<polygon fill="#63b8ff" stroke="#63b8ff" points="517.53,-165.75 527.53,-162.25 517.53,-158.75 517.53,-165.75"/>
</a>
</g>
</g>
<!-- Node8 -->
<g id="Node000008" class="node">
<title>Node8</title>
<g id="a_Node000008"><a xlink:href="class_a_q_n_w_b_1_1_n_w_b_1_1_n_w_b_file.html#a0b44558c283edd9db7d2fcf284c1a5ec" target="_top" xlink:title="Get the schema namespace of the class type.">
<polygon fill="white" stroke="#666666" points="686.12,-128.5 556.12,-128.5 556.12,-98 686.12,-98 686.12,-128.5"/>
<text xml:space="preserve" text-anchor="start" x="564.12" y="-115" font-family="Helvetica,sans-Serif" font-size="10.00">AQNWB::NWB::NWBFile</text>
<text xml:space="preserve" text-anchor="middle" x="621.12" y="-103.75" font-family="Helvetica,sans-Serif" font-size="10.00">::getNamespace</text>
</a>
</g>
</g>
<!-- Node6&#45;&gt;Node8 -->
<g id="edge9_Node000006_Node000008" class="edge">
<title>Node6&#45;&gt;Node8</title>
<g id="a_edge9_Node000006_Node000008"><a xlink:title=" ">
<path fill="none" stroke="#63b8ff" d="M490.6,-146.54C508.9,-141.84 529.14,-136.64 548.07,-131.77"/>
<polygon fill="#63b8ff" stroke="#63b8ff" points="548.76,-135.21 557.58,-129.33 547.02,-128.43 548.76,-135.21"/>
</a>
</g>
</g>
<!-- Node9 -->
<g id="Node000009" class="node">
<title>Node9</title>
<g id="a_Node000009"><a xlink:href="class_a_q_n_w_b_1_1_n_w_b_1_1_n_w_b_file.html#ae22dafcb8cb963103fe0e2b4cbfd5dd8" target="_top" xlink:title="Get the name of the class type.">
<polygon fill="white" stroke="#666666" points="686.12,-79.5 556.12,-79.5 556.12,-49 686.12,-49 686.12,-79.5"/>
<text xml:space="preserve" text-anchor="start" x="564.12" y="-66" font-family="Helvetica,sans-Serif" font-size="10.00">AQNWB::NWB::NWBFile</text>
<text xml:space="preserve" text-anchor="middle" x="621.12" y="-54.75" font-family="Helvetica,sans-Serif" font-size="10.00">::getTypeName</text>
</a>
</g>
</g>
<!-- Node6&#45;&gt;Node9 -->
<g id="edge10_Node000006_Node000009" class="edge">
<title>Node6&#45;&gt;Node9</title>
<g id="a_edge10_Node000006_Node000009"><a xlink:title=" ">
<path fill="none" stroke="#63b8ff" d="M446.66,-146.68C465.64,-130.23 497.76,-104.58 529.5,-89.25 534.52,-86.83 539.8,-84.61 545.2,-82.58"/>
<polygon fill="#63b8ff" stroke="#63b8ff" points="545.97,-86.02 554.25,-79.41 543.66,-79.41 545.97,-86.02"/>
</a>
</g>
</g>
<!-- Node10 -->
<g id="Node000010" class="node">
<title>Node10</title>
<g id="a_Node000010"><a xlink:href="class_a_q_n_w_b_1_1_s_p_e_c_1_1_namespace_registry.html#a15d9c6f869f0270ad91a2af8067f5a88" target="_top" xlink:title="Get the singleton instance of the NamespaceRegistry.">
<polygon fill="white" stroke="#666666" points="712.75,-30.5 529.5,-30.5 529.5,0 712.75,0 712.75,-30.5"/>
<text xml:space="preserve" text-anchor="start" x="537.5" y="-17" font-family="Helvetica,sans-Serif" font-size="10.00">AQNWB::SPEC::NamespaceRegistry</text>
<text xml:space="preserve" text-anchor="middle" x="621.12" y="-5.75" font-family="Helvetica,sans-Serif" font-size="10.00">::instance</text>
</a>
</g>
</g>
<!-- Node6&#45;&gt;Node10 -->
<g id="edge11_Node000006_Node000010" class="edge">
<title>Node6&#45;&gt;Node10</title>
<g id="a_edge11_Node000006_Node000010"><a xlink:title=" ">
<path fill="none" stroke="#63b8ff" d="M438.02,-146.52C453,-120.4 486.57,-68.17 529.5,-40.25 532.04,-38.6 534.69,-37.05 537.42,-35.61"/>
<polygon fill="#63b8ff" stroke="#63b8ff" points="538.68,-38.89 546.23,-31.46 535.69,-32.55 538.68,-38.89"/>
</a>
</g>
</g>
</g>
</svg>
