<?xml version="1.0" encoding="UTF-8" standalone="no"?>
<!DOCTYPE svg PUBLIC "-//W3C//DTD SVG 1.1//EN"
 "http://www.w3.org/Graphics/SVG/1.1/DTD/svg11.dtd">
<!-- Generated by graphviz version 14.1.2 (20260124.0452)
 -->
<!-- Title: src/spec/core.hpp Pages: 1 -->
<svg width="1727pt" height="581pt"
 viewBox="0.00 0.00 1727.00 581.00" xmlns="http://www.w3.org/2000/svg" xmlns:xlink="http://www.w3.org/1999/xlink">
<g id="graph0" class="graph" transform="scale(1 1) rotate(0) translate(4 576.75)">
<title>src/spec/core.hpp</title>
<!-- Node1 -->
<g id="Node000001" class="node">
<title>Node1</title>
<g id="a_Node000001"><a xlink:title=" ">
<polygon fill="#999999" stroke="#666666" points="1085.25,-572.75 991.25,-572.75 991.25,-553.5 1085.25,-553.5 1085.25,-572.75"/>
<text xml:space="preserve" text-anchor="middle" x="1038.25" y="-559.25" font-family="Helvetica,sans-Serif" font-size="10.00">src/spec/core.hpp</text>
</a>
</g>
</g>
<!-- Node2 -->
<g id="Node000002" class="node">
<title>Node2</title>
<g id="a_Node000002"><a xlink:href="_n_w_b_file_8cpp.html" target="_top" xlink:title=" ">
<polygon fill="white" stroke="#666666" points="1119.25,-24.88 1007.25,-24.88 1007.25,-5.63 1119.25,-5.63 1119.25,-24.88"/>
<text xml:space="preserve" text-anchor="middle" x="1063.25" y="-11.38" font-family="Helvetica,sans-Serif" font-size="10.00">src/nwb/NWBFile.cpp</text>
</a>
</g>
</g>
<!-- Node1&#45;&gt;Node2 -->
<g id="edge1_Node000001_Node000002" class="edge">
<title>Node1&#45;&gt;Node2</title>
<g id="a_edge1_Node000001_Node000002"><a xlink:title=" ">
<path fill="none" stroke="#63b8ff" d="M1096.65,-561.91C1230.75,-559.84 1549.25,-545.27 1549.25,-453.62 1549.25,-453.62 1549.25,-453.62 1549.25,-147.25 1549.25,-89.78 1501.14,-88.99 1448.25,-66.5 1390.25,-41.83 1211.56,-26.39 1119.44,-19.86"/>
<polygon fill="#63b8ff" stroke="#63b8ff" points="1096.87,-558.41 1086.92,-562.04 1096.97,-565.41 1096.87,-558.41"/>
</a>
</g>
</g>
<!-- Node3 -->
<g id="Node000003" class="node">
<title>Node3</title>
<g id="a_Node000003"><a xlink:href="_n_w_b_file_8hpp.html" target="_top" xlink:title=" ">
<polygon fill="white" stroke="#666666" points="1119.25,-157.88 1007.25,-157.88 1007.25,-138.62 1119.25,-138.62 1119.25,-157.88"/>
<text xml:space="preserve" text-anchor="middle" x="1063.25" y="-144.38" font-family="Helvetica,sans-Serif" font-size="10.00">src/nwb/NWBFile.hpp</text>
</a>
</g>
</g>
<!-- Node1&#45;&gt;Node3 -->
<g id="edge2_Node000001_Node000003" class="edge">
<title>Node1&#45;&gt;Node3</title>
<g id="a_edge2_Node000001_Node000003"><a xlink:title=" ">
<path fill="none" stroke="#63b8ff" d="M1087.5,-549.13C1103.29,-542.39 1119.05,-532.33 1128.25,-517.5 1132.76,-510.23 1128.77,-506.79 1128.25,-498.25 1124.02,-428.92 1109.25,-412.58 1109.25,-343.12 1109.25,-343.12 1109.25,-343.12 1109.25,-280.25 1109.25,-231.8 1080.89,-178.67 1068.71,-158.08"/>
<polygon fill="#63b8ff" stroke="#63b8ff" points="1086.68,-545.7 1078.6,-552.56 1089.19,-552.23 1086.68,-545.7"/>
</a>
</g>
</g>
<!-- Node4 -->
<g id="Node000004" class="node">
<title>Node4</title>
<g id="a_Node000004"><a xlink:href="_n_w_b_container_8hpp.html" target="_top" xlink:title=" ">
<polygon fill="white" stroke="#666666" points="1119,-517.5 957.5,-517.5 957.5,-498.25 1119,-498.25 1119,-517.5"/>
<text xml:space="preserve" text-anchor="middle" x="1038.25" y="-504" font-family="Helvetica,sans-Serif" font-size="10.00">src/nwb/base/NWBContainer.hpp</text>
</a>
</g>
</g>
<!-- Node1&#45;&gt;Node4 -->
<g id="edge4_Node000001_Node000004" class="edge">
<title>Node1&#45;&gt;Node4</title>
<g id="a_edge4_Node000001_Node000004"><a xlink:title=" ">
<path fill="none" stroke="#63b8ff" d="M1038.25,-541.88C1038.25,-533.59 1038.25,-524.42 1038.25,-517.86"/>
<polygon fill="#63b8ff" stroke="#63b8ff" points="1034.75,-541.82 1038.25,-551.82 1041.75,-541.82 1034.75,-541.82"/>
</a>
</g>
</g>
<!-- Node6 -->
<g id="Node000006" class="node">
<title>Node6</title>
<g id="a_Node000006"><a xlink:href="_n_w_b_data_interface_8hpp.html" target="_top" xlink:title=" ">
<polygon fill="white" stroke="#666666" points="787,-462.25 607.5,-462.25 607.5,-443 787,-443 787,-462.25"/>
<text xml:space="preserve" text-anchor="middle" x="697.25" y="-448.75" font-family="Helvetica,sans-Serif" font-size="10.00">src/nwb/base/NWBDataInterface.hpp</text>
</a>
</g>
</g>
<!-- Node1&#45;&gt;Node6 -->
<g id="edge54_Node000001_Node000006" class="edge">
<title>Node1&#45;&gt;Node6</title>
<g id="a_edge54_Node000001_Node000006"><a xlink:title=" ">
<path fill="none" stroke="#63b8ff" d="M979.66,-557.09C930.67,-551.48 859.65,-540.05 801.25,-517.5 764.88,-503.46 727.06,-476.6 708.67,-462.61"/>
<polygon fill="#63b8ff" stroke="#63b8ff" points="979.17,-560.56 989.49,-558.16 979.93,-553.6 979.17,-560.56"/>
</a>
</g>
</g>
<!-- Node8 -->
<g id="Node000008" class="node">
<title>Node8</title>
<g id="a_Node000008"><a xlink:href="_processing_module_8hpp.html" target="_top" xlink:title=" ">
<polygon fill="white" stroke="#666666" points="1019.5,-224.38 843,-224.38 843,-205.12 1019.5,-205.12 1019.5,-224.38"/>
<text xml:space="preserve" text-anchor="middle" x="931.25" y="-210.88" font-family="Helvetica,sans-Serif" font-size="10.00">src/nwb/base/ProcessingModule.hpp</text>
</a>
</g>
</g>
<!-- Node1&#45;&gt;Node8 -->
<g id="edge55_Node000001_Node000008" class="edge">
<title>Node1&#45;&gt;Node8</title>
<g id="a_edge55_Node000001_Node000008"><a xlink:title=" ">
<path fill="none" stroke="#63b8ff" d="M992.38,-549.52C951.97,-535.61 895.95,-508.78 872.25,-462.25 828.71,-376.77 902.11,-258.12 924.86,-224.78"/>
<polygon fill="#63b8ff" stroke="#63b8ff" points="991.03,-552.76 1001.62,-552.55 993.21,-546.11 991.03,-552.76"/>
</a>
</g>
</g>
<!-- Node10 -->
<g id="Node000010" class="node">
<title>Node10</title>
<g id="a_Node000010"><a xlink:href="_time_series_8hpp.html" target="_top" xlink:title=" ">
<polygon fill="white" stroke="#666666" points="551.12,-407 405.38,-407 405.38,-387.75 551.12,-387.75 551.12,-407"/>
<text xml:space="preserve" text-anchor="middle" x="478.25" y="-393.5" font-family="Helvetica,sans-Serif" font-size="10.00">src/nwb/base/TimeSeries.hpp</text>
</a>
</g>
</g>
<!-- Node1&#45;&gt;Node10 -->
<g id="edge56_Node000001_Node000010" class="edge">
<title>Node1&#45;&gt;Node10</title>
<g id="a_edge56_Node000001_Node000010"><a xlink:title=" ">
<path fill="none" stroke="#63b8ff" d="M979.68,-562.5C869.13,-562.25 634.59,-556.93 565.25,-517.5 519.39,-491.42 491,-430.18 481.66,-407.25"/>
<polygon fill="#63b8ff" stroke="#63b8ff" points="979.42,-566 989.42,-562.5 979.43,-559 979.42,-566"/>
</a>
</g>
</g>
<!-- Node17 -->
<g id="Node000017" class="node">
<title>Node17</title>
<g id="a_Node000017"><a xlink:href="_electrodes_table_8hpp.html" target="_top" xlink:title=" ">
<polygon fill="white" stroke="#666666" points="677.12,-224.38 519.38,-224.38 519.38,-205.12 677.12,-205.12 677.12,-224.38"/>
<text xml:space="preserve" text-anchor="middle" x="598.25" y="-210.88" font-family="Helvetica,sans-Serif" font-size="10.00">src/nwb/file/ElectrodesTable.hpp</text>
</a>
</g>
</g>
<!-- Node1&#45;&gt;Node17 -->
<g id="edge61_Node000001_Node000017" class="edge">
<title>Node1&#45;&gt;Node17</title>
<g id="a_edge61_Node000001_Node000017"><a xlink:title=" ">
<path fill="none" stroke="#63b8ff" d="M979.67,-558.16C870.31,-549.36 642.16,-523.86 598.25,-462.25 579.03,-435.29 586.21,-418.6 598.25,-387.75 618.29,-336.4 662.21,-347.85 682.25,-296.5 687.18,-283.87 688.94,-277.79 682.25,-266 670.6,-245.45 646.84,-232.4 627.55,-224.77"/>
<polygon fill="#63b8ff" stroke="#63b8ff" points="979.07,-561.63 989.31,-558.92 979.62,-554.65 979.07,-561.63"/>
</a>
</g>
</g>
<!-- Node19 -->
<g id="Node000019" class="node">
<title>Node19</title>
<g id="a_Node000019"><a xlink:href="_electrical_series_8hpp.html" target="_top" xlink:title=" ">
<polygon fill="white" stroke="#666666" points="795.12,-163.5 661.38,-163.5 661.38,-133 795.12,-133 795.12,-163.5"/>
<text xml:space="preserve" text-anchor="start" x="669.38" y="-150" font-family="Helvetica,sans-Serif" font-size="10.00">src/nwb/ecephys/Electrical</text>
<text xml:space="preserve" text-anchor="middle" x="728.25" y="-138.75" font-family="Helvetica,sans-Serif" font-size="10.00">Series.hpp</text>
</a>
</g>
</g>
<!-- Node1&#45;&gt;Node19 -->
<g id="edge58_Node000001_Node000019" class="edge">
<title>Node1&#45;&gt;Node19</title>
<g id="a_edge58_Node000001_Node000019"><a xlink:title=" ">
<path fill="none" stroke="#63b8ff" d="M979.84,-558.42C913.77,-550.69 815.25,-526.89 815.25,-453.62 815.25,-453.62 815.25,-453.62 815.25,-280.25 815.25,-230.83 771.76,-185.81 746.28,-163.67"/>
<polygon fill="#63b8ff" stroke="#63b8ff" points="979.14,-561.86 989.45,-559.45 979.88,-554.9 979.14,-561.86"/>
</a>
</g>
</g>
<!-- Node20 -->
<g id="Node000020" class="node">
<title>Node20</title>
<g id="a_Node000020"><a xlink:href="_spike_event_series_8hpp.html" target="_top" xlink:title=" ">
<polygon fill="white" stroke="#666666" points="800,-97 656.5,-97 656.5,-66.5 800,-66.5 800,-97"/>
<text xml:space="preserve" text-anchor="start" x="664.5" y="-83.5" font-family="Helvetica,sans-Serif" font-size="10.00">src/nwb/ecephys/SpikeEvent</text>
<text xml:space="preserve" text-anchor="middle" x="728.25" y="-72.25" font-family="Helvetica,sans-Serif" font-size="10.00">Series.hpp</text>
</a>
</g>
</g>
<!-- Node1&#45;&gt;Node20 -->
<g id="edge59_Node000001_Node000020" class="edge">
<title>Node1&#45;&gt;Node20</title>
<g id="a_edge59_Node000001_Node000020"><a xlink:title=" ">
<path fill="none" stroke="#63b8ff" d="M1081.8,-548.97C1098.38,-542 1116.18,-531.84 1128.25,-517.5 1147.33,-494.84 1147.25,-483.24 1147.25,-453.62 1147.25,-453.62 1147.25,-453.62 1147.25,-213.75 1147.25,-176.88 1155.67,-157.65 1128.25,-133 1081.34,-90.82 902.19,-83.13 800.27,-82.27"/>
<polygon fill="#63b8ff" stroke="#63b8ff" points="1080.61,-545.67 1072.55,-552.55 1083.14,-552.2 1080.61,-545.67"/>
</a>
</g>
</g>
<!-- Node25 -->
<g id="Node000025" class="node">
<title>Node25</title>
<g id="a_Node000025"><a xlink:href="_annotation_series_8hpp.html" target="_top" xlink:title=" ">
<polygon fill="white" stroke="#666666" points="170.5,-91.38 0,-91.38 0,-72.12 170.5,-72.12 170.5,-91.38"/>
<text xml:space="preserve" text-anchor="middle" x="85.25" y="-77.88" font-family="Helvetica,sans-Serif" font-size="10.00">src/nwb/misc/AnnotationSeries.hpp</text>
</a>
</g>
</g>
<!-- Node1&#45;&gt;Node25 -->
<g id="edge62_Node000001_Node000025" class="edge">
<title>Node1&#45;&gt;Node25</title>
<g id="a_edge62_Node000001_Node000025"><a xlink:title=" ">
<path fill="none" stroke="#63b8ff" d="M979.37,-561.56C773.04,-558.83 95.25,-543.04 95.25,-453.62 95.25,-453.62 95.25,-453.62 95.25,-213.75 95.25,-167.68 89.02,-112.75 86.4,-91.63"/>
<polygon fill="#63b8ff" stroke="#63b8ff" points="979.28,-565.06 989.33,-561.69 979.37,-558.06 979.28,-565.06"/>
</a>
</g>
</g>
<!-- Node27 -->
<g id="Node000027" class="node">
<title>Node27</title>
<g id="a_Node000027"><a xlink:href="_device_8hpp.html" target="_top" xlink:title=" ">
<polygon fill="white" stroke="#666666" points="1347.5,-462.25 1213,-462.25 1213,-443 1347.5,-443 1347.5,-462.25"/>
<text xml:space="preserve" text-anchor="middle" x="1280.25" y="-448.75" font-family="Helvetica,sans-Serif" font-size="10.00">src/nwb/device/Device.hpp</text>
</a>
</g>
</g>
<!-- Node1&#45;&gt;Node27 -->
<g id="edge57_Node000001_Node000027" class="edge">
<title>Node1&#45;&gt;Node27</title>
<g id="a_edge57_Node000001_Node000027"><a xlink:title=" ">
<path fill="none" stroke="#63b8ff" d="M1096.75,-551.78C1128.24,-544.78 1167.11,-533.79 1199.25,-517.5 1228.64,-502.6 1257.63,-476.12 1271.61,-462.41"/>
<polygon fill="#63b8ff" stroke="#63b8ff" points="1096.04,-548.35 1086.99,-553.86 1097.5,-555.19 1096.04,-548.35"/>
</a>
</g>
</g>
<!-- Node29 -->
<g id="Node000029" class="node">
<title>Node29</title>
<g id="a_Node000029"><a xlink:href="_electrode_group_8hpp.html" target="_top" xlink:title=" ">
<polygon fill="white" stroke="#666666" points="1521,-407 1365.5,-407 1365.5,-387.75 1521,-387.75 1521,-407"/>
<text xml:space="preserve" text-anchor="middle" x="1443.25" y="-393.5" font-family="Helvetica,sans-Serif" font-size="10.00">src/nwb/file/ElectrodeGroup.hpp</text>
</a>
</g>
</g>
<!-- Node1&#45;&gt;Node29 -->
<g id="edge60_Node000001_Node000029" class="edge">
<title>Node1&#45;&gt;Node29</title>
<g id="a_edge60_Node000001_Node000029"><a xlink:title=" ">
<path fill="none" stroke="#63b8ff" d="M1096.9,-556.5C1170.25,-547.1 1297.13,-522.82 1387.25,-462.25 1409.77,-447.11 1428.85,-420.74 1437.8,-407.1"/>
<polygon fill="#63b8ff" stroke="#63b8ff" points="1096.6,-553.01 1087.1,-557.7 1097.45,-559.96 1096.6,-553.01"/>
</a>
</g>
</g>
<!-- Node31 -->
<g id="Node000031" class="node">
<title>Node31</title>
<g id="a_Node000031"><a xlink:href="_n_w_b_data_8hpp.html" target="_top" xlink:title=" ">
<polygon fill="white" stroke="#666666" points="1718.88,-517.5 1577.62,-517.5 1577.62,-498.25 1718.88,-498.25 1718.88,-517.5"/>
<text xml:space="preserve" text-anchor="middle" x="1648.25" y="-504" font-family="Helvetica,sans-Serif" font-size="10.00">src/nwb/base/NWBData.hpp</text>
</a>
</g>
</g>
<!-- Node1&#45;&gt;Node31 -->
<g id="edge52_Node000001_Node000031" class="edge">
<title>Node1&#45;&gt;Node31</title>
<g id="a_edge52_Node000001_Node000031"><a xlink:title=" ">
<path fill="none" stroke="#63b8ff" d="M1097.01,-557.45C1194.1,-549.64 1394.11,-533.27 1563.25,-517.5 1567.83,-517.07 1572.54,-516.62 1577.3,-516.16"/>
<polygon fill="#63b8ff" stroke="#63b8ff" points="1096.89,-553.94 1087.2,-558.23 1097.45,-560.92 1096.89,-553.94"/>
</a>
</g>
</g>
<!-- Node3&#45;&gt;Node2 -->
<g id="edge3_Node000003_Node000002" class="edge">
<title>Node3&#45;&gt;Node2</title>
<g id="a_edge3_Node000003_Node000002"><a xlink:title=" ">
<path fill="none" stroke="#63b8ff" d="M1063.25,-127.12C1063.25,-98.24 1063.25,-46.23 1063.25,-25.32"/>
<polygon fill="#63b8ff" stroke="#63b8ff" points="1059.75,-126.73 1063.25,-136.73 1066.75,-126.73 1059.75,-126.73"/>
</a>
</g>
</g>
<!-- Node4&#45;&gt;Node3 -->
<g id="edge5_Node000004_Node000003" class="edge">
<title>Node4&#45;&gt;Node3</title>
<g id="a_edge5_Node000004_Node000003"><a xlink:title=" ">
<path fill="none" stroke="#63b8ff" d="M1053.05,-489.02C1058.58,-481.28 1064.24,-471.81 1067.25,-462.25 1083.15,-411.72 1071.25,-396.1 1071.25,-343.12 1071.25,-343.12 1071.25,-343.12 1071.25,-280.25 1071.25,-234.22 1066.27,-179.27 1064.17,-158.13"/>
<polygon fill="#63b8ff" stroke="#63b8ff" points="1050.34,-486.8 1047.01,-496.86 1055.88,-491.07 1050.34,-486.8"/>
</a>
</g>
</g>
<!-- Node5 -->
<g id="Node000005" class="node">
<title>Node5</title>
<g id="a_Node000005"><a xlink:href="_n_w_b_container_8cpp.html" target="_top" xlink:title=" ">
<polygon fill="white" stroke="#666666" points="1043,-462.25 881.5,-462.25 881.5,-443 1043,-443 1043,-462.25"/>
<text xml:space="preserve" text-anchor="middle" x="962.25" y="-448.75" font-family="Helvetica,sans-Serif" font-size="10.00">src/nwb/base/NWBContainer.cpp</text>
</a>
</g>
</g>
<!-- Node4&#45;&gt;Node5 -->
<g id="edge6_Node000004_Node000005" class="edge">
<title>Node4&#45;&gt;Node5</title>
<g id="a_edge6_Node000004_Node000005"><a xlink:title=" ">
<path fill="none" stroke="#63b8ff" d="M1015.96,-491.26C1002.71,-481.97 986.36,-470.52 975.21,-462.7"/>
<polygon fill="#63b8ff" stroke="#63b8ff" points="1013.92,-494.1 1024.12,-496.97 1017.94,-488.37 1013.92,-494.1"/>
</a>
</g>
</g>
<!-- Node4&#45;&gt;Node6 -->
<g id="edge7_Node000004_Node000006" class="edge">
<title>Node4&#45;&gt;Node6</title>
<g id="a_edge7_Node000004_Node000006"><a xlink:title=" ">
<path fill="none" stroke="#63b8ff" d="M969.03,-496.07C906.23,-486.26 814.67,-471.96 755.53,-462.73"/>
<polygon fill="#63b8ff" stroke="#63b8ff" points="968.1,-499.46 978.52,-497.55 969.18,-492.55 968.1,-499.46"/>
</a>
</g>
</g>
<!-- Node4&#45;&gt;Node8 -->
<g id="edge44_Node000004_Node000008" class="edge">
<title>Node4&#45;&gt;Node8</title>
<g id="a_edge44_Node000004_Node000008"><a xlink:title=" ">
<path fill="none" stroke="#63b8ff" d="M1047.03,-487.88C1051.79,-475.14 1056,-458.01 1052.25,-443 1029.08,-350.2 960.09,-253.75 938.08,-224.6"/>
<polygon fill="#63b8ff" stroke="#63b8ff" points="1043.94,-486.19 1043.31,-496.76 1050.4,-488.9 1043.94,-486.19"/>
</a>
</g>
</g>
<!-- Node4&#45;&gt;Node27 -->
<g id="edge45_Node000004_Node000027" class="edge">
<title>Node4&#45;&gt;Node27</title>
<g id="a_edge45_Node000004_Node000027"><a xlink:title=" ">
<path fill="none" stroke="#63b8ff" d="M1090.75,-495.32C1135.25,-485.53 1198.17,-471.69 1239.09,-462.68"/>
<polygon fill="#63b8ff" stroke="#63b8ff" points="1090.07,-491.89 1081.05,-497.46 1091.57,-498.73 1090.07,-491.89"/>
</a>
</g>
</g>
<!-- Node4&#45;&gt;Node29 -->
<g id="edge51_Node000004_Node000029" class="edge">
<title>Node4&#45;&gt;Node29</title>
<g id="a_edge51_Node000004_Node000029"><a xlink:title=" ">
<path fill="none" stroke="#63b8ff" d="M1130.96,-505.78C1196.11,-502.19 1284.15,-491.58 1356.25,-462.25 1388.53,-449.12 1419.83,-421.35 1434.53,-407.14"/>
<polygon fill="#63b8ff" stroke="#63b8ff" points="1130.81,-502.28 1120.99,-506.27 1131.15,-509.27 1130.81,-502.28"/>
</a>
</g>
</g>
<!-- Node7 -->
<g id="Node000007" class="node">
<title>Node7</title>
<g id="a_Node000007"><a xlink:href="_n_w_b_data_interface_8cpp.html" target="_top" xlink:title=" ">
<polygon fill="white" stroke="#666666" points="787,-407 607.5,-407 607.5,-387.75 787,-387.75 787,-407"/>
<text xml:space="preserve" text-anchor="middle" x="697.25" y="-393.5" font-family="Helvetica,sans-Serif" font-size="10.00">src/nwb/base/NWBDataInterface.cpp</text>
</a>
</g>
</g>
<!-- Node6&#45;&gt;Node7 -->
<g id="edge8_Node000006_Node000007" class="edge">
<title>Node6&#45;&gt;Node7</title>
<g id="a_edge8_Node000006_Node000007"><a xlink:title=" ">
<path fill="none" stroke="#63b8ff" d="M697.25,-431.38C697.25,-423.09 697.25,-413.92 697.25,-407.36"/>
<polygon fill="#63b8ff" stroke="#63b8ff" points="693.75,-431.32 697.25,-441.32 700.75,-431.32 693.75,-431.32"/>
</a>
</g>
</g>
<!-- Node6&#45;&gt;Node8 -->
<g id="edge9_Node000006_Node000008" class="edge">
<title>Node6&#45;&gt;Node8</title>
<g id="a_edge9_Node000006_Node000008"><a xlink:title=" ">
<path fill="none" stroke="#63b8ff" d="M740.71,-438.77C759.38,-431.65 780.49,-421.29 796.25,-407 849.79,-358.46 832.29,-322.59 877.25,-266 890.16,-249.76 908.35,-233.95 919.97,-224.53"/>
<polygon fill="#63b8ff" stroke="#63b8ff" points="739.71,-435.41 731.48,-442.09 742.07,-442 739.71,-435.41"/>
</a>
</g>
</g>
<!-- Node6&#45;&gt;Node10 -->
<g id="edge12_Node000006_Node000010" class="edge">
<title>Node6&#45;&gt;Node10</title>
<g id="a_edge12_Node000006_Node000010"><a xlink:title=" ">
<path fill="none" stroke="#63b8ff" d="M648.97,-439.88C608.78,-430.11 552.38,-416.4 515.58,-407.45"/>
<polygon fill="#63b8ff" stroke="#63b8ff" points="648.09,-443.27 658.63,-442.23 649.74,-436.47 648.09,-443.27"/>
</a>
</g>
</g>
<!-- Node8&#45;&gt;Node3 -->
<g id="edge10_Node000008_Node000003" class="edge">
<title>Node8&#45;&gt;Node3</title>
<g id="a_edge10_Node000008_Node000003"><a xlink:title=" ">
<path fill="none" stroke="#63b8ff" d="M960.15,-199.63C985.88,-187.06 1022.74,-169.04 1044.71,-158.31"/>
<polygon fill="#63b8ff" stroke="#63b8ff" points="958.69,-196.45 951.24,-203.98 961.76,-202.74 958.69,-196.45"/>
</a>
</g>
</g>
<!-- Node9 -->
<g id="Node000009" class="node">
<title>Node9</title>
<g id="a_Node000009"><a xlink:href="_processing_module_8cpp.html" target="_top" xlink:title=" ">
<polygon fill="white" stroke="#666666" points="989.5,-157.88 813,-157.88 813,-138.62 989.5,-138.62 989.5,-157.88"/>
<text xml:space="preserve" text-anchor="middle" x="901.25" y="-144.38" font-family="Helvetica,sans-Serif" font-size="10.00">src/nwb/base/ProcessingModule.cpp</text>
</a>
</g>
</g>
<!-- Node8&#45;&gt;Node9 -->
<g id="edge11_Node000008_Node000009" class="edge">
<title>Node8&#45;&gt;Node9</title>
<g id="a_edge11_Node000008_Node000009"><a xlink:title=" ">
<path fill="none" stroke="#63b8ff" d="M922.25,-194.4C916.65,-182.36 909.72,-167.45 905.39,-158.14"/>
<polygon fill="#63b8ff" stroke="#63b8ff" points="919.05,-195.82 926.44,-203.41 925.4,-192.87 919.05,-195.82"/>
</a>
</g>
</g>
<!-- Node10&#45;&gt;Node3 -->
<g id="edge36_Node000010_Node000003" class="edge">
<title>Node10&#45;&gt;Node3</title>
<g id="a_edge36_Node000010_Node000003"><a xlink:title=" ">
<path fill="none" stroke="#63b8ff" d="M545.72,-384.86C576.82,-377.91 613.55,-367.31 644.25,-351.75 740.77,-302.83 736.61,-246.16 834.25,-199.5 834.38,-199.44 955.86,-172.8 1021.81,-158.34"/>
<polygon fill="#63b8ff" stroke="#63b8ff" points="545.06,-381.42 536.02,-386.94 546.53,-388.26 545.06,-381.42"/>
</a>
</g>
</g>
<!-- Node11 -->
<g id="Node000011" class="node">
<title>Node11</title>
<g id="a_Node000011"><a xlink:href="_recording_objects_8hpp.html" target="_top" xlink:title=" ">
<polygon fill="white" stroke="#666666" points="422.12,-351.75 282.38,-351.75 282.38,-332.5 422.12,-332.5 422.12,-351.75"/>
<text xml:space="preserve" text-anchor="middle" x="352.25" y="-338.25" font-family="Helvetica,sans-Serif" font-size="10.00">src/io/RecordingObjects.hpp</text>
</a>
</g>
</g>
<!-- Node10&#45;&gt;Node11 -->
<g id="edge13_Node000010_Node000011" class="edge">
<title>Node10&#45;&gt;Node11</title>
<g id="a_edge13_Node000010_Node000011"><a xlink:title=" ">
<path fill="none" stroke="#63b8ff" d="M446.37,-382.9C423.63,-373.29 393.68,-360.63 373.73,-352.2"/>
<polygon fill="#63b8ff" stroke="#63b8ff" points="444.91,-386.08 455.48,-386.75 447.63,-379.64 444.91,-386.08"/>
</a>
</g>
</g>
<!-- Node14 -->
<g id="Node000014" class="node">
<title>Node14</title>
<g id="a_Node000014"><a xlink:href="nwbio__utils_8hpp.html" target="_top" xlink:title=" ">
<polygon fill="white" stroke="#666666" points="329.5,-24.88 219,-24.88 219,-5.63 329.5,-5.63 329.5,-24.88"/>
<text xml:space="preserve" text-anchor="middle" x="274.25" y="-11.38" font-family="Helvetica,sans-Serif" font-size="10.00">src/io/nwbio_utils.hpp</text>
</a>
</g>
</g>
<!-- Node10&#45;&gt;Node14 -->
<g id="edge35_Node000010_Node000014" class="edge">
<title>Node10&#45;&gt;Node14</title>
<g id="a_edge35_Node000010_Node000014"><a xlink:title=" ">
<path fill="none" stroke="#63b8ff" d="M394.12,-388.33C355.63,-382.12 310.43,-371.15 273.25,-351.75 232.96,-330.73 198.25,-327.69 198.25,-282.25 198.25,-282.25 198.25,-282.25 198.25,-147.25 198.25,-95.19 243.71,-45.3 264.31,-25.36"/>
<polygon fill="#63b8ff" stroke="#63b8ff" points="393.4,-391.76 403.81,-389.8 394.45,-384.84 393.4,-391.76"/>
</a>
</g>
</g>
<!-- Node10&#45;&gt;Node19 -->
<g id="edge38_Node000010_Node000019" class="edge">
<title>Node10&#45;&gt;Node19</title>
<g id="a_edge38_Node000010_Node000019"><a xlink:title=" ">
<path fill="none" stroke="#63b8ff" d="M532.3,-384.32C579.27,-370.94 645.39,-344.6 682.25,-296.5 713.86,-255.26 723.98,-191.96 727.02,-163.72"/>
<polygon fill="#63b8ff" stroke="#63b8ff" points="531.59,-380.88 522.86,-386.89 533.43,-387.64 531.59,-380.88"/>
</a>
</g>
</g>
<!-- Node24 -->
<g id="Node000024" class="node">
<title>Node24</title>
<g id="a_Node000024"><a xlink:href="_time_series_8cpp.html" target="_top" xlink:title=" ">
<polygon fill="white" stroke="#666666" points="586.12,-351.75 440.38,-351.75 440.38,-332.5 586.12,-332.5 586.12,-351.75"/>
<text xml:space="preserve" text-anchor="middle" x="513.25" y="-338.25" font-family="Helvetica,sans-Serif" font-size="10.00">src/nwb/base/TimeSeries.cpp</text>
</a>
</g>
</g>
<!-- Node10&#45;&gt;Node24 -->
<g id="edge37_Node000010_Node000024" class="edge">
<title>Node10&#45;&gt;Node24</title>
<g id="a_edge37_Node000010_Node000024"><a xlink:title=" ">
<path fill="none" stroke="#63b8ff" d="M490.23,-378.15C496,-369.36 502.68,-359.21 507.34,-352.11"/>
<polygon fill="#63b8ff" stroke="#63b8ff" points="487.43,-376.04 484.86,-386.32 493.28,-379.88 487.43,-376.04"/>
</a>
</g>
</g>
<!-- Node10&#45;&gt;Node25 -->
<g id="edge39_Node000010_Node000025" class="edge">
<title>Node10&#45;&gt;Node25</title>
<g id="a_edge39_Node000010_Node000025"><a xlink:title=" ">
<path fill="none" stroke="#63b8ff" d="M393.84,-392.28C318.98,-387.12 216.62,-375.8 184.25,-351.75 156.8,-331.36 151.25,-316.44 151.25,-282.25 151.25,-282.25 151.25,-282.25 151.25,-213.75 151.25,-163.07 111.37,-112.02 93.61,-91.8"/>
<polygon fill="#63b8ff" stroke="#63b8ff" points="393.42,-395.76 403.63,-392.93 393.88,-388.78 393.42,-395.76"/>
</a>
</g>
</g>
<!-- Node12 -->
<g id="Node000012" class="node">
<title>Node12</title>
<g id="a_Node000012"><a xlink:href="_base_i_o_8cpp.html" target="_top" xlink:title=" ">
<polygon fill="white" stroke="#666666" points="673.62,-290.88 578.88,-290.88 578.88,-271.62 673.62,-271.62 673.62,-290.88"/>
<text xml:space="preserve" text-anchor="middle" x="626.25" y="-277.38" font-family="Helvetica,sans-Serif" font-size="10.00">src/io/BaseIO.cpp</text>
</a>
</g>
</g>
<!-- Node11&#45;&gt;Node12 -->
<g id="edge14_Node000011_Node000012" class="edge">
<title>Node11&#45;&gt;Node12</title>
<g id="a_edge14_Node000011_Node000012"><a xlink:title=" ">
<path fill="none" stroke="#63b8ff" d="M410.65,-329.81C454.42,-321.16 515.72,-308.69 569.25,-296.5 576.31,-294.89 583.84,-293.08 591.03,-291.3"/>
<polygon fill="#63b8ff" stroke="#63b8ff" points="409.98,-326.37 400.84,-331.74 411.33,-333.24 409.98,-326.37"/>
</a>
</g>
</g>
<!-- Node13 -->
<g id="Node000013" class="node">
<title>Node13</title>
<g id="a_Node000013"><a xlink:href="_recording_objects_8cpp.html" target="_top" xlink:title=" ">
<polygon fill="white" stroke="#666666" points="563.12,-24.88 423.38,-24.88 423.38,-5.63 563.12,-5.63 563.12,-24.88"/>
<text xml:space="preserve" text-anchor="middle" x="493.25" y="-11.38" font-family="Helvetica,sans-Serif" font-size="10.00">src/io/RecordingObjects.cpp</text>
</a>
</g>
</g>
<!-- Node11&#45;&gt;Node13 -->
<g id="edge15_Node000011_Node000013" class="edge">
<title>Node11&#45;&gt;Node13</title>
<g id="a_edge15_Node000011_Node000013"><a xlink:title=" ">
<path fill="none" stroke="#63b8ff" d="M318.55,-327.49C303.51,-320.09 286.46,-309.73 274.25,-296.5 247.34,-267.36 236.25,-255.41 236.25,-215.75 236.25,-215.75 236.25,-215.75 236.25,-147.25 236.25,-63.12 346.93,-32.99 423.02,-22.22"/>
<polygon fill="#63b8ff" stroke="#63b8ff" points="316.65,-330.47 327.19,-331.5 319.59,-324.12 316.65,-330.47"/>
</a>
</g>
</g>
<!-- Node11&#45;&gt;Node14 -->
<g id="edge16_Node000011_Node000014" class="edge">
<title>Node11&#45;&gt;Node14</title>
<g id="a_edge16_Node000011_Node000014"><a xlink:title=" ">
<path fill="none" stroke="#63b8ff" d="M324.74,-326.12C313.41,-318.63 301.11,-308.57 293.25,-296.5 273.13,-265.6 274.25,-252.62 274.25,-215.75 274.25,-215.75 274.25,-215.75 274.25,-147.25 274.25,-101.31 274.25,-46.31 274.25,-25.14"/>
<polygon fill="#63b8ff" stroke="#63b8ff" points="322.69,-328.97 333.04,-331.24 326.36,-323.01 322.69,-328.97"/>
</a>
</g>
</g>
<!-- Node15 -->
<g id="Node000015" class="node">
<title>Node15</title>
<g id="a_Node000015"><a xlink:href="_registered_type_8cpp.html" target="_top" xlink:title=" ">
<polygon fill="white" stroke="#666666" points="560.5,-290.88 420,-290.88 420,-271.62 560.5,-271.62 560.5,-290.88"/>
<text xml:space="preserve" text-anchor="middle" x="490.25" y="-277.38" font-family="Helvetica,sans-Serif" font-size="10.00">src/nwb/RegisteredType.cpp</text>
</a>
</g>
</g>
<!-- Node11&#45;&gt;Node15 -->
<g id="edge17_Node000011_Node000015" class="edge">
<title>Node11&#45;&gt;Node15</title>
<g id="a_edge17_Node000011_Node000015"><a xlink:title=" ">
<path fill="none" stroke="#63b8ff" d="M384.03,-327.57C410.18,-316.41 446.52,-300.91 469.19,-291.23"/>
<polygon fill="#63b8ff" stroke="#63b8ff" points="382.73,-324.32 374.9,-331.46 385.47,-330.76 382.73,-324.32"/>
</a>
</g>
</g>
<!-- Node16 -->
<g id="Node000016" class="node">
<title>Node16</title>
<g id="a_Node000016"><a xlink:href="_dynamic_table_8hpp.html" target="_top" xlink:title=" ">
<polygon fill="white" stroke="#666666" points="402.25,-296.5 302.25,-296.5 302.25,-266 402.25,-266 402.25,-296.5"/>
<text xml:space="preserve" text-anchor="start" x="310.25" y="-283" font-family="Helvetica,sans-Serif" font-size="10.00">src/nwb/hdmf/table</text>
<text xml:space="preserve" text-anchor="middle" x="352.25" y="-271.75" font-family="Helvetica,sans-Serif" font-size="10.00">/DynamicTable.hpp</text>
</a>
</g>
</g>
<!-- Node11&#45;&gt;Node16 -->
<g id="edge18_Node000011_Node000016" class="edge">
<title>Node11&#45;&gt;Node16</title>
<g id="a_edge18_Node000011_Node000016"><a xlink:title=" ">
<path fill="none" stroke="#63b8ff" d="M352.25,-320.92C352.25,-312.99 352.25,-304.06 352.25,-296.78"/>
<polygon fill="#63b8ff" stroke="#63b8ff" points="348.75,-320.67 352.25,-330.67 355.75,-320.67 348.75,-320.67"/>
</a>
</g>
</g>
<!-- Node16&#45;&gt;Node8 -->
<g id="edge19_Node000016_Node000008" class="edge">
<title>Node16&#45;&gt;Node8</title>
<g id="a_edge19_Node000016_Node000008"><a xlink:title=" ">
<path fill="none" stroke="#63b8ff" d="M413.9,-265.71C570.01,-240.04 741.46,-226.79 842.89,-220.49"/>
<polygon fill="#63b8ff" stroke="#63b8ff" points="413.47,-262.23 404.18,-267.33 414.62,-269.13 413.47,-262.23"/>
</a>
</g>
</g>
<!-- Node16&#45;&gt;Node17 -->
<g id="edge20_Node000016_Node000017" class="edge">
<title>Node16&#45;&gt;Node17</title>
<g id="a_edge20_Node000016_Node000017"><a xlink:title=" ">
<path fill="none" stroke="#63b8ff" d="M413.69,-264.14C461.1,-251.71 524.95,-234.97 563.77,-224.79"/>
<polygon fill="#63b8ff" stroke="#63b8ff" points="412.87,-260.74 404.09,-266.66 414.65,-267.51 412.87,-260.74"/>
</a>
</g>
</g>
<!-- Node23 -->
<g id="Node000023" class="node">
<title>Node23</title>
<g id="a_Node000023"><a xlink:href="_dynamic_table_8cpp.html" target="_top" xlink:title=" ">
<polygon fill="white" stroke="#666666" points="402.25,-230 302.25,-230 302.25,-199.5 402.25,-199.5 402.25,-230"/>
<text xml:space="preserve" text-anchor="start" x="310.25" y="-216.5" font-family="Helvetica,sans-Serif" font-size="10.00">src/nwb/hdmf/table</text>
<text xml:space="preserve" text-anchor="middle" x="352.25" y="-205.25" font-family="Helvetica,sans-Serif" font-size="10.00">/DynamicTable.cpp</text>
</a>
</g>
</g>
<!-- Node16&#45;&gt;Node23 -->
<g id="edge34_Node000016_Node000023" class="edge">
<title>Node16&#45;&gt;Node23</title>
<g id="a_edge34_Node000016_Node000023"><a xlink:title=" ">
<path fill="none" stroke="#63b8ff" d="M352.25,-254.31C352.25,-246.14 352.25,-237.41 352.25,-230.33"/>
<polygon fill="#63b8ff" stroke="#63b8ff" points="348.75,-254.1 352.25,-264.1 355.75,-254.1 348.75,-254.1"/>
</a>
</g>
</g>
<!-- Node17&#45;&gt;Node3 -->
<g id="edge21_Node000017_Node000003" class="edge">
<title>Node17&#45;&gt;Node3</title>
<g id="a_edge21_Node000017_Node000003"><a xlink:title=" ">
<path fill="none" stroke="#63b8ff" d="M688.69,-204.76C769.99,-196.12 892.52,-181.69 998.25,-163.5 1006.79,-162.03 1015.9,-160.2 1024.52,-158.34"/>
<polygon fill="#63b8ff" stroke="#63b8ff" points="688.58,-201.25 679,-205.78 689.31,-208.21 688.58,-201.25"/>
</a>
</g>
</g>
<!-- Node18 -->
<g id="Node000018" class="node">
<title>Node18</title>
<g id="a_Node000018"><a xlink:href="_electrical_series_8cpp.html" target="_top" xlink:title=" ">
<polygon fill="white" stroke="#666666" points="529.12,-97 395.38,-97 395.38,-66.5 529.12,-66.5 529.12,-97"/>
<text xml:space="preserve" text-anchor="start" x="403.38" y="-83.5" font-family="Helvetica,sans-Serif" font-size="10.00">src/nwb/ecephys/Electrical</text>
<text xml:space="preserve" text-anchor="middle" x="462.25" y="-72.25" font-family="Helvetica,sans-Serif" font-size="10.00">Series.cpp</text>
</a>
</g>
</g>
<!-- Node17&#45;&gt;Node18 -->
<g id="edge22_Node000017_Node000018" class="edge">
<title>Node17&#45;&gt;Node18</title>
<g id="a_edge22_Node000017_Node000018"><a xlink:title=" ">
<path fill="none" stroke="#63b8ff" d="M536.32,-201.39C514.27,-193.96 491.21,-182.16 476.25,-163.5 461.03,-144.52 459.9,-114.87 460.82,-97.27"/>
<polygon fill="#63b8ff" stroke="#63b8ff" points="534.99,-204.64 545.58,-204.25 537.06,-197.95 534.99,-204.64"/>
</a>
</g>
</g>
<!-- Node17&#45;&gt;Node19 -->
<g id="edge23_Node000017_Node000019" class="edge">
<title>Node17&#45;&gt;Node19</title>
<g id="a_edge23_Node000017_Node000019"><a xlink:title=" ">
<path fill="none" stroke="#63b8ff" d="M626.71,-199.63C648.12,-189.01 677.37,-174.5 698.97,-163.78"/>
<polygon fill="#63b8ff" stroke="#63b8ff" points="625.36,-196.39 617.96,-203.97 628.47,-202.66 625.36,-196.39"/>
</a>
</g>
</g>
<!-- Node22 -->
<g id="Node000022" class="node">
<title>Node22</title>
<g id="a_Node000022"><a xlink:href="_electrodes_table_8cpp.html" target="_top" xlink:title=" ">
<polygon fill="white" stroke="#666666" points="643.12,-157.88 485.38,-157.88 485.38,-138.62 643.12,-138.62 643.12,-157.88"/>
<text xml:space="preserve" text-anchor="middle" x="564.25" y="-144.38" font-family="Helvetica,sans-Serif" font-size="10.00">src/nwb/file/ElectrodesTable.cpp</text>
</a>
</g>
</g>
<!-- Node17&#45;&gt;Node22 -->
<g id="edge33_Node000017_Node000022" class="edge">
<title>Node17&#45;&gt;Node22</title>
<g id="a_edge33_Node000017_Node000022"><a xlink:title=" ">
<path fill="none" stroke="#63b8ff" d="M588.24,-194.77C581.86,-182.67 573.89,-167.55 568.94,-158.14"/>
<polygon fill="#63b8ff" stroke="#63b8ff" points="585.06,-196.23 592.82,-203.44 591.25,-192.96 585.06,-196.23"/>
</a>
</g>
</g>
<!-- Node19&#45;&gt;Node2 -->
<g id="edge26_Node000019_Node000002" class="edge">
<title>Node19&#45;&gt;Node2</title>
<g id="a_edge26_Node000019_Node000002"><a xlink:title=" ">
<path fill="none" stroke="#63b8ff" d="M776,-128.58C849,-100.03 985.62,-46.61 1040.03,-25.33"/>
<polygon fill="#63b8ff" stroke="#63b8ff" points="775.15,-125.15 767.11,-132.05 777.7,-131.67 775.15,-125.15"/>
</a>
</g>
</g>
<!-- Node19&#45;&gt;Node13 -->
<g id="edge24_Node000019_Node000013" class="edge">
<title>Node19&#45;&gt;Node13</title>
<g id="a_edge24_Node000019_Node000013"><a xlink:title=" ">
<path fill="none" stroke="#63b8ff" d="M692.45,-127.29C640.73,-98.46 547.2,-46.32 509.58,-25.35"/>
<polygon fill="#63b8ff" stroke="#63b8ff" points="690.44,-130.18 700.88,-131.99 693.85,-124.07 690.44,-130.18"/>
</a>
</g>
</g>
<!-- Node19&#45;&gt;Node14 -->
<g id="edge25_Node000019_Node000014" class="edge">
<title>Node19&#45;&gt;Node14</title>
<g id="a_edge25_Node000019_Node000014"><a xlink:title=" ">
<path fill="none" stroke="#63b8ff" d="M666.37,-129.07C640.7,-120.63 610.98,-109.64 585.25,-97 562.9,-86.02 561.36,-75.78 538.25,-66.5 469.52,-38.9 384.51,-26.21 329.84,-20.55"/>
<polygon fill="#63b8ff" stroke="#63b8ff" points="665.06,-132.33 675.65,-132.07 667.21,-125.67 665.06,-132.33"/>
</a>
</g>
</g>
<!-- Node19&#45;&gt;Node18 -->
<g id="edge27_Node000019_Node000018" class="edge">
<title>Node19&#45;&gt;Node18</title>
<g id="a_edge27_Node000019_Node000018"><a xlink:title=" ">
<path fill="none" stroke="#63b8ff" d="M656.6,-129.88C614.72,-119.72 562.46,-107.05 522.68,-97.4"/>
<polygon fill="#63b8ff" stroke="#63b8ff" points="655.54,-133.22 666.09,-132.18 657.19,-126.42 655.54,-133.22"/>
</a>
</g>
</g>
<!-- Node19&#45;&gt;Node20 -->
<g id="edge28_Node000019_Node000020" class="edge">
<title>Node19&#45;&gt;Node20</title>
<g id="a_edge28_Node000019_Node000020"><a xlink:title=" ">
<path fill="none" stroke="#63b8ff" d="M728.25,-121.31C728.25,-113.14 728.25,-104.41 728.25,-97.33"/>
<polygon fill="#63b8ff" stroke="#63b8ff" points="724.75,-121.1 728.25,-131.1 731.75,-121.1 724.75,-121.1"/>
</a>
</g>
</g>
<!-- Node20&#45;&gt;Node2 -->
<g id="edge31_Node000020_Node000002" class="edge">
<title>Node20&#45;&gt;Node2</title>
<g id="a_edge31_Node000020_Node000002"><a xlink:title=" ">
<path fill="none" stroke="#63b8ff" d="M811.09,-64.8C875.71,-52.36 963.14,-35.52 1016.25,-25.3"/>
<polygon fill="#63b8ff" stroke="#63b8ff" points="810.76,-61.3 801.6,-66.63 812.08,-68.17 810.76,-61.3"/>
</a>
</g>
</g>
<!-- Node20&#45;&gt;Node13 -->
<g id="edge29_Node000020_Node000013" class="edge">
<title>Node20&#45;&gt;Node13</title>
<g id="a_edge29_Node000020_Node000013"><a xlink:title=" ">
<path fill="none" stroke="#63b8ff" d="M663.61,-63.01C619.11,-50.8 561.84,-35.07 526.33,-25.33"/>
<polygon fill="#63b8ff" stroke="#63b8ff" points="662.6,-66.36 673.17,-65.63 664.45,-59.61 662.6,-66.36"/>
</a>
</g>
</g>
<!-- Node20&#45;&gt;Node14 -->
<g id="edge30_Node000020_Node000014" class="edge">
<title>Node20&#45;&gt;Node14</title>
<g id="a_edge30_Node000020_Node000014"><a xlink:title=" ">
<path fill="none" stroke="#63b8ff" d="M644.87,-68.9C553.18,-55.88 408.42,-35.31 329.7,-24.13"/>
<polygon fill="#63b8ff" stroke="#63b8ff" points="644.17,-72.34 654.56,-70.28 645.15,-65.41 644.17,-72.34"/>
</a>
</g>
</g>
<!-- Node21 -->
<g id="Node000021" class="node">
<title>Node21</title>
<g id="a_Node000021"><a xlink:href="_spike_event_series_8cpp.html" target="_top" xlink:title=" ">
<polygon fill="white" stroke="#666666" points="800,-30.5 656.5,-30.5 656.5,0 800,0 800,-30.5"/>
<text xml:space="preserve" text-anchor="start" x="664.5" y="-17" font-family="Helvetica,sans-Serif" font-size="10.00">src/nwb/ecephys/SpikeEvent</text>
<text xml:space="preserve" text-anchor="middle" x="728.25" y="-5.75" font-family="Helvetica,sans-Serif" font-size="10.00">Series.cpp</text>
</a>
</g>
</g>
<!-- Node20&#45;&gt;Node21 -->
<g id="edge32_Node000020_Node000021" class="edge">
<title>Node20&#45;&gt;Node21</title>
<g id="a_edge32_Node000020_Node000021"><a xlink:title=" ">
<path fill="none" stroke="#63b8ff" d="M728.25,-54.81C728.25,-46.64 728.25,-37.91 728.25,-30.83"/>
<polygon fill="#63b8ff" stroke="#63b8ff" points="724.75,-54.6 728.25,-64.6 731.75,-54.6 724.75,-54.6"/>
</a>
</g>
</g>
<!-- Node25&#45;&gt;Node2 -->
<g id="edge42_Node000025_Node000002" class="edge">
<title>Node25&#45;&gt;Node2</title>
<g id="a_edge42_Node000025_Node000002"><a xlink:title=" ">
<path fill="none" stroke="#63b8ff" d="M181.94,-74.37C384.17,-61.04 846.31,-30.56 1006.97,-19.96"/>
<polygon fill="#63b8ff" stroke="#63b8ff" points="182.01,-70.86 172.27,-75.01 182.48,-77.85 182.01,-70.86"/>
</a>
</g>
</g>
<!-- Node25&#45;&gt;Node13 -->
<g id="edge40_Node000025_Node000013" class="edge">
<title>Node25&#45;&gt;Node13</title>
<g id="a_edge40_Node000025_Node000013"><a xlink:title=" ">
<path fill="none" stroke="#63b8ff" d="M154.14,-69.86C233.25,-57.35 361.6,-37.06 435.62,-25.36"/>
<polygon fill="#63b8ff" stroke="#63b8ff" points="153.67,-66.39 144.34,-71.41 154.76,-73.3 153.67,-66.39"/>
</a>
</g>
</g>
<!-- Node25&#45;&gt;Node14 -->
<g id="edge41_Node000025_Node000014" class="edge">
<title>Node25&#45;&gt;Node14</title>
<g id="a_edge41_Node000025_Node000014"><a xlink:title=" ">
<path fill="none" stroke="#63b8ff" d="M122.75,-67.95C159.67,-55.35 215.13,-36.43 247.71,-25.31"/>
<polygon fill="#63b8ff" stroke="#63b8ff" points="121.69,-64.61 113.36,-71.16 123.96,-71.24 121.69,-64.61"/>
</a>
</g>
</g>
<!-- Node26 -->
<g id="Node000026" class="node">
<title>Node26</title>
<g id="a_Node000026"><a xlink:href="_annotation_series_8cpp.html" target="_top" xlink:title=" ">
<polygon fill="white" stroke="#666666" points="170.5,-24.88 0,-24.88 0,-5.63 170.5,-5.63 170.5,-24.88"/>
<text xml:space="preserve" text-anchor="middle" x="85.25" y="-11.38" font-family="Helvetica,sans-Serif" font-size="10.00">src/nwb/misc/AnnotationSeries.cpp</text>
</a>
</g>
</g>
<!-- Node25&#45;&gt;Node26 -->
<g id="edge43_Node000025_Node000026" class="edge">
<title>Node25&#45;&gt;Node26</title>
<g id="a_edge43_Node000025_Node000026"><a xlink:title=" ">
<path fill="none" stroke="#63b8ff" d="M85.25,-60.27C85.25,-48.44 85.25,-34.16 85.25,-25.14"/>
<polygon fill="#63b8ff" stroke="#63b8ff" points="81.75,-60.27 85.25,-70.27 88.75,-60.27 81.75,-60.27"/>
</a>
</g>
</g>
<!-- Node27&#45;&gt;Node2 -->
<g id="edge46_Node000027_Node000002" class="edge">
<title>Node27&#45;&gt;Node2</title>
<g id="a_edge46_Node000027_Node000002"><a xlink:title=" ">
<path fill="none" stroke="#63b8ff" d="M1299.61,-434.73C1306.93,-427.09 1314.41,-417.43 1318.25,-407 1321.21,-398.97 1319.01,-396.27 1318.25,-387.75 1314.01,-340.3 1299.25,-329.89 1299.25,-282.25 1299.25,-282.25 1299.25,-282.25 1299.25,-147.25 1299.25,-65.36 1189.28,-34.23 1119.48,-22.71"/>
<polygon fill="#63b8ff" stroke="#63b8ff" points="1297.19,-432.2 1292.41,-441.65 1302.05,-437.24 1297.19,-432.2"/>
</a>
</g>
</g>
<!-- Node28 -->
<g id="Node000028" class="node">
<title>Node28</title>
<g id="a_Node000028"><a xlink:href="_device_8cpp.html" target="_top" xlink:title=" ">
<polygon fill="white" stroke="#666666" points="1309.5,-407 1175,-407 1175,-387.75 1309.5,-387.75 1309.5,-407"/>
<text xml:space="preserve" text-anchor="middle" x="1242.25" y="-393.5" font-family="Helvetica,sans-Serif" font-size="10.00">src/nwb/device/Device.cpp</text>
</a>
</g>
</g>
<!-- Node27&#45;&gt;Node28 -->
<g id="edge47_Node000027_Node000028" class="edge">
<title>Node27&#45;&gt;Node28</title>
<g id="a_edge47_Node000027_Node000028"><a xlink:title=" ">
<path fill="none" stroke="#63b8ff" d="M1267.45,-433.69C1261.13,-424.84 1253.79,-414.54 1248.66,-407.36"/>
<polygon fill="#63b8ff" stroke="#63b8ff" points="1264.44,-435.49 1273.1,-441.6 1270.14,-431.43 1264.44,-435.49"/>
</a>
</g>
</g>
<!-- Node27&#45;&gt;Node29 -->
<g id="edge48_Node000027_Node000029" class="edge">
<title>Node27&#45;&gt;Node29</title>
<g id="a_edge48_Node000027_Node000029"><a xlink:title=" ">
<path fill="none" stroke="#63b8ff" d="M1318.71,-439.06C1348.43,-429.35 1388.84,-416.15 1415.46,-407.45"/>
<polygon fill="#63b8ff" stroke="#63b8ff" points="1317.76,-435.69 1309.34,-442.12 1319.93,-442.34 1317.76,-435.69"/>
</a>
</g>
</g>
<!-- Node29&#45;&gt;Node2 -->
<g id="edge49_Node000029_Node000002" class="edge">
<title>Node29&#45;&gt;Node2</title>
<g id="a_edge49_Node000029_Node000002"><a xlink:title=" ">
<path fill="none" stroke="#63b8ff" d="M1465.81,-380.44C1475.21,-372.74 1485.49,-362.79 1492.25,-351.75 1508.97,-324.44 1511.25,-314.27 1511.25,-282.25 1511.25,-282.25 1511.25,-282.25 1511.25,-147.25 1511.25,-66.52 1239.86,-32.1 1119.54,-20.81"/>
<polygon fill="#63b8ff" stroke="#63b8ff" points="1463.84,-377.53 1458.06,-386.4 1468.12,-383.07 1463.84,-377.53"/>
</a>
</g>
</g>
<!-- Node30 -->
<g id="Node000030" class="node">
<title>Node30</title>
<g id="a_Node000030"><a xlink:href="_electrode_group_8cpp.html" target="_top" xlink:title=" ">
<polygon fill="white" stroke="#666666" points="1483,-351.75 1327.5,-351.75 1327.5,-332.5 1483,-332.5 1483,-351.75"/>
<text xml:space="preserve" text-anchor="middle" x="1405.25" y="-338.25" font-family="Helvetica,sans-Serif" font-size="10.00">src/nwb/file/ElectrodeGroup.cpp</text>
</a>
</g>
</g>
<!-- Node29&#45;&gt;Node30 -->
<g id="edge50_Node000029_Node000030" class="edge">
<title>Node29&#45;&gt;Node30</title>
<g id="a_edge50_Node000029_Node000030"><a xlink:title=" ">
<path fill="none" stroke="#63b8ff" d="M1430.45,-378.44C1424.13,-369.59 1416.79,-359.29 1411.66,-352.11"/>
<polygon fill="#63b8ff" stroke="#63b8ff" points="1427.44,-380.24 1436.1,-386.35 1433.14,-376.18 1427.44,-380.24"/>
</a>
</g>
</g>
<!-- Node32 -->
<g id="Node000032" class="node">
<title>Node32</title>
<g id="a_Node000032"><a xlink:href="_n_w_b_data_8cpp.html" target="_top" xlink:title=" ">
<polygon fill="white" stroke="#666666" points="1718.88,-462.25 1577.62,-462.25 1577.62,-443 1718.88,-443 1718.88,-462.25"/>
<text xml:space="preserve" text-anchor="middle" x="1648.25" y="-448.75" font-family="Helvetica,sans-Serif" font-size="10.00">src/nwb/base/NWBData.cpp</text>
</a>
</g>
</g>
<!-- Node31&#45;&gt;Node32 -->
<g id="edge53_Node000031_Node000032" class="edge">
<title>Node31&#45;&gt;Node32</title>
<g id="a_edge53_Node000031_Node000032"><a xlink:title=" ">
<path fill="none" stroke="#63b8ff" d="M1648.25,-486.63C1648.25,-478.34 1648.25,-469.17 1648.25,-462.61"/>
<polygon fill="#63b8ff" stroke="#63b8ff" points="1644.75,-486.57 1648.25,-496.57 1651.75,-486.57 1644.75,-486.57"/>
</a>
</g>
</g>
</g>
</svg>
