<?xml version="1.0" encoding="UTF-8" standalone="no"?>
<!DOCTYPE svg PUBLIC "-//W3C//DTD SVG 1.1//EN"
 "http://www.w3.org/Graphics/SVG/1.1/DTD/svg11.dtd">
<!-- Generated by graphviz version 2.43.0 (0)
 -->
<!-- Title: src/nwb/hdmf/base/Data.hpp Pages: 1 -->
<svg width="477pt" height="296pt"
 viewBox="0.00 0.00 476.50 296.00" xmlns="http://www.w3.org/2000/svg" xmlns:xlink="http://www.w3.org/1999/xlink">
<g id="graph0" class="graph" transform="scale(1 1) rotate(0) translate(4 292)">
<title>src/nwb/hdmf/base/Data.hpp</title>
<polygon fill="white" stroke="transparent" points="-4,4 -4,-292 472.5,-292 472.5,4 -4,4"/>
<!-- Node1 -->
<g id="node1" class="node">
<title>Node1</title>
<g id="a_node1"><a xlink:title=" ">
<polygon fill="#bfbfbf" stroke="black" points="142,-268.5 142,-287.5 298,-287.5 298,-268.5 142,-268.5"/>
<text text-anchor="middle" x="220" y="-275.5" font-family="Helvetica,sans-Serif" font-size="10.00">src/nwb/hdmf/base/Data.hpp</text>
</a>
</g>
</g>
<!-- Node2 -->
<g id="node2" class="node">
<title>Node2</title>
<g id="a_node2"><a xlink:href="ElementIdentifiers_8hpp.html" target="_top" xlink:title=" ">
<polygon fill="white" stroke="black" points="86,-201.5 86,-231.5 216,-231.5 216,-201.5 86,-201.5"/>
<text text-anchor="start" x="94" y="-219.5" font-family="Helvetica,sans-Serif" font-size="10.00">src/nwb/hdmf/table</text>
<text text-anchor="middle" x="151" y="-208.5" font-family="Helvetica,sans-Serif" font-size="10.00">/ElementIdentifiers.hpp</text>
</a>
</g>
</g>
<!-- Node1&#45;&gt;Node2 -->
<g id="edge1" class="edge">
<title>Node1&#45;&gt;Node2</title>
<path fill="none" stroke="midnightblue" d="M202.51,-261.92C191.68,-252.58 177.86,-240.66 167.26,-231.52"/>
<polygon fill="midnightblue" stroke="midnightblue" points="200.26,-264.6 210.11,-268.48 204.83,-259.29 200.26,-264.6"/>
</g>
<!-- Node9 -->
<g id="node9" class="node">
<title>Node9</title>
<g id="a_node9"><a xlink:href="VectorData_8hpp.html" target="_top" xlink:title=" ">
<polygon fill="white" stroke="black" points="234,-201.5 234,-231.5 344,-231.5 344,-201.5 234,-201.5"/>
<text text-anchor="start" x="242" y="-219.5" font-family="Helvetica,sans-Serif" font-size="10.00">src/nwb/hdmf/table</text>
<text text-anchor="middle" x="289" y="-208.5" font-family="Helvetica,sans-Serif" font-size="10.00">/VectorData.hpp</text>
</a>
</g>
</g>
<!-- Node1&#45;&gt;Node9 -->
<g id="edge9" class="edge">
<title>Node1&#45;&gt;Node9</title>
<path fill="none" stroke="midnightblue" d="M237.49,-261.92C248.32,-252.58 262.14,-240.66 272.74,-231.52"/>
<polygon fill="midnightblue" stroke="midnightblue" points="235.17,-259.29 229.89,-268.48 239.74,-264.6 235.17,-259.29"/>
</g>
<!-- Node3 -->
<g id="node3" class="node">
<title>Node3</title>
<g id="a_node3"><a xlink:href="ElectrodeTable_8hpp.html" target="_top" xlink:title=" ">
<polygon fill="white" stroke="black" points="164.5,-73 164.5,-92 331.5,-92 331.5,-73 164.5,-73"/>
<text text-anchor="middle" x="248" y="-80" font-family="Helvetica,sans-Serif" font-size="10.00">src/nwb/file/ElectrodeTable.hpp</text>
</a>
</g>
</g>
<!-- Node2&#45;&gt;Node3 -->
<g id="edge2" class="edge">
<title>Node2&#45;&gt;Node3</title>
<path fill="none" stroke="midnightblue" d="M140.93,-191.92C135.21,-174.61 131.14,-151.21 142,-134 156.04,-111.76 182.84,-99.11 205.98,-92.04"/>
<polygon fill="midnightblue" stroke="midnightblue" points="137.65,-193.14 144.38,-201.32 144.22,-190.73 137.65,-193.14"/>
</g>
<!-- Node7 -->
<g id="node7" class="node">
<title>Node7</title>
<g id="a_node7"><a xlink:href="DynamicTable_8hpp.html" target="_top" xlink:title=" ">
<polygon fill="white" stroke="black" points="151,-134.5 151,-164.5 261,-164.5 261,-134.5 151,-134.5"/>
<text text-anchor="start" x="159" y="-152.5" font-family="Helvetica,sans-Serif" font-size="10.00">src/nwb/hdmf/table</text>
<text text-anchor="middle" x="206" y="-141.5" font-family="Helvetica,sans-Serif" font-size="10.00">/DynamicTable.hpp</text>
</a>
</g>
</g>
<!-- Node2&#45;&gt;Node7 -->
<g id="edge6" class="edge">
<title>Node2&#45;&gt;Node7</title>
<path fill="none" stroke="midnightblue" d="M169.42,-193.74C177.55,-184.12 186.89,-173.09 194.09,-164.58"/>
<polygon fill="midnightblue" stroke="midnightblue" points="166.72,-191.5 162.93,-201.4 172.07,-196.02 166.72,-191.5"/>
</g>
<!-- Node4 -->
<g id="node4" class="node">
<title>Node4</title>
<g id="a_node4"><a xlink:href="ElectricalSeries_8cpp.html" target="_top" xlink:title=" ">
<polygon fill="white" stroke="black" points="0,-0.5 0,-30.5 146,-30.5 146,-0.5 0,-0.5"/>
<text text-anchor="start" x="8" y="-18.5" font-family="Helvetica,sans-Serif" font-size="10.00">src/nwb/ecephys/Electrical</text>
<text text-anchor="middle" x="73" y="-7.5" font-family="Helvetica,sans-Serif" font-size="10.00">Series.cpp</text>
</a>
</g>
</g>
<!-- Node3&#45;&gt;Node4 -->
<g id="edge3" class="edge">
<title>Node3&#45;&gt;Node4</title>
<path fill="none" stroke="midnightblue" d="M215.28,-69.35C185.62,-58.33 141.9,-42.09 110.77,-30.53"/>
<polygon fill="midnightblue" stroke="midnightblue" points="214.17,-72.67 224.76,-72.87 216.61,-66.11 214.17,-72.67"/>
</g>
<!-- Node5 -->
<g id="node5" class="node">
<title>Node5</title>
<g id="a_node5"><a xlink:href="ElectrodeTable_8cpp.html" target="_top" xlink:title=" ">
<polygon fill="white" stroke="black" points="164.5,-6 164.5,-25 331.5,-25 331.5,-6 164.5,-6"/>
<text text-anchor="middle" x="248" y="-13" font-family="Helvetica,sans-Serif" font-size="10.00">src/nwb/file/ElectrodeTable.cpp</text>
</a>
</g>
</g>
<!-- Node3&#45;&gt;Node5 -->
<g id="edge4" class="edge">
<title>Node3&#45;&gt;Node5</title>
<path fill="none" stroke="midnightblue" d="M248,-62.54C248,-50.17 248,-34.62 248,-25.13"/>
<polygon fill="midnightblue" stroke="midnightblue" points="244.5,-62.73 248,-72.73 251.5,-62.73 244.5,-62.73"/>
</g>
<!-- Node6 -->
<g id="node6" class="node">
<title>Node6</title>
<g id="a_node6"><a xlink:href="NWBFile_8cpp.html" target="_top" xlink:title=" ">
<polygon fill="white" stroke="black" points="349.5,-6 349.5,-25 468.5,-25 468.5,-6 349.5,-6"/>
<text text-anchor="middle" x="409" y="-13" font-family="Helvetica,sans-Serif" font-size="10.00">src/nwb/NWBFile.cpp</text>
</a>
</g>
</g>
<!-- Node3&#45;&gt;Node6 -->
<g id="edge5" class="edge">
<title>Node3&#45;&gt;Node6</title>
<path fill="none" stroke="midnightblue" d="M278.7,-69.1C310.67,-56.2 359.89,-36.33 387.79,-25.06"/>
<polygon fill="midnightblue" stroke="midnightblue" points="277.34,-65.88 269.38,-72.87 279.96,-72.37 277.34,-65.88"/>
</g>
<!-- Node7&#45;&gt;Node3 -->
<g id="edge7" class="edge">
<title>Node7&#45;&gt;Node3</title>
<path fill="none" stroke="midnightblue" d="M220.55,-125.97C228.08,-114.33 236.82,-100.8 242.38,-92.19"/>
<polygon fill="midnightblue" stroke="midnightblue" points="217.6,-124.1 215.11,-134.4 223.48,-127.9 217.6,-124.1"/>
</g>
<!-- Node8 -->
<g id="node8" class="node">
<title>Node8</title>
<g id="a_node8"><a xlink:href="DynamicTable_8cpp.html" target="_top" xlink:title=" ">
<polygon fill="white" stroke="black" points="36,-67.5 36,-97.5 146,-97.5 146,-67.5 36,-67.5"/>
<text text-anchor="start" x="44" y="-85.5" font-family="Helvetica,sans-Serif" font-size="10.00">src/nwb/hdmf/table</text>
<text text-anchor="middle" x="91" y="-74.5" font-family="Helvetica,sans-Serif" font-size="10.00">/DynamicTable.cpp</text>
</a>
</g>
</g>
<!-- Node7&#45;&gt;Node8 -->
<g id="edge8" class="edge">
<title>Node7&#45;&gt;Node8</title>
<path fill="none" stroke="midnightblue" d="M172.02,-129.3C154.03,-119.12 132.32,-106.85 115.9,-97.58"/>
<polygon fill="midnightblue" stroke="midnightblue" points="170.62,-132.52 181.05,-134.4 174.06,-126.43 170.62,-132.52"/>
</g>
<!-- Node9&#45;&gt;Node3 -->
<g id="edge10" class="edge">
<title>Node9&#45;&gt;Node3</title>
<path fill="none" stroke="midnightblue" d="M284.62,-191.58C281.32,-175.17 276.3,-153.01 270,-134 265.01,-118.93 257.24,-102.17 252.39,-92.25"/>
<polygon fill="midnightblue" stroke="midnightblue" points="281.19,-192.29 286.53,-201.44 288.06,-190.96 281.19,-192.29"/>
</g>
<!-- Node9&#45;&gt;Node7 -->
<g id="edge11" class="edge">
<title>Node9&#45;&gt;Node7</title>
<path fill="none" stroke="midnightblue" d="M263.04,-195.17C250.35,-185.23 235.39,-173.51 223.97,-164.58"/>
<polygon fill="midnightblue" stroke="midnightblue" points="260.96,-197.99 270.99,-201.4 265.28,-192.47 260.96,-197.99"/>
</g>
<!-- Node10 -->
<g id="node10" class="node">
<title>Node10</title>
<g id="a_node10"><a xlink:href="VectorData_8cpp.html" target="_top" xlink:title=" ">
<polygon fill="white" stroke="black" points="317,-134.5 317,-164.5 427,-164.5 427,-134.5 317,-134.5"/>
<text text-anchor="start" x="325" y="-152.5" font-family="Helvetica,sans-Serif" font-size="10.00">src/nwb/hdmf/table</text>
<text text-anchor="middle" x="372" y="-141.5" font-family="Helvetica,sans-Serif" font-size="10.00">/VectorData.cpp</text>
</a>
</g>
</g>
<!-- Node9&#45;&gt;Node10 -->
<g id="edge12" class="edge">
<title>Node9&#45;&gt;Node10</title>
<path fill="none" stroke="midnightblue" d="M314.96,-195.17C327.65,-185.23 342.61,-173.51 354.03,-164.58"/>
<polygon fill="midnightblue" stroke="midnightblue" points="312.72,-192.47 307.01,-201.4 317.04,-197.99 312.72,-192.47"/>
</g>
</g>
</svg>
