<?xml version="1.0" encoding="UTF-8" standalone="no"?>
<!DOCTYPE svg PUBLIC "-//W3C//DTD SVG 1.1//EN"
 "http://www.w3.org/Graphics/SVG/1.1/DTD/svg11.dtd">
<!-- Generated by graphviz version 12.2.1 (20241206.2353)
 -->
<!-- Title: src/nwb Pages: 1 -->
<svg width="256pt" height="363pt"
 viewBox="0.00 0.00 256.00 362.75" xmlns="http://www.w3.org/2000/svg" xmlns:xlink="http://www.w3.org/1999/xlink">
<g id="graph0" class="graph" transform="scale(1 1) rotate(0) translate(4 358.75)">
<title>src/nwb</title>
<g id="clust1" class="cluster">
<title>clusterdir_68267d1309a1af8e8297ef4c3efbcdba</title>
<g id="a_clust1"><a xlink:href="dir_68267d1309a1af8e8297ef4c3efbcdba.html" target="_top" xlink:title="src">
<polygon fill="#edf0f7" stroke="#404040" stroke-dasharray="5,2" points="8,-8 8,-346.75 240,-346.75 240,-8 8,-8"/>
<text text-anchor="middle" x="124" y="-333.25" font-family="Helvetica,sans-Serif" font-size="10.00">src</text>
</a>
</g>
</g>
<g id="clust2" class="cluster">
<title>clusterdir_3875c1e54b4d5fadc95eea4e5fdc191f</title>
<g id="a_clust2"><a xlink:href="dir_3875c1e54b4d5fadc95eea4e5fdc191f.html" target="_top">
<polygon fill="#edf0f7" stroke="#404040" stroke-width="2" points="16,-63.25 16,-319.5 164,-319.5 164,-63.25 16,-63.25"/>
</a>
</g>
</g>
<!-- dir_c184e51c84f2c3f0345bbc8a0d75d3e1 -->
<g id="node1" class="node">
<title>dir_c184e51c84f2c3f0345bbc8a0d75d3e1</title>
<g id="a_node1"><a xlink:href="dir_c184e51c84f2c3f0345bbc8a0d75d3e1.html" target="_top" xlink:title="io">
<polygon fill="#a2b4d6" stroke="red" points="171.4,-35.25 142.6,-35.25 142.6,-16 171.4,-16 171.4,-35.25"/>
<text text-anchor="middle" x="157" y="-21.75" font-family="Helvetica,sans-Serif" font-size="10.00">io</text>
</a>
</g>
</g>
<!-- dir_f7b006e91d0dca03ab8c40dbc00ee65e -->
<g id="node2" class="node">
<title>dir_f7b006e91d0dca03ab8c40dbc00ee65e</title>
<g id="a_node2"><a xlink:href="dir_f7b006e91d0dca03ab8c40dbc00ee65e.html" target="_top" xlink:title="spec">
<polygon fill="#a2b4d6" stroke="#404040" points="231.5,-256.25 194.5,-256.25 194.5,-237 231.5,-237 231.5,-256.25"/>
<text text-anchor="middle" x="213" y="-242.75" font-family="Helvetica,sans-Serif" font-size="10.00">spec</text>
</a>
</g>
</g>
<!-- dir_3875c1e54b4d5fadc95eea4e5fdc191f -->
<g id="node3" class="node">
<title>dir_3875c1e54b4d5fadc95eea4e5fdc191f</title>
<text text-anchor="middle" x="85" y="-298" font-family="Helvetica,sans-Serif" font-size="10.00">nwb</text>
</g>
<!-- dir_3875c1e54b4d5fadc95eea4e5fdc191f&#45;&gt;dir_c184e51c84f2c3f0345bbc8a0d75d3e1 -->
<g id="edge5" class="edge">
<title>dir_3875c1e54b4d5fadc95eea4e5fdc191f&#45;&gt;dir_c184e51c84f2c3f0345bbc8a0d75d3e1</title>
<g id="a_edge5"><a xlink:href="dir_000010_000009.html" target="_top">
<path fill="none" stroke="#63b8ff" d="M101.74,-296.65C120.61,-290.92 150.55,-278.72 165,-256.25 207.82,-189.69 179.46,-88.37 164.53,-46.15"/>
<polygon fill="#63b8ff" stroke="#63b8ff" points="167.86,-45.05 161.11,-36.89 161.29,-47.48 167.86,-45.05"/>
</a>
</g>
<g id="a_edge5&#45;headlabel"><a xlink:href="dir_000010_000009.html" target="_top" xlink:title="21">
<text text-anchor="middle" x="171.24" y="-42.15" font-family="Helvetica,sans-Serif" font-size="10.00" fill="#63b8ff">21</text>
</a>
</g>
</g>
<!-- dir_3875c1e54b4d5fadc95eea4e5fdc191f&#45;&gt;dir_f7b006e91d0dca03ab8c40dbc00ee65e -->
<g id="edge7" class="edge">
<title>dir_3875c1e54b4d5fadc95eea4e5fdc191f&#45;&gt;dir_f7b006e91d0dca03ab8c40dbc00ee65e</title>
<g id="a_edge7"><a xlink:href="dir_000010_000012.html" target="_top">
<path fill="none" stroke="#63b8ff" d="M102,-293.8C122.85,-285.13 158.54,-270.28 183.81,-259.77"/>
<polygon fill="#63b8ff" stroke="#63b8ff" points="184.98,-263.07 192.87,-256 182.29,-256.61 184.98,-263.07"/>
</a>
</g>
<g id="a_edge7&#45;headlabel"><a xlink:href="dir_000010_000012.html" target="_top" xlink:title="3">
<text text-anchor="middle" x="184.15" y="-262.62" font-family="Helvetica,sans-Serif" font-size="10.00" fill="#63b8ff">3</text>
</a>
</g>
</g>
<!-- dir_2c5b7fd6b972088aa6b0c8b33452cfb2 -->
<g id="node4" class="node">
<title>dir_2c5b7fd6b972088aa6b0c8b33452cfb2</title>
<g id="a_node4"><a xlink:href="dir_2c5b7fd6b972088aa6b0c8b33452cfb2.html" target="_top" xlink:title="base">
<polygon fill="#a2b4d6" stroke="#404040" points="101.5,-201 64.5,-201 64.5,-181.75 101.5,-181.75 101.5,-201"/>
<text text-anchor="middle" x="83" y="-187.5" font-family="Helvetica,sans-Serif" font-size="10.00">base</text>
</a>
</g>
</g>
<!-- dir_3875c1e54b4d5fadc95eea4e5fdc191f&#45;&gt;dir_2c5b7fd6b972088aa6b0c8b33452cfb2 -->
<g id="edge2" class="edge">
<title>dir_3875c1e54b4d5fadc95eea4e5fdc191f&#45;&gt;dir_2c5b7fd6b972088aa6b0c8b33452cfb2</title>
<g id="a_edge2"><a xlink:href="dir_000010_000000.html" target="_top">
<path fill="none" stroke="#63b8ff" d="M83.76,-292.34C82.52,-283.38 80.7,-268.86 80,-256.25 79.19,-241.77 79.99,-225.44 80.96,-212.91"/>
<polygon fill="#63b8ff" stroke="#63b8ff" points="84.45,-213.25 81.85,-202.98 77.48,-212.63 84.45,-213.25"/>
</a>
</g>
<g id="a_edge2&#45;headlabel"><a xlink:href="dir_000010_000000.html" target="_top" xlink:title="3">
<text text-anchor="middle" x="87.09" y="-211.7" font-family="Helvetica,sans-Serif" font-size="10.00" fill="#63b8ff">3</text>
</a>
</g>
</g>
<!-- dir_768b474e02849cb20a8de3864ffdf8c9 -->
<g id="node5" class="node">
<title>dir_768b474e02849cb20a8de3864ffdf8c9</title>
<g id="a_node5"><a xlink:href="dir_768b474e02849cb20a8de3864ffdf8c9.html" target="_top" xlink:title="device">
<polygon fill="#a2b4d6" stroke="#404040" points="108.25,-145.75 63.75,-145.75 63.75,-126.5 108.25,-126.5 108.25,-145.75"/>
<text text-anchor="middle" x="86" y="-132.25" font-family="Helvetica,sans-Serif" font-size="10.00">device</text>
</a>
</g>
</g>
<!-- dir_3875c1e54b4d5fadc95eea4e5fdc191f&#45;&gt;dir_768b474e02849cb20a8de3864ffdf8c9 -->
<g id="edge4" class="edge">
<title>dir_3875c1e54b4d5fadc95eea4e5fdc191f&#45;&gt;dir_768b474e02849cb20a8de3864ffdf8c9</title>
<g id="a_edge4"><a xlink:href="dir_000010_000003.html" target="_top">
<path fill="none" stroke="#63b8ff" d="M79.83,-292.41C68.52,-272.77 43.52,-222.67 56,-181.75 58.92,-172.19 64.64,-162.82 70.31,-155.15"/>
<polygon fill="#63b8ff" stroke="#63b8ff" points="73.03,-157.36 76.56,-147.36 67.57,-152.98 73.03,-157.36"/>
</a>
</g>
<g id="a_edge4&#45;headlabel"><a xlink:href="dir_000010_000003.html" target="_top" xlink:title="2">
<text text-anchor="middle" x="73.95" y="-156.88" font-family="Helvetica,sans-Serif" font-size="10.00" fill="#63b8ff">2</text>
</a>
</g>
</g>
<!-- dir_233c518972f8f5648ed7849c4d3f4524 -->
<g id="node6" class="node">
<title>dir_233c518972f8f5648ed7849c4d3f4524</title>
<g id="a_node6"><a xlink:href="dir_233c518972f8f5648ed7849c4d3f4524.html" target="_top" xlink:title="ecephys">
<polygon fill="#a2b4d6" stroke="#404040" points="156.38,-256.25 103.62,-256.25 103.62,-237 156.38,-237 156.38,-256.25"/>
<text text-anchor="middle" x="130" y="-242.75" font-family="Helvetica,sans-Serif" font-size="10.00">ecephys</text>
</a>
</g>
</g>
<!-- dir_3875c1e54b4d5fadc95eea4e5fdc191f&#45;&gt;dir_233c518972f8f5648ed7849c4d3f4524 -->
<g id="edge1" class="edge">
<title>dir_3875c1e54b4d5fadc95eea4e5fdc191f&#45;&gt;dir_233c518972f8f5648ed7849c4d3f4524</title>
<g id="a_edge1"><a xlink:href="dir_000010_000005.html" target="_top">
<path fill="none" stroke="#63b8ff" d="M92.03,-292.55C98.2,-285.26 107.36,-274.41 115.14,-265.2"/>
<polygon fill="#63b8ff" stroke="#63b8ff" points="117.81,-267.47 121.59,-257.57 112.46,-262.95 117.81,-267.47"/>
</a>
</g>
<g id="a_edge1&#45;headlabel"><a xlink:href="dir_000010_000005.html" target="_top" xlink:title="4">
<text text-anchor="middle" x="118.64" y="-267.02" font-family="Helvetica,sans-Serif" font-size="10.00" fill="#63b8ff">4</text>
</a>
</g>
</g>
<!-- dir_f14b33441b8f3c4a1a213ba2de2e3c66 -->
<g id="node7" class="node">
<title>dir_f14b33441b8f3c4a1a213ba2de2e3c66</title>
<g id="a_node7"><a xlink:href="dir_f14b33441b8f3c4a1a213ba2de2e3c66.html" target="_top" xlink:title="file">
<polygon fill="#a2b4d6" stroke="#404040" points="148.4,-201 119.6,-201 119.6,-181.75 148.4,-181.75 148.4,-201"/>
<text text-anchor="middle" x="134" y="-187.5" font-family="Helvetica,sans-Serif" font-size="10.00">file</text>
</a>
</g>
</g>
<!-- dir_3875c1e54b4d5fadc95eea4e5fdc191f&#45;&gt;dir_f14b33441b8f3c4a1a213ba2de2e3c66 -->
<g id="edge6" class="edge">
<title>dir_3875c1e54b4d5fadc95eea4e5fdc191f&#45;&gt;dir_f14b33441b8f3c4a1a213ba2de2e3c66</title>
<g id="a_edge6"><a xlink:href="dir_000010_000006.html" target="_top">
<path fill="none" stroke="#63b8ff" d="M84.86,-292.59C84.95,-279.99 86.36,-255.51 95,-237 99.86,-226.59 107.89,-216.78 115.41,-209.02"/>
<polygon fill="#63b8ff" stroke="#63b8ff" points="117.37,-212 122.11,-202.52 112.49,-206.97 117.37,-212"/>
</a>
</g>
<g id="a_edge6&#45;headlabel"><a xlink:href="dir_000010_000006.html" target="_top" xlink:title="3">
<text text-anchor="middle" x="117.85" y="-211.61" font-family="Helvetica,sans-Serif" font-size="10.00" fill="#63b8ff">3</text>
</a>
</g>
</g>
<!-- dir_42a4622eeadeb301e554ade53994b57b -->
<g id="node8" class="node">
<title>dir_42a4622eeadeb301e554ade53994b57b</title>
<g id="a_node8"><a xlink:href="dir_42a4622eeadeb301e554ade53994b57b.html" target="_top" xlink:title="hdmf">
<polygon fill="#a2b4d6" stroke="#404040" points="104.88,-90.5 67.12,-90.5 67.12,-71.25 104.88,-71.25 104.88,-90.5"/>
<text text-anchor="middle" x="86" y="-77" font-family="Helvetica,sans-Serif" font-size="10.00">hdmf</text>
</a>
</g>
</g>
<!-- dir_3875c1e54b4d5fadc95eea4e5fdc191f&#45;&gt;dir_42a4622eeadeb301e554ade53994b57b -->
<g id="edge3" class="edge">
<title>dir_3875c1e54b4d5fadc95eea4e5fdc191f&#45;&gt;dir_42a4622eeadeb301e554ade53994b57b</title>
<g id="a_edge3"><a xlink:href="dir_000010_000008.html" target="_top">
<path fill="none" stroke="#63b8ff" d="M76.78,-292.49C69.11,-284.09 58.13,-270.41 53,-256.25 33.37,-202.01 30.3,-180.72 50,-126.5 53.71,-116.28 60.81,-106.65 67.73,-98.98"/>
<polygon fill="#63b8ff" stroke="#63b8ff" points="70.03,-101.63 74.5,-92.03 65.02,-96.75 70.03,-101.63"/>
</a>
</g>
<g id="a_edge3&#45;headlabel"><a xlink:href="dir_000010_000008.html" target="_top" xlink:title="11">
<text text-anchor="middle" x="70.62" y="-101.23" font-family="Helvetica,sans-Serif" font-size="10.00" fill="#63b8ff">11</text>
</a>
</g>
</g>
<!-- dir_2c5b7fd6b972088aa6b0c8b33452cfb2&#45;&gt;dir_c184e51c84f2c3f0345bbc8a0d75d3e1 -->
<g id="edge9" class="edge">
<title>dir_2c5b7fd6b972088aa6b0c8b33452cfb2&#45;&gt;dir_c184e51c84f2c3f0345bbc8a0d75d3e1</title>
<g id="a_edge9"><a xlink:href="dir_000000_000009.html" target="_top">
<path fill="none" stroke="#63b8ff" d="M91.25,-181.41C98.81,-172.81 109.88,-159.17 117,-145.75 134.4,-112.92 146.36,-71.05 152.41,-46.7"/>
<polygon fill="#63b8ff" stroke="#63b8ff" points="155.76,-47.71 154.68,-37.17 148.95,-46.09 155.76,-47.71"/>
</a>
</g>
<g id="a_edge9&#45;headlabel"><a xlink:href="dir_000000_000009.html" target="_top" xlink:title="3">
<text text-anchor="middle" x="158.04" y="-46.52" font-family="Helvetica,sans-Serif" font-size="10.00" fill="#63b8ff">3</text>
</a>
</g>
</g>
<!-- dir_2c5b7fd6b972088aa6b0c8b33452cfb2&#45;&gt;dir_42a4622eeadeb301e554ade53994b57b -->
<g id="edge8" class="edge">
<title>dir_2c5b7fd6b972088aa6b0c8b33452cfb2&#45;&gt;dir_42a4622eeadeb301e554ade53994b57b</title>
<g id="a_edge8"><a xlink:href="dir_000000_000008.html" target="_top">
<path fill="none" stroke="#63b8ff" d="M74.64,-181.52C64.25,-169.4 48.63,-146.84 55,-126.5 58.05,-116.75 64.07,-107.27 70,-99.57"/>
<polygon fill="#63b8ff" stroke="#63b8ff" points="72.55,-101.97 76.26,-92.04 67.17,-97.49 72.55,-101.97"/>
</a>
</g>
<g id="a_edge8&#45;headlabel"><a xlink:href="dir_000000_000008.html" target="_top" xlink:title="1">
<text text-anchor="middle" x="73.4" y="-101.51" font-family="Helvetica,sans-Serif" font-size="10.00" fill="#63b8ff">1</text>
</a>
</g>
</g>
<!-- dir_768b474e02849cb20a8de3864ffdf8c9&#45;&gt;dir_c184e51c84f2c3f0345bbc8a0d75d3e1 -->
<g id="edge11" class="edge">
<title>dir_768b474e02849cb20a8de3864ffdf8c9&#45;&gt;dir_c184e51c84f2c3f0345bbc8a0d75d3e1</title>
<g id="a_edge11"><a xlink:href="dir_000003_000009.html" target="_top">
<path fill="none" stroke="#63b8ff" d="M91.81,-126.25C103.36,-108.6 129.4,-68.8 144.85,-45.2"/>
<polygon fill="#63b8ff" stroke="#63b8ff" points="147.73,-47.18 150.28,-36.89 141.88,-43.34 147.73,-47.18"/>
</a>
</g>
<g id="a_edge11&#45;headlabel"><a xlink:href="dir_000003_000009.html" target="_top" xlink:title="2">
<text text-anchor="middle" x="148.97" y="-46.6" font-family="Helvetica,sans-Serif" font-size="10.00" fill="#63b8ff">2</text>
</a>
</g>
</g>
<!-- dir_768b474e02849cb20a8de3864ffdf8c9&#45;&gt;dir_42a4622eeadeb301e554ade53994b57b -->
<g id="edge10" class="edge">
<title>dir_768b474e02849cb20a8de3864ffdf8c9&#45;&gt;dir_42a4622eeadeb301e554ade53994b57b</title>
<g id="a_edge10"><a xlink:href="dir_000003_000008.html" target="_top">
<path fill="none" stroke="#63b8ff" d="M86,-126.33C86,-119.82 86,-110.67 86,-102.37"/>
<polygon fill="#63b8ff" stroke="#63b8ff" points="89.5,-102.37 86,-92.37 82.5,-102.37 89.5,-102.37"/>
</a>
</g>
<g id="a_edge10&#45;headlabel"><a xlink:href="dir_000003_000008.html" target="_top" xlink:title="1">
<text text-anchor="middle" x="92.34" y="-100.58" font-family="Helvetica,sans-Serif" font-size="10.00" fill="#63b8ff">1</text>
</a>
</g>
</g>
<!-- dir_233c518972f8f5648ed7849c4d3f4524&#45;&gt;dir_c184e51c84f2c3f0345bbc8a0d75d3e1 -->
<g id="edge13" class="edge">
<title>dir_233c518972f8f5648ed7849c4d3f4524&#45;&gt;dir_c184e51c84f2c3f0345bbc8a0d75d3e1</title>
<g id="a_edge13"><a xlink:href="dir_000005_000009.html" target="_top">
<path fill="none" stroke="#63b8ff" d="M137.21,-236.69C143.67,-228.1 152.78,-214.48 157,-201 175.33,-142.5 169.78,-124.28 164,-63.25 163.49,-57.88 162.57,-52.14 161.57,-46.82"/>
<polygon fill="#63b8ff" stroke="#63b8ff" points="165,-46.13 159.52,-37.07 158.15,-47.58 165,-46.13"/>
</a>
</g>
<g id="a_edge13&#45;headlabel"><a xlink:href="dir_000005_000009.html" target="_top" xlink:title="4">
<text text-anchor="middle" x="168.21" y="-43.71" font-family="Helvetica,sans-Serif" font-size="10.00" fill="#63b8ff">4</text>
</a>
</g>
</g>
<!-- dir_233c518972f8f5648ed7849c4d3f4524&#45;&gt;dir_2c5b7fd6b972088aa6b0c8b33452cfb2 -->
<g id="edge12" class="edge">
<title>dir_233c518972f8f5648ed7849c4d3f4524&#45;&gt;dir_2c5b7fd6b972088aa6b0c8b33452cfb2</title>
<g id="a_edge12"><a xlink:href="dir_000005_000000.html" target="_top">
<path fill="none" stroke="#63b8ff" d="M122.24,-236.83C115.81,-229.55 106.49,-218.98 98.54,-209.98"/>
<polygon fill="#63b8ff" stroke="#63b8ff" points="101.17,-207.68 91.93,-202.49 95.92,-212.31 101.17,-207.68"/>
</a>
</g>
<g id="a_edge12&#45;headlabel"><a xlink:href="dir_000005_000000.html" target="_top" xlink:title="1">
<text text-anchor="middle" x="104.68" y="-203.48" font-family="Helvetica,sans-Serif" font-size="10.00" fill="#63b8ff">1</text>
</a>
</g>
</g>
<!-- dir_233c518972f8f5648ed7849c4d3f4524&#45;&gt;dir_f14b33441b8f3c4a1a213ba2de2e3c66 -->
<g id="edge14" class="edge">
<title>dir_233c518972f8f5648ed7849c4d3f4524&#45;&gt;dir_f14b33441b8f3c4a1a213ba2de2e3c66</title>
<g id="a_edge14"><a xlink:href="dir_000005_000006.html" target="_top">
<path fill="none" stroke="#63b8ff" d="M130.66,-236.83C131.16,-230.24 131.85,-220.96 132.48,-212.57"/>
<polygon fill="#63b8ff" stroke="#63b8ff" points="135.95,-213.1 133.21,-202.87 128.97,-212.58 135.95,-213.1"/>
</a>
</g>
<g id="a_edge14&#45;headlabel"><a xlink:href="dir_000005_000006.html" target="_top" xlink:title="1">
<text text-anchor="middle" x="138.63" y="-211.52" font-family="Helvetica,sans-Serif" font-size="10.00" fill="#63b8ff">1</text>
</a>
</g>
</g>
<!-- dir_f14b33441b8f3c4a1a213ba2de2e3c66&#45;&gt;dir_c184e51c84f2c3f0345bbc8a0d75d3e1 -->
<g id="edge17" class="edge">
<title>dir_f14b33441b8f3c4a1a213ba2de2e3c66&#45;&gt;dir_c184e51c84f2c3f0345bbc8a0d75d3e1</title>
<g id="a_edge17"><a xlink:href="dir_000006_000009.html" target="_top">
<path fill="none" stroke="#63b8ff" d="M138.67,-181.44C143.01,-172.63 149.21,-158.65 152,-145.75 159.34,-111.78 159.2,-71.12 158.24,-47.17"/>
<polygon fill="#63b8ff" stroke="#63b8ff" points="161.74,-47.05 157.74,-37.24 154.74,-47.4 161.74,-47.05"/>
</a>
</g>
<g id="a_edge17&#45;headlabel"><a xlink:href="dir_000006_000009.html" target="_top" xlink:title="2">
<text text-anchor="middle" x="164.68" y="-45.11" font-family="Helvetica,sans-Serif" font-size="10.00" fill="#63b8ff">2</text>
</a>
</g>
</g>
<!-- dir_f14b33441b8f3c4a1a213ba2de2e3c66&#45;&gt;dir_768b474e02849cb20a8de3864ffdf8c9 -->
<g id="edge16" class="edge">
<title>dir_f14b33441b8f3c4a1a213ba2de2e3c66&#45;&gt;dir_768b474e02849cb20a8de3864ffdf8c9</title>
<g id="a_edge16"><a xlink:href="dir_000006_000003.html" target="_top">
<path fill="none" stroke="#63b8ff" d="M126.07,-181.58C119.44,-174.23 109.78,-163.51 101.61,-154.44"/>
<polygon fill="#63b8ff" stroke="#63b8ff" points="104.41,-152.32 95.11,-147.23 99.21,-157 104.41,-152.32"/>
</a>
</g>
<g id="a_edge16&#45;headlabel"><a xlink:href="dir_000006_000003.html" target="_top" xlink:title="1">
<text text-anchor="middle" x="107.91" y="-148.09" font-family="Helvetica,sans-Serif" font-size="10.00" fill="#63b8ff">1</text>
</a>
</g>
</g>
<!-- dir_f14b33441b8f3c4a1a213ba2de2e3c66&#45;&gt;dir_42a4622eeadeb301e554ade53994b57b -->
<g id="edge15" class="edge">
<title>dir_f14b33441b8f3c4a1a213ba2de2e3c66&#45;&gt;dir_42a4622eeadeb301e554ade53994b57b</title>
<g id="a_edge15"><a xlink:href="dir_000006_000008.html" target="_top">
<path fill="none" stroke="#63b8ff" d="M132.62,-181.36C130.45,-168.68 125.58,-145.04 117,-126.5 112.65,-117.11 106.34,-107.57 100.54,-99.74"/>
<polygon fill="#63b8ff" stroke="#63b8ff" points="103.49,-97.82 94.59,-92.07 97.95,-102.11 103.49,-97.82"/>
</a>
</g>
<g id="a_edge15&#45;headlabel"><a xlink:href="dir_000006_000008.html" target="_top" xlink:title="4">
<text text-anchor="middle" x="107" y="-93.85" font-family="Helvetica,sans-Serif" font-size="10.00" fill="#63b8ff">4</text>
</a>
</g>
</g>
<!-- dir_42a4622eeadeb301e554ade53994b57b&#45;&gt;dir_c184e51c84f2c3f0345bbc8a0d75d3e1 -->
<g id="edge18" class="edge">
<title>dir_42a4622eeadeb301e554ade53994b57b&#45;&gt;dir_c184e51c84f2c3f0345bbc8a0d75d3e1</title>
<g id="a_edge18"><a xlink:href="dir_000008_000009.html" target="_top">
<path fill="none" stroke="#63b8ff" d="M98.04,-70.84C108.41,-63.07 123.6,-51.67 135.97,-42.4"/>
<polygon fill="#63b8ff" stroke="#63b8ff" points="138.02,-45.23 143.92,-36.43 133.82,-39.63 138.02,-45.23"/>
</a>
</g>
<g id="a_edge18&#45;headlabel"><a xlink:href="dir_000008_000009.html" target="_top" xlink:title="4">
<text text-anchor="middle" x="138.06" y="-44.88" font-family="Helvetica,sans-Serif" font-size="10.00" fill="#63b8ff">4</text>
</a>
</g>
</g>
</g>
</svg>
