<?xml version="1.0" encoding="UTF-8" standalone="no"?>
<!DOCTYPE svg PUBLIC "-//W3C//DTD SVG 1.1//EN"
 "http://www.w3.org/Graphics/SVG/1.1/DTD/svg11.dtd">
<!-- Generated by graphviz version 13.1.2 (20250808.2320)
 -->
<!-- Title: src/nwb Pages: 1 -->
<svg width="312pt" height="363pt"
 viewBox="0.00 0.00 312.00 363.00" xmlns="http://www.w3.org/2000/svg" xmlns:xlink="http://www.w3.org/1999/xlink">

<svg id="main" version="1.1" xmlns="http://www.w3.org/2000/svg" xmlns:xlink="http://www.w3.org/1999/xlink" xml:space="preserve">

<style type="text/css"><![CDATA[
.node, .edge {opacity: 0.7;}
.node.selected, .edge.selected {opacity: 1;}
.edge:hover path { stroke: red; }
.edge:hover polygon { stroke: red; fill: red; }
]]></style>
<script type="application/ecmascript" xlink:href="svg.min.js"/>
<svg id="graph" class="graph">
<g id="graph0" class="graph" transform="scale(1 1) rotate(0) translate(4 358.75)">
<title>src/nwb</title>
<g id="clust1" class="cluster">
<title>clusterdir_68267d1309a1af8e8297ef4c3efbcdba</title>
<g id="a_clust1"><a xlink:href="dir_68267d1309a1af8e8297ef4c3efbcdba.html" target="_top" xlink:title="src">
<polygon fill="#edf0f7" stroke="#404040" stroke-dasharray="5,2" points="8,-8 8,-346.75 296,-346.75 296,-8 8,-8"/>
<text xml:space="preserve" text-anchor="middle" x="152" y="-333.25" font-family="Helvetica,sans-Serif" font-size="10.00">src</text>
</a>
</g>
</g>
<g id="clust2" class="cluster">
<title>clusterdir_3875c1e54b4d5fadc95eea4e5fdc191f</title>
<g id="a_clust2"><a xlink:href="dir_3875c1e54b4d5fadc95eea4e5fdc191f.html" target="_top">
<polygon fill="#edf0f7" stroke="#404040" stroke-width="2" points="16,-63.25 16,-319.5 220,-319.5 220,-63.25 16,-63.25"/>
</a>
</g>
</g>
<!-- dir_c184e51c84f2c3f0345bbc8a0d75d3e1 -->
<g id="node1" class="node">
<title>dir_c184e51c84f2c3f0345bbc8a0d75d3e1</title>
<g id="a_node1"><a xlink:href="dir_c184e51c84f2c3f0345bbc8a0d75d3e1.html" target="_top" xlink:title="io">
<polygon fill="#a2b4d6" stroke="red" points="181.4,-35.25 152.6,-35.25 152.6,-16 181.4,-16 181.4,-35.25"/>
<text xml:space="preserve" text-anchor="middle" x="167" y="-21.75" font-family="Helvetica,sans-Serif" font-size="10.00">io</text>
</a>
</g>
</g>
<!-- dir_f7b006e91d0dca03ab8c40dbc00ee65e -->
<g id="node2" class="node">
<title>dir_f7b006e91d0dca03ab8c40dbc00ee65e</title>
<g id="a_node2"><a xlink:href="dir_f7b006e91d0dca03ab8c40dbc00ee65e.html" target="_top" xlink:title="spec">
<polygon fill="#a2b4d6" stroke="#404040" points="287.5,-256.25 250.5,-256.25 250.5,-237 287.5,-237 287.5,-256.25"/>
<text xml:space="preserve" text-anchor="middle" x="269" y="-242.75" font-family="Helvetica,sans-Serif" font-size="10.00">spec</text>
</a>
</g>
</g>
<!-- dir_3875c1e54b4d5fadc95eea4e5fdc191f -->
<g id="node3" class="node">
<title>dir_3875c1e54b4d5fadc95eea4e5fdc191f</title>
<text xml:space="preserve" text-anchor="middle" x="107" y="-298" font-family="Helvetica,sans-Serif" font-size="10.00">nwb</text>
</g>
<!-- dir_3875c1e54b4d5fadc95eea4e5fdc191f&#45;&gt;dir_c184e51c84f2c3f0345bbc8a0d75d3e1 -->
<g id="edge5" class="edge">
<title>dir_3875c1e54b4d5fadc95eea4e5fdc191f&#45;&gt;dir_c184e51c84f2c3f0345bbc8a0d75d3e1</title>
<g id="a_edge5"><a xlink:href="dir_000011_000009.html" target="_top">
<path fill="none" stroke="#63b8ff" d="M124,-299.41C149.38,-296.24 196.78,-286.41 221,-256.25 238.99,-233.84 231,-221.11 231,-192.38 231,-192.38 231,-192.38 231,-135.12 231,-98.71 203.93,-63.77 185,-43.79"/>
<polygon fill="#63b8ff" stroke="#63b8ff" points="187.59,-41.43 178.06,-36.78 182.61,-46.35 187.59,-41.43"/>
</a>
</g>
<g id="a_edge5&#45;headlabel"><a xlink:href="dir_000011_000009.html" target="_top" xlink:title="23">
<text xml:space="preserve" text-anchor="middle" x="191.07" y="-37.03" font-family="Helvetica,sans-Serif" font-size="10.00" fill="#63b8ff">23</text>
</a>
</g>
</g>
<!-- dir_3875c1e54b4d5fadc95eea4e5fdc191f&#45;&gt;dir_f7b006e91d0dca03ab8c40dbc00ee65e -->
<g id="edge7" class="edge">
<title>dir_3875c1e54b4d5fadc95eea4e5fdc191f&#45;&gt;dir_f7b006e91d0dca03ab8c40dbc00ee65e</title>
<g id="a_edge7"><a xlink:href="dir_000011_000013.html" target="_top">
<path fill="none" stroke="#63b8ff" d="M123.73,-295.38C151.04,-286.4 205.55,-268.48 239.48,-257.33"/>
<polygon fill="#63b8ff" stroke="#63b8ff" points="240.28,-260.75 248.69,-254.3 238.1,-254.1 240.28,-260.75"/>
</a>
</g>
<g id="a_edge7&#45;headlabel"><a xlink:href="dir_000011_000013.html" target="_top" xlink:title="3">
<text xml:space="preserve" text-anchor="middle" x="239.19" y="-260.22" font-family="Helvetica,sans-Serif" font-size="10.00" fill="#63b8ff">3</text>
</a>
</g>
</g>
<!-- dir_2c5b7fd6b972088aa6b0c8b33452cfb2 -->
<g id="node4" class="node">
<title>dir_2c5b7fd6b972088aa6b0c8b33452cfb2</title>
<g id="a_node4"><a xlink:href="dir_2c5b7fd6b972088aa6b0c8b33452cfb2.html" target="_top" xlink:title="base">
<polygon fill="#a2b4d6" stroke="#404040" points="156.5,-201 119.5,-201 119.5,-181.75 156.5,-181.75 156.5,-201"/>
<text xml:space="preserve" text-anchor="middle" x="138" y="-187.5" font-family="Helvetica,sans-Serif" font-size="10.00">base</text>
</a>
</g>
</g>
<!-- dir_3875c1e54b4d5fadc95eea4e5fdc191f&#45;&gt;dir_2c5b7fd6b972088aa6b0c8b33452cfb2 -->
<g id="edge2" class="edge">
<title>dir_3875c1e54b4d5fadc95eea4e5fdc191f&#45;&gt;dir_2c5b7fd6b972088aa6b0c8b33452cfb2</title>
<g id="a_edge2"><a xlink:href="dir_000011_000000.html" target="_top">
<path fill="none" stroke="#63b8ff" d="M102.45,-292.31C96.42,-279.76 87.4,-255.84 95,-237 99.43,-226.01 108.01,-216.21 116.35,-208.62"/>
<polygon fill="#63b8ff" stroke="#63b8ff" points="118.52,-211.37 123.93,-202.27 114.02,-206.01 118.52,-211.37"/>
</a>
</g>
<g id="a_edge2&#45;headlabel"><a xlink:href="dir_000011_000000.html" target="_top" xlink:title="4">
<text xml:space="preserve" text-anchor="middle" x="118.75" y="-211.01" font-family="Helvetica,sans-Serif" font-size="10.00" fill="#63b8ff">4</text>
</a>
</g>
</g>
<!-- dir_768b474e02849cb20a8de3864ffdf8c9 -->
<g id="node5" class="node">
<title>dir_768b474e02849cb20a8de3864ffdf8c9</title>
<g id="a_node5"><a xlink:href="dir_768b474e02849cb20a8de3864ffdf8c9.html" target="_top" xlink:title="device">
<polygon fill="#a2b4d6" stroke="#404040" points="88.25,-145.75 43.75,-145.75 43.75,-126.5 88.25,-126.5 88.25,-145.75"/>
<text xml:space="preserve" text-anchor="middle" x="66" y="-132.25" font-family="Helvetica,sans-Serif" font-size="10.00">device</text>
</a>
</g>
</g>
<!-- dir_3875c1e54b4d5fadc95eea4e5fdc191f&#45;&gt;dir_768b474e02849cb20a8de3864ffdf8c9 -->
<g id="edge4" class="edge">
<title>dir_3875c1e54b4d5fadc95eea4e5fdc191f&#45;&gt;dir_768b474e02849cb20a8de3864ffdf8c9</title>
<g id="a_edge4"><a xlink:href="dir_000011_000003.html" target="_top">
<path fill="none" stroke="#63b8ff" d="M98.85,-292.41C91.19,-283.95 80.04,-270.23 74,-256.25 59.99,-223.83 61.09,-181.8 63.38,-157.31"/>
<polygon fill="#63b8ff" stroke="#63b8ff" points="66.85,-157.79 64.49,-147.47 59.9,-157.01 66.85,-157.79"/>
</a>
</g>
<g id="a_edge4&#45;headlabel"><a xlink:href="dir_000011_000003.html" target="_top" xlink:title="2">
<text xml:space="preserve" text-anchor="middle" x="69.44" y="-156.3" font-family="Helvetica,sans-Serif" font-size="10.00" fill="#63b8ff">2</text>
</a>
</g>
</g>
<!-- dir_233c518972f8f5648ed7849c4d3f4524 -->
<g id="node6" class="node">
<title>dir_233c518972f8f5648ed7849c4d3f4524</title>
<g id="a_node6"><a xlink:href="dir_233c518972f8f5648ed7849c4d3f4524.html" target="_top" xlink:title="ecephys">
<polygon fill="#a2b4d6" stroke="#404040" points="156.38,-256.25 103.62,-256.25 103.62,-237 156.38,-237 156.38,-256.25"/>
<text xml:space="preserve" text-anchor="middle" x="130" y="-242.75" font-family="Helvetica,sans-Serif" font-size="10.00">ecephys</text>
</a>
</g>
</g>
<!-- dir_3875c1e54b4d5fadc95eea4e5fdc191f&#45;&gt;dir_233c518972f8f5648ed7849c4d3f4524 -->
<g id="edge1" class="edge">
<title>dir_3875c1e54b4d5fadc95eea4e5fdc191f&#45;&gt;dir_233c518972f8f5648ed7849c4d3f4524</title>
<g id="a_edge1"><a xlink:href="dir_000011_000005.html" target="_top">
<path fill="none" stroke="#63b8ff" d="M110.59,-292.55C113.55,-285.72 117.84,-275.77 121.65,-266.97"/>
<polygon fill="#63b8ff" stroke="#63b8ff" points="124.85,-268.38 125.6,-257.81 118.42,-265.6 124.85,-268.38"/>
</a>
</g>
<g id="a_edge1&#45;headlabel"><a xlink:href="dir_000011_000005.html" target="_top" xlink:title="4">
<text xml:space="preserve" text-anchor="middle" x="126.63" y="-267.54" font-family="Helvetica,sans-Serif" font-size="10.00" fill="#63b8ff">4</text>
</a>
</g>
</g>
<!-- dir_f14b33441b8f3c4a1a213ba2de2e3c66 -->
<g id="node7" class="node">
<title>dir_f14b33441b8f3c4a1a213ba2de2e3c66</title>
<g id="a_node7"><a xlink:href="dir_f14b33441b8f3c4a1a213ba2de2e3c66.html" target="_top" xlink:title="file">
<polygon fill="#a2b4d6" stroke="#404040" points="101.4,-201 72.6,-201 72.6,-181.75 101.4,-181.75 101.4,-201"/>
<text xml:space="preserve" text-anchor="middle" x="87" y="-187.5" font-family="Helvetica,sans-Serif" font-size="10.00">file</text>
</a>
</g>
</g>
<!-- dir_3875c1e54b4d5fadc95eea4e5fdc191f&#45;&gt;dir_f14b33441b8f3c4a1a213ba2de2e3c66 -->
<g id="edge6" class="edge">
<title>dir_3875c1e54b4d5fadc95eea4e5fdc191f&#45;&gt;dir_f14b33441b8f3c4a1a213ba2de2e3c66</title>
<g id="a_edge6"><a xlink:href="dir_000011_000006.html" target="_top">
<path fill="none" stroke="#63b8ff" d="M99.85,-292.32C93.23,-283.8 83.84,-270.03 80,-256.25 75.96,-241.76 78.12,-224.8 81.07,-212"/>
<polygon fill="#63b8ff" stroke="#63b8ff" points="84.36,-213.25 83.57,-202.69 77.6,-211.44 84.36,-213.25"/>
</a>
</g>
<g id="a_edge6&#45;headlabel"><a xlink:href="dir_000011_000006.html" target="_top" xlink:title="4">
<text xml:space="preserve" text-anchor="middle" x="86.56" y="-212.12" font-family="Helvetica,sans-Serif" font-size="10.00" fill="#63b8ff">4</text>
</a>
</g>
</g>
<!-- dir_42a4622eeadeb301e554ade53994b57b -->
<g id="node8" class="node">
<title>dir_42a4622eeadeb301e554ade53994b57b</title>
<g id="a_node8"><a xlink:href="dir_42a4622eeadeb301e554ade53994b57b.html" target="_top" xlink:title="hdmf">
<polygon fill="#a2b4d6" stroke="#404040" points="107.88,-90.5 70.12,-90.5 70.12,-71.25 107.88,-71.25 107.88,-90.5"/>
<text xml:space="preserve" text-anchor="middle" x="89" y="-77" font-family="Helvetica,sans-Serif" font-size="10.00">hdmf</text>
</a>
</g>
</g>
<!-- dir_3875c1e54b4d5fadc95eea4e5fdc191f&#45;&gt;dir_42a4622eeadeb301e554ade53994b57b -->
<g id="edge3" class="edge">
<title>dir_3875c1e54b4d5fadc95eea4e5fdc191f&#45;&gt;dir_42a4622eeadeb301e554ade53994b57b</title>
<g id="a_edge3"><a xlink:href="dir_000011_000008.html" target="_top">
<path fill="none" stroke="#63b8ff" d="M96.2,-292.47C86.39,-284.25 72.22,-270.88 64,-256.25 39.14,-211.98 41.5,-196.11 35,-145.75 33.91,-137.26 31.36,-134.24 35,-126.5 40.71,-114.37 51.52,-104.41 61.97,-97"/>
<polygon fill="#63b8ff" stroke="#63b8ff" points="63.57,-100.14 70.05,-91.75 59.76,-94.27 63.57,-100.14"/>
</a>
</g>
<g id="a_edge3&#45;headlabel"><a xlink:href="dir_000011_000008.html" target="_top" xlink:title="11">
<text xml:space="preserve" text-anchor="middle" x="63.38" y="-99.78" font-family="Helvetica,sans-Serif" font-size="10.00" fill="#63b8ff">11</text>
</a>
</g>
</g>
<!-- dir_f7e250f2dab84b749f9aab45f742d0c7 -->
<g id="node9" class="node">
<title>dir_f7e250f2dab84b749f9aab45f742d0c7</title>
<g id="a_node9"><a xlink:href="dir_f7e250f2dab84b749f9aab45f742d0c7.html" target="_top" xlink:title="misc">
<polygon fill="#a2b4d6" stroke="#404040" points="211.5,-256.25 174.5,-256.25 174.5,-237 211.5,-237 211.5,-256.25"/>
<text xml:space="preserve" text-anchor="middle" x="193" y="-242.75" font-family="Helvetica,sans-Serif" font-size="10.00">misc</text>
</a>
</g>
</g>
<!-- dir_3875c1e54b4d5fadc95eea4e5fdc191f&#45;&gt;dir_f7e250f2dab84b749f9aab45f742d0c7 -->
<g id="edge8" class="edge">
<title>dir_3875c1e54b4d5fadc95eea4e5fdc191f&#45;&gt;dir_f7e250f2dab84b749f9aab45f742d0c7</title>
<g id="a_edge8"><a xlink:href="dir_000011_000010.html" target="_top">
<path fill="none" stroke="#63b8ff" d="M120.82,-292.32C133.75,-284.31 153.35,-272.18 168.86,-262.57"/>
<polygon fill="#63b8ff" stroke="#63b8ff" points="170.41,-265.73 177.07,-257.49 166.72,-259.78 170.41,-265.73"/>
</a>
</g>
<g id="a_edge8&#45;headlabel"><a xlink:href="dir_000011_000010.html" target="_top" xlink:title="2">
<text xml:space="preserve" text-anchor="middle" x="170.13" y="-265.37" font-family="Helvetica,sans-Serif" font-size="10.00" fill="#63b8ff">2</text>
</a>
</g>
</g>
<!-- dir_2c5b7fd6b972088aa6b0c8b33452cfb2&#45;&gt;dir_c184e51c84f2c3f0345bbc8a0d75d3e1 -->
<g id="edge10" class="edge">
<title>dir_2c5b7fd6b972088aa6b0c8b33452cfb2&#45;&gt;dir_c184e51c84f2c3f0345bbc8a0d75d3e1</title>
<g id="a_edge10"><a xlink:href="dir_000000_000009.html" target="_top">
<path fill="none" stroke="#63b8ff" d="M139.56,-181.57C144.06,-156.14 157.18,-82.1 163.5,-46.37"/>
<polygon fill="#63b8ff" stroke="#63b8ff" points="166.87,-47.42 165.17,-36.96 159.98,-46.2 166.87,-47.42"/>
</a>
</g>
<g id="a_edge10&#45;headlabel"><a xlink:href="dir_000000_000009.html" target="_top" xlink:title="3">
<text xml:space="preserve" text-anchor="middle" x="169.3" y="-46.09" font-family="Helvetica,sans-Serif" font-size="10.00" fill="#63b8ff">3</text>
</a>
</g>
</g>
<!-- dir_2c5b7fd6b972088aa6b0c8b33452cfb2&#45;&gt;dir_42a4622eeadeb301e554ade53994b57b -->
<g id="edge9" class="edge">
<title>dir_2c5b7fd6b972088aa6b0c8b33452cfb2&#45;&gt;dir_42a4622eeadeb301e554ade53994b57b</title>
<g id="a_edge9"><a xlink:href="dir_000000_000008.html" target="_top">
<path fill="none" stroke="#63b8ff" d="M133.99,-181.5C126.09,-164.01 108.37,-124.77 97.68,-101.09"/>
<polygon fill="#63b8ff" stroke="#63b8ff" points="100.99,-99.93 93.69,-92.26 94.61,-102.81 100.99,-99.93"/>
</a>
</g>
<g id="a_edge9&#45;headlabel"><a xlink:href="dir_000000_000008.html" target="_top" xlink:title="1">
<text xml:space="preserve" text-anchor="middle" x="104.44" y="-96.78" font-family="Helvetica,sans-Serif" font-size="10.00" fill="#63b8ff">1</text>
</a>
</g>
</g>
<!-- dir_768b474e02849cb20a8de3864ffdf8c9&#45;&gt;dir_c184e51c84f2c3f0345bbc8a0d75d3e1 -->
<g id="edge12" class="edge">
<title>dir_768b474e02849cb20a8de3864ffdf8c9&#45;&gt;dir_c184e51c84f2c3f0345bbc8a0d75d3e1</title>
<g id="a_edge12"><a xlink:href="dir_000003_000009.html" target="_top">
<path fill="none" stroke="#63b8ff" d="M77.49,-126.12C88.2,-117.48 104.38,-103.83 117,-90.5 130.73,-75.99 144.6,-57.95 154.23,-44.75"/>
<polygon fill="#63b8ff" stroke="#63b8ff" points="156.83,-47.13 159.82,-36.96 151.15,-43.04 156.83,-47.13"/>
</a>
</g>
<g id="a_edge12&#45;headlabel"><a xlink:href="dir_000003_000009.html" target="_top" xlink:title="2">
<text xml:space="preserve" text-anchor="middle" x="157.93" y="-46.6" font-family="Helvetica,sans-Serif" font-size="10.00" fill="#63b8ff">2</text>
</a>
</g>
</g>
<!-- dir_768b474e02849cb20a8de3864ffdf8c9&#45;&gt;dir_42a4622eeadeb301e554ade53994b57b -->
<g id="edge11" class="edge">
<title>dir_768b474e02849cb20a8de3864ffdf8c9&#45;&gt;dir_42a4622eeadeb301e554ade53994b57b</title>
<g id="a_edge11"><a xlink:href="dir_000003_000008.html" target="_top">
<path fill="none" stroke="#63b8ff" d="M69.8,-126.33C72.74,-119.51 76.94,-109.81 80.65,-101.2"/>
<polygon fill="#63b8ff" stroke="#63b8ff" points="83.77,-102.82 84.52,-92.25 77.34,-100.04 83.77,-102.82"/>
</a>
</g>
<g id="a_edge11&#45;headlabel"><a xlink:href="dir_000003_000008.html" target="_top" xlink:title="1">
<text xml:space="preserve" text-anchor="middle" x="85.55" y="-101.98" font-family="Helvetica,sans-Serif" font-size="10.00" fill="#63b8ff">1</text>
</a>
</g>
</g>
<!-- dir_233c518972f8f5648ed7849c4d3f4524&#45;&gt;dir_c184e51c84f2c3f0345bbc8a0d75d3e1 -->
<g id="edge14" class="edge">
<title>dir_233c518972f8f5648ed7849c4d3f4524&#45;&gt;dir_c184e51c84f2c3f0345bbc8a0d75d3e1</title>
<g id="a_edge14"><a xlink:href="dir_000005_000009.html" target="_top">
<path fill="none" stroke="#63b8ff" d="M140.48,-236.57C149.18,-228.31 160.92,-215.25 166,-201 184.92,-147.9 176.85,-79.79 171.04,-46.6"/>
<polygon fill="#63b8ff" stroke="#63b8ff" points="174.55,-46.36 169.26,-37.18 167.67,-47.65 174.55,-46.36"/>
</a>
</g>
<g id="a_edge14&#45;headlabel"><a xlink:href="dir_000005_000009.html" target="_top" xlink:title="4">
<text xml:space="preserve" text-anchor="middle" x="177.73" y="-44" font-family="Helvetica,sans-Serif" font-size="10.00" fill="#63b8ff">4</text>
</a>
</g>
</g>
<!-- dir_233c518972f8f5648ed7849c4d3f4524&#45;&gt;dir_2c5b7fd6b972088aa6b0c8b33452cfb2 -->
<g id="edge13" class="edge">
<title>dir_233c518972f8f5648ed7849c4d3f4524&#45;&gt;dir_2c5b7fd6b972088aa6b0c8b33452cfb2</title>
<g id="a_edge13"><a xlink:href="dir_000005_000000.html" target="_top">
<path fill="none" stroke="#63b8ff" d="M131.32,-236.83C132.31,-230.24 133.71,-220.96 134.97,-212.57"/>
<polygon fill="#63b8ff" stroke="#63b8ff" points="138.4,-213.26 136.43,-202.86 131.48,-212.22 138.4,-213.26"/>
</a>
</g>
<g id="a_edge13&#45;headlabel"><a xlink:href="dir_000005_000000.html" target="_top" xlink:title="1">
<text xml:space="preserve" text-anchor="middle" x="140.9" y="-211.87" font-family="Helvetica,sans-Serif" font-size="10.00" fill="#63b8ff">1</text>
</a>
</g>
</g>
<!-- dir_233c518972f8f5648ed7849c4d3f4524&#45;&gt;dir_f14b33441b8f3c4a1a213ba2de2e3c66 -->
<g id="edge15" class="edge">
<title>dir_233c518972f8f5648ed7849c4d3f4524&#45;&gt;dir_f14b33441b8f3c4a1a213ba2de2e3c66</title>
<g id="a_edge15"><a xlink:href="dir_000005_000006.html" target="_top">
<path fill="none" stroke="#63b8ff" d="M122.9,-236.83C117.08,-229.63 108.67,-219.21 101.44,-210.26"/>
<polygon fill="#63b8ff" stroke="#63b8ff" points="104.21,-208.12 95.21,-202.54 98.77,-212.52 104.21,-208.12"/>
</a>
</g>
<g id="a_edge15&#45;headlabel"><a xlink:href="dir_000005_000006.html" target="_top" xlink:title="2">
<text xml:space="preserve" text-anchor="middle" x="107.73" y="-204.08" font-family="Helvetica,sans-Serif" font-size="10.00" fill="#63b8ff">2</text>
</a>
</g>
</g>
<!-- dir_f14b33441b8f3c4a1a213ba2de2e3c66&#45;&gt;dir_c184e51c84f2c3f0345bbc8a0d75d3e1 -->
<g id="edge18" class="edge">
<title>dir_f14b33441b8f3c4a1a213ba2de2e3c66&#45;&gt;dir_c184e51c84f2c3f0345bbc8a0d75d3e1</title>
<g id="a_edge18"><a xlink:href="dir_000006_000009.html" target="_top">
<path fill="none" stroke="#63b8ff" d="M91.3,-181.57C103.84,-155.92 140.53,-80.8 157.81,-45.44"/>
<polygon fill="#63b8ff" stroke="#63b8ff" points="160.77,-47.35 162.01,-36.83 154.48,-44.28 160.77,-47.35"/>
</a>
</g>
<g id="a_edge18&#45;headlabel"><a xlink:href="dir_000006_000009.html" target="_top" xlink:title="2">
<text xml:space="preserve" text-anchor="middle" x="162.41" y="-46.59" font-family="Helvetica,sans-Serif" font-size="10.00" fill="#63b8ff">2</text>
</a>
</g>
</g>
<!-- dir_f14b33441b8f3c4a1a213ba2de2e3c66&#45;&gt;dir_768b474e02849cb20a8de3864ffdf8c9 -->
<g id="edge17" class="edge">
<title>dir_f14b33441b8f3c4a1a213ba2de2e3c66&#45;&gt;dir_768b474e02849cb20a8de3864ffdf8c9</title>
<g id="a_edge17"><a xlink:href="dir_000006_000003.html" target="_top">
<path fill="none" stroke="#63b8ff" d="M83.53,-181.58C80.87,-174.84 77.1,-165.27 73.74,-156.74"/>
<polygon fill="#63b8ff" stroke="#63b8ff" points="77.02,-155.54 70.1,-147.52 70.51,-158.1 77.02,-155.54"/>
</a>
</g>
<g id="a_edge17&#45;headlabel"><a xlink:href="dir_000006_000003.html" target="_top" xlink:title="1">
<text xml:space="preserve" text-anchor="middle" x="80.43" y="-152.56" font-family="Helvetica,sans-Serif" font-size="10.00" fill="#63b8ff">1</text>
</a>
</g>
</g>
<!-- dir_f14b33441b8f3c4a1a213ba2de2e3c66&#45;&gt;dir_42a4622eeadeb301e554ade53994b57b -->
<g id="edge16" class="edge">
<title>dir_f14b33441b8f3c4a1a213ba2de2e3c66&#45;&gt;dir_42a4622eeadeb301e554ade53994b57b</title>
<g id="a_edge16"><a xlink:href="dir_000006_000008.html" target="_top">
<path fill="none" stroke="#63b8ff" d="M89.57,-181.58C92.05,-172.65 95.6,-158.38 97,-145.75 98.62,-131.09 96.45,-114.56 93.95,-102"/>
<polygon fill="#63b8ff" stroke="#63b8ff" points="97.42,-101.44 91.82,-92.44 90.58,-102.96 97.42,-101.44"/>
</a>
</g>
<g id="a_edge16&#45;headlabel"><a xlink:href="dir_000006_000008.html" target="_top" xlink:title="4">
<text xml:space="preserve" text-anchor="middle" x="100.64" y="-98.97" font-family="Helvetica,sans-Serif" font-size="10.00" fill="#63b8ff">4</text>
</a>
</g>
</g>
<!-- dir_42a4622eeadeb301e554ade53994b57b&#45;&gt;dir_c184e51c84f2c3f0345bbc8a0d75d3e1 -->
<g id="edge19" class="edge">
<title>dir_42a4622eeadeb301e554ade53994b57b&#45;&gt;dir_c184e51c84f2c3f0345bbc8a0d75d3e1</title>
<g id="a_edge19"><a xlink:href="dir_000008_000009.html" target="_top">
<path fill="none" stroke="#63b8ff" d="M101.11,-70.99C104.61,-68.46 108.44,-65.72 112,-63.25 122.35,-56.07 133.95,-48.3 143.81,-41.78"/>
<polygon fill="#63b8ff" stroke="#63b8ff" points="145.65,-44.76 152.08,-36.34 141.8,-38.92 145.65,-44.76"/>
</a>
</g>
<g id="a_edge19&#45;headlabel"><a xlink:href="dir_000008_000009.html" target="_top" xlink:title="4">
<text xml:space="preserve" text-anchor="middle" x="145.47" y="-44.41" font-family="Helvetica,sans-Serif" font-size="10.00" fill="#63b8ff">4</text>
</a>
</g>
</g>
<!-- dir_f7e250f2dab84b749f9aab45f742d0c7&#45;&gt;dir_c184e51c84f2c3f0345bbc8a0d75d3e1 -->
<g id="edge21" class="edge">
<title>dir_f7e250f2dab84b749f9aab45f742d0c7&#45;&gt;dir_c184e51c84f2c3f0345bbc8a0d75d3e1</title>
<g id="a_edge21"><a xlink:href="dir_000010_000009.html" target="_top">
<path fill="none" stroke="#63b8ff" d="M194.76,-236.61C199.67,-209.57 211.88,-127.03 192,-63.25 189.97,-56.73 186.34,-50.33 182.47,-44.74"/>
<polygon fill="#63b8ff" stroke="#63b8ff" points="185.32,-42.72 176.45,-36.93 179.78,-46.99 185.32,-42.72"/>
</a>
</g>
<g id="a_edge21&#45;headlabel"><a xlink:href="dir_000010_000009.html" target="_top" xlink:title="2">
<text xml:space="preserve" text-anchor="middle" x="188.84" y="-38.76" font-family="Helvetica,sans-Serif" font-size="10.00" fill="#63b8ff">2</text>
</a>
</g>
</g>
<!-- dir_f7e250f2dab84b749f9aab45f742d0c7&#45;&gt;dir_2c5b7fd6b972088aa6b0c8b33452cfb2 -->
<g id="edge20" class="edge">
<title>dir_f7e250f2dab84b749f9aab45f742d0c7&#45;&gt;dir_2c5b7fd6b972088aa6b0c8b33452cfb2</title>
<g id="a_edge20"><a xlink:href="dir_000010_000000.html" target="_top">
<path fill="none" stroke="#63b8ff" d="M183.92,-236.83C176.16,-229.32 164.79,-218.31 155.3,-209.13"/>
<polygon fill="#63b8ff" stroke="#63b8ff" points="157.99,-206.85 148.37,-202.41 153.12,-211.88 157.99,-206.85"/>
</a>
</g>
<g id="a_edge20&#45;headlabel"><a xlink:href="dir_000010_000000.html" target="_top" xlink:title="1">
<text xml:space="preserve" text-anchor="middle" x="161.46" y="-202.39" font-family="Helvetica,sans-Serif" font-size="10.00" fill="#63b8ff">1</text>
</a>
</g>
</g>
</g>
</svg>
</svg>

<style type='text/css'>
<![CDATA[
[data-mouse-over-selected='false'] { opacity: 0.7; }
[data-mouse-over-selected='true']  { opacity: 1.0; }
]]>
</style>
<script type="application/ecmascript"><![CDATA[
document.addEventListener('DOMContentLoaded', (event) => {
  highlightEdges();
  highlightAdjacentNodes();
});
]]></script>
</svg>
