<?xml version="1.0" encoding="UTF-8" standalone="no"?>
<!DOCTYPE svg PUBLIC "-//W3C//DTD SVG 1.1//EN"
 "http://www.w3.org/Graphics/SVG/1.1/DTD/svg11.dtd">
<!-- Generated by graphviz version 2.43.0 (0)
 -->
<!-- Title: src/nwb/file Pages: 1 -->
<svg width="114pt" height="239pt"
 viewBox="0.00 0.00 114.00 239.00" xmlns="http://www.w3.org/2000/svg" xmlns:xlink="http://www.w3.org/1999/xlink">
<g id="graph0" class="graph" transform="scale(1 1) rotate(0) translate(4 235)">
<title>src/nwb/file</title>
<polygon fill="white" stroke="transparent" points="-4,4 -4,-235 110,-235 110,4 -4,4"/>
<g id="clust1" class="cluster">
<title>clusterdir_3875c1e54b4d5fadc95eea4e5fdc191f</title>
<g id="a_clust1"><a xlink:href="dir_3875c1e54b4d5fadc95eea4e5fdc191f.html" target="_top" xlink:title="nwb">
<polygon fill="#ddddee" stroke="black" points="8,-8 8,-223 98,-223 98,-8 8,-8"/>
<text text-anchor="middle" x="53" y="-211" font-family="Helvetica,sans-Serif" font-size="10.00">nwb</text>
</a>
</g>
</g>
<!-- dir_42a4622eeadeb301e554ade53994b57b -->
<g id="node1" class="node">
<title>dir_42a4622eeadeb301e554ade53994b57b</title>
<g id="a_node1"><a xlink:href="dir_42a4622eeadeb301e554ade53994b57b.html" target="_top" xlink:title="hdmf">
<polygon fill="white" stroke="red" points="80,-52 26,-52 26,-16 80,-16 80,-52"/>
<text text-anchor="middle" x="53" y="-31.5" font-family="Helvetica,sans-Serif" font-size="10.00">hdmf</text>
</a>
</g>
</g>
<!-- dir_768b474e02849cb20a8de3864ffdf8c9 -->
<g id="node2" class="node">
<title>dir_768b474e02849cb20a8de3864ffdf8c9</title>
<g id="a_node2"><a xlink:href="dir_768b474e02849cb20a8de3864ffdf8c9.html" target="_top" xlink:title="device">
<polygon fill="none" stroke="black" points="90,-124 36,-124 36,-88 90,-88 90,-124"/>
<text text-anchor="middle" x="63" y="-103.5" font-family="Helvetica,sans-Serif" font-size="10.00">device</text>
</a>
</g>
</g>
<!-- dir_768b474e02849cb20a8de3864ffdf8c9&#45;&gt;dir_42a4622eeadeb301e554ade53994b57b -->
<g id="edge3" class="edge">
<title>dir_768b474e02849cb20a8de3864ffdf8c9&#45;&gt;dir_42a4622eeadeb301e554ade53994b57b</title>
<path fill="none" stroke="black" d="M60.53,-87.7C59.43,-79.98 58.1,-70.71 56.87,-62.11"/>
<polygon fill="black" stroke="black" points="60.32,-61.51 55.44,-52.1 53.39,-62.5 60.32,-61.51"/>
<g id="a_edge3&#45;headlabel"><a xlink:href="dir_000006_000009.html" target="_top" xlink:title="1">
<text text-anchor="middle" x="63.64" y="-62.17" font-family="Helvetica,sans-Serif" font-size="10.00">1</text>
</a>
</g>
</g>
<!-- dir_f14b33441b8f3c4a1a213ba2de2e3c66 -->
<g id="node3" class="node">
<title>dir_f14b33441b8f3c4a1a213ba2de2e3c66</title>
<g id="a_node3"><a xlink:href="dir_f14b33441b8f3c4a1a213ba2de2e3c66.html" target="_top" xlink:title="file">
<polygon fill="#eeeeff" stroke="black" points="80,-196 26,-196 26,-160 80,-160 80,-196"/>
<text text-anchor="middle" x="53" y="-175.5" font-family="Helvetica,sans-Serif" font-size="10.00">file</text>
</a>
</g>
</g>
<!-- dir_f14b33441b8f3c4a1a213ba2de2e3c66&#45;&gt;dir_42a4622eeadeb301e554ade53994b57b -->
<g id="edge1" class="edge">
<title>dir_f14b33441b8f3c4a1a213ba2de2e3c66&#45;&gt;dir_42a4622eeadeb301e554ade53994b57b</title>
<path fill="none" stroke="black" d="M41.95,-159.61C36.26,-149.62 29.92,-136.58 27,-124 23.38,-108.41 23.38,-103.59 27,-88 29.1,-78.96 32.97,-69.68 37.09,-61.47"/>
<polygon fill="black" stroke="black" points="40.31,-62.86 41.95,-52.39 34.14,-59.55 40.31,-62.86"/>
<g id="a_edge1&#45;headlabel"><a xlink:href="dir_000008_000009.html" target="_top" xlink:title="4">
<text text-anchor="middle" x="41.12" y="-64.87" font-family="Helvetica,sans-Serif" font-size="10.00">4</text>
</a>
</g>
</g>
<!-- dir_f14b33441b8f3c4a1a213ba2de2e3c66&#45;&gt;dir_768b474e02849cb20a8de3864ffdf8c9 -->
<g id="edge2" class="edge">
<title>dir_f14b33441b8f3c4a1a213ba2de2e3c66&#45;&gt;dir_768b474e02849cb20a8de3864ffdf8c9</title>
<path fill="none" stroke="black" d="M55.47,-159.7C56.57,-151.98 57.9,-142.71 59.13,-134.11"/>
<polygon fill="black" stroke="black" points="62.61,-134.5 60.56,-124.1 55.68,-133.51 62.61,-134.5"/>
<g id="a_edge2&#45;headlabel"><a xlink:href="dir_000008_000006.html" target="_top" xlink:title="1">
<text text-anchor="middle" x="64.91" y="-135.96" font-family="Helvetica,sans-Serif" font-size="10.00">1</text>
</a>
</g>
</g>
</g>
</svg>
