<?xml version="1.0" encoding="UTF-8" standalone="no"?>
<!DOCTYPE svg PUBLIC "-//W3C//DTD SVG 1.1//EN"
 "http://www.w3.org/Graphics/SVG/1.1/DTD/svg11.dtd">
<!-- Generated by graphviz version 14.1.2 (20260124.0452)
 -->
<!-- Title: src/nwb Pages: 1 -->
<svg width="344pt" height="418pt"
 viewBox="0.00 0.00 344.00 418.00" xmlns="http://www.w3.org/2000/svg" xmlns:xlink="http://www.w3.org/1999/xlink">

<svg id="main" version="1.1" xmlns="http://www.w3.org/2000/svg" xmlns:xlink="http://www.w3.org/1999/xlink" xml:space="preserve">

<style type="text/css"><![CDATA[
.node, .edge {opacity: 0.7;}
.node.selected, .edge.selected {opacity: 1;}
.edge:hover path { stroke: red; }
.edge:hover polygon { stroke: red; fill: red; }
]]></style>
<script type="application/ecmascript" xlink:href="svg.min.js"/>
<svg id="graph" class="graph">
<g id="graph0" class="graph" transform="scale(1 1) rotate(0) translate(4 414)">
<title>src/nwb</title>
<g id="clust1" class="cluster">
<title>clusterdir_68267d1309a1af8e8297ef4c3efbcdba</title>
<g id="a_clust1"><a xlink:href="dir_68267d1309a1af8e8297ef4c3efbcdba.html" target="_top" xlink:title="src">
<polygon fill="#edf0f7" stroke="#404040" stroke-dasharray="5,2" points="8,-8 8,-402 328,-402 328,-8 8,-8"/>
<text xml:space="preserve" text-anchor="middle" x="168" y="-388.5" font-family="Helvetica,sans-Serif" font-size="10.00">src</text>
</a>
</g>
</g>
<g id="clust2" class="cluster">
<title>clusterdir_3875c1e54b4d5fadc95eea4e5fdc191f</title>
<g id="a_clust2"><a xlink:href="dir_3875c1e54b4d5fadc95eea4e5fdc191f.html" target="_top">
<polygon fill="#edf0f7" stroke="#404040" stroke-width="2" points="88,-63.25 88,-374.75 248,-374.75 248,-63.25 88,-63.25"/>
</a>
</g>
</g>
<!-- dir_c184e51c84f2c3f0345bbc8a0d75d3e1 -->
<g id="node1" class="node">
<title>dir_c184e51c84f2c3f0345bbc8a0d75d3e1</title>
<g id="a_node1"><a xlink:href="dir_c184e51c84f2c3f0345bbc8a0d75d3e1.html" target="_top" xlink:title="io">
<polygon fill="#a2b4d6" stroke="red" points="273.4,-35.25 244.6,-35.25 244.6,-16 273.4,-16 273.4,-35.25"/>
<text xml:space="preserve" text-anchor="middle" x="259" y="-21.75" font-family="Helvetica,sans-Serif" font-size="10.00">io</text>
</a>
</g>
</g>
<!-- dir_f7b006e91d0dca03ab8c40dbc00ee65e -->
<g id="node2" class="node">
<title>dir_f7b006e91d0dca03ab8c40dbc00ee65e</title>
<g id="a_node2"><a xlink:href="dir_f7b006e91d0dca03ab8c40dbc00ee65e.html" target="_top" xlink:title="spec">
<polygon fill="#a2b4d6" stroke="#404040" points="95.5,-35.25 58.5,-35.25 58.5,-16 95.5,-16 95.5,-35.25"/>
<text xml:space="preserve" text-anchor="middle" x="77" y="-21.75" font-family="Helvetica,sans-Serif" font-size="10.00">spec</text>
</a>
</g>
</g>
<!-- dir_3875c1e54b4d5fadc95eea4e5fdc191f -->
<g id="node3" class="node">
<title>dir_3875c1e54b4d5fadc95eea4e5fdc191f</title>
<text xml:space="preserve" text-anchor="middle" x="187" y="-353.25" font-family="Helvetica,sans-Serif" font-size="10.00">nwb</text>
</g>
<!-- dir_3875c1e54b4d5fadc95eea4e5fdc191f&#45;&gt;dir_c184e51c84f2c3f0345bbc8a0d75d3e1 -->
<g id="edge4" class="edge">
<title>dir_3875c1e54b4d5fadc95eea4e5fdc191f&#45;&gt;dir_c184e51c84f2c3f0345bbc8a0d75d3e1</title>
<g id="a_edge4"><a xlink:href="dir_000011_000009.html" target="_top">
<path fill="none" stroke="#63b8ff" d="M203.99,-351.07C239.64,-339.31 319,-306.51 319,-247.62 319,-247.62 319,-247.62 319,-135.12 319,-99.26 293.58,-64.12 275.84,-43.95"/>
<polygon fill="#63b8ff" stroke="#63b8ff" points="278.48,-41.66 269.14,-36.67 273.33,-46.4 278.48,-41.66"/>
</a>
</g>
<g id="a_edge4&#45;headlabel"><a xlink:href="dir_000011_000009.html" target="_top" xlink:title="33">
<text xml:space="preserve" text-anchor="middle" x="281.98" y="-37.4" font-family="Helvetica,sans-Serif" font-size="10.00" fill="#63b8ff">33</text>
</a>
</g>
</g>
<!-- dir_3875c1e54b4d5fadc95eea4e5fdc191f&#45;&gt;dir_f7b006e91d0dca03ab8c40dbc00ee65e -->
<g id="edge6" class="edge">
<title>dir_3875c1e54b4d5fadc95eea4e5fdc191f&#45;&gt;dir_f7b006e91d0dca03ab8c40dbc00ee65e</title>
<g id="a_edge6"><a xlink:href="dir_000011_000013.html" target="_top">
<path fill="none" stroke="#63b8ff" d="M170.08,-353.58C127.08,-346.06 17,-319.75 17,-247.62 17,-247.62 17,-247.62 17,-135.12 17,-101.3 24.36,-92.11 42,-63.25 46.38,-56.09 52.35,-49.18 58.13,-43.33"/>
<polygon fill="#63b8ff" stroke="#63b8ff" points="60.31,-46.08 65.14,-36.65 55.48,-41.01 60.31,-46.08"/>
</a>
</g>
<g id="a_edge6&#45;headlabel"><a xlink:href="dir_000011_000013.html" target="_top" xlink:title="21">
<text xml:space="preserve" text-anchor="middle" x="60.76" y="-45.7" font-family="Helvetica,sans-Serif" font-size="10.00" fill="#63b8ff">21</text>
</a>
</g>
</g>
<!-- dir_2c5b7fd6b972088aa6b0c8b33452cfb2 -->
<g id="node4" class="node">
<title>dir_2c5b7fd6b972088aa6b0c8b33452cfb2</title>
<g id="a_node4"><a xlink:href="dir_2c5b7fd6b972088aa6b0c8b33452cfb2.html" target="_top" xlink:title="base">
<polygon fill="#a2b4d6" stroke="#404040" points="185.5,-145.75 148.5,-145.75 148.5,-126.5 185.5,-126.5 185.5,-145.75"/>
<text xml:space="preserve" text-anchor="middle" x="167" y="-132.25" font-family="Helvetica,sans-Serif" font-size="10.00">base</text>
</a>
</g>
</g>
<!-- dir_3875c1e54b4d5fadc95eea4e5fdc191f&#45;&gt;dir_2c5b7fd6b972088aa6b0c8b33452cfb2 -->
<g id="edge2" class="edge">
<title>dir_3875c1e54b4d5fadc95eea4e5fdc191f&#45;&gt;dir_2c5b7fd6b972088aa6b0c8b33452cfb2</title>
<g id="a_edge2"><a xlink:href="dir_000011_000000.html" target="_top">
<path fill="none" stroke="#63b8ff" d="M186.53,-347.61C185.66,-327.87 184.64,-277.58 194,-237 199.72,-212.21 218.38,-205.4 209,-181.75 204.68,-170.86 196.3,-161.07 188.16,-153.47"/>
<polygon fill="#63b8ff" stroke="#63b8ff" points="190.62,-150.97 180.76,-147.1 186.06,-156.28 190.62,-150.97"/>
</a>
</g>
<g id="a_edge2&#45;headlabel"><a xlink:href="dir_000011_000000.html" target="_top" xlink:title="7">
<text xml:space="preserve" text-anchor="middle" x="194.05" y="-146.3" font-family="Helvetica,sans-Serif" font-size="10.00" fill="#63b8ff">7</text>
</a>
</g>
</g>
<!-- dir_768b474e02849cb20a8de3864ffdf8c9 -->
<g id="node5" class="node">
<title>dir_768b474e02849cb20a8de3864ffdf8c9</title>
<g id="a_node5"><a xlink:href="dir_768b474e02849cb20a8de3864ffdf8c9.html" target="_top" xlink:title="device">
<polygon fill="#a2b4d6" stroke="#404040" points="200.25,-201 155.75,-201 155.75,-181.75 200.25,-181.75 200.25,-201"/>
<text xml:space="preserve" text-anchor="middle" x="178" y="-187.5" font-family="Helvetica,sans-Serif" font-size="10.00">device</text>
</a>
</g>
</g>
<!-- dir_3875c1e54b4d5fadc95eea4e5fdc191f&#45;&gt;dir_768b474e02849cb20a8de3864ffdf8c9 -->
<g id="edge3" class="edge">
<title>dir_3875c1e54b4d5fadc95eea4e5fdc191f&#45;&gt;dir_768b474e02849cb20a8de3864ffdf8c9</title>
<g id="a_edge3"><a xlink:href="dir_000011_000003.html" target="_top">
<path fill="none" stroke="#63b8ff" d="M185.97,-347.59C183.95,-330.36 179.52,-290.16 178,-256.25 177.35,-241.78 177.36,-225.45 177.53,-212.92"/>
<polygon fill="#63b8ff" stroke="#63b8ff" points="181.03,-213.05 177.72,-202.99 174.03,-212.92 181.03,-213.05"/>
</a>
</g>
<g id="a_edge3&#45;headlabel"><a xlink:href="dir_000011_000003.html" target="_top" xlink:title="2">
<text xml:space="preserve" text-anchor="middle" x="183.83" y="-211.31" font-family="Helvetica,sans-Serif" font-size="10.00" fill="#63b8ff">2</text>
</a>
</g>
</g>
<!-- dir_233c518972f8f5648ed7849c4d3f4524 -->
<g id="node6" class="node">
<title>dir_233c518972f8f5648ed7849c4d3f4524</title>
<g id="a_node6"><a xlink:href="dir_233c518972f8f5648ed7849c4d3f4524.html" target="_top" xlink:title="ecephys">
<polygon fill="#a2b4d6" stroke="#404040" points="148.38,-311.5 95.62,-311.5 95.62,-292.25 148.38,-292.25 148.38,-311.5"/>
<text xml:space="preserve" text-anchor="middle" x="122" y="-298" font-family="Helvetica,sans-Serif" font-size="10.00">ecephys</text>
</a>
</g>
</g>
<!-- dir_3875c1e54b4d5fadc95eea4e5fdc191f&#45;&gt;dir_233c518972f8f5648ed7849c4d3f4524 -->
<g id="edge1" class="edge">
<title>dir_3875c1e54b4d5fadc95eea4e5fdc191f&#45;&gt;dir_233c518972f8f5648ed7849c4d3f4524</title>
<g id="a_edge1"><a xlink:href="dir_000011_000005.html" target="_top">
<path fill="none" stroke="#63b8ff" d="M176.56,-347.57C167.25,-339.94 153.37,-328.57 141.94,-319.21"/>
<polygon fill="#63b8ff" stroke="#63b8ff" points="144.19,-316.53 134.24,-312.9 139.76,-321.95 144.19,-316.53"/>
</a>
</g>
<g id="a_edge1&#45;headlabel"><a xlink:href="dir_000011_000005.html" target="_top" xlink:title="2">
<text xml:space="preserve" text-anchor="middle" x="147.6" y="-311.78" font-family="Helvetica,sans-Serif" font-size="10.00" fill="#63b8ff">2</text>
</a>
</g>
</g>
<!-- dir_f14b33441b8f3c4a1a213ba2de2e3c66 -->
<g id="node7" class="node">
<title>dir_f14b33441b8f3c4a1a213ba2de2e3c66</title>
<g id="a_node7"><a xlink:href="dir_f14b33441b8f3c4a1a213ba2de2e3c66.html" target="_top" xlink:title="file">
<polygon fill="#a2b4d6" stroke="#404040" points="144.4,-256.25 115.6,-256.25 115.6,-237 144.4,-237 144.4,-256.25"/>
<text xml:space="preserve" text-anchor="middle" x="130" y="-242.75" font-family="Helvetica,sans-Serif" font-size="10.00">file</text>
</a>
</g>
</g>
<!-- dir_3875c1e54b4d5fadc95eea4e5fdc191f&#45;&gt;dir_f14b33441b8f3c4a1a213ba2de2e3c66 -->
<g id="edge5" class="edge">
<title>dir_3875c1e54b4d5fadc95eea4e5fdc191f&#45;&gt;dir_f14b33441b8f3c4a1a213ba2de2e3c66</title>
<g id="a_edge5"><a xlink:href="dir_000011_000006.html" target="_top">
<path fill="none" stroke="#63b8ff" d="M183.39,-347.72C178.01,-335.37 167.41,-311.69 157,-292.25 152.36,-283.58 146.79,-274.23 141.93,-266.34"/>
<polygon fill="#63b8ff" stroke="#63b8ff" points="144.95,-264.59 136.68,-257.97 139.02,-268.31 144.95,-264.59"/>
</a>
</g>
<g id="a_edge5&#45;headlabel"><a xlink:href="dir_000011_000006.html" target="_top" xlink:title="4">
<text xml:space="preserve" text-anchor="middle" x="148.47" y="-260.97" font-family="Helvetica,sans-Serif" font-size="10.00" fill="#63b8ff">4</text>
</a>
</g>
</g>
<!-- dir_f7e250f2dab84b749f9aab45f742d0c7 -->
<g id="node9" class="node">
<title>dir_f7e250f2dab84b749f9aab45f742d0c7</title>
<g id="a_node9"><a xlink:href="dir_f7e250f2dab84b749f9aab45f742d0c7.html" target="_top" xlink:title="misc">
<polygon fill="#a2b4d6" stroke="#404040" points="239.5,-256.25 202.5,-256.25 202.5,-237 239.5,-237 239.5,-256.25"/>
<text xml:space="preserve" text-anchor="middle" x="221" y="-242.75" font-family="Helvetica,sans-Serif" font-size="10.00">misc</text>
</a>
</g>
</g>
<!-- dir_3875c1e54b4d5fadc95eea4e5fdc191f&#45;&gt;dir_f7e250f2dab84b749f9aab45f742d0c7 -->
<g id="edge7" class="edge">
<title>dir_3875c1e54b4d5fadc95eea4e5fdc191f&#45;&gt;dir_f7e250f2dab84b749f9aab45f742d0c7</title>
<g id="a_edge7"><a xlink:href="dir_000011_000010.html" target="_top">
<path fill="none" stroke="#63b8ff" d="M192.99,-347.69C198.83,-339.03 207.46,-324.96 212,-311.5 216.78,-297.33 219.02,-280.57 220.07,-267.77"/>
<polygon fill="#63b8ff" stroke="#63b8ff" points="223.55,-268.25 220.68,-258.05 216.56,-267.81 223.55,-268.25"/>
</a>
</g>
<g id="a_edge7&#45;headlabel"><a xlink:href="dir_000011_000010.html" target="_top" xlink:title="1">
<text xml:space="preserve" text-anchor="middle" x="226.25" y="-266.63" font-family="Helvetica,sans-Serif" font-size="10.00" fill="#63b8ff">1</text>
</a>
</g>
</g>
<!-- dir_2c5b7fd6b972088aa6b0c8b33452cfb2&#45;&gt;dir_c184e51c84f2c3f0345bbc8a0d75d3e1 -->
<g id="edge9" class="edge">
<title>dir_2c5b7fd6b972088aa6b0c8b33452cfb2&#45;&gt;dir_c184e51c84f2c3f0345bbc8a0d75d3e1</title>
<g id="a_edge9"><a xlink:href="dir_000000_000009.html" target="_top">
<path fill="none" stroke="#63b8ff" d="M174.33,-126.22C185.57,-112.58 207.79,-85.75 227,-63.25 232.33,-57.01 238.22,-50.24 243.48,-44.23"/>
<polygon fill="#63b8ff" stroke="#63b8ff" points="246.08,-46.57 250.05,-36.74 240.82,-41.95 246.08,-46.57"/>
</a>
</g>
<g id="a_edge9&#45;headlabel"><a xlink:href="dir_000000_000009.html" target="_top" xlink:title="11">
<text xml:space="preserve" text-anchor="middle" x="246.84" y="-46.13" font-family="Helvetica,sans-Serif" font-size="10.00" fill="#63b8ff">11</text>
</a>
</g>
</g>
<!-- dir_2c5b7fd6b972088aa6b0c8b33452cfb2&#45;&gt;dir_f7b006e91d0dca03ab8c40dbc00ee65e -->
<g id="edge10" class="edge">
<title>dir_2c5b7fd6b972088aa6b0c8b33452cfb2&#45;&gt;dir_f7b006e91d0dca03ab8c40dbc00ee65e</title>
<g id="a_edge10"><a xlink:href="dir_000000_000013.html" target="_top">
<path fill="none" stroke="#63b8ff" d="M159.63,-126.25C144.8,-108.36 111.09,-67.72 91.62,-44.25"/>
<polygon fill="#63b8ff" stroke="#63b8ff" points="94.51,-42.25 85.43,-36.79 89.12,-46.72 94.51,-42.25"/>
</a>
</g>
<g id="a_edge10&#45;headlabel"><a xlink:href="dir_000000_000013.html" target="_top" xlink:title="5">
<text xml:space="preserve" text-anchor="middle" x="98.03" y="-38.17" font-family="Helvetica,sans-Serif" font-size="10.00" fill="#63b8ff">5</text>
</a>
</g>
</g>
<!-- dir_42a4622eeadeb301e554ade53994b57b -->
<g id="node8" class="node">
<title>dir_42a4622eeadeb301e554ade53994b57b</title>
<g id="a_node8"><a xlink:href="dir_42a4622eeadeb301e554ade53994b57b.html" target="_top" xlink:title="hdmf">
<polygon fill="#a2b4d6" stroke="#404040" points="182.88,-90.5 145.12,-90.5 145.12,-71.25 182.88,-71.25 182.88,-90.5"/>
<text xml:space="preserve" text-anchor="middle" x="164" y="-77" font-family="Helvetica,sans-Serif" font-size="10.00">hdmf</text>
</a>
</g>
</g>
<!-- dir_2c5b7fd6b972088aa6b0c8b33452cfb2&#45;&gt;dir_42a4622eeadeb301e554ade53994b57b -->
<g id="edge8" class="edge">
<title>dir_2c5b7fd6b972088aa6b0c8b33452cfb2&#45;&gt;dir_42a4622eeadeb301e554ade53994b57b</title>
<g id="a_edge8"><a xlink:href="dir_000000_000008.html" target="_top">
<path fill="none" stroke="#63b8ff" d="M166.5,-126.33C166.13,-119.74 165.61,-110.46 165.14,-102.07"/>
<polygon fill="#63b8ff" stroke="#63b8ff" points="168.65,-102.16 164.59,-92.37 161.66,-102.55 168.65,-102.16"/>
</a>
</g>
<g id="a_edge8&#45;headlabel"><a xlink:href="dir_000000_000008.html" target="_top" xlink:title="3">
<text xml:space="preserve" text-anchor="middle" x="171.6" y="-100.2" font-family="Helvetica,sans-Serif" font-size="10.00" fill="#63b8ff">3</text>
</a>
</g>
</g>
<!-- dir_768b474e02849cb20a8de3864ffdf8c9&#45;&gt;dir_c184e51c84f2c3f0345bbc8a0d75d3e1 -->
<g id="edge12" class="edge">
<title>dir_768b474e02849cb20a8de3864ffdf8c9&#45;&gt;dir_c184e51c84f2c3f0345bbc8a0d75d3e1</title>
<g id="a_edge12"><a xlink:href="dir_000003_000009.html" target="_top">
<path fill="none" stroke="#63b8ff" d="M182.35,-181.57C195.05,-155.92 232.2,-80.8 249.69,-45.44"/>
<polygon fill="#63b8ff" stroke="#63b8ff" points="252.66,-47.34 253.95,-36.83 246.38,-44.24 252.66,-47.34"/>
</a>
</g>
<g id="a_edge12&#45;headlabel"><a xlink:href="dir_000003_000009.html" target="_top" xlink:title="2">
<text xml:space="preserve" text-anchor="middle" x="254.28" y="-46.59" font-family="Helvetica,sans-Serif" font-size="10.00" fill="#63b8ff">2</text>
</a>
</g>
</g>
<!-- dir_768b474e02849cb20a8de3864ffdf8c9&#45;&gt;dir_f7b006e91d0dca03ab8c40dbc00ee65e -->
<g id="edge13" class="edge">
<title>dir_768b474e02849cb20a8de3864ffdf8c9&#45;&gt;dir_f7b006e91d0dca03ab8c40dbc00ee65e</title>
<g id="a_edge13"><a xlink:href="dir_000003_000013.html" target="_top">
<path fill="none" stroke="#63b8ff" d="M169.75,-181.45C161.78,-172.66 149.54,-158.69 140,-145.75 122.76,-122.35 118.65,-116.16 105,-90.5 97.25,-75.93 89.82,-58.77 84.56,-45.91"/>
<polygon fill="#63b8ff" stroke="#63b8ff" points="87.92,-44.89 80.96,-36.91 81.42,-47.49 87.92,-44.89"/>
</a>
</g>
<g id="a_edge13&#45;headlabel"><a xlink:href="dir_000003_000013.html" target="_top" xlink:title="1">
<text xml:space="preserve" text-anchor="middle" x="91.33" y="-41.89" font-family="Helvetica,sans-Serif" font-size="10.00" fill="#63b8ff">1</text>
</a>
</g>
</g>
<!-- dir_768b474e02849cb20a8de3864ffdf8c9&#45;&gt;dir_2c5b7fd6b972088aa6b0c8b33452cfb2 -->
<g id="edge11" class="edge">
<title>dir_768b474e02849cb20a8de3864ffdf8c9&#45;&gt;dir_2c5b7fd6b972088aa6b0c8b33452cfb2</title>
<g id="a_edge11"><a xlink:href="dir_000003_000000.html" target="_top">
<path fill="none" stroke="#63b8ff" d="M176.18,-181.58C174.82,-174.99 172.9,-165.71 171.17,-157.32"/>
<polygon fill="#63b8ff" stroke="#63b8ff" points="174.61,-156.68 169.16,-147.59 167.76,-158.09 174.61,-156.68"/>
</a>
</g>
<g id="a_edge11&#45;headlabel"><a xlink:href="dir_000003_000000.html" target="_top" xlink:title="1">
<text xml:space="preserve" text-anchor="middle" x="177.81" y="-154.27" font-family="Helvetica,sans-Serif" font-size="10.00" fill="#63b8ff">1</text>
</a>
</g>
</g>
<!-- dir_233c518972f8f5648ed7849c4d3f4524&#45;&gt;dir_c184e51c84f2c3f0345bbc8a0d75d3e1 -->
<g id="edge15" class="edge">
<title>dir_233c518972f8f5648ed7849c4d3f4524&#45;&gt;dir_c184e51c84f2c3f0345bbc8a0d75d3e1</title>
<g id="a_edge15"><a xlink:href="dir_000005_000009.html" target="_top">
<path fill="none" stroke="#63b8ff" d="M148.71,-292.38C183.43,-281.2 240.62,-262.26 249,-256.25 278.29,-235.24 299,-228.43 299,-192.38 299,-192.38 299,-192.38 299,-135.12 299,-101.94 282.32,-66.38 270.51,-45.34"/>
<polygon fill="#63b8ff" stroke="#63b8ff" points="273.58,-43.66 265.5,-36.81 267.54,-47.2 273.58,-43.66"/>
</a>
</g>
<g id="a_edge15&#45;headlabel"><a xlink:href="dir_000005_000009.html" target="_top" xlink:title="4">
<text xml:space="preserve" text-anchor="middle" x="277.08" y="-40.14" font-family="Helvetica,sans-Serif" font-size="10.00" fill="#63b8ff">4</text>
</a>
</g>
</g>
<!-- dir_233c518972f8f5648ed7849c4d3f4524&#45;&gt;dir_f7b006e91d0dca03ab8c40dbc00ee65e -->
<g id="edge17" class="edge">
<title>dir_233c518972f8f5648ed7849c4d3f4524&#45;&gt;dir_f7b006e91d0dca03ab8c40dbc00ee65e</title>
<g id="a_edge17"><a xlink:href="dir_000005_000013.html" target="_top">
<path fill="none" stroke="#63b8ff" d="M107.58,-291.76C83.33,-275.19 37,-237.6 37,-192.38 37,-192.38 37,-192.38 37,-135.12 37,-101.94 53.68,-66.38 65.49,-45.34"/>
<polygon fill="#63b8ff" stroke="#63b8ff" points="68.46,-47.2 70.5,-36.81 62.42,-43.66 68.46,-47.2"/>
</a>
</g>
<g id="a_edge17&#45;headlabel"><a xlink:href="dir_000005_000013.html" target="_top" xlink:title="2">
<text xml:space="preserve" text-anchor="middle" x="69.85" y="-46.56" font-family="Helvetica,sans-Serif" font-size="10.00" fill="#63b8ff">2</text>
</a>
</g>
</g>
<!-- dir_233c518972f8f5648ed7849c4d3f4524&#45;&gt;dir_2c5b7fd6b972088aa6b0c8b33452cfb2 -->
<g id="edge14" class="edge">
<title>dir_233c518972f8f5648ed7849c4d3f4524&#45;&gt;dir_2c5b7fd6b972088aa6b0c8b33452cfb2</title>
<g id="a_edge14"><a xlink:href="dir_000005_000000.html" target="_top">
<path fill="none" stroke="#63b8ff" d="M117.08,-291.75C111.01,-279.34 102.06,-256.43 107,-237 115.06,-205.28 136.9,-173.76 151.88,-154.86"/>
<polygon fill="#63b8ff" stroke="#63b8ff" points="154.39,-157.31 158.02,-147.36 148.98,-152.88 154.39,-157.31"/>
</a>
</g>
<g id="a_edge14&#45;headlabel"><a xlink:href="dir_000005_000000.html" target="_top" xlink:title="1">
<text xml:space="preserve" text-anchor="middle" x="155.27" y="-156.85" font-family="Helvetica,sans-Serif" font-size="10.00" fill="#63b8ff">1</text>
</a>
</g>
</g>
<!-- dir_233c518972f8f5648ed7849c4d3f4524&#45;&gt;dir_f14b33441b8f3c4a1a213ba2de2e3c66 -->
<g id="edge16" class="edge">
<title>dir_233c518972f8f5648ed7849c4d3f4524&#45;&gt;dir_f14b33441b8f3c4a1a213ba2de2e3c66</title>
<g id="a_edge16"><a xlink:href="dir_000005_000006.html" target="_top">
<path fill="none" stroke="#63b8ff" d="M123.32,-292.08C124.31,-285.49 125.71,-276.21 126.97,-267.82"/>
<polygon fill="#63b8ff" stroke="#63b8ff" points="130.4,-268.51 128.43,-258.11 123.48,-267.47 130.4,-268.51"/>
</a>
</g>
<g id="a_edge16&#45;headlabel"><a xlink:href="dir_000005_000006.html" target="_top" xlink:title="2">
<text xml:space="preserve" text-anchor="middle" x="132.9" y="-267.12" font-family="Helvetica,sans-Serif" font-size="10.00" fill="#63b8ff">2</text>
</a>
</g>
</g>
<!-- dir_f14b33441b8f3c4a1a213ba2de2e3c66&#45;&gt;dir_c184e51c84f2c3f0345bbc8a0d75d3e1 -->
<g id="edge21" class="edge">
<title>dir_f14b33441b8f3c4a1a213ba2de2e3c66&#45;&gt;dir_c184e51c84f2c3f0345bbc8a0d75d3e1</title>
<g id="a_edge21"><a xlink:href="dir_000006_000009.html" target="_top">
<path fill="none" stroke="#63b8ff" d="M144.83,-241.13C162.67,-234.95 192.32,-222.15 209,-201 245.83,-154.31 255.53,-81.64 258.09,-46.71"/>
<polygon fill="#63b8ff" stroke="#63b8ff" points="261.55,-47.36 258.65,-37.17 254.57,-46.95 261.55,-47.36"/>
</a>
</g>
<g id="a_edge21&#45;headlabel"><a xlink:href="dir_000006_000009.html" target="_top" xlink:title="2">
<text xml:space="preserve" text-anchor="middle" x="264.26" y="-45.73" font-family="Helvetica,sans-Serif" font-size="10.00" fill="#63b8ff">2</text>
</a>
</g>
</g>
<!-- dir_f14b33441b8f3c4a1a213ba2de2e3c66&#45;&gt;dir_f7b006e91d0dca03ab8c40dbc00ee65e -->
<g id="edge22" class="edge">
<title>dir_f14b33441b8f3c4a1a213ba2de2e3c66&#45;&gt;dir_f7b006e91d0dca03ab8c40dbc00ee65e</title>
<g id="a_edge22"><a xlink:href="dir_000006_000013.html" target="_top">
<path fill="none" stroke="#63b8ff" d="M115.54,-236.65C99.94,-226.61 76.69,-210.52 72,-201 46.86,-149.94 61.32,-79.88 70.79,-46.23"/>
<polygon fill="#63b8ff" stroke="#63b8ff" points="74.03,-47.61 73.54,-37.03 67.33,-45.61 74.03,-47.61"/>
</a>
</g>
<g id="a_edge22&#45;headlabel"><a xlink:href="dir_000006_000013.html" target="_top" xlink:title="2">
<text xml:space="preserve" text-anchor="middle" x="76.16" y="-46.55" font-family="Helvetica,sans-Serif" font-size="10.00" fill="#63b8ff">2</text>
</a>
</g>
</g>
<!-- dir_f14b33441b8f3c4a1a213ba2de2e3c66&#45;&gt;dir_2c5b7fd6b972088aa6b0c8b33452cfb2 -->
<g id="edge18" class="edge">
<title>dir_f14b33441b8f3c4a1a213ba2de2e3c66&#45;&gt;dir_2c5b7fd6b972088aa6b0c8b33452cfb2</title>
<g id="a_edge18"><a xlink:href="dir_000006_000000.html" target="_top">
<path fill="none" stroke="#63b8ff" d="M131.87,-236.81C134.62,-224.36 140.17,-201 147,-181.75 150.01,-173.26 153.96,-164.13 157.56,-156.36"/>
<polygon fill="#63b8ff" stroke="#63b8ff" points="160.62,-158.08 161.77,-147.54 154.3,-155.06 160.62,-158.08"/>
</a>
</g>
<g id="a_edge18&#45;headlabel"><a xlink:href="dir_000006_000000.html" target="_top" xlink:title="1">
<text xml:space="preserve" text-anchor="middle" x="162.29" y="-157.3" font-family="Helvetica,sans-Serif" font-size="10.00" fill="#63b8ff">1</text>
</a>
</g>
</g>
<!-- dir_f14b33441b8f3c4a1a213ba2de2e3c66&#45;&gt;dir_768b474e02849cb20a8de3864ffdf8c9 -->
<g id="edge20" class="edge">
<title>dir_f14b33441b8f3c4a1a213ba2de2e3c66&#45;&gt;dir_768b474e02849cb20a8de3864ffdf8c9</title>
<g id="a_edge20"><a xlink:href="dir_000006_000003.html" target="_top">
<path fill="none" stroke="#63b8ff" d="M137.93,-236.83C144.56,-229.48 154.22,-218.76 162.39,-209.69"/>
<polygon fill="#63b8ff" stroke="#63b8ff" points="164.79,-212.25 168.89,-202.48 159.59,-207.57 164.79,-212.25"/>
</a>
</g>
<g id="a_edge20&#45;headlabel"><a xlink:href="dir_000006_000003.html" target="_top" xlink:title="1">
<text xml:space="preserve" text-anchor="middle" x="165.51" y="-211.83" font-family="Helvetica,sans-Serif" font-size="10.00" fill="#63b8ff">1</text>
</a>
</g>
</g>
<!-- dir_f14b33441b8f3c4a1a213ba2de2e3c66&#45;&gt;dir_42a4622eeadeb301e554ade53994b57b -->
<g id="edge19" class="edge">
<title>dir_f14b33441b8f3c4a1a213ba2de2e3c66&#45;&gt;dir_42a4622eeadeb301e554ade53994b57b</title>
<g id="a_edge19"><a xlink:href="dir_000006_000008.html" target="_top">
<path fill="none" stroke="#63b8ff" d="M129.53,-236.73C128.73,-216.62 128.19,-166.29 140,-126.5 142.65,-117.56 147.23,-108.37 151.67,-100.67"/>
<polygon fill="#63b8ff" stroke="#63b8ff" points="154.6,-102.6 156.87,-92.25 148.64,-98.92 154.6,-102.6"/>
</a>
</g>
<g id="a_edge19&#45;headlabel"><a xlink:href="dir_000006_000008.html" target="_top" xlink:title="3">
<text xml:space="preserve" text-anchor="middle" x="155.92" y="-101.98" font-family="Helvetica,sans-Serif" font-size="10.00" fill="#63b8ff">3</text>
</a>
</g>
</g>
<!-- dir_42a4622eeadeb301e554ade53994b57b&#45;&gt;dir_c184e51c84f2c3f0345bbc8a0d75d3e1 -->
<g id="edge23" class="edge">
<title>dir_42a4622eeadeb301e554ade53994b57b&#45;&gt;dir_c184e51c84f2c3f0345bbc8a0d75d3e1</title>
<g id="a_edge23"><a xlink:href="dir_000008_000009.html" target="_top">
<path fill="none" stroke="#63b8ff" d="M175.46,-71.06C179.07,-68.42 183.13,-65.61 187,-63.25 202.11,-54.02 219.83,-44.99 233.91,-38.2"/>
<polygon fill="#63b8ff" stroke="#63b8ff" points="235.39,-41.37 242.93,-33.93 232.39,-35.05 235.39,-41.37"/>
</a>
</g>
<g id="a_edge23&#45;headlabel"><a xlink:href="dir_000008_000009.html" target="_top" xlink:title="5">
<text xml:space="preserve" text-anchor="middle" x="234.73" y="-40.95" font-family="Helvetica,sans-Serif" font-size="10.00" fill="#63b8ff">5</text>
</a>
</g>
</g>
<!-- dir_42a4622eeadeb301e554ade53994b57b&#45;&gt;dir_f7b006e91d0dca03ab8c40dbc00ee65e -->
<g id="edge24" class="edge">
<title>dir_42a4622eeadeb301e554ade53994b57b&#45;&gt;dir_f7b006e91d0dca03ab8c40dbc00ee65e</title>
<g id="a_edge24"><a xlink:href="dir_000008_000013.html" target="_top">
<path fill="none" stroke="#63b8ff" d="M151.99,-70.83C148.5,-68.3 144.64,-65.6 141,-63.25 129.06,-55.55 115.44,-47.64 103.84,-41.15"/>
<polygon fill="#63b8ff" stroke="#63b8ff" points="105.63,-38.14 95.19,-36.37 102.25,-44.27 105.63,-38.14"/>
</a>
</g>
<g id="a_edge24&#45;headlabel"><a xlink:href="dir_000008_000013.html" target="_top" xlink:title="5">
<text xml:space="preserve" text-anchor="middle" x="108.83" y="-32.79" font-family="Helvetica,sans-Serif" font-size="10.00" fill="#63b8ff">5</text>
</a>
</g>
</g>
<!-- dir_f7e250f2dab84b749f9aab45f742d0c7&#45;&gt;dir_c184e51c84f2c3f0345bbc8a0d75d3e1 -->
<g id="edge26" class="edge">
<title>dir_f7e250f2dab84b749f9aab45f742d0c7&#45;&gt;dir_c184e51c84f2c3f0345bbc8a0d75d3e1</title>
<g id="a_edge26"><a xlink:href="dir_000010_000009.html" target="_top">
<path fill="none" stroke="#63b8ff" d="M233.91,-236.71C244.24,-228.71 257.96,-215.97 264,-201 285.2,-148.45 272.74,-79.57 264.5,-46.3"/>
<polygon fill="#63b8ff" stroke="#63b8ff" points="267.94,-45.64 262.01,-36.86 261.18,-47.43 267.94,-45.64"/>
</a>
</g>
<g id="a_edge26&#45;headlabel"><a xlink:href="dir_000010_000009.html" target="_top" xlink:title="2">
<text xml:space="preserve" text-anchor="middle" x="271.22" y="-43.06" font-family="Helvetica,sans-Serif" font-size="10.00" fill="#63b8ff">2</text>
</a>
</g>
</g>
<!-- dir_f7e250f2dab84b749f9aab45f742d0c7&#45;&gt;dir_f7b006e91d0dca03ab8c40dbc00ee65e -->
<g id="edge27" class="edge">
<title>dir_f7e250f2dab84b749f9aab45f742d0c7&#45;&gt;dir_f7b006e91d0dca03ab8c40dbc00ee65e</title>
<g id="a_edge27"><a xlink:href="dir_000010_000013.html" target="_top">
<path fill="none" stroke="#63b8ff" d="M202.06,-237.7C185.84,-230.17 162.7,-217.54 147,-201 108.67,-160.62 106.07,-143.16 88,-90.5 83.13,-76.29 80.34,-59.53 78.8,-46.74"/>
<polygon fill="#63b8ff" stroke="#63b8ff" points="82.3,-46.61 77.79,-37.03 75.34,-47.34 82.3,-46.61"/>
</a>
</g>
<g id="a_edge27&#45;headlabel"><a xlink:href="dir_000010_000013.html" target="_top" xlink:title="1">
<text xml:space="preserve" text-anchor="middle" x="85.34" y="-44.52" font-family="Helvetica,sans-Serif" font-size="10.00" fill="#63b8ff">1</text>
</a>
</g>
</g>
<!-- dir_f7e250f2dab84b749f9aab45f742d0c7&#45;&gt;dir_2c5b7fd6b972088aa6b0c8b33452cfb2 -->
<g id="edge25" class="edge">
<title>dir_f7e250f2dab84b749f9aab45f742d0c7&#45;&gt;dir_2c5b7fd6b972088aa6b0c8b33452cfb2</title>
<g id="a_edge25"><a xlink:href="dir_000010_000000.html" target="_top">
<path fill="none" stroke="#63b8ff" d="M223.95,-236.83C227.71,-224 232.75,-199.71 224,-181.75 217.97,-169.38 206.68,-159.43 195.72,-152.09"/>
<polygon fill="#63b8ff" stroke="#63b8ff" points="197.56,-149.11 187.2,-146.88 193.91,-155.08 197.56,-149.11"/>
</a>
</g>
<g id="a_edge25&#45;headlabel"><a xlink:href="dir_000010_000000.html" target="_top" xlink:title="1">
<text xml:space="preserve" text-anchor="middle" x="200.82" y="-143.9" font-family="Helvetica,sans-Serif" font-size="10.00" fill="#63b8ff">1</text>
</a>
</g>
</g>
</g>
</svg>
</svg>

<style type='text/css'>
<![CDATA[
[data-mouse-over-selected='false'] { opacity: 0.7; }
[data-mouse-over-selected='true']  { opacity: 1.0; }
]]>
</style>
<script type="application/ecmascript"><![CDATA[
document.addEventListener('DOMContentLoaded', (event) => {
  highlightEdges();
  highlightAdjacentNodes();
});
]]></script>
</svg>
