<?xml version="1.0" encoding="UTF-8" standalone="no"?>
<!DOCTYPE svg PUBLIC "-//W3C//DTD SVG 1.1//EN"
 "http://www.w3.org/Graphics/SVG/1.1/DTD/svg11.dtd">
<!-- Generated by graphviz version 13.1.0 (20250701.0955)
 -->
<!-- Title: SWMR Pages: 1 -->
<svg width="275pt" height="216pt"
 viewBox="0.00 0.00 275.00 216.00" xmlns="http://www.w3.org/2000/svg" xmlns:xlink="http://www.w3.org/1999/xlink">

<svg id="main" version="1.1" xmlns="http://www.w3.org/2000/svg" xmlns:xlink="http://www.w3.org/1999/xlink" xml:space="preserve">

<style type="text/css"><![CDATA[
.node, .edge {opacity: 0.7;}
.node.selected, .edge.selected {opacity: 1;}
.edge:hover path { stroke: red; }
.edge:hover polygon { stroke: red; fill: red; }
]]></style>
<script type="application/ecmascript" xlink:href="svg.min.js"/>
<svg id="graph" class="graph">
<g id="graph0" class="graph" transform="scale(0.804469 0.804469) rotate(0) translate(4 264.5)">
<title>SWMR</title>
<polygon fill="white" stroke="none" points="-4,4 -4,-264.5 337.25,-264.5 337.25,4 -4,4"/>
<!-- writer -->
<g id="node1" class="node">
<title>writer</title>
<g id="a_node1"><a xlink:href="class_a_q_n_w_b_1_1_i_o_1_1_h_d_f5_1_1_h_d_f5_i_o.html" target="_top" xlink:title="AqNWB HDF5IO\n(SWMR Write)">
<polygon fill="lightblue" stroke="black" points="224.88,-260.5 108.38,-260.5 108.38,-219.5 224.88,-219.5 224.88,-260.5"/>
<text xml:space="preserve" text-anchor="middle" x="166.62" y="-243.2" font-family="Times,serif" font-size="14.00">AqNWB HDF5IO</text>
<text xml:space="preserve" text-anchor="middle" x="166.62" y="-226.7" font-family="Times,serif" font-size="14.00">(SWMR Write)</text>
</a>
</g>
</g>
<!-- hdf5_file -->
<g id="node2" class="node">
<title>hdf5_file</title>
<g id="a_node2"><a xlink:href="class_a_q_n_w_b_1_1_n_w_b_1_1_n_w_b_file.html" target="_top" xlink:title="\n.nwb\n(HDF5 File)\n ">
<polygon fill="lightgray" stroke="black" points="208.38,-167 205.38,-171 184.38,-171 181.38,-167 124.88,-167 124.88,-93.5 208.38,-93.5 208.38,-167"/>
<text xml:space="preserve" text-anchor="middle" x="166.62" y="-133.7" font-family="Times,serif" font-size="14.00">.nwb</text>
<text xml:space="preserve" text-anchor="middle" x="166.62" y="-117.2" font-family="Times,serif" font-size="14.00">(HDF5 File)</text>
<text xml:space="preserve" text-anchor="middle" x="166.62" y="-100.7" font-family="Times,serif" font-size="14.00"> </text>
</a>
</g>
</g>
<!-- writer&#45;&gt;hdf5_file -->
<g id="edge1" class="edge">
<title>writer&#45;&gt;hdf5_file</title>
<path fill="none" stroke="black" d="M166.62,-219.24C166.62,-207.83 166.62,-192.95 166.62,-178.68"/>
<polygon fill="black" stroke="black" points="170.13,-178.97 166.63,-168.97 163.13,-178.97 170.13,-178.97"/>
<text xml:space="preserve" text-anchor="middle" x="182" y="-188.2" font-family="Times,serif" font-size="14.00">Write</text>
</g>
<!-- reader1 -->
<g id="node3" class="node">
<title>reader1</title>
<g id="a_node3"><a xlink:href="hdf5io.html#hdf5io_swmr_read" target="_top" xlink:title="Reader 1\n(SWMR Read)">
<polygon fill="lightgreen" stroke="black" points="99.25,-41 0,-41 0,0 99.25,0 99.25,-41"/>
<text xml:space="preserve" text-anchor="middle" x="49.62" y="-23.7" font-family="Times,serif" font-size="14.00">Reader 1</text>
<text xml:space="preserve" text-anchor="middle" x="49.62" y="-7.2" font-family="Times,serif" font-size="14.00">(SWMR Read)</text>
</a>
</g>
</g>
<!-- reader1&#45;&gt;hdf5_file -->
<g id="edge2" class="edge">
<title>reader1&#45;&gt;hdf5_file</title>
<path fill="none" stroke="black" d="M71.25,-41.42C84.74,-53.84 102.64,-70.33 119.29,-85.66"/>
<polygon fill="black" stroke="black" points="116.5,-87.85 126.23,-92.05 121.24,-82.7 116.5,-87.85"/>
<text xml:space="preserve" text-anchor="middle" x="122" y="-62.2" font-family="Times,serif" font-size="14.00">Read</text>
</g>
<!-- reader2 -->
<g id="node4" class="node">
<title>reader2</title>
<g id="a_node4"><a xlink:href="hdf5io.html#hdf5io_swmr_read" target="_top" xlink:title="Reader 2\n(SWMR Read)">
<polygon fill="lightgreen" stroke="black" points="216.25,-41 117,-41 117,0 216.25,0 216.25,-41"/>
<text xml:space="preserve" text-anchor="middle" x="166.62" y="-23.7" font-family="Times,serif" font-size="14.00">Reader 2</text>
<text xml:space="preserve" text-anchor="middle" x="166.62" y="-7.2" font-family="Times,serif" font-size="14.00">(SWMR Read)</text>
</a>
</g>
</g>
<!-- reader2&#45;&gt;hdf5_file -->
<g id="edge3" class="edge">
<title>reader2&#45;&gt;hdf5_file</title>
<path fill="none" stroke="black" d="M166.62,-41.42C166.62,-52.82 166.62,-67.65 166.62,-81.87"/>
<polygon fill="black" stroke="black" points="163.13,-81.56 166.63,-91.56 170.13,-81.56 163.13,-81.56"/>
<text xml:space="preserve" text-anchor="middle" x="180.5" y="-62.2" font-family="Times,serif" font-size="14.00">Read</text>
</g>
<!-- reader3 -->
<g id="node5" class="node">
<title>reader3</title>
<g id="a_node5"><a xlink:href="hdf5io.html#hdf5io_swmr_read" target="_top" xlink:title="Reader 3\n(SWMR Read)">
<polygon fill="lightgreen" stroke="black" points="333.25,-41 234,-41 234,0 333.25,0 333.25,-41"/>
<text xml:space="preserve" text-anchor="middle" x="283.62" y="-23.7" font-family="Times,serif" font-size="14.00">Reader 3</text>
<text xml:space="preserve" text-anchor="middle" x="283.62" y="-7.2" font-family="Times,serif" font-size="14.00">(SWMR Read)</text>
</a>
</g>
</g>
<!-- reader3&#45;&gt;hdf5_file -->
<g id="edge4" class="edge">
<title>reader3&#45;&gt;hdf5_file</title>
<path fill="none" stroke="black" d="M262,-41.42C248.51,-53.84 230.61,-70.33 213.96,-85.66"/>
<polygon fill="black" stroke="black" points="212.01,-82.7 207.02,-92.05 216.75,-87.85 212.01,-82.7"/>
<text xml:space="preserve" text-anchor="middle" x="256.32" y="-62.2" font-family="Times,serif" font-size="14.00">Read</text>
</g>
</g>
</svg>
</svg>

<style type='text/css'>
<![CDATA[
[data-mouse-over-selected='false'] { opacity: 0.7; }
[data-mouse-over-selected='true']  { opacity: 1.0; }
]]>
</style>
<script type="application/ecmascript"><![CDATA[
document.addEventListener('DOMContentLoaded', (event) => {
  highlightEdges();
  highlightAdjacentNodes();
});
]]></script>
</svg>
