<?xml version="1.0" encoding="UTF-8" standalone="no"?>
<!DOCTYPE svg PUBLIC "-//W3C//DTD SVG 1.1//EN"
 "http://www.w3.org/Graphics/SVG/1.1/DTD/svg11.dtd">
<!-- Generated by graphviz version 14.1.2 (20260124.0452)
 -->
<!-- Title: G Pages: 1 -->
<svg width="473pt" height="821pt"
 viewBox="0.00 0.00 473.00 821.00" xmlns="http://www.w3.org/2000/svg" xmlns:xlink="http://www.w3.org/1999/xlink">
<g id="graph0" class="graph" transform="scale(1 1) rotate(0) translate(4 817)">
<title>G</title>
<polygon fill="white" stroke="none" points="-4,4 -4,-817 469.06,-817 469.06,4 -4,4"/>
<!-- HDF5IO -->
<g id="node1" class="node">
<title>HDF5IO</title>
<polygon fill="lightgray" stroke="none" points="8,-205 8,-227.5 342.5,-227.5 342.5,-205 8,-205"/>
<polygon fill="none" stroke="black" points="8,-205 8,-227.5 342.5,-227.5 342.5,-205 8,-205"/>
<text xml:space="preserve" text-anchor="start" x="149" y="-212.2" font-family="Times,serif" font-weight="bold" font-size="14.00">HDF5IO</text>
<polygon fill="lightgray" stroke="none" points="8,-182.5 8,-205 342.5,-205 342.5,-182.5 8,-182.5"/>
<polygon fill="none" stroke="black" points="8,-182.5 8,-205 342.5,-205 342.5,-182.5 8,-182.5"/>
<text xml:space="preserve" text-anchor="start" x="146.75" y="-189.7" font-family="Times,serif" font-weight="bold" font-size="14.00">Functions</text>
<polygon fill="none" stroke="black" points="8,-160 8,-182.5 342.5,-182.5 342.5,-160 8,-160"/>
<text xml:space="preserve" text-anchor="start" x="11" y="-166.2" font-family="Times,serif" font-size="14.00">+ createArrayDataSet(): BaseRecordingData</text>
<polygon fill="none" stroke="black" points="8,-137.5 8,-160 342.5,-160 342.5,-137.5 8,-137.5"/>
<text xml:space="preserve" text-anchor="start" x="11" y="-143.7" font-family="Times,serif" font-size="14.00">+ getDataSet(): BaseRecordingData</text>
<polygon fill="lightgray" stroke="none" points="8,-115 8,-137.5 342.5,-137.5 342.5,-115 8,-115"/>
<polygon fill="none" stroke="black" points="8,-115 8,-137.5 342.5,-137.5 342.5,-115 8,-115"/>
<text xml:space="preserve" text-anchor="start" x="145.62" y="-122.2" font-family="Times,serif" font-weight="bold" font-size="14.00">Attributes</text>
<polygon fill="none" stroke="black" points="8,-92.5 8,-115 342.5,-115 342.5,-92.5 8,-92.5"/>
<text xml:space="preserve" text-anchor="start" x="11" y="-98.7" font-family="Times,serif" font-size="14.00">&#45; m_recording_objects: &#160;std::shared_ptr&lt;RecordingObjects&gt;</text>
</g>
<!-- NWBFile -->
<g id="node2" class="node">
<title>NWBFile</title>
<polygon fill="none" stroke="black" points="227.5,-36 117,-36 117,0 233.5,0 233.5,-30 227.5,-36"/>
<polyline fill="none" stroke="black" points="227.5,-36 227.5,-30"/>
<polyline fill="none" stroke="black" points="233.5,-30 227.5,-30"/>
<text xml:space="preserve" text-anchor="middle" x="175.25" y="-12.95" font-family="Times,serif" font-size="14.00">NWB file (HDF5)</text>
</g>
<!-- HDF5IO&#45;&gt;NWBFile -->
<g id="edge5" class="edge">
<title>HDF5IO&#45;&gt;NWBFile</title>
<path fill="none" stroke="black" d="M175.25,-88.59C175.25,-74.14 175.25,-59.71 175.25,-47.76"/>
<polygon fill="black" stroke="black" points="178.75,-47.84 175.25,-37.84 171.75,-47.84 178.75,-47.84"/>
<text xml:space="preserve" text-anchor="middle" x="202.25" y="-57.2" font-family="Times,serif" font-size="14.00">write data</text>
</g>
<!-- BaseRecordingData -->
<g id="node3" class="node">
<title>BaseRecordingData</title>
<polygon fill="lightgray" stroke="none" points="65.38,-439.5 65.38,-462 285.12,-462 285.12,-439.5 65.38,-439.5"/>
<polygon fill="none" stroke="black" points="65.38,-439.5 65.38,-462 285.12,-462 285.12,-439.5 65.38,-439.5"/>
<text xml:space="preserve" text-anchor="start" x="117.88" y="-446.7" font-family="Times,serif" font-weight="bold" font-size="14.00">BaseRecordingData</text>
<polygon fill="lightgray" stroke="none" points="65.38,-417 65.38,-439.5 285.12,-439.5 285.12,-417 65.38,-417"/>
<polygon fill="none" stroke="black" points="65.38,-417 65.38,-439.5 285.12,-439.5 285.12,-417 65.38,-417"/>
<text xml:space="preserve" text-anchor="start" x="146.75" y="-424.2" font-family="Times,serif" font-weight="bold" font-size="14.00">Functions</text>
<polygon fill="none" stroke="black" points="65.38,-394.5 65.38,-417 285.12,-417 285.12,-394.5 65.38,-394.5"/>
<text xml:space="preserve" text-anchor="start" x="68.38" y="-400.7" font-family="Times,serif" font-size="14.00">+ writeDataBlock(): Status</text>
<polygon fill="none" stroke="black" points="65.38,-372 65.38,-394.5 285.12,-394.5 285.12,-372 65.38,-372"/>
<text xml:space="preserve" text-anchor="start" x="68.38" y="-378.2" font-family="Times,serif" font-size="14.00">+ getPosition(): std::vector&lt;SizeType&gt;</text>
<polygon fill="lightgray" stroke="none" points="65.38,-349.5 65.38,-372 285.12,-372 285.12,-349.5 65.38,-349.5"/>
<polygon fill="none" stroke="black" points="65.38,-349.5 65.38,-372 285.12,-372 285.12,-349.5 65.38,-349.5"/>
<text xml:space="preserve" text-anchor="start" x="145.62" y="-356.7" font-family="Times,serif" font-weight="bold" font-size="14.00">Attributes</text>
<polygon fill="none" stroke="black" points="65.38,-327 65.38,-349.5 285.12,-349.5 285.12,-327 65.38,-327"/>
<text xml:space="preserve" text-anchor="start" x="68.38" y="-333.2" font-family="Times,serif" font-size="14.00">+ m_position: std::vector&lt;SizeType&gt;</text>
<polygon fill="none" stroke="black" points="65.38,-304.5 65.38,-327 285.12,-327 285.12,-304.5 65.38,-304.5"/>
<text xml:space="preserve" text-anchor="start" x="68.38" y="-310.7" font-family="Times,serif" font-size="14.00">+ m_shape: std::vector&lt;SizeType&gt;</text>
</g>
<!-- BaseRecordingData&#45;&gt;HDF5IO -->
<g id="edge4" class="edge">
<title>BaseRecordingData&#45;&gt;HDF5IO</title>
<path fill="none" stroke="black" d="M175.25,-300.81C175.25,-281.84 175.25,-261.64 175.25,-242.67"/>
<polygon fill="black" stroke="black" points="178.75,-242.86 175.25,-232.86 171.75,-242.86 178.75,-242.86"/>
<text xml:space="preserve" text-anchor="middle" x="207.88" y="-269.2" font-family="Times,serif" font-size="14.00">uses for</text>
<text xml:space="preserve" text-anchor="middle" x="207.88" y="-252.7" font-family="Times,serif" font-size="14.00">writing data</text>
</g>
<!-- RegisteredType -->
<g id="node4" class="node">
<title>RegisteredType</title>
<polygon fill="lightgray" stroke="none" points="39.62,-786.5 39.62,-809 302.88,-809 302.88,-786.5 39.62,-786.5"/>
<polygon fill="none" stroke="black" points="39.62,-786.5 39.62,-809 302.88,-809 302.88,-786.5 39.62,-786.5"/>
<text xml:space="preserve" text-anchor="start" x="125.88" y="-793.7" font-family="Times,serif" font-weight="bold" font-size="14.00">RegisteredType</text>
<polygon fill="lightgray" stroke="none" points="39.62,-764 39.62,-786.5 302.88,-786.5 302.88,-764 39.62,-764"/>
<polygon fill="none" stroke="black" points="39.62,-764 39.62,-786.5 302.88,-786.5 302.88,-764 39.62,-764"/>
<text xml:space="preserve" text-anchor="start" x="142.75" y="-771.2" font-family="Times,serif" font-weight="bold" font-size="14.00">Functions</text>
<polygon fill="none" stroke="black" points="39.62,-741.5 39.62,-764 302.88,-764 302.88,-741.5 39.62,-741.5"/>
<text xml:space="preserve" text-anchor="start" x="42.62" y="-747.7" font-family="Times,serif" font-size="14.00">+ clearRecordingDataCache(): void</text>
<polygon fill="lightgray" stroke="none" points="39.62,-719 39.62,-741.5 302.88,-741.5 302.88,-719 39.62,-719"/>
<polygon fill="none" stroke="black" points="39.62,-719 39.62,-741.5 302.88,-741.5 302.88,-719 39.62,-719"/>
<text xml:space="preserve" text-anchor="start" x="141.62" y="-726.2" font-family="Times,serif" font-weight="bold" font-size="14.00">Attributes</text>
<polygon fill="none" stroke="black" points="39.62,-696.5 39.62,-719 302.88,-719 302.88,-696.5 39.62,-696.5"/>
<text xml:space="preserve" text-anchor="start" x="42.62" y="-702.7" font-family="Times,serif" font-size="14.00">+ m_recordingDataCache: std::unordered_map</text>
<polygon fill="none" stroke="black" points="39.62,-674 39.62,-696.5 302.88,-696.5 302.88,-674 39.62,-674"/>
<text xml:space="preserve" text-anchor="start" x="42.62" y="-680.2" font-family="Times,serif" font-size="14.00">+ m_io: std::shared_ptr&lt;BaseIO&gt;</text>
<polygon fill="none" stroke="black" points="39.62,-651.5 39.62,-674 302.88,-674 302.88,-651.5 39.62,-651.5"/>
<text xml:space="preserve" text-anchor="start" x="42.62" y="-657.7" font-family="Times,serif" font-size="14.00">+ m_path: std::string</text>
</g>
<!-- RegisteredType&#45;&gt;BaseRecordingData -->
<g id="edge3" class="edge">
<title>RegisteredType&#45;&gt;BaseRecordingData</title>
<path fill="none" stroke="black" d="M168.92,-647.81C168.64,-635.31 168.4,-622.56 168.25,-610.5 167.83,-576.95 167.47,-568.55 168.25,-535 168.68,-516.37 169.42,-496.45 170.25,-477.4"/>
<polygon fill="black" stroke="black" points="173.74,-477.64 170.69,-467.5 166.75,-477.33 173.74,-477.64"/>
<text xml:space="preserve" text-anchor="middle" x="186.25" y="-567.7" font-family="Times,serif" font-size="14.00">caches</text>
</g>
<!-- Container -->
<g id="node5" class="node">
<title>Container</title>
<polygon fill="lightgray" stroke="none" points="221.5,-584 221.5,-606.5 445,-606.5 445,-584 221.5,-584"/>
<polygon fill="none" stroke="black" points="221.5,-584 221.5,-606.5 445,-606.5 445,-584 221.5,-584"/>
<text xml:space="preserve" text-anchor="start" x="304" y="-591.2" font-family="Times,serif" font-weight="bold" font-size="14.00">Container</text>
<polygon fill="lightgray" stroke="none" points="221.5,-561.5 221.5,-584 445,-584 445,-561.5 221.5,-561.5"/>
<polygon fill="none" stroke="black" points="221.5,-561.5 221.5,-584 445,-584 445,-561.5 221.5,-561.5"/>
<text xml:space="preserve" text-anchor="start" x="304.75" y="-568.7" font-family="Times,serif" font-weight="bold" font-size="14.00">Functions</text>
<polygon fill="none" stroke="black" points="221.5,-539 221.5,-561.5 445,-561.5 445,-539 221.5,-539"/>
<text xml:space="preserve" text-anchor="start" x="224.5" y="-545.2" font-family="Times,serif" font-size="14.00">+ writeDataField(): BaseRecordingData</text>
</g>
<!-- RegisteredType&#45;&gt;Container -->
<g id="edge1" class="edge">
<title>RegisteredType&#45;&gt;Container</title>
<path fill="none" stroke="black" stroke-dasharray="5,2" d="M256.05,-647.86C266.81,-637.52 277.49,-627.28 287.31,-617.85"/>
<polygon fill="none" stroke="black" points="289.46,-620.63 294.25,-611.18 284.61,-615.58 289.46,-620.63"/>
</g>
<!-- Container&#45;&gt;BaseRecordingData -->
<g id="edge2" class="edge">
<title>Container&#45;&gt;BaseRecordingData</title>
<path fill="none" stroke="black" d="M302.41,-535.15C287.66,-517.65 269.3,-495.86 251.15,-474.32"/>
<polygon fill="black" stroke="black" points="254.04,-472.32 244.92,-466.93 248.69,-476.83 254.04,-472.32"/>
<text xml:space="preserve" text-anchor="middle" x="375.81" y="-503.7" font-family="Times,serif" font-size="14.00">created by functions defined via </text>
<text xml:space="preserve" text-anchor="middle" x="375.81" y="-487.2" font-family="Times,serif" font-size="14.00">DEFINE_DATASET_FIELD</text>
</g>
</g>
</svg>
