<?xml version="1.0" encoding="UTF-8" standalone="no"?>
<!DOCTYPE svg PUBLIC "-//W3C//DTD SVG 1.1//EN"
 "http://www.w3.org/Graphics/SVG/1.1/DTD/svg11.dtd">
<!-- Generated by graphviz version 2.43.0 (0)
 -->
<!-- Title: src/nwb/hdmf/table/DynamicTable.hpp Pages: 1 -->
<svg width="477pt" height="173pt"
 viewBox="0.00 0.00 476.50 173.00" xmlns="http://www.w3.org/2000/svg" xmlns:xlink="http://www.w3.org/1999/xlink">
<g id="graph0" class="graph" transform="scale(1 1) rotate(0) translate(4 169)">
<title>src/nwb/hdmf/table/DynamicTable.hpp</title>
<polygon fill="white" stroke="transparent" points="-4,4 -4,-169 472.5,-169 472.5,4 -4,4"/>
<!-- Node1 -->
<g id="node1" class="node">
<title>Node1</title>
<g id="a_node1"><a xlink:title=" ">
<polygon fill="#bfbfbf" stroke="black" points="271,-134.5 271,-164.5 381,-164.5 381,-134.5 271,-134.5"/>
<text text-anchor="start" x="279" y="-152.5" font-family="Helvetica,sans-Serif" font-size="10.00">src/nwb/hdmf/table</text>
<text text-anchor="middle" x="326" y="-141.5" font-family="Helvetica,sans-Serif" font-size="10.00">/DynamicTable.hpp</text>
</a>
</g>
</g>
<!-- Node2 -->
<g id="node2" class="node">
<title>Node2</title>
<g id="a_node2"><a xlink:href="ElectrodeTable_8hpp.html" target="_top" xlink:title=" ">
<polygon fill="white" stroke="black" points="164.5,-73 164.5,-92 331.5,-92 331.5,-73 164.5,-73"/>
<text text-anchor="middle" x="248" y="-80" font-family="Helvetica,sans-Serif" font-size="10.00">src/nwb/file/ElectrodeTable.hpp</text>
</a>
</g>
</g>
<!-- Node1&#45;&gt;Node2 -->
<g id="edge1" class="edge">
<title>Node1&#45;&gt;Node2</title>
<path fill="none" stroke="midnightblue" d="M301.01,-127.67C286.6,-115.67 269.26,-101.22 258.43,-92.19"/>
<polygon fill="midnightblue" stroke="midnightblue" points="299.15,-130.68 309.08,-134.4 303.63,-125.31 299.15,-130.68"/>
</g>
<!-- Node6 -->
<g id="node6" class="node">
<title>Node6</title>
<g id="a_node6"><a xlink:href="DynamicTable_8cpp.html" target="_top" xlink:title=" ">
<polygon fill="white" stroke="black" points="350,-67.5 350,-97.5 460,-97.5 460,-67.5 350,-67.5"/>
<text text-anchor="start" x="358" y="-85.5" font-family="Helvetica,sans-Serif" font-size="10.00">src/nwb/hdmf/table</text>
<text text-anchor="middle" x="405" y="-74.5" font-family="Helvetica,sans-Serif" font-size="10.00">/DynamicTable.cpp</text>
</a>
</g>
</g>
<!-- Node1&#45;&gt;Node6 -->
<g id="edge5" class="edge">
<title>Node1&#45;&gt;Node6</title>
<path fill="none" stroke="midnightblue" d="M351.06,-127.88C363.06,-118.01 377.13,-106.43 387.89,-97.58"/>
<polygon fill="midnightblue" stroke="midnightblue" points="348.64,-125.34 343.14,-134.4 353.09,-130.75 348.64,-125.34"/>
</g>
<!-- Node3 -->
<g id="node3" class="node">
<title>Node3</title>
<g id="a_node3"><a xlink:href="ElectricalSeries_8cpp.html" target="_top" xlink:title=" ">
<polygon fill="white" stroke="black" points="0,-0.5 0,-30.5 146,-30.5 146,-0.5 0,-0.5"/>
<text text-anchor="start" x="8" y="-18.5" font-family="Helvetica,sans-Serif" font-size="10.00">src/nwb/ecephys/Electrical</text>
<text text-anchor="middle" x="73" y="-7.5" font-family="Helvetica,sans-Serif" font-size="10.00">Series.cpp</text>
</a>
</g>
</g>
<!-- Node2&#45;&gt;Node3 -->
<g id="edge2" class="edge">
<title>Node2&#45;&gt;Node3</title>
<path fill="none" stroke="midnightblue" d="M215.28,-69.35C185.62,-58.33 141.9,-42.09 110.77,-30.53"/>
<polygon fill="midnightblue" stroke="midnightblue" points="214.17,-72.67 224.76,-72.87 216.61,-66.11 214.17,-72.67"/>
</g>
<!-- Node4 -->
<g id="node4" class="node">
<title>Node4</title>
<g id="a_node4"><a xlink:href="ElectrodeTable_8cpp.html" target="_top" xlink:title=" ">
<polygon fill="white" stroke="black" points="164.5,-6 164.5,-25 331.5,-25 331.5,-6 164.5,-6"/>
<text text-anchor="middle" x="248" y="-13" font-family="Helvetica,sans-Serif" font-size="10.00">src/nwb/file/ElectrodeTable.cpp</text>
</a>
</g>
</g>
<!-- Node2&#45;&gt;Node4 -->
<g id="edge3" class="edge">
<title>Node2&#45;&gt;Node4</title>
<path fill="none" stroke="midnightblue" d="M248,-62.54C248,-50.17 248,-34.62 248,-25.13"/>
<polygon fill="midnightblue" stroke="midnightblue" points="244.5,-62.73 248,-72.73 251.5,-62.73 244.5,-62.73"/>
</g>
<!-- Node5 -->
<g id="node5" class="node">
<title>Node5</title>
<g id="a_node5"><a xlink:href="NWBFile_8cpp.html" target="_top" xlink:title=" ">
<polygon fill="white" stroke="black" points="349.5,-6 349.5,-25 468.5,-25 468.5,-6 349.5,-6"/>
<text text-anchor="middle" x="409" y="-13" font-family="Helvetica,sans-Serif" font-size="10.00">src/nwb/NWBFile.cpp</text>
</a>
</g>
</g>
<!-- Node2&#45;&gt;Node5 -->
<g id="edge4" class="edge">
<title>Node2&#45;&gt;Node5</title>
<path fill="none" stroke="midnightblue" d="M278.7,-69.1C310.67,-56.2 359.89,-36.33 387.79,-25.06"/>
<polygon fill="midnightblue" stroke="midnightblue" points="277.34,-65.88 269.38,-72.87 279.96,-72.37 277.34,-65.88"/>
</g>
</g>
</svg>
