<?xml version="1.0" encoding="UTF-8" standalone="no"?>
<!DOCTYPE svg PUBLIC "-//W3C//DTD SVG 1.1//EN"
 "http://www.w3.org/Graphics/SVG/1.1/DTD/svg11.dtd">
<!-- Generated by graphviz version 2.43.0 (0)
 -->
<!-- Title: src/nwb/file/ElectrodeGroup.cpp Pages: 1 -->
<svg width="413pt" height="364pt"
 viewBox="0.00 0.00 413.42 364.00" xmlns="http://www.w3.org/2000/svg" xmlns:xlink="http://www.w3.org/1999/xlink">
<g id="graph0" class="graph" transform="scale(1 1) rotate(0) translate(4 360)">
<title>src/nwb/file/ElectrodeGroup.cpp</title>
<polygon fill="white" stroke="transparent" points="-4,4 -4,-360 409.42,-360 409.42,4 -4,4"/>
<!-- Node1 -->
<g id="node1" class="node">
<title>Node1</title>
<g id="a_node1"><a xlink:title=" ">
<polygon fill="#bfbfbf" stroke="black" points="172,-336.5 172,-355.5 342,-355.5 342,-336.5 172,-336.5"/>
<text text-anchor="middle" x="257" y="-343.5" font-family="Helvetica,sans-Serif" font-size="10.00">src/nwb/file/ElectrodeGroup.cpp</text>
</a>
</g>
</g>
<!-- Node2 -->
<g id="node2" class="node">
<title>Node2</title>
<g id="a_node2"><a xlink:href="ElectrodeGroup_8hpp.html" target="_top" xlink:title=" ">
<polygon fill="white" stroke="black" points="180,-280.5 180,-299.5 334,-299.5 334,-280.5 180,-280.5"/>
<text text-anchor="middle" x="257" y="-287.5" font-family="Helvetica,sans-Serif" font-size="10.00">nwb/file/ElectrodeGroup.hpp</text>
</a>
</g>
</g>
<!-- Node1&#45;&gt;Node2 -->
<g id="edge1" class="edge">
<title>Node1&#45;&gt;Node2</title>
<path fill="none" stroke="midnightblue" d="M257,-336.08C257,-329.01 257,-318.86 257,-309.99"/>
<polygon fill="midnightblue" stroke="midnightblue" points="260.5,-309.75 257,-299.75 253.5,-309.75 260.5,-309.75"/>
</g>
<!-- Node3 -->
<g id="node3" class="node">
<title>Node3</title>
<g id="a_node3"><a xlink:title=" ">
<polygon fill="white" stroke="#bfbfbf" points="354,-56.5 354,-75.5 398,-75.5 398,-56.5 354,-56.5"/>
<text text-anchor="middle" x="376" y="-63.5" font-family="Helvetica,sans-Serif" font-size="10.00">string</text>
</a>
</g>
</g>
<!-- Node2&#45;&gt;Node3 -->
<g id="edge2" class="edge">
<title>Node2&#45;&gt;Node3</title>
<path fill="none" stroke="midnightblue" d="M315,-280.45C337.92,-274.13 362.45,-263.13 378,-244 415.32,-198.11 406.74,-169.97 395,-112 393.11,-102.65 389.21,-92.83 385.43,-84.75"/>
<polygon fill="midnightblue" stroke="midnightblue" points="388.47,-83.01 380.88,-75.63 382.21,-86.14 388.47,-83.01"/>
</g>
<!-- Node4 -->
<g id="node4" class="node">
<title>Node4</title>
<g id="a_node4"><a xlink:href="BaseIO_8hpp.html" target="_top" xlink:title=" ">
<polygon fill="white" stroke="black" points="132,-112.5 132,-131.5 204,-131.5 204,-112.5 132,-112.5"/>
<text text-anchor="middle" x="168" y="-119.5" font-family="Helvetica,sans-Serif" font-size="10.00">BaseIO.hpp</text>
</a>
</g>
</g>
<!-- Node2&#45;&gt;Node4 -->
<g id="edge3" class="edge">
<title>Node2&#45;&gt;Node4</title>
<path fill="none" stroke="midnightblue" d="M246.19,-280.38C227.16,-264.48 188.17,-228.43 172,-188 166.15,-173.39 165.48,-155.44 166.09,-142.11"/>
<polygon fill="midnightblue" stroke="midnightblue" points="169.6,-142.02 166.85,-131.79 162.62,-141.5 169.6,-142.02"/>
</g>
<!-- Node11 -->
<g id="node11" class="node">
<title>Node11</title>
<g id="a_node11"><a xlink:href="Device_8hpp.html" target="_top" xlink:title=" ">
<polygon fill="white" stroke="black" points="239,-224.5 239,-243.5 369,-243.5 369,-224.5 239,-224.5"/>
<text text-anchor="middle" x="304" y="-231.5" font-family="Helvetica,sans-Serif" font-size="10.00">nwb/device/Device.hpp</text>
</a>
</g>
</g>
<!-- Node2&#45;&gt;Node11 -->
<g id="edge12" class="edge">
<title>Node2&#45;&gt;Node11</title>
<path fill="none" stroke="midnightblue" d="M264.76,-280.08C271.54,-272.3 281.54,-260.8 289.76,-251.37"/>
<polygon fill="midnightblue" stroke="midnightblue" points="292.46,-253.59 296.38,-243.75 287.18,-249 292.46,-253.59"/>
</g>
<!-- Node12 -->
<g id="node12" class="node">
<title>Node12</title>
<g id="a_node12"><a xlink:href="Container_8hpp.html" target="_top" xlink:title=" ">
<polygon fill="white" stroke="black" points="196,-168.5 196,-187.5 358,-187.5 358,-168.5 196,-168.5"/>
<text text-anchor="middle" x="277" y="-175.5" font-family="Helvetica,sans-Serif" font-size="10.00">nwb/hdmf/base/Container.hpp</text>
</a>
</g>
</g>
<!-- Node2&#45;&gt;Node12 -->
<g id="edge19" class="edge">
<title>Node2&#45;&gt;Node12</title>
<path fill="none" stroke="midnightblue" d="M248.63,-280.15C237.85,-267.61 221.46,-244 230,-224 235.15,-211.95 245.28,-201.58 254.83,-193.84"/>
<polygon fill="midnightblue" stroke="midnightblue" points="257.04,-196.55 262.92,-187.74 252.83,-190.96 257.04,-196.55"/>
</g>
<!-- Node4&#45;&gt;Node3 -->
<g id="edge7" class="edge">
<title>Node4&#45;&gt;Node3</title>
<path fill="none" stroke="midnightblue" d="M200.96,-112.44C240.18,-102.26 305.23,-85.37 344.02,-75.3"/>
<polygon fill="midnightblue" stroke="midnightblue" points="344.95,-78.68 353.75,-72.78 343.19,-71.9 344.95,-78.68"/>
</g>
<!-- Node5 -->
<g id="node5" class="node">
<title>Node5</title>
<g id="a_node5"><a xlink:title=" ">
<polygon fill="white" stroke="#bfbfbf" points="200,-56.5 200,-75.5 250,-75.5 250,-56.5 200,-56.5"/>
<text text-anchor="middle" x="225" y="-63.5" font-family="Helvetica,sans-Serif" font-size="10.00">cstdint</text>
</a>
</g>
</g>
<!-- Node4&#45;&gt;Node5 -->
<g id="edge4" class="edge">
<title>Node4&#45;&gt;Node5</title>
<path fill="none" stroke="midnightblue" d="M177.16,-112.32C185.5,-104.42 198.03,-92.55 208.18,-82.94"/>
<polygon fill="midnightblue" stroke="midnightblue" points="210.82,-85.25 215.68,-75.83 206.01,-80.17 210.82,-85.25"/>
</g>
<!-- Node6 -->
<g id="node6" class="node">
<title>Node6</title>
<g id="a_node6"><a xlink:title=" ">
<polygon fill="white" stroke="#bfbfbf" points="0,-56.5 0,-75.5 60,-75.5 60,-56.5 0,-56.5"/>
<text text-anchor="middle" x="30" y="-63.5" font-family="Helvetica,sans-Serif" font-size="10.00">iostream</text>
</a>
</g>
</g>
<!-- Node4&#45;&gt;Node6 -->
<g id="edge5" class="edge">
<title>Node4&#45;&gt;Node6</title>
<path fill="none" stroke="midnightblue" d="M146.13,-112.44C123.22,-103.48 87.02,-89.31 61.13,-79.18"/>
<polygon fill="midnightblue" stroke="midnightblue" points="62.35,-75.9 51.76,-75.52 59.8,-82.42 62.35,-75.9"/>
</g>
<!-- Node7 -->
<g id="node7" class="node">
<title>Node7</title>
<g id="a_node7"><a xlink:title=" ">
<polygon fill="white" stroke="#bfbfbf" points="268,-56.5 268,-75.5 326,-75.5 326,-56.5 268,-56.5"/>
<text text-anchor="middle" x="297" y="-63.5" font-family="Helvetica,sans-Serif" font-size="10.00">memory</text>
</a>
</g>
</g>
<!-- Node4&#45;&gt;Node7 -->
<g id="edge6" class="edge">
<title>Node4&#45;&gt;Node7</title>
<path fill="none" stroke="midnightblue" d="M188.44,-112.44C209.67,-103.56 243.1,-89.56 267.25,-79.45"/>
<polygon fill="midnightblue" stroke="midnightblue" points="268.78,-82.61 276.66,-75.52 266.08,-76.15 268.78,-82.61"/>
</g>
<!-- Node8 -->
<g id="node8" class="node">
<title>Node8</title>
<g id="a_node8"><a xlink:title=" ">
<polygon fill="white" stroke="#bfbfbf" points="64.5,-0.5 64.5,-19.5 111.5,-19.5 111.5,-0.5 64.5,-0.5"/>
<text text-anchor="middle" x="88" y="-7.5" font-family="Helvetica,sans-Serif" font-size="10.00">vector</text>
</a>
</g>
</g>
<!-- Node4&#45;&gt;Node8 -->
<g id="edge8" class="edge">
<title>Node4&#45;&gt;Node8</title>
<path fill="none" stroke="midnightblue" d="M150.82,-112.41C137.05,-104.68 118.23,-92.07 107,-76 97.43,-62.3 92.63,-43.76 90.25,-29.99"/>
<polygon fill="midnightblue" stroke="midnightblue" points="93.67,-29.15 88.77,-19.76 86.74,-30.15 93.67,-29.15"/>
</g>
<!-- Node9 -->
<g id="node9" class="node">
<title>Node9</title>
<g id="a_node9"><a xlink:href="Types_8hpp.html" target="_top" xlink:title=" ">
<polygon fill="white" stroke="black" points="116.5,-56.5 116.5,-75.5 181.5,-75.5 181.5,-56.5 116.5,-56.5"/>
<text text-anchor="middle" x="149" y="-63.5" font-family="Helvetica,sans-Serif" font-size="10.00">Types.hpp</text>
</a>
</g>
</g>
<!-- Node4&#45;&gt;Node9 -->
<g id="edge9" class="edge">
<title>Node4&#45;&gt;Node9</title>
<path fill="none" stroke="midnightblue" d="M164.86,-112.08C162.32,-104.85 158.64,-94.41 155.47,-85.4"/>
<polygon fill="midnightblue" stroke="midnightblue" points="158.7,-84.02 152.08,-75.75 152.1,-86.35 158.7,-84.02"/>
</g>
<!-- Node9&#45;&gt;Node8 -->
<g id="edge11" class="edge">
<title>Node9&#45;&gt;Node8</title>
<path fill="none" stroke="midnightblue" d="M139.2,-56.32C130.18,-48.34 116.59,-36.31 105.68,-26.65"/>
<polygon fill="midnightblue" stroke="midnightblue" points="107.79,-23.84 97.98,-19.83 103.15,-29.08 107.79,-23.84"/>
</g>
<!-- Node10 -->
<g id="node10" class="node">
<title>Node10</title>
<g id="a_node10"><a xlink:title=" ">
<polygon fill="white" stroke="#bfbfbf" points="129.5,-0.5 129.5,-19.5 182.5,-19.5 182.5,-0.5 129.5,-0.5"/>
<text text-anchor="middle" x="156" y="-7.5" font-family="Helvetica,sans-Serif" font-size="10.00">cstddef</text>
</a>
</g>
</g>
<!-- Node9&#45;&gt;Node10 -->
<g id="edge10" class="edge">
<title>Node9&#45;&gt;Node10</title>
<path fill="none" stroke="midnightblue" d="M150.16,-56.08C151.08,-48.93 152.42,-38.64 153.58,-29.69"/>
<polygon fill="midnightblue" stroke="midnightblue" points="157.05,-30.12 154.87,-19.75 150.11,-29.22 157.05,-30.12"/>
</g>
<!-- Node11&#45;&gt;Node3 -->
<g id="edge13" class="edge">
<title>Node11&#45;&gt;Node3</title>
<path fill="none" stroke="midnightblue" d="M324.18,-224.38C338.76,-217 357.51,-204.87 367,-188 385.18,-155.68 382.61,-110.59 379.24,-85.58"/>
<polygon fill="midnightblue" stroke="midnightblue" points="382.68,-84.97 377.7,-75.62 375.76,-86.04 382.68,-84.97"/>
</g>
<!-- Node11&#45;&gt;Node4 -->
<g id="edge14" class="edge">
<title>Node11&#45;&gt;Node4</title>
<path fill="none" stroke="midnightblue" d="M254.11,-224.42C230.83,-218.03 204.47,-206.97 187,-188 175.44,-175.44 170.88,-156.22 169.1,-141.93"/>
<polygon fill="midnightblue" stroke="midnightblue" points="172.57,-141.4 168.19,-131.76 165.59,-142.03 172.57,-141.4"/>
</g>
<!-- Node11&#45;&gt;Node12 -->
<g id="edge15" class="edge">
<title>Node11&#45;&gt;Node12</title>
<path fill="none" stroke="midnightblue" d="M299.54,-224.08C295.85,-216.69 290.48,-205.95 285.91,-196.81"/>
<polygon fill="midnightblue" stroke="midnightblue" points="288.98,-195.13 281.38,-187.75 282.72,-198.26 288.98,-195.13"/>
</g>
<!-- Node12&#45;&gt;Node3 -->
<g id="edge17" class="edge">
<title>Node12&#45;&gt;Node3</title>
<path fill="none" stroke="midnightblue" d="M284.77,-168.37C301.32,-149.97 340.3,-106.67 361.55,-83.05"/>
<polygon fill="midnightblue" stroke="midnightblue" points="364.18,-85.37 368.27,-75.59 358.98,-80.68 364.18,-85.37"/>
</g>
<!-- Node12&#45;&gt;Node4 -->
<g id="edge18" class="edge">
<title>Node12&#45;&gt;Node4</title>
<path fill="none" stroke="midnightblue" d="M259.49,-168.32C241.93,-159.62 214.67,-146.12 194.47,-136.11"/>
<polygon fill="midnightblue" stroke="midnightblue" points="195.98,-132.96 185.47,-131.65 192.88,-139.23 195.98,-132.96"/>
</g>
<!-- Node12&#45;&gt;Node7 -->
<g id="edge16" class="edge">
<title>Node12&#45;&gt;Node7</title>
<path fill="none" stroke="midnightblue" d="M278.57,-168.37C281.8,-150.62 289.24,-109.67 293.62,-85.6"/>
<polygon fill="midnightblue" stroke="midnightblue" points="297.09,-86.06 295.44,-75.59 290.21,-84.8 297.09,-86.06"/>
</g>
</g>
</svg>
