<?xml version="1.0" encoding="UTF-8" standalone="no"?>
<!DOCTYPE svg PUBLIC "-//W3C//DTD SVG 1.1//EN"
 "http://www.w3.org/Graphics/SVG/1.1/DTD/svg11.dtd">
<!-- Generated by graphviz version 2.43.0 (0)
 -->
<!-- Title: Graphical Class Hierarchy Pages: 1 -->
<svg width="338pt" height="66pt"
 viewBox="0.00 0.00 338.00 66.00" xmlns="http://www.w3.org/2000/svg" xmlns:xlink="http://www.w3.org/1999/xlink">
<g id="graph0" class="graph" transform="scale(1 1) rotate(0) translate(4 62)">
<title>Graphical Class Hierarchy</title>
<polygon fill="white" stroke="transparent" points="-4,4 -4,-62 334,-62 334,4 -4,4"/>
<!-- Node0 -->
<g id="node1" class="node">
<title>Node0</title>
<g id="a_node1"><a xlink:href="classAQNWB_1_1NWB_1_1Data.html" target="_top" xlink:title="An abstract data type for a dataset.">
<polygon fill="white" stroke="black" points="0,-19.5 0,-38.5 114,-38.5 114,-19.5 0,-19.5"/>
<text text-anchor="middle" x="57" y="-26.5" font-family="Helvetica,sans-Serif" font-size="10.00">AQNWB::NWB::Data</text>
</a>
</g>
</g>
<!-- Node1 -->
<g id="node2" class="node">
<title>Node1</title>
<g id="a_node2"><a xlink:href="classAQNWB_1_1NWB_1_1ElementIdentifiers.html" target="_top" xlink:title="A list of unique identifiers for values within a dataset, e.g. rows of a DynamicTable.">
<polygon fill="white" stroke="black" points="150,-38.5 150,-57.5 330,-57.5 330,-38.5 150,-38.5"/>
<text text-anchor="middle" x="240" y="-45.5" font-family="Helvetica,sans-Serif" font-size="10.00">AQNWB::NWB::ElementIdentifiers</text>
</a>
</g>
</g>
<!-- Node0&#45;&gt;Node1 -->
<g id="edge1" class="edge">
<title>Node0&#45;&gt;Node1</title>
<path fill="none" stroke="midnightblue" d="M124.28,-35.96C132.61,-36.83 141.24,-37.74 149.85,-38.64"/>
<polygon fill="midnightblue" stroke="midnightblue" points="124.59,-32.47 114.28,-34.91 123.86,-39.43 124.59,-32.47"/>
</g>
<!-- Node2 -->
<g id="node3" class="node">
<title>Node2</title>
<g id="a_node3"><a xlink:href="classAQNWB_1_1NWB_1_1VectorData.html" target="_top" xlink:title="An n&#45;dimensional dataset representing a column of a DynamicTable.">
<polygon fill="white" stroke="black" points="167.5,-0.5 167.5,-19.5 312.5,-19.5 312.5,-0.5 167.5,-0.5"/>
<text text-anchor="middle" x="240" y="-7.5" font-family="Helvetica,sans-Serif" font-size="10.00">AQNWB::NWB::VectorData</text>
</a>
</g>
</g>
<!-- Node0&#45;&gt;Node2 -->
<g id="edge2" class="edge">
<title>Node0&#45;&gt;Node2</title>
<path fill="none" stroke="midnightblue" d="M124.32,-22.04C138.34,-20.57 153.2,-19.01 167.4,-17.52"/>
<polygon fill="midnightblue" stroke="midnightblue" points="123.86,-18.57 114.28,-23.09 124.59,-25.53 123.86,-18.57"/>
</g>
</g>
</svg>
