<?xml version="1.0" encoding="UTF-8" standalone="no"?>
<!DOCTYPE svg PUBLIC "-//W3C//DTD SVG 1.1//EN"
 "http://www.w3.org/Graphics/SVG/1.1/DTD/svg11.dtd">
<!-- Generated by graphviz version 14.1.0 (20251206.1807)
 -->
<!-- Title: Graphical Class Hierarchy Pages: 1 -->
<svg width="282pt" height="158pt"
 viewBox="0.00 0.00 282.00 158.00" xmlns="http://www.w3.org/2000/svg" xmlns:xlink="http://www.w3.org/1999/xlink">
<g id="graph0" class="graph" transform="scale(1 1) rotate(0) translate(4 154.12)">
<title>Graphical Class Hierarchy</title>
<!-- Node0 -->
<g id="Node000000" class="node">
<title>Node0</title>
<g id="a_Node000000"><a xlink:title=" ">
<polygon fill="#e0e0e0" stroke="#999999" points="80.5,-78.88 0,-78.88 0,-59.62 80.5,-59.62 80.5,-78.88"/>
<text xml:space="preserve" text-anchor="middle" x="40.25" y="-65.38" font-family="Helvetica,sans-Serif" font-size="10.00">std::false_type</text>
</a>
</g>
</g>
<!-- Node1 -->
<g id="Node000001" class="node">
<title>Node1</title>
<g id="a_Node000001"><a xlink:href="struct_a_q_n_w_b_1_1_i_o_1_1is_allowed_storage_object_type_3_01_storage_object_type_1_1_attribute_01_4.html" target="_top" xlink:title=" ">
<polygon fill="white" stroke="#666666" points="274.25,-90.12 116.5,-90.12 116.5,-48.38 274.25,-48.38 274.25,-90.12"/>
<text xml:space="preserve" text-anchor="start" x="124.5" y="-76.62" font-family="Helvetica,sans-Serif" font-size="10.00">AQNWB::IO::isAllowedStorage</text>
<text xml:space="preserve" text-anchor="start" x="124.5" y="-65.38" font-family="Helvetica,sans-Serif" font-size="10.00">ObjectType&lt; StorageObjectType</text>
<text xml:space="preserve" text-anchor="middle" x="195.38" y="-54.12" font-family="Helvetica,sans-Serif" font-size="10.00">::Attribute &gt;</text>
</a>
</g>
</g>
<!-- Node0&#45;&gt;Node1 -->
<g id="edge24_Node000000_Node000001" class="edge">
<title>Node0&#45;&gt;Node1</title>
<g id="a_edge24_Node000000_Node000001"><a xlink:title=" ">
<path fill="none" stroke="#63b8ff" d="M92.07,-69.25C99.8,-69.25 107.93,-69.25 116.09,-69.25"/>
<polygon fill="#63b8ff" stroke="#63b8ff" points="92.2,-65.75 82.2,-69.25 92.2,-72.75 92.2,-65.75"/>
</a>
</g>
</g>
<!-- Node3 -->
<g id="Node000003" class="node">
<title>Node3</title>
<g id="a_Node000003"><a xlink:href="struct_a_q_n_w_b_1_1_i_o_1_1is_allowed_storage_object_type_3_01_storage_object_type_1_1_dataset_01_4.html" target="_top" xlink:title=" ">
<polygon fill="white" stroke="#666666" points="274.25,-150.12 116.5,-150.12 116.5,-108.38 274.25,-108.38 274.25,-150.12"/>
<text xml:space="preserve" text-anchor="start" x="124.5" y="-136.62" font-family="Helvetica,sans-Serif" font-size="10.00">AQNWB::IO::isAllowedStorage</text>
<text xml:space="preserve" text-anchor="start" x="124.5" y="-125.38" font-family="Helvetica,sans-Serif" font-size="10.00">ObjectType&lt; StorageObjectType</text>
<text xml:space="preserve" text-anchor="middle" x="195.38" y="-114.12" font-family="Helvetica,sans-Serif" font-size="10.00">::Dataset &gt;</text>
</a>
</g>
</g>
<!-- Node0&#45;&gt;Node3 -->
<g id="edge25_Node000000_Node000003" class="edge">
<title>Node0&#45;&gt;Node3</title>
<g id="a_edge25_Node000000_Node000003"><a xlink:title=" ">
<path fill="none" stroke="#63b8ff" d="M76.82,-83.53C89.35,-88.53 103.54,-94.17 116.5,-99.25 123.78,-102.1 131.46,-105.09 139.04,-108.02"/>
<polygon fill="#63b8ff" stroke="#63b8ff" points="78.29,-80.35 67.71,-79.89 75.69,-86.85 78.29,-80.35"/>
</a>
</g>
</g>
<!-- Node4 -->
<g id="Node000004" class="node">
<title>Node4</title>
<g id="a_Node000004"><a xlink:href="struct_a_q_n_w_b_1_1_i_o_1_1is_allowed_storage_object_type.html" target="_top" xlink:title=" ">
<polygon fill="white" stroke="#666666" points="271.62,-30.5 119.12,-30.5 119.12,0 271.62,0 271.62,-30.5"/>
<text xml:space="preserve" text-anchor="start" x="127.12" y="-17" font-family="Helvetica,sans-Serif" font-size="10.00">AQNWB::IO::isAllowedStorage</text>
<text xml:space="preserve" text-anchor="middle" x="195.38" y="-5.75" font-family="Helvetica,sans-Serif" font-size="10.00">ObjectType&lt; T &gt;</text>
</a>
</g>
</g>
<!-- Node0&#45;&gt;Node4 -->
<g id="edge26_Node000000_Node000004" class="edge">
<title>Node0&#45;&gt;Node4</title>
<g id="a_edge26_Node000000_Node000004"><a xlink:title=" ">
<path fill="none" stroke="#63b8ff" d="M75.75,-54.82C88.47,-49.68 103.06,-43.99 116.5,-39.25 124.5,-36.43 133.04,-33.61 141.41,-30.95"/>
<polygon fill="#63b8ff" stroke="#63b8ff" points="74.46,-51.57 66.53,-58.59 77.11,-58.05 74.46,-51.57"/>
</a>
</g>
</g>
<!-- Node2 -->
<g id="Node000002" class="node">
<title>Node2</title>
<g id="a_Node000002"><a xlink:title=" ">
<polygon fill="#e0e0e0" stroke="#999999" points="78.25,-126.88 2.25,-126.88 2.25,-107.62 78.25,-107.62 78.25,-126.88"/>
<text xml:space="preserve" text-anchor="middle" x="40.25" y="-113.38" font-family="Helvetica,sans-Serif" font-size="10.00">std::true_type</text>
</a>
</g>
</g>
<!-- Node2&#45;&gt;Node1 -->
<g id="edge27_Node000002_Node000001" class="edge">
<title>Node2&#45;&gt;Node1</title>
<g id="a_edge27_Node000002_Node000001"><a xlink:title=" ">
<path fill="none" stroke="#63b8ff" d="M83.96,-103.86C97.12,-99.74 111.95,-95.09 126.36,-90.57"/>
<polygon fill="#63b8ff" stroke="#63b8ff" points="83.29,-100.4 74.79,-106.73 85.38,-107.08 83.29,-100.4"/>
</a>
</g>
</g>
<!-- Node2&#45;&gt;Node3 -->
<g id="edge28_Node000002_Node000003" class="edge">
<title>Node2&#45;&gt;Node3</title>
<g id="a_edge28_Node000002_Node000003"><a xlink:title=" ">
<path fill="none" stroke="#63b8ff" d="M90.12,-121.08C98.47,-121.73 107.33,-122.43 116.21,-123.12"/>
<polygon fill="#63b8ff" stroke="#63b8ff" points="90.46,-117.6 80.22,-120.3 89.91,-124.57 90.46,-117.6"/>
</a>
</g>
</g>
</g>
</svg>
