<?xml version="1.0" encoding="UTF-8" standalone="no"?>
<!DOCTYPE svg PUBLIC "-//W3C//DTD SVG 1.1//EN"
 "http://www.w3.org/Graphics/SVG/1.1/DTD/svg11.dtd">
<!-- Generated by graphviz version 12.2.1 (20241206.2353)
 -->
<!-- Title: Graphical Class Hierarchy Pages: 1 -->
<svg width="975pt" height="279pt"
 viewBox="0.00 0.00 975.25 279.25" xmlns="http://www.w3.org/2000/svg" xmlns:xlink="http://www.w3.org/1999/xlink">
<g id="graph0" class="graph" transform="scale(1 1) rotate(0) translate(4 275.25)">
<title>Graphical Class Hierarchy</title>
<!-- Node0 -->
<g id="Node000000" class="node">
<title>Node0</title>
<g id="a_Node000000"><a xlink:href="class_a_q_n_w_b_1_1_n_w_b_1_1_registered_type.html" target="_top" xlink:title="Base class for types defined in the NWB schema.">
<polygon fill="white" stroke="#666666" points="158.5,-169.25 0,-169.25 0,-150 158.5,-150 158.5,-169.25"/>
<text text-anchor="middle" x="79.25" y="-155.75" font-family="Helvetica,sans-Serif" font-size="10.00">AQNWB::NWB::RegisteredType</text>
</a>
</g>
</g>
<!-- Node1 -->
<g id="Node000001" class="node">
<title>Node1</title>
<g id="a_Node000001"><a xlink:href="class_a_q_n_w_b_1_1_n_w_b_1_1_data.html" target="_top" xlink:title=" ">
<polygon fill="white" stroke="#666666" points="345.88,-261.25 206.12,-261.25 206.12,-242 345.88,-242 345.88,-261.25"/>
<text text-anchor="middle" x="276" y="-247.75" font-family="Helvetica,sans-Serif" font-size="10.00">AQNWB::NWB::Data&lt; int &gt;</text>
</a>
</g>
</g>
<!-- Node0&#45;&gt;Node1 -->
<g id="edge4_Node000000_Node000001" class="edge">
<title>Node0&#45;&gt;Node1</title>
<g id="a_edge4_Node000000_Node000001"><a xlink:title=" ">
<path fill="none" stroke="#63b8ff" d="M105.61,-175.54C128.33,-189.38 162.85,-209.39 194.5,-223.62 209.75,-230.48 227.22,-236.74 241.98,-241.6"/>
<polygon fill="#63b8ff" stroke="#63b8ff" points="107.7,-172.71 97.35,-170.45 104.03,-178.68 107.7,-172.71"/>
</a>
</g>
</g>
<!-- Node3 -->
<g id="Node000003" class="node">
<title>Node3</title>
<g id="a_Node000003"><a xlink:href="class_a_q_n_w_b_1_1_n_w_b_1_1_data.html" target="_top" xlink:title=" ">
<polygon fill="white" stroke="#666666" points="342.88,-214.88 209.12,-214.88 209.12,-184.38 342.88,-184.38 342.88,-214.88"/>
<text text-anchor="start" x="217.12" y="-201.38" font-family="Helvetica,sans-Serif" font-size="10.00">AQNWB::NWB::Data&lt; std</text>
<text text-anchor="middle" x="276" y="-190.12" font-family="Helvetica,sans-Serif" font-size="10.00">::any &gt;</text>
</a>
</g>
</g>
<!-- Node0&#45;&gt;Node3 -->
<g id="edge6_Node000000_Node000003" class="edge">
<title>Node0&#45;&gt;Node3</title>
<g id="a_edge6_Node000000_Node000003"><a xlink:title=" ">
<path fill="none" stroke="#63b8ff" d="M140.45,-171.99C162.16,-176.45 186.77,-181.5 208.95,-186.06"/>
<polygon fill="#63b8ff" stroke="#63b8ff" points="141.38,-168.61 130.88,-170.02 139.97,-175.46 141.38,-168.61"/>
</a>
</g>
</g>
<!-- Node5 -->
<g id="Node000005" class="node">
<title>Node5</title>
<g id="a_Node000005"><a xlink:href="class_a_q_n_w_b_1_1_n_w_b_1_1_container.html" target="_top" xlink:title="Abstract data type for a group storing collections of data and metadata.">
<polygon fill="white" stroke="#666666" points="342.12,-148.25 209.88,-148.25 209.88,-129 342.12,-129 342.12,-148.25"/>
<text text-anchor="middle" x="276" y="-134.75" font-family="Helvetica,sans-Serif" font-size="10.00">AQNWB::NWB::Container</text>
</a>
</g>
</g>
<!-- Node0&#45;&gt;Node5 -->
<g id="edge8_Node000000_Node000005" class="edge">
<title>Node0&#45;&gt;Node5</title>
<g id="a_edge8_Node000000_Node000005"><a xlink:title=" ">
<path fill="none" stroke="#63b8ff" d="M170,-149.95C183.3,-148.51 196.79,-147.06 209.47,-145.69"/>
<polygon fill="#63b8ff" stroke="#63b8ff" points="169.97,-146.43 160.41,-150.98 170.72,-153.39 169.97,-146.43"/>
</a>
</g>
</g>
<!-- Node15 -->
<g id="Node000015" class="node">
<title>Node15</title>
<g id="a_Node000015"><a xlink:href="class_a_q_n_w_b_1_1_n_w_b_1_1_data.html" target="_top" xlink:title="An abstract data type for a dataset.">
<polygon fill="white" stroke="#666666" points="357.5,-111.25 194.5,-111.25 194.5,-92 357.5,-92 357.5,-111.25"/>
<text text-anchor="middle" x="276" y="-97.75" font-family="Helvetica,sans-Serif" font-size="10.00">AQNWB::NWB::Data&lt; DTYPE &gt;</text>
</a>
</g>
</g>
<!-- Node0&#45;&gt;Node15 -->
<g id="edge18_Node000000_Node000015" class="edge">
<title>Node0&#45;&gt;Node15</title>
<g id="a_edge18_Node000000_Node000015"><a xlink:title=" ">
<path fill="none" stroke="#63b8ff" d="M116.93,-145.56C139.17,-137.34 168.23,-127.13 194.5,-119.62 204.55,-116.75 215.42,-114.05 225.81,-111.66"/>
<polygon fill="#63b8ff" stroke="#63b8ff" points="115.85,-142.22 107.71,-149 118.3,-148.78 115.85,-142.22"/>
</a>
</g>
</g>
<!-- Node2 -->
<g id="Node000002" class="node">
<title>Node2</title>
<g id="a_Node000002"><a xlink:href="class_a_q_n_w_b_1_1_n_w_b_1_1_element_identifiers.html" target="_top" xlink:title="A list of unique identifiers for values within a dataset, e.g. rows of a DynamicTable.">
<polygon fill="white" stroke="#666666" points="562.5,-271.25 393.5,-271.25 393.5,-252 562.5,-252 562.5,-271.25"/>
<text text-anchor="middle" x="478" y="-257.75" font-family="Helvetica,sans-Serif" font-size="10.00">AQNWB::NWB::ElementIdentifiers</text>
</a>
</g>
</g>
<!-- Node1&#45;&gt;Node2 -->
<g id="edge5_Node000001_Node000002" class="edge">
<title>Node1&#45;&gt;Node2</title>
<g id="a_edge5_Node000001_Node000002"><a xlink:title=" ">
<path fill="none" stroke="#63b8ff" d="M357.26,-255.64C369.04,-256.23 381.2,-256.84 393.05,-257.43"/>
<polygon fill="#63b8ff" stroke="#63b8ff" points="357.78,-252.16 347.62,-255.16 357.43,-259.15 357.78,-252.16"/>
</a>
</g>
</g>
<!-- Node4 -->
<g id="Node000004" class="node">
<title>Node4</title>
<g id="a_Node000004"><a xlink:href="class_a_q_n_w_b_1_1_n_w_b_1_1_vector_data.html" target="_top" xlink:title="An n&#45;dimensional dataset representing a column of a DynamicTable.">
<polygon fill="white" stroke="#666666" points="547.88,-233.88 408.12,-233.88 408.12,-203.38 547.88,-203.38 547.88,-233.88"/>
<text text-anchor="start" x="416.12" y="-220.38" font-family="Helvetica,sans-Serif" font-size="10.00">AQNWB::NWB::VectorData</text>
<text text-anchor="middle" x="478" y="-209.12" font-family="Helvetica,sans-Serif" font-size="10.00">&lt; DTYPE &gt;</text>
</a>
</g>
</g>
<!-- Node3&#45;&gt;Node4 -->
<g id="edge7_Node000003_Node000004" class="edge">
<title>Node3&#45;&gt;Node4</title>
<g id="a_edge7_Node000003_Node000004"><a xlink:title=" ">
<path fill="none" stroke="#63b8ff" d="M354.66,-207C372.17,-208.67 390.64,-210.42 407.78,-212.05"/>
<polygon fill="#63b8ff" stroke="#63b8ff" points="355.11,-203.53 344.83,-206.07 354.45,-210.5 355.11,-203.53"/>
</a>
</g>
</g>
<!-- Node6 -->
<g id="Node000006" class="node">
<title>Node6</title>
<g id="a_Node000006"><a xlink:href="class_a_q_n_w_b_1_1_n_w_b_1_1_device.html" target="_top" xlink:title="Metadata about a data acquisition device, e.g., recording system, electrode, microscope.">
<polygon fill="white" stroke="#666666" points="538.5,-185.25 417.5,-185.25 417.5,-166 538.5,-166 538.5,-185.25"/>
<text text-anchor="middle" x="478" y="-171.75" font-family="Helvetica,sans-Serif" font-size="10.00">AQNWB::NWB::Device</text>
</a>
</g>
</g>
<!-- Node5&#45;&gt;Node6 -->
<g id="edge9_Node000005_Node000006" class="edge">
<title>Node5&#45;&gt;Node6</title>
<g id="a_edge9_Node000005_Node000006"><a xlink:title=" ">
<path fill="none" stroke="#63b8ff" d="M342.84,-150.81C368.62,-155.57 397.84,-160.98 422.42,-165.53"/>
<polygon fill="#63b8ff" stroke="#63b8ff" points="343.61,-147.39 333.14,-149.01 342.34,-154.27 343.61,-147.39"/>
</a>
</g>
</g>
<!-- Node7 -->
<g id="Node000007" class="node">
<title>Node7</title>
<g id="a_Node000007"><a xlink:href="class_a_q_n_w_b_1_1_n_w_b_1_1_dynamic_table.html" target="_top" xlink:title="Represents a group containing multiple datasets that are aligned on the first dimension.">
<polygon fill="white" stroke="#666666" points="554.25,-148.25 401.75,-148.25 401.75,-129 554.25,-129 554.25,-148.25"/>
<text text-anchor="middle" x="478" y="-134.75" font-family="Helvetica,sans-Serif" font-size="10.00">AQNWB::NWB::DynamicTable</text>
</a>
</g>
</g>
<!-- Node5&#45;&gt;Node7 -->
<g id="edge10_Node000005_Node000007" class="edge">
<title>Node5&#45;&gt;Node7</title>
<g id="a_edge10_Node000005_Node000007"><a xlink:title=" ">
<path fill="none" stroke="#63b8ff" d="M353.69,-138.62C369.3,-138.62 385.72,-138.62 401.3,-138.62"/>
<polygon fill="#63b8ff" stroke="#63b8ff" points="354,-135.13 344,-138.63 354,-142.13 354,-135.13"/>
</a>
</g>
</g>
<!-- Node9 -->
<g id="Node000009" class="node">
<title>Node9</title>
<g id="a_Node000009"><a xlink:href="class_a_q_n_w_b_1_1_n_w_b_1_1_electrode_group.html" target="_top" xlink:title="The ElectrodeGroup class represents a physical grouping of electrodes, e.g. a shank of an array.">
<polygon fill="white" stroke="#666666" points="556.88,-111.25 399.12,-111.25 399.12,-92 556.88,-92 556.88,-111.25"/>
<text text-anchor="middle" x="478" y="-97.75" font-family="Helvetica,sans-Serif" font-size="10.00">AQNWB::NWB::ElectrodeGroup</text>
</a>
</g>
</g>
<!-- Node5&#45;&gt;Node9 -->
<g id="edge12_Node000005_Node000009" class="edge">
<title>Node5&#45;&gt;Node9</title>
<g id="a_edge12_Node000005_Node000009"><a xlink:title=" ">
<path fill="none" stroke="#63b8ff" d="M342.84,-126.44C368.62,-121.68 397.84,-116.27 422.42,-111.72"/>
<polygon fill="#63b8ff" stroke="#63b8ff" points="342.34,-122.98 333.14,-128.24 343.61,-129.86 342.34,-122.98"/>
</a>
</g>
</g>
<!-- Node10 -->
<g id="Node000010" class="node">
<title>Node10</title>
<g id="a_Node000010"><a xlink:href="class_a_q_n_w_b_1_1_n_w_b_1_1_n_w_b_file.html" target="_top" xlink:title="The NWBFile class provides an interface for setting up and managing the NWB file.">
<polygon fill="white" stroke="#666666" points="543,-74.25 413,-74.25 413,-55 543,-55 543,-74.25"/>
<text text-anchor="middle" x="478" y="-60.75" font-family="Helvetica,sans-Serif" font-size="10.00">AQNWB::NWB::NWBFile</text>
</a>
</g>
</g>
<!-- Node5&#45;&gt;Node10 -->
<g id="edge13_Node000005_Node000010" class="edge">
<title>Node5&#45;&gt;Node10</title>
<g id="a_edge13_Node000005_Node000010"><a xlink:title=" ">
<path fill="none" stroke="#63b8ff" d="M350.16,-124.36C352.68,-123.21 355.14,-121.97 357.5,-120.62 377.73,-109.14 373.22,-94.03 393.5,-82.62 399.45,-79.28 405.95,-76.56 412.62,-74.34"/>
<polygon fill="#63b8ff" stroke="#63b8ff" points="348.91,-121.09 340.9,-128.02 351.48,-127.6 348.91,-121.09"/>
</a>
</g>
</g>
<!-- Node11 -->
<g id="Node000011" class="node">
<title>Node11</title>
<g id="a_Node000011"><a xlink:href="class_a_q_n_w_b_1_1_n_w_b_1_1_time_series.html" target="_top" xlink:title="General purpose time series.">
<polygon fill="white" stroke="#666666" points="547.88,-37.25 408.12,-37.25 408.12,-18 547.88,-18 547.88,-37.25"/>
<text text-anchor="middle" x="478" y="-23.75" font-family="Helvetica,sans-Serif" font-size="10.00">AQNWB::NWB::TimeSeries</text>
</a>
</g>
</g>
<!-- Node5&#45;&gt;Node11 -->
<g id="edge14_Node000005_Node000011" class="edge">
<title>Node5&#45;&gt;Node11</title>
<g id="a_edge14_Node000005_Node000011"><a xlink:title=" ">
<path fill="none" stroke="#63b8ff" d="M352.1,-124.44C353.97,-123.27 355.78,-122 357.5,-120.62 386.44,-97.62 364.47,-68.52 393.5,-45.62 397.81,-42.23 402.62,-39.44 407.69,-37.15"/>
<polygon fill="#63b8ff" stroke="#63b8ff" points="350.82,-121.16 343.58,-128.89 354.07,-127.36 350.82,-121.16"/>
</a>
</g>
</g>
<!-- Node8 -->
<g id="Node000008" class="node">
<title>Node8</title>
<g id="a_Node000008"><a xlink:href="class_a_q_n_w_b_1_1_n_w_b_1_1_electrode_table.html" target="_top" xlink:title="Represents a table containing electrode metadata.">
<polygon fill="white" stroke="#666666" points="758.12,-148.25 603.38,-148.25 603.38,-129 758.12,-129 758.12,-148.25"/>
<text text-anchor="middle" x="680.75" y="-134.75" font-family="Helvetica,sans-Serif" font-size="10.00">AQNWB::NWB::ElectrodeTable</text>
</a>
</g>
</g>
<!-- Node7&#45;&gt;Node8 -->
<g id="edge11_Node000007_Node000008" class="edge">
<title>Node7&#45;&gt;Node8</title>
<g id="a_edge11_Node000007_Node000008"><a xlink:title=" ">
<path fill="none" stroke="#63b8ff" d="M565.91,-138.62C578.32,-138.62 591.01,-138.62 603.21,-138.62"/>
<polygon fill="#63b8ff" stroke="#63b8ff" points="566.12,-135.13 556.12,-138.63 566.12,-142.13 566.12,-135.13"/>
</a>
</g>
</g>
<!-- Node12 -->
<g id="Node000012" class="node">
<title>Node12</title>
<g id="a_Node000012"><a xlink:href="class_a_q_n_w_b_1_1_n_w_b_1_1_annotation_series.html" target="_top" xlink:title="TimeSeries storing text&#45;based records about the experiment.">
<polygon fill="white" stroke="#666666" points="763,-56.25 598.5,-56.25 598.5,-37 763,-37 763,-56.25"/>
<text text-anchor="middle" x="680.75" y="-42.75" font-family="Helvetica,sans-Serif" font-size="10.00">AQNWB::NWB::AnnotationSeries</text>
</a>
</g>
</g>
<!-- Node11&#45;&gt;Node12 -->
<g id="edge15_Node000011_Node000012" class="edge">
<title>Node11&#45;&gt;Node12</title>
<g id="a_edge15_Node000011_Node000012"><a xlink:title=" ">
<path fill="none" stroke="#63b8ff" d="M559.47,-35.24C572.25,-36.45 585.49,-37.7 598.29,-38.92"/>
<polygon fill="#63b8ff" stroke="#63b8ff" points="560.16,-31.79 549.87,-34.33 559.5,-38.76 560.16,-31.79"/>
</a>
</g>
</g>
<!-- Node13 -->
<g id="Node000013" class="node">
<title>Node13</title>
<g id="a_Node000013"><a xlink:href="class_a_q_n_w_b_1_1_n_w_b_1_1_electrical_series.html" target="_top" xlink:title="General purpose time series.">
<polygon fill="white" stroke="#666666" points="760,-19.25 601.5,-19.25 601.5,0 760,0 760,-19.25"/>
<text text-anchor="middle" x="680.75" y="-5.75" font-family="Helvetica,sans-Serif" font-size="10.00">AQNWB::NWB::ElectricalSeries</text>
</a>
</g>
</g>
<!-- Node11&#45;&gt;Node13 -->
<g id="edge16_Node000011_Node000013" class="edge">
<title>Node11&#45;&gt;Node13</title>
<g id="a_edge16_Node000011_Node000013"><a xlink:title=" ">
<path fill="none" stroke="#63b8ff" d="M559.69,-20.39C573.34,-19.17 587.49,-17.9 601.08,-16.68"/>
<polygon fill="#63b8ff" stroke="#63b8ff" points="559.52,-16.89 549.88,-21.27 560.15,-23.86 559.52,-16.89"/>
</a>
</g>
</g>
<!-- Node14 -->
<g id="Node000014" class="node">
<title>Node14</title>
<g id="a_Node000014"><a xlink:href="class_a_q_n_w_b_1_1_n_w_b_1_1_spike_event_series.html" target="_top" xlink:title="Stores snapshots/snippets of recorded spike events (i.e., threshold crossings).">
<polygon fill="white" stroke="#666666" points="967.25,-19.25 799,-19.25 799,0 967.25,0 967.25,-19.25"/>
<text text-anchor="middle" x="883.12" y="-5.75" font-family="Helvetica,sans-Serif" font-size="10.00">AQNWB::NWB::SpikeEventSeries</text>
</a>
</g>
</g>
<!-- Node13&#45;&gt;Node14 -->
<g id="edge17_Node000013_Node000014" class="edge">
<title>Node13&#45;&gt;Node14</title>
<g id="a_edge17_Node000013_Node000014"><a xlink:title=" ">
<path fill="none" stroke="#63b8ff" d="M771.7,-9.62C780.71,-9.62 789.84,-9.62 798.78,-9.62"/>
<polygon fill="#63b8ff" stroke="#63b8ff" points="771.88,-6.13 761.88,-9.63 771.88,-13.13 771.88,-6.13"/>
</a>
</g>
</g>
</g>
</svg>
