<?xml version="1.0" encoding="UTF-8" standalone="no"?>
<!DOCTYPE svg PUBLIC "-//W3C//DTD SVG 1.1//EN"
 "http://www.w3.org/Graphics/SVG/1.1/DTD/svg11.dtd">
<!-- Generated by graphviz version 14.1.2 (20260124.0452)
 -->
<!-- Title: AQNWB::intToStatus Pages: 1 -->
<svg width="663pt" height="186pt"
 viewBox="0.00 0.00 663.00 186.00" xmlns="http://www.w3.org/2000/svg" xmlns:xlink="http://www.w3.org/1999/xlink">
<g id="graph0" class="graph" transform="scale(1 1) rotate(0) translate(4 181.5)">
<title>AQNWB::intToStatus</title>
<!-- Node1 -->
<g id="Node000001" class="node">
<title>Node1</title>
<g id="a_Node000001"><a xlink:title="Convert an integer status code to a Types::Status enum value. Shorthand for return (status &lt; 0) ?...">
<polygon fill="#999999" stroke="#666666" points="655,-97.88 545.25,-97.88 545.25,-78.62 655,-78.62 655,-97.88"/>
<text xml:space="preserve" text-anchor="middle" x="600.12" y="-84.38" font-family="Helvetica,sans-Serif" font-size="10.00">AQNWB::intToStatus</text>
</a>
</g>
</g>
<!-- Node2 -->
<g id="Node000002" class="node">
<title>Node2</title>
<g id="a_Node000002"><a xlink:href="class_a_q_n_w_b_1_1_i_o_1_1_h_d_f5_1_1_h_d_f5_i_o.html#a351fa783e607e0840d5d28b3761d42ff" target="_top" xlink:title="Creates a soft link to another location in the file.">
<polygon fill="white" stroke="#666666" points="509.25,-177.5 363.5,-177.5 363.5,-147 509.25,-147 509.25,-177.5"/>
<text xml:space="preserve" text-anchor="start" x="371.5" y="-164" font-family="Helvetica,sans-Serif" font-size="10.00">AQNWB::IO::HDF5::HDF5IO</text>
<text xml:space="preserve" text-anchor="middle" x="436.38" y="-152.75" font-family="Helvetica,sans-Serif" font-size="10.00">::createLink</text>
</a>
</g>
</g>
<!-- Node1&#45;&gt;Node2 -->
<g id="edge1_Node000001_Node000002" class="edge">
<title>Node1&#45;&gt;Node2</title>
<g id="a_edge1_Node000001_Node000002"><a xlink:title=" ">
<path fill="none" stroke="#63b8ff" d="M573.06,-103.95C555.42,-114.19 531.39,-127.44 509.25,-137.25 501.88,-140.51 493.94,-143.64 486.13,-146.51"/>
<polygon fill="#63b8ff" stroke="#63b8ff" points="574.5,-107.16 581.34,-99.07 570.95,-101.13 574.5,-107.16"/>
</a>
</g>
</g>
<!-- Node5 -->
<g id="Node000005" class="node">
<title>Node5</title>
<g id="a_Node000005"><a xlink:href="class_a_q_n_w_b_1_1_i_o_1_1_h_d_f5_1_1_h_d_f5_i_o.html#a43cc98ba74643c5f93fcce3f30505e1f" target="_top" xlink:title="Creates a dataset that holds an array of references to groups within the file.">
<polygon fill="white" stroke="#666666" points="509.25,-128.5 363.5,-128.5 363.5,-98 509.25,-98 509.25,-128.5"/>
<text xml:space="preserve" text-anchor="start" x="371.5" y="-115" font-family="Helvetica,sans-Serif" font-size="10.00">AQNWB::IO::HDF5::HDF5IO</text>
<text xml:space="preserve" text-anchor="middle" x="436.38" y="-103.75" font-family="Helvetica,sans-Serif" font-size="10.00">::createReferenceDataSet</text>
</a>
</g>
</g>
<!-- Node1&#45;&gt;Node5 -->
<g id="edge4_Node000001_Node000005" class="edge">
<title>Node1&#45;&gt;Node5</title>
<g id="a_edge4_Node000001_Node000005"><a xlink:title=" ">
<path fill="none" stroke="#63b8ff" d="M533.49,-98.39C525.63,-99.61 517.58,-100.85 509.64,-102.08"/>
<polygon fill="#63b8ff" stroke="#63b8ff" points="533.97,-101.86 543.32,-96.88 532.9,-94.94 533.97,-101.86"/>
</a>
</g>
</g>
<!-- Node6 -->
<g id="Node000006" class="node">
<title>Node6</title>
<g id="a_Node000006"><a xlink:href="class_a_q_n_w_b_1_1_i_o_1_1_h_d_f5_1_1_h_d_f5_i_o.html#af169224331c1c4f67ccf8521f5d778db" target="_top" xlink:title="Flush data to disk.">
<polygon fill="white" stroke="#666666" points="509.25,-79.5 363.5,-79.5 363.5,-49 509.25,-49 509.25,-79.5"/>
<text xml:space="preserve" text-anchor="start" x="371.5" y="-66" font-family="Helvetica,sans-Serif" font-size="10.00">AQNWB::IO::HDF5::HDF5IO</text>
<text xml:space="preserve" text-anchor="middle" x="436.38" y="-54.75" font-family="Helvetica,sans-Serif" font-size="10.00">::flush</text>
</a>
</g>
</g>
<!-- Node1&#45;&gt;Node6 -->
<g id="edge5_Node000001_Node000006" class="edge">
<title>Node1&#45;&gt;Node6</title>
<g id="a_edge5_Node000001_Node000006"><a xlink:title=" ">
<path fill="none" stroke="#63b8ff" d="M533.49,-78.51C525.63,-77.35 517.58,-76.15 509.64,-74.97"/>
<polygon fill="#63b8ff" stroke="#63b8ff" points="532.91,-81.96 543.32,-79.97 533.94,-75.04 532.91,-81.96"/>
</a>
</g>
</g>
<!-- Node8 -->
<g id="Node000008" class="node">
<title>Node8</title>
<g id="a_Node000008"><a xlink:href="class_a_q_n_w_b_1_1_i_o_1_1_h_d_f5_1_1_h_d_f5_i_o.html#a8606979d328123bb7bd8efa9df85c6df" target="_top" xlink:title="Start SWMR write to start recording process.">
<polygon fill="white" stroke="#666666" points="509.25,-30.5 363.5,-30.5 363.5,0 509.25,0 509.25,-30.5"/>
<text xml:space="preserve" text-anchor="start" x="371.5" y="-17" font-family="Helvetica,sans-Serif" font-size="10.00">AQNWB::IO::HDF5::HDF5IO</text>
<text xml:space="preserve" text-anchor="middle" x="436.38" y="-5.75" font-family="Helvetica,sans-Serif" font-size="10.00">::startRecording</text>
</a>
</g>
</g>
<!-- Node1&#45;&gt;Node8 -->
<g id="edge7_Node000001_Node000008" class="edge">
<title>Node1&#45;&gt;Node8</title>
<g id="a_edge7_Node000001_Node000008"><a xlink:title=" ">
<path fill="none" stroke="#63b8ff" d="M572.7,-72.73C555.07,-62.73 531.19,-49.86 509.25,-40.25 501.75,-36.97 493.66,-33.8 485.72,-30.9"/>
<polygon fill="#63b8ff" stroke="#63b8ff" points="570.56,-75.54 580.98,-77.48 574.05,-69.47 570.56,-75.54"/>
</a>
</g>
</g>
<!-- Node3 -->
<g id="Node000003" class="node">
<title>Node3</title>
<g id="a_Node000003"><a xlink:href="class_a_q_n_w_b_1_1_i_o_1_1_h_d_f5_1_1_h_d_f5_i_o.html#a8fc6f7149f6266cbf83019d4d8970d0f" target="_top" xlink:title="Creates an extendable dataset with the given configuration and path.">
<polygon fill="white" stroke="#666666" points="327.5,-177.5 181.75,-177.5 181.75,-147 327.5,-147 327.5,-177.5"/>
<text xml:space="preserve" text-anchor="start" x="189.75" y="-164" font-family="Helvetica,sans-Serif" font-size="10.00">AQNWB::IO::HDF5::HDF5IO</text>
<text xml:space="preserve" text-anchor="middle" x="254.62" y="-152.75" font-family="Helvetica,sans-Serif" font-size="10.00">::createArrayDataSet</text>
</a>
</g>
</g>
<!-- Node2&#45;&gt;Node3 -->
<g id="edge2_Node000002_Node000003" class="edge">
<title>Node2&#45;&gt;Node3</title>
<g id="a_edge2_Node000002_Node000003"><a xlink:title=" ">
<path fill="none" stroke="#63b8ff" d="M351.79,-162.25C343.78,-162.25 335.7,-162.25 327.81,-162.25"/>
<polygon fill="#63b8ff" stroke="#63b8ff" points="351.53,-165.75 361.53,-162.25 351.53,-158.75 351.53,-165.75"/>
</a>
</g>
</g>
<!-- Node4 -->
<g id="Node000004" class="node">
<title>Node4</title>
<g id="a_Node000004"><a xlink:href="class_a_q_n_w_b_1_1_i_o_1_1_h_d_f5_1_1_h_d_f5_i_o.html#a97653ad67ac314515362c7fe2b6fbaa1" target="_top" xlink:title="Creates a dataset that holds an array of string values.">
<polygon fill="white" stroke="#666666" points="145.75,-177.5 0,-177.5 0,-147 145.75,-147 145.75,-177.5"/>
<text xml:space="preserve" text-anchor="start" x="8" y="-164" font-family="Helvetica,sans-Serif" font-size="10.00">AQNWB::IO::HDF5::HDF5IO</text>
<text xml:space="preserve" text-anchor="middle" x="72.88" y="-152.75" font-family="Helvetica,sans-Serif" font-size="10.00">::createStringDataSet</text>
</a>
</g>
</g>
<!-- Node3&#45;&gt;Node4 -->
<g id="edge3_Node000003_Node000004" class="edge">
<title>Node3&#45;&gt;Node4</title>
<g id="a_edge3_Node000003_Node000004"><a xlink:title=" ">
<path fill="none" stroke="#63b8ff" d="M170.04,-162.25C162.03,-162.25 153.95,-162.25 146.06,-162.25"/>
<polygon fill="#63b8ff" stroke="#63b8ff" points="169.78,-165.75 179.78,-162.25 169.78,-158.75 169.78,-165.75"/>
</a>
</g>
</g>
<!-- Node7 -->
<g id="Node000007" class="node">
<title>Node7</title>
<g id="a_Node000007"><a xlink:href="class_a_q_n_w_b_1_1_i_o_1_1_h_d_f5_1_1_h_d_f5_i_o.html#a0cfc2191ccfc122fa5098d4c4b4117b5" target="_top" xlink:title="Stops the recording process.">
<polygon fill="white" stroke="#666666" points="327.5,-79.5 181.75,-79.5 181.75,-49 327.5,-49 327.5,-79.5"/>
<text xml:space="preserve" text-anchor="start" x="189.75" y="-66" font-family="Helvetica,sans-Serif" font-size="10.00">AQNWB::IO::HDF5::HDF5IO</text>
<text xml:space="preserve" text-anchor="middle" x="254.62" y="-54.75" font-family="Helvetica,sans-Serif" font-size="10.00">::stopRecording</text>
</a>
</g>
</g>
<!-- Node6&#45;&gt;Node7 -->
<g id="edge6_Node000006_Node000007" class="edge">
<title>Node6&#45;&gt;Node7</title>
<g id="a_edge6_Node000006_Node000007"><a xlink:title=" ">
<path fill="none" stroke="#63b8ff" d="M351.79,-64.25C343.78,-64.25 335.7,-64.25 327.81,-64.25"/>
<polygon fill="#63b8ff" stroke="#63b8ff" points="351.53,-67.75 361.53,-64.25 351.53,-60.75 351.53,-67.75"/>
</a>
</g>
</g>
</g>
</svg>
