<?xml version="1.0" encoding="UTF-8" standalone="no"?>
<!DOCTYPE svg PUBLIC "-//W3C//DTD SVG 1.1//EN"
 "http://www.w3.org/Graphics/SVG/1.1/DTD/svg11.dtd">
<!-- Generated by graphviz version 12.2.1 (20241206.2353)
 -->
<!-- Title: AQNWB::mergePaths Pages: 1 -->
<svg width="2791pt" height="636pt"
 viewBox="0.00 0.00 2790.75 635.82" xmlns="http://www.w3.org/2000/svg" xmlns:xlink="http://www.w3.org/1999/xlink">
<g id="graph0" class="graph" transform="scale(1 1) rotate(0) translate(4 631.82)">
<title>AQNWB::mergePaths</title>
<!-- Node1 -->
<g id="Node000001" class="node">
<title>Node1</title>
<g id="a_Node000001"><a xlink:title="Merge two paths into a single path, handling extra trailing and starting &quot;/&quot;.">
<polygon fill="#999999" stroke="#666666" points="2782.75,-318.19 2670,-318.19 2670,-298.94 2782.75,-298.94 2782.75,-318.19"/>
<text text-anchor="middle" x="2726.38" y="-304.69" font-family="Helvetica,sans-Serif" font-size="10.00">AQNWB::mergePaths</text>
</a>
</g>
</g>
<!-- Node2 -->
<g id="Node000002" class="node">
<title>Node2</title>
<g id="a_Node000002"><a xlink:href="class_a_q_n_w_b_1_1_n_w_b_1_1_electrode_table.html#a41f29ce1a76fd932eac4a03e67d8268f" target="_top" xlink:title="Sets up the ElectrodeTable by adding electrodes and their metadata.">
<polygon fill="white" stroke="#666666" points="2632.12,-627.82 2477.38,-627.82 2477.38,-597.32 2632.12,-597.32 2632.12,-627.82"/>
<text text-anchor="start" x="2485.38" y="-614.32" font-family="Helvetica,sans-Serif" font-size="10.00">AQNWB::NWB::ElectrodeTable</text>
<text text-anchor="middle" x="2554.75" y="-603.07" font-family="Helvetica,sans-Serif" font-size="10.00">::addElectrodes</text>
</a>
</g>
</g>
<!-- Node1&#45;&gt;Node2 -->
<g id="edge1_Node000001_Node000002" class="edge">
<title>Node1&#45;&gt;Node2</title>
<g id="a_edge1_Node000001_Node000002"><a xlink:title=" ">
<path fill="none" stroke="#63b8ff" d="M2724.7,-329.91C2721.9,-381.59 2707.53,-514.57 2634,-587.57 2630.36,-591.18 2626.19,-594.28 2621.72,-596.92"/>
<polygon fill="#63b8ff" stroke="#63b8ff" points="2728.19,-330.26 2725.13,-320.12 2721.19,-329.96 2728.19,-330.26"/>
</a>
</g>
</g>
<!-- Node3 -->
<g id="Node000003" class="node">
<title>Node3</title>
<g id="a_Node000003"><a xlink:href="class_a_q_n_w_b_1_1_n_w_b_1_1_dynamic_table.html#af693d1a0af16ec266645ecd696afef24" target="_top" xlink:title="Adds a column of references to the table.">
<polygon fill="white" stroke="#666666" points="2631,-394.82 2478.5,-394.82 2478.5,-364.32 2631,-364.32 2631,-394.82"/>
<text text-anchor="start" x="2486.5" y="-381.32" font-family="Helvetica,sans-Serif" font-size="10.00">AQNWB::NWB::DynamicTable</text>
<text text-anchor="middle" x="2554.75" y="-370.07" font-family="Helvetica,sans-Serif" font-size="10.00">::addReferenceColumn</text>
</a>
</g>
</g>
<!-- Node1&#45;&gt;Node3 -->
<g id="edge2_Node000001_Node000003" class="edge">
<title>Node1&#45;&gt;Node3</title>
<g id="a_edge2_Node000001_Node000003"><a xlink:title=" ">
<path fill="none" stroke="#63b8ff" d="M2697.56,-324.01C2679.72,-333.54 2655.89,-345.62 2634,-354.57 2625.95,-357.86 2617.29,-361 2608.77,-363.87"/>
<polygon fill="#63b8ff" stroke="#63b8ff" points="2699.1,-327.15 2706.23,-319.31 2695.77,-320.99 2699.1,-327.15"/>
</a>
</g>
</g>
<!-- Node5 -->
<g id="Node000005" class="node">
<title>Node5</title>
<g id="a_Node000005"><a xlink:href="class_a_q_n_w_b_1_1_n_w_b_1_1_n_w_b_file.html#a2f061ec60bb617dc749b399cfb6e30ee" target="_top" xlink:title="Saves the specification files for the schema.">
<polygon fill="white" stroke="#666666" points="2619.75,-578.82 2489.75,-578.82 2489.75,-548.32 2619.75,-548.32 2619.75,-578.82"/>
<text text-anchor="start" x="2497.75" y="-565.32" font-family="Helvetica,sans-Serif" font-size="10.00">AQNWB::NWB::NWBFile</text>
<text text-anchor="middle" x="2554.75" y="-554.07" font-family="Helvetica,sans-Serif" font-size="10.00">::cacheSpecifications</text>
</a>
</g>
</g>
<!-- Node1&#45;&gt;Node5 -->
<g id="edge4_Node000001_Node000005" class="edge">
<title>Node1&#45;&gt;Node5</title>
<g id="a_edge4_Node000001_Node000005"><a xlink:title=" ">
<path fill="none" stroke="#63b8ff" d="M2722.64,-329.45C2715.79,-373.44 2693.96,-476.33 2634,-534.57 2628.49,-539.92 2621.91,-544.29 2614.94,-547.87"/>
<polygon fill="#63b8ff" stroke="#63b8ff" points="2726.07,-330.14 2724.03,-319.75 2719.14,-329.15 2726.07,-330.14"/>
</a>
</g>
</g>
<!-- Node8 -->
<g id="Node000008" class="node">
<title>Node8</title>
<g id="a_Node000008"><a xlink:href="class_a_q_n_w_b_1_1_n_w_b_1_1_registered_type.html#a99e5fd3c63ce7a887c2f3ae7b5f20320" target="_top" xlink:title="Factory method to create an instance of a subclass of RegisteredType from file.">
<polygon fill="white" stroke="#666666" points="2634,-492.82 2475.5,-492.82 2475.5,-462.32 2634,-462.32 2634,-492.82"/>
<text text-anchor="start" x="2483.5" y="-479.32" font-family="Helvetica,sans-Serif" font-size="10.00">AQNWB::NWB::RegisteredType</text>
<text text-anchor="middle" x="2554.75" y="-468.07" font-family="Helvetica,sans-Serif" font-size="10.00">::create</text>
</a>
</g>
</g>
<!-- Node1&#45;&gt;Node8 -->
<g id="edge7_Node000001_Node000008" class="edge">
<title>Node1&#45;&gt;Node8</title>
<g id="a_edge7_Node000001_Node000008"><a xlink:title=" ">
<path fill="none" stroke="#63b8ff" d="M2717.72,-329.11C2705.05,-360.32 2676.82,-419.52 2634,-452.57 2629.37,-456.14 2624.22,-459.21 2618.83,-461.84"/>
<polygon fill="#63b8ff" stroke="#63b8ff" points="2720.88,-330.63 2721.26,-320.04 2714.36,-328.09 2720.88,-330.63"/>
</a>
</g>
</g>
<!-- Node9 -->
<g id="Node000009" class="node">
<title>Node9</title>
<g id="a_Node000009"><a xlink:href="class_a_q_n_w_b_1_1_n_w_b_1_1_time_series.html#ad02a2c3803891f352dd2496b9ff1887b" target="_top" xlink:title="Convenience function for creating data related attributes.">
<polygon fill="white" stroke="#666666" points="2624.62,-443.82 2484.88,-443.82 2484.88,-413.32 2624.62,-413.32 2624.62,-443.82"/>
<text text-anchor="start" x="2492.88" y="-430.32" font-family="Helvetica,sans-Serif" font-size="10.00">AQNWB::NWB::TimeSeries</text>
<text text-anchor="middle" x="2554.75" y="-419.07" font-family="Helvetica,sans-Serif" font-size="10.00">::createDataAttributes</text>
</a>
</g>
</g>
<!-- Node1&#45;&gt;Node9 -->
<g id="edge8_Node000001_Node000009" class="edge">
<title>Node1&#45;&gt;Node9</title>
<g id="a_edge8_Node000001_Node000009"><a xlink:title=" ">
<path fill="none" stroke="#63b8ff" d="M2711.82,-327.52C2695.61,-348.89 2666.53,-383.3 2634,-403.57 2628.31,-407.11 2622.07,-410.19 2615.68,-412.87"/>
<polygon fill="#63b8ff" stroke="#63b8ff" points="2714.5,-329.79 2717.62,-319.67 2708.87,-325.63 2714.5,-329.79"/>
</a>
</g>
</g>
<!-- Node10 -->
<g id="Node000010" class="node">
<title>Node10</title>
<g id="a_Node000010"><a xlink:href="class_a_q_n_w_b_1_1_n_w_b_1_1_time_series.html#a9be940f3782a051785f27636a004b79f" target="_top" xlink:title="Initializes the TimeSeries by creating NWB related attributes and writing the description and comment...">
<polygon fill="white" stroke="#666666" points="2432,-511.82 2292.25,-511.82 2292.25,-481.32 2432,-481.32 2432,-511.82"/>
<text text-anchor="start" x="2300.25" y="-498.32" font-family="Helvetica,sans-Serif" font-size="10.00">AQNWB::NWB::TimeSeries</text>
<text text-anchor="middle" x="2362.12" y="-487.07" font-family="Helvetica,sans-Serif" font-size="10.00">::initialize</text>
</a>
</g>
</g>
<!-- Node1&#45;&gt;Node10 -->
<g id="edge34_Node000001_Node000010" class="edge">
<title>Node1&#45;&gt;Node10</title>
<g id="a_edge34_Node000001_Node000010"><a xlink:title=" ">
<path fill="none" stroke="#63b8ff" d="M2722.67,-329.73C2716.09,-371.31 2695.03,-462.93 2634,-501.57 2566.34,-544.39 2468.87,-528.05 2411.17,-512.29"/>
<polygon fill="#63b8ff" stroke="#63b8ff" points="2726.11,-330.45 2724.06,-320.05 2719.18,-329.45 2726.11,-330.45"/>
</a>
</g>
</g>
<!-- Node25 -->
<g id="Node000025" class="node">
<title>Node25</title>
<g id="a_Node000025"><a xlink:href="class_a_q_n_w_b_1_1_n_w_b_1_1_n_w_b_file.html#a01af959032be834975b9f45737a32fa7" target="_top" xlink:title="Create ElectricalSeries objects to record data into. Created objects are stored in recordingContainer...">
<polygon fill="white" stroke="#666666" points="2427.12,-147.82 2297.12,-147.82 2297.12,-117.32 2427.12,-117.32 2427.12,-147.82"/>
<text text-anchor="start" x="2305.12" y="-134.32" font-family="Helvetica,sans-Serif" font-size="10.00">AQNWB::NWB::NWBFile</text>
<text text-anchor="middle" x="2362.12" y="-123.07" font-family="Helvetica,sans-Serif" font-size="10.00">::createElectricalSeries</text>
</a>
</g>
</g>
<!-- Node1&#45;&gt;Node25 -->
<g id="edge25_Node000001_Node000025" class="edge">
<title>Node1&#45;&gt;Node25</title>
<g id="a_edge25_Node000001_Node000025"><a xlink:title=" ">
<path fill="none" stroke="#63b8ff" d="M2658.51,-303.21C2595.35,-297.2 2505.9,-285.95 2475.5,-268.57 2424.19,-239.22 2386.37,-176.82 2370.87,-147.89"/>
<polygon fill="#63b8ff" stroke="#63b8ff" points="2657.79,-306.65 2668.07,-304.09 2658.44,-299.68 2657.79,-306.65"/>
</a>
</g>
</g>
<!-- Node26 -->
<g id="Node000026" class="node">
<title>Node26</title>
<g id="a_Node000026"><a xlink:href="class_a_q_n_w_b_1_1_n_w_b_1_1_n_w_b_file.html#a7244179a31130a8bc43458174664cdc9" target="_top" xlink:title="Create SpikeEventSeries objects to record data into. Created objects are stored in recordingContainer...">
<polygon fill="white" stroke="#666666" points="2427.12,-77.82 2297.12,-77.82 2297.12,-47.32 2427.12,-47.32 2427.12,-77.82"/>
<text text-anchor="start" x="2305.12" y="-64.32" font-family="Helvetica,sans-Serif" font-size="10.00">AQNWB::NWB::NWBFile</text>
<text text-anchor="middle" x="2362.12" y="-53.07" font-family="Helvetica,sans-Serif" font-size="10.00">::createSpikeEventSeries</text>
</a>
</g>
</g>
<!-- Node1&#45;&gt;Node26 -->
<g id="edge26_Node000001_Node000026" class="edge">
<title>Node1&#45;&gt;Node26</title>
<g id="a_edge26_Node000001_Node000026"><a xlink:title=" ">
<path fill="none" stroke="#63b8ff" d="M2726.15,-287.11C2726.82,-232.34 2720.03,-87.26 2634,-24.57 2559.93,29.41 2443.59,-19.6 2390.81,-46.99"/>
<polygon fill="#63b8ff" stroke="#63b8ff" points="2722.66,-286.86 2725.92,-296.94 2729.66,-287.02 2722.66,-286.86"/>
</a>
</g>
</g>
<!-- Node27 -->
<g id="Node000027" class="node">
<title>Node27</title>
<g id="a_Node000027"><a xlink:href="class_a_q_n_w_b_1_1_n_w_b_1_1_electrode_table.html#ab1c5db466e0cb350012b03253dff424a" target="_top" xlink:title=" ">
<polygon fill="white" stroke="#666666" points="2632.12,-259.82 2477.38,-259.82 2477.38,-229.32 2632.12,-229.32 2632.12,-259.82"/>
<text text-anchor="start" x="2485.38" y="-246.32" font-family="Helvetica,sans-Serif" font-size="10.00">AQNWB::NWB::ElectrodeTable</text>
<text text-anchor="middle" x="2554.75" y="-235.07" font-family="Helvetica,sans-Serif" font-size="10.00">::ElectrodeTable</text>
</a>
</g>
</g>
<!-- Node1&#45;&gt;Node27 -->
<g id="edge27_Node000001_Node000027" class="edge">
<title>Node1&#45;&gt;Node27</title>
<g id="a_edge27_Node000001_Node000027"><a xlink:title=" ">
<path fill="none" stroke="#63b8ff" d="M2688.96,-294.51C2672.23,-288.08 2652.13,-280.4 2634,-273.57 2622.48,-269.22 2609.98,-264.57 2598.42,-260.29"/>
<polygon fill="#63b8ff" stroke="#63b8ff" points="2687.41,-297.67 2698,-297.99 2689.92,-291.13 2687.41,-297.67"/>
</a>
</g>
</g>
<!-- Node28 -->
<g id="Node000028" class="node">
<title>Node28</title>
<g id="a_Node000028"><a xlink:href="class_a_q_n_w_b_1_1_i_o_1_1_base_i_o.html#a985277d47989d7cba0f1020a3166da2b" target="_top" xlink:title="Finds all datasets and groups of the given types in the HDF5 file.">
<polygon fill="white" stroke="#666666" points="2612.62,-210.82 2496.88,-210.82 2496.88,-180.32 2612.62,-180.32 2612.62,-210.82"/>
<text text-anchor="start" x="2504.88" y="-197.32" font-family="Helvetica,sans-Serif" font-size="10.00">AQNWB::IO::BaseIO::</text>
<text text-anchor="middle" x="2554.75" y="-186.07" font-family="Helvetica,sans-Serif" font-size="10.00">findTypes</text>
</a>
</g>
</g>
<!-- Node1&#45;&gt;Node28 -->
<g id="edge28_Node000001_Node000028" class="edge">
<title>Node1&#45;&gt;Node28</title>
<g id="a_edge28_Node000001_Node000028"><a xlink:title=" ">
<path fill="none" stroke="#63b8ff" d="M2710.51,-289.86C2693.84,-270.04 2665.05,-239.09 2634,-220.57 2627.51,-216.69 2620.35,-213.35 2613.08,-210.49"/>
<polygon fill="#63b8ff" stroke="#63b8ff" points="2707.67,-291.91 2716.72,-297.43 2713.08,-287.47 2707.67,-291.91"/>
</a>
</g>
</g>
<!-- Node29 -->
<g id="Node000029" class="node">
<title>Node29</title>
<g id="a_Node000029"><a xlink:href="class_a_q_n_w_b_1_1_n_w_b_1_1_electrical_series.html#aa6db97f7067421a8a5d7f3fcfa8c64fb" target="_top" xlink:title="Initializes the Electrical Series.">
<polygon fill="white" stroke="#666666" points="2634,-161.82 2475.5,-161.82 2475.5,-131.32 2634,-131.32 2634,-161.82"/>
<text text-anchor="start" x="2483.5" y="-148.32" font-family="Helvetica,sans-Serif" font-size="10.00">AQNWB::NWB::ElectricalSeries</text>
<text text-anchor="middle" x="2554.75" y="-137.07" font-family="Helvetica,sans-Serif" font-size="10.00">::initialize</text>
</a>
</g>
</g>
<!-- Node1&#45;&gt;Node29 -->
<g id="edge29_Node000001_Node000029" class="edge">
<title>Node1&#45;&gt;Node29</title>
<g id="a_edge29_Node000001_Node000029"><a xlink:title=" ">
<path fill="none" stroke="#63b8ff" d="M2717.08,-288.19C2703.88,-258.29 2675.32,-202.71 2634,-171.57 2629.22,-167.96 2623.9,-164.87 2618.35,-162.21"/>
<polygon fill="#63b8ff" stroke="#63b8ff" points="2713.79,-289.39 2720.92,-297.23 2720.23,-286.66 2713.79,-289.39"/>
</a>
</g>
</g>
<!-- Node30 -->
<g id="Node000030" class="node">
<title>Node30</title>
<g id="a_Node000030"><a xlink:href="class_a_q_n_w_b_1_1_n_w_b_1_1_electrode_group.html#ae1040ee51efcdfb2b4ba7ba046dd0a51" target="_top" xlink:title="Initializes the ElectrodeGroup object.">
<polygon fill="white" stroke="#666666" points="2633.62,-112.82 2475.88,-112.82 2475.88,-82.32 2633.62,-82.32 2633.62,-112.82"/>
<text text-anchor="start" x="2483.88" y="-99.32" font-family="Helvetica,sans-Serif" font-size="10.00">AQNWB::NWB::ElectrodeGroup</text>
<text text-anchor="middle" x="2554.75" y="-88.07" font-family="Helvetica,sans-Serif" font-size="10.00">::initialize</text>
</a>
</g>
</g>
<!-- Node1&#45;&gt;Node30 -->
<g id="edge30_Node000001_Node000030" class="edge">
<title>Node1&#45;&gt;Node30</title>
<g id="a_edge30_Node000001_Node000030"><a xlink:title=" ">
<path fill="none" stroke="#63b8ff" d="M2720.93,-288.08C2711.61,-249.92 2686.36,-167.73 2634,-122.57 2629.79,-118.93 2625.04,-115.83 2620.03,-113.17"/>
<polygon fill="#63b8ff" stroke="#63b8ff" points="2717.41,-288.39 2723.08,-297.35 2724.23,-286.82 2717.41,-288.39"/>
</a>
</g>
</g>
<!-- Node31 -->
<g id="Node000031" class="node">
<title>Node31</title>
<g id="a_Node000031"><a xlink:href="class_a_q_n_w_b_1_1_n_w_b_1_1_electrode_table.html#aff1a75876da42fd1e0a467b57409b012" target="_top" xlink:title="Initializes the ElectrodeTable.">
<polygon fill="white" stroke="#666666" points="2632.12,-63.82 2477.38,-63.82 2477.38,-33.32 2632.12,-33.32 2632.12,-63.82"/>
<text text-anchor="start" x="2485.38" y="-50.32" font-family="Helvetica,sans-Serif" font-size="10.00">AQNWB::NWB::ElectrodeTable</text>
<text text-anchor="middle" x="2554.75" y="-39.07" font-family="Helvetica,sans-Serif" font-size="10.00">::initialize</text>
</a>
</g>
</g>
<!-- Node1&#45;&gt;Node31 -->
<g id="edge33_Node000001_Node000031" class="edge">
<title>Node1&#45;&gt;Node31</title>
<g id="a_edge33_Node000001_Node000031"><a xlink:title=" ">
<path fill="none" stroke="#63b8ff" d="M2723.23,-287.57C2717.44,-241.96 2697.41,-133.19 2634,-73.57 2630.16,-69.95 2625.79,-66.86 2621.13,-64.21"/>
<polygon fill="#63b8ff" stroke="#63b8ff" points="2719.74,-287.85 2724.36,-297.39 2726.69,-287.05 2719.74,-287.85"/>
</a>
</g>
</g>
<!-- Node32 -->
<g id="Node000032" class="node">
<title>Node32</title>
<g id="a_Node000032"><a xlink:href="class_a_q_n_w_b_1_1_n_w_b_1_1_dynamic_table.html#a8156a75027331f019d0ffa22389e6d8d" target="_top" xlink:title="Adds a column of element identifiers to the table.">
<polygon fill="white" stroke="#666666" points="2631,-345.82 2478.5,-345.82 2478.5,-315.32 2631,-315.32 2631,-345.82"/>
<text text-anchor="start" x="2486.5" y="-332.32" font-family="Helvetica,sans-Serif" font-size="10.00">AQNWB::NWB::DynamicTable</text>
<text text-anchor="middle" x="2554.75" y="-321.07" font-family="Helvetica,sans-Serif" font-size="10.00">::setRowIDs</text>
</a>
</g>
</g>
<!-- Node1&#45;&gt;Node32 -->
<g id="edge35_Node000001_Node000032" class="edge">
<title>Node1&#45;&gt;Node32</title>
<g id="a_edge35_Node000001_Node000032"><a xlink:title=" ">
<path fill="none" stroke="#63b8ff" d="M2658.69,-317.21C2649.75,-318.37 2640.53,-319.57 2631.44,-320.75"/>
<polygon fill="#63b8ff" stroke="#63b8ff" points="2658.87,-320.72 2668.33,-315.96 2657.97,-313.78 2658.87,-320.72"/>
</a>
</g>
</g>
<!-- Node4 -->
<g id="Node000004" class="node">
<title>Node4</title>
<g id="a_Node000004"><a xlink:href="class_a_q_n_w_b_1_1_n_w_b_1_1_electrode_table.html#ab91b67e0f0a5dbe34d8f86efecf35de8" target="_top" xlink:title="Finalizes the ElectrodeTable.">
<polygon fill="white" stroke="#666666" points="2439.5,-369.82 2284.75,-369.82 2284.75,-339.32 2439.5,-339.32 2439.5,-369.82"/>
<text text-anchor="start" x="2292.75" y="-356.32" font-family="Helvetica,sans-Serif" font-size="10.00">AQNWB::NWB::ElectrodeTable</text>
<text text-anchor="middle" x="2362.12" y="-345.07" font-family="Helvetica,sans-Serif" font-size="10.00">::finalize</text>
</a>
</g>
</g>
<!-- Node3&#45;&gt;Node4 -->
<g id="edge3_Node000003_Node000004" class="edge">
<title>Node3&#45;&gt;Node4</title>
<g id="a_edge3_Node000003_Node000004"><a xlink:title=" ">
<path fill="none" stroke="#63b8ff" d="M2466.83,-368.17C2457.85,-366.99 2448.76,-365.8 2439.9,-364.63"/>
<polygon fill="#63b8ff" stroke="#63b8ff" points="2466.27,-371.62 2476.64,-369.45 2467.18,-364.68 2466.27,-371.62"/>
</a>
</g>
</g>
<!-- Node6 -->
<g id="Node000006" class="node">
<title>Node6</title>
<g id="a_Node000006"><a xlink:href="class_a_q_n_w_b_1_1_n_w_b_1_1_n_w_b_file.html#a5432fe66e877eb6417d1df5fd75016af" target="_top" xlink:title="Creates the default file structure. Note, this function will fail if the file is in a mode where new ...">
<polygon fill="white" stroke="#666666" points="2427.12,-578.82 2297.12,-578.82 2297.12,-548.32 2427.12,-548.32 2427.12,-578.82"/>
<text text-anchor="start" x="2305.12" y="-565.32" font-family="Helvetica,sans-Serif" font-size="10.00">AQNWB::NWB::NWBFile</text>
<text text-anchor="middle" x="2362.12" y="-554.07" font-family="Helvetica,sans-Serif" font-size="10.00">::createFileStructure</text>
</a>
</g>
</g>
<!-- Node5&#45;&gt;Node6 -->
<g id="edge5_Node000005_Node000006" class="edge">
<title>Node5&#45;&gt;Node6</title>
<g id="a_edge5_Node000005_Node000006"><a xlink:title=" ">
<path fill="none" stroke="#63b8ff" d="M2478.04,-563.57C2461.29,-563.57 2443.69,-563.57 2427.44,-563.57"/>
<polygon fill="#63b8ff" stroke="#63b8ff" points="2477.97,-567.07 2487.97,-563.57 2477.97,-560.07 2477.97,-567.07"/>
</a>
</g>
</g>
<!-- Node7 -->
<g id="Node000007" class="node">
<title>Node7</title>
<g id="a_Node000007"><a xlink:href="class_a_q_n_w_b_1_1_n_w_b_1_1_n_w_b_file.html#a1d27188a472f67378ffb425165d75cce" target="_top" xlink:title="Initializes the NWB file by setting up the file structure.">
<polygon fill="white" stroke="#666666" points="2243.88,-578.82 2113.88,-578.82 2113.88,-548.32 2243.88,-548.32 2243.88,-578.82"/>
<text text-anchor="start" x="2121.88" y="-565.32" font-family="Helvetica,sans-Serif" font-size="10.00">AQNWB::NWB::NWBFile</text>
<text text-anchor="middle" x="2178.88" y="-554.07" font-family="Helvetica,sans-Serif" font-size="10.00">::initialize</text>
</a>
</g>
</g>
<!-- Node6&#45;&gt;Node7 -->
<g id="edge6_Node000006_Node000007" class="edge">
<title>Node6&#45;&gt;Node7</title>
<g id="a_edge6_Node000006_Node000007"><a xlink:title=" ">
<path fill="none" stroke="#63b8ff" d="M2285.33,-563.57C2271.61,-563.57 2257.43,-563.57 2244.08,-563.57"/>
<polygon fill="#63b8ff" stroke="#63b8ff" points="2285.2,-567.07 2295.2,-563.57 2285.2,-560.07 2285.2,-567.07"/>
</a>
</g>
</g>
<!-- Node9&#45;&gt;Node10 -->
<g id="edge9_Node000009_Node000010" class="edge">
<title>Node9&#45;&gt;Node10</title>
<g id="a_edge9_Node000009_Node000010"><a xlink:title=" ">
<path fill="none" stroke="#63b8ff" d="M2492.22,-447.86C2486.56,-449.75 2480.91,-451.67 2475.5,-453.57 2451.06,-462.14 2423.93,-472.5 2402.45,-480.9"/>
<polygon fill="#63b8ff" stroke="#63b8ff" points="2493.25,-451.21 2501.66,-444.76 2491.07,-444.56 2493.25,-451.21"/>
</a>
</g>
</g>
<!-- Node11 -->
<g id="Node000011" class="node">
<title>Node11</title>
<g id="a_Node000011"><a xlink:href="class_a_q_n_w_b_1_1_n_w_b_1_1_time_series.html#a02d6ceb1f87f4a76906f00688708b8e9" target="_top" xlink:title=" ">
<polygon fill="white" stroke="#666666" points="2432,-443.82 2292.25,-443.82 2292.25,-413.32 2432,-413.32 2432,-443.82"/>
<text text-anchor="start" x="2300.25" y="-430.32" font-family="Helvetica,sans-Serif" font-size="10.00">AQNWB::NWB::TimeSeries</text>
<text text-anchor="middle" x="2362.12" y="-419.07" font-family="Helvetica,sans-Serif" font-size="10.00">::readControlDescription</text>
</a>
</g>
</g>
<!-- Node9&#45;&gt;Node11 -->
<g id="edge10_Node000009_Node000011" class="edge">
<title>Node9&#45;&gt;Node11</title>
<g id="a_edge10_Node000009_Node000011"><a xlink:title=" ">
<path fill="none" stroke="#63b8ff" d="M2473.14,-428.57C2459.6,-428.57 2445.65,-428.57 2432.43,-428.57"/>
<polygon fill="#63b8ff" stroke="#63b8ff" points="2472.88,-432.07 2482.88,-428.57 2472.88,-425.07 2472.88,-432.07"/>
</a>
</g>
</g>
<!-- Node12 -->
<g id="Node000012" class="node">
<title>Node12</title>
<g id="a_Node000012"><a xlink:href="class_a_q_n_w_b_1_1_n_w_b_1_1_time_series.html#a0501cf1664c3ac781453e312aa3342b0" target="_top" xlink:title=" ">
<polygon fill="white" stroke="#666666" points="2248.75,-443.82 2109,-443.82 2109,-413.32 2248.75,-413.32 2248.75,-443.82"/>
<text text-anchor="start" x="2117" y="-430.32" font-family="Helvetica,sans-Serif" font-size="10.00">AQNWB::NWB::TimeSeries</text>
<text text-anchor="middle" x="2178.88" y="-419.07" font-family="Helvetica,sans-Serif" font-size="10.00">::readControl</text>
</a>
</g>
</g>
<!-- Node11&#45;&gt;Node12 -->
<g id="edge11_Node000011_Node000012" class="edge">
<title>Node11&#45;&gt;Node12</title>
<g id="a_edge11_Node000011_Node000012"><a xlink:title=" ">
<path fill="none" stroke="#63b8ff" d="M2280.55,-428.57C2270.07,-428.57 2259.41,-428.57 2249.14,-428.57"/>
<polygon fill="#63b8ff" stroke="#63b8ff" points="2280.31,-432.07 2290.31,-428.57 2280.31,-425.07 2280.31,-432.07"/>
</a>
</g>
</g>
<!-- Node13 -->
<g id="Node000013" class="node">
<title>Node13</title>
<g id="a_Node000013"><a xlink:href="class_a_q_n_w_b_1_1_n_w_b_1_1_time_series.html#adf3f178d207453927ae6ede7a53ac7f7" target="_top" xlink:title=" ">
<polygon fill="white" stroke="#666666" points="2073,-443.82 1933.25,-443.82 1933.25,-413.32 2073,-413.32 2073,-443.82"/>
<text text-anchor="start" x="1941.25" y="-430.32" font-family="Helvetica,sans-Serif" font-size="10.00">AQNWB::NWB::TimeSeries</text>
<text text-anchor="middle" x="2003.12" y="-419.07" font-family="Helvetica,sans-Serif" font-size="10.00">::readTimestampsUnit</text>
</a>
</g>
</g>
<!-- Node12&#45;&gt;Node13 -->
<g id="edge12_Node000012_Node000013" class="edge">
<title>Node12&#45;&gt;Node13</title>
<g id="a_edge12_Node000012_Node000013"><a xlink:title=" ">
<path fill="none" stroke="#63b8ff" d="M2097.41,-428.57C2089.37,-428.57 2081.25,-428.57 2073.34,-428.57"/>
<polygon fill="#63b8ff" stroke="#63b8ff" points="2097.19,-432.07 2107.19,-428.57 2097.19,-425.07 2097.19,-432.07"/>
</a>
</g>
</g>
<!-- Node14 -->
<g id="Node000014" class="node">
<title>Node14</title>
<g id="a_Node000014"><a xlink:href="class_a_q_n_w_b_1_1_n_w_b_1_1_time_series.html#a6bc9efa6381b6761d45493c1b2628e22" target="_top" xlink:title=" ">
<polygon fill="white" stroke="#666666" points="1897.25,-443.82 1757.5,-443.82 1757.5,-413.32 1897.25,-413.32 1897.25,-443.82"/>
<text text-anchor="start" x="1765.5" y="-430.32" font-family="Helvetica,sans-Serif" font-size="10.00">AQNWB::NWB::TimeSeries</text>
<text text-anchor="middle" x="1827.38" y="-419.07" font-family="Helvetica,sans-Serif" font-size="10.00">::readTimestampsInterval</text>
</a>
</g>
</g>
<!-- Node13&#45;&gt;Node14 -->
<g id="edge13_Node000013_Node000014" class="edge">
<title>Node13&#45;&gt;Node14</title>
<g id="a_edge13_Node000013_Node000014"><a xlink:title=" ">
<path fill="none" stroke="#63b8ff" d="M1921.66,-428.57C1913.62,-428.57 1905.5,-428.57 1897.59,-428.57"/>
<polygon fill="#63b8ff" stroke="#63b8ff" points="1921.44,-432.07 1931.44,-428.57 1921.44,-425.07 1921.44,-432.07"/>
</a>
</g>
</g>
<!-- Node15 -->
<g id="Node000015" class="node">
<title>Node15</title>
<g id="a_Node000015"><a xlink:href="class_a_q_n_w_b_1_1_n_w_b_1_1_time_series.html#aad84484dbd8b930702c8c8c5408694b1" target="_top" xlink:title=" ">
<polygon fill="white" stroke="#666666" points="1721.5,-443.82 1581.75,-443.82 1581.75,-413.32 1721.5,-413.32 1721.5,-443.82"/>
<text text-anchor="start" x="1589.75" y="-430.32" font-family="Helvetica,sans-Serif" font-size="10.00">AQNWB::NWB::TimeSeries</text>
<text text-anchor="middle" x="1651.62" y="-419.07" font-family="Helvetica,sans-Serif" font-size="10.00">::readTimestamps</text>
</a>
</g>
</g>
<!-- Node14&#45;&gt;Node15 -->
<g id="edge14_Node000014_Node000015" class="edge">
<title>Node14&#45;&gt;Node15</title>
<g id="a_edge14_Node000014_Node000015"><a xlink:title=" ">
<path fill="none" stroke="#63b8ff" d="M1745.91,-428.57C1737.87,-428.57 1729.75,-428.57 1721.84,-428.57"/>
<polygon fill="#63b8ff" stroke="#63b8ff" points="1745.69,-432.07 1755.69,-428.57 1745.69,-425.07 1745.69,-432.07"/>
</a>
</g>
</g>
<!-- Node16 -->
<g id="Node000016" class="node">
<title>Node16</title>
<g id="a_Node000016"><a xlink:href="class_a_q_n_w_b_1_1_n_w_b_1_1_time_series.html#a10c42d7daf3209d828814549062ba43b" target="_top" xlink:title=" ">
<polygon fill="white" stroke="#666666" points="1545.75,-443.82 1406,-443.82 1406,-413.32 1545.75,-413.32 1545.75,-443.82"/>
<text text-anchor="start" x="1414" y="-430.32" font-family="Helvetica,sans-Serif" font-size="10.00">AQNWB::NWB::TimeSeries</text>
<text text-anchor="middle" x="1475.88" y="-419.07" font-family="Helvetica,sans-Serif" font-size="10.00">::readStartingTimeUnit</text>
</a>
</g>
</g>
<!-- Node15&#45;&gt;Node16 -->
<g id="edge15_Node000015_Node000016" class="edge">
<title>Node15&#45;&gt;Node16</title>
<g id="a_edge15_Node000015_Node000016"><a xlink:title=" ">
<path fill="none" stroke="#63b8ff" d="M1570.16,-428.57C1562.12,-428.57 1554,-428.57 1546.09,-428.57"/>
<polygon fill="#63b8ff" stroke="#63b8ff" points="1569.94,-432.07 1579.94,-428.57 1569.94,-425.07 1569.94,-432.07"/>
</a>
</g>
</g>
<!-- Node17 -->
<g id="Node000017" class="node">
<title>Node17</title>
<g id="a_Node000017"><a xlink:href="class_a_q_n_w_b_1_1_n_w_b_1_1_time_series.html#a432eacaa5461a2adb7c74b8163109690" target="_top" xlink:title=" ">
<polygon fill="white" stroke="#666666" points="1370,-443.82 1230.25,-443.82 1230.25,-413.32 1370,-413.32 1370,-443.82"/>
<text text-anchor="start" x="1238.25" y="-430.32" font-family="Helvetica,sans-Serif" font-size="10.00">AQNWB::NWB::TimeSeries</text>
<text text-anchor="middle" x="1300.12" y="-419.07" font-family="Helvetica,sans-Serif" font-size="10.00">::readStartingTimeRate</text>
</a>
</g>
</g>
<!-- Node16&#45;&gt;Node17 -->
<g id="edge16_Node000016_Node000017" class="edge">
<title>Node16&#45;&gt;Node17</title>
<g id="a_edge16_Node000016_Node000017"><a xlink:title=" ">
<path fill="none" stroke="#63b8ff" d="M1394.41,-428.57C1386.37,-428.57 1378.25,-428.57 1370.34,-428.57"/>
<polygon fill="#63b8ff" stroke="#63b8ff" points="1394.19,-432.07 1404.19,-428.57 1394.19,-425.07 1394.19,-432.07"/>
</a>
</g>
</g>
<!-- Node18 -->
<g id="Node000018" class="node">
<title>Node18</title>
<g id="a_Node000018"><a xlink:href="class_a_q_n_w_b_1_1_n_w_b_1_1_time_series.html#a0d48a3a5d1f7468ae1e48226969f30c3" target="_top" xlink:title=" ">
<polygon fill="white" stroke="#666666" points="1194.25,-443.82 1054.5,-443.82 1054.5,-413.32 1194.25,-413.32 1194.25,-443.82"/>
<text text-anchor="start" x="1062.5" y="-430.32" font-family="Helvetica,sans-Serif" font-size="10.00">AQNWB::NWB::TimeSeries</text>
<text text-anchor="middle" x="1124.38" y="-419.07" font-family="Helvetica,sans-Serif" font-size="10.00">::readStartingTime</text>
</a>
</g>
</g>
<!-- Node17&#45;&gt;Node18 -->
<g id="edge17_Node000017_Node000018" class="edge">
<title>Node17&#45;&gt;Node18</title>
<g id="a_edge17_Node000017_Node000018"><a xlink:title=" ">
<path fill="none" stroke="#63b8ff" d="M1218.66,-428.57C1210.62,-428.57 1202.5,-428.57 1194.59,-428.57"/>
<polygon fill="#63b8ff" stroke="#63b8ff" points="1218.44,-432.07 1228.44,-428.57 1218.44,-425.07 1218.44,-432.07"/>
</a>
</g>
</g>
<!-- Node19 -->
<g id="Node000019" class="node">
<title>Node19</title>
<g id="a_Node000019"><a xlink:href="class_a_q_n_w_b_1_1_n_w_b_1_1_time_series.html#a7b9e5f855ab7ae45e6b9d66e8c21cacb" target="_top" xlink:title=" ">
<polygon fill="white" stroke="#666666" points="1018.5,-443.82 878.75,-443.82 878.75,-413.32 1018.5,-413.32 1018.5,-443.82"/>
<text text-anchor="start" x="886.75" y="-430.32" font-family="Helvetica,sans-Serif" font-size="10.00">AQNWB::NWB::TimeSeries</text>
<text text-anchor="middle" x="948.62" y="-419.07" font-family="Helvetica,sans-Serif" font-size="10.00">::readDataContinuity</text>
</a>
</g>
</g>
<!-- Node18&#45;&gt;Node19 -->
<g id="edge18_Node000018_Node000019" class="edge">
<title>Node18&#45;&gt;Node19</title>
<g id="a_edge18_Node000018_Node000019"><a xlink:title=" ">
<path fill="none" stroke="#63b8ff" d="M1042.91,-428.57C1034.87,-428.57 1026.75,-428.57 1018.84,-428.57"/>
<polygon fill="#63b8ff" stroke="#63b8ff" points="1042.69,-432.07 1052.69,-428.57 1042.69,-425.07 1042.69,-432.07"/>
</a>
</g>
</g>
<!-- Node20 -->
<g id="Node000020" class="node">
<title>Node20</title>
<g id="a_Node000020"><a xlink:href="class_a_q_n_w_b_1_1_n_w_b_1_1_time_series.html#a5d7201b7efb3109e03172a7d383c8b45" target="_top" xlink:title=" ">
<polygon fill="white" stroke="#666666" points="842.75,-443.82 703,-443.82 703,-413.32 842.75,-413.32 842.75,-443.82"/>
<text text-anchor="start" x="711" y="-430.32" font-family="Helvetica,sans-Serif" font-size="10.00">AQNWB::NWB::TimeSeries</text>
<text text-anchor="middle" x="772.88" y="-419.07" font-family="Helvetica,sans-Serif" font-size="10.00">::readDataUnit</text>
</a>
</g>
</g>
<!-- Node19&#45;&gt;Node20 -->
<g id="edge19_Node000019_Node000020" class="edge">
<title>Node19&#45;&gt;Node20</title>
<g id="a_edge19_Node000019_Node000020"><a xlink:title=" ">
<path fill="none" stroke="#63b8ff" d="M867.16,-428.57C859.12,-428.57 851,-428.57 843.09,-428.57"/>
<polygon fill="#63b8ff" stroke="#63b8ff" points="866.94,-432.07 876.94,-428.57 866.94,-425.07 866.94,-432.07"/>
</a>
</g>
</g>
<!-- Node21 -->
<g id="Node000021" class="node">
<title>Node21</title>
<g id="a_Node000021"><a xlink:href="class_a_q_n_w_b_1_1_n_w_b_1_1_time_series.html#adf83d074710318ecd17f056deecf6f73" target="_top" xlink:title=" ">
<polygon fill="white" stroke="#666666" points="667,-443.82 527.25,-443.82 527.25,-413.32 667,-413.32 667,-443.82"/>
<text text-anchor="start" x="535.25" y="-430.32" font-family="Helvetica,sans-Serif" font-size="10.00">AQNWB::NWB::TimeSeries</text>
<text text-anchor="middle" x="597.12" y="-419.07" font-family="Helvetica,sans-Serif" font-size="10.00">::readDataResolution</text>
</a>
</g>
</g>
<!-- Node20&#45;&gt;Node21 -->
<g id="edge20_Node000020_Node000021" class="edge">
<title>Node20&#45;&gt;Node21</title>
<g id="a_edge20_Node000020_Node000021"><a xlink:title=" ">
<path fill="none" stroke="#63b8ff" d="M691.41,-428.57C683.37,-428.57 675.25,-428.57 667.34,-428.57"/>
<polygon fill="#63b8ff" stroke="#63b8ff" points="691.19,-432.07 701.19,-428.57 691.19,-425.07 691.19,-432.07"/>
</a>
</g>
</g>
<!-- Node22 -->
<g id="Node000022" class="node">
<title>Node22</title>
<g id="a_Node000022"><a xlink:href="class_a_q_n_w_b_1_1_n_w_b_1_1_time_series.html#a8e935bfd8eea957ae42d5ea752d802b4" target="_top" xlink:title=" ">
<polygon fill="white" stroke="#666666" points="491.25,-443.82 351.5,-443.82 351.5,-413.32 491.25,-413.32 491.25,-443.82"/>
<text text-anchor="start" x="359.5" y="-430.32" font-family="Helvetica,sans-Serif" font-size="10.00">AQNWB::NWB::TimeSeries</text>
<text text-anchor="middle" x="421.38" y="-419.07" font-family="Helvetica,sans-Serif" font-size="10.00">::readDataOffset</text>
</a>
</g>
</g>
<!-- Node21&#45;&gt;Node22 -->
<g id="edge21_Node000021_Node000022" class="edge">
<title>Node21&#45;&gt;Node22</title>
<g id="a_edge21_Node000021_Node000022"><a xlink:title=" ">
<path fill="none" stroke="#63b8ff" d="M515.66,-428.57C507.62,-428.57 499.5,-428.57 491.59,-428.57"/>
<polygon fill="#63b8ff" stroke="#63b8ff" points="515.44,-432.07 525.44,-428.57 515.44,-425.07 515.44,-432.07"/>
</a>
</g>
</g>
<!-- Node23 -->
<g id="Node000023" class="node">
<title>Node23</title>
<g id="a_Node000023"><a xlink:href="class_a_q_n_w_b_1_1_n_w_b_1_1_time_series.html#af65664bc3483cb62388ccada3b0cb304" target="_top" xlink:title=" ">
<polygon fill="white" stroke="#666666" points="315.5,-443.82 175.75,-443.82 175.75,-413.32 315.5,-413.32 315.5,-443.82"/>
<text text-anchor="start" x="183.75" y="-430.32" font-family="Helvetica,sans-Serif" font-size="10.00">AQNWB::NWB::TimeSeries</text>
<text text-anchor="middle" x="245.62" y="-419.07" font-family="Helvetica,sans-Serif" font-size="10.00">::readDataConversion</text>
</a>
</g>
</g>
<!-- Node22&#45;&gt;Node23 -->
<g id="edge22_Node000022_Node000023" class="edge">
<title>Node22&#45;&gt;Node23</title>
<g id="a_edge22_Node000022_Node000023"><a xlink:title=" ">
<path fill="none" stroke="#63b8ff" d="M339.91,-428.57C331.87,-428.57 323.75,-428.57 315.84,-428.57"/>
<polygon fill="#63b8ff" stroke="#63b8ff" points="339.69,-432.07 349.69,-428.57 339.69,-425.07 339.69,-432.07"/>
</a>
</g>
</g>
<!-- Node24 -->
<g id="Node000024" class="node">
<title>Node24</title>
<g id="a_Node000024"><a xlink:href="class_a_q_n_w_b_1_1_n_w_b_1_1_time_series.html#a8a43d4c249f6865ee4f77c58a91b6546" target="_top" xlink:title=" ">
<polygon fill="white" stroke="#666666" points="139.75,-443.82 0,-443.82 0,-413.32 139.75,-413.32 139.75,-443.82"/>
<text text-anchor="start" x="8" y="-430.32" font-family="Helvetica,sans-Serif" font-size="10.00">AQNWB::NWB::TimeSeries</text>
<text text-anchor="middle" x="69.88" y="-419.07" font-family="Helvetica,sans-Serif" font-size="10.00">::readData</text>
</a>
</g>
</g>
<!-- Node23&#45;&gt;Node24 -->
<g id="edge23_Node000023_Node000024" class="edge">
<title>Node23&#45;&gt;Node24</title>
<g id="a_edge23_Node000023_Node000024"><a xlink:title=" ">
<path fill="none" stroke="#63b8ff" d="M164.16,-428.57C156.12,-428.57 148,-428.57 140.09,-428.57"/>
<polygon fill="#63b8ff" stroke="#63b8ff" points="163.94,-432.07 173.94,-428.57 163.94,-425.07 163.94,-432.07"/>
</a>
</g>
</g>
<!-- Node24&#45;&gt;Node24 -->
<g id="edge24_Node000024_Node000024" class="edge">
<title>Node24&#45;&gt;Node24</title>
<g id="a_edge24_Node000024_Node000024"><a xlink:title=" ">
<path fill="none" stroke="#63b8ff" d="M99.35,-455.52C94.53,-459.29 84.7,-461.82 69.88,-461.82 42.76,-461.82 32.38,-453.37 38.73,-444.3"/>
<polygon fill="#63b8ff" stroke="#63b8ff" points="102.78,-456.2 100.8,-445.8 95.86,-455.17 102.78,-456.2"/>
</a>
</g>
</g>
<!-- Node30&#45;&gt;Node25 -->
<g id="edge31_Node000030_Node000025" class="edge">
<title>Node30&#45;&gt;Node25</title>
<g id="a_edge31_Node000030_Node000025"><a xlink:title=" ">
<path fill="none" stroke="#63b8ff" d="M2464.12,-114.02C2451.77,-116.29 2439.3,-118.58 2427.54,-120.74"/>
<polygon fill="#63b8ff" stroke="#63b8ff" points="2464.7,-117.47 2473.9,-112.23 2463.43,-110.59 2464.7,-117.47"/>
</a>
</g>
</g>
<!-- Node30&#45;&gt;Node26 -->
<g id="edge32_Node000030_Node000026" class="edge">
<title>Node30&#45;&gt;Node26</title>
<g id="a_edge32_Node000030_Node000026"><a xlink:title=" ">
<path fill="none" stroke="#63b8ff" d="M2464.12,-81.11C2451.77,-78.84 2439.3,-76.55 2427.54,-74.39"/>
<polygon fill="#63b8ff" stroke="#63b8ff" points="2463.43,-84.54 2473.9,-82.91 2464.7,-77.66 2463.43,-84.54"/>
</a>
</g>
</g>
<!-- Node32&#45;&gt;Node4 -->
<g id="edge36_Node000032_Node000004" class="edge">
<title>Node32&#45;&gt;Node4</title>
<g id="a_edge36_Node000032_Node000004"><a xlink:title=" ">
<path fill="none" stroke="#63b8ff" d="M2466.83,-341.51C2457.85,-342.64 2448.76,-343.78 2439.9,-344.9"/>
<polygon fill="#63b8ff" stroke="#63b8ff" points="2467.15,-345 2476.63,-340.27 2466.28,-338.05 2467.15,-345"/>
</a>
</g>
</g>
</g>
</svg>
