<?xml version="1.0" encoding="UTF-8" standalone="no"?>
<!DOCTYPE svg PUBLIC "-//W3C//DTD SVG 1.1//EN"
 "http://www.w3.org/Graphics/SVG/1.1/DTD/svg11.dtd">
<!-- Generated by graphviz version 2.43.0 (0)
 -->
<!-- Title: src/nwb/NWBFile.hpp Pages: 1 -->
<svg width="479pt" height="308pt"
 viewBox="0.00 0.00 479.00 308.00" xmlns="http://www.w3.org/2000/svg" xmlns:xlink="http://www.w3.org/1999/xlink">
<g id="graph0" class="graph" transform="scale(1 1) rotate(0) translate(4 304)">
<title>src/nwb/NWBFile.hpp</title>
<polygon fill="white" stroke="transparent" points="-4,4 -4,-304 475,-304 475,4 -4,4"/>
<!-- Node1 -->
<g id="node1" class="node">
<title>Node1</title>
<g id="a_node1"><a xlink:title=" ">
<polygon fill="#bfbfbf" stroke="black" points="128.5,-280.5 128.5,-299.5 247.5,-299.5 247.5,-280.5 128.5,-280.5"/>
<text text-anchor="middle" x="188" y="-287.5" font-family="Helvetica,sans-Serif" font-size="10.00">src/nwb/NWBFile.hpp</text>
</a>
</g>
</g>
<!-- Node2 -->
<g id="node2" class="node">
<title>Node2</title>
<g id="a_node2"><a xlink:title=" ">
<polygon fill="white" stroke="#bfbfbf" points="0,-56.5 0,-75.5 50,-75.5 50,-56.5 0,-56.5"/>
<text text-anchor="middle" x="25" y="-63.5" font-family="Helvetica,sans-Serif" font-size="10.00">cstdint</text>
</a>
</g>
</g>
<!-- Node1&#45;&gt;Node2 -->
<g id="edge1" class="edge">
<title>Node1&#45;&gt;Node2</title>
<path fill="none" stroke="midnightblue" d="M175.94,-280.24C164.78,-271.76 148.12,-258.14 136,-244 90.64,-191.1 50.85,-117.91 33.81,-84.68"/>
<polygon fill="midnightblue" stroke="midnightblue" points="36.91,-83.06 29.27,-75.72 30.67,-86.22 36.91,-83.06"/>
</g>
<!-- Node3 -->
<g id="node3" class="node">
<title>Node3</title>
<g id="a_node3"><a xlink:title=" ">
<polygon fill="white" stroke="#bfbfbf" points="330,-56.5 330,-75.5 388,-75.5 388,-56.5 330,-56.5"/>
<text text-anchor="middle" x="359" y="-63.5" font-family="Helvetica,sans-Serif" font-size="10.00">memory</text>
</a>
</g>
</g>
<!-- Node1&#45;&gt;Node3 -->
<g id="edge2" class="edge">
<title>Node1&#45;&gt;Node3</title>
<path fill="none" stroke="midnightblue" d="M247.65,-281.72C302.51,-271.4 380.29,-246.69 414,-188 434.75,-151.87 398.86,-106.5 375.91,-82.91"/>
<polygon fill="midnightblue" stroke="midnightblue" points="378.29,-80.34 368.72,-75.79 373.36,-85.31 378.29,-80.34"/>
</g>
<!-- Node4 -->
<g id="node4" class="node">
<title>Node4</title>
<g id="a_node4"><a xlink:title=" ">
<polygon fill="white" stroke="#bfbfbf" points="216.5,-0.5 216.5,-19.5 263.5,-19.5 263.5,-0.5 216.5,-0.5"/>
<text text-anchor="middle" x="240" y="-7.5" font-family="Helvetica,sans-Serif" font-size="10.00">vector</text>
</a>
</g>
</g>
<!-- Node1&#45;&gt;Node4 -->
<g id="edge3" class="edge">
<title>Node1&#45;&gt;Node4</title>
<path fill="none" stroke="midnightblue" d="M247.64,-281.7C287.34,-275.31 339.92,-263.83 383,-244 427.17,-223.66 471,-227.62 471,-179 471,-179 471,-179 471,-121 471,-34.74 338.08,-16.05 273.9,-12.06"/>
<polygon fill="midnightblue" stroke="midnightblue" points="274.02,-8.56 263.85,-11.52 273.65,-15.55 274.02,-8.56"/>
</g>
<!-- Node5 -->
<g id="node5" class="node">
<title>Node5</title>
<g id="a_node5"><a xlink:href="BaseIO_8hpp.html" target="_top" xlink:title=" ">
<polygon fill="white" stroke="black" points="135,-112.5 135,-131.5 207,-131.5 207,-112.5 135,-112.5"/>
<text text-anchor="middle" x="171" y="-119.5" font-family="Helvetica,sans-Serif" font-size="10.00">BaseIO.hpp</text>
</a>
</g>
</g>
<!-- Node1&#45;&gt;Node5 -->
<g id="edge4" class="edge">
<title>Node1&#45;&gt;Node5</title>
<path fill="none" stroke="midnightblue" d="M179.79,-280.18C172.46,-271.66 162.24,-258.02 158,-244 147.33,-208.75 157.22,-165.41 164.61,-141.33"/>
<polygon fill="midnightblue" stroke="midnightblue" points="167.97,-142.32 167.75,-131.73 161.32,-140.14 167.97,-142.32"/>
</g>
<!-- Node8 -->
<g id="node8" class="node">
<title>Node8</title>
<g id="a_node8"><a xlink:href="Types_8hpp.html" target="_top" xlink:title=" ">
<polygon fill="white" stroke="black" points="68.5,-56.5 68.5,-75.5 133.5,-75.5 133.5,-56.5 68.5,-56.5"/>
<text text-anchor="middle" x="101" y="-63.5" font-family="Helvetica,sans-Serif" font-size="10.00">Types.hpp</text>
</a>
</g>
</g>
<!-- Node1&#45;&gt;Node8 -->
<g id="edge13" class="edge">
<title>Node1&#45;&gt;Node8</title>
<path fill="none" stroke="midnightblue" d="M178.54,-280.22C169.93,-271.73 157.45,-258.11 150,-244 121.77,-190.53 108.48,-119.15 103.48,-85.73"/>
<polygon fill="midnightblue" stroke="midnightblue" points="106.91,-85 102.05,-75.59 99.98,-85.98 106.91,-85"/>
</g>
<!-- Node10 -->
<g id="node10" class="node">
<title>Node10</title>
<g id="a_node10"><a xlink:href="TimeSeries_8hpp.html" target="_top" xlink:title=" ">
<polygon fill="white" stroke="black" points="167,-224.5 167,-243.5 309,-243.5 309,-224.5 167,-224.5"/>
<text text-anchor="middle" x="238" y="-231.5" font-family="Helvetica,sans-Serif" font-size="10.00">nwb/base/TimeSeries.hpp</text>
</a>
</g>
</g>
<!-- Node1&#45;&gt;Node10 -->
<g id="edge14" class="edge">
<title>Node1&#45;&gt;Node10</title>
<path fill="none" stroke="midnightblue" d="M196.26,-280.08C203.46,-272.3 214.11,-260.8 222.85,-251.37"/>
<polygon fill="midnightblue" stroke="midnightblue" points="225.67,-253.47 229.9,-243.75 220.53,-248.71 225.67,-253.47"/>
</g>
<!-- Node5&#45;&gt;Node2 -->
<g id="edge5" class="edge">
<title>Node5&#45;&gt;Node2</title>
<path fill="none" stroke="midnightblue" d="M147.87,-112.44C123.52,-103.44 84.99,-89.19 57.58,-79.05"/>
<polygon fill="midnightblue" stroke="midnightblue" points="58.62,-75.7 48.03,-75.52 56.19,-82.27 58.62,-75.7"/>
</g>
<!-- Node5&#45;&gt;Node3 -->
<g id="edge7" class="edge">
<title>Node5&#45;&gt;Node3</title>
<path fill="none" stroke="midnightblue" d="M200.79,-112.44C233.02,-103.19 284.54,-88.39 319.98,-78.21"/>
<polygon fill="midnightblue" stroke="midnightblue" points="321.32,-81.46 329.97,-75.34 319.39,-74.74 321.32,-81.46"/>
</g>
<!-- Node5&#45;&gt;Node4 -->
<g id="edge9" class="edge">
<title>Node5&#45;&gt;Node4</title>
<path fill="none" stroke="midnightblue" d="M184.37,-112.19C195.7,-104.08 211.55,-91.03 221,-76 229.9,-61.85 234.77,-43.36 237.35,-29.73"/>
<polygon fill="midnightblue" stroke="midnightblue" points="240.84,-30.05 239.01,-19.61 233.93,-28.91 240.84,-30.05"/>
</g>
<!-- Node6 -->
<g id="node6" class="node">
<title>Node6</title>
<g id="a_node6"><a xlink:title=" ">
<polygon fill="white" stroke="#bfbfbf" points="152,-56.5 152,-75.5 212,-75.5 212,-56.5 152,-56.5"/>
<text text-anchor="middle" x="182" y="-63.5" font-family="Helvetica,sans-Serif" font-size="10.00">iostream</text>
</a>
</g>
</g>
<!-- Node5&#45;&gt;Node6 -->
<g id="edge6" class="edge">
<title>Node5&#45;&gt;Node6</title>
<path fill="none" stroke="midnightblue" d="M172.82,-112.08C174.27,-104.93 176.37,-94.64 178.19,-85.69"/>
<polygon fill="midnightblue" stroke="midnightblue" points="181.65,-86.25 180.22,-75.75 174.79,-84.85 181.65,-86.25"/>
</g>
<!-- Node7 -->
<g id="node7" class="node">
<title>Node7</title>
<g id="a_node7"><a xlink:title=" ">
<polygon fill="white" stroke="#bfbfbf" points="268,-56.5 268,-75.5 312,-75.5 312,-56.5 268,-56.5"/>
<text text-anchor="middle" x="290" y="-63.5" font-family="Helvetica,sans-Serif" font-size="10.00">string</text>
</a>
</g>
</g>
<!-- Node5&#45;&gt;Node7 -->
<g id="edge8" class="edge">
<title>Node5&#45;&gt;Node7</title>
<path fill="none" stroke="midnightblue" d="M189.86,-112.44C209.27,-103.64 239.73,-89.81 261.96,-79.72"/>
<polygon fill="midnightblue" stroke="midnightblue" points="263.57,-82.84 271.23,-75.52 260.68,-76.46 263.57,-82.84"/>
</g>
<!-- Node5&#45;&gt;Node8 -->
<g id="edge10" class="edge">
<title>Node5&#45;&gt;Node8</title>
<path fill="none" stroke="midnightblue" d="M159.75,-112.32C149.2,-104.18 133.2,-91.84 120.56,-82.09"/>
<polygon fill="midnightblue" stroke="midnightblue" points="122.51,-79.17 112.45,-75.83 118.23,-84.71 122.51,-79.17"/>
</g>
<!-- Node8&#45;&gt;Node4 -->
<g id="edge12" class="edge">
<title>Node8&#45;&gt;Node4</title>
<path fill="none" stroke="midnightblue" d="M123.02,-56.44C146.1,-47.48 182.56,-33.31 208.64,-23.18"/>
<polygon fill="midnightblue" stroke="midnightblue" points="210.02,-26.4 218.08,-19.52 207.49,-19.88 210.02,-26.4"/>
</g>
<!-- Node9 -->
<g id="node9" class="node">
<title>Node9</title>
<g id="a_node9"><a xlink:title=" ">
<polygon fill="white" stroke="#bfbfbf" points="74.5,-0.5 74.5,-19.5 127.5,-19.5 127.5,-0.5 74.5,-0.5"/>
<text text-anchor="middle" x="101" y="-7.5" font-family="Helvetica,sans-Serif" font-size="10.00">cstddef</text>
</a>
</g>
</g>
<!-- Node8&#45;&gt;Node9 -->
<g id="edge11" class="edge">
<title>Node8&#45;&gt;Node9</title>
<path fill="none" stroke="midnightblue" d="M101,-56.08C101,-49.01 101,-38.86 101,-29.99"/>
<polygon fill="midnightblue" stroke="midnightblue" points="104.5,-29.75 101,-19.75 97.5,-29.75 104.5,-29.75"/>
</g>
<!-- Node10&#45;&gt;Node5 -->
<g id="edge16" class="edge">
<title>Node10&#45;&gt;Node5</title>
<path fill="none" stroke="midnightblue" d="M229.62,-224.22C221.6,-215.51 209.49,-201.54 201,-188 191.62,-173.05 183.41,-154.68 177.97,-141.29"/>
<polygon fill="midnightblue" stroke="midnightblue" points="181.14,-139.8 174.22,-131.77 174.63,-142.36 181.14,-139.8"/>
</g>
<!-- Node10&#45;&gt;Node7 -->
<g id="edge15" class="edge">
<title>Node10&#45;&gt;Node7</title>
<path fill="none" stroke="midnightblue" d="M235.8,-224.42C232.95,-211.83 228.9,-187.7 234,-168 242.33,-135.81 263.37,-102.93 277.16,-83.77"/>
<polygon fill="midnightblue" stroke="midnightblue" points="280.12,-85.65 283.26,-75.53 274.49,-81.49 280.12,-85.65"/>
</g>
<!-- Node11 -->
<g id="node11" class="node">
<title>Node11</title>
<g id="a_node11"><a xlink:href="Container_8hpp.html" target="_top" xlink:title=" ">
<polygon fill="white" stroke="black" points="243,-168.5 243,-187.5 405,-187.5 405,-168.5 243,-168.5"/>
<text text-anchor="middle" x="324" y="-175.5" font-family="Helvetica,sans-Serif" font-size="10.00">nwb/hdmf/base/Container.hpp</text>
</a>
</g>
</g>
<!-- Node10&#45;&gt;Node11 -->
<g id="edge17" class="edge">
<title>Node10&#45;&gt;Node11</title>
<path fill="none" stroke="midnightblue" d="M251.82,-224.32C265.23,-215.9 285.82,-202.97 301.59,-193.07"/>
<polygon fill="midnightblue" stroke="midnightblue" points="303.61,-195.94 310.22,-187.65 299.89,-190.01 303.61,-195.94"/>
</g>
<!-- Node11&#45;&gt;Node3 -->
<g id="edge18" class="edge">
<title>Node11&#45;&gt;Node3</title>
<path fill="none" stroke="midnightblue" d="M326.75,-168.37C332.42,-150.54 345.54,-109.3 353.19,-85.27"/>
<polygon fill="midnightblue" stroke="midnightblue" points="356.57,-86.18 356.27,-75.59 349.9,-84.06 356.57,-86.18"/>
</g>
<!-- Node11&#45;&gt;Node5 -->
<g id="edge20" class="edge">
<title>Node11&#45;&gt;Node5</title>
<path fill="none" stroke="midnightblue" d="M299.76,-168.44C274.13,-159.4 233.51,-145.06 204.76,-134.92"/>
<polygon fill="midnightblue" stroke="midnightblue" points="205.72,-131.54 195.13,-131.52 203.39,-138.15 205.72,-131.54"/>
</g>
<!-- Node11&#45;&gt;Node7 -->
<g id="edge19" class="edge">
<title>Node11&#45;&gt;Node7</title>
<path fill="none" stroke="midnightblue" d="M321.33,-168.37C315.82,-150.54 303.07,-109.3 295.65,-85.27"/>
<polygon fill="midnightblue" stroke="midnightblue" points="298.95,-84.11 292.66,-75.59 292.26,-86.18 298.95,-84.11"/>
</g>
</g>
</svg>
