<?xml version="1.0" encoding="UTF-8" standalone="no"?>
<!DOCTYPE svg PUBLIC "-//W3C//DTD SVG 1.1//EN"
 "http://www.w3.org/Graphics/SVG/1.1/DTD/svg11.dtd">
<!-- Generated by graphviz version 2.43.0 (0)
 -->
<!-- Title: src/nwb/NWBFile.cpp Pages: 1 -->
<svg width="2326pt" height="431pt"
 viewBox="0.00 0.00 2326.00 431.00" xmlns="http://www.w3.org/2000/svg" xmlns:xlink="http://www.w3.org/1999/xlink">
<g id="graph0" class="graph" transform="scale(1 1) rotate(0) translate(4 427)">
<title>src/nwb/NWBFile.cpp</title>
<polygon fill="white" stroke="transparent" points="-4,4 -4,-427 2322,-427 2322,4 -4,4"/>
<!-- Node1 -->
<g id="node1" class="node">
<title>Node1</title>
<g id="a_node1"><a xlink:title=" ">
<polygon fill="#bfbfbf" stroke="black" points="874.5,-403.5 874.5,-422.5 993.5,-422.5 993.5,-403.5 874.5,-403.5"/>
<text text-anchor="middle" x="934" y="-410.5" font-family="Helvetica,sans-Serif" font-size="10.00">src/nwb/NWBFile.cpp</text>
</a>
</g>
</g>
<!-- Node2 -->
<g id="node2" class="node">
<title>Node2</title>
<g id="a_node2"><a xlink:title=" ">
<polygon fill="white" stroke="#bfbfbf" points="0,-347.5 0,-366.5 68,-366.5 68,-347.5 0,-347.5"/>
<text text-anchor="middle" x="34" y="-354.5" font-family="Helvetica,sans-Serif" font-size="10.00">filesystem</text>
</a>
</g>
</g>
<!-- Node1&#45;&gt;Node2 -->
<g id="edge1" class="edge">
<title>Node1&#45;&gt;Node2</title>
<path fill="none" stroke="midnightblue" d="M874.49,-412.02C736.27,-411.38 382.76,-405.86 78.53,-366.99"/>
<polygon fill="midnightblue" stroke="midnightblue" points="78.55,-363.46 68.19,-365.65 77.66,-370.4 78.55,-363.46"/>
</g>
<!-- Node3 -->
<g id="node3" class="node">
<title>Node3</title>
<g id="a_node3"><a xlink:title=" ">
<polygon fill="white" stroke="#bfbfbf" points="86.5,-347.5 86.5,-366.5 141.5,-366.5 141.5,-347.5 86.5,-347.5"/>
<text text-anchor="middle" x="114" y="-354.5" font-family="Helvetica,sans-Serif" font-size="10.00">fstream</text>
</a>
</g>
</g>
<!-- Node1&#45;&gt;Node3 -->
<g id="edge2" class="edge">
<title>Node1&#45;&gt;Node3</title>
<path fill="none" stroke="midnightblue" d="M874.16,-411.66C743.31,-410.23 422.14,-403 156,-367 154.71,-366.83 153.4,-366.63 152.08,-366.43"/>
<polygon fill="midnightblue" stroke="midnightblue" points="152.37,-362.92 141.91,-364.6 151.14,-369.81 152.37,-362.92"/>
</g>
<!-- Node4 -->
<g id="node4" class="node">
<title>Node4</title>
<g id="a_node4"><a xlink:title=" ">
<polygon fill="white" stroke="#bfbfbf" points="1000,-286 1000,-305 1056,-305 1056,-286 1000,-286"/>
<text text-anchor="middle" x="1028" y="-293" font-family="Helvetica,sans-Serif" font-size="10.00">iomanip</text>
</a>
</g>
</g>
<!-- Node1&#45;&gt;Node4 -->
<g id="edge3" class="edge">
<title>Node1&#45;&gt;Node4</title>
<path fill="none" stroke="midnightblue" d="M941.07,-403.32C956.65,-384.17 994.19,-338.04 1014.47,-313.13"/>
<polygon fill="midnightblue" stroke="midnightblue" points="1017.26,-315.25 1020.85,-305.28 1011.83,-310.83 1017.26,-315.25"/>
</g>
<!-- Node5 -->
<g id="node5" class="node">
<title>Node5</title>
<g id="a_node5"><a xlink:title=" ">
<polygon fill="white" stroke="#bfbfbf" points="1869,-56.5 1869,-75.5 1929,-75.5 1929,-56.5 1869,-56.5"/>
<text text-anchor="middle" x="1899" y="-63.5" font-family="Helvetica,sans-Serif" font-size="10.00">iostream</text>
</a>
</g>
</g>
<!-- Node1&#45;&gt;Node5 -->
<g id="edge4" class="edge">
<title>Node1&#45;&gt;Node5</title>
<path fill="none" stroke="midnightblue" d="M993.61,-411.89C1223.72,-411.16 2046.86,-405.85 2157,-367 2205.14,-350.02 2256.51,-324.78 2232,-280 2168.66,-164.29 2012.71,-102.26 1938.93,-78.53"/>
<polygon fill="midnightblue" stroke="midnightblue" points="1939.67,-75.1 1929.08,-75.44 1937.57,-81.77 1939.67,-75.1"/>
</g>
<!-- Node6 -->
<g id="node6" class="node">
<title>Node6</title>
<g id="a_node6"><a xlink:title=" ">
<polygon fill="white" stroke="#bfbfbf" points="2280,-347.5 2280,-366.5 2318,-366.5 2318,-347.5 2280,-347.5"/>
<text text-anchor="middle" x="2299" y="-354.5" font-family="Helvetica,sans-Serif" font-size="10.00">map</text>
</a>
</g>
</g>
<!-- Node1&#45;&gt;Node6 -->
<g id="edge5" class="edge">
<title>Node1&#45;&gt;Node6</title>
<path fill="none" stroke="midnightblue" d="M993.73,-411.82C1218.79,-410.88 2015.48,-404.87 2266,-367 2267.29,-366.81 2268.6,-366.58 2269.92,-366.32"/>
<polygon fill="midnightblue" stroke="midnightblue" points="2271.01,-369.66 2279.97,-364 2269.43,-362.84 2271.01,-369.66"/>
</g>
<!-- Node7 -->
<g id="node7" class="node">
<title>Node7</title>
<g id="a_node7"><a xlink:title=" ">
<polygon fill="white" stroke="#bfbfbf" points="1074,-286 1074,-305 1130,-305 1130,-286 1074,-286"/>
<text text-anchor="middle" x="1102" y="-293" font-family="Helvetica,sans-Serif" font-size="10.00">sstream</text>
</a>
</g>
</g>
<!-- Node1&#45;&gt;Node7 -->
<g id="edge6" class="edge">
<title>Node1&#45;&gt;Node7</title>
<path fill="none" stroke="midnightblue" d="M946.63,-403.32C975.21,-383.67 1045.11,-335.61 1080.59,-311.22"/>
<polygon fill="midnightblue" stroke="midnightblue" points="1082.97,-313.83 1089.23,-305.28 1079,-308.06 1082.97,-313.83"/>
</g>
<!-- Node8 -->
<g id="node8" class="node">
<title>Node8</title>
<g id="a_node8"><a xlink:title=" ">
<polygon fill="white" stroke="#bfbfbf" points="627,-56.5 627,-75.5 671,-75.5 671,-56.5 627,-56.5"/>
<text text-anchor="middle" x="649" y="-63.5" font-family="Helvetica,sans-Serif" font-size="10.00">string</text>
</a>
</g>
</g>
<!-- Node1&#45;&gt;Node8 -->
<g id="edge7" class="edge">
<title>Node1&#45;&gt;Node8</title>
<path fill="none" stroke="midnightblue" d="M874.45,-410.43C741.25,-406.45 422.79,-394.33 319,-367 248.15,-348.34 170,-369.76 170,-296.5 170,-296.5 170,-296.5 170,-177 170,-85.13 508.97,-69.98 616.61,-67.49"/>
<polygon fill="midnightblue" stroke="midnightblue" points="616.93,-70.98 626.86,-67.28 616.79,-63.99 616.93,-70.98"/>
</g>
<!-- Node9 -->
<g id="node9" class="node">
<title>Node9</title>
<g id="a_node9"><a xlink:href="NWBFile_8hpp.html" target="_top" xlink:title=" ">
<polygon fill="white" stroke="black" points="2144.5,-286 2144.5,-305 2223.5,-305 2223.5,-286 2144.5,-286"/>
<text text-anchor="middle" x="2184" y="-293" font-family="Helvetica,sans-Serif" font-size="10.00">NWBFile.hpp</text>
</a>
</g>
</g>
<!-- Node1&#45;&gt;Node9 -->
<g id="edge8" class="edge">
<title>Node1&#45;&gt;Node9</title>
<path fill="none" stroke="midnightblue" d="M993.68,-411.16C1228.6,-407.68 2079.13,-393.31 2130,-367 2151.66,-355.8 2167.17,-331.52 2175.86,-314.61"/>
<polygon fill="midnightblue" stroke="midnightblue" points="2179.2,-315.74 2180.38,-305.21 2172.89,-312.7 2179.2,-315.74"/>
</g>
<!-- Node13 -->
<g id="node13" class="node">
<title>Node13</title>
<g id="a_node13"><a xlink:href="BaseIO_8hpp.html" target="_top" xlink:title=" ">
<polygon fill="white" stroke="black" points="1332,-112.5 1332,-131.5 1404,-131.5 1404,-112.5 1332,-112.5"/>
<text text-anchor="middle" x="1368" y="-119.5" font-family="Helvetica,sans-Serif" font-size="10.00">BaseIO.hpp</text>
</a>
</g>
</g>
<!-- Node1&#45;&gt;Node13 -->
<g id="edge29" class="edge">
<title>Node1&#45;&gt;Node13</title>
<path fill="none" stroke="midnightblue" d="M993.6,-411.43C1220.56,-408.63 2021.84,-392.97 2097,-311 2106.31,-300.84 2106.37,-290.1 2097,-280 2060.62,-240.79 1668.56,-258.23 1617,-244 1544.19,-223.91 1533.04,-200.79 1465,-168 1441.97,-156.9 1415.64,-144.72 1396.23,-135.83"/>
<polygon fill="midnightblue" stroke="midnightblue" points="1397.59,-132.6 1387.04,-131.63 1394.68,-138.97 1397.59,-132.6"/>
</g>
<!-- Node18 -->
<g id="node18" class="node">
<title>Node18</title>
<g id="a_node18"><a xlink:href="Channel_8hpp.html" target="_top" xlink:title=" ">
<polygon fill="white" stroke="black" points="1262.5,-224.5 1262.5,-243.5 1339.5,-243.5 1339.5,-224.5 1262.5,-224.5"/>
<text text-anchor="middle" x="1301" y="-231.5" font-family="Helvetica,sans-Serif" font-size="10.00">Channel.hpp</text>
</a>
</g>
</g>
<!-- Node1&#45;&gt;Node18 -->
<g id="edge30" class="edge">
<title>Node1&#45;&gt;Node18</title>
<path fill="none" stroke="midnightblue" d="M934.86,-403.48C937.77,-379.59 949.5,-311.62 991,-280 1036.87,-245.05 1191.01,-252.83 1248,-244 1249.3,-243.8 1250.61,-243.59 1251.94,-243.38"/>
<polygon fill="midnightblue" stroke="midnightblue" points="1252.92,-246.77 1262.23,-241.72 1251.8,-239.86 1252.92,-246.77"/>
</g>
<!-- Node20 -->
<g id="node20" class="node">
<title>Node20</title>
<g id="a_node20"><a xlink:href="Utils_8hpp.html" target="_top" xlink:title=" ">
<polygon fill="white" stroke="black" points="1343,-347.5 1343,-366.5 1403,-366.5 1403,-347.5 1343,-347.5"/>
<text text-anchor="middle" x="1373" y="-354.5" font-family="Helvetica,sans-Serif" font-size="10.00">Utils.hpp</text>
</a>
</g>
</g>
<!-- Node1&#45;&gt;Node20 -->
<g id="edge34" class="edge">
<title>Node1&#45;&gt;Node20</title>
<path fill="none" stroke="midnightblue" d="M993.66,-404.66C1084.46,-393.49 1254.94,-372.52 1332.6,-362.97"/>
<polygon fill="midnightblue" stroke="midnightblue" points="1333.43,-366.39 1342.93,-361.7 1332.58,-359.45 1333.43,-366.39"/>
</g>
<!-- Node30 -->
<g id="node30" class="node">
<title>Node30</title>
<g id="a_node30"><a xlink:href="Device_8hpp.html" target="_top" xlink:title=" ">
<polygon fill="white" stroke="black" points="274,-224.5 274,-243.5 404,-243.5 404,-224.5 274,-224.5"/>
<text text-anchor="middle" x="339" y="-231.5" font-family="Helvetica,sans-Serif" font-size="10.00">nwb/device/Device.hpp</text>
</a>
</g>
</g>
<!-- Node1&#45;&gt;Node30 -->
<g id="edge52" class="edge">
<title>Node1&#45;&gt;Node30</title>
<path fill="none" stroke="midnightblue" d="M874.25,-412.9C724.31,-413.71 338.82,-406.29 265,-311 256.56,-300.11 258.25,-292.01 265,-280 273.22,-265.38 288.33,-254.95 302.76,-247.85"/>
<polygon fill="midnightblue" stroke="midnightblue" points="304.4,-250.95 312.07,-243.64 301.52,-244.57 304.4,-250.95"/>
</g>
<!-- Node31 -->
<g id="node31" class="node">
<title>Node31</title>
<g id="a_node31"><a xlink:href="ElectricalSeries_8hpp.html" target="_top" xlink:title=" ">
<polygon fill="white" stroke="black" points="726.5,-286 726.5,-305 905.5,-305 905.5,-286 726.5,-286"/>
<text text-anchor="middle" x="816" y="-293" font-family="Helvetica,sans-Serif" font-size="10.00">nwb/ecephys/ElectricalSeries.hpp</text>
</a>
</g>
</g>
<!-- Node1&#45;&gt;Node31 -->
<g id="edge56" class="edge">
<title>Node1&#45;&gt;Node31</title>
<path fill="none" stroke="midnightblue" d="M925.13,-403.32C905.4,-384 857.62,-337.24 832.33,-312.48"/>
<polygon fill="midnightblue" stroke="midnightblue" points="834.57,-309.78 824.97,-305.28 829.67,-314.78 834.57,-309.78"/>
</g>
<!-- Node32 -->
<g id="node32" class="node">
<title>Node32</title>
<g id="a_node32"><a xlink:href="ElectrodeGroup_8hpp.html" target="_top" xlink:title=" ">
<polygon fill="white" stroke="black" points="274,-286 274,-305 428,-305 428,-286 274,-286"/>
<text text-anchor="middle" x="351" y="-293" font-family="Helvetica,sans-Serif" font-size="10.00">nwb/file/ElectrodeGroup.hpp</text>
</a>
</g>
</g>
<!-- Node1&#45;&gt;Node32 -->
<g id="edge61" class="edge">
<title>Node1&#45;&gt;Node32</title>
<path fill="none" stroke="midnightblue" d="M874.24,-408.98C798.64,-404.24 664.79,-392.78 553,-367 490.04,-352.48 419.37,-325.14 380.54,-309.11"/>
<polygon fill="midnightblue" stroke="midnightblue" points="381.5,-305.72 370.93,-305.1 378.81,-312.18 381.5,-305.72"/>
</g>
<!-- Node33 -->
<g id="node33" class="node">
<title>Node33</title>
<g id="a_node33"><a xlink:href="ElectrodeTable_8hpp.html" target="_top" xlink:title=" ">
<polygon fill="white" stroke="black" points="562,-347.5 562,-366.5 712,-366.5 712,-347.5 562,-347.5"/>
<text text-anchor="middle" x="637" y="-354.5" font-family="Helvetica,sans-Serif" font-size="10.00">nwb/file/ElectrodeTable.hpp</text>
</a>
</g>
</g>
<!-- Node1&#45;&gt;Node33 -->
<g id="edge66" class="edge">
<title>Node1&#45;&gt;Node33</title>
<path fill="none" stroke="midnightblue" d="M886.94,-403.44C834.59,-393.92 750.01,-378.55 693.96,-368.36"/>
<polygon fill="midnightblue" stroke="midnightblue" points="694.31,-364.86 683.84,-366.52 693.05,-371.75 694.31,-364.86"/>
</g>
<!-- Node10 -->
<g id="node10" class="node">
<title>Node10</title>
<g id="a_node10"><a xlink:title=" ">
<polygon fill="white" stroke="#bfbfbf" points="1714,-56.5 1714,-75.5 1764,-75.5 1764,-56.5 1714,-56.5"/>
<text text-anchor="middle" x="1739" y="-63.5" font-family="Helvetica,sans-Serif" font-size="10.00">cstdint</text>
</a>
</g>
</g>
<!-- Node9&#45;&gt;Node10 -->
<g id="edge9" class="edge">
<title>Node9&#45;&gt;Node10</title>
<path fill="none" stroke="midnightblue" d="M2168.88,-285.88C2121.39,-258.93 1970.71,-174.34 1842,-112 1817.89,-100.32 1790.03,-88.23 1769.36,-79.53"/>
<polygon fill="midnightblue" stroke="midnightblue" points="1770.71,-76.29 1760.13,-75.66 1768,-82.75 1770.71,-76.29"/>
</g>
<!-- Node11 -->
<g id="node11" class="node">
<title>Node11</title>
<g id="a_node11"><a xlink:title=" ">
<polygon fill="white" stroke="#bfbfbf" points="1339,-56.5 1339,-75.5 1397,-75.5 1397,-56.5 1339,-56.5"/>
<text text-anchor="middle" x="1368" y="-63.5" font-family="Helvetica,sans-Serif" font-size="10.00">memory</text>
</a>
</g>
</g>
<!-- Node9&#45;&gt;Node11 -->
<g id="edge10" class="edge">
<title>Node9&#45;&gt;Node11</title>
<path fill="none" stroke="midnightblue" d="M2153.53,-285.95C2145.87,-283.91 2137.66,-281.79 2130,-280 1927.86,-232.61 1871.04,-247.08 1672,-188 1617.61,-171.86 1463.02,-107.24 1397.71,-79.62"/>
<polygon fill="midnightblue" stroke="midnightblue" points="1398.95,-76.35 1388.38,-75.67 1396.22,-82.79 1398.95,-76.35"/>
</g>
<!-- Node12 -->
<g id="node12" class="node">
<title>Node12</title>
<g id="a_node12"><a xlink:title=" ">
<polygon fill="white" stroke="#bfbfbf" points="1939.5,-0.5 1939.5,-19.5 1986.5,-19.5 1986.5,-0.5 1939.5,-0.5"/>
<text text-anchor="middle" x="1963" y="-7.5" font-family="Helvetica,sans-Serif" font-size="10.00">vector</text>
</a>
</g>
</g>
<!-- Node9&#45;&gt;Node12 -->
<g id="edge11" class="edge">
<title>Node9&#45;&gt;Node12</title>
<path fill="none" stroke="midnightblue" d="M2184,-285.81C2184,-266.56 2184,-218.9 2184,-179 2184,-179 2184,-179 2184,-121 2184,-100.14 2056.22,-47.4 1994.98,-23.33"/>
<polygon fill="midnightblue" stroke="midnightblue" points="1995.99,-19.96 1985.41,-19.58 1993.45,-26.48 1995.99,-19.96"/>
</g>
<!-- Node9&#45;&gt;Node13 -->
<g id="edge12" class="edge">
<title>Node9&#45;&gt;Node13</title>
<path fill="none" stroke="midnightblue" d="M2156.2,-285.96C2147.85,-283.68 2138.61,-281.46 2130,-280 2022.13,-261.73 1732.82,-300.28 1639,-244 1604.74,-223.45 1623.9,-190.67 1591,-168 1562.91,-148.64 1471.19,-134.92 1414.5,-128.04"/>
<polygon fill="midnightblue" stroke="midnightblue" points="1414.69,-124.54 1404.35,-126.84 1413.86,-131.49 1414.69,-124.54"/>
</g>
<!-- Node14 -->
<g id="node14" class="node">
<title>Node14</title>
<g id="a_node14"><a xlink:href="Types_8hpp.html" target="_top" xlink:title=" ">
<polygon fill="white" stroke="black" points="1964.5,-56.5 1964.5,-75.5 2029.5,-75.5 2029.5,-56.5 1964.5,-56.5"/>
<text text-anchor="middle" x="1997" y="-63.5" font-family="Helvetica,sans-Serif" font-size="10.00">Types.hpp</text>
</a>
</g>
</g>
<!-- Node9&#45;&gt;Node14 -->
<g id="edge21" class="edge">
<title>Node9&#45;&gt;Node14</title>
<path fill="none" stroke="midnightblue" d="M2176.9,-285.86C2149.13,-252.08 2047.61,-128.57 2010.61,-83.56"/>
<polygon fill="midnightblue" stroke="midnightblue" points="2013.16,-81.15 2004.11,-75.65 2007.76,-85.6 2013.16,-81.15"/>
</g>
<!-- Node16 -->
<g id="node16" class="node">
<title>Node16</title>
<g id="a_node16"><a xlink:href="TimeSeries_8hpp.html" target="_top" xlink:title=" ">
<polygon fill="white" stroke="black" points="1064,-224.5 1064,-243.5 1206,-243.5 1206,-224.5 1064,-224.5"/>
<text text-anchor="middle" x="1135" y="-231.5" font-family="Helvetica,sans-Serif" font-size="10.00">nwb/base/TimeSeries.hpp</text>
</a>
</g>
</g>
<!-- Node9&#45;&gt;Node16 -->
<g id="edge22" class="edge">
<title>Node9&#45;&gt;Node16</title>
<path fill="none" stroke="midnightblue" d="M2144.29,-286.83C2129.5,-284.25 2112.53,-281.62 2097,-280 1723.57,-241.06 1627.79,-266.28 1253,-244 1241.14,-243.3 1228.62,-242.45 1216.35,-241.56"/>
<polygon fill="midnightblue" stroke="midnightblue" points="1216.34,-238.05 1206.11,-240.81 1215.82,-245.03 1216.34,-238.05"/>
</g>
<!-- Node13&#45;&gt;Node5 -->
<g id="edge14" class="edge">
<title>Node13&#45;&gt;Node5</title>
<path fill="none" stroke="midnightblue" d="M1404.08,-117.33C1499.67,-107.61 1758.96,-81.24 1858.93,-71.07"/>
<polygon fill="midnightblue" stroke="midnightblue" points="1859.34,-74.55 1868.94,-70.06 1858.63,-67.59 1859.34,-74.55"/>
</g>
<!-- Node13&#45;&gt;Node8 -->
<g id="edge16" class="edge">
<title>Node13&#45;&gt;Node8</title>
<path fill="none" stroke="midnightblue" d="M1331.85,-118.29C1207.72,-108.96 800.02,-78.34 681.55,-69.44"/>
<polygon fill="midnightblue" stroke="midnightblue" points="681.55,-65.94 671.32,-68.68 681.03,-72.92 681.55,-65.94"/>
</g>
<!-- Node13&#45;&gt;Node10 -->
<g id="edge13" class="edge">
<title>Node13&#45;&gt;Node10</title>
<path fill="none" stroke="midnightblue" d="M1404.25,-115.72C1475.53,-105.35 1633.11,-82.41 1703.66,-72.14"/>
<polygon fill="midnightblue" stroke="midnightblue" points="1704.42,-75.57 1713.81,-70.67 1703.41,-68.64 1704.42,-75.57"/>
</g>
<!-- Node13&#45;&gt;Node11 -->
<g id="edge15" class="edge">
<title>Node13&#45;&gt;Node11</title>
<path fill="none" stroke="midnightblue" d="M1368,-112.08C1368,-105.01 1368,-94.86 1368,-85.99"/>
<polygon fill="midnightblue" stroke="midnightblue" points="1371.5,-85.75 1368,-75.75 1364.5,-85.75 1371.5,-85.75"/>
</g>
<!-- Node13&#45;&gt;Node12 -->
<g id="edge17" class="edge">
<title>Node13&#45;&gt;Node12</title>
<path fill="none" stroke="midnightblue" d="M1404.36,-113.77C1466.11,-101.53 1595.41,-76.12 1705,-56 1785.41,-41.23 1880.14,-25.01 1929.41,-16.66"/>
<polygon fill="midnightblue" stroke="midnightblue" points="1930.22,-20.07 1939.5,-14.95 1929.05,-13.17 1930.22,-20.07"/>
</g>
<!-- Node13&#45;&gt;Node14 -->
<g id="edge18" class="edge">
<title>Node13&#45;&gt;Node14</title>
<path fill="none" stroke="midnightblue" d="M1404.1,-119.06C1494.32,-114.02 1736.84,-99.25 1938,-76 1943.21,-75.4 1948.66,-74.68 1954.06,-73.92"/>
<polygon fill="midnightblue" stroke="midnightblue" points="1954.9,-77.34 1964.29,-72.42 1953.89,-70.41 1954.9,-77.34"/>
</g>
<!-- Node14&#45;&gt;Node12 -->
<g id="edge20" class="edge">
<title>Node14&#45;&gt;Node12</title>
<path fill="none" stroke="midnightblue" d="M1991.39,-56.08C1986.63,-48.53 1979.68,-37.49 1973.85,-28.23"/>
<polygon fill="midnightblue" stroke="midnightblue" points="1976.8,-26.35 1968.51,-19.75 1970.88,-30.08 1976.8,-26.35"/>
</g>
<!-- Node15 -->
<g id="node15" class="node">
<title>Node15</title>
<g id="a_node15"><a xlink:title=" ">
<polygon fill="white" stroke="#bfbfbf" points="2004.5,-0.5 2004.5,-19.5 2057.5,-19.5 2057.5,-0.5 2004.5,-0.5"/>
<text text-anchor="middle" x="2031" y="-7.5" font-family="Helvetica,sans-Serif" font-size="10.00">cstddef</text>
</a>
</g>
</g>
<!-- Node14&#45;&gt;Node15 -->
<g id="edge19" class="edge">
<title>Node14&#45;&gt;Node15</title>
<path fill="none" stroke="midnightblue" d="M2002.61,-56.08C2007.37,-48.53 2014.32,-37.49 2020.15,-28.23"/>
<polygon fill="midnightblue" stroke="midnightblue" points="2023.12,-30.08 2025.49,-19.75 2017.2,-26.35 2023.12,-30.08"/>
</g>
<!-- Node16&#45;&gt;Node8 -->
<g id="edge23" class="edge">
<title>Node16&#45;&gt;Node8</title>
<path fill="none" stroke="midnightblue" d="M1122.92,-224.46C1103.11,-210.79 1062.11,-183.95 1024,-168 902.34,-117.08 747.66,-85 681.45,-72.71"/>
<polygon fill="midnightblue" stroke="midnightblue" points="681.7,-69.2 671.23,-70.84 680.44,-76.08 681.7,-69.2"/>
</g>
<!-- Node16&#45;&gt;Node13 -->
<g id="edge24" class="edge">
<title>Node16&#45;&gt;Node13</title>
<path fill="none" stroke="midnightblue" d="M1144.17,-224.17C1158.98,-210.36 1189.59,-183.6 1220,-168 1252.42,-151.37 1292.04,-139.73 1322.13,-132.46"/>
<polygon fill="midnightblue" stroke="midnightblue" points="1323,-135.85 1331.94,-130.16 1321.41,-129.03 1323,-135.85"/>
</g>
<!-- Node17 -->
<g id="node17" class="node">
<title>Node17</title>
<g id="a_node17"><a xlink:href="Container_8hpp.html" target="_top" xlink:title=" ">
<polygon fill="white" stroke="black" points="696,-168.5 696,-187.5 858,-187.5 858,-168.5 696,-168.5"/>
<text text-anchor="middle" x="777" y="-175.5" font-family="Helvetica,sans-Serif" font-size="10.00">nwb/hdmf/base/Container.hpp</text>
</a>
</g>
</g>
<!-- Node16&#45;&gt;Node17 -->
<g id="edge25" class="edge">
<title>Node16&#45;&gt;Node17</title>
<path fill="none" stroke="midnightblue" d="M1078.27,-224.44C1014.51,-214.83 911.1,-199.23 843.57,-189.04"/>
<polygon fill="midnightblue" stroke="midnightblue" points="843.87,-185.55 833.46,-187.52 842.83,-192.47 843.87,-185.55"/>
</g>
<!-- Node17&#45;&gt;Node8 -->
<g id="edge27" class="edge">
<title>Node17&#45;&gt;Node8</title>
<path fill="none" stroke="midnightblue" d="M766.96,-168.37C745.27,-149.73 693.84,-105.53 666.61,-82.13"/>
<polygon fill="midnightblue" stroke="midnightblue" points="668.86,-79.45 659,-75.59 664.3,-84.76 668.86,-79.45"/>
</g>
<!-- Node17&#45;&gt;Node11 -->
<g id="edge26" class="edge">
<title>Node17&#45;&gt;Node11</title>
<path fill="none" stroke="midnightblue" d="M822.88,-168.46C935.48,-147.5 1223.91,-93.82 1328.97,-74.26"/>
<polygon fill="midnightblue" stroke="midnightblue" points="1329.65,-77.7 1338.84,-72.43 1328.37,-70.82 1329.65,-77.7"/>
</g>
<!-- Node17&#45;&gt;Node13 -->
<g id="edge28" class="edge">
<title>Node17&#45;&gt;Node13</title>
<path fill="none" stroke="midnightblue" d="M858.43,-168.82C861.32,-168.54 864.19,-168.27 867,-168 1034.29,-152.12 1233.16,-134.69 1321.61,-127.01"/>
<polygon fill="midnightblue" stroke="midnightblue" points="1322.18,-130.47 1331.84,-126.12 1321.57,-123.5 1322.18,-130.47"/>
</g>
<!-- Node18&#45;&gt;Node8 -->
<g id="edge32" class="edge">
<title>Node18&#45;&gt;Node8</title>
<path fill="none" stroke="midnightblue" d="M1276.79,-224.43C1215.45,-202.97 1048.63,-146.19 906,-112 825.98,-92.82 730.1,-78.2 681.18,-71.33"/>
<polygon fill="midnightblue" stroke="midnightblue" points="681.58,-67.85 671.19,-69.94 680.61,-74.78 681.58,-67.85"/>
</g>
<!-- Node18&#45;&gt;Node14 -->
<g id="edge33" class="edge">
<title>Node18&#45;&gt;Node14</title>
<path fill="none" stroke="midnightblue" d="M1339.64,-231.28C1439.71,-226.52 1705.41,-211.95 1790,-188 1866.47,-166.35 1944.02,-109.68 1978.5,-82.28"/>
<polygon fill="midnightblue" stroke="midnightblue" points="1981.1,-84.68 1986.68,-75.68 1976.7,-79.23 1981.1,-84.68"/>
</g>
<!-- Node19 -->
<g id="node19" class="node">
<title>Node19</title>
<g id="a_node19"><a xlink:title=" ">
<polygon fill="white" stroke="#bfbfbf" points="1280,-168.5 1280,-187.5 1322,-187.5 1322,-168.5 1280,-168.5"/>
<text text-anchor="middle" x="1301" y="-175.5" font-family="Helvetica,sans-Serif" font-size="10.00">array</text>
</a>
</g>
</g>
<!-- Node18&#45;&gt;Node19 -->
<g id="edge31" class="edge">
<title>Node18&#45;&gt;Node19</title>
<path fill="none" stroke="midnightblue" d="M1301,-224.08C1301,-217.01 1301,-206.86 1301,-197.99"/>
<polygon fill="midnightblue" stroke="midnightblue" points="1304.5,-197.75 1301,-187.75 1297.5,-197.75 1304.5,-197.75"/>
</g>
<!-- Node20&#45;&gt;Node4 -->
<g id="edge37" class="edge">
<title>Node20&#45;&gt;Node4</title>
<path fill="none" stroke="midnightblue" d="M1342.81,-353.89C1287.11,-349.49 1164.77,-337.46 1065,-311 1062.34,-310.29 1059.61,-309.46 1056.9,-308.55"/>
<polygon fill="midnightblue" stroke="midnightblue" points="1057.9,-305.19 1047.31,-305.03 1055.49,-311.76 1057.9,-305.19"/>
</g>
<!-- Node20&#45;&gt;Node7 -->
<g id="edge38" class="edge">
<title>Node20&#45;&gt;Node7</title>
<path fill="none" stroke="midnightblue" d="M1342.69,-351.42C1298.56,-344.43 1214.22,-329.92 1144,-311 1140.97,-310.18 1137.84,-309.26 1134.72,-308.28"/>
<polygon fill="midnightblue" stroke="midnightblue" points="1135.52,-304.86 1124.93,-305.06 1133.33,-311.51 1135.52,-304.86"/>
</g>
<!-- Node20&#45;&gt;Node13 -->
<g id="edge43" class="edge">
<title>Node20&#45;&gt;Node13</title>
<path fill="none" stroke="midnightblue" d="M1403.22,-355.23C1434.51,-352.62 1481.96,-343.19 1505,-311 1551.91,-245.45 1442.41,-167.84 1391.87,-136.82"/>
<polygon fill="midnightblue" stroke="midnightblue" points="1393.54,-133.74 1383.17,-131.58 1389.93,-139.74 1393.54,-133.74"/>
</g>
<!-- Node21 -->
<g id="node21" class="node">
<title>Node21</title>
<g id="a_node21"><a xlink:title=" ">
<polygon fill="white" stroke="#bfbfbf" points="2038,-286 2038,-305 2088,-305 2088,-286 2038,-286"/>
<text text-anchor="middle" x="2063" y="-293" font-family="Helvetica,sans-Serif" font-size="10.00">chrono</text>
</a>
</g>
</g>
<!-- Node20&#45;&gt;Node21 -->
<g id="edge35" class="edge">
<title>Node20&#45;&gt;Node21</title>
<path fill="none" stroke="midnightblue" d="M1403.24,-355.22C1515.32,-352.12 1906.77,-339.47 2028,-311 2030.67,-310.37 2033.4,-309.57 2036.09,-308.65"/>
<polygon fill="midnightblue" stroke="midnightblue" points="2037.48,-311.87 2045.56,-305.02 2034.97,-305.33 2037.48,-311.87"/>
</g>
<!-- Node22 -->
<g id="node22" class="node">
<title>Node22</title>
<g id="a_node22"><a xlink:title=" ">
<polygon fill="white" stroke="#bfbfbf" points="1186,-286 1186,-305 1230,-305 1230,-286 1186,-286"/>
<text text-anchor="middle" x="1208" y="-293" font-family="Helvetica,sans-Serif" font-size="10.00">ctime</text>
</a>
</g>
</g>
<!-- Node20&#45;&gt;Node22 -->
<g id="edge36" class="edge">
<title>Node20&#45;&gt;Node22</title>
<path fill="none" stroke="midnightblue" d="M1344.43,-347.44C1317.06,-339 1274.77,-325.32 1239,-311 1237.62,-310.45 1236.22,-309.87 1234.8,-309.26"/>
<polygon fill="midnightblue" stroke="midnightblue" points="1236.11,-306.02 1225.55,-305.13 1233.26,-312.41 1236.11,-306.02"/>
</g>
<!-- Node23 -->
<g id="node23" class="node">
<title>Node23</title>
<g id="a_node23"><a xlink:title=" ">
<polygon fill="white" stroke="#bfbfbf" points="1248.5,-286 1248.5,-305 1365.5,-305 1365.5,-286 1248.5,-286"/>
<text text-anchor="middle" x="1307" y="-293" font-family="Helvetica,sans-Serif" font-size="10.00">boost/date_time.hpp</text>
</a>
</g>
</g>
<!-- Node20&#45;&gt;Node23 -->
<g id="edge39" class="edge">
<title>Node20&#45;&gt;Node23</title>
<path fill="none" stroke="midnightblue" d="M1363.54,-347.48C1353.25,-338.2 1336.58,-323.17 1324.01,-311.83"/>
<polygon fill="midnightblue" stroke="midnightblue" points="1326.21,-309.11 1316.44,-305.01 1321.52,-314.3 1326.21,-309.11"/>
</g>
<!-- Node24 -->
<g id="node24" class="node">
<title>Node24</title>
<g id="a_node24"><a xlink:title=" ">
<polygon fill="white" stroke="#bfbfbf" points="1383.5,-286 1383.5,-305 1496.5,-305 1496.5,-286 1383.5,-286"/>
<text text-anchor="middle" x="1440" y="-293" font-family="Helvetica,sans-Serif" font-size="10.00">boost/uuid/uuid.hpp</text>
</a>
</g>
</g>
<!-- Node20&#45;&gt;Node24 -->
<g id="edge40" class="edge">
<title>Node20&#45;&gt;Node24</title>
<path fill="none" stroke="midnightblue" d="M1382.6,-347.48C1393.05,-338.2 1409.97,-323.17 1422.74,-311.83"/>
<polygon fill="midnightblue" stroke="midnightblue" points="1425.27,-314.27 1430.42,-305.01 1420.62,-309.03 1425.27,-314.27"/>
</g>
<!-- Node25 -->
<g id="node25" class="node">
<title>Node25</title>
<g id="a_node25"><a xlink:title=" ">
<polygon fill="white" stroke="#bfbfbf" points="1553,-286 1553,-305 1723,-305 1723,-286 1553,-286"/>
<text text-anchor="middle" x="1638" y="-293" font-family="Helvetica,sans-Serif" font-size="10.00">boost/uuid/uuid_generators.hpp</text>
</a>
</g>
</g>
<!-- Node20&#45;&gt;Node25 -->
<g id="edge41" class="edge">
<title>Node20&#45;&gt;Node25</title>
<path fill="none" stroke="midnightblue" d="M1403.14,-349.23C1448.64,-339.02 1535.3,-319.56 1589.68,-307.35"/>
<polygon fill="midnightblue" stroke="midnightblue" points="1590.78,-310.69 1599.77,-305.08 1589.25,-303.86 1590.78,-310.69"/>
</g>
<!-- Node26 -->
<g id="node26" class="node">
<title>Node26</title>
<g id="a_node26"><a xlink:title=" ">
<polygon fill="white" stroke="#bfbfbf" points="1741.5,-286 1741.5,-305 1868.5,-305 1868.5,-286 1741.5,-286"/>
<text text-anchor="middle" x="1805" y="-293" font-family="Helvetica,sans-Serif" font-size="10.00">boost/uuid/uuid_io.hpp</text>
</a>
</g>
</g>
<!-- Node20&#45;&gt;Node26 -->
<g id="edge42" class="edge">
<title>Node20&#45;&gt;Node26</title>
<path fill="none" stroke="midnightblue" d="M1403.36,-352.93C1465.34,-346.51 1610.77,-330.61 1732,-311 1739.36,-309.81 1747.11,-308.42 1754.71,-306.98"/>
<polygon fill="midnightblue" stroke="midnightblue" points="1755.4,-310.41 1764.55,-305.07 1754.07,-303.54 1755.4,-310.41"/>
</g>
<!-- Node27 -->
<g id="node27" class="node">
<title>Node27</title>
<g id="a_node27"><a xlink:title=" ">
<polygon fill="white" stroke="#bfbfbf" points="1886.5,-280.5 1886.5,-310.5 2019.5,-310.5 2019.5,-280.5 1886.5,-280.5"/>
<text text-anchor="start" x="1894.5" y="-298.5" font-family="Helvetica,sans-Serif" font-size="10.00">boost/date_time/c_local</text>
<text text-anchor="middle" x="1953" y="-287.5" font-family="Helvetica,sans-Serif" font-size="10.00">_time_adjustor.hpp</text>
</a>
</g>
</g>
<!-- Node20&#45;&gt;Node27 -->
<g id="edge44" class="edge">
<title>Node20&#45;&gt;Node27</title>
<path fill="none" stroke="midnightblue" d="M1403.23,-354.35C1480.31,-349.93 1690.64,-336.46 1876.39,-310.99"/>
<polygon fill="midnightblue" stroke="midnightblue" points="1876.91,-314.45 1886.33,-309.61 1875.95,-307.51 1876.91,-314.45"/>
</g>
<!-- Node28 -->
<g id="node28" class="node">
<title>Node28</title>
<g id="a_node28"><a xlink:href="HDF5IO_8hpp.html" target="_top" xlink:title=" ">
<polygon fill="white" stroke="black" points="1681,-168.5 1681,-187.5 1781,-187.5 1781,-168.5 1681,-168.5"/>
<text text-anchor="middle" x="1731" y="-175.5" font-family="Helvetica,sans-Serif" font-size="10.00">hdf5/HDF5IO.hpp</text>
</a>
</g>
</g>
<!-- Node20&#45;&gt;Node28 -->
<g id="edge45" class="edge">
<title>Node20&#45;&gt;Node28</title>
<path fill="none" stroke="midnightblue" d="M1342.72,-354.73C1276.82,-350.92 1129.94,-336.04 1177,-280 1206.74,-244.58 1336.49,-252.23 1382,-244 1485.98,-225.19 1607.22,-202.42 1675.96,-189.43"/>
<polygon fill="midnightblue" stroke="midnightblue" points="1676.95,-192.81 1686.13,-187.51 1675.65,-185.93 1676.95,-192.81"/>
</g>
<!-- Node28&#45;&gt;Node5 -->
<g id="edge46" class="edge">
<title>Node28&#45;&gt;Node5</title>
<path fill="none" stroke="midnightblue" d="M1763.11,-168.36C1786.41,-161.08 1817.93,-149.11 1842,-132 1860.46,-118.87 1876.97,-98.63 1887.41,-84.22"/>
<polygon fill="midnightblue" stroke="midnightblue" points="1890.48,-85.93 1893.35,-75.74 1884.75,-81.92 1890.48,-85.93"/>
</g>
<!-- Node28&#45;&gt;Node8 -->
<g id="edge48" class="edge">
<title>Node28&#45;&gt;Node8</title>
<path fill="none" stroke="midnightblue" d="M1697.38,-168.48C1639.65,-154.21 1517.76,-125.72 1413,-112 1131.2,-75.09 786.92,-68.44 681.32,-67.26"/>
<polygon fill="midnightblue" stroke="midnightblue" points="681.33,-63.76 671.3,-67.15 681.26,-70.76 681.33,-63.76"/>
</g>
<!-- Node28&#45;&gt;Node11 -->
<g id="edge47" class="edge">
<title>Node28&#45;&gt;Node11</title>
<path fill="none" stroke="midnightblue" d="M1730.23,-168.19C1728.48,-153.91 1722.84,-125.89 1705,-112 1659.4,-76.5 1486.43,-68.98 1407.59,-67.41"/>
<polygon fill="midnightblue" stroke="midnightblue" points="1407.17,-63.9 1397.11,-67.22 1407.05,-70.9 1407.17,-63.9"/>
</g>
<!-- Node28&#45;&gt;Node13 -->
<g id="edge50" class="edge">
<title>Node28&#45;&gt;Node13</title>
<path fill="none" stroke="midnightblue" d="M1680.91,-169.55C1610.33,-159.05 1482.62,-140.05 1414.21,-129.87"/>
<polygon fill="midnightblue" stroke="midnightblue" points="1414.57,-126.39 1404.16,-128.38 1413.54,-133.31 1414.57,-126.39"/>
</g>
<!-- Node28&#45;&gt;Node14 -->
<g id="edge51" class="edge">
<title>Node28&#45;&gt;Node14</title>
<path fill="none" stroke="midnightblue" d="M1760.9,-168.46C1788.76,-160.19 1831.25,-146.76 1867,-132 1904.85,-116.37 1946.95,-94.44 1972.7,-80.48"/>
<polygon fill="midnightblue" stroke="midnightblue" points="1974.63,-83.41 1981.73,-75.54 1971.27,-77.27 1974.63,-83.41"/>
</g>
<!-- Node29 -->
<g id="node29" class="node">
<title>Node29</title>
<g id="a_node29"><a xlink:title=" ">
<polygon fill="white" stroke="#bfbfbf" points="1757,-112.5 1757,-131.5 1833,-131.5 1833,-112.5 1757,-112.5"/>
<text text-anchor="middle" x="1795" y="-119.5" font-family="Helvetica,sans-Serif" font-size="10.00">H5Opublic.h</text>
</a>
</g>
</g>
<!-- Node28&#45;&gt;Node29 -->
<g id="edge49" class="edge">
<title>Node28&#45;&gt;Node29</title>
<path fill="none" stroke="midnightblue" d="M1741.28,-168.32C1750.84,-160.26 1765.28,-148.08 1776.78,-138.37"/>
<polygon fill="midnightblue" stroke="midnightblue" points="1779.14,-140.96 1784.53,-131.83 1774.63,-135.61 1779.14,-140.96"/>
</g>
<!-- Node30&#45;&gt;Node8 -->
<g id="edge53" class="edge">
<title>Node30&#45;&gt;Node8</title>
<path fill="none" stroke="midnightblue" d="M355.23,-224.31C406.08,-197.08 562.55,-113.29 623.93,-80.43"/>
<polygon fill="midnightblue" stroke="midnightblue" points="625.77,-83.41 632.93,-75.61 622.46,-77.24 625.77,-83.41"/>
</g>
<!-- Node30&#45;&gt;Node13 -->
<g id="edge54" class="edge">
<title>Node30&#45;&gt;Node13</title>
<path fill="none" stroke="midnightblue" d="M376.62,-224.45C440.2,-210.35 573.12,-182.35 687,-168 924.45,-138.09 1211.14,-127.36 1321.55,-124.17"/>
<polygon fill="midnightblue" stroke="midnightblue" points="1321.78,-127.66 1331.68,-123.88 1321.59,-120.67 1321.78,-127.66"/>
</g>
<!-- Node30&#45;&gt;Node17 -->
<g id="edge55" class="edge">
<title>Node30&#45;&gt;Node17</title>
<path fill="none" stroke="midnightblue" d="M404.1,-224.97C482.42,-215.32 613.83,-199.12 697.91,-188.75"/>
<polygon fill="midnightblue" stroke="midnightblue" points="698.43,-192.21 707.92,-187.52 697.57,-185.27 698.43,-192.21"/>
</g>
<!-- Node31&#45;&gt;Node8 -->
<g id="edge57" class="edge">
<title>Node31&#45;&gt;Node8</title>
<path fill="none" stroke="midnightblue" d="M886.76,-285.97C937.96,-278.18 1000.88,-264.68 1017,-244 1022.47,-236.99 1022.93,-230.62 1017,-224 967.75,-169.08 744.01,-234.82 687,-188 671.08,-174.93 658.13,-116.33 652.32,-85.74"/>
<polygon fill="midnightblue" stroke="midnightblue" points="655.69,-84.74 650.45,-75.54 648.81,-86 655.69,-84.74"/>
</g>
<!-- Node31&#45;&gt;Node13 -->
<g id="edge58" class="edge">
<title>Node31&#45;&gt;Node13</title>
<path fill="none" stroke="midnightblue" d="M896.1,-285.99C1008.63,-273.81 1201.41,-251.98 1215,-244 1251.18,-222.76 1238.51,-194.55 1271,-168 1288.63,-153.6 1311.62,-142.67 1330.8,-135.19"/>
<polygon fill="midnightblue" stroke="midnightblue" points="1332.29,-138.37 1340.43,-131.59 1329.84,-131.81 1332.29,-138.37"/>
</g>
<!-- Node31&#45;&gt;Node16 -->
<g id="edge60" class="edge">
<title>Node31&#45;&gt;Node16</title>
<path fill="none" stroke="midnightblue" d="M861.7,-285.98C919.15,-275.26 1017.68,-256.88 1079.42,-245.37"/>
<polygon fill="midnightblue" stroke="midnightblue" points="1080.19,-248.78 1089.38,-243.51 1078.91,-241.9 1080.19,-248.78"/>
</g>
<!-- Node31&#45;&gt;Node18 -->
<g id="edge59" class="edge">
<title>Node31&#45;&gt;Node18</title>
<path fill="none" stroke="midnightblue" d="M874.81,-286C889.55,-283.95 905.35,-281.83 920,-280 1065.53,-261.87 1102.76,-264.28 1248,-244 1249.3,-243.82 1250.62,-243.63 1251.95,-243.44"/>
<polygon fill="midnightblue" stroke="midnightblue" points="1252.9,-246.83 1262.25,-241.85 1251.84,-239.91 1252.9,-246.83"/>
</g>
<!-- Node32&#45;&gt;Node8 -->
<g id="edge62" class="edge">
<title>Node32&#45;&gt;Node8</title>
<path fill="none" stroke="midnightblue" d="M324.2,-285.95C292.57,-274.38 246.49,-251.92 265,-224 345.77,-102.17 539.82,-74.83 616.77,-68.74"/>
<polygon fill="midnightblue" stroke="midnightblue" points="617.11,-72.22 626.83,-68.01 616.61,-65.24 617.11,-72.22"/>
</g>
<!-- Node32&#45;&gt;Node13 -->
<g id="edge63" class="edge">
<title>Node32&#45;&gt;Node13</title>
<path fill="none" stroke="midnightblue" d="M400.36,-285.98C457.91,-276.02 555.88,-259 640,-244 688.92,-235.28 700.91,-231.68 750,-224 871.35,-205.01 907.85,-227.94 1024,-188 1040.58,-182.3 1041.46,-173.81 1058,-168 1147.73,-136.47 1259.53,-127.02 1321.38,-124.19"/>
<polygon fill="midnightblue" stroke="midnightblue" points="1321.75,-127.68 1331.59,-123.77 1321.46,-120.69 1321.75,-127.68"/>
</g>
<!-- Node32&#45;&gt;Node17 -->
<g id="edge65" class="edge">
<title>Node32&#45;&gt;Node17</title>
<path fill="none" stroke="midnightblue" d="M360.03,-285.81C376.56,-270.47 413.45,-238.81 451,-224 492.48,-207.64 604.55,-194.5 685.73,-186.74"/>
<polygon fill="midnightblue" stroke="midnightblue" points="686.34,-190.2 695.96,-185.77 685.68,-183.23 686.34,-190.2"/>
</g>
<!-- Node32&#45;&gt;Node30 -->
<g id="edge64" class="edge">
<title>Node32&#45;&gt;Node30</title>
<path fill="none" stroke="midnightblue" d="M349.28,-285.98C347.57,-277.49 344.89,-264.2 342.7,-253.32"/>
<polygon fill="midnightblue" stroke="midnightblue" points="346.12,-252.62 340.72,-243.51 339.26,-254 346.12,-252.62"/>
</g>
<!-- Node33&#45;&gt;Node8 -->
<g id="edge67" class="edge">
<title>Node33&#45;&gt;Node8</title>
<path fill="none" stroke="midnightblue" d="M561.86,-351.83C459.25,-345.39 285.57,-331.6 265,-311 243.81,-289.78 258.78,-273.94 257,-244 256.47,-235.13 254.5,-232.53 257,-224 265.34,-195.61 272.49,-189.33 293,-168 323.08,-136.71 332.8,-128.35 373,-112 456.52,-78.04 564.1,-69.67 616.89,-67.63"/>
<polygon fill="midnightblue" stroke="midnightblue" points="617.12,-71.13 626.99,-67.3 616.88,-64.13 617.12,-71.13"/>
</g>
<!-- Node33&#45;&gt;Node13 -->
<g id="edge68" class="edge">
<title>Node33&#45;&gt;Node13</title>
<path fill="none" stroke="midnightblue" d="M712.04,-348.37C768.32,-341.56 846.89,-329.71 914,-311 949.54,-301.09 955.18,-288.83 991,-280 1068.42,-260.92 1289.86,-298.57 1348,-244 1375.98,-217.73 1374.48,-168.47 1371.13,-141.61"/>
<polygon fill="midnightblue" stroke="midnightblue" points="1374.58,-141 1369.67,-131.61 1367.65,-142.01 1374.58,-141"/>
</g>
<!-- Node34 -->
<g id="node34" class="node">
<title>Node34</title>
<g id="a_node34"><a xlink:href="DynamicTable_8hpp.html" target="_top" xlink:title=" ">
<polygon fill="white" stroke="black" points="484,-286 484,-305 670,-305 670,-286 484,-286"/>
<text text-anchor="middle" x="577" y="-293" font-family="Helvetica,sans-Serif" font-size="10.00">nwb/hdmf/table/DynamicTable.hpp</text>
</a>
</g>
</g>
<!-- Node33&#45;&gt;Node34 -->
<g id="edge69" class="edge">
<title>Node33&#45;&gt;Node34</title>
<path fill="none" stroke="midnightblue" d="M628.4,-347.48C619.14,-338.28 604.18,-323.46 592.79,-312.16"/>
<polygon fill="midnightblue" stroke="midnightblue" points="595.15,-309.57 585.58,-305.01 590.22,-314.54 595.15,-309.57"/>
</g>
<!-- Node35 -->
<g id="node35" class="node">
<title>Node35</title>
<g id="a_node35"><a xlink:href="ElementIdentifiers_8hpp.html" target="_top" xlink:title=" ">
<polygon fill="white" stroke="black" points="802,-224.5 802,-243.5 1008,-243.5 1008,-224.5 802,-224.5"/>
<text text-anchor="middle" x="905" y="-231.5" font-family="Helvetica,sans-Serif" font-size="10.00">nwb/hdmf/table/ElementIdentifiers.hpp</text>
</a>
</g>
</g>
<!-- Node33&#45;&gt;Node35 -->
<g id="edge80" class="edge">
<title>Node33&#45;&gt;Node35</title>
<path fill="none" stroke="midnightblue" d="M644.89,-347.46C661.59,-329.56 700.33,-289.05 717,-280 748.81,-262.73 787.19,-252.03 820.95,-245.42"/>
<polygon fill="midnightblue" stroke="midnightblue" points="821.62,-248.85 830.8,-243.58 820.33,-241.97 821.62,-248.85"/>
</g>
<!-- Node37 -->
<g id="node37" class="node">
<title>Node37</title>
<g id="a_node37"><a xlink:href="VectorData_8hpp.html" target="_top" xlink:title=" ">
<polygon fill="white" stroke="black" points="460.5,-224.5 460.5,-243.5 631.5,-243.5 631.5,-224.5 460.5,-224.5"/>
<text text-anchor="middle" x="546" y="-231.5" font-family="Helvetica,sans-Serif" font-size="10.00">nwb/hdmf/table/VectorData.hpp</text>
</a>
</g>
</g>
<!-- Node33&#45;&gt;Node37 -->
<g id="edge81" class="edge">
<title>Node33&#45;&gt;Node37</title>
<path fill="none" stroke="midnightblue" d="M579.26,-347.46C538.08,-340.05 487.81,-327.85 475,-311 466.66,-300.03 468.36,-292.07 475,-280 482.89,-265.66 497.49,-255.25 511.4,-248.08"/>
<polygon fill="midnightblue" stroke="midnightblue" points="513.29,-251.06 520.84,-243.62 510.3,-244.73 513.29,-251.06"/>
</g>
<!-- Node34&#45;&gt;Node8 -->
<g id="edge70" class="edge">
<title>Node34&#45;&gt;Node8</title>
<path fill="none" stroke="midnightblue" d="M594.35,-285.99C609.37,-277.59 630.17,-263.22 640,-244 653.9,-216.83 651.66,-125.45 649.95,-85.71"/>
<polygon fill="midnightblue" stroke="midnightblue" points="653.44,-85.39 649.47,-75.57 646.45,-85.72 653.44,-85.39"/>
</g>
<!-- Node34&#45;&gt;Node13 -->
<g id="edge71" class="edge">
<title>Node34&#45;&gt;Node13</title>
<path fill="none" stroke="midnightblue" d="M611.97,-285.96C647.28,-276.94 703.14,-261.62 750,-244 769.73,-236.58 772.77,-229.93 793,-224 907.06,-190.56 940.87,-208.21 1058,-188 1152.26,-171.74 1261.54,-147.57 1321.91,-133.74"/>
<polygon fill="midnightblue" stroke="midnightblue" points="1322.93,-137.1 1331.89,-131.45 1321.36,-130.28 1322.93,-137.1"/>
</g>
<!-- Node34&#45;&gt;Node17 -->
<g id="edge72" class="edge">
<title>Node34&#45;&gt;Node17</title>
<path fill="none" stroke="midnightblue" d="M594.4,-285.99C614,-276.27 646.67,-259.7 674,-244 702.78,-227.47 734.99,-206.77 755.6,-193.23"/>
<polygon fill="midnightblue" stroke="midnightblue" points="757.78,-195.99 764.2,-187.56 753.93,-190.14 757.78,-195.99"/>
</g>
<!-- Node34&#45;&gt;Node35 -->
<g id="edge73" class="edge">
<title>Node34&#45;&gt;Node35</title>
<path fill="none" stroke="midnightblue" d="M623.99,-285.98C683.18,-275.24 784.79,-256.81 848.25,-245.29"/>
<polygon fill="midnightblue" stroke="midnightblue" points="848.88,-248.74 858.09,-243.51 847.63,-241.85 848.88,-248.74"/>
</g>
<!-- Node34&#45;&gt;Node37 -->
<g id="edge77" class="edge">
<title>Node34&#45;&gt;Node37</title>
<path fill="none" stroke="midnightblue" d="M572.56,-285.98C568.05,-277.32 560.93,-263.65 555.19,-252.65"/>
<polygon fill="midnightblue" stroke="midnightblue" points="558.16,-250.76 550.43,-243.51 551.95,-253.99 558.16,-250.76"/>
</g>
<!-- Node36 -->
<g id="node36" class="node">
<title>Node36</title>
<g id="a_node36"><a xlink:href="Data_8hpp.html" target="_top" xlink:title=" ">
<polygon fill="white" stroke="black" points="876.5,-168.5 876.5,-187.5 1015.5,-187.5 1015.5,-168.5 876.5,-168.5"/>
<text text-anchor="middle" x="946" y="-175.5" font-family="Helvetica,sans-Serif" font-size="10.00">nwb/hdmf/base/Data.hpp</text>
</a>
</g>
</g>
<!-- Node35&#45;&gt;Node36 -->
<g id="edge74" class="edge">
<title>Node35&#45;&gt;Node36</title>
<path fill="none" stroke="midnightblue" d="M911.77,-224.08C917.56,-216.46 926.06,-205.26 933.14,-195.94"/>
<polygon fill="midnightblue" stroke="midnightblue" points="936.1,-197.83 939.36,-187.75 930.52,-193.6 936.1,-197.83"/>
</g>
<!-- Node36&#45;&gt;Node11 -->
<g id="edge75" class="edge">
<title>Node36&#45;&gt;Node11</title>
<path fill="none" stroke="midnightblue" d="M983.55,-168.43C1021.57,-159.66 1082.01,-145.44 1134,-132 1203.03,-114.16 1282.96,-91.53 1329.27,-78.22"/>
<polygon fill="midnightblue" stroke="midnightblue" points="1330.26,-81.57 1338.91,-75.44 1328.33,-74.85 1330.26,-81.57"/>
</g>
<!-- Node36&#45;&gt;Node13 -->
<g id="edge76" class="edge">
<title>Node36&#45;&gt;Node13</title>
<path fill="none" stroke="midnightblue" d="M1012.87,-168.44C1099.1,-157.41 1246.86,-138.5 1321.68,-128.93"/>
<polygon fill="midnightblue" stroke="midnightblue" points="1322.27,-132.38 1331.74,-127.64 1321.38,-125.44 1322.27,-132.38"/>
</g>
<!-- Node37&#45;&gt;Node8 -->
<g id="edge78" class="edge">
<title>Node37&#45;&gt;Node8</title>
<path fill="none" stroke="midnightblue" d="M550.61,-224.3C561.38,-204.14 589.32,-152.84 616,-112 622.23,-102.47 629.69,-92.21 635.94,-83.89"/>
<polygon fill="midnightblue" stroke="midnightblue" points="638.86,-85.84 642.13,-75.76 633.29,-81.6 638.86,-85.84"/>
</g>
<!-- Node37&#45;&gt;Node36 -->
<g id="edge79" class="edge">
<title>Node37&#45;&gt;Node36</title>
<path fill="none" stroke="midnightblue" d="M609.38,-224.44C680.92,-214.79 797.12,-199.1 872.55,-188.92"/>
<polygon fill="midnightblue" stroke="midnightblue" points="873.47,-192.32 882.92,-187.52 872.54,-185.39 873.47,-192.32"/>
</g>
</g>
</svg>
