<?xml version="1.0" encoding="UTF-8" standalone="no"?>
<!DOCTYPE svg PUBLIC "-//W3C//DTD SVG 1.1//EN"
 "http://www.w3.org/Graphics/SVG/1.1/DTD/svg11.dtd">
<!-- Generated by graphviz version 13.1.0 (20250701.0955)
 -->
<!-- Title: AQNWB::IO::isAllowedStorageObjectType&lt; StorageObjectType::Dataset &gt; Pages: 1 -->
<svg width="182pt" height="105pt"
 viewBox="0.00 0.00 182.00 105.00" xmlns="http://www.w3.org/2000/svg" xmlns:xlink="http://www.w3.org/1999/xlink">
<g id="graph0" class="graph" transform="scale(1 1) rotate(0) translate(4 101)">
<title>AQNWB::IO::isAllowedStorageObjectType&lt; StorageObjectType::Dataset &gt;</title>
<!-- Node1 -->
<g id="Node000001" class="node">
<title>Node1</title>
<g id="a_Node000001"><a xlink:title=" ">
<polygon fill="#999999" stroke="#666666" points="167.12,-41.75 9.38,-41.75 9.38,0 167.12,0 167.12,-41.75"/>
<text xml:space="preserve" text-anchor="start" x="17.38" y="-28.25" font-family="Helvetica,sans-Serif" font-size="10.00">AQNWB::IO::isAllowedStorage</text>
<text xml:space="preserve" text-anchor="start" x="17.38" y="-17" font-family="Helvetica,sans-Serif" font-size="10.00">ObjectType&lt; StorageObjectType</text>
<text xml:space="preserve" text-anchor="middle" x="88.25" y="-5.75" font-family="Helvetica,sans-Serif" font-size="10.00">::Dataset &gt;</text>
</a>
</g>
</g>
<!-- Node2 -->
<g id="Node000002" class="node">
<title>Node2</title>
<g id="a_Node000002"><a xlink:title=" ">
<polygon fill="white" stroke="#666666" points="80.5,-97 0,-97 0,-77.75 80.5,-77.75 80.5,-97"/>
<text xml:space="preserve" text-anchor="middle" x="40.25" y="-83.5" font-family="Helvetica,sans-Serif" font-size="10.00">std::false_type</text>
</a>
</g>
</g>
<!-- Node2&#45;&gt;Node1 -->
<g id="edge1_Node000001_Node000002" class="edge">
<title>Node2&#45;&gt;Node1</title>
<g id="a_edge1_Node000001_Node000002"><a xlink:title=" ">
<path fill="none" stroke="#63b8ff" d="M53.62,-68.41C59.68,-60.26 66.88,-50.59 73.14,-42.18"/>
<polygon fill="#63b8ff" stroke="#63b8ff" points="50.99,-66.08 47.83,-76.19 56.61,-70.26 50.99,-66.08"/>
</a>
</g>
</g>
<!-- Node3 -->
<g id="Node000003" class="node">
<title>Node3</title>
<g id="a_Node000003"><a xlink:title=" ">
<polygon fill="white" stroke="#666666" points="174.25,-97 98.25,-97 98.25,-77.75 174.25,-77.75 174.25,-97"/>
<text xml:space="preserve" text-anchor="middle" x="136.25" y="-83.5" font-family="Helvetica,sans-Serif" font-size="10.00">std::true_type</text>
</a>
</g>
</g>
<!-- Node3&#45;&gt;Node1 -->
<g id="edge2_Node000001_Node000003" class="edge">
<title>Node3&#45;&gt;Node1</title>
<g id="a_edge2_Node000001_Node000003"><a xlink:title=" ">
<path fill="none" stroke="#63b8ff" d="M122.88,-68.41C116.82,-60.26 109.62,-50.59 103.36,-42.18"/>
<polygon fill="#63b8ff" stroke="#63b8ff" points="119.89,-70.26 128.67,-76.19 125.51,-66.08 119.89,-70.26"/>
</a>
</g>
</g>
</g>
</svg>
