<?xml version="1.0" encoding="UTF-8" standalone="no"?>
<!DOCTYPE svg PUBLIC "-//W3C//DTD SVG 1.1//EN"
 "http://www.w3.org/Graphics/SVG/1.1/DTD/svg11.dtd">
<!-- Generated by graphviz version 15.1.0 (20260618.0150)
 -->
<!-- Title: AQNWB::NWB::DurationVectorData::DataSpec::DataSpec Pages: 1 -->
<svg width="900pt" height="57pt"
 viewBox="0.00 0.00 900.00 57.00" xmlns="http://www.w3.org/2000/svg" xmlns:xlink="http://www.w3.org/1999/xlink">
<g id="graph0" class="graph" transform="scale(1 1) rotate(0) translate(4 52.5)">
<title>AQNWB::NWB::DurationVectorData::DataSpec::DataSpec</title>
<!-- Node1 -->
<g id="Node000001" class="node">
<title>Node1</title>
<g id="a_Node000001"><a xlink:title=" ">
<polygon fill="#999999" stroke="#666666" points="155.5,-30.5 0,-30.5 0,0 155.5,0 155.5,-30.5"/>
<text xml:space="preserve" text-anchor="start" x="8" y="-17" font-family="Helvetica,sans-Serif" font-size="10.00">AQNWB::NWB::DurationVector</text>
<text xml:space="preserve" text-anchor="middle" x="77.75" y="-5.75" font-family="Helvetica,sans-Serif" font-size="10.00">Data::DataSpec::DataSpec</text>
</a>
</g>
</g>
<!-- Node1&#45;&gt;Node1 -->
<g id="edge1_Node000001_Node000001" class="edge">
<title>Node1&#45;&gt;Node1</title>
<g id="a_edge1_Node000001_Node000001"><a xlink:title=" ">
<path fill="none" stroke="#63b8ff" d="M43.82,-30.99C36.89,-40.06 48.2,-48.5 77.75,-48.5 93.91,-48.5 104.61,-45.97 109.86,-42.2"/>
<polygon fill="#63b8ff" stroke="#63b8ff" points="113.3,-42.91 111.44,-32.48 106.39,-41.79 113.3,-42.91"/>
</a>
</g>
</g>
<!-- Node2 -->
<g id="Node000002" class="node">
<title>Node2</title>
<g id="a_Node000002"><a xlink:href="class_a_q_n_w_b_1_1_n_w_b_1_1_duration_vector_data.html#a934964ada641d32b83e92b3552395bab" target="_top" xlink:title="Constructor.">
<polygon fill="white" stroke="#666666" points="347,-30.5 191.5,-30.5 191.5,0 347,0 347,-30.5"/>
<text xml:space="preserve" text-anchor="start" x="199.5" y="-17" font-family="Helvetica,sans-Serif" font-size="10.00">AQNWB::NWB::DurationVector</text>
<text xml:space="preserve" text-anchor="middle" x="269.25" y="-5.75" font-family="Helvetica,sans-Serif" font-size="10.00">Data::DurationVectorData</text>
</a>
</g>
</g>
<!-- Node1&#45;&gt;Node2 -->
<g id="edge2_Node000001_Node000002" class="edge">
<title>Node1&#45;&gt;Node2</title>
<g id="a_edge2_Node000001_Node000002"><a xlink:title=" ">
<path fill="none" stroke="#63b8ff" d="M155.83,-15.25C163.77,-15.25 171.88,-15.25 179.93,-15.25"/>
<polygon fill="#63b8ff" stroke="#63b8ff" points="179.73,-18.75 189.73,-15.25 179.73,-11.75 179.73,-18.75"/>
</a>
</g>
</g>
<!-- Node2&#45;&gt;Node2 -->
<g id="edge3_Node000002_Node000002" class="edge">
<title>Node2&#45;&gt;Node2</title>
<g id="a_edge3_Node000002_Node000002"><a xlink:title=" ">
<path fill="none" stroke="#63b8ff" d="M236.71,-30.99C230.07,-40.06 240.92,-48.5 269.25,-48.5 284.74,-48.5 295.01,-45.97 300.04,-42.2"/>
<polygon fill="#63b8ff" stroke="#63b8ff" points="303.48,-42.9 301.56,-32.48 296.56,-41.82 303.48,-42.9"/>
</a>
</g>
</g>
<!-- Node3 -->
<g id="Node000003" class="node">
<title>Node3</title>
<g id="a_Node000003"><a xlink:href="class_a_q_n_w_b_1_1_n_w_b_1_1_vector_data.html#aaf127dfd1e590307b872ea785d578316" target="_top" xlink:title="Constructor.">
<polygon fill="white" stroke="#666666" points="522.75,-30.5 383,-30.5 383,0 522.75,0 522.75,-30.5"/>
<text xml:space="preserve" text-anchor="start" x="391" y="-17" font-family="Helvetica,sans-Serif" font-size="10.00">AQNWB::NWB::VectorData</text>
<text xml:space="preserve" text-anchor="middle" x="452.88" y="-5.75" font-family="Helvetica,sans-Serif" font-size="10.00">::VectorData</text>
</a>
</g>
</g>
<!-- Node2&#45;&gt;Node3 -->
<g id="edge4_Node000002_Node000003" class="edge">
<title>Node2&#45;&gt;Node3</title>
<g id="a_edge4_Node000002_Node000003"><a xlink:title=" ">
<path fill="none" stroke="#63b8ff" d="M347.28,-15.25C355.14,-15.25 363.14,-15.25 371.04,-15.25"/>
<polygon fill="#63b8ff" stroke="#63b8ff" points="370.99,-18.75 380.99,-15.25 370.99,-11.75 370.99,-18.75"/>
</a>
</g>
</g>
<!-- Node3&#45;&gt;Node3 -->
<g id="edge8_Node000003_Node000003" class="edge">
<title>Node3&#45;&gt;Node3</title>
<g id="a_edge8_Node000003_Node000003"><a xlink:title=" ">
<path fill="none" stroke="#63b8ff" d="M421.86,-30.99C415.54,-40.06 425.87,-48.5 452.88,-48.5 467.64,-48.5 477.42,-45.97 482.22,-42.2"/>
<polygon fill="#63b8ff" stroke="#63b8ff" points="485.66,-42.89 483.66,-32.48 478.73,-41.86 485.66,-42.89"/>
</a>
</g>
</g>
<!-- Node4 -->
<g id="Node000004" class="node">
<title>Node4</title>
<g id="a_Node000004"><a xlink:href="class_a_q_n_w_b_1_1_n_w_b_1_1_data.html#ac0a68f39a709b9096ce797bce18c668f" target="_top" xlink:title="Constructor.">
<polygon fill="white" stroke="#666666" points="697,-24.88 558.75,-24.88 558.75,-5.63 697,-5.63 697,-24.88"/>
<text xml:space="preserve" text-anchor="middle" x="627.88" y="-11.38" font-family="Helvetica,sans-Serif" font-size="10.00">AQNWB::NWB::Data::Data</text>
</a>
</g>
</g>
<!-- Node3&#45;&gt;Node4 -->
<g id="edge5_Node000003_Node000004" class="edge">
<title>Node3&#45;&gt;Node4</title>
<g id="a_edge5_Node000003_Node000004"><a xlink:title=" ">
<path fill="none" stroke="#63b8ff" d="M523.24,-15.25C531.01,-15.25 538.97,-15.25 546.86,-15.25"/>
<polygon fill="#63b8ff" stroke="#63b8ff" points="546.82,-18.75 556.82,-15.25 546.82,-11.75 546.82,-18.75"/>
</a>
</g>
</g>
<!-- Node4&#45;&gt;Node4 -->
<g id="edge6_Node000004_Node000004" class="edge">
<title>Node4&#45;&gt;Node4</title>
<g id="a_edge6_Node000004_Node000004"><a xlink:title=" ">
<path fill="none" stroke="#63b8ff" d="M600.48,-25.16C587.98,-33.77 597.11,-42.88 627.88,-42.88 645.18,-42.88 655.64,-39.99 659.25,-35.94"/>
<polygon fill="#63b8ff" stroke="#63b8ff" points="662.55,-34.75 655.8,-26.58 655.98,-37.18 662.55,-34.75"/>
</a>
</g>
</g>
<!-- Node5 -->
<g id="Node000005" class="node">
<title>Node5</title>
<g id="a_Node000005"><a xlink:href="class_a_q_n_w_b_1_1_n_w_b_1_1_registered_type.html#aa1e04074725b7331d725bbda8156bc2d" target="_top" xlink:title="Constructor.">
<polygon fill="white" stroke="#666666" points="891.5,-30.5 733,-30.5 733,0 891.5,0 891.5,-30.5"/>
<text xml:space="preserve" text-anchor="start" x="741" y="-17" font-family="Helvetica,sans-Serif" font-size="10.00">AQNWB::NWB::RegisteredType</text>
<text xml:space="preserve" text-anchor="middle" x="812.25" y="-5.75" font-family="Helvetica,sans-Serif" font-size="10.00">::RegisteredType</text>
</a>
</g>
</g>
<!-- Node4&#45;&gt;Node5 -->
<g id="edge7_Node000004_Node000005" class="edge">
<title>Node4&#45;&gt;Node5</title>
<g id="a_edge7_Node000004_Node000005"><a xlink:title=" ">
<path fill="none" stroke="#63b8ff" d="M697.3,-15.25C705.14,-15.25 713.21,-15.25 721.26,-15.25"/>
<polygon fill="#63b8ff" stroke="#63b8ff" points="721.11,-18.75 731.11,-15.25 721.11,-11.75 721.11,-18.75"/>
</a>
</g>
</g>
</g>
</svg>
